<?xml version="1.0" encoding="UTF-8"?><svg id="Calque_2" xmlns="http://www.w3.org/2000/svg" viewBox="0 0 70.13 70.13"><defs><style>.cls-1{fill:#120959;}.cls-1,.cls-2,.cls-3{stroke-width:0px;}.cls-2{fill:#ffca41;}.cls-3{fill:#fff;}</style></defs><g id="Calque_1-2"><circle class="cls-2" cx="35.13" cy="35.13" r="34.99"/><circle class="cls-3" cx="35" cy="35" r="34.99"/><path class="cls-1" d="M12.53,26.67c20.24-1.17,33.42,2.24,39.15,10.12,5.13,7.04,2.19,14.83,2.07,15.16l-3.75-1.03h0s.22-1.57-.57-3.39c-1.05-2.44-3.37-4.22-6.89-5.29l1.14-3.74c2.76.84,4.83,2.05,6.35,3.41-.35-.95-.85-1.92-1.55-2.86-2.76-3.75-9.2-7.91-24.12-8.59,1.46.83,2.69,1.79,3.4,2.91l-3.31,2.08c-1.29-2.05-7.9-4.1-12.18-4.91l.25-3.87Z"/><path class="cls-1" d="M12.05,26.76c5.35-1.7,11.71-4.16,12.65-5.11l3.01,2.49c-1.73,2.13-10.7,5.15-14.47,6.35l-1.18-3.73Z"/></g></svg>