<?xml version="1.0" encoding="UTF-8"?><svg id="Calque_2" xmlns="http://www.w3.org/2000/svg" viewBox="0 0 167.14 119.31"><defs><style>.cls-1{fill:#13015d;}.cls-1,.cls-2,.cls-3,.cls-4{stroke-width:0px;}.cls-2{fill:#ffca41;}.cls-3{fill:#f00000;}.cls-4{fill:#00ecb8;}</style></defs><g id="Calque_1-2"><polygon class="cls-3" points="160.03 108.98 160.03 119.31 114.6 117.99 50.81 47.46 58.94 37.67 118.67 104.83 160.03 108.98"/><path class="cls-1" d="M62.52,33.27L91.2,0h9.75c6.63,12.41,13.76,16.25,25.81,17.78,0,0-4.02,38.43,22.37,55.64,1.76,1.15,11.85,2.49,13.09,3.97,8.67,10.32,5.05,27.01-4.49,27.01l-36.71-3.44L62.52,33.27Z"/><rect class="cls-4" x="120.07" y="35.11" width="11.88" height="7.73" transform="translate(-5.31 51.36) rotate(-22.58)"/><rect class="cls-4" x="125.17" y="47.17" width="11.88" height="7.73" transform="translate(-9.55 54.24) rotate(-22.58)"/><rect class="cls-4" x="131.41" y="59.35" width="11.88" height="7.73" transform="translate(-13.75 57.57) rotate(-22.58)"/><rect class="cls-2" x="14.23" y="16.21" width="39.72" height="7.73"/><rect class="cls-2" y="43.74" width="39.72" height="7.73"/><rect class="cls-2" x="18.55" y="74.71" width="39.72" height="7.73"/></g></svg>