<svg width="135" height="97" viewBox="0 0 135 97" fill="none" xmlns="http://www.w3.org/2000/svg">
<g clip-path="url(#clip0_107_9)">
<path d="M129.26 88.6058V97L92.5666 95.9321L41.0388 38.5855L47.6083 30.6296L95.856 85.2341L129.26 88.6058Z" fill="#E20917"/>
<path d="M50.4993 27.0481L73.6642 0H81.5402C86.8959 10.0871 92.6501 13.2162 102.389 14.4567C102.389 14.4567 99.1455 45.7019 120.457 59.6923C121.879 60.625 130.029 61.7163 131.03 62.9148C138.035 71.3043 135.107 84.875 127.407 84.875L97.7556 82.0769L50.4993 27.0481Z" fill="#140D59"/>
<path d="M106.215 29.8368L97.3525 33.5489" stroke="#49E8BB" stroke-width="10.0347" stroke-miterlimit="10"/>
<path d="M110.329 39.6441L101.467 43.3516" stroke="#49E8BB" stroke-width="10.0347" stroke-miterlimit="10"/>
<path d="M115.365 49.5446L106.507 53.2521" stroke="#49E8BB" stroke-width="10.0347" stroke-miterlimit="10"/>
<path d="M43.5776 16.3221H11.499" stroke="#FBCB5D" stroke-width="10.0347" stroke-miterlimit="10"/>
<path d="M32.0833 38.7067H0" stroke="#FBCB5D" stroke-width="10.0347" stroke-miterlimit="10"/>
<path d="M47.0617 63.8894H14.983" stroke="#FBCB5D" stroke-width="10.0347" stroke-miterlimit="10"/>
</g>
<defs>
<clipPath id="clip0_107_9">
<rect width="135" height="97" fill="white"/>
</clipPath>
</defs>
</svg>
