<?xml version="1.0" encoding="UTF-8"?><svg id="Calque_2" xmlns="http://www.w3.org/2000/svg" viewBox="0 0 194.46 186"><defs><style>.cls-1{fill:#120959;}.cls-1,.cls-2,.cls-3,.cls-4{stroke-width:0px;}.cls-2{fill:#ffca41;}.cls-3{fill:#fff;}.cls-4{fill:#f00000;}</style></defs><g id="Calque_1-2"><rect class="cls-1" x="0" y="56" width="55.47" height="129.79"/><rect class="cls-1" x="14.94" y="15" width="25.6" height="41"/><rect class="cls-4" x="14.94" y="0" width="25.6" height="15"/><rect class="cls-2" y="100.06" width="42.75" height="50"/><path class="cls-4" d="M159.05,186h-48c0-5.68,1.97-10.89,5.27-15,.13-.17.26-.33.4-.49,2.36-2.79,5.34-5.03,8.73-6.51,2.94-1.29,6.19-2,9.6-2s6.67.71,9.61,2c3.39,1.48,6.37,3.72,8.72,6.51.14.16.27.32.4.49,3.3,4.11,5.27,9.32,5.27,15Z"/><path class="cls-4" d="M194.46,114c0,4.47-.49,8.82-1.43,13-.53,2.39-1.21,4.73-2.03,7-1.37,3.87-3.15,7.55-5.26,11-1.51,2.46-3.19,4.8-5.04,7-3.87,4.66-8.45,8.71-13.57,12-4.24,2.73-8.86,4.93-13.75,6.51-.52.18-1.04.34-1.57.49-5.31,1.56-10.94,2.4-16.76,2.4s-11.45-.84-16.76-2.4c-.53-.15-1.05-.31-1.57-.49-4.89-1.58-9.51-3.78-13.75-6.51-5.12-3.29-9.7-7.34-13.56-12-1.85-2.2-3.53-4.54-5.04-7-2.11-3.45-3.89-7.13-5.26-11-.82-2.27-1.5-4.61-2.03-7-.94-4.18-1.43-8.53-1.43-13h118.81Z"/><path class="cls-3" d="M193.03,127c-.53,2.39-1.21,4.73-2.03,7h-111.89c-.82-2.27-1.5-4.61-2.03-7h115.95Z"/><path class="cls-3" d="M185.74,145c-1.51,2.46-3.19,4.8-5.04,7h-91.29c-1.85-2.2-3.53-4.54-5.04-7h101.37Z"/><path class="cls-3" d="M153.38,170.51c.14.16.27.32.4.49h-37.46c.13-.17.26-.33.4-.49-4.89-1.58-9.51-3.78-13.75-6.51h64.16c-4.24,2.73-8.86,4.93-13.75,6.51Z"/></g></svg>