<svg width="209" height="129" viewBox="0 0 209 129" fill="none" xmlns="http://www.w3.org/2000/svg">
<path d="M31.8394 48.0195L33.103 80.3383L56.7132 68.6904L31.8394 48.0195Z" fill="#141456"/>
<path d="M50.0633 84.9638L49.2222 63.4973L33.5397 71.2335L50.0633 84.9638Z" fill="#141456"/>
<path d="M29.7996 31.7255L29.0997 42.4607L20.1535 36.4835L20.8533 25.7484L29.7996 31.7255Z" fill="#141456"/>
<path d="M45.4402 44.8657L34.7001 44.1621L40.6773 35.2159L51.4174 35.9195L45.4402 44.8657Z" fill="#FBCB5D"/>
<path d="M21.0594 56.8927L10.3236 56.1885L16.3007 47.2423L27.0359 47.9421L21.0594 56.8927Z" fill="#FBCB5D"/>
<path d="M193.767 0.65007L74.3603 18.2871L77.2998 38.1882L196.706 20.5511L193.767 0.65007Z" fill="#141456"/>
<path d="M199.646 40.4522L80.2393 58.0892L83.1788 77.9903L202.585 60.3533L199.646 40.4522Z" fill="#141456"/>
<path d="M205.525 80.2543L12.5709 108.755L15.5104 128.656L208.464 100.155L205.525 80.2543Z" fill="#141456"/>
</svg>
