<?xml version="1.0" encoding="UTF-8"?><svg id="Calque_2" xmlns="http://www.w3.org/2000/svg" viewBox="0 0 55.11 82.87"><defs><style>.cls-1{fill:#2d2d2d;stroke-width:0px;}</style></defs><g id="Calque_1-2"><path class="cls-1" d="M50.68,82.51C17.82,63.22.77,44.16.03,25.86-.64,9.5,12.06.38,12.6,0l4.79,5.52h0s-1.98,2.24-2.65,5.9c-.9,4.9.87,10.1,5.25,15.45l-5.68,4.66c-3.44-4.19-5.41-8.23-6.38-11.96-.44,1.85-.66,3.89-.56,6.09.39,8.74,6.14,21.95,28.75,38.59-1.43-2.82-2.34-5.62-2.27-8.1l7.34.2c-.12,4.55,8.06,14.65,13.92,20.37l-4.43,5.8Z"/><path class="cls-1" d="M51.52,82.87c-10.14-2.92-22.64-5.71-25.1-5.2l-2.11-7.04c4.92-1.52,22.09,3.11,29.25,5.17l-2.04,7.06Z"/></g></svg>