<?xml version="1.0" encoding="UTF-8"?><svg id="Calque_2" xmlns="http://www.w3.org/2000/svg" viewBox="0 0 83.14 93.58"><defs><style>.cls-1{fill:#2d2d2d;stroke-width:0px;}</style></defs><g id="Calque_1-2"><path class="cls-1" d="M82.54,81.53c-45.86.58-62.97-2.28-65.39-10.91-1.94-6.93,6.82-13.14,14.68-17.77,3.23-1.91,10.45-6.17,12.26-8.21-.98-.93-3.36-2.44-5.5-3.8-6.44-4.1-16.09-10.23-26.76-21.99.48,3.96.56,8.26-.12,12.59l-7.26-1.14C6.5,17.26.07,3.83,0,3.69L6.33,0c14.17,20.63,27.96,29.39,36.2,34.63,5.57,3.54,9.25,5.88,9.18,10.03-.08,4.59-4.73,7.79-16.15,14.52-11.24,6.63-11.33,9.47-11.33,9.5h0s1.43,2.92,17.36,4.48c3.68.36,7.88.63,12.71.81-5.42-2.13-10.28-4.69-13.05-7.63l5.35-5.04c1.61,1.71,6.43,5.18,20.57,9.18,8.37,2.37,15.9,3.74,15.98,3.76l-.61,7.29Z"/><path class="cls-1" d="M83.12,81.47c-11.8,2.05-32.15,7.15-36.56,12.1l-5.49-4.89c7.55-8.47,37.41-13.87,40.79-14.45l1.26,7.24Z"/></g></svg>