<?xml version="1.0" encoding="UTF-8"?><svg id="Calque_2" xmlns="http://www.w3.org/2000/svg" viewBox="0 0 109.71 90.09"><defs><style>.cls-1{fill:#2d2d2d;stroke-width:0px;}</style></defs><g id="Calque_1-2"><path class="cls-1" d="M75.05,31.71l-1.53-7.19c2.86-.61,13.82-6.21,30.03-24.53l5.5,4.87c-2.19,2.47-21.71,24.22-33.99,26.84Z"/><path class="cls-1" d="M94.06,43.46c-3.33-10.85,7.56-39.18,8.81-42.37l6.84,2.68c-4.37,11.15-10.57,31.19-8.63,37.53l-7.02,2.15Z"/><path class="cls-1" d="M2.01,90.09l-2.01-7.01c.1-.04,11.07-4.8,12.55-12.94l7.23,1.31c-.48,2.64-1.53,4.99-2.88,7.05,7.43-3.08,12.95-7.42,16.78-13.18-5.65-1.65-10.72-5.26-15.16-10.79-4.71-5.88-5.11-12.54-1.07-17.83,4.77-6.23,14.34-8.82,21.34-5.77,3.2,1.39,10.38,6.11,8.05,19.82-.48,2.79-1.12,5.44-1.94,7.93,9.94-1.68,21.88-9.78,34.76-23.59,10.97-11.78,18.7-23.58,18.78-23.69l6.16,4.01c-1.31,2.02-32.54,49.46-62.08,50.92-.31.02-.62.03-.93.03-7.05,12.77-20.12,20.58-39.56,23.74ZM32.39,36.99c-3.39,0-7.13,1.59-9.1,4.17-1.96,2.57-1.64,5.52.97,8.77,3.86,4.81,8.11,7.68,12.88,8.68,1.08-2.78,1.9-5.81,2.46-9.1.74-4.34.69-9.92-3.74-11.85-1.04-.45-2.23-.66-3.47-.66Z"/></g></svg>