<?xml version="1.0" encoding="UTF-8"?><svg id="Calque_2" xmlns="http://www.w3.org/2000/svg" xmlns:xlink="http://www.w3.org/1999/xlink" viewBox="0 0 183.33 177.64"><defs><style>.cls-1{clip-path:url(#clippath);}.cls-2,.cls-3{fill:#fffaec;}.cls-4{fill:#120959;}.cls-4,.cls-3,.cls-5{stroke-width:0px;}.cls-5{fill:#f00000;}</style><clipPath id="clippath"><circle class="cls-3" cx="76.9" cy="89.09" r="76.88" transform="translate(-30.82 136.48) rotate(-72.94)"/></clipPath></defs><g id="Calque_1-2"><circle class="cls-2" cx="76.9" cy="89.09" r="76.88" transform="translate(-30.82 136.48) rotate(-72.94)"/><g class="cls-1"><polygon class="cls-4" points="68.98 142.6 42.45 128.98 22.4 143.61 37.21 177.64 64.02 168.44 68.98 142.6"/><polygon class="cls-5" points="44.52 111.7 60.98 86.83 48.65 65.3 13.19 76.27 19.38 103.93 44.52 111.7"/><polygon class="cls-4" points="128.47 114.37 101.94 100.74 81.89 115.37 96.71 149.41 123.51 140.21 128.47 114.37"/><polygon class="cls-4" points="173.52 56.42 143.83 59.32 134.89 82.47 165.76 103.08 183.33 80.84 173.52 56.42"/><polygon class="cls-4" points="37.02 0 11.38 15.22 13.1 39.98 49.8 45.54 56.27 17.95 37.02 0"/><polygon class="cls-4" points="118.14 41.18 91.6 27.56 71.56 42.19 86.37 76.22 113.17 67.02 118.14 41.18"/></g></g></svg>