<?xml version="1.0" encoding="UTF-8"?><svg id="Calque_2" xmlns="http://www.w3.org/2000/svg" xmlns:xlink="http://www.w3.org/1999/xlink" viewBox="0 0 154.97 113.88"><defs><style>.cls-1{clip-path:url(#clippath);}.cls-2,.cls-3{fill:#120959;}.cls-3,.cls-4,.cls-5{stroke-width:0px;}.cls-4{fill:#fffaec;}.cls-5{fill:#00ecb8;}</style><clipPath id="clippath"><circle class="cls-3" cx="78.66" cy="58.9" r="54.97" transform="translate(-.72 116.82) rotate(-72.94)"/></clipPath></defs><g id="Calque_1-2"><circle class="cls-2" cx="78.66" cy="58.9" r="54.97" transform="translate(-.72 116.82) rotate(-72.94)"/><g class="cls-1"><polygon class="cls-5" points="80 75.34 62.79 87.94 65.72 105.44 92.22 106.88 94.93 86.8 80 75.34"/><polygon class="cls-4" points="78.49 43.45 94.93 29.87 90.98 12.57 64.44 12.69 62.91 32.89 78.49 43.45"/><polygon class="cls-5" points="102.91 41.65 84.63 52.66 85.97 70.34 112.23 74.14 116.74 54.39 102.91 41.65"/><polygon class="cls-5" points="20.98 5.96 21.79 27.27 37.93 34.64 53.95 13.49 38.83 0 20.98 5.96"/><polygon class="cls-5" points="13.76 34.88 0 51.17 6.96 67.5 33.05 62.66 30.96 42.51 13.76 34.88"/><polygon class="cls-5" points="32.78 73.58 11.78 77.29 6.68 94.29 29.82 107.27 41.12 90.45 32.78 73.58"/><polygon class="cls-5" points="140.9 11.74 139.33 33.01 122.94 39.8 107.68 18.09 123.28 5.15 140.9 11.74"/><polygon class="cls-5" points="141.8 38.74 154.97 55.51 147.44 71.57 121.53 65.82 124.34 45.75 141.8 38.74"/><polygon class="cls-5" points="123.55 74.08 144.41 78.54 148.9 95.71 125.31 107.86 114.62 90.64 123.55 74.08"/><polygon class="cls-5" points="71.99 51.25 53.02 41.51 38.68 51.97 49.27 76.3 68.44 69.73 71.99 51.25"/></g></g></svg>