<?xml version="1.0" encoding="UTF-8"?><svg id="Calque_2" xmlns="http://www.w3.org/2000/svg" viewBox="0 0 687.94 166.12"><defs><style>.cls-1{fill:#fff;stroke-width:0px;}</style></defs><g id="Calque_1-2"><path class="cls-1" d="M223.01,46.97V2.54h11.42v35.03h19.04v9.39h-30.46Z"/><path class="cls-1" d="M274.1,47.79c-3.3,0-6.26-.62-8.89-1.87-2.62-1.25-4.71-3.16-6.25-5.74-1.54-2.58-2.32-5.82-2.32-9.71v-1.27c0-3.72.74-6.81,2.22-9.27,1.48-2.45,3.5-4.3,6.06-5.55,2.56-1.25,5.4-1.87,8.54-1.87,5.54,0,9.73,1.43,12.57,4.28s4.25,6.99,4.25,12.41v3.55h-23.61c.08,1.65.48,3.03,1.17,4.12.7,1.1,1.6,1.89,2.7,2.38,1.1.49,2.28.73,3.55.73,1.86,0,3.33-.29,4.41-.86s1.79-1.34,2.13-2.32h9.01c-.68,3.68-2.35,6.43-5.01,8.25-2.67,1.82-6.18,2.73-10.54,2.73ZM273.79,20.31c-1.18,0-2.31.19-3.36.57-1.06.38-1.92,1.01-2.57,1.87-.66.87-1.03,2.04-1.11,3.52h13.96c0-1.56-.32-2.78-.95-3.65-.63-.87-1.47-1.47-2.51-1.81-1.04-.34-2.19-.51-3.46-.51Z"/><path class="cls-1" d="M322.97,46.97V11.93h-13.65V2.54h38.71v9.39h-13.65v35.03h-11.42Z"/><path class="cls-1" d="M363.59,47.79c-3.3,0-6.26-.62-8.89-1.87-2.62-1.25-4.71-3.16-6.25-5.74-1.54-2.58-2.32-5.82-2.32-9.71v-1.27c0-3.72.74-6.81,2.22-9.27,1.48-2.45,3.5-4.3,6.06-5.55,2.56-1.25,5.4-1.87,8.54-1.87,5.54,0,9.73,1.43,12.57,4.28s4.25,6.99,4.25,12.41v3.55h-23.61c.08,1.65.48,3.03,1.17,4.12.7,1.1,1.6,1.89,2.7,2.38,1.1.49,2.28.73,3.55.73,1.86,0,3.33-.29,4.41-.86s1.79-1.34,2.13-2.32h9.01c-.68,3.68-2.35,6.43-5.01,8.25-2.67,1.82-6.18,2.73-10.54,2.73ZM363.27,20.31c-1.18,0-2.31.19-3.36.57-1.06.38-1.92,1.01-2.57,1.87-.66.87-1.03,2.04-1.11,3.52h13.96c0-1.56-.32-2.78-.95-3.65-.63-.87-1.47-1.47-2.51-1.81-1.04-.34-2.19-.51-3.46-.51ZM359.15,10.15l6.98-10.15h10.15l-9.52,10.15h-7.62Z"/><path class="cls-1" d="M396.91,47.35c-2.71,0-4.93-.33-6.66-.98-1.74-.66-3.01-1.86-3.84-3.62-.83-1.75-1.24-4.3-1.24-7.65V2.54h9.77v31.1c0,2.07.29,3.52.86,4.35s1.77,1.24,3.59,1.24c.51,0,.93,0,1.27-.03.34-.02.68-.05,1.02-.1v8.06c-.42.04-.88.07-1.36.09-.49.02-1.02.04-1.59.06s-1.17.03-1.81.03Z"/><path class="cls-1" d="M421.98,47.79c-3.3,0-6.26-.62-8.89-1.87-2.62-1.25-4.71-3.16-6.25-5.74-1.54-2.58-2.32-5.82-2.32-9.71v-1.27c0-3.72.74-6.81,2.22-9.27,1.48-2.45,3.5-4.3,6.06-5.55,2.56-1.25,5.4-1.87,8.54-1.87,5.54,0,9.73,1.43,12.57,4.28s4.25,6.99,4.25,12.41v3.55h-23.61c.08,1.65.48,3.03,1.17,4.12.7,1.1,1.6,1.89,2.7,2.38,1.1.49,2.28.73,3.55.73,1.86,0,3.33-.29,4.41-.86s1.79-1.34,2.13-2.32h9.01c-.68,3.68-2.35,6.43-5.01,8.25-2.67,1.82-6.18,2.73-10.54,2.73ZM421.66,20.31c-1.18,0-2.31.19-3.36.57-1.06.38-1.92,1.01-2.57,1.87-.66.87-1.03,2.04-1.11,3.52h13.96c0-1.56-.32-2.78-.95-3.65-.63-.87-1.47-1.47-2.51-1.81-1.04-.34-2.19-.51-3.46-.51ZM417.54,10.15l6.98-10.15h10.15l-9.52,10.15h-7.62Z"/><path class="cls-1" d="M458.47,60.48c-3.64,0-6.55-.42-8.73-1.27-2.18-.85-3.77-2.08-4.76-3.71-1-1.63-1.58-3.52-1.75-5.68h9.96c.21.76.69,1.48,1.43,2.16s2.02,1.02,3.84,1.02c2.54,0,4.45-.58,5.74-1.75,1.29-1.16,1.94-3.01,1.94-5.55v-3.62c-1.14,1.65-2.57,2.91-4.28,3.78-1.71.87-3.52,1.3-5.43,1.3-2.92,0-5.47-.63-7.65-1.9-2.18-1.27-3.86-3.15-5.05-5.65-1.18-2.5-1.78-5.65-1.78-9.46v-1.27c0-3.55.58-6.55,1.75-8.98,1.16-2.43,2.83-4.27,5.01-5.52,2.18-1.25,4.75-1.87,7.71-1.87,2.62,0,4.81.56,6.57,1.68,1.75,1.12,3.06,2.36,3.9,3.71v-4.57h9.01v31.42c0,5.25-1.41,9.18-4.22,11.81-2.81,2.62-7.23,3.93-13.23,3.93ZM458.79,39.1c1.4,0,2.64-.32,3.75-.95,1.1-.63,1.98-1.55,2.63-2.76.66-1.21.98-2.63.98-4.28v-3.17c0-1.61-.33-2.95-.98-4.03-.66-1.08-1.53-1.9-2.63-2.48-1.1-.57-2.35-.86-3.75-.86-1.99,0-3.62.69-4.89,2.06-1.27,1.38-1.9,3.46-1.9,6.25v1.27c0,2.92.64,5.14,1.94,6.67,1.29,1.52,2.91,2.28,4.86,2.28Z"/><path class="cls-1" d="M482.28,46.97V13.33h9.01v4.57c.34-.76.91-1.56,1.71-2.41.8-.85,1.78-1.56,2.92-2.13,1.14-.57,2.41-.86,3.81-.86.72,0,1.29.04,1.71.13.42.08.8.17,1.14.25v8.44c-.21-.13-.7-.27-1.46-.44-.76-.17-1.65-.25-2.67-.25-1.48,0-2.7.3-3.65.89-.95.59-1.65,1.4-2.09,2.41-.44,1.02-.67,2.16-.67,3.43v19.61h-9.77Z"/><path class="cls-1" d="M516.55,47.79c-2.41,0-4.47-.47-6.19-1.4-1.71-.93-3.01-2.21-3.9-3.84-.89-1.63-1.33-3.44-1.33-5.43,0-3.34,1.03-5.9,3.08-7.68,2.05-1.78,5.15-2.67,9.3-2.67h9.52v-1.4c0-2.03-.48-3.43-1.43-4.19s-2.27-1.14-3.97-1.14-2.79.24-3.55.73c-.76.49-1.19,1.28-1.27,2.38h-9.77c.13-2.03.77-3.85,1.94-5.46,1.16-1.61,2.83-2.88,5.01-3.81,2.18-.93,4.83-1.4,7.96-1.4,2.96,0,5.56.44,7.81,1.33,2.24.89,3.99,2.32,5.24,4.28,1.25,1.97,1.87,4.6,1.87,7.9v12.38c0,1.78.04,3.33.13,4.67.08,1.33.21,2.63.38,3.9h-9.33c-.04-.72-.09-1.35-.16-1.9-.06-.55-.1-1.23-.1-2.03-1.02,1.35-2.42,2.49-4.22,3.4-1.8.91-4.14,1.36-7.01,1.36ZM519.72,40.87c1.4,0,2.64-.25,3.74-.76,1.1-.51,1.97-1.28,2.6-2.32.63-1.04.95-2.21.95-3.52v-1.4h-7.62c-1.44,0-2.51.38-3.21,1.14-.7.76-1.05,1.63-1.05,2.6,0,1.27.35,2.29,1.05,3.08.7.78,1.87,1.17,3.52,1.17Z"/><path class="cls-1" d="M542.89,46.97V13.33h9.2v4.82c.76-1.48,1.95-2.79,3.55-3.93,1.61-1.14,3.6-1.71,5.97-1.71,2.67,0,4.73.51,6.19,1.52,1.46,1.02,2.53,2.39,3.21,4.12.85-1.61,2.16-2.95,3.94-4.03,1.78-1.08,3.87-1.62,6.28-1.62,3.64,0,6.41,1.03,8.31,3.08,1.9,2.05,2.86,5.11,2.86,9.17v22.21h-9.77v-19.8c0-2.37-.37-4.05-1.11-5.05-.74-.99-1.94-1.49-3.59-1.49-.97,0-1.87.26-2.7.79-.83.53-1.48,1.28-1.97,2.25-.49.97-.73,2.14-.73,3.49v19.8h-9.77v-19.8c0-2.37-.37-4.05-1.11-5.05-.74-.99-1.96-1.49-3.65-1.49-.97,0-1.86.26-2.67.79-.8.53-1.45,1.28-1.94,2.25-.49.97-.73,2.14-.73,3.49v19.8h-9.77Z"/><path class="cls-1" d="M598.42,46.97V13.33h9.2v4.82c.76-1.48,1.95-2.79,3.55-3.93,1.61-1.14,3.6-1.71,5.97-1.71,2.67,0,4.73.51,6.19,1.52,1.46,1.02,2.53,2.39,3.21,4.12.85-1.61,2.16-2.95,3.94-4.03,1.78-1.08,3.87-1.62,6.28-1.62,3.64,0,6.41,1.03,8.31,3.08,1.9,2.05,2.86,5.11,2.86,9.17v22.21h-9.77v-19.8c0-2.37-.37-4.05-1.11-5.05-.74-.99-1.94-1.49-3.59-1.49-.97,0-1.87.26-2.7.79-.83.53-1.48,1.28-1.97,2.25-.49.97-.73,2.14-.73,3.49v19.8h-9.77v-19.8c0-2.37-.37-4.05-1.11-5.05-.74-.99-1.96-1.49-3.65-1.49-.97,0-1.86.26-2.67.79-.8.53-1.45,1.28-1.94,2.25-.49.97-.73,2.14-.73,3.49v19.8h-9.77Z"/><path class="cls-1" d="M670.14,47.79c-3.3,0-6.26-.62-8.89-1.87-2.62-1.25-4.71-3.16-6.25-5.74-1.54-2.58-2.32-5.82-2.32-9.71v-1.27c0-3.72.74-6.81,2.22-9.27,1.48-2.45,3.5-4.3,6.06-5.55,2.56-1.25,5.4-1.87,8.54-1.87,5.54,0,9.73,1.43,12.57,4.28s4.25,6.99,4.25,12.41v3.55h-23.61c.08,1.65.48,3.03,1.17,4.12.7,1.1,1.6,1.89,2.7,2.38,1.1.49,2.28.73,3.55.73,1.86,0,3.33-.29,4.41-.86s1.79-1.34,2.13-2.32h9.01c-.68,3.68-2.35,6.43-5.01,8.25-2.67,1.82-6.18,2.73-10.54,2.73ZM669.82,20.31c-1.18,0-2.31.19-3.36.57-1.06.38-1.92,1.01-2.57,1.87-.66.87-1.03,2.04-1.11,3.52h13.96c0-1.56-.32-2.78-.95-3.65-.63-.87-1.47-1.47-2.51-1.81-1.04-.34-2.19-.51-3.46-.51Z"/><path class="cls-1" d="M222.42,165.01l.88-97.83h21.96c4.96,0,8.94.99,11.92,2.97s5.13,4.85,6.45,8.59c1.32,3.74,1.96,8.26,1.91,13.56l-.34,44.13c-.06,6.41-.8,11.74-2.23,15.98-1.43,4.24-3.69,7.4-6.78,9.48-3.09,2.08-7.2,3.11-12.31,3.11h-21.46ZM237.42,153.45h4.89c1.74,0,3.2-.35,4.37-1.06,1.17-.7,2.06-1.95,2.65-3.75.59-1.8.9-4.34.93-7.64l.38-48.3c.04-5-.53-8.6-1.74-10.78-1.2-2.19-3.34-3.28-6.42-3.28h-4.39l-.67,74.82Z"/><path class="cls-1" d="M278.45,165.01l.88-97.83h32.79l-.11,12.84h-17.9l-.25,28.46h17.01l-.11,12.56h-17.01l-.28,31.13h18.56l-.12,12.84h-33.46Z"/><path class="cls-1" d="M340.75,166.12c-4.08,0-7.47-.64-10.18-1.92-2.71-1.28-4.84-3.15-6.4-5.61-1.55-2.46-2.65-5.47-3.28-9s-.93-7.57-.89-12.09l.08-8.73h14.12l-.09,9.84c-.05,5.26.36,9.04,1.23,11.34.87,2.3,2.62,3.45,5.25,3.45,1.78,0,3.12-.42,4.04-1.25.92-.83,1.54-2.17,1.87-4s.51-4.23.54-7.2c.03-3.67-.71-7.02-2.22-10.06-1.51-3.04-3.81-6.19-6.89-9.45l-7.16-7.45c-1.98-2.08-3.77-4.28-5.36-6.62-1.59-2.33-2.85-4.94-3.77-7.81-.92-2.87-1.36-6.09-1.33-9.64.05-5.15.71-9.51,2.01-13.06,1.29-3.56,3.45-6.25,6.46-8.09,3.02-1.83,7.14-2.75,12.36-2.75,3.93,0,7.16.6,9.68,1.81,2.53,1.21,4.49,2.96,5.9,5.28,1.41,2.32,2.39,5.13,2.95,8.45.56,3.32.83,7.11.79,11.37l-.05,6.06h-13.73l.06-7c.03-2.96-.11-5.43-.41-7.39-.3-1.96-.87-3.44-1.71-4.42-.84-.98-2.08-1.47-3.71-1.47s-2.82.34-3.79,1.03c-.97.69-1.67,1.74-2.11,3.17-.44,1.43-.67,3.27-.69,5.53-.02,2.04.22,3.8.73,5.28.51,1.48,1.29,2.91,2.35,4.28,1.06,1.37,2.38,2.91,3.96,4.61l7.98,8.73c3.82,4.15,6.78,8.47,8.89,12.95s3.14,9.49,3.09,15.01c-.05,5.86-.73,10.78-2.02,14.76-1.3,3.98-3.43,7-6.42,9.03-2.98,2.04-7.03,3.06-12.14,3.06Z"/><path class="cls-1" d="M409.78,166.12c-4.08,0-7.47-.64-10.18-1.92-2.71-1.28-4.84-3.15-6.4-5.61-1.55-2.46-2.65-5.47-3.28-9s-.93-7.57-.89-12.09l.08-8.73h14.12l-.09,9.84c-.05,5.26.36,9.04,1.23,11.34.87,2.3,2.62,3.45,5.25,3.45,1.78,0,3.12-.42,4.04-1.25.92-.83,1.54-2.17,1.87-4s.51-4.23.54-7.2c.03-3.67-.71-7.02-2.22-10.06-1.51-3.04-3.81-6.19-6.89-9.45l-7.16-7.45c-1.98-2.08-3.77-4.28-5.36-6.62-1.59-2.33-2.85-4.94-3.77-7.81-.92-2.87-1.36-6.09-1.33-9.64.05-5.15.71-9.51,2.01-13.06,1.29-3.56,3.45-6.25,6.46-8.09,3.02-1.83,7.14-2.75,12.36-2.75,3.93,0,7.16.6,9.68,1.81,2.53,1.21,4.49,2.96,5.9,5.28,1.41,2.32,2.39,5.13,2.95,8.45.56,3.32.83,7.11.79,11.37l-.05,6.06h-13.73l.06-7c.03-2.96-.11-5.43-.41-7.39-.3-1.96-.87-3.44-1.71-4.42-.84-.98-2.08-1.47-3.71-1.47s-2.82.34-3.79,1.03c-.97.69-1.67,1.74-2.11,3.17-.44,1.43-.67,3.27-.69,5.53-.02,2.04.22,3.8.73,5.28.51,1.48,1.29,2.91,2.35,4.28,1.06,1.37,2.38,2.91,3.96,4.61l7.98,8.73c3.82,4.15,6.78,8.47,8.89,12.95s3.14,9.49,3.09,15.01c-.05,5.86-.73,10.78-2.02,14.76-1.3,3.98-3.43,7-6.42,9.03-2.98,2.04-7.03,3.06-12.14,3.06Z"/><path class="cls-1" d="M460.64,166.12c-4.74,0-8.68-1.09-11.81-3.28-3.13-2.19-5.46-5.38-7-9.59-1.54-4.21-2.28-9.29-2.23-15.26l.38-42.63c.04-4.48.45-8.52,1.22-12.12.77-3.59,2.01-6.67,3.7-9.23,1.69-2.56,3.93-4.52,6.72-5.89,2.79-1.37,6.22-2.06,10.3-2.06,3.71,0,6.86.6,9.46,1.81,2.6,1.21,4.72,2.94,6.35,5.2,1.63,2.26,2.81,4.99,3.54,8.2.73,3.21,1.08,6.81,1.04,10.81l-.12,13.45h-14.4l.11-12.51c.04-4.82-.33-8.37-1.13-10.64s-2.41-3.42-4.86-3.42c-2.71,0-4.52,1.23-5.45,3.7-.93,2.46-1.41,5.9-1.45,10.31l-.41,45.69c-.03,3.41.14,6.2.51,8.37.37,2.17,1.01,3.76,1.93,4.78.92,1.02,2.21,1.53,3.88,1.53,2.52,0,4.23-1.19,5.15-3.56s1.39-6.13,1.44-11.28l.12-14.01h14.62l-.12,13.84c-.06,6.19-.82,11.35-2.31,15.48-1.48,4.13-3.8,7.22-6.95,9.25-3.15,2.04-7.23,3.06-12.23,3.06Z"/><path class="cls-1" d="M515,166.12c-5.08,0-9.21-1.08-12.39-3.22-3.19-2.15-5.52-5.34-7-9.56-1.48-4.22-2.19-9.45-2.14-15.67l.4-44.75c.05-5.63.83-10.45,2.35-14.45,1.52-4,3.9-7.08,7.14-9.23,3.24-2.15,7.48-3.22,12.7-3.22,3.93,0,7.24.61,9.93,1.83,2.69,1.22,4.86,2.99,6.51,5.31,1.65,2.32,2.83,5.13,3.57,8.45.73,3.32,1.08,7.09,1.04,11.31l-.4,44.75c-.06,6.23-.83,11.45-2.34,15.67-1.5,4.22-3.84,7.41-7.01,9.56-3.17,2.15-7.29,3.22-12.37,3.22ZM515.12,153.23c1.85,0,3.25-.56,4.18-1.67.94-1.11,1.57-2.81,1.91-5.08.33-2.28.52-5.16.55-8.64l.41-45.58c.04-4.26-.33-7.55-1.11-9.87-.78-2.32-2.48-3.47-5.11-3.47s-4.55,1.12-5.53,3.36c-.98,2.24-1.49,5.55-1.53,9.92l-.41,45.63c-.03,3.56.1,6.48.39,8.75.29,2.28.93,3.96,1.9,5.03.97,1.08,2.42,1.61,4.35,1.61Z"/><path class="cls-1" d="M549.97,165.01l.88-97.83h24.62c5.11,0,8.92,1,11.42,3,2.5,2,4.13,4.93,4.9,8.78.76,3.85,1.12,8.56,1.07,14.12-.05,5.74-.67,10.25-1.87,13.53-1.2,3.28-3.6,5.48-7.2,6.59,1.7.3,3.12.99,4.26,2.08,1.14,1.09,2.05,2.69,2.74,4.78.69,2.09,1.17,4.78,1.46,8.06.29,3.28.41,7.29.36,12.03,0,.37-.01,1.41-.03,3.11-.02,1.71-.02,3.72-.03,6.03,0,2.32,0,4.62.02,6.92.02,2.3.05,4.26.11,5.89.06,1.63.14,2.59.25,2.89h-14.9c-.11-.18-.18-1.14-.22-2.86-.04-1.72-.08-3.92-.11-6.59-.03-2.67-.04-5.54-.03-8.62,0-3.08.03-6.1.05-9.09.03-2.98.05-5.62.07-7.92.03-2.93-.17-5.14-.58-6.64s-1.18-2.55-2.31-3.14c-1.13-.59-2.74-.95-4.85-1.06l-4.78-.28-.41,46.19h-14.9ZM565.44,107.26h5.95c1.81,0,3.2-.41,4.15-1.22.95-.81,1.61-2.32,1.99-4.5.37-2.19.58-5.34.61-9.45v-.61c.04-3.45-.11-6.09-.42-7.95-.32-1.85-1-3.13-2.05-3.84-1.05-.7-2.69-1.06-4.91-1.06h-5.06l-.26,28.63Z"/><path class="cls-1" d="M605.06,165.01l.88-97.83h32.79l-.11,12.84h-17.9l-.25,28.46h17.01l-.11,12.56h-17.01l-.28,31.13h18.56l-.12,12.84h-33.46Z"/><path class="cls-1" d="M667.36,166.12c-4.08,0-7.47-.64-10.18-1.92-2.71-1.28-4.84-3.15-6.4-5.61-1.55-2.46-2.65-5.47-3.28-9s-.93-7.57-.89-12.09l.08-8.73h14.12l-.09,9.84c-.05,5.26.36,9.04,1.23,11.34.87,2.3,2.62,3.45,5.25,3.45,1.78,0,3.12-.42,4.04-1.25.92-.83,1.54-2.17,1.87-4s.51-4.23.54-7.2c.03-3.67-.71-7.02-2.22-10.06-1.51-3.04-3.81-6.19-6.89-9.45l-7.16-7.45c-1.98-2.08-3.77-4.28-5.36-6.62-1.59-2.33-2.85-4.94-3.77-7.81-.92-2.87-1.36-6.09-1.33-9.64.05-5.15.71-9.51,2.01-13.06,1.29-3.56,3.45-6.25,6.46-8.09,3.02-1.83,7.14-2.75,12.36-2.75,3.93,0,7.16.6,9.68,1.81,2.53,1.21,4.49,2.96,5.9,5.28,1.41,2.32,2.39,5.13,2.95,8.45.56,3.32.83,7.11.79,11.37l-.05,6.06h-13.73l.06-7c.03-2.96-.11-5.43-.41-7.39-.3-1.96-.87-3.44-1.71-4.42-.84-.98-2.08-1.47-3.71-1.47s-2.82.34-3.79,1.03c-.97.69-1.67,1.74-2.11,3.17-.44,1.43-.67,3.27-.69,5.53-.02,2.04.22,3.8.73,5.28.51,1.48,1.29,2.91,2.35,4.28,1.06,1.37,2.38,2.91,3.96,4.61l7.98,8.73c3.82,4.15,6.78,8.47,8.89,12.95s3.14,9.49,3.09,15.01c-.05,5.86-.73,10.78-2.02,14.76-1.3,3.98-3.43,7-6.42,9.03-2.98,2.04-7.03,3.06-12.14,3.06Z"/><polygon class="cls-1" points="89.65 52.12 0 52.12 .11 16.66 89.76 16.66 89.65 52.12"/><polygon class="cls-1" points="148.65 104.91 .78 104.91 .89 69.45 148.77 69.45 148.65 104.91"/><polygon class="cls-1" points="103.47 157.71 45.58 157.71 45.7 122.25 103.59 122.25 103.47 157.71"/><circle class="cls-1" cx="126.96" cy="34.51" r="21.6"/></g></svg>