<?xml version="1.0" encoding="utf-8"?>
<!-- Generator: Adobe Illustrator 28.1.0, SVG Export Plug-In . SVG Version: 6.00 Build 0)  -->
<svg version="1.1" xmlns="http://www.w3.org/2000/svg" xmlns:xlink="http://www.w3.org/1999/xlink" x="0px" y="0px"
	 viewBox="0 0 500 500" style="enable-background:new 0 0 500 500;" xml:space="preserve">
<style type="text/css">
	.st0{display:none;}
	.st1{display:inline;fill:#120959;}
	.st2{display:inline;fill:#00ECB8;}
	.st3{display:inline;fill:#FFCA41;}
	.st4{display:inline;fill:#F00000;}
	.st5{fill:#FFCA41;}
	.st6{fill:#F00000;}
	.st7{fill:#120959;}
	.st8{fill:#00ECB8;}
	.st9{fill:none;stroke:#F00000;stroke-width:11;stroke-miterlimit:10;}
</style>
<g id="Jambe_G" class="st0">
	<polygon class="st1" points="173.4,352 149.94,297.57 181.39,298.63 203.18,350.89 194.87,365.6 152.58,401.8 144.02,390.79 	"/>
</g>
<g id="Jambe_D" class="st0">
	<polygon class="st1" points="263.68,319.66 220.93,301.03 230.86,271.98 270.11,295.19 284.91,306.85 320.27,337.18 308.01,350.88 
			"/>
</g>
<g id="Bras_D" class="st0">
	<polygon class="st1" points="284.14,224.11 253.14,198.26 240.84,208.14 268.53,230.77 236.73,237.46 239.42,248.24 283.89,238.81 
			"/>
</g>
<g id="Bras_G" class="st0">
	<polygon class="st1" points="127.51,198.8 169.51,197.8 164.51,178.8 126.51,182.8 113.51,187.8 83.51,216.8 91.4,223.42 	"/>
</g>
<g id="Bassin" class="st0">
	
		<rect x="164.2" y="252.81" transform="matrix(0.978 0.2085 -0.2085 0.978 61.018 -33.8966)" class="st2" width="54.15" height="39.27"/>
</g>
<g id="Torse" class="st0">
	<polygon class="st2" points="192.39,272.47 246.32,189.49 169.11,176.3 	"/>
</g>
<g id="Tête" class="st0">
	<circle class="st3" cx="214.62" cy="135.84" r="38.05"/>
</g>
<g id="Balle" class="st0">
	<circle class="st4" cx="382.64" cy="226.21" r="34.56"/>
</g>
<g id="Calque_9">
	<g>
		<circle class="st5" cx="214.53" cy="135.83" r="38.05"/>
		<circle class="st6" cx="382.56" cy="226.2" r="34.56"/>
		<polygon class="st7" points="263.59,319.65 220.84,301.02 230.77,271.97 270.03,295.18 284.82,306.84 320.18,337.17 
			307.93,350.87 		"/>
		<polygon class="st7" points="173.31,351.99 149.85,297.56 181.31,298.62 203.1,350.88 194.79,365.58 152.49,401.79 143.93,390.78 
					"/>
		<polygon class="st7" points="127.42,198.79 169.42,197.79 164.42,178.79 126.42,182.79 113.42,187.79 83.42,216.79 91.31,223.41 
					"/>
		<polygon class="st7" points="284.05,224.09 253.05,198.25 240.75,208.13 268.45,230.76 236.64,237.45 239.34,248.23 283.8,238.8 
					"/>
		
			<rect x="164.11" y="252.8" transform="matrix(0.978 0.2085 -0.2085 0.978 61.014 -33.8787)" class="st8" width="54.15" height="39.27"/>
		<polygon class="st8" points="192.3,272.46 246.23,189.48 169.02,176.29 		"/>
		<g>
			<line class="st9" x1="338.55" y1="318.98" x2="364.46" y2="295.04"/>
			<line class="st9" x1="319.77" y1="309.9" x2="339.72" y2="263.06"/>
		</g>
	</g>
</g>
</svg>
