<?xml version="1.0" encoding="UTF-8"?>
<svg id="Calque_2" data-name="Calque 2" xmlns="http://www.w3.org/2000/svg" viewBox="0 0 57.39 102.56">
  <defs>
    <style>
      .cls-1 {
        fill: #fbcb5d;
      }
    </style>
  </defs>
  <g id="Calque_1-2" data-name="Calque 1">
    <g>
      <polygon class="cls-1" points="31.24 22.76 9.09 12.03 3.55 15.3 0 36.33 19.37 61.13 36.99 40.05 15.4 27.83 25.46 29.41 29.85 27.4 31.24 22.76"/>
      <polygon class="cls-1" points="41.37 34.83 56.03 37.7 51.08 62.08 19.37 61.13 41.37 34.83"/>
      <polygon class="cls-1" points="52.13 102.56 19.37 102.56 19.37 65.96 52.13 65.16 52.13 102.56"/>
      <polygon class="cls-1" points="16.53 0 24.25 2.56 21.84 14.3 12.06 10.3 16.53 0"/>
      <polygon class="cls-1" points="28.16 3.28 35.37 5.6 33.02 19 23.43 15.19 28.16 3.28"/>
      <polygon class="cls-1" points="38.65 6.45 47.05 8.84 41.71 31.26 36.89 31.76 32.89 27.64 38.65 6.45"/>
      <polygon class="cls-1" points="49.21 9.48 57.39 12.22 53.65 31 48.06 32.4 44.44 28.78 49.21 9.48"/>
    </g>
  </g>
</svg>