<svg width="69" height="69" viewBox="0 0 69 69" fill="none" xmlns="http://www.w3.org/2000/svg">
<circle cx="34.5" cy="34.5" r="34.5" fill="white"/>
<path d="M12.4761 27.9555C16.4711 29.1243 22.5646 31.6999 23.5992 33.7716L26.9427 32.1055C26.3809 30.9752 25.3024 29.9357 23.9858 29.0116C38.116 31.0695 43.8559 35.6321 46.1263 39.4607C46.6975 40.4246 47.0844 41.3887 47.3294 42.3246C46.0084 40.884 44.1529 39.5437 41.6036 38.4808L40.1681 41.932C47.6572 45.0496 46.5851 50.3189 46.4406 50.8917L49.9119 52.2242C50.0634 51.9244 53.5885 44.789 49.3738 37.6036C45.6069 31.1828 37.0556 27.0344 23.9056 25.2151C25.6808 24.5978 27.1296 23.9412 27.7595 23.3058L25.1303 20.6541C24.1499 21.4647 17.8702 23.2138 12.6164 24.324L12.8733 25.5418L12.4782 27.9486L12.4761 27.9555Z" fill="#120959"/>
</svg>
