<?xml version="1.0" encoding="UTF-8"?><svg id="Calque_2" xmlns="http://www.w3.org/2000/svg" viewBox="0 0 130.98 107.17"><defs><style>.cls-1{fill:#120959;}.cls-1,.cls-2,.cls-3{stroke-width:0px;}.cls-2{fill:#ffca41;}.cls-3{fill:#00ecb8;}</style></defs><g id="Calque_1-2"><path class="cls-1" d="M95.32,3.87l15.69,8.51L40.74,91.76,2.7,71.13,56.1,10.79C65.97-.36,82.23-3.23,95.32,3.87Z"/><ellipse class="cls-2" cx="112.02" cy="46.02" rx="24.42" ry="17.44" transform="translate(56.32 153.55) rotate(-84.95)"/><path class="cls-3" d="M89.8,46.2l-44.08,50.76,53.25-22.61c-7.04-6.16-9.14-16.31-9.16-28.15Z"/><polygon class="cls-2" points="36.67 107.17 0 87.45 0 74.35 36.67 94.07 36.67 107.17"/><path class="cls-1" d="M110.38,7c5.1-4.55,12.91-4.1,17.46.99,4.55,5.1,4.1,12.92-.99,17.47l-16.47-18.46Z"/></g></svg>