<svg width="137" height="76" viewBox="0 0 137 76" fill="none" xmlns="http://www.w3.org/2000/svg">
<path d="M5.3473 0.665722C32.893 13.8914 52.8111 14.7894 64.7179 15.3199C72.7677 15.6872 78.0802 15.9246 80.5214 20.356C83.2388 25.2608 80.2535 31.478 72.2563 45.5391C64.3971 59.3989 66.025 62.4561 66.0483 62.4869C66.0599 62.483 68.0462 63.7821 77.0064 60.7483C79.7118 59.8323 83.033 58.5274 87.1351 56.6745C91.2489 54.8178 95.8702 52.5571 101.088 49.8112C94.0557 50.8519 87.3597 51.0958 82.636 49.6667L85.2319 41.0814C95.3093 44.1257 122.252 35.9697 131.782 32.5626L134.371 38.0779L136.157 40.2311C124.914 49.5791 106.47 67.345 104.809 75.2659L96.0305 73.4314C96.9742 68.9107 100.746 63.265 105.486 57.6263C78.5254 71.8194 65.6619 74.6671 59.7324 68.8394C53.4617 62.6891 58.9678 50.7859 64.469 41.1137C66.7276 37.1272 71.7848 28.2369 72.4448 24.9721C70.8565 24.582 67.4011 24.4246 64.3124 24.2848C55.0078 23.8655 41.0586 23.2404 22.6182 17.2672C25.5354 21.1636 28.2316 25.6633 30.1428 30.6607L21.7701 33.8693C16.021 18.8308 1.0496 8.5257 0.898568 8.42219L5.3473 0.665722Z" fill="black"/>
</svg>
