<svg width="400" height="133" viewBox="0 0 400 133" fill="none" xmlns="http://www.w3.org/2000/svg">
    <g clip-path="url(#clip0_396_1023)">
        <path d="M122.58 20.5C122.6 20.33 122.62 20.15 122.62 19.97C122.62 16.17 118.51 13.08 113.43 13.08C112.98 13.08 112.53 13.11 112.1 13.16C110.43 11.98 108.12 11.24 105.56 11.24C100.49 11.24 97.7702 13.28 96.2902 16.61C95.8902 17.51 95.8702 19.28 96.4902 20.14C95.9602 20.06 93.9602 20.33 93.4102 20.43C90.5602 20.92 87.1802 23.29 87.1802 26.84C87.1802 30.39 89.2502 32.25 94.3102 33.18C95.7402 33.44 98.5702 32.98 99.7802 32.49C108.07 35.25 115.59 31.87 115.59 31.87C117.16 32.74 119.14 33.27 121.3 33.27C126.37 33.27 130.49 30.39 130.49 26.84C130.49 23.59 127.05 20.92 122.58 20.48V20.5Z" fill="#EEBCB5"/>
        <path d="M234.68 27.68C234.68 27.6 234.66 27.52 234.66 27.44C234.66 25.72 236.49 24.32 238.74 24.32C238.94 24.32 239.14 24.33 239.33 24.36C240.07 23.82 241.1 23.49 242.23 23.49C244.48 23.49 245.69 24.41 246.35 25.92C246.53 26.33 246.54 27.13 246.26 27.52C246.5 27.48 247.38 27.61 247.63 27.65C248.89 27.87 250.39 28.95 250.39 30.55C250.39 32.15 249.47 33 247.23 33.42C246.6 33.54 245.34 33.33 244.8 33.11C241.12 34.36 237.78 32.83 237.78 32.83C237.08 33.23 236.2 33.46 235.24 33.46C232.99 33.46 231.16 32.16 231.16 30.55C231.16 29.08 232.69 27.87 234.67 27.67L234.68 27.68Z" fill="#EEBCB5"/>
        <path d="M253.83 12.29C253.83 12.22 253.83 12.15 253.83 12.07C253.83 10.51 254.91 9.25 256.25 9.25C257.13 9.25 257.9 9.8 258.32 10.62C258.63 10.47 258.97 10.38 259.33 10.38C260.48 10.38 261.44 11.25 261.69 12.42C262.55 12.79 263.17 13.75 263.17 14.89C263.17 16.34 262.16 17.52 260.92 17.52C260.65 17.52 260 17.63 259.76 17.52C257.85 18.02 257.89 17.34 257.09 17.52C256.49 17.66 255.54 17.85 254.77 17.44C254.58 17.49 254.38 17.52 254.17 17.52C252.83 17.52 251.75 16.34 251.75 14.89C251.75 13.56 252.66 12.46 253.83 12.29Z" fill="#EEBCB5"/>
        <path d="M295.15 40.05H126.48V130.96H295.15V40.05Z" fill="#EBCCBC"/>
        <path d="M126.41 81.32H50.6699V130.94H126.41V81.32Z" fill="#AA2E33"/>
        <path d="M126.42 98.03H60.3198V130.94H126.42V98.03Z" fill="#7C2224"/>
        <path d="M126.42 74.53H72.46V81.31H126.42V74.53Z" fill="#EBCCBC"/>
        <path d="M80.5 130.94V81.32H72.47V130.94H80.5Z" fill="#EBCCBC"/>
        <path d="M72.4599 74.53H50.6699V81.31H72.4599V74.53Z" fill="#D74F50"/>
        <path d="M80.5001 81.32H78.8101V130.94H80.5001V81.32Z" fill="#D74F50"/>
        <path d="M278.39 59.85H258.48V80.25H278.39V59.85Z" fill="#D74F50"/>
        <path d="M278.39 64.19H263.34V80.25H278.39V64.19Z" fill="#AA2E33"/>
        <path d="M246.88 59.85H226.97V80.25H246.88V59.85Z" fill="#D74F50"/>
        <path d="M246.88 64.19H231.83V80.25H246.88V64.19Z" fill="#AA2E33"/>
        <path d="M215.37 59.85H195.46V80.25H215.37V59.85Z" fill="#D74F50"/>
        <path d="M215.37 64.19H200.32V80.25H215.37V64.19Z" fill="#AA2E33"/>
        <path d="M315.01 130.94H295.09V40.03L315.01 55.21V130.94Z" fill="#D74F50"/>
        <path d="M21.64 114.49C29.4603 114.49 35.8 106.306 35.8 96.21C35.8 86.1142 29.4603 77.93 21.64 77.93C13.8196 77.93 7.47998 86.1142 7.47998 96.21C7.47998 106.306 13.8196 114.49 21.64 114.49Z" fill="#D74F50"/>
        <path d="M21.6401 89.06L22.6401 129.83H20.6401L21.6401 89.06Z" fill="#EBCCBC"/>
        <path d="M363.77 80.7C363.77 76.61 361.01 73.17 357.25 72.13C357.2 64.13 350.71 57.67 342.7 57.67C341.7 57.67 340.72 57.77 339.78 57.96C338.2 56.52 336.11 55.64 333.8 55.64C329.96 55.64 326.7 58.07 325.45 61.48C325.02 61.44 324.6 61.41 324.16 61.41C316.12 61.41 309.61 67.93 309.61 75.96C309.61 80.06 311.31 83.75 314.03 86.4C313.75 87.52 313.59 88.68 313.59 89.89C313.59 97.93 320.11 104.44 328.14 104.44C331.16 104.44 333.97 103.52 336.3 101.94C338.78 103.89 341.9 105.07 345.3 105.07C353.34 105.07 359.85 98.55 359.85 90.52C359.85 89.73 359.77 88.95 359.65 88.2C362.13 86.62 363.77 83.86 363.77 80.7Z" fill="#505187"/>
        <path d="M336.72 78.8L338.22 129.5H335.22L336.72 78.8Z" fill="#EBCCBC"/>
        <path d="M131.47 122.22V122.23C131.45 122.23 131.43 122.25 131.41 122.25L131.47 122.22Z" fill="#D74F50"/>
        <path d="M131.47 122.22V122.23C131.45 122.23 131.43 122.25 131.41 122.25L131.47 122.22Z" fill="#D74F50"/>
        <path d="M145.19 122.54C144.79 121.34 143.93 120.3 142.78 119.56C142.45 117.23 140.05 115.42 137.13 115.42C136.3 115.42 135.51 115.57 134.8 115.83C133.69 113.86 131.27 112.5 128.46 112.5C124.59 112.5 121.45 115.1 121.45 118.31C121.45 118.39 121.45 118.48 121.47 118.56C120.82 118.4 120.13 118.31 119.41 118.31C115.53 118.31 112.39 120.91 112.39 124.11C112.39 124.23 112.39 124.36 112.42 124.48C111.57 125.03 111.03 125.9 111.03 126.86C111.03 128.54 112.67 129.91 114.71 129.91H119.02H118.98C119.12 129.93 119.27 129.93 119.41 129.93H127.61H128.07L137.94 129.91C137.94 129.91 139.26 129.89 139.34 129.89C140.27 129.89 144.05 129.94 145.68 129.91C147.86 129.91 149.7 128.5 149.7 126.7C149.7 124.09 147.02 122.49 145.19 122.55V122.54ZM131.47 123.55C131.47 123.55 131.43 123.57 131.41 123.57L131.47 123.55Z" fill="#E69973"/>
        <path d="M0 127.82C0 128.93 1.13 129.8 2.48 129.8C3.48 129.82 5.81 129.79 6.39 129.79C6.44 129.79 7.25 129.81 7.25 129.81H13.33L13.61 129.82H18.66C18.75 129.82 18.84 129.82 18.92 129.82H18.9H21.55C22.81 129.82 23.82 128.98 23.82 127.94C23.82 127.34 23.49 126.81 22.96 126.47C22.98 126.39 22.98 126.32 22.98 126.24C22.98 124.27 21.05 122.66 18.66 122.66C18.22 122.66 17.79 122.72 17.39 122.81C17.4 122.76 17.4 122.71 17.4 122.66C17.4 120.68 15.47 119.08 13.08 119.08C11.35 119.08 9.86 119.92 9.17 121.13C8.73 120.97 8.25 120.88 7.73 120.88C5.93 120.88 4.45 121.99 4.25 123.43C3.54 123.89 3.01 124.53 2.77 125.27C1.65 125.22 0 126.21 0 127.82ZM11.23 125.89L11.27 125.91C11.27 125.91 11.25 125.91 11.23 125.9V125.89Z" fill="#7C2224"/>
        <path d="M43.6001 132.82L44.0301 71.05" stroke="#505187" stroke-width="2.5" stroke-miterlimit="10"/>
        <path d="M47.6102 71.05H40.5202L38.4702 59.46H49.5702L47.6102 71.05Z" fill="#E69973"/>
        <path d="M37.9902 59.46H50.0502" stroke="#505187" stroke-width="2.5" stroke-miterlimit="10" stroke-linecap="round"/>
    </g>
    <defs>
        <clipPath id="clip0_396_1023">
            <rect width="407.16" height="132.83" fill="white"/>
        </clipPath>
    </defs>
</svg>
    