<svg width="436" height="124" viewBox="0 0 436 124" fill="none" xmlns="http://www.w3.org/2000/svg">
    <g clip-path="url(#clip0_452_429)">
    <path d="M169.86 11.25C169.88 11.08 169.9 10.9 169.9 10.72C169.9 6.92001 165.79 3.83001 160.71 3.83001C160.26 3.83001 159.81 3.86001 159.38 3.91001C157.71 2.73001 155.4 1.99001 152.84 1.99001C147.77 1.99001 145.05 4.03001 143.57 7.36001C143.17 8.26001 143.15 10.03 143.77 10.89C143.24 10.81 141.24 11.08 140.69 11.18C137.84 11.67 134.46 14.04 134.46 17.59C134.46 21.14 136.53 23 141.59 23.93C143.02 24.19 145.85 23.73 147.06 23.24C155.35 26 162.87 22.62 162.87 22.62C164.44 23.49 166.42 24.02 168.58 24.02C173.65 24.02 177.77 21.14 177.77 17.59C177.77 14.34 174.33 11.67 169.86 11.23V11.25Z" fill="#EEBCB5"/>
    <path d="M281.96 18.43C281.96 18.35 281.94 18.27 281.94 18.19C281.94 16.47 283.77 15.07 286.02 15.07C286.22 15.07 286.42 15.08 286.61 15.11C287.35 14.57 288.38 14.24 289.51 14.24C291.76 14.24 292.97 15.16 293.63 16.67C293.81 17.08 293.82 17.88 293.54 18.27C293.78 18.23 294.66 18.36 294.91 18.4C296.17 18.62 297.67 19.7 297.67 21.3C297.67 22.9 296.75 23.75 294.51 24.17C293.88 24.29 292.62 24.08 292.08 23.86C288.4 25.11 285.06 23.58 285.06 23.58C284.36 23.98 283.48 24.21 282.52 24.21C280.27 24.21 278.44 22.91 278.44 21.3C278.44 19.83 279.97 18.62 281.95 18.42L281.96 18.43Z" fill="#EEBCB5"/>
    <path d="M301.12 3.04C301.12 2.97 301.12 2.9 301.12 2.82C301.12 1.26 302.2 0 303.54 0C304.42 0 305.19 0.55 305.61 1.37C305.92 1.22 306.26 1.13 306.62 1.13C307.77 1.13 308.73 2 308.98 3.17C309.84 3.54 310.46 4.5 310.46 5.64C310.46 7.09 309.45 8.27 308.21 8.27C307.94 8.27 307.29 8.38 307.05 8.27C305.14 8.77 305.18 8.09 304.38 8.27C303.78 8.41 302.83 8.6 302.06 8.19C301.87 8.24 301.67 8.27 301.46 8.27C300.12 8.27 299.04 7.09 299.04 5.64C299.04 4.31 299.95 3.21 301.12 3.04Z" fill="#EEBCB5"/>
    <path d="M342.44 30.8H173.77V121.71H342.44V30.8Z" fill="#EBCCBC"/>
    <path d="M173.7 72.07H97.96V121.69H173.7V72.07Z" fill="#AA2E33"/>
    <path d="M173.7 88.78H107.6V121.69H173.7V88.78Z" fill="#7C2224"/>
    <path d="M173.71 65.29H119.75V72.07H173.71V65.29Z" fill="#EBCCBC"/>
    <path d="M127.77 121.69V72.07H119.74V121.69H127.77Z" fill="#EBCCBC"/>
    <path d="M119.75 65.29H97.96V72.07H119.75V65.29Z" fill="#D74F50"/>
    <path d="M127.78 72.07H126.09V121.69H127.78V72.07Z" fill="#D74F50"/>
    <path d="M325.67 50.6H305.76V71H325.67V50.6Z" fill="#D74F50"/>
    <path d="M325.67 54.94H310.62V71H325.67V54.94Z" fill="#AA2E33"/>
    <path d="M294.16 50.6H274.25V71H294.16V50.6Z" fill="#D74F50"/>
    <path d="M294.16 54.94H279.11V71H294.16V54.94Z" fill="#AA2E33"/>
    <path d="M262.65 50.6H242.74V71H262.65V50.6Z" fill="#D74F50"/>
    <path d="M262.65 54.94H247.6V71H262.65V54.94Z" fill="#AA2E33"/>
    <path d="M362.29 121.69H342.38V30.78L362.29 45.96V121.69Z" fill="#D74F50"/>
    <path d="M0 121.69H435.43" stroke="#505187" stroke-width="3"/>
    <path d="M68.93 105.24C76.7503 105.24 83.09 97.0558 83.09 86.96C83.09 76.8642 76.7503 68.68 68.93 68.68C61.1096 68.68 54.77 76.8642 54.77 86.96C54.77 97.0558 61.1096 105.24 68.93 105.24Z" fill="#D74F50"/>
    <path d="M68.93 79.81L69.93 120.58H67.93L68.93 79.81Z" fill="#EBCCBC"/>
    <path d="M411.05 71.45C411.05 67.36 408.29 63.92 404.53 62.88C404.48 54.88 397.99 48.42 389.98 48.42C388.98 48.42 388 48.52 387.06 48.71C385.48 47.27 383.39 46.39 381.08 46.39C377.24 46.39 373.98 48.82 372.73 52.23C372.3 52.19 371.88 52.16 371.44 52.16C363.4 52.16 356.89 58.68 356.89 66.71C356.89 70.81 358.59 74.5 361.31 77.15C361.03 78.27 360.87 79.43 360.87 80.64C360.87 88.68 367.39 95.19 375.42 95.19C378.44 95.19 381.25 94.27 383.58 92.69C386.06 94.64 389.18 95.82 392.58 95.82C400.62 95.82 407.13 89.3 407.13 81.27C407.13 80.48 407.05 79.7 406.93 78.95C409.41 77.37 411.05 74.61 411.05 71.45Z" fill="#505187"/>
    <path d="M384.01 69.55L385.51 120.25H382.51L384.01 69.55Z" fill="#EBCCBC"/>
    <path d="M178.75 112.97V112.98C178.73 112.98 178.71 113 178.69 113L178.75 112.97Z" fill="#D74F50"/>
    <path d="M174.89 120.67H175.35C175.27 120.68 175.19 120.68 175.11 120.68C175.04 120.68 174.96 120.68 174.89 120.67Z" fill="#D74F50"/>
    <path d="M178.75 112.97V112.98C178.73 112.98 178.71 113 178.69 113L178.75 112.97Z" fill="#D74F50"/>
    <path d="M192.47 113.29C192.07 112.09 191.21 111.05 190.06 110.31C189.73 107.98 187.33 106.17 184.41 106.17C183.58 106.17 182.79 106.32 182.08 106.58C180.97 104.61 178.55 103.25 175.74 103.25C171.87 103.25 168.73 105.85 168.73 109.06C168.73 109.14 168.73 109.23 168.75 109.31C168.1 109.15 167.41 109.06 166.69 109.06C162.81 109.06 159.67 111.66 159.67 114.86C159.67 114.98 159.67 115.11 159.7 115.23C158.85 115.78 158.31 116.65 158.31 117.61C158.31 119.29 159.95 120.66 161.99 120.66H166.3H166.26C166.4 120.68 166.55 120.68 166.69 120.68H174.89H175.35L185.22 120.66C185.22 120.66 186.54 120.64 186.62 120.64C187.55 120.64 191.33 120.69 192.96 120.66C195.14 120.66 196.98 119.25 196.98 117.45C196.98 114.84 194.3 113.24 192.47 113.3V113.29ZM178.75 114.31C178.75 114.31 178.71 114.33 178.69 114.33L178.75 114.31Z" fill="#E69973"/>
    <path d="M47.28 118.57C47.28 119.68 48.41 120.55 49.76 120.55C50.76 120.57 53.09 120.54 53.67 120.54C53.72 120.54 54.53 120.56 54.53 120.56H60.61L60.89 120.57H65.94C66.03 120.57 66.12 120.57 66.2 120.57H66.18H68.83C70.09 120.57 71.1 119.73 71.1 118.69C71.1 118.09 70.77 117.56 70.24 117.22C70.26 117.14 70.26 117.07 70.26 116.99C70.26 115.02 68.33 113.41 65.94 113.41C65.5 113.41 65.07 113.47 64.67 113.56C64.68 113.51 64.68 113.46 64.68 113.41C64.68 111.43 62.75 109.83 60.36 109.83C58.63 109.83 57.14 110.67 56.45 111.88C56.01 111.72 55.53 111.63 55.01 111.63C53.21 111.63 51.73 112.74 51.53 114.18C50.82 114.64 50.29 115.28 50.05 116.02C48.92 115.98 47.27 116.97 47.27 118.57H47.28ZM58.51 116.64L58.55 116.66C58.55 116.66 58.53 116.66 58.51 116.65V116.64Z" fill="#7C2224"/>
    <path d="M90.88 123.57L91.32 61.8" stroke="#505187" stroke-width="2.5" stroke-miterlimit="10"/>
    <path d="M94.89 61.8H87.8L85.75 50.21H96.86L94.89 61.8Z" fill="#E69973"/>
    <path d="M85.28 50.21H97.33" stroke="#505187" stroke-width="2.5" stroke-miterlimit="10" stroke-linecap="round"/>
    </g>
    <defs>
    <clipPath id="clip0_452_429">
    <rect width="435.43" height="123.58" fill="white"/>
    </clipPath>
    </defs>
    </svg>
    