<svg width="451" height="145" viewBox="0 0 451 145" fill="none" xmlns="http://www.w3.org/2000/svg">
    <g clip-path="url(#clip0_452_3)">
    <path d="M313.07 26.87C313.09 26.68 313.1 26.49 313.1 26.29C313.1 22.15 309.45 18.79 304.94 18.79C304.54 18.79 304.14 18.83 303.76 18.88C302.28 17.59 300.23 16.79 297.95 16.79C293.45 16.79 291.04 19.01 289.72 22.64C289.36 23.62 289.35 25.55 289.9 26.49C289.43 26.41 287.66 26.7 287.17 26.8C284.64 27.34 281.64 29.92 281.64 33.79C281.64 37.66 283.48 39.69 287.97 40.7C289.24 40.98 291.75 40.49 292.83 39.95C300.19 42.96 306.86 39.27 306.86 39.27C308.25 40.22 310.01 40.79 311.93 40.79C316.43 40.79 320.09 37.66 320.09 33.79C320.09 30.26 317.03 27.34 313.07 26.87Z" fill="#EEBCB5"/>
    <path d="M114.32 40.99C114.32 40.91 114.3 40.83 114.3 40.75C114.3 39.03 116.13 37.63 118.38 37.63C118.58 37.63 118.78 37.64 118.97 37.67C119.71 37.13 120.74 36.8 121.87 36.8C124.12 36.8 125.33 37.72 125.99 39.23C126.17 39.64 126.18 40.44 125.9 40.83C126.14 40.79 127.02 40.92 127.27 40.96C128.53 41.18 130.03 42.26 130.03 43.86C130.03 45.46 129.11 46.31 126.87 46.73C126.24 46.85 124.98 46.64 124.44 46.42C120.76 47.67 117.42 46.14 117.42 46.14C116.72 46.54 115.84 46.77 114.88 46.77C112.63 46.77 110.8 45.47 110.8 43.86C110.8 42.39 112.33 41.18 114.31 40.98L114.32 40.99Z" fill="#EBCCBC"/>
    <path d="M323.55 50.41C323.55 50.33 323.53 50.25 323.53 50.17C323.53 48.45 325.36 47.05 327.61 47.05C327.81 47.05 328.01 47.06 328.2 47.09C328.94 46.55 329.97 46.22 331.1 46.22C333.35 46.22 334.56 47.14 335.22 48.65C335.4 49.06 335.41 49.86 335.13 50.25C335.37 50.21 336.25 50.34 336.5 50.38C337.76 50.6 339.26 51.68 339.26 53.28C339.26 54.88 338.34 55.73 336.1 56.15C335.47 56.27 334.21 56.06 333.67 55.84C329.99 57.09 326.65 55.56 326.65 55.56C325.95 55.96 325.07 56.19 324.11 56.19C321.86 56.19 320.03 54.89 320.03 53.28C320.03 51.81 321.56 50.6 323.54 50.4L323.55 50.41Z" fill="#EEBCB5"/>
    <path d="M32.16 8.08C32.17 7.89 32.19 7.7 32.19 7.5C32.19 3.36 29.06 0 25.19 0C22.64 0 20.42 1.46 19.2 3.64C18.31 3.23 17.33 3 16.29 3C12.97 3 10.19 5.32 9.47 8.43C6.98 9.41 5.19 11.98 5.19 15C5.19 18.87 8.1 22 11.69 22C12.47 22 14.35 22.28 15.04 22C20.56 23.32 20.45 21.52 22.76 22C24.51 22.36 27.24 22.89 29.47 21.78C30.02 21.92 30.6 22 31.2 22C35.07 22 38.2 18.87 38.2 15C38.2 11.47 35.58 8.55 32.17 8.08H32.16Z" fill="#EEBCB5"/>
    <path d="M349.89 141.32V126.08H353.55L360.81 141.32" stroke="#D74F50" stroke-linejoin="round"/>
    <path d="M309.33 141.32V126.08H305.67L298.41 141.32" stroke="#D74F50" stroke-linejoin="round"/>
    <path d="M128.63 21.2H79.89V142.61H128.63V21.2Z" fill="#EBCCBC"/>
    <path d="M95.06 31.07H84.18V42.64H95.06V31.07Z" fill="#E69973"/>
    <path d="M108.37 31.07H97.49V42.64H108.37V31.07Z" fill="#E69973"/>
    <path d="M121.69 31.07H110.81V42.64H121.69V31.07Z" fill="#E69973"/>
    <path d="M137.51 142.61H128.62V21.2L137.51 29.04V142.61Z" fill="#E69973"/>
    <path d="M95.05 33.53H86.83V42.64H95.05V33.53Z" fill="#D74F50"/>
    <path d="M108.37 33.53H100.15V42.64H108.37V33.53Z" fill="#D74F50"/>
    <path d="M121.68 33.53H113.46V42.64H121.68V33.53Z" fill="#D74F50"/>
    <path d="M95.06 49.66H84.18V61.23H95.06V49.66Z" fill="#E69973"/>
    <path d="M108.37 49.66H97.49V61.23H108.37V49.66Z" fill="#E69973"/>
    <path d="M121.69 49.66H110.81V61.23H121.69V49.66Z" fill="#E69973"/>
    <path d="M95.05 52.12H86.83V61.23H95.05V52.12Z" fill="#D74F50"/>
    <path d="M108.37 52.12H100.15V61.23H108.37V52.12Z" fill="#D74F50"/>
    <path d="M121.68 52.12H113.46V61.23H121.68V52.12Z" fill="#D74F50"/>
    <path d="M95.06 68.25H84.18V79.82H95.06V68.25Z" fill="#E69973"/>
    <path d="M108.37 68.25H97.49V79.82H108.37V68.25Z" fill="#E69973"/>
    <path d="M121.69 68.25H110.81V79.82H121.69V68.25Z" fill="#E69973"/>
    <path d="M95.05 70.71H86.83V79.82H95.05V70.71Z" fill="#D74F50"/>
    <path d="M108.37 70.71H100.15V79.82H108.37V70.71Z" fill="#D74F50"/>
    <path d="M121.68 70.71H113.46V79.82H121.68V70.71Z" fill="#D74F50"/>
    <path d="M95.06 86.84H84.18V98.41H95.06V86.84Z" fill="#E69973"/>
    <path d="M108.37 86.84H97.49V98.41H108.37V86.84Z" fill="#E69973"/>
    <path d="M121.69 86.84H110.81V98.41H121.69V86.84Z" fill="#E69973"/>
    <path d="M95.05 89.3H86.83V98.41H95.05V89.3Z" fill="#D74F50"/>
    <path d="M108.37 89.3H100.15V98.41H108.37V89.3Z" fill="#D74F50"/>
    <path d="M121.68 89.3H113.46V98.41H121.68V89.3Z" fill="#D74F50"/>
    <path d="M95.06 105.42H84.18V116.99H95.06V105.42Z" fill="#E69973"/>
    <path d="M108.37 105.42H97.49V116.99H108.37V105.42Z" fill="#E69973"/>
    <path d="M121.69 105.42H110.81V116.99H121.69V105.42Z" fill="#E69973"/>
    <path d="M95.05 107.89H86.83V117H95.05V107.89Z" fill="#D74F50"/>
    <path d="M108.37 107.89H100.15V117H108.37V107.89Z" fill="#D74F50"/>
    <path d="M121.68 107.89H113.46V117H121.68V107.89Z" fill="#D74F50"/>
    <path d="M95.06 124.01H84.18V135.58H95.06V124.01Z" fill="#E69973"/>
    <path d="M108.37 124.01H97.49V142.61H108.37V124.01Z" fill="#E69973"/>
    <path d="M121.69 124.01H110.81V135.58H121.69V124.01Z" fill="#E69973"/>
    <path d="M95.05 126.47H86.83V135.58H95.05V126.47Z" fill="#D74F50"/>
    <path d="M108.37 126.47H100.15V142.61H108.37V126.47Z" fill="#D74F50"/>
    <path d="M121.68 126.47H113.46V135.58H121.68V126.47Z" fill="#D74F50"/>
    <path d="M416.5 43.48H367.76V141.66H416.5V43.48Z" fill="#EBCCBC"/>
    <path d="M425.38 141.66H416.49V43.48L425.38 49.82V141.66Z" fill="#E69973"/>
    <path d="M382.93 48.7H372.05V60.27H382.93V48.7Z" fill="#E69973"/>
    <path d="M396.24 48.7H385.36V60.27H396.24V48.7Z" fill="#E69973"/>
    <path d="M409.56 48.7H398.68V60.27H409.56V48.7Z" fill="#E69973"/>
    <path d="M382.92 51.16H374.7V60.27H382.92V51.16Z" fill="#D74F50"/>
    <path d="M396.24 51.16H388.02V60.27H396.24V51.16Z" fill="#D74F50"/>
    <path d="M409.55 51.16H401.33V60.27H409.55V51.16Z" fill="#D74F50"/>
    <path d="M382.93 67.29H372.05V78.86H382.93V67.29Z" fill="#E69973"/>
    <path d="M396.24 67.29H385.36V78.86H396.24V67.29Z" fill="#E69973"/>
    <path d="M409.56 67.29H398.68V78.86H409.56V67.29Z" fill="#E69973"/>
    <path d="M382.92 69.75H374.7V78.86H382.92V69.75Z" fill="#D74F50"/>
    <path d="M396.24 69.75H388.02V78.86H396.24V69.75Z" fill="#D74F50"/>
    <path d="M409.55 69.75H401.33V78.86H409.55V69.75Z" fill="#D74F50"/>
    <path d="M382.93 85.88H372.05V97.45H382.93V85.88Z" fill="#E69973"/>
    <path d="M396.24 85.88H385.36V97.45H396.24V85.88Z" fill="#E69973"/>
    <path d="M409.56 85.88H398.68V97.45H409.56V85.88Z" fill="#E69973"/>
    <path d="M382.92 88.34H374.7V97.45H382.92V88.34Z" fill="#D74F50"/>
    <path d="M396.24 88.34H388.02V97.45H396.24V88.34Z" fill="#D74F50"/>
    <path d="M409.55 88.34H401.33V97.45H409.55V88.34Z" fill="#D74F50"/>
    <path d="M382.93 104.47H372.05V116.04H382.93V104.47Z" fill="#E69973"/>
    <path d="M396.24 104.47H385.36V116.04H396.24V104.47Z" fill="#E69973"/>
    <path d="M409.56 104.47H398.68V116.04H409.56V104.47Z" fill="#E69973"/>
    <path d="M382.92 106.93H374.7V116.04H382.92V106.93Z" fill="#D74F50"/>
    <path d="M396.24 106.93H388.02V116.04H396.24V106.93Z" fill="#D74F50"/>
    <path d="M409.55 106.93H401.33V116.04H409.55V106.93Z" fill="#D74F50"/>
    <path d="M382.93 123.06H372.05V134.63H382.93V123.06Z" fill="#E69973"/>
    <path d="M396.24 123.06H385.36V141.66H396.24V123.06Z" fill="#E69973"/>
    <path d="M409.56 123.06H398.68V134.63H409.56V123.06Z" fill="#E69973"/>
    <path d="M382.92 125.52H374.7V134.63H382.92V125.52Z" fill="#D74F50"/>
    <path d="M396.24 125.52H388.02V141.66H396.24V125.52Z" fill="#D74F50"/>
    <path d="M409.55 125.52H401.33V134.63H409.55V125.52Z" fill="#D74F50"/>
    <path d="M229.01 62.88H180.27V143.36H229.01V62.88Z" fill="#7D7DB5"/>
    <path d="M237.89 143.36H229.01V62.88L237.89 68.07V143.36Z" fill="#505187"/>
    <path d="M195.44 68.99H184.56V80.56H195.44V68.99Z" fill="#505187"/>
    <path d="M208.76 68.99H197.88V80.56H208.76V68.99Z" fill="#505187"/>
    <path d="M222.07 68.99H211.19V80.56H222.07V68.99Z" fill="#505187"/>
    <path d="M195.44 71.45H187.22V80.56H195.44V71.45Z" fill="#292C5E"/>
    <path d="M208.75 71.45H200.53V80.56H208.75V71.45Z" fill="#292C5E"/>
    <path d="M222.07 71.45H213.85V80.56H222.07V71.45Z" fill="#292C5E"/>
    <path d="M195.44 87.58H184.56V99.15H195.44V87.58Z" fill="#505187"/>
    <path d="M208.76 87.58H197.88V99.15H208.76V87.58Z" fill="#505187"/>
    <path d="M222.07 87.58H211.19V99.15H222.07V87.58Z" fill="#505187"/>
    <path d="M195.44 90.04H187.22V99.15H195.44V90.04Z" fill="#292C5E"/>
    <path d="M208.75 90.04H200.53V99.15H208.75V90.04Z" fill="#292C5E"/>
    <path d="M222.07 90.04H213.85V99.15H222.07V90.04Z" fill="#292C5E"/>
    <path d="M195.44 106.17H184.56V117.74H195.44V106.17Z" fill="#505187"/>
    <path d="M208.76 106.17H197.88V117.74H208.76V106.17Z" fill="#505187"/>
    <path d="M222.07 106.17H211.19V117.74H222.07V106.17Z" fill="#505187"/>
    <path d="M195.44 108.63H187.22V117.74H195.44V108.63Z" fill="#292C5E"/>
    <path d="M208.75 108.63H200.53V117.74H208.75V108.63Z" fill="#292C5E"/>
    <path d="M222.07 108.63H213.85V117.74H222.07V108.63Z" fill="#292C5E"/>
    <path d="M195.44 124.76H184.56V136.33H195.44V124.76Z" fill="#505187"/>
    <path d="M208.76 124.76H197.88V143.36H208.76V124.76Z" fill="#505187"/>
    <path d="M222.07 124.76H211.19V136.33H222.07V124.76Z" fill="#505187"/>
    <path d="M195.44 127.22H187.22V136.33H195.44V127.22Z" fill="#292C5E"/>
    <path d="M208.75 127.22H200.53V143.36H208.75V127.22Z" fill="#292C5E"/>
    <path d="M222.07 127.22H213.85V136.33H222.07V127.22Z" fill="#292C5E"/>
    <path d="M-3 142L450.47 142.61" stroke="#505187" stroke-width="3"/>
    <path d="M236.51 126.09C241.226 126.09 245.05 118.622 245.05 109.41C245.05 100.198 241.226 92.73 236.51 92.73C231.793 92.73 227.97 100.198 227.97 109.41C227.97 118.622 231.793 126.09 236.51 126.09Z" fill="#D74F50"/>
    <path d="M236.51 103.12L237.51 141.14H235.51L236.51 103.12Z" fill="#EBCCBC"/>
    <path d="M245.05 131.27C249.004 131.27 252.21 126.376 252.21 120.34C252.21 114.304 249.004 109.41 245.05 109.41C241.096 109.41 237.89 114.304 237.89 120.34C237.89 126.376 241.096 131.27 245.05 131.27Z" fill="#7D7DB5"/>
    <path d="M245.05 116.21L246.05 141.14H244.05L245.05 116.21Z" fill="#EBCCBC"/>
    <path d="M291.93 136.04C294.835 136.04 297.19 131.957 297.19 126.92C297.19 121.883 294.835 117.8 291.93 117.8C289.025 117.8 286.67 121.883 286.67 126.92C286.67 131.957 289.025 136.04 291.93 136.04Z" fill="#7C2224"/>
    <path d="M291.93 122.81L292.43 141.12H291.43L291.93 122.81Z" fill="#EBCCBC"/>
    <path d="M79.89 42.96H0V141.14H79.89V42.96Z" fill="#EEBCB5"/>
    <path d="M88.77 141.13H79.89V42.96L88.77 49.3V141.13Z" fill="#AA2E33"/>
    <path d="M31.32 48.18H20.44V59.75H31.32V48.18Z" fill="#D74F50"/>
    <path d="M44.64 48.18H33.76V59.75H44.64V48.18Z" fill="#D74F50"/>
    <path d="M57.96 48.18H47.08V59.75H57.96V48.18Z" fill="#D74F50"/>
    <path d="M31.32 50.64H23.1V59.75H31.32V50.64Z" fill="#7C2224"/>
    <path d="M44.64 50.64H36.42V59.75H44.64V50.64Z" fill="#7C2224"/>
    <path d="M57.95 50.64H49.73V59.75H57.95V50.64Z" fill="#7C2224"/>
    <path d="M31.32 66.77H20.44V78.34H31.32V66.77Z" fill="#D74F50"/>
    <path d="M44.64 66.77H33.76V78.34H44.64V66.77Z" fill="#D74F50"/>
    <path d="M57.96 66.77H47.08V78.34H57.96V66.77Z" fill="#D74F50"/>
    <path d="M31.32 69.23H23.1V78.34H31.32V69.23Z" fill="#7C2224"/>
    <path d="M44.64 69.23H36.42V78.34H44.64V69.23Z" fill="#7C2224"/>
    <path d="M57.95 69.23H49.73V78.34H57.95V69.23Z" fill="#7C2224"/>
    <path d="M31.32 85.36H20.44V96.93H31.32V85.36Z" fill="#D74F50"/>
    <path d="M44.64 85.36H33.76V96.93H44.64V85.36Z" fill="#D74F50"/>
    <path d="M57.96 85.36H47.08V96.93H57.96V85.36Z" fill="#D74F50"/>
    <path d="M31.32 87.82H23.1V96.93H31.32V87.82Z" fill="#7C2224"/>
    <path d="M44.64 87.82H36.42V96.93H44.64V87.82Z" fill="#7C2224"/>
    <path d="M57.95 87.82H49.73V96.93H57.95V87.82Z" fill="#7C2224"/>
    <path d="M31.32 103.94H20.44V115.51H31.32V103.94Z" fill="#D74F50"/>
    <path d="M44.64 103.94H33.76V115.51H44.64V103.94Z" fill="#D74F50"/>
    <path d="M57.96 103.94H47.08V115.51H57.96V103.94Z" fill="#D74F50"/>
    <path d="M31.32 106.41H23.1V115.52H31.32V106.41Z" fill="#7C2224"/>
    <path d="M44.64 106.41H36.42V115.52H44.64V106.41Z" fill="#7C2224"/>
    <path d="M57.95 106.41H49.73V115.52H57.95V106.41Z" fill="#7C2224"/>
    <path d="M31.32 122.53H20.44V134.1H31.32V122.53Z" fill="#D74F50"/>
    <path d="M44.64 122.53H33.76V141.13H44.64V122.53Z" fill="#D74F50"/>
    <path d="M57.96 122.53H47.08V134.1H57.96V122.53Z" fill="#D74F50"/>
    <path d="M31.32 124.99H23.1V134.1H31.32V124.99Z" fill="#7C2224"/>
    <path d="M44.64 124.99H36.42V141.13H44.64V124.99Z" fill="#7C2224"/>
    <path d="M57.95 124.99H49.73V134.1H57.95V124.99Z" fill="#7C2224"/>
    <path d="M71.76 48.18H60.88V59.75H71.76V48.18Z" fill="#D74F50"/>
    <path d="M71.76 50.64H63.54V59.75H71.76V50.64Z" fill="#7C2224"/>
    <path d="M71.76 66.77H60.88V78.34H71.76V66.77Z" fill="#D74F50"/>
    <path d="M71.76 69.23H63.54V78.34H71.76V69.23Z" fill="#7C2224"/>
    <path d="M71.76 85.36H60.88V96.93H71.76V85.36Z" fill="#D74F50"/>
    <path d="M71.76 87.82H63.54V96.93H71.76V87.82Z" fill="#7C2224"/>
    <path d="M71.76 103.94H60.88V115.51H71.76V103.94Z" fill="#D74F50"/>
    <path d="M71.76 106.41H63.54V115.52H71.76V106.41Z" fill="#7C2224"/>
    <path d="M71.76 122.53H60.88V134.1H71.76V122.53Z" fill="#D74F50"/>
    <path d="M71.76 124.99H63.54V134.1H71.76V124.99Z" fill="#7C2224"/>
    <path d="M17.91 48.18H7.03003V59.75H17.91V48.18Z" fill="#D74F50"/>
    <path d="M17.91 50.64H9.69V59.75H17.91V50.64Z" fill="#7C2224"/>
    <path d="M17.91 66.77H7.03003V78.34H17.91V66.77Z" fill="#D74F50"/>
    <path d="M17.91 69.23H9.69V78.34H17.91V69.23Z" fill="#7C2224"/>
    <path d="M17.91 85.36H7.03003V96.93H17.91V85.36Z" fill="#D74F50"/>
    <path d="M17.91 87.82H9.69V96.93H17.91V87.82Z" fill="#7C2224"/>
    <path d="M17.91 103.94H7.03003V115.51H17.91V103.94Z" fill="#D74F50"/>
    <path d="M17.91 106.41H9.69V115.52H17.91V106.41Z" fill="#7C2224"/>
    <path d="M17.91 122.53H7.03003V134.1H17.91V122.53Z" fill="#D74F50"/>
    <path d="M17.91 124.99H9.69V134.1H17.91V124.99Z" fill="#7C2224"/>
    <path d="M134.52 138.83C134.39 138.45 134.12 138.12 133.75 137.88C133.65 137.14 132.88 136.56 131.95 136.56C131.69 136.56 131.44 136.61 131.21 136.69C130.86 136.06 130.09 135.63 129.2 135.63C127.97 135.63 126.97 136.46 126.97 137.48C126.97 137.51 126.97 137.53 126.97 137.56C126.76 137.51 126.54 137.48 126.32 137.48C125.09 137.48 124.09 138.31 124.09 139.32C124.09 139.36 124.09 139.4 124.09 139.44C123.82 139.62 123.65 139.89 123.65 140.2C123.65 140.73 124.17 141.17 124.82 141.17H126.19H126.18C126.22 141.17 126.27 141.17 126.32 141.17H128.93H129.08H132.22C132.22 141.17 132.64 141.16 132.66 141.16C132.96 141.16 134.16 141.18 134.67 141.16C135.36 141.16 135.95 140.71 135.95 140.14C135.95 139.31 135.1 138.8 134.52 138.82V138.83ZM130.16 139.15C130.16 139.15 130.15 139.15 130.14 139.15H130.16Z" fill="#AA2E33"/>
    <path d="M292.69 139.06C292.58 138.72 292.33 138.43 292.01 138.21C291.92 137.55 291.24 137.04 290.41 137.04C290.17 137.04 289.95 137.08 289.75 137.16C289.44 136.6 288.75 136.22 287.95 136.22C286.85 136.22 285.96 136.96 285.96 137.87C285.96 137.89 285.96 137.92 285.96 137.94C285.78 137.9 285.58 137.87 285.38 137.87C284.28 137.87 283.39 138.61 283.39 139.52C283.39 139.56 283.39 139.59 283.39 139.63C283.15 139.79 283 140.03 283 140.31C283 140.79 283.47 141.17 284.04 141.17H285.26H285.25C285.29 141.17 285.33 141.17 285.37 141.17H287.7H287.83H290.63C290.63 141.17 291 141.16 291.03 141.16C291.29 141.16 292.37 141.17 292.83 141.16C293.45 141.16 293.97 140.76 293.97 140.25C293.97 139.51 293.21 139.05 292.69 139.07V139.06ZM288.8 139.34C288.8 139.34 288.79 139.34 288.78 139.34H288.8Z" fill="#E69973"/>
    <path d="M149.98 117.91C149.98 115.96 148.66 114.32 146.87 113.83C146.85 110.02 143.75 106.94 139.93 106.94C139.45 106.94 138.99 106.99 138.54 107.08C137.79 106.4 136.79 105.97 135.69 105.97C133.86 105.97 132.31 107.13 131.71 108.75C131.51 108.73 131.3 108.72 131.09 108.72C127.26 108.72 124.15 111.83 124.15 115.66C124.15 117.61 124.96 119.37 126.26 120.64C126.13 121.17 126.05 121.73 126.05 122.3C126.05 126.13 129.16 129.24 132.99 129.24C134.43 129.24 135.77 128.8 136.88 128.05C138.06 128.98 139.55 129.54 141.17 129.54C145 129.54 148.11 126.43 148.11 122.6C148.11 122.22 148.07 121.85 148.01 121.49C149.19 120.74 149.97 119.42 149.97 117.92L149.98 117.91Z" fill="#505187"/>
    <path d="M137.08 117.01L138.58 141.17H135.58L137.08 117.01Z" fill="#EBCCBC"/>
    <path d="M371.22 117.85C371.22 115.9 369.9 114.26 368.11 113.77C368.09 109.96 364.99 106.88 361.17 106.88C360.69 106.88 360.23 106.93 359.78 107.02C359.03 106.34 358.03 105.91 356.93 105.91C355.1 105.91 353.55 107.07 352.95 108.69C352.75 108.67 352.54 108.66 352.33 108.66C348.5 108.66 345.39 111.77 345.39 115.6C345.39 117.55 346.2 119.31 347.5 120.58C347.37 121.11 347.29 121.67 347.29 122.24C347.29 126.07 350.4 129.18 354.23 129.18C355.67 129.18 357.01 128.74 358.12 127.99C359.3 128.92 360.79 129.48 362.41 129.48C366.24 129.48 369.35 126.37 369.35 122.54C369.35 122.16 369.31 121.79 369.25 121.43C370.43 120.68 371.21 119.36 371.21 117.86L371.22 117.85Z" fill="#E69973"/>
    <path d="M358.33 116.94L359.83 141.11H356.83L358.33 116.94Z" fill="#EBCCBC"/>
    <path d="M134.79 135.81H134.25V141.17H134.79V135.81Z" fill="#505187"/>
    <path d="M154.4 135.81H153.86V141.17H154.4V135.81Z" fill="#505187"/>
    <path d="M155.61 132.61H133.07V136.26H155.61V132.61Z" fill="#D74F50"/>
    <path d="M155.61 137.5H133.07V138.52H155.61V137.5Z" fill="#D74F50"/>
    <path d="M286.75 141.97L286.94 115.22" stroke="#505187" stroke-miterlimit="10"/>
    <path d="M288.49 115.22H285.42L284.53 110.2H289.34L288.49 115.22Z" fill="#E69973"/>
    <path d="M284.32 110.2H289.55" stroke="#505187" stroke-miterlimit="10" stroke-linecap="round"/>
    <path d="M75.51 142.36L75.7 115.61" stroke="#505187" stroke-miterlimit="10"/>
    <path d="M77.25 115.61H74.18L73.29 110.59H78.1L77.25 115.61Z" fill="#7D7DB5"/>
    <path d="M73.08 110.59H78.31" stroke="#505187" stroke-miterlimit="10" stroke-linecap="round"/>
    <path d="M445.08 141.12L445.26 115.55" stroke="#7C2224" stroke-miterlimit="10"/>
    <path d="M446.8 115.55H443.73L442.84 110.53H447.65L446.8 115.55Z" fill="#EEBCB5"/>
    <path d="M442.64 110.53H447.86" stroke="#7C2224" stroke-miterlimit="10" stroke-linecap="round"/>
    <path d="M414.98 135.84H414.44V141.2H414.98V135.84Z" fill="#505187"/>
    <path d="M434.6 135.84H434.06V141.2H434.6V135.84Z" fill="#505187"/>
    <path d="M435.8 132.64H413.26V136.29H435.8V132.64Z" fill="#7D7DB5"/>
    <path d="M435.8 137.54H413.26V138.56H435.8V137.54Z" fill="#7D7DB5"/>
    <path d="M265.85 135.76H265.31V141.12H265.85V135.76Z" fill="#7C2224"/>
    <path d="M285.46 135.76H284.92V141.12H285.46V135.76Z" fill="#7C2224"/>
    <path d="M286.67 132.56H264.13V136.21H286.67V132.56Z" fill="#EBCCBC"/>
    <path d="M286.67 137.45H264.13V138.47H286.67V137.45Z" fill="#EBCCBC"/>
    <g clip-path="url(#clip1_452_3)">
    <path d="M164.325 127.934C164.354 128.057 164.422 128.281 164.247 128.445C163.586 129.12 164.937 128.496 164.937 128.496V127.903C165.472 127.74 165.861 127.208 165.861 126.595C165.871 125.838 165.287 125.225 164.568 125.225C163.849 125.225 163.265 125.838 163.265 126.595C163.265 127.259 163.722 127.821 164.325 127.934Z" fill="#EBCCBC"/>
    <path d="M164.889 128.496C165.735 128.609 165.667 130.868 165.706 131.951C165.744 133.035 165.783 133.28 165.511 133.29C165.239 133.301 163.829 133.648 163.674 133.29C163.518 132.933 163.693 131.185 163.674 130.449C163.644 129.621 163.606 128.312 164.889 128.496Z" fill="#D74F50"/>
    <path d="M164.5 128.69C163.849 128.69 163.703 131.594 163.703 131.594L163.615 132.473C163.615 132.473 163.479 132.718 163.46 132.452C163.431 132.135 163.567 130.99 163.615 130.581C163.674 130.121 163.858 128.67 164.403 128.609C164.646 128.578 165.132 128.711 165.132 128.711C165.132 128.711 165.637 129.365 165.803 129.733C166.065 130.336 165.628 131.553 165.579 131.941C165.531 132.33 165.472 132.79 165.472 132.79H165.239C165.239 132.79 165.744 130.735 165.744 130.438C165.744 130.142 165.667 129.508 165.492 129.334C165.317 129.161 164.957 128.68 164.51 128.68L164.5 128.69Z" fill="#EEBCB5"/>
    <path d="M163.985 130.898C163.722 130.449 163.382 130.51 163.353 130.857C163.324 131.174 163.236 131.246 163.421 131.389C163.606 131.532 163.936 131.338 163.936 131.338L163.985 130.898Z" fill="#EBCCBC"/>
    <path d="M163.819 132.922C163.771 134.814 164.267 137.308 164.374 137.471L166.435 140.129C166.474 140.18 166.551 140.18 166.581 140.119L166.921 139.352C166.921 139.352 166.931 139.301 166.921 139.271L165.531 136.623C165.531 136.623 165.521 136.592 165.521 136.572L165.638 133.209" fill="#B03C46"/>
    <path d="M163.926 132.943C163.518 134.149 162.779 136.919 162.779 136.919L162.176 140.385C162.176 140.446 162.215 140.508 162.274 140.528L163.071 140.712C163.071 140.712 163.149 140.692 163.158 140.651L164.218 137.226C164.218 137.226 165.813 134.66 165.9 133.209C165.929 132.687 163.926 132.953 163.926 132.953V132.943Z" fill="#AA2E33"/>
    <path d="M163.547 131.747C164.238 132.442 165.278 131.89 165.589 131.829C166.026 131.757 166.017 134.231 165.531 134.803C165.21 135.182 164.131 135.182 163.615 134.957C163.1 134.732 163.304 131.491 163.547 131.747Z" fill="#EEBCB5"/>
    <path d="M164.568 129.917L165.356 131.185L163.956 130.878L163.849 131.369C163.849 131.369 166.017 132.687 166.454 131.89C166.639 131.542 166.415 131.164 166.24 130.735C166.017 130.162 165.239 128.997 165.239 128.997" fill="#D74F50"/>
    <path d="M165.006 131.103C165.006 131.103 165.064 131.951 164.899 131.88C164.733 131.808 163.858 131.358 163.858 131.358L163.965 130.868L165.006 131.103Z" fill="#EBCCBC"/>
    <path d="M164.743 126.584C164.675 126.452 164.5 126.441 164.383 126.584C164.306 126.666 164.16 126.666 164.033 126.605C163.693 126.431 163.187 126.002 163.44 125.624C163.761 125.164 164.646 124.744 165.433 125.235C166.551 125.94 166.221 127.402 166.124 128.568C166.026 129.733 164.879 129.345 164.694 129.007C164.267 128.22 165.074 127.259 164.733 126.595L164.743 126.584Z" fill="#7C2224"/>
    <path d="M162.925 140.671L162.779 141.121L162.381 141.029L162.458 140.569L162.925 140.671Z" fill="#EBCCBC"/>
    <path d="M166.668 139.915L167.037 140.232L167.242 139.884L166.911 139.393L166.668 139.915Z" fill="#EBCCBC"/>
    <path d="M167.271 139.843C167.786 140.007 167.942 140.313 168 140.436C168.019 140.467 168.01 140.497 168 140.528C167.883 140.671 167.543 141.1 167.271 141.346C166.95 141.622 166.707 141.898 166.6 141.642C166.503 141.417 166.697 141.264 166.765 141.162C166.911 140.937 167.028 140.283 167.028 140.283L167.29 139.843H167.271Z" fill="#505187"/>
    <path d="M162.828 140.998C162.983 141.54 162.818 141.847 162.75 141.959C162.731 141.99 162.701 142.01 162.672 142C162.497 141.969 161.963 141.908 161.622 141.806C161.224 141.673 160.883 141.612 161.019 141.376C161.146 141.162 161.369 141.254 161.486 141.254C161.749 141.254 162.332 141.008 162.332 141.008H162.818L162.828 140.998Z" fill="#505187"/>
    </g>
    <g clip-path="url(#clip2_452_3)">
    <path d="M336.1 141.47C336.984 141.47 337.7 140.749 337.7 139.86C337.7 138.971 336.984 138.25 336.1 138.25C335.216 138.25 334.5 138.971 334.5 139.86C334.5 140.749 335.216 141.47 336.1 141.47Z" fill="#EBCCBC"/>
    <mask id="mask0_452_3" style="mask-type:luminance" maskUnits="userSpaceOnUse" x="334" y="138" width="4" height="4">
    <path d="M336.1 141.47C336.984 141.47 337.7 140.749 337.7 139.86C337.7 138.971 336.984 138.25 336.1 138.25C335.216 138.25 334.5 138.971 334.5 139.86C334.5 140.749 335.216 141.47 336.1 141.47Z" fill="white"/>
    </mask>
    <g mask="url(#mask0_452_3)">
    <path d="M335.8 140.37L335.51 139.86L335.8 139.35H336.39L336.69 139.86L336.39 140.37H335.8Z" fill="#D74F50"/>
    <path d="M334.29 140.37L334 139.86L334.29 139.35H334.88L335.18 139.86L334.88 140.37H334.29Z" fill="#D74F50"/>
    <path d="M336.6 139.02L336.3 138.51L336.6 138H337.19L337.48 138.51L337.19 139.02H336.6Z" fill="#D74F50"/>
    <path d="M335.01 139.03L334.71 138.52L335.01 138H335.59L335.89 138.52L335.59 139.03H335.01Z" fill="#D74F50"/>
    <path d="M337.29 140.37L337 139.86L337.29 139.35H337.88L338.18 139.86L337.88 140.37H337.29Z" fill="#D74F50"/>
    <path d="M336.54 141.73L336.24 141.22L336.54 140.71H337.13L337.42 141.22L337.13 141.73H336.54Z" fill="#D74F50"/>
    <path d="M335.04 141.73L334.74 141.22L335.04 140.71H335.63L335.92 141.22L335.63 141.73H335.04Z" fill="#D74F50"/>
    <path d="M335.71 138.52L336.43 138.51" stroke="#D74F50" stroke-width="0.25"/>
    <path d="M337.12 138.91L337.36 139.51" stroke="#D74F50" stroke-width="0.25"/>
    <path d="M337.33 140.29L337.06 140.82" stroke="#D74F50" stroke-width="0.25"/>
    </g>
    <path d="M336.4 141.21H335.78" stroke="#D74F50" stroke-width="0.25"/>
    <path d="M335.1 140.82L334.82 140.24" stroke="#D74F50" stroke-width="0.25"/>
    <path d="M335.07 138.89L334.84 139.43" stroke="#D74F50" stroke-width="0.25"/>
    <path d="M335.1 139.86H335.69" stroke="#D74F50" stroke-width="0.25"/>
    <path d="M335.85 139.43L335.52 138.92" stroke="#D74F50" stroke-width="0.25"/>
    <path d="M336.62 138.92L336.3 139.51" stroke="#D74F50" stroke-width="0.25"/>
    <path d="M336.36 140.32L336.58 140.78" stroke="#D74F50" stroke-width="0.25"/>
    <path d="M335.85 140.27L335.57 140.82" stroke="#D74F50" stroke-width="0.25"/>
    <path d="M336.58 139.86H337.22" stroke="#D74F50" stroke-width="0.25"/>
    </g>
    <g clip-path="url(#clip3_452_3)">
    <path d="M330.24 129.51C330.21 129.61 330.16 129.8 330.31 129.95C330.91 130.53 329.68 129.99 329.68 129.99V129.48C329.2 129.34 328.84 128.89 328.84 128.36C328.84 127.71 329.37 127.18 330.01 127.18C330.65 127.18 331.18 127.71 331.18 128.36C331.18 128.93 330.77 129.41 330.23 129.51H330.24Z" fill="#EBCCBC"/>
    <path d="M329.73 129.99C328.97 130.09 329.03 132.02 328.99 132.96C328.95 133.9 328.92 134.1 329.16 134.11C329.4 134.12 330.68 134.41 330.82 134.11C330.96 133.81 330.8 132.3 330.82 131.67C330.84 130.96 330.88 129.84 329.72 129.99H329.73Z" fill="#E69973"/>
    <path d="M330.77 132.92C331.06 132.57 331.35 132.67 331.34 132.97C331.33 133.25 331.4 133.32 331.22 133.41C331.04 133.5 330.77 133.3 330.77 133.3V132.92Z" fill="#EBCCBC"/>
    <path d="M330.9 133.97C330.64 135.57 329.81 137.6 329.69 137.72L327.44 139.62C327.44 139.62 327.33 139.64 327.31 139.58L327.13 138.88C327.13 138.88 327.13 138.83 327.14 138.81L328.79 136.8C328.79 136.8 328.8 136.78 328.81 136.76L329.23 133.9" fill="#505187"/>
    <path d="M330.8 133.81C331.17 134.85 331.83 137.22 331.83 137.22L332.37 140.2C332.37 140.26 332.34 140.31 332.28 140.32L331.56 140.48C331.56 140.48 331.49 140.46 331.48 140.43L330.52 137.48C330.52 137.48 329.08 135.27 329 134.03C328.97 133.58 330.79 133.81 330.79 133.81H330.8Z" fill="#5F6294"/>
    <path d="M330.02 131.21L329.17 132.52L330.62 132.91L330.72 133.33C330.72 133.33 328.71 133.59 328.32 132.9C328.15 132.6 328.36 132.28 328.51 131.9C328.72 131.41 329.41 130.41 329.41 130.41" fill="#E69973"/>
    <path d="M330 132.69C330 132.69 329.63 133.32 329.78 133.33C329.93 133.34 330.82 133.36 330.82 133.36L330.92 132.94L329.99 132.69H330Z" fill="#EBCCBC"/>
    <path d="M329.87 128.35C329.93 128.24 330.09 128.23 330.19 128.35C330.26 128.42 330.39 128.42 330.51 128.37C330.82 128.22 331.28 127.85 331.04 127.53C330.75 127.13 329.98 126.74 329.34 127.28C328.86 127.68 328.63 128.12 328.92 128.87C329.05 129.19 329.36 129.39 329.67 129.5C330.01 129.61 329.55 128.94 329.86 128.36L329.87 128.35Z" fill="#505187"/>
    <path d="M331.7 140.45L331.84 140.83L332.2 140.76L332.13 140.36L331.7 140.45Z" fill="#EBCCBC"/>
    <path d="M327.27 139.4L326.89 139.61L326.77 139.29L327.14 138.93L327.27 139.4Z" fill="#EBCCBC"/>
    <path d="M326.75 139.25C326.27 139.3 326.08 139.54 326.01 139.63C325.99 139.65 325.99 139.68 326.01 139.71C326.09 139.85 326.32 140.27 326.53 140.52C326.77 140.81 326.94 141.07 327.08 140.88C327.21 140.7 327.06 140.55 327.01 140.45C326.91 140.24 326.91 139.66 326.91 139.66L326.75 139.25Z" fill="#505187"/>
    <path d="M331.79 140.74C331.65 141.2 331.8 141.47 331.86 141.56C331.87 141.59 331.9 141.6 331.93 141.6C332.09 141.58 332.57 141.53 332.88 141.43C333.24 141.32 333.55 141.26 333.43 141.06C333.31 140.88 333.11 140.95 333 140.96C332.76 140.96 332.24 140.75 332.24 140.75H331.8L331.79 140.74Z" fill="#505187"/>
    </g>
    </g>
    <defs>
    <clipPath id="clip0_452_3">
    <rect width="450.47" height="144.11" fill="white"/>
    </clipPath>
    <clipPath id="clip1_452_3">
    <rect width="7" height="17" fill="white" transform="matrix(-1 0 0 1 168 125)"/>
    </clipPath>
    <clipPath id="clip2_452_3">
    <rect width="4.18" height="3.73" fill="white" transform="translate(334 138)"/>
    </clipPath>
    <clipPath id="clip3_452_3">
    <rect width="7.45" height="14.6" fill="white" transform="translate(326 127)"/>
    </clipPath>
    </defs>
</svg>
    