<svg width="436" height="129" viewBox="0 0 436 129" fill="none" xmlns="http://www.w3.org/2000/svg">
    <g clip-path="url(#clip0_452_576)">
        <g clip-path="url(#clip1_452_576)">
            <path d="M239.84 85.24H248.99L248.33 76.82H239.84V85.24Z" fill="#505187"/>
            <path d="M244.08 81.06C246.422 81.06 248.32 79.1617 248.32 76.82C248.32 74.4783 246.422 72.58 244.08 72.58C241.738 72.58 239.84 74.4783 239.84 76.82C239.84 79.1617 241.738 81.06 244.08 81.06Z" fill="#EBCCBC"/>
            <path d="M243.26 73.57C240.66 77.51 239.84 76.82 239.84 76.82C239.84 76.82 241.26 84.63 239.84 85.24C238.42 85.85 238.46 80.02 238.88 76.82C239.3 73.62 241.11 71 244.03 71C246.95 71 248.87 73.99 249.15 76.99C249.43 79.99 249.55 84.12 249.55 84.68C249.55 85.24 247.5 86.58 247.5 82.5C247.5 78.42 247.5 76.82 247.5 76.82C245.84 77.14 243.26 73.57 243.26 73.57Z" fill="#505187"/>
            <path d="M245.07 80.19C245.07 80.19 245.03 82.57 245.74 83.12C246.91 84.03 242.2 83.86 242.58 83.21C242.84 82.77 243.11 80.94 243.03 80.19C242.95 79.44 245.07 80.19 245.07 80.19Z" fill="#EBCCBC"/>
            <path d="M242.59 83.21C238.63 84.37 238.05 85.14 237.86 86.2C237.67 87.26 238.57 95.41 238.26 101.84C238.13 104.6 249.86 104.51 249.55 101.49C249.24 98.47 250.63 88.22 250.49 85.95C250.39 84.37 248.33 83.96 245.74 83.12C245.74 83.12 244.64 83.68 244.19 83.69C243.19 83.69 242.59 83.21 242.59 83.21Z" fill="#D74F50"/>
            <path d="M240.99 83.69L241.48 88.47H246.6L247.26 83.53L248.48 83.99C248.48 83.99 248.03 88.32 248.09 89.77C248.21 92.96 249.91 102.4 249.91 102.4L237.97 102.14C237.97 102.14 239.75 93.18 239.95 90.14C240.05 88.65 239.76 84.18 239.76 84.18L240.98 83.69H240.99Z" fill="#7C2224"/>
            <path d="M241.89 78.75H244.5C244.5 78.75 244.43 79.93 243.19 79.89C242.22 79.86 241.88 78.75 241.88 78.75H241.89Z" fill="#FBEFEB"/>
            <path d="M238.6 91.16C237.96 93.5 238.02 94.7 236.99 95.25C234.94 96.36 229.85 97.37 229.85 97.37L229 95.41L234.98 92.42L238.1 85.52" fill="#D74F50"/>
            <path d="M245.76 94.52C244.27 93.99 243.87 94.64 243.87 95.36C243.87 96.67 244.88 97.18 245.36 96.61C246.16 95.68 245.93 95.58 245.93 95.58L245.76 94.52Z" fill="#EBCCBC"/>
            <path d="M249.55 84.67C251.77 85.42 254.82 92.38 254.34 93.45C253.38 95.58 245.93 96.13 245.93 96.13L245.36 94.1L250.5 92.32L249.55 88.57" fill="#D74F50"/>
        </g>
        <path d="M261.63 17.93C261.65 17.76 261.67 17.58 261.67 17.4C261.67 13.6 257.56 10.51 252.48 10.51C252.03 10.51 251.58 10.54 251.15 10.59C249.48 9.41 247.17 8.67 244.61 8.67C239.54 8.67 236.82 10.71 235.34 14.04C234.94 14.94 234.92 16.71 235.54 17.57C235.01 17.49 233.01 17.76 232.46 17.86C229.61 18.35 226.23 20.72 226.23 24.27C226.23 27.82 228.3 29.68 233.36 30.61C234.79 30.87 237.62 30.41 238.83 29.92C247.12 32.68 254.64 29.3 254.64 29.3C256.21 30.17 258.19 30.7 260.35 30.7C265.42 30.7 269.54 27.82 269.54 24.27C269.54 21.02 266.1 18.35 261.63 17.91V17.93Z" fill="#EEBCB5"/>
        <path d="M394.5 4.19C394.5 4.11 394.48 4.03 394.48 3.95C394.48 2.23 396.31 0.83 398.56 0.83C398.76 0.83 398.96 0.84 399.15 0.87C399.89 0.33 400.92 0 402.05 0C404.3 0 405.51 0.92 406.17 2.43C406.35 2.84 406.36 3.64 406.08 4.03C406.32 3.99 407.2 4.12 407.45 4.16C408.71 4.38 410.21 5.46 410.21 7.06C410.21 8.66 409.29 9.51 407.05 9.93C406.42 10.05 405.16 9.84 404.62 9.62C400.94 10.87 397.6 9.34 397.6 9.34C396.9 9.74 396.02 9.97 395.06 9.97C392.81 9.97 390.98 8.67 390.98 7.06C390.98 5.59 392.51 4.38 394.49 4.18L394.5 4.19Z" fill="#EEBCB5"/>
        <path d="M30.27 43.26H26.67V125.1H30.27V43.26Z" fill="#7C2224"/>
        <path d="M108.87 43.26H105.27V125.1H108.87V43.26Z" fill="#7C2224"/>
        <path d="M29.69 52.02H10.65L24.95 23.45H39.25L29.69 52.02Z" fill="#EEBCB5"/>
        <path d="M48.74 52.02H29.69L39.25 23.45H54.4L48.74 52.02Z" fill="#D74F50"/>
        <path d="M67.78 52.02H48.74L54.4 23.45H67.78V52.02Z" fill="#EEBCB5"/>
        <path d="M86.83 52.02H67.78V23.45H80.96L86.83 52.02Z" fill="#D74F50"/>
        <path d="M105.87 52.02H86.83L80.96 23.45H95.11L105.87 52.02Z" fill="#EEBCB5"/>
        <path d="M124.91 52.02H105.87L95.11 23.45H108.69L124.91 52.02Z" fill="#D74F50"/>
        <path d="M29.69 52.02C29.69 57.28 25.43 61.54 20.17 61.54C14.91 61.54 10.65 57.28 10.65 52.02" fill="#EEBCB5"/>
        <path d="M67.77 52.02C67.77 57.28 63.51 61.54 58.25 61.54C52.99 61.54 48.73 57.28 48.73 52.02" fill="#EEBCB5"/>
        <path d="M105.85 52.02C105.85 57.28 101.59 61.54 96.33 61.54C91.07 61.54 86.81 57.28 86.81 52.02" fill="#EEBCB5"/>
        <path d="M48.74 52.02C48.74 57.28 44.48 61.54 39.22 61.54C33.96 61.54 29.7 57.28 29.7 52.02" fill="#D74F50"/>
        <path d="M86.83 52.02C86.83 57.28 82.57 61.54 77.31 61.54C72.05 61.54 67.79 57.28 67.79 52.02" fill="#D74F50"/>
        <path d="M124.91 52.02C124.91 57.28 120.65 61.54 115.39 61.54C110.13 61.54 105.87 57.28 105.87 52.02" fill="#D74F50"/>
        <path d="M315.05 43.25H311.45V125.09H315.05V43.25Z" fill="#7C2224"/>
        <path d="M393.65 43.25H390.05V125.09H393.65V43.25Z" fill="#7C2224"/>
        <path d="M314.48 52.01H295.43L309.73 23.44H324.03L314.48 52.01Z" fill="#E69973"/>
        <path d="M333.52 52.01H314.48L324.03 23.44H339.19L333.52 52.01Z" fill="#E69973"/>
        <path d="M352.56 52.01H333.52L339.19 23.44H352.56V52.01Z" fill="#E69973"/>
        <path d="M371.61 52.01H352.56V23.44H365.74L371.61 52.01Z" fill="#E69973"/>
        <path d="M390.65 52.01H371.61L365.74 23.44H379.89L390.65 52.01Z" fill="#E69973"/>
        <path d="M409.7 52.01H390.65L379.89 23.44H393.48L409.7 52.01Z" fill="#E69973"/>
        <path d="M314.48 52.01C314.48 57.27 310.22 61.53 304.96 61.53C299.7 61.53 295.44 57.27 295.44 52.01" fill="#E69973"/>
        <path d="M352.55 52.01C352.55 57.27 348.29 61.53 343.03 61.53C337.77 61.53 333.51 57.27 333.51 52.01" fill="#E69973"/>
        <path d="M390.63 52.01C390.63 57.27 386.37 61.53 381.11 61.53C375.85 61.53 371.59 57.27 371.59 52.01" fill="#E69973"/>
        <path d="M333.52 52.01C333.52 57.27 329.26 61.53 324 61.53C318.74 61.53 314.48 57.27 314.48 52.01" fill="#E69973"/>
        <path d="M371.61 52.01C371.61 57.27 367.35 61.53 362.09 61.53C356.83 61.53 352.57 57.27 352.57 52.01" fill="#E69973"/>
        <path d="M409.7 52.01C409.7 57.27 405.44 61.53 400.18 61.53C394.92 61.53 390.66 57.27 390.66 52.01" fill="#E69973"/>
        <path d="M160.49 43.42H156.89V125.26H160.49V43.42Z" fill="#7D7DB5"/>
        <path d="M264.51 43.26H260.91V125.1H264.51V43.26Z" fill="#7D7DB5"/>
        <path d="M171.04 100.4H250.36C254.86 100.4 258.52 104.05 258.52 108.56V125.1H162.89V108.56C162.89 104.06 166.54 100.4 171.05 100.4H171.04Z" fill="#7D7DB5"/>
        <path d="M278.36 51.79H143.04L160.49 20.59H257.03L278.36 51.79Z" fill="#505187"/>
        <path d="M278.36 51.79H143.04V61.54H278.36V51.79Z" fill="#505187"/>
        <path d="M413.45 73.34V71.57H334.85V73.34H413.45Z" fill="#D74F50"/>
        <path d="M411.64 120.49H413.44V73.35H411.64V120.49Z" fill="#D74F50"/>
        <path d="M334.84 120.49H336.64V73.35H334.84V120.49Z" fill="#D74F50"/>
        <path d="M329.47 123.94C329.47 123.94 328.77 121.06 331.22 120.97C333.67 120.88 339.17 120.88 340.65 120.97C342.7 121.1 341.94 123.94 341.94 123.94" stroke="#D74F50" stroke-width="1.5" stroke-miterlimit="10" stroke-linecap="round"/>
        <path d="M329.38 125C330.164 125 330.8 124.364 330.8 123.58C330.8 122.796 330.164 122.16 329.38 122.16C328.596 122.16 327.96 122.796 327.96 123.58C327.96 124.364 328.596 125 329.38 125Z" fill="#EBCCBC"/>
        <path d="M329.38 124.01C329.617 124.01 329.81 123.817 329.81 123.58C329.81 123.343 329.617 123.15 329.38 123.15C329.143 123.15 328.95 123.343 328.95 123.58C328.95 123.817 329.143 124.01 329.38 124.01Z" fill="#D74F50"/>
        <path d="M342.08 125C342.864 125 343.5 124.364 343.5 123.58C343.5 122.796 342.864 122.16 342.08 122.16C341.296 122.16 340.66 122.796 340.66 123.58C340.66 124.364 341.296 125 342.08 125Z" fill="#EBCCBC"/>
        <path d="M342.08 124.01C342.317 124.01 342.51 123.817 342.51 123.58C342.51 123.343 342.317 123.15 342.08 123.15C341.843 123.15 341.65 123.343 341.65 123.58C341.65 123.817 341.843 124.01 342.08 124.01Z" fill="#D74F50"/>
        <path d="M406.29 123.92C406.29 123.92 405.59 121.04 408.04 120.95C410.49 120.86 415.99 120.86 417.47 120.95C419.52 121.08 418.76 123.92 418.76 123.92" stroke="#D74F50" stroke-width="1.5" stroke-miterlimit="10" stroke-linecap="round"/>
        <path d="M406.2 124.98C406.984 124.98 407.62 124.344 407.62 123.56C407.62 122.776 406.984 122.14 406.2 122.14C405.416 122.14 404.78 122.776 404.78 123.56C404.78 124.344 405.416 124.98 406.2 124.98Z" fill="#EBCCBC"/>
        <path d="M406.2 123.99C406.438 123.99 406.63 123.797 406.63 123.56C406.63 123.323 406.438 123.13 406.2 123.13C405.963 123.13 405.77 123.323 405.77 123.56C405.77 123.797 405.963 123.99 406.2 123.99Z" fill="#D74F50"/>
        <path d="M346.79 78.62L351.27 76.68C351.27 76.68 351.32 77.23 351.25 75.38C351.17 73.32 352.69 74.69 352.74 72.24C352.76 71.02 351.07 69.72 349.93 71.51" stroke="#7C2224" stroke-width="0.5" stroke-miterlimit="10" stroke-linecap="round"/>
        <path d="M356.18 78.62L351.26 76.69" stroke="#7C2224" stroke-width="0.5" stroke-miterlimit="10" stroke-linecap="round"/>
        <path d="M346.57 77.96C346.57 77.96 348.81 81.23 351.27 81.16C353.73 81.09 355.95 77.82 355.95 77.82C355.95 77.82 359.16 79.35 359.95 79.69C361.21 80.22 362.92 86.92 362.92 86.92L359.04 87.75L358.14 85.72V98.63H344.37V85.72L344.36 87.9L340.18 87.05C340.18 87.05 340.99 80.46 342.37 79.69C342.73 79.49 346.56 77.97 346.56 77.97L346.57 77.96Z" fill="#E69973"/>
        <path d="M391.21 78.62L395.69 76.68C395.69 76.68 395.74 77.23 395.67 75.38C395.59 73.32 397.11 74.69 397.16 72.24C397.18 71.02 395.49 69.72 394.35 71.51" stroke="#7C2224" stroke-width="0.5" stroke-miterlimit="10" stroke-linecap="round"/>
        <path d="M400.6 78.62L395.68 76.69" stroke="#7C2224" stroke-width="0.5" stroke-miterlimit="10" stroke-linecap="round"/>
        <path d="M391.25 77.96C391.25 77.96 393.49 81.23 395.95 81.16C398.41 81.09 400.63 77.82 400.63 77.82C400.63 77.82 403.84 79.35 404.63 79.69C405.89 80.22 407.6 86.92 407.6 86.92L403.19 88.23L402.82 85.72V98.63H389.05V85.72L389.04 87.9L384.86 87.05C384.86 87.05 385.67 80.46 387.05 79.69C387.41 79.49 391.24 77.97 391.24 77.97L391.25 77.96Z" fill="#D74F50"/>
        <path d="M358.47 78.62L362.95 76.68C362.95 76.68 363 77.23 362.93 75.38C362.85 73.32 364.37 74.69 364.42 72.24C364.44 71.02 362.75 69.72 361.61 71.51" stroke="#7C2224" stroke-width="0.5" stroke-miterlimit="10" stroke-linecap="round"/>
        <path d="M367.86 78.62L362.95 76.69" stroke="#7C2224" stroke-width="0.5" stroke-miterlimit="10" stroke-linecap="round"/>
        <path d="M356.93 79.05C357.08 78.45 357.77 78.18 358.31 78.49C360.38 79.69 361.72 79.69 362.95 79.69C363.94 79.69 365.89 78.98 367.36 78.36C368.21 78 369.19 78.43 369.52 79.3L373.73 92.99C373.94 93.56 373.73 94.2 373.22 94.53C372.65 94.9 371.94 95.32 371.52 95.38C370.74 95.49 369.24 94.15 367.87 94.49C366.5 94.83 365.9 96.05 364.42 95.94C362.94 95.83 361.49 94.38 360.38 94.38C359.27 94.38 359.04 96.07 357.26 95.95C356.16 95.88 355.07 95.09 354.4 94.51C353.98 94.15 353.81 93.58 353.95 93.05L356.95 79.06L356.93 79.05Z" fill="#AA2E33"/>
        <path d="M369 78.62L373.48 76.68C373.48 76.68 373.53 77.23 373.46 75.38C373.38 73.32 374.9 74.69 374.95 72.24C374.97 71.02 373.28 69.72 372.14 71.51" stroke="#7C2224" stroke-width="0.5" stroke-miterlimit="10" stroke-linecap="round"/>
        <path d="M378.39 78.62L373.47 76.69" stroke="#7C2224" stroke-width="0.5" stroke-miterlimit="10" stroke-linecap="round"/>
        <path d="M378.34 78.35C375.83 79.4 371.45 79.21 369.03 78.26C368.7 78.13 368.34 78.36 368.32 78.72L366.95 114.31H372.97L374.05 88.32L375.03 114.31H380.64L379.04 78.78C379.01 78.43 378.66 78.21 378.34 78.34V78.35Z" fill="#7C2224"/>
        <path d="M380.39 78.62L384.87 76.68C384.87 76.68 384.92 77.23 384.85 75.38C384.77 73.32 386.29 74.69 386.34 72.24C386.36 71.02 384.67 69.72 383.53 71.51" stroke="#7C2224" stroke-width="0.5" stroke-miterlimit="10" stroke-linecap="round"/>
        <path d="M389.78 78.62L384.86 76.69" stroke="#7C2224" stroke-width="0.5" stroke-miterlimit="10" stroke-linecap="round"/>
        <path d="M375.99 79.68C376.35 79.48 380.18 77.96 380.18 77.96C380.18 77.96 382.42 81.23 384.88 81.16C387.34 81.09 389.56 77.82 389.56 77.82C389.56 77.82 392.77 79.35 393.56 79.69C393.56 79.69 391.2 81.69 390.98 83.51C390.72 85.77 389.02 87.48 389.02 87.48L397.13 108.94C397.13 108.94 393.65 110.92 386.56 111.01C379.47 111.1 375.5 110.11 375.5 110.11L380.78 87.63C380.78 87.63 378.91 85.9 379.01 83.96C379.09 82.52 375.98 79.69 375.98 79.69L375.99 79.68Z" fill="#E69973"/>
        <path d="M201.8 91.51L202.07 90.86H195.29L195.57 91.51C195.57 92.02 195.38 92.51 195.04 92.89C194.08 93.97 193.58 95.46 193.9 97.09C194.27 98.96 195.77 100.49 197.64 100.88C200.79 101.53 203.56 99.14 203.56 96.11C203.56 94.87 203.09 93.75 202.32 92.89C201.98 92.51 201.79 92.02 201.79 91.51H201.8Z" fill="#D74F50"/>
        <path d="M199.08 108.27L199.35 107.12H192.57L192.85 108.27C192.85 109.18 192.66 110.05 192.32 110.72C191.36 112.63 190.86 115.29 191.18 118.17C191.55 121.5 193.05 124.21 194.92 124.89C198.07 126.05 200.84 121.81 200.84 116.42C200.84 114.22 200.37 112.23 199.6 110.71C199.26 110.03 199.07 109.16 199.07 108.26L199.08 108.27Z" fill="#EEBCB5"/>
        <path d="M181.02 85.52L179.34 77.2" stroke="#7C2224" stroke-width="0.5" stroke-miterlimit="10"/>
        <path d="M182.43 85.52L182.34 77.2" stroke="#7C2224" stroke-width="0.5" stroke-miterlimit="10"/>
        <path d="M183.72 85.52L185.04 75.59" stroke="#7C2224" stroke-width="0.5" stroke-miterlimit="10"/>
        <path d="M183.06 74.64V85.52" stroke="#7C2224" stroke-width="0.5" stroke-miterlimit="10"/>
        <path d="M180.58 76.1L181.82 85.52" stroke="#7C2224" stroke-width="0.5" stroke-miterlimit="10"/>
        <path d="M179.25 77.71C179.99 77.71 180.59 77.2354 180.59 76.65C180.59 76.0646 179.99 75.59 179.25 75.59C178.51 75.59 177.91 76.0646 177.91 76.65C177.91 77.2354 178.51 77.71 179.25 77.71Z" fill="#D74F50"/>
        <path d="M181.82 85.52L177.64 79.46" stroke="#7C2224" stroke-width="0.5" stroke-miterlimit="10"/>
        <path d="M177.755 79.9741C178.436 79.6831 178.801 79.0109 178.57 78.4726C178.34 77.9344 177.602 77.7339 176.922 78.0248C176.241 78.3157 175.876 78.988 176.106 79.5263C176.336 80.0645 177.075 80.265 177.755 79.9741Z" fill="#D74F50"/>
        <path d="M183.48 85.65L186.69 79.03" stroke="#7C2224" stroke-width="0.5" stroke-miterlimit="10"/>
        <path d="M188.024 79.36C188.379 78.8946 188.19 78.1534 187.602 77.7045C187.013 77.2556 186.248 77.269 185.893 77.7345C185.538 78.1999 185.727 78.9411 186.316 79.39C186.904 79.8389 187.669 79.8254 188.024 79.36Z" fill="#D74F50"/>
        <path d="M180.49 76.62C181.23 76.62 181.83 76.1454 181.83 75.56C181.83 74.9746 181.23 74.5 180.49 74.5C179.75 74.5 179.15 74.9746 179.15 75.56C179.15 76.1454 179.75 76.62 180.49 76.62Z" fill="#D74F50"/>
        <path d="M182.15 78.26C182.89 78.26 183.49 77.7854 183.49 77.2C183.49 76.6146 182.89 76.14 182.15 76.14C181.41 76.14 180.81 76.6146 180.81 77.2C180.81 77.7854 181.41 78.26 182.15 78.26Z" fill="#D74F50"/>
        <path d="M183.06 75.7C183.8 75.7 184.4 75.2254 184.4 74.64C184.4 74.0546 183.8 73.58 183.06 73.58C182.32 73.58 181.72 74.0546 181.72 74.64C181.72 75.2254 182.32 75.7 183.06 75.7Z" fill="#D74F50"/>
        <path d="M185.04 76.76C185.78 76.76 186.38 76.2854 186.38 75.7C186.38 75.1146 185.78 74.64 185.04 74.64C184.3 74.64 183.7 75.1146 183.7 75.7C183.7 76.2854 184.3 76.76 185.04 76.76Z" fill="#D74F50"/>
        <path d="M184.87 82.67L184.38 85.52" stroke="#7C2224" stroke-width="0.5" stroke-miterlimit="10"/>
        <path d="M184.62 80.35L183.48 85.52" stroke="#7C2224" stroke-width="0.5" stroke-miterlimit="10"/>
        <path d="M186.134 79.7751C186.247 79.2006 185.749 78.6195 185.023 78.4772C184.297 78.3348 183.617 78.6851 183.504 79.2596C183.392 79.8341 183.889 80.4152 184.615 80.5576C185.342 80.6999 186.022 80.3496 186.134 79.7751Z" fill="#D74F50"/>
        <path d="M182.18 81.3L182.43 85.52" stroke="#7C2224" stroke-width="0.5" stroke-miterlimit="10"/>
        <path d="M179.95 83.31L180.49 85.52" stroke="#7C2224" stroke-width="0.5" stroke-miterlimit="10"/>
        <path d="M182.267 81.6095C183.003 81.5279 183.547 80.9901 183.482 80.4083C183.418 79.8264 182.769 79.4209 182.034 79.5025C181.298 79.5841 180.754 80.1219 180.819 80.7038C180.883 81.2856 181.532 81.6911 182.267 81.6095Z" fill="#D74F50"/>
        <path d="M179.957 83.9379C180.672 83.7465 181.129 83.1329 180.977 82.5674C180.826 82.0019 180.124 81.6987 179.409 81.8901C178.694 82.0815 178.237 82.6951 178.389 83.2606C178.54 83.8261 179.242 84.1294 179.957 83.9379Z" fill="#D74F50"/>
        <path d="M186.658 82.1167C186.771 81.5422 186.274 80.9611 185.547 80.8187C184.821 80.6764 184.141 81.0267 184.028 81.6012C183.916 82.1757 184.413 82.7568 185.14 82.8991C185.866 83.0415 186.546 82.6912 186.658 82.1167Z" fill="#D74F50"/>
        <path d="M179.82 85.52C179.46 86.33 178.26 89.82 177.94 91.86C177.62 93.9 179.58 100.42 180.36 100.4C181.14 100.38 183.7 100.4 184.56 100.4C185.42 100.4 186.93 95.89 186.93 92.52C186.93 90.06 184.84 85.52 184.84 85.52H179.81H179.82Z" fill="#E69973"/>
        <path d="M213.66 88.91C213.3 89.54 212.1 92.23 211.78 93.8C211.46 95.37 213.42 100.41 214.2 100.4C214.98 100.39 217.54 100.4 218.4 100.4C219.26 100.4 220.77 96.92 220.77 94.32C220.77 92.42 218.68 88.92 218.68 88.92H213.65L213.66 88.91Z" fill="#7C2224"/>
        <path d="M192.08 91.97H185.28C184.584 91.97 184.02 92.5341 184.02 93.23V99.14C184.02 99.8359 184.584 100.4 185.28 100.4H192.08C192.776 100.4 193.34 99.8359 193.34 99.14V93.23C193.34 92.5341 192.776 91.97 192.08 91.97Z" fill="#EEBCB5"/>
        <path d="M190.4 91.97C192.09 91.97 195.26 89.75 195.26 87.02C195.26 84.29 192.1 87.02 191.1 88.32C190.43 89.19 188.69 91.96 188.69 91.96H190.4V91.97Z" fill="#7D7DB5"/>
        <path d="M187.64 91.97C186.64 87.09 185.99 82.79 188 82.79C188.75 82.79 189.18 84.08 189.37 85.69C189.68 88.38 189.33 91.97 188.68 91.97H187.64Z" fill="#7D7DB5"/>
        <path d="M186.07 91.97C182.12 89.1 181.62 87.09 183.13 86.66C184.64 86.23 188.35 91.42 187.65 91.97H186.07Z" fill="#7D7DB5"/>
        <path d="M222.98 85.52C222.62 86.33 221.42 89.82 221.1 91.86C220.78 93.9 222.74 100.42 223.52 100.4C224.3 100.38 226.86 100.4 227.72 100.4C228.58 100.4 230.09 95.89 230.09 92.52C230.09 90.06 228 85.52 228 85.52H222.97H222.98Z" fill="#AA2E33"/>
        <path d="M229.34 90.47L227.66 82.15" stroke="#505187" stroke-width="0.5" stroke-miterlimit="10"/>
        <path d="M230.74 90.47L230.66 82.15" stroke="#505187" stroke-width="0.5" stroke-miterlimit="10"/>
        <path d="M232.03 90.47L233.35 80.55" stroke="#505187" stroke-width="0.5" stroke-miterlimit="10"/>
        <path d="M231.38 79.6V90.47" stroke="#505187" stroke-width="0.5" stroke-miterlimit="10"/>
        <path d="M228.9 81.06L230.14 90.47" stroke="#505187" stroke-width="0.5" stroke-miterlimit="10"/>
        <path d="M227.56 82.66C228.3 82.66 228.9 82.1854 228.9 81.6C228.9 81.0146 228.3 80.54 227.56 80.54C226.82 80.54 226.22 81.0146 226.22 81.6C226.22 82.1854 226.82 82.66 227.56 82.66Z" fill="#D74F50"/>
        <path d="M230.14 90.47L225.96 84.41" stroke="#505187" stroke-width="0.5" stroke-miterlimit="10"/>
        <path d="M226.071 84.9229C226.752 84.632 227.117 83.9597 226.887 83.4215C226.656 82.8832 225.918 82.6827 225.238 82.9736C224.557 83.2646 224.192 83.9368 224.422 84.4751C224.652 85.0134 225.391 85.2139 226.071 84.9229Z" fill="#D74F50"/>
        <path d="M231.8 90.6L235.01 83.98" stroke="#505187" stroke-width="0.5" stroke-miterlimit="10"/>
        <path d="M236.346 84.3216C236.701 83.8562 236.512 83.115 235.923 82.6661C235.335 82.2172 234.57 82.2307 234.215 82.6961C233.86 83.1615 234.049 83.9027 234.637 84.3516C235.226 84.8005 235.991 84.7871 236.346 84.3216Z" fill="#D74F50"/>
        <path d="M228.8 81.57C229.54 81.57 230.14 81.0954 230.14 80.51C230.14 79.9246 229.54 79.45 228.8 79.45C228.06 79.45 227.46 79.9246 227.46 80.51C227.46 81.0954 228.06 81.57 228.8 81.57Z" fill="#D74F50"/>
        <path d="M230.47 83.21C231.21 83.21 231.81 82.7354 231.81 82.15C231.81 81.5646 231.21 81.09 230.47 81.09C229.73 81.09 229.13 81.5646 229.13 82.15C229.13 82.7354 229.73 83.21 230.47 83.21Z" fill="#D74F50"/>
        <path d="M231.38 80.66C232.12 80.66 232.72 80.1854 232.72 79.6C232.72 79.0146 232.12 78.54 231.38 78.54C230.64 78.54 230.04 79.0146 230.04 79.6C230.04 80.1854 230.64 80.66 231.38 80.66Z" fill="#D74F50"/>
        <path d="M233.35 81.72C234.09 81.72 234.69 81.2454 234.69 80.66C234.69 80.0746 234.09 79.6 233.35 79.6C232.61 79.6 232.01 80.0746 232.01 80.66C232.01 81.2454 232.61 81.72 233.35 81.72Z" fill="#D74F50"/>
        <path d="M233.18 87.62L232.69 90.47" stroke="#505187" stroke-width="0.5" stroke-miterlimit="10"/>
        <path d="M232.94 85.31L231.8 90.47" stroke="#505187" stroke-width="0.5" stroke-miterlimit="10"/>
        <path d="M234.456 84.7215C234.569 84.147 234.071 83.5659 233.345 83.4236C232.619 83.2812 231.939 83.6315 231.826 84.206C231.713 84.7805 232.211 85.3616 232.937 85.504C233.663 85.6463 234.343 85.296 234.456 84.7215Z" fill="#D74F50"/>
        <path d="M230.5 86.26L230.74 90.47" stroke="#505187" stroke-width="0.5" stroke-miterlimit="10"/>
        <path d="M228.27 88.26L228.8 90.47" stroke="#505187" stroke-width="0.5" stroke-miterlimit="10"/>
        <path d="M230.58 86.5718C231.315 86.4902 231.859 85.9524 231.795 85.3705C231.73 84.7887 231.081 84.3831 230.346 84.4647C229.61 84.5463 229.066 85.0841 229.131 85.666C229.196 86.2479 229.844 86.6534 230.58 86.5718Z" fill="#D74F50"/>
        <path d="M228.276 88.9012C228.991 88.7097 229.447 88.0961 229.296 87.5306C229.145 86.9651 228.442 86.6619 227.727 86.8533C227.013 87.0447 226.556 87.6583 226.707 88.2238C226.859 88.7893 227.561 89.0926 228.276 88.9012Z" fill="#D74F50"/>
        <path d="M234.97 87.0611C235.083 86.4867 234.585 85.9055 233.859 85.7632C233.133 85.6208 232.453 85.9712 232.34 86.5456C232.228 87.1201 232.725 87.7012 233.451 87.8436C234.178 87.9859 234.858 87.6356 234.97 87.0611Z" fill="#D74F50"/>
        <path d="M232.99 90.35H229.13C228.517 90.35 228.02 90.847 228.02 91.46V99.28C228.02 99.893 228.517 100.39 229.13 100.39H232.99C233.603 100.39 234.1 99.893 234.1 99.28V91.46C234.1 90.847 233.603 90.35 232.99 90.35Z" fill="#EEBCB5"/>
        <path d="M203.85 125.09H199.73C199.03 125.09 198.47 124.53 198.47 123.83L196.94 117.92C196.94 117.22 197.5 116.66 198.2 116.66H205C205.7 116.66 206.26 117.22 206.26 117.92L205.12 123.83C205.12 124.53 204.56 125.09 203.86 125.09H203.85Z" fill="#D74F50"/>
        <path d="M223.18 100.4H219.06C218.36 100.4 217.8 99.84 217.8 99.14L216.27 93.23C216.27 92.53 216.83 91.97 217.53 91.97H224.33C225.03 91.97 225.59 92.53 225.59 93.23L224.45 99.14C224.45 99.84 223.89 100.4 223.19 100.4H223.18Z" fill="#505187"/>
        <path d="M202.7 116.66C203.79 116.66 205.85 115.04 205.85 113.05C205.85 111.06 203.25 112.98 202.6 113.92C202.17 114.55 201.59 116.65 201.59 116.65H202.7V116.66Z" fill="#505187"/>
        <path d="M200.55 116.66C199.55 113.41 198.9 110.54 200.91 110.54C201.66 110.54 202.09 111.4 202.28 112.47C202.59 114.26 202.24 116.65 201.59 116.65H200.55V116.66Z" fill="#505187"/>
        <path d="M199.3 116.66C196.11 114.34 195.71 112.71 196.92 112.36C198.13 112.01 201.14 116.22 200.57 116.66H199.29H199.3Z" fill="#505187"/>
        <path d="M202.7 116.66C204.92 114.57 206.77 113.97 206.18 114.95C205.59 115.93 202.7 116.66 202.7 116.66Z" fill="#505187"/>
        <path d="M202.4 112.89C202.87 111.77 203.44 111.39 203.06 112.89C202.68 114.39 202.19 115.79 202.19 115.79L201.82 115.06L202.4 112.89Z" fill="#505187"/>
        <path d="M198.69 113.17C198.75 112.37 198.88 112.62 199.33 113.17C199.78 113.72 200.64 115.57 200.64 115.57L200.29 115.78C200.29 115.78 198.75 113.96 198.69 113.84C198.63 113.72 198.69 113.17 198.69 113.17Z" fill="#505187"/>
        <path d="M198.69 115.92C197.25 115.54 196.17 115.6 196.42 115.92C196.67 116.24 199.29 116.66 199.29 116.66L198.68 115.92H198.69Z" fill="#505187"/>
        <path d="M202.7 116.66C203.31 116.72 205.1 116.72 205.26 116.43C205.42 116.14 203.43 116.02 203.43 116.02L202.7 116.66Z" fill="#505187"/>
        <path d="M213.66 88.91C213.34 87.78 211.59 86.41 211.59 83.35C211.59 80.29 214.19 83.23 214.84 84.7C215.27 85.68 215.85 88.91 215.85 88.91H213.66Z" fill="#EEBCB5"/>
        <path d="M216.89 88.91C217.89 83.91 218.2 81.01 216.53 79.49C215.97 78.98 215.35 80.81 215.16 82.47C214.85 85.23 215.2 88.91 215.85 88.91H216.89Z" fill="#EEBCB5"/>
        <path d="M218.7 88.91C221.89 85.33 222.22 82.92 220.93 83.24C217.91 84 216.31 88.22 216.88 88.9H218.7V88.91Z" fill="#EEBCB5"/>
        <path d="M213.66 88.91C213 85.58 210.67 84.76 211.25 86.27C211.83 87.78 213.66 88.91 213.66 88.91Z" fill="#EEBCB5"/>
        <path d="M215.04 83.1C214.57 81.38 214 80.79 214.38 83.1C214.76 85.41 215.25 87.57 215.25 87.57L215.62 86.44L215.04 83.1Z" fill="#EEBCB5"/>
        <path d="M218.76 83.54C218.7 82.31 218.57 82.69 218.12 83.54C217.67 84.39 216.81 87.24 216.81 87.24L217.16 87.57C217.16 87.57 218.7 84.77 218.76 84.58C218.82 84.39 218.76 83.55 218.76 83.55V83.54Z" fill="#EEBCB5"/>
        <path d="M31.17 99.15C32.04 99.56 32.59 98.08 32.98 97.59C34.18 96.08 34.44 94.74 32.89 94.18C31.55 93.69 30.03 95.03 30.99 97.02C31.23 97.5 30.22 98.71 31.17 99.15Z" fill="#E69973"/>
        <path d="M30.64 99.71L30.82 99.85C30.82 99.85 31.28 99.14 31.27 99.05C31.26 98.96 31.19 98.95 31.15 98.96C31.1 98.97 30.96 99.38 30.65 99.72L30.64 99.71Z" fill="#505187"/>
        <path d="M38.21 92.88C37.29 92.61 36.97 94.16 36.67 94.71C35.72 96.39 35.67 97.75 37.29 98.06C38.69 98.33 39.99 96.77 38.72 94.96C38.41 94.52 39.21 93.17 38.21 92.88Z" fill="#EEB9A1"/>
        <path d="M38.64 92.24L38.44 92.13C38.44 92.13 38.1 92.91 38.13 92.99C38.16 93.07 38.23 93.08 38.26 93.06C38.31 93.04 38.39 92.61 38.64 92.23V92.24Z" fill="#505187"/>
        <path d="M35.45 92.92C34.76 92.25 33.75 93.46 33.22 93.8C31.59 94.83 30.9 96 32.18 97.05C33.28 97.96 35.16 97.19 34.91 95C34.85 94.47 36.19 93.66 35.45 92.93V92.92Z" fill="#EEB9A1"/>
        <path d="M36.14 92.56L36.02 92.37C36.02 92.37 35.35 92.89 35.33 92.98C35.31 93.07 35.37 93.11 35.41 93.11C35.46 93.11 35.73 92.78 36.14 92.56Z" fill="#505187"/>
        <path d="M44 93.2C43.31 92.53 42.3 93.74 41.77 94.08C40.14 95.11 39.45 96.28 40.73 97.33C41.83 98.24 43.71 97.47 43.46 95.28C43.4 94.75 44.74 93.94 44 93.21V93.2Z" fill="#EEB9A1"/>
        <path d="M44.69 92.84L44.57 92.65C44.57 92.65 43.9 93.17 43.88 93.26C43.86 93.35 43.92 93.39 43.96 93.39C44.01 93.39 44.28 93.06 44.69 92.84Z" fill="#505187"/>
        <path d="M34.97 92.58C34.03 92.8 34.53 94.3 34.53 94.93C34.53 96.86 35.16 98.06 36.72 97.54C38.07 97.09 38.43 95.09 36.44 94.14C35.96 93.91 35.99 92.34 34.97 92.58Z" fill="#E69973"/>
        <path d="M35.04 91.81C35.04 91.75 34.81 91.81 34.81 91.81C34.81 91.81 34.9 92.65 34.96 92.72C35.02 92.79 35.09 92.75 35.11 92.72C35.14 92.68 35 92.27 35.03 91.81H35.04Z" fill="#505187"/>
        <path d="M40.13 92.3C39.18 92.12 39.03 93.7 38.77 94.27C37.99 96.03 38.08 97.39 39.72 97.55C41.14 97.68 42.28 96 40.84 94.32C40.49 93.91 41.16 92.49 40.13 92.3Z" fill="#E69973"/>
        <path d="M40.5 91.62L40.29 91.53C40.29 91.53 40.03 92.34 40.06 92.42C40.09 92.5 40.17 92.5 40.2 92.48C40.24 92.46 40.28 92.02 40.49 91.62H40.5Z" fill="#505187"/>
        <path d="M35.13 95.62C34.78 96.52 36.3 96.96 36.82 97.32C38.41 98.41 39.76 98.57 40.21 96.99C40.6 95.62 39.16 94.19 37.24 95.3C36.77 95.57 35.5 94.65 35.12 95.63L35.13 95.62Z" fill="#EEB9A1"/>
        <path d="M34.53 95.13L34.4 95.32C34.4 95.32 35.15 95.73 35.23 95.71C35.31 95.69 35.33 95.62 35.32 95.58C35.3 95.53 34.88 95.42 34.53 95.13Z" fill="#505187"/>
        <path d="M45.83 92.93C44.91 92.66 44.59 94.21 44.29 94.76C43.34 96.44 43.29 97.8 44.91 98.11C46.31 98.38 47.61 96.82 46.34 95.01C46.03 94.57 46.83 93.22 45.83 92.93Z" fill="#EEB9A1"/>
        <path d="M46.27 92.29L46.07 92.18C46.07 92.18 45.73 92.96 45.76 93.04C45.79 93.12 45.86 93.13 45.89 93.11C45.94 93.09 46.02 92.66 46.27 92.28V92.29Z" fill="#505187"/>
        <path d="M42.6 92.63C41.66 92.85 42.16 94.35 42.16 94.98C42.16 96.91 42.79 98.11 44.35 97.59C45.7 97.14 46.06 95.14 44.07 94.19C43.59 93.96 43.62 92.39 42.6 92.63Z" fill="#E69973"/>
        <path d="M42.67 91.86C42.67 91.8 42.44 91.86 42.44 91.86C42.44 91.86 42.53 92.7 42.59 92.77C42.65 92.84 42.72 92.8 42.74 92.77C42.77 92.73 42.63 92.32 42.66 91.86H42.67Z" fill="#505187"/>
        <path d="M48.56 94.02C47.91 93.31 46.84 94.47 46.29 94.77C44.61 95.7 43.85 96.84 45.07 97.95C46.12 98.92 48.04 98.26 47.91 96.06C47.88 95.52 49.27 94.79 48.57 94.02H48.56Z" fill="#E69973"/>
        <path d="M49.26 93.7C49.31 93.68 49.15 93.5 49.15 93.5C49.15 93.5 48.45 93.98 48.43 94.07C48.41 94.16 48.47 94.2 48.5 94.2C48.55 94.2 48.84 93.88 49.26 93.69V93.7Z" fill="#505187"/>
        <path d="M46.64 94.8C46.29 95.7 47.81 96.14 48.33 96.5C49.92 97.59 51.27 97.75 51.72 96.17C52.11 94.8 50.67 93.37 48.75 94.48C48.28 94.75 47.01 93.83 46.63 94.81L46.64 94.8Z" fill="#EEB9A1"/>
        <path d="M46.04 94.31L45.91 94.5C45.91 94.5 46.66 94.91 46.74 94.89C46.82 94.87 46.84 94.8 46.83 94.76C46.81 94.71 46.39 94.6 46.04 94.31Z" fill="#505187"/>
        <path d="M54.28 94.64L54.65 93.32L66.39 95.77L54.28 94.64Z" fill="#505187"/>
        <path d="M71.72 95.39C71.5 95.75 71.21 96.17 68.67 96.41C66.14 96.65 54.72 96.89 54.72 96.89L54.36 95.77C54.36 95.77 66.24 96.42 67 96.27C67.76 96.12 71.72 95.39 71.72 95.39Z" fill="#505187"/>
        <path d="M59.84 96.73C64.18 97.01 71.03 96.35 71.5 95.75C71.97 95.15 71.76 94.71 70.9 94.77C70.04 94.83 68.11 95.59 66 95.59C60.62 95.59 54.09 94.04 54.09 94.04L53.73 95.63C53.73 95.63 57.84 96.61 59.84 96.73Z" fill="#7D7DB5"/>
        <path d="M56.88 91.47L57.6 90.31L68.21 95.92L56.88 91.47Z" fill="#636696"/>
        <path d="M73.43 97.03C73.12 97.32 72.72 97.64 70.22 97.17C67.72 96.7 56.68 93.76 56.68 93.76L56.64 92.58C56.64 92.58 67.87 96.5 68.64 96.57C69.41 96.64 73.42 97.03 73.42 97.03H73.43Z" fill="#636696"/>
        <path d="M61.65 95.02C65.75 96.49 72.51 97.77 73.12 97.31C73.73 96.85 73.66 96.38 72.82 96.2C71.98 96.02 69.91 96.22 67.89 95.63C62.72 94.13 56.88 90.84 56.88 90.84L56.09 92.27C56.09 92.27 59.77 94.35 61.66 95.03L61.65 95.02Z" fill="#9595C1"/>
        <path d="M60.9 94.29L61.26 92.97L73.01 95.41L60.9 94.29Z" fill="#505187"/>
        <path d="M78.33 95.03C78.11 95.39 77.82 95.81 75.28 96.05C72.75 96.29 61.33 96.53 61.33 96.53L60.97 95.41C60.97 95.41 72.85 96.06 73.61 95.91C74.37 95.76 78.33 95.03 78.33 95.03Z" fill="#505187"/>
        <path d="M66.46 96.38C70.8 96.66 77.65 96 78.12 95.4C78.59 94.8 78.38 94.36 77.52 94.42C76.66 94.48 74.73 95.24 72.62 95.24C67.24 95.24 60.71 93.69 60.71 93.69L60.35 95.28C60.35 95.28 64.46 96.26 66.46 96.38Z" fill="#7D7DB5"/>
        <path d="M60.42 89.98L61.25 88.89L71.26 95.51L60.42 89.98Z" fill="#505187"/>
        <path d="M76.35 97.12C76.01 97.37 75.58 97.66 73.14 96.94C70.7 96.22 60 92.23 60 92.23L60.07 91.06C60.07 91.06 70.86 96.05 71.63 96.2C72.4 96.35 76.34 97.13 76.34 97.13L76.35 97.12Z" fill="#505187"/>
        <path d="M64.81 93.98C68.74 95.84 75.35 97.77 76 97.38C76.65 96.99 76.63 96.51 75.8 96.24C74.97 95.97 72.9 95.97 70.95 95.19C65.95 93.19 60.46 89.35 60.46 89.35L59.54 90.7C59.54 90.7 63 93.13 64.81 93.98Z" fill="#7D7DB5"/>
        <path d="M63.5 91.12L64.21 89.95L74.82 95.56L63.5 91.12Z" fill="#636696"/>
        <path d="M80.04 96.68C79.73 96.97 79.33 97.29 76.83 96.82C74.33 96.35 63.29 93.41 63.29 93.41L63.25 92.23C63.25 92.23 74.48 96.15 75.25 96.22C76.02 96.29 80.03 96.68 80.03 96.68H80.04Z" fill="#636696"/>
        <path d="M68.26 94.67C72.36 96.14 79.12 97.42 79.73 96.96C80.34 96.5 80.27 96.03 79.43 95.85C78.59 95.67 76.52 95.87 74.5 95.28C69.33 93.78 63.49 90.49 63.49 90.49L62.7 91.92C62.7 91.92 66.38 94 68.27 94.68L68.26 94.67Z" fill="#9595C1"/>
        <path d="M96.98 86.89C95.06 87.14 95.65 91.29 95.31 92.2C94.31 94.89 94.05 98.93 98.59 98.34C103.31 97.73 101.99 93.73 100.08 91.06C99.1 89.68 99.17 86.61 96.97 86.89H96.98Z" fill="#E69973"/>
        <path d="M96.59 87.29C96.96 87.56 97.54 87.29 97.55 87.1C97.56 86.91 97.1 85.95 97.14 85.7C97.18 85.45 96.64 85.1 96.52 85.42C96.38 85.79 96.43 87.18 96.59 87.29Z" fill="#7C2224"/>
        <path d="M84.81 86.83C82.87 86.83 83.14 91.69 82.73 92.68C81.52 95.62 80.95 100.21 85.55 100.21C90.15 100.21 89.31 95.43 87.6 92.07C86.72 90.35 87.03 86.82 84.81 86.82V86.83Z" fill="#EEB9A1"/>
        <path d="M84.4 87.23C84.75 87.6 85.35 87.37 85.38 87.16C85.41 86.95 85.01 85.78 85.08 85.49C85.15 85.2 84.62 84.73 84.48 85.07C84.31 85.48 84.25 87.07 84.4 87.23Z" fill="#7C2224"/>
        <path d="M93.54 89.62C91.66 90.05 92.54 94.05 92.27 94.98C91.47 97.71 91.5 101.68 95.96 100.65C100.42 99.62 98.99 95.81 96.91 93.39C95.84 92.14 95.69 89.13 93.54 89.63V89.62Z" fill="#EEB9A1"/>
        <path d="M93.19 90.05C93.57 90.28 94.13 89.96 94.12 89.77C94.11 89.58 93.59 88.7 93.62 88.44C93.65 88.18 93.08 87.91 92.99 88.22C92.88 88.6 93.02 89.95 93.19 90.04V90.05Z" fill="#7C2224"/>
        <path d="M90.69 87.95C88.78 87.68 88.2 91.56 87.62 92.29C85.91 94.45 84.55 98 89.08 98.65C93.78 99.32 93.62 95.39 92.52 92.5C91.95 91.01 92.87 88.27 90.68 87.96L90.69 87.95Z" fill="#E69973"/>
        <path d="M90.21 88.21C90.49 88.55 91.12 88.46 91.18 88.29C91.24 88.12 91.06 87.15 91.18 86.93C91.3 86.71 90.86 86.27 90.66 86.52C90.42 86.82 90.09 88.07 90.21 88.22V88.21Z" fill="#7C2224"/>
        <path d="M90.54 93.39C89.27 92.73 87.9 95.2 87.31 95.54C85.58 96.57 83.74 98.62 86.76 100.18C89.78 101.74 90.75 99.12 90.7 96.9C90.67 95.76 92 94.14 90.54 93.38V93.39Z" fill="#EEB9A1"/>
        <path d="M90.14 93.44C90.25 93.74 90.72 93.83 90.8 93.74C90.88 93.65 91 92.94 91.14 92.82C91.28 92.7 91.08 92.29 90.88 92.41C90.64 92.55 90.09 93.31 90.14 93.44Z" fill="#7C2224"/>
        <path d="M101.32 90.78C99.88 90.84 99.93 93.66 99.6 94.26C98.61 96.01 98.04 98.71 101.44 98.56C104.84 98.41 104.37 95.65 103.22 93.75C102.63 92.77 102.97 90.71 101.33 90.78H101.32Z" fill="#EEB9A1"/>
        <path d="M101 91.02C101.25 91.22 101.7 91.07 101.72 90.95C101.74 90.83 101.49 90.16 101.55 89.99C101.61 89.82 101.24 89.56 101.12 89.77C100.98 90.01 100.89 90.94 100.99 91.03L101 91.02Z" fill="#7C2224"/>
        <path d="M105.28 96.29H30.28V110.84H105.28V96.29Z" fill="#AA2E33"/>
        <path d="M34.06 112.54C36.0096 112.54 37.59 110.96 37.59 109.01C37.59 107.06 36.0096 105.48 34.06 105.48C32.1104 105.48 30.53 107.06 30.53 109.01C30.53 110.96 32.1104 112.54 34.06 112.54Z" fill="#D33A42"/>
        <path d="M33.54 105.5C32.49 105.72 32.02 106.13 32.02 106.13C32.02 106.13 33.51 105.72 33.56 105.94C33.61 106.16 33.73 106.64 33.73 106.64C33.73 106.64 33.77 105.96 34.2 105.89C34.63 105.82 34.94 106.17 35.11 106.3C35.28 106.43 34.46 105.6 34.79 105.7C35.12 105.8 35.7 105.88 35.7 105.88C35.7 105.88 34.69 105.35 34.03 105.48L34 104.47L33.58 104.49L33.55 105.5H33.54Z" fill="#505187"/>
        <path d="M38.52 112.21C40.4696 112.21 42.05 110.63 42.05 108.68C42.05 106.73 40.4696 105.15 38.52 105.15C36.5704 105.15 34.99 106.73 34.99 108.68C34.99 110.63 36.5704 112.21 38.52 112.21Z" fill="#D74F50"/>
        <path d="M37.51 105.28C36.5 105.65 36.09 106.12 36.09 106.12C36.09 106.12 37.5 105.5 37.59 105.71C37.68 105.92 37.86 106.38 37.86 106.38C37.86 106.38 37.8 105.7 38.21 105.57C38.62 105.44 38.99 105.74 39.17 105.85C39.35 105.96 38.43 105.25 38.76 105.3C39.09 105.35 39.69 105.35 39.69 105.35C39.69 105.35 38.61 104.97 37.98 105.19L37.81 104.19L37.4 104.27L37.52 105.28H37.51Z" fill="#505187"/>
        <path d="M48.38 111.11C49.9595 111.11 51.24 109.83 51.24 108.25C51.24 106.67 49.9595 105.39 48.38 105.39C46.8005 105.39 45.52 106.67 45.52 108.25C45.52 109.83 46.8005 111.11 48.38 111.11Z" fill="#D74F50"/>
        <path d="M48.99 105.44C48.13 105.31 47.65 105.48 47.65 105.48C47.65 105.48 48.9 105.59 48.88 105.78C48.86 105.97 48.81 106.36 48.81 106.36C48.81 106.36 49.03 105.85 49.38 105.92C49.73 105.99 49.86 106.35 49.95 106.49C50.04 106.63 49.66 105.77 49.88 105.94C50.1 106.11 50.52 106.34 50.52 106.34C50.52 106.34 49.9 105.65 49.37 105.55L49.64 104.78L49.31 104.67L49 105.43L48.99 105.44Z" fill="#505187"/>
        <path d="M35.71 114.54C37.6596 114.54 39.24 112.96 39.24 111.01C39.24 109.06 37.6596 107.48 35.71 107.48C33.7604 107.48 32.18 109.06 32.18 111.01C32.18 112.96 33.7604 114.54 35.71 114.54Z" fill="#D74F50"/>
        <path d="M35.36 107.48C34.3 107.65 33.81 108.04 33.81 108.04C33.81 108.04 35.32 107.7 35.36 107.92C35.4 108.14 35.5 108.63 35.5 108.63C35.5 108.63 35.57 107.95 36 107.9C36.43 107.85 36.73 108.22 36.89 108.35C37.05 108.48 36.28 107.62 36.59 107.74C36.9 107.86 37.49 107.96 37.49 107.96C37.49 107.96 36.5 107.38 35.84 107.48L35.86 106.47H35.44L35.36 107.48Z" fill="#505187"/>
        <path d="M39.02 114.27C40.9696 114.27 42.55 112.69 42.55 110.74C42.55 108.79 40.9696 107.21 39.02 107.21C37.0704 107.21 35.49 108.79 35.49 110.74C35.49 112.69 37.0704 114.27 39.02 114.27Z" fill="#D33A42"/>
        <path d="M40.26 107.42C39.23 107.11 38.62 107.24 38.62 107.24C38.62 107.24 40.12 107.59 40.07 107.82C40.02 108.05 39.88 108.51 39.88 108.51C39.88 108.51 40.24 107.93 40.65 108.08C41.06 108.23 41.16 108.69 41.25 108.88C41.34 109.07 41.02 107.96 41.25 108.2C41.48 108.44 41.96 108.79 41.96 108.79C41.96 108.79 41.32 107.84 40.69 107.63L41.15 106.73L40.77 106.54L40.26 107.42Z" fill="#505187"/>
        <path d="M44.74 112.38C46.6896 112.38 48.27 110.8 48.27 108.85C48.27 106.9 46.6896 105.32 44.74 105.32C42.7904 105.32 41.21 106.9 41.21 108.85C41.21 110.8 42.7904 112.38 44.74 112.38Z" fill="#D33A42"/>
        <path d="M44.39 105.32C43.33 105.49 42.84 105.88 42.84 105.88C42.84 105.88 44.35 105.54 44.39 105.76C44.43 105.98 44.53 106.47 44.53 106.47C44.53 106.47 44.6 105.79 45.03 105.74C45.46 105.69 45.76 106.06 45.92 106.19C46.08 106.32 45.31 105.46 45.62 105.58C45.93 105.7 46.52 105.8 46.52 105.8C46.52 105.8 45.53 105.22 44.87 105.32L44.89 104.31H44.47L44.39 105.32Z" fill="#505187"/>
        <path d="M33.14 113.06C34.5042 113.06 35.61 111.954 35.61 110.59C35.61 109.226 34.5042 108.12 33.14 108.12C31.7759 108.12 30.67 109.226 30.67 110.59C30.67 111.954 31.7759 113.06 33.14 113.06Z" fill="#D33A42"/>
        <path d="M31.27 108.96C30.81 109.55 30.74 109.99 30.74 109.99C30.74 109.99 31.34 109.09 31.48 109.19C31.62 109.29 31.89 109.48 31.89 109.48C31.89 109.48 31.6 109.1 31.8 108.87C32 108.64 32.32 108.68 32.47 108.68C32.62 108.68 31.81 108.6 32.03 108.51C32.25 108.42 32.6 108.19 32.6 108.19C32.6 108.19 31.82 108.37 31.53 108.73L31.06 108.2L30.84 108.4L31.28 108.95L31.27 108.96Z" fill="#505187"/>
        <path d="M42.87 114.45C44.8196 114.45 46.4 112.87 46.4 110.92C46.4 108.97 44.8196 107.39 42.87 107.39C40.9204 107.39 39.34 108.97 39.34 110.92C39.34 112.87 40.9204 114.45 42.87 114.45Z" fill="#D74F50"/>
        <path d="M41.85 107.52C40.84 107.89 40.43 108.37 40.43 108.37C40.43 108.37 41.84 107.74 41.93 107.96C42.02 108.18 42.2 108.63 42.2 108.63C42.2 108.63 42.14 107.95 42.55 107.82C42.96 107.69 43.33 107.99 43.51 108.1C43.69 108.21 42.77 107.5 43.1 107.55C43.43 107.6 44.03 107.59 44.03 107.59C44.03 107.59 42.95 107.21 42.32 107.43L42.15 106.43L41.74 106.51L41.86 107.52H41.85Z" fill="#505187"/>
        <path d="M42.87 114.55C44.8196 114.55 46.4 112.97 46.4 111.02C46.4 109.07 44.8196 107.49 42.87 107.49C40.9204 107.49 39.34 109.07 39.34 111.02C39.34 112.97 40.9204 114.55 42.87 114.55Z" fill="#D74F50"/>
        <path d="M41.85 107.62C40.84 107.99 40.43 108.47 40.43 108.47C40.43 108.47 41.84 107.84 41.93 108.06C42.02 108.28 42.2 108.73 42.2 108.73C42.2 108.73 42.14 108.05 42.55 107.92C42.96 107.79 43.33 108.09 43.51 108.2C43.69 108.31 42.77 107.6 43.1 107.65C43.43 107.7 44.03 107.69 44.03 107.69C44.03 107.69 42.95 107.31 42.32 107.53L42.15 106.53L41.74 106.61L41.86 107.62H41.85Z" fill="#505187"/>
        <path d="M47.15 114.96C49.0996 114.96 50.68 113.38 50.68 111.43C50.68 109.48 49.0996 107.9 47.15 107.9C45.2004 107.9 43.62 109.48 43.62 111.43C43.62 113.38 45.2004 114.96 47.15 114.96Z" fill="#D33A42"/>
        <path d="M47.18 107.88C46.11 107.94 45.58 108.27 45.58 108.27C45.58 108.27 47.11 108.09 47.14 108.32C47.17 108.55 47.2 109.04 47.2 109.04C47.2 109.04 47.34 108.37 47.78 108.37C48.22 108.37 48.47 108.77 48.61 108.92C48.75 109.07 48.08 108.13 48.38 108.28C48.68 108.43 49.25 108.6 49.25 108.6C49.25 108.6 48.33 107.92 47.66 107.94L47.79 106.94L47.37 106.89L47.18 107.89V107.88Z" fill="#505187"/>
        <path d="M51.87 113.88C53.8196 113.88 55.4 112.3 55.4 110.35C55.4 108.4 53.8196 106.82 51.87 106.82C49.9204 106.82 48.34 108.4 48.34 110.35C48.34 112.3 49.9204 113.88 51.87 113.88Z" fill="#D74F50"/>
        <path d="M50.97 106.91C49.95 107.25 49.52 107.7 49.52 107.7C49.52 107.7 50.95 107.13 51.03 107.34C51.11 107.55 51.27 108.02 51.27 108.02C51.27 108.02 51.23 107.34 51.65 107.22C52.07 107.1 52.42 107.42 52.6 107.53C52.78 107.64 51.88 106.91 52.21 106.97C52.54 107.03 53.13 107.05 53.13 107.05C53.13 107.05 52.06 106.63 51.42 106.83L51.28 105.83L50.86 105.9L50.94 106.91H50.97Z" fill="#505187"/>
        <path d="M68.62 110.06C68.29 106.96 71.9 107.53 73.94 107.45C74.93 107.41 75.24 105.21 76.42 105.54C77.38 105.81 77.86 106.52 75.74 109.2C73.04 112.6 68.85 112.22 68.62 110.06Z" fill="#505187"/>
        <path d="M74.85 106.49C75.45 105.73 75.99 105.48 76.21 105.51C76.43 105.54 76.74 104.44 76.74 104.44L77.11 104.46L76.73 105.61C76.73 105.61 77.25 105.71 77.23 106.22C77.21 106.73 77.47 107.29 77.47 107.29C77.47 107.29 76.6 106.6 76.63 106.27C76.63 106.27 76.39 106.86 76.13 107.09C75.87 107.32 75.49 107.34 75.49 107.34C75.49 107.34 75.97 107.22 76.05 106.87C76.13 106.52 75.98 106.13 75.98 106.13C75.51 105.82 74.86 106.48 74.86 106.48L74.85 106.49Z" fill="#E69973"/>
        <path d="M66.26 114.14C63.35 115.25 62.97 111.62 62.37 109.67C62.08 108.73 59.87 108.99 59.88 107.77C59.89 106.77 60.46 106.12 63.59 107.49C67.57 109.22 68.29 113.37 66.26 114.14Z" fill="#2E3265"/>
        <path d="M61.21 109.04C60.32 108.65 59.94 108.2 59.91 107.98C59.88 107.76 58.74 107.75 58.74 107.75L58.66 107.39L59.87 107.47C59.87 107.47 59.84 106.94 60.33 106.83C60.82 106.72 61.3 106.32 61.3 106.32C61.3 106.32 60.86 107.34 60.53 107.39C60.53 107.39 61.16 107.47 61.45 107.66C61.74 107.85 61.86 108.21 61.86 108.21C61.86 108.21 61.62 107.78 61.26 107.79C60.9 107.8 60.56 108.05 60.56 108.05C60.39 108.58 61.19 109.04 61.19 109.04H61.21Z" fill="#E69973"/>
        <path d="M70.35 106.84C72.21 104.34 74.48 107.2 76.03 108.53C76.78 109.17 78.51 107.76 79.15 108.8C79.68 109.65 79.55 110.5 76.17 111.03C71.88 111.7 69.05 108.59 70.35 106.85V106.84Z" fill="#2E3265"/>
        <path d="M77.35 108.43C78.31 108.28 78.88 108.46 79.01 108.63C79.14 108.8 80.12 108.2 80.12 108.2L80.38 108.46L79.32 109.05C79.32 109.05 79.63 109.48 79.27 109.84C78.91 110.2 78.72 110.79 78.72 110.79C78.72 110.79 78.55 109.69 78.79 109.47C78.79 109.47 78.21 109.74 77.87 109.74C77.53 109.74 77.23 109.5 77.23 109.5C77.23 109.5 77.67 109.74 77.96 109.53C78.25 109.32 78.41 108.94 78.41 108.94C78.27 108.4 77.35 108.44 77.35 108.44V108.43Z" fill="#E69973"/>
        <path d="M70.97 113.52C72.61 110.87 69.11 109.82 67.3 108.87C66.43 108.41 67.1 106.28 65.9 106.07C64.91 105.9 64.17 106.33 64.93 109.66C65.89 113.9 69.83 115.37 70.97 113.52Z" fill="#2E3265"/>
        <path d="M66.9 107.61C66.69 106.66 66.31 106.2 66.1 106.14C65.89 106.08 66.09 104.95 66.09 104.95L65.75 104.8L65.6 106C65.6 106 65.09 105.87 64.89 106.34C64.69 106.81 64.21 107.2 64.21 107.2C64.21 107.2 65.29 106.95 65.4 106.64C65.4 106.64 65.36 107.28 65.49 107.59C65.62 107.9 65.95 108.09 65.95 108.09C65.95 108.09 65.57 107.77 65.65 107.43C65.73 107.09 66.03 106.79 66.03 106.79C66.59 106.72 66.88 107.59 66.88 107.59L66.9 107.61Z" fill="#E69973"/>
        <path d="M59.48 110.99C59.52 107.87 63.03 108.86 65.07 109.03C66.05 109.11 66.63 106.96 67.75 107.42C68.68 107.8 69.07 108.56 66.65 110.97C63.57 114.03 59.45 113.17 59.48 110.99Z" fill="#505187"/>
        <path d="M66.09 108.18C66.78 107.5 67.34 107.31 67.55 107.36C67.76 107.41 68.2 106.36 68.2 106.36L68.57 106.42L68.05 107.52C68.05 107.52 68.55 107.68 68.47 108.19C68.39 108.7 68.58 109.28 68.58 109.28C68.58 109.28 67.8 108.49 67.87 108.17C67.87 108.17 67.56 108.73 67.28 108.92C67 109.11 66.62 109.1 66.62 109.1C66.62 109.1 67.11 109.03 67.23 108.7C67.35 108.37 67.25 107.96 67.25 107.96C66.82 107.6 66.1 108.18 66.1 108.18H66.09Z" fill="#E69973"/>
        <path d="M77.41 111.4C75.97 114.16 73.28 111.7 71.54 110.63C70.7 110.12 69.21 111.78 68.42 110.86C67.77 110.1 67.76 109.24 71.01 108.19C75.14 106.85 78.42 109.48 77.42 111.4H77.41Z" fill="#505187"/>
        <path d="M70.24 110.93C69.32 111.23 68.73 111.14 68.57 111C68.41 110.86 67.54 111.6 67.54 111.6L67.24 111.38L68.2 110.63C68.2 110.63 67.82 110.26 68.12 109.84C68.42 109.42 68.51 108.81 68.51 108.81C68.51 108.81 68.85 109.87 68.64 110.12C68.64 110.12 69.17 109.76 69.51 109.71C69.85 109.66 70.18 109.85 70.18 109.85C70.18 109.85 69.71 109.69 69.46 109.93C69.21 110.17 69.11 110.59 69.11 110.59C69.33 111.1 70.24 110.91 70.24 110.91V110.93Z" fill="#E69973"/>
        <path d="M57.49 108.16C59.9 106.18 61.41 109.5 62.6 111.16C63.17 111.96 65.19 111.01 65.56 112.17C65.87 113.12 65.54 113.92 62.13 113.62C57.8 113.24 55.81 109.54 57.49 108.16Z" fill="#2E3265"/>
        <path d="M63.91 111.39C64.88 111.47 65.39 111.78 65.48 111.98C65.57 112.18 66.66 111.83 66.66 111.83L66.85 112.15L65.68 112.46C65.68 112.46 65.88 112.95 65.44 113.21C65 113.47 64.68 114 64.68 114C64.68 114 64.78 112.89 65.07 112.74C65.07 112.74 64.44 112.86 64.11 112.78C63.78 112.7 63.55 112.39 63.55 112.39C63.55 112.39 63.92 112.72 64.25 112.59C64.58 112.46 64.83 112.12 64.83 112.12C64.83 111.56 63.92 111.38 63.92 111.38L63.91 111.39Z" fill="#E69973"/>
        <path d="M65.06 112.4C66.37 115.23 69.17 112.88 70.96 111.9C71.82 111.42 73.23 113.15 74.07 112.27C74.76 111.54 74.8 110.69 71.61 109.48C67.55 107.95 64.15 110.43 65.06 112.4Z" fill="#2E3265"/>
        <path d="M72.24 112.27C73.15 112.61 73.74 112.55 73.91 112.42C74.08 112.29 74.91 113.07 74.91 113.07L75.22 112.87L74.3 112.08C74.3 112.08 74.69 111.72 74.41 111.3C74.13 110.88 74.06 110.26 74.06 110.26C74.06 110.26 73.67 111.3 73.87 111.56C73.87 111.56 73.36 111.18 73.02 111.11C72.68 111.04 72.34 111.22 72.34 111.22C72.34 111.22 72.82 111.08 73.06 111.34C73.3 111.6 73.38 112.01 73.38 112.01C73.13 112.51 72.24 112.28 72.24 112.28V112.27Z" fill="#E69973"/>
        <path d="M87.9 107.98C87.08 106.39 87.55 104.82 87.24 104.25C86.93 103.68 85.88 103.09 85.89 104.07C85.9 105.05 87.9 107.98 87.9 107.98Z" fill="#505187"/>
        <path d="M87.97 107.92C84.31 107.99 81.91 106.81 83.38 106.69C84.85 106.57 87.97 107.92 87.97 107.92Z" fill="#505187"/>
        <path d="M85.42 106.18C84.12 105.19 84.35 104.42 84.86 104.59C85.37 104.76 86.35 106.34 86.85 106.92C87.09 107.2 87.92 107.91 87.92 107.91L85.42 106.19V106.18Z" fill="#505187"/>
        <path d="M85.72 108.65C84.51 108.98 84.07 108.32 84.39 108.05C84.71 107.78 86.2 108.06 86.8 108.07C87.09 108.07 87.92 107.91 87.92 107.91L85.72 108.65Z" fill="#505187"/>
        <path d="M86.64 106.91C85.93 106.36 85.56 106.59 85.72 106.84C85.88 107.09 86.86 107.38 87.23 107.56C87.41 107.65 87.91 107.99 87.91 107.99L86.64 106.91Z" fill="#505187"/>
        <path d="M92.08 110.95C87.66 109.35 87.17 108.78 87.64 107.86C88.33 106.51 91.14 108.79 92.27 109.74C93.4 110.69 94.16 110.85 94.03 111.18C93.9 111.51 92.09 110.94 92.09 110.94L92.08 110.95Z" fill="#DF7B4F"/>
        <path d="M90.33 108.87C92.08 108.48 93.48 109.33 94.11 109.17C94.74 109.01 95.58 108.15 94.62 107.91C93.66 107.67 90.33 108.87 90.33 108.87Z" fill="#505187"/>
        <path d="M90.36 108.96C91.22 105.4 92.97 103.37 92.71 104.83C92.45 106.29 90.36 108.96 90.36 108.96Z" fill="#505187"/>
        <path d="M92.69 106.93C93.97 105.92 94.66 106.34 94.37 106.8C94.08 107.26 92.3 107.8 91.62 108.13C91.29 108.29 90.39 108.91 90.39 108.91L92.69 106.93Z" fill="#505187"/>
        <path d="M90.23 106.6C90.21 105.35 90.97 105.08 91.15 105.46C91.33 105.84 90.68 107.21 90.52 107.79C90.45 108.07 90.39 108.91 90.39 108.91L90.23 106.6Z" fill="#505187"/>
        <path d="M91.67 107.92C92.38 107.37 92.25 106.96 91.97 107.05C91.69 107.14 91.16 108.01 90.89 108.33C90.76 108.48 90.31 108.88 90.31 108.88L91.67 107.92Z" fill="#505187"/>
        <path d="M86.39 112.16C89.06 108.29 89.73 107.96 90.5 108.64C91.63 109.65 88.71 111.79 87.51 112.64C86.31 113.49 85.96 114.19 85.67 113.98C85.38 113.77 86.39 112.16 86.39 112.16Z" fill="#E69973"/>
        <path d="M87.43 109.73C86.33 108.32 86.5 106.69 86.09 106.19C85.68 105.69 84.54 105.3 84.73 106.27C84.92 107.24 87.44 109.73 87.44 109.73H87.43Z" fill="#505187"/>
        <path d="M87.49 109.66C83.91 110.41 81.33 109.69 82.75 109.31C84.17 108.93 87.49 109.66 87.49 109.66Z" fill="#505187"/>
        <path d="M84.66 108.42C83.2 107.69 83.28 106.89 83.82 106.96C84.36 107.03 85.61 108.4 86.2 108.88C86.49 109.11 87.43 109.65 87.43 109.65L84.65 108.42H84.66Z" fill="#505187"/>
        <path d="M85.41 110.79C84.29 111.34 83.72 110.77 83.99 110.45C84.26 110.13 85.77 110.13 86.37 110.02C86.65 109.97 87.44 109.66 87.44 109.66L85.42 110.8L85.41 110.79Z" fill="#505187"/>
        <path d="M85.99 108.92C85.19 108.51 84.87 108.81 85.08 109.02C85.29 109.23 86.3 109.34 86.7 109.45C86.89 109.5 87.44 109.74 87.44 109.74L85.99 108.92Z" fill="#505187"/>
        <path d="M92.08 111.88C87.44 111.13 86.85 110.66 87.14 109.67C87.57 108.22 90.75 109.94 92.04 110.66C93.33 111.38 94.1 111.4 94.03 111.75C93.96 112.1 92.08 111.88 92.08 111.88Z" fill="#DF7B4F"/>
        <path d="M83.4 110.95C81.76 110.23 81.13 108.72 80.53 108.47C79.93 108.22 78.74 108.42 79.37 109.19C80 109.96 83.4 110.95 83.4 110.95Z" fill="#505187"/>
        <path d="M83.42 110.86C80.62 113.22 78.01 113.82 79.08 112.81C80.15 111.8 83.42 110.86 83.42 110.86Z" fill="#505187"/>
        <path d="M80.35 111.12C78.72 111.18 78.41 110.43 78.91 110.23C79.41 110.03 81.17 110.65 81.92 110.78C82.28 110.84 83.37 110.87 83.37 110.87L80.34 111.11L80.35 111.12Z" fill="#505187"/>
        <path d="M82.14 112.84C81.41 113.86 80.65 113.62 80.73 113.21C80.81 112.8 82.14 112.08 82.61 111.7C82.83 111.52 83.38 110.87 83.38 110.87L82.14 112.83V112.84Z" fill="#505187"/>
        <path d="M81.76 110.92C80.86 110.94 80.72 111.35 81 111.44C81.28 111.53 82.22 111.14 82.63 111.05C82.82 111 83.42 110.95 83.42 110.95L81.75 110.92H81.76Z" fill="#505187"/>
        <path d="M88.52 110.63C84.08 112.18 83.34 112.04 83.13 111.04C82.82 109.56 86.43 109.55 87.91 109.58C89.39 109.61 90.08 109.25 90.18 109.58C90.28 109.91 88.52 110.62 88.52 110.62V110.63Z" fill="#E69973"/>
        <path d="M93.88 109.85C95.5 110.61 96.09 112.14 96.68 112.4C97.27 112.66 98.47 112.49 97.86 111.72C97.25 110.95 93.88 109.85 93.88 109.85Z" fill="#505187"/>
        <path d="M93.86 109.94C96.72 107.65 99.34 107.13 98.25 108.11C97.16 109.09 93.86 109.94 93.86 109.94Z" fill="#505187"/>
        <path d="M96.94 109.77C98.58 109.76 98.86 110.52 98.35 110.7C97.84 110.88 96.11 110.22 95.36 110.07C95 110 93.91 109.94 93.91 109.94L96.94 109.78V109.77Z" fill="#505187"/>
        <path d="M95.2 108C95.95 107 96.71 107.26 96.62 107.67C96.53 108.08 95.17 108.76 94.7 109.13C94.47 109.31 93.91 109.93 93.91 109.93L95.2 108Z" fill="#505187"/>
        <path d="M95.53 109.93C96.43 109.93 96.58 109.52 96.3 109.43C96.02 109.34 95.07 109.69 94.66 109.78C94.46 109.82 93.86 109.85 93.86 109.85L95.52 109.93H95.53Z" fill="#505187"/>
        <path d="M88.76 110.04C93.24 108.61 93.98 108.77 94.16 109.78C94.43 111.27 90.82 111.17 89.34 111.11C87.86 111.05 87.16 111.38 87.07 111.04C86.98 110.7 88.76 110.04 88.76 110.04Z" fill="#DF7B4F"/>
        <path d="M97.57 108.48C99.32 108.09 100.72 108.94 101.35 108.78C101.98 108.62 102.82 107.76 101.86 107.52C100.9 107.28 97.57 108.48 97.57 108.48Z" fill="#505187"/>
        <path d="M97.6 108.56C98.46 105 100.21 102.97 99.95 104.43C99.69 105.89 97.6 108.56 97.6 108.56Z" fill="#505187"/>
        <path d="M99.94 106.53C101.22 105.52 101.91 105.94 101.62 106.4C101.33 106.86 99.55 107.4 98.87 107.73C98.54 107.89 97.64 108.51 97.64 108.51L99.94 106.53Z" fill="#505187"/>
        <path d="M97.47 106.2C97.45 104.95 98.21 104.68 98.39 105.06C98.57 105.44 97.92 106.81 97.76 107.39C97.69 107.67 97.63 108.51 97.63 108.51L97.47 106.2Z" fill="#505187"/>
        <path d="M98.92 107.53C99.63 106.98 99.5 106.57 99.22 106.66C98.94 106.75 98.41 107.62 98.14 107.94C98.01 108.09 97.56 108.49 97.56 108.49L98.92 107.53Z" fill="#505187"/>
        <path d="M93.64 111.77C96.31 107.9 96.98 107.57 97.75 108.25C98.88 109.26 95.96 111.4 94.76 112.25C93.56 113.1 93.21 113.8 92.92 113.59C92.63 113.38 93.64 111.77 93.64 111.77Z" fill="#E69973"/>
        <path d="M94.67 109.33C93.57 107.92 93.74 106.29 93.33 105.79C92.92 105.29 91.78 104.9 91.97 105.87C92.16 106.84 94.68 109.33 94.68 109.33H94.67Z" fill="#505187"/>
        <path d="M94.73 109.27C91.15 110.02 88.57 109.3 89.99 108.92C91.41 108.54 94.73 109.27 94.73 109.27Z" fill="#505187"/>
        <path d="M91.9 108.03C90.44 107.3 90.52 106.5 91.06 106.57C91.6 106.64 92.85 108.01 93.44 108.49C93.73 108.72 94.67 109.26 94.67 109.26L91.89 108.03H91.9Z" fill="#505187"/>
        <path d="M92.66 110.39C91.54 110.94 90.97 110.37 91.24 110.05C91.51 109.73 93.02 109.73 93.62 109.62C93.9 109.57 94.69 109.26 94.69 109.26L92.67 110.4L92.66 110.39Z" fill="#505187"/>
        <path d="M93.24 108.52C92.44 108.11 92.12 108.41 92.33 108.62C92.54 108.83 93.55 108.94 93.95 109.05C94.14 109.1 94.69 109.34 94.69 109.34L93.24 108.52Z" fill="#505187"/>
        <path d="M99.33 111.48C94.69 110.73 94.1 110.26 94.39 109.27C94.82 107.82 98 109.54 99.29 110.26C100.58 110.98 101.35 111 101.28 111.35C101.21 111.7 99.33 111.48 99.33 111.48Z" fill="#DF7B4F"/>
        <path d="M99.23 108.52C103.53 110.42 103.98 111.02 103.45 111.9C102.67 113.2 100.02 110.73 98.96 109.71C97.9 108.69 97.15 108.47 97.3 108.15C97.45 107.83 99.22 108.52 99.22 108.52H99.23Z" fill="#DF7B4F"/>
        <path d="M99.85 109.64C101.47 110.4 102.06 111.93 102.65 112.19C103.24 112.45 104.44 112.28 103.83 111.51C103.22 110.74 99.85 109.64 99.85 109.64Z" fill="#505187"/>
        <path d="M99.82 109.72C102.68 107.43 105.3 106.91 104.21 107.89C103.12 108.87 99.82 109.72 99.82 109.72Z" fill="#505187"/>
        <path d="M102.91 109.55C104.55 109.54 104.83 110.3 104.32 110.48C103.81 110.66 102.08 110 101.33 109.85C100.97 109.78 99.88 109.72 99.88 109.72L102.91 109.56V109.55Z" fill="#505187"/>
        <path d="M101.16 107.78C101.91 106.78 102.67 107.04 102.58 107.45C102.49 107.86 101.13 108.54 100.66 108.91C100.43 109.09 99.87 109.71 99.87 109.71L101.16 107.78Z" fill="#505187"/>
        <path d="M101.49 109.71C102.39 109.71 102.54 109.3 102.26 109.21C101.98 109.12 101.03 109.47 100.62 109.56C100.42 109.6 99.82 109.63 99.82 109.63L101.48 109.71H101.49Z" fill="#505187"/>
        <path d="M94.72 109.82C99.2 108.39 99.94 108.55 100.12 109.56C100.39 111.05 96.78 110.95 95.3 110.89C93.82 110.83 93.12 111.16 93.03 110.82C92.94 110.48 94.72 109.82 94.72 109.82Z" fill="#E69973"/>
        <path d="M105.27 110.54H30.27V125.09H105.27V110.54Z" fill="#7C2224"/>
        <path d="M0 126.58H435.43" stroke="#505187" stroke-width="3"/>
        <g clip-path="url(#clip2_452_576)">
            <path d="M145.63 80.61C145.51 81.01 145.31 81.73 145.89 82.29C148.17 84.5 143.5 82.45 143.5 82.45V80.51C141.66 79.96 140.31 78.25 140.31 76.23C140.31 73.75 142.31 71.75 144.79 71.75C147.27 71.75 149.27 73.75 149.27 76.23C149.27 78.41 147.7 80.23 145.63 80.62V80.61Z" fill="#EBCCBC"/>
            <path d="M143.69 82.44C140.78 82.82 141.02 90.19 140.89 93.76C140.76 97.33 140.63 98.1 141.55 98.13C142.47 98.16 147.35 99.29 147.87 98.13C148.39 96.97 147.8 91.23 147.87 88.84C147.96 86.12 148.09 81.86 143.69 82.44Z" fill="#E69973"/>
            <path d="M145.06 83.07C147.32 83.09 147.79 92.58 147.79 92.58L148.1 95.46C148.1 95.46 148.56 96.26 148.65 95.39C148.76 94.36 148.27 90.61 148.1 89.28C147.91 87.77 147.27 83.04 145.38 82.81C144.54 82.71 142.89 83.15 142.89 83.15C142.89 83.15 141.15 85.28 140.59 86.48C139.67 88.46 141.2 92.42 141.37 93.71C141.54 95 141.74 96.5 141.74 96.5L142.54 96.45C142.54 96.45 140.8 89.77 140.8 88.82C140.8 87.87 141.08 85.77 141.68 85.21C142.28 84.65 143.52 83.06 145.06 83.08V83.07Z" fill="#D74F50"/>
            <path d="M146.81 90.31C147.7 88.83 148.87 89.04 148.98 90.18C149.08 91.23 149.38 91.46 148.75 91.91C148.12 92.36 146.99 91.74 146.99 91.74L146.81 90.32V90.31Z" fill="#EBCCBC"/>
            <path d="M147.4 96.93C147.55 103.11 145.86 111.29 145.48 111.83C145.13 112.33 145.5 111.81 145.48 111.83L138.37 120.53C138.24 120.71 137.96 120.69 137.86 120.48L136.7 117.97C136.66 117.89 136.66 117.79 136.7 117.7L141.5 109.03C141.5 109.03 141.54 108.93 141.54 108.88L141.14 97.88" fill="#505187"/>
            <path d="M147.02 96.99C148.43 100.95 150.96 109.99 150.96 109.99L153.03 121.34C153.05 121.55 152.91 121.75 152.7 121.79L149.96 122.4C149.82 122.43 149.68 122.34 149.65 122.2L146 110.98C146 110.98 140.5 102.57 140.22 97.82C140.12 96.11 147.03 97 147.03 97L147.02 96.99Z" fill="#5F6294"/>
            <path d="M148.33 93.08C145.96 95.35 142.38 93.54 141.29 93.36C139.79 93.12 139.81 101.23 141.49 103.11C142.6 104.34 146.31 104.36 148.09 103.6C149.87 102.84 149.17 92.27 148.33 93.08Z" fill="#D74F50"/>
            <path d="M144.79 87.09L142.08 91.24L146.9 90.22L147.27 91.82C147.27 91.82 139.8 96.14 138.31 93.51C137.66 92.36 138.45 91.13 139.04 89.72C139.82 87.86 142.47 84.02 142.47 84.02" fill="#E69973"/>
            <path d="M143.32 90.98C143.32 90.98 143.14 93.75 143.68 93.53C144.22 93.31 147.27 91.82 147.27 91.82L146.9 90.22L143.32 90.98Z" fill="#EBCCBC"/>
            <path d="M144.22 76.17C144.45 75.74 145.05 75.71 145.45 76.15C145.71 76.43 146.22 76.43 146.67 76.21C147.85 75.65 149.59 74.23 148.7 72.99C147.61 71.48 144.57 70.1 141.84 71.73C137.98 74.03 139.14 78.83 139.47 82.64C139.8 86.45 143.74 85.18 144.38 84.07C145.86 81.49 143.07 78.36 144.23 76.17H144.22Z" fill="#7C2224"/>
            <path d="M150.46 122.28L150.96 123.75L152.34 123.46L152.08 121.94L150.46 122.28Z" fill="#EBCCBC"/>
            <path d="M137.57 119.82L136.32 120.86L135.61 119.72L136.76 118.12L137.57 119.82Z" fill="#EBCCBC"/>
            <path d="M135.52 119.59C133.75 120.12 133.22 121.14 133.03 121.52C132.98 121.62 132.99 121.73 133.06 121.82C133.47 122.29 134.62 123.7 135.56 124.49C136.66 125.41 137.49 126.28 137.87 125.47C138.22 124.72 137.55 124.24 137.31 123.9C136.8 123.16 136.41 121.02 136.41 121.02L135.52 119.59Z" fill="#505187"/>
            <path d="M150.78 123.37C150.26 125.14 150.83 126.15 151.04 126.51C151.1 126.61 151.2 126.66 151.31 126.65C151.93 126.56 153.74 126.36 154.91 126C156.28 125.58 157.46 125.36 156.99 124.6C156.55 123.9 155.79 124.2 155.37 124.21C154.47 124.24 152.46 123.4 152.46 123.4L150.78 123.37Z" fill="#505187"/>
        </g>
        <g clip-path="url(#clip3_452_576)">
            <path d="M330.07 79.81C332.412 79.81 334.31 77.9117 334.31 75.57C334.31 73.2283 332.412 71.33 330.07 71.33C327.728 71.33 325.83 73.2283 325.83 75.57C325.83 77.9117 327.728 79.81 330.07 79.81Z" fill="#EBCCBC"/>
            <path d="M330.55 72.11C327.95 76.05 325.68 75.58 325.68 75.58C325.49 71.46 327.09 69.77 330.01 69.76C332.93 69.75 334.64 71.71 334.48 75.58C332.82 75.9 330.55 72.11 330.55 72.11Z" fill="#E69973"/>
            <path d="M331.06 78.95C331.06 78.95 331.18 81.86 332.45 82.13C333.28 82.31 330.98 86.23 329.86 86.16C329.01 86.11 327.61 82.03 327.93 81.97C328.98 81.78 329.1 79.7 329.03 78.95C328.96 78.2 331.07 78.95 331.07 78.95H331.06Z" fill="#EBCCBC"/>
            <path d="M327.92 81.97C325.02 82.39 323.88 83.04 323.69 84.1C323.5 85.16 323.26 99.23 324.42 99.22C326.49 99.19 332.41 99.15 335.45 99.15C336.3 99.15 336.66 87.68 336.52 85.42C336.42 83.84 335.04 82.98 332.45 82.14C332.45 82.14 331.93 85.77 330.05 85.75C329.05 85.74 327.93 81.98 327.93 81.98L327.92 81.97Z" fill="#AA2E33"/>
            <path d="M329.34 77.5H331.95C331.95 77.5 331.88 78.68 330.64 78.64C329.67 78.61 329.33 77.5 329.33 77.5H329.34Z" fill="#FBEFEB"/>
            <path d="M329.11 71.56C330.093 71.56 330.89 70.7631 330.89 69.78C330.89 68.7969 330.093 68 329.11 68C328.127 68 327.33 68.7969 327.33 69.78C327.33 70.7631 328.127 71.56 329.11 71.56Z" fill="#E69973"/>
            <path d="M333.08 123.63C331.53 125.01 332.44 125.21 332.44 125.21C332.44 125.21 334.59 125.21 335.84 125.21C337.09 125.21 335.17 122.78 335.17 122.78H333.15L333.08 123.63Z" fill="#D74F50"/>
            <path d="M325.38 123.55C323.83 124.93 324.74 125.13 324.74 125.13C324.74 125.13 326.89 125.13 328.14 125.13C329.39 125.13 327.47 122.7 327.47 122.7H325.45L325.38 123.55Z" fill="#D74F50"/>
            <path d="M324.3 99.14H335.45L336.46 123.68H331.9L330.39 106.68L329.1 123.68H324.3V99.14Z" fill="#7C2224"/>
            <path d="M324.61 83.06C321.13 84.91 318.14 90.03 318 90.99C317.86 91.95 324.56 98.01 324.56 98.01L325.56 96.67L321.83 90.99L325.66 87.05L324.61 83.07V83.06Z" fill="#EBCCBC"/>
            <path d="M324.7 82.84C321.35 84.7 319.8 87.03 319.8 87.03L322.78 90.55L326.43 87.09L324.7 82.84Z" fill="#AA2E33"/>
            <path d="M325.56 96.67C326.46 96.59 327.41 97.28 327.6 97.72C327.79 98.16 327.21 100.03 326.43 100.03C325.65 100.03 324.52 98.75 324.56 98.02C324.6 97.29 325.56 96.68 325.56 96.68V96.67Z" fill="#EBCCBC"/>
            <path d="M348.14 93.18C348.84 92.6 350.01 92.64 350.41 92.89C350.81 93.14 351.39 95.01 350.75 95.45C350.11 95.89 348.45 95.48 348.07 94.85C347.69 94.22 348.14 93.17 348.14 93.17V93.18Z" fill="#EBCCBC"/>
            <path d="M334.73 83.06C337.79 84.87 339.91 87.57 339.91 87.57L337.59 91.61L334.31 88.44L334.73 83.06Z" fill="#AA2E33"/>
            <path d="M337.83 91.18C338.48 91.61 338.73 91.97 339.5 92.46C340.27 92.95 348.6 94.81 348.6 94.81L348.77 93.11L341.38 89.64L339.68 87.94" fill="#EBCCBC"/>
        </g>
    </g>
    <defs>
    <clipPath id="clip0_452_576">
        <rect width="435.43" height="128.08" fill="white"/>
    </clipPath>
    <clipPath id="clip1_452_576">
        <rect width="25.39" height="32.85" fill="white" transform="translate(229 71)"/>
    </clipPath>
    <clipPath id="clip2_452_576">
    <rect width="24.1" height="55.65" fill="white" transform="translate(133 71)"/>
    </clipPath>
        <clipPath id="clip3_452_576">
            <rect width="33.04" height="57.21" fill="white" transform="translate(318 68)"/>
        </clipPath>
    </defs>
</svg>
    