<svg width="436" height="155" viewBox="0 0 436 155" fill="none" xmlns="http://www.w3.org/2000/svg">
    <g clip-path="url(#clip0_452_460)">
    <path d="M404.44 39.91C404.46 39.72 404.47 39.53 404.47 39.33C404.47 35.19 400.82 31.83 396.31 31.83C395.91 31.83 395.51 31.87 395.13 31.92C393.65 30.63 391.6 29.83 389.32 29.83C384.82 29.83 382.41 32.05 381.09 35.68C380.73 36.66 380.72 38.59 381.27 39.53C380.8 39.45 379.03 39.74 378.54 39.84C376.01 40.38 373.01 42.96 373.01 46.83C373.01 50.7 374.85 52.73 379.34 53.74C380.61 54.02 383.12 53.53 384.2 52.99C391.56 56 398.23 52.31 398.23 52.31C399.62 53.26 401.38 53.83 403.3 53.83C407.8 53.83 411.46 50.7 411.46 46.83C411.46 43.3 408.4 40.38 404.44 39.91Z" fill="#EEBCB5"/>
    <path d="M64.3 51.62C64.3 51.54 64.28 51.46 64.28 51.38C64.28 49.66 66.11 48.26 68.36 48.26C68.56 48.26 68.76 48.27 68.95 48.3C69.69 47.76 70.72 47.43 71.85 47.43C74.1 47.43 75.31 48.35 75.97 49.86C76.15 50.27 76.16 51.07 75.88 51.46C76.12 51.42 77 51.55 77.25 51.59C78.51 51.81 80.01 52.89 80.01 54.49C80.01 56.09 79.09 56.94 76.85 57.36C76.22 57.48 74.96 57.27 74.42 57.05C70.74 58.3 67.4 56.77 67.4 56.77C66.7 57.17 65.82 57.4 64.86 57.4C62.61 57.4 60.78 56.1 60.78 54.49C60.78 53.02 62.31 51.81 64.29 51.61L64.3 51.62Z" fill="#EEBCB5"/>
    <path d="M414.92 63.46C414.92 63.38 414.9 63.3 414.9 63.22C414.9 61.5 416.73 60.1 418.98 60.1C419.18 60.1 419.38 60.11 419.57 60.14C420.31 59.6 421.34 59.27 422.47 59.27C424.72 59.27 425.93 60.19 426.59 61.7C426.77 62.11 426.78 62.91 426.5 63.3C426.74 63.26 427.62 63.39 427.87 63.43C429.13 63.65 430.63 64.73 430.63 66.33C430.63 67.93 429.71 68.78 427.47 69.2C426.84 69.32 425.58 69.11 425.04 68.89C421.36 70.14 418.02 68.61 418.02 68.61C417.32 69.01 416.44 69.24 415.48 69.24C413.23 69.24 411.4 67.94 411.4 66.33C411.4 64.86 412.93 63.65 414.91 63.45L414.92 63.46Z" fill="#EEBCB5"/>
    <path d="M126 8.08C126.01 7.89 126.03 7.7 126.03 7.5C126.03 3.36 122.9 0 119.03 0C116.48 0 114.26 1.46 113.04 3.64C112.15 3.23 111.17 3 110.13 3C106.81 3 104.03 5.32 103.31 8.43C100.82 9.41 99.03 11.98 99.03 15C99.03 18.87 101.94 22 105.53 22C106.31 22 108.19 22.28 108.88 22C114.4 23.32 114.29 21.52 116.6 22C118.35 22.36 121.08 22.89 123.31 21.78C123.86 21.92 124.44 22 125.04 22C128.91 22 132.04 18.87 132.04 15C132.04 11.47 129.42 8.55 126.01 8.08H126Z" fill="#EEBCB5"/>
    <path d="M254.26 11.86H139.27V151.91H254.26V11.86Z" fill="#EEBCB5"/>
    <path d="M170.92 23.24H158.37V36.59H170.92V23.24Z" fill="#7D7DB5"/>
    <path d="M186.28 23.24H173.73V36.59H186.28V23.24Z" fill="#7D7DB5"/>
    <path d="M201.64 23.24H189.09V36.59H201.64V23.24Z" fill="#7D7DB5"/>
    <path d="M217 23.24H204.45V36.59H217V23.24Z" fill="#7D7DB5"/>
    <path d="M232.36 23.24H219.81V36.59H232.36V23.24Z" fill="#7D7DB5"/>
    <path d="M264.52 151.91H254.26V11.86L264.52 20.9V151.91Z" fill="#7D7DB5"/>
    <path d="M170.92 26.08H161.43V36.59H170.92V26.08Z" fill="#505187"/>
    <path d="M186.28 26.08H176.79V36.59H186.28V26.08Z" fill="#505187"/>
    <path d="M201.64 26.08H192.15V36.59H201.64V26.08Z" fill="#505187"/>
    <path d="M217 26.08H207.51V36.59H217V26.08Z" fill="#505187"/>
    <path d="M232.36 26.08H222.87V36.59H232.36V26.08Z" fill="#505187"/>
    <path d="M170.92 44.68H158.37V58.03H170.92V44.68Z" fill="#7D7DB5"/>
    <path d="M186.28 44.68H173.73V58.03H186.28V44.68Z" fill="#7D7DB5"/>
    <path d="M201.64 44.68H189.09V58.03H201.64V44.68Z" fill="#7D7DB5"/>
    <path d="M217 44.68H204.45V58.03H217V44.68Z" fill="#7D7DB5"/>
    <path d="M232.36 44.68H219.81V58.03H232.36V44.68Z" fill="#7D7DB5"/>
    <path d="M170.92 47.52H161.43V58.03H170.92V47.52Z" fill="#505187"/>
    <path d="M186.28 47.52H176.79V58.03H186.28V47.52Z" fill="#505187"/>
    <path d="M201.64 47.52H192.15V58.03H201.64V47.52Z" fill="#505187"/>
    <path d="M217 47.52H207.51V58.03H217V47.52Z" fill="#505187"/>
    <path d="M232.36 47.52H222.87V58.03H232.36V47.52Z" fill="#505187"/>
    <path d="M170.92 66.12H158.37V79.47H170.92V66.12Z" fill="#7D7DB5"/>
    <path d="M186.28 66.12H173.73V79.47H186.28V66.12Z" fill="#7D7DB5"/>
    <path d="M201.64 66.12H189.09V79.47H201.64V66.12Z" fill="#7D7DB5"/>
    <path d="M217 66.12H204.45V79.47H217V66.12Z" fill="#7D7DB5"/>
    <path d="M232.36 66.12H219.81V79.47H232.36V66.12Z" fill="#7D7DB5"/>
    <path d="M170.92 68.96H161.43V79.47H170.92V68.96Z" fill="#505187"/>
    <path d="M186.28 68.96H176.79V79.47H186.28V68.96Z" fill="#505187"/>
    <path d="M201.64 68.96H192.15V79.47H201.64V68.96Z" fill="#505187"/>
    <path d="M217 68.96H207.51V79.47H217V68.96Z" fill="#505187"/>
    <path d="M232.36 68.96H222.87V79.47H232.36V68.96Z" fill="#505187"/>
    <path d="M170.92 87.57H158.37V100.92H170.92V87.57Z" fill="#7D7DB5"/>
    <path d="M186.28 87.57H173.73V100.92H186.28V87.57Z" fill="#7D7DB5"/>
    <path d="M201.64 87.57H189.09V100.92H201.64V87.57Z" fill="#7D7DB5"/>
    <path d="M217 87.57H204.45V100.92H217V87.57Z" fill="#7D7DB5"/>
    <path d="M232.36 87.57H219.81V100.92H232.36V87.57Z" fill="#7D7DB5"/>
    <path d="M170.92 90.41H161.43V100.92H170.92V90.41Z" fill="#505187"/>
    <path d="M186.28 90.41H176.79V100.92H186.28V90.41Z" fill="#505187"/>
    <path d="M201.64 90.41H192.15V100.92H201.64V90.41Z" fill="#505187"/>
    <path d="M217 90.41H207.51V100.92H217V90.41Z" fill="#505187"/>
    <path d="M232.36 90.41H222.87V100.92H232.36V90.41Z" fill="#505187"/>
    <path d="M170.92 109.01H158.37V122.36H170.92V109.01Z" fill="#7D7DB5"/>
    <path d="M186.28 109.01H173.73V122.36H186.28V109.01Z" fill="#7D7DB5"/>
    <path d="M201.64 109.01H189.09V122.36H201.64V109.01Z" fill="#7D7DB5"/>
    <path d="M217 109.01H204.45V122.36H217V109.01Z" fill="#7D7DB5"/>
    <path d="M232.36 109.01H219.81V122.36H232.36V109.01Z" fill="#7D7DB5"/>
    <path d="M170.92 111.85H161.43V122.36H170.92V111.85Z" fill="#505187"/>
    <path d="M186.28 111.85H176.79V122.36H186.28V111.85Z" fill="#505187"/>
    <path d="M201.64 111.85H192.15V122.36H201.64V111.85Z" fill="#505187"/>
    <path d="M217 111.85H207.51V122.36H217V111.85Z" fill="#505187"/>
    <path d="M232.36 111.85H222.87V122.36H232.36V111.85Z" fill="#505187"/>
    <path d="M170.92 130.45H158.37V143.8H170.92V130.45Z" fill="#7D7DB5"/>
    <path d="M186.28 130.45H173.73V143.8H186.28V130.45Z" fill="#7D7DB5"/>
    <path d="M201.64 130.45H189.09V151.91H201.64V130.45Z" fill="#7D7DB5"/>
    <path d="M217 130.45H204.45V143.8H217V130.45Z" fill="#7D7DB5"/>
    <path d="M232.36 130.45H219.81V143.8H232.36V130.45Z" fill="#7D7DB5"/>
    <path d="M170.92 133.29H161.43V143.8H170.92V133.29Z" fill="#505187"/>
    <path d="M186.28 133.29H176.79V143.8H186.28V133.29Z" fill="#505187"/>
    <path d="M201.64 133.29H192.15V151.91H201.64V133.29Z" fill="#505187"/>
    <path d="M217 133.29H207.51V143.8H217V133.29Z" fill="#505187"/>
    <path d="M232.36 133.29H222.87V143.8H232.36V133.29Z" fill="#505187"/>
    <path d="M333.58 54.24H284.84V152.42H333.58V54.24Z" fill="#EBCCBC"/>
    <path d="M342.46 152.41H333.57V54.24L342.46 60.58V152.41Z" fill="#E69973"/>
    <path d="M300.01 59.46H289.13V71.03H300.01V59.46Z" fill="#E69973"/>
    <path d="M313.32 59.46H302.44V71.03H313.32V59.46Z" fill="#E69973"/>
    <path d="M326.64 59.46H315.76V71.03H326.64V59.46Z" fill="#E69973"/>
    <path d="M300 61.92H291.78V71.03H300V61.92Z" fill="#D74F50"/>
    <path d="M313.32 61.92H305.1V71.03H313.32V61.92Z" fill="#D74F50"/>
    <path d="M326.63 61.92H318.41V71.03H326.63V61.92Z" fill="#D74F50"/>
    <path d="M300.01 78.04H289.13V89.61H300.01V78.04Z" fill="#E69973"/>
    <path d="M313.32 78.04H302.44V89.61H313.32V78.04Z" fill="#E69973"/>
    <path d="M326.64 78.04H315.76V89.61H326.64V78.04Z" fill="#E69973"/>
    <path d="M300 80.51H291.78V89.62H300V80.51Z" fill="#D74F50"/>
    <path d="M313.32 80.51H305.1V89.62H313.32V80.51Z" fill="#D74F50"/>
    <path d="M326.63 80.51H318.41V89.62H326.63V80.51Z" fill="#D74F50"/>
    <path d="M300.01 96.63H289.13V108.2H300.01V96.63Z" fill="#E69973"/>
    <path d="M313.32 96.63H302.44V108.2H313.32V96.63Z" fill="#E69973"/>
    <path d="M326.64 96.63H315.76V108.2H326.64V96.63Z" fill="#E69973"/>
    <path d="M300 99.09H291.78V108.2H300V99.09Z" fill="#D74F50"/>
    <path d="M313.32 99.09H305.1V108.2H313.32V99.09Z" fill="#D74F50"/>
    <path d="M326.63 99.09H318.41V108.2H326.63V99.09Z" fill="#D74F50"/>
    <path d="M300.01 115.22H289.13V126.79H300.01V115.22Z" fill="#E69973"/>
    <path d="M313.32 115.22H302.44V126.79H313.32V115.22Z" fill="#E69973"/>
    <path d="M326.64 115.22H315.76V126.79H326.64V115.22Z" fill="#E69973"/>
    <path d="M300 117.68H291.78V126.79H300V117.68Z" fill="#D74F50"/>
    <path d="M313.32 117.68H305.1V126.79H313.32V117.68Z" fill="#D74F50"/>
    <path d="M326.63 117.68H318.41V126.79H326.63V117.68Z" fill="#D74F50"/>
    <path d="M300.01 133.81H289.13V145.38H300.01V133.81Z" fill="#E69973"/>
    <path d="M313.32 133.81H302.44V152.41H313.32V133.81Z" fill="#E69973"/>
    <path d="M326.64 133.81H315.76V145.38H326.64V133.81Z" fill="#E69973"/>
    <path d="M300 136.27H291.78V145.38H300V136.27Z" fill="#D74F50"/>
    <path d="M313.32 136.27H305.1V152.41H313.32V136.27Z" fill="#D74F50"/>
    <path d="M326.63 136.27H318.41V145.38H326.63V136.27Z" fill="#D74F50"/>
    <path d="M101.56 127.2C109.275 127.2 115.53 114.991 115.53 99.93C115.53 84.8692 109.275 72.66 101.56 72.66C93.8446 72.66 87.59 84.8692 87.59 99.93C87.59 114.991 93.8446 127.2 101.56 127.2Z" fill="#D74F50"/>
    <path d="M101.56 89.65L102.56 151.83H100.56L101.56 89.65Z" fill="#EBCCBC"/>
    <path d="M82.2 135.68C88.6617 135.68 93.9 127.675 93.9 117.8C93.9 107.925 88.6617 99.92 82.2 99.92C75.7383 99.92 70.5 107.925 70.5 117.8C70.5 127.675 75.7383 135.68 82.2 135.68Z" fill="#E69973"/>
    <path d="M82.2 111.06L83.2 151.83H81.2L82.2 111.06Z" fill="#EBCCBC"/>
    <path d="M279.06 125.3C279.06 123.1 277.58 121.26 275.56 120.7C275.53 116.41 272.05 112.94 267.75 112.94C267.21 112.94 266.69 112.99 266.18 113.1C265.33 112.33 264.21 111.85 262.97 111.85C260.91 111.85 259.16 113.16 258.49 114.98C258.26 114.96 258.03 114.95 257.8 114.95C253.48 114.95 249.99 118.45 249.99 122.76C249.99 124.96 250.9 126.94 252.36 128.36C252.21 128.96 252.12 129.59 252.12 130.23C252.12 134.55 255.62 138.04 259.93 138.04C261.55 138.04 263.06 137.54 264.31 136.7C265.64 137.75 267.31 138.38 269.14 138.38C273.46 138.38 276.95 134.88 276.95 130.57C276.95 130.14 276.91 129.73 276.84 129.32C278.17 128.47 279.05 126.99 279.05 125.29L279.06 125.3Z" fill="#505187"/>
    <path d="M264.53 124.28L266.03 151.5H263.03L264.53 124.28Z" fill="#EBCCBC"/>
    <path d="M380.35 149.35C380.21 148.92 379.9 148.55 379.49 148.28C379.37 147.44 378.51 146.8 377.47 146.8C377.17 146.8 376.89 146.85 376.64 146.95C376.24 146.24 375.38 145.76 374.37 145.76C372.98 145.76 371.86 146.69 371.86 147.84C371.86 147.87 371.86 147.9 371.86 147.93C371.63 147.87 371.38 147.84 371.12 147.84C369.73 147.84 368.61 148.77 368.61 149.92C368.61 149.96 368.61 150.01 368.62 150.05C368.32 150.25 368.12 150.56 368.12 150.9C368.12 151.5 368.71 151.99 369.44 151.99H370.98H370.97C371.02 151.99 371.07 151.99 371.12 151.99H374.06H374.22H377.76C377.76 151.99 378.23 151.98 378.26 151.98C378.59 151.98 379.95 152 380.53 151.98C381.31 151.98 381.97 151.48 381.97 150.83C381.97 149.9 381.01 149.32 380.35 149.34V149.35ZM375.43 149.71C375.43 149.71 375.42 149.71 375.41 149.71H375.43Z" fill="#E69973"/>
    <path d="M348.26 151.9L348.5 118.18" stroke="#505187" stroke-width="1.5" stroke-miterlimit="10"/>
    <path d="M350.45 118.18H346.57L345.46 111.85H351.52L350.45 118.18Z" fill="#E69973"/>
    <path d="M345.2 111.85H351.78" stroke="#505187" stroke-width="1.5" stroke-miterlimit="10" stroke-linecap="round"/>
    <path d="M53.3 142.53H52.37V151.83H53.3V142.53Z" fill="#EEBCB5"/>
    <path d="M87.31 142.53H86.38V151.83H87.31V142.53Z" fill="#EEBCB5"/>
    <path d="M89.41 136.98H50.33V143.31H89.41V136.98Z" fill="#7C2224"/>
    <path d="M89.41 145.46H50.33V147.23H89.41V145.46Z" fill="#7C2224"/>
    <path d="M371.36 143.61C374.712 143.61 377.43 139.46 377.43 134.34C377.43 129.22 374.712 125.07 371.36 125.07C368.008 125.07 365.29 129.22 365.29 134.34C365.29 139.46 368.008 143.61 371.36 143.61Z" fill="#7C2224"/>
    <path d="M371.36 130.84L371.86 151.99H370.86L371.36 130.84Z" fill="#EBCCBC"/>
    <path d="M0 152.96H435.43" stroke="#505187" stroke-width="3"/>
    </g>
    <defs>
    <clipPath id="clip0_452_460">
    <rect width="435.43" height="154.46" fill="white"/>
    </clipPath>
    </defs>
    </svg>
    