<svg width="436" height="137" viewBox="0 0 436 137" fill="none" xmlns="http://www.w3.org/2000/svg">
    <g clip-path="url(#clip0_452_986)">
    <path d="M347.56 28.2C347.58 28.01 347.59 27.82 347.59 27.62C347.59 23.48 343.94 20.12 339.43 20.12C339.03 20.12 338.63 20.16 338.25 20.21C336.77 18.92 334.72 18.12 332.44 18.12C327.94 18.12 325.53 20.34 324.21 23.97C323.85 24.95 323.84 26.88 324.39 27.82C323.92 27.74 322.15 28.03 321.66 28.13C319.13 28.67 316.13 31.25 316.13 35.12C316.13 38.99 317.97 41.02 322.46 42.03C323.73 42.31 326.24 41.82 327.32 41.28C334.68 44.29 341.35 40.6 341.35 40.6C342.74 41.55 344.5 42.12 346.42 42.12C350.92 42.12 354.58 38.99 354.58 35.12C354.58 31.59 351.52 28.67 347.56 28.2Z" fill="#EEBCB5"/>
    <path d="M408.68 52.6C408.68 52.52 408.66 52.44 408.66 52.36C408.66 50.64 410.49 49.24 412.74 49.24C412.94 49.24 413.14 49.25 413.33 49.28C414.07 48.74 415.1 48.41 416.23 48.41C418.48 48.41 419.69 49.33 420.35 50.84C420.53 51.25 420.54 52.05 420.26 52.44C420.5 52.4 421.38 52.53 421.63 52.57C422.89 52.79 424.39 53.87 424.39 55.47C424.39 57.07 423.47 57.92 421.23 58.34C420.6 58.46 419.34 58.25 418.8 58.03C415.12 59.28 411.78 57.75 411.78 57.75C411.08 58.15 410.2 58.38 409.24 58.38C406.99 58.38 405.16 57.08 405.16 55.47C405.16 54 406.69 52.79 408.67 52.59L408.68 52.6Z" fill="#EEBCB5"/>
    <path d="M358.04 51.75C358.04 51.67 358.02 51.59 358.02 51.51C358.02 49.79 359.85 48.39 362.1 48.39C362.3 48.39 362.5 48.4 362.69 48.43C363.43 47.89 364.46 47.56 365.59 47.56C367.84 47.56 369.05 48.48 369.71 49.99C369.89 50.4 369.9 51.2 369.62 51.59C369.86 51.55 370.74 51.68 370.99 51.72C372.25 51.94 373.75 53.02 373.75 54.62C373.75 56.22 372.83 57.07 370.59 57.49C369.96 57.61 368.7 57.4 368.16 57.18C364.48 58.43 361.14 56.9 361.14 56.9C360.44 57.3 359.56 57.53 358.6 57.53C356.35 57.53 354.52 56.23 354.52 54.62C354.52 53.15 356.05 51.94 358.03 51.74L358.04 51.75Z" fill="#EBCCBC"/>
    <path d="M92.87 8.08C92.88 7.89 92.9 7.7 92.9 7.5C92.9 3.36 89.77 0 85.9 0C83.35 0 81.13 1.46 79.91 3.64C79.02 3.23 78.04 3 77 3C73.68 3 70.9 5.32 70.18 8.43C67.69 9.41 65.9 11.98 65.9 15C65.9 18.87 68.81 22 72.4 22C73.18 22 75.06 22.28 75.75 22C81.27 23.32 81.16 21.52 83.47 22C85.22 22.36 87.95 22.89 90.18 21.78C90.73 21.92 91.31 22 91.91 22C95.78 22 98.91 18.87 98.91 15C98.91 11.47 96.29 8.55 92.88 8.08H92.87Z" fill="#EEBCB5"/>
    <path d="M337.78 35.15H84.74V86.28H337.78V35.15Z" fill="#D74F50"/>
    <path d="M383.67 133.65H371.97V38.92L383.67 46.63V133.65Z" fill="#D74F50"/>
    <path d="M264.61 86.28H226.41V133.65H264.61V86.28Z" fill="#E69973"/>
    <path d="M371.97 86.28H333.19V133.65H371.97V86.28Z" fill="#E69973"/>
    <path d="M232.82 133.65H226.15V81.09L232.82 86.28V133.65Z" fill="#DDB09E"/>
    <path d="M371.97 38.92H338.18V86.29H371.97V38.92Z" fill="#E69973"/>
    <path d="M122.66 86.28H93.0601V133.65H122.66V86.28Z" fill="#E69973"/>
    <path d="M226.15 81.09H122.66V133.65H226.15V81.09Z" fill="#EBCCBC"/>
    <path d="M344.36 86.28H337.56V35.15L344.36 39.31V86.28Z" fill="#AA2E33"/>
    <path d="M333.19 86.28H264.6V133.65H333.19V86.28Z" fill="#AA2E33"/>
    <path d="M302.18 86.28H295.61V133.65H302.18V86.28Z" fill="#EBCCBC"/>
    <path d="M302.18 86.28H301.35V133.65H302.18V86.28Z" fill="#DDB09E"/>
    <path d="M367.65 47.56H347.38V83.22H367.65V47.56Z" fill="#D74F50"/>
    <path d="M367.64 52.6H352.32V83.22H367.64V52.6Z" fill="#AA2E33"/>
    <path d="M277.97 42.89H257.7V78.55H277.97V42.89Z" fill="#AA2E33"/>
    <path d="M277.96 47.92H262.64V78.54H277.96V47.92Z" fill="#7C2224"/>
    <path d="M252.06 42.89H213.79V78.55H252.06V42.89Z" fill="#AA2E33"/>
    <path d="M252.05 47.35H218.6V78.55H252.05V47.35Z" fill="#7C2224"/>
    <path d="M158.6 42.86H125.35V60.69H158.6V42.86Z" fill="#AA2E33"/>
    <path d="M158.59 46.24H129.56V60.7H158.59V46.24Z" fill="#7C2224"/>
    <path d="M367.65 97.6H347.38V133.26H367.65V97.6Z" fill="#D74F50"/>
    <path d="M367.64 102.64H352.32V133.26H367.64V102.64Z" fill="#AA2E33"/>
    <path d="M329.27 43.17H284.16V55.14H329.27V43.17Z" fill="#AA2E33"/>
    <path d="M329.28 45.71H286.92V55.14H329.28V45.71Z" fill="#7C2224"/>
    <path d="M209.18 42.86H164.07V54.83H209.18V42.86Z" fill="#AA2E33"/>
    <path d="M209.19 45.41H166.83V54.84H209.19V45.41Z" fill="#7C2224"/>
    <path d="M118 93.39H97.73V129.05H118V93.39Z" fill="#D74F50"/>
    <path d="M117.99 98.43H102.67V129.05H117.99V98.43Z" fill="#AA2E33"/>
    <path d="M257.7 93.39H237.43V129.05H257.7V93.39Z" fill="#D74F50"/>
    <path d="M257.7 98.43H242.38V129.05H257.7V98.43Z" fill="#AA2E33"/>
    <path d="M152.11 92.14H131.84V127.8H152.11V92.14Z" fill="#E69973"/>
    <path d="M152.1 97.18H136.78V127.8H152.1V97.18Z" fill="#D74F50"/>
    <path d="M217.71 92.14H174.4V127.8H217.71V92.14Z" fill="#E69973"/>
    <path d="M217.72 97.18H179.77V127.8H217.72V97.18Z" fill="#D74F50"/>
    <path d="M359.98 83.53C359.98 79.31 357.13 75.76 353.25 74.69C353.2 66.44 346.5 59.77 338.24 59.77C337.21 59.77 336.2 59.87 335.22 60.07C333.59 58.59 331.43 57.68 329.05 57.68C325.09 57.68 321.73 60.19 320.44 63.7C320 63.66 319.56 63.63 319.11 63.63C310.82 63.63 304.09 70.35 304.09 78.65C304.09 82.88 305.84 86.69 308.65 89.42C308.36 90.58 308.2 91.78 308.2 93.02C308.2 101.31 314.92 108.04 323.22 108.04C326.34 108.04 329.24 107.09 331.64 105.46C334.2 107.48 337.41 108.69 340.92 108.69C349.21 108.69 355.94 101.97 355.94 93.67C355.94 92.85 355.86 92.05 355.73 91.27C358.28 89.64 359.98 86.79 359.98 83.53Z" fill="#505187"/>
    <path d="M332.07 81.57L333.57 133.88H330.57L332.07 81.57Z" fill="#EBCCBC"/>
    <path d="M58.62 116.05C64.1318 116.05 68.6 107.324 68.6 96.56C68.6 85.796 64.1318 77.07 58.62 77.07C53.1082 77.07 48.64 85.796 48.64 96.56C48.64 107.324 53.1082 116.05 58.62 116.05Z" fill="#7D7DB5"/>
    <path d="M58.62 89.22L59.62 133.65H57.62L58.62 89.22Z" fill="#EBCCBC"/>
    <path d="M322.56 120.05C328.017 120.05 332.44 113.294 332.44 104.96C332.44 96.626 328.017 89.87 322.56 89.87C317.103 89.87 312.68 96.626 312.68 104.96C312.68 113.294 317.103 120.05 322.56 120.05Z" fill="#E69973"/>
    <path d="M322.56 99.26L323.56 133.68H321.56L322.56 99.26Z" fill="#EBCCBC"/>
    <path d="M65.33 128.14C65.03 127.24 64.39 126.47 63.53 125.92C63.28 124.18 61.49 122.83 59.32 122.83C58.7 122.83 58.11 122.94 57.58 123.14C56.75 121.67 54.95 120.66 52.85 120.66C49.96 120.66 47.62 122.6 47.62 125C47.62 125.06 47.62 125.12 47.63 125.19C47.15 125.07 46.63 125 46.09 125C43.2 125 40.85 126.94 40.85 129.33C40.85 129.42 40.85 129.52 40.87 129.61C40.24 130.02 39.83 130.67 39.83 131.39C39.83 132.64 41.05 133.66 42.58 133.66H45.79H45.76C45.86 133.67 45.98 133.67 46.08 133.67H52.2H52.54H59.9C59.9 133.67 60.88 133.64 60.94 133.64C61.63 133.64 64.45 133.68 65.67 133.65C67.3 133.65 68.67 132.6 68.67 131.25C68.67 129.3 66.67 128.11 65.31 128.16L65.33 128.14ZM55.09 128.89C55.09 128.89 55.06 128.9 55.05 128.9L55.09 128.88V128.89Z" fill="#EEBCB5"/>
    <path d="M0 135.27H435.43" stroke="#505187" stroke-width="3"/>
    </g>
    <defs>
    <clipPath id="clip0_452_986">
    <rect width="435.43" height="136.77" fill="white"/>
    </clipPath>
    </defs>
    </svg>
    