<svg width="436" height="138" viewBox="0 0 436 138" fill="none" xmlns="http://www.w3.org/2000/svg">
    <g clip-path="url(#clip0_452_847)">
    <path d="M114.21 14.75C114.22 14.56 114.24 14.37 114.24 14.17C114.24 10.03 111.11 6.67 107.24 6.67C104.69 6.67 102.47 8.13 101.25 10.31C100.36 9.9 99.38 9.67 98.34 9.67C95.02 9.67 92.24 11.99 91.52 15.1C89.03 16.08 87.24 18.65 87.24 21.67C87.24 25.54 90.15 28.67 93.74 28.67C94.52 28.67 96.4 28.95 97.09 28.67C102.61 29.99 102.5 28.19 104.81 28.67C106.56 29.03 109.29 29.56 111.52 28.45C112.07 28.59 112.65 28.67 113.25 28.67C117.12 28.67 120.25 25.54 120.25 21.67C120.25 18.14 117.63 15.22 114.22 14.75H114.21Z" fill="#EEBCB5"/>
    <path d="M120.4 3.04C120.4 2.97 120.4 2.9 120.4 2.82C120.4 1.26 121.48 0 122.82 0C123.7 0 124.47 0.55 124.89 1.37C125.2 1.22 125.54 1.13 125.9 1.13C127.05 1.13 128.01 2 128.26 3.17C129.12 3.54 129.74 4.5 129.74 5.64C129.74 7.09 128.73 8.27 127.49 8.27C127.22 8.27 126.57 8.38 126.33 8.27C124.42 8.77 124.46 8.09 123.66 8.27C123.06 8.41 122.11 8.6 121.34 8.19C121.15 8.24 120.95 8.27 120.74 8.27C119.4 8.27 118.32 7.09 118.32 5.64C118.32 4.31 119.23 3.21 120.4 3.04Z" fill="#EEBCB5"/>
    <path d="M352.38 36.74C352.38 36.66 352.36 36.58 352.36 36.5C352.36 34.78 354.19 33.38 356.44 33.38C356.64 33.38 356.84 33.39 357.03 33.42C357.77 32.88 358.8 32.55 359.93 32.55C362.18 32.55 363.39 33.47 364.05 34.98C364.23 35.39 364.24 36.19 363.96 36.58C364.2 36.54 365.08 36.67 365.33 36.71C366.59 36.93 368.09 38.01 368.09 39.61C368.09 41.21 367.17 42.06 364.93 42.48C364.3 42.6 363.04 42.39 362.5 42.17C358.82 43.42 355.48 41.89 355.48 41.89C354.78 42.29 353.9 42.52 352.94 42.52C350.69 42.52 348.86 41.22 348.86 39.61C348.86 38.14 350.39 36.93 352.37 36.73L352.38 36.74Z" fill="#EEBCB5"/>
    <path d="M76.61 120.73C82.039 120.73 86.44 114.01 86.44 105.72C86.44 97.4302 82.039 90.71 76.61 90.71C71.1811 90.71 66.78 97.4302 66.78 105.72C66.78 114.01 71.1811 120.73 76.61 120.73Z" fill="#E69973"/>
    <path d="M76.61 100.06L77.61 134.29H75.61L76.61 100.06Z" fill="#EBCCBC"/>
    <path d="M342.44 69.53V134.29L99.7 132.75L98.69 75.67L323.72 40.92L342.44 69.53Z" fill="#D74F50"/>
    <path d="M95.77 134.29V120.25C95.77 120.25 132.07 119.24 145.31 118.73C158.55 118.22 172.39 114.02 200.06 103.91C227.73 93.8 255.4 76.17 276.96 76.34C298.51 76.51 311.53 81.72 320.19 89.68C328.85 97.64 341.44 117.37 341.94 120.9C342.44 124.43 342.44 134.29 342.44 134.29H95.77Z" fill="#EEBCB5"/>
    <path d="M342.61 76.34L366.84 72.4C366.84 72.4 372.15 63.09 364.8 57.23C357.45 51.37 333.19 42.66 333.19 42.66L303.51 48.08L286.32 55.38C286.32 55.38 290.83 54.63 312.26 56.99C333.69 59.35 342.1 69.64 342.61 76.34Z" fill="#AA2E33"/>
    <path d="M236.59 4.6C207.88 7.29 167.41 13.09 128.78 36.19C117.67 42.84 110.09 48.81 104.92 53.95C99.55 57.33 95.47 61.05 94.4 64.86C95.87 53.72 103.73 38.36 119.98 27.31C136.89 15.83 156.97 6.95 192.3 3.92C205.75 2.76 221.02 3.11 236.59 4.6Z" fill="#D74F50"/>
    <path d="M351.91 39.78C325.52 30.15 299.72 28.54 272.75 27.96C259.98 27.69 245.32 28.08 229.52 29.61H229.5C228.41 29.6 227.31 29.59 226.22 29.59C169.53 29.59 133.06 40.98 120.2 46.31C114.87 48.52 109.44 51.11 104.93 53.95C110.1 48.81 117.68 42.84 128.79 36.19C167.41 13.09 207.89 7.29001 236.59 4.60001C261.93 7.02001 288.07 12.46 308.47 19.31C329.32 26.3 343.14 33.73 351.9 39.78H351.91Z" fill="#AA2E33"/>
    <path d="M368.66 68.7C367.92 72.34 366.9 72.4 366.83 72.4C366.83 72.4 374.84 57.28 354.38 51.95C349.71 50.73 344.73 50.14 339.5 50.04C325.83 44.4 284.16 30.16 229.51 29.61C245.31 28.08 259.97 27.69 272.74 27.96C299.71 28.54 325.51 30.15 351.9 39.78C356.99 43.29 360.37 46.34 362.44 48.57C368.08 54.64 370.3 60.63 368.66 68.7Z" fill="#7C2224"/>
    <path d="M339.5 50.04C329.33 49.83 318.17 51.48 306.34 53.96C284.78 51.48 256.65 52.2 225.55 55.19C223.87 55.35 222.14 55.53 220.38 55.72C212.83 55.61 205.09 55.65 197.43 55.91C161.22 57.17 120.84 63.6 107.57 69.2C105.26 70.18 103.34 71.1 101.75 71.97C102.01 71.7 102.29 71.43 102.57 71.16C110.97 63.04 136.78 49.13 173.59 39.46C192.97 34.38 211.94 31.3 229.49 29.61H229.51C284.16 30.16 325.83 44.4 339.5 50.04Z" fill="#D74F50"/>
    <path d="M229.49 29.61C211.94 31.3 192.97 34.38 173.59 39.46C136.78 49.13 110.97 63.04 102.57 71.16C102.29 71.43 102.01 71.7 101.75 71.97C101.75 71.97 101.74 71.97 101.74 71.98C96.22 75 94.68 77.38 94.25 79.17V71.3C94.76 67.82 96.98 61.86 104.92 53.95C109.43 51.11 114.86 48.52 120.19 46.31C133.05 40.98 169.52 29.59 226.21 29.59C227.3 29.59 228.4 29.6 229.49 29.61Z" fill="#7C2224"/>
    <path d="M104.92 53.95C96.98 61.86 94.76 67.82 94.25 71.3V66.18C94.29 65.75 94.34 65.31 94.4 64.86C95.47 61.05 99.55 57.33 104.92 53.95Z" fill="#D74F50"/>
    <path d="M101.74 71.98C96.47 77.35 94.75 81.95 94.25 84.69V79.17C94.68 77.38 96.22 75 101.74 71.98Z" fill="#D74F50"/>
    <path d="M281.27 59.89C280.59 60.06 279.91 60.23 279.23 60.4C267.99 63.2 248.44 70.73 227.27 79.27C188.32 79.27 141.35 80.48 124.77 82.95C114.36 84.5 107.15 86.18 102.32 87.76C106.31 84.99 112.14 81.71 120.63 77.76C145.73 66.09 189.18 59.01 220.38 55.72C248.16 56.14 273.24 58.68 281.27 59.89Z" fill="#AA2E33"/>
    <path d="M102.32 87.76C96.89 91.55 94.88 94.41 94.25 96.78V92.59C94.47 91.9 94.99 91.12 96.07 90.46C97.43 89.62 99.46 88.7 102.32 87.76Z" fill="#AA2E33"/>
    <path d="M227.27 79.27C200 90.28 170.06 102.97 151.78 109.45C133.24 107.48 112.49 104.36 102.77 103.95C107.84 101.48 115.79 98.46 128.17 94.48C158.21 84.84 213.61 80.4 227.27 79.27Z" fill="#7C2224"/>
    <path d="M151.78 109.45C148.3 110.68 145.25 111.69 142.72 112.42C116.48 119.98 94.25 120.43 94.25 120.43V111.05C94.75 109.04 96.71 106.89 102.77 103.95C112.49 104.36 133.24 107.48 151.78 109.45Z" fill="#AA2E33"/>
    <path d="M102.77 103.95C96.71 106.89 94.75 109.04 94.25 111.05V106.77C94.47 105.72 95.47 104.2 99.41 103.95C100.3 103.89 101.43 103.9 102.77 103.95Z" fill="#7C2224"/>
    <path d="M306.34 53.96C298.27 55.65 289.88 57.74 281.28 59.89H281.27C273.24 58.68 248.16 56.14 220.38 55.72C222.14 55.53 223.87 55.35 225.55 55.19C256.65 52.2 284.78 51.48 306.34 53.96Z" fill="#7C2224"/>
    <path d="M339.81 50.17C339.71 50.13 339.6 50.08 339.5 50.04" stroke="#D74F50"/>
    <path d="M220.39 55.72C189.19 59.01 145.74 66.09 120.64 77.76C112.15 81.71 106.32 84.99 102.33 87.76C99.47 88.7 97.44 89.62 96.08 90.46C95 91.12 94.48 91.9 94.26 92.59V84.69C94.76 81.95 96.48 77.35 101.75 71.98C101.75 71.97 101.76 71.97 101.76 71.97C103.35 71.1 105.27 70.18 107.58 69.2C120.85 63.6 161.23 57.17 197.44 55.91C205.1 55.65 212.84 55.61 220.39 55.72Z" fill="#7C2224"/>
    <path d="M306.98 54.03C306.77 54 306.56 53.98 306.34 53.96" stroke="#D74F50"/>
    <path d="M281.56 59.93C281.47 59.92 281.38 59.9 281.28 59.89" stroke="#D74F50"/>
    <path d="M227.27 79.27C213.61 80.4 158.21 84.84 128.17 94.48C115.79 98.46 107.84 101.48 102.77 103.95C101.43 103.9 100.3 103.89 99.41 103.95C95.47 104.2 94.47 105.72 94.25 106.77V96.78C94.88 94.41 96.89 91.55 102.32 87.76C107.15 86.18 114.36 84.5 124.77 82.95C141.35 80.48 188.32 79.27 227.27 79.27Z" fill="#D74F50"/>
    <path d="M153.79 109.66C153.12 109.59 152.46 109.52 151.78 109.45" stroke="#D74F50"/>
    <path d="M323.5 134.14L323.86 82.13" stroke="#505187" stroke-width="2.5" stroke-miterlimit="10"/>
    <path d="M326.87 82.13H320.9L319.17 72.37H328.53L326.87 82.13Z" fill="#EBCCBC"/>
    <path d="M318.77 72.37H328.93" stroke="#505187" stroke-width="2.5" stroke-miterlimit="10" stroke-linecap="round"/>
    <path d="M37.6 134.37L37.97 82.37" stroke="#505187" stroke-width="2.5" stroke-miterlimit="10"/>
    <path d="M40.98 82.37H35L33.28 72.6H42.63L40.98 82.37Z" fill="#EBCCBC"/>
    <path d="M32.88 72.6H43.03" stroke="#505187" stroke-width="2.5" stroke-miterlimit="10" stroke-linecap="round"/>
    <path d="M383.97 128.68C383.67 127.78 383.03 127.01 382.17 126.46C381.92 124.72 380.13 123.37 377.96 123.37C377.34 123.37 376.75 123.48 376.22 123.68C375.39 122.21 373.59 121.2 371.49 121.2C368.6 121.2 366.26 123.14 366.26 125.54C366.26 125.6 366.26 125.66 366.27 125.73C365.79 125.61 365.27 125.54 364.73 125.54C361.84 125.54 359.49 127.48 359.49 129.87C359.49 129.96 359.49 130.06 359.51 130.15C358.88 130.56 358.47 131.21 358.47 131.93C358.47 133.18 359.69 134.2 361.22 134.2H364.43H364.4C364.5 134.21 364.62 134.21 364.72 134.21H370.84H371.18H378.54C378.54 134.21 379.52 134.18 379.58 134.18C380.27 134.18 383.09 134.22 384.31 134.19C385.94 134.19 387.31 133.14 387.31 131.79C387.31 129.84 385.31 128.65 383.95 128.7L383.97 128.68ZM373.73 129.44C373.73 129.44 373.7 129.45 373.69 129.45L373.73 129.43V129.44Z" fill="#E69973"/>
    <path d="M330.53 124.71H329.58V134.14H330.53V124.71Z" fill="#505187"/>
    <path d="M364.99 124.71H364.04V134.14H364.99V124.71Z" fill="#505187"/>
    <path d="M367.12 119.09H327.51V125.51H367.12V119.09Z" fill="#7D7DB5"/>
    <path d="M367.12 127.69H327.51V129.48H367.12V127.69Z" fill="#7D7DB5"/>
    <path d="M114.21 92.46C114.21 88.95 111.84 86.01 108.62 85.11C108.58 78.26 103.01 72.71 96.15 72.71C95.29 72.71 94.45 72.8 93.64 72.96C92.29 71.73 90.49 70.97 88.52 70.97C85.23 70.97 82.43 73.06 81.36 75.98C80.99 75.95 80.63 75.92 80.25 75.92C73.36 75.92 67.77 81.51 67.77 88.4C67.77 91.91 69.23 95.08 71.56 97.35C71.32 98.31 71.18 99.31 71.18 100.34C71.18 107.23 76.77 112.82 83.66 112.82C86.25 112.82 88.66 112.03 90.65 110.68C92.77 112.35 95.45 113.36 98.36 113.36C105.25 113.36 110.84 107.77 110.84 100.88C110.84 100.2 110.77 99.54 110.67 98.89C112.79 97.54 114.2 95.17 114.2 92.46H114.21Z" fill="#505187"/>
    <path d="M91.03 90.83L92.53 134.29H89.53L91.03 90.83Z" fill="#EBCCBC"/>
    <path d="M0 135.82H435.43" stroke="#505187" stroke-width="3"/>
    </g>
    <defs>
    <clipPath id="clip0_452_847">
    <rect width="435.43" height="137.32" fill="white"/>
    </clipPath>
    </defs>
    </svg>
    