<?xml version="1.0" encoding="UTF-8"?>
<svg id="Calque_1" data-name="Calque 1" xmlns="http://www.w3.org/2000/svg" width="1276.531" height="1072.313" viewBox="0 0 1276.531 1072.313">
  <defs>
    <style>
      .cls-1 {
        fill: #fff;
      }

      .cls-2 {
        fill: #91c1c3;
      }

      .cls-3 {
        fill: #b6ffff;
      }

      .cls-4 {
        fill: #a2e4e6;
      }

      .cls-5 {
        fill: #86b2b2;
      }

      .cls-6 {
        fill: #6381ad;
      }

      .cls-7 {
        fill: #485a82;
      }

      .cls-8 {
        fill: #394966;
      }

      .cls-9 {
        fill: #526993;
      }

      .cls-10 {
        fill: #828282;
      }

      .cls-11 {
        stroke: #000;
      }

      .cls-11, .cls-12 {
        fill: none;
        stroke-miterlimit: 10;
      }

      .cls-12 {
        stroke: #86b2b2;
      }
    </style>
  </defs>
  <g>
    <rect class="cls-4" x="816.724" y="395.498" width="162.28" height="258.056"/>
    <rect class="cls-2" x="480.086" y="395.488" width="17.533" height="258.065"/>
    <rect class="cls-2" x="799.1" y="395.488" width="38.793" height="258.065"/>
    <rect class="cls-2" x="266.289" y="395.488" width="40.265" height="258.065"/>
    <rect class="cls-4" x="306.555" y="395.488" width="144.264" height="258.065"/>
    <path class="cls-6" d="m84.199,131.586V59.401S289.512,0,640.52,0s551.82,63.037,551.82,63.037v65.894l-1108.141,2.655Z"/>
    <path class="cls-9" d="m1206.422,128.91v901.11h-226.036v-314.528h140.261v-40.403h11.32v-24.757h-152.961v-254.844H266.289v258.065H125.568v20.524h12.471v40.725h128.802v315.218H69.933V133.19s134.739-55.267,578.898-59.5c444.159-4.28,557.591,55.221,557.591,55.221Z"/>
    <rect class="cls-5" x="266.289" y="533.586" width="184.529" height="14.633"/>
    <line class="cls-11" x1="266.841" y1="653.553" x2="266.289" y2="653.553"/>
    <rect class="cls-4" x="497.618" y="395.488" width="272.1" height="138.098"/>
    <rect class="cls-4" x="497.618" y="515.455" width="272.1" height="138.098"/>
    <rect class="cls-2" x="480.086" y="716.505" width="17.533" height="312.415"/>
    <rect class="cls-4" x="497.618" y="716.505" width="272.1" height="167.182"/>
    <rect class="cls-4" x="497.618" y="861.738" width="272.1" height="167.182"/>
    <polygon class="cls-2" points="275.906 804.95 275.906 819.308 306.555 819.308 306.555 919.993 275.906 919.993 275.906 938.999 306.555 938.999 306.555 1030.021 266.841 1030.021 266.841 714.802 306.555 714.802 306.555 804.95 275.906 804.95"/>
    <rect class="cls-4" x="306.555" y="714.802" width="144.264" height="90.148"/>
    <rect class="cls-4" x="306.555" y="819.308" width="144.264" height="100.685"/>
    <rect class="cls-4" x="306.555" y="938.999" width="144.264" height="91.022"/>
    <polygon class="cls-7" points="979.44 674.077 266.679 674.077 266.679 653.553 450.656 653.553 450.656 395.488 479.923 395.488 479.923 653.553 769.556 653.553 769.556 395.488 799.788 395.488 799.788 653.553 816.539 653.553 816.539 653.553 978.842 653.553 978.842 650.332 979.395 650.332 979.44 674.077"/>
    <line class="cls-11" x1="1120.646" y1="674.077" x2="979.603" y2="674.077"/>
    <rect class="cls-5" x="487.033" y="533.586" width="282.685" height="14.633"/>
    <rect class="cls-5" x="487.033" y="862.334" width="282.685" height="14.633"/>
    <rect class="cls-5" x="807.867" y="533.586" width="171.138" height="14.633"/>
    <rect class="cls-5" x="275.906" y="804.95" width="174.912" height="14.358"/>
    <rect class="cls-5" x="275.906" y="919.993" width="174.912" height="19.006"/>
    <polygon class="cls-2" points="807.245 804.95 807.245 819.308 837.893 819.308 837.893 919.993 807.245 919.993 807.245 938.999 837.893 938.999 837.893 1030.021 798.18 1030.021 798.18 714.802 837.893 714.802 837.893 804.95 807.245 804.95"/>
    <rect class="cls-4" x="837.893" y="714.802" width="144.264" height="90.148"/>
    <rect class="cls-4" x="837.893" y="819.308" width="144.264" height="100.685"/>
    <rect class="cls-4" x="837.893" y="938.999" width="144.264" height="91.022"/>
    <rect class="cls-5" x="807.245" y="804.95" width="174.912" height="14.358"/>
    <rect class="cls-5" x="807.245" y="919.993" width="174.912" height="19.006"/>
    <g>
      <path class="cls-1" d="m398.863,246.331c0-9.345,1.756-18.082,5.267-26.209,3.512-8.127,8.637-15.193,15.377-21.197,6.74-6.004,15.023-10.733,24.85-14.188,9.827-3.455,21.083-5.182,33.77-5.182,4.588,0,9.189.241,13.805.722s9.175,1.232,13.678,2.251c4.503,1.019,8.892,2.308,13.168,3.866,4.276,1.558,8.34,3.412,12.191,5.565l-12.404,20.39c-2.322-1.359-4.956-2.591-7.901-3.696-2.945-1.104-6.103-2.039-9.473-2.804-3.37-.765-6.853-1.345-10.45-1.742-3.596-.396-7.207-.595-10.832-.595-8.382,0-15.859,1.062-22.428,3.186-6.57,2.124-12.12,5.097-16.651,8.92-4.531,3.823-7.986,8.397-10.365,13.72-2.379,5.324-3.568,11.158-3.568,17.501,0,6.57,1.246,12.602,3.738,18.096,2.492,5.494,6.032,10.223,10.62,14.188,4.588,3.965,10.138,7.066,16.651,9.303,6.513,2.237,13.791,3.356,21.834,3.356,6.4,0,12.262-.722,17.586-2.166,5.324-1.444,9.968-3.497,13.933-6.159,3.965-2.662,7.193-5.876,9.685-9.643,2.492-3.766,4.135-8,4.927-12.701h-46.386v-22.174h70.599v.085l.085-.085c1.416,6.797,1.855,13.409,1.317,19.837-.538,6.428-2.011,12.489-4.418,18.181-2.407,5.692-5.706,10.917-9.897,15.674-4.191,4.758-9.204,8.85-15.037,12.276-5.834,3.427-12.46,6.089-19.88,7.986-7.42,1.897-15.547,2.846-24.382,2.846-12.347,0-23.405-1.812-33.175-5.437-9.77-3.625-18.053-8.581-24.85-14.867-6.797-6.287-11.993-13.65-15.589-22.089-3.596-8.439-5.395-17.444-5.395-27.016Z"/>
      <path class="cls-1" d="m622.638,281.078l-58.025-99.909h30.499l40.864,75.526,40.354-75.526h30.499l-57.261,99.739v33.048h-26.931v-32.878Z"/>
      <path class="cls-1" d="m727.304,181.17h26.931l48.255,48.425,48.255-48.425h26.931v132.787h-26.931v-95.491l-48.255,46.471-48.255-46.471v95.491h-26.931v-132.787Z"/>
    </g>
    <rect class="cls-8" x="125.568" y="651.219" width="1006.398" height="23.87"/>
    <rect class="cls-7" x="138.039" y="675.089" width="982.607" height="40.403"/>
    <rect class="cls-7" x="450.818" y="715.493" width="30.103" height="313.427"/>
    <rect class="cls-7" x="769.718" y="715.493" width="30.103" height="313.427"/>
    <rect class="cls-3" x="570.111" y="903.334" width="126.686" height="126.686"/>
  </g>
  <polyline class="cls-12" points="570.111 1030.021 570.111 903.334 696.797 903.334 696.797 1030.021"/>
  <line class="cls-12" x1="633.668" y1="903.334" x2="633.668" y2="1028.92"/>
  <rect class="cls-10" y="1030.021" width="1276.531" height="42.292"/>
</svg>