<svg width="44" height="42" viewBox="0 0 44 42" fill="none" xmlns="http://www.w3.org/2000/svg">
<g clip-path="url(#clip0_456_602)">
<path d="M20.712 41.9999C32.1509 41.9999 41.4239 32.6762 41.4239 21.1748C41.4239 9.67346 32.1509 0.349747 20.712 0.349747C9.27307 0.349747 0 9.67346 0 21.1748C0 32.6762 9.27307 41.9999 20.712 41.9999Z" fill="#5E3E21" fill-opacity="0.15"/>
<path d="M23.2878 41.6502C34.7267 41.6502 43.9998 32.3265 43.9998 20.8251C43.9998 9.32371 34.7267 0 23.2878 0C11.8489 0 2.57584 9.32371 2.57584 20.8251C2.57584 32.3265 11.8489 41.6502 23.2878 41.6502Z" fill="#E67E5D"/>
<path d="M18.0437 26.9328L30.1138 14.9746" stroke="#FFD8B3" stroke-width="3" stroke-linecap="round" stroke-linejoin="round"/>
<path d="M30.2789 27.044L18.1898 15.1051" stroke="#FFD8B3" stroke-width="3" stroke-linecap="round" stroke-linejoin="round"/>
</g>
<defs>
<clipPath id="clip0_456_602">
<rect width="44" height="42" fill="white"/>
</clipPath>
</defs>
</svg>
