<?xml version="1.0" encoding="UTF-8"?>
<svg id="Calque_1" data-name="Calque 1" xmlns="http://www.w3.org/2000/svg" width="966.402" height="354.463" viewBox="0 0 966.402 354.463">
  <defs>
    <style>
      .cls-1 {
        fill: #f6a95b;
      }

      .cls-2 {
        fill: #e67e5c;
      }

      .cls-3 {
        fill: #d2955e;
      }

      .cls-4 {
        fill: #472d48;
      }
    </style>
  </defs>
  <g>
    <g>
      <path class="cls-4" d="m144.389,283.127h29.005c5.357,0,9.995.914,13.914,2.742,3.921,1.828,7.12,4.33,9.605,7.498,2.481,3.167,4.325,6.876,5.536,11.12,1.208,4.249,1.813,8.79,1.813,13.622s-.605,9.373-1.813,13.622c-1.211,4.244-3.055,7.952-5.536,11.12-2.486,3.167-5.684,5.67-9.605,7.498-3.919,1.828-8.558,2.742-13.914,2.742h-29.005v-69.962Zm12.249,59.967h12.053c4.768,0,8.672-.636,11.711-1.909s5.421-3.038,7.153-5.292c1.73-2.254,2.907-4.9,3.526-7.938.622-3.038.933-6.321.933-9.847s-.311-6.809-.933-9.847c-.62-3.038-1.797-5.684-3.526-7.938-1.732-2.254-4.115-4.019-7.153-5.292s-6.943-1.914-11.711-1.914h-12.053v49.977Z"/>
      <path class="cls-4" d="m213.861,283.127h11.172v10.579h-11.172v-10.579Zm0,19.302h11.172v50.661h-11.172v-50.661Z"/>
      <path class="cls-4" d="m237.184,302.429h10.483v9.799h.196c.328-1.373.964-2.708,1.912-4.019.945-1.306,2.091-2.498,3.431-3.574,1.337-1.077,2.823-1.943,4.457-2.598,1.632-.651,3.299-.981,4.998-.981,1.306,0,2.206.033,2.696.1.488.067.995.129,1.517.196v10.78c-.782-.134-1.584-.249-2.4-.345-.818-.1-1.617-.148-2.402-.148-1.895,0-3.675.378-5.34,1.129s-3.12,1.861-4.361,3.33-2.22,3.282-2.938,5.44c-.72,2.153-1.079,4.636-1.079,7.445v24.106h-11.17v-50.661Z"/>
      <path class="cls-4" d="m278.632,330.649c0,1.962.278,3.856.833,5.684.555,1.833,1.388,3.431,2.5,4.804,1.11,1.368,2.514,2.464,4.213,3.282s3.723,1.225,6.074,1.225c3.268,0,5.895-.703,7.89-2.11,1.99-1.402,3.479-3.507,4.457-6.321h10.584c-.589,2.746-1.6,5.196-3.038,7.349-1.438,2.158-3.167,3.971-5.194,5.44-2.024,1.469-4.294,2.584-6.809,3.33-2.517.751-5.146,1.129-7.89,1.129-3.983,0-7.512-.656-10.581-1.962-3.072-1.306-5.668-3.134-7.792-5.488-2.122-2.349-3.723-5.158-4.801-8.426-1.077-3.263-1.615-6.857-1.615-10.78,0-3.589.569-7.005,1.713-10.239s2.778-6.077,4.9-8.526,4.687-4.392,7.694-5.828c3.002-1.435,6.402-2.158,10.191-2.158,3.983,0,7.56.833,10.73,2.502,3.167,1.665,5.797,3.871,7.888,6.613s3.608,5.895,4.557,9.455c.945,3.565,1.191,7.239.734,11.024h-37.237Zm26.065-7.349c-.132-1.761-.505-3.459-1.127-5.096-.62-1.632-1.469-3.053-2.548-4.263-1.077-1.206-2.385-2.187-3.919-2.938-1.536-.751-3.251-1.124-5.144-1.124-1.962,0-3.742.34-5.342,1.029-1.6.684-2.974,1.632-4.115,2.842-1.144,1.206-2.057,2.627-2.744,4.258-.687,1.636-1.062,3.397-1.127,5.292h26.065Z"/>
      <path class="cls-4" d="m358.595,319.381c-.459-3.134-1.715-5.502-3.773-7.105-2.057-1.598-4.656-2.397-7.792-2.397-1.438,0-2.974.244-4.605.732-1.634.493-3.134,1.407-4.507,2.746-1.371,1.34-2.514,3.201-3.431,5.584-.914,2.388-1.371,5.502-1.371,9.359,0,2.091.244,4.182.734,6.273s1.275,3.952,2.352,5.584c1.079,1.632,2.467,2.957,4.165,3.967,1.699,1.014,3.756,1.522,6.175,1.522,3.266,0,5.959-1.014,8.084-3.038,2.122-2.024,3.445-4.866,3.969-8.526h11.17c-1.045,6.598-3.545,11.646-7.495,15.139-3.955,3.498-9.196,5.244-15.727,5.244-3.986,0-7.498-.67-10.536-2.01-3.036-1.34-5.601-3.167-7.691-5.488-2.091-2.316-3.675-5.077-4.754-8.278-1.077-3.201-1.615-6.665-1.615-10.388,0-3.79.522-7.349,1.567-10.684,1.043-3.33,2.612-6.22,4.703-8.67,2.091-2.45,4.687-4.378,7.79-5.78,3.103-1.407,6.746-2.11,10.926-2.11,2.94,0,5.735.378,8.378,1.129,2.646.751,4.998,1.88,7.057,3.378,2.057,1.507,3.737,3.402,5.046,5.684,1.306,2.287,2.091,5,2.352,8.134h-11.17Z"/>
      <path class="cls-4" d="m373.784,302.429h8.426v-15.187h11.172v15.187h10.093v8.33h-10.093v27.043c0,1.177.048,2.191.146,3.038.098.852.325,1.569.687,2.158.359.589.897,1.029,1.617,1.321.718.297,1.696.44,2.938.44.785,0,1.569-.014,2.354-.048.782-.033,1.567-.148,2.352-.34v8.622c-1.242.129-2.45.258-3.627.392-1.175.129-2.385.196-3.624.196-2.94,0-5.309-.282-7.105-.833-1.797-.555-3.201-1.373-4.213-2.45-1.014-1.081-1.701-2.435-2.06-4.067s-.572-3.498-.636-5.589v-29.885h-8.426v-8.33Z"/>
      <path class="cls-4" d="m411.801,283.127h11.172v10.579h-11.172v-10.579Zm0,19.302h11.172v50.661h-11.172v-50.661Z"/>
      <path class="cls-4" d="m458.347,354.463c-4.05,0-7.66-.67-10.828-2.01-3.17-1.34-5.847-3.182-8.036-5.536s-3.854-5.158-4.998-8.426-1.713-6.861-1.713-10.78c0-3.856.569-7.416,1.713-10.68,1.144-3.268,2.809-6.077,4.998-8.431,2.189-2.349,4.866-4.196,8.036-5.536,3.167-1.335,6.778-2.01,10.828-2.01s7.66.675,10.828,2.01c3.167,1.34,5.847,3.187,8.038,5.536,2.182,2.354,3.847,5.163,4.995,8.431,1.139,3.263,1.713,6.823,1.713,10.68,0,3.919-.574,7.512-1.713,10.78-1.148,3.268-2.813,6.072-4.995,8.426-2.191,2.354-4.871,4.196-8.038,5.536s-6.775,2.01-10.828,2.01Zm0-8.818c2.483,0,4.636-.522,6.464-1.569,1.828-1.043,3.34-2.416,4.507-4.115,1.177-1.699,2.048-3.608,2.603-5.732s.833-4.297.833-6.517c0-2.158-.278-4.311-.833-6.469-.555-2.153-1.426-4.067-2.603-5.732-1.167-1.665-2.679-3.019-4.507-4.067-1.828-1.043-3.981-1.565-6.464-1.565s-4.639.522-6.467,1.565c-1.83,1.048-3.333,2.402-4.507,4.067-1.177,1.665-2.043,3.579-2.598,5.732-.555,2.158-.833,4.311-.833,6.469,0,2.22.278,4.392.833,6.517s1.421,4.034,2.598,5.732c1.175,1.699,2.677,3.072,4.507,4.115,1.828,1.048,3.983,1.569,6.467,1.569Z"/>
      <path class="cls-4" d="m493.232,302.429h10.584v7.45l.196.196c1.694-2.809,3.919-5.014,6.66-6.617,2.746-1.598,5.785-2.402,9.115-2.402,5.55,0,9.928,1.44,13.127,4.311,3.201,2.876,4.804,7.191,4.804,12.938v34.785h-11.17v-31.847c-.134-3.981-.981-6.876-2.545-8.67-1.569-1.799-4.019-2.694-7.349-2.694-1.9,0-3.598.34-5.096,1.029-1.507.684-2.78,1.632-3.823,2.842-1.048,1.206-1.861,2.627-2.45,4.258-.589,1.636-.88,3.368-.88,5.196v29.885h-11.172v-50.661Z"/>
      <path class="cls-4" d="m578.279,283.127h30.871c4.962,0,9.014.718,12.148,2.153,3.139,1.44,5.555,3.234,7.254,5.388,1.699,2.158,2.856,4.512,3.479,7.057.617,2.55.928,4.9.928,7.057s-.311,4.488-.928,7.005c-.622,2.517-1.78,4.852-3.479,7.005-1.699,2.158-4.115,3.938-7.254,5.34-3.134,1.407-7.187,2.11-12.148,2.11h-18.622v26.847h-12.249v-69.962Zm12.249,33.12h17.933c1.373,0,2.775-.196,4.215-.589,1.435-.392,2.761-1.029,3.967-1.909,1.211-.885,2.191-2.062,2.943-3.531s1.124-3.316,1.124-5.536c0-2.287-.325-4.177-.976-5.684-.656-1.502-1.536-2.694-2.646-3.574-1.115-.885-2.388-1.488-3.823-1.813-1.44-.325-2.976-.493-4.608-.493h-18.129v23.129Z"/>
      <path class="cls-4" d="m684.505,341.822c0,1.373.177,2.354.536,2.938.359.589,1.062.885,2.11.885h1.172c.459,0,.981-.067,1.569-.196v7.742c-.392.129-.9.278-1.517.44-.622.163-1.258.311-1.914.44-.651.129-1.306.23-1.957.292-.656.067-1.211.1-1.67.1-2.287,0-4.177-.459-5.679-1.373-1.507-.914-2.483-2.512-2.943-4.799-2.22,2.153-4.947,3.723-8.182,4.703-3.234.981-6.354,1.469-9.359,1.469-2.287,0-4.474-.311-6.565-.933-2.091-.617-3.938-1.531-5.536-2.742-1.603-1.211-2.876-2.742-3.823-4.608-.947-1.861-1.421-4.029-1.421-6.517,0-3.134.574-5.679,1.718-7.641,1.139-1.962,2.646-3.493,4.507-4.608,1.861-1.11,3.952-1.909,6.273-2.397,2.316-.493,4.651-.866,7.005-1.129,2.024-.392,3.952-.67,5.78-.833s3.445-.44,4.852-.833c1.402-.392,2.512-.995,3.33-1.813.818-.813,1.225-2.038,1.225-3.675,0-1.435-.34-2.612-1.029-3.526-.684-.914-1.536-1.617-2.545-2.105-1.014-.493-2.144-.818-3.383-.981s-2.416-.244-3.526-.244c-3.134,0-5.718.651-7.742,1.957s-3.167,3.33-3.431,6.077h-11.172c.196-3.268.981-5.976,2.354-8.134,1.373-2.153,3.12-3.885,5.244-5.191,2.12-1.306,4.522-2.22,7.201-2.746,2.679-.522,5.421-.785,8.23-.785,2.483,0,4.933.263,7.349.785,2.416.526,4.589,1.373,6.517,2.55,1.928,1.172,3.479,2.694,4.656,4.555s1.766,4.134,1.766,6.809v26.067Zm-11.172-14.11c-1.699,1.11-3.79,1.78-6.273,2.01s-4.967.569-7.445,1.029c-1.177.196-2.321.474-3.431.833s-2.091.847-2.938,1.469c-.852.622-1.522,1.44-2.01,2.45-.493,1.014-.737,2.239-.737,3.675,0,1.244.359,2.287,1.077,3.134.718.852,1.584,1.522,2.598,2.01,1.014.493,2.124.833,3.33,1.029,1.211.196,2.306.297,3.282.297,1.244,0,2.584-.163,4.019-.493,1.435-.325,2.794-.88,4.067-1.665s2.335-1.78,3.187-2.986c.847-1.211,1.273-2.699,1.273-4.459v-8.33Z"/>
      <path class="cls-4" d="m696.557,302.429h10.483v9.799h.196c.325-1.373.962-2.708,1.909-4.019.947-1.306,2.091-2.498,3.431-3.574s2.828-1.943,4.459-2.598c1.632-.651,3.297-.981,5-.981,1.306,0,2.201.033,2.694.1.488.067.995.129,1.517.196v10.78c-.785-.134-1.584-.249-2.402-.345-.813-.1-1.612-.148-2.397-.148-1.895,0-3.675.378-5.34,1.129-1.67.751-3.124,1.861-4.364,3.33s-2.22,3.282-2.938,5.44c-.722,2.153-1.077,4.636-1.077,7.445v24.106h-11.172v-50.661Z"/>
      <path class="cls-4" d="m731.342,283.127h11.172v10.579h-11.172v-10.579Zm0,19.302h11.172v50.661h-11.172v-50.661Z"/>
      <path class="cls-4" d="m763.094,336.826c.325,3.263,1.569,5.55,3.723,6.857,2.158,1.306,4.737,1.962,7.742,1.962,1.043,0,2.239-.081,3.579-.244,1.335-.163,2.593-.474,3.77-.933,1.177-.455,2.139-1.129,2.89-2.01s1.096-2.038,1.029-3.479c-.062-1.435-.584-2.612-1.565-3.526s-2.239-1.651-3.775-2.206-3.282-1.029-5.239-1.421c-1.962-.392-3.957-.813-5.981-1.273-2.091-.459-4.101-1.014-6.024-1.665-1.928-.656-3.66-1.536-5.196-2.646s-2.761-2.531-3.675-4.263-1.368-3.871-1.368-6.421c0-2.742.665-5.043,2.005-6.904,1.34-1.866,3.038-3.364,5.096-4.512,2.062-1.139,4.345-1.943,6.861-2.397,2.512-.459,4.914-.689,7.201-.689,2.612,0,5.11.282,7.498.833,2.383.56,4.541,1.455,6.469,2.699,1.923,1.239,3.526,2.856,4.799,4.847,1.273,1.995,2.077,4.397,2.402,7.206h-11.66c-.526-2.679-1.751-4.474-3.675-5.392-1.928-.914-4.134-1.368-6.617-1.368-.78,0-1.713.062-2.79.196-1.077.129-2.091.373-3.038.732s-1.751.88-2.402,1.569c-.651.684-.981,1.584-.981,2.694,0,1.373.474,2.483,1.421,3.33.947.852,2.191,1.555,3.727,2.11,1.531.555,3.282,1.029,5.239,1.421,1.962.392,3.986.813,6.077,1.273,2.024.459,4.019,1.014,5.976,1.665,1.962.656,3.708,1.536,5.244,2.646s2.775,2.517,3.723,4.215,1.421,3.79,1.421,6.268c0,3.005-.684,5.555-2.057,7.646s-3.153,3.79-5.34,5.096c-2.191,1.306-4.622,2.254-7.302,2.842s-5.325.88-7.938.88c-3.201,0-6.158-.359-8.866-1.077-2.713-.718-5.062-1.813-7.057-3.282-1.99-1.474-3.56-3.301-4.703-5.488-1.144-2.191-1.746-4.785-1.813-7.79h11.172Z"/>
    </g>
    <g>
      <path class="cls-4" d="m292.106,130.7l-43.895-55.063-11.364,13.325v41.737h-22.924V0h22.924v62.312L287.991,0h28.412l-53.101,61.723,57.02,68.977h-28.216Z"/>
      <path class="cls-4" d="m428.117,130.7l-9.603-25.082h-61.919l-9.603,25.082h-25.082L373.25,0h28.608l51.34,130.7h-25.082Zm-40.565-111.303l-24.493,66.039h48.986l-24.493-66.039Z"/>
      <path class="cls-4" d="m491.821,148.002v-27.481L441.069,0h26.259l36.053,85.443L539.044,0h26.254l-50.553,120.521v27.481h-22.924Z"/>
      <path class="cls-4" d="m579.623,130.7V0h22.924v110.518h57.608v20.182h-80.532Z"/>
      <path class="cls-4" d="m680.945,130.7V0h22.924v130.7h-22.924Z"/>
      <path class="cls-4" d="m824.19,130.7l-9.603-25.082h-61.919l-9.603,25.082h-25.082L769.324,0h28.608l51.34,130.7h-25.082Zm-40.565-111.303l-24.493,66.039h48.986l-24.493-66.039Z"/>
    </g>
    <g>
      <path class="cls-4" d="m169.96,262.395l-59.68-83.35v83.35h-20.067v-114.394h20.579l58.484,81.125v-81.125h20.067v114.394h-19.383Z"/>
      <path class="cls-4" d="m212.84,262.395v-114.394h78.379v17.665h-58.312v29.67h57.111v17.665h-57.111v31.728h58.312v17.665h-78.379Z"/>
      <path class="cls-4" d="m409.124,262.395v-86.609l-35.158,86.609h-8.574l-34.986-86.609v86.609h-20.067v-114.394h28.297l31.043,77.006,31.211-77.006h28.302v114.394h-20.067Z"/>
      <path class="cls-3" d="m507.755,264.363c-1.274.049-2.597.098-3.92.098-34.297,0-58.452-25.037-58.452-59.187s24.155-59.138,58.452-59.138c1.323,0,2.646.049,3.92.098-32.19,1.862-54.532,26.262-54.532,59.04s22.342,57.227,54.532,59.089Z"/>
      <path class="cls-1" d="m562.336,205.274c0,32.827-22.391,57.227-54.581,59.089-32.19-1.862-54.532-26.262-54.532-59.089s22.342-57.178,54.532-59.04c32.19,1.862,54.581,26.262,54.581,59.04Z"/>
      <path class="cls-4" d="m581.705,148.002h20.235v68.604c0,18.177,10.12,30.015,29.33,30.015,19.034,0,29.153-11.837,29.153-30.015v-68.604h20.239v69.116c0,28.474-16.292,47.335-49.393,47.335-33.273,0-49.565-19.034-49.565-47.163v-69.288Z"/>
      <path class="cls-4" d="m770.343,262.395l-25.378-42.704h-19.895v42.704h-20.067v-114.394h50.249c22.641,0,37.388,14.751,37.388,35.847,0,20.407-13.378,31.383-27.096,33.613l27.952,44.933h-23.153Zm-17.833-96.728h-27.44v36.359h27.44c11.316,0,19.55-7.201,19.55-18.177s-8.235-18.182-19.55-18.182Z"/>
    </g>
    <path class="cls-2" d="m116.391,328.558c-12.481-1.182-31.335-4.488-50.285-13.531l8.019-16.804c16.488,7.866,33.039,10.761,44.022,11.799l-1.756,18.536Zm-91.618-46.469c-10.342-13.455-17.61-29.579-21.608-47.934l18.192-3.962c3.407,15.651,9.524,29.292,18.177,40.546l-14.761,11.349Zm-6.213-97.834l-18.56-1.493c1.495-18.593,6-35.541,13.39-50.379l16.665,8.306c-6.325,12.694-10.194,27.354-11.495,43.565Zm39.742-77.809l-11.436-14.689c12.842-9.995,28.304-18.096,45.953-24.072l5.971,17.637c-15.672,5.306-29.295,12.412-40.488,21.125Zm86.386-30.919l-2.019-18.507c10.318-1.124,20.881-1.699,31.395-1.699,11.794,0,19.22.737,19.529.766l-1.856,18.527c-.067-.005-6.897-.67-17.672-.67-9.842,0-19.727.531-29.376,1.584Z"/>
    <g>
      <path class="cls-2" d="m812.76,241.026v-12.622c35.531-26.89,49.383-38.823,49.383-51.991,0-9.603-8.23-13.995-16.598-13.995-10.699,0-18.933,4.392-24.694,10.976l-9.325-10.565c8.091-9.742,20.986-14.68,33.747-14.68,17.694,0,33.197,10.014,33.197,28.263,0,16.871-15.503,31.962-40.058,50.484h40.608v14.129h-66.259Z"/>
      <path class="cls-2" d="m929.775,148.15c25.656,0,36.627,24.144,36.627,47.192s-10.971,47.331-36.627,47.331-36.627-24.283-36.627-47.331,10.971-47.192,36.627-47.192Zm0,14.268c-14.952,0-20.302,15.503-20.302,32.924s5.349,33.063,20.302,33.063,20.302-15.637,20.302-33.063-5.349-32.924-20.302-32.924Z"/>
      <path class="cls-2" d="m815.233,353.717v-12.622c35.531-26.89,49.383-38.823,49.383-51.991,0-9.603-8.23-13.995-16.598-13.995-10.699,0-18.933,4.392-24.694,10.976l-9.325-10.565c8.091-9.742,20.986-14.68,33.747-14.68,17.699,0,33.197,10.014,33.197,28.263,0,16.871-15.498,31.962-40.058,50.484h40.608v14.129h-66.259Z"/>
      <path class="cls-2" d="m937.459,353.717v-20.713h-43.622v-12.9l37.589-57.891h22.086v56.656h12.211v14.134h-12.211v20.713h-16.053Zm0-77.101l-27.847,42.254h27.847v-42.254Z"/>
    </g>
  </g>
  <path class="cls-3" d="m530.043,161.966s15.141,17.779,14.175,43.233-14.175,42.347-14.175,42.347c0,0,20.296-11.424,21.262-42.347s-21.262-43.233-21.262-43.233Z"/>
</svg>