<?xml version="1.0" encoding="UTF-8"?>
<svg id="Calque_1" data-name="Calque 1" xmlns="http://www.w3.org/2000/svg" width="1781.323" height="659.594" viewBox="0 0 1781.323 659.594">
  <defs>
    <style>
      .cls-1 {
        fill: #fcd596;
      }

      .cls-2 {
        fill: #bb9c71;
      }

      .cls-3 {
        fill: #af9169;
      }

      .cls-4 {
        fill: #472d48;
      }
    </style>
  </defs>
  <polygon class="cls-4" points="1467.759 50.683 1467.833 50.683 1466.642 53.883 1467.759 50.683"/>
  <g>
    <path class="cls-4" d="m315.911,117.44L433.351,0h-63.483l-131.059,133.962V0h-49.233v294.27h49.233v-98.909l42.049-41.602,96.453,140.511h64.302l-125.701-176.83Z"/>
    <path class="cls-4" d="m909.882,0l-76.656,131.878L755.305,0h-59.762l110.444,178.914v115.356h51.501v-115.356L967.56,0h-57.678Z"/>
    <path class="cls-4" d="m1184.727,249.765h-136.79V0h-51.501v294.27h188.291v-44.505Z"/>
    <polygon class="cls-4" points="1482.197 0 1473.564 24.411 1463.889 50.683 1463.814 50.683 1462.698 53.883 1374.878 292.707 1374.283 294.27 1325.387 294.27 1437.469 0 1482.197 0"/>
    <path class="cls-4" d="m627.074,0h-54.775l-112.974,294.27h53.212l27.611-77.847h117.44l27.611,77.847h55.222L627.074,0Zm-72.935,177.202l44.505-126.519h1.265l44.059,126.519h-89.829Z"/>
  </g>
  <path class="cls-4" d="m0,358.279h54.41l134.381,216.815h.825v-216.815h49.049v294.31h-54.41L50.291,436.184h-1.234v216.405H0v-294.31Z"/>
  <path class="cls-4" d="m290.67,358.279h211.877v44.514h-160.352v77.086h148.396v42.045h-148.396v86.144h163.237v44.521h-214.762v-294.31Z"/>
  <path class="cls-4" d="m549.537,358.279h72.544l81.206,230.42h.825l79.139-230.42h71.726v294.31h-49.056v-227.12h-.825l-81.615,227.12h-42.455l-81.615-227.12h-.825v227.12h-49.049v-294.31Z"/>
  <path class="cls-4" d="m1231.454,358.279h51.525v171.475c0,9.889.47,19.926,1.436,30.09.966,10.171,3.717,19.308,8.252,27.413,4.535,8.104,11.392,14.773,20.61,19.993,9.205,5.22,22.18,7.829,38.952,7.829s29.748-2.61,38.952-7.829c9.205-5.22,16.075-11.888,20.61-19.993,4.535-8.104,7.273-17.242,8.239-27.413.966-10.164,1.449-20.201,1.449-30.09v-171.475h51.525v188.375c0,18.96-2.885,35.45-8.655,49.465-5.77,14.015-13.955,25.763-24.528,35.242-10.587,9.48-23.294,16.558-38.134,21.227-14.84,4.669-31.318,7.004-49.459,7.004s-34.632-2.335-49.459-7.004c-14.84-4.669-27.561-11.747-38.134-21.227-10.587-9.48-18.758-21.227-24.528-35.242-5.77-14.015-8.655-30.506-8.655-49.465v-188.375Z"/>
  <path class="cls-4" d="m1532.353,358.279h140.553c32.431,0,56.745,7.004,72.967,21.019,16.209,14.015,24.313,33.532,24.313,58.536,0,14.015-2.053,25.628-6.186,34.826-4.119,9.211-8.923,16.632-14.424,22.26-5.501,5.636-10.922,9.688-16.276,12.163-5.367,2.469-9.272,4.119-11.754,4.945v.825c4.401.55,9.138,1.925,14.223,4.119,5.085,2.207,9.822,5.709,14.223,10.513,4.388,4.81,8.037,11.063,10.922,18.752,2.885,7.702,4.334,17.316,4.334,28.855,0,17.316,1.288,33.049,3.905,47.198,2.617,14.156,6.669,24.26,12.17,30.298h-55.242c-3.851-6.32-6.119-13.324-6.803-21.019-.684-7.695-1.033-15.115-1.033-22.26,0-13.465-.818-25.072-2.469-34.833-1.65-9.748-4.669-17.859-9.071-24.32-4.401-6.454-10.372-11.191-17.926-14.223-7.568-3.019-17.242-4.529-29.063-4.529h-75.838v121.185h-51.525v-294.31Zm51.525,133.965h84.493c16.491,0,28.996-3.918,37.517-11.747,8.507-7.836,12.774-19.584,12.774-35.242,0-9.339-1.382-16.967-4.119-22.878-2.751-5.911-6.535-10.513-11.338-13.807-4.804-3.301-10.305-5.495-16.491-6.602-6.172-1.094-12.573-1.644-19.161-1.644h-83.675v91.92Z"/>
  <g>
    <circle class="cls-1" cx="1042.153" cy="505.842" r="132.983"/>
    <path class="cls-3" d="m1042.374,657.438c-3.38,0-6.77-.116-10.175-.342-40.402-2.653-77.352-20.888-104.044-51.333-26.688-30.452-39.923-69.474-37.262-109.876s20.892-77.352,51.34-104.04c30.452-26.695,69.481-39.908,109.872-37.262,40.402,2.653,77.352,20.888,104.044,51.34,26.688,30.445,39.923,69.467,37.266,109.869h0c-2.66,40.402-20.892,77.359-51.344,104.047-27.883,24.435-62.958,37.597-99.697,37.597Zm-.389-265.976c-27.723,0-54.182,9.928-75.223,28.367-22.974,20.139-36.732,48.019-38.738,78.501-2.006,30.489,7.977,59.931,28.116,82.905,20.136,22.974,48.015,36.732,78.501,38.738,30.522,1.962,59.931-7.98,82.905-28.119,22.974-20.132,36.732-48.012,38.738-78.501h0c2.006-30.482-7.98-59.924-28.119-82.905-20.136-22.974-48.015-36.732-78.501-38.738-2.569-.167-5.127-.247-7.679-.247Z"/>
  </g>
  <path class="cls-2" d="m1060.038,438.362v135.314h-24.507v-111.46h-.799l-31.644,20.219v-22.465l33.629-21.607h23.323Z"/>
  <polygon class="cls-4" points="1481.377 0 1481.303 0 1458.827 64.153 1498.271 177.202 1411.791 177.202 1398.097 216.423 1511.891 216.423 1539.502 294.27 1594.724 294.27 1481.377 0"/>
  <rect class="cls-4" x="1231.539" width="51.501" height="294.27"/>
</svg>