<svg width="30" height="24" viewBox="0 0 30 24" fill="none" xmlns="http://www.w3.org/2000/svg">
<path d="M17.7369 1H11.2631C9.46092 1 8 2.48678 8 4.32081V19.6792C8 21.5132 9.46092 23 11.2631 23H17.7369C19.5391 23 21 21.5132 21 19.6792V4.32081C21 2.48678 19.5391 1 17.7369 1Z" stroke="white" stroke-width="1.1" stroke-miterlimit="10"/>
<path d="M13 17.1232C13 17.1232 24.7354 17.4921 27.613 14.1081C29.8639 11.4613 29.0169 7.7476 23.1013 8.2318" stroke="white" stroke-width="1.1" stroke-miterlimit="10"/>
<path d="M25.7863 6L23.1016 8.2318L25.644 10.2839" stroke="white" stroke-width="1.1" stroke-miterlimit="10"/>
<path d="M8.05811 7.77344C5.48328 8.20383 3.07577 8.93959 2.05823 10.1921C-0.130179 12.8903 0.935891 16.426 6.5699 16.0686" stroke="white" stroke-width="1.1" stroke-miterlimit="10"/>
<path d="M4.08914 18.0439L6.56989 16.0687L4.25079 13.9131" stroke="white" stroke-width="1.1" stroke-miterlimit="10"/>
</svg>
