<?xml version="1.0" encoding="utf-8"?>
<!-- Generator: Adobe Illustrator 28.1.0, SVG Export Plug-In . SVG Version: 6.00 Build 0)  -->
<svg version="1.1" id="Calque_1" xmlns="http://www.w3.org/2000/svg" xmlns:xlink="http://www.w3.org/1999/xlink" x="0px" y="0px"
	 viewBox="0 0 203 203" style="enable-background:new 0 0 203 203;" xml:space="preserve">
<style type="text/css">
	.st0{fill:#F0AAC8;stroke:#000000;}
	.st1{clip-path:url(#SVGID_00000078006532087808363670000000304639234259643581_);}
	.st2{fill:#F8E8DB;stroke:#000000;stroke-width:1.33;stroke-miterlimit:10;}
	.st3{fill:none;stroke:#000000;stroke-miterlimit:10;}
	.st4{fill:#F8E8DB;stroke:#000000;stroke-miterlimit:10;}
</style>
<circle class="st0" cx="101.5" cy="101.5" r="101"/>
<g>
	<defs>
		<circle id="SVGID_1_" cx="101.5" cy="101.5" r="101"/>
	</defs>
	<clipPath id="SVGID_00000109027711313243849050000006497884938740406658_">
		<use xlink:href="#SVGID_1_"  style="overflow:visible;"/>
	</clipPath>
	<g style="clip-path:url(#SVGID_00000109027711313243849050000006497884938740406658_);">
		<path d="M61.9,112.9c0,0-8.4,24.5-10.2,75.9c0,0-0.5,1.8,5.1,3.4c0,0,7.3,6.2,3.9-5.6c0,0,0.9-58.3,5.9-66.7L61.9,112.9
			L61.9,112.9L61.9,112.9z"/>
		<path d="M77.2,78.1c0,0-8.4,24.5-10.2,75.9c0,0-2.8,55.5,5.1,52.1c0,0,7.9,8.4,3.9-54.2c0,0,0.9-58.3,5.9-66.7L77.2,78.1
			L77.2,78.1L77.2,78.1z"/>
		<path d="M87.8,88.4c0,0-8.4,24.5-10.2,76c0,0-13.5,30.6,1.5,36.1c6.5,2.4,5.4-0.1,7.5-38.2c0,0,0.9-58.3,5.9-66.7L87.8,88.4
			L87.8,88.4L87.8,88.4z"/>
		<path d="M97.9,90.3c0,0-8.4,24.5-10.2,76c0,0-2.6,21.6-2,31.4c0.3,5.1,4.3,4.8,5.9,4.4c0,0,8.5,8.3,5.1-38c0,0,0.9-58.3,5.9-66.7
			L97.9,90.3L97.9,90.3L97.9,90.3z"/>
		<path d="M117.8,100.7c0,0-14.1,21.7-28.6,71.1c0,0-7.8,20.4-9.7,30c-1,5,3,5.7,4.7,5.7c0,0,6.2,10.1,14.3-35.6
			c0,0,15.2-56.3,22.1-63.2L117.8,100.7L117.8,100.7L117.8,100.7z"/>
		<path d="M101.8,90.3c0,0-8.4,24.5-10.2,76c0,0-4.8,39.7,3.1,36.3c0,0,9.7,4.9,5.9-38.4c0,0,0.9-58.3,5.9-66.7L101.8,90.3
			L101.8,90.3L101.8,90.3z"/>
		<path d="M113.7,89.1c0,0-8.4,24.5-10.2,76c0,0-2.8,55.5,5.1,52.1c0,0,7.9,8.4,3.9-54.2c0,0,0.9-58.3,5.9-66.7L113.7,89.1
			L113.7,89.1L113.7,89.1z"/>
		<path d="M104.5,74.9c0,0-8.4,24.5-10.2,75.9c0,0-2.8,55.5,5.1,52.1c0,0,19.9,5.4,3.9-54.2c0,0,0.9-58.3,5.9-66.7L104.5,74.9
			C104.5,74.9,104.5,74.9,104.5,74.9z"/>
		<path d="M121.4,90.3c0,0-8.4,24.5-10.2,76c0,0-4.8,39.1,3.1,35.7c0,0,12,4.4,5.9-37.8c0,0,0.9-58.3,5.9-66.7L121.4,90.3
			C121.4,90.3,121.4,90.3,121.4,90.3z"/>
		<path d="M130.7,89.1c0,0-8.4,24.5-10.2,76c0,0-15.6,42.3,1.5,35.6c0,0,13.4,3.5,7.5-37.8c0,0,0.9-58.3,5.9-66.7L130.7,89.1
			L130.7,89.1L130.7,89.1z"/>
		<path d="M139.6,78.1c0,0-8.4,24.5-10.2,75.9c0,0-25,55.4,4,43.5c0,0,9.8,0.6,5-45.7c0,0,0.9-58.3,5.9-66.7L139.6,78.1L139.6,78.1
			L139.6,78.1z"/>
		<path d="M63.1,117.2c0,0,0.9,40-4,60.4c0,0-4.5,19.2,3.2,17.1c0,0,9.4,8.7,4.5-14.6l1.2-58C68,122.2,63.1,117.2,63.1,117.2z"/>
		<path d="M141.2,77.3c0,0,0.9,40-4,60.5c0,0-17.8,69.2,3,57.1c0,0,8.4,4.6,4.7-54.6l1.2-58L141.2,77.3L141.2,77.3L141.2,77.3z"/>
		<path class="st2" d="M101,35.4c-15.1,0-47.7,4-51.4,41.5c0,0-3.1,51.1,11.1,74.7c7.7,12.8,20,26.4,40.4,26.4
			c19.1,0,34.3-13.8,41.9-26.5c4.5-7.4,12.3-20.3,9.2-75.7C152.2,75.8,152.2,35.4,101,35.4L101,35.4L101,35.4z"/>
		<circle cx="80" cy="103.9" r="2.8"/>
		<line class="st3" x1="86.1" y1="89.3" x2="77.1" y2="90.3"/>
		<circle cx="124.1" cy="103.9" r="2.8"/>
		<line class="st3" x1="118" y1="89.3" x2="126.9" y2="90.3"/>
		<polyline class="st3" points="101.8,112.6 98.8,135.7 106.1,137.1 		"/>
		<path class="st4" d="M49.6,101c0,0-14.2-2.4-9.1,14.4c0,0,2.7,9.7,12.6,14.6"/>
		<path class="st4" d="M153.1,100.9c0,0,14.1-3,9.7,14c0,0-2.3,9.8-12,15.1"/>
		<path class="st3" d="M85.2,150.9c0,0,15.2,10.8,33.7,0"/>
		<path d="M49.6,101c0,0,9.4-14.2,25.2-17.4c9.4-1.9,23.4-6.8,32.6-20c0,0,5.2,1.4,9.8,4.7c7.2,5.3,9.1,0.8,17.3,5.7
			c4.1,2.4,3.8,4.6,9.2,16.8c1.2,2.8,9.4,10.2,9.4,10.2s4.9-31.2-9.9-49.7c0,0-14.7-24.7-43.5-19.7c0,0-20.9-0.7-37.8,14.1
			c0,0-14.4,19.4-12.1,29.5C49.8,75.2,48,96.7,49.6,101L49.6,101L49.6,101z"/>
		<path d="M80,33.1c0,0-2,4.3-4.9,5.6c0,0-9.4,11.7-7.7,13.9c0,0-0.4,2.3,11.4-8.1c0,0,13.4-9.8,38.4-5.3l6.5,3.8
			c0,0,8.9-16.4,2.6-20.1c0,0,5-5.5-5.1-13.7c0,0-4.8-4.9-10.7-2.5c0,0-6.3-7.7-17.9-3c0,0-7.9,1.1-7.4,15.4c0,0-5.2-0.6-7.2-1.8
			c0,0-1.2-1.2-4-0.2c0,0-2.9,1.3,1.6,4.3c0,0-9.2-1.4-10.9,0.1c0,0-5.6,3.9,17.6,3.8c0,0-14.5,8.3-16,11.4c0,0-8.6,13-4.8,16.5
			c0,0,1.8,1.8,9.4-15C71,38.2,72.6,35.3,80,33.1L80,33.1L80,33.1z"/>
		<path d="M49.4,97.3l1.7,58.4l1.5,35l4.3-2.6c0,0,1.5,9.6,6.7,4.2c6.9-30.9-3.1-22.6-3.1-22.6l-1.8-49.3L55,94.6L49.4,97.3
			L49.4,97.3L49.4,97.3z"/>
		<path d="M146.6,94.6c0,0-2.7,83.6-2.9,93.7c-0.1,1.8-0.2,4.4,0.9,4.5c2.7,0.4,8.3-4.4,8.3-4.4l0.2-87.5
			C153.1,100.9,146.6,94.6,146.6,94.6z"/>
	</g>
</g>
</svg>
