<?xml version="1.0" encoding="UTF-8"?><svg id="Calque_1" xmlns="http://www.w3.org/2000/svg" xmlns:xlink="http://www.w3.org/1999/xlink" viewBox="0 0 203 203"><defs><style>.cls-1{clip-path:url(#clippath);}.cls-2,.cls-3{fill:none;}.cls-2,.cls-4{stroke-width:0px;}.cls-5,.cls-6{fill:#f8e8db;}.cls-5,.cls-6,.cls-7,.cls-3{stroke:#000;}.cls-5,.cls-6,.cls-3{stroke-miterlimit:10;}.cls-6{stroke-width:1.33px;}.cls-7{fill:#aac382;}</style><clipPath id="clippath"><circle class="cls-2" cx="101.5" cy="101.5" r="101"/></clipPath></defs><circle class="cls-7" cx="101.5" cy="101.5" r="101"/><g class="cls-1"><path class="cls-4" d="M61.87,112.91s-8.37,24.49-10.23,75.95c0,0-.45,1.82,5.12,3.42,0,0,7.27,6.25,3.88-5.59,0,0,.93-58.28,5.89-66.65l-4.65-7.13h0Z"/><path class="cls-4" d="M77.23,78.08s-8.37,24.49-10.23,75.95c0,0-2.79,55.49,5.12,52.08,0,0,7.91,8.37,3.88-54.25,0,0,.93-58.28,5.89-66.65l-4.65-7.13h0Z"/><path class="cls-4" d="M87.82,88.4s-8.37,24.49-10.23,75.95c0,0-13.47,30.56,1.51,36.06,6.49,2.38,5.36-.13,7.49-38.23,0,0,.93-58.28,5.89-66.65l-4.65-7.13h0Z"/><path class="cls-4" d="M97.87,90.27s-8.37,24.49-10.23,75.95c0,0-2.62,21.65-2.04,31.42.3,5.1,4.3,4.77,5.93,4.37,0,0,8.51,8.27,5.11-37.96,0,0,.93-58.28,5.89-66.65l-4.65-7.13h0Z"/><path class="cls-4" d="M117.85,100.7s-14.13,21.69-28.56,71.11c0,0-7.85,20.35-9.69,29.96-.96,5.02,3,5.68,4.67,5.69,0,0,6.22,10.1,14.28-35.55,0,0,15.21-56.27,22.07-63.16l-2.76-8.05h0Z"/><path class="cls-4" d="M101.82,90.27s-8.37,24.49-10.23,75.95c0,0-4.77,39.69,3.14,36.28,0,0,9.66,4.87,5.86-38.45,0,0,.93-58.28,5.89-66.65l-4.65-7.13h0Z"/><path class="cls-4" d="M113.74,89.12s-8.37,24.49-10.23,75.95c0,0-2.79,55.49,5.12,52.08,0,0,7.91,8.37,3.88-54.25,0,0,.93-58.28,5.89-66.65l-4.65-7.13h0Z"/><path class="cls-4" d="M104.52,74.94s-8.37,24.49-10.23,75.95c0,0-2.79,55.49,5.12,52.08,0,0,19.89,5.37,3.88-54.25,0,0,.93-58.28,5.89-66.65l-4.65-7.13h-.01Z"/><path class="cls-4" d="M121.42,90.27s-8.37,24.49-10.23,75.95c0,0-4.85,39.07,3.06,35.66,0,0,12.01,4.43,5.94-37.83,0,0,.93-58.28,5.89-66.65l-4.65-7.13h-.01Z"/><path class="cls-4" d="M130.67,89.12s-8.37,24.49-10.23,75.95c0,0-15.61,42.3,1.47,35.6,0,0,13.39,3.51,7.53-37.77,0,0,.93-58.28,5.89-66.65l-4.65-7.13h-.01Z"/><path class="cls-4" d="M139.6,78.08s-8.37,24.49-10.23,75.95c0,0-25.04,55.43,4,43.5,0,0,9.79.65,5-45.67,0,0,.93-58.28,5.89-66.65l-4.65-7.13h-.01Z"/><path class="cls-4" d="M63.11,117.25s.93,39.99-4.03,60.45c0,0-4.54,19.23,3.21,17.06,0,0,9.45,8.72,4.54-14.58l1.21-57.97s-4.93-4.96-4.93-4.96Z"/><path class="cls-4" d="M141.23,77.26s.93,39.99-4.03,60.45c0,0-17.75,69.25,3.03,57.1,0,0,8.39,4.58,4.72-54.62l1.21-57.97-4.93-4.96h0Z"/><path class="cls-6" d="M100.99,35.43c-15.07,0-47.73,4.04-51.39,41.45,0,0-3.14,51.15,11.13,74.73,7.72,12.76,19.95,26.37,40.36,26.37,19.07,0,34.27-13.84,41.87-26.47,4.46-7.42,12.26-20.3,9.23-75.7,0,0,0-40.38-51.2-40.38h0Z"/><circle class="cls-4" cx="79.96" cy="103.88" r="2.82"/><line class="cls-3" x1="86.07" y1="89.3" x2="77.14" y2="90.27"/><circle class="cls-4" cx="124.07" cy="103.88" r="2.82"/><line class="cls-3" x1="117.97" y1="89.3" x2="126.89" y2="90.27"/><polyline class="cls-3" points="101.82 112.64 98.77 135.68 106.06 137.12"/><path class="cls-5" d="M49.59,100.96s-14.21-2.4-9.15,14.41c0,0,2.74,9.72,12.58,14.63"/><path class="cls-5" d="M153.08,100.94s14.1-2.98,9.73,14.02c0,0-2.33,9.82-11.97,15.14"/><path class="cls-3" d="M85.16,150.93s15.25,10.77,33.71,0"/><path class="cls-4" d="M49.59,100.96s9.42-14.21,25.23-17.37c9.37-1.88,23.43-6.82,32.57-20.03,0,0,5.2,1.38,9.79,4.74,7.25,5.32,9.13.82,17.28,5.66,4.12,2.45,3.78,4.6,9.18,16.82,1.25,2.84,9.44,10.16,9.44,10.16,0,0,4.91-31.18-9.86-49.65,0,0-14.7-24.72-43.5-19.7,0,0-20.93-.67-37.85,14.07,0,0-14.42,19.37-12.08,29.53,0,0-1.82,21.54-.2,25.76h0Z"/><path class="cls-4" d="M80.02,33.07s-2.02,4.33-4.91,5.63c0,0-9.38,11.69-7.65,13.86,0,0-.43,2.31,11.4-8.08,0,0,13.42-9.81,38.39-5.34l6.5,3.79s8.95-16.35,2.6-20.1c0,0,5.05-5.46-5.05-13.7,0,0-4.76-4.92-10.68-2.46,0,0-6.35-7.65-17.9-3.03,0,0-7.94,1.15-7.36,15.44,0,0-5.15-.65-7.25-1.81,0,0-1.22-1.22-4.04-.22,0,0-2.88,1.27,1.61,4.26,0,0-9.19-1.38-10.91.11,0,0-5.59,3.93,17.61,3.82,0,0-14.51,8.3-16,11.41,0,0-8.64,13.01-4.76,16.5,0,0,1.83,1.77,9.36-15,0,0,1.66-2.87,9.05-5.06v-.02Z"/><path class="cls-4" d="M49.44,97.35l1.72,58.36,1.51,34.99,4.34-2.64s1.49,9.6,6.72,4.22c6.89-30.88-3.13-22.59-3.13-22.59l-1.77-49.26-3.8-25.81-5.6,2.73h0Z"/><path class="cls-4" d="M146.6,94.62s-2.69,83.6-2.95,93.74c-.05,1.82-.23,4.38.9,4.53,2.7.37,8.31-4.41,8.31-4.41l.22-87.54s-6.48-6.32-6.48-6.32Z"/></g></svg>