<?xml version="1.0" encoding="utf-8"?>
<!-- Generator: Adobe Illustrator 28.1.0, SVG Export Plug-In . SVG Version: 6.00 Build 0)  -->
<svg version="1.1" id="Calque_1" xmlns="http://www.w3.org/2000/svg" xmlns:xlink="http://www.w3.org/1999/xlink" x="0px" y="0px"
	 viewBox="0 0 203 203" style="enable-background:new 0 0 203 203;" xml:space="preserve">
<style type="text/css">
	.st0{fill:#F0AAC8;stroke:#000000;}
	.st1{fill:none;}
	.st2{fill:#FBF2EB;}
	.st3{fill:#F8E8DB;stroke:#000000;stroke-miterlimit:10;}
	.st4{fill:none;stroke:#000000;stroke-miterlimit:10;}
	.st5{fill:none;stroke:#1D1E1C;stroke-miterlimit:10;}
	.st6{fill:none;stroke:#1D1E1C;stroke-width:0.97;stroke-miterlimit:10;}
	.st7{fill:none;stroke:#F8E8DB;stroke-width:0.97;stroke-miterlimit:10;}
</style>
<circle class="st0" cx="101.5" cy="101.5" r="101"/>
<rect x="36.8" y="13.3" class="st1" width="130" height="164.9"/>
<path class="st2" d="M48.1,93.8c0,0-14.7-2.5-9.5,14.9c0,0,2.8,10.1,13,15.2"/>
<path class="st3" d="M48.1,93.8c0,0-14.7-2.5-9.5,14.9c0,0,2.8,10.1,13,15.2"/>
<path class="st3" d="M155.3,93.8c0,0,14.6-3.1,10.1,14.5c0,0-2.4,10.2-12.4,15.7"/>
<path class="st4" d="M155.3,93.8c0,0,14.6-3.1,10.1,14.5c0,0-2.4,10.2-12.4,15.7"/>
<path class="st3" d="M101.3,28.1c-15.6,0-49.4,4.2-53.2,42.9c0,0-4.3,57.2,10.4,81.6c8,13.2,21.4,24.9,42.5,24.9
	c19.7,0,36.6-10.2,44.4-23.3c4.6-7.7,11.9-27,8.8-84.3C154.3,69.9,154.3,28.1,101.3,28.1L101.3,28.1L101.3,28.1z"/>
<path d="M78.3,101.1c1.6,0,2.9-1.3,2.9-2.9s-1.3-2.9-2.9-2.9s-2.9,1.3-2.9,2.9S76.7,101.1,78.3,101.1z"/>
<path class="st5" d="M84.6,83l-9.2,1"/>
<path d="M123.9,101.1c1.6,0,2.9-1.3,2.9-2.9s-1.3-2.9-2.9-2.9s-2.9,1.3-2.9,2.9S122.3,101.1,123.9,101.1z"/>
<path class="st5" d="M117.6,83l9.2,1"/>
<path class="st5" d="M100.9,107.2L97.7,131l7.5,1.5"/>
<path class="st6" d="M83.7,146.8c0,0,15.8,11.1,34.9,0"/>
<path d="M147.9,75.7c3.7,14.1,0.9,39.2-3.4,51.5c-2.2,6.3-7.3,14.1-13.8,13c-9-1.4-12.7-3-30.5-3c-7.5,0-17.6,0.9-28.8,2.4
	c-6.4,0.9-12.6-6-13.8-12.4c-5.2-26.4-5.3-39.9-2.7-51.4c3-13-4.3-16.9-4.3-16.9c-1.5,5-2.2,15.4-2.8,20.2c0,0-4.7,57.8,15.5,79.4
	c5.2,6.4,15,17.2,35.3,18.9c11.6,0.9,23.7-1.2,37.2-12c10.9-8.8,21.9-20.7,18.6-95.5c0,0-0.7-5.3-2-11C152.4,59,145,64.5,147.9,75.7
	L147.9,75.7L147.9,75.7z"/>
<path class="st7" d="M84.1,156.9c0,0,17.4,12,34.9,0"/>
<path d="M47.5,73.2c0,0,29.1-9.6,53.6-10.5c0,0,34.4-0.3,53.9,10.2l0.5-2.6c0,0,1.4-48-57.7-46.6c0,0-46.5,0.8-50.8,46.7L47.5,73.2
	L47.5,73.2z"/>
</svg>
