<?xml version="1.0" encoding="UTF-8"?><svg id="Calque_1" xmlns="http://www.w3.org/2000/svg" viewBox="0 0 203 203"><defs><style>.cls-1,.cls-2,.cls-3,.cls-4,.cls-5{fill:none;}.cls-1,.cls-6,.cls-7{stroke-width:0px;}.cls-8{fill:#f8e8db;}.cls-8,.cls-9,.cls-3{stroke:#000;}.cls-8,.cls-2,.cls-3,.cls-4,.cls-5{stroke-miterlimit:10;}.cls-9{fill:#ffe178;}.cls-2,.cls-5{stroke:#1d1e1c;}.cls-7{fill:#fbf2eb;}.cls-4{stroke:#f8e8db;}.cls-4,.cls-5{stroke-width:.97px;}</style></defs><circle class="cls-9" cx="101.5" cy="101.5" r="101"/><rect class="cls-1" x="36.85" y="13.29" width="130.01" height="164.93"/><path class="cls-7" d="M48.11,93.78s-14.71-2.49-9.48,14.92c0,0,2.83,10.05,13.03,15.15"/><path class="cls-8" d="M48.11,93.78s-14.71-2.49-9.48,14.92c0,0,2.83,10.05,13.03,15.15"/><path class="cls-8" d="M155.26,93.77s14.58-3.08,10.07,14.52c0,0-2.41,10.17-12.38,15.68"/><path class="cls-3" d="M155.26,93.77s14.58-3.08,10.07,14.52c0,0-2.41,10.17-12.38,15.68"/><path class="cls-8" d="M101.33,28.15c-15.6,0-49.41,4.18-53.2,42.9,0,0-4.34,57.2,10.44,81.61,8,13.22,21.41,24.86,42.53,24.86,19.74,0,36.57-10.18,44.44-23.26,4.63-7.68,11.93-26.98,8.79-84.34,0,0,0-41.81-53.01-41.81v.03Z"/><path class="cls-6" d="M78.28,101.06c1.61,0,2.92-1.31,2.92-2.92s-1.31-2.92-2.92-2.92-2.92,1.31-2.92,2.92,1.31,2.92,2.92,2.92Z"/><path class="cls-2" d="M84.59,83.03l-9.24,1"/><path class="cls-6" d="M123.94,101.06c1.61,0,2.92-1.31,2.92-2.92s-1.31-2.92-2.92-2.92-2.92,1.31-2.92,2.92,1.31,2.92,2.92,2.92Z"/><path class="cls-2" d="M117.61,83.03l9.25,1"/><path class="cls-2" d="M100.89,107.19l-3.15,23.85,7.53,1.49"/><path class="cls-5" d="M83.66,146.83s15.79,11.15,34.9,0"/><path class="cls-6" d="M147.92,75.74c3.73,14.1.9,39.18-3.37,51.51-2.17,6.27-7.29,14.07-13.83,13.03-8.99-1.43-12.69-3-30.52-3-7.47,0-17.57.9-28.85,2.39-6.44.85-12.56-6.02-13.81-12.4-5.2-26.36-5.3-39.9-2.67-51.38,2.99-12.98-4.29-16.9-4.29-16.9-1.48,5-2.25,15.4-2.84,20.21,0,0-4.66,57.81,15.53,79.43,5.17,6.35,15.02,17.23,35.34,18.87,11.63.93,23.66-1.17,37.17-12.03,10.92-8.77,21.91-20.69,18.58-95.51,0,0-.67-5.32-2.01-10.97,0,0-7.37,5.54-4.4,16.77l-.03-.02Z"/><path class="cls-4" d="M84.06,156.95s17.44,12.01,34.9,0"/><path class="cls-6" d="M47.53,73.16s29.1-9.64,53.57-10.45c0,0,34.36-.34,53.86,10.19l.51-2.57s1.36-48.02-57.73-46.63c0,0-46.47.84-50.81,46.7l.6,2.75Z"/></svg>