<?xml version="1.0" encoding="UTF-8"?><svg id="Calque_1" xmlns="http://www.w3.org/2000/svg" xmlns:xlink="http://www.w3.org/1999/xlink" viewBox="0 0 203 203"><defs><style>.cls-1{clip-path:url(#clippath);}.cls-2,.cls-3{fill:none;}.cls-2,.cls-4{stroke-width:0px;}.cls-5,.cls-6,.cls-7{fill:#f8e8db;}.cls-5,.cls-6,.cls-7,.cls-3{stroke-miterlimit:10;}.cls-5,.cls-3{stroke:#1d1d1b;}.cls-6,.cls-7,.cls-8{stroke:#000;}.cls-7{stroke-width:1.35px;}.cls-8{fill:#f0aac8;}</style><clipPath id="clippath"><circle class="cls-2" cx="101.5" cy="101.5" r="101"/></clipPath></defs><circle class="cls-8" cx="101.5" cy="101.5" r="101"/><g class="cls-1"><path class="cls-4" d="M104.22,26.21s-38.73-16.53-49.75,21.26c0,0-3.36,14.32-16.21,29.95-5.18,6.3-16.99,16.05-9.66,32.77,2.99,6.82,6.08,14.39-1.75,24.77-4.23,5.6-8.82,13.26-1.06,23.85,3.61,4.92,5.79,5.11,1.58,11.29-.96,3.66,33.94,31.67,64.14,31.9,3.5.03,8.92,2.38,22.57-.28,17.3-1.82,41.33-11.17,46.12-17.46,3.51-4.61,29.03-8.83,15.18-23.12-6.18-6.38-.77-15.5.37-21.35,0,0,7.42-21.67-3.63-38.65-4.21-6.47-4.07-11.13-7.32-26.18-4.6-21.24-17.54-70.05-60.58-48.76h.01Z"/><path class="cls-5" d="M53.06,95.98s-14.83-2.43-9.84,14.16c0,0,2.7,9.59,12.42,14.45"/><path class="cls-7" d="M154.45,95.9s13.92-2.94,9.61,13.84c0,0-2.3,9.7-11.82,14.95"/><path class="cls-6" d="M103.01,31.21c-14.88,0-47.13,3.99-50.74,40.93,0,0-3.1,50.5,10.99,73.79,7.62,12.6,19.7,26.04,39.85,26.04,18.83,0,33.84-13.67,41.34-26.14,4.41-7.33,12.11-20.04,9.11-74.75,0,0,0-39.87-50.55-39.87Z"/><circle class="cls-4" cx="84.22" cy="98.8" r="2.79"/><line class="cls-3" x1="90.25" y1="84.41" x2="81.43" y2="85.36"/><circle class="cls-4" cx="127.78" cy="98.8" r="2.79"/><line class="cls-3" x1="121.75" y1="84.41" x2="130.56" y2="85.36"/><polyline class="cls-3" points="105.8 107.46 102.79 130.2 109.99 131.63"/><path class="cls-3" d="M89.35,145.26s15.06,10.63,33.29,0"/><path class="cls-4" d="M107.76,45.1s31.82,4.73,33.31,34.68c0,0,.05,19.32,13.71,16.75l5.01-30.96-26.04-35.68-37.85-1.11-33.08,12.09-12.7,28.94s1.62,19.58,2.13,26.11c2.47,31.43,5.74,35.74,5.74,35.74,0,0,11.31-24.97,6.9-40.23-1.71-5.91-6.39-14.19,11.81-21.6,4.62-1.88,12.64-4.83,12.73-15.35.06-6.5,8.76-8.95,18.34-9.38h0Z"/></g></svg>