<?xml version="1.0" encoding="utf-8"?>
<!-- Generator: Adobe Illustrator 28.1.0, SVG Export Plug-In . SVG Version: 6.00 Build 0)  -->
<svg version="1.1" id="Calque_1" xmlns="http://www.w3.org/2000/svg" xmlns:xlink="http://www.w3.org/1999/xlink" x="0px" y="0px"
	 viewBox="0 0 203 203" style="enable-background:new 0 0 203 203;" xml:space="preserve">
<style type="text/css">
	.st0{fill:#AAC382;stroke:#000000;}
	.st1{clip-path:url(#SVGID_00000057862231145320562950000016267583075503702186_);}
	.st2{fill:#F8E8DB;stroke:#1D1D1B;stroke-miterlimit:10;}
	.st3{fill:#F8E8DB;stroke:#000000;stroke-width:1.35;stroke-miterlimit:10;}
	.st4{fill:#F8E8DB;stroke:#000000;stroke-miterlimit:10;}
	.st5{fill:none;stroke:#1D1D1B;stroke-miterlimit:10;}
</style>
<circle class="st0" cx="101.5" cy="101.5" r="101"/>
<g>
	<defs>
		<circle id="SVGID_1_" cx="101.5" cy="101.5" r="101"/>
	</defs>
	<clipPath id="SVGID_00000093178572274585550130000005211116549852618936_">
		<use xlink:href="#SVGID_1_"  style="overflow:visible;"/>
	</clipPath>
	<g style="clip-path:url(#SVGID_00000093178572274585550130000005211116549852618936_);">
		<path d="M104.2,26.2c0,0-38.7-16.5-49.8,21.3c0,0-3.4,14.3-16.2,29.9c-5.2,6.3-17,16.1-9.7,32.8c3,6.8,6.1,14.4-1.8,24.8
			c-4.2,5.6-8.8,13.3-1.1,23.9c3.6,4.9,5.8,5.1,1.6,11.3c-1,3.7,33.9,31.7,64.1,31.9c3.5,0,8.9,2.4,22.6-0.3
			c17.3-1.8,41.3-11.2,46.1-17.5c3.5-4.6,29-8.8,15.2-23.1c-6.2-6.4-0.8-15.5,0.4-21.4c0,0,7.4-21.7-3.6-38.7
			c-4.2-6.5-4.1-11.1-7.3-26.2C160.2,53.7,147.3,4.9,104.2,26.2L104.2,26.2L104.2,26.2z"/>
		<path class="st2" d="M53.1,96c0,0-14.8-2.4-9.8,14.2c0,0,2.7,9.6,12.4,14.4"/>
		<path class="st3" d="M154.4,95.9c0,0,13.9-2.9,9.6,13.8c0,0-2.3,9.7-11.8,14.9"/>
		<path class="st4" d="M103,31.2c-14.9,0-47.1,4-50.7,40.9c0,0-3.1,50.5,11,73.8c7.6,12.6,19.7,26,39.8,26
			c18.8,0,33.8-13.7,41.3-26.1c4.4-7.3,12.1-20,9.1-74.8C153.6,71.1,153.6,31.2,103,31.2z"/>
		<circle cx="84.2" cy="98.8" r="2.8"/>
		<line class="st5" x1="90.2" y1="84.4" x2="81.4" y2="85.4"/>
		<circle cx="127.8" cy="98.8" r="2.8"/>
		<line class="st5" x1="121.8" y1="84.4" x2="130.6" y2="85.4"/>
		<polyline class="st5" points="105.8,107.5 102.8,130.2 110,131.6 		"/>
		<path class="st5" d="M89.3,145.3c0,0,15.1,10.6,33.3,0"/>
		<path d="M107.8,45.1c0,0,31.8,4.7,33.3,34.7c0,0,0.1,19.3,13.7,16.8l5-31l-26-35.7l-37.8-1.1L62.8,40.9L50.1,69.8
			c0,0,1.6,19.6,2.1,26.1c2.5,31.4,5.7,35.7,5.7,35.7s11.3-25,6.9-40.2c-1.7-5.9-6.4-14.2,11.8-21.6C81.3,68,89.3,65,89.4,54.5
			C89.5,48,98.2,45.5,107.8,45.1L107.8,45.1L107.8,45.1z"/>
	</g>
</g>
</svg>
