<?xml version="1.0" encoding="utf-8"?>
<!-- Generator: Adobe Illustrator 28.1.0, SVG Export Plug-In . SVG Version: 6.00 Build 0)  -->
<svg version="1.1" id="Calque_1" xmlns="http://www.w3.org/2000/svg" xmlns:xlink="http://www.w3.org/1999/xlink" x="0px" y="0px"
	 viewBox="0 0 203 203" style="enable-background:new 0 0 203 203;" xml:space="preserve">
<style type="text/css">
	.st0{fill:#4669AA;stroke:#000000;}
	.st1{fill:#F8E8DB;stroke:#000000;stroke-miterlimit:10;}
	.st2{fill:none;stroke:#000000;stroke-miterlimit:10;}
</style>
<circle class="st0" cx="101.5" cy="101.5" r="101"/>
<path d="M113.8,26.7c0,0-19.6-14.7-35.9,2.9c0,0-6.2,8.8-17.3,6.9c0,0-14.7-2.9-16,15.3c0,0,1.5,17.4-9.8,20.9
	c-7.9,2.4-15.1,10-11.8,30.7c1,5.9,0.2,18-2.9,23.8c-4.6,8.5-9.5,25.8,19.3,33.3c0,0,1.6,0.9,15.3,0c0,0,34.6-4.4,46.2-4.4
	c11.7,0,46.5,4.4,46.5,4.4h14.5c0,0,32.6,0.2,22.5-24.1c-2.7-6.6-8.3-10.4,0.2-28.4c0,0,4.8-14.1-10.7-22.2c-4.2-2.2-3.8-9-2.9-18.9
	c0.6-7,0.1-19.8-19.2-20.6c-5-0.2-3.9-7-7-14C141.6,25,130.6,20.9,113.8,26.7L113.8,26.7z"/>
<path class="st1" d="M154.4,94.2c0,0,13.5-2.8,9.3,13.4c0,0-2.2,9.4-11.4,14.5"/>
<path class="st1" d="M52.1,92.8c0,0-13.6-2.3-8.7,13.8c0,0,2.6,9.3,12,14"/>
<path class="st1" d="M103.3,32.9c-14.8,0-46.9,4-50.5,40.7c0,0-4.1,50.8,9.9,74c7.6,12.5,20.3,27.1,40.4,27.1
	c18.8,0,34.7-13.2,42.2-25.6c4.4-7.3,11.3-22.1,8.4-76.6C153.6,72.6,153.6,32.9,103.3,32.9L103.3,32.9z"/>
<circle cx="81.4" cy="99.4" r="2.8"/>
<line class="st2" x1="87.4" y1="85" x2="78.6" y2="86"/>
<circle cx="124.7" cy="99.4" r="2.8"/>
<line class="st2" x1="118.7" y1="85" x2="127.5" y2="86"/>
<polyline class="st2" points="102.8,108 99.9,130.6 107,132 "/>
<path class="st2" d="M86.5,145.6c0,0,15,10.6,33.1,0"/>
<path d="M52.1,92.8c0,0,17.6-7.6,18-17.8s6.4-13.9,16.3-18.7c5.3-2.5,24.4-16.8,14.4-26.2c-5.2-4.9-48.7,15.1-48.7,15.1
	S52.1,92.8,52.1,92.8z"/>
<path d="M97.7,36.5c0,0,18.5,25.3,30.5,23.8c11.9-1.5,18.8,24.3,24.1,31.1c3.1,4,15.6,3.6,15.6,3.6l-5.1-31.8l-27.4-26.8L107,29.4
	L97.7,36.5L97.7,36.5z"/>
</svg>
