<?xml version="1.0" encoding="UTF-8"?><svg id="Calque_1" xmlns="http://www.w3.org/2000/svg" viewBox="0 0 203 203"><defs><style>.cls-1{fill:#f8e8db;}.cls-1,.cls-2,.cls-3{stroke:#000;}.cls-1,.cls-3{stroke-miterlimit:10;}.cls-2{fill:#ffe178;}.cls-3{fill:none;}.cls-4{stroke-width:0px;}</style></defs><circle class="cls-2" cx="101.5" cy="101.5" r="101"/><path class="cls-4" d="M113.77,26.68s-19.58-14.68-35.89,2.94c0,0-6.2,8.81-17.29,6.85,0,0-14.67-2.94-15.98,15.34,0,0,1.45,17.41-9.79,20.88-7.85,2.42-15.09,9.96-11.75,30.67.95,5.91.19,17.96-2.94,23.75-4.57,8.47-9.46,25.77,19.25,33.31,0,0,1.56.92,15.32,0,0,0,34.6-4.4,46.21-4.41,11.67,0,46.46,4.41,46.46,4.41h14.53s32.57.16,22.51-24.11c-2.72-6.56-8.34-10.44.24-28.39,0,0,4.83-14.11-10.68-22.19-4.25-2.21-3.82-8.97-2.94-18.92.62-7.01.14-19.79-19.25-20.56-4.96-.2-3.94-7.05-7.03-14.03-3.19-7.2-14.11-11.28-31-5.55Z"/><path class="cls-1" d="M154.4,94.15s13.47-2.85,9.3,13.39c0,0-2.23,9.38-11.44,14.46"/><path class="cls-1" d="M52.14,92.82s-13.57-2.29-8.74,13.76c0,0,2.61,9.28,12.02,13.98"/><path class="cls-1" d="M103.27,32.94c-14.81,0-46.9,3.97-50.5,40.73,0,0-4.12,50.8,9.91,73.98,7.59,12.54,20.32,27.11,40.38,27.11,18.75,0,34.72-13.17,42.19-25.58,4.39-7.3,11.33-22.11,8.35-76.56,0,0,0-39.68-50.31-39.68Z"/><circle class="cls-4" cx="81.38" cy="99.37" r="2.77"/><line class="cls-3" x1="87.38" y1="85.04" x2="78.6" y2="85.99"/><circle class="cls-4" cx="124.72" cy="99.37" r="2.77"/><line class="cls-3" x1="118.72" y1="85.04" x2="127.5" y2="85.99"/><polyline class="cls-3" points="102.85 107.98 99.86 130.62 107.02 132.04"/><path class="cls-3" d="M86.48,145.6s14.99,10.58,33.13,0"/><path class="cls-4" d="M52.14,92.82s17.57-7.62,18.02-17.8,6.37-13.91,16.33-18.66c5.26-2.51,24.42-16.79,14.43-26.18-5.18-4.87-48.71,15.06-48.71,15.06l-.07,47.58Z"/><path class="cls-4" d="M97.69,36.49s18.52,25.28,30.46,23.81c11.95-1.47,18.79,24.35,24.1,31.11,3.13,3.99,15.59,3.63,15.59,3.63l-5.13-31.79-27.36-26.76-28.33-7.08-9.32,7.08Z"/></svg>