<?xml version="1.0" encoding="utf-8"?>
<!-- Generator: Adobe Illustrator 28.1.0, SVG Export Plug-In . SVG Version: 6.00 Build 0)  -->
<svg version="1.1" id="Calque_1" xmlns="http://www.w3.org/2000/svg" xmlns:xlink="http://www.w3.org/1999/xlink" x="0px" y="0px"
	 viewBox="0 0 203 203" style="enable-background:new 0 0 203 203;" xml:space="preserve">
<style type="text/css">
	.st0{fill:#4669AA;stroke:#000000;}
	.st1{fill:#F8E8DB;stroke:#000000;stroke-miterlimit:10;}
	.st2{fill:none;stroke:#000000;stroke-miterlimit:10;}
	.st3{fill:none;stroke:#1D1D1B;stroke-width:1.33;stroke-miterlimit:10;}
	.st4{fill:none;stroke:#F8E8DB;stroke-miterlimit:10;}
</style>
<circle class="st0" cx="101.5" cy="101.5" r="101"/>
<path d="M146.9,129.3c0,5.8,2.8,10.5,6.3,10.5c3.5,0,6.3-4.7,6.3-10.5c0-5.8-2.8-11.7-6.3-11.7C149.7,117.6,146.9,123.5,146.9,129.3
	z"/>
<path d="M159.3,126.5c0,0-5.5-34.4-3.7-50.2l-12.8,2.9c0,0,4.4-5.1,7.3-2.8c3.9,3,2.1,15.1,0,22.9l2.3,25.6L159.3,126.5L159.3,126.5
	z"/>
<path d="M57.3,129.3c0,5.8-2.8,10.5-6.3,10.5s-6.3-4.7-6.3-10.5s2.8-11.7,6.3-11.7S57.3,123.5,57.3,129.3z"/>
<path class="st1" d="M151.8,95.2c0,0,13.8-2.9,9.5,13.7c0,0-2.3,9.6-11.7,14.8"/>
<path class="st1" d="M101,38.5c-14.7,0-46.5,3.9-50.1,40.4c0,0-4.1,53.9,9.8,76.9c7.5,12.4,20.2,23.4,40.1,23.4
	c18.6,0,34.5-9.6,41.9-21.9c4.4-7.2,11.2-25.4,8.3-79.5C150.9,77.9,150.9,38.5,101,38.5L101,38.5z"/>
<circle cx="79.3" cy="104.4" r="2.8"/>
<line class="st2" x1="85.2" y1="90.2" x2="76.5" y2="91.2"/>
<circle cx="122.3" cy="104.4" r="2.8"/>
<line class="st2" x1="116.3" y1="90.2" x2="125.1" y2="91.2"/>
<polyline class="st2" points="100.6,113 97.6,135.4 104.7,136.9 "/>
<path class="st3" d="M84.3,150.3c0,0,14.9,10.5,32.9,0"/>
<path d="M50.5,79.9c0,0,62.5-2.2,73.4-18l3.2-3.7c0,0,16.6,41.6,24.7,44.2c0,0,4.2-17.6,3.9-33.5c0,0,1.7-9.2-11.1-18.4
	c0,0,2.3-12-12.2-14.3c0,0-33-31.9-44.3-9.9c0,0-20.2-9.8-32.5,6.4c0,0-6.9,13.1,1.4,20.1c0,0-13.7,3.8-13.3,13
	C43.8,65.8,43.2,75.8,50.5,79.9L50.5,79.9z"/>
<path d="M45,126.5c0,0,5.7-38.8,1.2-50.7l15.3,3.4c0,0-4.3-5.1-7.3-2.8c-3.9,3-2.1,15.1,0,22.9l-2.3,25.6L45,126.5L45,126.5z"/>
<path class="st1" d="M50.9,95.3c0,0-13.9-2.3-8.9,14.1c0,0,2.7,9.5,12.3,14.3"/>
<path d="M145.1,102.6c1.8,10.9,0.8,29.1-3.2,38.2c-2,4.6-6.9,10.4-13,9.7c-8.5-1.1-12.3-4-29.1-4c-7,0-16.2,2.5-26.8,3.6
	c-6.1,0.6-11.8-4.5-13-9.2c-4.9-19.6-4.1-27.6-4.7-36.4c-0.4-6-5-13.8-5-13.8c-0.9,2.3-1.7,1.8-1.5,4.5c0.1,1.6,0.6,6.2,0.7,8.7
	c0,0-0.2,37.6,15.5,58.1c3.8,4.9,14.2,16.1,33.3,17.3c10.9,0.7,19.4-1.6,32.2-9.6c5.7-3.6,12.2-9.5,16.3-22.7
	c3.2-10.5,4.6-25.5,4.3-48.6c0,0-0.6-3.9-1.9-8.1c0,0-2,2.2-3.3,5.4C145.1,97.6,144.6,100,145.1,102.6L145.1,102.6z"/>
<path class="st4" d="M82.4,158.9c0,0,18.8,12.9,37.6,0"/>
</svg>
