<?xml version="1.0" encoding="UTF-8"?><svg id="Calque_1" xmlns="http://www.w3.org/2000/svg" viewBox="0 0 203 203"><defs><style>.cls-1{fill:#f8e8db;}.cls-1,.cls-2,.cls-3{stroke:#000;}.cls-1,.cls-3,.cls-4,.cls-5{stroke-miterlimit:10;}.cls-2{fill:#aac382;}.cls-3,.cls-4,.cls-5{fill:none;}.cls-4{stroke:#f8e8db;}.cls-6{stroke-width:0px;}.cls-5{stroke:#1d1d1b;stroke-width:1.33px;}</style></defs><circle class="cls-2" cx="101.5" cy="101.5" r="101"/><path class="cls-6" d="M146.95,129.29c0,5.82,2.8,10.54,6.26,10.54,3.46,0,6.26-4.72,6.26-10.54,0-5.82-2.8-11.72-6.26-11.72-3.46,0-6.26,5.9-6.26,11.72Z"/><path class="cls-6" d="M159.26,126.52s-5.48-34.38-3.68-50.16l-12.82,2.87s4.35-5.05,7.33-2.77c3.92,3,2.13,15.13,0,22.87l2.33,25.59,6.84,1.61Z"/><path class="cls-6" d="M57.35,129.29c0,5.82-2.8,10.54-6.26,10.54s-6.26-4.72-6.26-10.54,2.8-11.72,6.26-11.72,6.26,5.9,6.26,11.72Z"/><path class="cls-1" d="M151.81,95.25s13.75-2.91,9.49,13.67c0,0-2.28,9.58-11.67,14.76"/><path class="cls-1" d="M101,38.5c-14.7,0-46.55,3.94-50.12,40.43,0,0-4.08,53.89,9.83,76.9,7.53,12.45,20.17,23.43,40.07,23.43,18.6,0,34.46-9.59,41.87-21.91,4.35-7.24,11.24-25.42,8.28-79.46,0,0,0-39.38-49.93-39.38Z"/><circle class="cls-6" cx="79.28" cy="104.42" r="2.75"/><line class="cls-3" x1="85.23" y1="90.2" x2="76.52" y2="91.15"/><circle class="cls-6" cx="122.3" cy="104.42" r="2.75"/><line class="cls-3" x1="116.34" y1="90.2" x2="125.05" y2="91.15"/><polyline class="cls-3" points="100.59 112.97 97.62 135.44 104.73 136.85"/><path class="cls-5" d="M84.35,150.31s14.87,10.5,32.88,0"/><path class="cls-6" d="M50.48,79.9s62.51-2.21,73.45-18l3.15-3.69s16.6,41.62,24.73,44.19c0,0,4.17-17.64,3.95-33.48,0,0,1.71-9.2-11.13-18.41,0,0,2.32-12.01-12.2-14.34,0,0-32.96-31.89-44.31-9.85,0,0-20.17-9.75-32.48,6.36,0,0-6.93,13.15,1.42,20.13,0,0-13.69,3.82-13.26,13.03,0,0-.55,9.95,6.69,14.06Z"/><path class="cls-6" d="M45.05,126.52s5.72-38.75,1.24-50.71l15.26,3.42s-4.35-5.05-7.33-2.77c-3.92,3-2.13,15.13,0,22.87l-2.33,25.59-6.84,1.61Z"/><path class="cls-1" d="M50.87,95.27s-13.86-2.34-8.92,14.05c0,0,2.67,9.48,12.27,14.27"/><path class="cls-6" d="M145.05,102.64c1.84,10.88.84,29.05-3.17,38.2-2.04,4.64-6.86,10.43-13.01,9.66-8.47-1.06-12.28-4.01-29.05-4.01-7.02,0-16.21,2.46-26.82,3.56-6.07.63-11.82-4.47-13-9.2-4.89-19.55-4.07-27.57-4.68-36.43-.41-5.96-4.99-13.75-4.99-13.75-.88,2.33-1.66,1.79-1.51,4.47.09,1.57.63,6.25.69,8.73,0,0-.23,37.6,15.51,58.06,3.78,4.92,14.21,16.09,33.32,17.3,10.94.69,19.44-1.58,32.16-9.64,5.72-3.62,12.25-9.52,16.26-22.68,3.2-10.51,4.57-25.52,4.32-48.59,0,0-.64-3.95-1.89-8.14,0,0-1.99,2.16-3.26,5.38-.8,2.03-1.32,4.47-.88,7.05Z"/><path class="cls-4" d="M82.39,158.91s18.77,12.93,37.57,0"/></svg>