<?xml version="1.0" encoding="utf-8"?>
<!-- Generator: Adobe Illustrator 28.1.0, SVG Export Plug-In . SVG Version: 6.00 Build 0)  -->
<svg version="1.1" id="Calque_1" xmlns="http://www.w3.org/2000/svg" xmlns:xlink="http://www.w3.org/1999/xlink" x="0px" y="0px"
	 viewBox="0 0 203 203" style="enable-background:new 0 0 203 203;" xml:space="preserve">
<style type="text/css">
	.st0{fill:#AAC382;stroke:#000000;}
	.st1{clip-path:url(#SVGID_00000036961497203064416680000018215081404498154143_);}
	.st2{fill:#F8E8DB;stroke:#000000;stroke-miterlimit:10;}
	.st3{fill:none;stroke:#000000;stroke-miterlimit:10;}
</style>
<circle class="st0" cx="101.5" cy="101.5" r="101"/>
<g>
	<defs>
		<circle id="SVGID_1_" cx="101.5" cy="101.5" r="101"/>
	</defs>
	<clipPath id="SVGID_00000145736626937505730200000001383197584564941978_">
		<use xlink:href="#SVGID_1_"  style="overflow:visible;"/>
	</clipPath>
	<g style="clip-path:url(#SVGID_00000145736626937505730200000001383197584564941978_);">
		<path d="M28.8,161.6c-2.9-10-7.7-25.5-2.3-35.1c4.2-7.4,3.9-9.2,4-24.3c0.1-11.6-0.2-30.9,18.5-42.4c4.1-2.5,8-4.2,13.6-13.8
			c2.5-4.3,4.9-9,17.3-9.5c0,0-11.9-14,0-24.5c0,0,17.4-15.6,35.4,0c4.9,4.3,5.7,14,0,21.6c0,0,19,3.3,25.9,15.2
			c2.9,5.1,8.5,10.5,18.1,14.8c8.8,3.9,14.1,10.7,15.6,35.3c0.3,4.9-1.1,11.7,4.1,17.2c6.6,7,7.1,13.8,0,38.6
			c-1.2,4.1-0.6,9.6,2.1,17.2c1.2,3.4-9.7,4.9-12.6,9.7s-12.4,5.3-12.4,5.3s-11,9.2-27.4,12.2c-7.2,1.3-22.4,5-36.8,3.6
			c-15.2-1.5-29.5-8.1-31.8-8.6c-12-2.9-10.2-6.1-19.2-11.2c-5.4-3.1-10.9,5.1-12.6,0.7C25.4,175.7,30.7,168.3,28.8,161.6
			L28.8,161.6L28.8,161.6z"/>
		<path class="st2" d="M52.5,103.2c0,0-13.8-2.3-8.9,14c0,0,2.7,9.4,12.2,14.2"/>
		<path class="st2" d="M153.1,103.2c0,0,13.7-2.9,9.4,13.6c0,0-2.3,9.5-11.6,14.7"/>
		<path class="st2" d="M102.5,39.6c-14.6,0-46.3,3.9-49.9,40.3c0,0-3,49.7,10.8,72.6c7.5,12.4,19.4,25.6,39.2,25.6
			c18.5,0,33.3-13.4,40.7-25.7c4.3-7.2,11.9-19.7,9-73.5C152.2,78.8,152.2,39.6,102.5,39.6C102.5,39.6,102.5,39.6,102.5,39.6z"/>
		<circle cx="84" cy="106.1" r="2.7"/>
		<line class="st3" x1="89.9" y1="91.9" x2="81.2" y2="92.8"/>
		<circle cx="126.8" cy="106.1" r="2.7"/>
		<line class="st3" x1="120.9" y1="91.9" x2="129.6" y2="92.8"/>
		<polyline class="st3" points="105.2,114.6 102.2,136.9 109.3,138.3 		"/>
		<path class="st3" d="M89,151.8c0,0,14.8,10.5,32.7,0"/>
		<path d="M52.5,103.2c0,0-5.5-15.9-0.3-33.6c0,0,7.3-26.8,40.6-31.3c0,0,40.7-5,52.3,17.8c2.8,5.5,7.4,11.7,9.2,19.2
			c2.1,9.2,1.2,18.6-1.2,27.4c0,0-13.8-4.2-20.5-26.8c-3-10.2-21-10.7-29-16.9c0,0-5.7,9.4-17,14.7C67.5,82.7,75,90.3,52.5,103.2
			L52.5,103.2L52.5,103.2z"/>
	</g>
</g>
</svg>
