<?xml version="1.0" encoding="UTF-8"?><svg id="Calque_1" xmlns="http://www.w3.org/2000/svg" xmlns:xlink="http://www.w3.org/1999/xlink" viewBox="0 0 203 203"><defs><style>.cls-1{clip-path:url(#clippath);}.cls-2,.cls-3{fill:none;}.cls-2,.cls-4{stroke-width:0px;}.cls-5{fill:#f8e8db;}.cls-5,.cls-6,.cls-3{stroke:#000;}.cls-5,.cls-3{stroke-miterlimit:10;}.cls-6{fill:#4669aa;}</style><clipPath id="clippath"><circle class="cls-2" cx="101.5" cy="101.5" r="101"/></clipPath></defs><circle class="cls-6" cx="101.5" cy="101.5" r="101"/><g class="cls-1"><path class="cls-4" d="M28.79,161.57c-2.89-9.97-7.73-25.47-2.3-35.12,4.18-7.43,3.92-9.19,4.03-24.35.08-11.57-.18-30.93,18.51-42.41,4.13-2.54,8.03-4.16,13.57-13.82,2.46-4.28,4.94-9.05,17.27-9.53,0,0-11.93-13.96,0-24.45,0,0,17.41-15.57,35.37,0,4.95,4.29,5.65,14.05,0,21.59,0,0,19.02,3.32,25.91,15.25,2.92,5.06,8.54,10.53,18.1,14.77,8.81,3.91,14.05,10.73,15.63,35.27.32,4.94-1.05,11.68,4.09,17.16,6.6,7.04,7.12,13.81,0,38.6-1.19,4.15-.65,9.64,2.13,17.16,1.25,3.38-9.72,4.9-12.6,9.67s-12.37,5.34-12.37,5.34c0,0-11.04,9.23-27.41,12.25-7.17,1.32-22.42,4.97-36.82,3.56-15.25-1.5-29.54-8.11-31.81-8.65-11.95-2.85-10.19-6.13-19.16-11.16-5.44-3.05-10.88,5.14-12.57.7-2.93-7.69,2.36-15.11.42-21.8v-.02Z"/><path class="cls-5" d="M52.54,103.22s-13.8-2.33-8.88,13.99c0,0,2.66,9.44,12.22,14.21"/><path class="cls-5" d="M153.05,103.2s13.69-2.89,9.45,13.62c0,0-2.27,9.54-11.63,14.7"/><path class="cls-5" d="M102.46,39.57c-14.64,0-46.35,3.92-49.91,40.26,0,0-3.05,49.68,10.81,72.58,7.5,12.4,19.38,25.62,39.2,25.62,18.53,0,33.29-13.44,40.67-25.71,4.34-7.21,11.91-19.71,8.96-73.53,0,0,0-39.22-49.72-39.22h-.01Z"/><circle class="cls-4" cx="83.98" cy="106.06" r="2.74"/><line class="cls-3" x1="89.91" y1="91.9" x2="81.24" y2="92.84"/><circle class="cls-4" cx="126.82" cy="106.06" r="2.74"/><line class="cls-3" x1="120.89" y1="91.9" x2="129.56" y2="92.84"/><polyline class="cls-3" points="105.21 114.57 102.25 136.94 109.32 138.34"/><path class="cls-3" d="M89.03,151.75s14.81,10.46,32.74,0"/><path class="cls-4" d="M52.54,103.22s-5.49-15.92-.27-33.61c0,0,7.29-26.84,40.65-31.27,0,0,40.67-4.99,52.29,17.77,2.8,5.49,7.44,11.66,9.18,19.19,2.13,9.19,1.25,18.58-1.18,27.44,0,0-13.8-4.18-20.48-26.79-3.02-10.22-21.03-10.66-28.96-16.9,0,0-5.71,9.42-17.04,14.68-19.22,8.92-11.75,16.54-34.19,29.48h0Z"/></g></svg>