<?xml version="1.0" encoding="UTF-8"?><svg id="Calque_1" xmlns="http://www.w3.org/2000/svg" viewBox="0 0 203 203"><defs><style>.cls-1{fill:#f8e8db;}.cls-1,.cls-2,.cls-3{stroke:#000;}.cls-1,.cls-3{stroke-miterlimit:10;}.cls-2{fill:#ffe178;}.cls-3{fill:none;}.cls-4{stroke-width:0px;}</style></defs><circle class="cls-2" cx="101.5" cy="101.5" r="101"/><path class="cls-4" d="M126.32,27.74c-4.77.3-9.55-.85-13.59-3.4-10.02-6.32-32.71-13.8-65.26,15.35,0,0-23.49,21.29-16.75,77.63.09.76.23,1.52.39,2.27.72,3.2,2.76,12.76,2.76,18.83,0,7.37-1.96,14.47-3.53,19.93-1.22,4.24-.85,17.33,14.6,16.76.44-.02.9-.03,1.34-.02l98.09-.22h6.41c11.53,0,22.82-2.87,23.43-14.38.3-5.7-5.06-15.02-3.92-22.08,8.96-55.18-3.05-113.24-43.96-110.68Z"/><path class="cls-1" d="M156.84,94.89s13.9-1.65,8.19,14.41c0,0-3.11,9.3-12.9,13.6"/><path class="cls-1" d="M52.25,123.04c-9.57-4.77-12.22-14.21-12.22-14.21-4.91-16.33,8.89-14,8.89-14"/><path class="cls-1" d="M101.48,29.79c-14.64,0-49.81,6.57-53.37,42.92,0,0-1.2,47.19,11.96,70.52,10.39,18.42,24.33,25.06,44.16,25.06,18.53,0,31.25-9,40.21-27.38,3.69-7.56,14.73-34.68,11.15-70.79,0,0-4.37-40.32-54.11-40.32Z"/><path class="cls-4" d="M157.7,90.98c-1.01,3.82-7.97-7.76-11.33-13.62-6.39-11.15-23.36-31.59-23.36-31.59,0,0-43.05,33.1-75.24,45.85,0,0-13.76-54.3,43.43-64.07,0,0,39.6-7.48,58.48,23.46,0,0,14.61,15.09,8.03,39.98Z"/><circle class="cls-4" cx="80.15" cy="99.45" r="2.74"/><line class="cls-3" x1="86.08" y1="85.29" x2="77.41" y2="86.23"/><circle class="cls-4" cx="123" cy="99.45" r="2.74"/><line class="cls-3" x1="117.07" y1="85.29" x2="125.75" y2="86.23"/><polyline class="cls-3" points="101.24 104.43 98.28 126.81 105.36 128.21"/><path class="cls-3" d="M85.77,140.9s14.82,10.46,32.75,0"/></svg>