<?xml version="1.0" encoding="utf-8"?>
<!-- Generator: Adobe Illustrator 28.1.0, SVG Export Plug-In . SVG Version: 6.00 Build 0)  -->
<svg version="1.1" id="Calque_1" xmlns="http://www.w3.org/2000/svg" xmlns:xlink="http://www.w3.org/1999/xlink" x="0px" y="0px"
	 viewBox="0 0 203 203" style="enable-background:new 0 0 203 203;" xml:space="preserve">
<style type="text/css">
	.st0{fill:#F0AAC8;stroke:#000000;}
	.st1{fill:#1D1D1B;}
	.st2{fill:#F8E8DB;stroke:#000000;stroke-miterlimit:10;}
	.st3{fill:none;stroke:#000000;stroke-miterlimit:10;}
</style>
<circle class="st0" cx="101.5" cy="101.5" r="101"/>
<path class="st1" d="M101.9,35.9"/>
<g>
	<path class="st2" d="M49.5,88c0,0-14.2-2.4-9.2,14.4c0,0,2.7,9.7,12.6,14.7"/>
	<path class="st2" d="M153.2,88c0,0,14.1-3,9.8,14.1c0,0-2.3,9.8-12,15.2"/>
	<path class="st2" d="M101,30.7c-15.1,0-47.8,4-51.5,41.6c0,0-4.2,51.8,10.1,75.5c7.7,12.8,20.7,27.7,41.2,27.7
		c19.1,0,35.4-13.4,43-26.1c4.5-7.4,11.6-22.6,8.5-78.1C152.3,71.1,152.3,30.7,101,30.7z"/>
	<circle class="st1" cx="78.7" cy="100.8" r="2.8"/>
	<line class="st3" x1="84.8" y1="83.8" x2="75.8" y2="84.8"/>
	<circle class="st1" cx="122.9" cy="100.8" r="2.8"/>
	<line class="st3" x1="116.8" y1="83.8" x2="125.7" y2="84.8"/>
	<polyline class="st3" points="100.6,107.2 97.5,130.3 104.8,131.8 	"/>
	<path class="st3" d="M83.9,145.6c0,0,15.3,10.8,33.8,0"/>
	<path d="M48.9,88.6c0,0,12.9-0.4,10.4-26.1c0,0,58.7,8.3,87.6,0c0,0,0.8,25.6,6.2,28.9c0,0,3.3-6.6-0.1-34.3
		C151,40,116.7,24.4,104.8,29.3c0,0-6-2.5-12.6-1.4C65.4,32.7,54,46.6,51,58.6C49.1,66,47.6,73.5,48.9,88.6z"/>
	<path class="st3" d="M80.6,114.6h-4.9c-7.2,0-13-5.8-13-13v-3.9c0-4.1,3.3-7.3,7.3-7.3h16.2c4.1,0,7.3,3.3,7.3,7.3v3.9
		C93.5,108.8,87.7,114.6,80.6,114.6z"/>
	<path class="st3" d="M124.7,114.6h-4.9c-7.2,0-13-5.8-13-13v-3.9c0-4.1,3.3-7.3,7.3-7.3h16.2c4.1,0,7.3,3.3,7.3,7.3v3.9
		C137.7,108.8,131.9,114.6,124.7,114.6z"/>
	<path class="st3" d="M93.4,101.3c0,0,7.9-2,13.7,0"/>
	<line class="st3" x1="49.5" y1="88" x2="62.7" y2="99.1"/>
	<line class="st3" x1="152.7" y1="89.1" x2="137.4" y2="100.9"/>
</g>
</svg>
