<?xml version="1.0" encoding="UTF-8"?><svg id="Calque_1" xmlns="http://www.w3.org/2000/svg" viewBox="0 0 203 203"><defs><style>.cls-1{fill:#f8e8db;}.cls-1,.cls-2,.cls-3{stroke:#000;}.cls-1,.cls-3{stroke-miterlimit:10;}.cls-2{fill:#4669aa;}.cls-3{fill:none;}.cls-4{stroke-width:0px;}</style></defs><circle class="cls-2" cx="101.5" cy="101.5" r="101"/><path class="cls-1" d="M52.55,94.41s-13.62-2.3-8.77,13.81c0,0,2.62,9.32,12.06,14.03"/><path class="cls-1" d="M151.79,94.39s13.51-2.86,9.33,13.44c0,0-2.24,9.42-11.48,14.51"/><path class="cls-1" d="M101.84,40.87c-14.45,0-45.76,3.87-49.27,39.74,0,0-4.01,52.98,9.66,75.59,7.4,12.24,19.83,23.03,39.4,23.03,18.29,0,33.88-9.43,41.16-21.54,4.28-7.12,11.05-24.99,8.14-78.11,0,0,0-38.72-49.09-38.72Z"/><circle class="cls-4" cx="80.48" cy="105.68" r="2.71"/><line class="cls-3" x1="86.34" y1="91.7" x2="77.78" y2="92.63"/><circle class="cls-4" cx="122.78" cy="105.68" r="2.71"/><line class="cls-3" x1="116.92" y1="91.7" x2="125.48" y2="92.63"/><polyline class="cls-3" points="101.44 114.08 98.52 136.17 105.5 137.55"/><path class="cls-3" d="M85.47,150.79s14.62,10.32,32.33,0"/><path class="cls-4" d="M55.85,102.08c11.54-1.83,22.43-18.38,35.17-34.75,3.98-5.11,15.96-15.29,25.91,0,0,0,20.41,31.28,30.47,33.56,0,0,4.31,1.3,5.79,1.38,5.54.31,15.08-4.4,15.07-16.3,0-2.71-13.14,4.75-13.04,2.36,1-22.35-3.5-50.23-34.02-61.74-4.89-1.84-15.1-4.33-21.76,3.44,0,0-11.46-13.02-34.62,5.26,0,0-20.15,17.29-19.34,52.12.08,3.65-9.98-4.04-10.66-.32-1.01,5.53,7.06,17.19,21.02,14.98Z"/></svg>