<?xml version="1.0" encoding="UTF-8"?><svg id="Calque_1" xmlns="http://www.w3.org/2000/svg" viewBox="0 0 203 203"><defs><style>.cls-1{fill:#f8e8db;}.cls-1,.cls-2,.cls-3{stroke:#000;}.cls-1,.cls-3{stroke-miterlimit:10;}.cls-2{fill:#f0aac8;}.cls-3{fill:none;}.cls-4,.cls-5{stroke-width:0px;}.cls-5{fill:#1d1d1b;}</style></defs><circle class="cls-2" cx="101.5" cy="101.5" r="101"/><path class="cls-1" d="M50.73,96.55s-13.67-2.31-8.8,13.86c0,0,2.63,9.35,12.11,14.08"/><path class="cls-1" d="M150.33,96.53s13.57-2.87,9.36,13.49c0,0-2.25,9.45-11.52,14.57"/><path class="cls-1" d="M100.2,35.97c-14.5,0-45.93,3.89-49.46,39.89,0,0-4.03,53.18,9.7,75.88,7.43,12.28,19.9,26.86,39.54,26.86,18.36,0,34-13.2,41.31-25.36,4.3-7.14,11.09-25.08,8.17-78.41,0,0,0-38.86-49.27-38.86Z"/><circle class="cls-5" cx="78.76" cy="101.02" r="2.72"/><line class="cls-3" x1="84.64" y1="86.99" x2="76.04" y2="87.92"/><circle class="cls-5" cx="121.21" cy="101.02" r="2.72"/><line class="cls-3" x1="115.34" y1="86.99" x2="123.93" y2="87.92"/><polyline class="cls-3" points="99.8 109.46 96.86 131.62 103.87 133.02"/><path class="cls-3" d="M83.76,146.3s14.68,10.36,32.45,0"/><path class="cls-4" d="M50.2,91.54s9.8-9.89,13.04-32.72c0,0,47.47,9.17,75.28,1.18,0,0,6.4,30.48,11.62,33.6,0,0,5.41-11.4,1.78-37.95-1.75-12.8-11.14-19.48-20.04-21.96-7.89-2.2-16.57-6.74-28.02-2.03,0,0-2.35-6.12-8.68-5.01-13.58,2.39-26.14,6.33-33.92,12.13-8.39,6.26-10,13.42-11.58,19.83-1.76,7.15-3.33,15.9.51,32.93Z"/><ellipse class="cls-4" cx="58.09" cy="71.91" rx="7.5" ry="8.67"/><ellipse class="cls-4" cx="119.94" cy="65.15" rx="7.5" ry="8.67"/><ellipse class="cls-4" cx="133.57" cy="62.57" rx="8.34" ry="12.6"/><ellipse class="cls-4" cx="142.28" cy="66.5" rx="7.5" ry="12.6"/><ellipse class="cls-4" cx="67.3" cy="65.15" rx="11.31" ry="8.67"/><ellipse class="cls-4" cx="84.76" cy="62.57" rx="11.31" ry="8.67"/><ellipse class="cls-4" cx="103.32" cy="62.24" rx="9.91" ry="11.31"/><path class="cls-3" d="M67.56,91.51h17.6c4.05,0,7.34,3.29,7.34,7.34v4.99c0,7.15-5.81,12.96-12.96,12.96h-6.37c-7.15,0-12.96-5.81-12.96-12.96v-4.99c0-4.05,3.29-7.34,7.34-7.34Z"/><path class="cls-3" d="M113.76,91.57h17.6c4.05,0,7.34,3.29,7.34,7.34v4.99c0,7.15-5.81,12.96-12.96,12.96h-6.37c-7.15,0-12.96-5.81-12.96-12.96v-4.99c0-4.05,3.29-7.34,7.34-7.34Z"/><path class="cls-3" d="M92.32,102.92s8.28-2.06,14.34,0"/><line class="cls-3" x1="49.55" y1="96.43" x2="60.22" y2="100.66"/><line class="cls-3" x1="150.33" y1="96.53" x2="138.41" y2="102.55"/></svg>