<?xml version="1.0" encoding="utf-8"?>
<!-- Generator: Adobe Illustrator 28.1.0, SVG Export Plug-In . SVG Version: 6.00 Build 0)  -->
<svg version="1.1" id="Calque_1" xmlns="http://www.w3.org/2000/svg" xmlns:xlink="http://www.w3.org/1999/xlink" x="0px" y="0px"
	 viewBox="0 0 203 203" style="enable-background:new 0 0 203 203;" xml:space="preserve">
<style type="text/css">
	.st0{fill:#4669AA;stroke:#000000;}
	.st1{fill:#F8E8DB;stroke:#000000;stroke-miterlimit:10;}
	.st2{fill:#1D1D1B;}
	.st3{fill:none;stroke:#000000;stroke-miterlimit:10;}
</style>
<circle class="st0" cx="101.5" cy="101.5" r="101"/>
<path class="st1" d="M50.7,96.6c0,0-13.7-2.3-8.8,13.9c0,0,2.6,9.3,12.1,14.1"/>
<path class="st1" d="M150.3,96.5c0,0,13.6-2.9,9.4,13.5c0,0-2.2,9.4-11.5,14.6"/>
<path class="st1" d="M100.2,36c-14.5,0-45.9,3.9-49.5,39.9c0,0-4,53.2,9.7,75.9c7.4,12.3,19.9,26.9,39.5,26.9
	c18.4,0,34-13.2,41.3-25.4c4.3-7.1,11.1-25.1,8.2-78.4C149.5,74.8,149.5,36,100.2,36L100.2,36z"/>
<circle class="st2" cx="78.8" cy="101" r="2.7"/>
<line class="st3" x1="84.6" y1="87" x2="76" y2="87.9"/>
<circle class="st2" cx="121.2" cy="101" r="2.7"/>
<line class="st3" x1="115.3" y1="87" x2="123.9" y2="87.9"/>
<polyline class="st3" points="99.8,109.5 96.9,131.6 103.9,133 "/>
<path class="st3" d="M83.8,146.3c0,0,14.7,10.4,32.5,0"/>
<path d="M50.2,91.5c0,0,9.8-9.9,13-32.7c0,0,47.5,9.2,75.3,1.2c0,0,6.4,30.5,11.6,33.6c0,0,5.4-11.4,1.8-38
	c-1.8-12.8-11.1-19.5-20-22c-7.9-2.2-16.6-6.7-28-2c0,0-2.3-6.1-8.7-5C81.6,29,69,33,61.3,38.8c-8.4,6.3-10,13.4-11.6,19.8
	C47.9,65.8,46.3,74.5,50.2,91.5L50.2,91.5z"/>
<ellipse cx="58.1" cy="71.9" rx="7.5" ry="8.7"/>
<ellipse cx="119.9" cy="65.2" rx="7.5" ry="8.7"/>
<ellipse cx="133.6" cy="62.6" rx="8.3" ry="12.6"/>
<ellipse cx="142.3" cy="66.5" rx="7.5" ry="12.6"/>
<ellipse cx="67.3" cy="65.2" rx="11.3" ry="8.7"/>
<ellipse cx="84.8" cy="62.6" rx="11.3" ry="8.7"/>
<ellipse cx="103.3" cy="62.2" rx="9.9" ry="11.3"/>
<path class="st3" d="M67.6,91.5h17.6c4.1,0,7.3,3.3,7.3,7.3v5c0,7.2-5.8,13-13,13h-6.4c-7.2,0-13-5.8-13-13v-5
	C60.2,94.8,63.5,91.5,67.6,91.5L67.6,91.5z"/>
<path class="st3" d="M113.8,91.6h17.6c4.1,0,7.3,3.3,7.3,7.3v5c0,7.2-5.8,13-13,13h-6.4c-7.2,0-13-5.8-13-13v-5
	C106.4,94.9,109.7,91.6,113.8,91.6L113.8,91.6z"/>
<path class="st3" d="M92.3,102.9c0,0,8.3-2.1,14.3,0"/>
<line class="st3" x1="49.5" y1="96.4" x2="60.2" y2="100.7"/>
<line class="st3" x1="150.3" y1="96.5" x2="138.4" y2="102.6"/>
</svg>
