<?xml version="1.0" encoding="UTF-8"?>
<svg id="Calque_1" data-name="Calque 1" xmlns="http://www.w3.org/2000/svg" width="3936.521" height="2906.402" viewBox="0 0 3936.521 2906.402">
  <defs>
    <style>
      .cls-1 {
        fill: #ffd5c2;
      }

      .cls-2 {
        fill: #927b87;
      }

      .cls-3 {
        fill: #b496a7;
      }

      .cls-4 {
        fill: #bb917c;
      }

      .cls-5 {
        fill: #b194a4;
      }

      .cls-6 {
        fill: #c0a0b2;
      }

      .cls-7 {
        fill: #cda38b;
      }

      .cls-8 {
        fill: #cba9bc;
      }

      .cls-9 {
        fill: #daae98;
      }

      .cls-10 {
        fill: #e1bcae;
      }

      .cls-11 {
        fill: #42373d;
      }

      .cls-12 {
        fill: none;
        stroke: #66555f;
        stroke-miterlimit: 10;
      }
    </style>
  </defs>
  <polyline class="cls-10" points="1768.142 2230.293 1768.142 2234.556 2125.389 2234.556 2126.295 2230.293"/>
  <g>
    <g>
      <path class="cls-3" d="m1697.333,1711.712l-4.95,8.56s-1.06,1.81-2.79,1.02c.79,0,1.82-1.69,1.82-1.69l5.44-9.84.48,1.95Z"/>
      <g>
        <line class="cls-12" x1="1690.739" y1="1718.916" x2="1384.442" y2="2234.556"/>
        <polygon class="cls-3" points="1698.482 1709.732 1697.333 1711.712 1695.422 1703.912 1696.462 1701.932 1698.482 1709.732"/>
        <path class="cls-8" d="m1696.852,1709.762l-5.44,9.84s-1.03,1.69-1.82,1.69h-.01c-.02,0-.03-.01-.04-.02-.09-.04-.19-.09-.28-.15-1.93-1.2-.96-3.66-.96-3.66l7.12-13.55,1.43,5.85Z"/>
        <path class="cls-11" d="m1688.26,1719.951l-.502.855,2.164,1.668.564-.979s-.486.146-1.223-.373-1.002-1.171-1.002-1.171Z"/>
      </g>
    </g>
    <g>
      <path class="cls-3" d="m2219.996,1562.032l5.462,9.445s1.169,1.997,3.078,1.125c-.872,0-2.008-1.865-2.008-1.865l-6.002-10.857-.53,2.152Z"/>
      <g>
        <line class="cls-12" x1="2227.272" y1="1569.981" x2="2569.687" y2="2234.556"/>
        <polygon class="cls-3" points="2218.728 1559.847 2219.996 1562.032 2222.104 1553.426 2220.956 1551.241 2218.728 1559.847"/>
        <path class="cls-8" d="m2220.526,1559.88l6.002,10.857s1.136,1.865,2.008,1.865h.011c.022,0,.033-.011.044-.022.099-.044.21-.099.309-.166,2.129-1.324,1.059-4.038,1.059-4.038l-7.856-14.951-1.578,6.455Z"/>
        <path class="cls-11" d="m2230.006,1571.123l.554.943-2.388,1.84-.622-1.081s.536.161,1.35-.411,1.106-1.292,1.106-1.292Z"/>
      </g>
    </g>
    <g>
      <polygon class="cls-1" points="1783.995 2214.209 1768.142 2230.293 2140.694 2230.293 2126.823 2214.209 1783.995 2214.209"/>
      <g id="arriere">
        <g>
          <path class="cls-7" d="m1835.782,2221.277v2.699s2.483,3.202,13.186,3.269c10.703.066,14.084-3.62,14.084-3.62v-3.435s.094,2.37-3.95,3.754c-4.044,1.384-8.986,1.899-14.225,1.307s-7.939-1.647-9.095-3.974Z"/>
          <g>
            <g>
              <path class="cls-7" d="m1837.836,2218.269l.531,1.922-.522-1.922h-.009Z"/>
              <path class="cls-7" d="m1703.564,1700.649l142.796,519.541h13.518s-.857-3.107-.857-3.107l-.009-.007-143.644-517.824-11.794,1.397h-.009Z"/>
              <path class="cls-4" d="m1695.981,1701.548l141.855,516.72h.009l.522,1.922s0,.054.009.15c.121.579,1.071,2.746,8.915,3.223l-.932-3.373-142.796-519.541-7.583.899Z"/>
              <path class="cls-7" d="m1838.376,2220.34c.112.668,1.118,3.284,10.229,3.284,2.981,0,5.18-.279,6.791-.675.149-.034.298-.075.447-.123.065-.014.121-.034.186-.054,3.251-.954,3.792-2.392,3.838-2.562,0-.007.009-.014.009-.02h-13.518s.932,3.373.932,3.373c-7.844-.477-8.794-2.644-8.915-3.223Z"/>
              <path class="cls-9" d="m1835.814,2220.899c0,1.894,2.562,3.475,8.44,4.279,5.869.797,15.167.095,18.036-3.271.54-.641.764-1.213.764-1.717-.009-2.085-3.792-3.053-4.034-3.107l-.009-.007.866,3.114c0,.007-.009.014-.009.02-.792,1.247-2.236,2.051-3.838,2.562-.065.02-.121.041-.186.054-.149.048-.298.089-.447.123-3.214.865-6.791.675-6.791.675-.456-.014-.894-.034-1.313-.061-7.844-.477-8.794-2.644-8.915-3.223-.009-.095-.009-.15-.009-.15l-.522-1.922h-.009c-.112.048-2.022.79-2.022,2.63Z"/>
            </g>
            <path class="cls-6" d="m1715.368,1699.252s-7.489,4.548-19.386,2.296c-.063-.222-.132-.603.024-1.028,1.343-3.639,17.199-4.855,19.147-1.955.184.275.212.538.215.687Z"/>
            <path class="cls-5" d="m1696.279,1681.966l4.863,16.755s.028.095.13.252c1.192.191,2.264.252,3.205.225l-5.087-17.232h-3.112Z"/>
            <path class="cls-8" d="m1699.391,1681.966l5.087,17.232c3.363-.088,5.161-1.247,5.161-1.247l-4.257-15.985h-5.99Z"/>
            <path class="cls-2" d="m1691.649,1677.585l1.798,6.302,2.786-.418c-.14-.741-.643-3.289-1.509-6.806-1.006-4.062,1.826-6.688,2.04-6.885-3.773,1.049-6.083,4.417-5.114,7.808Z"/>
            <path class="cls-5" d="m1694.723,1676.662c.866,3.518,1.369,6.065,1.509,6.806l.056-.008,11.943-1.798-1.323-6.72c-.634-3.218-3.932-5.513-7.667-5.513-.419,0-.829.032-1.248.087-.419.055-.829.142-1.22.252v.008s0-.008-.009,0c-.214.197-3.046,2.824-2.04,6.885Z"/>
          </g>
        </g>
        <g>
          <path class="cls-7" d="m2083.201,2218.156v3.468s-2.445,4.114-12.982,4.2c-10.538.085-13.866-4.65-13.866-4.65v-4.413s-.093,3.045,3.889,4.823c3.982,1.778,8.848,2.44,14.005,1.679s7.816-2.116,8.954-5.106Z"/>
          <g>
            <g>
              <path class="cls-7" d="m2081.178,2214.291l-.523,2.469.514-2.469h.009Z"/>
              <path class="cls-7" d="m2213.374,1549.281l-140.588,667.478h-13.309l.844-3.992.009-.009,141.423-665.272,11.612,1.795h.009Z"/>
              <path class="cls-4" d="m2220.84,1550.437l-139.662,663.854h-.009l-.514,2.469s0,.07-.009.193c-.119.744-1.055,3.528-8.778,4.141l.917-4.333,140.588-667.478,7.466,1.156Z"/>
              <path class="cls-7" d="m2080.646,2216.952c-.11.858-1.101,4.219-10.071,4.219-2.935,0-5.1-.359-6.686-.867-.147-.044-.294-.096-.44-.158-.064-.018-.119-.044-.184-.07-3.201-1.226-3.733-3.073-3.779-3.291,0-.009-.009-.018-.009-.026h13.309l-.917,4.333c7.723-.613,8.658-3.396,8.778-4.141Z"/>
              <path class="cls-9" d="m2083.168,2217.67c0,2.434-2.522,4.464-8.31,5.497-5.778,1.024-14.932.122-17.757-4.202-.532-.823-.752-1.558-.752-2.206.009-2.679,3.733-3.922,3.971-3.992l.009-.009-.853,4.001c0,.009.009.018.009.026.78,1.602,2.201,2.635,3.779,3.291.064.026.119.052.184.07.147.061.293.114.44.158,3.164,1.112,6.686.867,6.686.867.449-.018.88-.044,1.293-.079,7.723-.613,8.658-3.396,8.778-4.141.009-.123.009-.193.009-.193l.514-2.469h.009c.11.061,1.99,1.015,1.99,3.379Z"/>
            </g>
            <path class="cls-6" d="m2201.753,1547.487s7.373,5.844,19.087,2.95c.062-.285.13-.775-.024-1.321-1.322-4.675-16.933-6.238-18.851-2.511-.182.353-.209.692-.211.882Z"/>
            <path class="cls-5" d="m2220.546,1525.278l-4.788,21.526s-.027.123-.128.324c-1.174.245-2.229.324-3.155.289l5.008-22.139h3.064Z"/>
            <path class="cls-8" d="m2217.483,1525.278l-5.008,22.139c-3.311-.114-5.081-1.602-5.081-1.602l4.192-20.537h5.898Z"/>
            <path class="cls-2" d="m2225.105,1520.752l-1.77,6.994-2.743-.464c.138-.823.633-3.65,1.486-7.555.991-4.508-1.798-7.423-2.009-7.642,3.714,1.164,5.989,4.902,5.035,8.666Z"/>
            <path class="cls-5" d="m2222.078,1519.728c-.853,3.904-1.348,6.732-1.486,7.555l-.055-.009-11.759-1.996,1.302-7.458c.624-3.572,3.871-6.119,7.549-6.119.413,0,.816.035,1.229.096.413.061.816.158,1.202.28v.009s0-.009.009,0c.211.219,2.999,3.134,2.009,7.642Z"/>
          </g>
        </g>
        <g>
          <polygon class="cls-7" points="2121.473 1928.398 2117.057 1944.478 1783.796 1944.478 1779.522 1928.368 1782.69 1935.448 2117.625 1935.448 2119.178 1928.398 2121.473 1928.398"/>
          <polygon class="cls-6" points="1776.704 1921.003 1784.364 1949.898 1786.598 1949.898 1778.774 1921.003 1776.704 1921.003"/>
          <polygon class="cls-6" points="2122.902 1920.79 2116.628 1950.008 2114.397 1950.111 2120.834 1920.886 2122.902 1920.79"/>
          <polygon class="cls-4" points="2119.178 1928.398 2117.625 1935.448 1782.69 1935.448 1780.526 1928.368 2119.178 1928.398"/>
        </g>
      </g>
    </g>
    <rect class="cls-10" x="1768.142" y="2230.293" width="371.568" height="4.263"/>
  </g>
</svg>