<?xml version="1.0" encoding="UTF-8"?>
<svg id="Calque_1" data-name="Calque 1" xmlns="http://www.w3.org/2000/svg" width="3936.521" height="2906.402" viewBox="0 0 3936.521 2906.402">
  <defs>
    <style>
      .cls-1 {
        fill: #fff;
      }
    </style>
  </defs>
  <g id="barre_blanche" data-name="barre blanche">
    <path class="cls-1" d="m2274.713,1562.036c-2.78.94-4.96,3.26-5.48,6.23l-.46,2.61-53.55-46.29c-1.23-1.07-1.98-2.64-1.83-4.26.11-1.22.69-2.6,2.32-3.79,0,0,3.85-2.6,7.09,1.59l51.91,43.91Z"/>
    <path class="cls-1" d="m1703.953,1677.746l-31.63,72.56c-1.4-2.12-3.85-3.46-6.53-3.46-.42,0-.83.03-1.25.09-.41.07-.82.17-1.22.29v.01c-.49.16-.95.35-1.39.59l32.16-71.05c.5-3.66,5.14-3.56,5.14-3.56,2.02.09,3.24.68,3.99,1.35.99.9,1.2,2.1.73,3.18Z"/>
  </g>
</svg>