<?xml version="1.0" encoding="UTF-8"?>
<svg id="Calque_1" data-name="Calque 1" xmlns="http://www.w3.org/2000/svg" width="3936.521" height="2906.402" viewBox="0 0 3936.521 2906.402">
  <defs>
    <style>
      .cls-1 {
        opacity: .11;
      }

      .cls-2 {
        fill: #ec9962;
      }

      .cls-3 {
        fill: #f1ecde;
      }

      .cls-4 {
        fill: #ffa958;
      }

      .cls-5 {
        fill: #ffbb85;
      }

      .cls-6 {
        fill: #ffa967;
      }

      .cls-7 {
        fill: #ff7f58;
      }

      .cls-8 {
        fill: #8b8b8b;
      }

      .cls-9 {
        fill: #9d9d9d;
      }

      .cls-10 {
        fill: #b48167;
      }

      .cls-11 {
        fill: #101930;
      }

      .cls-12 {
        fill: #24212f;
      }

      .cls-13 {
        fill: #4524cd;
      }

      .cls-14 {
        fill: #707070;
      }

      .cls-15 {
        fill: #5526e9;
      }

      .cls-16 {
        fill: #5b5b5b;
      }

      .cls-17 {
        fill: #4c2808;
      }

      .cls-18 {
        fill: #7a3f0e;
      }

      .cls-19 {
        fill: #7a7a7a;
      }

      .cls-20 {
        fill: none;
        stroke: #ffa967;
        stroke-miterlimit: 10;
      }
    </style>
  </defs>
  <g>
    <polygon class="cls-17" points="8.805 1428.77 591.697 1420.999 591.697 1406.573 8.805 1408.573 8.805 1428.77"/>
    <polygon class="cls-1" points="591.697 1420.999 547.67 1433.581 8.805 1445.115 8.805 1428.77 591.697 1420.999"/>
    <polygon class="cls-18" points="591.697 1406.573 491.393 1400.383 8.805 1400.16 8.805 1408.573 591.697 1406.573"/>
    <g>
      <polygon class="cls-9" points="90.686 1427.678 90.686 1463.021 94.869 1463.021 94.869 1427.632 90.686 1427.678"/>
      <polyline class="cls-14" points="56.832 1433.057 55.774 1432.275 53.686 1430.732 53.686 1428.171 56.832 1428.129"/>
      <g>
        <polygon class="cls-14" points="90.686 1463.021 88.441 1459.944 88.441 1427.708 90.686 1427.678 90.686 1463.021"/>
        <polygon class="cls-9" points="56.832 1428.129 56.832 1433.057 129.284 1432.119 128.828 1427.272 56.832 1428.129"/>
        <polygon class="cls-8" points="58.173 1428.77 58.173 1431.566 91.477 1430.956 92 1461.819 93.657 1461.819 93.657 1431.043 127.1 1430.593 127.1 1428.129 58.173 1428.77"/>
        <circle class="cls-16" cx="60.746" cy="1430.168" r="1.116"/>
        <circle class="cls-16" cx="124.266" cy="1429.578" r="1.116"/>
        <circle class="cls-16" cx="92.778" cy="1429.578" r="1.116"/>
      </g>
    </g>
    <g>
      <polygon class="cls-9" points="475.73 1422.374 475.73 1457.718 479.913 1457.718 479.913 1422.328 475.73 1422.374"/>
      <polyline class="cls-14" points="441.876 1427.753 440.818 1426.972 438.73 1425.429 438.73 1422.868 441.876 1422.826"/>
      <g>
        <polygon class="cls-14" points="475.73 1457.718 473.485 1454.64 473.485 1422.404 475.73 1422.374 475.73 1457.718"/>
        <polygon class="cls-9" points="441.876 1422.826 441.876 1427.753 514.328 1426.815 513.872 1421.969 441.876 1422.826"/>
        <polygon class="cls-8" points="443.217 1423.466 443.217 1426.263 476.521 1425.652 477.044 1456.515 478.701 1456.515 478.701 1425.74 512.144 1425.29 512.144 1422.826 443.217 1423.466"/>
        <circle class="cls-16" cx="445.79" cy="1424.864" r="1.116"/>
        <circle class="cls-16" cx="509.31" cy="1424.275" r="1.116"/>
        <circle class="cls-16" cx="477.822" cy="1424.275" r="1.116"/>
      </g>
    </g>
    <g>
      <g>
        <g>
          <path class="cls-6" d="m126.396,1262.81H35.385l-2.4.31c-14.26-.19-13.2,10.52-12.58,18.25.65,8.07,10.479,9.62,10.479,9.62,0,0-.88,9.38,7.41,10.04h.04c.89.07,1.9.04,3.02-.12,7.05-.99,8.31-5.42,8.23-8.71v-.01c-.03-1.3-.27-2.41-.45-3.08.021.04.06.08.08.11.01.02.05.08.09.12.04.05.08.11.11.17,1.33,1.85,7.45,9.79,18.73,17.38-.13,1.74-.47,4.34-1.34,6.48-.66,1.65-.76,3.27-.65,4.58.1,1.57.479,2.65.479,2.65,0,0,8.12,29.96,10.64,37.19.51,1.44.8,2.77.95,3.96.59,4.61-.94,7.47-1.11,7.76,0,.01-.01.02-.01.02l-18.96,19.13-4.35,5.13h54.35v-.98l-2.22-3.34-21.25-19.94s-2.7-4.52-.17-11.74c2.52-7.23,10.65-37.19,10.65-37.19,0,0,1.26-3.62-.17-7.23-1.46-3.62-1.46-8.49-1.46-8.49,0,0,16.03-9.9,18.06-14.52-.74,1.96-2.48,8.08,7.77,8.99,8.94.79,8.5-8.99,8.5-8.99,0,0,5.79-1.81,6.26-13.94.57-14.53-7.72-13.61-7.72-13.61Zm-87.33,35.22c-4.32.07-5.7-6.84-5.7-6.84l12.44-.83c1.15,4.51-2.43,7.59-6.74,7.67Zm-8.37-11.27c-5.67-.49-5.84-8.33-5.84-8.33-.41-12.35,11.4-9.39,11.4-9.39,4.74,8.88,6.95,12.14,6.95,12.14l2.82,5.19-15.33.39Zm89.7,10.44c-.48-.01-.92-.04-1.32-.11-3.25-.5-5.76-2.72-4.73-6.73h10.97s-.6,6.91-4.92,6.84Z"/>
          <path class="cls-2" d="m125.315,1290.36s-.6,6.91-4.92,6.84c-.48-.01-.92-.04-1.32-.11,4.59.22,4.75-6.73,4.75-6.73h1.49Z"/>
          <rect class="cls-11" x="50.112" y="1399.529" width="76.078" height="7.044"/>
          <polygon class="cls-12" points="126.19 1399.529 50.112 1399.529 32.631 1395.864 59.553 1395.166 59.553 1392.2 59.553 1396.347 108.142 1396.347 108.142 1393.899 108.142 1394.274 108.62 1394.274 126.19 1399.529"/>
          <rect class="cls-10" x="54.72" y="1393.791" width="54.348" height="4.147"/>
        </g>
        <polygon class="cls-11" points="50.112 1406.573 32.631 1400.942 32.631 1395.864 50.112 1399.529 50.112 1406.573"/>
      </g>
      <polygon class="cls-10" points="54.72 1397.938 45.537 1395.864 45.537 1391.607 54.72 1393.791 54.72 1397.938"/>
      <polygon class="cls-6" points="45.537 1391.607 74.276 1368.005 77.74 1368.005 53.794 1393.791 45.537 1391.607"/>
      <path class="cls-2" d="m38.295,1301.03c-10.08-.18-9.08-8.15-9.08-8.15,0,0-7.06-2.17-9.33-6.12-2.28-3.95-3.19-11.41,0-18.81,3.18-7.4,15.5-5.14,15.5-5.14l-2.401.307-1.978.283c-11.948.888-11.235,10.401-10.599,17.967.65,7.728,10.478,9.624,10.478,9.624,0,0-.88,9.38,7.41,10.04Z"/>
      <path class="cls-20" d="m38.336,1301.03h-.04"/>
      <path class="cls-2" d="m33.894,1268.74l9.312,15.276v-2.837l-6.95-12.14s-1.091-.58-2.362-.3Z"/>
      <polygon class="cls-2" points="43.206 1284.017 44.516 1286.405 46.023 1286.366 43.206 1281.18 43.206 1284.017"/>
      <path class="cls-2" d="m45.806,1290.36h1.532s1.087,7.516-6.17,7.377c0,0,5.143-1.033,4.638-7.377Z"/>
      <path class="cls-7" d="m131.058,1275.8c.297,4.51-.717,10.96-10.237,10.96h-6.075s10.62-10.74,12.05-19.08c.03,0,3.878,2.272,4.263,8.121Z"/>
      <path class="cls-2" d="m110.596,1291.662s-1.469,4.567,4.149,6.63c0,0-3.694-.863-3.156-7.931l-.993,1.302Z"/>
      <path class="cls-2" d="m126.415,1269.301s4.252,2.376,3.534,8.294-4.843,8.632-5.371,8.751c0,0,4.888-.513,6.179-6.108,1.291-5.594-.753-10.21-3.961-12.559l-.381,1.622Z"/>
      <path class="cls-2" d="m77.116,1369.51c0,.01-.01.02-.01.02l-18.96,19.13-4.35,5.13-8.26-2.18s27.64-22.7,28.74-23.6c1.1-.91,2.03-4.4,2.03-4.4,0,0-2.24-8.62-4.79-18.16-2.89-10.85-6.18-22.91-6.99-24.83-1.53-3.6-.45-7.47.54-9.36.99-1.88.54-3.77.54-3.77-8.72-4.15-15.74-14.87-16.02-15.29v-.01c-.03-1.3-.27-2.41-.45-3.08.021.04.06.08.08.11.01.02.05.08.09.12.04.05.08.11.11.17,1.33,1.85,7.45,9.79,18.73,17.38-.13,1.74-.47,4.34-1.34,6.48-.66,1.65-.76,3.27-.65,4.58.1,1.57.479,2.65.479,2.65,0,0,8.12,29.96,10.64,37.19.51,1.44.8,2.77.95,3.96.59,4.61-.94,7.47-1.11,7.76Z"/>
      <polygon class="cls-6" points="58.146 1388.66 77.106 1369.53 53.795 1393.79 58.146 1388.66"/>
      <path class="cls-6" d="m77.116,1369.51c.17-.29,1.7-3.15,1.11-7.76.74,5.39-.93,7.55-1.11,7.76Z"/>
      <path class="cls-5" d="m92.964,1302.466s27.167-16.907,30.779-36.126l-13.32-.578s-1.563,24.421-17.459,36.704Z"/>
      <path class="cls-5" d="m89.374,1306.828s5.739,6.727,3.59,14.776c-2.149,8.048-11.398,40.146-11.398,40.146,0,0,7.928-34.5,7.448-40.627s-3.604-12.974-3.604-12.974l3.964-1.321Z"/>
      <polygon class="cls-5" points="80.536 1370.061 105.297 1391.761 99.534 1391.761 80.536 1370.061"/>
    </g>
    <g>
      <g>
        <g>
          <path class="cls-6" d="m253.419,1266.272h-88.667l-2.338.302c-13.893-.185-12.86,10.249-12.256,17.78.633,7.862,10.21,9.372,10.21,9.372,0,0-.857,9.138,7.219,9.782h.039c.867.068,1.851.039,2.942-.117,6.869-.964,8.096-5.28,8.018-8.486v-.01c-.029-1.267-.263-2.348-.439-3.001.02.039.059.078.078.107.01.02.049.078.088.117.039.049.078.107.107.166,1.296,1.802,7.258,9.538,18.248,16.932-.127,1.695-.458,4.228-1.305,6.313-.643,1.608-.741,3.186-.633,4.462.097,1.53.467,2.582.467,2.582,0,0,7.911,29.189,10.366,36.232.497,1.403.78,2.699.926,3.858.575,4.491-.916,7.278-1.081,7.56,0,.01-.01.02-.01.02l-18.472,18.637-4.238,4.998h52.951v-.955l-2.163-3.254-20.703-19.427s-2.63-4.404-.166-11.438c2.455-7.044,10.376-36.232,10.376-36.232,0,0,1.227-3.527-.166-7.044-1.422-3.527-1.422-8.271-1.422-8.271,0,0,15.618-9.645,17.595-14.146-.721,1.909-2.416,7.872,7.57,8.759,8.71.769,8.281-8.759,8.281-8.759,0,0,5.641-1.763,6.099-13.581.555-14.156-7.521-13.259-7.521-13.259Zm-85.081,34.313c-4.209.068-5.553-6.664-5.553-6.664l12.12-.809c1.12,4.394-2.368,7.395-6.567,7.473Zm-8.155-10.98c-5.524-.477-5.689-8.116-5.689-8.116-.4-12.032,11.106-9.148,11.106-9.148,4.618,8.651,6.771,11.827,6.771,11.827l2.747,5.056-14.935.38Zm87.39,10.171c-.468-.01-.896-.039-1.286-.107-3.166-.487-5.612-2.65-4.608-6.557h10.687s-.585,6.732-4.793,6.664Z"/>
          <path class="cls-2" d="m252.367,1293.112s-.585,6.732-4.793,6.664c-.468-.01-.896-.039-1.286-.107,4.472.215,4.628-6.557,4.628-6.557h1.451Z"/>
          <rect class="cls-11" x="179.1" y="1399.47" width="74.119" height="6.863"/>
          <polygon class="cls-12" points="253.219 1399.47 179.1 1399.47 162.07 1395.9 188.298 1395.22 188.298 1392.33 188.298 1396.371 235.636 1396.371 235.636 1393.986 235.636 1394.35 236.101 1394.35 253.219 1399.47"/>
          <rect class="cls-10" x="183.589" y="1393.88" width="52.949" height="4.04"/>
        </g>
        <polygon class="cls-11" points="179.1 1406.333 162.07 1400.847 162.07 1395.9 179.1 1399.47 179.1 1406.333"/>
      </g>
      <polygon class="cls-10" points="183.589 1397.92 174.643 1395.9 174.643 1391.752 183.589 1393.88 183.589 1397.92"/>
      <polygon class="cls-6" points="174.643 1391.752 202.642 1368.759 206.016 1368.759 182.688 1393.88 174.643 1391.752"/>
      <path class="cls-2" d="m167.588,1303.508c-9.821-.175-8.846-7.94-8.846-7.94,0,0-6.878-2.114-9.09-5.962-2.221-3.848-3.108-11.116,0-18.326,3.098-7.209,15.101-5.008,15.101-5.008l-2.339.299-1.927.275c-11.64.865-10.946,10.133-10.326,17.504.633,7.529,10.208,9.376,10.208,9.376,0,0-.857,9.138,7.219,9.782Z"/>
      <path class="cls-20" d="m167.627,1303.508h-.039"/>
      <path class="cls-2" d="m163.3,1272.05l9.072,14.883v-2.764l-6.771-11.827s-1.063-.565-2.301-.292Z"/>
      <polygon class="cls-2" points="172.371 1286.932 173.648 1289.259 175.117 1289.221 172.371 1284.169 172.371 1286.932"/>
      <path class="cls-2" d="m174.905,1293.112h1.493s1.059,7.322-6.011,7.188c0,0,5.011-1.006,4.519-7.188Z"/>
      <path class="cls-7" d="m257.962,1278.928c.289,4.394-.699,10.677-9.973,10.677h-5.919s10.347-10.463,11.74-18.589c.029,0,3.778,2.214,4.153,7.911Z"/>
      <path class="cls-2" d="m238.027,1294.381s-1.431,4.449,4.042,6.459c0,0-3.599-.841-3.075-7.727l-.967,1.268Z"/>
      <path class="cls-2" d="m253.438,1272.596s4.143,2.315,3.443,8.08-4.718,8.41-5.233,8.525c0,0,4.762-.5,6.02-5.95,1.258-5.45-.733-9.947-3.859-12.235l-.371,1.58Z"/>
      <path class="cls-2" d="m205.408,1370.224c0,.01-.01.02-.01.02l-18.472,18.637-4.238,4.998-8.047-2.124s26.928-22.116,28-22.992c1.072-.887,1.978-4.287,1.978-4.287,0,0-2.183-8.398-4.667-17.692-2.816-10.571-6.021-22.32-6.81-24.191-1.49-3.507-.438-7.278.526-9.119.965-1.832.526-3.673.526-3.673-8.496-4.043-15.334-14.487-15.608-14.896v-.01c-.029-1.267-.263-2.348-.439-3.001.02.039.059.078.078.107.01.02.049.078.088.117.039.049.078.107.107.166,1.296,1.802,7.258,9.538,18.248,16.932-.127,1.695-.458,4.228-1.305,6.313-.643,1.608-.741,3.186-.633,4.462.097,1.53.467,2.582.467,2.582,0,0,7.911,29.189,10.366,36.232.497,1.403.78,2.699.926,3.858.575,4.491-.916,7.278-1.081,7.56Z"/>
      <polygon class="cls-6" points="186.927 1388.881 205.399 1370.244 182.689 1393.879 186.927 1388.881"/>
      <path class="cls-6" d="m205.408,1370.224c.166-.283,1.656-3.069,1.081-7.56.721,5.251-.906,7.356-1.081,7.56Z"/>
      <path class="cls-5" d="m220.849,1304.907s26.467-16.472,29.987-35.196l-12.977-.563s-1.523,23.792-17.009,35.759Z"/>
      <path class="cls-5" d="m217.351,1309.157s5.591,6.554,3.498,14.395-11.105,39.113-11.105,39.113c0,0,7.724-33.612,7.256-39.581s-3.511-12.64-3.511-12.64l3.862-1.287Z"/>
      <polygon class="cls-5" points="208.74 1370.762 232.864 1391.903 227.25 1391.903 208.74 1370.762"/>
    </g>
    <g>
      <g>
        <g>
          <path class="cls-6" d="m385.414,1271.945h-85.076l-2.243.29c-13.33-.178-12.339,9.834-11.759,17.06.608,7.544,9.796,8.993,9.796,8.993,0,0-.823,8.768,6.927,9.385h.037c.832.065,1.776.037,2.823-.112,6.591-.925,7.768-5.066,7.693-8.142v-.009c-.028-1.215-.252-2.253-.421-2.879.019.037.056.075.075.103.01.019.047.075.084.112.037.047.074.103.103.159,1.243,1.729,6.964,9.152,17.509,16.247-.121,1.627-.44,4.057-1.252,6.057-.617,1.543-.711,3.057-.608,4.281.093,1.468.448,2.477.448,2.477,0,0,7.591,28.006,9.946,34.765.477,1.346.748,2.589.888,3.702.551,4.309-.879,6.983-1.037,7.254,0,.009-.01.019-.01.019l-17.724,17.882-4.066,4.796h50.806v-.916l-2.075-3.122-19.864-18.64s-2.524-4.225-.159-10.974c2.356-6.759,9.956-34.765,9.956-34.765,0,0,1.178-3.384-.159-6.759-1.365-3.384-1.365-7.936-1.365-7.936,0,0,14.985-9.254,16.882-13.573-.692,1.832-2.318,7.553,7.263,8.404,8.357.738,7.946-8.404,7.946-8.404,0,0,5.412-1.692,5.852-13.031.533-13.583-7.217-12.722-7.217-12.722Zm-81.635,32.923c-4.038.065-5.328-6.394-5.328-6.394l11.629-.776c1.075,4.216-2.272,7.095-6.301,7.17Zm-7.824-10.535c-5.3-.458-5.459-7.787-5.459-7.787-.383-11.545,10.657-8.778,10.657-8.778,4.431,8.301,6.497,11.348,6.497,11.348l2.636,4.852-14.33.365Zm83.851,9.759c-.449-.009-.86-.037-1.234-.103-3.038-.467-5.385-2.543-4.422-6.291h10.254s-.561,6.46-4.599,6.394Z"/>
          <path class="cls-2" d="m384.405,1297.698s-.561,6.46-4.599,6.394c-.449-.009-.86-.037-1.234-.103,4.291.206,4.44-6.291,4.44-6.291h1.393Z"/>
          <rect class="cls-11" x="314.105" y="1399.748" width="71.117" height="6.585"/>
          <polygon class="cls-12" points="385.222 1399.748 314.105 1399.748 297.764 1396.323 322.93 1395.67 322.93 1392.897 322.93 1396.774 368.351 1396.774 368.351 1394.486 368.351 1394.836 368.798 1394.836 385.222 1399.748"/>
          <rect class="cls-10" x="318.412" y="1394.384" width="50.804" height="3.877"/>
        </g>
        <polygon class="cls-11" points="314.105 1406.333 297.764 1401.069 297.764 1396.323 314.105 1399.748 314.105 1406.333"/>
      </g>
      <polygon class="cls-10" points="318.412 1398.261 309.828 1396.323 309.828 1392.343 318.412 1394.384 318.412 1398.261"/>
      <polygon class="cls-6" points="309.828 1392.343 336.693 1370.28 339.931 1370.28 317.548 1394.384 309.828 1392.343"/>
      <path class="cls-2" d="m303.059,1307.672c-9.423-.168-8.488-7.619-8.488-7.619,0,0-6.599-2.028-8.722-5.721-2.131-3.692-2.982-10.666,0-17.583,2.973-6.917,14.489-4.805,14.489-4.805l-2.244.287-1.849.264c-11.169.83-10.502,9.723-9.908,16.795.607,7.224,9.795,8.996,9.795,8.996,0,0-.823,8.768,6.927,9.385Z"/>
      <path class="cls-20" d="m303.097,1307.672h-.037"/>
      <path class="cls-2" d="m298.945,1277.488l8.705,14.28v-2.652l-6.497-11.348s-1.02-.542-2.208-.28Z"/>
      <polygon class="cls-2" points="307.649 1291.768 308.874 1294.001 310.283 1293.965 307.649 1289.117 307.649 1291.768"/>
      <path class="cls-2" d="m310.08,1297.698h1.432s1.016,7.026-5.768,6.896c0,0,4.808-.965,4.335-6.896Z"/>
      <path class="cls-7" d="m389.773,1284.088c.277,4.216-.67,10.245-9.57,10.245h-5.679s9.928-10.04,11.264-17.836c.028,0,3.625,2.124,3.985,7.591Z"/>
      <path class="cls-2" d="m370.645,1298.915s-1.373,4.269,3.879,6.197c0,0-3.453-.807-2.951-7.414l-.928,1.217Z"/>
      <path class="cls-2" d="m385.432,1278.013s3.975,2.221,3.304,7.753-4.527,8.069-5.021,8.18c0,0,4.569-.48,5.776-5.709,1.207-5.23-.704-9.544-3.703-11.74l-.356,1.516Z"/>
      <path class="cls-2" d="m339.348,1371.687c0,.009-.01.019-.01.019l-17.724,17.882-4.066,4.796-7.721-2.038s25.837-21.22,26.866-22.061c1.028-.851,1.898-4.113,1.898-4.113,0,0-2.094-8.058-4.478-16.976-2.702-10.142-5.777-21.416-6.534-23.211-1.43-3.365-.42-6.983.505-8.75.926-1.758.505-3.524.505-3.524-8.152-3.88-14.713-13.9-14.975-14.293v-.009c-.028-1.215-.252-2.253-.421-2.879.019.037.056.075.075.103.01.019.047.075.084.112.037.047.074.103.103.159,1.243,1.729,6.964,9.152,17.509,16.247-.121,1.627-.44,4.057-1.252,6.057-.617,1.543-.711,3.057-.608,4.281.093,1.468.448,2.477.448,2.477,0,0,7.591,28.006,9.946,34.765.477,1.346.748,2.589.888,3.702.551,4.309-.879,6.983-1.037,7.254Z"/>
      <polygon class="cls-6" points="321.615 1389.588 339.338 1371.706 317.548 1394.384 321.615 1389.588"/>
      <path class="cls-6" d="m339.348,1371.687c.159-.271,1.589-2.945,1.037-7.254.692,5.038-.87,7.058-1.037,7.254Z"/>
      <path class="cls-5" d="m354.163,1309.015s25.395-15.804,28.772-33.77l-12.452-.54s-1.461,22.829-16.32,34.31Z"/>
      <path class="cls-5" d="m350.807,1313.092s5.365,6.288,3.356,13.812c-2.008,7.524-10.655,37.528-10.655,37.528,0,0,7.411-32.251,6.962-37.978-.449-5.727-3.369-12.128-3.369-12.128l3.706-1.235Z"/>
      <polygon class="cls-5" points="342.545 1372.202 365.691 1392.487 360.304 1392.487 342.545 1372.202"/>
    </g>
    <g>
      <g>
        <g>
          <path class="cls-6" d="m503.925,1275.184h-82.873l-2.185.282c-12.985-.173-12.02,9.579-11.455,16.618.592,7.349,9.543,8.76,9.543,8.76,0,0-.801,8.541,6.748,9.142h.036c.811.064,1.73.036,2.75-.109,6.42-.901,7.567-4.935,7.494-7.931v-.009c-.027-1.184-.246-2.194-.41-2.805.019.036.055.073.073.1.009.018.046.073.082.109.036.046.072.1.1.155,1.211,1.684,6.784,8.915,17.055,15.826-.118,1.584-.428,3.952-1.22,5.901-.601,1.503-.692,2.978-.592,4.171.091,1.43.437,2.413.437,2.413,0,0,7.394,27.281,9.689,33.865.465,1.311.729,2.522.865,3.606.537,4.198-.856,6.802-1.011,7.066,0,.009-.009.018-.009.018l-17.265,17.42-3.961,4.671h49.491v-.892l-2.022-3.041-19.35-18.157s-2.458-4.116-.155-10.69c2.295-6.584,9.698-33.865,9.698-33.865,0,0,1.147-3.296-.155-6.584-1.329-3.296-1.329-7.731-1.329-7.731,0,0,14.597-9.015,16.445-13.222-.674,1.785-2.258,7.358,7.075,8.186,8.141.719,7.74-8.186,7.74-8.186,0,0,5.272-1.648,5.701-12.694.519-13.231-7.03-12.393-7.03-12.393Zm-79.522,32.071c-3.934.064-5.19-6.229-5.19-6.229l11.328-.756c1.047,4.107-2.213,6.911-6.138,6.984Zm-7.622-10.262c-5.163-.446-5.318-7.585-5.318-7.585-.373-11.246,10.381-8.55,10.381-8.55,4.316,8.086,6.329,11.055,6.329,11.055l2.568,4.726-13.959.355Zm81.68,9.507c-.437-.009-.838-.036-1.202-.1-2.959-.455-5.245-2.477-4.307-6.128h9.989s-.546,6.292-4.48,6.229Z"/>
          <path class="cls-2" d="m502.941,1300.27s-.546,6.292-4.48,6.229c-.437-.009-.838-.036-1.202-.1,4.179.201,4.325-6.128,4.325-6.128h1.357Z"/>
          <rect class="cls-11" x="434.461" y="1399.679" width="69.276" height="6.414"/>
          <polygon class="cls-12" points="503.737 1399.679 434.461 1399.679 418.544 1396.342 443.058 1395.706 443.058 1393.005 443.058 1396.782 487.304 1396.782 487.304 1394.553 487.304 1394.893 487.738 1394.893 503.737 1399.679"/>
          <rect class="cls-10" x="438.657" y="1394.454" width="49.489" height="3.776"/>
        </g>
        <polygon class="cls-11" points="434.461 1406.093 418.544 1400.966 418.544 1396.342 434.461 1399.679 434.461 1406.093"/>
      </g>
      <polygon class="cls-10" points="438.657 1398.23 430.295 1396.342 430.295 1392.465 438.657 1394.454 438.657 1398.23"/>
      <polygon class="cls-6" points="430.295 1392.465 456.465 1370.974 459.619 1370.974 437.815 1394.454 430.295 1392.465"/>
      <path class="cls-2" d="m423.701,1309.986c-9.179-.164-8.268-7.421-8.268-7.421,0,0-6.428-1.976-8.496-5.573-2.076-3.597-2.905-10.39,0-17.128,2.896-6.738,14.114-4.68,14.114-4.68l-2.186.279-1.801.257c-10.879.809-10.231,9.471-9.652,16.361.591,7.037,9.541,8.763,9.541,8.763,0,0-.801,8.541,6.748,9.142Z"/>
      <path class="cls-20" d="m423.738,1309.986h-.036"/>
      <path class="cls-2" d="m419.693,1280.584l8.479,13.91v-2.583l-6.329-11.055s-.993-.528-2.15-.273Z"/>
      <polygon class="cls-2" points="428.172 1294.494 429.366 1296.669 430.738 1296.633 428.172 1291.911 428.172 1294.494"/>
      <path class="cls-2" d="m430.54,1300.27h1.395s.99,6.844-5.618,6.718c0,0,4.684-.94,4.223-6.718Z"/>
      <path class="cls-7" d="m508.17,1287.012c.27,4.107-.653,9.98-9.322,9.98h-5.532s9.671-9.78,10.972-17.374c.028,0,3.531,2.069,3.882,7.394Z"/>
      <path class="cls-2" d="m489.538,1301.456s-1.337,4.158,3.778,6.037c0,0-3.364-.786-2.874-7.222l-.904,1.185Z"/>
      <path class="cls-2" d="m503.942,1281.095s3.872,2.163,3.218,7.552c-.654,5.389-4.41,7.86-4.891,7.968,0,0,4.451-.467,5.626-5.562s-.685-9.297-3.607-11.436l-.347,1.477Z"/>
      <path class="cls-2" d="m459.051,1372.344c0,.009-.009.018-.009.018l-17.265,17.42-3.961,4.671-7.521-1.985s25.168-20.671,26.17-21.49c1.002-.829,1.849-4.007,1.849-4.007,0,0-2.04-7.849-4.362-16.536-2.632-9.88-5.628-20.862-6.365-22.61-1.393-3.278-.41-6.802.492-8.523.902-1.712.492-3.433.492-3.433-7.941-3.779-14.333-13.541-14.588-13.923v-.009c-.027-1.184-.246-2.194-.41-2.805.019.036.055.073.073.1.009.018.046.073.082.109.036.046.072.1.1.155,1.211,1.684,6.784,8.915,17.055,15.826-.118,1.584-.428,3.952-1.22,5.901-.601,1.503-.692,2.978-.592,4.171.091,1.43.437,2.413.437,2.413,0,0,7.394,27.281,9.689,33.865.465,1.311.729,2.522.865,3.606.537,4.198-.856,6.802-1.011,7.066Z"/>
      <polygon class="cls-6" points="441.777 1389.782 459.042 1372.362 437.816 1394.453 441.777 1389.782"/>
      <path class="cls-6" d="m459.051,1372.344c.155-.264,1.548-2.868,1.011-7.066.674,4.908-.847,6.875-1.011,7.066Z"/>
      <path class="cls-5" d="m473.483,1311.294s24.738-15.395,28.027-32.896l-12.13-.526s-1.424,22.238-15.898,33.422Z"/>
      <path class="cls-5" d="m470.213,1315.266s5.226,6.126,3.269,13.454c-1.957,7.329-10.379,36.557-10.379,36.557,0,0,7.219-31.416,6.782-36.995s-3.282-11.814-3.282-11.814l3.61-1.203Z"/>
      <polygon class="cls-5" points="462.165 1372.846 484.712 1392.605 479.465 1392.605 462.165 1372.846"/>
    </g>
    <path class="cls-4" d="m361.396,1464.96c0,7.46-4.82,13.6-11.02,14.41-6.2-.81-11.02-6.95-11.02-14.41s4.82-13.6,11.02-14.41c6.2.81,11.02,6.95,11.02,14.41Z"/>
    <g>
      <path class="cls-2" d="m350.376,1479.37c-.46.06-.92.09-1.39.09-6.85,0-12.41-6.49-12.41-14.5s5.56-14.5,12.41-14.5c.47,0,.93.03,1.39.09-6.2.81-11.02,6.95-11.02,14.41s4.82,13.6,11.02,14.41Z"/>
      <path class="cls-4" d="m361.396,1464.96c0,7.46-4.82,13.6-11.02,14.41-6.2-.81-11.02-6.95-11.02-14.41s4.82-13.6,11.02-14.41c6.2.81,11.02,6.95,11.02,14.41Z"/>
      <path class="cls-15" d="m369.216,1398.261c-.703,25.588-19.553,47.914-19.553,47.914-23.745-21.167-36.33-49.061-36.33-49.061l-1.343-1.812-2.163-2.956,4.278-3.515c-31.849,4.449,36.27,61.719,36.27,61.719,0,0,23.266-26.236,23.964-52.289,0,0-1.044-4.808-6.732-5.918l.748,1.125v.916h.862v3.877Z"/>
      <path class="cls-2" d="m352.692,1457.647v14.625h-2.214v-12.412h-.086l-3.499,2.285v-2.114l3.649-2.385h2.15Z"/>
    </g>
    <g>
      <polygon class="cls-19" points="541.722 1098.813 555.054 1099.058 552.769 1100.124 540.888 1100.124 541.722 1098.813"/>
      <ellipse class="cls-16" cx="553.822" cy="1099.634" rx="1.365" ry="1.097"/>
    </g>
    <polygon class="cls-19" points="546.589 1160.336 559.921 1160.581 557.636 1161.647 545.754 1161.647 546.589 1160.336"/>
    <ellipse class="cls-16" cx="558.688" cy="1161.157" rx="1.365" ry="1.097"/>
    <path class="cls-15" d="m553.822,1161.647c-227.44,125.21-546.017-10.607-546.017-10.607v-86.47s247.043,68.864,546.017,33.967c-21.008,31.05,0,63.111,0,63.111Z"/>
    <path class="cls-13" d="m236.538,1121.675l-228.732-38.205v-9.695s65.264,21.251,228.732,47.9Z"/>
    <path class="cls-13" d="m544.555,1154.751s-64.864,33.075-85.611,33.075c0,0,54.55-9.113,87.778-28.532l-2.167-4.543Z"/>
    <path class="cls-13" d="m540.927,1102.512l-2.583,5.97s-76.562,12.377-127.135,9.701c0,0,107.013-8.647,129.717-15.671Z"/>
    <path class="cls-13" d="m14.247,1141.759s130.893,52.853,236.589,59.742c0,0-87.53,8.483-236.589-54.726v-5.016Z"/>
    <path class="cls-1" d="m9.127,1171.82s306.244,130.981,514.967,4.524c0,0-180.586,99.997-516.288-25.303l1.321,20.78Z"/>
  </g>
  <g>
    <g>
      <path class="cls-3" d="m475.665,1164.534c-.031.583-.062,1.167-.092,1.75-.492,1.72-.983,3.44-1.475,5.16-.198.455-.396.91-.594,1.365-.306.595-.611,1.189-.917,1.784l-.02.02c-.29.479-.579.959-.869,1.438-.04.12-.095.232-.165.337-.891.954-1.781,1.909-2.672,2.864l-.018.018c-.308.303-.616.606-.924.909-2.954,1.806-5.723,4.12-8.912,5.279-3.429,1.246-7.252,1.408-10.903,2.043-3.315-.546-6.629-1.092-9.944-1.639h0c-.443-.913-.913-1.136-1.435-.057-1.772-1.051-3.555-2.084-5.313-3.158-1.281-.782-2.581-1.551-3.765-2.465-.4-.309-.775-1.141-.641-1.571,1.097-3.519,2.317-7,3.454-10.359,3.244,1.688,6.164,3.208,9.084,4.728,2.998.66,5.996,1.32,8.994,1.979.689-.008,1.379-.016,2.068-.024,1.134-.068,2.269-.136,3.403-.204,3.913-.044,7.108-1.917,10.053-4.193,1.937-1.497,2.734-6.132,1.784-8.619-.873-2.286-3.097-3.459-6.348-3.587-4.996-.196-9.593,1.668-14.377,2.568-4.615.868-9.174.477-12.902-2.76-3.927-3.41-6.118-7.751-5.674-13.082.502-6.027,3.139-10.886,8.284-14.25.354-.238.708-.476,1.062-.713.044-.153.145-.236.303-.25,2.933-.889,5.867-1.775,8.795-2.68.099-.03.137-.256.203-.391.763-.042,1.527-.084,2.29-.126.62-.12,1.241-.239,1.861-.359.628-.008,1.256-.017,1.884-.025,1.227-.016,2.454-.033,3.68-.049.325-.004.65-.007.975-.011.775-.019,1.55-.038,2.325-.057.31-.011.619-.021.929-.032.576.178,1.15.363,1.727.534,3.154.937,6.31,1.872,9.465,2.807-.99,2.911-2.003,5.814-2.959,8.736-.444,1.357-1.446,1.511-2.441.983-5.351-2.841-11.131-2.513-16.829-2.137-4.169.275-8.468.737-11.18,4.774-1.008,1.501-1.517,2.912-.587,4.605.99,1.804,2.168,3.659,4.433,3.474,3.612-.295,7.197-.968,10.78-1.557,1.77-.291,3.511-.751,5.266-1.135,1.394-.113,2.788-.225,4.182-.338.317-.014.634-.029.951-.043,2.762.914,5.524,1.829,8.286,2.743l.033.033c.309.296.618.591.927.887l.018.017c.336.281.672.563,1.008.844.141.169.283.339.424.508.283.477.566.953.849,1.43.185.453.37.906.555,1.358l.758,1.479c.064.433.129.866.193,1.3.053.307.106.613.159.92.149.753.298,1.506.447,2.259.022,1.311.043,2.623.065,3.934Z"/>
      <path class="cls-3" d="m270.343,1128.601c.785.017,1.571.033,2.356.05.283,1.042.565,2.085.848,3.127.155,4.05.309,8.1.464,12.149-.001.922-.002,1.844-.004,2.766-.003,16.311-.005,32.622-.008,48.933-.717-.069-1.433-.138-2.15-.208-1.664-.11-3.328-.22-4.992-.33l-1.172-.369c-.009-13.224-.047-26.448-.007-39.672.011-3.697.252-7.394.387-11.091v-1.686c-.6.813-.919,1.245-1.238,1.678-4.54,5.404-9.081,10.809-13.637,16.232-4.084-6.43-8.252-12.993-12.42-19.556-.258.077-.517.153-.775.23-.069.689-.171,1.377-.203,2.068-.203,4.386-.375,8.773-.587,13.159-.277,5.757-.715,11.509-.838,17.269-.136,6.346.007,12.699.029,19.048l-7.976-.479c-.044-3.8-.175-7.602-.115-11.401.139-8.825.315-17.649.58-26.471.237-7.864.66-15.723.899-23.587.065-2.118-.239-4.247-.391-6.646,2.516.186,4.955.215,7.327.628.776.135,1.491,1.186,2.042,1.955,3.979,5.55,7.963,11.099,11.818,16.736.948,1.387,1.51,1.664,2.616.267,2.59-3.271,5.251-6.486,7.883-9.723,1.06-1.271,2.12-2.543,3.18-3.814.001-.173.083-.29.246-.351.214-.357.429-.713.643-1.07l-.004.003c.335-.105.669-.21,1.004-.315.788.013,1.576.025,2.365.038.61.145,1.22.289,1.83.434Z"/>
      <path class="cls-3" d="m356.981,1133.317c5.761,1.431,10.905,3.858,13.012,9.894,2.895,8.295,2.458,17.638-5.081,24.29-1.047.924-.938,1.485-.401,2.644,1.679,3.627,3.129,7.36,4.668,11.052.121.179.243.358.364.537.11.074.184.175.22.303.539,1.456,1.078,2.911,1.618,4.367.12.069.198.17.232.304.547,1.606,1.095,3.212,1.642,4.818.339,1.049.679,2.097,1.018,3.146-.73.105-1.46.21-2.19.314-.503.065-1.006.13-1.509.194l-5.491.243-1.877-1.707c-2.045-5.727-4.09-11.453-6.135-17.18-.212-.666-.425-1.333-.637-1.999-.286-.707-.572-1.415-.858-2.122-.013-1.468-.811-1.922-2.204-1.949-3.426-.067-6.85-.289-10.276-.333-.325-.004-.661.805-.992,1.236.168,5.455.29,10.912.524,16.363.121,2.821.443,5.633.674,8.45-2.713.131-5.426.263-8.139.395-.316-2.785-.734-5.562-.927-8.355-.382-5.518-.663-11.044-.942-16.569-.197-3.919-.327-7.841-.477-11.763-.319-8.311-.626-16.623-.962-24.934-.024-.589-.244-1.17-.373-1.755.14-.134.281-.268.421-.401,3.25-.004,6.5-.009,9.749-.013.174.228.35.657.522.655,4.337-.038,8.674-.122,13.011-.197l1.796.071Zm-16.598,9.195c.344,5.381.705,11.024,1.089,17.024,4.848,0,9.81.332,14.698-.124,2.949-.275,5.426-1.896,6.184-5.486,1.029-4.879-.476-10.124-5.75-10.963-1.867-.297-3.777-.395-5.67-.432-3.446-.066-6.895-.019-10.55-.019Z"/>
      <path class="cls-3" d="m148.771,1165.372c-.088.095-.136.206-.144.335-.265.82-.529,1.639-.794,2.459-.025.304-.05.609-.075.913-.288.783-.575,1.566-.863,2.349-.499,2.011-.997,4.022-1.496,6.033-2.778-.465-5.556-.929-8.335-1.394.472-2.071.833-4.174,1.436-6.206,1.789-6.029,3.511-12.086,5.563-18.028,2.277-6.594,4.988-13.036,7.321-19.612,1.905-5.37,3.531-10.839,5.281-16.264.429-.971.858-1.942,1.288-2.913.038-.428.076-.857.114-1.285.147-.124.293-.249.44-.373.307.004.613.008.92.013,1.236.297,2.471.594,3.707.891.474.016.947.033,1.421.049.308.11.617.221.925.331l.892.139c.255.285.509.57.764.856,2.238,7.893,4.669,15.737,6.651,23.693,1.576,6.325,2.658,12.777,3.862,19.191,1.598,8.515,3.1,17.047,4.644,25.572.146.47.292.939.438,1.409.02.471.04.941.06,1.411-.623.076-1.267.292-1.865.203-2.194-.33-4.372-.762-6.556-1.155-.793-4.563-1.579-9.128-2.39-13.689-.101-.567-.341-1.11-.516-1.664-.352-.31-.669-.833-1.062-.899-6.855-1.148-13.718-2.254-20.59-3.298-.293-.045-.693.607-1.042.934Zm14.811-11.544l1.896.335c.456.041.912.083,1.369.124.814.132,1.628.264,2.441.396-.162-.645-.323-1.289-.485-1.934-.795-4.05-1.54-8.112-2.397-12.149-1.063-5.006-2.22-9.992-3.479-15.628-.596,1.342-.962,2.071-1.249,2.831-2.374,6.28-4.79,12.545-7.06,18.863-.647,1.8-.855,3.758-1.264,5.644.316.135.632.271.947.406.608.057,1.217.114,1.825.171.786.116,1.573.232,2.359.348.456.041.912.083,1.369.124.633.108,1.265.215,1.898.323.61.049,1.22.098,1.83.147Z"/>
      <path class="cls-3" d="m293.651,1178.917c-.489.088-.978.177-1.466.265-.267.521-.533,1.042-.8,1.563-.524,3.717-1.048,7.435-1.572,11.152-.063.642-.126,1.285-.189,1.927-.079.448-.158.896-.237,1.344-.276.317-.561.916-.827.907-2.664-.082-5.326-.263-7.988-.416,1.028-6.824,1.964-13.664,3.103-20.47,1.905-11.371,6.483-21.9,10.424-32.633,1.351-3.678,2.334-7.491,3.477-11.215,1.791,0,3.494.014,5.197-.003,3.773-.037,3.806-.057,5.276,3.525,2.313,5.64,4.674,11.263,6.834,16.961,2.585,6.821,5.232,13.636,7.385,20.599,1.967,6.364,3.305,12.923,4.936,19.392.165.655.433,1.283.654,1.924.102.326.204.652.305.977.02.304.039.609.059.913-.089.282-.188.814-.267.811-2.87-.101-5.738-.252-8.607-.396-1.268-5.101-2.536-10.203-3.804-15.304.258-1.074-.135-1.469-1.257-1.424-1.577.063-3.161-.027-4.742-.052-1.675-1.346-3.408-1.138-5.169-.196-3.574-.05-7.148-.101-10.723-.151Zm6.975-12.964l4.71.244h6.454c-2.541-8.07-5.169-15.862-9.189-23.306-2.719,7.017-5.136,14.055-7.482,21.116-.405,1.219.188,1.893,1.557,1.859,1.315-.033,2.634.054,3.951.088Z"/>
      <path class="cls-3" d="m122.112,1104.378c1.805,1.047,3.672,2,5.402,3.159,4.65,3.117,7.145,7.539,7.675,13.103.285,2.991,1.103,6.022.824,8.954-.371,3.883-1.278,7.784-2.496,11.5-2.057,6.273-7.331,11.423-14.627,11.289-3.747-.613-7.493-1.225-11.24-1.838-.299-.045-.599-.09-.898-.136-.909.016-1.819.033-2.728.049-.166,4.943-.338,9.885-.493,14.828-.06,1.93-.821,2.263-2.609,1.459-1.609-.723-3.36-1.13-4.898-1.627,0-5.233-.115-10.631.021-16.023.418-16.486.932-32.969,1.409-49.454.61.013,1.22.026,1.83.039.311-.015.621-.031.932-.046,0,0-.043.097-.043.097.412.264.794.67,1.242.768,2.707.593,5.421,1.165,8.15,1.646,1.994.351,4.015.551,6.024.819.305.016.61.032.915.048,1.87.455,3.739.91,5.609,1.365Zm.57,34.501c.828-.796,1.939-1.448,2.434-2.415,2.079-4.065,2.745-8.479,1.967-12.934-.766-4.39-3.558-7.172-8.005-8.092-4.505-.932-9.021-1.816-14.247-2.864v24.81c.394.39.741,1.052,1.188,1.128,3.94.668,7.884,1.429,11.859,1.727,1.559.117,3.201-.874,4.805-1.36Z"/>
      <path class="cls-3" d="m399.009,1141.595c-1.23.03-2.461.06-3.691.09-1.536-.042-3.075-.144-4.607-.081-.359.015-.695.591-1.042.909.006,2.162.042,4.324.007,6.486-.027,1.658.451,2.591,2.383,2.439,2.616-.206,5.25-.194,7.876-.276l2.309.063c.638-.09,1.275-.179,1.913-.269,3.166,0,6.333,0,9.817,0,.114,1.052.281,2.589.448,4.127l-.02,3.755c-.501.241-1.002.482-1.503.723-2.295.124-4.591.248-6.886.372l-1.876-.206c-2.175.098-4.35.196-6.525.294h-6.847c.488,7.063.956,13.838,1.435,20.783,9.199-.423,18.386-.846,27.772-1.278.195,2.869.36,5.295.525,7.72.111.477.222.954.333,1.43.013.449.025.899.038,1.348-3.508.399-7.023.743-10.52,1.216-2.851.385-5.681.924-8.52,1.395-2.029.132-4.058.264-6.087.396-.303.029-.606.057-.909.086-1.407.132-2.814.265-4.221.397-.301.029-.602.059-.903.088-1.704.038-3.407.077-5.111.115-.634-7.7-1.319-15.396-1.886-23.101-.411-5.586-.632-11.185-.996-16.774-.418-6.418-.902-12.831-1.346-19.248-.032-.46.033-.926.053-1.39,1.389-.275,2.778-.549,4.166-.824,1.854-.043,3.708-.086,5.562-.129,1.875-.113,3.75-.226,5.625-.339,3.562-.202,7.124-.403,10.686-.605,1.098-.109,2.196-.218,3.294-.327.922-.045,1.845-.09,2.767-.136.943-.108,1.885-.215,2.828-.323.289.011.579.021.868.032l.409,2.617c-.025,2.321-.05,4.643-.074,6.964-.57.144-1.14.287-1.709.431-1.071.061-2.141.122-3.212.183-4.207.282-8.414.564-12.622.846Z"/>
      <path class="cls-3" d="m199.359,1118.811c.176,3.398.352,6.796.528,10.193,0,.46,0,.92,0,1.381-.052,1.525-.103,3.05-.155,4.576-.069.342-.138.685-.208,1.027l-.089,4.202c-.112.485-.225.97-.337,1.456-.637,11.197-1.275,22.394-1.937,34.023,8.033.778,15.572,1.508,23.578,2.283-.26,4.362-.518,8.692-.777,13.023-1.21-.013-2.42-.026-3.63-.038-.522-.228-1.044-.455-1.565-.683-.736-.062-1.473-.125-2.209-.187-.752-.274-1.483-.677-2.259-.803-7.025-1.141-14.058-2.234-21.089-3.341-.033-2.682-.065-5.365-.098-8.047.028-1.781.002-3.564.093-5.342.466-9.035.956-18.07,1.453-27.104.13-2.366.318-4.728.479-7.092.26-2.675.519-5.35.779-8.025-.003-1.809-.005-3.619-.008-5.428.022-2.03.045-4.06.067-6.09.336-.337.672-.674,1.008-1.012.454.046.908.091,1.363.137.628.143,1.256.286,1.884.429.63.01,1.259.02,1.889.029.413.145.826.29,1.239.435Z"/>
    </g>
    <path class="cls-3" d="m407.14,1119.274c-.317,1.748-.629,3.918-1.175,6.05-.093.362-1.278.876-1.811.783-3.007-.52-5.986-1.156-8.941-1.844-2.71-.631-5.377-1.379-8.349-2.15.367-2.726.642-5.557,1.175-8.356.225-1.181,1.221-1.228,2.616-.681,5.308,2.083,10.696,4.036,16.485,6.198Z"/>
  </g>
</svg>