<?xml version="1.0" encoding="UTF-8"?>
<svg id="Calque_1" data-name="Calque 1" xmlns="http://www.w3.org/2000/svg" width="3936.521" height="2906.402" viewBox="0 0 3936.521 2906.402">
  <defs>
    <style>
      .cls-1 {
        fill: #fb9756;
      }

      .cls-2 {
        fill: #ff9f57;
      }

      .cls-3 {
        fill: #e46b36;
      }

      .cls-4 {
        fill: #d25e31;
      }

      .cls-5 {
        fill: #d15d48;
      }

      .cls-6 {
        fill: #c55433;
      }

      .cls-7 {
        fill: #d5703f;
      }

      .cls-8 {
        fill: #d65d31;
      }

      .cls-9 {
        fill: #631715;
      }
    </style>
  </defs>
  <polygon class="cls-9" points="8.806 2315.855 242.152 2315.855 242.152 2255.247 201.479 2253.44 203.907 2205.771 149.955 2205.771 149.955 2160.006 107.809 2160.006 107.809 2108.056 51.174 2108.056 51.174 2054.869 8.805 2054.869 8.806 2315.855"/>
  <polygon class="cls-5" points="242.152 2315.855 700.616 2130.4 700.616 2075.85 242.152 2255.247 242.152 2315.855"/>
  <polygon class="cls-2" points="700.616 2075.85 661.766 2077.747 201.479 2253.44 242.152 2255.247 700.616 2075.85"/>
  <polygon class="cls-8" points="203.907 2205.771 661.766 2035.22 661.766 2077.747 201.479 2253.44 203.907 2205.771"/>
  <polygon class="cls-1" points="661.766 2035.22 626.791 2035.22 149.955 2205.771 203.907 2205.771 661.766 2035.22"/>
  <polygon class="cls-3" points="149.955 2160.006 626.791 1996.323 626.791 2035.22 149.955 2205.771 149.955 2160.006"/>
  <polygon class="cls-1" points="107.809 2160.006 583.925 1996.323 626.791 1996.323 149.955 2160.006 107.809 2160.006"/>
  <polygon class="cls-4" points="107.809 2160.006 107.809 2108.056 583.925 1963.453 583.925 1996.323 107.809 2160.006"/>
  <polygon class="cls-1" points="51.174 2108.056 547.773 1963.453 583.925 1963.453 107.809 2108.056 51.174 2108.056"/>
  <polygon class="cls-6" points="547.773 1963.453 547.773 1915.581 51.174 2054.869 51.174 2108.056 547.773 1963.453"/>
  <polygon class="cls-7" points="8.805 2054.869 513.209 1915.581 547.773 1915.581 51.174 2054.869 8.805 2054.869"/>
  <polygon class="cls-6" points="513.209 1915.581 513.209 1882.161 8.806 2016.655 8.806 2054.869 513.209 1915.581"/>
  <polygon class="cls-7" points="513.209 1882.161 465.013 1884.939 8.805 2003.354 8.806 2016.655 513.209 1882.161"/>
</svg>