<?xml version="1.0" encoding="UTF-8"?>
<svg id="Calque_1" data-name="Calque 1" xmlns="http://www.w3.org/2000/svg" width="3936.521" height="2906.402" viewBox="0 0 3936.521 2906.402">
  <defs>
    <style>
      .cls-1 {
        fill: #ffd5c2;
      }

      .cls-2 {
        fill: #927b87;
      }

      .cls-3 {
        fill: #b496a7;
      }

      .cls-4 {
        fill: #bb917c;
      }

      .cls-5 {
        fill: #b194a4;
      }

      .cls-6 {
        fill: #c0a0b2;
      }

      .cls-7 {
        fill: #cda38b;
      }

      .cls-8 {
        fill: #cba9bc;
      }

      .cls-9 {
        fill: #daae98;
      }

      .cls-10 {
        fill: #e1bcae;
      }

      .cls-11 {
        fill: #42373d;
      }

      .cls-12 {
        fill: #837d79;
      }

      .cls-13 {
        fill: none;
        stroke: #66555f;
        stroke-miterlimit: 10;
      }
    </style>
  </defs>
  <g>
    <g id="devant">
      <polygon class="cls-1" points="1757.024 2325.403 1737.66 2345.048 2192.706 2345.048 2175.763 2325.403 1757.024 2325.403"/>
      <rect class="cls-10" x="1737.66" y="2345.048" width="455.046" height="14.717"/>
      <g>
        <path class="cls-7" d="m2130.899,2331.821v3.781s-2.665,4.486-14.154,4.579c-11.489.093-15.118-5.07-15.118-5.07v-4.811s-.101,3.32,4.24,5.258c4.341,1.938,9.646,2.66,15.27,1.83,5.623-.83,8.522-2.307,9.762-5.567Z"/>
        <g>
          <g>
            <path class="cls-7" d="m2128.693,2327.607l-.57,2.692.56-2.692h.01Z"/>
            <path class="cls-7" d="m2272.823,1602.563l-153.28,727.735h-14.51l.92-4.352.01-.01,154.19-725.33,12.66,1.957h.01Z"/>
            <path class="cls-4" d="m2280.963,1603.823l-152.27,723.784h-.01l-.56,2.692s0,.076-.01.21c-.13.811-1.15,3.846-9.57,4.514l1-4.724,153.28-727.735,8.14,1.26Z"/>
            <path class="cls-7" d="m2128.113,2330.508c-.12.935-1.2,4.6-10.98,4.6-3.2,0-5.56-.391-7.29-.945-.16-.048-.32-.105-.48-.172-.07-.019-.13-.048-.2-.076-3.49-1.336-4.07-3.35-4.12-3.589,0-.01-.01-.019-.01-.029h14.51l-1,4.724c8.42-.668,9.44-3.703,9.57-4.514Z"/>
            <path class="cls-9" d="m2130.863,2331.291c0,2.653-2.75,4.867-9.06,5.994-6.3,1.117-16.28.134-19.36-4.581-.58-.897-.82-1.699-.82-2.405.01-2.921,4.07-4.276,4.33-4.352l.01-.01-.93,4.362c0,.01.01.019.01.029.85,1.747,2.4,2.873,4.12,3.589.07.029.13.057.2.076.16.067.32.124.48.172,3.45,1.212,7.29.945,7.29.945.49-.019.96-.048,1.41-.086,8.42-.668,9.44-3.703,9.57-4.514.01-.134.01-.21.01-.21l.56-2.692h.01c.12.067,2.17,1.107,2.17,3.684Z"/>
          </g>
          <path class="cls-6" d="m2260.154,1600.607s8.039,6.371,20.81,3.217c.068-.311.142-.845-.026-1.44-1.441-5.097-18.461-6.801-20.553-2.738-.198.385-.228.754-.23.962Z"/>
          <path class="cls-5" d="m2280.644,1576.396l-.47,2.09-.41,1.88-4.06,18.23-.28,1.27s-.03.13-.14.35c-1.28.27-2.43.35-3.44.31l.61-2.71,4.5-19.87v-.01l.35-1.54h3.34Z"/>
          <path class="cls-8" d="m2277.303,1576.393l-5.46,24.137c-3.61-.124-5.54-1.746-5.54-1.746l4.57-22.391h6.43Z"/>
          <path class="cls-2" d="m2285.654,1571.286c-.01.06-.03.11-.04.17l-1.93,7.63-2.99-.51c.15-.89.69-3.98,1.62-8.23.13-.59.2-1.16.22-1.69.17-3.95-2.21-6.44-2.41-6.65,3.99,1.25,6.46,5.24,5.53,9.28Z"/>
          <path class="cls-5" d="m2282.533,1568.656c-.02.53-.09,1.1-.22,1.69-.93,4.25-1.47,7.34-1.62,8.23l-.06-.01-.46-.08-3.21-.54h-.01l-6.18-1.05-2.96-.5.96-5.52.46-2.61c.52-2.97,2.7-5.29,5.48-6.23.87-.29,1.8-.45,2.75-.45.45,0,.89.04,1.34.11.45.07.89.17,1.31.3v.01h.01c.2.21,2.58,2.7,2.41,6.65Z"/>
        </g>
      </g>
      <g>
        <path class="cls-7" d="m1802.336,2334.244v2.868s2.483,3.402,13.186,3.473c10.703.07,14.084-3.845,14.084-3.845v-3.649s.094,2.518-3.95,3.988c-4.044,1.47-8.986,2.018-14.225,1.388-5.239-.629-7.939-1.75-9.095-4.222Z"/>
        <g>
          <g>
            <path class="cls-7" d="m1804.391,2331.048l.531,2.041-.522-2.041h-.009Z"/>
            <path class="cls-7" d="m1670.119,1781.148l142.796,551.941h13.518s-.857-3.301-.857-3.301l-.009-.007-143.644-550.117-11.794,1.484h-.009Z"/>
            <path class="cls-4" d="m1662.536,1782.104l141.855,548.944h.009l.522,2.041s0,.058.009.159c.121.615,1.071,2.917,8.915,3.424l-.932-3.583-142.796-551.941-7.583.956Z"/>
            <path class="cls-7" d="m1804.931,2333.248c.112.709,1.118,3.489,10.229,3.489,2.981,0,5.18-.297,6.791-.717.149-.036.298-.08.447-.13.065-.014.121-.036.186-.058,3.251-1.014,3.792-2.541,3.838-2.722,0-.007.009-.014.009-.022h-13.518s.932,3.583.932,3.583c-7.844-.507-8.794-2.809-8.915-3.424Z"/>
            <path class="cls-9" d="m1802.369,2333.842c0,2.012,2.562,3.692,8.44,4.546,5.869.847,15.167.101,18.036-3.475.54-.68.764-1.289.764-1.824-.009-2.215-3.792-3.243-4.034-3.301l-.009-.007.866,3.308c0,.007-.009.014-.009.022-.792,1.325-2.236,2.179-3.838,2.722-.065.022-.121.043-.186.058-.149.051-.298.094-.447.13-3.214.919-6.791.717-6.791.717-.456-.014-.894-.036-1.313-.065-7.844-.507-8.794-2.809-8.915-3.424-.009-.101-.009-.159-.009-.159l-.522-2.041h-.009c-.112.051-2.022.84-2.022,2.794Z"/>
          </g>
          <path class="cls-6" d="m1681.922,1779.664s-7.489,4.832-19.386,2.44c-.063-.236-.132-.641.024-1.092,1.343-3.866,17.199-5.158,19.147-2.077.184.292.212.572.215.729Z"/>
          <path class="cls-5" d="m1662.834,1761.3l4.863,17.8s.028.101.13.268c1.192.203,2.264.268,3.205.239l-5.087-18.307h-3.112Z"/>
          <path class="cls-8" d="m1665.946,1761.3l5.087,18.307c3.363-.094,5.161-1.325,5.161-1.325l-4.257-16.982h-5.99Z"/>
          <path class="cls-2" d="m1661.273,1755.096c.87,4.01,1.37,6.92,1.51,7.77l-2.78.47-1.8-7.19c-.8-3.2.64-6.38,3.3-8.06.14-.09.28-.17.42-.26h.01c.44-.24.9-.43,1.39-.59-.08.08-.47.49-.89,1.19-.42.65-.87,1.56-1.13,2.69-.27,1.12-.36,2.46-.03,3.98Z"/>
          <path class="cls-5" d="m1674.783,1760.806l-2.85.49-5.72.98-2.97.51-.4.07-.06.01c-.14-.85-.64-3.76-1.51-7.77-.33-1.52-.24-2.86.03-3.98.26-1.13.71-2.04,1.13-2.69.42-.7.81-1.11.89-1.19v-.01c.4-.12.81-.22,1.22-.29.42-.06.83-.09,1.25-.09,2.68,0,5.13,1.34,6.53,3.46.56.83.96,1.79,1.14,2.83l1.32,7.67Z"/>
        </g>
      </g>
      <g>
        <polygon class="cls-7" points="2175.743 1998.786 2171.394 2014.866 1744.193 2014.866 1739.983 1998.756 1743.103 2005.836 2171.954 2005.836 2173.483 1998.786 2175.743 1998.786"/>
        <polygon class="cls-6" points="1737.208 1991.391 1744.752 2020.286 1746.953 2020.286 1739.247 1991.391 1737.208 1991.391"/>
        <polygon class="cls-6" points="2177.151 1991.178 2170.971 2020.396 2168.773 2020.499 2175.114 1991.274 2177.151 1991.178"/>
        <polygon class="cls-4" points="2173.483 1998.786 2171.954 2005.836 1743.103 2005.836 1740.972 1998.756 2173.483 1998.786"/>
      </g>
    </g>
    <g>
      <path class="cls-3" d="m1663.404,1791.886l-4.95,8.56s-1.06,1.81-2.79,1.02c.79,0,1.82-1.69,1.82-1.69l5.44-9.84.48,1.95Z"/>
      <g>
        <line class="cls-13" x1="1656.81" y1="1799.09" x2="1308.94" y2="2355.268"/>
        <polygon class="cls-3" points="1664.553 1789.906 1663.404 1791.886 1661.493 1784.086 1662.533 1782.106 1664.553 1789.906"/>
        <path class="cls-8" d="m1662.923,1789.936l-5.44,9.84s-1.03,1.69-1.82,1.69h-.01c-.02,0-.03-.01-.04-.02-.09-.04-.19-.09-.28-.15-1.93-1.2-.96-3.66-.96-3.66l7.12-13.55,1.43,5.85Z"/>
        <path class="cls-11" d="m1654.331,1800.126l-.502.855,2.164,1.668.564-.979s-.486.146-1.223-.373-1.002-1.171-1.002-1.171Z"/>
      </g>
    </g>
    <g>
      <path class="cls-3" d="m2279.213,1614.264l4.95,8.56s1.06,1.81,2.79,1.02c-.79,0-1.82-1.69-1.82-1.69l-5.44-9.84-.48,1.95Z"/>
      <g>
        <line class="cls-13" x1="2285.807" y1="1621.468" x2="2620.65" y2="2346.918"/>
        <polygon class="cls-3" points="2278.063 1612.284 2279.213 1614.264 2281.124 1606.464 2280.083 1604.484 2278.063 1612.284"/>
        <path class="cls-8" d="m2279.693,1612.314l5.44,9.84s1.03,1.69,1.82,1.69h.01c.02,0,.03-.01.04-.02.09-.04.19-.09.28-.15,1.93-1.2.96-3.66.96-3.66l-7.12-13.55-1.43,5.85Z"/>
        <path class="cls-11" d="m2288.286,1622.503l.502.855-2.164,1.668-.564-.979s.486.146,1.223-.373,1.002-1.171,1.002-1.171Z"/>
      </g>
    </g>
  </g>
  <path class="cls-12" d="m1290.476,2355.268h0c0-4.612,3.738-8.35,8.35-8.35h28.666c4.612,0,8.35,3.738,8.35,8.35h0s-45.366,0-45.366,0Z"/>
  <path class="cls-12" d="m2597.967,2355.268h0c0-4.612,3.738-8.35,8.35-8.35h28.666c4.612,0,8.35,3.738,8.35,8.35h0s-45.366,0-45.366,0Z"/>
</svg>