<?xml version="1.0" encoding="UTF-8"?>
<svg id="Calque_1" data-name="Calque 1" xmlns="http://www.w3.org/2000/svg" width="3936.521" height="2906.402" viewBox="0 0 3936.521 2906.402">
  <defs>
    <style>
      .cls-1 {
        fill: #fff9e2;
      }

      .cls-2 {
        fill: #933e2f;
      }

      .cls-3 {
        fill: #be644c;
      }

      .cls-4 {
        fill: #c8aba5;
      }
    </style>
  </defs>
  <path class="cls-1" d="m3815.284,1763.237v-.73c-.012-3.156-.012-6.901-.035-11.223,0-3.391-.012-7.125-.024-11.199-.024-11.223-.059-25-.094-41.051-.012-3.615-.024-7.36-.036-11.211,0-3.639-.012-7.372-.023-11.199-.059-26.343-.141-57.279-.235-91.947-.012-3.698-.024-7.443-.036-11.223,0-3.698-.012-7.431-.023-11.199-.071-26.755-.141-55.453-.224-85.706-.012-3.721-.024-7.454-.035-11.222,0-3.71-.012-7.443-.024-11.199-.059-20.82-.106-42.311-.165-64.356-.012-1.319-.012-2.638-.012-3.957-.012-3.721-.024-7.466-.035-11.223,0-3.71-.012-7.454-.024-11.199-.07-26.649-.141-54.029-.212-81.949l-.035-12.259c-.012-3.733-.012-7.478-.035-11.223,0-3.721-.012-7.454-.012-11.199-.059-17.016-.094-34.209-.141-51.52-.024-6.206-.035-12.412-.059-18.642,0-3.733-.012-7.466-.024-11.211-.012-3.721-.024-7.454-.035-11.199-.07-28.309-.141-56.878-.224-85.541-.012-3.286-.012-6.571-.024-9.868l-.024-8.773c-.012-3.745-.024-7.478-.035-11.223-.012-3.733-.012-7.466-.024-11.199-.047-21.409-.106-42.817-.165-64.168-.024-6.218-.035-12.435-.047-18.641-.012-3.745-.024-7.49-.035-11.223-.012-3.733-.012-7.466-.024-11.199-.059-22.092-.118-44.066-.177-65.84v-2.014c-.024-5.558-.035-11.105-.047-16.628-.012-3.745-.024-7.49-.035-11.223,0-3.733-.012-7.478-.024-11.199-.07-24.894-.129-49.459-.2-73.565l-.047-18.642c-.012-3.756-.024-7.489-.024-11.223-.012-3.745-.024-7.478-.035-11.199-.071-28.274-.141-55.806-.212-82.373-.012-3.756-.024-7.501-.024-11.223-.012-3.756-.024-7.489-.035-11.199-.094-33.832-.177-65.946-.259-95.868-.012-3.768-.012-7.513-.024-11.223-.012-3.768-.024-7.501-.035-11.199-.071-27.132-.141-52.215-.2-74.86-.012-4.204-.024-8.326-.035-12.365,0-3.815-.012-7.56-.024-11.223-.012-3.827-.024-7.56-.035-11.199-.153-60.894-.247-361.018-.247-361.018l-13.354,1.578.047,359.44.012,11.199v12.447l.047,86v11.199l.012,11.223.012,18.642.035,77.227.012,11.199v11.223l.012,18.642.035,63.732v11.199l.012,11.223v18.642l.047,73.565v11.199l.012,11.223v18.641l.035,65.84.012,11.199v11.223l.012,18.641.035,64.168v11.199l.012,11.223.012,18.642.047,85.541v22.41l.047,70.162v11.199l.012,11.223v18.641l.047,75.567v11.199l.012,11.223v18.641l.036,49.671v11.199l.012,11.222v18.642l.035,67.064.012,11.199v11.223l.012,18.642.035,73.306.012,11.199v11.211l.012,11.105.012,29.946.012,11.199v11.223l.012,18.642v2.544l-54.193,112.367-53.451-111.578v-3.332l-.024-18.642-.012-11.223-.012-11.199-.035-41.051-.012-11.211-.012-11.199-.094-91.947-.012-11.223-.012-11.199-.083-74.978-.012-10.728-.012-11.222-.012-11.199-.047-49.671-.024-18.641-.012-11.223-.012-11.199-.071-75.567-.024-18.641-.012-11.223-.012-11.199-.07-70.162-.012-11.211-.012-11.199-.106-104.182-.012-11.223-.012-11.199-.082-82.809-.012-11.223-.012-11.199-.094-84.481-.012-11.223-.012-11.199-.071-73.565-.024-18.642-.012-11.223-.012-11.199-.082-82.373-.012-11.223-.012-11.199-.094-95.868-.012-11.223-.012-11.199-.071-68.584-.024-18.642-.012-11.223-.012-11.199-.106-368.049h-15.674l.224,368.049.024,11.199.035,11.223.035,18.642.153,68.584.024,11.199.024,11.223.035,18.642.177,77.227.024,11.199.024,11.223.047,18.642.13,63.732.024,11.199.035,11.223.035,18.642.165,73.565.024,11.199.024,11.223.035,18.641.153,65.84.024,11.199.024,11.223.177,82.809.024,11.199.024,11.223.047,18.642.189,85.541.023,11.199.024,11.211.047,18.642.106,51.52.024,11.199.024,11.223.047,18.641.165,75.567.024,11.199.024,11.223.047,18.641.106,49.671.024,11.199.024,11.222.188,85.706.024,11.199.024,11.223.047,18.642.153,73.306.024,11.199.024,11.211.047,18.641.047,22.41.024,11.199.024,11.223.047,18.642v1.295s-.93,3.733,11.199,28.946c12.141,25.201,48.553,105.49,48.553,105.49,0,0-28.946,50.413-5.605,65.345,7.289,4.675,14.402,5.417,20.737,4.239,15.462-2.873,23.446-13.46,22.28-29.134-.553-7.513-20.396-43.995-20.396-43.995,0,0,51.649-100.002,60.117-132.186l.024-.083c.235-.907.436-1.755.601-2.555l.012-.047c.341-1.66.53-3.074.53-4.192,0-.907-.012-4.663-.024-11.034Zm-68.148,209.707c-19.136.648,0-40.557,0-40.557,0,0,19.136,39.909,0,40.557Z"/>
  <g>
    <path class="cls-3" d="m3822.275,374.66v4.639h-156.968v-4.639c0-3.638,2.943-6.56,6.56-6.56h143.869c3.617,0,6.54,2.922,6.54,6.56Z"/>
    <path class="cls-2" d="m3822.275,379.299v4.659c0,3.617-2.922,6.56-6.54,6.56h-143.869c-3.617,0-6.56-2.943-6.56-6.56v-4.659h156.968Z"/>
    <polygon class="cls-4" points="3674.207 390.517 3674.248 409.159 3689.747 409.159 3689.747 390.517 3674.207 390.517"/>
    <polygon class="cls-4" points="3798.093 390.517 3798.129 409.159 3811.725 409.159 3811.725 390.517 3798.093 390.517"/>
  </g>
  <g>
    <path class="cls-3" d="m3822.275,484.301v4.639h-156.968v-4.639c0-3.638,2.943-6.56,6.56-6.56h143.869c3.617,0,6.54,2.922,6.54,6.56Z"/>
    <path class="cls-2" d="m3822.275,488.94v4.659c0,3.617-2.922,6.56-6.54,6.56h-143.869c-3.617,0-6.56-2.943-6.56-6.56v-4.659h156.968Z"/>
    <polygon class="cls-4" points="3674.207 500.158 3674.248 518.8 3689.747 518.8 3689.747 500.158 3674.207 500.158"/>
    <polygon class="cls-4" points="3798.093 500.158 3798.129 518.8 3811.725 518.8 3811.725 500.158 3798.093 500.158"/>
  </g>
  <g>
    <path class="cls-3" d="m3822.275,602.592v4.639h-156.968v-4.639c0-3.638,2.943-6.56,6.56-6.56h143.869c3.617,0,6.54,2.922,6.54,6.56Z"/>
    <path class="cls-2" d="m3822.275,607.231v4.659c0,3.617-2.922,6.56-6.54,6.56h-143.869c-3.617,0-6.56-2.943-6.56-6.56v-4.659h156.968Z"/>
    <polygon class="cls-4" points="3674.207 618.449 3674.248 637.091 3689.747 637.091 3689.747 618.449 3674.207 618.449"/>
    <polygon class="cls-4" points="3798.093 618.449 3798.129 637.091 3811.725 637.091 3811.725 618.449 3798.093 618.449"/>
  </g>
  <g>
    <path class="cls-3" d="m3822.275,707.386v4.639h-156.968v-4.639c0-3.638,2.943-6.56,6.56-6.56h143.869c3.617,0,6.54,2.922,6.54,6.56Z"/>
    <path class="cls-2" d="m3822.275,712.025v4.659c0,3.617-2.922,6.56-6.54,6.56h-143.869c-3.617,0-6.56-2.943-6.56-6.56v-4.659h156.968Z"/>
    <polygon class="cls-4" points="3674.936 723.244 3674.976 741.886 3690.091 741.886 3690.091 723.244 3674.936 723.244"/>
    <polygon class="cls-4" points="3798.093 723.244 3798.129 741.886 3812.629 741.886 3812.579 723.244 3798.093 723.244"/>
  </g>
  <g>
    <path class="cls-3" d="m3822.275,822.016v4.639h-156.968v-4.639c0-3.638,2.943-6.56,6.56-6.56h143.869c3.617,0,6.54,2.922,6.54,6.56Z"/>
    <path class="cls-2" d="m3822.275,826.655v4.659c0,3.617-2.922,6.56-6.54,6.56h-143.869c-3.617,0-6.56-2.943-6.56-6.56v-4.659h156.968Z"/>
    <polygon class="cls-4" points="3675.104 837.874 3675.145 856.516 3690.139 856.516 3690.139 837.874 3675.104 837.874"/>
    <polygon class="cls-4" points="3798.093 837.874 3798.129 856.516 3812.925 856.516 3812.925 837.874 3798.093 837.874"/>
  </g>
  <g>
    <path class="cls-3" d="m3822.275,928.919v4.639h-156.968v-4.639c0-3.638,2.943-6.56,6.56-6.56h143.869c3.617,0,6.54,2.922,6.54,6.56Z"/>
    <path class="cls-2" d="m3822.275,933.558v4.659c0,3.617-2.922,6.56-6.54,6.56h-143.869c-3.617,0-6.56-2.943-6.56-6.56v-4.659h156.968Z"/>
    <polygon class="cls-4" points="3675.438 944.776 3675.479 963.418 3690.281 963.418 3690.281 944.776 3675.438 944.776"/>
    <polygon class="cls-4" points="3798.093 944.776 3798.129 963.418 3813.316 963.418 3813.316 944.776 3798.093 944.776"/>
  </g>
  <g>
    <path class="cls-3" d="m3822.275,1034.15v4.639h-156.968v-4.639c0-3.638,2.943-6.56,6.56-6.56h143.869c3.617,0,6.54,2.922,6.54,6.56Z"/>
    <path class="cls-2" d="m3822.275,1038.789v4.659c0,3.617-2.922,6.56-6.54,6.56h-143.869c-3.617,0-6.56-2.943-6.56-6.56v-4.659h156.968Z"/>
    <polygon class="cls-4" points="3675.656 1050.008 3675.697 1068.649 3690.333 1068.649 3690.333 1050.008 3675.656 1050.008"/>
    <polygon class="cls-4" points="3798.377 1050.008 3798.413 1068.649 3813.49 1068.649 3813.441 1050.008 3798.377 1050.008"/>
  </g>
  <g>
    <path class="cls-3" d="m3822.275,1143.222v4.639h-156.968v-4.639c0-3.638,2.943-6.56,6.56-6.56h143.869c3.617,0,6.54,2.922,6.54,6.56Z"/>
    <path class="cls-2" d="m3822.275,1147.861v4.659c0,3.617-2.922,6.56-6.54,6.56h-143.869c-3.617,0-6.56-2.943-6.56-6.56v-4.659h156.968Z"/>
    <polygon class="cls-4" points="3675.863 1159.08 3675.903 1177.722 3690.449 1177.722 3690.449 1159.08 3675.863 1159.08"/>
    <polygon class="cls-4" points="3798.531 1159.08 3798.567 1177.722 3813.831 1177.722 3813.831 1159.08 3798.531 1159.08"/>
  </g>
  <g>
    <path class="cls-3" d="m3822.275,1253.324v4.639h-156.968v-4.639c0-3.638,2.943-6.56,6.56-6.56h143.869c3.617,0,6.54,2.922,6.54,6.56Z"/>
    <path class="cls-2" d="m3822.275,1257.963v4.659c0,3.617-2.922,6.56-6.54,6.56h-143.869c-3.617,0-6.56-2.943-6.56-6.56v-4.659h156.968Z"/>
    <polygon class="cls-4" points="3676.113 1269.182 3676.154 1287.823 3690.729 1287.823 3690.729 1269.182 3676.113 1269.182"/>
    <polygon class="cls-4" points="3798.515 1269.182 3798.551 1287.823 3814.065 1287.823 3814.016 1269.182 3798.515 1269.182"/>
  </g>
  <g>
    <path class="cls-3" d="m3822.275,1363.28v4.639h-156.968v-4.639c0-3.638,2.943-6.56,6.56-6.56h143.869c3.617,0,6.54,2.922,6.54,6.56Z"/>
    <path class="cls-2" d="m3822.275,1367.919v4.659c0,3.617-2.922,6.56-6.54,6.56h-143.869c-3.617,0-6.56-2.943-6.56-6.56v-4.659h156.968Z"/>
    <polygon class="cls-4" points="3676.331 1379.138 3676.372 1397.78 3690.793 1397.78 3690.793 1379.138 3676.331 1379.138"/>
    <polygon class="cls-4" points="3798.519 1379.138 3798.555 1397.78 3814.335 1397.78 3814.335 1379.138 3798.519 1379.138"/>
  </g>
  <g>
    <path class="cls-3" d="m3822.275,1469.036v4.639h-156.968v-4.639c0-3.638,2.943-6.56,6.56-6.56h143.869c3.617,0,6.54,2.922,6.54,6.56Z"/>
    <path class="cls-2" d="m3822.275,1473.675v4.659c0,3.617-2.922,6.56-6.54,6.56h-143.869c-3.617,0-6.56-2.943-6.56-6.56v-4.659h156.968Z"/>
    <polygon class="cls-4" points="3676.666 1484.894 3676.706 1503.536 3690.861 1503.536 3690.861 1484.894 3676.666 1484.894"/>
    <polygon class="cls-4" points="3798.57 1484.894 3798.606 1503.536 3814.53 1503.536 3814.53 1484.894 3798.57 1484.894"/>
  </g>
  <g>
    <path class="cls-3" d="m3822.275,1567.145v4.639h-156.968v-4.639c0-3.638,2.943-6.56,6.56-6.56h143.869c3.617,0,6.54,2.922,6.54,6.56Z"/>
    <path class="cls-2" d="m3822.275,1571.784v4.659c0,3.617-2.922,6.56-6.54,6.56h-143.869c-3.617,0-6.56-2.943-6.56-6.56v-4.659h156.968Z"/>
    <polygon class="cls-4" points="3676.748 1583.003 3676.789 1601.644 3690.914 1601.644 3690.914 1583.003 3676.748 1583.003"/>
    <polygon class="cls-4" points="3798.647 1583.003 3798.683 1601.644 3814.672 1601.644 3814.672 1583.003 3798.647 1583.003"/>
  </g>
  <g>
    <path class="cls-3" d="m3822.275,1660.647v4.639h-156.968v-4.639c0-3.638,2.943-6.56,6.56-6.56h143.869c3.617,0,6.54,2.922,6.54,6.56Z"/>
    <path class="cls-2" d="m3822.275,1665.286v4.659c0,3.617-2.922,6.56-6.54,6.56h-143.869c-3.617,0-6.56-2.943-6.56-6.56v-4.659h156.968Z"/>
    <polygon class="cls-4" points="3677.024 1676.504 3677.065 1695.146 3691.064 1695.146 3691.064 1676.504 3677.024 1676.504"/>
    <polygon class="cls-4" points="3798.749 1676.504 3798.785 1695.146 3814.951 1695.146 3814.951 1676.504 3798.749 1676.504"/>
  </g>
  <g>
    <path class="cls-3" d="m3822.275,1751.654v4.639h-156.968v-4.639c0-3.638,2.943-6.56,6.56-6.56h143.869c3.617,0,6.54,2.922,6.54,6.56Z"/>
    <path class="cls-2" d="m3822.275,1756.293v4.659c0,3.617-2.922,6.56-6.54,6.56h-143.869c-3.617,0-6.56-2.943-6.56-6.56v-4.659h156.968Z"/>
    <polygon class="cls-4" points="3677.132 1767.511 3677.172 1786.153 3691.275 1786.153 3691.275 1767.511 3677.132 1767.511"/>
    <path class="cls-4" d="m3798.707,1767.511l.036,18.642h15.403l.884-3.714c.385-1.617.556-3.278.509-4.94l-.281-9.987h-16.551Z"/>
  </g>
</svg>