<svg width="34" height="46" viewBox="0 0 34 46" fill="none" xmlns="http://www.w3.org/2000/svg">
<path d="M23.7233 10.7787L25.9356 38.2391L20.9214 45L15.9294 38.2391L18.1417 10.7787" fill="#17853C"/>
<path d="M23.7233 10.7787L25.9356 38.2391L20.9214 45L15.9294 38.2391L18.1417 10.7787" stroke="#17853C" stroke-width="2" stroke-linejoin="round"/>
<path d="M25.9179 6.15021C25.9312 6.29208 25.9356 6.43394 25.9356 6.58025C25.9356 9.34668 23.6967 11.5855 20.9347 11.5855C18.1727 11.5855 15.9294 9.34668 15.9294 6.58025C15.9294 6.43394 15.9339 6.29208 15.9472 6.15021" fill="#17853C"/>
<path d="M25.9179 6.15021C25.9312 6.29208 25.9356 6.43394 25.9356 6.58025C25.9356 9.34668 23.6967 11.5855 20.9347 11.5855C18.1727 11.5855 15.9294 9.34668 15.9294 6.58025C15.9294 6.43394 15.9339 6.29208 15.9472 6.15021" stroke="#17853C" stroke-width="2" stroke-linejoin="bevel"/>
<path d="M9 4.00887C12.6354 5.66252 16.6742 6.58023 20.9302 6.58023C25.1863 6.58023 29.2295 5.65809 32.8694 4" stroke="#17853C" stroke-width="2" stroke-linecap="round" stroke-linejoin="bevel"/>
<path d="M15.7233 7.77869L17.9356 35.2391L12.9214 42L7.92944 35.2391L10.1417 7.77869" fill="#009E49"/>
<path d="M15.7233 7.77869L17.9356 35.2391L12.9214 42L7.92944 35.2391L10.1417 7.77869" stroke="white" stroke-width="2" stroke-linejoin="round"/>
<path d="M17.9179 3.15021C17.9312 3.29208 17.9356 3.43394 17.9356 3.58025C17.9356 6.34668 15.6967 8.58554 12.9347 8.58554C10.1727 8.58554 7.92944 6.34668 7.92944 3.58025C7.92944 3.43394 7.93388 3.29208 7.94718 3.15021" fill="#009E49"/>
<path d="M17.9179 3.15021C17.9312 3.29208 17.9356 3.43394 17.9356 3.58025C17.9356 6.34668 15.6967 8.58554 12.9347 8.58554C10.1727 8.58554 7.92944 6.34668 7.92944 3.58025C7.92944 3.43394 7.93388 3.29208 7.94718 3.15021" stroke="white" stroke-width="2" stroke-linejoin="bevel"/>
<path d="M1 1.00887C4.63538 2.66252 8.67419 3.58023 12.9302 3.58023C17.1863 3.58023 21.2295 2.65809 24.8694 1" stroke="white" stroke-width="2" stroke-linecap="round" stroke-linejoin="bevel"/>
</svg>
