<svg width="58" height="45" viewBox="0 0 58 45" fill="none" xmlns="http://www.w3.org/2000/svg">
<path d="M57.4997 25.2562C57.3778 25.9864 56.9805 26.6782 56.3446 27.1393L50.2705 31.5466C49.8474 31.8537 49.5613 32.3142 49.4735 32.8296L48.8315 36.599L47.8411 42.4212C47.6543 43.5195 46.6061 44.2534 45.5101 44.0533L33.4021 41.8419C33.1642 41.7985 32.9205 41.7985 32.6827 41.842L20.5768 44.0576C19.48 44.2583 18.4309 43.5235 18.2448 42.4242L17.2585 36.599L16.6166 32.8296C16.5288 32.3142 16.2427 31.8537 15.8195 31.5466L9.7454 27.1393C9.1096 26.6782 8.71222 25.9864 8.58506 25.2562C8.4632 24.5205 8.60625 23.7354 9.05132 23.0766C9.94144 21.748 11.7005 21.424 12.9827 22.3574L13.817 22.9634C14.2838 23.3025 14.927 22.9046 14.8318 22.3354V22.3354L13.4861 14.424C13.3483 13.6335 13.5443 12.8593 13.947 12.2444C14.3709 11.6295 15.0067 11.1848 15.775 11.0421C17.3009 10.7621 18.7632 11.8162 19.0388 13.3974L18.7738 11.8546C18.5036 10.2625 19.5262 8.74718 21.0627 8.46718C22.594 8.18718 24.0563 9.25227 24.3265 10.8389L24.5915 12.3762C24.5597 12.217 24.5491 12.0523 24.5491 11.8931C24.5491 10.4985 25.5081 9.26325 26.8857 9.01071C28.4116 8.73071 29.8792 9.79031 30.1442 11.3825L31.0707 16.8272C31.4484 19.0465 34.6364 19.0464 35.014 16.8272L35.9406 11.3825C36.2108 9.79031 37.6732 8.73071 39.2097 9.01071C40.7409 9.29071 41.7635 10.806 41.4933 12.3982L41.7582 10.8389C42.0284 9.25227 43.4908 8.18718 45.0273 8.46718C46.5585 8.74718 47.5864 10.2625 47.3162 11.8546L47.0513 13.4084C47.3215 11.8217 48.7786 10.7621 50.3098 11.0421C51.0781 11.1848 51.7139 11.6295 52.1377 12.2444C52.5457 12.8593 52.7365 13.6335 52.604 14.424L51.2582 22.3354V22.3354C51.1613 22.9035 51.803 23.3025 52.2696 22.9644L53.1073 22.3574C54.3895 21.424 56.1433 21.748 57.0334 23.0766C57.4785 23.7354 57.6269 24.5205 57.4997 25.2562Z" fill="#17853C"/>
<path d="M49.9562 17.3661C49.8344 18.076 49.437 18.7486 48.8012 19.1969L42.067 23.9475L41.2881 28.3938L39.9582 35.9947L25.4989 33.4272L11.0396 36L9.71505 28.3938L8.93619 23.9475L2.20195 19.1969C1.56614 18.7486 1.16876 18.076 1.0416 17.3661C0.919739 16.6509 1.0628 15.8876 1.50786 15.247C2.39799 13.9553 4.15705 13.6404 5.43926 14.5478L7.54801 16.037L7.28839 14.5265L5.9426 6.83485C5.80484 6.06622 6.00088 5.3136 6.40356 4.71578C6.82743 4.11796 7.46324 3.68561 8.2315 3.54683C9.75744 3.2746 11.2198 4.29944 11.4953 5.8367L11.2304 4.33681C10.9602 2.78887 11.9828 1.31567 13.5193 1.04345C15.0505 0.771227 16.5129 1.80674 16.7831 3.34933L17.048 4.84389C17.0162 4.68909 17.0056 4.52896 17.0056 4.37417C17.0056 3.01839 17.9646 1.81741 19.3422 1.57188C20.8681 1.29966 22.3358 2.32983 22.6007 3.87776L25.4989 20.4353L28.3971 3.87776C28.6674 2.32983 30.1297 1.29966 31.6662 1.57188C33.1975 1.8441 34.2201 3.31731 33.9498 4.86524L34.2148 3.34933C34.485 1.80674 35.9473 0.771227 37.4839 1.04345C39.0151 1.31567 40.043 2.78887 39.7728 4.33681L39.5078 5.84737C39.7781 4.30478 41.2351 3.2746 42.7663 3.54683C43.5346 3.68561 44.1704 4.11796 44.5943 4.71578C45.0023 5.3136 45.193 6.06622 45.0605 6.83485L43.7147 14.5265L43.4498 16.037L45.5639 14.5478C46.8461 13.6404 48.5999 13.9553 49.49 15.247C49.935 15.8876 50.0834 16.6509 49.9562 17.3661Z" fill="#009E49"/>
<path d="M24.3451 25.3441L9.63306 27.9317L10.9452 35.4163L25.2689 32.8865" fill="#009E49"/>
<path d="M24.3451 25.3441L9.63306 27.9317L10.9452 35.4163L25.2689 32.8865" stroke="white" stroke-width="2" stroke-linejoin="round"/>
<path d="M9.02954 24.5411L9.62789 27.937" stroke="white" stroke-width="2" stroke-linejoin="round"/>
<path d="M7.22394 14.3009L5.89078 6.73751C5.75431 5.97645 5.94851 5.23638 6.35266 4.65378C6.77256 4.06593 7.4024 3.64079 8.16346 3.50432C9.68032 3.23664 11.129 4.24963 11.3966 5.7665L12.7298 13.3298" fill="#009E49"/>
<path d="M7.22394 14.3009L5.89078 6.73751C5.75431 5.97645 5.94851 5.23638 6.35266 4.65378C6.77256 4.06593 7.4024 3.64079 8.16346 3.50432C9.68032 3.23664 11.129 4.24963 11.3966 5.7665L12.7298 13.3298" stroke="white" stroke-width="2" stroke-linejoin="round"/>
<path d="M18.2304 12.3589L16.6348 3.31015C16.3671 1.79329 14.9185 0.775042 13.3963 1.04272C11.8795 1.31041 10.8612 2.75904 11.1289 4.28116L12.7245 13.3299" fill="#009E49"/>
<path d="M18.2304 12.3589L16.6348 3.31015C16.3671 1.79329 14.9185 0.775042 13.3963 1.04272C11.8795 1.31041 10.8612 2.75904 11.1289 4.28116L12.7245 13.3299" stroke="white" stroke-width="2" stroke-linejoin="round"/>
<path d="M9.62805 27.9369L8.8565 23.5648L2.18542 18.8935C1.55558 18.4526 1.16193 17.7912 1.04121 17.0932C0.920492 16.3951 1.06221 15.6393 1.5031 15.0094C2.38487 13.7392 4.12744 13.4348 5.39762 14.3218L7.49184 15.7862L5.89624 6.73751C5.75977 5.97645 5.95398 5.23638 6.35812 4.65378C6.77802 4.06593 7.40786 3.64079 8.16892 3.50432C9.68579 3.23664 11.1344 4.24963 11.4021 5.7665L12.7353 13.3298" fill="#009E49"/>
<path d="M9.62805 27.9369L8.8565 23.5648L2.18542 18.8935C1.55558 18.4526 1.16193 17.7912 1.04121 17.0932C0.920492 16.3951 1.06221 15.6393 1.5031 15.0094C2.38487 13.7392 4.12744 13.4348 5.39762 14.3218L7.49184 15.7862L5.89624 6.73751C5.75977 5.97645 5.95398 5.23638 6.35812 4.65378C6.77802 4.06593 7.40786 3.64079 8.16892 3.50432C9.68579 3.23664 11.1344 4.24963 11.4021 5.7665L12.7353 13.3298" stroke="white" stroke-width="2" stroke-linecap="round" stroke-linejoin="round"/>
<path d="M18.2305 12.3588L16.8921 4.80073V4.78499C16.8606 4.63278 16.8501 4.47531 16.8501 4.3231C16.8501 2.98994 17.8054 1.80899 19.1648 1.56755C20.6816 1.29986 22.1303 2.31286 22.398 3.83498L25.269 20.1164" fill="#009E49"/>
<path d="M18.2305 12.3588L16.8921 4.80073V4.78499C16.8606 4.63278 16.8501 4.47531 16.8501 4.3231C16.8501 2.98994 17.8054 1.80899 19.1648 1.56755C20.6816 1.29986 22.1303 2.31286 22.398 3.83498L25.269 20.1164" stroke="white" stroke-width="2" stroke-linecap="round" stroke-linejoin="round"/>
<path d="M40.9065 27.9308L24.4021 25.0206L23.0833 32.5001L39.5877 35.4103L40.9065 27.9308Z" fill="#009E49" stroke="white" stroke-width="2" stroke-linejoin="round"/>
<path d="M40.9104 27.937L41.5087 24.5411" stroke="white" stroke-width="2" stroke-linejoin="round"/>
<path d="M37.8083 13.3352L39.1415 5.77187C39.4092 4.255 40.8526 3.24201 42.3747 3.50969C43.1358 3.64616 43.7656 4.0713 44.1855 4.65915C44.5896 5.247 44.7786 5.98707 44.6474 6.74288L43.3142 14.3062" stroke="white" stroke-width="2" stroke-linejoin="round"/>
<path d="M32.3076 12.3589L33.9032 3.31015C34.1709 1.79329 35.6195 0.775042 37.1417 1.04272C38.6585 1.31041 39.6768 2.75904 39.4091 4.28116L37.8135 13.3299" stroke="white" stroke-width="2" stroke-linejoin="round"/>
<path d="M37.8083 13.3352L39.1415 5.77187C39.4092 4.255 40.8526 3.24201 42.3747 3.50969C43.1358 3.64616 43.7656 4.0713 44.1855 4.65915C44.5896 5.247 44.7786 5.98707 44.6474 6.74288L43.0518 15.7916L45.146 14.3272C46.4162 13.4402 48.1587 13.7446 49.0405 15.0148C49.4814 15.6446 49.6231 16.4004 49.5024 17.0985C49.3764 17.7966 48.988 18.4579 48.3582 18.8988L41.6871 23.5701L40.9156 27.9423" stroke="white" stroke-width="2" stroke-linecap="round" stroke-linejoin="round"/>
<path d="M24.4031 25.024L28.1401 3.82981C28.4078 2.31294 29.8565 1.29469 31.3786 1.56238C32.8954 1.83006 33.9137 3.2787 33.646 4.80081L32.3128 12.3642" stroke="white" stroke-width="2" stroke-linecap="round" stroke-linejoin="round"/>
</svg>
