<svg width="50" height="50" viewBox="0 0 50 50" fill="none" xmlns="http://www.w3.org/2000/svg">
<path d="M36.9909 10.1443C37.0797 9.54397 37.611 9.07434 38.2121 9.15768L49.1373 10.6724C49.6318 10.7409 50 11.1637 50 11.6629V23.5811C50 24.1334 49.5523 24.5811 49 24.5811H44.3801C43.8278 24.5811 43.3801 25.0288 43.3801 25.5811V49C43.3801 49.5523 42.9324 50 42.3801 50H17.0364C16.4841 50 16.0364 49.5523 16.0364 49V25.5811C16.0364 25.0288 15.5887 24.5811 15.0364 24.5811H10C9.44771 24.5811 9 24.1334 9 23.5811V11.6626C9 11.1635 9.36803 10.7408 9.8624 10.6721L20.761 9.15804C21.3622 9.07452 21.8937 9.54419 21.9827 10.1446C22.5298 13.8359 25.6823 16.6696 29.4889 16.6696C33.2956 16.6696 36.4446 13.8357 36.9909 10.1443Z" fill="#17853C"/>
<path d="M29.0748 1L42 2.79196V16.5811H35.3801V42H8.03642V16.5811H1V2.79196L13.8986 1C13.8986 5.2335 17.2972 8.66958 21.4889 8.66958C25.6806 8.66958 29.0748 5.2335 29.0748 1Z" fill="#009E49" stroke="white" stroke-width="2" stroke-linejoin="round"/>
<path d="M20.7997 16.8H23.1997C23.4597 16.8 23.6397 16.88 23.8197 17.06L24.4997 17.74C24.6797 17.92 24.7597 18.1 24.7597 18.36V22.7C24.7597 22.96 24.6797 23.14 24.4997 23.32L23.5597 24.26L24.4997 25.2C24.6797 25.38 24.7597 25.56 24.7597 25.82V30.44C24.7597 30.7 24.6797 30.88 24.4997 31.06L23.8197 31.74C23.6397 31.92 23.4597 32 23.1997 32H20.7997C20.5397 32 20.3597 31.92 20.1797 31.74L19.4997 31.06C19.3197 30.88 19.2397 30.7 19.2397 30.44V25.82C19.2397 25.56 19.3197 25.38 19.4997 25.2L20.4397 24.26L19.4997 23.32C19.3197 23.14 19.2397 22.96 19.2397 22.7V18.36C19.2397 18.1 19.3197 17.92 19.4997 17.74L20.1797 17.06C20.3597 16.88 20.5397 16.8 20.7997 16.8ZM22.4397 18.44H21.5597L21.1597 18.84V23.04L21.5597 23.44H22.4397L22.8397 23.04V18.84L22.4397 18.44ZM22.4397 25.08H21.5597L21.1597 25.48V29.96L21.5597 30.36H22.4397L22.8397 29.96V25.48L22.4397 25.08Z" fill="white"/>
</svg>
