<svg width="50" height="50" viewBox="0 0 50 50" fill="none" xmlns="http://www.w3.org/2000/svg">
<path d="M36.9909 10.1443C37.0797 9.54397 37.611 9.07434 38.2121 9.15768L49.1373 10.6724C49.6318 10.7409 50 11.1637 50 11.6629V23.5811C50 24.1334 49.5523 24.5811 49 24.5811H44.3801C43.8278 24.5811 43.3801 25.0288 43.3801 25.5811V49C43.3801 49.5523 42.9324 50 42.3801 50H17.0364C16.4841 50 16.0364 49.5523 16.0364 49V25.5811C16.0364 25.0288 15.5887 24.5811 15.0364 24.5811H10C9.44771 24.5811 9 24.1334 9 23.5811V11.6626C9 11.1635 9.36803 10.7408 9.8624 10.6721L20.761 9.15804C21.3622 9.07452 21.8937 9.54419 21.9827 10.1446C22.5298 13.8359 25.6823 16.6696 29.4889 16.6696C33.2956 16.6696 36.4446 13.8357 36.9909 10.1443Z" fill="#17853C"/>
<path d="M29.0748 1L42 2.79196V16.5811H35.3801V42H8.03642V16.5811H1V2.79196L13.8986 1C13.8986 5.2335 17.2972 8.66958 21.4889 8.66958C25.6806 8.66958 29.0748 5.2335 29.0748 1Z" fill="#009E49" stroke="white" stroke-width="2" stroke-linejoin="round"/>
<path d="M21.3398 17.3V31.5C21.3398 31.82 21.1598 32 20.8398 32H19.9198C19.5998 32 19.4198 31.82 19.4198 31.5V18.44H18.5798C18.2598 18.44 18.0798 18.26 18.0798 17.94V17.3C18.0798 16.98 18.2598 16.8 18.5798 16.8H20.8398C21.1598 16.8 21.3398 16.98 21.3398 17.3ZM25.5 17.3V31.5C25.5 31.82 25.32 32 25 32H24.08C23.76 32 23.58 31.82 23.58 31.5V18.44H22.74C22.42 18.44 22.24 18.26 22.24 17.94V17.3C22.24 16.98 22.42 16.8 22.74 16.8H25C25.32 16.8 25.5 16.98 25.5 17.3Z" fill="white"/>
</svg>
