<svg width="50" height="50" viewBox="0 0 50 50" fill="none" xmlns="http://www.w3.org/2000/svg">
<path d="M36.9909 10.1443C37.0797 9.54397 37.611 9.07434 38.2121 9.15768L49.1373 10.6724C49.6318 10.7409 50 11.1637 50 11.6629V23.5811C50 24.1334 49.5523 24.5811 49 24.5811H44.3801C43.8278 24.5811 43.3801 25.0288 43.3801 25.5811V49C43.3801 49.5523 42.9324 50 42.3801 50H17.0364C16.4841 50 16.0364 49.5523 16.0364 49V25.5811C16.0364 25.0288 15.5887 24.5811 15.0364 24.5811H10C9.44771 24.5811 9 24.1334 9 23.5811V11.6626C9 11.1635 9.36803 10.7408 9.8624 10.6721L20.761 9.15804C21.3622 9.07452 21.8937 9.54419 21.9827 10.1446C22.5298 13.8359 25.6823 16.6696 29.4889 16.6696C33.2956 16.6696 36.4446 13.8357 36.9909 10.1443Z" fill="#17853C"/>
<path d="M29.0748 1L42 2.79196V16.5811H35.3801V42H8.03642V16.5811H1V2.79196L13.8986 1C13.8986 5.2335 17.2972 8.66958 21.4889 8.66958C25.6806 8.66958 29.0748 5.2335 29.0748 1Z" fill="#009E49" stroke="white" stroke-width="2" stroke-linejoin="round"/>
<path d="M20.7402 16.8H23.1802C23.4402 16.8 23.6202 16.88 23.8002 17.06L24.4802 17.74C24.6602 17.92 24.7402 18.1 24.7402 18.36V30.44C24.7402 30.7 24.6602 30.88 24.4802 31.06L23.8002 31.74C23.6202 31.92 23.4402 32 23.1802 32H20.7402C20.4802 32 20.3002 31.92 20.1202 31.74L19.4402 31.06C19.2602 30.88 19.1802 30.7 19.1802 30.44V28.3C19.1802 27.98 19.3602 27.8 19.6802 27.8H20.6002C20.9202 27.8 21.1002 27.98 21.1002 28.3V29.96L21.5002 30.36H22.4202L22.8202 29.96V24.9L22.3602 25.36C22.1802 25.54 22.0002 25.62 21.7402 25.62H20.7402C20.4802 25.62 20.3002 25.54 20.1202 25.36L19.4402 24.68C19.2602 24.5 19.1802 24.32 19.1802 24.06V18.36C19.1802 18.1 19.2602 17.92 19.4402 17.74L20.1202 17.06C20.3002 16.88 20.4802 16.8 20.7402 16.8ZM22.4202 18.44H21.5002L21.1002 18.84V23.58L21.5002 23.98H22.4202L22.8202 23.58V18.84L22.4202 18.44Z" fill="white"/>
</svg>
