<svg width="50" height="50" viewBox="0 0 50 50" fill="none" xmlns="http://www.w3.org/2000/svg">
<path d="M36.9909 10.1443C37.0797 9.54397 37.611 9.07434 38.2121 9.15768L49.1373 10.6724C49.6318 10.7409 50 11.1637 50 11.6629V23.5811C50 24.1334 49.5523 24.5811 49 24.5811H44.3801C43.8278 24.5811 43.3801 25.0288 43.3801 25.5811V49C43.3801 49.5523 42.9324 50 42.3801 50H17.0364C16.4841 50 16.0364 49.5523 16.0364 49V25.5811C16.0364 25.0288 15.5887 24.5811 15.0364 24.5811H10C9.44771 24.5811 9 24.1334 9 23.5811V11.6626C9 11.1635 9.36803 10.7408 9.8624 10.6721L20.761 9.15804C21.3622 9.07452 21.8937 9.54419 21.9827 10.1446C22.5298 13.8359 25.6823 16.6696 29.4889 16.6696C33.2956 16.6696 36.4446 13.8357 36.9909 10.1443Z" fill="#17853C"/>
<path d="M29.0748 1L42 2.79196V16.5811H35.3801V42H8.03642V16.5811H1V2.79196L13.8986 1C13.8986 5.2335 17.2972 8.66958 21.4889 8.66958C25.6806 8.66958 29.0748 5.2335 29.0748 1Z" fill="#009E49" stroke="white" stroke-width="2" stroke-linejoin="round"/>
<path d="M24.5983 17.3V17.94C24.5983 18.26 24.4183 18.44 24.0983 18.44H21.2183V23.1L21.6783 22.64C21.8583 22.46 22.0383 22.38 22.2983 22.38H23.1783C23.4383 22.38 23.6183 22.46 23.7983 22.64L24.4783 23.32C24.6583 23.5 24.7383 23.68 24.7383 23.94V30.44C24.7383 30.7 24.6583 30.88 24.4783 31.06L23.7983 31.74C23.6183 31.92 23.4383 32 23.1783 32H20.8583C20.5983 32 20.4183 31.92 20.2383 31.74L19.5583 31.06C19.3783 30.88 19.2983 30.7 19.2983 30.44V28.3C19.2983 27.98 19.4783 27.8 19.7983 27.8H20.7183C21.0383 27.8 21.2183 27.98 21.2183 28.3V29.96L21.6183 30.36H22.4183L22.8183 29.96V24.42L22.4183 24.02H21.5983L21.2783 24.34C21.0983 24.52 20.6783 24.52 20.3583 24.34L19.7183 23.96C19.4383 23.8 19.2983 23.68 19.2983 23.38V17.3C19.2983 16.98 19.4783 16.8 19.7983 16.8H24.0983C24.4183 16.8 24.5983 16.98 24.5983 17.3Z" fill="white"/>
</svg>
