<svg width="50" height="50" viewBox="0 0 50 50" fill="none" xmlns="http://www.w3.org/2000/svg">
<path d="M36.9909 10.1443C37.0797 9.54397 37.611 9.07434 38.2121 9.15768L49.1373 10.6724C49.6318 10.7409 50 11.1637 50 11.6629V23.5811C50 24.1334 49.5523 24.5811 49 24.5811H44.3801C43.8278 24.5811 43.3801 25.0288 43.3801 25.5811V49C43.3801 49.5523 42.9324 50 42.3801 50H17.0364C16.4841 50 16.0364 49.5523 16.0364 49V25.5811C16.0364 25.0288 15.5887 24.5811 15.0364 24.5811H10C9.44771 24.5811 9 24.1334 9 23.5811V11.6626C9 11.1635 9.36803 10.7408 9.8624 10.6721L20.761 9.15804C21.3622 9.07452 21.8937 9.54419 21.9827 10.1446C22.5298 13.8359 25.6823 16.6696 29.4889 16.6696C33.2956 16.6696 36.4446 13.8357 36.9909 10.1443Z" fill="#17853C"/>
<path d="M29.0748 1L42 2.79196V16.5811H35.3801V42H8.03642V16.5811H1V2.79196L13.8986 1C13.8986 5.2335 17.2972 8.66958 21.4889 8.66958C25.6806 8.66958 29.0748 5.2335 29.0748 1Z" fill="#009E49" stroke="white" stroke-width="2" stroke-linejoin="round"/>
<path d="M24.6038 30.86V31.5C24.6038 31.82 24.4238 32 24.1038 32H19.9038C19.5838 32 19.4038 31.82 19.4038 31.5V25.16C19.4038 24.9 19.4838 24.72 19.6638 24.54L20.3438 23.86C20.5238 23.68 20.7038 23.6 20.9638 23.6H22.3638L22.7638 23.2V18.84L22.3638 18.44H21.7638L21.3638 18.84V20.18C21.3638 20.5 21.1838 20.68 20.8638 20.68H19.9438C19.6238 20.68 19.4438 20.5 19.4438 20.18V18.36C19.4438 18.1 19.5238 17.92 19.7038 17.74L20.3838 17.06C20.5638 16.88 20.7438 16.8 21.0038 16.8H23.1238C23.3838 16.8 23.5638 16.88 23.7438 17.06L24.4238 17.74C24.6038 17.92 24.6838 18.1 24.6838 18.36V23.72C24.6838 23.98 24.6038 24.16 24.4238 24.34L23.7438 25.02C23.5638 25.2 23.3838 25.28 23.1238 25.28H21.7238L21.3238 25.68V30.36H24.1038C24.4238 30.36 24.6038 30.54 24.6038 30.86Z" fill="white"/>
</svg>
