<svg width="50" height="50" viewBox="0 0 50 50" fill="none" xmlns="http://www.w3.org/2000/svg">
<path d="M36.9909 10.1443C37.0797 9.54397 37.611 9.07434 38.2121 9.15768L49.1373 10.6724C49.6318 10.7409 50 11.1637 50 11.6629V23.5811C50 24.1334 49.5523 24.5811 49 24.5811H44.3801C43.8278 24.5811 43.3801 25.0288 43.3801 25.5811V49C43.3801 49.5523 42.9324 50 42.3801 50H17.0364C16.4841 50 16.0364 49.5523 16.0364 49V25.5811C16.0364 25.0288 15.5887 24.5811 15.0364 24.5811H10C9.44771 24.5811 9 24.1334 9 23.5811V11.6626C9 11.1635 9.36803 10.7408 9.8624 10.6721L20.761 9.15804C21.3622 9.07452 21.8937 9.54419 21.9827 10.1446C22.5298 13.8359 25.6823 16.6696 29.4889 16.6696C33.2956 16.6696 36.4446 13.8357 36.9909 10.1443Z" fill="#17853C"/>
<path d="M29.0748 1L42 2.79196V16.5811H35.3801V42H8.03642V16.5811H1V2.79196L13.8986 1C13.8986 5.2335 17.2972 8.66958 21.4889 8.66958C25.6806 8.66958 29.0748 5.2335 29.0748 1Z" fill="#009E49" stroke="white" stroke-width="2" stroke-linejoin="round"/>
<path d="M20.0508 17.3V31.5C20.0508 31.82 19.8708 32 19.5508 32H18.6308C18.3108 32 18.1308 31.82 18.1308 31.5V18.44H17.2908C16.9708 18.44 16.7908 18.26 16.7908 17.94V17.3C16.7908 16.98 16.9708 16.8 17.2908 16.8H19.5508C19.8708 16.8 20.0508 16.98 20.0508 17.3ZM22.8709 16.8H25.2909C25.5509 16.8 25.7309 16.88 25.9109 17.06L26.5909 17.74C26.7709 17.92 26.8509 18.1 26.8509 18.36V30.44C26.8509 30.7 26.7709 30.88 26.5909 31.06L25.9109 31.74C25.7309 31.92 25.5509 32 25.2909 32H22.8709C22.6109 32 22.4309 31.92 22.2509 31.74L21.5709 31.06C21.3909 30.88 21.3109 30.7 21.3109 30.44V18.36C21.3109 18.1 21.3909 17.92 21.5709 17.74L22.2509 17.06C22.4309 16.88 22.6109 16.8 22.8709 16.8ZM24.5309 18.44H23.6309L23.2309 18.84V29.96L23.6309 30.36H24.5309L24.9309 29.96V18.84L24.5309 18.44Z" fill="white"/>
</svg>
