<svg width="50" height="50" viewBox="0 0 50 50" fill="none" xmlns="http://www.w3.org/2000/svg">
<path d="M36.9909 10.1443C37.0797 9.54397 37.611 9.07434 38.2121 9.15768L49.1373 10.6724C49.6318 10.7409 50 11.1637 50 11.6629V23.5811C50 24.1334 49.5523 24.5811 49 24.5811H44.3801C43.8278 24.5811 43.3801 25.0288 43.3801 25.5811V49C43.3801 49.5523 42.9324 50 42.3801 50H17.0364C16.4841 50 16.0364 49.5523 16.0364 49V25.5811C16.0364 25.0288 15.5887 24.5811 15.0364 24.5811H10C9.44771 24.5811 9 24.1334 9 23.5811V11.6626C9 11.1635 9.36803 10.7408 9.8624 10.6721L20.761 9.15804C21.3622 9.07452 21.8937 9.54419 21.9827 10.1446C22.5298 13.8359 25.6823 16.6696 29.4889 16.6696C33.2956 16.6696 36.4446 13.8357 36.9909 10.1443Z" fill="#17853C"/>
<path d="M29.0748 1L42 2.79196V16.5811H35.3801V42H8.03642V16.5811H1V2.79196L13.8986 1C13.8986 5.2335 17.2972 8.66958 21.4889 8.66958C25.6806 8.66958 29.0748 5.2335 29.0748 1Z" fill="#009E49" stroke="white" stroke-width="2" stroke-linejoin="round"/>
<path d="M20.7188 16.8H23.1588C23.4188 16.8 23.5988 16.88 23.7788 17.06L24.4588 17.74C24.6388 17.92 24.7188 18.1 24.7188 18.36V22.72C24.7188 22.98 24.6388 23.16 24.4588 23.34L23.5188 24.28L24.4588 25.24C24.6388 25.42 24.7188 25.6 24.7188 25.86V30.44C24.7188 30.7 24.6388 30.88 24.4588 31.06L23.7788 31.74C23.5988 31.92 23.4188 32 23.1588 32H20.7388C20.4788 32 20.2988 31.92 20.1188 31.74L19.4388 31.06C19.2588 30.88 19.1788 30.7 19.1788 30.44V28.3C19.1788 27.98 19.3588 27.8 19.6788 27.8H20.5988C20.9188 27.8 21.0988 27.98 21.0988 28.3V30L21.4988 30.4H22.3988L22.7988 30V25.52L22.3988 25.12H21.1988C20.8788 25.12 20.6988 24.94 20.6988 24.62V23.94C20.6988 23.62 20.8788 23.44 21.1988 23.44H22.3988L22.7988 23.04V18.8L22.3988 18.4H21.4788L21.0788 18.8V20.5C21.0788 20.82 20.8988 21 20.5788 21H19.6588C19.3388 21 19.1588 20.82 19.1588 20.5V18.36C19.1588 18.1 19.2388 17.92 19.4188 17.74L20.0988 17.06C20.2788 16.88 20.4588 16.8 20.7188 16.8Z" fill="white"/>
</svg>
