<svg width="50" height="50" viewBox="0 0 50 50" fill="none" xmlns="http://www.w3.org/2000/svg">
<path d="M36.9909 10.1443C37.0797 9.54397 37.611 9.07434 38.2121 9.15768L49.1373 10.6724C49.6318 10.7409 50 11.1637 50 11.6629V23.5811C50 24.1334 49.5523 24.5811 49 24.5811H44.3801C43.8278 24.5811 43.3801 25.0288 43.3801 25.5811V49C43.3801 49.5523 42.9324 50 42.3801 50H17.0364C16.4841 50 16.0364 49.5523 16.0364 49V25.5811C16.0364 25.0288 15.5887 24.5811 15.0364 24.5811H10C9.44771 24.5811 9 24.1334 9 23.5811V11.6626C9 11.1635 9.36803 10.7408 9.8624 10.6721L20.761 9.15804C21.3622 9.07452 21.8937 9.54419 21.9827 10.1446C22.5298 13.8359 25.6823 16.6696 29.4889 16.6696C33.2956 16.6696 36.4446 13.8357 36.9909 10.1443Z" fill="#17853C"/>
<path d="M29.0748 1L42 2.79196V16.5811H35.3801V42H8.03642V16.5811H1V2.79196L13.8986 1C13.8986 5.2335 17.2972 8.66958 21.4889 8.66958C25.6806 8.66958 29.0748 5.2335 29.0748 1Z" fill="#009E49" stroke="white" stroke-width="2" stroke-linejoin="round"/>
<path d="M21.702 16.8H23.682C24.002 16.8 24.182 16.98 24.182 17.3V26.12H24.682C25.002 26.12 25.182 26.3 25.182 26.62V27.26C25.182 27.58 25.002 27.76 24.682 27.76H24.182V31.5C24.182 31.82 24.002 32 23.682 32H22.802C22.482 32 22.302 31.82 22.302 31.5V27.76H19.282C18.962 27.76 18.782 27.58 18.782 27.26V26.32C18.782 26.1 18.802 25.94 18.862 25.72L21.142 17.22C21.222 16.94 21.402 16.8 21.702 16.8ZM20.402 26.12H22.302V18.72L20.402 26.12Z" fill="white"/>
</svg>
