<svg width="50" height="50" viewBox="0 0 50 50" fill="none" xmlns="http://www.w3.org/2000/svg">
<path d="M36.9909 10.1443C37.0797 9.54397 37.611 9.07434 38.2121 9.15768L49.1373 10.6724C49.6318 10.7409 50 11.1637 50 11.6629V23.5811C50 24.1334 49.5523 24.5811 49 24.5811H44.3801C43.8278 24.5811 43.3801 25.0288 43.3801 25.5811V49C43.3801 49.5523 42.9324 50 42.3801 50H17.0364C16.4841 50 16.0364 49.5523 16.0364 49V25.5811C16.0364 25.0288 15.5887 24.5811 15.0364 24.5811H10C9.44771 24.5811 9 24.1334 9 23.5811V11.6626C9 11.1635 9.36803 10.7408 9.8624 10.6721L20.761 9.15804C21.3622 9.07452 21.8937 9.54419 21.9827 10.1446C22.5298 13.8359 25.6823 16.6696 29.4889 16.6696C33.2956 16.6696 36.4446 13.8357 36.9909 10.1443Z" fill="#17853C"/>
<path d="M29.0748 1L42 2.79196V16.5811H35.3801V42H8.03642V16.5811H1V2.79196L13.8986 1C13.8986 5.2335 17.2972 8.66958 21.4889 8.66958C25.6806 8.66958 29.0748 5.2335 29.0748 1Z" fill="#009E49" stroke="white" stroke-width="2" stroke-linejoin="round"/>
<path d="M24.2802 21H23.3602C23.0402 21 22.8602 20.82 22.8602 20.5V18.84L22.4602 18.44H21.5802L21.1802 18.84V23.9L21.6402 23.44C21.8202 23.26 22.0002 23.18 22.2602 23.18H23.2602C23.5202 23.18 23.7002 23.26 23.8802 23.44L24.5602 24.12C24.7402 24.3 24.8202 24.48 24.8202 24.74V30.44C24.8202 30.7 24.7402 30.88 24.5602 31.06L23.8802 31.74C23.7002 31.92 23.5202 32 23.2602 32H20.8202C20.5602 32 20.3802 31.92 20.2002 31.74L19.5202 31.06C19.3402 30.88 19.2602 30.7 19.2602 30.44V18.36C19.2602 18.1 19.3402 17.92 19.5202 17.74L20.2002 17.06C20.3802 16.88 20.5602 16.8 20.8202 16.8H23.2202C23.4802 16.8 23.6602 16.88 23.8402 17.06L24.5202 17.74C24.7002 17.92 24.7802 18.1 24.7802 18.36V20.5C24.7802 20.82 24.6002 21 24.2802 21ZM22.5002 24.82H21.5802L21.1802 25.22V29.96L21.5802 30.36H22.5002L22.9002 29.96V25.22L22.5002 24.82Z" fill="white"/>
</svg>
