<?xml version="1.0" encoding="UTF-8"?>
<svg id="Sac" xmlns="http://www.w3.org/2000/svg" viewBox="0 0 285.9 541">
  <defs>
    <style>
      .cls-1 {
        opacity: .25;
      }

      .cls-1, .cls-2, .cls-3, .cls-4, .cls-5 {
        stroke-width: 0px;
      }

      .cls-1, .cls-3 {
        fill: #212425;
      }

      .cls-2 {
        fill: #386f9c;
      }

      .cls-4 {
        fill: #e5d5bb;
      }

      .cls-5 {
        fill: #030403;
      }
    </style>
  </defs>
  <path class="cls-2" d="M260.29,260.29c-3.52-16.22-10.54-96.21-8.2-107.92,1.9-9.46,2.26-65.62,1.09-88.72-.27-5.51-.64-9.14-1.09-9.81-.48-.72-3.38-2.62-7.75-5.22-17.09-10.19-56.67-30.99-61.33-32.39-5.84-1.74-21.66-2.92-78.45,6.45-38.98,6.43-61.13,30.06-71.19,44.22-3.4,4.78-5.42,8.47-6.24,10.07-.27.52-.41.81-.43.86h0c-5.53,8.14,2.91,133.68,2.91,133.68,0,0-.58,106.55,2.94,124.35,3.51,17.81-6.44,133.87-1.18,154.15,5.28,20.28,67.34,18.35,88.41,25.28,21.08,6.92,129.97-3.41,132.31-20.85,2.34-17.43-1.17-122.52-1.75-133.65-.59-11.12,13.47-84.31,9.95-100.5ZM217.01,265.45s-.01.06,0,.1c-.02.21-.03.44-.06.69-.03.3-.05.63-.08.98-.03.29-.06.6-.09.93,0,.03,0,.07,0,.1-.03.33-.06.67-.09,1.03-.06.61-.13,1.27-.2,1.96-.05.43-.1.87-.14,1.33-.02.2-.04.4-.07.61-.05.47-.1.96-.15,1.46-.08.73-.16,1.48-.25,2.26-.04.37-.08.74-.12,1.12-.05.39-.09.79-.13,1.19-.14,1.2-.29,2.45-.43,3.74-.1.86-.2,1.73-.3,2.61-.11.89-.21,1.8-.31,2.71-.1.88-.21,1.78-.32,2.68-.24,2.02-.48,4.07-.72,6.11-.12,1.01-.24,2.02-.36,3.02-.13,1.08-.26,2.15-.39,3.21-.08.72-.17,1.44-.26,2.15-.14,1.17-.28,2.32-.41,3.44-.07.56-.14,1.12-.2,1.66-1.06,8.62-1.88,15.11-1.96,15.6-.25,1.5-15.89,41.76-18.29,47.07-1.32,2.92-10.08,29.71-17.38,52.19-.2.62-.39,1.23-.59,1.84-.4,1.22-.79,2.42-1.17,3.6-.19.59-.38,1.18-.57,1.76-.47,1.45-.93,2.87-1.37,4.24-.35,1.1-.7,2.17-1.04,3.21-.16.52-.33,1.03-.49,1.53-.73,2.26-1.4,4.35-2,6.2-.4,1.23-.76,2.37-1.09,3.38-.06.19-.12.38-.18.56-.36,1.1-.66,2.03-.9,2.8-.04.13-.08.25-.12.37-.4,1.25-.62,1.94-.62,1.94h-.01l-12.11,29.27h-6.22l-31.08-65.63-9.92-21.56-21.56-46.91s-.64-1.13-1.66-3.15c-.2-.4-.42-.84-.65-1.32-.47-.94-.98-2.02-1.53-3.23-.53-1.15-1.08-2.41-1.66-3.76-.23-.55-.46-1.1-.7-1.68-1.06-2.57-2.16-5.45-3.22-8.55-.59-1.72-1.17-3.52-1.72-5.37-.44-1.48-.86-3-1.26-4.54-.2-.78-.39-1.56-.58-2.35-.09-.39-.18-.78-.27-1.18-.27-1.19-.52-2.4-.75-3.62-.16-.81-.3-1.62-.44-2.44-.2-1.24-.38-2.48-.54-3.73-.37-2.91-.6-5.86-.65-8.81-.1-5.31.02-11.36.26-17.65.03-.95.07-1.91.12-2.87.02-.48.04-.97.06-1.45.05-.97.1-1.93.15-2.9.26-4.85.57-9.74.9-14.45.1-1.41.21-2.81.31-4.18.07-.91.14-1.82.21-2.71.11-1.3.21-2.58.31-3.83,0-.07,0-.13.02-.2.06-.79.13-1.57.19-2.33,0-.07,0-.13.02-.19.07-.79.14-1.57.2-2.33.03-.43.07-.85.11-1.27.05-.57.1-1.13.15-1.68.25-2.74.48-5.22.68-7.33.04-.43.08-.83.12-1.23.04-.39.08-.77.11-1.13,0-.05.01-.1.02-.15,0-.17.03-.34.05-.5.05-.49.09-.94.13-1.36,0-.04,0-.08.02-.12.04-.4.08-.78.11-1.11.15-1.46.24-2.27.24-2.27,0-.01,0-.02,0-.04.01-.03.02-.06.04-.11.03-.1.08-.24.14-.43.06-.19.14-.42.23-.69.04-.14.09-.3.15-.46.05-.16.11-.32.17-.5.12-.36.25-.75.39-1.18.07-.22.14-.44.22-.66.11-.35.24-.72.37-1.11.13-.38.26-.79.4-1.21.09-.28.19-.57.29-.86.29-.88.6-1.82.93-2.81,0-.01.01-.01.01-.01.19-.58.39-1.18.59-1.8.07-.2.14-.4.21-.61.08-.24.16-.48.24-.73.27-.81.55-1.65.84-2.51.22-.67.45-1.35.68-2.05.13-.39.26-.79.39-1.18.14-.41.27-.81.41-1.22.23-.71.47-1.42.72-2.14,4.84-14.56,10.43-31.26,11.26-33.47.09-.25.29-.7.58-1.34.15-.31.31-.67.5-1.08.19-.4.4-.84.63-1.33.35-.73.74-1.54,1.17-2.43.87-1.79,1.89-3.88,3.03-6.21.51-1.04,1.05-2.13,1.6-3.25.14-.28.27-.56.41-.84.56-1.14,1.14-2.32,1.74-3.52.22-.45.45-.91.68-1.38.68-1.38,1.38-2.8,2.1-4.24,1.2-2.41,2.43-4.89,3.68-7.4.5-1,1-2,1.49-3h.01c.5-1.02,1-2.03,1.5-3.03.26-.5.51-1.01.76-1.51.41-.84.83-1.67,1.24-2.5,6.3-12.62,12.17-24.34,14.62-29.24,6.18-12.36,14.03-35.09,14.03-35.09l1.78-8.33h.01l10.1.03s25.25,80.51,27.5,89.01c2.25,8.49,25.75,65.47,25.75,65.47,0,0,.98,4.64,2.36,11.26.15.69.3,1.41.45,2.15.08.37.16.74.24,1.12.16.75.32,1.53.48,2.31.16.79.33,1.59.5,2.4.16.81.33,1.63.51,2.46.17.83.34,1.67.52,2.51.28,1.34.56,2.7.84,4.05.18.9.37,1.81.55,2.7.09.45.19.9.28,1.35.37,1.78.73,3.55,1.08,5.25,1.92,9.4,3.46,17.18,3.55,18.37.02.23,0,.74-.06,1.48Z"/>
  <path class="cls-3" d="M217.06,263.97c-.09-1.19-1.63-8.97-3.54-18.37-.35-1.7-.71-3.47-1.08-5.25-.09-.45-.19-.9-.28-1.35-.18-.89-.37-1.8-.55-2.7-.28-1.35-.56-2.71-.84-4.05-.18-.84-.35-1.68-.52-2.51-.18-.83-.35-1.65-.51-2.46-.17-.81-.34-1.61-.5-2.4-.17-.78-.33-1.56-.48-2.31-.08-.38-.16-.75-.24-1.12-.15-.74-.3-1.46-.45-2.15-1.38-6.62-2.36-11.26-2.36-11.26,0,0-23.5-56.98-25.75-65.47-2.25-8.5-27.5-89.01-27.5-89.01l-10.1-.04h0s-1.79,8.34-1.79,8.34c0,0-7.85,22.73-14.03,35.09-2.45,4.9-8.32,16.62-14.62,29.24-.41.83-.83,1.66-1.24,2.5-.25.5-.5,1.01-.76,1.51-.5,1-1,2.01-1.5,3.02h-.01c-.49,1.01-.99,2.01-1.49,3.01-1.25,2.51-2.48,4.99-3.68,7.4-.71,1.44-1.41,2.86-2.1,4.24-.23.47-.46.93-.68,1.38-.59,1.21-1.17,2.38-1.74,3.52-.14.28-.27.56-.41.84-.55,1.12-1.09,2.21-1.6,3.25-1.14,2.33-2.16,4.42-3.03,6.21-.43.89-.82,1.7-1.17,2.43-.23.49-.44.93-.63,1.33-.19.41-.35.77-.5,1.08-.29.64-.49,1.09-.58,1.34-.83,2.21-6.42,18.91-11.26,33.47-.25.72-.49,1.43-.72,2.14-.14.41-.27.81-.41,1.22-.13.39-.26.79-.39,1.18-.23.7-.46,1.38-.68,2.05-.29.86-.57,1.7-.84,2.51-.08.25-.16.49-.24.73-.07.21-.14.41-.21.61-.2.62-.4,1.22-.59,1.8,0,0-.01,0-.01.01-.33.99-.64,1.93-.93,2.81-.1.29-.2.58-.29.86-.14.42-.27.83-.4,1.21-.13.39-.26.76-.37,1.11-.08.22-.15.44-.22.66-.15.43-.28.82-.39,1.18-.06.18-.12.34-.17.5-.06.16-.11.32-.15.46-.09.27-.17.5-.23.69-.07.19-.11.33-.14.43-.02.05-.03.08-.04.11,0,.02,0,.03,0,.04-.01,0-.01.01-.01.01,0,0-.09.81-.23,2.26-.03.33-.07.71-.11,1.11-.01.04-.02.08-.02.12-.05.42-.09.87-.13,1.36-.02.16-.04.33-.05.5-.01.05-.02.1-.02.15-.03.36-.07.74-.11,1.13-.04.4-.08.8-.12,1.23-.21,2.11-.44,4.59-.68,7.33-.05.55-.1,1.11-.15,1.68-.04.42-.08.84-.11,1.27-.06.76-.13,1.54-.2,2.33-.01.06-.01.12-.02.19-.06.76-.13,1.54-.19,2.33-.01.07-.01.13-.02.2-.1,1.25-.2,2.53-.31,3.83-.07.89-.14,1.8-.21,2.71-.1,1.37-.21,2.77-.31,4.18-.33,4.71-.64,9.6-.9,14.45-.05.97-.1,1.93-.15,2.9-.02.48-.04.97-.06,1.45-.05.96-.09,1.92-.12,2.87-.24,6.29-.36,12.34-.26,17.65.05,2.95.28,5.9.65,8.81.16,1.25.34,2.49.54,3.73.14.82.28,1.63.44,2.44.23,1.22.48,2.43.75,3.62.09.4.18.79.27,1.18.19.79.38,1.57.58,2.35.4,1.54.82,3.06,1.26,4.54.55,1.85,1.13,3.65,1.72,5.37,1.06,3.1,2.16,5.98,3.22,8.55.24.58.47,1.13.7,1.68.58,1.35,1.13,2.61,1.66,3.76.55,1.21,1.06,2.29,1.53,3.23.23.48.45.92.65,1.32,1.01,2.02,1.65,3.15,1.65,3.15l21.57,46.91,9.92,21.56,31.08,65.63h6.22l12.12-29.27s.22-.69.62-1.94c.04-.12.08-.24.12-.37.25-.77.55-1.7.9-2.8.06-.18.12-.37.18-.56.33-1.01.69-2.15,1.09-3.38.6-1.85,1.27-3.94,2-6.2.16-.5.33-1.01.49-1.53.34-1.04.69-2.11,1.04-3.21.44-1.37.9-2.79,1.37-4.24.19-.58.38-1.17.57-1.76.38-1.18.77-2.38,1.17-3.6.2-.61.39-1.22.59-1.84,7.3-22.48,16.06-49.27,17.38-52.19,2.4-5.31,18.04-45.57,18.29-47.07.08-.49.9-6.98,1.96-15.6.06-.54.13-1.1.2-1.66.13-1.12.27-2.27.41-3.44.09-.71.18-1.43.26-2.15.13-1.06.26-2.13.39-3.21.12-1,.24-2.01.36-3.02.24-2.04.48-4.09.72-6.11.11-.9.22-1.8.32-2.68.1-.91.2-1.82.31-2.71.1-.88.2-1.75.3-2.61.14-1.29.29-2.54.43-3.74.04-.4.08-.8.13-1.19.04-.38.08-.75.12-1.12.09-.78.17-1.53.25-2.26.05-.5.1-.99.15-1.46.03-.21.05-.41.07-.61.04-.46.09-.9.14-1.33.07-.69.14-1.35.2-1.96.03-.36.06-.7.09-1.03,0-.03,0-.07,0-.1.03-.33.06-.64.09-.93.03-.35.05-.68.08-.98.02-.25.04-.48.06-.69-.01-.04,0-.07,0-.1.05-.74.07-1.25.05-1.48ZM210.85,275.77c-.02.1-.03.2-.06.28-.11.5-.24,1.09-.38,1.75-.09.52-.21,1.09-.31,1.69-.52,2.84-1.1,6.61-1.72,10.85-.07.42-.13.84-.19,1.26-.28,1.92-.56,3.92-.83,5.97-.19,1.37-.38,2.76-.57,4.15-.06.47-.12.94-.18,1.4-.02.15-.04.3-.06.46-.39,2.83-.75,5.68-1.11,8.42-.05.47-.12.94-.18,1.4-.51,3.98-.97,7.72-1.36,10.86-.05.37-.09.74-.14,1.09-.06.49-.11.96-.17,1.42-.19,1.56-.35,2.91-.48,3.98-.18,1.45-.29,2.42-.34,2.75,0,.09-.01.14-.01.14,0,0-.01.02-.03.06-.01.04-.03.08-.05.14-.02.04-.03.09-.06.15-.1.25-.25.62-.45,1.12-.05.14-.1.28-.17.44-.14.35-.29.74-.46,1.17-.95,2.41-2.42,6.11-4.21,10.64-.21.51-.42,1.04-.62,1.57-.47,1.17-.95,2.39-1.45,3.66-.59,1.48-1.2,3.02-1.83,4.61-.06.17-.13.34-.2.52-.1.25-.2.5-.3.76-1.63,4.13-3.38,8.54-5.15,13.04-.2.5-.39,1-.59,1.49-.35.9-.71,1.8-1.07,2.7-.51,1.3-1.03,2.61-1.55,3.92-.54,1.38-1.09,2.77-1.64,4.15-.2.51-.39,1.01-.59,1.51-.36.9-.72,1.8-1.06,2.7-1.32,3.34-2.61,6.59-3.82,9.67-.21.52-.41,1.04-.61,1.55-.02.07-.05.13-.07.19-.7,1.75-1.36,3.43-1.99,5.03-.55,1.4-1.07,2.73-1.57,3.99-.1.26-.2.52-.3.78-.09.23-.19.46-.27.69-.03.06-.05.12-.08.19-.1.25-.19.49-.28.73-1.78,4.51-3.07,7.85-3.67,9.38-.02.06-.04.12-.07.18-.23.63-.51,1.41-.83,2.32-.25.68-.51,1.43-.79,2.25-.06.17-.11.33-.17.5-.05.14-.09.29-.15.44-.03.12-.08.24-.13.36-.02.09-.05.17-.08.26-.05.15-.11.31-.17.47-.01.07-.04.14-.06.21-.03.09-.06.18-.09.26-.03.08-.05.15-.08.24-.18.54-.37,1.1-.56,1.67-.29.86-.58,1.76-.89,2.68-.23.68-.45,1.38-.69,2.09-1.03,3.13-2.14,6.53-3.26,10.01-.3.92-.6,1.85-.91,2.78-.11.35-.22.7-.33,1.06-.64,1.97-1.27,3.94-1.89,5.87-.45,1.41-.89,2.79-1.32,4.14-.28.85-.54,1.7-.8,2.52-1.19,3.71-2.27,7.1-3.14,9.86-.76,2.4-1.36,4.31-1.77,5.56-.16.53-.29.94-.37,1.21-.06.2-.11.33-.13.39v.02h-.01s-2.12.95-2.12.95c0,0-.02-.02-.05-.08-.01-.04-.04-.1-.07-.16-.08-.16-.19-.4-.34-.72-.04-.09-.08-.18-.13-.27-.13-.29-.29-.63-.47-1.02-.05-.11-.1-.23-.16-.35-.33-.71-.73-1.55-1.17-2.51-.06-.12-.12-.25-.18-.38h0c-.63-1.33-1.35-2.86-2.14-4.55h0c-.37-.79-.75-1.61-1.14-2.45-1.35-2.86-2.85-6.06-4.43-9.45-.2-.43-.4-.87-.61-1.32-1.39-2.98-2.85-6.07-4.31-9.18-.22-.49-.46-.98-.68-1.47-.25-.5-.48-1.01-.72-1.52-.31-.64-.6-1.28-.9-1.91-1.46-3.11-2.9-6.18-4.27-9.1-.3-.62-.59-1.25-.87-1.86-1.14-2.42-2.23-4.71-3.22-6.82-.64-1.34-1.24-2.62-1.79-3.79-.24-.51-.48-1-.7-1.47-.07-.15-.14-.31-.21-.46-.95-1.99-1.71-3.59-2.23-4.67-.38-.79-.92-1.89-1.6-3.26-.31-.62-.64-1.3-1-2.04-.99-1.99-2.15-4.36-3.46-7.01-.24-.49-.48-.99-.73-1.5-.07-.14-.13-.28-.2-.42-.57-1.15-1.15-2.35-1.76-3.58-.92-1.89-1.89-3.86-2.88-5.92-.21-.42-.42-.84-.62-1.26-.03-.07-.07-.15-.1-.22-1.5-3.1-3.06-6.34-4.65-9.66-.24-.48-.46-.97-.7-1.45-.04-.1-.09-.2-.14-.31-.62-1.29-1.24-2.59-1.86-3.9-1.35-2.87-2.71-5.75-4.04-8.62-.24-.54-.49-1.06-.73-1.59-.73-1.57-1.44-3.13-2.14-4.67-.61-1.34-1.21-2.66-1.79-3.97-.53-1.18-1.05-2.35-1.56-3.49-.24-.54-.47-1.08-.71-1.61-1.72-3.94-3.29-7.65-4.6-10.95-.22-.57-.45-1.14-.67-1.69-.09-.24-.18-.48-.27-.71-.2-.52-.39-1.04-.58-1.53-.38-1.05-.74-2.03-1.04-2.95-.71-2.06-1.21-3.8-1.48-5.14-.27-1.37-.61-3.04-.95-4.98-.12-.62-.24-1.27-.35-1.94-.37-2.18-.75-4.65-1.12-7.42-.17-1.35-.35-2.78-.51-4.27,0-.11-.02-.23-.04-.34-.04-.38-.08-.77-.12-1.15-.34-3.38-.63-7.09-.81-11.13-.03-.5-.05-1-.07-1.52-.11-2.64-.17-5.41-.17-8.32,0-1.4,0-2.82.03-4.27v-.38c.02-.45.02-.9.03-1.36.1-3.89.29-7.99.61-12.29.04-.5.07-1,.11-1.5.13-1.51.26-3.06.42-4.63.12-1.33.27-2.69.42-4.06.12-1.05.25-2.11.38-3.19.07-.49.13-.98.2-1.48.51-3.93,1.13-7.99,1.86-12.19.11-.61.22-1.23.33-1.85.16-.91.34-1.82.51-2.74.19-1.01.4-2.04.6-3.06.46-2.25.95-4.52,1.47-6.84.09-.44.2-.88.3-1.33.3-1.26.6-2.54.91-3.83.48-1.97.98-3.96,1.51-5.98.14-.54.29-1.08.43-1.63.12-.43.23-.86.36-1.3.12-.46.25-.93.39-1.4.86-3.11,1.77-6.27,2.76-9.48.14-.43.26-.86.4-1.29.61-1.97,1.25-3.96,1.92-5.98.39-1.15.78-2.32,1.18-3.49.06-.17.12-.35.18-.53.08-.25.17-.5.26-.75.03-.08.06-.17.09-.25,1.1-3.16,2.39-6.6,3.84-10.25.14-.39.3-.78.46-1.18.12-.3.25-.62.37-.92.18-.46.37-.92.56-1.38.54-1.33,1.1-2.68,1.67-4.06.37-.89.75-1.79,1.14-2.7.19-.44.38-.9.58-1.35,1.42-3.35,2.92-6.79,4.47-10.26.07-.15.13-.31.2-.46.11-.23.21-.47.32-.71.35-.77.7-1.55,1.05-2.34,1.17-2.58,2.35-5.17,3.53-7.76.18-.38.36-.77.53-1.15.68-1.47,1.36-2.94,2.05-4.41.54-1.15,1.08-2.31,1.61-3.46.35-.73.69-1.46,1.03-2.18.17-.36.34-.71.51-1.07,1.28-2.71,2.55-5.37,3.78-7.96.19-.39.38-.79.57-1.18.13-.26.25-.51.37-.77.32-.66.64-1.33.95-1.98,1.11-2.29,2.18-4.5,3.21-6.61.18-.36.35-.72.53-1.07.65-1.35,1.29-2.64,1.9-3.89.54-1.11,1.07-2.18,1.57-3.2.15-.3.29-.59.43-.87.21-.4.39-.79.58-1.16,1.81-3.65,3.31-6.67,4.4-8.85.22-.44.43-.86.62-1.24,0-.02.03-.05.04-.08.74-1.48,1.18-2.37,1.25-2.53.14-.31.29-.7.46-1.15.43-1.15.97-2.75,1.58-4.62.22-.67.44-1.38.68-2.11.92-2.9,1.93-6.21,2.9-9.45.37-1.25.74-2.48,1.09-3.68.06-.18.11-.36.17-.54.06-.22.12-.43.18-.64.03-.08.05-.17.08-.25l.18-.63c.1-.31.19-.62.28-.93l.19-.65c1.3-4.44,2.22-7.68,2.22-7.68h2.45s0,.03.02.09c.09.29.38,1.21.84,2.69.3.96.66,2.15,1.1,3.54.07.21.13.42.19.63.07.2.13.4.2.62.09.3.19.61.3.93.08.28.17.56.25.85.14.43.28.87.41,1.32.15.45.3.91.44,1.38.61,1.95,1.29,4.09,2.01,6.4.14.44.29.9.43,1.36.64,2.01,1.31,4.15,2.02,6.37.38,1.19.76,2.4,1.16,3.64.01.03.01.06.03.09.14.44.28.88.42,1.34.98,3.07,2,6.28,3.06,9.57.11.35.23.69.34,1.04.51,1.58,1.02,3.18,1.54,4.8.33,1.01.65,2.02.98,3.04.02.06.04.11.06.17.1.31.21.63.31.95.83,2.54,1.66,5.12,2.51,7.7.12.37.24.73.36,1.1.79,2.41,1.58,4.82,2.38,7.22.21.64.43,1.27.63,1.91.11.31.21.62.31.93.03.08.06.16.08.23.48,1.43.95,2.84,1.42,4.24.42,1.24.85,2.52,1.29,3.82.11.32.22.64.33.96,1.01,2.97,2.09,6.08,3.21,9.28.1.3.21.62.32.93.2.56.39,1.12.59,1.69.51,1.43,1.01,2.88,1.53,4.34.2.57.41,1.15.61,1.72,0,.02.02.04.02.06.06.14.1.28.15.43.17.45.32.9.49,1.35.9,2.54,1.81,5.1,2.73,7.65.15.39.28.78.42,1.18.44,1.23.88,2.45,1.32,3.67.44,1.2.87,2.39,1.29,3.57.13.33.25.67.37,1l.44,1.21h0c.93,2.56,1.84,5.07,2.74,7.53.15.4.3.81.44,1.22,1.15,3.12,2.26,6.14,3.31,9,.07.18.13.36.2.54.14.37.27.75.41,1.11.24.64.47,1.28.7,1.9.94,2.56,1.84,4.97,2.66,7.19.12.34.25.68.38,1.01,1.55,4.2,2.84,7.66,3.76,10.08.07.21.15.42.22.61.03.08.05.15.08.22.05.14.1.27.14.39.64,1.71,1,2.64,1,2.64,0,0,.22,1.03.61,2.82.35,1.67.85,4.01,1.41,6.8.07.4.15.81.23,1.22.69,3.41,1.46,7.39,2.22,11.58.08.48.17.95.25,1.44.12.64.23,1.28.34,1.92.2,1.13.4,2.27.58,3.41.09.5.17,1.02.25,1.52.32,1.95.62,3.88.9,5.79.06.43.13.85.18,1.28.52,3.66.93,7.14,1.18,10.2.03.45.06.88.09,1.3.09,1.32.14,2.55.15,3.66,0,1.78-.08,3.26-.3,4.36Z"/>
  <path class="cls-4" d="M211,267.75c-.03-.42-.06-.85-.09-1.3-.25-3.06-.66-6.54-1.18-10.2-.05-.43-.12-.85-.18-1.28-.28-1.91-.58-3.84-.9-5.79-.08-.5-.16-1.02-.25-1.52-.18-1.14-.38-2.28-.58-3.41-.11-.64-.22-1.28-.34-1.92-.08-.49-.17-.96-.25-1.44-.76-4.19-1.53-8.17-2.22-11.58-.08-.41-.16-.82-.23-1.22-.56-2.79-1.06-5.13-1.41-6.8-.39-1.79-.61-2.82-.61-2.82,0,0-.36-.93-1-2.64-.04-.12-.09-.25-.14-.39-.03-.07-.05-.14-.08-.22-.07-.19-.15-.4-.22-.61-.92-2.42-2.21-5.88-3.76-10.08-.13-.33-.26-.67-.38-1.01-.82-2.22-1.72-4.63-2.66-7.19-.23-.62-.46-1.26-.7-1.9-.14-.36-.27-.74-.41-1.11-.07-.18-.13-.36-.2-.54-1.05-2.86-2.16-5.88-3.31-9-.14-.41-.29-.82-.44-1.22-.9-2.46-1.81-4.97-2.74-7.52h0s-.44-1.22-.44-1.22c-.12-.33-.24-.67-.37-1-.42-1.18-.85-2.37-1.29-3.57-.44-1.22-.88-2.44-1.32-3.67-.14-.4-.27-.79-.42-1.18-.92-2.55-1.83-5.11-2.73-7.65-.17-.45-.32-.9-.49-1.35-.05-.15-.09-.29-.15-.43,0-.02-.01-.04-.02-.06-.2-.57-.41-1.15-.61-1.72-.52-1.46-1.02-2.91-1.53-4.34-.2-.57-.39-1.13-.59-1.69-.11-.31-.22-.63-.32-.93-1.12-3.2-2.2-6.31-3.21-9.28-.11-.32-.22-.64-.33-.96-.44-1.3-.87-2.58-1.29-3.82-.47-1.4-.94-2.81-1.42-4.24-.02-.07-.05-.15-.08-.23-.1-.31-.2-.62-.31-.93-.2-.64-.42-1.27-.63-1.91-.8-2.4-1.59-4.81-2.38-7.22-.12-.37-.24-.73-.36-1.1-.85-2.58-1.68-5.16-2.51-7.7-.1-.32-.21-.64-.31-.95-.02-.06-.04-.11-.06-.17-.33-1.02-.65-2.03-.98-3.04-.52-1.62-1.03-3.22-1.54-4.8-.11-.35-.23-.69-.34-1.04-1.06-3.29-2.08-6.5-3.06-9.57-.14-.46-.28-.9-.42-1.34-.02-.03-.02-.06-.03-.09-.4-1.24-.78-2.45-1.16-3.64-.71-2.22-1.38-4.36-2.02-6.37-.14-.46-.29-.92-.43-1.36-.72-2.31-1.4-4.45-2.01-6.4-.14-.47-.29-.93-.44-1.38-.13-.45-.27-.89-.41-1.32-.08-.29-.17-.57-.25-.85-.11-.32-.21-.63-.3-.93-.07-.22-.13-.42-.2-.62-.06-.21-.12-.42-.19-.63-.44-1.39-.8-2.58-1.1-3.54-.46-1.48-.75-2.4-.84-2.69,0-.06-.02-.09-.02-.09h-2.45s-.92,3.24-2.22,7.68l-.19.65c-.09.31-.18.62-.28.93l-.18.63c-.03.08-.05.17-.08.25-.06.21-.12.42-.18.64-.06.18-.11.36-.17.54-.35,1.2-.72,2.43-1.09,3.68-.97,3.24-1.98,6.55-2.9,9.45-.24.73-.46,1.44-.68,2.11-.61,1.87-1.15,3.47-1.58,4.62-.17.45-.32.84-.46,1.15-.07.16-.51,1.05-1.25,2.53,0,.03-.03.06-.04.08-.19.38-.4.8-.62,1.24-1.09,2.18-2.59,5.2-4.4,8.85-.19.37-.37.76-.58,1.16-.14.28-.28.57-.43.87-.5,1.02-1.03,2.09-1.57,3.2-.61,1.25-1.25,2.54-1.9,3.89-.18.35-.35.71-.53,1.07-1.03,2.11-2.1,4.32-3.21,6.61-.31.65-.63,1.32-.95,1.98-.12.26-.24.51-.37.77-.19.39-.38.79-.57,1.18-1.23,2.59-2.5,5.25-3.78,7.96-.17.36-.34.71-.51,1.07-.34.72-.68,1.45-1.03,2.18-.53,1.15-1.07,2.31-1.61,3.46-.69,1.47-1.37,2.94-2.05,4.41-.17.38-.35.77-.53,1.15-1.18,2.59-2.36,5.18-3.53,7.76-.35.79-.7,1.57-1.05,2.34-.11.24-.21.48-.32.71-.07.15-.13.31-.2.46-1.55,3.47-3.05,6.91-4.47,10.26-.2.45-.39.91-.58,1.35-.39.91-.77,1.81-1.14,2.7-.57,1.38-1.13,2.73-1.67,4.06-.19.46-.38.92-.56,1.38-.12.3-.25.62-.37.92-.16.4-.32.79-.46,1.18-1.45,3.65-2.74,7.09-3.84,10.25-.03.08-.06.17-.09.25-.09.25-.18.5-.26.75-.06.18-.12.36-.18.53-.4,1.17-.79,2.34-1.18,3.49-.67,2.02-1.31,4.01-1.92,5.98-.14.43-.26.86-.4,1.29-.99,3.21-1.9,6.37-2.76,9.48-.14.47-.27.94-.39,1.4-.13.44-.24.87-.36,1.3-.14.55-.29,1.09-.43,1.63-.53,2.02-1.03,4.01-1.51,5.98-.31,1.29-.61,2.57-.91,3.83-.1.45-.21.89-.3,1.33-.52,2.32-1.01,4.59-1.47,6.84-.2,1.02-.41,2.05-.6,3.06-.17.92-.35,1.83-.51,2.74-.11.62-.22,1.24-.33,1.85-.73,4.2-1.35,8.26-1.86,12.19-.07.5-.13.99-.2,1.48-.13,1.08-.26,2.14-.38,3.19-.15,1.37-.3,2.73-.42,4.06-.16,1.57-.29,3.12-.42,4.63-.04.5-.07,1-.11,1.5-.32,4.3-.51,8.4-.61,12.29-.01.46-.01.91-.03,1.36v.38c-.03,1.45-.03,2.87-.03,4.27,0,2.91.06,5.68.17,8.32.02.52.04,1.02.07,1.52.18,4.04.47,7.75.81,11.13.04.38.08.77.12,1.15.02.11.03.23.04.34.16,1.49.34,2.92.51,4.27.37,2.77.75,5.24,1.12,7.42.11.67.23,1.32.35,1.94.34,1.94.68,3.61.95,4.98.27,1.34.77,3.08,1.48,5.14.3.92.66,1.9,1.04,2.95.19.49.38,1.01.58,1.53.09.23.18.47.27.71.22.55.45,1.12.67,1.69,1.31,3.3,2.88,7.01,4.6,10.95.24.53.47,1.07.71,1.61.51,1.14,1.03,2.31,1.56,3.49.58,1.31,1.18,2.63,1.79,3.97.7,1.54,1.41,3.1,2.14,4.67.24.53.49,1.05.73,1.59,1.33,2.87,2.69,5.75,4.04,8.62.62,1.31,1.24,2.61,1.86,3.9.05.11.1.21.14.31.24.48.46.97.7,1.45,1.59,3.32,3.15,6.56,4.65,9.66.03.07.07.15.1.22.2.42.41.84.62,1.26.99,2.06,1.96,4.03,2.88,5.92.61,1.23,1.19,2.43,1.76,3.58.07.14.13.28.2.42.25.51.49,1.01.73,1.5,1.31,2.65,2.47,5.02,3.46,7.01.36.74.69,1.42,1,2.04.68,1.37,1.22,2.47,1.6,3.26.52,1.08,1.28,2.68,2.23,4.67.07.15.14.31.21.46.22.47.46.96.7,1.47.55,1.17,1.15,2.45,1.79,3.79.99,2.11,2.08,4.4,3.22,6.82.28.61.57,1.24.87,1.86,1.37,2.92,2.81,5.99,4.27,9.1.3.63.59,1.27.9,1.91.24.51.47,1.02.72,1.52.22.49.46.98.68,1.47,1.46,3.11,2.92,6.2,4.31,9.18.21.45.41.89.61,1.32,1.58,3.39,3.08,6.59,4.43,9.45.39.84.77,1.66,1.14,2.44h0c.79,1.7,1.51,3.23,2.14,4.55h0c.06.14.12.27.18.39.44.96.84,1.8,1.17,2.51.06.12.11.24.16.35.18.39.34.73.47,1.02.05.09.09.18.13.27.15.32.26.56.34.72.03.06.06.12.07.16.03.06.05.08.05.08l2.12-.94h.01v-.03c.02-.06.07-.19.13-.39.08-.27.21-.68.37-1.21.41-1.25,1.01-3.16,1.77-5.56.87-2.76,1.95-6.15,3.14-9.86.26-.82.52-1.67.8-2.52.43-1.35.87-2.73,1.32-4.14.62-1.93,1.25-3.9,1.89-5.87.11-.36.22-.71.33-1.06.31-.93.61-1.86.91-2.78,1.12-3.48,2.23-6.88,3.26-10.01.24-.71.46-1.41.69-2.09.31-.92.6-1.82.89-2.68.19-.57.38-1.13.56-1.67.03-.09.05-.16.08-.24.03-.08.06-.17.09-.26.02-.07.05-.14.06-.21.06-.16.12-.32.17-.47.03-.09.06-.17.08-.26.05-.12.1-.24.13-.36.06-.15.1-.3.15-.44.06-.17.11-.33.17-.5.28-.82.54-1.57.79-2.25.32-.91.6-1.69.83-2.32.03-.06.05-.12.07-.18.6-1.53,1.89-4.87,3.67-9.38.09-.24.18-.48.28-.73.03-.07.05-.13.08-.19.08-.23.18-.46.27-.69.1-.26.2-.52.3-.78.5-1.26,1.02-2.59,1.57-3.99.63-1.6,1.29-3.28,1.99-5.03.02-.06.05-.12.07-.19.2-.51.4-1.03.61-1.55,1.21-3.08,2.5-6.33,3.82-9.67.34-.9.7-1.8,1.06-2.7.2-.5.39-1,.59-1.51.55-1.38,1.1-2.77,1.64-4.15.52-1.31,1.04-2.62,1.55-3.92.36-.9.72-1.8,1.07-2.7.2-.49.39-.99.59-1.49,1.77-4.5,3.52-8.91,5.15-13.04.1-.26.2-.51.3-.76.07-.18.14-.35.2-.52.63-1.59,1.24-3.13,1.83-4.61.5-1.27.98-2.49,1.45-3.66.2-.53.41-1.06.62-1.57,1.79-4.53,3.26-8.23,4.21-10.64.17-.43.32-.82.46-1.17.07-.16.12-.3.17-.44.2-.5.35-.87.45-1.12.03-.06.04-.11.06-.15.02-.06.04-.1.05-.14.02-.04.03-.06.03-.06,0,0,.01-.05.01-.14.05-.33.16-1.3.34-2.75.13-1.07.29-2.42.48-3.98.06-.46.11-.93.17-1.42.05-.35.09-.72.14-1.09.39-3.14.85-6.88,1.36-10.86.06-.46.13-.93.18-1.4.36-2.74.72-5.59,1.11-8.42.02-.16.04-.31.06-.46.06-.46.12-.93.18-1.4.19-1.39.38-2.78.57-4.15.27-2.05.55-4.05.83-5.97.06-.42.12-.84.19-1.26.62-4.24,1.2-8.01,1.72-10.85.1-.6.22-1.17.31-1.69.14-.66.27-1.25.38-1.75.03-.08.04-.18.06-.28.22-1.1.31-2.58.3-4.36-.01-1.11-.06-2.34-.15-3.66ZM205.7,265.54c0,.15,0,.31,0,.48-.01.4-.04.83-.06,1.28-.04.94-.11,2-.2,3.15-.12,1.6-.28,3.39-.48,5.32-.05.52-.1,1.05-.16,1.59-.04.45-.09.91-.13,1.37-.36,3.3-.77,6.9-1.23,10.62-.05.42-.1.85-.16,1.28-.27,2.18-.55,4.41-.84,6.64-.17,1.26-.34,2.53-.51,3.79l-.24,1.8-.14,1.02c-.35,2.55-.7,5.05-1.04,7.46-.07.42-.13.83-.19,1.25-.57,3.94-1.12,7.59-1.61,10.68-.06.4-.12.8-.19,1.19-.03.23-.07.45-.1.67-.34,2.05-.64,3.79-.87,5.11-.1.5-.18.94-.26,1.31-.06.32-.17.73-.31,1.23-.12.4-.26.86-.42,1.37-.8,2.53-2.16,6.37-3.91,11.1-.18.49-.37,1-.56,1.52-.43,1.13-.86,2.31-1.32,3.53-.62,1.64-1.26,3.35-1.93,5.12,0,.03-.03.05-.04.08-.17.45-.34.89-.51,1.34-1.5,3.95-3.12,8.16-4.81,12.48l-.54,1.4c-.25.65-.51,1.3-.77,1.96h0c-.58,1.5-1.16,3.01-1.76,4.52-.49,1.27-.99,2.55-1.49,3.83-.2.51-.41,1.03-.61,1.55-.71,1.81-1.42,3.61-2.12,5.41-.92,2.32-1.82,4.62-2.71,6.87-.25.62-.49,1.24-.74,1.85-.09.26-.2.51-.3.77-.64,1.63-1.28,3.23-1.89,4.78-.47,1.19-.93,2.35-1.39,3.49-.19.5-.39.99-.59,1.48-1.69,4.27-3.24,8.15-4.55,11.43-.29.74-.58,1.45-.85,2.13-.34.85-.65,1.64-.95,2.37-.58,1.46-1.07,2.69-1.46,3.67-.57,1.43-.93,2.32-1.03,2.55,0,.04-.03.06-.03.06l-.38,1.14-.59,1.73-3.86,11.34-.59,1.72-.33.99-1.4,4.11-2.12,6.22-.64,1.89-1.97,5.8s-.02-.02-.04-.08h-.01c-.22-.44-1.34-2.66-3.12-6.22-.68-1.34-1.45-2.86-2.3-4.56-.18-.36-.37-.73-.56-1.11-1.45-2.87-3.11-6.18-4.93-9.82-.21-.43-.43-.85-.65-1.29-.04-.08-.09-.17-.13-.26-.69-1.38-1.4-2.81-2.14-4.27-1.04-2.07-2.11-4.22-3.22-6.43-.26-.51-.51-1.03-.78-1.55-1.52-3.06-3.1-6.22-4.72-9.46-.22-.46-.46-.92-.69-1.39-.27-.55-.55-1.1-.82-1.65-.24-.49-.49-.97-.73-1.46-1.02-2.04-2.04-4.11-3.07-6.19-.3-.6-.59-1.19-.89-1.78-1.26-2.53-2.51-5.06-3.76-7.59-.25-.51-.51-1.02-.76-1.52-.25-.52-.51-1.04-.77-1.56-.63-1.27-1.26-2.55-1.88-3.82-.73-1.47-1.45-2.93-2.16-4.38-.02-.05-.04-.09-.05-.12-.26-.51-.5-1.01-.75-1.51-1.6-3.25-3.17-6.45-4.69-9.55-.27-.57-.55-1.13-.81-1.68-.07-.13-.13-.27-.2-.39-.66-1.36-1.32-2.71-1.95-4.02-1.46-3-2.84-5.87-4.15-8.59-.26-.52-.51-1.04-.75-1.55-.84-1.76-1.64-3.44-2.4-5.04-.71-1.51-1.38-2.94-2.02-4.29-.39-.83-.76-1.64-1.11-2.4-.25-.55-.5-1.08-.73-1.58-1.7-3.71-2.91-6.49-3.48-8.08-.5-1.38-1.02-2.87-1.54-4.49l-.18-.57c-.2-.61-.38-1.24-.57-1.88-.3-1.01-.6-2.06-.9-3.15-.57-2.11-1.13-4.39-1.65-6.84,0,0-.75-3.71-.86-4.29-.46-2.48-.87-5.12-1.24-7.92-.17-1.24-.32-2.52-.46-3.82-.02-.1-.03-.2-.04-.3-.04-.38-.08-.76-.12-1.15-.36-3.5-.64-7.22-.81-11.18,0-.48-.03-.97-.05-1.47-.08-2.18-.13-4.44-.15-6.77.03-.49.05-.99.07-1.48.06-1.3.13-2.61.2-3.93,0-.05.01-.1.01-.14.02-.55.05-1.09.09-1.65.21-3.81.46-7.72.75-11.69.03-.48.07-.96.11-1.45.12-1.57.24-3.14.37-4.72.09-1.25.2-2.5.31-3.75.1-1.16.2-2.32.31-3.47.04-.48.09-.96.14-1.43.25-2.67.51-5.33.8-7.98.18-1.03.37-2.08.57-3.13.09-.48.18-.96.27-1.43.12-.62.25-1.24.38-1.85.06-.28.12-.56.17-.85.25-1.2.52-2.41.8-3.63.54-2.41,1.13-4.84,1.76-7.29.12-.48.24-.96.37-1.45.75-2.87,1.55-5.75,2.38-8.63.23-.81.47-1.63.71-2.44.14-.47.28-.93.42-1.39.01-.03.02-.06.03-.09,1.08-3.58,2.2-7.14,3.35-10.64.16-.47.31-.93.46-1.39.56-1.67,1.12-3.32,1.68-4.96.4-1.17.81-2.33,1.21-3.47h0c.12-.38.25-.73.38-1.09.13-.36.26-.72.38-1.07,1.28-3.59,2.56-7.06,3.81-10.38.15-.38.29-.76.44-1.14.18-.47.36-.94.54-1.4.11-.31.23-.62.34-.92.41-1.06.81-2.1,1.21-3.11.51-1.31,1.02-2.59,1.51-3.83.18-.45.36-.89.53-1.34,1.37-3.43,2.66-6.55,3.81-9.3.1-.23.19-.46.29-.68.18-.42.36-.84.52-1.24.29-.69.57-1.35.84-1.98,1.76-4.12,3.02-6.94,3.53-8.07.16-.37.25-.56.25-.56l.23-.49,1.95-4.04,1.66-3.43,1-2.08.53-1.11,3.46-7.16,1.13-2.35.45-.93.24-.49,3.83-7.95.53-1.08,1.2-2.51,1.94-4,.44-.92.58-1.21,3.93-8.15.62-1.29.02-.04,1.39-2.88,1.96-4.07.96-1.98,2.8-5.81.82-1.71.96-2v.03s.03.04.03.04c.05.13.16.45.34.93.11.3.25.67.4,1.1.6,1.62,1.54,4.14,2.73,7.38.31.83.62,1.7.97,2.63.13.37.27.74.41,1.13.04.1.08.21.12.32.99,2.68,2.11,5.69,3.3,8.97.12.29.22.58.34.88.71,1.95,1.46,3.98,2.23,6.1.27.71.54,1.44.81,2.17.14.38.28.75.41,1.13.03.08.05.15.08.23.93,2.52,1.9,5.12,2.87,7.79.14.38.28.75.42,1.13.75,2.01,1.5,4.07,2.27,6.15.26.71.53,1.43.79,2.14.11.32.23.64.34.96.07.19.14.39.21.58,1,2.7,2,5.44,3.02,8.19.09.26.19.51.28.77,1.13,3.07,2.28,6.17,3.41,9.26.11.32.23.64.35.95.17.47.34.93.51,1.4.57,1.54,1.13,3.08,1.69,4.61.28.76.56,1.51.84,2.26.15.42.3.85.46,1.27.98,2.66,1.95,5.32,2.91,7.92l.3.84c.44,1.17.86,2.33,1.28,3.49.49,1.34.98,2.67,1.46,3.98.13.34.25.68.37,1.01l-.13.05h.15c.13.35.26.7.38,1.05.96,2.62,1.89,5.17,2.79,7.63.14.37.27.74.4,1.11,1.16,3.15,2.25,6.14,3.25,8.91.08.2.15.4.22.6.13.35.25.7.39,1.03.28.79.56,1.55.82,2.29.92,2.54,1.76,4.85,2.5,6.89.12.36.25.71.37,1.05,1.53,4.23,2.57,7.16,2.96,8.35.16.46.31.97.47,1.53.12.38.24.78.35,1.19.1.35.2.7.3,1.07.41,1.5.85,3.2,1.29,5.04.45,1.86.91,3.87,1.36,5.98.08.36.16.73.24,1.1.24,1.15.49,2.32.73,3.51.55,2.74,1.08,5.58,1.58,8.4.07.45.15.9.23,1.36.13.75.25,1.5.37,2.25.25,1.58.49,3.15.71,4.68.23,1.69.44,3.33.62,4.92.06.43.1.86.14,1.28.38,3.56.57,6.75.51,9.29Z"/>
  <path class="cls-1" d="M205.19,256.25c-.04-.42-.08-.85-.14-1.28-.18-1.59-.39-3.23-.62-4.92-.22-1.53-.46-3.1-.71-4.68-.12-.75-.24-1.5-.37-2.25-.08-.46-.16-.91-.23-1.36-.5-2.82-1.03-5.66-1.58-8.4-.24-1.19-.49-2.36-.73-3.51-.08-.37-.16-.74-.24-1.1-.45-2.11-.91-4.12-1.36-5.98-.44-1.84-.88-3.54-1.29-5.04-.1-.37-.2-.72-.3-1.07-.11-.41-.23-.81-.35-1.19-.16-.56-.31-1.07-.47-1.53-.39-1.19-1.43-4.12-2.96-8.35-.12-.34-.25-.69-.37-1.05-.74-2.04-1.58-4.35-2.5-6.89-.26-.74-.54-1.5-.82-2.29-.14-.33-.26-.68-.39-1.03-.07-.2-.14-.4-.22-.6-1-2.77-2.09-5.76-3.25-8.91-.13-.37-.26-.74-.4-1.11-.9-2.46-1.83-5.01-2.79-7.63-.12-.35-.25-.7-.38-1.05h-.15l.13-.05c-.12-.33-.24-.67-.37-1.01-.48-1.31-.97-2.64-1.46-3.98-.42-1.16-.84-2.32-1.28-3.49l-.3-.84c-.96-2.6-1.93-5.26-2.91-7.92-.16-.42-.31-.85-.46-1.27-.28-.75-.56-1.5-.84-2.26-.56-1.53-1.12-3.07-1.69-4.61-.17-.47-.34-.93-.51-1.4-.12-.31-.24-.63-.35-.95-1.13-3.09-2.28-6.19-3.41-9.26-.09-.26-.19-.51-.28-.77-1.02-2.75-2.02-5.49-3.02-8.19-.07-.19-.14-.39-.21-.58-.11-.32-.23-.64-.34-.96-.26-.71-.53-1.43-.79-2.14-.77-2.08-1.52-4.14-2.27-6.15-.14-.38-.28-.75-.42-1.13-.97-2.67-1.94-5.27-2.87-7.79-.03-.08-.05-.15-.08-.23-.13-.38-.27-.75-.41-1.13-.27-.73-.54-1.46-.81-2.17-.77-2.12-1.52-4.15-2.23-6.1-.12-.3-.22-.59-.34-.88-1.19-3.28-2.31-6.29-3.3-8.97-.04-.11-.08-.22-.12-.32-.14-.39-.28-.76-.41-1.13-.35-.93-.66-1.8-.97-2.63-1.19-3.24-2.13-5.76-2.73-7.38-.15-.43-.29-.8-.4-1.1-.18-.48-.29-.8-.34-.93l-.02-.04v-.03s-.97,2-.97,2l-.82,1.71-2.8,5.81-.96,1.98-1.96,4.07-1.39,2.88-.02.04-.62,1.29-3.93,8.15-.58,1.21-.44.92-1.94,4-1.2,2.51-.53,1.08-3.83,7.95-.24.49-.45.93-1.13,2.35-3.46,7.16-.53,1.11-1,2.08-1.66,3.43-1.95,4.04-.23.49s-.09.19-.25.56c-.51,1.13-1.77,3.95-3.53,8.07-.27.63-.55,1.29-.84,1.98-.16.4-.34.82-.52,1.24-.1.22-.19.45-.29.68-1.15,2.75-2.44,5.87-3.81,9.3-.17.45-.35.89-.53,1.34-.49,1.24-1,2.52-1.51,3.83-.4,1.01-.8,2.05-1.21,3.11-.11.3-.23.61-.34.92-.18.46-.36.93-.54,1.4-.15.38-.29.76-.44,1.14-1.25,3.32-2.53,6.79-3.81,10.38-.12.35-.25.71-.38,1.07-.13.36-.26.71-.38,1.08h0c-.4,1.15-.81,2.31-1.21,3.48-.56,1.64-1.12,3.29-1.68,4.96-.15.46-.3.92-.46,1.39-1.15,3.5-2.27,7.06-3.35,10.64,0,.03-.02.06-.03.09-.14.46-.28.92-.42,1.39-.24.81-.48,1.63-.71,2.44-.83,2.88-1.63,5.76-2.38,8.63-.13.49-.25.97-.37,1.45-.63,2.45-1.22,4.88-1.76,7.29-.28,1.22-.55,2.43-.8,3.63-.05.29-.11.57-.17.85-.13.61-.26,1.23-.38,1.85-.09.47-.18.95-.27,1.43-.2,1.05-.39,2.1-.57,3.13-.29,2.65-.55,5.31-.8,7.98-.05.47-.1.95-.14,1.43-.11,1.15-.21,2.31-.31,3.47-.11,1.25-.22,2.5-.31,3.75-.13,1.58-.25,3.15-.37,4.72-.04.49-.08.97-.11,1.45-.29,3.97-.54,7.88-.75,11.69-.04.56-.07,1.1-.09,1.65,0,.04-.01.09-.01.14-.07,1.32-.14,2.63-.2,3.93-.02.49-.04.99-.07,1.48.02,2.33.07,4.59.15,6.77.02.5.04.99.05,1.47.17,3.96.45,7.68.81,11.18.04.39.08.77.12,1.15,0,.1.02.2.04.3.14,1.3.29,2.58.46,3.82.37,2.8.78,5.44,1.24,7.92.11.58.86,4.29.86,4.29.52,2.45,1.08,4.73,1.65,6.84.3,1.09.6,2.14.9,3.15.19.64.37,1.27.57,1.88l.18.57c.52,1.62,1.04,3.11,1.54,4.49.57,1.59,1.78,4.37,3.48,8.08.23.5.48,1.03.73,1.58.35.76.72,1.57,1.11,2.4.64,1.35,1.31,2.78,2.02,4.29.76,1.6,1.56,3.28,2.4,5.04.24.51.49,1.03.75,1.55,1.31,2.72,2.69,5.59,4.15,8.59.63,1.31,1.29,2.66,1.95,4.02.07.12.13.26.2.39.26.55.54,1.11.81,1.68,1.52,3.1,3.09,6.3,4.69,9.55.25.5.49,1,.75,1.51,0,.03.03.07.05.12.71,1.45,1.43,2.91,2.16,4.38.62,1.27,1.25,2.55,1.88,3.82.26.52.52,1.04.77,1.56.25.5.51,1.01.76,1.52,1.25,2.53,2.5,5.06,3.76,7.59.3.59.59,1.18.89,1.78,1.03,2.08,2.05,4.15,3.07,6.19.24.49.49.97.73,1.46.27.55.55,1.1.82,1.65.23.47.47.93.69,1.39,1.62,3.24,3.2,6.4,4.72,9.46.27.52.52,1.04.78,1.55,1.11,2.21,2.18,4.36,3.22,6.43.74,1.46,1.45,2.89,2.14,4.27.04.09.09.18.13.26.22.44.44.86.65,1.29,1.82,3.64,3.48,6.95,4.93,9.82.19.38.38.75.56,1.11.85,1.7,1.62,3.22,2.3,4.56,1.78,3.56,2.9,5.78,3.12,6.22h.01c.02.06.04.08.04.08l1.97-5.8.64-1.89,2.12-6.22,1.4-4.11.33-.99.59-1.72,3.86-11.34.59-1.73.38-1.14s.02-.02.03-.06c.1-.23.46-1.12,1.03-2.55.39-.98.88-2.21,1.46-3.67.3-.73.61-1.52.95-2.37.27-.68.56-1.39.85-2.13,1.31-3.28,2.86-7.16,4.55-11.43.2-.49.4-.98.59-1.48.46-1.14.92-2.3,1.39-3.49.61-1.55,1.25-3.15,1.89-4.78.1-.26.21-.51.3-.77.25-.61.49-1.23.74-1.85.89-2.25,1.79-4.55,2.71-6.87.7-1.8,1.41-3.6,2.12-5.41.2-.52.41-1.04.61-1.55.5-1.28,1-2.56,1.49-3.83.6-1.51,1.18-3.02,1.76-4.51h0c.26-.67.52-1.32.77-1.97l.54-1.4c1.69-4.32,3.31-8.53,4.81-12.48.17-.45.34-.89.51-1.34.01-.03.03-.05.04-.08.67-1.77,1.31-3.48,1.93-5.12.46-1.22.89-2.4,1.32-3.53.19-.52.38-1.03.56-1.52,1.75-4.73,3.11-8.57,3.91-11.1.16-.51.3-.97.42-1.37.14-.5.25-.91.31-1.23.08-.37.16-.81.26-1.31.23-1.32.53-3.06.87-5.11.03-.22.07-.44.1-.67.07-.39.13-.79.19-1.19.49-3.09,1.04-6.74,1.61-10.68.06-.42.12-.83.19-1.25.34-2.41.69-4.91,1.04-7.46l.14-1.02.24-1.8c.17-1.26.34-2.53.51-3.79.29-2.23.57-4.46.84-6.64.06-.43.11-.86.16-1.28.46-3.72.87-7.32,1.23-10.62.04-.46.09-.92.13-1.37.06-.54.11-1.07.16-1.59.2-1.93.36-3.72.48-5.32.09-1.15.16-2.21.2-3.15.02-.45.05-.88.06-1.28,0-.17,0-.33,0-.48.06-2.54-.13-5.73-.51-9.29ZM194.54,323.58c-.6,5.8-17.7,48.49-18.59,53.93-.9,5.45-28.56,70.72-29.2,70.86-.71,0-17.11-32.27-17.63-33.54-.51-1.28-41.48-89.7-41.48-89.7,0,0-4.12-38.11-3.1-65.94,1.01-27.83,18.3-63.9,23.63-83.24,5.32-19.35,38.58-82.17,38.58-82.17,0,0,15.53,43.03,17.73,46.61,2.2,3.57,26.49,69.75,33.44,105.27,6.95,35.52-2.79,72.12-3.38,77.92Z"/>
  <polygon class="cls-3" points="146.75 77.24 145.8 79.24 144.97 80.94 140.97 73.02 139.67 70.45 141.13 67.06 141.36 66.51 141.87 65.32 142.32 66.42 142.67 67.28 143.98 70.48 146.75 77.24"/>
  <polygon class="cls-3" points="139.25 92.81 137.87 95.68 137.84 95.72 134.06 92.96 132.61 91.9 134.89 88.23 135.81 89.19 139.25 92.81"/>
  <polygon class="cls-3" points="132.27 107.3 130.34 111.3 126.46 108.28 123.34 105.85 124.17 103.04 128.03 105.08 132.27 107.3"/>
  <polygon class="cls-3" points="124.77 122.83 124.53 123.33 124.08 124.26 122.95 126.61 118.94 123.78 117.16 122.53 119.13 118.57 120.83 119.85 124.77 122.83"/>
  <path class="cls-3" d="M89.04,211.49s-.02.06-.03.09c-.14.46-.28.92-.42,1.39-.24.81-.48,1.63-.71,2.44l-4.62-1.93-3.23-1.34.4-5.03,4.01,2.04,4.6,2.34Z"/>
  <polygon class="cls-3" points="117.96 136.95 116.3 140.38 112 138.45 108.17 136.73 109.48 133.12 113.62 134.99 117.96 136.95"/>
  <path class="cls-3" d="M110.34,153.55c-.27.63-.55,1.29-.84,1.98-.16.4-.34.81-.52,1.24-.09.22-.19.45-.29.67l-4.17-2.62-3.09-1.95,1.95-2.11,2.52,1.01,4.45,1.78Z"/>
  <path class="cls-3" d="M102.84,171.91c-.4,1.02-.8,2.05-1.21,3.11-.12.3-.23.61-.34.92l-4.83-2.29-2.89-1.37,1.62-4.15,2.94,1.45,4.71,2.33Z"/>
  <path class="cls-3" d="M83.37,232.78c-.28,1.22-.55,2.43-.8,3.63l-4.1-1.89-4.9-2.25,2.61-1.7,2.89.89,4.3,1.32Z"/>
  <path class="cls-3" d="M95.74,191.02h0c-.4,1.15-.81,2.31-1.21,3.48l-5.01-2.1-.43-.18.98-3.58.63.27,5.04,2.11Z"/>
  <path class="cls-3" d="M79.93,256.54c-.11,1.26-.22,2.51-.31,3.76l-4.85-.27-1.66-.09v-4.22l2.09.26,4.74.58Z"/>
  <path class="cls-3" d="M78.3,279.81s0,.09,0,.14c-.07,1.33-.14,2.63-.2,3.93l-4.52.58-2.69.34v-4.99h7.41Z"/>
  <path class="cls-3" d="M79.65,310.05l-4.36,1.13h0s-1.51.4-1.51.4v-4.87l.96-.14,4.41-.65c.01.1.02.2.03.3.15,1.31.3,2.58.47,3.83Z"/>
  <path class="cls-3" d="M84.87,334.12l-4.06,1.02-2.79.71-.99-4.39,2.16-.8,4.21-1.57c.3,1.09.6,2.15.9,3.15.19.65.38,1.27.57,1.88Z"/>
  <path class="cls-3" d="M93.93,355.54l-3.52,2.03-2.54,1.47-1.63-3.73,2.38-1.7,3.3-2.35c.63,1.35,1.31,2.78,2.02,4.28Z"/>
  <path class="cls-3" d="M103.19,374.73l-4.01,1.62-2.88,1.16-.6-4.34,1.63-.73,3.91-1.73c.63,1.31,1.28,2.66,1.95,4.02Z"/>
  <path class="cls-3" d="M113.73,396.19l-3.7,2.56-1.89,1.31-3.2-2.28,3.34-2.62,3.56-2.79c.63,1.27,1.26,2.54,1.89,3.81Z"/>
  <path class="cls-3" d="M125.21,419.33l-3.26,4.04-.98,1.22-3.78-4.35,2.28-2.13,3.51-3.28c.24.49.48.98.73,1.46.27.55.55,1.1.82,1.66.23.47.47.93.69,1.39Z"/>
  <path class="cls-3" d="M136.07,441.04l-3.46,5.01h0s-1.03,1.51-1.03,1.51l-3.85-3.28,2.58-3.12,3.62-4.38c.74,1.47,1.45,2.9,2.15,4.27Z"/>
  <path class="cls-3" d="M147.77,464.29l-1.19,4.08-1.34,4.62h0s-.08.26-.08.26l-.69,2.35-3.71-6.09,1.19-3.52,2.68-7.92c1.78,3.56,2.91,5.77,3.13,6.21Z"/>
  <polygon class="cls-3" points="161.56 449.09 159.2 455.03 157.47 453.84 152.54 450.46 153.94 446.35 154.27 445.37 159.36 447.96 159.36 447.97 161.56 449.09"/>
  <polygon class="cls-3" points="154.15 477.79 142.33 471.82 143.37 467.25 155.7 471.59 154.15 477.79"/>
  <path class="cls-3" d="M171.23,426.56l-2.2,4.72-3.59-1.94-4.69-2.52c.39-.98.88-2.21,1.47-3.66l4.72,1.78,4.3,1.62Z"/>
  <path class="cls-3" d="M179.77,400.72l-2.57,4.94-2.4-1.23-4.26-2.17c.62-1.56,1.25-3.16,1.89-4.78l4.35,1.92,2.99,1.32Z"/>
  <path class="cls-3" d="M188.38,377.44l-1.98,3.26-1.83-1.07-4.17-2.43c.59-1.51,1.18-3.01,1.76-4.51l3.96,3.02,2.26,1.73Z"/>
  <path class="cls-3" d="M197.32,353.63l-1.85,5.26-2.24-1.17-4.4-2.3c.67-1.77,1.31-3.48,1.93-5.12l4.5,2.28,2.06,1.05Z"/>
  <path class="cls-3" d="M205.71,327.43v3.56l-2.6-.24-5.57-.51c.24-1.32.53-3.06.87-5.11l5.19,1.63,2.12.67Z"/>
  <path class="cls-3" d="M211.15,297.8l-1.19,6.28-3.42-.51-4.87-.72.24-1.8c.17-1.26.34-2.53.51-3.8l4.93.3,3.8.23Z"/>
  <path class="cls-3" d="M213.53,275.77h-8.58c.19-1.93.35-3.72.48-5.33l5.71.97,1.7.29.68,4.07Z"/>
  <path class="cls-3" d="M211.38,248.61l-2.73.56-4.23.87c-.22-1.53-.45-3.1-.7-4.69l4.1-1.12,2.3-.63,1.26,4.99Z"/>
  <path class="cls-3" d="M205.71,220.45l-2.34.84-4.16,1.48c-.44-1.84-.88-3.54-1.29-5.04l3.7-2.28,2.62-1.62,1.47,6.62Z"/>
  <path class="cls-3" d="M196.57,195.57l-2.04.76-3.55,1.32c-.27-.74-.54-1.51-.83-2.29-.13-.34-.26-.69-.38-1.03-.07-.2-.15-.4-.22-.6l3.67-.95,1.59-.41,1.77,3.2Z"/>
  <path class="cls-3" d="M187.88,172.18l-1.96.63-3.58,1.16c-.48-1.31-.97-2.65-1.47-3.99l3.76-.73,1.19-.23,2.07,3.16Z"/>
  <path class="cls-3" d="M180.11,152.86l-1.23.33-3.8,1.02c-.56-1.53-1.13-3.08-1.69-4.62l3.96-.74,1.53-.29,1.23,4.3Z"/>
  <path class="cls-3" d="M171.64,124.59v2.98l-1.45.36-4.37,1.09c-.07-.19-.14-.38-.21-.58-.12-.32-.23-.64-.34-.96-.26-.72-.53-1.43-.79-2.14l4.69-.49,2.46-.26Z"/>
  <polygon class="cls-3" points="143.39 70.62 152.72 68.29 152.72 65.32 140.82 66.57 143.39 70.62"/>
  <path class="cls-3" d="M165.69,106.83l-2.08,1.06-4.69,2.39c-.03-.08-.05-.15-.08-.23-.13-.38-.27-.76-.41-1.13-.27-.73-.53-1.46-.8-2.17l4.95-2.07,2.19-.92.92,3.07Z"/>
  <path class="cls-3" d="M159.74,86.45l-2.56,1.39-5.43,2.95c-.04-.11-.08-.22-.12-.32-.14-.38-.28-.76-.41-1.13-.34-.92-.66-1.8-.97-2.63l5.77-2.51,2.61-1.14,1.1,3.39Z"/>
  <path class="cls-4" d="M147.8,58.01c-.28-.01-2.55,7.82-2.55,7.82,0,0,18.42,8.75,19.75,9.27s5.25.02,6.07-1.1c.81-1.12,2.48-5.16,2.19-5.66-.29-.49-2.72-4.59-2.72-4.59,0,0-22.46-5.73-22.75-5.74ZM147.11,64.07c.1-.25.7-2.57,1.13-2.93.43-.36,5.35.73,5.68,1.38.33.65-.99,3.92-2.06,3.38-1.07-.53-4.75-1.84-4.75-1.84ZM170.61,68.06c.08.51-1.81,4.68-2.17,4.55s-2.96-1.15-2.96-1.15l2.04-5.28s3.01,1.37,3.09,1.88Z"/>
  <path class="cls-5" d="M253.19,63.65c-7-3.08-23.91-9.71-47.47-13.6-31.46-5.2-87.55-2.33-87.55-2.33,0,0-67.04,16.86-69.52,18.26-1.85,1.04-11.39,6.1-21.51,11,.82-1.6,2.84-5.29,6.24-10.07,13.03-5.68,36.72-15.94,40.2-17.08,4.84-1.58,68.22-11.98,69.64-11.75,1.24.19,60.71,2.61,101.12,10.55,4.37,2.6,7.27,4.5,7.75,5.22.45.67.82,4.31,1.09,9.81Z"/>
</svg>