<?xml version="1.0" encoding="UTF-8"?>
<svg id="Sac" xmlns="http://www.w3.org/2000/svg" viewBox="0 0 178.69 138.95">
  <defs>
    <style>
      .cls-1 {
        fill: #386f9c;
        stroke-width: 0px;
      }
    </style>
  </defs>
  <path class="cls-1" d="M171.85,8.98c-.84,11.45-1.65,7.83-1.09,19.36,1.03,20.95-2.89,76.39-3.06,97.35,0,1.36-.43,1.72-2.07,1.75-9.38.17-18.75.56-28.14.67-5.01.06-10.03-.26-15.04-.48-9.67-.41-19.3-.98-29-.37-11.31.71-22.65,1.17-34.02.46-16.45-1.03-49.44-1.52-49.44-1.52,0,0-1.73-15.13-2.2-25.85-.63-14.1-.69-68.47-.37-82.57.16-6.85,2.37-8.97,2.37-8.97,0,0,9.21.02,13.81.02h33.58c14.48-.74,28.11-.11,41.74-.06,7.72.02,13.41,1.32,21.08.81,11.64-.78,27.7-2.12,39.35-1.91,3.71.06,7.41.1,11.12.08,1.11,0,1.44.14,1.36,1.23Z"/>
</svg>