<?xml version="1.0" encoding="UTF-8"?>
<svg id="Calque_6" data-name="Calque 6" xmlns="http://www.w3.org/2000/svg" viewBox="0 0 686.98 440.87">
  <defs>
    <style>
      .cls-1 {
        fill: #386f9c;
      }

      .cls-1, .cls-2 {
        stroke-width: 0px;
      }

      .cls-2 {
        fill: #de9a93;
      }
    </style>
  </defs>
  <path class="cls-2" d="M150.61,367.61c-.99-.94-2.51-1.41-4.53-1.41h-6.24v10.92h6.24c2.02,0,3.54-.48,4.53-1.46.99-.98,1.49-2.34,1.49-4.09s-.5-3.02-1.49-3.96ZM150.61,367.61c-.99-.94-2.51-1.41-4.53-1.41h-6.24v10.92h6.24c2.02,0,3.54-.48,4.53-1.46.99-.98,1.49-2.34,1.49-4.09s-.5-3.02-1.49-3.96ZM150.61,367.61c-.99-.94-2.51-1.41-4.53-1.41h-6.24v10.92h6.24c2.02,0,3.54-.48,4.53-1.46.99-.98,1.49-2.34,1.49-4.09s-.5-3.02-1.49-3.96ZM193.73,371.98c-.96-1.87-2.29-3.3-4-4.29-1.71-1-3.68-1.49-5.92-1.49s-4.22.49-5.94,1.49c-1.72.99-3.06,2.42-4.03,4.29-.95,1.87-1.43,4.05-1.43,6.53s.48,4.67,1.43,6.55c.97,1.89,2.31,3.33,4.03,4.35,1.72,1.01,3.71,1.52,5.94,1.52s4.21-.51,5.92-1.52c1.71-1.02,3.04-2.46,4-4.35.96-1.88,1.45-4.07,1.45-6.55s-.49-4.66-1.45-6.53ZM193.73,371.98c-.96-1.87-2.29-3.3-4-4.29-1.71-1-3.68-1.49-5.92-1.49s-4.22.49-5.94,1.49c-1.72.99-3.06,2.42-4.03,4.29-.95,1.87-1.43,4.05-1.43,6.53s.48,4.67,1.43,6.55c.97,1.89,2.31,3.33,4.03,4.35,1.72,1.01,3.71,1.52,5.94,1.52s4.21-.51,5.92-1.52c1.71-1.02,3.04-2.46,4-4.35.96-1.88,1.45-4.07,1.45-6.55s-.49-4.66-1.45-6.53ZM150.61,367.61c-.99-.94-2.51-1.41-4.53-1.41h-6.24v10.92h6.24c2.02,0,3.54-.48,4.53-1.46.99-.98,1.49-2.34,1.49-4.09s-.5-3.02-1.49-3.96ZM150.61,367.61c-.99-.94-2.51-1.41-4.53-1.41h-6.24v10.92h6.24c2.02,0,3.54-.48,4.53-1.46.99-.98,1.49-2.34,1.49-4.09s-.5-3.02-1.49-3.96ZM193.73,371.98c-.96-1.87-2.29-3.3-4-4.29-1.71-1-3.68-1.49-5.92-1.49s-4.22.49-5.94,1.49c-1.72.99-3.06,2.42-4.03,4.29-.95,1.87-1.43,4.05-1.43,6.53s.48,4.67,1.43,6.55c.97,1.89,2.31,3.33,4.03,4.35,1.72,1.01,3.71,1.52,5.94,1.52s4.21-.51,5.92-1.52c1.71-1.02,3.04-2.46,4-4.35.96-1.88,1.45-4.07,1.45-6.55s-.49-4.66-1.45-6.53ZM193.73,371.98c-.96-1.87-2.29-3.3-4-4.29-1.71-1-3.68-1.49-5.92-1.49s-4.22.49-5.94,1.49c-1.72.99-3.06,2.42-4.03,4.29-.95,1.87-1.43,4.05-1.43,6.53s.48,4.67,1.43,6.55c.97,1.89,2.31,3.33,4.03,4.35,1.72,1.01,3.71,1.52,5.94,1.52s4.21-.51,5.92-1.52c1.71-1.02,3.04-2.46,4-4.35.96-1.88,1.45-4.07,1.45-6.55s-.49-4.66-1.45-6.53ZM150.61,367.61c-.99-.94-2.51-1.41-4.53-1.41h-6.24v10.92h6.24c2.02,0,3.54-.48,4.53-1.46.99-.98,1.49-2.34,1.49-4.09s-.5-3.02-1.49-3.96ZM150.61,367.61c-.99-.94-2.51-1.41-4.53-1.41h-6.24v10.92h6.24c2.02,0,3.54-.48,4.53-1.46.99-.98,1.49-2.34,1.49-4.09s-.5-3.02-1.49-3.96ZM193.73,371.98c-.96-1.87-2.29-3.3-4-4.29-1.71-1-3.68-1.49-5.92-1.49s-4.22.49-5.94,1.49c-1.72.99-3.06,2.42-4.03,4.29-.95,1.87-1.43,4.05-1.43,6.53s.48,4.67,1.43,6.55c.97,1.89,2.31,3.33,4.03,4.35,1.72,1.01,3.71,1.52,5.94,1.52s4.21-.51,5.92-1.52c1.71-1.02,3.04-2.46,4-4.35.96-1.88,1.45-4.07,1.45-6.55s-.49-4.66-1.45-6.53ZM330.71,366.1h-5.92v10.82h5.92c2.06,0,3.59-.49,4.58-1.42.99-.95,1.49-2.26,1.49-3.97,0-3.62-2.01-5.43-6.07-5.43ZM376.92,371.98c-.96-1.87-2.29-3.3-4-4.29-1.71-1-3.68-1.49-5.91-1.49s-4.22.49-5.95,1.49c-1.72.99-3.06,2.42-4.03,4.29-.95,1.87-1.43,4.05-1.43,6.53s.48,4.67,1.43,6.55c.97,1.89,2.31,3.33,4.03,4.35,1.73,1.01,3.71,1.52,5.95,1.52s4.2-.51,5.91-1.52c1.71-1.02,3.04-2.46,4-4.35.96-1.88,1.45-4.07,1.45-6.55s-.49-4.66-1.45-6.53ZM376.92,371.98c-.96-1.87-2.29-3.3-4-4.29-1.71-1-3.68-1.49-5.91-1.49s-4.22.49-5.95,1.49c-1.72.99-3.06,2.42-4.03,4.29-.95,1.87-1.43,4.05-1.43,6.53s.48,4.67,1.43,6.55c.97,1.89,2.31,3.33,4.03,4.35,1.73,1.01,3.71,1.52,5.95,1.52s4.2-.51,5.91-1.52c1.71-1.02,3.04-2.46,4-4.35.96-1.88,1.45-4.07,1.45-6.55s-.49-4.66-1.45-6.53ZM330.71,366.1h-5.92v10.82h5.92c2.06,0,3.59-.49,4.58-1.42.99-.95,1.49-2.26,1.49-3.97,0-3.62-2.01-5.43-6.07-5.43ZM193.73,371.98c-.96-1.87-2.29-3.3-4-4.29-1.71-1-3.68-1.49-5.92-1.49s-4.22.49-5.94,1.49c-1.72.99-3.06,2.42-4.03,4.29-.95,1.87-1.43,4.05-1.43,6.53s.48,4.67,1.43,6.55c.97,1.89,2.31,3.33,4.03,4.35,1.72,1.01,3.71,1.52,5.94,1.52s4.21-.51,5.92-1.52c1.71-1.02,3.04-2.46,4-4.35.96-1.88,1.45-4.07,1.45-6.55s-.49-4.66-1.45-6.53ZM150.61,367.61c-.99-.94-2.51-1.41-4.53-1.41h-6.24v10.92h6.24c2.02,0,3.54-.48,4.53-1.46.99-.98,1.49-2.34,1.49-4.09s-.5-3.02-1.49-3.96ZM150.61,367.61c-.99-.94-2.51-1.41-4.53-1.41h-6.24v10.92h6.24c2.02,0,3.54-.48,4.53-1.46.99-.98,1.49-2.34,1.49-4.09s-.5-3.02-1.49-3.96ZM193.73,371.98c-.96-1.87-2.29-3.3-4-4.29-1.71-1-3.68-1.49-5.92-1.49s-4.22.49-5.94,1.49c-1.72.99-3.06,2.42-4.03,4.29-.95,1.87-1.43,4.05-1.43,6.53s.48,4.67,1.43,6.55c.97,1.89,2.31,3.33,4.03,4.35,1.72,1.01,3.71,1.52,5.94,1.52s4.21-.51,5.92-1.52c1.71-1.02,3.04-2.46,4-4.35.96-1.88,1.45-4.07,1.45-6.55s-.49-4.66-1.45-6.53ZM330.71,366.1h-5.92v10.82h5.92c2.06,0,3.59-.49,4.58-1.42.99-.95,1.49-2.26,1.49-3.97,0-3.62-2.01-5.43-6.07-5.43ZM376.92,371.98c-.96-1.87-2.29-3.3-4-4.29-1.71-1-3.68-1.49-5.91-1.49s-4.22.49-5.95,1.49c-1.72.99-3.06,2.42-4.03,4.29-.95,1.87-1.43,4.05-1.43,6.53s.48,4.67,1.43,6.55c.97,1.89,2.31,3.33,4.03,4.35,1.73,1.01,3.71,1.52,5.95,1.52s4.2-.51,5.91-1.52c1.71-1.02,3.04-2.46,4-4.35.96-1.88,1.45-4.07,1.45-6.55s-.49-4.66-1.45-6.53ZM446.96,367.61c-1-.94-2.51-1.41-4.54-1.41h-6.23v10.92h6.23c2.03,0,3.54-.48,4.54-1.46s1.49-2.34,1.49-4.09-.49-3.02-1.49-3.96ZM446.96,367.61c-1-.94-2.51-1.41-4.54-1.41h-6.23v10.92h6.23c2.03,0,3.54-.48,4.54-1.46s1.49-2.34,1.49-4.09-.49-3.02-1.49-3.96ZM376.92,371.98c-.96-1.87-2.29-3.3-4-4.29-1.71-1-3.68-1.49-5.91-1.49s-4.22.49-5.95,1.49c-1.72.99-3.06,2.42-4.03,4.29-.95,1.87-1.43,4.05-1.43,6.53s.48,4.67,1.43,6.55c.97,1.89,2.31,3.33,4.03,4.35,1.73,1.01,3.71,1.52,5.95,1.52s4.2-.51,5.91-1.52c1.71-1.02,3.04-2.46,4-4.35.96-1.88,1.45-4.07,1.45-6.55s-.49-4.66-1.45-6.53ZM330.71,366.1h-5.92v10.82h5.92c2.06,0,3.59-.49,4.58-1.42.99-.95,1.49-2.26,1.49-3.97,0-3.62-2.01-5.43-6.07-5.43ZM193.73,371.98c-.96-1.87-2.29-3.3-4-4.29-1.71-1-3.68-1.49-5.92-1.49s-4.22.49-5.94,1.49c-1.72.99-3.06,2.42-4.03,4.29-.95,1.87-1.43,4.05-1.43,6.53s.48,4.67,1.43,6.55c.97,1.89,2.31,3.33,4.03,4.35,1.72,1.01,3.71,1.52,5.94,1.52s4.21-.51,5.92-1.52c1.71-1.02,3.04-2.46,4-4.35.96-1.88,1.45-4.07,1.45-6.55s-.49-4.66-1.45-6.53ZM150.61,367.61c-.99-.94-2.51-1.41-4.53-1.41h-6.24v10.92h6.24c2.02,0,3.54-.48,4.53-1.46.99-.98,1.49-2.34,1.49-4.09s-.5-3.02-1.49-3.96ZM150.61,367.61c-.99-.94-2.51-1.41-4.53-1.41h-6.24v10.92h6.24c2.02,0,3.54-.48,4.53-1.46.99-.98,1.49-2.34,1.49-4.09s-.5-3.02-1.49-3.96ZM193.73,371.98c-.96-1.87-2.29-3.3-4-4.29-1.71-1-3.68-1.49-5.92-1.49s-4.22.49-5.94,1.49c-1.72.99-3.06,2.42-4.03,4.29-.95,1.87-1.43,4.05-1.43,6.53s.48,4.67,1.43,6.55c.97,1.89,2.31,3.33,4.03,4.35,1.72,1.01,3.71,1.52,5.94,1.52s4.21-.51,5.92-1.52c1.71-1.02,3.04-2.46,4-4.35.96-1.88,1.45-4.07,1.45-6.55s-.49-4.66-1.45-6.53ZM330.71,366.1h-5.92v10.82h5.92c2.06,0,3.59-.49,4.58-1.42.99-.95,1.49-2.26,1.49-3.97,0-3.62-2.01-5.43-6.07-5.43ZM376.92,371.98c-.96-1.87-2.29-3.3-4-4.29-1.71-1-3.68-1.49-5.91-1.49s-4.22.49-5.95,1.49c-1.72.99-3.06,2.42-4.03,4.29-.95,1.87-1.43,4.05-1.43,6.53s.48,4.67,1.43,6.55c.97,1.89,2.31,3.33,4.03,4.35,1.73,1.01,3.71,1.52,5.95,1.52s4.2-.51,5.91-1.52c1.71-1.02,3.04-2.46,4-4.35.96-1.88,1.45-4.07,1.45-6.55s-.49-4.66-1.45-6.53ZM446.96,367.61c-1-.94-2.51-1.41-4.54-1.41h-6.23v10.92h6.23c2.03,0,3.54-.48,4.54-1.46s1.49-2.34,1.49-4.09-.49-3.02-1.49-3.96ZM446.96,367.61c-1-.94-2.51-1.41-4.54-1.41h-6.23v10.92h6.23c2.03,0,3.54-.48,4.54-1.46s1.49-2.34,1.49-4.09-.49-3.02-1.49-3.96ZM376.92,371.98c-.96-1.87-2.29-3.3-4-4.29-1.71-1-3.68-1.49-5.91-1.49s-4.22.49-5.95,1.49c-1.72.99-3.06,2.42-4.03,4.29-.95,1.87-1.43,4.05-1.43,6.53s.48,4.67,1.43,6.55c.97,1.89,2.31,3.33,4.03,4.35,1.73,1.01,3.71,1.52,5.95,1.52s4.2-.51,5.91-1.52c1.71-1.02,3.04-2.46,4-4.35.96-1.88,1.45-4.07,1.45-6.55s-.49-4.66-1.45-6.53ZM330.71,366.1h-5.92v10.82h5.92c2.06,0,3.59-.49,4.58-1.42.99-.95,1.49-2.26,1.49-3.97,0-3.62-2.01-5.43-6.07-5.43ZM193.73,371.98c-.96-1.87-2.29-3.3-4-4.29-1.71-1-3.68-1.49-5.92-1.49s-4.22.49-5.94,1.49c-1.72.99-3.06,2.42-4.03,4.29-.95,1.87-1.43,4.05-1.43,6.53s.48,4.67,1.43,6.55c.97,1.89,2.31,3.33,4.03,4.35,1.72,1.01,3.71,1.52,5.94,1.52s4.21-.51,5.92-1.52c1.71-1.02,3.04-2.46,4-4.35.96-1.88,1.45-4.07,1.45-6.55s-.49-4.66-1.45-6.53ZM150.61,367.61c-.99-.94-2.51-1.41-4.53-1.41h-6.24v10.92h6.24c2.02,0,3.54-.48,4.53-1.46.99-.98,1.49-2.34,1.49-4.09s-.5-3.02-1.49-3.96ZM150.61,367.61c-.99-.94-2.51-1.41-4.53-1.41h-6.24v10.92h6.24c2.02,0,3.54-.48,4.53-1.46.99-.98,1.49-2.34,1.49-4.09s-.5-3.02-1.49-3.96ZM193.73,371.98c-.96-1.87-2.29-3.3-4-4.29-1.71-1-3.68-1.49-5.92-1.49s-4.22.49-5.94,1.49c-1.72.99-3.06,2.42-4.03,4.29-.95,1.87-1.43,4.05-1.43,6.53s.48,4.67,1.43,6.55c.97,1.89,2.31,3.33,4.03,4.35,1.72,1.01,3.71,1.52,5.94,1.52s4.21-.51,5.92-1.52c1.71-1.02,3.04-2.46,4-4.35.96-1.88,1.45-4.07,1.45-6.55s-.49-4.66-1.45-6.53ZM330.71,366.1h-5.92v10.82h5.92c2.06,0,3.59-.49,4.58-1.42.99-.95,1.49-2.26,1.49-3.97,0-3.62-2.01-5.43-6.07-5.43ZM376.92,371.98c-.96-1.87-2.29-3.3-4-4.29-1.71-1-3.68-1.49-5.91-1.49s-4.22.49-5.95,1.49c-1.72.99-3.06,2.42-4.03,4.29-.95,1.87-1.43,4.05-1.43,6.53s.48,4.67,1.43,6.55c.97,1.89,2.31,3.33,4.03,4.35,1.73,1.01,3.71,1.52,5.95,1.52s4.2-.51,5.91-1.52c1.71-1.02,3.04-2.46,4-4.35.96-1.88,1.45-4.07,1.45-6.55s-.49-4.66-1.45-6.53ZM446.96,367.61c-1-.94-2.51-1.41-4.54-1.41h-6.23v10.92h6.23c2.03,0,3.54-.48,4.54-1.46s1.49-2.34,1.49-4.09-.49-3.02-1.49-3.96ZM446.96,367.61c-1-.94-2.51-1.41-4.54-1.41h-6.23v10.92h6.23c2.03,0,3.54-.48,4.54-1.46s1.49-2.34,1.49-4.09-.49-3.02-1.49-3.96ZM376.92,371.98c-.96-1.87-2.29-3.3-4-4.29-1.71-1-3.68-1.49-5.91-1.49s-4.22.49-5.95,1.49c-1.72.99-3.06,2.42-4.03,4.29-.95,1.87-1.43,4.05-1.43,6.53s.48,4.67,1.43,6.55c.97,1.89,2.31,3.33,4.03,4.35,1.73,1.01,3.71,1.52,5.95,1.52s4.2-.51,5.91-1.52c1.71-1.02,3.04-2.46,4-4.35.96-1.88,1.45-4.07,1.45-6.55s-.49-4.66-1.45-6.53ZM330.71,366.1h-5.92v10.82h5.92c2.06,0,3.59-.49,4.58-1.42.99-.95,1.49-2.26,1.49-3.97,0-3.62-2.01-5.43-6.07-5.43ZM193.73,371.98c-.96-1.87-2.29-3.3-4-4.29-1.71-1-3.68-1.49-5.92-1.49s-4.22.49-5.94,1.49c-1.72.99-3.06,2.42-4.03,4.29-.95,1.87-1.43,4.05-1.43,6.53s.48,4.67,1.43,6.55c.97,1.89,2.31,3.33,4.03,4.35,1.72,1.01,3.71,1.52,5.94,1.52s4.21-.51,5.92-1.52c1.71-1.02,3.04-2.46,4-4.35.96-1.88,1.45-4.07,1.45-6.55s-.49-4.66-1.45-6.53ZM150.61,367.61c-.99-.94-2.51-1.41-4.53-1.41h-6.24v10.92h6.24c2.02,0,3.54-.48,4.53-1.46.99-.98,1.49-2.34,1.49-4.09s-.5-3.02-1.49-3.96ZM150.61,367.61c-.99-.94-2.51-1.41-4.53-1.41h-6.24v10.92h6.24c2.02,0,3.54-.48,4.53-1.46.99-.98,1.49-2.34,1.49-4.09s-.5-3.02-1.49-3.96ZM193.73,371.98c-.96-1.87-2.29-3.3-4-4.29-1.71-1-3.68-1.49-5.92-1.49s-4.22.49-5.94,1.49c-1.72.99-3.06,2.42-4.03,4.29-.95,1.87-1.43,4.05-1.43,6.53s.48,4.67,1.43,6.55c.97,1.89,2.31,3.33,4.03,4.35,1.72,1.01,3.71,1.52,5.94,1.52s4.21-.51,5.92-1.52c1.71-1.02,3.04-2.46,4-4.35.96-1.88,1.45-4.07,1.45-6.55s-.49-4.66-1.45-6.53ZM330.71,366.1h-5.92v10.82h5.92c2.06,0,3.59-.49,4.58-1.42.99-.95,1.49-2.26,1.49-3.97,0-3.62-2.01-5.43-6.07-5.43ZM376.92,371.98c-.96-1.87-2.29-3.3-4-4.29-1.71-1-3.68-1.49-5.91-1.49s-4.22.49-5.95,1.49c-1.72.99-3.06,2.42-4.03,4.29-.95,1.87-1.43,4.05-1.43,6.53s.48,4.67,1.43,6.55c.97,1.89,2.31,3.33,4.03,4.35,1.73,1.01,3.71,1.52,5.95,1.52s4.2-.51,5.91-1.52c1.71-1.02,3.04-2.46,4-4.35.96-1.88,1.45-4.07,1.45-6.55s-.49-4.66-1.45-6.53ZM446.96,367.61c-1-.94-2.51-1.41-4.54-1.41h-6.23v10.92h6.23c2.03,0,3.54-.48,4.54-1.46s1.49-2.34,1.49-4.09-.49-3.02-1.49-3.96ZM631.1,371.98c-.96-1.87-2.29-3.3-4-4.29-1.71-1-3.68-1.49-5.91-1.49s-4.22.49-5.94,1.49c-1.73.99-3.07,2.42-4.03,4.29-.95,1.87-1.43,4.05-1.43,6.53s.48,4.67,1.43,6.55c.96,1.89,2.3,3.33,4.03,4.35,1.72,1.01,3.71,1.52,5.94,1.52s4.2-.51,5.91-1.52c1.71-1.02,3.04-2.46,4-4.35.97-1.88,1.45-4.07,1.45-6.55s-.48-4.66-1.45-6.53ZM631.1,371.98c-.96-1.87-2.29-3.3-4-4.29-1.71-1-3.68-1.49-5.91-1.49s-4.22.49-5.94,1.49c-1.73.99-3.07,2.42-4.03,4.29-.95,1.87-1.43,4.05-1.43,6.53s.48,4.67,1.43,6.55c.96,1.89,2.3,3.33,4.03,4.35,1.72,1.01,3.71,1.52,5.94,1.52s4.2-.51,5.91-1.52c1.71-1.02,3.04-2.46,4-4.35.97-1.88,1.45-4.07,1.45-6.55s-.48-4.66-1.45-6.53ZM446.96,367.61c-1-.94-2.51-1.41-4.54-1.41h-6.23v10.92h6.23c2.03,0,3.54-.48,4.54-1.46s1.49-2.34,1.49-4.09-.49-3.02-1.49-3.96ZM376.92,371.98c-.96-1.87-2.29-3.3-4-4.29-1.71-1-3.68-1.49-5.91-1.49s-4.22.49-5.95,1.49c-1.72.99-3.06,2.42-4.03,4.29-.95,1.87-1.43,4.05-1.43,6.53s.48,4.67,1.43,6.55c.97,1.89,2.31,3.33,4.03,4.35,1.73,1.01,3.71,1.52,5.95,1.52s4.2-.51,5.91-1.52c1.71-1.02,3.04-2.46,4-4.35.96-1.88,1.45-4.07,1.45-6.55s-.49-4.66-1.45-6.53ZM330.71,366.1h-5.92v10.82h5.92c2.06,0,3.59-.49,4.58-1.42.99-.95,1.49-2.26,1.49-3.97,0-3.62-2.01-5.43-6.07-5.43ZM193.73,371.98c-.96-1.87-2.29-3.3-4-4.29-1.71-1-3.68-1.49-5.92-1.49s-4.22.49-5.94,1.49c-1.72.99-3.06,2.42-4.03,4.29-.95,1.87-1.43,4.05-1.43,6.53s.48,4.67,1.43,6.55c.97,1.89,2.31,3.33,4.03,4.35,1.72,1.01,3.71,1.52,5.94,1.52s4.21-.51,5.92-1.52c1.71-1.02,3.04-2.46,4-4.35.96-1.88,1.45-4.07,1.45-6.55s-.49-4.66-1.45-6.53ZM150.61,367.61c-.99-.94-2.51-1.41-4.53-1.41h-6.24v10.92h6.24c2.02,0,3.54-.48,4.53-1.46.99-.98,1.49-2.34,1.49-4.09s-.5-3.02-1.49-3.96ZM150.61,367.61c-.99-.94-2.51-1.41-4.53-1.41h-6.24v10.92h6.24c2.02,0,3.54-.48,4.53-1.46.99-.98,1.49-2.34,1.49-4.09s-.5-3.02-1.49-3.96ZM193.73,371.98c-.96-1.87-2.29-3.3-4-4.29-1.71-1-3.68-1.49-5.92-1.49s-4.22.49-5.94,1.49c-1.72.99-3.06,2.42-4.03,4.29-.95,1.87-1.43,4.05-1.43,6.53s.48,4.67,1.43,6.55c.97,1.89,2.31,3.33,4.03,4.35,1.72,1.01,3.71,1.52,5.94,1.52s4.21-.51,5.92-1.52c1.71-1.02,3.04-2.46,4-4.35.96-1.88,1.45-4.07,1.45-6.55s-.49-4.66-1.45-6.53ZM330.71,366.1h-5.92v10.82h5.92c2.06,0,3.59-.49,4.58-1.42.99-.95,1.49-2.26,1.49-3.97,0-3.62-2.01-5.43-6.07-5.43ZM376.92,371.98c-.96-1.87-2.29-3.3-4-4.29-1.71-1-3.68-1.49-5.91-1.49s-4.22.49-5.95,1.49c-1.72.99-3.06,2.42-4.03,4.29-.95,1.87-1.43,4.05-1.43,6.53s.48,4.67,1.43,6.55c.97,1.89,2.31,3.33,4.03,4.35,1.73,1.01,3.71,1.52,5.95,1.52s4.2-.51,5.91-1.52c1.71-1.02,3.04-2.46,4-4.35.96-1.88,1.45-4.07,1.45-6.55s-.49-4.66-1.45-6.53ZM446.96,367.61c-1-.94-2.51-1.41-4.54-1.41h-6.23v10.92h6.23c2.03,0,3.54-.48,4.54-1.46s1.49-2.34,1.49-4.09-.49-3.02-1.49-3.96ZM631.1,371.98c-.96-1.87-2.29-3.3-4-4.29-1.71-1-3.68-1.49-5.91-1.49s-4.22.49-5.94,1.49c-1.73.99-3.07,2.42-4.03,4.29-.95,1.87-1.43,4.05-1.43,6.53s.48,4.67,1.43,6.55c.96,1.89,2.3,3.33,4.03,4.35,1.72,1.01,3.71,1.52,5.94,1.52s4.2-.51,5.91-1.52c1.71-1.02,3.04-2.46,4-4.35.97-1.88,1.45-4.07,1.45-6.55s-.48-4.66-1.45-6.53ZM631.1,371.98c-.96-1.87-2.29-3.3-4-4.29-1.71-1-3.68-1.49-5.91-1.49s-4.22.49-5.94,1.49c-1.73.99-3.07,2.42-4.03,4.29-.95,1.87-1.43,4.05-1.43,6.53s.48,4.67,1.43,6.55c.96,1.89,2.3,3.33,4.03,4.35,1.72,1.01,3.71,1.52,5.94,1.52s4.2-.51,5.91-1.52c1.71-1.02,3.04-2.46,4-4.35.97-1.88,1.45-4.07,1.45-6.55s-.48-4.66-1.45-6.53ZM446.96,367.61c-1-.94-2.51-1.41-4.54-1.41h-6.23v10.92h6.23c2.03,0,3.54-.48,4.54-1.46s1.49-2.34,1.49-4.09-.49-3.02-1.49-3.96ZM376.92,371.98c-.96-1.87-2.29-3.3-4-4.29-1.71-1-3.68-1.49-5.91-1.49s-4.22.49-5.95,1.49c-1.72.99-3.06,2.42-4.03,4.29-.95,1.87-1.43,4.05-1.43,6.53s.48,4.67,1.43,6.55c.97,1.89,2.31,3.33,4.03,4.35,1.73,1.01,3.71,1.52,5.95,1.52s4.2-.51,5.91-1.52c1.71-1.02,3.04-2.46,4-4.35.96-1.88,1.45-4.07,1.45-6.55s-.49-4.66-1.45-6.53ZM330.71,366.1h-5.92v10.82h5.92c2.06,0,3.59-.49,4.58-1.42.99-.95,1.49-2.26,1.49-3.97,0-3.62-2.01-5.43-6.07-5.43ZM193.73,371.98c-.96-1.87-2.29-3.3-4-4.29-1.71-1-3.68-1.49-5.92-1.49s-4.22.49-5.94,1.49c-1.72.99-3.06,2.42-4.03,4.29-.95,1.87-1.43,4.05-1.43,6.53s.48,4.67,1.43,6.55c.97,1.89,2.31,3.33,4.03,4.35,1.72,1.01,3.71,1.52,5.94,1.52s4.21-.51,5.92-1.52c1.71-1.02,3.04-2.46,4-4.35.96-1.88,1.45-4.07,1.45-6.55s-.49-4.66-1.45-6.53ZM150.61,367.61c-.99-.94-2.51-1.41-4.53-1.41h-6.24v10.92h6.24c2.02,0,3.54-.48,4.53-1.46.99-.98,1.49-2.34,1.49-4.09s-.5-3.02-1.49-3.96ZM150.61,367.61c-.99-.94-2.51-1.41-4.53-1.41h-6.24v10.92h6.24c2.02,0,3.54-.48,4.53-1.46.99-.98,1.49-2.34,1.49-4.09s-.5-3.02-1.49-3.96ZM193.73,371.98c-.96-1.87-2.29-3.3-4-4.29-1.71-1-3.68-1.49-5.92-1.49s-4.22.49-5.94,1.49c-1.72.99-3.06,2.42-4.03,4.29-.95,1.87-1.43,4.05-1.43,6.53s.48,4.67,1.43,6.55c.97,1.89,2.31,3.33,4.03,4.35,1.72,1.01,3.71,1.52,5.94,1.52s4.21-.51,5.92-1.52c1.71-1.02,3.04-2.46,4-4.35.96-1.88,1.45-4.07,1.45-6.55s-.49-4.66-1.45-6.53ZM330.71,366.1h-5.92v10.82h5.92c2.06,0,3.59-.49,4.58-1.42.99-.95,1.49-2.26,1.49-3.97,0-3.62-2.01-5.43-6.07-5.43ZM376.92,371.98c-.96-1.87-2.29-3.3-4-4.29-1.71-1-3.68-1.49-5.91-1.49s-4.22.49-5.95,1.49c-1.72.99-3.06,2.42-4.03,4.29-.95,1.87-1.43,4.05-1.43,6.53s.48,4.67,1.43,6.55c.97,1.89,2.31,3.33,4.03,4.35,1.73,1.01,3.71,1.52,5.95,1.52s4.2-.51,5.91-1.52c1.71-1.02,3.04-2.46,4-4.35.96-1.88,1.45-4.07,1.45-6.55s-.49-4.66-1.45-6.53ZM446.96,367.61c-1-.94-2.51-1.41-4.54-1.41h-6.23v10.92h6.23c2.03,0,3.54-.48,4.54-1.46s1.49-2.34,1.49-4.09-.49-3.02-1.49-3.96ZM631.1,371.98c-.96-1.87-2.29-3.3-4-4.29-1.71-1-3.68-1.49-5.91-1.49s-4.22.49-5.94,1.49c-1.73.99-3.07,2.42-4.03,4.29-.95,1.87-1.43,4.05-1.43,6.53s.48,4.67,1.43,6.55c.96,1.89,2.3,3.33,4.03,4.35,1.72,1.01,3.71,1.52,5.94,1.52s4.2-.51,5.91-1.52c1.71-1.02,3.04-2.46,4-4.35.97-1.88,1.45-4.07,1.45-6.55s-.48-4.66-1.45-6.53ZM631.1,371.98c-.96-1.87-2.29-3.3-4-4.29-1.71-1-3.68-1.49-5.91-1.49s-4.22.49-5.94,1.49c-1.73.99-3.07,2.42-4.03,4.29-.95,1.87-1.43,4.05-1.43,6.53s.48,4.67,1.43,6.55c.96,1.89,2.3,3.33,4.03,4.35,1.72,1.01,3.71,1.52,5.94,1.52s4.2-.51,5.91-1.52c1.71-1.02,3.04-2.46,4-4.35.97-1.88,1.45-4.07,1.45-6.55s-.48-4.66-1.45-6.53ZM446.96,367.61c-1-.94-2.51-1.41-4.54-1.41h-6.23v10.92h6.23c2.03,0,3.54-.48,4.54-1.46s1.49-2.34,1.49-4.09-.49-3.02-1.49-3.96ZM376.92,371.98c-.96-1.87-2.29-3.3-4-4.29-1.71-1-3.68-1.49-5.91-1.49s-4.22.49-5.95,1.49c-1.72.99-3.06,2.42-4.03,4.29-.95,1.87-1.43,4.05-1.43,6.53s.48,4.67,1.43,6.55c.97,1.89,2.31,3.33,4.03,4.35,1.73,1.01,3.71,1.52,5.95,1.52s4.2-.51,5.91-1.52c1.71-1.02,3.04-2.46,4-4.35.96-1.88,1.45-4.07,1.45-6.55s-.49-4.66-1.45-6.53ZM330.71,366.1h-5.92v10.82h5.92c2.06,0,3.59-.49,4.58-1.42.99-.95,1.49-2.26,1.49-3.97,0-3.62-2.01-5.43-6.07-5.43ZM193.73,371.98c-.96-1.87-2.29-3.3-4-4.29-1.71-1-3.68-1.49-5.92-1.49s-4.22.49-5.94,1.49c-1.72.99-3.06,2.42-4.03,4.29-.95,1.87-1.43,4.05-1.43,6.53s.48,4.67,1.43,6.55c.97,1.89,2.31,3.33,4.03,4.35,1.72,1.01,3.71,1.52,5.94,1.52s4.21-.51,5.92-1.52c1.71-1.02,3.04-2.46,4-4.35.96-1.88,1.45-4.07,1.45-6.55s-.49-4.66-1.45-6.53ZM150.61,367.61c-.99-.94-2.51-1.41-4.53-1.41h-6.24v10.92h6.24c2.02,0,3.54-.48,4.53-1.46.99-.98,1.49-2.34,1.49-4.09s-.5-3.02-1.49-3.96ZM150.61,367.61c-.99-.94-2.51-1.41-4.53-1.41h-6.24v10.92h6.24c2.02,0,3.54-.48,4.53-1.46.99-.98,1.49-2.34,1.49-4.09s-.5-3.02-1.49-3.96ZM193.73,371.98c-.96-1.87-2.29-3.3-4-4.29-1.71-1-3.68-1.49-5.92-1.49s-4.22.49-5.94,1.49c-1.72.99-3.06,2.42-4.03,4.29-.95,1.87-1.43,4.05-1.43,6.53s.48,4.67,1.43,6.55c.97,1.89,2.31,3.33,4.03,4.35,1.72,1.01,3.71,1.52,5.94,1.52s4.21-.51,5.92-1.52c1.71-1.02,3.04-2.46,4-4.35.96-1.88,1.45-4.07,1.45-6.55s-.49-4.66-1.45-6.53ZM330.71,366.1h-5.92v10.82h5.92c2.06,0,3.59-.49,4.58-1.42.99-.95,1.49-2.26,1.49-3.97,0-3.62-2.01-5.43-6.07-5.43ZM376.92,371.98c-.96-1.87-2.29-3.3-4-4.29-1.71-1-3.68-1.49-5.91-1.49s-4.22.49-5.95,1.49c-1.72.99-3.06,2.42-4.03,4.29-.95,1.87-1.43,4.05-1.43,6.53s.48,4.67,1.43,6.55c.97,1.89,2.31,3.33,4.03,4.35,1.73,1.01,3.71,1.52,5.95,1.52s4.2-.51,5.91-1.52c1.71-1.02,3.04-2.46,4-4.35.96-1.88,1.45-4.07,1.45-6.55s-.49-4.66-1.45-6.53ZM446.96,367.61c-1-.94-2.51-1.41-4.54-1.41h-6.23v10.92h6.23c2.03,0,3.54-.48,4.54-1.46s1.49-2.34,1.49-4.09-.49-3.02-1.49-3.96ZM631.1,371.98c-.96-1.87-2.29-3.3-4-4.29-1.71-1-3.68-1.49-5.91-1.49s-4.22.49-5.94,1.49c-1.73.99-3.07,2.42-4.03,4.29-.95,1.87-1.43,4.05-1.43,6.53s.48,4.67,1.43,6.55c.96,1.89,2.3,3.33,4.03,4.35,1.72,1.01,3.71,1.52,5.94,1.52s4.2-.51,5.91-1.52c1.71-1.02,3.04-2.46,4-4.35.97-1.88,1.45-4.07,1.45-6.55s-.48-4.66-1.45-6.53ZM631.1,371.98c-.96-1.87-2.29-3.3-4-4.29-1.71-1-3.68-1.49-5.91-1.49s-4.22.49-5.94,1.49c-1.73.99-3.07,2.42-4.03,4.29-.95,1.87-1.43,4.05-1.43,6.53s.48,4.67,1.43,6.55c.96,1.89,2.3,3.33,4.03,4.35,1.72,1.01,3.71,1.52,5.94,1.52s4.2-.51,5.91-1.52c1.71-1.02,3.04-2.46,4-4.35.97-1.88,1.45-4.07,1.45-6.55s-.48-4.66-1.45-6.53ZM446.96,367.61c-1-.94-2.51-1.41-4.54-1.41h-6.23v10.92h6.23c2.03,0,3.54-.48,4.54-1.46s1.49-2.34,1.49-4.09-.49-3.02-1.49-3.96ZM376.92,371.98c-.96-1.87-2.29-3.3-4-4.29-1.71-1-3.68-1.49-5.91-1.49s-4.22.49-5.95,1.49c-1.72.99-3.06,2.42-4.03,4.29-.95,1.87-1.43,4.05-1.43,6.53s.48,4.67,1.43,6.55c.97,1.89,2.31,3.33,4.03,4.35,1.73,1.01,3.71,1.52,5.95,1.52s4.2-.51,5.91-1.52c1.71-1.02,3.04-2.46,4-4.35.96-1.88,1.45-4.07,1.45-6.55s-.49-4.66-1.45-6.53ZM330.71,366.1h-5.92v10.82h5.92c2.06,0,3.59-.49,4.58-1.42.99-.95,1.49-2.26,1.49-3.97,0-3.62-2.01-5.43-6.07-5.43ZM193.73,371.98c-.96-1.87-2.29-3.3-4-4.29-1.71-1-3.68-1.49-5.92-1.49s-4.22.49-5.94,1.49c-1.72.99-3.06,2.42-4.03,4.29-.95,1.87-1.43,4.05-1.43,6.53s.48,4.67,1.43,6.55c.97,1.89,2.31,3.33,4.03,4.35,1.72,1.01,3.71,1.52,5.94,1.52s4.21-.51,5.92-1.52c1.71-1.02,3.04-2.46,4-4.35.96-1.88,1.45-4.07,1.45-6.55s-.49-4.66-1.45-6.53ZM150.61,367.61c-.99-.94-2.51-1.41-4.53-1.41h-6.24v10.92h6.24c2.02,0,3.54-.48,4.53-1.46.99-.98,1.49-2.34,1.49-4.09s-.5-3.02-1.49-3.96ZM150.61,367.61c-.99-.94-2.51-1.41-4.53-1.41h-6.24v10.92h6.24c2.02,0,3.54-.48,4.53-1.46.99-.98,1.49-2.34,1.49-4.09s-.5-3.02-1.49-3.96ZM193.73,371.98c-.96-1.87-2.29-3.3-4-4.29-1.71-1-3.68-1.49-5.92-1.49s-4.22.49-5.94,1.49c-1.72.99-3.06,2.42-4.03,4.29-.95,1.87-1.43,4.05-1.43,6.53s.48,4.67,1.43,6.55c.97,1.89,2.31,3.33,4.03,4.35,1.72,1.01,3.71,1.52,5.94,1.52s4.21-.51,5.92-1.52c1.71-1.02,3.04-2.46,4-4.35.96-1.88,1.45-4.07,1.45-6.55s-.49-4.66-1.45-6.53ZM330.71,366.1h-5.92v10.82h5.92c2.06,0,3.59-.49,4.58-1.42.99-.95,1.49-2.26,1.49-3.97,0-3.62-2.01-5.43-6.07-5.43ZM376.92,371.98c-.96-1.87-2.29-3.3-4-4.29-1.71-1-3.68-1.49-5.91-1.49s-4.22.49-5.95,1.49c-1.72.99-3.06,2.42-4.03,4.29-.95,1.87-1.43,4.05-1.43,6.53s.48,4.67,1.43,6.55c.97,1.89,2.31,3.33,4.03,4.35,1.73,1.01,3.71,1.52,5.95,1.52s4.2-.51,5.91-1.52c1.71-1.02,3.04-2.46,4-4.35.96-1.88,1.45-4.07,1.45-6.55s-.49-4.66-1.45-6.53ZM446.96,367.61c-1-.94-2.51-1.41-4.54-1.41h-6.23v10.92h6.23c2.03,0,3.54-.48,4.54-1.46s1.49-2.34,1.49-4.09-.49-3.02-1.49-3.96ZM631.1,371.98c-.96-1.87-2.29-3.3-4-4.29-1.71-1-3.68-1.49-5.91-1.49s-4.22.49-5.94,1.49c-1.73.99-3.07,2.42-4.03,4.29-.95,1.87-1.43,4.05-1.43,6.53s.48,4.67,1.43,6.55c.96,1.89,2.3,3.33,4.03,4.35,1.72,1.01,3.71,1.52,5.94,1.52s4.2-.51,5.91-1.52c1.71-1.02,3.04-2.46,4-4.35.97-1.88,1.45-4.07,1.45-6.55s-.48-4.66-1.45-6.53ZM631.1,371.98c-.96-1.87-2.29-3.3-4-4.29-1.71-1-3.68-1.49-5.91-1.49s-4.22.49-5.94,1.49c-1.73.99-3.07,2.42-4.03,4.29-.95,1.87-1.43,4.05-1.43,6.53s.48,4.67,1.43,6.55c.96,1.89,2.3,3.33,4.03,4.35,1.72,1.01,3.71,1.52,5.94,1.52s4.2-.51,5.91-1.52c1.71-1.02,3.04-2.46,4-4.35.97-1.88,1.45-4.07,1.45-6.55s-.48-4.66-1.45-6.53ZM446.96,367.61c-1-.94-2.51-1.41-4.54-1.41h-6.23v10.92h6.23c2.03,0,3.54-.48,4.54-1.46s1.49-2.34,1.49-4.09-.49-3.02-1.49-3.96ZM376.92,371.98c-.96-1.87-2.29-3.3-4-4.29-1.71-1-3.68-1.49-5.91-1.49s-4.22.49-5.95,1.49c-1.72.99-3.06,2.42-4.03,4.29-.95,1.87-1.43,4.05-1.43,6.53s.48,4.67,1.43,6.55c.97,1.89,2.31,3.33,4.03,4.35,1.73,1.01,3.71,1.52,5.95,1.52s4.2-.51,5.91-1.52c1.71-1.02,3.04-2.46,4-4.35.96-1.88,1.45-4.07,1.45-6.55s-.49-4.66-1.45-6.53ZM330.71,366.1h-5.92v10.82h5.92c2.06,0,3.59-.49,4.58-1.42.99-.95,1.49-2.26,1.49-3.97,0-3.62-2.01-5.43-6.07-5.43ZM193.73,371.98c-.96-1.87-2.29-3.3-4-4.29-1.71-1-3.68-1.49-5.92-1.49s-4.22.49-5.94,1.49c-1.72.99-3.06,2.42-4.03,4.29-.95,1.87-1.43,4.05-1.43,6.53s.48,4.67,1.43,6.55c.97,1.89,2.31,3.33,4.03,4.35,1.72,1.01,3.71,1.52,5.94,1.52s4.21-.51,5.92-1.52c1.71-1.02,3.04-2.46,4-4.35.96-1.88,1.45-4.07,1.45-6.55s-.49-4.66-1.45-6.53ZM150.61,367.61c-.99-.94-2.51-1.41-4.53-1.41h-6.24v10.92h6.24c2.02,0,3.54-.48,4.53-1.46.99-.98,1.49-2.34,1.49-4.09s-.5-3.02-1.49-3.96ZM150.61,367.61c-.99-.94-2.51-1.41-4.53-1.41h-6.24v10.92h6.24c2.02,0,3.54-.48,4.53-1.46.99-.98,1.49-2.34,1.49-4.09s-.5-3.02-1.49-3.96ZM193.73,371.98c-.96-1.87-2.29-3.3-4-4.29-1.71-1-3.68-1.49-5.92-1.49s-4.22.49-5.94,1.49c-1.72.99-3.06,2.42-4.03,4.29-.95,1.87-1.43,4.05-1.43,6.53s.48,4.67,1.43,6.55c.97,1.89,2.31,3.33,4.03,4.35,1.72,1.01,3.71,1.52,5.94,1.52s4.21-.51,5.92-1.52c1.71-1.02,3.04-2.46,4-4.35.96-1.88,1.45-4.07,1.45-6.55s-.49-4.66-1.45-6.53ZM330.71,366.1h-5.92v10.82h5.92c2.06,0,3.59-.49,4.58-1.42.99-.95,1.49-2.26,1.49-3.97,0-3.62-2.01-5.43-6.07-5.43ZM376.92,371.98c-.96-1.87-2.29-3.3-4-4.29-1.71-1-3.68-1.49-5.91-1.49s-4.22.49-5.95,1.49c-1.72.99-3.06,2.42-4.03,4.29-.95,1.87-1.43,4.05-1.43,6.53s.48,4.67,1.43,6.55c.97,1.89,2.31,3.33,4.03,4.35,1.73,1.01,3.71,1.52,5.95,1.52s4.2-.51,5.91-1.52c1.71-1.02,3.04-2.46,4-4.35.96-1.88,1.45-4.07,1.45-6.55s-.49-4.66-1.45-6.53ZM446.96,367.61c-1-.94-2.51-1.41-4.54-1.41h-6.23v10.92h6.23c2.03,0,3.54-.48,4.54-1.46s1.49-2.34,1.49-4.09-.49-3.02-1.49-3.96ZM631.1,371.98c-.96-1.87-2.29-3.3-4-4.29-1.71-1-3.68-1.49-5.91-1.49s-4.22.49-5.94,1.49c-1.73.99-3.07,2.42-4.03,4.29-.95,1.87-1.43,4.05-1.43,6.53s.48,4.67,1.43,6.55c.96,1.89,2.3,3.33,4.03,4.35,1.72,1.01,3.71,1.52,5.94,1.52s4.2-.51,5.91-1.52c1.71-1.02,3.04-2.46,4-4.35.97-1.88,1.45-4.07,1.45-6.55s-.48-4.66-1.45-6.53ZM631.1,371.98c-.96-1.87-2.29-3.3-4-4.29-1.71-1-3.68-1.49-5.91-1.49s-4.22.49-5.94,1.49c-1.73.99-3.07,2.42-4.03,4.29-.95,1.87-1.43,4.05-1.43,6.53s.48,4.67,1.43,6.55c.96,1.89,2.3,3.33,4.03,4.35,1.72,1.01,3.71,1.52,5.94,1.52s4.2-.51,5.91-1.52c1.71-1.02,3.04-2.46,4-4.35.97-1.88,1.45-4.07,1.45-6.55s-.48-4.66-1.45-6.53ZM446.96,367.61c-1-.94-2.51-1.41-4.54-1.41h-6.23v10.92h6.23c2.03,0,3.54-.48,4.54-1.46s1.49-2.34,1.49-4.09-.49-3.02-1.49-3.96ZM376.92,371.98c-.96-1.87-2.29-3.3-4-4.29-1.71-1-3.68-1.49-5.91-1.49s-4.22.49-5.95,1.49c-1.72.99-3.06,2.42-4.03,4.29-.95,1.87-1.43,4.05-1.43,6.53s.48,4.67,1.43,6.55c.97,1.89,2.31,3.33,4.03,4.35,1.73,1.01,3.71,1.52,5.95,1.52s4.2-.51,5.91-1.52c1.71-1.02,3.04-2.46,4-4.35.96-1.88,1.45-4.07,1.45-6.55s-.49-4.66-1.45-6.53ZM330.71,366.1h-5.92v10.82h5.92c2.06,0,3.59-.49,4.58-1.42.99-.95,1.49-2.26,1.49-3.97,0-3.62-2.01-5.43-6.07-5.43ZM193.73,371.98c-.96-1.87-2.29-3.3-4-4.29-1.71-1-3.68-1.49-5.92-1.49s-4.22.49-5.94,1.49c-1.72.99-3.06,2.42-4.03,4.29-.95,1.87-1.43,4.05-1.43,6.53s.48,4.67,1.43,6.55c.97,1.89,2.31,3.33,4.03,4.35,1.72,1.01,3.71,1.52,5.94,1.52s4.21-.51,5.92-1.52c1.71-1.02,3.04-2.46,4-4.35.96-1.88,1.45-4.07,1.45-6.55s-.49-4.66-1.45-6.53ZM150.61,367.61c-.99-.94-2.51-1.41-4.53-1.41h-6.24v10.92h6.24c2.02,0,3.54-.48,4.53-1.46.99-.98,1.49-2.34,1.49-4.09s-.5-3.02-1.49-3.96ZM150.61,367.61c-.99-.94-2.51-1.41-4.53-1.41h-6.24v10.92h6.24c2.02,0,3.54-.48,4.53-1.46.99-.98,1.49-2.34,1.49-4.09s-.5-3.02-1.49-3.96ZM193.73,371.98c-.96-1.87-2.29-3.3-4-4.29-1.71-1-3.68-1.49-5.92-1.49s-4.22.49-5.94,1.49c-1.72.99-3.06,2.42-4.03,4.29-.95,1.87-1.43,4.05-1.43,6.53s.48,4.67,1.43,6.55c.97,1.89,2.31,3.33,4.03,4.35,1.72,1.01,3.71,1.52,5.94,1.52s4.21-.51,5.92-1.52c1.71-1.02,3.04-2.46,4-4.35.96-1.88,1.45-4.07,1.45-6.55s-.49-4.66-1.45-6.53ZM330.71,366.1h-5.92v10.82h5.92c2.06,0,3.59-.49,4.58-1.42.99-.95,1.49-2.26,1.49-3.97,0-3.62-2.01-5.43-6.07-5.43ZM376.92,371.98c-.96-1.87-2.29-3.3-4-4.29-1.71-1-3.68-1.49-5.91-1.49s-4.22.49-5.95,1.49c-1.72.99-3.06,2.42-4.03,4.29-.95,1.87-1.43,4.05-1.43,6.53s.48,4.67,1.43,6.55c.97,1.89,2.31,3.33,4.03,4.35,1.73,1.01,3.71,1.52,5.95,1.52s4.2-.51,5.91-1.52c1.71-1.02,3.04-2.46,4-4.35.96-1.88,1.45-4.07,1.45-6.55s-.49-4.66-1.45-6.53ZM446.96,367.61c-1-.94-2.51-1.41-4.54-1.41h-6.23v10.92h6.23c2.03,0,3.54-.48,4.54-1.46s1.49-2.34,1.49-4.09-.49-3.02-1.49-3.96ZM631.1,371.98c-.96-1.87-2.29-3.3-4-4.29-1.71-1-3.68-1.49-5.91-1.49s-4.22.49-5.94,1.49c-1.73.99-3.07,2.42-4.03,4.29-.95,1.87-1.43,4.05-1.43,6.53s.48,4.67,1.43,6.55c.96,1.89,2.3,3.33,4.03,4.35,1.72,1.01,3.71,1.52,5.94,1.52s4.2-.51,5.91-1.52c1.71-1.02,3.04-2.46,4-4.35.97-1.88,1.45-4.07,1.45-6.55s-.48-4.66-1.45-6.53ZM631.1,371.98c-.96-1.87-2.29-3.3-4-4.29-1.71-1-3.68-1.49-5.91-1.49s-4.22.49-5.94,1.49c-1.73.99-3.07,2.42-4.03,4.29-.95,1.87-1.43,4.05-1.43,6.53s.48,4.67,1.43,6.55c.96,1.89,2.3,3.33,4.03,4.35,1.72,1.01,3.71,1.52,5.94,1.52s4.2-.51,5.91-1.52c1.71-1.02,3.04-2.46,4-4.35.97-1.88,1.45-4.07,1.45-6.55s-.48-4.66-1.45-6.53ZM446.96,367.61c-1-.94-2.51-1.41-4.54-1.41h-6.23v10.92h6.23c2.03,0,3.54-.48,4.54-1.46s1.49-2.34,1.49-4.09-.49-3.02-1.49-3.96ZM376.92,371.98c-.96-1.87-2.29-3.3-4-4.29-1.71-1-3.68-1.49-5.91-1.49s-4.22.49-5.95,1.49c-1.72.99-3.06,2.42-4.03,4.29-.95,1.87-1.43,4.05-1.43,6.53s.48,4.67,1.43,6.55c.97,1.89,2.31,3.33,4.03,4.35,1.73,1.01,3.71,1.52,5.95,1.52s4.2-.51,5.91-1.52c1.71-1.02,3.04-2.46,4-4.35.96-1.88,1.45-4.07,1.45-6.55s-.49-4.66-1.45-6.53ZM330.71,366.1h-5.92v10.82h5.92c2.06,0,3.59-.49,4.58-1.42.99-.95,1.49-2.26,1.49-3.97,0-3.62-2.01-5.43-6.07-5.43ZM193.73,371.98c-.96-1.87-2.29-3.3-4-4.29-1.71-1-3.68-1.49-5.92-1.49s-4.22.49-5.94,1.49c-1.72.99-3.06,2.42-4.03,4.29-.95,1.87-1.43,4.05-1.43,6.53s.48,4.67,1.43,6.55c.97,1.89,2.31,3.33,4.03,4.35,1.72,1.01,3.71,1.52,5.94,1.52s4.21-.51,5.92-1.52c1.71-1.02,3.04-2.46,4-4.35.96-1.88,1.45-4.07,1.45-6.55s-.49-4.66-1.45-6.53ZM150.61,367.61c-.99-.94-2.51-1.41-4.53-1.41h-6.24v10.92h6.24c2.02,0,3.54-.48,4.53-1.46.99-.98,1.49-2.34,1.49-4.09s-.5-3.02-1.49-3.96ZM150.61,367.61c-.99-.94-2.51-1.41-4.53-1.41h-6.24v10.92h6.24c2.02,0,3.54-.48,4.53-1.46.99-.98,1.49-2.34,1.49-4.09s-.5-3.02-1.49-3.96ZM193.73,371.98c-.96-1.87-2.29-3.3-4-4.29-1.71-1-3.68-1.49-5.92-1.49s-4.22.49-5.94,1.49c-1.72.99-3.06,2.42-4.03,4.29-.95,1.87-1.43,4.05-1.43,6.53s.48,4.67,1.43,6.55c.97,1.89,2.31,3.33,4.03,4.35,1.72,1.01,3.71,1.52,5.94,1.52s4.21-.51,5.92-1.52c1.71-1.02,3.04-2.46,4-4.35.96-1.88,1.45-4.07,1.45-6.55s-.49-4.66-1.45-6.53ZM330.71,366.1h-5.92v10.82h5.92c2.06,0,3.59-.49,4.58-1.42.99-.95,1.49-2.26,1.49-3.97,0-3.62-2.01-5.43-6.07-5.43ZM376.92,371.98c-.96-1.87-2.29-3.3-4-4.29-1.71-1-3.68-1.49-5.91-1.49s-4.22.49-5.95,1.49c-1.72.99-3.06,2.42-4.03,4.29-.95,1.87-1.43,4.05-1.43,6.53s.48,4.67,1.43,6.55c.97,1.89,2.31,3.33,4.03,4.35,1.73,1.01,3.71,1.52,5.95,1.52s4.2-.51,5.91-1.52c1.71-1.02,3.04-2.46,4-4.35.96-1.88,1.45-4.07,1.45-6.55s-.49-4.66-1.45-6.53ZM446.96,367.61c-1-.94-2.51-1.41-4.54-1.41h-6.23v10.92h6.23c2.03,0,3.54-.48,4.54-1.46s1.49-2.34,1.49-4.09-.49-3.02-1.49-3.96ZM631.1,371.98c-.96-1.87-2.29-3.3-4-4.29-1.71-1-3.68-1.49-5.91-1.49s-4.22.49-5.94,1.49c-1.73.99-3.07,2.42-4.03,4.29-.95,1.87-1.43,4.05-1.43,6.53s.48,4.67,1.43,6.55c.96,1.89,2.3,3.33,4.03,4.35,1.72,1.01,3.71,1.52,5.94,1.52s4.2-.51,5.91-1.52c1.71-1.02,3.04-2.46,4-4.35.97-1.88,1.45-4.07,1.45-6.55s-.48-4.66-1.45-6.53ZM631.1,371.98c-.96-1.87-2.29-3.3-4-4.29-1.71-1-3.68-1.49-5.91-1.49s-4.22.49-5.94,1.49c-1.73.99-3.07,2.42-4.03,4.29-.95,1.87-1.43,4.05-1.43,6.53s.48,4.67,1.43,6.55c.96,1.89,2.3,3.33,4.03,4.35,1.72,1.01,3.71,1.52,5.94,1.52s4.2-.51,5.91-1.52c1.71-1.02,3.04-2.46,4-4.35.97-1.88,1.45-4.07,1.45-6.55s-.48-4.66-1.45-6.53ZM446.96,367.61c-1-.94-2.51-1.41-4.54-1.41h-6.23v10.92h6.23c2.03,0,3.54-.48,4.54-1.46s1.49-2.34,1.49-4.09-.49-3.02-1.49-3.96ZM376.92,371.98c-.96-1.87-2.29-3.3-4-4.29-1.71-1-3.68-1.49-5.91-1.49s-4.22.49-5.95,1.49c-1.72.99-3.06,2.42-4.03,4.29-.95,1.87-1.43,4.05-1.43,6.53s.48,4.67,1.43,6.55c.97,1.89,2.31,3.33,4.03,4.35,1.73,1.01,3.71,1.52,5.95,1.52s4.2-.51,5.91-1.52c1.71-1.02,3.04-2.46,4-4.35.96-1.88,1.45-4.07,1.45-6.55s-.49-4.66-1.45-6.53ZM330.71,366.1h-5.92v10.82h5.92c2.06,0,3.59-.49,4.58-1.42.99-.95,1.49-2.26,1.49-3.97,0-3.62-2.01-5.43-6.07-5.43ZM193.73,371.98c-.96-1.87-2.29-3.3-4-4.29-1.71-1-3.68-1.49-5.92-1.49s-4.22.49-5.94,1.49c-1.72.99-3.06,2.42-4.03,4.29-.95,1.87-1.43,4.05-1.43,6.53s.48,4.67,1.43,6.55c.97,1.89,2.31,3.33,4.03,4.35,1.72,1.01,3.71,1.52,5.94,1.52s4.21-.51,5.92-1.52c1.71-1.02,3.04-2.46,4-4.35.96-1.88,1.45-4.07,1.45-6.55s-.49-4.66-1.45-6.53ZM150.61,367.61c-.99-.94-2.51-1.41-4.53-1.41h-6.24v10.92h6.24c2.02,0,3.54-.48,4.53-1.46.99-.98,1.49-2.34,1.49-4.09s-.5-3.02-1.49-3.96ZM549.32,331.15c-13.16-2.54-312.94.68-318.77.68s-221.6,3.16-221.6,3.16c0,0,5.74,79.89,7.03,87.56,1.3,7.65,334.47-4.37,352.65-1.82,18.19,2.55,252.16,3.87,252.16,3.87l47.81,2.3,6.38-92.85s-112.49-.34-125.66-2.9ZM73.75,366.04h-14.12v9.33h12.53v5.91h-12.53v9.86h14.12v6.07h-21.58v-37.25h21.58v6.08ZM112.34,397.21h-7.46l-16.9-25.52v25.52h-7.46v-37.25h7.46l16.9,25.59v-25.59h7.46v37.25ZM151.58,397.21l-8.23-14.5h-3.51v14.5h-7.47v-37.2h13.98c2.87,0,5.33.51,7.36,1.52,2.01,1.02,3.53,2.39,4.55,4.11,1.01,1.73,1.52,3.65,1.52,5.77,0,2.47-.71,4.67-2.13,6.64-1.43,1.98-3.55,3.33-6.35,4.08l8.9,15.08h-8.62ZM200.31,388.35c-1.69,2.89-3.98,5.15-6.9,6.79-2.92,1.63-6.12,2.45-9.6,2.45s-6.68-.82-9.59-2.45c-2.92-1.64-5.23-3.9-6.93-6.79-1.7-2.91-2.56-6.18-2.56-9.84s.86-6.88,2.56-9.79c1.7-2.89,4.01-5.15,6.93-6.79,2.91-1.63,6.1-2.45,9.59-2.45s6.72.82,9.63,2.45c2.89,1.64,5.18,3.9,6.87,6.79,1.68,2.91,2.53,6.17,2.53,9.79s-.85,6.93-2.53,9.84ZM238.34,382.99c0,3.15-.69,5.83-2.05,8.02-1.37,2.19-3.2,3.82-5.49,4.93-2.29,1.1-4.85,1.65-7.65,1.65s-5.28-.55-7.55-1.65c-2.25-1.11-4.04-2.74-5.36-4.93-1.31-2.19-1.97-4.87-1.97-8.02v-22.98h7.48v23.02c0,2.53.64,4.46,1.95,5.79,1.32,1.34,3.17,2,5.55,2s4.28-.66,5.6-2c1.31-1.33,1.97-3.26,1.97-5.79v-23.02h7.52v22.98ZM270.85,366.04h-9.91v31.17h-7.46v-31.17h-9.92v-6.03h27.29v6.03ZM297.88,366.04h-14.13v9.33h12.53v5.91h-12.53v9.86h14.13v6.07h-21.59v-37.25h21.59v6.08ZM343.04,377.12c-.93,1.75-2.4,3.15-4.42,4.22-2,1.07-4.54,1.59-7.59,1.59h-6.24v14.28h-7.46v-37.2h13.7c2.87,0,5.33.51,7.36,1.5,2.03.99,3.54,2.37,4.55,4.1,1.01,1.74,1.52,3.71,1.52,5.92,0,1.98-.47,3.85-1.42,5.59ZM383.51,388.35c-1.7,2.89-3.99,5.15-6.91,6.79-2.92,1.63-6.12,2.45-9.59,2.45s-6.69-.82-9.6-2.45c-2.92-1.64-5.22-3.9-6.93-6.79-1.7-2.91-2.56-6.18-2.56-9.84s.86-6.88,2.56-9.79c1.71-2.89,4.01-5.15,6.93-6.79,2.91-1.63,6.11-2.45,9.6-2.45s6.71.82,9.62,2.45c2.89,1.64,5.18,3.9,6.88,6.79,1.67,2.91,2.52,6.17,2.52,9.79s-.85,6.93-2.52,9.84ZM421.53,382.99c0,3.15-.69,5.83-2.05,8.02-1.37,2.19-3.19,3.82-5.49,4.93-2.29,1.1-4.84,1.65-7.65,1.65s-5.28-.55-7.55-1.65c-2.25-1.11-4.03-2.74-5.34-4.93s-1.99-4.87-1.99-8.02v-22.98h7.48v23.02c0,2.53.66,4.46,1.97,5.79,1.31,1.34,3.15,2,5.53,2s4.28-.66,5.6-2c1.31-1.33,1.98-3.26,1.98-5.79v-23.02h7.51v22.98ZM447.91,397.21l-8.2-14.5h-3.52v14.5h-7.46v-37.2h13.96c2.89,0,5.34.51,7.35,1.52,2.03,1.02,3.55,2.39,4.57,4.11,1.01,1.73,1.52,3.65,1.52,5.77,0,2.47-.71,4.67-2.14,6.64-1.42,1.98-3.54,3.33-6.34,4.08l8.91,15.08h-8.65ZM495.3,397.21h-19.72v-37.2h7.46v31.29h12.26v5.91ZM521.64,366.04h-14.14v9.33h12.53v5.91h-12.53v9.86h14.14v6.07h-21.6v-37.25h21.6v6.08ZM552.85,392c-1.02,1.71-2.54,3.07-4.52,4.07-1.99,1.01-4.35,1.52-7.08,1.52s-4.94-.45-7.01-1.33c-2.09-.89-3.73-2.17-4.94-3.84-1.21-1.66-1.82-3.65-1.87-5.91h8c.11,1.52.65,2.73,1.63,3.62.97.89,2.32,1.33,4.03,1.33s3.11-.42,4.1-1.26c.99-.83,1.49-1.92,1.49-3.27,0-1.11-.34-2.01-1.01-2.71-.69-.72-1.52-1.27-2.54-1.68-1.01-.41-2.41-.86-4.18-1.36-2.42-.72-4.38-1.42-5.9-2.1-1.5-.7-2.8-1.76-3.88-3.16s-1.64-3.27-1.64-5.62c0-2.2.56-4.12,1.67-5.75,1.09-1.64,2.64-2.89,4.63-3.77,2-.86,4.26-1.3,6.82-1.3,3.84,0,6.96.94,9.36,2.81,2.41,1.85,3.72,4.46,3.97,7.79h-8.21c-.07-1.27-.61-2.33-1.62-3.17-1.02-.83-2.36-1.25-4.03-1.25-1.46,0-2.61.38-3.49,1.12-.87.75-1.31,1.83-1.31,3.26,0,.99.33,1.81.99,2.47.66.67,1.48,1.19,2.45,1.6.98.41,2.35.88,4.14,1.42,2.41.71,4.38,1.42,5.91,2.13,1.53.7,2.85,1.77,3.94,3.2,1.1,1.41,1.65,3.28,1.65,5.59,0,1.99-.51,3.84-1.55,5.55ZM595.23,386.13c0,3.62-1.05,6.44-3.14,8.45-2.1,2-4.91,3.01-8.43,3.01s-6.42-1.04-8.6-3.09c-2.19-2.06-3.28-4.94-3.28-8.63h7.46c.04,1.59.42,2.84,1.15,3.73.73.88,1.78,1.33,3.17,1.33s2.38-.44,3.1-1.28c.7-.85,1.05-2.03,1.05-3.52v-26.12h7.52v26.12ZM637.69,388.35c-1.69,2.89-3.99,5.15-6.91,6.79-2.92,1.63-6.12,2.45-9.59,2.45s-6.69-.82-9.59-2.45c-2.92-1.64-5.23-3.9-6.94-6.79-1.69-2.91-2.55-6.18-2.55-9.84s.86-6.88,2.55-9.79c1.71-2.89,4.02-5.15,6.94-6.79,2.9-1.63,6.1-2.45,9.59-2.45s6.72.82,9.62,2.45c2.89,1.64,5.19,3.9,6.88,6.79,1.68,2.91,2.53,6.17,2.53,9.79s-.85,6.93-2.53,9.84ZM627.1,367.69c-1.71-1-3.68-1.49-5.91-1.49s-4.22.49-5.94,1.49c-1.73.99-3.07,2.42-4.03,4.29-.95,1.87-1.43,4.05-1.43,6.53s.48,4.67,1.43,6.55c.96,1.89,2.3,3.33,4.03,4.35,1.72,1.01,3.71,1.52,5.94,1.52s4.2-.51,5.91-1.52c1.71-1.02,3.04-2.46,4-4.35.97-1.88,1.45-4.07,1.45-6.55s-.48-4.66-1.45-6.53c-.96-1.87-2.29-3.3-4-4.29ZM446.96,367.61c-1-.94-2.51-1.41-4.54-1.41h-6.23v10.92h6.23c2.03,0,3.54-.48,4.54-1.46s1.49-2.34,1.49-4.09-.49-3.02-1.49-3.96ZM372.92,367.69c-1.71-1-3.68-1.49-5.91-1.49s-4.22.49-5.95,1.49c-1.72.99-3.06,2.42-4.03,4.29-.95,1.87-1.43,4.05-1.43,6.53s.48,4.67,1.43,6.55c.97,1.89,2.31,3.33,4.03,4.35,1.73,1.01,3.71,1.52,5.95,1.52s4.2-.51,5.91-1.52c1.71-1.02,3.04-2.46,4-4.35.96-1.88,1.45-4.07,1.45-6.55s-.49-4.66-1.45-6.53c-.96-1.87-2.29-3.3-4-4.29ZM330.71,366.1h-5.92v10.82h5.92c2.06,0,3.59-.49,4.58-1.42.99-.95,1.49-2.26,1.49-3.97,0-3.62-2.01-5.43-6.07-5.43ZM189.73,367.69c-1.71-1-3.68-1.49-5.92-1.49s-4.22.49-5.94,1.49c-1.72.99-3.06,2.42-4.03,4.29-.95,1.87-1.43,4.05-1.43,6.53s.48,4.67,1.43,6.55c.97,1.89,2.31,3.33,4.03,4.35,1.72,1.01,3.71,1.52,5.94,1.52s4.21-.51,5.92-1.52c1.71-1.02,3.04-2.46,4-4.35.96-1.88,1.45-4.07,1.45-6.55s-.49-4.66-1.45-6.53c-.96-1.87-2.29-3.3-4-4.29ZM150.61,367.61c-.99-.94-2.51-1.41-4.53-1.41h-6.24v10.92h6.24c2.02,0,3.54-.48,4.53-1.46.99-.98,1.49-2.34,1.49-4.09s-.5-3.02-1.49-3.96ZM150.61,367.61c-.99-.94-2.51-1.41-4.53-1.41h-6.24v10.92h6.24c2.02,0,3.54-.48,4.53-1.46.99-.98,1.49-2.34,1.49-4.09s-.5-3.02-1.49-3.96ZM193.73,371.98c-.96-1.87-2.29-3.3-4-4.29-1.71-1-3.68-1.49-5.92-1.49s-4.22.49-5.94,1.49c-1.72.99-3.06,2.42-4.03,4.29-.95,1.87-1.43,4.05-1.43,6.53s.48,4.67,1.43,6.55c.97,1.89,2.31,3.33,4.03,4.35,1.72,1.01,3.71,1.52,5.94,1.52s4.21-.51,5.92-1.52c1.71-1.02,3.04-2.46,4-4.35.96-1.88,1.45-4.07,1.45-6.55s-.49-4.66-1.45-6.53ZM330.71,366.1h-5.92v10.82h5.92c2.06,0,3.59-.49,4.58-1.42.99-.95,1.49-2.26,1.49-3.97,0-3.62-2.01-5.43-6.07-5.43ZM376.92,371.98c-.96-1.87-2.29-3.3-4-4.29-1.71-1-3.68-1.49-5.91-1.49s-4.22.49-5.95,1.49c-1.72.99-3.06,2.42-4.03,4.29-.95,1.87-1.43,4.05-1.43,6.53s.48,4.67,1.43,6.55c.97,1.89,2.31,3.33,4.03,4.35,1.73,1.01,3.71,1.52,5.95,1.52s4.2-.51,5.91-1.52c1.71-1.02,3.04-2.46,4-4.35.96-1.88,1.45-4.07,1.45-6.55s-.49-4.66-1.45-6.53ZM446.96,367.61c-1-.94-2.51-1.41-4.54-1.41h-6.23v10.92h6.23c2.03,0,3.54-.48,4.54-1.46s1.49-2.34,1.49-4.09-.49-3.02-1.49-3.96ZM631.1,371.98c-.96-1.87-2.29-3.3-4-4.29-1.71-1-3.68-1.49-5.91-1.49s-4.22.49-5.94,1.49c-1.73.99-3.07,2.42-4.03,4.29-.95,1.87-1.43,4.05-1.43,6.53s.48,4.67,1.43,6.55c.96,1.89,2.3,3.33,4.03,4.35,1.72,1.01,3.71,1.52,5.94,1.52s4.2-.51,5.91-1.52c1.71-1.02,3.04-2.46,4-4.35.97-1.88,1.45-4.07,1.45-6.55s-.48-4.66-1.45-6.53ZM631.1,371.98c-.96-1.87-2.29-3.3-4-4.29-1.71-1-3.68-1.49-5.91-1.49s-4.22.49-5.94,1.49c-1.73.99-3.07,2.42-4.03,4.29-.95,1.87-1.43,4.05-1.43,6.53s.48,4.67,1.43,6.55c.96,1.89,2.3,3.33,4.03,4.35,1.72,1.01,3.71,1.52,5.94,1.52s4.2-.51,5.91-1.52c1.71-1.02,3.04-2.46,4-4.35.97-1.88,1.45-4.07,1.45-6.55s-.48-4.66-1.45-6.53ZM446.96,367.61c-1-.94-2.51-1.41-4.54-1.41h-6.23v10.92h6.23c2.03,0,3.54-.48,4.54-1.46s1.49-2.34,1.49-4.09-.49-3.02-1.49-3.96ZM376.92,371.98c-.96-1.87-2.29-3.3-4-4.29-1.71-1-3.68-1.49-5.91-1.49s-4.22.49-5.95,1.49c-1.72.99-3.06,2.42-4.03,4.29-.95,1.87-1.43,4.05-1.43,6.53s.48,4.67,1.43,6.55c.97,1.89,2.31,3.33,4.03,4.35,1.73,1.01,3.71,1.52,5.95,1.52s4.2-.51,5.91-1.52c1.71-1.02,3.04-2.46,4-4.35.96-1.88,1.45-4.07,1.45-6.55s-.49-4.66-1.45-6.53ZM330.71,366.1h-5.92v10.82h5.92c2.06,0,3.59-.49,4.58-1.42.99-.95,1.49-2.26,1.49-3.97,0-3.62-2.01-5.43-6.07-5.43ZM193.73,371.98c-.96-1.87-2.29-3.3-4-4.29-1.71-1-3.68-1.49-5.92-1.49s-4.22.49-5.94,1.49c-1.72.99-3.06,2.42-4.03,4.29-.95,1.87-1.43,4.05-1.43,6.53s.48,4.67,1.43,6.55c.97,1.89,2.31,3.33,4.03,4.35,1.72,1.01,3.71,1.52,5.94,1.52s4.21-.51,5.92-1.52c1.71-1.02,3.04-2.46,4-4.35.96-1.88,1.45-4.07,1.45-6.55s-.49-4.66-1.45-6.53ZM150.61,367.61c-.99-.94-2.51-1.41-4.53-1.41h-6.24v10.92h6.24c2.02,0,3.54-.48,4.53-1.46.99-.98,1.49-2.34,1.49-4.09s-.5-3.02-1.49-3.96ZM150.61,367.61c-.99-.94-2.51-1.41-4.53-1.41h-6.24v10.92h6.24c2.02,0,3.54-.48,4.53-1.46.99-.98,1.49-2.34,1.49-4.09s-.5-3.02-1.49-3.96ZM193.73,371.98c-.96-1.87-2.29-3.3-4-4.29-1.71-1-3.68-1.49-5.92-1.49s-4.22.49-5.94,1.49c-1.72.99-3.06,2.42-4.03,4.29-.95,1.87-1.43,4.05-1.43,6.53s.48,4.67,1.43,6.55c.97,1.89,2.31,3.33,4.03,4.35,1.72,1.01,3.71,1.52,5.94,1.52s4.21-.51,5.92-1.52c1.71-1.02,3.04-2.46,4-4.35.96-1.88,1.45-4.07,1.45-6.55s-.49-4.66-1.45-6.53ZM330.71,366.1h-5.92v10.82h5.92c2.06,0,3.59-.49,4.58-1.42.99-.95,1.49-2.26,1.49-3.97,0-3.62-2.01-5.43-6.07-5.43ZM376.92,371.98c-.96-1.87-2.29-3.3-4-4.29-1.71-1-3.68-1.49-5.91-1.49s-4.22.49-5.95,1.49c-1.72.99-3.06,2.42-4.03,4.29-.95,1.87-1.43,4.05-1.43,6.53s.48,4.67,1.43,6.55c.97,1.89,2.31,3.33,4.03,4.35,1.73,1.01,3.71,1.52,5.95,1.52s4.2-.51,5.91-1.52c1.71-1.02,3.04-2.46,4-4.35.96-1.88,1.45-4.07,1.45-6.55s-.49-4.66-1.45-6.53ZM446.96,367.61c-1-.94-2.51-1.41-4.54-1.41h-6.23v10.92h6.23c2.03,0,3.54-.48,4.54-1.46s1.49-2.34,1.49-4.09-.49-3.02-1.49-3.96ZM631.1,371.98c-.96-1.87-2.29-3.3-4-4.29-1.71-1-3.68-1.49-5.91-1.49s-4.22.49-5.94,1.49c-1.73.99-3.07,2.42-4.03,4.29-.95,1.87-1.43,4.05-1.43,6.53s.48,4.67,1.43,6.55c.96,1.89,2.3,3.33,4.03,4.35,1.72,1.01,3.71,1.52,5.94,1.52s4.2-.51,5.91-1.52c1.71-1.02,3.04-2.46,4-4.35.97-1.88,1.45-4.07,1.45-6.55s-.48-4.66-1.45-6.53ZM631.1,371.98c-.96-1.87-2.29-3.3-4-4.29-1.71-1-3.68-1.49-5.91-1.49s-4.22.49-5.94,1.49c-1.73.99-3.07,2.42-4.03,4.29-.95,1.87-1.43,4.05-1.43,6.53s.48,4.67,1.43,6.55c.96,1.89,2.3,3.33,4.03,4.35,1.72,1.01,3.71,1.52,5.94,1.52s4.2-.51,5.91-1.52c1.71-1.02,3.04-2.46,4-4.35.97-1.88,1.45-4.07,1.45-6.55s-.48-4.66-1.45-6.53ZM446.96,367.61c-1-.94-2.51-1.41-4.54-1.41h-6.23v10.92h6.23c2.03,0,3.54-.48,4.54-1.46s1.49-2.34,1.49-4.09-.49-3.02-1.49-3.96ZM376.92,371.98c-.96-1.87-2.29-3.3-4-4.29-1.71-1-3.68-1.49-5.91-1.49s-4.22.49-5.95,1.49c-1.72.99-3.06,2.42-4.03,4.29-.95,1.87-1.43,4.05-1.43,6.53s.48,4.67,1.43,6.55c.97,1.89,2.31,3.33,4.03,4.35,1.73,1.01,3.71,1.52,5.95,1.52s4.2-.51,5.91-1.52c1.71-1.02,3.04-2.46,4-4.35.96-1.88,1.45-4.07,1.45-6.55s-.49-4.66-1.45-6.53ZM330.71,366.1h-5.92v10.82h5.92c2.06,0,3.59-.49,4.58-1.42.99-.95,1.49-2.26,1.49-3.97,0-3.62-2.01-5.43-6.07-5.43ZM193.73,371.98c-.96-1.87-2.29-3.3-4-4.29-1.71-1-3.68-1.49-5.92-1.49s-4.22.49-5.94,1.49c-1.72.99-3.06,2.42-4.03,4.29-.95,1.87-1.43,4.05-1.43,6.53s.48,4.67,1.43,6.55c.97,1.89,2.31,3.33,4.03,4.35,1.72,1.01,3.71,1.52,5.94,1.52s4.21-.51,5.92-1.52c1.71-1.02,3.04-2.46,4-4.35.96-1.88,1.45-4.07,1.45-6.55s-.49-4.66-1.45-6.53ZM150.61,367.61c-.99-.94-2.51-1.41-4.53-1.41h-6.24v10.92h6.24c2.02,0,3.54-.48,4.53-1.46.99-.98,1.49-2.34,1.49-4.09s-.5-3.02-1.49-3.96ZM150.61,367.61c-.99-.94-2.51-1.41-4.53-1.41h-6.24v10.92h6.24c2.02,0,3.54-.48,4.53-1.46.99-.98,1.49-2.34,1.49-4.09s-.5-3.02-1.49-3.96ZM193.73,371.98c-.96-1.87-2.29-3.3-4-4.29-1.71-1-3.68-1.49-5.92-1.49s-4.22.49-5.94,1.49c-1.72.99-3.06,2.42-4.03,4.29-.95,1.87-1.43,4.05-1.43,6.53s.48,4.67,1.43,6.55c.97,1.89,2.31,3.33,4.03,4.35,1.72,1.01,3.71,1.52,5.94,1.52s4.21-.51,5.92-1.52c1.71-1.02,3.04-2.46,4-4.35.96-1.88,1.45-4.07,1.45-6.55s-.49-4.66-1.45-6.53ZM330.71,366.1h-5.92v10.82h5.92c2.06,0,3.59-.49,4.58-1.42.99-.95,1.49-2.26,1.49-3.97,0-3.62-2.01-5.43-6.07-5.43ZM376.92,371.98c-.96-1.87-2.29-3.3-4-4.29-1.71-1-3.68-1.49-5.91-1.49s-4.22.49-5.95,1.49c-1.72.99-3.06,2.42-4.03,4.29-.95,1.87-1.43,4.05-1.43,6.53s.48,4.67,1.43,6.55c.97,1.89,2.31,3.33,4.03,4.35,1.73,1.01,3.71,1.52,5.95,1.52s4.2-.51,5.91-1.52c1.71-1.02,3.04-2.46,4-4.35.96-1.88,1.45-4.07,1.45-6.55s-.49-4.66-1.45-6.53ZM446.96,367.61c-1-.94-2.51-1.41-4.54-1.41h-6.23v10.92h6.23c2.03,0,3.54-.48,4.54-1.46s1.49-2.34,1.49-4.09-.49-3.02-1.49-3.96ZM631.1,371.98c-.96-1.87-2.29-3.3-4-4.29-1.71-1-3.68-1.49-5.91-1.49s-4.22.49-5.94,1.49c-1.73.99-3.07,2.42-4.03,4.29-.95,1.87-1.43,4.05-1.43,6.53s.48,4.67,1.43,6.55c.96,1.89,2.3,3.33,4.03,4.35,1.72,1.01,3.71,1.52,5.94,1.52s4.2-.51,5.91-1.52c1.71-1.02,3.04-2.46,4-4.35.97-1.88,1.45-4.07,1.45-6.55s-.48-4.66-1.45-6.53ZM631.1,371.98c-.96-1.87-2.29-3.3-4-4.29-1.71-1-3.68-1.49-5.91-1.49s-4.22.49-5.94,1.49c-1.73.99-3.07,2.42-4.03,4.29-.95,1.87-1.43,4.05-1.43,6.53s.48,4.67,1.43,6.55c.96,1.89,2.3,3.33,4.03,4.35,1.72,1.01,3.71,1.52,5.94,1.52s4.2-.51,5.91-1.52c1.71-1.02,3.04-2.46,4-4.35.97-1.88,1.45-4.07,1.45-6.55s-.48-4.66-1.45-6.53ZM446.96,367.61c-1-.94-2.51-1.41-4.54-1.41h-6.23v10.92h6.23c2.03,0,3.54-.48,4.54-1.46s1.49-2.34,1.49-4.09-.49-3.02-1.49-3.96ZM376.92,371.98c-.96-1.87-2.29-3.3-4-4.29-1.71-1-3.68-1.49-5.91-1.49s-4.22.49-5.95,1.49c-1.72.99-3.06,2.42-4.03,4.29-.95,1.87-1.43,4.05-1.43,6.53s.48,4.67,1.43,6.55c.97,1.89,2.31,3.33,4.03,4.35,1.73,1.01,3.71,1.52,5.95,1.52s4.2-.51,5.91-1.52c1.71-1.02,3.04-2.46,4-4.35.96-1.88,1.45-4.07,1.45-6.55s-.49-4.66-1.45-6.53ZM330.71,366.1h-5.92v10.82h5.92c2.06,0,3.59-.49,4.58-1.42.99-.95,1.49-2.26,1.49-3.97,0-3.62-2.01-5.43-6.07-5.43ZM193.73,371.98c-.96-1.87-2.29-3.3-4-4.29-1.71-1-3.68-1.49-5.92-1.49s-4.22.49-5.94,1.49c-1.72.99-3.06,2.42-4.03,4.29-.95,1.87-1.43,4.05-1.43,6.53s.48,4.67,1.43,6.55c.97,1.89,2.31,3.33,4.03,4.35,1.72,1.01,3.71,1.52,5.94,1.52s4.21-.51,5.92-1.52c1.71-1.02,3.04-2.46,4-4.35.96-1.88,1.45-4.07,1.45-6.55s-.49-4.66-1.45-6.53ZM150.61,367.61c-.99-.94-2.51-1.41-4.53-1.41h-6.24v10.92h6.24c2.02,0,3.54-.48,4.53-1.46.99-.98,1.49-2.34,1.49-4.09s-.5-3.02-1.49-3.96ZM150.61,367.61c-.99-.94-2.51-1.41-4.53-1.41h-6.24v10.92h6.24c2.02,0,3.54-.48,4.53-1.46.99-.98,1.49-2.34,1.49-4.09s-.5-3.02-1.49-3.96ZM193.73,371.98c-.96-1.87-2.29-3.3-4-4.29-1.71-1-3.68-1.49-5.92-1.49s-4.22.49-5.94,1.49c-1.72.99-3.06,2.42-4.03,4.29-.95,1.87-1.43,4.05-1.43,6.53s.48,4.67,1.43,6.55c.97,1.89,2.31,3.33,4.03,4.35,1.72,1.01,3.71,1.52,5.94,1.52s4.21-.51,5.92-1.52c1.71-1.02,3.04-2.46,4-4.35.96-1.88,1.45-4.07,1.45-6.55s-.49-4.66-1.45-6.53ZM330.71,366.1h-5.92v10.82h5.92c2.06,0,3.59-.49,4.58-1.42.99-.95,1.49-2.26,1.49-3.97,0-3.62-2.01-5.43-6.07-5.43ZM376.92,371.98c-.96-1.87-2.29-3.3-4-4.29-1.71-1-3.68-1.49-5.91-1.49s-4.22.49-5.95,1.49c-1.72.99-3.06,2.42-4.03,4.29-.95,1.87-1.43,4.05-1.43,6.53s.48,4.67,1.43,6.55c.97,1.89,2.31,3.33,4.03,4.35,1.73,1.01,3.71,1.52,5.95,1.52s4.2-.51,5.91-1.52c1.71-1.02,3.04-2.46,4-4.35.96-1.88,1.45-4.07,1.45-6.55s-.49-4.66-1.45-6.53ZM446.96,367.61c-1-.94-2.51-1.41-4.54-1.41h-6.23v10.92h6.23c2.03,0,3.54-.48,4.54-1.46s1.49-2.34,1.49-4.09-.49-3.02-1.49-3.96ZM631.1,371.98c-.96-1.87-2.29-3.3-4-4.29-1.71-1-3.68-1.49-5.91-1.49s-4.22.49-5.94,1.49c-1.73.99-3.07,2.42-4.03,4.29-.95,1.87-1.43,4.05-1.43,6.53s.48,4.67,1.43,6.55c.96,1.89,2.3,3.33,4.03,4.35,1.72,1.01,3.71,1.52,5.94,1.52s4.2-.51,5.91-1.52c1.71-1.02,3.04-2.46,4-4.35.97-1.88,1.45-4.07,1.45-6.55s-.48-4.66-1.45-6.53ZM631.1,371.98c-.96-1.87-2.29-3.3-4-4.29-1.71-1-3.68-1.49-5.91-1.49s-4.22.49-5.94,1.49c-1.73.99-3.07,2.42-4.03,4.29-.95,1.87-1.43,4.05-1.43,6.53s.48,4.67,1.43,6.55c.96,1.89,2.3,3.33,4.03,4.35,1.72,1.01,3.71,1.52,5.94,1.52s4.2-.51,5.91-1.52c1.71-1.02,3.04-2.46,4-4.35.97-1.88,1.45-4.07,1.45-6.55s-.48-4.66-1.45-6.53ZM446.96,367.61c-1-.94-2.51-1.41-4.54-1.41h-6.23v10.92h6.23c2.03,0,3.54-.48,4.54-1.46s1.49-2.34,1.49-4.09-.49-3.02-1.49-3.96ZM376.92,371.98c-.96-1.87-2.29-3.3-4-4.29-1.71-1-3.68-1.49-5.91-1.49s-4.22.49-5.95,1.49c-1.72.99-3.06,2.42-4.03,4.29-.95,1.87-1.43,4.05-1.43,6.53s.48,4.67,1.43,6.55c.97,1.89,2.31,3.33,4.03,4.35,1.73,1.01,3.71,1.52,5.95,1.52s4.2-.51,5.91-1.52c1.71-1.02,3.04-2.46,4-4.35.96-1.88,1.45-4.07,1.45-6.55s-.49-4.66-1.45-6.53ZM330.71,366.1h-5.92v10.82h5.92c2.06,0,3.59-.49,4.58-1.42.99-.95,1.49-2.26,1.49-3.97,0-3.62-2.01-5.43-6.07-5.43ZM193.73,371.98c-.96-1.87-2.29-3.3-4-4.29-1.71-1-3.68-1.49-5.92-1.49s-4.22.49-5.94,1.49c-1.72.99-3.06,2.42-4.03,4.29-.95,1.87-1.43,4.05-1.43,6.53s.48,4.67,1.43,6.55c.97,1.89,2.31,3.33,4.03,4.35,1.72,1.01,3.71,1.52,5.94,1.52s4.21-.51,5.92-1.52c1.71-1.02,3.04-2.46,4-4.35.96-1.88,1.45-4.07,1.45-6.55s-.49-4.66-1.45-6.53ZM150.61,367.61c-.99-.94-2.51-1.41-4.53-1.41h-6.24v10.92h6.24c2.02,0,3.54-.48,4.53-1.46.99-.98,1.49-2.34,1.49-4.09s-.5-3.02-1.49-3.96ZM150.61,367.61c-.99-.94-2.51-1.41-4.53-1.41h-6.24v10.92h6.24c2.02,0,3.54-.48,4.53-1.46.99-.98,1.49-2.34,1.49-4.09s-.5-3.02-1.49-3.96ZM193.73,371.98c-.96-1.87-2.29-3.3-4-4.29-1.71-1-3.68-1.49-5.92-1.49s-4.22.49-5.94,1.49c-1.72.99-3.06,2.42-4.03,4.29-.95,1.87-1.43,4.05-1.43,6.53s.48,4.67,1.43,6.55c.97,1.89,2.31,3.33,4.03,4.35,1.72,1.01,3.71,1.52,5.94,1.52s4.21-.51,5.92-1.52c1.71-1.02,3.04-2.46,4-4.35.96-1.88,1.45-4.07,1.45-6.55s-.49-4.66-1.45-6.53ZM330.71,366.1h-5.92v10.82h5.92c2.06,0,3.59-.49,4.58-1.42.99-.95,1.49-2.26,1.49-3.97,0-3.62-2.01-5.43-6.07-5.43ZM376.92,371.98c-.96-1.87-2.29-3.3-4-4.29-1.71-1-3.68-1.49-5.91-1.49s-4.22.49-5.95,1.49c-1.72.99-3.06,2.42-4.03,4.29-.95,1.87-1.43,4.05-1.43,6.53s.48,4.67,1.43,6.55c.97,1.89,2.31,3.33,4.03,4.35,1.73,1.01,3.71,1.52,5.95,1.52s4.2-.51,5.91-1.52c1.71-1.02,3.04-2.46,4-4.35.96-1.88,1.45-4.07,1.45-6.55s-.49-4.66-1.45-6.53ZM446.96,367.61c-1-.94-2.51-1.41-4.54-1.41h-6.23v10.92h6.23c2.03,0,3.54-.48,4.54-1.46s1.49-2.34,1.49-4.09-.49-3.02-1.49-3.96ZM631.1,371.98c-.96-1.87-2.29-3.3-4-4.29-1.71-1-3.68-1.49-5.91-1.49s-4.22.49-5.94,1.49c-1.73.99-3.07,2.42-4.03,4.29-.95,1.87-1.43,4.05-1.43,6.53s.48,4.67,1.43,6.55c.96,1.89,2.3,3.33,4.03,4.35,1.72,1.01,3.71,1.52,5.94,1.52s4.2-.51,5.91-1.52c1.71-1.02,3.04-2.46,4-4.35.97-1.88,1.45-4.07,1.45-6.55s-.48-4.66-1.45-6.53ZM631.1,371.98c-.96-1.87-2.29-3.3-4-4.29-1.71-1-3.68-1.49-5.91-1.49s-4.22.49-5.94,1.49c-1.73.99-3.07,2.42-4.03,4.29-.95,1.87-1.43,4.05-1.43,6.53s.48,4.67,1.43,6.55c.96,1.89,2.3,3.33,4.03,4.35,1.72,1.01,3.71,1.52,5.94,1.52s4.2-.51,5.91-1.52c1.71-1.02,3.04-2.46,4-4.35.97-1.88,1.45-4.07,1.45-6.55s-.48-4.66-1.45-6.53ZM446.96,367.61c-1-.94-2.51-1.41-4.54-1.41h-6.23v10.92h6.23c2.03,0,3.54-.48,4.54-1.46s1.49-2.34,1.49-4.09-.49-3.02-1.49-3.96ZM376.92,371.98c-.96-1.87-2.29-3.3-4-4.29-1.71-1-3.68-1.49-5.91-1.49s-4.22.49-5.95,1.49c-1.72.99-3.06,2.42-4.03,4.29-.95,1.87-1.43,4.05-1.43,6.53s.48,4.67,1.43,6.55c.97,1.89,2.31,3.33,4.03,4.35,1.73,1.01,3.71,1.52,5.95,1.52s4.2-.51,5.91-1.52c1.71-1.02,3.04-2.46,4-4.35.96-1.88,1.45-4.07,1.45-6.55s-.49-4.66-1.45-6.53ZM330.71,366.1h-5.92v10.82h5.92c2.06,0,3.59-.49,4.58-1.42.99-.95,1.49-2.26,1.49-3.97,0-3.62-2.01-5.43-6.07-5.43ZM193.73,371.98c-.96-1.87-2.29-3.3-4-4.29-1.71-1-3.68-1.49-5.92-1.49s-4.22.49-5.94,1.49c-1.72.99-3.06,2.42-4.03,4.29-.95,1.87-1.43,4.05-1.43,6.53s.48,4.67,1.43,6.55c.97,1.89,2.31,3.33,4.03,4.35,1.72,1.01,3.71,1.52,5.94,1.52s4.21-.51,5.92-1.52c1.71-1.02,3.04-2.46,4-4.35.96-1.88,1.45-4.07,1.45-6.55s-.49-4.66-1.45-6.53ZM150.61,367.61c-.99-.94-2.51-1.41-4.53-1.41h-6.24v10.92h6.24c2.02,0,3.54-.48,4.53-1.46.99-.98,1.49-2.34,1.49-4.09s-.5-3.02-1.49-3.96ZM150.61,367.61c-.99-.94-2.51-1.41-4.53-1.41h-6.24v10.92h6.24c2.02,0,3.54-.48,4.53-1.46.99-.98,1.49-2.34,1.49-4.09s-.5-3.02-1.49-3.96ZM193.73,371.98c-.96-1.87-2.29-3.3-4-4.29-1.71-1-3.68-1.49-5.92-1.49s-4.22.49-5.94,1.49c-1.72.99-3.06,2.42-4.03,4.29-.95,1.87-1.43,4.05-1.43,6.53s.48,4.67,1.43,6.55c.97,1.89,2.31,3.33,4.03,4.35,1.72,1.01,3.71,1.52,5.94,1.52s4.21-.51,5.92-1.52c1.71-1.02,3.04-2.46,4-4.35.96-1.88,1.45-4.07,1.45-6.55s-.49-4.66-1.45-6.53ZM330.71,366.1h-5.92v10.82h5.92c2.06,0,3.59-.49,4.58-1.42.99-.95,1.49-2.26,1.49-3.97,0-3.62-2.01-5.43-6.07-5.43ZM376.92,371.98c-.96-1.87-2.29-3.3-4-4.29-1.71-1-3.68-1.49-5.91-1.49s-4.22.49-5.95,1.49c-1.72.99-3.06,2.42-4.03,4.29-.95,1.87-1.43,4.05-1.43,6.53s.48,4.67,1.43,6.55c.97,1.89,2.31,3.33,4.03,4.35,1.73,1.01,3.71,1.52,5.95,1.52s4.2-.51,5.91-1.52c1.71-1.02,3.04-2.46,4-4.35.96-1.88,1.45-4.07,1.45-6.55s-.49-4.66-1.45-6.53ZM446.96,367.61c-1-.94-2.51-1.41-4.54-1.41h-6.23v10.92h6.23c2.03,0,3.54-.48,4.54-1.46s1.49-2.34,1.49-4.09-.49-3.02-1.49-3.96ZM631.1,371.98c-.96-1.87-2.29-3.3-4-4.29-1.71-1-3.68-1.49-5.91-1.49s-4.22.49-5.94,1.49c-1.73.99-3.07,2.42-4.03,4.29-.95,1.87-1.43,4.05-1.43,6.53s.48,4.67,1.43,6.55c.96,1.89,2.3,3.33,4.03,4.35,1.72,1.01,3.71,1.52,5.94,1.52s4.2-.51,5.91-1.52c1.71-1.02,3.04-2.46,4-4.35.97-1.88,1.45-4.07,1.45-6.55s-.48-4.66-1.45-6.53ZM631.1,371.98c-.96-1.87-2.29-3.3-4-4.29-1.71-1-3.68-1.49-5.91-1.49s-4.22.49-5.94,1.49c-1.73.99-3.07,2.42-4.03,4.29-.95,1.87-1.43,4.05-1.43,6.53s.48,4.67,1.43,6.55c.96,1.89,2.3,3.33,4.03,4.35,1.72,1.01,3.71,1.52,5.94,1.52s4.2-.51,5.91-1.52c1.71-1.02,3.04-2.46,4-4.35.97-1.88,1.45-4.07,1.45-6.55s-.48-4.66-1.45-6.53ZM446.96,367.61c-1-.94-2.51-1.41-4.54-1.41h-6.23v10.92h6.23c2.03,0,3.54-.48,4.54-1.46s1.49-2.34,1.49-4.09-.49-3.02-1.49-3.96ZM376.92,371.98c-.96-1.87-2.29-3.3-4-4.29-1.71-1-3.68-1.49-5.91-1.49s-4.22.49-5.95,1.49c-1.72.99-3.06,2.42-4.03,4.29-.95,1.87-1.43,4.05-1.43,6.53s.48,4.67,1.43,6.55c.97,1.89,2.31,3.33,4.03,4.35,1.73,1.01,3.71,1.52,5.95,1.52s4.2-.51,5.91-1.52c1.71-1.02,3.04-2.46,4-4.35.96-1.88,1.45-4.07,1.45-6.55s-.49-4.66-1.45-6.53ZM330.71,366.1h-5.92v10.82h5.92c2.06,0,3.59-.49,4.58-1.42.99-.95,1.49-2.26,1.49-3.97,0-3.62-2.01-5.43-6.07-5.43ZM193.73,371.98c-.96-1.87-2.29-3.3-4-4.29-1.71-1-3.68-1.49-5.92-1.49s-4.22.49-5.94,1.49c-1.72.99-3.06,2.42-4.03,4.29-.95,1.87-1.43,4.05-1.43,6.53s.48,4.67,1.43,6.55c.97,1.89,2.31,3.33,4.03,4.35,1.72,1.01,3.71,1.52,5.94,1.52s4.21-.51,5.92-1.52c1.71-1.02,3.04-2.46,4-4.35.96-1.88,1.45-4.07,1.45-6.55s-.49-4.66-1.45-6.53ZM150.61,367.61c-.99-.94-2.51-1.41-4.53-1.41h-6.24v10.92h6.24c2.02,0,3.54-.48,4.53-1.46.99-.98,1.49-2.34,1.49-4.09s-.5-3.02-1.49-3.96ZM150.61,367.61c-.99-.94-2.51-1.41-4.53-1.41h-6.24v10.92h6.24c2.02,0,3.54-.48,4.53-1.46.99-.98,1.49-2.34,1.49-4.09s-.5-3.02-1.49-3.96ZM193.73,371.98c-.96-1.87-2.29-3.3-4-4.29-1.71-1-3.68-1.49-5.92-1.49s-4.22.49-5.94,1.49c-1.72.99-3.06,2.42-4.03,4.29-.95,1.87-1.43,4.05-1.43,6.53s.48,4.67,1.43,6.55c.97,1.89,2.31,3.33,4.03,4.35,1.72,1.01,3.71,1.52,5.94,1.52s4.21-.51,5.92-1.52c1.71-1.02,3.04-2.46,4-4.35.96-1.88,1.45-4.07,1.45-6.55s-.49-4.66-1.45-6.53ZM330.71,366.1h-5.92v10.82h5.92c2.06,0,3.59-.49,4.58-1.42.99-.95,1.49-2.26,1.49-3.97,0-3.62-2.01-5.43-6.07-5.43ZM376.92,371.98c-.96-1.87-2.29-3.3-4-4.29-1.71-1-3.68-1.49-5.91-1.49s-4.22.49-5.95,1.49c-1.72.99-3.06,2.42-4.03,4.29-.95,1.87-1.43,4.05-1.43,6.53s.48,4.67,1.43,6.55c.97,1.89,2.31,3.33,4.03,4.35,1.73,1.01,3.71,1.52,5.95,1.52s4.2-.51,5.91-1.52c1.71-1.02,3.04-2.46,4-4.35.96-1.88,1.45-4.07,1.45-6.55s-.49-4.66-1.45-6.53ZM446.96,367.61c-1-.94-2.51-1.41-4.54-1.41h-6.23v10.92h6.23c2.03,0,3.54-.48,4.54-1.46s1.49-2.34,1.49-4.09-.49-3.02-1.49-3.96ZM631.1,371.98c-.96-1.87-2.29-3.3-4-4.29-1.71-1-3.68-1.49-5.91-1.49s-4.22.49-5.94,1.49c-1.73.99-3.07,2.42-4.03,4.29-.95,1.87-1.43,4.05-1.43,6.53s.48,4.67,1.43,6.55c.96,1.89,2.3,3.33,4.03,4.35,1.72,1.01,3.71,1.52,5.94,1.52s4.2-.51,5.91-1.52c1.71-1.02,3.04-2.46,4-4.35.97-1.88,1.45-4.07,1.45-6.55s-.48-4.66-1.45-6.53ZM631.1,371.98c-.96-1.87-2.29-3.3-4-4.29-1.71-1-3.68-1.49-5.91-1.49s-4.22.49-5.94,1.49c-1.73.99-3.07,2.42-4.03,4.29-.95,1.87-1.43,4.05-1.43,6.53s.48,4.67,1.43,6.55c.96,1.89,2.3,3.33,4.03,4.35,1.72,1.01,3.71,1.52,5.94,1.52s4.2-.51,5.91-1.52c1.71-1.02,3.04-2.46,4-4.35.97-1.88,1.45-4.07,1.45-6.55s-.48-4.66-1.45-6.53ZM446.96,367.61c-1-.94-2.51-1.41-4.54-1.41h-6.23v10.92h6.23c2.03,0,3.54-.48,4.54-1.46s1.49-2.34,1.49-4.09-.49-3.02-1.49-3.96ZM376.92,371.98c-.96-1.87-2.29-3.3-4-4.29-1.71-1-3.68-1.49-5.91-1.49s-4.22.49-5.95,1.49c-1.72.99-3.06,2.42-4.03,4.29-.95,1.87-1.43,4.05-1.43,6.53s.48,4.67,1.43,6.55c.97,1.89,2.31,3.33,4.03,4.35,1.73,1.01,3.71,1.52,5.95,1.52s4.2-.51,5.91-1.52c1.71-1.02,3.04-2.46,4-4.35.96-1.88,1.45-4.07,1.45-6.55s-.49-4.66-1.45-6.53ZM330.71,366.1h-5.92v10.82h5.92c2.06,0,3.59-.49,4.58-1.42.99-.95,1.49-2.26,1.49-3.97,0-3.62-2.01-5.43-6.07-5.43ZM193.73,371.98c-.96-1.87-2.29-3.3-4-4.29-1.71-1-3.68-1.49-5.92-1.49s-4.22.49-5.94,1.49c-1.72.99-3.06,2.42-4.03,4.29-.95,1.87-1.43,4.05-1.43,6.53s.48,4.67,1.43,6.55c.97,1.89,2.31,3.33,4.03,4.35,1.72,1.01,3.71,1.52,5.94,1.52s4.21-.51,5.92-1.52c1.71-1.02,3.04-2.46,4-4.35.96-1.88,1.45-4.07,1.45-6.55s-.49-4.66-1.45-6.53ZM150.61,367.61c-.99-.94-2.51-1.41-4.53-1.41h-6.24v10.92h6.24c2.02,0,3.54-.48,4.53-1.46.99-.98,1.49-2.34,1.49-4.09s-.5-3.02-1.49-3.96ZM150.61,367.61c-.99-.94-2.51-1.41-4.53-1.41h-6.24v10.92h6.24c2.02,0,3.54-.48,4.53-1.46.99-.98,1.49-2.34,1.49-4.09s-.5-3.02-1.49-3.96ZM193.73,371.98c-.96-1.87-2.29-3.3-4-4.29-1.71-1-3.68-1.49-5.92-1.49s-4.22.49-5.94,1.49c-1.72.99-3.06,2.42-4.03,4.29-.95,1.87-1.43,4.05-1.43,6.53s.48,4.67,1.43,6.55c.97,1.89,2.31,3.33,4.03,4.35,1.72,1.01,3.71,1.52,5.94,1.52s4.21-.51,5.92-1.52c1.71-1.02,3.04-2.46,4-4.35.96-1.88,1.45-4.07,1.45-6.55s-.49-4.66-1.45-6.53ZM330.71,366.1h-5.92v10.82h5.92c2.06,0,3.59-.49,4.58-1.42.99-.95,1.49-2.26,1.49-3.97,0-3.62-2.01-5.43-6.07-5.43ZM376.92,371.98c-.96-1.87-2.29-3.3-4-4.29-1.71-1-3.68-1.49-5.91-1.49s-4.22.49-5.95,1.49c-1.72.99-3.06,2.42-4.03,4.29-.95,1.87-1.43,4.05-1.43,6.53s.48,4.67,1.43,6.55c.97,1.89,2.31,3.33,4.03,4.35,1.73,1.01,3.71,1.52,5.95,1.52s4.2-.51,5.91-1.52c1.71-1.02,3.04-2.46,4-4.35.96-1.88,1.45-4.07,1.45-6.55s-.49-4.66-1.45-6.53ZM446.96,367.61c-1-.94-2.51-1.41-4.54-1.41h-6.23v10.92h6.23c2.03,0,3.54-.48,4.54-1.46s1.49-2.34,1.49-4.09-.49-3.02-1.49-3.96ZM631.1,371.98c-.96-1.87-2.29-3.3-4-4.29-1.71-1-3.68-1.49-5.91-1.49s-4.22.49-5.94,1.49c-1.73.99-3.07,2.42-4.03,4.29-.95,1.87-1.43,4.05-1.43,6.53s.48,4.67,1.43,6.55c.96,1.89,2.3,3.33,4.03,4.35,1.72,1.01,3.71,1.52,5.94,1.52s4.2-.51,5.91-1.52c1.71-1.02,3.04-2.46,4-4.35.97-1.88,1.45-4.07,1.45-6.55s-.48-4.66-1.45-6.53ZM631.1,371.98c-.96-1.87-2.29-3.3-4-4.29-1.71-1-3.68-1.49-5.91-1.49s-4.22.49-5.94,1.49c-1.73.99-3.07,2.42-4.03,4.29-.95,1.87-1.43,4.05-1.43,6.53s.48,4.67,1.43,6.55c.96,1.89,2.3,3.33,4.03,4.35,1.72,1.01,3.71,1.52,5.94,1.52s4.2-.51,5.91-1.52c1.71-1.02,3.04-2.46,4-4.35.97-1.88,1.45-4.07,1.45-6.55s-.48-4.66-1.45-6.53ZM446.96,367.61c-1-.94-2.51-1.41-4.54-1.41h-6.23v10.92h6.23c2.03,0,3.54-.48,4.54-1.46s1.49-2.34,1.49-4.09-.49-3.02-1.49-3.96ZM376.92,371.98c-.96-1.87-2.29-3.3-4-4.29-1.71-1-3.68-1.49-5.91-1.49s-4.22.49-5.95,1.49c-1.72.99-3.06,2.42-4.03,4.29-.95,1.87-1.43,4.05-1.43,6.53s.48,4.67,1.43,6.55c.97,1.89,2.31,3.33,4.03,4.35,1.73,1.01,3.71,1.52,5.95,1.52s4.2-.51,5.91-1.52c1.71-1.02,3.04-2.46,4-4.35.96-1.88,1.45-4.07,1.45-6.55s-.49-4.66-1.45-6.53ZM330.71,366.1h-5.92v10.82h5.92c2.06,0,3.59-.49,4.58-1.42.99-.95,1.49-2.26,1.49-3.97,0-3.62-2.01-5.43-6.07-5.43ZM193.73,371.98c-.96-1.87-2.29-3.3-4-4.29-1.71-1-3.68-1.49-5.92-1.49s-4.22.49-5.94,1.49c-1.72.99-3.06,2.42-4.03,4.29-.95,1.87-1.43,4.05-1.43,6.53s.48,4.67,1.43,6.55c.97,1.89,2.31,3.33,4.03,4.35,1.72,1.01,3.71,1.52,5.94,1.52s4.21-.51,5.92-1.52c1.71-1.02,3.04-2.46,4-4.35.96-1.88,1.45-4.07,1.45-6.55s-.49-4.66-1.45-6.53ZM150.61,367.61c-.99-.94-2.51-1.41-4.53-1.41h-6.24v10.92h6.24c2.02,0,3.54-.48,4.53-1.46.99-.98,1.49-2.34,1.49-4.09s-.5-3.02-1.49-3.96ZM150.61,367.61c-.99-.94-2.51-1.41-4.53-1.41h-6.24v10.92h6.24c2.02,0,3.54-.48,4.53-1.46.99-.98,1.49-2.34,1.49-4.09s-.5-3.02-1.49-3.96ZM193.73,371.98c-.96-1.87-2.29-3.3-4-4.29-1.71-1-3.68-1.49-5.92-1.49s-4.22.49-5.94,1.49c-1.72.99-3.06,2.42-4.03,4.29-.95,1.87-1.43,4.05-1.43,6.53s.48,4.67,1.43,6.55c.97,1.89,2.31,3.33,4.03,4.35,1.72,1.01,3.71,1.52,5.94,1.52s4.21-.51,5.92-1.52c1.71-1.02,3.04-2.46,4-4.35.96-1.88,1.45-4.07,1.45-6.55s-.49-4.66-1.45-6.53ZM330.71,366.1h-5.92v10.82h5.92c2.06,0,3.59-.49,4.58-1.42.99-.95,1.49-2.26,1.49-3.97,0-3.62-2.01-5.43-6.07-5.43ZM376.92,371.98c-.96-1.87-2.29-3.3-4-4.29-1.71-1-3.68-1.49-5.91-1.49s-4.22.49-5.95,1.49c-1.72.99-3.06,2.42-4.03,4.29-.95,1.87-1.43,4.05-1.43,6.53s.48,4.67,1.43,6.55c.97,1.89,2.31,3.33,4.03,4.35,1.73,1.01,3.71,1.52,5.95,1.52s4.2-.51,5.91-1.52c1.71-1.02,3.04-2.46,4-4.35.96-1.88,1.45-4.07,1.45-6.55s-.49-4.66-1.45-6.53ZM446.96,367.61c-1-.94-2.51-1.41-4.54-1.41h-6.23v10.92h6.23c2.03,0,3.54-.48,4.54-1.46s1.49-2.34,1.49-4.09-.49-3.02-1.49-3.96ZM446.96,367.61c-1-.94-2.51-1.41-4.54-1.41h-6.23v10.92h6.23c2.03,0,3.54-.48,4.54-1.46s1.49-2.34,1.49-4.09-.49-3.02-1.49-3.96ZM376.92,371.98c-.96-1.87-2.29-3.3-4-4.29-1.71-1-3.68-1.49-5.91-1.49s-4.22.49-5.95,1.49c-1.72.99-3.06,2.42-4.03,4.29-.95,1.87-1.43,4.05-1.43,6.53s.48,4.67,1.43,6.55c.97,1.89,2.31,3.33,4.03,4.35,1.73,1.01,3.71,1.52,5.95,1.52s4.2-.51,5.91-1.52c1.71-1.02,3.04-2.46,4-4.35.96-1.88,1.45-4.07,1.45-6.55s-.49-4.66-1.45-6.53ZM330.71,366.1h-5.92v10.82h5.92c2.06,0,3.59-.49,4.58-1.42.99-.95,1.49-2.26,1.49-3.97,0-3.62-2.01-5.43-6.07-5.43ZM193.73,371.98c-.96-1.87-2.29-3.3-4-4.29-1.71-1-3.68-1.49-5.92-1.49s-4.22.49-5.94,1.49c-1.72.99-3.06,2.42-4.03,4.29-.95,1.87-1.43,4.05-1.43,6.53s.48,4.67,1.43,6.55c.97,1.89,2.31,3.33,4.03,4.35,1.72,1.01,3.71,1.52,5.94,1.52s4.21-.51,5.92-1.52c1.71-1.02,3.04-2.46,4-4.35.96-1.88,1.45-4.07,1.45-6.55s-.49-4.66-1.45-6.53ZM150.61,367.61c-.99-.94-2.51-1.41-4.53-1.41h-6.24v10.92h6.24c2.02,0,3.54-.48,4.53-1.46.99-.98,1.49-2.34,1.49-4.09s-.5-3.02-1.49-3.96ZM150.61,367.61c-.99-.94-2.51-1.41-4.53-1.41h-6.24v10.92h6.24c2.02,0,3.54-.48,4.53-1.46.99-.98,1.49-2.34,1.49-4.09s-.5-3.02-1.49-3.96ZM193.73,371.98c-.96-1.87-2.29-3.3-4-4.29-1.71-1-3.68-1.49-5.92-1.49s-4.22.49-5.94,1.49c-1.72.99-3.06,2.42-4.03,4.29-.95,1.87-1.43,4.05-1.43,6.53s.48,4.67,1.43,6.55c.97,1.89,2.31,3.33,4.03,4.35,1.72,1.01,3.71,1.52,5.94,1.52s4.21-.51,5.92-1.52c1.71-1.02,3.04-2.46,4-4.35.96-1.88,1.45-4.07,1.45-6.55s-.49-4.66-1.45-6.53ZM330.71,366.1h-5.92v10.82h5.92c2.06,0,3.59-.49,4.58-1.42.99-.95,1.49-2.26,1.49-3.97,0-3.62-2.01-5.43-6.07-5.43ZM376.92,371.98c-.96-1.87-2.29-3.3-4-4.29-1.71-1-3.68-1.49-5.91-1.49s-4.22.49-5.95,1.49c-1.72.99-3.06,2.42-4.03,4.29-.95,1.87-1.43,4.05-1.43,6.53s.48,4.67,1.43,6.55c.97,1.89,2.31,3.33,4.03,4.35,1.73,1.01,3.71,1.52,5.95,1.52s4.2-.51,5.91-1.52c1.71-1.02,3.04-2.46,4-4.35.96-1.88,1.45-4.07,1.45-6.55s-.49-4.66-1.45-6.53ZM446.96,367.61c-1-.94-2.51-1.41-4.54-1.41h-6.23v10.92h6.23c2.03,0,3.54-.48,4.54-1.46s1.49-2.34,1.49-4.09-.49-3.02-1.49-3.96ZM446.96,367.61c-1-.94-2.51-1.41-4.54-1.41h-6.23v10.92h6.23c2.03,0,3.54-.48,4.54-1.46s1.49-2.34,1.49-4.09-.49-3.02-1.49-3.96ZM376.92,371.98c-.96-1.87-2.29-3.3-4-4.29-1.71-1-3.68-1.49-5.91-1.49s-4.22.49-5.95,1.49c-1.72.99-3.06,2.42-4.03,4.29-.95,1.87-1.43,4.05-1.43,6.53s.48,4.67,1.43,6.55c.97,1.89,2.31,3.33,4.03,4.35,1.73,1.01,3.71,1.52,5.95,1.52s4.2-.51,5.91-1.52c1.71-1.02,3.04-2.46,4-4.35.96-1.88,1.45-4.07,1.45-6.55s-.49-4.66-1.45-6.53ZM330.71,366.1h-5.92v10.82h5.92c2.06,0,3.59-.49,4.58-1.42.99-.95,1.49-2.26,1.49-3.97,0-3.62-2.01-5.43-6.07-5.43ZM193.73,371.98c-.96-1.87-2.29-3.3-4-4.29-1.71-1-3.68-1.49-5.92-1.49s-4.22.49-5.94,1.49c-1.72.99-3.06,2.42-4.03,4.29-.95,1.87-1.43,4.05-1.43,6.53s.48,4.67,1.43,6.55c.97,1.89,2.31,3.33,4.03,4.35,1.72,1.01,3.71,1.52,5.94,1.52s4.21-.51,5.92-1.52c1.71-1.02,3.04-2.46,4-4.35.96-1.88,1.45-4.07,1.45-6.55s-.49-4.66-1.45-6.53ZM150.61,367.61c-.99-.94-2.51-1.41-4.53-1.41h-6.24v10.92h6.24c2.02,0,3.54-.48,4.53-1.46.99-.98,1.49-2.34,1.49-4.09s-.5-3.02-1.49-3.96ZM150.61,367.61c-.99-.94-2.51-1.41-4.53-1.41h-6.24v10.92h6.24c2.02,0,3.54-.48,4.53-1.46.99-.98,1.49-2.34,1.49-4.09s-.5-3.02-1.49-3.96ZM193.73,371.98c-.96-1.87-2.29-3.3-4-4.29-1.71-1-3.68-1.49-5.92-1.49s-4.22.49-5.94,1.49c-1.72.99-3.06,2.42-4.03,4.29-.95,1.87-1.43,4.05-1.43,6.53s.48,4.67,1.43,6.55c.97,1.89,2.31,3.33,4.03,4.35,1.72,1.01,3.71,1.52,5.94,1.52s4.21-.51,5.92-1.52c1.71-1.02,3.04-2.46,4-4.35.96-1.88,1.45-4.07,1.45-6.55s-.49-4.66-1.45-6.53ZM330.71,366.1h-5.92v10.82h5.92c2.06,0,3.59-.49,4.58-1.42.99-.95,1.49-2.26,1.49-3.97,0-3.62-2.01-5.43-6.07-5.43ZM376.92,371.98c-.96-1.87-2.29-3.3-4-4.29-1.71-1-3.68-1.49-5.91-1.49s-4.22.49-5.95,1.49c-1.72.99-3.06,2.42-4.03,4.29-.95,1.87-1.43,4.05-1.43,6.53s.48,4.67,1.43,6.55c.97,1.89,2.31,3.33,4.03,4.35,1.73,1.01,3.71,1.52,5.95,1.52s4.2-.51,5.91-1.52c1.71-1.02,3.04-2.46,4-4.35.96-1.88,1.45-4.07,1.45-6.55s-.49-4.66-1.45-6.53ZM376.92,371.98c-.96-1.87-2.29-3.3-4-4.29-1.71-1-3.68-1.49-5.91-1.49s-4.22.49-5.95,1.49c-1.72.99-3.06,2.42-4.03,4.29-.95,1.87-1.43,4.05-1.43,6.53s.48,4.67,1.43,6.55c.97,1.89,2.31,3.33,4.03,4.35,1.73,1.01,3.71,1.52,5.95,1.52s4.2-.51,5.91-1.52c1.71-1.02,3.04-2.46,4-4.35.96-1.88,1.45-4.07,1.45-6.55s-.49-4.66-1.45-6.53ZM330.71,366.1h-5.92v10.82h5.92c2.06,0,3.59-.49,4.58-1.42.99-.95,1.49-2.26,1.49-3.97,0-3.62-2.01-5.43-6.07-5.43ZM193.73,371.98c-.96-1.87-2.29-3.3-4-4.29-1.71-1-3.68-1.49-5.92-1.49s-4.22.49-5.94,1.49c-1.72.99-3.06,2.42-4.03,4.29-.95,1.87-1.43,4.05-1.43,6.53s.48,4.67,1.43,6.55c.97,1.89,2.31,3.33,4.03,4.35,1.72,1.01,3.71,1.52,5.94,1.52s4.21-.51,5.92-1.52c1.71-1.02,3.04-2.46,4-4.35.96-1.88,1.45-4.07,1.45-6.55s-.49-4.66-1.45-6.53ZM150.61,367.61c-.99-.94-2.51-1.41-4.53-1.41h-6.24v10.92h6.24c2.02,0,3.54-.48,4.53-1.46.99-.98,1.49-2.34,1.49-4.09s-.5-3.02-1.49-3.96ZM150.61,367.61c-.99-.94-2.51-1.41-4.53-1.41h-6.24v10.92h6.24c2.02,0,3.54-.48,4.53-1.46.99-.98,1.49-2.34,1.49-4.09s-.5-3.02-1.49-3.96ZM193.73,371.98c-.96-1.87-2.29-3.3-4-4.29-1.71-1-3.68-1.49-5.92-1.49s-4.22.49-5.94,1.49c-1.72.99-3.06,2.42-4.03,4.29-.95,1.87-1.43,4.05-1.43,6.53s.48,4.67,1.43,6.55c.97,1.89,2.31,3.33,4.03,4.35,1.72,1.01,3.71,1.52,5.94,1.52s4.21-.51,5.92-1.52c1.71-1.02,3.04-2.46,4-4.35.96-1.88,1.45-4.07,1.45-6.55s-.49-4.66-1.45-6.53ZM330.71,366.1h-5.92v10.82h5.92c2.06,0,3.59-.49,4.58-1.42.99-.95,1.49-2.26,1.49-3.97,0-3.62-2.01-5.43-6.07-5.43ZM330.71,366.1h-5.92v10.82h5.92c2.06,0,3.59-.49,4.58-1.42.99-.95,1.49-2.26,1.49-3.97,0-3.62-2.01-5.43-6.07-5.43ZM193.73,371.98c-.96-1.87-2.29-3.3-4-4.29-1.71-1-3.68-1.49-5.92-1.49s-4.22.49-5.94,1.49c-1.72.99-3.06,2.42-4.03,4.29-.95,1.87-1.43,4.05-1.43,6.53s.48,4.67,1.43,6.55c.97,1.89,2.31,3.33,4.03,4.35,1.72,1.01,3.71,1.52,5.94,1.52s4.21-.51,5.92-1.52c1.71-1.02,3.04-2.46,4-4.35.96-1.88,1.45-4.07,1.45-6.55s-.49-4.66-1.45-6.53ZM150.61,367.61c-.99-.94-2.51-1.41-4.53-1.41h-6.24v10.92h6.24c2.02,0,3.54-.48,4.53-1.46.99-.98,1.49-2.34,1.49-4.09s-.5-3.02-1.49-3.96ZM150.61,367.61c-.99-.94-2.51-1.41-4.53-1.41h-6.24v10.92h6.24c2.02,0,3.54-.48,4.53-1.46.99-.98,1.49-2.34,1.49-4.09s-.5-3.02-1.49-3.96ZM193.73,371.98c-.96-1.87-2.29-3.3-4-4.29-1.71-1-3.68-1.49-5.92-1.49s-4.22.49-5.94,1.49c-1.72.99-3.06,2.42-4.03,4.29-.95,1.87-1.43,4.05-1.43,6.53s.48,4.67,1.43,6.55c.97,1.89,2.31,3.33,4.03,4.35,1.72,1.01,3.71,1.52,5.94,1.52s4.21-.51,5.92-1.52c1.71-1.02,3.04-2.46,4-4.35.96-1.88,1.45-4.07,1.45-6.55s-.49-4.66-1.45-6.53ZM193.73,371.98c-.96-1.87-2.29-3.3-4-4.29-1.71-1-3.68-1.49-5.92-1.49s-4.22.49-5.94,1.49c-1.72.99-3.06,2.42-4.03,4.29-.95,1.87-1.43,4.05-1.43,6.53s.48,4.67,1.43,6.55c.97,1.89,2.31,3.33,4.03,4.35,1.72,1.01,3.71,1.52,5.94,1.52s4.21-.51,5.92-1.52c1.71-1.02,3.04-2.46,4-4.35.96-1.88,1.45-4.07,1.45-6.55s-.49-4.66-1.45-6.53ZM150.61,367.61c-.99-.94-2.51-1.41-4.53-1.41h-6.24v10.92h6.24c2.02,0,3.54-.48,4.53-1.46.99-.98,1.49-2.34,1.49-4.09s-.5-3.02-1.49-3.96ZM150.61,367.61c-.99-.94-2.51-1.41-4.53-1.41h-6.24v10.92h6.24c2.02,0,3.54-.48,4.53-1.46.99-.98,1.49-2.34,1.49-4.09s-.5-3.02-1.49-3.96ZM193.73,371.98c-.96-1.87-2.29-3.3-4-4.29-1.71-1-3.68-1.49-5.92-1.49s-4.22.49-5.94,1.49c-1.72.99-3.06,2.42-4.03,4.29-.95,1.87-1.43,4.05-1.43,6.53s.48,4.67,1.43,6.55c.97,1.89,2.31,3.33,4.03,4.35,1.72,1.01,3.71,1.52,5.94,1.52s4.21-.51,5.92-1.52c1.71-1.02,3.04-2.46,4-4.35.96-1.88,1.45-4.07,1.45-6.55s-.49-4.66-1.45-6.53ZM193.73,371.98c-.96-1.87-2.29-3.3-4-4.29-1.71-1-3.68-1.49-5.92-1.49s-4.22.49-5.94,1.49c-1.72.99-3.06,2.42-4.03,4.29-.95,1.87-1.43,4.05-1.43,6.53s.48,4.67,1.43,6.55c.97,1.89,2.31,3.33,4.03,4.35,1.72,1.01,3.71,1.52,5.94,1.52s4.21-.51,5.92-1.52c1.71-1.02,3.04-2.46,4-4.35.96-1.88,1.45-4.07,1.45-6.55s-.49-4.66-1.45-6.53ZM150.61,367.61c-.99-.94-2.51-1.41-4.53-1.41h-6.24v10.92h6.24c2.02,0,3.54-.48,4.53-1.46.99-.98,1.49-2.34,1.49-4.09s-.5-3.02-1.49-3.96Z"/>
  <path class="cls-1" d="M637.69,368.72c-1.69-2.89-3.99-5.15-6.88-6.79-2.9-1.63-6.1-2.45-9.62-2.45s-6.69.82-9.59,2.45c-2.92,1.64-5.23,3.9-6.94,6.79-1.69,2.91-2.55,6.17-2.55,9.79s.86,6.93,2.55,9.84c1.71,2.89,4.02,5.15,6.94,6.79,2.9,1.63,6.1,2.45,9.59,2.45s6.67-.82,9.59-2.45c2.92-1.64,5.22-3.9,6.91-6.79,1.68-2.91,2.53-6.18,2.53-9.84s-.85-6.88-2.53-9.79ZM631.1,385.06c-.96,1.89-2.29,3.33-4,4.35-1.71,1.01-3.68,1.52-5.91,1.52s-4.22-.51-5.94-1.52c-1.73-1.02-3.07-2.46-4.03-4.35-.95-1.88-1.43-4.07-1.43-6.55s.48-4.66,1.43-6.53c.96-1.87,2.3-3.3,4.03-4.29,1.72-1,3.71-1.49,5.94-1.49s4.2.49,5.91,1.49c1.71.99,3.04,2.42,4,4.29.97,1.87,1.45,4.05,1.45,6.53s-.48,4.67-1.45,6.55Z"/>
  <path class="cls-1" d="M595.23,360.01v26.12c0,3.62-1.05,6.44-3.14,8.45-2.1,2-4.91,3.01-8.43,3.01s-6.42-1.04-8.6-3.09c-2.19-2.06-3.28-4.94-3.28-8.63h7.46c.04,1.59.42,2.84,1.15,3.73.73.88,1.78,1.33,3.17,1.33s2.38-.44,3.1-1.28c.7-.85,1.05-2.03,1.05-3.52v-26.12h7.52Z"/>
  <path class="cls-1" d="M554.4,386.45c0,1.99-.51,3.84-1.55,5.55-1.02,1.71-2.54,3.07-4.52,4.07-1.99,1.01-4.35,1.52-7.08,1.52s-4.94-.45-7.01-1.33c-2.09-.89-3.73-2.17-4.94-3.84-1.21-1.66-1.82-3.65-1.87-5.91h8c.11,1.52.65,2.73,1.63,3.62.97.89,2.32,1.33,4.03,1.33s3.11-.42,4.1-1.26c.99-.83,1.49-1.92,1.49-3.27,0-1.11-.34-2.01-1.01-2.71-.69-.72-1.52-1.27-2.54-1.68-1.01-.41-2.41-.86-4.18-1.36-2.42-.72-4.38-1.42-5.9-2.1-1.5-.7-2.8-1.76-3.88-3.16s-1.64-3.27-1.64-5.62c0-2.2.56-4.12,1.67-5.75,1.09-1.64,2.64-2.89,4.63-3.77,2-.86,4.26-1.3,6.82-1.3,3.84,0,6.96.94,9.36,2.81,2.41,1.85,3.72,4.46,3.97,7.79h-8.21c-.07-1.27-.61-2.33-1.62-3.17-1.02-.83-2.36-1.25-4.03-1.25-1.46,0-2.61.38-3.49,1.12-.87.75-1.31,1.83-1.31,3.26,0,.99.33,1.81.99,2.47.66.67,1.48,1.19,2.45,1.6.98.41,2.35.88,4.14,1.42,2.41.71,4.38,1.42,5.91,2.13,1.53.7,2.85,1.77,3.94,3.2,1.1,1.41,1.65,3.28,1.65,5.59Z"/>
  <polygon class="cls-1" points="507.5 366.04 507.5 375.37 520.03 375.37 520.03 381.28 507.5 381.28 507.5 391.14 521.64 391.14 521.64 397.21 500.04 397.21 500.04 359.96 521.64 359.96 521.64 366.04 507.5 366.04"/>
  <polygon class="cls-1" points="495.3 391.3 495.3 397.21 475.58 397.21 475.58 360.01 483.04 360.01 483.04 391.3 495.3 391.3"/>
  <path class="cls-1" d="M447.65,382.13c2.8-.75,4.92-2.1,6.34-4.08,1.43-1.97,2.14-4.17,2.14-6.64,0-2.12-.51-4.04-1.52-5.77-1.02-1.72-2.54-3.09-4.57-4.11-2.01-1.01-4.46-1.52-7.35-1.52h-13.96v37.2h7.46v-14.5h3.52l8.2,14.5h8.65l-8.91-15.08ZM442.42,377.12h-6.23v-10.92h6.23c2.03,0,3.54.47,4.54,1.41s1.49,2.27,1.49,3.96-.49,3.11-1.49,4.09-2.51,1.46-4.54,1.46Z"/>
  <path class="cls-1" d="M421.53,360.01v22.98c0,3.15-.69,5.83-2.05,8.02-1.37,2.19-3.19,3.82-5.49,4.93-2.29,1.1-4.84,1.65-7.65,1.65s-5.28-.55-7.55-1.65c-2.25-1.11-4.03-2.74-5.34-4.93s-1.99-4.87-1.99-8.02v-22.98h7.48v23.02c0,2.53.66,4.46,1.97,5.79,1.31,1.34,3.15,2,5.53,2s4.28-.66,5.6-2c1.31-1.33,1.98-3.26,1.98-5.79v-23.02h7.51Z"/>
  <path class="cls-1" d="M383.51,368.72c-1.7-2.89-3.99-5.15-6.88-6.79-2.91-1.63-6.11-2.45-9.62-2.45s-6.69.82-9.6,2.45c-2.92,1.64-5.22,3.9-6.93,6.79-1.7,2.91-2.56,6.17-2.56,9.79s.86,6.93,2.56,9.84c1.71,2.89,4.01,5.15,6.93,6.79,2.91,1.63,6.11,2.45,9.6,2.45s6.67-.82,9.59-2.45c2.92-1.64,5.21-3.9,6.91-6.79,1.67-2.91,2.52-6.18,2.52-9.84s-.85-6.88-2.52-9.79ZM376.92,385.06c-.96,1.89-2.29,3.33-4,4.35-1.71,1.01-3.68,1.52-5.91,1.52s-4.22-.51-5.95-1.52c-1.72-1.02-3.06-2.46-4.03-4.35-.95-1.88-1.43-4.07-1.43-6.55s.48-4.66,1.43-6.53c.97-1.87,2.31-3.3,4.03-4.29,1.73-1,3.71-1.49,5.95-1.49s4.2.49,5.91,1.49c1.71.99,3.04,2.42,4,4.29.96,1.87,1.45,4.05,1.45,6.53s-.49,4.67-1.45,6.55Z"/>
  <path class="cls-1" d="M342.94,365.61c-1.01-1.73-2.52-3.11-4.55-4.1-2.03-.99-4.49-1.5-7.36-1.5h-13.7v37.2h7.46v-14.28h6.24c3.05,0,5.59-.52,7.59-1.59,2.02-1.07,3.49-2.47,4.42-4.22.95-1.74,1.42-3.61,1.42-5.59,0-2.21-.51-4.18-1.52-5.92ZM335.29,375.5c-.99.93-2.52,1.42-4.58,1.42h-5.92v-10.82h5.92c4.06,0,6.07,1.81,6.07,5.43,0,1.71-.5,3.02-1.49,3.97Z"/>
  <polygon class="cls-1" points="283.75 366.04 283.75 375.37 296.28 375.37 296.28 381.28 283.75 381.28 283.75 391.14 297.88 391.14 297.88 397.21 276.29 397.21 276.29 359.96 297.88 359.96 297.88 366.04 283.75 366.04"/>
  <polygon class="cls-1" points="270.85 360.01 270.85 366.04 260.94 366.04 260.94 397.21 253.48 397.21 253.48 366.04 243.56 366.04 243.56 360.01 270.85 360.01"/>
  <path class="cls-1" d="M238.34,360.01v22.98c0,3.15-.69,5.83-2.05,8.02-1.37,2.19-3.2,3.82-5.49,4.93-2.29,1.1-4.85,1.65-7.65,1.65s-5.28-.55-7.55-1.65c-2.25-1.11-4.04-2.74-5.36-4.93-1.31-2.19-1.97-4.87-1.97-8.02v-22.98h7.48v23.02c0,2.53.64,4.46,1.95,5.79,1.32,1.34,3.17,2,5.55,2s4.28-.66,5.6-2c1.31-1.33,1.97-3.26,1.97-5.79v-23.02h7.52Z"/>
  <path class="cls-1" d="M200.31,368.72c-1.69-2.89-3.98-5.15-6.87-6.79-2.91-1.63-6.11-2.45-9.63-2.45s-6.68.82-9.59,2.45c-2.92,1.64-5.23,3.9-6.93,6.79-1.7,2.91-2.56,6.17-2.56,9.79s.86,6.93,2.56,9.84c1.7,2.89,4.01,5.15,6.93,6.79,2.91,1.63,6.1,2.45,9.59,2.45s6.68-.82,9.6-2.45c2.92-1.64,5.21-3.9,6.9-6.79,1.68-2.91,2.53-6.18,2.53-9.84s-.85-6.88-2.53-9.79ZM193.73,385.06c-.96,1.89-2.29,3.33-4,4.35-1.71,1.01-3.68,1.52-5.92,1.52s-4.22-.51-5.94-1.52c-1.72-1.02-3.06-2.46-4.03-4.35-.95-1.88-1.43-4.07-1.43-6.55s.48-4.66,1.43-6.53c.97-1.87,2.31-3.3,4.03-4.29,1.72-1,3.71-1.49,5.94-1.49s4.21.49,5.92,1.49c1.71.99,3.04,2.42,4,4.29.96,1.87,1.45,4.05,1.45,6.53s-.49,4.67-1.45,6.55Z"/>
  <path class="cls-1" d="M151.3,382.13c2.8-.75,4.92-2.1,6.35-4.08,1.42-1.97,2.13-4.17,2.13-6.64,0-2.12-.51-4.04-1.52-5.77-1.02-1.72-2.54-3.09-4.55-4.11-2.03-1.01-4.49-1.52-7.36-1.52h-13.98v37.2h7.47v-14.5h3.51l8.23,14.5h8.62l-8.9-15.08ZM146.08,377.12h-6.24v-10.92h6.24c2.02,0,3.54.47,4.53,1.41.99.94,1.49,2.27,1.49,3.96s-.5,3.11-1.49,4.09c-.99.98-2.51,1.46-4.53,1.46Z"/>
  <polygon class="cls-1" points="112.34 359.96 112.34 397.21 104.88 397.21 87.98 371.69 87.98 397.21 80.52 397.21 80.52 359.96 87.98 359.96 104.88 385.55 104.88 359.96 112.34 359.96"/>
  <polygon class="cls-1" points="59.63 366.04 59.63 375.37 72.16 375.37 72.16 381.28 59.63 381.28 59.63 391.14 73.75 391.14 73.75 397.21 52.17 397.21 52.17 359.96 73.75 359.96 73.75 366.04 59.63 366.04"/>
  <path class="cls-1" d="M668.28,32.28s-18.17-.54-19.33-2.08c-1.16-1.54-10.62-15.3-10.62-15.3l-2.5,19.88s-21.84,5.98-22.61,5.6c-.77-.38,16.46,10.19,16.46,10.19l4.12,21.59s8.93-16.89,8.83-17.17c-.1-.29,16.36,12.29,16.26,9.64-.32-8.59-3.79-19.53-3.02-20.2.77-.68,12.41-12.15,12.41-12.15Z"/>
  <polygon class="cls-1" points="326.16 315.04 302.2 314.64 303.43 207.19 302.72 209.85 284.12 315.15 259.77 315.13 259.07 312.69 254.93 295.71 249.31 267.53 243.81 243.94 238.56 211.12 238.88 233.62 239.24 311.62 235.47 315.77 219.07 313.68 214.97 311.51 216.01 222.53 216.02 184.33 219.39 180.25 250.36 182.48 253.07 184.93 263.34 237.16 269.96 273.25 271.37 276.22 272.68 262.19 279.99 222.67 285.53 184.68 289.62 181.92 324.88 182.48 326.16 315.04"/>
  <polygon class="cls-1" points="136.83 179.14 135.17 314.09 115.59 313.8 87.71 314.22 84.5 311.99 65.93 167.46 51.76 46.85 49.81 44.56 48.57 47.88 53.56 314.73 52.76 314.99 25.44 316.38 22.69 314.56 21.94 313.21 21.21 14.63 26.65 12.39 72.69 12.42 76.3 16.05 88.66 118.97 106.48 283.81 107.65 285.86 109.66 285.86 109.15 180.65 136.83 179.14"/>
  <path class="cls-1" d="M604.79,307.06l.59-28.94-1.49-13.86-13.05-15.25-3.57-2.74,1.07-1.46,14.91-15.37.27-25.97-11.82-16.24-22.52-6.17-42.92.82-4.53,2.68-.05,127.15-.64,2.39,2.77,1.4,25.99-.82-.75-2.85-.1-51.87,3.78-2.97,11.39,1.98,10.65,6,1.76,11.06.96,27.19,1.49,10.83,28.49,1.75-2.66-8.73ZM574.76,229.1l-11.66,8.62-13.15.93-.11-2.39.32-33.3,3.14-3.2,11.13.93,11.29,8.67-.96,19.74Z"/>
  <polygon class="cls-1" points="513.89 236.16 512.51 286.13 505.73 306.11 486.7 316.14 448.51 314.27 429.41 295.01 426.75 279.87 425.65 184.84 431.8 181.56 451.36 180.87 455.03 184.37 456.39 227.31 455.49 286.92 463.15 295.81 484.14 287.41 486.16 282.6 485.54 184.51 490.11 180.72 509.97 180.4 512.8 183.83 513.23 236.16 513.89 236.16"/>
  <polygon class="cls-1" points="176.32 254.74 176.27 293.73 178.28 296.68 195.11 295.8 203.98 296.88 206.21 296.75 205.24 314.38 202.94 314.79 150.59 314.27 146.24 312.23 147 183.61 150.38 180.15 200.65 181.75 204.63 181.03 204.19 206.16 200.11 204.76 178.46 206.07 175.22 208.47 176.45 235.2 178.77 235.22 195.06 235.61 199.45 238.21 198.43 252.24 195.36 254.17 178.78 253.85 176.32 254.74"/>
  <polygon class="cls-2" points="316.9 18.12 318.3 16.1 343.63 16.77 350.15 17.69 369.3 66.62 372.26 69.08 376.74 67.51 398.43 18.13 405.11 15.41 430.21 14.07 432.85 15.05 412.57 57.74 394.11 100.19 393.06 110.95 391.39 183.78 391.03 188.01 356.83 186.91 360.1 182.5 360.1 118.27 347.95 83.34 315.79 21.26 316.9 18.12"/>
  <path class="cls-2" d="M418.51,215.42l-3.25-14.5-26.31-19.04-23.59-2.21-28.01,15.02-4.74,20.14,1.65,66.2,2.13,16.07,17.89,16.19,36,1.98,23.96-19.5,3.62-16.24-1.01-31.44,1.65-32.66ZM387.73,291.69l-12.14,5.24-12.25-5.41-3.25-7.28.69-72.72,1.33-6.64,14.59-6.52,13.26,7.39-.16,7.98,1.17,34.47.05,35.46-3.3,8.03Z"/>
  <polygon class="cls-2" points="204.9 40.25 183.95 66.78 178.14 76.24 215.83 164.79 214.98 165.79 210.98 167.46 185.88 167.25 180.59 163.97 156.74 101.33 154.66 101.2 152.57 102.78 142.45 117.77 141.63 121.91 143.79 162.77 143.73 166.72 139.68 166.15 110.81 166.42 109.19 164.24 109.07 162.52 106.48 16.85 112.74 13.21 138.03 13.17 141.46 13.27 140.6 63.69 142.81 68.31 147.07 67.69 186 15.45 192.5 12.18 220.07 13.28 223.29 14.78 204.9 40.25"/>
  <path class="cls-2" d="M341.47,163.94l-9.54-36.16-10.74-37.58-9.88-37.53-9.76-34.54-2.66-2.04-43.82-.79-3.31,1.58-2.45,10.21-8.97,43.46-8.85,42.78-9.87,44.11-2.39,10.26,28.96-1.24,1.9-2.34,7.05-24.99,2.6-2.19,33.19-1.1,10.06,3.81,7.87,24.85,4.99,1.02,11.13,3.38,14.98-2.96-.49-2ZM295.7,116.24l-35.97.72,10.1-57.25,5.88-7.67,6.36,4.18,17.15,58.1-3.52,1.92Z"/>
  <path class="cls-2" d="M627.42,143.33l-11.65-54.55-13.45-73-4.5-1.73-38.5-1.67-5.71,2.71-2.48,18.62-11.47,44.51-7.15,43.02-9.42,38.71.61,5.86,24.15,1.45,6.34-3.11,3.52-24.85,4.32-.92,25.78-.81,11.99,6.17,26.64,170.56.98,1.5,31.66.4-31.66-172.87ZM590.63,116.4l-27.18-.44-1.57-4.01,10.85-58.72,3.09-3.8,6.6,3.14,5.89,33.27,5.42,27.91-3.11,2.65Z"/>
  <polygon class="cls-2" points="466.97 15.97 467.14 139.86 473.52 142.72 512.75 144.78 517 146.58 516.69 163 513.62 166.83 439.8 166.66 435.15 162.49 435.17 70.11 436.36 15.44 440.89 13.14 464.49 11.8 466.97 15.97"/>
  <polygon class="cls-2" points="485.13 14.02 488.13 12.53 513.6 12.4 516.75 25.67 515.36 114.11 514.32 122.72 492.2 124.13 485.01 122.75 484.64 115.68 484.64 18.12 485.13 14.02"/>
</svg>