<?xml version="1.0" encoding="UTF-8"?>
<svg id="Calque_6" data-name="Calque 6" xmlns="http://www.w3.org/2000/svg" viewBox="0 0 171.63 117.75">
  <defs>
    <style>
      .cls-1 {
        fill: #386f9c;
      }

      .cls-1, .cls-2 {
        stroke-width: 0px;
      }

      .cls-2 {
        fill: #de9a93;
      }
    </style>
  </defs>
  <path class="cls-2" d="M42.21,95c-.24-.22-.59-.33-1.06-.33h-1.45v2.54h1.45c.47,0,.82-.11,1.06-.34.23-.22.34-.54.34-.95s-.11-.7-.34-.92ZM42.21,95c-.24-.22-.59-.33-1.06-.33h-1.45v2.54h1.45c.47,0,.82-.11,1.06-.34.23-.22.34-.54.34-.95s-.11-.7-.34-.92ZM42.21,95c-.24-.22-.59-.33-1.06-.33h-1.45v2.54h1.45c.47,0,.82-.11,1.06-.34.23-.22.34-.54.34-.95s-.11-.7-.34-.92ZM52.25,96.02c-.22-.44-.53-.77-.93-1-.4-.23-.86-.35-1.38-.35s-.98.12-1.38.35c-.4.23-.72.56-.94,1-.22.43-.33.94-.33,1.52s.11,1.09.33,1.53c.22.43.54.77.94,1.01.4.23.86.35,1.38.35s.98-.12,1.38-.35c.4-.24.71-.58.93-1.01.23-.44.34-.95.34-1.53s-.11-1.09-.34-1.52ZM52.25,96.02c-.22-.44-.53-.77-.93-1-.4-.23-.86-.35-1.38-.35s-.98.12-1.38.35c-.4.23-.72.56-.94,1-.22.43-.33.94-.33,1.52s.11,1.09.33,1.53c.22.43.54.77.94,1.01.4.23.86.35,1.38.35s.98-.12,1.38-.35c.4-.24.71-.58.93-1.01.23-.44.34-.95.34-1.53s-.11-1.09-.34-1.52ZM42.21,95c-.24-.22-.59-.33-1.06-.33h-1.45v2.54h1.45c.47,0,.82-.11,1.06-.34.23-.22.34-.54.34-.95s-.11-.7-.34-.92ZM42.21,95c-.24-.22-.59-.33-1.06-.33h-1.45v2.54h1.45c.47,0,.82-.11,1.06-.34.23-.22.34-.54.34-.95s-.11-.7-.34-.92ZM52.25,96.02c-.22-.44-.53-.77-.93-1-.4-.23-.86-.35-1.38-.35s-.98.12-1.38.35c-.4.23-.72.56-.94,1-.22.43-.33.94-.33,1.52s.11,1.09.33,1.53c.22.43.54.77.94,1.01.4.23.86.35,1.38.35s.98-.12,1.38-.35c.4-.24.71-.58.93-1.01.23-.44.34-.95.34-1.53s-.11-1.09-.34-1.52ZM52.25,96.02c-.22-.44-.53-.77-.93-1-.4-.23-.86-.35-1.38-.35s-.98.12-1.38.35c-.4.23-.72.56-.94,1-.22.43-.33.94-.33,1.52s.11,1.09.33,1.53c.22.43.54.77.94,1.01.4.23.86.35,1.38.35s.98-.12,1.38-.35c.4-.24.71-.58.93-1.01.23-.44.34-.95.34-1.53s-.11-1.09-.34-1.52ZM42.21,95c-.24-.22-.59-.33-1.06-.33h-1.45v2.54h1.45c.47,0,.82-.11,1.06-.34.23-.22.34-.54.34-.95s-.11-.7-.34-.92ZM42.21,95c-.24-.22-.59-.33-1.06-.33h-1.45v2.54h1.45c.47,0,.82-.11,1.06-.34.23-.22.34-.54.34-.95s-.11-.7-.34-.92ZM52.25,96.02c-.22-.44-.53-.77-.93-1-.4-.23-.86-.35-1.38-.35s-.98.12-1.38.35c-.4.23-.72.56-.94,1-.22.43-.33.94-.33,1.52s.11,1.09.33,1.53c.22.43.54.77.94,1.01.4.23.86.35,1.38.35s.98-.12,1.38-.35c.4-.24.71-.58.93-1.01.23-.44.34-.95.34-1.53s-.11-1.09-.34-1.52ZM84.17,94.65h-1.38v2.52h1.38c.48,0,.84-.12,1.07-.33.23-.22.35-.53.35-.93,0-.84-.47-1.26-1.42-1.26ZM94.94,96.02c-.23-.44-.54-.77-.93-1-.4-.23-.86-.35-1.38-.35s-.98.12-1.39.35c-.4.23-.71.56-.94,1-.22.43-.33.94-.33,1.52s.11,1.09.33,1.53c.23.43.54.77.94,1.01.41.23.87.35,1.39.35s.98-.12,1.38-.35c.39-.24.7-.58.93-1.01.22-.44.34-.95.34-1.53s-.12-1.09-.34-1.52ZM94.94,96.02c-.23-.44-.54-.77-.93-1-.4-.23-.86-.35-1.38-.35s-.98.12-1.39.35c-.4.23-.71.56-.94,1-.22.43-.33.94-.33,1.52s.11,1.09.33,1.53c.23.43.54.77.94,1.01.41.23.87.35,1.39.35s.98-.12,1.38-.35c.39-.24.7-.58.93-1.01.22-.44.34-.95.34-1.53s-.12-1.09-.34-1.52ZM84.17,94.65h-1.38v2.52h1.38c.48,0,.84-.12,1.07-.33.23-.22.35-.53.35-.93,0-.84-.47-1.26-1.42-1.26ZM52.25,96.02c-.22-.44-.53-.77-.93-1-.4-.23-.86-.35-1.38-.35s-.98.12-1.38.35c-.4.23-.72.56-.94,1-.22.43-.33.94-.33,1.52s.11,1.09.33,1.53c.22.43.54.77.94,1.01.4.23.86.35,1.38.35s.98-.12,1.38-.35c.4-.24.71-.58.93-1.01.23-.44.34-.95.34-1.53s-.11-1.09-.34-1.52ZM42.21,95c-.24-.22-.59-.33-1.06-.33h-1.45v2.54h1.45c.47,0,.82-.11,1.06-.34.23-.22.34-.54.34-.95s-.11-.7-.34-.92ZM42.21,95c-.24-.22-.59-.33-1.06-.33h-1.45v2.54h1.45c.47,0,.82-.11,1.06-.34.23-.22.34-.54.34-.95s-.11-.7-.34-.92ZM52.25,96.02c-.22-.44-.53-.77-.93-1-.4-.23-.86-.35-1.38-.35s-.98.12-1.38.35c-.4.23-.72.56-.94,1-.22.43-.33.94-.33,1.52s.11,1.09.33,1.53c.22.43.54.77.94,1.01.4.23.86.35,1.38.35s.98-.12,1.38-.35c.4-.24.71-.58.93-1.01.23-.44.34-.95.34-1.53s-.11-1.09-.34-1.52ZM84.17,94.65h-1.38v2.52h1.38c.48,0,.84-.12,1.07-.33.23-.22.35-.53.35-.93,0-.84-.47-1.26-1.42-1.26ZM94.94,96.02c-.23-.44-.54-.77-.93-1-.4-.23-.86-.35-1.38-.35s-.98.12-1.39.35c-.4.23-.71.56-.94,1-.22.43-.33.94-.33,1.52s.11,1.09.33,1.53c.23.43.54.77.94,1.01.41.23.87.35,1.39.35s.98-.12,1.38-.35c.39-.24.7-.58.93-1.01.22-.44.34-.95.34-1.53s-.12-1.09-.34-1.52ZM111.26,95c-.24-.22-.59-.33-1.06-.33h-1.45v2.54h1.45c.47,0,.82-.11,1.06-.34.23-.22.35-.54.35-.95s-.12-.7-.35-.92ZM111.26,95c-.24-.22-.59-.33-1.06-.33h-1.45v2.54h1.45c.47,0,.82-.11,1.06-.34.23-.22.35-.54.35-.95s-.12-.7-.35-.92ZM94.94,96.02c-.23-.44-.54-.77-.93-1-.4-.23-.86-.35-1.38-.35s-.98.12-1.39.35c-.4.23-.71.56-.94,1-.22.43-.33.94-.33,1.52s.11,1.09.33,1.53c.23.43.54.77.94,1.01.41.23.87.35,1.39.35s.98-.12,1.38-.35c.39-.24.7-.58.93-1.01.22-.44.34-.95.34-1.53s-.12-1.09-.34-1.52ZM84.17,94.65h-1.38v2.52h1.38c.48,0,.84-.12,1.07-.33.23-.22.35-.53.35-.93,0-.84-.47-1.26-1.42-1.26ZM52.25,96.02c-.22-.44-.53-.77-.93-1-.4-.23-.86-.35-1.38-.35s-.98.12-1.38.35c-.4.23-.72.56-.94,1-.22.43-.33.94-.33,1.52s.11,1.09.33,1.53c.22.43.54.77.94,1.01.4.23.86.35,1.38.35s.98-.12,1.38-.35c.4-.24.71-.58.93-1.01.23-.44.34-.95.34-1.53s-.11-1.09-.34-1.52ZM42.21,95c-.24-.22-.59-.33-1.06-.33h-1.45v2.54h1.45c.47,0,.82-.11,1.06-.34.23-.22.34-.54.34-.95s-.11-.7-.34-.92ZM42.21,95c-.24-.22-.59-.33-1.06-.33h-1.45v2.54h1.45c.47,0,.82-.11,1.06-.34.23-.22.34-.54.34-.95s-.11-.7-.34-.92ZM52.25,96.02c-.22-.44-.53-.77-.93-1-.4-.23-.86-.35-1.38-.35s-.98.12-1.38.35c-.4.23-.72.56-.94,1-.22.43-.33.94-.33,1.52s.11,1.09.33,1.53c.22.43.54.77.94,1.01.4.23.86.35,1.38.35s.98-.12,1.38-.35c.4-.24.71-.58.93-1.01.23-.44.34-.95.34-1.53s-.11-1.09-.34-1.52ZM84.17,94.65h-1.38v2.52h1.38c.48,0,.84-.12,1.07-.33.23-.22.35-.53.35-.93,0-.84-.47-1.26-1.42-1.26ZM94.94,96.02c-.23-.44-.54-.77-.93-1-.4-.23-.86-.35-1.38-.35s-.98.12-1.39.35c-.4.23-.71.56-.94,1-.22.43-.33.94-.33,1.52s.11,1.09.33,1.53c.23.43.54.77.94,1.01.41.23.87.35,1.39.35s.98-.12,1.38-.35c.39-.24.7-.58.93-1.01.22-.44.34-.95.34-1.53s-.12-1.09-.34-1.52ZM111.26,95c-.24-.22-.59-.33-1.06-.33h-1.45v2.54h1.45c.47,0,.82-.11,1.06-.34.23-.22.35-.54.35-.95s-.12-.7-.35-.92ZM111.26,95c-.24-.22-.59-.33-1.06-.33h-1.45v2.54h1.45c.47,0,.82-.11,1.06-.34.23-.22.35-.54.35-.95s-.12-.7-.35-.92ZM94.94,96.02c-.23-.44-.54-.77-.93-1-.4-.23-.86-.35-1.38-.35s-.98.12-1.39.35c-.4.23-.71.56-.94,1-.22.43-.33.94-.33,1.52s.11,1.09.33,1.53c.23.43.54.77.94,1.01.41.23.87.35,1.39.35s.98-.12,1.38-.35c.39-.24.7-.58.93-1.01.22-.44.34-.95.34-1.53s-.12-1.09-.34-1.52ZM84.17,94.65h-1.38v2.52h1.38c.48,0,.84-.12,1.07-.33.23-.22.35-.53.35-.93,0-.84-.47-1.26-1.42-1.26ZM52.25,96.02c-.22-.44-.53-.77-.93-1-.4-.23-.86-.35-1.38-.35s-.98.12-1.38.35c-.4.23-.72.56-.94,1-.22.43-.33.94-.33,1.52s.11,1.09.33,1.53c.22.43.54.77.94,1.01.4.23.86.35,1.38.35s.98-.12,1.38-.35c.4-.24.71-.58.93-1.01.23-.44.34-.95.34-1.53s-.11-1.09-.34-1.52ZM42.21,95c-.24-.22-.59-.33-1.06-.33h-1.45v2.54h1.45c.47,0,.82-.11,1.06-.34.23-.22.34-.54.34-.95s-.11-.7-.34-.92ZM42.21,95c-.24-.22-.59-.33-1.06-.33h-1.45v2.54h1.45c.47,0,.82-.11,1.06-.34.23-.22.34-.54.34-.95s-.11-.7-.34-.92ZM52.25,96.02c-.22-.44-.53-.77-.93-1-.4-.23-.86-.35-1.38-.35s-.98.12-1.38.35c-.4.23-.72.56-.94,1-.22.43-.33.94-.33,1.52s.11,1.09.33,1.53c.22.43.54.77.94,1.01.4.23.86.35,1.38.35s.98-.12,1.38-.35c.4-.24.71-.58.93-1.01.23-.44.34-.95.34-1.53s-.11-1.09-.34-1.52ZM84.17,94.65h-1.38v2.52h1.38c.48,0,.84-.12,1.07-.33.23-.22.35-.53.35-.93,0-.84-.47-1.26-1.42-1.26ZM94.94,96.02c-.23-.44-.54-.77-.93-1-.4-.23-.86-.35-1.38-.35s-.98.12-1.39.35c-.4.23-.71.56-.94,1-.22.43-.33.94-.33,1.52s.11,1.09.33,1.53c.23.43.54.77.94,1.01.41.23.87.35,1.39.35s.98-.12,1.38-.35c.39-.24.7-.58.93-1.01.22-.44.34-.95.34-1.53s-.12-1.09-.34-1.52ZM111.26,95c-.24-.22-.59-.33-1.06-.33h-1.45v2.54h1.45c.47,0,.82-.11,1.06-.34.23-.22.35-.54.35-.95s-.12-.7-.35-.92ZM111.26,95c-.24-.22-.59-.33-1.06-.33h-1.45v2.54h1.45c.47,0,.82-.11,1.06-.34.23-.22.35-.54.35-.95s-.12-.7-.35-.92ZM94.94,96.02c-.23-.44-.54-.77-.93-1-.4-.23-.86-.35-1.38-.35s-.98.12-1.39.35c-.4.23-.71.56-.94,1-.22.43-.33.94-.33,1.52s.11,1.09.33,1.53c.23.43.54.77.94,1.01.41.23.87.35,1.39.35s.98-.12,1.38-.35c.39-.24.7-.58.93-1.01.22-.44.34-.95.34-1.53s-.12-1.09-.34-1.52ZM84.17,94.65h-1.38v2.52h1.38c.48,0,.84-.12,1.07-.33.23-.22.35-.53.35-.93,0-.84-.47-1.26-1.42-1.26ZM52.25,96.02c-.22-.44-.53-.77-.93-1-.4-.23-.86-.35-1.38-.35s-.98.12-1.38.35c-.4.23-.72.56-.94,1-.22.43-.33.94-.33,1.52s.11,1.09.33,1.53c.22.43.54.77.94,1.01.4.23.86.35,1.38.35s.98-.12,1.38-.35c.4-.24.71-.58.93-1.01.23-.44.34-.95.34-1.53s-.11-1.09-.34-1.52ZM42.21,95c-.24-.22-.59-.33-1.06-.33h-1.45v2.54h1.45c.47,0,.82-.11,1.06-.34.23-.22.34-.54.34-.95s-.11-.7-.34-.92ZM42.21,95c-.24-.22-.59-.33-1.06-.33h-1.45v2.54h1.45c.47,0,.82-.11,1.06-.34.23-.22.34-.54.34-.95s-.11-.7-.34-.92ZM52.25,96.02c-.22-.44-.53-.77-.93-1-.4-.23-.86-.35-1.38-.35s-.98.12-1.38.35c-.4.23-.72.56-.94,1-.22.43-.33.94-.33,1.52s.11,1.09.33,1.53c.22.43.54.77.94,1.01.4.23.86.35,1.38.35s.98-.12,1.38-.35c.4-.24.71-.58.93-1.01.23-.44.34-.95.34-1.53s-.11-1.09-.34-1.52ZM84.17,94.65h-1.38v2.52h1.38c.48,0,.84-.12,1.07-.33.23-.22.35-.53.35-.93,0-.84-.47-1.26-1.42-1.26ZM94.94,96.02c-.23-.44-.54-.77-.93-1-.4-.23-.86-.35-1.38-.35s-.98.12-1.39.35c-.4.23-.71.56-.94,1-.22.43-.33.94-.33,1.52s.11,1.09.33,1.53c.23.43.54.77.94,1.01.41.23.87.35,1.39.35s.98-.12,1.38-.35c.39-.24.7-.58.93-1.01.22-.44.34-.95.34-1.53s-.12-1.09-.34-1.52ZM111.26,95c-.24-.22-.59-.33-1.06-.33h-1.45v2.54h1.45c.47,0,.82-.11,1.06-.34.23-.22.35-.54.35-.95s-.12-.7-.35-.92ZM154.17,96.02c-.23-.44-.54-.77-.94-1-.39-.23-.85-.35-1.37-.35s-.99.12-1.39.35c-.4.23-.71.56-.94,1-.22.43-.33.94-.33,1.52s.11,1.09.33,1.53c.23.43.54.77.94,1.01.4.23.87.35,1.39.35s.98-.12,1.37-.35c.4-.24.71-.58.94-1.01.22-.44.33-.95.33-1.53s-.11-1.09-.33-1.52ZM154.17,96.02c-.23-.44-.54-.77-.94-1-.39-.23-.85-.35-1.37-.35s-.99.12-1.39.35c-.4.23-.71.56-.94,1-.22.43-.33.94-.33,1.52s.11,1.09.33,1.53c.23.43.54.77.94,1.01.4.23.87.35,1.39.35s.98-.12,1.37-.35c.4-.24.71-.58.94-1.01.22-.44.33-.95.33-1.53s-.11-1.09-.33-1.52ZM111.26,95c-.24-.22-.59-.33-1.06-.33h-1.45v2.54h1.45c.47,0,.82-.11,1.06-.34.23-.22.35-.54.35-.95s-.12-.7-.35-.92ZM94.94,96.02c-.23-.44-.54-.77-.93-1-.4-.23-.86-.35-1.38-.35s-.98.12-1.39.35c-.4.23-.71.56-.94,1-.22.43-.33.94-.33,1.52s.11,1.09.33,1.53c.23.43.54.77.94,1.01.41.23.87.35,1.39.35s.98-.12,1.38-.35c.39-.24.7-.58.93-1.01.22-.44.34-.95.34-1.53s-.12-1.09-.34-1.52ZM84.17,94.65h-1.38v2.52h1.38c.48,0,.84-.12,1.07-.33.23-.22.35-.53.35-.93,0-.84-.47-1.26-1.42-1.26ZM52.25,96.02c-.22-.44-.53-.77-.93-1-.4-.23-.86-.35-1.38-.35s-.98.12-1.38.35c-.4.23-.72.56-.94,1-.22.43-.33.94-.33,1.52s.11,1.09.33,1.53c.22.43.54.77.94,1.01.4.23.86.35,1.38.35s.98-.12,1.38-.35c.4-.24.71-.58.93-1.01.23-.44.34-.95.34-1.53s-.11-1.09-.34-1.52ZM42.21,95c-.24-.22-.59-.33-1.06-.33h-1.45v2.54h1.45c.47,0,.82-.11,1.06-.34.23-.22.34-.54.34-.95s-.11-.7-.34-.92ZM42.21,95c-.24-.22-.59-.33-1.06-.33h-1.45v2.54h1.45c.47,0,.82-.11,1.06-.34.23-.22.34-.54.34-.95s-.11-.7-.34-.92ZM52.25,96.02c-.22-.44-.53-.77-.93-1-.4-.23-.86-.35-1.38-.35s-.98.12-1.38.35c-.4.23-.72.56-.94,1-.22.43-.33.94-.33,1.52s.11,1.09.33,1.53c.22.43.54.77.94,1.01.4.23.86.35,1.38.35s.98-.12,1.38-.35c.4-.24.71-.58.93-1.01.23-.44.34-.95.34-1.53s-.11-1.09-.34-1.52ZM84.17,94.65h-1.38v2.52h1.38c.48,0,.84-.12,1.07-.33.23-.22.35-.53.35-.93,0-.84-.47-1.26-1.42-1.26ZM94.94,96.02c-.23-.44-.54-.77-.93-1-.4-.23-.86-.35-1.38-.35s-.98.12-1.39.35c-.4.23-.71.56-.94,1-.22.43-.33.94-.33,1.52s.11,1.09.33,1.53c.23.43.54.77.94,1.01.41.23.87.35,1.39.35s.98-.12,1.38-.35c.39-.24.7-.58.93-1.01.22-.44.34-.95.34-1.53s-.12-1.09-.34-1.52ZM111.26,95c-.24-.22-.59-.33-1.06-.33h-1.45v2.54h1.45c.47,0,.82-.11,1.06-.34.23-.22.35-.54.35-.95s-.12-.7-.35-.92ZM154.17,96.02c-.23-.44-.54-.77-.94-1-.39-.23-.85-.35-1.37-.35s-.99.12-1.39.35c-.4.23-.71.56-.94,1-.22.43-.33.94-.33,1.52s.11,1.09.33,1.53c.23.43.54.77.94,1.01.4.23.87.35,1.39.35s.98-.12,1.37-.35c.4-.24.71-.58.94-1.01.22-.44.33-.95.33-1.53s-.11-1.09-.33-1.52ZM154.17,96.02c-.23-.44-.54-.77-.94-1-.39-.23-.85-.35-1.37-.35s-.99.12-1.39.35c-.4.23-.71.56-.94,1-.22.43-.33.94-.33,1.52s.11,1.09.33,1.53c.23.43.54.77.94,1.01.4.23.87.35,1.39.35s.98-.12,1.37-.35c.4-.24.71-.58.94-1.01.22-.44.33-.95.33-1.53s-.11-1.09-.33-1.52ZM111.26,95c-.24-.22-.59-.33-1.06-.33h-1.45v2.54h1.45c.47,0,.82-.11,1.06-.34.23-.22.35-.54.35-.95s-.12-.7-.35-.92ZM94.94,96.02c-.23-.44-.54-.77-.93-1-.4-.23-.86-.35-1.38-.35s-.98.12-1.39.35c-.4.23-.71.56-.94,1-.22.43-.33.94-.33,1.52s.11,1.09.33,1.53c.23.43.54.77.94,1.01.41.23.87.35,1.39.35s.98-.12,1.38-.35c.39-.24.7-.58.93-1.01.22-.44.34-.95.34-1.53s-.12-1.09-.34-1.52ZM84.17,94.65h-1.38v2.52h1.38c.48,0,.84-.12,1.07-.33.23-.22.35-.53.35-.93,0-.84-.47-1.26-1.42-1.26ZM52.25,96.02c-.22-.44-.53-.77-.93-1-.4-.23-.86-.35-1.38-.35s-.98.12-1.38.35c-.4.23-.72.56-.94,1-.22.43-.33.94-.33,1.52s.11,1.09.33,1.53c.22.43.54.77.94,1.01.4.23.86.35,1.38.35s.98-.12,1.38-.35c.4-.24.71-.58.93-1.01.23-.44.34-.95.34-1.53s-.11-1.09-.34-1.52ZM42.21,95c-.24-.22-.59-.33-1.06-.33h-1.45v2.54h1.45c.47,0,.82-.11,1.06-.34.23-.22.34-.54.34-.95s-.11-.7-.34-.92ZM42.21,95c-.24-.22-.59-.33-1.06-.33h-1.45v2.54h1.45c.47,0,.82-.11,1.06-.34.23-.22.34-.54.34-.95s-.11-.7-.34-.92ZM52.25,96.02c-.22-.44-.53-.77-.93-1-.4-.23-.86-.35-1.38-.35s-.98.12-1.38.35c-.4.23-.72.56-.94,1-.22.43-.33.94-.33,1.52s.11,1.09.33,1.53c.22.43.54.77.94,1.01.4.23.86.35,1.38.35s.98-.12,1.38-.35c.4-.24.71-.58.93-1.01.23-.44.34-.95.34-1.53s-.11-1.09-.34-1.52ZM84.17,94.65h-1.38v2.52h1.38c.48,0,.84-.12,1.07-.33.23-.22.35-.53.35-.93,0-.84-.47-1.26-1.42-1.26ZM94.94,96.02c-.23-.44-.54-.77-.93-1-.4-.23-.86-.35-1.38-.35s-.98.12-1.39.35c-.4.23-.71.56-.94,1-.22.43-.33.94-.33,1.52s.11,1.09.33,1.53c.23.43.54.77.94,1.01.41.23.87.35,1.39.35s.98-.12,1.38-.35c.39-.24.7-.58.93-1.01.22-.44.34-.95.34-1.53s-.12-1.09-.34-1.52ZM111.26,95c-.24-.22-.59-.33-1.06-.33h-1.45v2.54h1.45c.47,0,.82-.11,1.06-.34.23-.22.35-.54.35-.95s-.12-.7-.35-.92ZM154.17,96.02c-.23-.44-.54-.77-.94-1-.39-.23-.85-.35-1.37-.35s-.99.12-1.39.35c-.4.23-.71.56-.94,1-.22.43-.33.94-.33,1.52s.11,1.09.33,1.53c.23.43.54.77.94,1.01.4.23.87.35,1.39.35s.98-.12,1.37-.35c.4-.24.71-.58.94-1.01.22-.44.33-.95.33-1.53s-.11-1.09-.33-1.52ZM154.17,96.02c-.23-.44-.54-.77-.94-1-.39-.23-.85-.35-1.37-.35s-.99.12-1.39.35c-.4.23-.71.56-.94,1-.22.43-.33.94-.33,1.52s.11,1.09.33,1.53c.23.43.54.77.94,1.01.4.23.87.35,1.39.35s.98-.12,1.37-.35c.4-.24.71-.58.94-1.01.22-.44.33-.95.33-1.53s-.11-1.09-.33-1.52ZM111.26,95c-.24-.22-.59-.33-1.06-.33h-1.45v2.54h1.45c.47,0,.82-.11,1.06-.34.23-.22.35-.54.35-.95s-.12-.7-.35-.92ZM94.94,96.02c-.23-.44-.54-.77-.93-1-.4-.23-.86-.35-1.38-.35s-.98.12-1.39.35c-.4.23-.71.56-.94,1-.22.43-.33.94-.33,1.52s.11,1.09.33,1.53c.23.43.54.77.94,1.01.41.23.87.35,1.39.35s.98-.12,1.38-.35c.39-.24.7-.58.93-1.01.22-.44.34-.95.34-1.53s-.12-1.09-.34-1.52ZM84.17,94.65h-1.38v2.52h1.38c.48,0,.84-.12,1.07-.33.23-.22.35-.53.35-.93,0-.84-.47-1.26-1.42-1.26ZM52.25,96.02c-.22-.44-.53-.77-.93-1-.4-.23-.86-.35-1.38-.35s-.98.12-1.38.35c-.4.23-.72.56-.94,1-.22.43-.33.94-.33,1.52s.11,1.09.33,1.53c.22.43.54.77.94,1.01.4.23.86.35,1.38.35s.98-.12,1.38-.35c.4-.24.71-.58.93-1.01.23-.44.34-.95.34-1.53s-.11-1.09-.34-1.52ZM42.21,95c-.24-.22-.59-.33-1.06-.33h-1.45v2.54h1.45c.47,0,.82-.11,1.06-.34.23-.22.34-.54.34-.95s-.11-.7-.34-.92ZM42.21,95c-.24-.22-.59-.33-1.06-.33h-1.45v2.54h1.45c.47,0,.82-.11,1.06-.34.23-.22.34-.54.34-.95s-.11-.7-.34-.92ZM52.25,96.02c-.22-.44-.53-.77-.93-1-.4-.23-.86-.35-1.38-.35s-.98.12-1.38.35c-.4.23-.72.56-.94,1-.22.43-.33.94-.33,1.52s.11,1.09.33,1.53c.22.43.54.77.94,1.01.4.23.86.35,1.38.35s.98-.12,1.38-.35c.4-.24.71-.58.93-1.01.23-.44.34-.95.34-1.53s-.11-1.09-.34-1.52ZM84.17,94.65h-1.38v2.52h1.38c.48,0,.84-.12,1.07-.33.23-.22.35-.53.35-.93,0-.84-.47-1.26-1.42-1.26ZM94.94,96.02c-.23-.44-.54-.77-.93-1-.4-.23-.86-.35-1.38-.35s-.98.12-1.39.35c-.4.23-.71.56-.94,1-.22.43-.33.94-.33,1.52s.11,1.09.33,1.53c.23.43.54.77.94,1.01.41.23.87.35,1.39.35s.98-.12,1.38-.35c.39-.24.7-.58.93-1.01.22-.44.34-.95.34-1.53s-.12-1.09-.34-1.52ZM111.26,95c-.24-.22-.59-.33-1.06-.33h-1.45v2.54h1.45c.47,0,.82-.11,1.06-.34.23-.22.35-.54.35-.95s-.12-.7-.35-.92ZM154.17,96.02c-.23-.44-.54-.77-.94-1-.39-.23-.85-.35-1.37-.35s-.99.12-1.39.35c-.4.23-.71.56-.94,1-.22.43-.33.94-.33,1.52s.11,1.09.33,1.53c.23.43.54.77.94,1.01.4.23.87.35,1.39.35s.98-.12,1.37-.35c.4-.24.71-.58.94-1.01.22-.44.33-.95.33-1.53s-.11-1.09-.33-1.52ZM154.17,96.02c-.23-.44-.54-.77-.94-1-.39-.23-.85-.35-1.37-.35s-.99.12-1.39.35c-.4.23-.71.56-.94,1-.22.43-.33.94-.33,1.52s.11,1.09.33,1.53c.23.43.54.77.94,1.01.4.23.87.35,1.39.35s.98-.12,1.37-.35c.4-.24.71-.58.94-1.01.22-.44.33-.95.33-1.53s-.11-1.09-.33-1.52ZM111.26,95c-.24-.22-.59-.33-1.06-.33h-1.45v2.54h1.45c.47,0,.82-.11,1.06-.34.23-.22.35-.54.35-.95s-.12-.7-.35-.92ZM94.94,96.02c-.23-.44-.54-.77-.93-1-.4-.23-.86-.35-1.38-.35s-.98.12-1.39.35c-.4.23-.71.56-.94,1-.22.43-.33.94-.33,1.52s.11,1.09.33,1.53c.23.43.54.77.94,1.01.41.23.87.35,1.39.35s.98-.12,1.38-.35c.39-.24.7-.58.93-1.01.22-.44.34-.95.34-1.53s-.12-1.09-.34-1.52ZM84.17,94.65h-1.38v2.52h1.38c.48,0,.84-.12,1.07-.33.23-.22.35-.53.35-.93,0-.84-.47-1.26-1.42-1.26ZM52.25,96.02c-.22-.44-.53-.77-.93-1-.4-.23-.86-.35-1.38-.35s-.98.12-1.38.35c-.4.23-.72.56-.94,1-.22.43-.33.94-.33,1.52s.11,1.09.33,1.53c.22.43.54.77.94,1.01.4.23.86.35,1.38.35s.98-.12,1.38-.35c.4-.24.71-.58.93-1.01.23-.44.34-.95.34-1.53s-.11-1.09-.34-1.52ZM42.21,95c-.24-.22-.59-.33-1.06-.33h-1.45v2.54h1.45c.47,0,.82-.11,1.06-.34.23-.22.34-.54.34-.95s-.11-.7-.34-.92ZM42.21,95c-.24-.22-.59-.33-1.06-.33h-1.45v2.54h1.45c.47,0,.82-.11,1.06-.34.23-.22.34-.54.34-.95s-.11-.7-.34-.92ZM52.25,96.02c-.22-.44-.53-.77-.93-1-.4-.23-.86-.35-1.38-.35s-.98.12-1.38.35c-.4.23-.72.56-.94,1-.22.43-.33.94-.33,1.52s.11,1.09.33,1.53c.22.43.54.77.94,1.01.4.23.86.35,1.38.35s.98-.12,1.38-.35c.4-.24.71-.58.93-1.01.23-.44.34-.95.34-1.53s-.11-1.09-.34-1.52ZM84.17,94.65h-1.38v2.52h1.38c.48,0,.84-.12,1.07-.33.23-.22.35-.53.35-.93,0-.84-.47-1.26-1.42-1.26ZM94.94,96.02c-.23-.44-.54-.77-.93-1-.4-.23-.86-.35-1.38-.35s-.98.12-1.39.35c-.4.23-.71.56-.94,1-.22.43-.33.94-.33,1.52s.11,1.09.33,1.53c.23.43.54.77.94,1.01.41.23.87.35,1.39.35s.98-.12,1.38-.35c.39-.24.7-.58.93-1.01.22-.44.34-.95.34-1.53s-.12-1.09-.34-1.52ZM111.26,95c-.24-.22-.59-.33-1.06-.33h-1.45v2.54h1.45c.47,0,.82-.11,1.06-.34.23-.22.35-.54.35-.95s-.12-.7-.35-.92ZM154.17,96.02c-.23-.44-.54-.77-.94-1-.39-.23-.85-.35-1.37-.35s-.99.12-1.39.35c-.4.23-.71.56-.94,1-.22.43-.33.94-.33,1.52s.11,1.09.33,1.53c.23.43.54.77.94,1.01.4.23.87.35,1.39.35s.98-.12,1.37-.35c.4-.24.71-.58.94-1.01.22-.44.33-.95.33-1.53s-.11-1.09-.33-1.52ZM154.17,96.02c-.23-.44-.54-.77-.94-1-.39-.23-.85-.35-1.37-.35s-.99.12-1.39.35c-.4.23-.71.56-.94,1-.22.43-.33.94-.33,1.52s.11,1.09.33,1.53c.23.43.54.77.94,1.01.4.23.87.35,1.39.35s.98-.12,1.37-.35c.4-.24.71-.58.94-1.01.22-.44.33-.95.33-1.53s-.11-1.09-.33-1.52ZM111.26,95c-.24-.22-.59-.33-1.06-.33h-1.45v2.54h1.45c.47,0,.82-.11,1.06-.34.23-.22.35-.54.35-.95s-.12-.7-.35-.92ZM94.94,96.02c-.23-.44-.54-.77-.93-1-.4-.23-.86-.35-1.38-.35s-.98.12-1.39.35c-.4.23-.71.56-.94,1-.22.43-.33.94-.33,1.52s.11,1.09.33,1.53c.23.43.54.77.94,1.01.41.23.87.35,1.39.35s.98-.12,1.38-.35c.39-.24.7-.58.93-1.01.22-.44.34-.95.34-1.53s-.12-1.09-.34-1.52ZM84.17,94.65h-1.38v2.52h1.38c.48,0,.84-.12,1.07-.33.23-.22.35-.53.35-.93,0-.84-.47-1.26-1.42-1.26ZM52.25,96.02c-.22-.44-.53-.77-.93-1-.4-.23-.86-.35-1.38-.35s-.98.12-1.38.35c-.4.23-.72.56-.94,1-.22.43-.33.94-.33,1.52s.11,1.09.33,1.53c.22.43.54.77.94,1.01.4.23.86.35,1.38.35s.98-.12,1.38-.35c.4-.24.71-.58.93-1.01.23-.44.34-.95.34-1.53s-.11-1.09-.34-1.52ZM42.21,95c-.24-.22-.59-.33-1.06-.33h-1.45v2.54h1.45c.47,0,.82-.11,1.06-.34.23-.22.34-.54.34-.95s-.11-.7-.34-.92ZM42.21,95c-.24-.22-.59-.33-1.06-.33h-1.45v2.54h1.45c.47,0,.82-.11,1.06-.34.23-.22.34-.54.34-.95s-.11-.7-.34-.92ZM52.25,96.02c-.22-.44-.53-.77-.93-1-.4-.23-.86-.35-1.38-.35s-.98.12-1.38.35c-.4.23-.72.56-.94,1-.22.43-.33.94-.33,1.52s.11,1.09.33,1.53c.22.43.54.77.94,1.01.4.23.86.35,1.38.35s.98-.12,1.38-.35c.4-.24.71-.58.93-1.01.23-.44.34-.95.34-1.53s-.11-1.09-.34-1.52ZM84.17,94.65h-1.38v2.52h1.38c.48,0,.84-.12,1.07-.33.23-.22.35-.53.35-.93,0-.84-.47-1.26-1.42-1.26ZM94.94,96.02c-.23-.44-.54-.77-.93-1-.4-.23-.86-.35-1.38-.35s-.98.12-1.39.35c-.4.23-.71.56-.94,1-.22.43-.33.94-.33,1.52s.11,1.09.33,1.53c.23.43.54.77.94,1.01.41.23.87.35,1.39.35s.98-.12,1.38-.35c.39-.24.7-.58.93-1.01.22-.44.34-.95.34-1.53s-.12-1.09-.34-1.52ZM111.26,95c-.24-.22-.59-.33-1.06-.33h-1.45v2.54h1.45c.47,0,.82-.11,1.06-.34.23-.22.35-.54.35-.95s-.12-.7-.35-.92ZM154.17,96.02c-.23-.44-.54-.77-.94-1-.39-.23-.85-.35-1.37-.35s-.99.12-1.39.35c-.4.23-.71.56-.94,1-.22.43-.33.94-.33,1.52s.11,1.09.33,1.53c.23.43.54.77.94,1.01.4.23.87.35,1.39.35s.98-.12,1.37-.35c.4-.24.71-.58.94-1.01.22-.44.33-.95.33-1.53s-.11-1.09-.33-1.52ZM154.17,96.02c-.23-.44-.54-.77-.94-1-.39-.23-.85-.35-1.37-.35s-.99.12-1.39.35c-.4.23-.71.56-.94,1-.22.43-.33.94-.33,1.52s.11,1.09.33,1.53c.23.43.54.77.94,1.01.4.23.87.35,1.39.35s.98-.12,1.37-.35c.4-.24.71-.58.94-1.01.22-.44.33-.95.33-1.53s-.11-1.09-.33-1.52ZM111.26,95c-.24-.22-.59-.33-1.06-.33h-1.45v2.54h1.45c.47,0,.82-.11,1.06-.34.23-.22.35-.54.35-.95s-.12-.7-.35-.92ZM94.94,96.02c-.23-.44-.54-.77-.93-1-.4-.23-.86-.35-1.38-.35s-.98.12-1.39.35c-.4.23-.71.56-.94,1-.22.43-.33.94-.33,1.52s.11,1.09.33,1.53c.23.43.54.77.94,1.01.41.23.87.35,1.39.35s.98-.12,1.38-.35c.39-.24.7-.58.93-1.01.22-.44.34-.95.34-1.53s-.12-1.09-.34-1.52ZM84.17,94.65h-1.38v2.52h1.38c.48,0,.84-.12,1.07-.33.23-.22.35-.53.35-.93,0-.84-.47-1.26-1.42-1.26ZM52.25,96.02c-.22-.44-.53-.77-.93-1-.4-.23-.86-.35-1.38-.35s-.98.12-1.38.35c-.4.23-.72.56-.94,1-.22.43-.33.94-.33,1.52s.11,1.09.33,1.53c.22.43.54.77.94,1.01.4.23.86.35,1.38.35s.98-.12,1.38-.35c.4-.24.71-.58.93-1.01.23-.44.34-.95.34-1.53s-.11-1.09-.34-1.52ZM42.21,95c-.24-.22-.59-.33-1.06-.33h-1.45v2.54h1.45c.47,0,.82-.11,1.06-.34.23-.22.34-.54.34-.95s-.11-.7-.34-.92ZM42.21,95c-.24-.22-.59-.33-1.06-.33h-1.45v2.54h1.45c.47,0,.82-.11,1.06-.34.23-.22.34-.54.34-.95s-.11-.7-.34-.92ZM52.25,96.02c-.22-.44-.53-.77-.93-1-.4-.23-.86-.35-1.38-.35s-.98.12-1.38.35c-.4.23-.72.56-.94,1-.22.43-.33.94-.33,1.52s.11,1.09.33,1.53c.22.43.54.77.94,1.01.4.23.86.35,1.38.35s.98-.12,1.38-.35c.4-.24.71-.58.93-1.01.23-.44.34-.95.34-1.53s-.11-1.09-.34-1.52ZM84.17,94.65h-1.38v2.52h1.38c.48,0,.84-.12,1.07-.33.23-.22.35-.53.35-.93,0-.84-.47-1.26-1.42-1.26ZM94.94,96.02c-.23-.44-.54-.77-.93-1-.4-.23-.86-.35-1.38-.35s-.98.12-1.39.35c-.4.23-.71.56-.94,1-.22.43-.33.94-.33,1.52s.11,1.09.33,1.53c.23.43.54.77.94,1.01.41.23.87.35,1.39.35s.98-.12,1.38-.35c.39-.24.7-.58.93-1.01.22-.44.34-.95.34-1.53s-.12-1.09-.34-1.52ZM111.26,95c-.24-.22-.59-.33-1.06-.33h-1.45v2.54h1.45c.47,0,.82-.11,1.06-.34.23-.22.35-.54.35-.95s-.12-.7-.35-.92ZM154.17,96.02c-.23-.44-.54-.77-.94-1-.39-.23-.85-.35-1.37-.35s-.99.12-1.39.35c-.4.23-.71.56-.94,1-.22.43-.33.94-.33,1.52s.11,1.09.33,1.53c.23.43.54.77.94,1.01.4.23.87.35,1.39.35s.98-.12,1.37-.35c.4-.24.71-.58.94-1.01.22-.44.33-.95.33-1.53s-.11-1.09-.33-1.52ZM154.17,96.02c-.23-.44-.54-.77-.94-1-.39-.23-.85-.35-1.37-.35s-.99.12-1.39.35c-.4.23-.71.56-.94,1-.22.43-.33.94-.33,1.52s.11,1.09.33,1.53c.23.43.54.77.94,1.01.4.23.87.35,1.39.35s.98-.12,1.37-.35c.4-.24.71-.58.94-1.01.22-.44.33-.95.33-1.53s-.11-1.09-.33-1.52ZM111.26,95c-.24-.22-.59-.33-1.06-.33h-1.45v2.54h1.45c.47,0,.82-.11,1.06-.34.23-.22.35-.54.35-.95s-.12-.7-.35-.92ZM94.94,96.02c-.23-.44-.54-.77-.93-1-.4-.23-.86-.35-1.38-.35s-.98.12-1.39.35c-.4.23-.71.56-.94,1-.22.43-.33.94-.33,1.52s.11,1.09.33,1.53c.23.43.54.77.94,1.01.41.23.87.35,1.39.35s.98-.12,1.38-.35c.39-.24.7-.58.93-1.01.22-.44.34-.95.34-1.53s-.12-1.09-.34-1.52ZM84.17,94.65h-1.38v2.52h1.38c.48,0,.84-.12,1.07-.33.23-.22.35-.53.35-.93,0-.84-.47-1.26-1.42-1.26ZM52.25,96.02c-.22-.44-.53-.77-.93-1-.4-.23-.86-.35-1.38-.35s-.98.12-1.38.35c-.4.23-.72.56-.94,1-.22.43-.33.94-.33,1.52s.11,1.09.33,1.53c.22.43.54.77.94,1.01.4.23.86.35,1.38.35s.98-.12,1.38-.35c.4-.24.71-.58.93-1.01.23-.44.34-.95.34-1.53s-.11-1.09-.34-1.52ZM42.21,95c-.24-.22-.59-.33-1.06-.33h-1.45v2.54h1.45c.47,0,.82-.11,1.06-.34.23-.22.34-.54.34-.95s-.11-.7-.34-.92ZM42.21,95c-.24-.22-.59-.33-1.06-.33h-1.45v2.54h1.45c.47,0,.82-.11,1.06-.34.23-.22.34-.54.34-.95s-.11-.7-.34-.92ZM52.25,96.02c-.22-.44-.53-.77-.93-1-.4-.23-.86-.35-1.38-.35s-.98.12-1.38.35c-.4.23-.72.56-.94,1-.22.43-.33.94-.33,1.52s.11,1.09.33,1.53c.22.43.54.77.94,1.01.4.23.86.35,1.38.35s.98-.12,1.38-.35c.4-.24.71-.58.93-1.01.23-.44.34-.95.34-1.53s-.11-1.09-.34-1.52ZM84.17,94.65h-1.38v2.52h1.38c.48,0,.84-.12,1.07-.33.23-.22.35-.53.35-.93,0-.84-.47-1.26-1.42-1.26ZM94.94,96.02c-.23-.44-.54-.77-.93-1-.4-.23-.86-.35-1.38-.35s-.98.12-1.39.35c-.4.23-.71.56-.94,1-.22.43-.33.94-.33,1.52s.11,1.09.33,1.53c.23.43.54.77.94,1.01.41.23.87.35,1.39.35s.98-.12,1.38-.35c.39-.24.7-.58.93-1.01.22-.44.34-.95.34-1.53s-.12-1.09-.34-1.52ZM111.26,95c-.24-.22-.59-.33-1.06-.33h-1.45v2.54h1.45c.47,0,.82-.11,1.06-.34.23-.22.35-.54.35-.95s-.12-.7-.35-.92ZM154.17,96.02c-.23-.44-.54-.77-.94-1-.39-.23-.85-.35-1.37-.35s-.99.12-1.39.35c-.4.23-.71.56-.94,1-.22.43-.33.94-.33,1.52s.11,1.09.33,1.53c.23.43.54.77.94,1.01.4.23.87.35,1.39.35s.98-.12,1.37-.35c.4-.24.71-.58.94-1.01.22-.44.33-.95.33-1.53s-.11-1.09-.33-1.52ZM154.17,96.02c-.23-.44-.54-.77-.94-1-.39-.23-.85-.35-1.37-.35s-.99.12-1.39.35c-.4.23-.71.56-.94,1-.22.43-.33.94-.33,1.52s.11,1.09.33,1.53c.23.43.54.77.94,1.01.4.23.87.35,1.39.35s.98-.12,1.37-.35c.4-.24.71-.58.94-1.01.22-.44.33-.95.33-1.53s-.11-1.09-.33-1.52ZM111.26,95c-.24-.22-.59-.33-1.06-.33h-1.45v2.54h1.45c.47,0,.82-.11,1.06-.34.23-.22.35-.54.35-.95s-.12-.7-.35-.92ZM94.94,96.02c-.23-.44-.54-.77-.93-1-.4-.23-.86-.35-1.38-.35s-.98.12-1.39.35c-.4.23-.71.56-.94,1-.22.43-.33.94-.33,1.52s.11,1.09.33,1.53c.23.43.54.77.94,1.01.41.23.87.35,1.39.35s.98-.12,1.38-.35c.39-.24.7-.58.93-1.01.22-.44.34-.95.34-1.53s-.12-1.09-.34-1.52ZM84.17,94.65h-1.38v2.52h1.38c.48,0,.84-.12,1.07-.33.23-.22.35-.53.35-.93,0-.84-.47-1.26-1.42-1.26ZM52.25,96.02c-.22-.44-.53-.77-.93-1-.4-.23-.86-.35-1.38-.35s-.98.12-1.38.35c-.4.23-.72.56-.94,1-.22.43-.33.94-.33,1.52s.11,1.09.33,1.53c.22.43.54.77.94,1.01.4.23.86.35,1.38.35s.98-.12,1.38-.35c.4-.24.71-.58.93-1.01.23-.44.34-.95.34-1.53s-.11-1.09-.34-1.52ZM42.21,95c-.24-.22-.59-.33-1.06-.33h-1.45v2.54h1.45c.47,0,.82-.11,1.06-.34.23-.22.34-.54.34-.95s-.11-.7-.34-.92ZM135.11,86.5c-3.07-.59-72.92.16-74.28.16s-51.63.74-51.63.74c0,0,1.33,18.61,1.64,20.4.3,1.78,77.93-1.02,82.17-.42,4.24.59,58.75.9,58.75.9l11.14.53,1.49-21.63s-26.21-.08-29.28-.68ZM24.3,94.63h-3.29v2.18h2.92v1.37h-2.92v2.3h3.29v1.42h-5.03v-8.68h5.03v1.41ZM33.29,101.9h-1.74l-3.94-5.95v5.95h-1.73v-8.68h1.73l3.94,5.96v-5.96h1.74v8.68ZM42.43,101.9l-1.91-3.38h-.82v3.38h-1.74v-8.67h3.25c.67,0,1.24.12,1.72.35.47.24.82.56,1.06.96.23.4.35.85.35,1.34,0,.58-.16,1.09-.49,1.55-.34.46-.83.78-1.48.95l2.07,3.52h-2.01ZM53.79,99.83c-.4.67-.93,1.2-1.61,1.58-.68.38-1.43.57-2.24.57s-1.56-.19-2.23-.57c-.68-.38-1.22-.91-1.62-1.58-.39-.68-.59-1.44-.59-2.29s.2-1.6.59-2.28c.4-.68.94-1.2,1.62-1.58.67-.38,1.42-.58,2.23-.58s1.57.2,2.25.58c.67.38,1.2.9,1.6,1.58.39.68.59,1.43.59,2.28s-.2,1.61-.59,2.29ZM62.65,98.58c0,.74-.16,1.36-.48,1.87-.32.51-.74.89-1.28,1.15-.53.26-1.13.38-1.78.38s-1.23-.12-1.76-.38c-.52-.26-.94-.64-1.25-1.15-.31-.51-.46-1.13-.46-1.87v-5.35h1.74v5.36c0,.59.15,1.04.46,1.35.31.31.74.47,1.29.47s1-.16,1.31-.47c.3-.31.45-.76.45-1.35v-5.36h1.76v5.35ZM70.22,94.63h-2.31v7.27h-1.73v-7.27h-2.31v-1.4h6.35v1.4ZM76.52,94.63h-3.29v2.18h2.92v1.37h-2.92v2.3h3.29v1.42h-5.03v-8.68h5.03v1.41ZM87.05,97.21c-.22.41-.57.74-1.04.99-.46.25-1.05.37-1.76.37h-1.46v3.33h-1.74v-8.67h3.2c.67,0,1.24.12,1.71.35.47.23.83.55,1.06.95.24.41.36.87.36,1.38,0,.46-.11.9-.33,1.3ZM96.47,99.83c-.39.67-.93,1.2-1.61,1.58-.68.38-1.42.57-2.23.57s-1.56-.19-2.24-.57-1.22-.91-1.61-1.58c-.4-.68-.6-1.44-.6-2.29s.2-1.6.6-2.28c.39-.68.93-1.2,1.61-1.58s1.43-.58,2.24-.58,1.56.2,2.24.58c.67.38,1.21.9,1.6,1.58.39.68.59,1.43.59,2.28s-.2,1.61-.59,2.29ZM105.33,98.58c0,.74-.16,1.36-.47,1.87-.32.51-.75.89-1.28,1.15-.54.26-1.13.38-1.79.38s-1.23-.12-1.75-.38c-.53-.26-.94-.64-1.25-1.15-.31-.51-.46-1.13-.46-1.87v-5.35h1.74v5.36c0,.59.15,1.04.46,1.35.3.31.73.47,1.29.47s.99-.16,1.3-.47.46-.76.46-1.35v-5.36h1.75v5.35ZM111.48,101.9l-1.91-3.38h-.82v3.38h-1.74v-8.67h3.25c.68,0,1.25.12,1.72.35.47.24.82.56,1.06.96s.36.85.36,1.34c0,.58-.17,1.09-.5,1.55-.33.46-.83.78-1.48.95l2.07,3.52h-2.01ZM122.52,101.9h-4.59v-8.67h1.74v7.29h2.85v1.38ZM128.66,94.63h-3.29v2.18h2.91v1.37h-2.91v2.3h3.29v1.42h-5.03v-8.68h5.03v1.41ZM135.93,100.68c-.24.4-.59.72-1.05.95-.46.24-1.02.35-1.65.35s-1.15-.1-1.64-.3c-.48-.21-.86-.51-1.15-.9-.28-.39-.42-.85-.43-1.38h1.86c.03.36.15.64.38.85.23.2.54.31.94.31s.73-.1.96-.3c.23-.19.34-.45.34-.76,0-.26-.07-.47-.23-.63-.16-.17-.35-.3-.59-.39-.24-.1-.56-.2-.98-.32-.56-.17-1.02-.33-1.37-.49-.35-.16-.65-.41-.91-.73-.25-.33-.38-.77-.38-1.31s.13-.96.39-1.34c.26-.39.62-.68,1.08-.88.47-.2.99-.31,1.59-.31.89,0,1.62.22,2.18.66.56.43.87,1.04.92,1.81h-1.91c-.01-.29-.14-.54-.37-.73-.24-.2-.56-.3-.94-.3-.34,0-.61.09-.82.27-.2.17-.3.42-.3.75,0,.24.07.43.23.58.15.16.34.28.57.37.23.1.55.21.96.33.56.17,1.02.33,1.38.5.36.16.66.41.92.75.25.33.38.76.38,1.3,0,.46-.12.89-.36,1.29ZM145.81,99.31c0,.85-.25,1.5-.74,1.97-.49.47-1.14.7-1.96.7s-1.5-.24-2-.72c-.51-.48-.77-1.15-.77-2.01h1.74c0,.37.1.67.27.87.17.21.41.31.74.31.31,0,.55-.1.72-.3.16-.19.24-.47.24-.82v-6.08h1.76v6.08ZM155.7,99.83c-.39.67-.93,1.2-1.61,1.58-.68.38-1.42.57-2.23.57s-1.56-.19-2.24-.57c-.68-.38-1.22-.91-1.62-1.58-.39-.68-.59-1.44-.59-2.29s.2-1.6.59-2.28c.4-.68.94-1.2,1.62-1.58.68-.38,1.42-.58,2.24-.58s1.56.2,2.24.58c.67.38,1.21.9,1.6,1.58.39.68.59,1.43.59,2.28s-.2,1.61-.59,2.29ZM153.23,95.02c-.39-.23-.85-.35-1.37-.35s-.99.12-1.39.35c-.4.23-.71.56-.94,1-.22.43-.33.94-.33,1.52s.11,1.09.33,1.53c.23.43.54.77.94,1.01.4.23.87.35,1.39.35s.98-.12,1.37-.35c.4-.24.71-.58.94-1.01.22-.44.33-.95.33-1.53s-.11-1.09-.33-1.52c-.23-.44-.54-.77-.94-1ZM111.26,95c-.24-.22-.59-.33-1.06-.33h-1.45v2.54h1.45c.47,0,.82-.11,1.06-.34.23-.22.35-.54.35-.95s-.12-.7-.35-.92ZM94.01,95.02c-.4-.23-.86-.35-1.38-.35s-.98.12-1.39.35c-.4.23-.71.56-.94,1-.22.43-.33.94-.33,1.52s.11,1.09.33,1.53c.23.43.54.77.94,1.01.41.23.87.35,1.39.35s.98-.12,1.38-.35c.39-.24.7-.58.93-1.01.22-.44.34-.95.34-1.53s-.12-1.09-.34-1.52c-.23-.44-.54-.77-.93-1ZM84.17,94.65h-1.38v2.52h1.38c.48,0,.84-.12,1.07-.33.23-.22.35-.53.35-.93,0-.84-.47-1.26-1.42-1.26ZM51.32,95.02c-.4-.23-.86-.35-1.38-.35s-.98.12-1.38.35c-.4.23-.72.56-.94,1-.22.43-.33.94-.33,1.52s.11,1.09.33,1.53c.22.43.54.77.94,1.01.4.23.86.35,1.38.35s.98-.12,1.38-.35c.4-.24.71-.58.93-1.01.23-.44.34-.95.34-1.53s-.11-1.09-.34-1.52c-.22-.44-.53-.77-.93-1ZM42.21,95c-.24-.22-.59-.33-1.06-.33h-1.45v2.54h1.45c.47,0,.82-.11,1.06-.34.23-.22.34-.54.34-.95s-.11-.7-.34-.92ZM42.21,95c-.24-.22-.59-.33-1.06-.33h-1.45v2.54h1.45c.47,0,.82-.11,1.06-.34.23-.22.34-.54.34-.95s-.11-.7-.34-.92ZM52.25,96.02c-.22-.44-.53-.77-.93-1-.4-.23-.86-.35-1.38-.35s-.98.12-1.38.35c-.4.23-.72.56-.94,1-.22.43-.33.94-.33,1.52s.11,1.09.33,1.53c.22.43.54.77.94,1.01.4.23.86.35,1.38.35s.98-.12,1.38-.35c.4-.24.71-.58.93-1.01.23-.44.34-.95.34-1.53s-.11-1.09-.34-1.52ZM84.17,94.65h-1.38v2.52h1.38c.48,0,.84-.12,1.07-.33.23-.22.35-.53.35-.93,0-.84-.47-1.26-1.42-1.26ZM94.94,96.02c-.23-.44-.54-.77-.93-1-.4-.23-.86-.35-1.38-.35s-.98.12-1.39.35c-.4.23-.71.56-.94,1-.22.43-.33.94-.33,1.52s.11,1.09.33,1.53c.23.43.54.77.94,1.01.41.23.87.35,1.39.35s.98-.12,1.38-.35c.39-.24.7-.58.93-1.01.22-.44.34-.95.34-1.53s-.12-1.09-.34-1.52ZM111.26,95c-.24-.22-.59-.33-1.06-.33h-1.45v2.54h1.45c.47,0,.82-.11,1.06-.34.23-.22.35-.54.35-.95s-.12-.7-.35-.92ZM154.17,96.02c-.23-.44-.54-.77-.94-1-.39-.23-.85-.35-1.37-.35s-.99.12-1.39.35c-.4.23-.71.56-.94,1-.22.43-.33.94-.33,1.52s.11,1.09.33,1.53c.23.43.54.77.94,1.01.4.23.87.35,1.39.35s.98-.12,1.37-.35c.4-.24.71-.58.94-1.01.22-.44.33-.95.33-1.53s-.11-1.09-.33-1.52ZM154.17,96.02c-.23-.44-.54-.77-.94-1-.39-.23-.85-.35-1.37-.35s-.99.12-1.39.35c-.4.23-.71.56-.94,1-.22.43-.33.94-.33,1.52s.11,1.09.33,1.53c.23.43.54.77.94,1.01.4.23.87.35,1.39.35s.98-.12,1.37-.35c.4-.24.71-.58.94-1.01.22-.44.33-.95.33-1.53s-.11-1.09-.33-1.52ZM111.26,95c-.24-.22-.59-.33-1.06-.33h-1.45v2.54h1.45c.47,0,.82-.11,1.06-.34.23-.22.35-.54.35-.95s-.12-.7-.35-.92ZM94.94,96.02c-.23-.44-.54-.77-.93-1-.4-.23-.86-.35-1.38-.35s-.98.12-1.39.35c-.4.23-.71.56-.94,1-.22.43-.33.94-.33,1.52s.11,1.09.33,1.53c.23.43.54.77.94,1.01.41.23.87.35,1.39.35s.98-.12,1.38-.35c.39-.24.7-.58.93-1.01.22-.44.34-.95.34-1.53s-.12-1.09-.34-1.52ZM84.17,94.65h-1.38v2.52h1.38c.48,0,.84-.12,1.07-.33.23-.22.35-.53.35-.93,0-.84-.47-1.26-1.42-1.26ZM52.25,96.02c-.22-.44-.53-.77-.93-1-.4-.23-.86-.35-1.38-.35s-.98.12-1.38.35c-.4.23-.72.56-.94,1-.22.43-.33.94-.33,1.52s.11,1.09.33,1.53c.22.43.54.77.94,1.01.4.23.86.35,1.38.35s.98-.12,1.38-.35c.4-.24.71-.58.93-1.01.23-.44.34-.95.34-1.53s-.11-1.09-.34-1.52ZM42.21,95c-.24-.22-.59-.33-1.06-.33h-1.45v2.54h1.45c.47,0,.82-.11,1.06-.34.23-.22.34-.54.34-.95s-.11-.7-.34-.92ZM42.21,95c-.24-.22-.59-.33-1.06-.33h-1.45v2.54h1.45c.47,0,.82-.11,1.06-.34.23-.22.34-.54.34-.95s-.11-.7-.34-.92ZM52.25,96.02c-.22-.44-.53-.77-.93-1-.4-.23-.86-.35-1.38-.35s-.98.12-1.38.35c-.4.23-.72.56-.94,1-.22.43-.33.94-.33,1.52s.11,1.09.33,1.53c.22.43.54.77.94,1.01.4.23.86.35,1.38.35s.98-.12,1.38-.35c.4-.24.71-.58.93-1.01.23-.44.34-.95.34-1.53s-.11-1.09-.34-1.52ZM84.17,94.65h-1.38v2.52h1.38c.48,0,.84-.12,1.07-.33.23-.22.35-.53.35-.93,0-.84-.47-1.26-1.42-1.26ZM94.94,96.02c-.23-.44-.54-.77-.93-1-.4-.23-.86-.35-1.38-.35s-.98.12-1.39.35c-.4.23-.71.56-.94,1-.22.43-.33.94-.33,1.52s.11,1.09.33,1.53c.23.43.54.77.94,1.01.41.23.87.35,1.39.35s.98-.12,1.38-.35c.39-.24.7-.58.93-1.01.22-.44.34-.95.34-1.53s-.12-1.09-.34-1.52ZM111.26,95c-.24-.22-.59-.33-1.06-.33h-1.45v2.54h1.45c.47,0,.82-.11,1.06-.34.23-.22.35-.54.35-.95s-.12-.7-.35-.92ZM154.17,96.02c-.23-.44-.54-.77-.94-1-.39-.23-.85-.35-1.37-.35s-.99.12-1.39.35c-.4.23-.71.56-.94,1-.22.43-.33.94-.33,1.52s.11,1.09.33,1.53c.23.43.54.77.94,1.01.4.23.87.35,1.39.35s.98-.12,1.37-.35c.4-.24.71-.58.94-1.01.22-.44.33-.95.33-1.53s-.11-1.09-.33-1.52ZM154.17,96.02c-.23-.44-.54-.77-.94-1-.39-.23-.85-.35-1.37-.35s-.99.12-1.39.35c-.4.23-.71.56-.94,1-.22.43-.33.94-.33,1.52s.11,1.09.33,1.53c.23.43.54.77.94,1.01.4.23.87.35,1.39.35s.98-.12,1.37-.35c.4-.24.71-.58.94-1.01.22-.44.33-.95.33-1.53s-.11-1.09-.33-1.52ZM111.26,95c-.24-.22-.59-.33-1.06-.33h-1.45v2.54h1.45c.47,0,.82-.11,1.06-.34.23-.22.35-.54.35-.95s-.12-.7-.35-.92ZM94.94,96.02c-.23-.44-.54-.77-.93-1-.4-.23-.86-.35-1.38-.35s-.98.12-1.39.35c-.4.23-.71.56-.94,1-.22.43-.33.94-.33,1.52s.11,1.09.33,1.53c.23.43.54.77.94,1.01.41.23.87.35,1.39.35s.98-.12,1.38-.35c.39-.24.7-.58.93-1.01.22-.44.34-.95.34-1.53s-.12-1.09-.34-1.52ZM84.17,94.65h-1.38v2.52h1.38c.48,0,.84-.12,1.07-.33.23-.22.35-.53.35-.93,0-.84-.47-1.26-1.42-1.26ZM52.25,96.02c-.22-.44-.53-.77-.93-1-.4-.23-.86-.35-1.38-.35s-.98.12-1.38.35c-.4.23-.72.56-.94,1-.22.43-.33.94-.33,1.52s.11,1.09.33,1.53c.22.43.54.77.94,1.01.4.23.86.35,1.38.35s.98-.12,1.38-.35c.4-.24.71-.58.93-1.01.23-.44.34-.95.34-1.53s-.11-1.09-.34-1.52ZM42.21,95c-.24-.22-.59-.33-1.06-.33h-1.45v2.54h1.45c.47,0,.82-.11,1.06-.34.23-.22.34-.54.34-.95s-.11-.7-.34-.92ZM42.21,95c-.24-.22-.59-.33-1.06-.33h-1.45v2.54h1.45c.47,0,.82-.11,1.06-.34.23-.22.34-.54.34-.95s-.11-.7-.34-.92ZM52.25,96.02c-.22-.44-.53-.77-.93-1-.4-.23-.86-.35-1.38-.35s-.98.12-1.38.35c-.4.23-.72.56-.94,1-.22.43-.33.94-.33,1.52s.11,1.09.33,1.53c.22.43.54.77.94,1.01.4.23.86.35,1.38.35s.98-.12,1.38-.35c.4-.24.71-.58.93-1.01.23-.44.34-.95.34-1.53s-.11-1.09-.34-1.52ZM84.17,94.65h-1.38v2.52h1.38c.48,0,.84-.12,1.07-.33.23-.22.35-.53.35-.93,0-.84-.47-1.26-1.42-1.26ZM94.94,96.02c-.23-.44-.54-.77-.93-1-.4-.23-.86-.35-1.38-.35s-.98.12-1.39.35c-.4.23-.71.56-.94,1-.22.43-.33.94-.33,1.52s.11,1.09.33,1.53c.23.43.54.77.94,1.01.41.23.87.35,1.39.35s.98-.12,1.38-.35c.39-.24.7-.58.93-1.01.22-.44.34-.95.34-1.53s-.12-1.09-.34-1.52ZM111.26,95c-.24-.22-.59-.33-1.06-.33h-1.45v2.54h1.45c.47,0,.82-.11,1.06-.34.23-.22.35-.54.35-.95s-.12-.7-.35-.92ZM154.17,96.02c-.23-.44-.54-.77-.94-1-.39-.23-.85-.35-1.37-.35s-.99.12-1.39.35c-.4.23-.71.56-.94,1-.22.43-.33.94-.33,1.52s.11,1.09.33,1.53c.23.43.54.77.94,1.01.4.23.87.35,1.39.35s.98-.12,1.37-.35c.4-.24.71-.58.94-1.01.22-.44.33-.95.33-1.53s-.11-1.09-.33-1.52ZM154.17,96.02c-.23-.44-.54-.77-.94-1-.39-.23-.85-.35-1.37-.35s-.99.12-1.39.35c-.4.23-.71.56-.94,1-.22.43-.33.94-.33,1.52s.11,1.09.33,1.53c.23.43.54.77.94,1.01.4.23.87.35,1.39.35s.98-.12,1.37-.35c.4-.24.71-.58.94-1.01.22-.44.33-.95.33-1.53s-.11-1.09-.33-1.52ZM111.26,95c-.24-.22-.59-.33-1.06-.33h-1.45v2.54h1.45c.47,0,.82-.11,1.06-.34.23-.22.35-.54.35-.95s-.12-.7-.35-.92ZM94.94,96.02c-.23-.44-.54-.77-.93-1-.4-.23-.86-.35-1.38-.35s-.98.12-1.39.35c-.4.23-.71.56-.94,1-.22.43-.33.94-.33,1.52s.11,1.09.33,1.53c.23.43.54.77.94,1.01.41.23.87.35,1.39.35s.98-.12,1.38-.35c.39-.24.7-.58.93-1.01.22-.44.34-.95.34-1.53s-.12-1.09-.34-1.52ZM84.17,94.65h-1.38v2.52h1.38c.48,0,.84-.12,1.07-.33.23-.22.35-.53.35-.93,0-.84-.47-1.26-1.42-1.26ZM52.25,96.02c-.22-.44-.53-.77-.93-1-.4-.23-.86-.35-1.38-.35s-.98.12-1.38.35c-.4.23-.72.56-.94,1-.22.43-.33.94-.33,1.52s.11,1.09.33,1.53c.22.43.54.77.94,1.01.4.23.86.35,1.38.35s.98-.12,1.38-.35c.4-.24.71-.58.93-1.01.23-.44.34-.95.34-1.53s-.11-1.09-.34-1.52ZM42.21,95c-.24-.22-.59-.33-1.06-.33h-1.45v2.54h1.45c.47,0,.82-.11,1.06-.34.23-.22.34-.54.34-.95s-.11-.7-.34-.92ZM42.21,95c-.24-.22-.59-.33-1.06-.33h-1.45v2.54h1.45c.47,0,.82-.11,1.06-.34.23-.22.34-.54.34-.95s-.11-.7-.34-.92ZM52.25,96.02c-.22-.44-.53-.77-.93-1-.4-.23-.86-.35-1.38-.35s-.98.12-1.38.35c-.4.23-.72.56-.94,1-.22.43-.33.94-.33,1.52s.11,1.09.33,1.53c.22.43.54.77.94,1.01.4.23.86.35,1.38.35s.98-.12,1.38-.35c.4-.24.71-.58.93-1.01.23-.44.34-.95.34-1.53s-.11-1.09-.34-1.52ZM84.17,94.65h-1.38v2.52h1.38c.48,0,.84-.12,1.07-.33.23-.22.35-.53.35-.93,0-.84-.47-1.26-1.42-1.26ZM94.94,96.02c-.23-.44-.54-.77-.93-1-.4-.23-.86-.35-1.38-.35s-.98.12-1.39.35c-.4.23-.71.56-.94,1-.22.43-.33.94-.33,1.52s.11,1.09.33,1.53c.23.43.54.77.94,1.01.41.23.87.35,1.39.35s.98-.12,1.38-.35c.39-.24.7-.58.93-1.01.22-.44.34-.95.34-1.53s-.12-1.09-.34-1.52ZM111.26,95c-.24-.22-.59-.33-1.06-.33h-1.45v2.54h1.45c.47,0,.82-.11,1.06-.34.23-.22.35-.54.35-.95s-.12-.7-.35-.92ZM154.17,96.02c-.23-.44-.54-.77-.94-1-.39-.23-.85-.35-1.37-.35s-.99.12-1.39.35c-.4.23-.71.56-.94,1-.22.43-.33.94-.33,1.52s.11,1.09.33,1.53c.23.43.54.77.94,1.01.4.23.87.35,1.39.35s.98-.12,1.37-.35c.4-.24.71-.58.94-1.01.22-.44.33-.95.33-1.53s-.11-1.09-.33-1.52ZM154.17,96.02c-.23-.44-.54-.77-.94-1-.39-.23-.85-.35-1.37-.35s-.99.12-1.39.35c-.4.23-.71.56-.94,1-.22.43-.33.94-.33,1.52s.11,1.09.33,1.53c.23.43.54.77.94,1.01.4.23.87.35,1.39.35s.98-.12,1.37-.35c.4-.24.71-.58.94-1.01.22-.44.33-.95.33-1.53s-.11-1.09-.33-1.52ZM111.26,95c-.24-.22-.59-.33-1.06-.33h-1.45v2.54h1.45c.47,0,.82-.11,1.06-.34.23-.22.35-.54.35-.95s-.12-.7-.35-.92ZM94.94,96.02c-.23-.44-.54-.77-.93-1-.4-.23-.86-.35-1.38-.35s-.98.12-1.39.35c-.4.23-.71.56-.94,1-.22.43-.33.94-.33,1.52s.11,1.09.33,1.53c.23.43.54.77.94,1.01.41.23.87.35,1.39.35s.98-.12,1.38-.35c.39-.24.7-.58.93-1.01.22-.44.34-.95.34-1.53s-.12-1.09-.34-1.52ZM84.17,94.65h-1.38v2.52h1.38c.48,0,.84-.12,1.07-.33.23-.22.35-.53.35-.93,0-.84-.47-1.26-1.42-1.26ZM52.25,96.02c-.22-.44-.53-.77-.93-1-.4-.23-.86-.35-1.38-.35s-.98.12-1.38.35c-.4.23-.72.56-.94,1-.22.43-.33.94-.33,1.52s.11,1.09.33,1.53c.22.43.54.77.94,1.01.4.23.86.35,1.38.35s.98-.12,1.38-.35c.4-.24.71-.58.93-1.01.23-.44.34-.95.34-1.53s-.11-1.09-.34-1.52ZM42.21,95c-.24-.22-.59-.33-1.06-.33h-1.45v2.54h1.45c.47,0,.82-.11,1.06-.34.23-.22.34-.54.34-.95s-.11-.7-.34-.92ZM42.21,95c-.24-.22-.59-.33-1.06-.33h-1.45v2.54h1.45c.47,0,.82-.11,1.06-.34.23-.22.34-.54.34-.95s-.11-.7-.34-.92ZM52.25,96.02c-.22-.44-.53-.77-.93-1-.4-.23-.86-.35-1.38-.35s-.98.12-1.38.35c-.4.23-.72.56-.94,1-.22.43-.33.94-.33,1.52s.11,1.09.33,1.53c.22.43.54.77.94,1.01.4.23.86.35,1.38.35s.98-.12,1.38-.35c.4-.24.71-.58.93-1.01.23-.44.34-.95.34-1.53s-.11-1.09-.34-1.52ZM84.17,94.65h-1.38v2.52h1.38c.48,0,.84-.12,1.07-.33.23-.22.35-.53.35-.93,0-.84-.47-1.26-1.42-1.26ZM94.94,96.02c-.23-.44-.54-.77-.93-1-.4-.23-.86-.35-1.38-.35s-.98.12-1.39.35c-.4.23-.71.56-.94,1-.22.43-.33.94-.33,1.52s.11,1.09.33,1.53c.23.43.54.77.94,1.01.41.23.87.35,1.39.35s.98-.12,1.38-.35c.39-.24.7-.58.93-1.01.22-.44.34-.95.34-1.53s-.12-1.09-.34-1.52ZM111.26,95c-.24-.22-.59-.33-1.06-.33h-1.45v2.54h1.45c.47,0,.82-.11,1.06-.34.23-.22.35-.54.35-.95s-.12-.7-.35-.92ZM154.17,96.02c-.23-.44-.54-.77-.94-1-.39-.23-.85-.35-1.37-.35s-.99.12-1.39.35c-.4.23-.71.56-.94,1-.22.43-.33.94-.33,1.52s.11,1.09.33,1.53c.23.43.54.77.94,1.01.4.23.87.35,1.39.35s.98-.12,1.37-.35c.4-.24.71-.58.94-1.01.22-.44.33-.95.33-1.53s-.11-1.09-.33-1.52ZM154.17,96.02c-.23-.44-.54-.77-.94-1-.39-.23-.85-.35-1.37-.35s-.99.12-1.39.35c-.4.23-.71.56-.94,1-.22.43-.33.94-.33,1.52s.11,1.09.33,1.53c.23.43.54.77.94,1.01.4.23.87.35,1.39.35s.98-.12,1.37-.35c.4-.24.71-.58.94-1.01.22-.44.33-.95.33-1.53s-.11-1.09-.33-1.52ZM111.26,95c-.24-.22-.59-.33-1.06-.33h-1.45v2.54h1.45c.47,0,.82-.11,1.06-.34.23-.22.35-.54.35-.95s-.12-.7-.35-.92ZM94.94,96.02c-.23-.44-.54-.77-.93-1-.4-.23-.86-.35-1.38-.35s-.98.12-1.39.35c-.4.23-.71.56-.94,1-.22.43-.33.94-.33,1.52s.11,1.09.33,1.53c.23.43.54.77.94,1.01.41.23.87.35,1.39.35s.98-.12,1.38-.35c.39-.24.7-.58.93-1.01.22-.44.34-.95.34-1.53s-.12-1.09-.34-1.52ZM84.17,94.65h-1.38v2.52h1.38c.48,0,.84-.12,1.07-.33.23-.22.35-.53.35-.93,0-.84-.47-1.26-1.42-1.26ZM52.25,96.02c-.22-.44-.53-.77-.93-1-.4-.23-.86-.35-1.38-.35s-.98.12-1.38.35c-.4.23-.72.56-.94,1-.22.43-.33.94-.33,1.52s.11,1.09.33,1.53c.22.43.54.77.94,1.01.4.23.86.35,1.38.35s.98-.12,1.38-.35c.4-.24.71-.58.93-1.01.23-.44.34-.95.34-1.53s-.11-1.09-.34-1.52ZM42.21,95c-.24-.22-.59-.33-1.06-.33h-1.45v2.54h1.45c.47,0,.82-.11,1.06-.34.23-.22.34-.54.34-.95s-.11-.7-.34-.92ZM42.21,95c-.24-.22-.59-.33-1.06-.33h-1.45v2.54h1.45c.47,0,.82-.11,1.06-.34.23-.22.34-.54.34-.95s-.11-.7-.34-.92ZM52.25,96.02c-.22-.44-.53-.77-.93-1-.4-.23-.86-.35-1.38-.35s-.98.12-1.38.35c-.4.23-.72.56-.94,1-.22.43-.33.94-.33,1.52s.11,1.09.33,1.53c.22.43.54.77.94,1.01.4.23.86.35,1.38.35s.98-.12,1.38-.35c.4-.24.71-.58.93-1.01.23-.44.34-.95.34-1.53s-.11-1.09-.34-1.52ZM84.17,94.65h-1.38v2.52h1.38c.48,0,.84-.12,1.07-.33.23-.22.35-.53.35-.93,0-.84-.47-1.26-1.42-1.26ZM94.94,96.02c-.23-.44-.54-.77-.93-1-.4-.23-.86-.35-1.38-.35s-.98.12-1.39.35c-.4.23-.71.56-.94,1-.22.43-.33.94-.33,1.52s.11,1.09.33,1.53c.23.43.54.77.94,1.01.41.23.87.35,1.39.35s.98-.12,1.38-.35c.39-.24.7-.58.93-1.01.22-.44.34-.95.34-1.53s-.12-1.09-.34-1.52ZM111.26,95c-.24-.22-.59-.33-1.06-.33h-1.45v2.54h1.45c.47,0,.82-.11,1.06-.34.23-.22.35-.54.35-.95s-.12-.7-.35-.92ZM154.17,96.02c-.23-.44-.54-.77-.94-1-.39-.23-.85-.35-1.37-.35s-.99.12-1.39.35c-.4.23-.71.56-.94,1-.22.43-.33.94-.33,1.52s.11,1.09.33,1.53c.23.43.54.77.94,1.01.4.23.87.35,1.39.35s.98-.12,1.37-.35c.4-.24.71-.58.94-1.01.22-.44.33-.95.33-1.53s-.11-1.09-.33-1.52ZM154.17,96.02c-.23-.44-.54-.77-.94-1-.39-.23-.85-.35-1.37-.35s-.99.12-1.39.35c-.4.23-.71.56-.94,1-.22.43-.33.94-.33,1.52s.11,1.09.33,1.53c.23.43.54.77.94,1.01.4.23.87.35,1.39.35s.98-.12,1.37-.35c.4-.24.71-.58.94-1.01.22-.44.33-.95.33-1.53s-.11-1.09-.33-1.52ZM111.26,95c-.24-.22-.59-.33-1.06-.33h-1.45v2.54h1.45c.47,0,.82-.11,1.06-.34.23-.22.35-.54.35-.95s-.12-.7-.35-.92ZM94.94,96.02c-.23-.44-.54-.77-.93-1-.4-.23-.86-.35-1.38-.35s-.98.12-1.39.35c-.4.23-.71.56-.94,1-.22.43-.33.94-.33,1.52s.11,1.09.33,1.53c.23.43.54.77.94,1.01.41.23.87.35,1.39.35s.98-.12,1.38-.35c.39-.24.7-.58.93-1.01.22-.44.34-.95.34-1.53s-.12-1.09-.34-1.52ZM84.17,94.65h-1.38v2.52h1.38c.48,0,.84-.12,1.07-.33.23-.22.35-.53.35-.93,0-.84-.47-1.26-1.42-1.26ZM52.25,96.02c-.22-.44-.53-.77-.93-1-.4-.23-.86-.35-1.38-.35s-.98.12-1.38.35c-.4.23-.72.56-.94,1-.22.43-.33.94-.33,1.52s.11,1.09.33,1.53c.22.43.54.77.94,1.01.4.23.86.35,1.38.35s.98-.12,1.38-.35c.4-.24.71-.58.93-1.01.23-.44.34-.95.34-1.53s-.11-1.09-.34-1.52ZM42.21,95c-.24-.22-.59-.33-1.06-.33h-1.45v2.54h1.45c.47,0,.82-.11,1.06-.34.23-.22.34-.54.34-.95s-.11-.7-.34-.92ZM42.21,95c-.24-.22-.59-.33-1.06-.33h-1.45v2.54h1.45c.47,0,.82-.11,1.06-.34.23-.22.34-.54.34-.95s-.11-.7-.34-.92ZM52.25,96.02c-.22-.44-.53-.77-.93-1-.4-.23-.86-.35-1.38-.35s-.98.12-1.38.35c-.4.23-.72.56-.94,1-.22.43-.33.94-.33,1.52s.11,1.09.33,1.53c.22.43.54.77.94,1.01.4.23.86.35,1.38.35s.98-.12,1.38-.35c.4-.24.71-.58.93-1.01.23-.44.34-.95.34-1.53s-.11-1.09-.34-1.52ZM84.17,94.65h-1.38v2.52h1.38c.48,0,.84-.12,1.07-.33.23-.22.35-.53.35-.93,0-.84-.47-1.26-1.42-1.26ZM94.94,96.02c-.23-.44-.54-.77-.93-1-.4-.23-.86-.35-1.38-.35s-.98.12-1.39.35c-.4.23-.71.56-.94,1-.22.43-.33.94-.33,1.52s.11,1.09.33,1.53c.23.43.54.77.94,1.01.41.23.87.35,1.39.35s.98-.12,1.38-.35c.39-.24.7-.58.93-1.01.22-.44.34-.95.34-1.53s-.12-1.09-.34-1.52ZM111.26,95c-.24-.22-.59-.33-1.06-.33h-1.45v2.54h1.45c.47,0,.82-.11,1.06-.34.23-.22.35-.54.35-.95s-.12-.7-.35-.92ZM154.17,96.02c-.23-.44-.54-.77-.94-1-.39-.23-.85-.35-1.37-.35s-.99.12-1.39.35c-.4.23-.71.56-.94,1-.22.43-.33.94-.33,1.52s.11,1.09.33,1.53c.23.43.54.77.94,1.01.4.23.87.35,1.39.35s.98-.12,1.37-.35c.4-.24.71-.58.94-1.01.22-.44.33-.95.33-1.53s-.11-1.09-.33-1.52ZM154.17,96.02c-.23-.44-.54-.77-.94-1-.39-.23-.85-.35-1.37-.35s-.99.12-1.39.35c-.4.23-.71.56-.94,1-.22.43-.33.94-.33,1.52s.11,1.09.33,1.53c.23.43.54.77.94,1.01.4.23.87.35,1.39.35s.98-.12,1.37-.35c.4-.24.71-.58.94-1.01.22-.44.33-.95.33-1.53s-.11-1.09-.33-1.52ZM111.26,95c-.24-.22-.59-.33-1.06-.33h-1.45v2.54h1.45c.47,0,.82-.11,1.06-.34.23-.22.35-.54.35-.95s-.12-.7-.35-.92ZM94.94,96.02c-.23-.44-.54-.77-.93-1-.4-.23-.86-.35-1.38-.35s-.98.12-1.39.35c-.4.23-.71.56-.94,1-.22.43-.33.94-.33,1.52s.11,1.09.33,1.53c.23.43.54.77.94,1.01.41.23.87.35,1.39.35s.98-.12,1.38-.35c.39-.24.7-.58.93-1.01.22-.44.34-.95.34-1.53s-.12-1.09-.34-1.52ZM84.17,94.65h-1.38v2.52h1.38c.48,0,.84-.12,1.07-.33.23-.22.35-.53.35-.93,0-.84-.47-1.26-1.42-1.26ZM52.25,96.02c-.22-.44-.53-.77-.93-1-.4-.23-.86-.35-1.38-.35s-.98.12-1.38.35c-.4.23-.72.56-.94,1-.22.43-.33.94-.33,1.52s.11,1.09.33,1.53c.22.43.54.77.94,1.01.4.23.86.35,1.38.35s.98-.12,1.38-.35c.4-.24.71-.58.93-1.01.23-.44.34-.95.34-1.53s-.11-1.09-.34-1.52ZM42.21,95c-.24-.22-.59-.33-1.06-.33h-1.45v2.54h1.45c.47,0,.82-.11,1.06-.34.23-.22.34-.54.34-.95s-.11-.7-.34-.92ZM42.21,95c-.24-.22-.59-.33-1.06-.33h-1.45v2.54h1.45c.47,0,.82-.11,1.06-.34.23-.22.34-.54.34-.95s-.11-.7-.34-.92ZM52.25,96.02c-.22-.44-.53-.77-.93-1-.4-.23-.86-.35-1.38-.35s-.98.12-1.38.35c-.4.23-.72.56-.94,1-.22.43-.33.94-.33,1.52s.11,1.09.33,1.53c.22.43.54.77.94,1.01.4.23.86.35,1.38.35s.98-.12,1.38-.35c.4-.24.71-.58.93-1.01.23-.44.34-.95.34-1.53s-.11-1.09-.34-1.52ZM84.17,94.65h-1.38v2.52h1.38c.48,0,.84-.12,1.07-.33.23-.22.35-.53.35-.93,0-.84-.47-1.26-1.42-1.26ZM94.94,96.02c-.23-.44-.54-.77-.93-1-.4-.23-.86-.35-1.38-.35s-.98.12-1.39.35c-.4.23-.71.56-.94,1-.22.43-.33.94-.33,1.52s.11,1.09.33,1.53c.23.43.54.77.94,1.01.41.23.87.35,1.39.35s.98-.12,1.38-.35c.39-.24.7-.58.93-1.01.22-.44.34-.95.34-1.53s-.12-1.09-.34-1.52ZM111.26,95c-.24-.22-.59-.33-1.06-.33h-1.45v2.54h1.45c.47,0,.82-.11,1.06-.34.23-.22.35-.54.35-.95s-.12-.7-.35-.92ZM154.17,96.02c-.23-.44-.54-.77-.94-1-.39-.23-.85-.35-1.37-.35s-.99.12-1.39.35c-.4.23-.71.56-.94,1-.22.43-.33.94-.33,1.52s.11,1.09.33,1.53c.23.43.54.77.94,1.01.4.23.87.35,1.39.35s.98-.12,1.37-.35c.4-.24.71-.58.94-1.01.22-.44.33-.95.33-1.53s-.11-1.09-.33-1.52ZM154.17,96.02c-.23-.44-.54-.77-.94-1-.39-.23-.85-.35-1.37-.35s-.99.12-1.39.35c-.4.23-.71.56-.94,1-.22.43-.33.94-.33,1.52s.11,1.09.33,1.53c.23.43.54.77.94,1.01.4.23.87.35,1.39.35s.98-.12,1.37-.35c.4-.24.71-.58.94-1.01.22-.44.33-.95.33-1.53s-.11-1.09-.33-1.52ZM111.26,95c-.24-.22-.59-.33-1.06-.33h-1.45v2.54h1.45c.47,0,.82-.11,1.06-.34.23-.22.35-.54.35-.95s-.12-.7-.35-.92ZM94.94,96.02c-.23-.44-.54-.77-.93-1-.4-.23-.86-.35-1.38-.35s-.98.12-1.39.35c-.4.23-.71.56-.94,1-.22.43-.33.94-.33,1.52s.11,1.09.33,1.53c.23.43.54.77.94,1.01.41.23.87.35,1.39.35s.98-.12,1.38-.35c.39-.24.7-.58.93-1.01.22-.44.34-.95.34-1.53s-.12-1.09-.34-1.52ZM84.17,94.65h-1.38v2.52h1.38c.48,0,.84-.12,1.07-.33.23-.22.35-.53.35-.93,0-.84-.47-1.26-1.42-1.26ZM52.25,96.02c-.22-.44-.53-.77-.93-1-.4-.23-.86-.35-1.38-.35s-.98.12-1.38.35c-.4.23-.72.56-.94,1-.22.43-.33.94-.33,1.52s.11,1.09.33,1.53c.22.43.54.77.94,1.01.4.23.86.35,1.38.35s.98-.12,1.38-.35c.4-.24.71-.58.93-1.01.23-.44.34-.95.34-1.53s-.11-1.09-.34-1.52ZM42.21,95c-.24-.22-.59-.33-1.06-.33h-1.45v2.54h1.45c.47,0,.82-.11,1.06-.34.23-.22.34-.54.34-.95s-.11-.7-.34-.92ZM42.21,95c-.24-.22-.59-.33-1.06-.33h-1.45v2.54h1.45c.47,0,.82-.11,1.06-.34.23-.22.34-.54.34-.95s-.11-.7-.34-.92ZM52.25,96.02c-.22-.44-.53-.77-.93-1-.4-.23-.86-.35-1.38-.35s-.98.12-1.38.35c-.4.23-.72.56-.94,1-.22.43-.33.94-.33,1.52s.11,1.09.33,1.53c.22.43.54.77.94,1.01.4.23.86.35,1.38.35s.98-.12,1.38-.35c.4-.24.71-.58.93-1.01.23-.44.34-.95.34-1.53s-.11-1.09-.34-1.52ZM84.17,94.65h-1.38v2.52h1.38c.48,0,.84-.12,1.07-.33.23-.22.35-.53.35-.93,0-.84-.47-1.26-1.42-1.26ZM94.94,96.02c-.23-.44-.54-.77-.93-1-.4-.23-.86-.35-1.38-.35s-.98.12-1.39.35c-.4.23-.71.56-.94,1-.22.43-.33.94-.33,1.52s.11,1.09.33,1.53c.23.43.54.77.94,1.01.41.23.87.35,1.39.35s.98-.12,1.38-.35c.39-.24.7-.58.93-1.01.22-.44.34-.95.34-1.53s-.12-1.09-.34-1.52ZM111.26,95c-.24-.22-.59-.33-1.06-.33h-1.45v2.54h1.45c.47,0,.82-.11,1.06-.34.23-.22.35-.54.35-.95s-.12-.7-.35-.92ZM111.26,95c-.24-.22-.59-.33-1.06-.33h-1.45v2.54h1.45c.47,0,.82-.11,1.06-.34.23-.22.35-.54.35-.95s-.12-.7-.35-.92ZM94.94,96.02c-.23-.44-.54-.77-.93-1-.4-.23-.86-.35-1.38-.35s-.98.12-1.39.35c-.4.23-.71.56-.94,1-.22.43-.33.94-.33,1.52s.11,1.09.33,1.53c.23.43.54.77.94,1.01.41.23.87.35,1.39.35s.98-.12,1.38-.35c.39-.24.7-.58.93-1.01.22-.44.34-.95.34-1.53s-.12-1.09-.34-1.52ZM84.17,94.65h-1.38v2.52h1.38c.48,0,.84-.12,1.07-.33.23-.22.35-.53.35-.93,0-.84-.47-1.26-1.42-1.26ZM52.25,96.02c-.22-.44-.53-.77-.93-1-.4-.23-.86-.35-1.38-.35s-.98.12-1.38.35c-.4.23-.72.56-.94,1-.22.43-.33.94-.33,1.52s.11,1.09.33,1.53c.22.43.54.77.94,1.01.4.23.86.35,1.38.35s.98-.12,1.38-.35c.4-.24.71-.58.93-1.01.23-.44.34-.95.34-1.53s-.11-1.09-.34-1.52ZM42.21,95c-.24-.22-.59-.33-1.06-.33h-1.45v2.54h1.45c.47,0,.82-.11,1.06-.34.23-.22.34-.54.34-.95s-.11-.7-.34-.92ZM42.21,95c-.24-.22-.59-.33-1.06-.33h-1.45v2.54h1.45c.47,0,.82-.11,1.06-.34.23-.22.34-.54.34-.95s-.11-.7-.34-.92ZM52.25,96.02c-.22-.44-.53-.77-.93-1-.4-.23-.86-.35-1.38-.35s-.98.12-1.38.35c-.4.23-.72.56-.94,1-.22.43-.33.94-.33,1.52s.11,1.09.33,1.53c.22.43.54.77.94,1.01.4.23.86.35,1.38.35s.98-.12,1.38-.35c.4-.24.71-.58.93-1.01.23-.44.34-.95.34-1.53s-.11-1.09-.34-1.52ZM84.17,94.65h-1.38v2.52h1.38c.48,0,.84-.12,1.07-.33.23-.22.35-.53.35-.93,0-.84-.47-1.26-1.42-1.26ZM94.94,96.02c-.23-.44-.54-.77-.93-1-.4-.23-.86-.35-1.38-.35s-.98.12-1.39.35c-.4.23-.71.56-.94,1-.22.43-.33.94-.33,1.52s.11,1.09.33,1.53c.23.43.54.77.94,1.01.41.23.87.35,1.39.35s.98-.12,1.38-.35c.39-.24.7-.58.93-1.01.22-.44.34-.95.34-1.53s-.12-1.09-.34-1.52ZM111.26,95c-.24-.22-.59-.33-1.06-.33h-1.45v2.54h1.45c.47,0,.82-.11,1.06-.34.23-.22.35-.54.35-.95s-.12-.7-.35-.92ZM111.26,95c-.24-.22-.59-.33-1.06-.33h-1.45v2.54h1.45c.47,0,.82-.11,1.06-.34.23-.22.35-.54.35-.95s-.12-.7-.35-.92ZM94.94,96.02c-.23-.44-.54-.77-.93-1-.4-.23-.86-.35-1.38-.35s-.98.12-1.39.35c-.4.23-.71.56-.94,1-.22.43-.33.94-.33,1.52s.11,1.09.33,1.53c.23.43.54.77.94,1.01.41.23.87.35,1.39.35s.98-.12,1.38-.35c.39-.24.7-.58.93-1.01.22-.44.34-.95.34-1.53s-.12-1.09-.34-1.52ZM84.17,94.65h-1.38v2.52h1.38c.48,0,.84-.12,1.07-.33.23-.22.35-.53.35-.93,0-.84-.47-1.26-1.42-1.26ZM52.25,96.02c-.22-.44-.53-.77-.93-1-.4-.23-.86-.35-1.38-.35s-.98.12-1.38.35c-.4.23-.72.56-.94,1-.22.43-.33.94-.33,1.52s.11,1.09.33,1.53c.22.43.54.77.94,1.01.4.23.86.35,1.38.35s.98-.12,1.38-.35c.4-.24.71-.58.93-1.01.23-.44.34-.95.34-1.53s-.11-1.09-.34-1.52ZM42.21,95c-.24-.22-.59-.33-1.06-.33h-1.45v2.54h1.45c.47,0,.82-.11,1.06-.34.23-.22.34-.54.34-.95s-.11-.7-.34-.92ZM42.21,95c-.24-.22-.59-.33-1.06-.33h-1.45v2.54h1.45c.47,0,.82-.11,1.06-.34.23-.22.34-.54.34-.95s-.11-.7-.34-.92ZM52.25,96.02c-.22-.44-.53-.77-.93-1-.4-.23-.86-.35-1.38-.35s-.98.12-1.38.35c-.4.23-.72.56-.94,1-.22.43-.33.94-.33,1.52s.11,1.09.33,1.53c.22.43.54.77.94,1.01.4.23.86.35,1.38.35s.98-.12,1.38-.35c.4-.24.71-.58.93-1.01.23-.44.34-.95.34-1.53s-.11-1.09-.34-1.52ZM84.17,94.65h-1.38v2.52h1.38c.48,0,.84-.12,1.07-.33.23-.22.35-.53.35-.93,0-.84-.47-1.26-1.42-1.26ZM94.94,96.02c-.23-.44-.54-.77-.93-1-.4-.23-.86-.35-1.38-.35s-.98.12-1.39.35c-.4.23-.71.56-.94,1-.22.43-.33.94-.33,1.52s.11,1.09.33,1.53c.23.43.54.77.94,1.01.41.23.87.35,1.39.35s.98-.12,1.38-.35c.39-.24.7-.58.93-1.01.22-.44.34-.95.34-1.53s-.12-1.09-.34-1.52ZM94.94,96.02c-.23-.44-.54-.77-.93-1-.4-.23-.86-.35-1.38-.35s-.98.12-1.39.35c-.4.23-.71.56-.94,1-.22.43-.33.94-.33,1.52s.11,1.09.33,1.53c.23.43.54.77.94,1.01.41.23.87.35,1.39.35s.98-.12,1.38-.35c.39-.24.7-.58.93-1.01.22-.44.34-.95.34-1.53s-.12-1.09-.34-1.52ZM84.17,94.65h-1.38v2.52h1.38c.48,0,.84-.12,1.07-.33.23-.22.35-.53.35-.93,0-.84-.47-1.26-1.42-1.26ZM52.25,96.02c-.22-.44-.53-.77-.93-1-.4-.23-.86-.35-1.38-.35s-.98.12-1.38.35c-.4.23-.72.56-.94,1-.22.43-.33.94-.33,1.52s.11,1.09.33,1.53c.22.43.54.77.94,1.01.4.23.86.35,1.38.35s.98-.12,1.38-.35c.4-.24.71-.58.93-1.01.23-.44.34-.95.34-1.53s-.11-1.09-.34-1.52ZM42.21,95c-.24-.22-.59-.33-1.06-.33h-1.45v2.54h1.45c.47,0,.82-.11,1.06-.34.23-.22.34-.54.34-.95s-.11-.7-.34-.92ZM42.21,95c-.24-.22-.59-.33-1.06-.33h-1.45v2.54h1.45c.47,0,.82-.11,1.06-.34.23-.22.34-.54.34-.95s-.11-.7-.34-.92ZM52.25,96.02c-.22-.44-.53-.77-.93-1-.4-.23-.86-.35-1.38-.35s-.98.12-1.38.35c-.4.23-.72.56-.94,1-.22.43-.33.94-.33,1.52s.11,1.09.33,1.53c.22.43.54.77.94,1.01.4.23.86.35,1.38.35s.98-.12,1.38-.35c.4-.24.71-.58.93-1.01.23-.44.34-.95.34-1.53s-.11-1.09-.34-1.52ZM84.17,94.65h-1.38v2.52h1.38c.48,0,.84-.12,1.07-.33.23-.22.35-.53.35-.93,0-.84-.47-1.26-1.42-1.26ZM84.17,94.65h-1.38v2.52h1.38c.48,0,.84-.12,1.07-.33.23-.22.35-.53.35-.93,0-.84-.47-1.26-1.42-1.26ZM52.25,96.02c-.22-.44-.53-.77-.93-1-.4-.23-.86-.35-1.38-.35s-.98.12-1.38.35c-.4.23-.72.56-.94,1-.22.43-.33.94-.33,1.52s.11,1.09.33,1.53c.22.43.54.77.94,1.01.4.23.86.35,1.38.35s.98-.12,1.38-.35c.4-.24.71-.58.93-1.01.23-.44.34-.95.34-1.53s-.11-1.09-.34-1.52ZM42.21,95c-.24-.22-.59-.33-1.06-.33h-1.45v2.54h1.45c.47,0,.82-.11,1.06-.34.23-.22.34-.54.34-.95s-.11-.7-.34-.92ZM42.21,95c-.24-.22-.59-.33-1.06-.33h-1.45v2.54h1.45c.47,0,.82-.11,1.06-.34.23-.22.34-.54.34-.95s-.11-.7-.34-.92ZM52.25,96.02c-.22-.44-.53-.77-.93-1-.4-.23-.86-.35-1.38-.35s-.98.12-1.38.35c-.4.23-.72.56-.94,1-.22.43-.33.94-.33,1.52s.11,1.09.33,1.53c.22.43.54.77.94,1.01.4.23.86.35,1.38.35s.98-.12,1.38-.35c.4-.24.71-.58.93-1.01.23-.44.34-.95.34-1.53s-.11-1.09-.34-1.52ZM52.25,96.02c-.22-.44-.53-.77-.93-1-.4-.23-.86-.35-1.38-.35s-.98.12-1.38.35c-.4.23-.72.56-.94,1-.22.43-.33.94-.33,1.52s.11,1.09.33,1.53c.22.43.54.77.94,1.01.4.23.86.35,1.38.35s.98-.12,1.38-.35c.4-.24.71-.58.93-1.01.23-.44.34-.95.34-1.53s-.11-1.09-.34-1.52ZM42.21,95c-.24-.22-.59-.33-1.06-.33h-1.45v2.54h1.45c.47,0,.82-.11,1.06-.34.23-.22.34-.54.34-.95s-.11-.7-.34-.92ZM42.21,95c-.24-.22-.59-.33-1.06-.33h-1.45v2.54h1.45c.47,0,.82-.11,1.06-.34.23-.22.34-.54.34-.95s-.11-.7-.34-.92ZM52.25,96.02c-.22-.44-.53-.77-.93-1-.4-.23-.86-.35-1.38-.35s-.98.12-1.38.35c-.4.23-.72.56-.94,1-.22.43-.33.94-.33,1.52s.11,1.09.33,1.53c.22.43.54.77.94,1.01.4.23.86.35,1.38.35s.98-.12,1.38-.35c.4-.24.71-.58.93-1.01.23-.44.34-.95.34-1.53s-.11-1.09-.34-1.52ZM52.25,96.02c-.22-.44-.53-.77-.93-1-.4-.23-.86-.35-1.38-.35s-.98.12-1.38.35c-.4.23-.72.56-.94,1-.22.43-.33.94-.33,1.52s.11,1.09.33,1.53c.22.43.54.77.94,1.01.4.23.86.35,1.38.35s.98-.12,1.38-.35c.4-.24.71-.58.93-1.01.23-.44.34-.95.34-1.53s-.11-1.09-.34-1.52ZM42.21,95c-.24-.22-.59-.33-1.06-.33h-1.45v2.54h1.45c.47,0,.82-.11,1.06-.34.23-.22.34-.54.34-.95s-.11-.7-.34-.92Z"/>
  <path class="cls-1" d="M155.7,95.26c-.39-.68-.93-1.2-1.6-1.58-.68-.38-1.42-.58-2.24-.58s-1.56.2-2.24.58c-.68.38-1.22.9-1.62,1.58-.39.68-.59,1.43-.59,2.28s.2,1.61.59,2.29c.4.67.94,1.2,1.62,1.58.68.38,1.42.57,2.24.57s1.55-.19,2.23-.57c.68-.38,1.22-.91,1.61-1.58.39-.68.59-1.44.59-2.29s-.2-1.6-.59-2.28ZM154.17,99.07c-.23.43-.54.77-.94,1.01-.39.23-.85.35-1.37.35s-.99-.12-1.39-.35c-.4-.24-.71-.58-.94-1.01-.22-.44-.33-.95-.33-1.53s.11-1.09.33-1.52c.23-.44.54-.77.94-1,.4-.23.87-.35,1.39-.35s.98.12,1.37.35c.4.23.71.56.94,1,.22.43.33.94.33,1.52s-.11,1.09-.33,1.53Z"/>
  <path class="cls-1" d="M145.81,93.23v6.08c0,.85-.25,1.5-.74,1.97-.49.47-1.14.7-1.96.7s-1.5-.24-2-.72c-.51-.48-.77-1.15-.77-2.01h1.74c0,.37.1.67.27.87.17.21.41.31.74.31.31,0,.55-.1.72-.3.16-.19.24-.47.24-.82v-6.08h1.76Z"/>
  <path class="cls-1" d="M136.29,99.39c0,.46-.12.89-.36,1.29-.24.4-.59.72-1.05.95-.46.24-1.02.35-1.65.35s-1.15-.1-1.64-.3c-.48-.21-.86-.51-1.15-.9-.28-.39-.42-.85-.43-1.38h1.86c.03.36.15.64.38.85.23.2.54.31.94.31s.73-.1.96-.3c.23-.19.34-.45.34-.76,0-.26-.07-.47-.23-.63-.16-.17-.35-.3-.59-.39-.24-.1-.56-.2-.98-.32-.56-.17-1.02-.33-1.37-.49-.35-.16-.65-.41-.91-.73-.25-.33-.38-.77-.38-1.31s.13-.96.39-1.34c.26-.39.62-.68,1.08-.88.47-.2.99-.31,1.59-.31.89,0,1.62.22,2.18.66.56.43.87,1.04.92,1.81h-1.91c-.01-.29-.14-.54-.37-.73-.24-.2-.56-.3-.94-.3-.34,0-.61.09-.82.27-.2.17-.3.42-.3.75,0,.24.07.43.23.58.15.16.34.28.57.37.23.1.55.21.96.33.56.17,1.02.33,1.38.5.36.16.66.41.92.75.25.33.38.76.38,1.3Z"/>
  <polygon class="cls-1" points="125.37 94.63 125.37 96.81 128.28 96.81 128.28 98.18 125.37 98.18 125.37 100.48 128.66 100.48 128.66 101.9 123.63 101.9 123.63 93.22 128.66 93.22 128.66 94.63 125.37 94.63"/>
  <polygon class="cls-1" points="122.52 100.52 122.52 101.9 117.93 101.9 117.93 93.23 119.67 93.23 119.67 100.52 122.52 100.52"/>
  <path class="cls-1" d="M111.42,98.38c.65-.17,1.15-.49,1.48-.95.33-.46.5-.97.5-1.55,0-.49-.12-.94-.36-1.34s-.59-.72-1.06-.96c-.47-.23-1.04-.35-1.72-.35h-3.25v8.67h1.74v-3.38h.82l1.91,3.38h2.01l-2.07-3.52ZM110.2,97.21h-1.45v-2.54h1.45c.47,0,.82.11,1.06.33.23.22.35.53.35.92,0,.41-.12.73-.35.95-.24.23-.59.34-1.06.34Z"/>
  <path class="cls-1" d="M105.33,93.23v5.35c0,.74-.16,1.36-.47,1.87-.32.51-.75.89-1.28,1.15-.54.26-1.13.38-1.79.38s-1.23-.12-1.75-.38c-.53-.26-.94-.64-1.25-1.15-.31-.51-.46-1.13-.46-1.87v-5.35h1.74v5.36c0,.59.15,1.04.46,1.35.3.31.73.47,1.29.47s.99-.16,1.3-.47.46-.76.46-1.35v-5.36h1.75Z"/>
  <path class="cls-1" d="M96.47,95.26c-.39-.68-.93-1.2-1.6-1.58-.68-.38-1.42-.58-2.24-.58s-1.56.2-2.24.58-1.22.9-1.61,1.58c-.4.68-.6,1.43-.6,2.28s.2,1.61.6,2.29c.39.67.93,1.2,1.61,1.58s1.43.57,2.24.57,1.55-.19,2.23-.57c.68-.38,1.22-.91,1.61-1.58.39-.68.59-1.44.59-2.29s-.2-1.6-.59-2.28ZM94.94,99.07c-.23.43-.54.77-.93,1.01-.4.23-.86.35-1.38.35s-.98-.12-1.39-.35c-.4-.24-.71-.58-.94-1.01-.22-.44-.33-.95-.33-1.53s.11-1.09.33-1.52c.23-.44.54-.77.94-1,.41-.23.87-.35,1.39-.35s.98.12,1.38.35c.39.23.7.56.93,1,.22.43.34.94.34,1.52s-.12,1.09-.34,1.53Z"/>
  <path class="cls-1" d="M62.65,93.23v5.35c0,.74-.16,1.36-.48,1.87-.32.51-.74.89-1.28,1.15-.53.26-1.13.38-1.78.38s-1.23-.12-1.76-.38c-.52-.26-.94-.64-1.25-1.15-.31-.51-.46-1.13-.46-1.87v-5.35h1.74v5.36c0,.59.15,1.04.46,1.35.31.31.74.47,1.29.47s1-.16,1.31-.47c.3-.31.45-.76.45-1.35v-5.36h1.76Z"/>
  <path class="cls-1" d="M87.02,94.53c-.23-.4-.59-.72-1.06-.95-.47-.23-1.04-.35-1.71-.35h-3.2v8.67h1.74v-3.33h1.46c.71,0,1.3-.12,1.76-.37.47-.25.82-.58,1.04-.99.22-.4.33-.84.33-1.3,0-.51-.12-.97-.36-1.38ZM85.24,96.84c-.23.21-.59.33-1.07.33h-1.38v-2.52h1.38c.95,0,1.42.42,1.42,1.26,0,.4-.12.71-.35.93Z"/>
  <polygon class="cls-1" points="73.23 94.63 73.23 96.81 76.15 96.81 76.15 98.18 73.23 98.18 73.23 100.48 76.52 100.48 76.52 101.9 71.49 101.9 71.49 93.22 76.52 93.22 76.52 94.63 73.23 94.63"/>
  <polygon class="cls-1" points="70.22 93.23 70.22 94.63 67.91 94.63 67.91 101.9 66.18 101.9 66.18 94.63 63.87 94.63 63.87 93.23 70.22 93.23"/>
  <path class="cls-1" d="M53.79,95.26c-.4-.68-.93-1.2-1.6-1.58-.68-.38-1.43-.58-2.25-.58s-1.56.2-2.23.58c-.68.38-1.22.9-1.62,1.58-.39.68-.59,1.43-.59,2.28s.2,1.61.59,2.29c.4.67.94,1.2,1.62,1.58.67.38,1.42.57,2.23.57s1.56-.19,2.24-.57c.68-.38,1.21-.91,1.61-1.58.39-.68.59-1.44.59-2.29s-.2-1.6-.59-2.28ZM52.25,99.07c-.22.43-.53.77-.93,1.01-.4.23-.86.35-1.38.35s-.98-.12-1.38-.35c-.4-.24-.72-.58-.94-1.01-.22-.44-.33-.95-.33-1.53s.11-1.09.33-1.52c.22-.44.54-.77.94-1,.4-.23.86-.35,1.38-.35s.98.12,1.38.35c.4.23.71.56.93,1,.23.43.34.94.34,1.52s-.11,1.09-.34,1.53Z"/>
  <path class="cls-1" d="M42.37,98.38c.65-.17,1.14-.49,1.48-.95.33-.46.49-.97.49-1.55,0-.49-.12-.94-.35-1.34-.24-.4-.59-.72-1.06-.96-.48-.23-1.05-.35-1.72-.35h-3.25v8.67h1.74v-3.38h.82l1.91,3.38h2.01l-2.07-3.52ZM41.15,97.21h-1.45v-2.54h1.45c.47,0,.82.11,1.06.33.23.22.34.53.34.92,0,.41-.11.73-.34.95-.24.23-.59.34-1.06.34Z"/>
  <polygon class="cls-1" points="33.29 93.22 33.29 101.9 31.55 101.9 27.61 95.95 27.61 101.9 25.88 101.9 25.88 93.22 27.61 93.22 31.55 99.18 31.55 93.22 33.29 93.22"/>
  <polygon class="cls-1" points="21.01 94.63 21.01 96.81 23.93 96.81 23.93 98.18 21.01 98.18 21.01 100.48 24.3 100.48 24.3 101.9 19.27 101.9 19.27 93.22 24.3 93.22 24.3 94.63 21.01 94.63"/>
  <path class="cls-1" d="M162.83,16.86s-4.23-.13-4.5-.48-2.48-3.57-2.48-3.57l-.58,4.63s-5.09,1.39-5.27,1.3,3.84,2.38,3.84,2.38l.96,5.03s2.08-3.93,2.06-4,3.81,2.86,3.79,2.25c-.07-2-.88-4.55-.7-4.71s2.89-2.83,2.89-2.83Z"/>
  <polygon class="cls-1" points="83.11 82.75 77.53 82.66 77.81 57.62 77.65 58.24 73.31 82.77 67.64 82.77 67.47 82.2 66.51 78.24 65.2 71.68 63.92 66.18 62.7 58.53 62.77 63.78 62.85 81.95 61.98 82.92 58.15 82.43 57.2 81.93 57.44 61.19 57.44 52.29 58.23 51.34 65.44 51.86 66.08 52.43 68.47 64.6 70.01 73.01 70.34 73.7 70.65 70.43 72.35 61.22 73.64 52.37 74.59 51.73 82.81 51.86 83.11 82.75"/>
  <polygon class="cls-1" points="38.99 51.08 38.61 82.53 34.04 82.46 27.55 82.56 26.8 82.04 22.47 48.36 19.17 20.26 18.72 19.72 18.43 20.5 19.59 82.68 19.4 82.74 13.04 83.06 12.4 82.64 12.22 82.32 12.05 12.75 13.32 12.23 24.05 12.24 24.89 13.08 27.77 37.06 31.92 75.47 32.19 75.95 32.66 75.95 32.54 51.43 38.99 51.08"/>
  <path class="cls-1" d="M148.03,80.89l.14-6.74-.35-3.23-3.04-3.55-.83-.64.25-.34,3.47-3.58.06-6.05-2.75-3.78-5.25-1.44-10,.19-1.05.62v29.63s-.16.56-.16.56l.65.33,6.05-.19-.17-.66-.02-12.09.88-.69,2.65.46,2.48,1.4.41,2.58.22,6.34.35,2.52,6.64.41-.62-2.03ZM141.03,62.72l-2.72,2.01-3.06.22-.02-.56.07-7.76.73-.75,2.59.22,2.63,2.02-.22,4.6Z"/>
  <polygon class="cls-1" points="126.85 64.37 126.53 76.01 124.95 80.67 120.51 83 111.62 82.57 107.17 78.08 106.55 74.55 106.29 52.41 107.72 51.65 112.28 51.48 113.14 52.3 113.45 62.31 113.24 76.2 115.03 78.27 119.92 76.31 120.39 75.19 120.25 52.33 121.31 51.45 125.94 51.38 126.6 52.18 126.7 64.37 126.85 64.37"/>
  <polygon class="cls-1" points="48.19 68.7 48.18 77.78 48.65 78.47 52.57 78.27 54.64 78.52 55.16 78.49 54.93 82.6 54.4 82.69 42.2 82.57 41.18 82.09 41.36 52.12 42.15 51.32 53.86 51.69 54.79 51.52 54.69 57.38 53.74 57.05 48.69 57.36 47.94 57.92 48.22 64.15 48.76 64.15 52.56 64.24 53.58 64.85 53.34 68.12 52.63 68.56 48.77 68.49 48.19 68.7"/>
  <polygon class="cls-1" points="80.95 13.56 81.28 13.09 87.18 13.25 88.7 13.46 93.97 25.96 93.99 26.08 94.34 25.69 99.95 13.57 101.5 12.93 107.35 12.62 107.97 12.85 103.24 22.8 98.94 32.69 98.7 35.19 98.31 52.16 98.22 53.15 90.25 52.89 91.02 51.87 91.02 36.9 88.18 28.76 80.69 14.29 80.95 13.56"/>
  <path class="cls-1" d="M104.63,59.54l-.76-3.38-6.13-4.44-5.5-.52-6.53,3.5-1.1,4.69.38,15.42.5,3.74,4.17,3.77,8.39.46,5.58-4.54.84-3.78-.24-7.33.38-7.61ZM97.45,77.31l-2.83,1.22-2.85-1.26-.76-1.7.16-16.94.31-1.55,3.4-1.52,3.09,1.72-.04,1.86.27,8.03v8.26s-.76,1.87-.76,1.87Z"/>
  <polygon class="cls-2" points="54.85 18.72 49.97 24.9 48.62 27.11 57.4 47.74 57.2 47.97 56.27 48.36 50.42 48.31 49.19 47.55 43.27 32.8 43.27 32.6 43.27 32.95 40.54 36.54 39.96 37.29 40.61 47.27 40.6 48.19 39.66 48.06 32.93 48.12 32.55 47.61 32.52 47.21 31.92 13.27 33.38 12.42 39.27 12.41 40.07 12.43 40.09 24.63 40.61 27.12 41.12 25.46 50.45 12.94 51.96 12.18 59.36 12.47 54.85 18.72"/>
  <path class="cls-2" d="M86.68,47.54l-2.22-8.43-2.5-8.76-2.3-8.74-2.27-8.05-.62-.47-10.21-.18-.77.37-.57,2.38-2.09,10.13-2.06,9.97-2.3,10.28-.56,2.39,6.75-.29.44-.54,1.64-5.82.61-.51,7.73-.26,2.34.89,1.83,5.79,1.16.24,2.59.79,3.49-.69-.11-.47ZM76.01,36.43l-8.38.17,3.69-17.03.23-.05,1.29,2.93,4,13.54-.82.45Z"/>
  <path class="cls-2" d="M153.3,42.74l-2.71-12.71-3.13-17.01-1.05-.4-8.97-.39-1.33.63-.58,4.34-2.67,10.37-1.67,10.02-2.12,8.72-.55,1.91,6.25.09,1.48-.73.82-5.79,1.01-.21,6.01-.19,2.79,1.44,6.21,39.74.23.35,7.38.09-7.38-40.28ZM144.73,36.46l-6.68-.11,3.35-17.04.85,2.89,1.95,7.13,1.26,6.5-.73.62Z"/>
  <polygon class="cls-2" points="115.92 13.06 115.96 41.93 117.44 42.6 126.58 43.08 127.57 43.5 127.5 47.32 126.79 48.21 109.59 48.18 108.5 47.2 108.51 25.68 108.79 12.94 109.84 12.4 115.34 12.09 115.92 13.06"/>
  <polygon class="cls-2" points="120.03 12.27 127.59 12.23 126.95 37.94 120.12 37.94 120.03 12.27"/>
</svg>