<?xml version="1.0" encoding="UTF-8"?>
<svg id="Calque_6" data-name="Calque 6" xmlns="http://www.w3.org/2000/svg" viewBox="0 0 171.63 117.75">
  <defs>
    <style>
      .cls-1 {
        fill: #386f9c;
      }

      .cls-1, .cls-2 {
        stroke-width: 0px;
      }

      .cls-2 {
        fill: #de9a93;
      }
    </style>
  </defs>
  <path class="cls-2" d="M161.17,107.61l1.48-21.52s-26.07-.08-29.12-.67-72.53.15-73.88.15-51.36.73-51.36.73c0,0,1.33,18.52,1.63,20.29s77.52-1.01,81.73-.42,58.44.9,58.44.9l11.08.53Z"/>
  <g>
    <path class="cls-1" d="M22.01,96.67h-3.76v2.82h4.39v1.27h-5.98v-9.15h5.94v1.28h-4.35v2.53h3.76v1.26Z"/>
    <path class="cls-1" d="M31.19,100.75h-1.59l-4.08-6.49v6.49h-1.59v-9.15h1.59l4.09,6.52v-6.52h1.58v9.15Z"/>
    <path class="cls-1" d="M39.64,97.23h-1.77v3.52h-1.59v-9.15h3.22c1.06,0,1.87.24,2.44.71s.86,1.16.86,2.06c0,.61-.15,1.12-.44,1.54s-.71.73-1.23.95l2.05,3.81v.08h-1.7l-1.83-3.52ZM37.87,95.95h1.63c.54,0,.96-.14,1.26-.41s.45-.64.45-1.11-.14-.87-.42-1.14-.69-.41-1.25-.41h-1.68v3.07Z"/>
    <path class="cls-1" d="M51.61,96.42c0,.9-.15,1.68-.46,2.36-.31.68-.75,1.2-1.33,1.56s-1.24.54-1.99.54-1.4-.18-1.98-.54-1.03-.88-1.34-1.55-.48-1.44-.48-2.32v-.52c0-.89.16-1.68.47-2.36s.76-1.21,1.34-1.57,1.24-.54,1.98-.54,1.41.18,1.98.54,1.02.87,1.34,1.55.47,1.45.48,2.35v.51ZM50.02,95.94c0-1.01-.19-1.79-.57-2.33s-.93-.81-1.63-.81-1.22.27-1.61.81c-.39.54-.59,1.3-.59,2.28v.53c0,1.01.2,1.78.59,2.33s.94.82,1.63.82,1.25-.27,1.62-.8.57-1.32.57-2.35v-.48Z"/>
    <path class="cls-1" d="M59.88,91.6v6.11c0,.97-.31,1.74-.93,2.31s-1.45.85-2.49.85-1.88-.28-2.49-.84-.92-1.34-.92-2.33v-6.11h1.58v6.12c0,.61.15,1.08.46,1.4s.77.48,1.37.48c1.22,0,1.83-.65,1.83-1.94v-6.07h1.58Z"/>
    <path class="cls-1" d="M68.19,92.89h-2.85v7.87h-1.58v-7.87h-2.83v-1.28h7.26v1.28Z"/>
    <path class="cls-1" d="M74.74,96.67h-3.76v2.82h4.39v1.27h-5.98v-9.15h5.94v1.28h-4.35v2.53h3.76v1.26Z"/>
    <path class="cls-1" d="M81.46,97.36v3.39h-1.59v-9.15h3.5c1.02,0,1.83.27,2.43.8s.9,1.24.9,2.11-.29,1.6-.88,2.09c-.59.5-1.41.75-2.47.75h-1.89ZM81.46,96.08h1.91c.57,0,1-.13,1.29-.4s.45-.65.45-1.15-.15-.89-.45-1.18-.72-.45-1.24-.46h-1.95v3.19Z"/>
    <path class="cls-1" d="M95.4,96.42c0,.9-.15,1.68-.46,2.36s-.75,1.2-1.33,1.56-1.24.54-1.99.54-1.4-.18-1.98-.54-1.03-.88-1.34-1.55-.48-1.44-.48-2.32v-.52c0-.89.16-1.68.47-2.36s.76-1.21,1.34-1.57,1.24-.54,1.98-.54,1.41.18,1.98.54,1.02.87,1.34,1.55.47,1.45.48,2.35v.51ZM93.81,95.94c0-1.01-.19-1.79-.57-2.33s-.93-.81-1.63-.81-1.22.27-1.61.81-.59,1.3-.59,2.28v.53c0,1.01.2,1.78.59,2.33s.94.82,1.63.82,1.25-.27,1.62-.8.57-1.32.57-2.35v-.48Z"/>
    <path class="cls-1" d="M103.67,91.6v6.11c0,.97-.31,1.74-.93,2.31s-1.45.85-2.49.85-1.88-.28-2.49-.84-.92-1.34-.92-2.33v-6.11h1.58v6.12c0,.61.15,1.08.46,1.4s.77.48,1.37.48c1.22,0,1.83-.65,1.83-1.94v-6.07h1.58Z"/>
    <path class="cls-1" d="M108.73,97.23h-1.77v3.52h-1.59v-9.15h3.22c1.06,0,1.87.24,2.44.71s.86,1.16.86,2.06c0,.61-.15,1.12-.44,1.54s-.71.73-1.23.95l2.05,3.81v.08h-1.7l-1.83-3.52ZM106.96,95.95h1.63c.54,0,.96-.14,1.26-.41s.45-.64.45-1.11-.14-.87-.42-1.14-.69-.41-1.25-.41h-1.68v3.07Z"/>
    <path class="cls-1" d="M118.19,99.48h4.15v1.27h-5.74v-9.15h1.59v7.88Z"/>
    <path class="cls-1" d="M128.91,96.67h-3.76v2.82h4.39v1.27h-5.98v-9.15h5.94v1.28h-4.35v2.53h3.76v1.26Z"/>
    <path class="cls-1" d="M135.63,98.4c0-.4-.14-.71-.42-.93s-.79-.44-1.53-.66-1.32-.47-1.76-.74c-.83-.52-1.25-1.21-1.25-2.05,0-.74.3-1.34.9-1.82s1.38-.72,2.34-.72c.64,0,1.2.12,1.7.35s.89.57,1.18,1,.43.91.43,1.44h-1.58c0-.48-.15-.85-.45-1.12s-.73-.41-1.28-.41c-.52,0-.92.11-1.21.33s-.43.53-.43.93c0,.34.15.61.46.84s.82.44,1.53.65,1.28.45,1.72.72.75.58.95.93.3.76.3,1.23c0,.76-.29,1.37-.88,1.82s-1.38.68-2.38.68c-.66,0-1.27-.12-1.83-.37s-.99-.58-1.29-1.01-.46-.93-.46-1.51h1.59c0,.52.17.92.52,1.21s.84.43,1.48.43c.55,0,.97-.11,1.25-.34s.42-.52.42-.89Z"/>
    <path class="cls-1" d="M145.56,91.6h1.58v6.42c0,.88-.27,1.57-.82,2.09s-1.27.77-2.16.77c-.96,0-1.69-.24-2.21-.72s-.78-1.15-.78-2.01h1.58c0,.49.12.85.36,1.1s.59.37,1.05.37c.43,0,.77-.14,1.02-.42s.38-.67.38-1.17v-6.41Z"/>
    <path class="cls-1" d="M156.26,96.42c0,.9-.15,1.68-.46,2.36s-.75,1.2-1.33,1.56-1.24.54-1.99.54-1.4-.18-1.98-.54-1.03-.88-1.34-1.55-.48-1.44-.48-2.32v-.52c0-.89.16-1.68.47-2.36s.76-1.21,1.34-1.57,1.24-.54,1.98-.54,1.41.18,1.98.54,1.02.87,1.34,1.55c.31.67.47,1.45.48,2.35v.51ZM154.67,95.94c0-1.01-.19-1.79-.57-2.33s-.93-.81-1.63-.81-1.22.27-1.61.81-.59,1.3-.59,2.28v.53c0,1.01.2,1.78.59,2.33s.94.82,1.63.82,1.25-.27,1.62-.8.57-1.32.57-2.35v-.48Z"/>
  </g>
  <path class="cls-1" d="M161.1,16.15s-4.21-.13-4.48-.48-2.46-3.55-2.46-3.55l-.58,4.61s-5.06,1.39-5.24,1.3,3.81,2.36,3.81,2.36l.95,5s2.07-3.91,2.05-3.98,3.79,2.85,3.77,2.23c-.07-1.99-.88-4.53-.7-4.68s2.88-2.82,2.88-2.82Z"/>
  <polygon class="cls-1" points="81.81 81.68 76.26 81.59 76.54 56.69 76.37 57.3 72.06 81.71 66.42 81.7 66.26 81.14 65.3 77.2 64 70.67 62.72 65.2 61.5 57.6 61.58 62.81 61.66 80.89 60.79 81.85 56.99 81.37 56.04 80.86 56.28 60.24 56.28 51.39 57.06 50.44 64.24 50.96 64.87 51.53 67.25 63.63 68.78 72 69.11 72.69 69.41 69.43 71.11 60.27 72.39 51.47 73.34 50.83 81.51 50.96 81.81 81.68"/>
  <polygon class="cls-1" points="37.93 50.19 37.54 81.46 33.01 81.39 26.54 81.49 25.8 80.97 21.5 47.48 18.21 19.53 17.76 18.99 17.47 19.76 18.63 81.61 18.44 81.67 12.11 81.99 11.47 81.57 11.3 81.26 11.13 12.06 12.39 11.54 23.06 11.55 23.9 12.39 26.76 36.24 30.89 74.44 31.17 74.92 31.63 74.92 31.51 50.54 37.93 50.19"/>
  <path class="cls-1" d="M146.38,79.83l.14-6.71-.35-3.21-3.02-3.54-.83-.63.25-.34,3.46-3.56.06-6.02-2.74-3.76-5.22-1.43-9.95.19-1.05.62v29.47s-.16.55-.16.55l.64.32,6.02-.19-.17-.66-.02-12.02.88-.69,2.64.46,2.47,1.39.41,2.56.22,6.3.35,2.51,6.6.4-.62-2.02ZM139.42,61.77l-2.7,2-3.05.22-.02-.55.07-7.72.73-.74,2.58.22,2.62,2.01-.22,4.57Z"/>
  <polygon class="cls-1" points="125.32 63.4 125 74.98 123.42 79.61 119.01 81.94 110.16 81.5 105.74 77.04 105.12 73.53 104.87 51.51 106.29 50.75 110.82 50.59 111.67 51.4 111.99 61.35 111.78 75.16 113.56 77.23 118.42 75.28 118.89 74.16 118.75 51.43 119.8 50.55 124.41 50.48 125.06 51.27 125.16 63.4 125.32 63.4"/>
  <polygon class="cls-1" points="47.08 67.71 47.07 76.74 47.53 77.43 51.43 77.22 53.49 77.47 54.01 77.44 53.78 81.53 53.25 81.62 41.12 81.5 40.11 81.03 40.29 51.22 41.07 50.42 52.72 50.79 53.64 50.62 53.54 56.45 52.59 56.12 47.58 56.43 46.82 56.98 47.11 63.18 47.65 63.18 51.42 63.27 52.44 63.88 52.2 67.13 51.49 67.57 47.65 67.5 47.08 67.71"/>
  <polygon class="cls-2" points="79.66 12.87 79.98 12.4 85.86 12.55 87.37 12.77 92.61 25.2 92.64 25.32 92.98 24.93 98.56 12.87 100.1 12.24 105.92 11.93 106.53 12.16 101.83 22.05 97.56 31.89 97.31 34.38 96.92 51.26 96.84 52.24 88.91 51.99 89.67 50.96 89.67 36.08 86.86 27.98 79.4 13.59 79.66 12.87"/>
  <path class="cls-2" d="M103.21,58.59l-.75-3.36-6.1-4.41-5.47-.51-6.49,3.48-1.1,4.67.38,15.34.49,3.72,4.15,3.75,8.34.46,5.55-4.52.84-3.76-.23-7.29.38-7.57ZM96.08,76.27l-2.81,1.21-2.84-1.25-.75-1.69.16-16.85.31-1.54,3.38-1.51,3.07,1.71-.04,1.85.27,7.99v8.22s-.75,1.86-.75,1.86Z"/>
  <polygon class="cls-2" points="53.7 18 48.85 24.15 47.5 26.34 56.24 46.86 56.04 47.09 55.11 47.48 49.3 47.43 48.07 46.67 42.18 32 42.18 31.81 42.19 32.15 39.47 35.72 38.89 36.47 39.54 46.39 39.53 47.31 38.59 47.18 31.9 47.24 31.52 46.73 31.49 46.33 30.89 12.57 32.34 11.73 38.21 11.72 39 11.74 39.02 23.87 39.53 26.35 40.04 24.71 49.32 12.25 50.83 11.49 58.19 11.78 53.7 18"/>
  <path class="cls-2" d="M85.36,46.66l-2.21-8.38-2.49-8.71-2.29-8.7-2.26-8-.62-.47-10.16-.18-.77.37-.57,2.37-2.08,10.07-2.05,9.91-2.29,10.22-.55,2.38,6.71-.29.44-.54,1.63-5.79.6-.51,7.69-.26,2.33.88,1.83,5.76,1.16.24,2.58.78,3.47-.69-.11-.46ZM74.75,35.61l-8.34.17,3.67-16.94.23-.05,1.28,2.91,3.97,13.47-.82.45Z"/>
  <path class="cls-2" d="M151.63,41.89l-2.7-12.64-3.12-16.92-1.04-.4-8.92-.39-1.32.63-.57,4.32-2.66,10.32-1.66,9.97-2.11,8.67-.55,1.9,6.21.09,1.47-.72.82-5.76,1-.21,5.97-.19,2.78,1.43,6.17,39.53.23.35,7.34.09-7.34-40.06ZM143.1,35.65l-6.64-.11,3.33-16.95.84,2.87,1.94,7.1,1.26,6.47-.72.61Z"/>
  <polygon class="cls-2" points="114.44 12.37 114.48 41.08 115.96 41.75 125.05 42.22 126.04 42.64 125.97 46.45 125.25 47.33 108.14 47.29 107.07 46.33 107.07 24.92 107.35 12.25 108.4 11.71 113.87 11.4 114.44 12.37"/>
  <polygon class="cls-2" points="118.53 11.58 126.06 11.54 125.41 37.11 118.62 37.12 118.53 11.58"/>
</svg>