<?xml version="1.0" encoding="UTF-8"?>
<svg id="Calque_3" data-name="Calque 3" xmlns="http://www.w3.org/2000/svg" viewBox="0 0 145.82 190.42">
  <defs>
    <style>
      .cls-1 {
        fill: #d13e2a;
        opacity: .24;
      }

      .cls-1, .cls-2, .cls-3, .cls-4, .cls-5, .cls-6, .cls-7 {
        stroke-width: 0px;
      }

      .cls-2 {
        opacity: .26;
      }

      .cls-2, .cls-7 {
        fill: #fff;
      }

      .cls-3 {
        fill: #201c33;
      }

      .cls-4 {
        fill: #222221;
      }

      .cls-5 {
        fill: #c98e76;
      }

      .cls-6 {
        fill: #b5735e;
      }
    </style>
  </defs>
  <path class="cls-5" d="M132.82,115.09c-1.28,5.68-5.68,13.08-11.82,12.3-9.5,19.78-18.07,32.47-18.07,32.47,0,0-23.87,21.38-39.95,14.8-13.69-5.61-26.62-25.75-30.98-39.89-.21-.68-.41-1.52-.58-2.47-14.69-1.24-11.67-24.36-11.67-24.36,0,0,7.61-5.01,9.96-4-.02-6.12.13-11.29.37-13.53,4.8-43.75,43-46.02,65.19-39.58,12.1,3.52,30.57,18.58,29.31,48.61-.09,2.2-.22,4.31-.37,6.35,2.46-1.45,10.79-.45,8.6,9.29Z"/>
  <path class="cls-3" d="M64.33,18.81c-7.22,4.79-10.82,22.54-10.82,22.54,0,0,3.49,13,11.09,17.29,7.6,4.29,16.9,5.82,25.82,5.03,7.08-.62,14.14-2.73,19.59-6.86s8.62-16.83,8.62-16.83c0,0-5.68-13.2-12.09-17.2-11.59-7.23-29.65-12.3-42.21-3.97Z"/>
  <path class="cls-6" d="M69.64,126.69c.02,2.59.21,5.33,1.77,7.46,1.56,2.14,4.93,3.32,7.18,1.82,2.37-1.57,2.21-4.86,1.79-7.56-.85-5.48-1.7-10.96-2.54-16.44-.24-1.54-.53-3.18-1.65-4.33-4.2-4.27-5.41,2.63-5.66,4.92-.51,4.69-.92,9.4-.89,14.12Z"/>
  <path class="cls-3" d="M54.33,103.92c4.05-.15,8.09.44,12.11,1.03-3.11-3.39-7.87-5.19-12.45-4.7-3.86.42-9.16,2.92-10.76,6.7,3.59-1.78,7.06-2.87,11.1-3.02Z"/>
  <path class="cls-3" d="M97.33,102.22c4.54.36,8.89,2.71,11.68,6.31-.53-.68-3.93-.92-4.82-1.11-1.62-.34-3.24-.66-4.88-.9-3.27-.49-6.6-.72-9.9-.37-.8.08-3.63,1.05-3.86.1-.19-.8,2.56-2.04,3.11-2.31,2.66-1.33,5.69-1.94,8.66-1.71Z"/>
  <path class="cls-4" d="M94.12,116.06c-.08.87.33,1.75.98,2.34s1.5.92,2.37,1.04c.67.09,1.39.05,1.94-.34,1.87-1.31,1.02-5.21-.62-6.37-2.24-1.59-4.48,1.16-4.67,3.33Z"/>
  <path class="cls-4" d="M51.9,116.13c.55,1.18,1.79,2.03,3.09,2.03,3.64,0,4.14-5.42,1.21-6.87s-5.56,2.13-4.3,4.84Z"/>
  <path class="cls-3" d="M29.61,81.57c-.83,4.71-.93,9.51-.92,14.3,0,2.55.07,5.24,1.37,7.43,1.3,2.2,4.26,3.62,6.48,2.38,1.91-1.07,2.49-3.54,2.51-5.73.03-2.19,3.39-38.72,49.27-35.44,32.53,14.12,24.32,27.08,25.25,31.7.59,2.9-.24,6.24,1.5,8.63,1.58,2.18,6,2.79,8.38,1.52,2.38-1.27,3.01-3.18,3.52-5.83.51-2.65-.07-6.25-.49-8.91-1.24-7.82-4.78-23.28-4.78-23.28,0,0-5.48-8.8-8.84-12.38-4.16-4.44-10.26-7.09-16.2-8.4-7.73-1.7-13.6-2.99-21.51-3.31-11.74-.46-30.4,10.45-30.4,10.45,0,0-13.32,16.55-15.14,26.88Z"/>
  <path class="cls-1" d="M89.11,134.6c-.37,2.08,1.19,4,2.81,5.36,2.82,2.37,6.62,4.13,10.15,3.07,10.29-3.08,3.09-20.3-6.65-14.97-2.24,1.22-5.84,3.85-6.31,6.54Z"/>
  <path class="cls-1" d="M42.3,134.21c.65,3.27,4.02,5.3,7.26,6.07,1.85.44,3.86.59,5.62-.14,6.59-2.73,3.91-11.53-.7-14.66-5.23-3.55-13.38,2.66-12.18,8.73Z"/>
  <path class="cls-2" d="M40.94,62.8c-2.23,2.6-3.99,6.04-4.28,9.78-.09,1.16.03,2.48.76,3.15.54.49,1.3.49,1.95.18s1.21-.86,1.73-1.43c3.85-4.18,6.75-9.55,9.6-14.84.74-1.37,1.02-2.87-.37-3.58-1.04-.54-1.77.16-2.66.89-2.31,1.89-4.71,3.47-6.75,5.85Z"/>
  <path class="cls-7" d="M63.77,155.21c2.94,1.77,6.67,3.15,10.8,3.58,4.89.52,10.15-.39,13.81-2.37,3.66-1.98,5.63-5,5.16-7.92-9.31-.07-18.63-.14-27.94-.21-2.19-.02-4.56-.19-6.73-.05-2.5.16-2.42-.14-1.96,1.19.66,1.92,4.59,4.42,6.85,5.78Z"/>
</svg>