<?xml version="1.0" encoding="UTF-8"?>
<svg id="Calque_8" data-name="Calque 8" xmlns="http://www.w3.org/2000/svg" viewBox="0 0 136.5 72.47">
  <defs>
    <style>
      .cls-1 {
        fill: #5e8aa5;
      }

      .cls-1, .cls-2, .cls-3, .cls-4 {
        stroke-width: 0px;
      }

      .cls-2 {
        fill: #de9b94;
      }

      .cls-3 {
        fill: #fff;
      }

      .cls-4 {
        fill: #e5dfca;
      }
    </style>
  </defs>
  <g>
    <path class="cls-2" d="M125.56,38.16l-18.36-1.62s-6.51-.03-29.97.95c-1.89.08-3.85.15-5.86.2l-48.75-.37s.34-7.8.34-7.8c0,0,45.85.92,47.23.92,1.37,0,53.89-4.12,54.34-3.43.36.51.84,6.55,1.03,11.14Z"/>
    <path class="cls-4" d="M22.8,68.27c1.49,3.75,45.37-.18,47.61.2,2.26.37,59.58,4,59.58,4,0,0-4.38-26.64-4.36-30.75,0-.94-.03-2.19-.08-3.57l-18.36-1.62s-6.51-.02-29.97.95c-1.9.08-3.86.15-5.87.2l-48.74-.37c-.39,10.54-.89,28.33.18,30.95ZM108.46,51.12l12.02.09,2.21,15.69s-9.2-.83-10.23-1.16c-1-.32-15.8-.18-15.8-.18,0,0,1.27-10.34.82-15.99l10.99,1.55ZM66.79,42.7s1.82-.41,2.13-.33c.33.09.52,1.59.34,2.05-.17.46-2.84,8.66-3.24,8.82-.39.15-2.13-.2-2.25-.22-.12-.04-.71-3.1-.77-3.56-.05-.45-.78-2.86-.78-2.86,0,0-1.67,6.02-1.74,6.4-.05.39-1.85.45-2.25.53l.33-4.22s1.88-6.25,1.91-6.46c.03-.21,2.24-1.23,2.24-1.23,0,0,1.44,2.04,1.61,2.58.18.54.44,3.76.44,3.76l2.02-5.25ZM59.84,42.04s-2.06,5.35-2.25,5.95c-.19.59-1.73,5.06-1.72,5.16,0,.12-2.18.1-2.18.1,0,0,1.56-6.91,1.68-7.09.13-.19,2.03-4.34,2.03-4.34l2.44.21ZM52.76,42.58s.38,10.41.27,10.84l-2.63-.55-.33-2.07s-2.21-1.15-2.56-1.09c-.37.05-1.09,3.08-1.55,3.12-.46.04-2.77-.19-2.77-.19l4.78-9.03,2.47-2.11,2.31,1.09ZM41.11,41.17c1.12.18,2.41,1.35,2.91,1.93.49.55-1.31,3.32-1.76,3.67-.45.36-.69,2.24-.62,2.72.09.46,1.32,3.58,1.32,3.58l-3.52-.02-.69-2.65-.83-1.52-1.7.6-1,3.2h-3.55s2.71-6.25,2.71-6.25l1.61-3.78s3.97-1.65,5.1-1.48ZM34.05,44.13l-3.4-.38-1.15,4.83-.43,4.42-3.08-.34,1.99-8.92-2.75-.03.39-2.34s9.07.33,9.33.38c.25.05-.9,2.37-.9,2.37Z"/>
    <path class="cls-1" d="M34.06,44.13l-3.41-.38-1.16,4.84-.43,4.43-3.07-.34,1.99-8.92-2.75-.02.39-2.35s9.08.33,9.33.38c.25.04-.9,2.37-.9,2.37Z"/>
    <path class="cls-1" d="M36,42.65l-1.61,3.78-2.71,6.26h3.55s1-3.2,1-3.2l1.7-.6.83,1.52.69,2.65,3.52.02s-1.23-3.12-1.32-3.58c-.07-.48.17-2.36.62-2.72.45-.35,2.25-3.11,1.76-3.67-.5-.58-1.79-1.75-2.91-1.93-1.13-.17-5.1,1.48-5.1,1.48ZM40.74,43.19s1.09,1.17,1.2,1.49c.12.33-2.07,1.37-2.35,1.53-.28.16-2.06-.2-2.29-.6-.25-.39.2-1.43.2-1.43l2.1-.78,1.13-.2Z"/>
    <path class="cls-1" d="M47.98,43.6l-4.78,9.03s2.3.23,2.77.19c.45-.04,1.18-3.07,1.55-3.12.35-.06,2.56,1.09,2.56,1.09l.33,2.07,2.63.55c.11-.43-.27-10.84-.27-10.84l-2.31-1.09-2.47,2.11ZM50.53,46.26c.07.23-.12,1.12-.8,1.85-.68.72-1.68-.06-1.87-.96-.19-.91,2.08-2.84,2.24-2.96,0,0,.39,1.85.43,2.07Z"/>
    <path class="cls-1" d="M59.85,42.05s-2.06,5.35-2.26,5.95c-.19.59-1.72,5.05-1.73,5.16,0,.12-2.17.11-2.17.11,0,0,1.56-6.91,1.69-7.09.13-.19,2.03-4.34,2.03-4.34l2.44.22Z"/>
    <path class="cls-1" d="M69.27,44.41c-.17.46-2.84,8.67-3.23,8.82-.39.16-2.14-.19-2.25-.22-.12-.04-.71-3.1-.78-3.55-.05-.45-.78-2.87-.78-2.87,0,0-1.67,6.03-1.73,6.41-.05.39-1.86.44-2.25.53l.33-4.21s1.88-6.25,1.91-6.47c.03-.21,2.24-1.23,2.24-1.23,0,0,1.44,2.03,1.62,2.58s.44,3.76.44,3.76l2.03-5.25s1.82-.41,2.13-.32c.32.08.52,1.59.35,2.04Z"/>
    <path class="cls-1" d="M120.47,51.21l2.21,15.7s-9.2-.84-10.22-1.17c-1.01-.32-15.8-.17-15.8-.17,0,0,1.27-10.35.82-15.99l10.98,1.55,12.02.08Z"/>
    <path class="cls-2" d="M120.47,51.21l2.21,15.7s-9.2-.84-10.22-1.17c-1.01-.32-15.8-.17-15.8-.17,0,0,1.27-10.35.82-15.99l10.98,1.55,12.02.08Z"/>
    <g>
      <path class="cls-2" d="M34.06,44.13l-3.41-.38-1.16,4.84-.43,4.43-3.07-.34,1.99-8.92-2.75-.02.39-2.35s9.08.33,9.33.38c.25.04-.9,2.37-.9,2.37Z"/>
      <path class="cls-2" d="M36,42.65l-1.61,3.78-2.71,6.26h3.55s1-3.2,1-3.2l1.7-.6.83,1.52.69,2.65,3.52.02s-1.23-3.12-1.32-3.58c-.07-.48.17-2.36.62-2.72.45-.35,2.25-3.11,1.76-3.67-.5-.58-1.79-1.75-2.91-1.93-1.13-.17-5.1,1.48-5.1,1.48ZM40.74,43.19s1.09,1.17,1.2,1.49c.12.33-2.07,1.37-2.35,1.53-.28.16-2.06-.2-2.29-.6-.25-.39.2-1.43.2-1.43l2.1-.78,1.13-.2Z"/>
      <path class="cls-4" d="M39.61,43.39l1.13-.2s1.09,1.17,1.2,1.49c.12.33-2.07,1.37-2.35,1.53-.28.16-2.06-.2-2.29-.6-.25-.39.2-1.43.2-1.43l2.1-.78Z"/>
      <path class="cls-2" d="M47.98,43.6l-4.78,9.03s2.3.23,2.77.19c.45-.04,1.18-3.07,1.55-3.12.35-.06,2.56,1.09,2.56,1.09l.33,2.07,2.63.55c.11-.43-.27-10.84-.27-10.84l-2.31-1.09-2.47,2.11ZM50.53,46.26c.07.23-.12,1.12-.8,1.85-.68.72-1.68-.06-1.87-.96-.19-.91,2.08-2.84,2.24-2.96,0,0,.39,1.85.43,2.07Z"/>
      <path class="cls-4" d="M50.1,44.19s.39,1.85.43,2.07c.07.23-.12,1.12-.8,1.85-.68.72-1.68-.06-1.87-.96-.19-.91,2.08-2.84,2.24-2.96Z"/>
      <path class="cls-2" d="M59.85,42.05s-2.06,5.35-2.26,5.95c-.19.59-1.72,5.05-1.73,5.16,0,.12-2.17.11-2.17.11,0,0,1.56-6.91,1.69-7.09.13-.19,2.03-4.34,2.03-4.34l2.44.22Z"/>
      <path class="cls-2" d="M69.27,44.41c-.17.46-2.84,8.67-3.23,8.82-.39.16-2.14-.19-2.25-.22-.12-.04-.71-3.1-.78-3.55-.05-.45-.78-2.87-.78-2.87,0,0-1.67,6.03-1.73,6.41-.05.39-1.86.44-2.25.53l.33-4.21s1.88-6.25,1.91-6.47c.03-.21,2.24-1.23,2.24-1.23,0,0,1.44,2.03,1.62,2.58s.44,3.76.44,3.76l2.03-5.25s1.82-.41,2.13-.32c.32.08.52,1.59.35,2.04Z"/>
    </g>
  </g>
  <polygon class="cls-3" points="18.44 17.3 10.16 9.3 2.67 4 0 9.65 11.33 18.12 17.57 21.78 18.44 17.3"/>
  <polygon class="cls-3" points="118.24 17.17 130.78 .32 136.5 4.22 127.83 13.2 120.73 18.47 118.24 17.17"/>
  <polygon class="cls-3" points="71.48 21.64 70.33 .67 77.21 0 76.3 12.45 74.23 21.05 71.48 21.64"/>
</svg>