<?xml version="1.0" encoding="UTF-8"?>
<svg id="Calque_8" data-name="Calque 8" xmlns="http://www.w3.org/2000/svg" viewBox="0 0 60.39 20.57">
  <defs>
    <style>
      .cls-1 {
        fill: #386f9c;
      }

      .cls-1, .cls-2 {
        stroke-width: 0px;
      }

      .cls-2 {
        fill: #de9a93;
      }
    </style>
  </defs>
  <path class="cls-2" d="M1.27,20.56C.32,14.31.39,11.04.39,11.04.39,11.04-.49.18.39.18s12.49.16,13.68.16,23.15.43,23.15.43l17.53-.77s3.84.12,5.12.18c1.28.05-.19,13.7-.19,13.7l.19,6.69s-5.68-1.07-7.02-.95c-1.25.13-7.47.92-9.87.66-4.71-.49-18.88-.23-18.88-.23l-20.7.51H1.27Z"/>
  <path class="cls-1" d="M12.14,14.52l-1.75-3.18h-.49v3.18h-2.05V6.09h3.44c.66,0,1.23.12,1.7.35.47.23.82.55,1.05.95.23.4.35.85.35,1.35,0,.56-.16,1.06-.47,1.5-.32.44-.78.75-1.4.94l1.94,3.34h-2.32ZM9.89,9.88h1.27c.38,0,.66-.09.85-.28.19-.18.28-.44.28-.78,0-.32-.09-.57-.28-.76-.19-.18-.47-.28-.85-.28h-1.27v2.09Z"/>
  <path class="cls-1" d="M17.72,7.73v1.7h2.75v1.58h-2.75v1.85h3.11v1.64h-5.16V6.09h5.16v1.64h-3.11Z"/>
  <path class="cls-1" d="M28.22,6.09v1.64h-2.23v6.78h-2.05v-6.78h-2.23v-1.64h6.52Z"/>
  <path class="cls-1" d="M31.06,14.05c-.66-.37-1.18-.88-1.57-1.54-.39-.66-.58-1.4-.58-2.23s.19-1.56.58-2.22c.39-.66.91-1.17,1.57-1.54s1.39-.55,2.18-.55,1.52.18,2.18.55,1.18.88,1.56,1.54.57,1.4.57,2.22-.19,1.57-.58,2.23-.9,1.17-1.56,1.54c-.66.37-1.38.55-2.17.55s-1.52-.18-2.18-.55ZM34.85,12.06c.4-.45.61-1.04.61-1.78s-.2-1.34-.61-1.78c-.4-.44-.94-.67-1.61-.67s-1.22.22-1.63.66c-.4.44-.61,1.04-.61,1.79s.2,1.34.61,1.78c.4.44.95.67,1.63.67s1.21-.22,1.61-.67Z"/>
  <path class="cls-1" d="M40.7,6.09v5.04c0,.5.12.89.37,1.16.25.27.61.41,1.09.41s.85-.14,1.1-.41c.26-.27.38-.66.38-1.16v-5.04h2.05v5.03c0,.75-.16,1.39-.48,1.91-.32.52-.75.91-1.29,1.18-.54.26-1.14.4-1.81.4s-1.26-.13-1.78-.39c-.52-.26-.94-.65-1.24-1.18-.3-.52-.46-1.16-.46-1.91v-5.03h2.05Z"/>
  <path class="cls-1" d="M51.44,14.52l-1.75-3.18h-.49v3.18h-2.05V6.09h3.44c.66,0,1.23.12,1.7.35.47.23.82.55,1.05.95.23.4.35.85.35,1.35,0,.56-.16,1.06-.47,1.5-.32.44-.78.75-1.4.94l1.94,3.34h-2.32ZM49.19,9.88h1.27c.38,0,.66-.09.85-.28.19-.18.28-.44.28-.78,0-.32-.09-.57-.28-.76-.19-.18-.47-.28-.85-.28h-1.27v2.09Z"/>
</svg>