<?xml version="1.0" encoding="UTF-8"?>
<svg id="Sac" xmlns="http://www.w3.org/2000/svg" viewBox="0 0 174.72 143.85">
  <defs>
    <style>
      .cls-1 {
        fill: #fff;
        stroke-width: 0px;
      }
    </style>
  </defs>
  <path class="cls-1" d="M174.71,1.59c-.89,13.67-1.76,9.35-1.16,23.11,1.09,25.01-3.07,91.21-3.24,116.24,0,1.63-.46,2.05-2.2,2.09-9.95.2-19.9.67-29.86.8-5.32.07-10.64-.31-15.96-.57-10.26-.49-20.48-1.17-30.78-.45-12.01.84-24.04,1.39-36.11.55-17.46-1.23-52.48-1.81-52.48-1.81,0,0-1.83-18.06-2.34-30.87C-.07,93.87-.14,28.94.2,12.1.37,3.92,2.71,1.4,2.71,1.4c0,0,9.77.02,14.66.02h35.64c15.37-.88,29.84-.14,44.3-.08,8.19.03,14.23,1.58,22.38.97C132.04,1.38,149.09-.22,161.46.02c3.93.08,7.87.12,11.8.1,1.18,0,1.53.16,1.45,1.47Z"/>
</svg>