<?xml version="1.0" encoding="UTF-8"?>
<svg id="Calque_6" data-name="Calque 6" xmlns="http://www.w3.org/2000/svg" viewBox="0 0 26.14 26.47">
  <defs>
    <style>
      .cls-1 {
        fill: #fff;
        stroke-width: 0px;
      }
    </style>
  </defs>
  <path class="cls-1" d="M25.88,3.65c-.49-.69-4.14-3.01-4.68-3.06-.54-.05-8.53-.59-8.53-.59L4.19.3.25,2.91s.3,12.81.25,13.16c-.05.34-.49,8.33-.49,8.33,0,0,6.51,2.02,7.2,2.07.69.05,16.26-.99,16.26-.99,0,0,2.66-5.52,2.61-6.11-.05-.59.3-15.03-.2-15.72ZM18.11,10.93l-.93,3.03-3.42-.19.23,9-3.35.64.09-4.48-.19-5.6-2.17.27v-3.06l2.49.13-.06-3.22s1.34-2.58,1.86-3.38c.52-.8,5.44-.32,5.44-.32l-.48,3.13c-.32,0-3.06.77-3.25.96-.19.19-.26,3.1-.26,3.1h3.99Z"/>
</svg>