<?xml version="1.0" encoding="UTF-8"?>
<svg id="Calque_6" data-name="Calque 6" xmlns="http://www.w3.org/2000/svg" viewBox="0 0 26.77 27.57">
  <defs>
    <style>
      .cls-1 {
        fill: #fff;
        stroke-width: 0px;
      }
    </style>
  </defs>
  <path class="cls-1" d="M17.65,11.93c.19.99.62,3.37.33,4.82-.3,1.45-3.07,2.43-4.78,3.03-1.71.6-4.49-3.03-5-4.27-.51-1.23.57-4.59.66-5.09.09-.5,4.03-1.42,5.59-1.51,1.56-.09,3.21,3.02,3.21,3.02Z"/>
  <path class="cls-1" d="M20.74,7.35c.18.52-.92,1.37-1.3,1.52s-1.41-.17-1.55-.2c-.16-.02-.43-1.23-.47-1.71-.02-.47.92-.98.92-.98.3-.05,1.02-.19,1.48-.1.44.09.74.94.92,1.47Z"/>
  <path class="cls-1" d="M26.77,11.24l-1.78-6.96L20.34,0l-12.29.35-5.68,1.79L.02,7.38S-.02,20.56.02,20.78c.05.22,3.66,4.91,3.66,4.91,0,0,9.53,1.83,9.71,1.88.17.04,7.31-.85,8.73-1.88,1.42-1.02,4.05-5.16,4.05-5.16l.6-9.29ZM22.92,20.43l-2.77,3.86s-5.15.45-8.55.39c-3.41-.06-7.41-1.48-7.41-1.48l-1.8-4.9.94-11.62,2.79-3.16h0s7.06-.55,7.86-.51c.81.03,6.98.92,6.98.92l2.8,4.8-.84,11.71Z"/>
</svg>