<?xml version="1.0" encoding="UTF-8"?>
<svg xmlns="http://www.w3.org/2000/svg" xmlns:xlink="http://www.w3.org/1999/xlink" width="300px" height="140px" viewBox="0 0 299 140" version="1.1">
<g id="surface1">
<path style=" stroke:none;fill-rule:nonzero;fill:rgb(99.215686%,94.901961%,92.156863%);fill-opacity:1;" d="M 9.378906 139.371094 C 9.101562 134.625 5.296875 130.8125 0.558594 130.53125 L 0.558594 9.460938 C 5.296875 9.179688 9.101562 5.371094 9.378906 0.625 L 289.609375 0.625 C 289.886719 5.371094 293.699219 9.179688 298.433594 9.460938 L 298.433594 130.539062 C 293.691406 130.820312 289.886719 134.628906 289.609375 139.375 L 9.378906 139.375 Z M 9.378906 139.371094 "/>
<path style=" stroke:none;fill-rule:nonzero;fill:rgb(0%,0%,0%);fill-opacity:1;" d="M 289.09375 1.183594 C 289.609375 5.789062 293.273438 9.460938 297.875 9.976562 L 297.875 130.023438 C 293.273438 130.539062 289.609375 134.210938 289.09375 138.816406 L 9.894531 138.816406 C 9.378906 134.210938 5.714844 130.542969 1.117188 130.023438 L 1.117188 9.976562 C 5.714844 9.460938 9.375 5.789062 9.894531 1.183594 L 289.101562 1.183594 M 290.152344 0.0625 L 8.835938 0.0625 C 8.835938 4.949219 4.878906 8.917969 0 8.917969 L 0 131.082031 C 4.878906 131.082031 8.835938 135.050781 8.835938 139.9375 L 290.152344 139.9375 C 290.152344 135.050781 294.113281 131.082031 298.996094 131.082031 L 298.996094 8.917969 C 294.113281 8.917969 290.152344 4.949219 290.152344 0.0625 Z M 290.152344 0.0625 "/>
<path style=" stroke:none;fill-rule:nonzero;fill:rgb(0%,0%,0%);fill-opacity:1;" d="M 125.371094 62.722656 C 131.277344 62.722656 134.796875 65.699219 134.796875 71.503906 C 134.796875 76.589844 132.199219 80.398438 127.992188 82.074219 C 126.695312 82.566406 125.285156 82.9375 123.328125 82.9375 L 116.839844 82.9375 L 120.386719 62.722656 L 125.375 62.722656 Z M 119.316406 80.972656 L 122.664062 80.972656 C 128.972656 80.972656 132.546875 77.332031 132.546875 71.472656 C 132.546875 67.082031 129.695312 64.683594 125.253906 64.683594 L 122.171875 64.683594 Z M 119.316406 80.972656 "/>
<path style=" stroke:none;fill-rule:nonzero;fill:rgb(0%,0%,0%);fill-opacity:1;" d="M 141.558594 71.5 L 151.183594 71.5 L 150.835938 73.460938 L 141.210938 73.460938 L 139.914062 80.972656 L 149.511719 80.972656 L 149.164062 82.933594 L 137.433594 82.933594 L 140.980469 62.71875 L 152.710938 62.71875 L 152.363281 64.683594 L 142.765625 64.683594 L 141.550781 71.5 Z M 146.054688 61.507812 L 145.160156 60.179688 L 150.058594 56.714844 L 151.15625 58.417969 Z M 146.054688 61.507812 "/>
<path style=" stroke:none;fill-rule:nonzero;fill:rgb(0%,0%,0%);fill-opacity:1;" d="M 169.589844 81.664062 C 168.007812 82.617188 165.933594 83.28125 163.742188 83.28125 C 158.582031 83.28125 154.488281 79.414062 154.488281 74.414062 C 154.488281 67.945312 159.160156 62.371094 166.105469 62.371094 C 168.035156 62.371094 170.140625 63.035156 171.609375 64.21875 L 170.257812 65.832031 C 169.25 64.910156 167.605469 64.332031 165.90625 64.332031 C 160.285156 64.332031 156.738281 68.921875 156.738281 74.207031 C 156.738281 78.015625 159.707031 81.3125 163.859375 81.3125 C 165.640625 81.3125 167.203125 80.847656 168.527344 80.070312 L 169.597656 81.65625 Z M 169.589844 81.664062 "/>
<path style=" stroke:none;fill-rule:nonzero;fill:rgb(0%,0%,0%);fill-opacity:1;" d="M 172.578125 74.417969 C 172.578125 67.917969 177.304688 62.375 184.167969 62.375 C 189.152344 62.375 193.273438 66.277344 193.273438 71.242188 C 193.273438 77.710938 188.546875 83.28125 181.660156 83.28125 C 176.671875 83.28125 172.582031 79.386719 172.582031 74.414062 Z M 183.933594 64.34375 C 178.339844 64.34375 174.828125 68.960938 174.828125 74.21875 C 174.828125 78.027344 177.824219 81.324219 181.917969 81.324219 C 187.507812 81.324219 191.023438 76.707031 191.023438 71.421875 C 191.023438 67.636719 188.027344 64.347656 183.9375 64.347656 Z M 183.933594 64.34375 "/>
<path style=" stroke:none;fill-rule:nonzero;fill:rgb(0%,0%,0%);fill-opacity:1;" d="M 212.648438 73.40625 C 211.441406 80.359375 208.847656 83.28125 203.972656 83.28125 C 200.253906 83.28125 196.941406 81.664062 196.941406 77.015625 C 196.941406 75.859375 197.054688 74.675781 197.257812 73.488281 L 199.15625 62.71875 L 201.289062 62.71875 L 199.269531 74.15625 C 199.125 74.933594 199.039062 75.742188 199.039062 76.550781 C 199.039062 79.902344 201.316406 81.3125 204.140625 81.3125 C 207.371094 81.3125 209.527344 78.949219 210.367188 74.238281 L 212.386719 62.71875 L 214.515625 62.71875 L 212.644531 73.40625 Z M 212.648438 73.40625 "/>
<path style=" stroke:none;fill-rule:nonzero;fill:rgb(0%,0%,0%);fill-opacity:1;" d="M 223.386719 82.9375 L 221.371094 82.9375 L 217.246094 62.722656 L 219.636719 62.722656 L 222.917969 80.019531 L 222.945312 80.019531 L 232.308594 62.722656 L 234.730469 62.722656 L 223.378906 82.9375 Z M 223.386719 82.9375 "/>
<path style=" stroke:none;fill-rule:nonzero;fill:rgb(0%,0%,0%);fill-opacity:1;" d="M 237.675781 62.722656 L 241.886719 62.722656 C 246.585938 62.722656 249.261719 63.964844 249.261719 67.429688 C 249.261719 71.652344 246.46875 73.695312 242.894531 74.042969 L 247.765625 82.9375 L 245.34375 82.9375 L 240.589844 74.128906 L 237.792969 74.128906 L 236.265625 82.9375 L 234.132812 82.9375 L 237.679688 62.722656 Z M 239.464844 64.683594 L 238.136719 72.160156 L 240.5 72.160156 C 244.128906 72.160156 247.015625 71.179688 247.015625 67.945312 C 247.015625 65.519531 245.488281 64.683594 241.511719 64.683594 Z M 239.464844 64.683594 "/>
<path style=" stroke:none;fill-rule:nonzero;fill:rgb(0%,0%,0%);fill-opacity:1;" d="M 251.4375 82.9375 L 254.984375 62.722656 L 257.117188 62.722656 L 253.570312 82.9375 Z M 251.4375 82.9375 "/>
<path style=" stroke:none;fill-rule:nonzero;fill:rgb(0%,0%,0%);fill-opacity:1;" d="M 262.53125 62.722656 L 266.742188 62.722656 C 271.441406 62.722656 274.121094 63.964844 274.121094 67.429688 C 274.121094 71.652344 271.324219 73.695312 267.75 74.042969 L 272.621094 82.9375 L 270.199219 82.9375 L 265.445312 74.128906 L 262.648438 74.128906 L 261.121094 82.9375 L 258.992188 82.9375 L 262.535156 62.722656 Z M 264.320312 64.683594 L 262.996094 72.160156 L 265.355469 72.160156 C 268.984375 72.160156 271.871094 71.179688 271.871094 67.945312 C 271.871094 65.519531 270.34375 64.683594 266.367188 64.683594 Z M 264.320312 64.683594 "/>
<path style=" stroke:none;fill-rule:nonzero;fill:rgb(0%,0%,0%);fill-opacity:1;" d="M 74.414062 57.617188 L 66.988281 75.578125 C 66.941406 75.707031 66.859375 75.820312 66.769531 75.914062 C 66.652344 76.144531 66.453125 76.339844 66.203125 76.449219 L 48.277344 83.890625 C 48.125 83.945312 47.972656 83.984375 47.824219 83.984375 C 47.519531 83.984375 47.234375 83.855469 47.011719 83.640625 C 46.675781 83.3125 46.574219 82.816406 46.761719 82.378906 L 54.1875 64.414062 C 54.234375 64.285156 54.316406 64.175781 54.40625 64.078125 C 54.523438 63.847656 54.71875 63.652344 54.984375 63.546875 L 72.910156 56.101562 C 73.335938 55.929688 73.832031 56.023438 74.167969 56.355469 C 74.492188 56.679688 74.59375 57.179688 74.410156 57.617188 Z M 74.414062 57.617188 "/>
<path style=" stroke:none;fill-rule:nonzero;fill:rgb(0%,0%,0%);fill-opacity:1;" d="M 60.582031 106.5 C 40.496094 106.5 24.152344 90.125 24.152344 69.996094 C 24.152344 49.871094 40.496094 33.496094 60.582031 33.496094 C 80.667969 33.496094 97.011719 49.871094 97.011719 69.996094 C 97.011719 90.125 80.667969 106.5 60.582031 106.5 Z M 60.582031 36.113281 C 41.933594 36.113281 26.757812 51.316406 26.757812 70.003906 C 26.757812 88.6875 41.933594 103.894531 60.582031 103.894531 C 79.230469 103.894531 94.40625 88.6875 94.40625 70.003906 C 94.40625 51.316406 79.230469 36.113281 60.582031 36.113281 Z M 60.582031 36.113281 "/>
</g>
</svg>
