<svg width="477" height="511" viewBox="0 0 477 511" fill="none" xmlns="http://www.w3.org/2000/svg">
<g clip-path="url(#clip0_730_3491)">
<path d="M390.355 372.013H247.145V106.112V78.5476H390.355V106.112V372.013Z" fill="#F8E8DB" stroke="#1D1D1B" stroke-width="0.75" stroke-miterlimit="10"/>
<path d="M292.222 108.91H260.824V162.898H292.222V108.91Z" fill="#F8E8DB" stroke="#1D1D1B" stroke-width="0.75" stroke-miterlimit="10"/>
<path d="M390.355 162.898H247.145V165.696H390.355V162.898Z" fill="#FFE178" stroke="black" stroke-width="0.75" stroke-miterlimit="10"/>
<path d="M390.355 183.831H247.145V186.628H390.355V183.831Z" fill="#FFE078" stroke="black" stroke-width="0.75" stroke-miterlimit="10"/>
<path d="M390.355 106.112H247.145V108.91H390.355V106.112Z" fill="#FFE178" stroke="black" stroke-width="0.75" stroke-miterlimit="10"/>
<path d="M334.398 108.91H302.999V162.898H334.398V108.91Z" fill="#F8E8DB" stroke="black" stroke-width="0.75" stroke-miterlimit="10"/>
<path d="M376.573 108.91H345.174V162.898H376.573V108.91Z" fill="#F8E8DB" stroke="#1D1D1B" stroke-width="0.75" stroke-miterlimit="10"/>
<path d="M265.798 165.696H263V183.831H265.798V165.696Z" fill="#FFE178" stroke="black" stroke-width="0.75" stroke-miterlimit="10"/>
<path d="M274.088 165.696H271.29V183.831H274.088V165.696Z" fill="#FFE178" stroke="black" stroke-width="0.75" stroke-miterlimit="10"/>
<path d="M282.378 165.696H279.58V183.831H282.378V165.696Z" fill="#FFE178" stroke="black" stroke-width="0.75" stroke-miterlimit="10"/>
<path d="M290.771 165.696H287.974V183.831H290.771V165.696Z" fill="#FFE078" stroke="black" stroke-width="0.75" stroke-miterlimit="10"/>
<path d="M307.662 165.696H304.864V183.831H307.662V165.696Z" fill="#FFE178" stroke="black" stroke-width="0.75" stroke-miterlimit="10"/>
<path d="M315.952 165.696H313.154V183.831H315.952V165.696Z" fill="#FFE178" stroke="black" stroke-width="0.75" stroke-miterlimit="10"/>
<path d="M324.242 165.696H321.444V183.831H324.242V165.696Z" fill="#FFE178" stroke="black" stroke-width="0.75" stroke-miterlimit="10"/>
<path d="M332.636 165.696H329.838V183.831H332.636V165.696Z" fill="#FFE178" stroke="black" stroke-width="0.75" stroke-miterlimit="10"/>
<path d="M349.838 165.696H347.04V183.831H349.838V165.696Z" fill="#FFE178" stroke="black" stroke-width="0.75" stroke-miterlimit="10"/>
<path d="M358.128 165.696H355.33V183.831H358.128V165.696Z" fill="#FFE178" stroke="black" stroke-width="0.75" stroke-miterlimit="10"/>
<path d="M366.418 165.696H363.62V183.831H366.418V165.696Z" fill="#FFE178" stroke="black" stroke-width="0.75" stroke-miterlimit="10"/>
<path d="M374.811 165.696H372.013V183.831H374.811V165.696Z" fill="#FFE178" stroke="black" stroke-width="0.75" stroke-miterlimit="10"/>
<path d="M292.222 193.364H260.824V247.353H292.222V193.364Z" fill="#FBF3EB" stroke="black" stroke-width="0.75" stroke-miterlimit="10"/>
<path d="M390.355 247.353H247.145V250.15H390.355V247.353Z" fill="#FFE078" stroke="black" stroke-width="0.75" stroke-miterlimit="10"/>
<path d="M390.355 268.285H247.145V271.083H390.355V268.285Z" fill="#FFE078" stroke="black" stroke-width="0.75" stroke-miterlimit="10"/>
<path d="M390.355 190.566H247.145V193.364H390.355V190.566Z" fill="#FFE178" stroke="black" stroke-width="0.75" stroke-miterlimit="10"/>
<path d="M334.398 193.364H302.999V247.353H334.398V193.364Z" fill="#F8E8DB" stroke="black" stroke-width="0.75" stroke-miterlimit="10"/>
<path d="M376.573 193.364H345.174V247.353H376.573V193.364Z" fill="#F8E8DB" stroke="black" stroke-width="0.75" stroke-miterlimit="10"/>
<path d="M265.798 250.047H263V268.181H265.798V250.047Z" fill="#FFE078" stroke="black" stroke-width="0.75" stroke-miterlimit="10"/>
<path d="M274.088 250.047H271.29V268.181H274.088V250.047Z" fill="#FFE078" stroke="black" stroke-width="0.75" stroke-miterlimit="10"/>
<path d="M282.378 250.047H279.58V268.181H282.378V250.047Z" fill="#FFE078" stroke="black" stroke-width="0.75" stroke-miterlimit="10"/>
<path d="M290.771 250.047H287.974V268.181H290.771V250.047Z" fill="#FFE078" stroke="black" stroke-width="0.75" stroke-miterlimit="10"/>
<path d="M307.662 250.047H304.864V268.181H307.662V250.047Z" fill="#FFE078" stroke="black" stroke-width="0.75" stroke-miterlimit="10"/>
<path d="M315.952 250.047H313.154V268.181H315.952V250.047Z" fill="#FFE078" stroke="black" stroke-width="0.75" stroke-miterlimit="10"/>
<path d="M324.242 250.047H321.444V268.181H324.242V250.047Z" fill="#FFE178" stroke="black" stroke-width="0.75" stroke-miterlimit="10"/>
<path d="M332.636 250.047H329.838V268.181H332.636V250.047Z" fill="#FFE178" stroke="black" stroke-width="0.75" stroke-miterlimit="10"/>
<path d="M349.838 250.047H347.04V268.181H349.838V250.047Z" fill="#FFE178" stroke="black" stroke-width="0.75" stroke-miterlimit="10"/>
<path d="M358.128 250.047H355.33V268.181H358.128V250.047Z" fill="#FFE178" stroke="black" stroke-width="0.75" stroke-miterlimit="10"/>
<path d="M366.418 250.047H363.62V268.181H366.418V250.047Z" fill="#FFE178" stroke="black" stroke-width="0.75" stroke-miterlimit="10"/>
<path d="M374.811 250.047H372.013V268.181H374.811V250.047Z" fill="#FFE178" stroke="black" stroke-width="0.75" stroke-miterlimit="10"/>
<path d="M365.07 44.6624H341.237V90.5682H365.07V44.6624Z" fill="#FFE178" stroke="black" stroke-width="0.75" stroke-miterlimit="10"/>
<path d="M365.07 44.6624H341.237V48.082H365.07V44.6624Z" fill="#F8E8DB" stroke="black" stroke-width="0.75" stroke-miterlimit="10"/>
<path d="M299.061 108.91H296.264V268.285H299.061V108.91Z" fill="#FFE178" stroke="black" stroke-width="0.75" stroke-miterlimit="10"/>
<path d="M341.237 108.91H338.439V268.285H341.237V108.91Z" fill="#FFE178" stroke="black" stroke-width="0.75" stroke-miterlimit="10"/>
<path d="M383.723 108.91H380.925V268.285H383.723V108.91Z" fill="#FFE178" stroke="black" stroke-width="0.75" stroke-miterlimit="10"/>
<path d="M257.508 108.91H254.71V268.285H257.508V108.91Z" fill="#FFE178" stroke="black" stroke-width="0.75" stroke-miterlimit="10"/>
<path d="M390.355 277.715H247.145V294.709H390.355V277.715Z" fill="#FFE078" stroke="black" stroke-width="0.75" stroke-miterlimit="10"/>
<path d="M340.097 297.714H296.16V308.388H340.097V297.714Z" fill="#F8E8DB" stroke="#1D1D1B" stroke-width="0.75" stroke-miterlimit="10"/>
<path d="M274.088 297.714H249.218V308.388H274.088V297.714Z" fill="#FBF3EB" stroke="black" stroke-width="0.75" stroke-miterlimit="10"/>
<path d="M387.453 297.714H362.583V308.388H387.453V297.714Z" fill="#F8E8DB" stroke="#1D1D1B" stroke-width="0.75" stroke-miterlimit="10"/>
<path d="M390.355 311.393H359.682V294.813H342.584V311.393H293.569V294.813H276.575V311.393H247.145V318.025H276.575V372.013H293.569V318.025H342.584V372.013H359.682V318.025H390.355V311.393Z" fill="#FFE078" stroke="black" stroke-width="0.75" stroke-miterlimit="10"/>
<path d="M339.89 320.823H295.953V369.63H339.89V320.823Z" fill="#F8E8DB" stroke="#1D1D1B" stroke-width="0.75" stroke-miterlimit="10"/>
<path d="M273.881 320.823H249.114V369.63H273.881V320.823Z" fill="#FBF3EB" stroke="black" stroke-width="0.75" stroke-miterlimit="10"/>
<path d="M386.935 320.823H362.169V369.63H386.935V320.823Z" fill="#F8E8DB" stroke="#1D1D1B" stroke-width="0.75" stroke-miterlimit="10"/>
<path d="M276.575 108.91V162.898" stroke="black" stroke-width="0.75" stroke-miterlimit="10"/>
<path d="M260.927 135.852H292.119" stroke="black" stroke-width="0.75" stroke-miterlimit="10"/>
<path d="M276.678 193.364V247.353" stroke="black" stroke-width="0.75" stroke-miterlimit="10"/>
<path d="M260.927 220.307H292.119" stroke="black" stroke-width="0.75" stroke-miterlimit="10"/>
<path d="M318.75 108.91V162.898" stroke="black" stroke-width="0.75" stroke-miterlimit="10"/>
<path d="M303.103 135.852H334.294" stroke="black" stroke-width="0.75" stroke-miterlimit="10"/>
<path d="M303.103 220.617H334.294" stroke="black" stroke-width="0.75" stroke-miterlimit="10"/>
<path d="M360.925 193.364V247.353" stroke="black" stroke-width="0.75" stroke-miterlimit="10"/>
<path d="M345.278 220.307H376.366" stroke="black" stroke-width="0.75" stroke-miterlimit="10"/>
<path d="M360.925 108.91V162.898" stroke="black" stroke-width="0.75" stroke-miterlimit="10"/>
<path d="M345.278 135.852H376.469" stroke="black" stroke-width="0.75" stroke-miterlimit="10"/>
<path d="M421.961 318.75C421.961 312.844 417.712 307.973 412.013 306.937C410.873 299.372 404.448 293.569 396.572 293.569C389.526 293.569 383.516 298.336 381.65 304.761C375.951 305.693 371.495 310.564 371.495 316.574C371.495 318.439 371.91 320.305 372.739 321.859C371.495 323.724 370.666 326.004 370.666 328.491C370.666 332.636 372.739 336.263 375.848 338.335C375.848 338.543 375.848 338.75 375.848 339.061C375.848 345.693 381.236 350.978 387.764 350.978C390.977 350.978 393.982 349.63 396.158 347.558C398.334 349.63 401.236 350.978 404.552 350.978C409.733 350.978 414.189 347.662 415.847 342.998C419.474 340.926 421.857 337.092 421.857 332.636C421.857 330.045 421.028 327.558 419.577 325.589C421.132 323.828 421.961 321.341 421.961 318.75Z" fill="#AAC380" stroke="#1D1D1B" stroke-width="0.75" stroke-miterlimit="10"/>
<path d="M390.251 322.377C390.251 322.377 404.137 361.133 392.946 379.682H403.308C403.308 379.682 400.199 336.159 391.806 321.444L390.251 322.377Z" fill="#F8E8DB" stroke="#1D1D1B" stroke-width="0.75" stroke-miterlimit="10"/>
<path d="M394.914 328.906C394.914 328.906 400.925 326.211 401.132 315.227H403.204C403.204 315.227 403.101 326.419 396.262 333.776L394.914 328.906Z" fill="#F8E8DB" stroke="#1D1D1B" stroke-width="0.75" stroke-miterlimit="10"/>
<path d="M381.65 330.978C381.65 330.978 389.319 340.512 395.122 340.201L395.743 343.413C395.743 343.413 389.526 343.724 380.925 332.636L381.65 330.978Z" fill="#F8E8DB" stroke="#1D1D1B" stroke-width="0.75" stroke-miterlimit="10"/>
<path d="M318.025 175.23H62.2786V411.184H318.025V175.23Z" fill="#F8E8DB" stroke="#1D1D1B" stroke-width="0.75" stroke-miterlimit="10"/>
<path d="M124.039 379.371H95.853V340.926C95.853 340.926 101.138 336.988 109.946 336.988C118.132 336.988 124.039 340.926 124.039 340.926V379.371Z" stroke="#1D1D1B" stroke-width="0.75" stroke-miterlimit="10"/>
<path d="M124.143 312.429H95.853V273.984C95.853 273.984 101.138 270.046 110.05 270.046C118.236 270.046 124.143 273.984 124.143 273.984V312.429Z" stroke="#1D1D1B" stroke-width="0.75" stroke-miterlimit="10"/>
<path d="M124.143 240.721H95.853V202.276C95.853 202.276 101.138 198.338 110.05 198.338C118.236 198.338 124.246 202.276 124.246 202.276L124.143 240.721Z" stroke="#1D1D1B" stroke-width="0.75" stroke-miterlimit="10"/>
<path d="M311.289 321.444H69.0142V326.833H311.289V321.444Z" fill="#F8E8DB" stroke="#1D1D1B" stroke-width="0.75" stroke-miterlimit="10"/>
<path d="M62.2785 175.23L59.1698 169.53H321.548L318.025 175.23H62.2785Z" fill="#F0AAC8" stroke="black" stroke-width="0.75" stroke-miterlimit="10"/>
<path d="M88.1848 133.987H72.6411V169.427H88.1848V133.987Z" fill="#F0AAC8" stroke="black" stroke-width="0.75" stroke-miterlimit="10"/>
<path d="M297.507 156.577H284.554V169.53H297.507V156.577Z" fill="#F8E8DB" stroke="#1D1D1B" stroke-width="0.75" stroke-miterlimit="10"/>
<path d="M136.578 139.79H124.143V169.53H136.578V139.79Z" fill="#F8E8DB" stroke="#1D1D1B" stroke-width="0.75" stroke-miterlimit="10"/>
<path d="M314.087 175.23H66.3199V181.136H314.087V175.23Z" fill="#F8E8DB" stroke="#1D1D1B" stroke-width="0.75" stroke-miterlimit="10"/>
<path d="M124.143 181.136V321.444H130.878V317.61V309.32H128.08V301.03H130.878V292.74H128.08V284.45H130.878V276.16H128.08V267.87H130.878V259.684H128.08V251.394H130.878V243.104H128.08V234.814H130.878V226.524H128.08V218.234H130.878V209.944H128.08V201.654H130.878V193.364H128.08V181.136H124.143Z" fill="#F0AAC8" stroke="black" stroke-width="0.75" stroke-miterlimit="10"/>
<path d="M95.7494 181.136L95.853 321.444H89.1174V317.61V309.32H91.8117V301.03H89.1174V292.74H91.8117V284.45H89.1174V276.16H91.8117V267.87H89.1174V259.684H91.8117V251.394H89.1174V243.104H91.8117V234.814H89.1174V226.524H91.8117V218.234H89.1174V209.944H91.8117V201.654H89.1174V193.364H91.8117V181.136H95.7494Z" fill="#F0AAC8" stroke="black" stroke-width="0.75" stroke-miterlimit="10"/>
<path d="M124.143 240.721H95.853V244.969H124.143V240.721Z" fill="#F0AAC8" stroke="black" stroke-width="0.75" stroke-miterlimit="10"/>
<path d="M124.143 312.429H95.9567V316.678H124.143V312.429Z" fill="#F0AAC8" stroke="black" stroke-width="0.75" stroke-miterlimit="10"/>
<path d="M111.189 194.504H109.013L107.563 189.426H112.64L111.189 194.504Z" fill="#F0AAC8" stroke="black" stroke-width="0.75" stroke-miterlimit="10"/>
<path d="M124.143 202.172C124.143 202.172 118.34 198.338 110.153 198.338C101.345 198.338 95.853 202.276 95.853 202.276V196.473C95.853 196.473 101.345 192.535 110.153 192.535C118.34 192.535 124.143 196.369 124.143 196.369V202.172Z" fill="#F0AAC8" stroke="black" stroke-width="0.75" stroke-miterlimit="10"/>
<path d="M111.397 266.212H109.221L107.77 261.238H112.848L111.397 266.212Z" fill="#F0AAC8" stroke="black" stroke-width="0.75" stroke-miterlimit="10"/>
<path d="M124.143 273.984C124.143 273.984 118.236 270.15 110.05 270.15C101.242 270.15 95.853 274.088 95.853 274.088V268.285C95.853 268.285 101.242 264.347 110.05 264.347C118.236 264.347 124.143 268.078 124.143 268.078V273.984Z" fill="#F0AAC8" stroke="black" stroke-width="0.75" stroke-miterlimit="10"/>
<path d="M95.9567 202.276H124.246" stroke="#1D1D1B" stroke-width="0.75" stroke-miterlimit="10"/>
<path d="M95.7494 214.711H124.039" stroke="#1D1D1B" stroke-width="0.75" stroke-miterlimit="10"/>
<path d="M109.946 240.721V202.172" stroke="#1D1D1B" stroke-width="0.75" stroke-miterlimit="10"/>
<path d="M95.7494 227.664H124.039" stroke="#1D1D1B" stroke-width="0.75" stroke-miterlimit="10"/>
<path d="M95.7494 286.523H124.039" stroke="#1D1D1B" stroke-width="0.75" stroke-miterlimit="10"/>
<path d="M109.946 312.533V273.984" stroke="#1D1D1B" stroke-width="0.75" stroke-miterlimit="10"/>
<path d="M95.7494 299.476H124.039" stroke="#1D1D1B" stroke-width="0.75" stroke-miterlimit="10"/>
<path d="M176.37 215.125H204.659" stroke="#1D1D1B" stroke-width="0.75" stroke-miterlimit="10"/>
<path d="M190.566 241.135V202.587" stroke="#1D1D1B" stroke-width="0.75" stroke-miterlimit="10"/>
<path d="M176.37 228.078H204.659" stroke="#1D1D1B" stroke-width="0.75" stroke-miterlimit="10"/>
<path d="M256.368 215.125H284.658" stroke="#1D1D1B" stroke-width="0.75" stroke-miterlimit="10"/>
<path d="M270.461 241.135V202.587" stroke="#1D1D1B" stroke-width="0.75" stroke-miterlimit="10"/>
<path d="M256.368 228.078H284.658" stroke="#1D1D1B" stroke-width="0.75" stroke-miterlimit="10"/>
<path d="M176.37 286.523H204.659" stroke="#1D1D1B" stroke-width="0.75" stroke-miterlimit="10"/>
<path d="M190.566 312.533V273.984" stroke="#1D1D1B" stroke-width="0.75" stroke-miterlimit="10"/>
<path d="M176.37 299.476H204.659" stroke="#1D1D1B" stroke-width="0.75" stroke-miterlimit="10"/>
<path d="M256.575 286.523H284.865" stroke="#1D1D1B" stroke-width="0.75" stroke-miterlimit="10"/>
<path d="M270.668 312.533V273.984" stroke="#1D1D1B" stroke-width="0.75" stroke-miterlimit="10"/>
<path d="M256.575 299.476H284.865" stroke="#1D1D1B" stroke-width="0.75" stroke-miterlimit="10"/>
<path d="M95.7494 353.465H124.039" stroke="#1D1D1B" stroke-width="0.75" stroke-miterlimit="10"/>
<path d="M109.946 379.474V340.926" stroke="#1D1D1B" stroke-width="0.75" stroke-miterlimit="10"/>
<path d="M95.7494 366.521H124.039" stroke="#1D1D1B" stroke-width="0.75" stroke-miterlimit="10"/>
<path d="M95.853 274.088H124.143" stroke="black" stroke-width="0.75" stroke-miterlimit="10"/>
<path d="M95.853 341.03H124.143" stroke="black" stroke-width="0.75" stroke-miterlimit="10"/>
<path d="M284.554 312.429H256.264V273.984C256.264 273.984 261.549 270.046 270.461 270.046C278.647 270.046 284.554 273.984 284.554 273.984V312.429Z" stroke="#1D1D1B" stroke-width="0.75" stroke-miterlimit="10"/>
<path d="M284.554 240.721H256.264V202.276C256.264 202.276 261.549 198.338 270.461 198.338C278.647 198.338 284.658 202.276 284.658 202.276V240.721H284.554Z" stroke="#1D1D1B" stroke-width="0.75" stroke-miterlimit="10"/>
<path d="M284.554 181.136V321.444H291.29V317.61V309.32H288.492V301.03H291.29V292.74H288.492V284.45H291.29V276.16H288.492V267.87H291.29V259.684H288.492V251.394H291.29V243.104H288.492V234.814H291.29V226.524H288.492V218.234H291.29V209.944H288.492V201.654H291.29V193.364H288.492V181.136H284.554Z" fill="#F0AAC8" stroke="black" stroke-width="0.75" stroke-miterlimit="10"/>
<path d="M256.264 181.136V321.444H249.529V317.61V309.32H252.223V301.03H249.529V292.74H252.223V284.45H249.529V276.16H252.223V267.87H249.529V259.684H252.223V251.394H249.529V243.104H252.223V234.814H249.529V226.524H252.223V218.234H249.529V209.944H252.223V201.654H249.529V193.364H252.223V181.136H256.264Z" fill="#F0AAC8" stroke="black" stroke-width="0.75" stroke-miterlimit="10"/>
<path d="M284.554 240.721H256.264V244.969H284.554V240.721Z" fill="#F0AAC8" stroke="black" stroke-width="0.75" stroke-miterlimit="10"/>
<path d="M284.554 312.429H256.264V316.678H284.554V312.429Z" fill="#F0AAC8" stroke="black" stroke-width="0.75" stroke-miterlimit="10"/>
<path d="M271.601 194.504H269.425L267.974 189.426H273.052L271.601 194.504Z" fill="#F0AAC8" stroke="black" stroke-width="0.75" stroke-miterlimit="10"/>
<path d="M284.554 202.172C284.554 202.172 278.751 198.338 270.565 198.338C261.757 198.338 256.264 202.276 256.264 202.276V196.473C256.264 196.473 261.757 192.535 270.565 192.535C278.751 192.535 284.554 196.369 284.554 196.369V202.172Z" fill="#F0AAC8" stroke="black" stroke-width="0.75" stroke-miterlimit="10"/>
<path d="M271.808 266.212H269.632L268.181 261.238H273.259L271.808 266.212Z" fill="#F0AAC8" stroke="black" stroke-width="0.75" stroke-miterlimit="10"/>
<path d="M284.554 273.984C284.554 273.984 278.647 270.15 270.461 270.15C261.653 270.15 256.264 274.088 256.264 274.088V268.285C256.264 268.285 261.653 264.347 270.461 264.347C278.647 264.347 284.554 268.078 284.554 268.078V273.984Z" fill="#F0AAC8" stroke="black" stroke-width="0.75" stroke-miterlimit="10"/>
<path d="M256.368 202.276H284.658" stroke="#1D1D1B" stroke-width="0.75" stroke-miterlimit="10"/>
<path d="M256.264 274.088H284.554" stroke="#1D1D1B" stroke-width="0.75" stroke-miterlimit="10"/>
<path d="M204.348 312.429H176.059V273.984C176.059 273.984 181.344 270.046 190.255 270.046C198.442 270.046 204.348 273.984 204.348 273.984V312.429Z" stroke="#1D1D1B" stroke-width="0.75" stroke-miterlimit="10"/>
<path d="M204.348 240.721H176.059V202.276C176.059 202.276 181.344 198.338 190.255 198.338C198.442 198.338 204.452 202.276 204.452 202.276L204.348 240.721Z" stroke="#1D1D1B" stroke-width="0.75" stroke-miterlimit="10"/>
<path d="M204.348 181.136V321.444H211.084V317.61V309.32H208.286V301.03H211.084V292.74H208.286V284.554H211.084V276.264H208.286V267.974H211.084V259.684H208.286V251.394H211.084V243.104H208.286V234.814H211.084V226.524H208.286V218.234H211.084V209.944H208.286V201.654H211.084V193.364H208.286V181.136H204.348Z" fill="#F0AAC8" stroke="black" stroke-width="0.75" stroke-miterlimit="10"/>
<path d="M176.059 181.136V321.444H169.323V317.61V309.32H172.121V301.03H169.323V292.74H172.121V284.554H169.323V276.264H172.121V267.974H169.323V259.684H172.121V251.394H169.323V243.104H172.121V234.814H169.323V226.524H172.121V218.234H169.323V209.944H172.121V201.654H169.323V193.364H172.121V181.136H176.059Z" fill="#F0AAC8" stroke="black" stroke-width="0.75" stroke-miterlimit="10"/>
<path d="M204.348 240.721H176.059V244.969H204.348V240.721Z" fill="#F0AAC8" stroke="black" stroke-width="0.75" stroke-miterlimit="10"/>
<path d="M204.348 312.429H176.162V316.678H204.348V312.429Z" fill="#F0AAC8" stroke="black" stroke-width="0.75" stroke-miterlimit="10"/>
<path d="M191.499 194.504H189.219L187.768 189.426H192.846L191.499 194.504Z" fill="#F0AAC8" stroke="black" stroke-width="0.75" stroke-miterlimit="10"/>
<path d="M204.348 202.172C204.348 202.172 198.545 198.338 190.359 198.338C181.551 198.338 176.059 202.276 176.059 202.276V196.473C176.059 196.473 181.551 192.535 190.359 192.535C198.545 192.535 204.348 196.369 204.348 196.369V202.172Z" fill="#F0AAC8" stroke="black" stroke-width="0.75" stroke-miterlimit="10"/>
<path d="M191.706 266.316H189.426L187.976 261.238H193.053L191.706 266.316Z" fill="#F0AAC8" stroke="black" stroke-width="0.75" stroke-miterlimit="10"/>
<path d="M204.348 273.984C204.348 273.984 198.442 270.15 190.255 270.15C181.447 270.15 176.059 274.088 176.059 274.088V268.285C176.059 268.285 181.447 264.347 190.255 264.347C198.442 264.347 204.348 268.078 204.348 268.078V273.984Z" fill="#F0AAC8" stroke="black" stroke-width="0.75" stroke-miterlimit="10"/>
<path d="M176.162 202.276H204.452" stroke="#1D1D1B" stroke-width="0.75" stroke-miterlimit="10"/>
<path d="M176.059 274.088H204.348" stroke="#1D1D1B" stroke-width="0.75" stroke-miterlimit="10"/>
<path d="M178.131 379.371H66.3199V411.287H178.131V379.371Z" fill="#F0AAC8" stroke="black" stroke-width="0.75" stroke-miterlimit="10"/>
<path d="M178.131 332.843V411.287H171.396V407.453V399.163H174.193V390.873H171.396V382.583H174.193V374.293H171.396V366.003H174.193V357.713H171.396V349.423H174.193V341.133H171.396V332.843H178.131C178.131 332.843 182.38 329.216 191.292 329.216C199.582 329.216 204.452 332.843 204.452 332.843V341.03L179.789 341.444H178.131" fill="#F0AAC8"/>
<path d="M178.131 332.843V411.287H171.396V407.453V399.163H174.193V390.873H171.396V382.583H174.193V374.293H171.396V366.003H174.193V357.713H171.396V349.423H174.193V341.133H171.396V332.843H178.131ZM178.131 332.843C178.131 332.843 182.38 329.216 191.292 329.216C199.582 329.216 204.452 332.843 204.452 332.843V341.03L179.789 341.444H178.131" stroke="black" stroke-width="0.75" stroke-miterlimit="10"/>
<path d="M318.025 379.371H204.452V411.287H318.025V379.371Z" fill="#F0AAC8" stroke="black" stroke-width="0.75" stroke-miterlimit="10"/>
<path d="M311.289 195.747V187.457H314.087V175.23H318.025V411.287H314.087V411.184H311.289V402.894H314.087V394.604H311.289V386.314H314.087V378.024H311.289V369.734H314.087V361.444H311.289V353.154H314.087V344.967H311.289V336.677H314.087V328.387H311.289V320.097H314.087V311.807H311.289V303.517H314.087V295.227H311.289V286.937H314.087V278.647H311.289V270.357H314.087V262.067H311.289V253.777H314.087V245.487H311.289V237.197H314.087V228.907H311.289V220.617H314.087V212.327H311.289V204.037H314.087V195.747H311.289Z" fill="#F0AAC8" stroke="black" stroke-width="0.75" stroke-miterlimit="10"/>
<path d="M89.0138 335.123V343.309H91.8117V351.496H89.0138V359.786H91.8117V368.076H89.0138V376.366V379.371H95.7494V335.123H91.8117H89.0138Z" fill="#F0AAC8" stroke="black" stroke-width="0.75" stroke-miterlimit="10"/>
<path d="M128.08 335.123H130.775V343.309H127.977V351.496H130.775V359.786H127.977V368.076H130.775V376.366V379.371H124.039V335.123H128.08Z" fill="#F0AAC8" stroke="black" stroke-width="0.75" stroke-miterlimit="10"/>
<path d="M204.452 411.287H178.131V340.719C178.131 340.719 182.38 336.988 191.292 336.988C199.582 336.988 204.452 340.615 204.452 340.615V411.287Z" fill="#F8E8DB" stroke="#1D1D1B" stroke-width="0.75" stroke-miterlimit="10"/>
<path d="M204.452 332.843V411.287H211.188V407.453V399.163H208.39V390.873H211.188V382.583H208.39V374.293H211.188V366.003H208.39V357.713H211.188V349.423H208.39V341.133H211.188V332.843H204.452Z" fill="#F0AAC8" stroke="black" stroke-width="0.75" stroke-miterlimit="10"/>
<path d="M188.183 346.314H181.24V353.257H188.183V346.314Z" fill="#F0AAC8" stroke="black" stroke-width="0.75" stroke-miterlimit="10"/>
<path d="M201.343 346.314H194.4V353.257H201.343V346.314Z" fill="#F0AAC8" stroke="black" stroke-width="0.75" stroke-miterlimit="10"/>
<path d="M188.183 358.957H181.24V365.899H188.183V358.957Z" fill="#F0AAC8" stroke="black" stroke-width="0.75" stroke-miterlimit="10"/>
<path d="M201.343 358.957H194.4V365.899H201.343V358.957Z" fill="#F0AAC8" stroke="black" stroke-width="0.75" stroke-miterlimit="10"/>
<path d="M188.183 370.666H181.24V377.609H188.183V370.666Z" fill="#F0AAC8" stroke="black" stroke-width="0.75" stroke-miterlimit="10"/>
<path d="M201.343 370.666H194.4V377.609H201.343V370.666Z" fill="#F0AAC8" stroke="black" stroke-width="0.75" stroke-miterlimit="10"/>
<path d="M111.293 333.154H109.117L107.666 326.833H112.744L111.293 333.154Z" fill="#F0AAC8" stroke="black" stroke-width="0.75" stroke-miterlimit="10"/>
<path d="M192.431 333.154H190.152L188.701 326.833H193.779L192.431 333.154Z" fill="#F0AAC8" stroke="black" stroke-width="0.75" stroke-miterlimit="10"/>
<path d="M124.039 340.822C124.039 340.822 118.132 336.988 109.946 336.988C101.138 336.988 95.853 340.822 95.853 340.822V335.123C95.853 335.123 101.138 331.185 109.946 331.185C118.132 331.185 124.039 334.916 124.039 334.916V340.822Z" fill="#F0AAC8" stroke="black" stroke-width="0.75" stroke-miterlimit="10"/>
<path d="M284.45 379.371H256.264V340.926C256.264 340.926 261.549 336.988 270.357 336.988C278.544 336.988 284.45 340.926 284.45 340.926V379.371Z" stroke="#1D1D1B" stroke-width="0.75" stroke-miterlimit="10"/>
<path d="M256.264 341.03H284.554" stroke="#1D1D1B" stroke-width="0.75" stroke-miterlimit="10"/>
<path d="M284.554 352.428H256.264V353.154H284.554V352.428Z" fill="#F0AAC8" stroke="black" stroke-width="0.75" stroke-miterlimit="10"/>
<path d="M284.45 366.936H256.161V367.661H284.45V366.936Z" fill="#F0AAC8" stroke="black" stroke-width="0.75" stroke-miterlimit="10"/>
<path d="M270.772 341.03H270.047V379.371H270.772V341.03Z" fill="#F0AAC8" stroke="black" stroke-width="0.75" stroke-miterlimit="10"/>
<path d="M256.264 335.123V379.371H249.529V376.366V368.076H252.223V359.786H249.529V351.496H252.223V343.309H249.529V335.123H256.264Z" fill="#F0AAC8" stroke="black" stroke-width="0.75" stroke-miterlimit="10"/>
<path d="M288.492 335.123H291.186V343.309H288.492V351.496H291.186V359.786H288.492V368.076H291.186V376.366V379.371H284.45V335.123H288.492Z" fill="#F0AAC8" stroke="black" stroke-width="0.75" stroke-miterlimit="10"/>
<path d="M271.808 333.154H269.528L268.078 326.833H273.155L271.808 333.154Z" fill="#F0AAC8" stroke="black" stroke-width="0.75" stroke-miterlimit="10"/>
<path d="M284.45 340.822C284.45 340.822 278.544 336.988 270.357 336.988C261.549 336.988 256.264 340.822 256.264 340.822V335.123C256.264 335.123 261.549 331.185 270.357 331.185C278.544 331.185 284.45 334.916 284.45 334.916V340.822Z" fill="#F0AAC8" stroke="black" stroke-width="0.75" stroke-miterlimit="10"/>
<path d="M137.821 144.66H122.899L124.143 139.79H136.578L137.821 144.66Z" fill="#F0AAC8" stroke="black" stroke-width="0.75" stroke-miterlimit="10"/>
<path d="M69.0142 195.747V187.457H66.3199V175.23H62.2786V411.287H66.3199V411.184H69.0142V402.894H66.3199V394.604H69.0142V386.314H66.3199V378.024H69.0142V369.734H66.3199V361.444H69.0142V353.154H66.3199V344.967H69.0142V336.677H66.3199V328.387H69.0142V320.097H66.3199V311.807H69.0142V303.517H66.3199V295.227H69.0142V286.937H66.3199V278.647H69.0142V270.357H66.3199V262.067H69.0142V253.777H66.3199V245.487H69.0142V237.197H66.3199V228.907H69.0142V220.617H66.3199V212.327H69.0142V204.037H66.3199V195.747H69.0142Z" fill="#F0AAC8" stroke="black" stroke-width="0.75" stroke-miterlimit="10"/>
<path d="M208.39 365.382L283.725 331.911H338.957L414.189 365.382H208.39Z" fill="#4669AA" stroke="black" stroke-width="0.75" stroke-miterlimit="10"/>
<path d="M405.484 475.742H217.198V501.545H405.484V475.742Z" fill="#4669AA" stroke="black" stroke-width="0.75" stroke-miterlimit="10"/>
<path d="M408.904 501.544H213.882V505.793H408.904V501.544Z" fill="#F8E8DB" stroke="#1D1D1B" stroke-width="0.75" stroke-miterlimit="10"/>
<path d="M411.08 505.793H209.633V510.042H411.08V505.793Z" fill="#F8E8DB" stroke="#1D1D1B" stroke-width="0.75" stroke-miterlimit="10"/>
<path d="M331.082 475.742H291.704V479.991H331.082V475.742Z" fill="#F8E8DB" stroke="#1D1D1B" stroke-width="0.75" stroke-miterlimit="10"/>
<path d="M332.636 479.99H290.046V484.239H332.636V479.99Z" fill="#F8E8DB" stroke="#1D1D1B" stroke-width="0.75" stroke-miterlimit="10"/>
<path d="M335.019 484.343H287.766V488.591H335.019V484.343Z" fill="#F8E8DB" stroke="#1D1D1B" stroke-width="0.75" stroke-miterlimit="10"/>
<path d="M337.714 488.591H284.968V492.84H337.714V488.591Z" fill="#F8E8DB" stroke="#1D1D1B" stroke-width="0.75" stroke-miterlimit="10"/>
<path d="M340.511 492.944H282.274V497.192H340.511V492.944Z" fill="#F8E8DB" stroke="#1D1D1B" stroke-width="0.75" stroke-miterlimit="10"/>
<path d="M343.724 497.192H279.062V501.441H343.724V497.192Z" fill="#F8E8DB" stroke="#1D1D1B" stroke-width="0.75" stroke-miterlimit="10"/>
<path d="M221.55 376.987H219.063V475.742H221.55V376.987Z" fill="#4669AA" stroke="black" stroke-width="0.75" stroke-miterlimit="10"/>
<path d="M270.461 369.008H267.974V475.742H270.461V369.008Z" fill="#4669AA" stroke="black" stroke-width="0.75" stroke-miterlimit="10"/>
<path d="M279.062 501.544V479.991L291.704 460.509V475.742" stroke="black" stroke-width="0.75" stroke-miterlimit="10"/>
<path d="M218.959 460.094H291.808" stroke="black" stroke-width="0.75" stroke-miterlimit="10"/>
<path d="M237.094 460.094V475.742" stroke="black" stroke-width="0.75" stroke-miterlimit="10"/>
<path d="M252.948 460.094V475.742" stroke="black" stroke-width="0.75" stroke-miterlimit="10"/>
<path d="M403.619 376.987H401.132V475.742H403.619V376.987Z" fill="#4669AA" stroke="black" stroke-width="0.75" stroke-miterlimit="10"/>
<path d="M354.708 369.008H352.221V475.742H354.708V369.008Z" fill="#4669AA" stroke="black" stroke-width="0.75" stroke-miterlimit="10"/>
<path d="M343.62 501.544V479.991L330.978 460.509V475.742" stroke="#1D1D1B" stroke-width="0.75" stroke-miterlimit="10"/>
<path d="M403.723 460.094H330.874" stroke="black" stroke-width="0.75" stroke-miterlimit="10"/>
<path d="M385.588 460.094V475.742" stroke="black" stroke-width="0.75" stroke-miterlimit="10"/>
<path d="M369.734 460.094V475.742" stroke="black" stroke-width="0.75" stroke-miterlimit="10"/>
<path d="M267.974 388.801C239.063 367.661 221.55 388.801 221.55 388.801V376.987L267.974 369.008V388.801Z" fill="#4669AA" stroke="black" stroke-width="0.75" stroke-miterlimit="10"/>
<path d="M401.132 388.801C401.132 388.801 383.619 367.661 354.708 388.801V369.112L401.132 377.091V388.801Z" fill="#4669AA" stroke="black" stroke-width="0.75" stroke-miterlimit="10"/>
<path d="M352.221 388.904C352.221 388.904 343.62 369.008 309.217 369.008C278.958 369.008 270.357 388.697 270.357 388.697V369.008H352.117L352.221 388.904Z" fill="#4669AA" stroke="black" stroke-width="0.75" stroke-miterlimit="10"/>
<path d="M208.39 380.821L267.974 369.008H354.708L414.189 380.407V376.987L354.708 365.381H267.974L208.39 377.195V380.821Z" fill="#4669AA" stroke="black" stroke-width="0.75" stroke-miterlimit="10"/>
<path d="M267.974 365.381H354.708L409.007 376.055V365.381L354.708 353.983H267.974L213.467 365.381V376.158L267.974 365.381Z" fill="#F8E8DB" stroke="#1D1D1B" stroke-width="0.75" stroke-miterlimit="10"/>
<path d="M283.725 331.91C283.725 331.91 300.927 324.657 310.875 309.631C310.875 309.631 322.481 324.035 338.853 331.91H283.725Z" fill="#F8E8DB" stroke="#1D1D1B" stroke-width="0.75" stroke-miterlimit="10"/>
<path d="M310.978 309.631V280.513" stroke="#1D1D1B" stroke-width="0.75" stroke-miterlimit="10"/>
<path d="M310.978 303.621C312.066 303.621 312.947 302.739 312.947 301.652C312.947 300.565 312.066 299.683 310.978 299.683C309.891 299.683 309.009 300.565 309.009 301.652C309.009 302.739 309.891 303.621 310.978 303.621Z" fill="#316CAD" stroke="black" stroke-width="0.75" stroke-miterlimit="10"/>
<path d="M310.978 307.87C312.066 307.87 312.947 307.313 312.947 306.626C312.947 305.939 312.066 305.383 310.978 305.383C309.891 305.383 309.009 305.939 309.009 306.626C309.009 307.313 309.891 307.87 310.978 307.87Z" fill="#316CAD" stroke="black" stroke-width="0.75" stroke-miterlimit="10"/>
<path d="M307.766 286.108C307.766 286.108 310.978 285.694 310.978 287.974" stroke="#1D1D1B" stroke-width="0.75" stroke-miterlimit="10"/>
<path d="M314.087 286.108C314.087 286.108 310.875 285.694 310.875 287.974" stroke="#1D1D1B" stroke-width="0.75" stroke-miterlimit="10"/>
<path d="M142.07 406.21C142.07 400.303 137.821 395.433 132.122 394.396C130.982 386.832 124.557 381.029 116.682 381.029C109.635 381.029 103.625 385.796 101.76 392.22C96.0603 393.153 91.6044 398.023 91.6044 404.034C91.6044 405.899 92.0189 407.764 92.8479 409.318C91.6044 411.184 90.7754 413.463 90.7754 415.95C90.7754 420.095 92.8479 423.722 95.9566 425.795C95.9566 426.002 95.9566 426.209 95.9566 426.52C95.9566 433.152 101.345 438.437 107.977 438.437C111.293 438.437 114.195 437.09 116.371 435.017C118.547 437.09 121.448 438.437 124.764 438.437C129.946 438.437 134.401 435.121 136.059 430.458C139.686 428.385 142.07 424.551 142.07 420.095C142.07 417.505 141.241 415.018 139.79 413.049C141.137 411.184 142.07 408.8 142.07 406.21Z" fill="#AAC382" stroke="#1D1D1B" stroke-width="0.75" stroke-miterlimit="10"/>
<path d="M110.361 409.836C110.361 409.836 124.246 448.592 113.055 467.141H123.417C123.417 467.141 120.309 423.619 111.915 408.904L110.361 409.836Z" fill="#FBF3EB" stroke="#1D1D1B" stroke-width="0.75" stroke-miterlimit="10"/>
<path d="M115.024 416.261C115.024 416.261 121.034 413.567 121.241 402.583H123.314C123.314 402.583 123.21 413.774 116.371 421.132L115.024 416.261Z" fill="#FBF3EB" stroke="#1D1D1B" stroke-width="0.75" stroke-miterlimit="10"/>
<path d="M101.76 418.334C101.76 418.334 109.428 427.867 115.231 427.556L115.853 430.769C115.853 430.769 109.635 431.08 101.034 419.992L101.76 418.334Z" fill="#FBF3EB" stroke="#1D1D1B" stroke-width="0.75" stroke-miterlimit="10"/>
<path d="M16.9945 76.9933C16.9945 76.9933 -2.90147 80.2057 0.829029 98.5473C0.829029 98.5473 4.35228 112.847 16.9945 113.366H95.0241C115.335 114.609 135.749 74.0918 93.1588 68.496C93.1588 68.496 86.1123 49.4291 66.8381 50.9834C66.8381 50.9834 50.6726 51.5016 45.9059 67.1489C45.9059 67.1489 36.9941 62.2785 27.8751 66.6308C27.7715 66.4235 18.0308 70.2577 16.9945 76.9933Z" fill="#F8E8DB" stroke="#1D1D1B" stroke-width="0.75" stroke-miterlimit="10"/>
<path d="M411.909 17.2017C411.909 17.2017 399.163 19.2742 401.546 30.9839C401.546 30.9839 403.826 40.1028 411.909 40.5173H461.96C474.498 42.7971 488.073 15.3365 460.716 11.7096C460.716 11.7096 456.26 -0.518109 443.825 0.51814C443.825 0.51814 433.463 0.829015 430.354 10.8806C430.354 10.8806 424.655 7.77188 418.852 10.5698C418.852 10.4661 412.634 12.8495 411.909 17.2017Z" fill="#F8E8DB" stroke="#1D1D1B" stroke-width="0.75" stroke-miterlimit="10"/>
</g>
<defs>
<clipPath id="clip0_730_3491">
<rect width="476.985" height="510.456" fill="white"/>
</clipPath>
</defs>
</svg>
