<?xml version="1.0" encoding="UTF-8"?><svg id="Calque_1" xmlns="http://www.w3.org/2000/svg" viewBox="0 0 460.31 492.62"><defs><style>.cls-1,.cls-2{fill:none;}.cls-1,.cls-2,.cls-3,.cls-4,.cls-5,.cls-6,.cls-7,.cls-8,.cls-9{stroke-miterlimit:10;stroke-width:.75px;}.cls-1,.cls-6,.cls-7,.cls-9{stroke:#1d1d1b;}.cls-2,.cls-3,.cls-4,.cls-5,.cls-8{stroke:#000;}.cls-3{fill:#f0aac8;}.cls-4,.cls-7{fill:#fbf3eb;}.cls-5{fill:#ffe078;}.cls-6{fill:#fff;}.cls-8{fill:#316cad;}.cls-9{fill:#aac280;}</style></defs><polygon class="cls-4" points="376.66 359.04 238.5 359.04 238.5 102.4 238.5 75.78 376.66 75.78 376.66 102.4 376.66 359.04"/><rect class="cls-4" x="251.74" y="105.08" width="30.3" height="52.09"/><rect class="cls-5" x="238.5" y="157.18" width="138.16" height="2.68"/><rect class="cls-5" x="238.5" y="177.38" width="138.16" height="2.68"/><rect class="cls-5" x="238.5" y="102.4" width="138.16" height="2.68"/><rect class="cls-4" x="292.43" y="105.08" width="30.3" height="52.09"/><rect class="cls-4" x="333.12" y="105.08" width="30.3" height="52.09"/><rect class="cls-5" x="253.79" y="159.86" width="2.68" height="17.52"/><rect class="cls-5" x="261.81" y="159.86" width="2.68" height="17.52"/><rect class="cls-5" x="269.84" y="159.86" width="2.68" height="17.52"/><rect class="cls-5" x="277.87" y="159.86" width="2.68" height="17.52"/><rect class="cls-5" x="294.2" y="159.86" width="2.68" height="17.52"/><rect class="cls-5" x="302.22" y="159.86" width="2.68" height="17.52"/><rect class="cls-5" x="310.25" y="159.86" width="2.68" height="17.52"/><rect class="cls-5" x="318.28" y="159.86" width="2.68" height="17.52"/><rect class="cls-5" x="334.89" y="159.86" width="2.68" height="17.52"/><rect class="cls-5" x="342.91" y="159.86" width="2.68" height="17.52"/><rect class="cls-5" x="350.94" y="159.86" width="2.68" height="17.52"/><rect class="cls-5" x="358.96" y="159.86" width="2.68" height="17.52"/><rect class="cls-4" x="251.74" y="186.57" width="30.3" height="52.09"/><rect class="cls-5" x="238.5" y="238.66" width="138.16" height="2.68"/><rect class="cls-5" x="238.5" y="258.87" width="138.16" height="2.68"/><rect class="cls-5" x="238.5" y="183.89" width="138.16" height="2.68"/><rect class="cls-4" x="292.43" y="186.57" width="30.3" height="52.09"/><rect class="cls-4" x="333.12" y="186.57" width="30.3" height="52.09"/><rect class="cls-5" x="253.79" y="241.34" width="2.68" height="17.52"/><rect class="cls-5" x="261.81" y="241.34" width="2.68" height="17.52"/><rect class="cls-5" x="269.84" y="241.34" width="2.68" height="17.52"/><rect class="cls-5" x="277.87" y="241.34" width="2.68" height="17.52"/><rect class="cls-5" x="294.2" y="241.34" width="2.68" height="17.52"/><rect class="cls-5" x="302.22" y="241.34" width="2.68" height="17.52"/><rect class="cls-5" x="310.25" y="241.34" width="2.68" height="17.52"/><rect class="cls-5" x="318.28" y="241.34" width="2.68" height="17.52"/><rect class="cls-5" x="334.89" y="241.34" width="2.68" height="17.52"/><rect class="cls-5" x="342.91" y="241.34" width="2.68" height="17.52"/><rect class="cls-5" x="350.94" y="241.34" width="2.68" height="17.52"/><rect class="cls-5" x="358.96" y="241.34" width="2.68" height="17.52"/><rect class="cls-5" x="329.26" y="43.09" width="23.02" height="44.33"/><rect class="cls-4" x="329.26" y="43.09" width="23.02" height="3.34"/><rect class="cls-5" x="285.89" y="105.08" width="2.68" height="153.78"/><rect class="cls-5" x="326.58" y="105.08" width="2.68" height="153.78"/><rect class="cls-5" x="367.6" y="105.08" width="2.68" height="153.78"/><rect class="cls-5" x="245.76" y="105.08" width="2.68" height="153.78"/><rect class="cls-5" x="238.5" y="268.05" width="138.16" height="16.44"/><rect class="cls-4" x="285.77" y="287.32" width="42.43" height="10.32"/><rect class="cls-4" x="240.49" y="287.32" width="24" height="10.32"/><rect class="cls-4" x="349.87" y="287.32" width="24" height="10.32"/><polygon class="cls-5" points="376.66 300.47 347.08 300.47 347.08 284.49 330.64 284.49 330.64 300.47 283.33 300.47 283.33 284.49 266.89 284.49 266.89 300.47 238.5 300.47 238.5 306.85 266.89 306.85 266.89 359.04 283.33 359.04 283.33 306.85 330.64 306.85 330.64 359.04 347.08 359.04 347.08 306.85 376.66 306.85 376.66 300.47"/><rect class="cls-4" x="285.58" y="309.56" width="42.43" height="47.11"/><rect class="cls-4" x="240.41" y="309.56" width="23.9" height="47.11"/><rect class="cls-4" x="349.51" y="309.56" width="23.9" height="47.11"/><line class="cls-4" x1="266.89" y1="105.08" x2="266.89" y2="157.18"/><line class="cls-4" x1="251.78" y1="131.13" x2="281.87" y2="131.13"/><line class="cls-4" x1="266.95" y1="186.57" x2="266.95" y2="238.66"/><line class="cls-4" x1="251.84" y1="212.62" x2="281.94" y2="212.62"/><line class="cls-4" x1="307.64" y1="105.08" x2="307.64" y2="157.18"/><line class="cls-4" x1="292.53" y1="131.13" x2="322.62" y2="131.13"/><line class="cls-4" x1="307.64" y1="186.83" x2="307.64" y2="238.92"/><line class="cls-4" x1="292.53" y1="212.88" x2="322.62" y2="212.88"/><line class="cls-4" x1="348.27" y1="186.57" x2="348.27" y2="238.66"/><line class="cls-4" x1="333.16" y1="212.62" x2="363.25" y2="212.62"/><line class="cls-4" x1="348.33" y1="105.08" x2="348.33" y2="157.18"/><line class="cls-4" x1="333.22" y1="131.13" x2="363.31" y2="131.13"/><path class="cls-9" d="M407.22,307.61c0-5.71-4.15-10.44-9.59-11.38-1.06-7.27-7.3-12.85-14.86-12.85-6.84,0-12.6,4.57-14.42,10.81-5.54.85-9.79,5.63-9.79,11.41,0,1.84.44,3.58,1.21,5.12-1.23,1.84-1.96,4.05-1.96,6.43,0,3.96,2,7.46,5.04,9.54-.01.22-.03.44-.03.67,0,6.38,5.17,11.55,11.55,11.55,3.15,0,6-1.26,8.08-3.3,2.08,2.04,4.93,3.3,8.08,3.3,5.04,0,9.32-3.24,10.9-7.74,3.46-2,5.79-5.72,5.79-10,0-2.54-.83-4.88-2.21-6.78,1.39-1.91,2.21-4.24,2.21-6.78Z"/><path class="cls-7" d="M376.64,311.15s13.42,37.38,2.56,55.28h9.99s-2.97-41.96-11.06-56.25l-1.49.98Z"/><path class="cls-7" d="M381.14,317.35s5.8-2.59,6.03-13.25h2.01s-.08,10.79-6.67,17.91l-1.37-4.66Z"/><path class="cls-7" d="M368.3,319.37s7.38,9.23,12.96,8.88l.59,3.09s-6.01.31-14.32-10.43l.76-1.54Z"/><rect class="cls-7" x="60.13" y="169.15" width="246.77" height="227.7"/><path class="cls-1" d="M119.69,366.08h-27.24v-37.14s5.12-3.77,13.62-3.77c7.9,0,13.62,3.77,13.62,3.77v37.14Z"/><path class="cls-1" d="M119.77,301.45h-27.31v-37.14s5.13-3.77,13.66-3.77c7.93,0,13.6,3.75,13.6,3.75l.05,37.16Z"/><path class="cls-1" d="M119.78,232.3h-27.32v-37.14s5.13-3.77,13.66-3.77c7.93,0,13.66,3.77,13.66,3.77v37.14Z"/><rect class="cls-7" x="66.63" y="310.21" width="233.78" height="5.19"/><polygon class="cls-3" points="60.13 169.15 57.06 163.56 310.3 163.56 306.91 169.15 60.13 169.15"/><rect class="cls-3" x="70.12" y="129.31" width="14.97" height="34.24"/><rect class="cls-7" x="274.59" y="151.06" width="12.5" height="12.5"/><rect class="cls-7" x="119.77" y="134.9" width="12.02" height="28.66"/><rect class="cls-7" x="63.96" y="169.15" width="239.12" height="5.68"/><polyline class="cls-3" points="119.78 174.81 119.78 310.21 126.26 310.21 126.26 306.54 126.26 298.54 123.6 298.54 123.6 290.54 126.26 290.54 126.26 282.54 123.6 282.54 123.6 274.54 126.26 274.54 126.26 266.55 123.6 266.55 123.6 258.55 126.26 258.55 126.26 250.55 123.6 250.55 123.6 242.55 126.26 242.55 126.26 234.55 123.6 234.55 123.6 226.56 126.26 226.56 126.26 218.56 123.6 218.56 123.6 210.56 126.26 210.56 126.26 202.56 123.6 202.56 123.6 194.56 126.26 194.56 126.26 186.57 123.6 186.57 123.6 174.83 119.77 174.83"/><polyline class="cls-3" points="92.45 174.83 92.46 310.21 85.96 310.21 85.96 306.54 85.96 298.54 88.62 298.54 88.62 290.54 85.96 290.54 85.96 282.54 88.62 282.54 88.62 274.54 85.96 274.54 85.96 266.55 88.62 266.55 88.62 258.55 85.96 258.55 85.96 250.55 88.62 250.55 88.62 242.55 85.96 242.55 85.96 234.55 88.62 234.55 88.62 226.56 85.96 226.56 85.96 218.56 88.62 218.56 88.62 210.56 85.96 210.56 85.96 202.56 88.62 202.56 88.62 194.56 85.96 194.56 85.96 186.57 88.62 186.57 88.62 174.83 92.45 174.83"/><rect class="cls-3" x="92.49" y="232.27" width="27.29" height="4.09"/><rect class="cls-3" x="92.55" y="301.45" width="27.2" height="4.09"/><polygon class="cls-3" points="107.32 187.67 105.17 187.67 103.76 182.77 108.65 182.77 107.32 187.67"/><path class="cls-3" d="M119.78,195.14s-5.64-3.71-13.54-3.71c-8.5,0-13.78,3.77-13.78,3.77v-5.61s5.28-3.8,13.78-3.8c7.9,0,13.54,3.7,13.54,3.7v5.66Z"/><polygon class="cls-3" points="107.53 256.94 105.38 256.94 103.97 252.05 108.86 252.05 107.53 256.94"/><path class="cls-3" d="M119.78,264.36s-5.69-3.67-13.59-3.67c-8.5,0-13.73,3.77-13.73,3.77v-5.61s5.23-3.8,13.73-3.8c7.9,0,13.59,3.61,13.59,3.61v5.7Z"/><line class="cls-1" x1="92.55" y1="195.19" x2="119.86" y2="195.19"/><line class="cls-1" x1="92.42" y1="207.17" x2="119.72" y2="207.18"/><line class="cls-1" x1="106.08" y1="232.3" x2="106.08" y2="195.07"/><line class="cls-1" x1="92.42" y1="219.72" x2="119.72" y2="219.72"/><line class="cls-1" x1="92.42" y1="276.49" x2="119.72" y2="276.49"/><line class="cls-1" x1="106.08" y1="301.61" x2="106.08" y2="264.38"/><line class="cls-1" x1="92.42" y1="289.04" x2="119.72" y2="289.04"/><line class="cls-1" x1="170.2" y1="207.59" x2="197.51" y2="207.59"/><line class="cls-1" x1="183.86" y1="232.71" x2="183.86" y2="195.48"/><line class="cls-1" x1="170.2" y1="220.13" x2="197.51" y2="220.13"/><line class="cls-1" x1="247.36" y1="207.59" x2="274.66" y2="207.59"/><line class="cls-1" x1="261.02" y1="232.71" x2="261.02" y2="195.48"/><line class="cls-1" x1="247.36" y1="220.13" x2="274.66" y2="220.13"/><line class="cls-1" x1="170.21" y1="276.49" x2="197.52" y2="276.49"/><line class="cls-1" x1="183.87" y1="301.61" x2="183.87" y2="264.38"/><line class="cls-1" x1="170.21" y1="289.04" x2="197.52" y2="289.04"/><line class="cls-1" x1="247.57" y1="276.49" x2="274.87" y2="276.49"/><line class="cls-1" x1="261.23" y1="301.61" x2="261.23" y2="264.38"/><line class="cls-1" x1="247.57" y1="289.04" x2="274.87" y2="289.04"/><line class="cls-1" x1="92.42" y1="341.11" x2="119.72" y2="341.11"/><line class="cls-1" x1="106.08" y1="366.23" x2="106.08" y2="329.01"/><line class="cls-1" x1="92.42" y1="353.66" x2="119.72" y2="353.66"/><line class="cls-3" x1="92.49" y1="264.46" x2="119.79" y2="264.46"/><line class="cls-3" x1="92.46" y1="329.09" x2="119.77" y2="329.09"/><path class="cls-1" d="M274.58,301.45h-27.31v-37.14s5.13-3.77,13.66-3.77c7.93,0,13.6,3.75,13.6,3.75l.05,37.16Z"/><path class="cls-1" d="M274.59,232.3h-27.32v-37.14s5.13-3.77,13.66-3.77c7.93,0,13.66,3.77,13.66,3.77v37.14Z"/><polyline class="cls-3" points="274.59 174.81 274.59 310.21 281.07 310.21 281.07 306.54 281.07 298.54 278.41 298.54 278.41 290.54 281.07 290.54 281.07 282.54 278.41 282.54 278.41 274.54 281.07 274.54 281.07 266.55 278.41 266.55 278.41 258.55 281.07 258.55 281.07 250.55 278.41 250.55 278.41 242.55 281.07 242.55 281.07 234.55 278.41 234.55 278.41 226.56 281.07 226.56 281.07 218.56 278.41 218.56 278.41 210.56 281.07 210.56 281.07 202.56 278.41 202.56 278.41 194.56 281.07 194.56 281.07 186.57 278.41 186.57 278.41 174.83 274.58 174.83"/><polyline class="cls-3" points="247.26 174.83 247.27 310.21 240.77 310.21 240.77 306.54 240.77 298.54 243.43 298.54 243.43 290.54 240.77 290.54 240.77 282.54 243.43 282.54 243.43 274.54 240.77 274.54 240.77 266.55 243.43 266.55 243.43 258.55 240.77 258.55 240.77 250.55 243.43 250.55 243.43 242.55 240.77 242.55 240.77 234.55 243.43 234.55 243.43 226.56 240.77 226.56 240.77 218.56 243.43 218.56 243.43 210.56 240.77 210.56 240.77 202.56 243.43 202.56 243.43 194.56 240.77 194.56 240.77 186.57 243.43 186.57 243.43 174.83 247.26 174.83"/><rect class="cls-3" x="247.3" y="232.27" width="27.29" height="4.09"/><rect class="cls-3" x="247.27" y="301.45" width="27.3" height="4.09"/><polygon class="cls-3" points="262.13 187.67 259.98 187.67 258.56 182.77 263.46 182.77 262.13 187.67"/><path class="cls-3" d="M274.59,195.14s-5.64-3.71-13.54-3.71c-8.5,0-13.78,3.77-13.78,3.77v-5.61s5.28-3.8,13.78-3.8c7.9,0,13.54,3.7,13.54,3.7v5.66Z"/><polygon class="cls-3" points="262.34 256.94 260.19 256.94 258.77 252.05 263.67 252.05 262.34 256.94"/><path class="cls-3" d="M274.59,264.36s-5.69-3.67-13.59-3.67c-8.5,0-13.73,3.77-13.73,3.77v-5.61s5.23-3.8,13.73-3.8c7.9,0,13.59,3.61,13.59,3.61v5.7Z"/><line class="cls-1" x1="247.36" y1="195.19" x2="274.66" y2="195.19"/><line class="cls-1" x1="247.3" y1="264.46" x2="274.6" y2="264.46"/><path class="cls-1" d="M197.21,301.46h-27.31v-37.14s5.13-3.77,13.66-3.77c7.93,0,13.6,3.75,13.6,3.75l.05,37.16Z"/><path class="cls-1" d="M197.22,232.31h-27.32v-37.14s5.13-3.77,13.66-3.77c7.93,0,13.66,3.77,13.66,3.77v37.14Z"/><polyline class="cls-3" points="197.22 174.82 197.22 310.22 203.71 310.22 203.71 306.55 203.71 298.55 201.04 298.55 201.04 290.55 203.71 290.55 203.71 282.55 201.04 282.55 201.04 274.56 203.71 274.56 203.71 266.56 201.04 266.56 201.04 258.56 203.71 258.56 203.71 250.56 201.04 250.56 201.04 242.56 203.71 242.56 203.71 234.57 201.04 234.57 201.04 226.57 203.71 226.57 203.71 218.57 201.04 218.57 201.04 210.57 203.71 210.57 203.71 202.57 201.04 202.57 201.04 194.58 203.71 194.58 203.71 186.58 201.04 186.58 201.04 174.84 197.21 174.84"/><polyline class="cls-3" points="169.89 174.84 169.9 310.22 163.4 310.22 163.4 306.55 163.4 298.55 166.07 298.55 166.07 290.55 163.4 290.55 163.4 282.55 166.07 282.55 166.07 274.56 163.4 274.56 163.4 266.56 166.07 266.56 166.07 258.56 163.4 258.56 163.4 250.56 166.07 250.56 166.07 242.56 163.4 242.56 163.4 234.57 166.07 234.57 166.07 226.57 163.4 226.57 163.4 218.57 166.07 218.57 166.07 210.57 163.4 210.57 163.4 202.57 166.07 202.57 166.07 194.58 163.4 194.58 163.4 186.58 166.07 186.58 166.07 174.84 169.89 174.84"/><rect class="cls-3" x="169.93" y="232.28" width="27.29" height="4.09"/><rect class="cls-3" x="169.99" y="301.46" width="27.2" height="4.09"/><polygon class="cls-3" points="184.76 187.68 182.61 187.68 181.2 182.79 186.09 182.79 184.76 187.68"/><path class="cls-3" d="M197.22,195.15s-5.64-3.71-13.54-3.71c-8.5,0-13.78,3.77-13.78,3.77v-5.61s5.28-3.8,13.78-3.8c7.9,0,13.54,3.7,13.54,3.7v5.66Z"/><polygon class="cls-3" points="184.98 256.95 182.82 256.95 181.41 252.06 186.3 252.06 184.98 256.95"/><path class="cls-3" d="M197.22,264.37s-5.69-3.67-13.59-3.67c-8.5,0-13.73,3.77-13.73,3.77v-5.61s5.23-3.8,13.73-3.8c7.9,0,13.59,3.61,13.59,3.61v5.7Z"/><line class="cls-1" x1="169.99" y1="195.2" x2="197.3" y2="195.21"/><line class="cls-1" x1="169.93" y1="264.47" x2="197.24" y2="264.47"/><rect class="cls-3" x="63.96" y="366.08" width="107.92" height="30.77"/><path class="cls-3" d="M171.88,321.19v75.66h-6.5s0-3.67,0-3.67v-8h2.67s0-8,0-8h-2.67v-8h2.67s0-8,0-8h-2.67v-8h2.67s0-8,0-8h-2.67v-8h2.67s0-8,0-8h-2.67v-8s6.5.06,6.5.06c0,0,4.09-3.56,12.69-3.56,8,0,12.69,3.54,12.69,3.54v7.85s-23.83.43-23.83.43l-1.56-.04"/><rect class="cls-3" x="197.26" y="366.08" width="109.64" height="30.77"/><polygon class="cls-3" points="300.41 188.88 300.41 180.88 303.08 180.88 303.08 169.15 306.91 169.15 306.91 396.85 303.08 396.85 303.08 396.83 300.41 396.83 300.41 388.83 303.08 388.83 303.08 380.83 300.41 380.83 300.41 372.84 303.08 372.84 303.08 364.84 300.41 364.84 300.41 356.84 303.08 356.84 303.08 348.84 300.41 348.84 300.41 340.84 303.08 340.84 303.08 332.85 300.41 332.85 300.41 324.85 303.08 324.85 303.08 316.85 300.41 316.85 300.41 308.85 303.08 308.85 303.08 300.85 300.41 300.85 300.41 292.86 303.08 292.86 303.08 284.86 300.41 284.86 300.41 276.86 303.08 276.86 303.08 268.86 300.41 268.86 300.41 260.86 303.08 260.86 303.08 252.87 300.41 252.87 300.41 244.87 303.08 244.87 303.08 236.87 300.41 236.87 300.41 228.87 303.08 228.87 303.08 220.87 300.41 220.87 300.41 212.88 303.08 212.88 303.08 204.88 300.41 204.88 300.41 196.88 303.08 196.88 303.08 188.88 300.41 188.88"/><polygon class="cls-3" points="85.94 323.39 85.94 331.26 88.61 331.26 88.61 339.25 85.94 339.25 85.94 347.25 88.61 347.25 88.61 355.25 85.94 355.25 85.94 363.25 85.94 366.08 92.45 366.08 92.45 323.39 88.59 323.39 85.94 323.39"/><polyline class="cls-3" points="123.55 323.39 126.2 323.39 126.2 331.26 123.53 331.26 123.53 339.25 126.2 339.25 126.2 347.25 123.53 347.25 123.53 355.25 126.2 355.25 126.2 363.25 126.2 366.08 119.69 366.08 119.69 323.39 123.55 323.39"/><path class="cls-7" d="M197.26,396.85h-25.38v-68.12s4.09-3.56,12.69-3.56c8,0,12.69,3.54,12.69,3.54v68.13Z"/><polygon class="cls-3" points="197.26 321.19 197.26 396.85 203.76 396.85 203.76 393.17 203.76 385.18 201.1 385.18 201.1 377.18 203.76 377.18 203.76 369.18 201.1 369.18 201.1 361.18 203.76 361.18 203.76 353.18 201.1 353.18 201.1 345.19 203.76 345.19 203.76 337.19 201.1 337.19 201.1 329.19 203.76 329.19 203.76 321.19 197.26 321.19"/><rect class="cls-3" x="174.87" y="334.22" width="6.66" height="6.66"/><rect class="cls-3" x="187.6" y="334.22" width="6.66" height="6.66"/><rect class="cls-3" x="174.88" y="346.36" width="6.66" height="6.66"/><rect class="cls-3" x="187.6" y="346.36" width="6.66" height="6.66"/><rect class="cls-3" x="174.88" y="357.68" width="6.66" height="6.66"/><rect class="cls-3" x="187.6" y="357.68" width="6.66" height="6.66"/><polygon class="cls-3" points="107.44 321.48 105.29 321.48 103.87 315.4 108.76 315.4 107.44 321.48"/><polygon class="cls-3" points="185.69 321.48 183.54 321.48 182.13 315.4 187.02 315.4 185.69 321.48"/><path class="cls-3" d="M119.69,328.9s-5.69-3.67-13.59-3.67c-8.5,0-13.64,3.71-13.64,3.71v-5.55s5.14-3.8,13.64-3.8c7.9,0,13.59,3.61,13.59,3.61v5.7Z"/><path class="cls-1" d="M274.52,366.08h-27.24v-37.14s5.12-3.77,13.62-3.77c7.9,0,13.62,3.77,13.62,3.77v37.14Z"/><line class="cls-1" x1="247.29" y1="329.09" x2="274.6" y2="329.09"/><rect class="cls-3" x="260.54" y="326.86" width=".74" height="27.3" transform="translate(-79.6 601.43) rotate(-90)"/><rect class="cls-3" x="260.53" y="340.79" width=".74" height="27.33" transform="translate(-93.55 615.35) rotate(-90)"/><rect class="cls-3" x="260.58" y="329.09" width=".74" height="36.99"/><polyline class="cls-3" points="247.28 323.39 247.28 366.08 240.77 366.08 240.77 363.25 240.77 355.25 243.44 355.25 243.44 347.25 240.77 347.25 240.77 339.25 243.44 339.25 243.44 331.26 240.77 331.26 240.77 323.39 247.28 323.39"/><polyline class="cls-3" points="278.38 323.39 281.03 323.39 281.03 331.26 278.36 331.26 278.36 339.25 281.03 339.25 281.03 347.25 278.36 347.25 278.36 355.25 281.03 355.25 281.03 363.25 281.03 366.08 274.52 366.08 274.52 323.39 278.38 323.39"/><polygon class="cls-3" points="262.27 321.48 260.12 321.48 258.7 315.4 263.59 315.4 262.27 321.48"/><path class="cls-3" d="M274.52,328.9s-5.69-3.67-13.59-3.67c-8.5,0-13.64,3.71-13.64,3.71v-5.55s5.14-3.8,13.64-3.8c7.9,0,13.59,3.61,13.59,3.61v5.7Z"/><polygon class="cls-3" points="132.97 139.59 118.58 139.59 119.77 134.9 131.79 134.9 132.97 139.59"/><polygon class="cls-3" points="66.63 188.88 66.63 180.88 63.96 180.88 63.96 169.15 60.13 169.15 60.13 396.85 63.96 396.85 63.96 396.83 66.63 396.83 66.63 388.83 63.96 388.83 63.96 380.83 66.63 380.83 66.63 372.84 63.96 372.84 63.96 364.84 66.63 364.84 66.63 356.84 63.96 356.84 63.96 348.84 66.63 348.84 66.63 340.84 63.96 340.84 63.96 332.85 66.63 332.85 66.63 324.85 63.96 324.85 63.96 316.85 66.63 316.85 66.63 308.85 63.96 308.85 63.96 300.85 66.63 300.85 66.63 292.86 63.96 292.86 63.96 284.86 66.63 284.86 66.63 276.86 63.96 276.86 63.96 268.86 66.63 268.86 66.63 260.86 63.96 260.86 63.96 252.87 66.63 252.87 66.63 244.87 63.96 244.87 63.96 236.87 66.63 236.87 66.63 228.87 63.96 228.87 63.96 220.87 66.63 220.87 66.63 212.88 63.96 212.88 63.96 204.88 66.63 204.88 66.63 196.88 63.96 196.88 63.96 188.88 66.63 188.88"/><polygon class="cls-8" points="201.09 352.57 273.83 320.32 327.06 320.32 399.73 352.57 201.09 352.57"/><rect class="cls-8" x="209.61" y="459.11" width="181.67" height="24.85"/><rect class="cls-7" x="206.36" y="483.96" width="188.18" height="4.14"/><rect class="cls-7" x="202.26" y="488.1" width="194.4" height="4.14"/><rect class="cls-7" x="281.45" y="459.11" width="37.99" height="4.14"/><rect class="cls-7" x="279.9" y="463.25" width="41.09" height="4.14"/><rect class="cls-7" x="277.66" y="467.4" width="45.58" height="4.14"/><rect class="cls-7" x="274.98" y="471.54" width="50.93" height="4.14"/><rect class="cls-7" x="272.37" y="475.68" width="56.16" height="4.14"/><rect class="cls-7" x="269.26" y="479.82" width="62.37" height="4.14"/><rect class="cls-8" x="211.35" y="363.81" width="2.42" height="95.3"/><rect class="cls-8" x="258.57" y="356.14" width="2.42" height="102.97"/><polyline class="cls-2" points="269.26 483.96 269.26 463.25 281.45 444.37 281.45 459.11"/><line class="cls-2" x1="211.32" y1="444.01" x2="281.58" y2="444.01"/><line class="cls-2" x1="228.79" y1="444.01" x2="228.79" y2="459.11"/><line class="cls-2" x1="244.08" y1="444.01" x2="244.08" y2="459.11"/><rect class="cls-8" x="387.13" y="363.81" width="2.42" height="95.3" transform="translate(776.67 822.92) rotate(-180)"/><rect class="cls-8" x="339.91" y="356.14" width="2.42" height="102.97" transform="translate(682.23 815.26) rotate(-180)"/><polyline class="cls-1" points="331.63 483.96 331.63 463.25 319.44 444.37 319.44 459.11"/><line class="cls-2" x1="389.57" y1="444.01" x2="319.31" y2="444.01"/><line class="cls-2" x1="372.1" y1="444.01" x2="372.1" y2="459.11"/><line class="cls-2" x1="356.81" y1="444.01" x2="356.81" y2="459.11"/><path class="cls-8" d="M258.57,375.2c-27.93-20.36-44.8,0-44.8,0v-11.38l44.8-7.67v19.05Z"/><path class="cls-8" d="M387.13,375.2s-16.87-20.36-44.8,0v-19.05s44.8,7.67,44.8,7.67v11.38Z"/><path class="cls-8" d="M339.91,375.31s-8.28-19.17-41.47-19.17c-29.18,0-37.45,19.05-37.45,19.05v-19.05h78.93v19.17Z"/><polygon class="cls-8" points="201.13 367.49 258.57 356.14 342.32 356.14 399.73 367.13 399.73 363.84 342.32 352.57 258.57 352.57 201.09 363.97 201.13 367.49"/><polygon class="cls-7" points="258.57 352.57 342.32 352.57 394.74 362.86 394.74 352.57 342.32 341.58 258.57 341.58 206 352.57 206 362.99 258.57 352.57"/><path class="cls-7" d="M273.83,320.32s16.6-6.96,26.24-21.51c0,0,11.18,13.89,26.99,21.51h-53.24Z"/><line class="cls-6" x1="300.07" y1="298.81" x2="300.07" y2="270.68"/><circle class="cls-8" cx="300.09" cy="291.06" r="1.88"/><ellipse class="cls-8" cx="300.07" cy="295.87" rx="1.88" ry="1.18"/><path class="cls-1" d="M297.01,276.06s3.06-.4,3.06,1.77"/><path class="cls-1" d="M303.13,276.06s-3.06-.4-3.06,1.77"/><path class="cls-9" d="M137.07,391.97c0-5.71-4.15-10.44-9.59-11.38-1.06-7.27-7.3-12.85-14.86-12.85-6.84,0-12.6,4.57-14.42,10.81-5.54.85-9.79,5.63-9.79,11.41,0,1.84.44,3.58,1.21,5.12-1.23,1.84-1.96,4.05-1.96,6.43,0,3.96,2,7.46,5.04,9.54-.01.22-.03.44-.03.67,0,6.38,5.17,11.55,11.55,11.55,3.15,0,6-1.26,8.08-3.3,2.08,2.04,4.93,3.3,8.08,3.3,5.04,0,9.32-3.24,10.9-7.74,3.46-2,5.79-5.72,5.79-10,0-2.54-.83-4.88-2.21-6.78,1.39-1.91,2.21-4.24,2.21-6.78Z"/><path class="cls-7" d="M106.48,395.51s13.42,37.38,2.56,55.28h9.99s-2.97-41.96-11.06-56.25l-1.49.98Z"/><path class="cls-7" d="M110.99,401.72s5.8-2.59,6.03-13.25h2.01s-.08,10.79-6.67,17.91l-1.37-4.66Z"/><path class="cls-7" d="M98.15,403.73s7.38,9.23,12.96,8.88l.59,3.09s-6.01.31-14.32-10.43l.76-1.54Z"/><path class="cls-7" d="M16.41,74.27s-19.21,3.11-15.57,20.76c0,0,3.37,13.76,15.57,14.28h75.27c19.55,1.25,39.28-37.91-1.82-43.35,0,0-6.75-18.43-25.44-16.87,0,0-15.57.52-20.25,15.57,0,0-8.57-4.67-17.39-.52,0,0-9.34,3.63-10.38,10.12Z"/><path class="cls-7" d="M397.53,16.58s-12.31,2-9.98,13.31c0,0,2.16,8.82,9.98,9.15h48.26c12.06,2.25,25.19-24.31-1.16-27.79,0,0-4.33-11.81-16.31-10.82,0,0-9.98.33-12.98,9.98,0,0-5.49-3-11.15-.33,0,0-5.99,2.33-6.66,6.49Z"/></svg>