<svg width="390" height="688" viewBox="0 0 390 688" fill="none" xmlns="http://www.w3.org/2000/svg">
<path d="M403 589H-2336V687H403V589Z" fill="#F8E8DB" stroke="#1D1D1B" stroke-width="1.01" stroke-miterlimit="10"/>
<path d="M397 182H-8V566H397V182Z" fill="#AAC280" stroke="#1D1D1B" stroke-width="0.75" stroke-miterlimit="10"/>
<path d="M388.06 565.67H-0.939941V590.37H388.06V565.67Z" fill="#F8E8DB" stroke="#1D1D1B" stroke-miterlimit="10"/>
<path d="M329.42 248.04H58.04V565.93H329.42V248.04Z" fill="#F8E8DB" stroke="#1D1D1B" stroke-miterlimit="10"/>
<path d="M68.5 278.04L68.5 565.78H189.5V278.04H68.5Z" fill="#F8E8DB" stroke="#1D1D1B" stroke-width="0.97" stroke-miterlimit="10"/>
<path d="M107.5 285.15H75.5901V409.04H107.5V285.15Z" fill="#F8E8DB" stroke="#1D1D1B" stroke-miterlimit="10"/>
<path d="M145.31 285.15H113.4V409.04H145.31V285.15Z" fill="#F8E8DB" stroke="#1D1D1B" stroke-miterlimit="10"/>
<path d="M182.5 285.15H150.59V409.04H182.5V285.15Z" fill="#F8E8DB" stroke="#1D1D1B" stroke-miterlimit="10"/>
<path d="M198.5 278.04L198.5 565.78H319.5V278.04H198.5Z" fill="#F8E8DB" stroke="#1D1D1B" stroke-width="0.97" stroke-miterlimit="10"/>
<path d="M329.42 248.04C329.42 248.04 306.42 202.06 188.72 201.66C80.42 201.29 58.04 248.04 58.04 248.04H329.42Z" fill="#F8E8DB" stroke="#1D1D1B" stroke-miterlimit="10"/>
<path d="M329.5 248.15H58V273.15H329.5V248.15Z" fill="#F8E8DB" stroke="#1D1D1B" stroke-miterlimit="10"/>
<path d="M237.8 285.41H205.89V409.3H237.8V285.41Z" fill="#F8E8DB" stroke="#1D1D1B" stroke-miterlimit="10"/>
<path d="M275.3 285.41H243.39V409.3H275.3V285.41Z" fill="#F8E8DB" stroke="#1D1D1B" stroke-miterlimit="10"/>
<path d="M312.8 285.41H280.89V409.3H312.8V285.41Z" fill="#F8E8DB" stroke="#1D1D1B" stroke-miterlimit="10"/>
<path d="M107.5 418.33H75.5601V450.15H107.5V418.33Z" fill="#F8E8DB" stroke="#1D1D1B" stroke-miterlimit="10"/>
<path d="M107.47 455.33H75.5601V487.15H107.47V455.33Z" fill="#F8E8DB" stroke="#1D1D1B" stroke-miterlimit="10"/>
<path d="M145.31 455.33H113.4V487.15H145.31V455.33Z" fill="#F8E8DB" stroke="#1D1D1B" stroke-miterlimit="10"/>
<path d="M145.33 418.33H113.36V450.15H145.33V418.33Z" fill="#F8E8DB" stroke="#1D1D1B" stroke-miterlimit="10"/>
<path d="M182.31 455.33H150.4V487.15H182.31V455.33Z" fill="#F8E8DB" stroke="#1D1D1B" stroke-miterlimit="10"/>
<path d="M182.33 418.33H150.36V450.15H182.33V418.33Z" fill="#F8E8DB" stroke="#1D1D1B" stroke-miterlimit="10"/>
<path d="M237.64 418H205.7V449.82H237.64V418Z" fill="#F8E8DB" stroke="#1D1D1B" stroke-miterlimit="10"/>
<path d="M237.61 455H205.7V486.82H237.61V455Z" fill="#F8E8DB" stroke="#1D1D1B" stroke-miterlimit="10"/>
<path d="M275.44 455H243.53V486.82H275.44V455Z" fill="#F8E8DB" stroke="#1D1D1B" stroke-miterlimit="10"/>
<path d="M275.47 418H243.5V449.82H275.47V418Z" fill="#F8E8DB" stroke="#1D1D1B" stroke-miterlimit="10"/>
<path d="M312.44 455H280.53V486.82H312.44V455Z" fill="#F8E8DB" stroke="#1D1D1B" stroke-miterlimit="10"/>
<path d="M312.47 418H280.5V449.82H312.47V418Z" fill="#F8E8DB" stroke="#1D1D1B" stroke-miterlimit="10"/>
<path d="M75.28 239.7V243.15H107.19V221.69C88.8699 227.98 79.49 235.44 75.28 239.7Z" fill="#F8E8DB" stroke="#1D1D1B" stroke-miterlimit="10"/>
<path d="M113.28 219.75V243.16H145.19V213.23C132.59 214.86 122.06 217.16 113.28 219.76V219.75Z" fill="#F8E8DB" stroke="#1D1D1B" stroke-miterlimit="10"/>
<path d="M150.28 212.61V243.15H182.19V210.71C170.38 210.89 159.78 211.56 150.28 212.61Z" fill="#F8E8DB" stroke="#1D1D1B" stroke-miterlimit="10"/>
<path d="M205.28 210.95V243.15H237.19V213.36C227.69 212.21 217.09 211.37 205.28 210.95Z" fill="#F8E8DB" stroke="#1D1D1B" stroke-miterlimit="10"/>
<path d="M243.28 214.17V243.16H275.19V220.9C266.43 218.32 255.91 215.97 243.28 214.17Z" fill="#F8E8DB" stroke="#1D1D1B" stroke-miterlimit="10"/>
<path d="M312.19 239.39C307.73 235.27 298.29 228.44 280.28 222.48V243.15H312.19V239.39Z" fill="#F8E8DB" stroke="#1D1D1B" stroke-miterlimit="10"/>
<path d="M133.33 259.73C133.33 256.28 135.16 253.98 138.56 253.98C140.99 253.98 142.72 255.15 142.83 257.88L140.72 258.06C140.59 256.52 139.93 255.89 138.53 255.89C136.76 255.89 135.71 257.03 135.71 259.61C135.71 262.19 136.65 263.32 138.36 263.32C139.92 263.32 140.46 262.51 140.72 261.37L142.8 261.73C142.46 264.32 140.28 265.22 138.33 265.22C134.73 265.22 133.32 263.09 133.32 259.73H133.33Z" fill="black"/>
<path d="M150.2 263.87C149.66 264.66 148.76 265.22 147.38 265.22C144.74 265.22 143.69 263.51 143.69 261.17C143.69 258.67 145.09 257.06 147.56 257.06C148.93 257.06 149.7 257.54 150.29 258.36C150.83 257.58 151.76 257.06 152.91 257.06C155.12 257.06 156.15 258.52 156.15 260.66C156.15 260.91 156.13 261.42 156.11 261.7H151.36C151.4 262.99 151.94 263.47 152.94 263.47C153.75 263.47 154.09 262.97 154.21 262.36L156.12 262.82C155.83 264.28 154.65 265.22 152.83 265.22C151.41 265.22 150.64 264.58 150.21 263.87H150.2ZM149.12 261.1C149.12 259.38 148.66 258.78 147.65 258.78C146.64 258.78 146.06 259.42 146.06 261.12C146.06 262.82 146.49 263.55 147.6 263.55C148.59 263.55 149.11 262.88 149.11 261.1H149.12ZM153.82 260.26C153.83 259.14 153.41 258.7 152.68 258.7C152.04 258.7 151.41 259.11 151.39 260.26H153.82Z" fill="black"/>
<path d="M157.49 257.23H159.75V262.16C159.75 263 160.02 263.37 160.74 263.37C161.32 263.37 161.92 263.03 162.22 262.75V257.22H164.49V265.03H162.54L162.37 264.19C161.82 264.82 160.95 265.19 159.88 265.19C158.28 265.19 157.48 264.32 157.48 262.6V257.22L157.49 257.23Z" fill="black"/>
<path d="M171.14 259.28C170.12 259.19 169.12 259.46 168.46 259.99V265.04H166.19V257.23H168.13L168.3 258.46C168.82 257.7 169.56 257.07 170.76 257.07C170.88 257.07 171.01 257.07 171.15 257.08V259.29L171.14 259.28Z" fill="black"/>
<path d="M171.52 263.15L173.35 262.52C173.53 263.13 173.85 263.72 174.91 263.72C175.67 263.72 176.1 263.47 176.1 262.96C176.1 262.36 175.48 262.2 174.6 262.03C173.35 261.79 171.78 261.5 171.78 259.6C171.78 257.89 173.28 257.06 175.03 257.06C176.78 257.06 177.78 257.84 178.15 259.16L176.33 259.7C176.15 259.03 175.82 258.56 175 258.56C174.25 258.56 173.94 258.87 173.94 259.31C173.94 259.92 174.57 260.04 175.54 260.23C176.83 260.47 178.29 260.77 178.29 262.6C178.29 264.43 176.78 265.22 174.84 265.22C172.9 265.22 171.78 264.46 171.53 263.15H171.52Z" fill="black"/>
<path d="M191.08 265.04H188.59L186.44 260.92H184.96V265.04H182.67V254.18H186.9C189.6 254.18 190.5 255.64 190.5 257.24C190.5 258.84 189.74 259.83 188.62 260.35L191.08 265.04ZM186.14 259.1C187.22 259.1 188.1 258.69 188.1 257.47C188.1 256.43 187.46 256.04 186.22 256.04H184.95V259.1H186.13H186.14Z" fill="black"/>
<path d="M191.42 261.16C191.42 258.34 193.15 257.07 195.25 257.07C197.62 257.07 198.61 258.51 198.61 260.68C198.61 260.94 198.6 261.43 198.57 261.7H193.82C193.86 262.99 194.4 263.47 195.4 263.47C196.21 263.47 196.52 263.02 196.68 262.36L198.58 262.82C198.29 264.28 197.12 265.22 195.27 265.22C192.38 265.22 191.44 263.27 191.44 261.16H191.42ZM196.27 260.26C196.27 259.14 195.87 258.7 195.13 258.7C194.49 258.7 193.85 259.12 193.84 260.26H196.27ZM195.52 256.46L194.01 256.33L195.13 253.9H197.55L195.52 256.46Z" fill="black"/>
<path d="M199.39 263.15L201.22 262.52C201.4 263.13 201.72 263.72 202.78 263.72C203.54 263.72 203.97 263.47 203.97 262.96C203.97 262.36 203.35 262.2 202.47 262.03C201.22 261.79 199.65 261.5 199.65 259.6C199.65 257.89 201.15 257.06 202.9 257.06C204.65 257.06 205.65 257.84 206.02 259.16L204.2 259.7C204.02 259.03 203.69 258.56 202.87 258.56C202.12 258.56 201.81 258.87 201.81 259.31C201.81 259.92 202.44 260.04 203.41 260.23C204.7 260.47 206.16 260.77 206.16 262.6C206.16 264.43 204.65 265.22 202.71 265.22C200.77 265.22 199.65 264.46 199.4 263.15H199.39Z" fill="black"/>
<path d="M208.61 256.21C207.74 256.21 207.24 255.7 207.24 254.83C207.24 253.96 207.74 253.47 208.61 253.47C209.48 253.47 209.98 253.96 209.98 254.83C209.98 255.7 209.47 256.21 208.61 256.21ZM209.74 265.04H207.48V257.23H209.74V265.04Z" fill="black"/>
<path d="M210.92 263.15L212.75 262.52C212.93 263.13 213.25 263.72 214.31 263.72C215.07 263.72 215.5 263.47 215.5 262.96C215.5 262.36 214.88 262.2 214 262.03C212.75 261.79 211.18 261.5 211.18 259.6C211.18 257.89 212.68 257.06 214.43 257.06C216.18 257.06 217.18 257.84 217.55 259.16L215.73 259.7C215.55 259.03 215.22 258.56 214.4 258.56C213.65 258.56 213.34 258.87 213.34 259.31C213.34 259.92 213.97 260.04 214.94 260.23C216.23 260.47 217.69 260.77 217.69 262.6C217.69 264.43 216.18 265.22 214.24 265.22C212.3 265.22 211.18 264.46 210.93 263.15H210.92Z" fill="black"/>
<path d="M224.02 264.67C223.63 264.92 222.72 265.22 221.73 265.22C220.1 265.22 219.24 264.47 219.24 262.69V258.88H218.07V257.23H219.24V254.92L221.5 254.62V257.23H223.57V258.88H221.5V262.38C221.5 263.07 221.69 263.43 222.42 263.43C222.87 263.43 223.41 263.25 223.71 263.07L224.02 264.67Z" fill="black"/>
<path d="M231.25 263.09C231.25 263.51 231.33 263.69 231.71 263.69C231.84 263.69 231.98 263.66 232.17 263.6L232.23 264.9C231.93 265.05 231.27 265.2 230.79 265.2C229.89 265.2 229.35 264.95 229.19 264.21C228.69 264.86 227.94 265.21 226.86 265.21C224.91 265.21 224.53 263.91 224.53 263.13C224.53 260.75 227.01 260.39 229.02 260.4V260.11C229.02 259.23 228.9 258.69 227.91 258.69C227.16 258.69 226.87 259.01 226.73 259.77L224.81 259.39C225.05 257.92 225.98 257.05 228.11 257.05C230.24 257.05 231.24 257.86 231.24 259.81V263.08L231.25 263.09ZM229.04 261.73H228.68C227.6 261.76 226.82 261.97 226.82 262.76C226.82 263.21 227.02 263.62 227.74 263.62C228.28 263.62 228.8 263.35 229.04 263.11V261.73Z" fill="black"/>
<path d="M240.35 265.04H238.09V260.09C238.09 259.25 237.76 258.89 237.05 258.89C236.44 258.89 235.82 259.23 235.52 259.5V265.04H233.25V257.23H235.26L235.38 258.01C235.95 257.49 236.8 257.07 237.87 257.07C239.59 257.07 240.34 257.92 240.34 259.71V265.05L240.35 265.04Z" fill="black"/>
<path d="M247.21 264.67C246.82 264.92 245.91 265.22 244.92 265.22C243.29 265.22 242.43 264.47 242.43 262.69V258.88H241.26V257.23H242.43V254.92L244.69 254.62V257.23H246.76V258.88H244.69V262.38C244.69 263.07 244.88 263.43 245.61 263.43C246.06 263.43 246.6 263.25 246.9 263.07L247.21 264.67Z" fill="black"/>
<path d="M247.66 263.15L249.49 262.52C249.67 263.13 249.99 263.72 251.05 263.72C251.81 263.72 252.24 263.47 252.24 262.96C252.24 262.36 251.62 262.2 250.74 262.03C249.49 261.79 247.92 261.5 247.92 259.6C247.92 257.89 249.42 257.06 251.17 257.06C252.92 257.06 253.92 257.84 254.29 259.16L252.47 259.7C252.29 259.03 251.96 258.56 251.14 258.56C250.39 258.56 250.08 258.87 250.08 259.31C250.08 259.92 250.71 260.04 251.68 260.23C252.97 260.47 254.43 260.77 254.43 262.6C254.43 264.43 252.92 265.22 250.98 265.22C249.04 265.22 247.92 264.46 247.67 263.15H247.66Z" fill="black"/>
<path d="M3.74003 498.14C3.74003 498.14 6.67003 493.01 13.99 494.48C15.6 494.8 17.65 497.41 15.45 499.61C15.45 499.61 21.31 498.88 25.7 499.61C28.12 500.01 33.7601 502.54 30.0901 508.4C30.0901 508.4 38.6801 506.67 41.8101 513.53C43.1701 516.51 42.54 522.32 35.95 525.25C35.95 525.25 41.0801 529.64 29.3601 531.11C29.3601 531.11 9.58993 536.97 -2.86007 531.84C-2.86007 531.84 -12.76 504.39 -5.06002 496.69C0.799982 490.83 3.73002 498.15 3.73002 498.15L3.74003 498.14Z" fill="#F8E8DB" stroke="#1D1D1B" stroke-miterlimit="10"/>
<path d="M-23.36 531.83C-23.36 531.83 -43.13 532.56 -44.6 526.7C-44.6 526.7 -46.8 520.84 -37.28 520.11C-37.28 520.11 -40.65 509.2 -34.35 505.46C-32.56 504.4 -29.22 503.26 -25.56 506.09C-25.56 506.09 -28.4899 490.81 -19.6999 490.81C-19.6999 490.81 -15.31 490.08 -13.84 495.94C-13.84 495.94 -11.64 491.55 -6.51995 492.28C-6.51995 492.28 0.0701761 493.74 -1.38982 501.8C-1.38982 501.8 0.810039 500.34 4.47004 501.07C4.47004 501.07 13.2602 503.27 8.86018 510.59C8.86018 510.59 26.44 509.86 16.92 522.31C16.92 522.31 22.78 525.97 15.46 531.83C15.46 531.83 4.47019 534.21 -6.87981 534.12L-23.36 531.83Z" fill="#F8E8DB" stroke="#1D1D1B" stroke-miterlimit="10"/>
<path d="M-33.6101 546.48L-21.1599 591.15H15.3799L26.53 546.48H28.6699L33.04 530.37H-39.7L-35.0701 546.48H-33.6101Z" fill="#F8E8DB" stroke="#1D1D1B" stroke-miterlimit="10"/>
<path d="M26.53 546.48H-33.24" stroke="#1D1D1B" stroke-miterlimit="10"/>
<path d="M359.51 472.2C359.51 472.2 363.93 514.62 377.19 539.37H382.76C382.76 539.37 378.96 507.55 359.51 472.2Z" fill="#F8E8DB" stroke="#1D1D1B" stroke-miterlimit="10"/>
<path d="M415.43 539.39L386.03 539.37H356.86V542.02H358.63C358.63 542.02 355.98 575.61 366.58 582.68C371.88 586.22 374.53 590.63 374.53 590.63H385.95V590.65H397.75C397.75 590.65 400.4 586.23 405.7 582.7C416.31 575.63 413.65 542.04 413.65 542.04H415.42V539.39H415.43Z" fill="#F8E8DB" stroke="#1D1D1B" stroke-miterlimit="10"/>
<path d="M401.1 539.37C401.1 539.37 424.03 481.04 422.26 473.08C422.26 473.08 398.11 504.9 388.53 539.37H401.1Z" fill="#FBF2EB" stroke="#1D1D1B" stroke-miterlimit="10"/>
<path d="M391.33 539.37C391.33 539.37 394.87 481.04 389.56 467.78C389.56 467.78 369.23 511.09 377.19 539.37H391.33Z" fill="#F8E8DB" stroke="#1D1D1B" stroke-miterlimit="10"/>
<path d="M388.53 539.37C388.53 539.37 385.14 496.06 376.3 479.27C376.3 479.27 369.3 519.04 375.45 539.37H388.53Z" fill="#F8E8DB" stroke="#1D1D1B" stroke-miterlimit="10"/>
<path d="M354.21 525.23L359.51 513.77C359.51 513.77 361.28 511.09 363.93 512.86C363.93 512.86 376.3 522.58 378.51 539.37H372.3C372.3 539.37 366.03 526.77 363.93 522.58C363.41 521.54 362.16 519.04 359.51 521.11L354.21 525.23Z" fill="#F8E8DB" stroke="#1D1D1B" stroke-miterlimit="10"/>
<path d="M396.73 539.37C396.73 539.37 416.07 474.85 413.42 465.13C413.42 465.13 390.16 496.06 388.53 539.37H396.73Z" fill="#FBF2EB" stroke="#1D1D1B" stroke-miterlimit="10"/>
<path d="M401.93 466.01C401.93 466.01 404.32 526.99 399.59 539.37H386.02C386.02 539.37 390.44 483.69 401.93 466.01Z" fill="#F8E8DB" stroke="#1D1D1B" stroke-miterlimit="10"/>
<path d="M403 632H-2337V645H403V632Z" fill="#F8E8DB" stroke="#1D1D1B" stroke-miterlimit="10"/>
<rect x="-6" y="-12" width="407" height="203" fill="#AAC382"/>
</svg>
