<?xml version="1.0" encoding="UTF-8"?><svg id="Calque_1" xmlns="http://www.w3.org/2000/svg" viewBox="0 0 520.06 692.73"><defs><style>.cls-1{stroke-width:.97px;}.cls-1,.cls-2,.cls-3,.cls-4{fill:#f8e8db;}.cls-1,.cls-2,.cls-3,.cls-4,.cls-5{stroke-miterlimit:10;}.cls-1,.cls-2,.cls-4,.cls-5{stroke:#1d1d1b;}.cls-2,.cls-3{stroke-width:1px;}.cls-3{stroke:#000;}.cls-6{stroke-width:0px;}.cls-5{fill:#aac280;stroke-width:1.06px;}</style></defs><polygon class="cls-2" points="519.1 692.23 1.1 692.23 1.02 595.63 519.52 595.63 519.1 692.23"/><rect class="cls-4" x="1.02" y="638.63" width="518.5" height="13"/><rect class="cls-1" x="1.1" y="572.23" width="518" height="23.15"/><rect class="cls-5" x=".53" y=".53" width="519" height="572.36"/><path class="cls-2" d="M130.36,255.25h270.49v317.89H129.47v-317c0-.49.4-.89.89-.89Z"/><rect class="cls-2" x="56.56" y="368.62" width="287.74" height="121" transform="translate(-228.69 629.55) rotate(-90)"/><rect class="cls-2" x="147.02" y="292.36" width="31.91" height="123.89"/><rect class="cls-2" x="184.82" y="292.36" width="31.91" height="123.89"/><rect class="cls-2" x="222.02" y="292.36" width="31.91" height="123.89"/><rect class="cls-2" x="186.56" y="368.62" width="287.74" height="121" transform="translate(-98.69 759.55) rotate(-90)"/><path class="cls-2" d="M400.63,255.25c.1,0,.16-.1.11-.18-1.72-3.14-27.23-45.85-140.61-46.2-104.39-.32-129.58,44.26-130.59,46.2-.04.08.02.18.12.18h270.96Z"/><path class="cls-2" d="M129.53,255.37h271.4v25H129.43v-24.91c0-.05.04-.1.1-.1Z"/><rect class="cls-2" x="277.32" y="292.62" width="31.91" height="123.89"/><rect class="cls-2" x="314.82" y="292.62" width="31.91" height="123.89"/><rect class="cls-2" x="352.32" y="292.62" width="31.91" height="123.89"/><rect class="cls-2" x="146.99" y="425.54" width="31.94" height="31.82"/><rect class="cls-2" x="146.99" y="462.54" width="31.91" height="31.82"/><rect class="cls-2" x="184.82" y="462.54" width="31.91" height="31.82"/><rect class="cls-2" x="184.79" y="425.54" width="31.97" height="31.82"/><rect class="cls-2" x="221.82" y="462.54" width="31.91" height="31.82"/><rect class="cls-2" x="221.79" y="425.54" width="31.97" height="31.82"/><rect class="cls-2" x="277.13" y="425.22" width="31.94" height="31.82"/><rect class="cls-2" x="277.13" y="462.22" width="31.91" height="31.82"/><rect class="cls-2" x="314.96" y="462.22" width="31.91" height="31.82"/><rect class="cls-2" x="314.93" y="425.22" width="31.97" height="31.82"/><rect class="cls-2" x="351.96" y="462.22" width="31.91" height="31.82"/><rect class="cls-2" x="351.93" y="425.22" width="31.97" height="31.82"/><path class="cls-2" d="M146.71,246.91v3.45h31.91v-21.46c-18.32,6.29-27.7,13.75-31.91,18.01Z"/><path class="cls-2" d="M184.71,226.96v23.41h31.91v-29.93c-12.6,1.63-23.13,3.93-31.91,6.53Z"/><path class="cls-2" d="M221.71,219.82v30.54h31.91v-32.45c-11.81.18-22.41.85-31.91,1.9Z"/><path class="cls-2" d="M276.71,218.17v32.2h31.91v-29.79c-9.5-1.15-20.1-1.99-31.91-2.41Z"/><path class="cls-2" d="M314.71,221.38v28.99h31.91v-22.26c-8.76-2.58-19.28-4.93-31.91-6.73Z"/><path class="cls-2" d="M383.62,246.61c-4.46-4.12-13.9-10.95-31.91-16.91v20.67h31.91v-3.76Z"/><path class="cls-6" d="M204.76,266.95c0-3.45,1.83-5.75,5.23-5.75,2.43,0,4.16,1.17,4.27,3.9l-2.11.18c-.13-1.54-.79-2.17-2.19-2.17-1.77,0-2.82,1.14-2.82,3.72s.94,3.71,2.65,3.71c1.56,0,2.1-.81,2.36-1.95l2.08.36c-.34,2.59-2.52,3.49-4.47,3.49-3.6,0-5.01-2.13-5.01-5.49Z"/><path class="cls-6" d="M221.63,271.08c-.54.79-1.44,1.35-2.82,1.35-2.64,0-3.69-1.71-3.69-4.05,0-2.5,1.4-4.11,3.87-4.11,1.37,0,2.14.48,2.73,1.3.54-.78,1.47-1.3,2.62-1.3,2.21,0,3.24,1.46,3.24,3.6,0,.25-.02.76-.04,1.04h-4.75c.04,1.29.58,1.77,1.58,1.77.81,0,1.15-.5,1.27-1.11l1.91.46c-.29,1.46-1.47,2.4-3.29,2.4-1.42,0-2.19-.64-2.62-1.35ZM220.55,268.31c0-1.72-.46-2.32-1.47-2.32s-1.59.64-1.59,2.34.43,2.43,1.54,2.43c.99,0,1.51-.67,1.51-2.45ZM225.25,267.47c.01-1.12-.41-1.56-1.14-1.56-.64,0-1.27.41-1.29,1.56h2.43Z"/><path class="cls-6" d="M228.92,264.44h2.26v4.93c0,.84.27,1.21.99,1.21.58,0,1.18-.34,1.48-.62v-5.53h2.27v7.81h-1.95l-.17-.84c-.55.63-1.42,1-2.49,1-1.6,0-2.4-.87-2.4-2.59v-5.38Z"/><path class="cls-6" d="M242.57,266.5c-1.02-.09-2.02.18-2.68.71v5.05h-2.27v-7.81h1.94l.17,1.23c.52-.76,1.26-1.39,2.46-1.39.12,0,.25,0,.39.01v2.21Z"/><path class="cls-6" d="M242.95,270.37l1.83-.63c.18.61.5,1.2,1.56,1.2.76,0,1.19-.25,1.19-.76,0-.6-.62-.76-1.5-.93-1.25-.24-2.82-.53-2.82-2.43,0-1.71,1.5-2.54,3.25-2.54s2.75.78,3.12,2.1l-1.82.54c-.18-.67-.51-1.14-1.33-1.14-.75,0-1.06.31-1.06.75,0,.61.63.73,1.6.92,1.29.24,2.75.54,2.75,2.37s-1.51,2.62-3.45,2.62-3.06-.76-3.31-2.07Z"/><path class="cls-6" d="M262.5,272.25h-2.49l-2.15-4.12h-1.48v4.12h-2.29v-10.86h4.23c2.7,0,3.6,1.46,3.6,3.06s-.76,2.59-1.88,3.11l2.46,4.69ZM257.57,266.32c1.08,0,1.96-.41,1.96-1.63,0-1.04-.64-1.43-1.88-1.43h-1.27v3.06h1.18Z"/><path class="cls-6" d="M262.85,268.37c0-2.82,1.73-4.09,3.83-4.09,2.37,0,3.36,1.44,3.36,3.61,0,.26-.01.75-.04,1.02h-4.75c.04,1.29.58,1.77,1.58,1.77.81,0,1.12-.45,1.28-1.11l1.9.46c-.29,1.46-1.46,2.4-3.31,2.4-2.89,0-3.83-1.95-3.83-4.06ZM267.69,267.47c0-1.12-.4-1.56-1.14-1.56-.64,0-1.28.42-1.29,1.56h2.43ZM266.94,263.67l-1.51-.13,1.12-2.43h2.42l-2.03,2.56Z"/><path class="cls-6" d="M270.82,270.37l1.83-.63c.18.61.5,1.2,1.56,1.2.76,0,1.19-.25,1.19-.76,0-.6-.62-.76-1.5-.93-1.25-.24-2.82-.53-2.82-2.43,0-1.71,1.5-2.54,3.25-2.54s2.75.78,3.12,2.1l-1.82.54c-.18-.67-.51-1.14-1.33-1.14-.75,0-1.06.31-1.06.75,0,.61.63.73,1.6.92,1.29.24,2.75.54,2.75,2.37s-1.51,2.62-3.45,2.62-3.06-.76-3.31-2.07Z"/><path class="cls-6" d="M280.04,263.42c-.87,0-1.37-.51-1.37-1.38s.5-1.36,1.37-1.36,1.37.49,1.37,1.36-.51,1.38-1.37,1.38ZM281.17,272.25h-2.26v-7.81h2.26v7.81Z"/><path class="cls-6" d="M282.35,270.37l1.83-.63c.18.61.5,1.2,1.56,1.2.76,0,1.19-.25,1.19-.76,0-.6-.62-.76-1.5-.93-1.25-.24-2.82-.53-2.82-2.43,0-1.71,1.5-2.54,3.25-2.54s2.75.78,3.12,2.1l-1.82.54c-.18-.67-.51-1.14-1.33-1.14-.75,0-1.06.31-1.06.75,0,.61.63.73,1.6.92,1.29.24,2.75.54,2.75,2.37s-1.51,2.62-3.45,2.62-3.06-.76-3.31-2.07Z"/><path class="cls-6" d="M295.44,271.88c-.39.25-1.3.55-2.29.55-1.63,0-2.49-.75-2.49-2.53v-3.81h-1.17v-1.65h1.17v-2.31l2.26-.3v2.61h2.07v1.65h-2.07v3.5c0,.69.19,1.05.92,1.05.45,0,.99-.18,1.29-.36l.31,1.6Z"/><path class="cls-6" d="M302.68,270.3c0,.42.08.6.46.6.13,0,.27-.03.46-.09l.06,1.3c-.3.15-.96.3-1.44.3-.9,0-1.44-.25-1.6-.99-.5.65-1.25,1-2.33,1-1.95,0-2.33-1.3-2.33-2.08,0-2.38,2.48-2.74,4.49-2.73v-.29c0-.88-.12-1.42-1.11-1.42-.75,0-1.04.32-1.18,1.08l-1.92-.38c.24-1.47,1.17-2.34,3.3-2.34s3.13.81,3.13,2.76v3.27ZM300.47,268.94h-.36c-1.08.03-1.86.24-1.86,1.03,0,.45.2.86.92.86.54,0,1.06-.27,1.3-.51v-1.38Z"/><path class="cls-6" d="M311.78,272.25h-2.26v-4.95c0-.84-.33-1.2-1.04-1.2-.61,0-1.23.34-1.53.61v5.54h-2.27v-7.81h2.01l.12.78c.57-.52,1.42-.94,2.49-.94,1.72,0,2.47.85,2.47,2.64v5.34Z"/><path class="cls-6" d="M318.63,271.88c-.39.25-1.3.55-2.29.55-1.63,0-2.49-.75-2.49-2.53v-3.81h-1.17v-1.65h1.17v-2.31l2.26-.3v2.61h2.07v1.65h-2.07v3.5c0,.69.19,1.05.92,1.05.45,0,.99-.18,1.29-.36l.31,1.6Z"/><path class="cls-6" d="M319.08,270.37l1.83-.63c.18.61.5,1.2,1.56,1.2.76,0,1.19-.25,1.19-.76,0-.6-.62-.76-1.5-.93-1.25-.24-2.82-.53-2.82-2.43,0-1.71,1.5-2.54,3.25-2.54s2.75.78,3.12,2.1l-1.82.54c-.18-.67-.51-1.14-1.33-1.14-.75,0-1.06.31-1.06.75,0,.61.63.73,1.6.92,1.29.24,2.75.54,2.75,2.37s-1.51,2.62-3.45,2.62-3.06-.76-3.31-2.07Z"/><path class="cls-2" d="M75.17,502.36s2.93-5.13,10.25-3.66c1.61.32,3.66,2.93,1.46,5.13,0,0,5.86-.73,10.25,0,2.42.4,8.06,2.93,4.39,8.79,0,0,8.59-1.73,11.72,5.13,1.36,2.98.73,8.79-5.86,11.72,0,0,5.13,4.39-6.59,5.86,0,0-19.77,5.86-32.22.73,0,0-9.9-27.45-2.2-35.15,5.86-5.86,8.79,1.46,8.79,1.46Z"/><path class="cls-2" d="M48.07,536.04s-19.77.73-21.24-5.13c0,0-2.2-5.86,7.32-6.59,0,0-3.37-10.91,2.93-14.65,1.79-1.06,5.13-2.2,8.79.63,0,0-2.93-15.28,5.86-15.28,0,0,4.39-.73,5.86,5.13,0,0,2.2-4.39,7.32-3.66,0,0,6.59,1.46,5.13,9.52,0,0,2.2-1.46,5.86-.73,0,0,8.79,2.2,4.39,9.52,0,0,17.58-.73,8.06,11.72,0,0,5.86,3.66-1.46,9.52,0,0-10.99,2.38-22.34,2.29l-16.48-2.29Z"/><polygon class="cls-2" points="37.82 550.69 50.27 595.36 86.81 595.36 97.96 550.69 100.1 550.69 104.46 534.58 31.73 534.58 36.36 550.69 37.82 550.69"/><line class="cls-2" x1="97.96" y1="550.69" x2="38.19" y2="550.69"/><path class="cls-3" d="M430.94,477.41s4.42,42.42,17.68,67.17h5.57s-3.8-31.82-23.25-67.17Z"/><path class="cls-3" d="M486.86,544.61l-29.4-.02h-29.17v2.65h1.77s-2.65,33.59,7.95,40.66c5.3,3.54,7.95,7.95,7.95,7.95h11.42v.02s11.8,0,11.8,0c0,0,2.65-4.42,7.95-7.95,10.61-7.07,7.95-40.66,7.95-40.66h1.77v-2.65Z"/><path class="cls-3" d="M472.53,544.58s22.93-58.33,21.16-66.29c0,0-24.15,31.82-33.73,66.29h12.57Z"/><path class="cls-3" d="M462.76,544.58s3.54-58.33-1.77-71.59c0,0-20.33,43.31-12.37,71.59h14.14Z"/><path class="cls-3" d="M459.96,544.58s-3.39-43.31-12.23-60.1c0,0-7,39.77-.85,60.1h13.08Z"/><path class="cls-3" d="M425.63,530.44l5.3-11.46s1.77-2.68,4.42-.91c0,0,12.37,9.72,14.58,26.51h-6.21s-6.27-12.6-8.37-16.79c-.52-1.04-1.77-3.54-4.42-1.47l-5.3,4.12Z"/><path class="cls-3" d="M468.16,544.58s19.34-64.52,16.69-74.24c0,0-23.26,30.93-24.89,74.24h8.2Z"/><path class="cls-3" d="M473.36,471.23s2.39,60.98-2.34,73.36h-13.57s4.42-55.68,15.91-73.36Z"/><path class="cls-3" d="M468.6,544.58l6.53-10.61s4.42-7.95,7.95-1.77l3.54,7.95s-4.63-5.45-7.07-4.42c-2.09.88-3.54,5.3-5.25,8.84h-5.69Z"/></svg>