<?xml version="1.0" encoding="UTF-8"?><svg id="Calque_1" xmlns="http://www.w3.org/2000/svg" viewBox="0 0 390.94 505.14"><defs><style>.cls-1{letter-spacing:0em;}.cls-2{fill:none;stroke-width:0px;}.cls-3{fill:#010101;font-family:AdelleSansDevanagari-Bold, 'Adelle Sans Devanagari';font-size:15px;font-weight:700;}.cls-4{letter-spacing:0em;}.cls-5{letter-spacing:-.02em;}.cls-6{stroke-width:.97px;}.cls-6,.cls-7,.cls-8,.cls-9{fill:#fbf2ea;}.cls-6,.cls-7,.cls-8,.cls-9,.cls-10,.cls-11{stroke:#1e1e1c;stroke-miterlimit:10;}.cls-7{stroke-width:1px;}.cls-8{stroke-width:1px;}.cls-10{fill:#faf2e9;}.cls-12{letter-spacing:0em;}.cls-13{letter-spacing:0em;}.cls-14{letter-spacing:0em;}.cls-15{letter-spacing:0em;}.cls-11{fill:#abc280;stroke-width:.75px;}</style></defs><rect class="cls-6" x=".64" y="408.15" width="389.8" height="96.5"/><rect class="cls-11" x=".5" y=".38" width="389.5" height="383.3"/><rect class="cls-9" x=".5" y="383.67" width="389" height="24.7"/><rect class="cls-9" x="59.48" y="66.04" width="271.38" height="317.89"/><rect class="cls-6" x="-13.43" y="179.41" width="287.74" height="121" transform="translate(-109.47 370.35) rotate(-90)"/><rect class="cls-9" x="77.03" y="103.15" width="31.91" height="123.89"/><rect class="cls-9" x="114.84" y="103.15" width="31.91" height="123.89"/><rect class="cls-9" x="152.03" y="103.15" width="31.91" height="123.89"/><rect class="cls-6" x="116.57" y="179.41" width="287.74" height="121" transform="translate(20.53 500.35) rotate(-90)"/><path class="cls-10" d="M330.86,66.04s-23-45.98-140.7-46.38c-108.3-.37-130.68,46.38-130.68,46.38h271.38Z"/><rect class="cls-9" x="59.44" y="66.15" width="271.5" height="25"/><rect class="cls-9" x="207.33" y="103.41" width="31.91" height="123.89"/><rect class="cls-9" x="244.83" y="103.41" width="31.91" height="123.89"/><rect class="cls-9" x="282.33" y="103.41" width="31.91" height="123.89"/><rect class="cls-7" x="77" y="236.33" width="31.94" height="31.82"/><rect class="cls-9" x="77" y="273.33" width="31.91" height="31.82"/><rect class="cls-9" x="114.84" y="273.33" width="31.91" height="31.82"/><rect class="cls-8" x="114.8" y="236.33" width="31.97" height="31.82"/><rect class="cls-9" x="151.84" y="273.33" width="31.91" height="31.82"/><rect class="cls-8" x="151.8" y="236.33" width="31.97" height="31.82"/><rect class="cls-7" x="207.14" y="236" width="31.94" height="31.82"/><rect class="cls-9" x="207.14" y="273" width="31.91" height="31.82"/><rect class="cls-9" x="244.97" y="273" width="31.91" height="31.82"/><rect class="cls-8" x="244.94" y="236" width="31.97" height="31.82"/><rect class="cls-9" x="281.97" y="273" width="31.91" height="31.82"/><rect class="cls-8" x="281.94" y="236" width="31.97" height="31.82"/><path class="cls-9" d="M76.72,57.7v3.45h31.91v-21.46c-18.32,6.29-27.7,13.75-31.91,18.01Z"/><path class="cls-9" d="M114.72,37.75v23.41h31.91v-29.93c-12.6,1.63-23.13,3.93-31.91,6.53Z"/><path class="cls-9" d="M151.72,30.61v30.54h31.91V28.71c-11.81.18-22.41.85-31.91,1.9Z"/><path class="cls-9" d="M206.72,28.95v32.2h31.91v-29.79c-9.5-1.15-20.1-1.99-31.91-2.41Z"/><path class="cls-9" d="M244.72,32.17v28.99h31.91v-22.26c-8.76-2.58-19.28-4.93-31.91-6.73Z"/><path class="cls-9" d="M313.63,57.39c-4.46-4.12-13.9-10.95-31.91-16.91v20.67h31.91v-3.76Z"/><text class="cls-3" transform="translate(133.2 83.04)"><tspan x="0" y="0">Cœu</tspan><tspan class="cls-1" x="32.58" y="0">r</tspan><tspan x="38.43" y="0">s </tspan><tspan class="cls-5" x="48.79" y="0">R</tspan><tspan class="cls-12" x="58.15" y="0">é</tspan><tspan class="cls-13" x="66.3" y="0">si</tspan><tspan class="cls-15" x="77.83" y="0">s</tspan><tspan class="cls-14" x="85.2" y="0">t</tspan><tspan class="cls-4" x="91.27" y="0">ants</tspan></text><rect class="cls-6" x=".5" y="441.15" width="389.94" height="13"/><polygon class="cls-2" points="387.46 357.37 390.71 357.37 390.71 357.37 389.97 357.37 387.46 357.37"/><path class="cls-9" d="M387.19,356.87h-29.17v2.65h1.77s-2.65,33.59,7.95,40.66c5.3,3.54,7.95,7.95,7.95,7.95h11.42v.02s3.32,0,3.32,0v-51.28h-3.25Z"/><path class="cls-9" d="M390.44,329.41l-.59-43.5c-1.08,2.39-4.44,11.43-7.86,23.05,3.17,11.39,5.25,25.6,6.44,35.58.5-4.36,1.17-9.57,2-15.13Z"/><path class="cls-9" d="M382,308.96c-1.32-4.72-2.82-8.95-4.52-12.19,0,0-1.9,10.79-2.85,24,1.06,2.96,2,5.81,2.85,8.51,5.12,16.43,6.46,27.59,6.46,27.59h3.27s.39-4.93,1.24-12.33c-1.19-9.98-3.27-24.19-6.44-35.58Z"/><path class="cls-9" d="M377.47,329.29c-.84-2.7-1.79-5.55-2.85-8.51-3.38-9.45-7.91-20.09-13.95-31.07,0,0,2.42,23.2,9.04,45.3,1.44,1.7,3.04,3.84,4.55,6.4.83,1.41,1.63,2.95,2.36,4.61,1.4,3.19,2.52,6.82,3.05,10.86h4.25s-1.33-11.15-6.46-27.59Z"/><path class="cls-9" d="M376.62,346.01c-.73-1.66-1.53-3.2-2.36-4.61-1.51-2.56-3.11-4.7-4.55-6.4-2.58-3.04-4.62-4.64-4.62-4.64-2.65-1.77-4.42.91-4.42.91l-5.3,11.46,5.3-4.12c2.65-2.07,3.9.43,4.42,1.47,2.09,4.2,8.37,16.79,8.37,16.79h6.21c-.53-4.05-1.66-7.68-3.05-10.86Z"/><path class="cls-9" d="M388.44,344.54c-.85,7.4-1.24,12.33-1.24,12.33h3.25v-27.46c-.84,5.56-1.5,10.77-2,15.13Z"/><path class="cls-9" d="M43.26,331.52c-3.13-6.86-11.72-5.13-11.72-5.13,3.66-5.86-1.97-8.38-4.39-8.79-4.39-.73-10.25,0-10.25,0,2.2-2.2.14-4.81-1.46-5.13-7.32-1.46-10.25,3.66-10.25,3.66,0,0-1.56-3.9-4.68-3.73v7.15c.81-.38,2.71-1.04,5.41-.5,0,0,8.79,2.2,4.39,9.52,0,0,17.58-.73,8.06,11.72,0,0,4.89,3.06.14,8.06h15.97l-.02.06c6.87-1.82,2.95-5.19,2.95-5.19,6.59-2.93,7.22-8.74,5.86-11.72Z"/><path class="cls-9" d="M18.51,348.37c4.74-5-.14-8.06-.14-8.06,9.52-12.45-8.06-11.72-8.06-11.72,4.39-7.32-4.39-9.52-4.39-9.52-2.71-.54-4.6.12-5.41.5v28.8h18.01Z"/><polygon class="cls-9" points="18.51 348.37 .5 348.37 .5 350.51 .5 351.96 .5 364.48 .5 409.15 16.82 409.15 27.98 364.48 30.11 364.48 34.46 348.43 34.48 348.37 18.51 348.37"/></svg>