<?xml version="1.0" encoding="UTF-8"?><svg id="Calque_1" xmlns="http://www.w3.org/2000/svg" viewBox="0 0 92.76 116.99"><defs><style>.cls-1,.cls-2{fill:none;}.cls-1,.cls-3,.cls-4{stroke-width:0px;}.cls-5,.cls-2{stroke:#1d1d1b;stroke-miterlimit:10;}.cls-5,.cls-4{fill:#fcf3ec;}.cls-3{fill:#1d1d1b;}</style></defs><rect class="cls-1" x=".03" width="92.69" height="116.95"/><path class="cls-4" d="M8.06,57.56s-10.49-1.75-6.76,10.47c0,0,2.02,7.06,9.29,10.63"/><path class="cls-2" d="M8.06,57.56s-10.49-1.75-6.76,10.47c0,0,2.02,7.06,9.29,10.63"/><path class="cls-4" d="M84.46,57.55s10.4-2.16,7.18,10.19c0,0-1.72,7.14-8.83,11"/><path class="cls-2" d="M84.46,57.55s10.4-2.16,7.18,10.19c0,0-1.72,7.14-8.83,11"/><path class="cls-5" d="M45.77,12.89c-11.12,0-35.23,2.93-37.93,30.12,0,0-2.31,37.18,8.21,54.31,5.7,9.28,14.73,19.17,29.79,19.17,14.07,0,25.3-10.06,30.91-19.24,3.3-5.39,9.05-14.75,6.81-55.01,0,0,0-29.35-37.79-29.35Z"/><path class="cls-3" d="M29.57,61.11c1.15,0,2.08-.92,2.08-2.05s-.93-2.05-2.08-2.05-2.08.92-2.08,2.05.93,2.05,2.08,2.05Z"/><path class="cls-2" d="M34.07,48.46l-6.58.71"/><path class="cls-3" d="M62.13,61.11c1.15,0,2.08-.92,2.08-2.05s-.93-2.05-2.08-2.05-2.08.92-2.08,2.05.93,2.05,2.08,2.05Z"/><path class="cls-2" d="M57.61,48.46l6.6.71"/><path class="cls-2" d="M45.69,65.43l-2.24,16.73,5.37,1.05"/><path class="cls-2" d="M33.4,93.25s11.78,13.49,24.89,0"/><path class="cls-3" d="M7.21,55.85s-.03-10.16-.98-18.86c-.27-2.58-4.47-5.9,1.95-10.19,0,0,2.21-1.2,1.2-4.35,0,0-.8-6.62,6.53-7.61,0,0,3.41,0,5.02-2.76,0,0,0-10.47,9.84-12.05,0,0,4.42-.29,9.94,4.35,0,0,5.42,4.15,12.05,1.97,0,0,12.64-6.62,23.39.79,0,0,7.11,3.52,3.91,13.99,0,0-.68,2.22,2.16,3.97,0,0,4.88,3.69,3.2,11.17-1.07,4.7-.22,17.39-.92,21.29l-8.46-22.35s-2.65-6.43-10.62-4.07c0,0-16.96,4.15-25.09-1.29,0,0-9.13-7.41-14.96-4.94,0,0-5.87,1.58-7.82,8.95-1.55,5.86-7.15,14.74-10.3,21.99h-.02Z"/><path class="cls-3" d="M7.63,79.37c1.15,0,2.08-.92,2.08-2.05s-.93-2.05-2.08-2.05-2.08.92-2.08,2.05.93,2.05,2.08,2.05Z"/><path class="cls-3" d="M85.28,79.37c1.15,0,2.08-.92,2.08-2.05s-.93-2.05-2.08-2.05-2.08.92-2.08,2.05.93,2.05,2.08,2.05Z"/></svg>