<svg width="203" height="203" viewBox="0 0 203 203" fill="none" xmlns="http://www.w3.org/2000/svg">
<circle cx="101.5" cy="101.5" r="101" fill="#AAC382" stroke="black"/>
<g clip-path="url(#clip0_548_5565)">
<path d="M50.6528 100.782C50.6528 100.782 36.7329 98.4505 41.6869 114.754C41.6869 114.754 44.3615 124.17 54.0112 128.938" fill="#FCF3EC"/>
<path d="M50.6528 100.782C50.6528 100.782 36.7329 98.4505 41.6869 114.754C41.6869 114.754 44.3615 124.17 54.0112 128.938" stroke="#1D1D1B" stroke-width="0.83" stroke-miterlimit="10"/>
<path d="M152.028 100.767C152.028 100.767 165.826 97.8789 161.556 114.363C161.556 114.363 159.277 123.884 149.84 129.043" fill="#FCF3EC"/>
<path d="M152.028 100.767C152.028 100.767 165.826 97.8789 161.556 114.363C161.556 114.363 159.277 123.884 149.84 129.043" stroke="#1D1D1B" stroke-width="0.83" stroke-miterlimit="10"/>
<path d="M100.695 41.1914C85.9388 41.1914 53.9502 45.1019 50.3639 81.3646C50.3639 81.3646 47.2942 130.953 61.2597 153.815C68.8276 166.193 80.8024 179.383 100.786 179.383C119.462 179.383 134.355 165.967 141.801 153.724C146.177 146.535 153.806 134.051 150.843 80.3418C150.843 80.3418 150.843 41.1914 100.695 41.1914Z" fill="#FCF3EC" stroke="#1D1D1B" stroke-width="0.83" stroke-miterlimit="10"/>
<path d="M79.1915 105.52C80.719 105.52 81.9573 104.294 81.9573 102.782C81.9573 101.27 80.719 100.045 79.1915 100.045C77.6641 100.045 76.4258 101.27 76.4258 102.782C76.4258 104.294 77.6641 105.52 79.1915 105.52Z" fill="#1D1D1B"/>
<path d="M85.1637 88.644L76.4258 89.5916" stroke="#1D1D1B" stroke-width="0.88" stroke-miterlimit="10"/>
<path d="M122.395 105.52C123.923 105.52 125.161 104.294 125.161 102.782C125.161 101.27 123.923 100.045 122.395 100.045C120.868 100.045 119.629 101.27 119.629 102.782C119.629 104.294 120.868 105.52 122.395 105.52Z" fill="#1D1D1B"/>
<path d="M116.408 88.644L125.161 89.5916" stroke="#1D1D1B" stroke-width="0.88" stroke-miterlimit="10"/>
<path d="M100.588 111.28L97.6096 133.6L104.737 134.999" stroke="#1D1D1B" stroke-width="0.88" stroke-miterlimit="10"/>
<path d="M84.2825 148.385C84.2825 148.385 99.9196 166.373 117.304 148.385" stroke="#1D1D1B" stroke-width="0.88" stroke-miterlimit="10"/>
<path d="M49.5282 98.4952C49.5282 98.4952 49.4826 84.9437 48.2213 73.3325C47.8566 69.8882 42.2947 65.4663 50.8047 59.7358C50.8047 59.7358 53.7376 58.1416 52.4003 53.9302C52.4003 53.9302 51.3366 45.1014 61.0623 43.7779C61.0623 43.7779 65.5908 43.7779 67.7183 40.093C67.7183 40.093 67.7183 26.1203 80.7721 24.0147C80.7721 24.0147 86.6379 23.6236 93.9626 29.8203C93.9626 29.8203 101.151 35.3552 109.949 32.4524C109.949 32.4524 126.726 23.6236 140.98 33.5052C140.98 33.5052 150.417 38.1979 146.162 52.1705C146.162 52.1705 145.266 55.1335 149.034 57.4647C149.034 57.4647 155.508 62.383 153.274 72.3699C151.861 78.6417 152.986 95.5623 152.059 100.766L140.828 70.9561C140.828 70.9561 137.318 62.383 126.741 65.5264C126.741 65.5264 104.235 71.0613 93.4459 63.8118C93.4459 63.8118 81.3344 53.9302 73.5994 57.2241C73.5994 57.2241 65.8036 59.3298 63.2202 69.1662C61.1687 76.9873 53.7376 88.8242 49.5586 98.4952H49.5282Z" fill="#1D1D1B"/>
<path d="M48.8444 129.87C50.3718 129.87 51.6101 128.645 51.6101 127.133C51.6101 125.621 50.3718 124.396 48.8444 124.396C47.3169 124.396 46.0786 125.621 46.0786 127.133C46.0786 128.645 47.3169 129.87 48.8444 129.87Z" fill="#1D1D1B"/>
<path d="M153.122 129.87C154.65 129.87 155.888 128.645 155.888 127.133C155.888 125.621 154.65 124.396 153.122 124.396C151.595 124.396 150.356 125.621 150.356 127.133C150.356 128.645 151.595 129.87 153.122 129.87Z" fill="#1D1D1B"/>
</g>
<defs>
<clipPath id="clip0_548_5565">
<rect width="123" height="156" fill="white" transform="translate(40 24)"/>
</clipPath>
</defs>
</svg>
