<?xml version="1.0" encoding="UTF-8"?><svg id="Calque_1" xmlns="http://www.w3.org/2000/svg" xmlns:xlink="http://www.w3.org/1999/xlink" viewBox="0 0 123.7 290.79"><defs><style>.cls-1{clip-path:url(#clippath);}.cls-2,.cls-3,.cls-4,.cls-5,.cls-6{fill:none;}.cls-2,.cls-7{stroke-width:0px;}.cls-3,.cls-4,.cls-5,.cls-8,.cls-9,.cls-10,.cls-11,.cls-12{stroke-width:.75px;}.cls-3,.cls-4,.cls-5,.cls-8,.cls-9,.cls-10,.cls-11,.cls-12,.cls-6{stroke-miterlimit:10;}.cls-3,.cls-9,.cls-12{stroke:#1d1d1b;}.cls-4,.cls-10,.cls-6{stroke:#1d1e1c;}.cls-5,.cls-8,.cls-11{stroke:#000;}.cls-8{fill:#fbf3eb;}.cls-9{fill:#fff;}.cls-10{fill:#fbf2eb;}.cls-7{fill:#1d1e1c;}.cls-11{fill:#316cad;}.cls-12{fill:#aac280;}.cls-6{stroke-width:.25px;}</style><clipPath id="clippath"><rect class="cls-2" x="42.12" width="36.01" height="45.43"/></clipPath></defs><path class="cls-10" d="M69.27,49.67c-2.2-.86-1.06-7.69-1.06-7.69l-8.08-3.13-7.8,3.6s1.24,4.72-.55,7.76l8.11,11.03,9.38-11.56Z"/><polygon class="cls-12" points="49.2 275.12 49.2 290.41 1.38 290.41 27.42 275.12 49.2 275.12"/><polygon class="cls-12" points="74.51 275.12 74.51 290.41 122.32 290.41 96.29 275.12 74.51 275.12"/><polygon class="cls-11" points="33.43 112.5 90.49 111.71 109.71 279.37 70.83 279.37 62.09 141.42 52.86 279.37 16.58 279.37 33.43 112.5"/><path class="cls-8" d="M19.63,279.16s-6.76-5.29-7.05-2.54c-.19,1.79,7.05,2.54,7.05,2.54Z"/><path class="cls-5" d="M14.3,280.79s3.57.19,5.89-1.42"/><path class="cls-8" d="M103.97,279.24s7.45-6.02,6.84-2.83c-.34,1.76-6.84,2.83-6.84,2.83Z"/><path class="cls-5" d="M111.57,281.22s-5.51-.13-7.83-1.74"/><path class="cls-12" d="M68.43,48.48c16.3.93,23.39,5.09,23.39,5.09-.32,13.8-1.32,58.14-1.32,58.14l-57.06.79-1.55-59.18c7.5-3.21,12.94-3.85,20.5-4.58l7.73,9.47,8.3-9.73Z"/><path class="cls-12" d="M91.82,53.57s6.4,2.56,9.03,11.21l11.09,31.16-7.21,34.12-16.45-14.24,11.18-22.44-8.21-15.01.57-24.8Z"/><path class="cls-3" d="M82.65,117.84s-1.03,11.52,10.3,15.14"/><path class="cls-3" d="M41.63,117.27s1.03,11.52-10.3,15.14"/><path class="cls-10" d="M84.34,125.34s2.81-7.81,6.26-7.49l7.4,6.41s-2.09,7.94-7.9,6.98c0,0-4.34-1.67-5.76-5.9Z"/><path class="cls-12" d="M31.86,53.33s-6.4,2.56-9.03,11.21l-7.78,33.56-6.72,30.56,19.44-2.9,1.94-27.67,2.72-19.96-.57-24.8Z"/><path class="cls-10" d="M14.63,140.62c.82.11,1.08-.83,1.08-.83.05.51.52.59.52.59.37.1.73-.14.73-.14,1.43-1,3.41-8.15,3.41-8.15,0,0,1.17,3.07,2.16,2.75,1.5-.47,0-8.29,0-8.29l-10.84,1.6s-2.06,7.72-.62,11.07c.13.3.64,1,1.39.22.05-.05.08-.8.07-.26,0,0-.14,1.08.6,1.15.5.04.73-.29.81-.47.05-.12.04-.28.04.05s.13.62.64.69Z"/><path class="cls-9" d="M14,139.75s.17-2.66.9-4.2"/><path class="cls-9" d="M12.54,139.2s-.02-2.61.7-4.15"/><path class="cls-9" d="M15.71,139.75s.17-2.66.9-4.2"/><g class="cls-1"><path class="cls-10" d="M45.24,22.36s-4.08-.68-2.62,4.07c0,0,.78,2.74,3.61,4.13"/><path class="cls-6" d="M45.24,22.36s-4.08-.68-2.62,4.07c0,0,.78,2.74,3.61,4.13"/><path class="cls-10" d="M74.92,22.36s4.04-.84,2.79,3.96c0,0-.67,2.77-3.43,4.28"/><path class="cls-6" d="M74.92,22.36s4.04-.84,2.79,3.96c0,0-.67,2.77-3.43,4.28"/><path class="cls-10" d="M59.89,5.01c-4.32,0-13.68,1.14-14.73,11.7,0,0-.9,14.44,3.19,21.1,2.22,3.6,5.72,7.45,11.57,7.45,5.47,0,9.83-3.91,12.01-7.47,1.28-2.09,3.51-5.73,2.65-21.37,0,0,0-11.4-14.68-11.4Z"/><path class="cls-7" d="M53.59,23.74c.45,0,.81-.36.81-.8s-.36-.8-.81-.8-.81.36-.81.8.36.8.81.8Z"/><path class="cls-4" d="M55.34,18.83l-2.56.28"/><path class="cls-7" d="M66.24,23.74c.45,0,.81-.36.81-.8s-.36-.8-.81-.8-.81.36-.81.8.36.8.81.8Z"/><path class="cls-4" d="M64.49,18.83l2.56.28"/><path class="cls-4" d="M59.86,25.42l-.87,6.5,2.09.41"/><path class="cls-4" d="M55.08,36.22s4.58,5.24,9.67,0"/><path class="cls-7" d="M44.91,21.7s-.01-3.95-.38-7.33c-.11-1-1.74-2.29.76-3.96,0,0,.86-.46.47-1.69,0,0-.31-2.57,2.54-2.96,0,0,1.33,0,1.95-1.07,0,0,0-4.07,3.82-4.68,0,0,1.72-.11,3.86,1.69,0,0,2.1,1.61,4.68.77,0,0,4.91-2.57,9.08.31,0,0,2.76,1.37,1.52,5.44,0,0-.26.86.84,1.54,0,0,1.9,1.43,1.24,4.34-.41,1.83-.08,6.75-.36,8.27l-3.29-8.68s-1.03-2.5-4.12-1.58c0,0-6.59,1.61-9.75-.5,0,0-3.55-2.88-5.81-1.92,0,0-2.28.61-3.04,3.48-.6,2.28-2.78,5.72-4,8.54h0Z"/><path class="cls-7" d="M44.71,30.83c.45,0,.81-.36.81-.8s-.36-.8-.81-.8-.81.36-.81.8.36.8.81.8Z"/><path class="cls-7" d="M75.24,30.83c.45,0,.81-.36.81-.8s-.36-.8-.81-.8-.81.36-.81.8.36.8.81.8Z"/></g></svg>