<?xml version="1.0" encoding="UTF-8"?>
<svg id="Calque_2" data-name="Calque 2" xmlns="http://www.w3.org/2000/svg" xmlns:xlink="http://www.w3.org/1999/xlink" viewBox="0 0 130 130">
  <defs>
    <style>
      .cls-1 {
        fill: #120959;
      }

      .cls-2 {
        clip-path: url(#clippath);
      }

      .cls-3 {
        fill: none;
      }

      .cls-4 {
        fill: #fffaec;
      }

      .cls-5 {
        fill: #f00000;
      }
    </style>
    <clipPath id="clippath">
      <circle class="cls-3" cx="54.53" cy="63.18" r="54.52"/>
    </clipPath>
  </defs>
  <g id="Calque_1-2" data-name="Calque 1">
    <g id="Calque_1-2" data-name="Calque 1-2">
      <circle class="cls-4" cx="54.53" cy="63.18" r="54.52"/>
      <g class="cls-2">
        <g>
          <polygon class="cls-1" points="48.91 101.12 30.1 91.46 15.88 101.84 26.38 125.97 45.39 119.45 48.91 101.12"/>
          <polygon class="cls-5" points="31.56 79.21 43.24 61.57 34.49 46.31 9.35 54.09 13.74 73.7 31.56 79.21"/>
          <polygon class="cls-1" points="91.1 81.1 72.28 71.44 58.06 81.81 68.57 105.95 87.58 99.43 91.1 81.1"/>
          <polygon class="cls-1" points="123.04 40.01 101.99 42.07 95.65 58.48 117.54 73.1 130 57.33 123.04 40.01"/>
          <polygon class="cls-1" points="26.25 0 8.06 10.79 9.28 28.35 35.31 32.29 39.9 12.73 26.25 0"/>
          <polygon class="cls-1" points="83.77 29.2 64.95 19.54 50.74 29.92 61.24 54.05 80.25 47.53 83.77 29.2"/>
        </g>
      </g>
    </g>
  </g>
</svg>