<?xml version="1.0" encoding="UTF-8"?>
<svg id="Calque_2" data-name="Calque 2" xmlns="http://www.w3.org/2000/svg" xmlns:xlink="http://www.w3.org/1999/xlink" viewBox="0 0 109.94 109.94">
  <defs>
    <style>
      .cls-1 {
        fill: #120959;
      }

      .cls-2 {
        fill: #00ecb8;
      }

      .cls-3 {
        clip-path: url(#clippath);
      }

      .cls-4 {
        fill: none;
      }

      .cls-5 {
        fill: #fffaec;
      }
    </style>
    <clipPath id="clippath">
      <circle class="cls-4" cx="54.97" cy="54.97" r="54.97"/>
    </clipPath>
  </defs>
  <g id="Calque_1-2" data-name="Calque 1">
    <g id="Calque_1-2" data-name="Calque 1-2">
      <circle class="cls-1" cx="54.97" cy="54.97" r="54.97"/>
      <g class="cls-3">
        <g>
          <polygon class="cls-2" points="48.85 70.29 27.83 73.91 22.67 90.89 45.76 103.97 57.12 87.19 48.85 70.29"/>
          <polygon class="cls-5" points="61.69 41.06 82.45 36.21 86.61 18.96 62.79 7.26 52.43 24.67 61.69 41.06"/>
          <polygon class="cls-2" points="84.36 50.31 63.09 52.04 56.42 68.46 78.25 83.55 91.08 67.87 84.36 50.31"/>
          <polygon class="cls-2" points="26.87 -18.11 18.11 1.34 29.28 15.12 53.04 3.31 45.5 -15.5 26.87 -18.11"/>
          <polygon class="cls-2" points="7.53 4.58 -12.04 13.04 -13.07 30.77 12.45 38.04 19.54 19.06 7.53 4.58"/>
          <polygon class="cls-2" points="7.35 47.7 -13.11 41.68 -25.24 54.63 -10.3 76.55 7.31 66.52 7.35 47.7"/>
          <polygon class="cls-2" points="131.69 40.43 120.82 58.78 103.12 57.56 99.11 31.33 118.84 26.68 131.69 40.43"/>
          <polygon class="cls-2" points="120.48 65.01 124.81 85.89 110.92 96.92 90.28 80.24 101.73 63.52 120.48 65.01"/>
          <polygon class="cls-2" points="88.41 88.54 105.11 101.81 101.49 119.19 74.96 119.57 73.05 99.39 88.41 88.54"/>
          <polygon class="cls-2" points="52.4 45.15 39.74 27.98 22.25 30.97 20.9 57.47 40.99 60.12 52.4 45.15"/>
        </g>
      </g>
    </g>
  </g>
</svg>