<?xml version="1.0" encoding="UTF-8"?>
<svg id="Calque_2" data-name="Calque 2" xmlns="http://www.w3.org/2000/svg" viewBox="0 0 262.62 63.43">
  <defs>
    <style>
      .cls-1 {
        fill: #fff;
      }
    </style>
  </defs>
  <g id="Calque_1-2" data-name="Calque 1">
    <g id="Calque_1-2" data-name="Calque 1-2">
      <path class="cls-1" d="m85.14,17.93V.97h4.36v13.37h7.27v3.58h-11.63Z"/>
      <path class="cls-1" d="m104.64,18.24c-1.26,0-2.39-.24-3.39-.71-1-.48-1.8-1.21-2.39-2.19s-.89-2.22-.89-3.71v-.48c0-1.42.28-2.6.85-3.54.57-.94,1.34-1.64,2.31-2.12s2.06-.71,3.26-.71c2.11,0,3.71.55,4.8,1.63s1.62,2.67,1.62,4.74v1.36h-9.01c.03.63.18,1.16.45,1.57.27.42.61.72,1.03.91s.87.28,1.36.28c.71,0,1.27-.11,1.68-.33s.68-.51.81-.89h3.44c-.26,1.4-.9,2.45-1.91,3.15-1.02.69-2.36,1.04-4.02,1.04h0Zm-.12-10.49c-.45,0-.88.07-1.28.22-.4.15-.73.39-.98.71-.25.33-.39.78-.42,1.34h5.33c0-.6-.12-1.06-.36-1.39-.24-.33-.56-.56-.96-.69s-.84-.19-1.32-.19h0Z"/>
      <path class="cls-1" d="m123.3,17.93V4.55h-5.21V.97h14.78v3.58h-5.21v13.37h-4.36,0Z"/>
      <path class="cls-1" d="m138.8,18.24c-1.26,0-2.39-.24-3.39-.71-1-.48-1.8-1.21-2.39-2.19s-.89-2.22-.89-3.71v-.48c0-1.42.28-2.6.85-3.54.57-.94,1.34-1.64,2.31-2.12s2.06-.71,3.26-.71c2.11,0,3.71.55,4.8,1.63s1.62,2.67,1.62,4.74v1.36h-9.01c.03.63.18,1.16.45,1.57.27.42.61.72,1.03.91s.87.28,1.36.28c.71,0,1.27-.11,1.68-.33s.68-.51.81-.89h3.44c-.26,1.4-.9,2.45-1.91,3.15-1.02.69-2.36,1.04-4.02,1.04h0Zm-.12-10.49c-.45,0-.88.07-1.28.22-.4.15-.73.39-.98.71-.25.33-.39.78-.42,1.34h5.33c0-.6-.12-1.06-.36-1.39-.24-.33-.56-.56-.96-.69s-.84-.19-1.32-.19h0Zm-1.57-3.88l2.66-3.87h3.87l-3.63,3.87h-2.91,0Z"/>
      <path class="cls-1" d="m151.52,18.08c-1.03,0-1.88-.13-2.54-.37-.66-.25-1.15-.71-1.47-1.38-.32-.67-.47-1.64-.47-2.92V.97h3.73v11.87c0,.79.11,1.34.33,1.66s.68.47,1.37.47c.19,0,.36,0,.48-.01.13,0,.26-.02.39-.04v3.08c-.16.02-.34.03-.52.03-.19,0-.39.02-.61.02s-.45.01-.69.01h0Z"/>
      <path class="cls-1" d="m161.09,18.24c-1.26,0-2.39-.24-3.39-.71-1-.48-1.8-1.21-2.39-2.19s-.89-2.22-.89-3.71v-.48c0-1.42.28-2.6.85-3.54.57-.94,1.34-1.64,2.31-2.12s2.06-.71,3.26-.71c2.11,0,3.71.55,4.8,1.63s1.62,2.67,1.62,4.74v1.36h-9.01c.03.63.18,1.16.45,1.57.27.42.61.72,1.03.91s.87.28,1.36.28c.71,0,1.27-.11,1.68-.33s.68-.51.81-.89h3.44c-.26,1.4-.9,2.45-1.91,3.15-1.02.69-2.36,1.04-4.02,1.04h0Zm-.12-10.49c-.45,0-.88.07-1.28.22-.4.15-.73.39-.98.71-.25.33-.39.78-.42,1.34h5.33c0-.6-.12-1.06-.36-1.39-.24-.33-.56-.56-.96-.69s-.84-.19-1.32-.19h0Zm-1.57-3.88l2.66-3.87h3.87l-3.63,3.87h-2.91,0Z"/>
      <path class="cls-1" d="m175.02,23.09c-1.39,0-2.5-.16-3.33-.48-.83-.32-1.44-.79-1.82-1.42-.38-.62-.6-1.34-.67-2.17h3.8c.08.29.26.56.55.82s.77.39,1.47.39c.97,0,1.7-.22,2.19-.67.49-.44.74-1.15.74-2.12v-1.38c-.44.63-.98,1.11-1.63,1.44s-1.34.5-2.07.5c-1.11,0-2.09-.24-2.92-.73s-1.47-1.2-1.93-2.16c-.45-.95-.68-2.16-.68-3.61v-.48c0-1.36.22-2.5.67-3.43.44-.93,1.08-1.63,1.91-2.11.83-.48,1.81-.71,2.94-.71,1,0,1.84.21,2.51.64.67.43,1.17.9,1.49,1.42v-1.74h3.44v11.99c0,2-.54,3.5-1.61,4.51-1.07,1-2.76,1.5-5.05,1.5h0Zm.12-8.16c.53,0,1.01-.12,1.43-.36.42-.24.76-.59,1-1.05.25-.46.37-1,.37-1.63v-1.21c0-.61-.13-1.13-.37-1.54-.25-.41-.58-.73-1-.95-.42-.22-.9-.33-1.43-.33-.76,0-1.38.26-1.87.79-.48.53-.73,1.32-.73,2.39v.48c0,1.11.24,1.96.74,2.55.49.58,1.11.87,1.86.87h0Z"/>
      <path class="cls-1" d="m184.11,17.93V5.09h3.44v1.74c.13-.29.35-.6.65-.92s.68-.6,1.11-.81c.44-.22.92-.33,1.45-.33.27,0,.49.02.65.05.16.03.31.06.44.1v3.22c-.08-.05-.27-.1-.56-.17-.29-.06-.63-.1-1.02-.1-.57,0-1.03.11-1.39.34-.36.23-.63.53-.8.92-.17.39-.26.82-.26,1.31v7.49h-3.73,0Z"/>
      <path class="cls-1" d="m197.2,18.24c-.92,0-1.71-.18-2.36-.53-.65-.36-1.15-.84-1.49-1.47-.34-.62-.51-1.31-.51-2.07,0-1.28.39-2.25,1.18-2.93s1.97-1.02,3.55-1.02h3.63v-.53c0-.77-.18-1.31-.55-1.6s-.87-.44-1.52-.44-1.07.09-1.36.28-.45.49-.48.91h-3.73c.05-.77.29-1.47.74-2.08.44-.61,1.08-1.1,1.91-1.45.83-.36,1.84-.53,3.04-.53,1.13,0,2.12.17,2.98.51.86.34,1.52.89,2,1.63.48.75.71,1.76.71,3.02v4.73c0,.68.02,1.27.05,1.78.03.51.08,1,.15,1.49h-3.56c-.02-.27-.03-.52-.06-.73-.02-.21-.04-.47-.04-.77-.39.52-.92.95-1.61,1.3s-1.58.52-2.68.52h0Zm1.21-2.64c.53,0,1.01-.1,1.43-.29s.75-.49.99-.89.36-.84.36-1.34v-.53h-2.91c-.55,0-.96.15-1.23.44s-.4.62-.4.99c0,.48.13.87.4,1.18.27.3.71.45,1.34.45h0Z"/>
      <path class="cls-1" d="m207.25,17.93V5.09h3.51v1.84c.29-.56.74-1.07,1.36-1.5.61-.44,1.37-.65,2.28-.65,1.02,0,1.81.19,2.36.58.56.39.97.91,1.23,1.57.32-.61.82-1.13,1.5-1.54.68-.41,1.48-.62,2.4-.62,1.39,0,2.45.39,3.17,1.18s1.09,1.95,1.09,3.5v8.48h-3.73v-7.56c0-.9-.14-1.55-.42-1.93-.28-.38-.74-.57-1.37-.57-.37,0-.71.1-1.03.3s-.56.49-.75.86-.28.82-.28,1.33v7.56h-3.73v-7.56c0-.9-.14-1.55-.42-1.93-.28-.38-.75-.57-1.39-.57-.37,0-.71.1-1.02.3-.31.2-.55.49-.74.86s-.28.82-.28,1.33v7.56h-3.73Z"/>
      <path class="cls-1" d="m228.45,17.93V5.09h3.51v1.84c.29-.56.74-1.07,1.36-1.5.61-.44,1.37-.65,2.28-.65,1.02,0,1.81.19,2.36.58.56.39.97.91,1.23,1.57.32-.61.82-1.13,1.5-1.54.68-.41,1.48-.62,2.4-.62,1.39,0,2.45.39,3.17,1.18s1.09,1.95,1.09,3.5v8.48h-3.73v-7.56c0-.9-.14-1.55-.42-1.93-.28-.38-.74-.57-1.37-.57-.37,0-.71.1-1.03.3s-.56.49-.75.86-.28.82-.28,1.33v7.56h-3.73v-7.56c0-.9-.14-1.55-.42-1.93-.28-.38-.75-.57-1.39-.57-.37,0-.71.1-1.02.3-.31.2-.55.49-.74.86s-.28.82-.28,1.33v7.56h-3.73Z"/>
      <path class="cls-1" d="m255.83,18.24c-1.26,0-2.39-.24-3.39-.71-1-.48-1.8-1.21-2.39-2.19s-.89-2.22-.89-3.71v-.48c0-1.42.28-2.6.85-3.54.56-.94,1.34-1.64,2.31-2.12s2.06-.71,3.26-.71c2.11,0,3.71.55,4.8,1.63s1.62,2.67,1.62,4.74v1.36h-9.01c.03.63.18,1.16.45,1.57.27.42.61.72,1.03.91.42.19.87.28,1.36.28.71,0,1.27-.11,1.68-.33s.68-.51.81-.89h3.44c-.26,1.4-.9,2.45-1.91,3.15-1.02.69-2.36,1.04-4.02,1.04h0Zm-.12-10.49c-.45,0-.88.07-1.28.22-.4.15-.73.39-.98.71-.25.33-.39.78-.42,1.34h5.33c0-.6-.12-1.06-.36-1.39-.24-.33-.56-.56-.96-.69-.4-.13-.84-.19-1.32-.19h0Z"/>
      <path class="cls-1" d="m84.91,62.99l.34-37.35h8.38c1.89,0,3.41.38,4.55,1.13s1.96,1.85,2.46,3.28.75,3.15.73,5.18l-.13,16.85c-.02,2.45-.31,4.48-.85,6.1-.55,1.62-1.41,2.82-2.59,3.62s-2.75,1.19-4.7,1.19h-8.19Zm5.73-4.41h1.87c.66,0,1.22-.13,1.67-.4.45-.27.79-.74,1.01-1.43s.34-1.66.36-2.92l.15-18.44c.02-1.91-.2-3.28-.66-4.12-.46-.84-1.28-1.25-2.45-1.25h-1.68l-.26,28.56h0Z"/>
      <path class="cls-1" d="m106.3,62.99l.34-37.35h12.52l-.04,4.9h-6.83l-.1,10.86h6.49l-.04,4.79h-6.49l-.11,11.88h7.09l-.05,4.9h-12.77Z"/>
      <path class="cls-1" d="m130.08,63.42c-1.56,0-2.85-.24-3.89-.73s-1.85-1.2-2.44-2.14c-.59-.94-1.01-2.09-1.25-3.44s-.36-2.89-.34-4.62l.03-3.33h5.39l-.03,3.76c-.02,2.01.14,3.45.47,4.33.33.88,1,1.32,2,1.32.68,0,1.19-.16,1.54-.48s.59-.83.71-1.53.19-1.61.21-2.75c.01-1.4-.27-2.68-.85-3.84-.58-1.16-1.45-2.36-2.63-3.61l-2.73-2.84c-.76-.79-1.44-1.63-2.05-2.53-.61-.89-1.09-1.89-1.44-2.98-.35-1.1-.52-2.32-.51-3.68.02-1.97.27-3.63.77-4.99.49-1.36,1.32-2.39,2.47-3.09,1.15-.7,2.73-1.05,4.72-1.05,1.5,0,2.73.23,3.7.69.97.46,1.71,1.13,2.25,2.02s.91,1.96,1.13,3.23.32,2.71.3,4.34l-.02,2.31h-5.24l.02-2.67c.01-1.13-.04-2.07-.16-2.82-.11-.75-.33-1.31-.65-1.69-.32-.37-.79-.56-1.42-.56s-1.08.13-1.45.39-.64.66-.81,1.21c-.17.55-.26,1.25-.26,2.11,0,.78.08,1.45.28,2.02.19.56.49,1.11.9,1.63.4.52.91,1.11,1.51,1.76l3.05,3.33c1.46,1.58,2.59,3.23,3.39,4.94s1.2,3.62,1.18,5.73c-.02,2.24-.28,4.12-.77,5.63-.5,1.52-1.31,2.67-2.45,3.45-1.14.78-2.68,1.17-4.63,1.17h0Z"/>
      <path class="cls-1" d="m156.44,63.42c-1.56,0-2.85-.24-3.89-.73s-1.85-1.2-2.44-2.14c-.59-.94-1.01-2.09-1.25-3.44s-.36-2.89-.34-4.62l.03-3.33h5.39l-.03,3.76c-.02,2.01.14,3.45.47,4.33.33.88,1,1.32,2,1.32.68,0,1.19-.16,1.54-.48s.59-.83.71-1.53.19-1.61.21-2.75c.01-1.4-.27-2.68-.85-3.84-.58-1.16-1.45-2.36-2.63-3.61l-2.73-2.84c-.76-.79-1.44-1.63-2.05-2.53-.61-.89-1.09-1.89-1.44-2.98-.35-1.1-.52-2.32-.51-3.68.02-1.97.27-3.63.77-4.99.49-1.36,1.32-2.39,2.47-3.09,1.15-.7,2.73-1.05,4.72-1.05,1.5,0,2.73.23,3.7.69.97.46,1.71,1.13,2.25,2.02s.91,1.96,1.13,3.23.32,2.71.3,4.34l-.02,2.31h-5.24l.02-2.67c.01-1.13-.04-2.07-.16-2.82-.11-.75-.33-1.31-.65-1.69-.32-.37-.79-.56-1.42-.56s-1.08.13-1.45.39-.64.66-.81,1.21c-.17.55-.26,1.25-.26,2.11,0,.78.08,1.45.28,2.02.19.56.49,1.11.9,1.63.4.52.91,1.11,1.51,1.76l3.05,3.33c1.46,1.58,2.59,3.23,3.39,4.94s1.2,3.62,1.18,5.73c-.02,2.24-.28,4.12-.77,5.63-.5,1.52-1.31,2.67-2.45,3.45-1.14.78-2.68,1.17-4.63,1.17h0Z"/>
      <path class="cls-1" d="m175.85,63.42c-1.81,0-3.31-.42-4.51-1.25s-2.08-2.05-2.67-3.66c-.59-1.61-.87-3.55-.85-5.83l.15-16.27c.02-1.71.17-3.25.47-4.63.29-1.37.77-2.55,1.41-3.52.65-.98,1.5-1.73,2.57-2.25s2.37-.79,3.93-.79c1.42,0,2.62.23,3.61.69s1.8,1.12,2.42,1.99c.62.86,1.07,1.9,1.35,3.13s.41,2.6.4,4.13l-.05,5.13h-5.5l.04-4.78c.02-1.84-.13-3.2-.43-4.06s-.92-1.31-1.86-1.31c-1.03,0-1.73.47-2.08,1.41-.36.94-.54,2.25-.55,3.94l-.16,17.44c-.01,1.3.05,2.37.19,3.2s.39,1.44.74,1.82c.35.39.84.58,1.48.58.96,0,1.61-.45,1.97-1.36s.53-2.34.55-4.31l.05-5.35h5.58l-.05,5.28c-.02,2.36-.31,4.33-.88,5.91-.57,1.58-1.45,2.76-2.65,3.53-1.2.78-2.76,1.17-4.67,1.17h0Z"/>
      <path class="cls-1" d="m196.6,63.42c-1.94,0-3.52-.41-4.73-1.23-1.22-.82-2.11-2.04-2.67-3.65s-.84-3.61-.82-5.98l.15-17.08c.02-2.15.32-3.99.9-5.52.58-1.53,1.49-2.7,2.73-3.52,1.24-.82,2.86-1.23,4.85-1.23,1.5,0,2.76.23,3.79.7s1.86,1.14,2.49,2.03,1.08,1.96,1.36,3.23c.28,1.27.41,2.71.4,4.32l-.15,17.08c-.02,2.38-.32,4.37-.89,5.98-.57,1.61-1.47,2.83-2.68,3.65s-2.78,1.23-4.72,1.23h0Zm.05-4.92c.71,0,1.24-.21,1.6-.64.36-.42.6-1.07.73-1.94.13-.87.2-1.97.21-3.3l.16-17.4c.02-1.63-.13-2.88-.42-3.77-.3-.89-.95-1.32-1.95-1.32s-1.74.43-2.11,1.28-.57,2.12-.58,3.79l-.16,17.42c-.01,1.36.04,2.47.15,3.34.11.87.36,1.51.73,1.92.37.41.92.61,1.66.61h0Z"/>
      <path class="cls-1" d="m209.95,62.99l.34-37.35h9.4c1.95,0,3.41.38,4.36,1.15s1.58,1.88,1.87,3.35c.29,1.47.43,3.27.41,5.39-.02,2.19-.26,3.91-.71,5.17s-1.37,2.09-2.75,2.52c.65.11,1.19.38,1.63.79.44.42.78,1.03,1.05,1.82s.45,1.82.56,3.08c.11,1.25.16,2.78.14,4.59,0,.14,0,.54-.01,1.19,0,.65,0,1.42-.01,2.3,0,.89,0,1.76,0,2.64s.02,1.63.04,2.25.05.99.1,1.1h-5.69c-.04-.07-.07-.44-.08-1.09s-.03-1.5-.04-2.52c-.01-1.02-.02-2.11-.01-3.29,0-1.18.01-2.33.02-3.47.01-1.14.02-2.15.03-3.02.01-1.12-.06-1.96-.22-2.53s-.45-.97-.88-1.2-1.05-.36-1.85-.4l-1.82-.11-.16,17.63h-5.69,0Zm5.91-22.05h2.27c.69,0,1.22-.16,1.58-.47s.61-.89.76-1.72c.14-.84.22-2.04.23-3.61v-.23c.02-1.32-.04-2.32-.16-3.03-.12-.71-.38-1.19-.78-1.47-.4-.27-1.03-.4-1.87-.4h-1.93l-.1,10.93h0Z"/>
      <path class="cls-1" d="m230.98,62.99l.34-37.35h12.52l-.04,4.9h-6.83l-.1,10.86h6.49l-.04,4.79h-6.49l-.11,11.88h7.09l-.05,4.9h-12.77,0Z"/>
      <path class="cls-1" d="m254.77,63.42c-1.56,0-2.85-.24-3.89-.73s-1.85-1.2-2.44-2.14c-.59-.94-1.01-2.09-1.25-3.44s-.36-2.89-.34-4.62l.03-3.33h5.39l-.03,3.76c-.02,2.01.14,3.45.47,4.33s1,1.32,2,1.32c.68,0,1.19-.16,1.54-.48s.59-.83.71-1.53.19-1.61.21-2.75c.01-1.4-.27-2.68-.85-3.84-.58-1.16-1.45-2.36-2.63-3.61l-2.73-2.84c-.76-.79-1.44-1.63-2.05-2.53-.61-.89-1.09-1.89-1.44-2.98-.35-1.1-.52-2.32-.51-3.68.02-1.97.27-3.63.77-4.99.49-1.36,1.32-2.39,2.47-3.09,1.15-.7,2.73-1.05,4.72-1.05,1.5,0,2.73.23,3.7.69.97.46,1.71,1.13,2.25,2.02.54.89.91,1.96,1.13,3.23s.32,2.71.3,4.34l-.02,2.31h-5.24l.02-2.67c.01-1.13-.04-2.07-.16-2.82s-.33-1.31-.65-1.69c-.32-.37-.79-.56-1.42-.56s-1.08.13-1.45.39-.64.66-.81,1.21-.26,1.25-.26,2.11c0,.78.08,1.45.28,2.02.19.56.49,1.11.9,1.63.4.52.91,1.11,1.51,1.76l3.05,3.33c1.46,1.58,2.59,3.23,3.39,4.94s1.2,3.62,1.18,5.73c-.02,2.24-.28,4.12-.77,5.63-.5,1.52-1.31,2.67-2.45,3.45-1.14.78-2.68,1.17-4.63,1.17h0Z"/>
      <polygon class="cls-1" points="34.22 19.9 0 19.9 .04 6.36 34.27 6.36 34.22 19.9"/>
      <polygon class="cls-1" points="56.75 40.05 .3 40.05 .34 26.51 56.79 26.51 56.75 40.05"/>
      <polygon class="cls-1" points="39.5 60.21 17.4 60.21 17.45 46.67 39.55 46.67 39.5 60.21"/>
      <circle class="cls-1" cx="48.47" cy="13.17" r="8.25"/>
    </g>
  </g>
</svg>