<?xml version="1.0" encoding="UTF-8"?>
<svg id="Calque_2" data-name="Calque 2" xmlns="http://www.w3.org/2000/svg" viewBox="0 0 517.66 125.02">
  <defs>
    <style>
      .cls-1 {
        fill: #fff;
      }
    </style>
  </defs>
  <g id="Calque_1-2" data-name="Calque 1">
    <g id="Calque_1-2" data-name="Calque 1-2">
      <path class="cls-1" d="m167.81,35.34V1.91h8.59v26.36h14.33v7.07h-22.92Z"/>
      <path class="cls-1" d="m206.26,35.96c-2.48,0-4.71-.47-6.69-1.41-1.97-.94-3.54-2.38-4.7-4.32s-1.75-4.38-1.75-7.31v-.96c0-2.8.56-5.12,1.67-6.98,1.11-1.84,2.63-3.24,4.56-4.18s4.06-1.41,6.43-1.41c4.17,0,7.32,1.08,9.46,3.22s3.2,5.26,3.2,9.34v2.67h-17.77c.06,1.24.36,2.28.88,3.1.53.83,1.2,1.42,2.03,1.79s1.72.55,2.67.55c1.4,0,2.51-.22,3.32-.65.81-.43,1.35-1.01,1.6-1.75h6.78c-.51,2.77-1.77,4.84-3.77,6.21-2.01,1.37-4.65,2.05-7.93,2.05h0Zm-.23-20.68c-.89,0-1.74.14-2.53.43-.8.29-1.44.76-1.93,1.41-.5.65-.78,1.54-.84,2.65h10.5c0-1.17-.24-2.09-.71-2.75-.47-.65-1.11-1.11-1.89-1.36s-1.65-.38-2.6-.38h0Z"/>
      <path class="cls-1" d="m243.03,35.34V8.98h-10.27V1.91h29.13v7.07h-10.27v26.36h-8.59,0Z"/>
      <path class="cls-1" d="m273.6,35.96c-2.48,0-4.71-.47-6.69-1.41-1.97-.94-3.54-2.38-4.7-4.32-1.16-1.94-1.75-4.38-1.75-7.31v-.96c0-2.8.56-5.12,1.67-6.98,1.11-1.84,2.63-3.24,4.56-4.18s4.06-1.41,6.43-1.41c4.17,0,7.32,1.08,9.46,3.22s3.2,5.26,3.2,9.34v2.67h-17.77c.06,1.24.36,2.28.88,3.1.53.83,1.2,1.42,2.03,1.79.83.37,1.72.55,2.67.55,1.4,0,2.51-.22,3.32-.65s1.35-1.01,1.6-1.75h6.78c-.51,2.77-1.77,4.84-3.77,6.21-2.01,1.37-4.65,2.05-7.93,2.05h0Zm-.24-20.68c-.89,0-1.74.14-2.53.43-.8.29-1.44.76-1.93,1.41-.5.65-.78,1.54-.84,2.65h10.5c0-1.17-.24-2.09-.71-2.75-.47-.65-1.11-1.11-1.89-1.36s-1.65-.38-2.6-.38h0Zm-3.1-7.65l5.25-7.64h7.64l-7.16,7.64h-5.73,0Z"/>
      <path class="cls-1" d="m298.67,35.63c-2.04,0-3.71-.25-5.01-.74-1.31-.5-2.26-1.4-2.89-2.72-.62-1.32-.93-3.24-.93-5.76V1.91h7.35v23.4c0,1.56.22,2.65.65,3.27s1.33.93,2.7.93c.38,0,.7,0,.96-.02.26-.02.51-.04.77-.08v6.07c-.32.03-.66.05-1.02.07-.37.02-.77.03-1.2.05s-.88.02-1.36.02h0Z"/>
      <path class="cls-1" d="m317.53,35.96c-2.48,0-4.71-.47-6.69-1.41-1.97-.94-3.54-2.38-4.7-4.32-1.16-1.94-1.75-4.38-1.75-7.31v-.96c0-2.8.56-5.12,1.67-6.98,1.11-1.84,2.63-3.24,4.56-4.18,1.93-.94,4.06-1.41,6.43-1.41,4.17,0,7.32,1.08,9.46,3.22,2.14,2.14,3.2,5.26,3.2,9.34v2.67h-17.77c.06,1.24.36,2.28.88,3.1.53.83,1.2,1.42,2.03,1.79.83.37,1.72.55,2.67.55,1.4,0,2.51-.22,3.32-.65s1.35-1.01,1.6-1.75h6.78c-.51,2.77-1.77,4.84-3.77,6.21-2.01,1.37-4.65,2.05-7.93,2.05h0Zm-.24-20.68c-.89,0-1.74.14-2.53.43-.8.29-1.44.76-1.93,1.41-.5.65-.78,1.54-.84,2.65h10.5c0-1.17-.24-2.09-.71-2.75-.47-.65-1.11-1.11-1.89-1.36s-1.65-.38-2.6-.38h0Zm-3.1-7.65l5.25-7.64h7.64l-7.16,7.64h-5.73,0Z"/>
      <path class="cls-1" d="m344.99,45.51c-2.74,0-4.93-.32-6.57-.96-1.64-.64-2.84-1.57-3.58-2.79-.75-1.23-1.19-2.65-1.32-4.27h7.49c.16.57.52,1.11,1.08,1.63s1.52.77,2.89.77c1.91,0,3.35-.44,4.32-1.32.97-.87,1.46-2.26,1.46-4.18v-2.72c-.86,1.24-1.93,2.19-3.22,2.84s-2.65.98-4.09.98c-2.2,0-4.12-.47-5.76-1.43-1.64-.96-2.9-2.37-3.8-4.25-.89-1.88-1.34-4.25-1.34-7.12v-.96c0-2.67.44-4.93,1.32-6.76.87-1.83,2.13-3.21,3.77-4.15,1.64-.94,3.57-1.41,5.8-1.41,1.97,0,3.62.42,4.94,1.26,1.32.84,2.3,1.78,2.93,2.79v-3.44h6.78v23.64c0,3.95-1.06,6.91-3.18,8.89-2.11,1.97-5.44,2.96-9.96,2.96h.02Zm.24-16.09c1.05,0,1.99-.24,2.82-.71.83-.47,1.49-1.17,1.98-2.08.5-.91.74-1.98.74-3.22v-2.39c0-1.21-.25-2.22-.74-3.03-.5-.81-1.15-1.43-1.98-1.87-.83-.43-1.77-.65-2.82-.65-1.5,0-2.72.52-3.68,1.55-.96,1.04-1.43,2.6-1.43,4.7v.96c0,2.2.48,3.87,1.46,5.02.97,1.14,2.19,1.72,3.66,1.72h0Z"/>
      <path class="cls-1" d="m362.91,35.34V10.03h6.78v3.44c.26-.57.68-1.17,1.29-1.81s1.34-1.17,2.2-1.6c.86-.43,1.81-.65,2.87-.65.54,0,.97.03,1.29.1.32.06.6.13.86.19v6.35c-.16-.1-.53-.2-1.1-.33-.57-.13-1.24-.19-2.01-.19-1.11,0-2.03.23-2.75.67-.71.44-1.24,1.05-1.57,1.81-.33.77-.5,1.63-.5,2.58v14.76h-7.35,0Z"/>
      <path class="cls-1" d="m388.69,35.96c-1.81,0-3.36-.35-4.66-1.05-1.29-.7-2.26-1.66-2.93-2.89-.67-1.23-1-2.59-1-4.09,0-2.51.78-4.44,2.32-5.78,1.54-1.34,3.88-2.01,7-2.01h7.16v-1.05c0-1.53-.36-2.58-1.08-3.15s-1.71-.86-2.99-.86-2.1.18-2.67.55-.9.96-.96,1.79h-7.35c.1-1.53.58-2.9,1.46-4.11.87-1.21,2.13-2.17,3.77-2.87,1.64-.7,3.63-1.05,5.99-1.05,2.23,0,4.18.33,5.88,1,1.69.67,3,1.75,3.94,3.22.94,1.48,1.41,3.46,1.41,5.94v9.32c0,1.34.03,2.51.1,3.51.06,1,.16,1.98.29,2.93h-7.02c-.03-.54-.07-1.02-.12-1.43-.05-.41-.08-.93-.08-1.53-.77,1.02-1.82,1.87-3.18,2.56s-3.12,1.02-5.27,1.02v.02Zm2.39-5.21c1.05,0,1.99-.19,2.81-.57s1.48-.96,1.96-1.75.71-1.66.71-2.65v-1.05h-5.73c-1.08,0-1.89.29-2.42.86s-.79,1.23-.79,1.96c0,.96.26,1.72.79,2.32.53.59,1.41.88,2.65.88h.02Z"/>
      <path class="cls-1" d="m408.52,35.34V10.03h6.92v3.63c.57-1.11,1.47-2.1,2.67-2.96,1.21-.86,2.71-1.29,4.49-1.29,2.01,0,3.56.38,4.66,1.14,1.1.77,1.9,1.8,2.42,3.1.64-1.21,1.63-2.22,2.96-3.03,1.34-.81,2.91-1.22,4.73-1.22,2.74,0,4.82.78,6.25,2.32,1.43,1.54,2.15,3.85,2.15,6.9v16.71h-7.35v-14.9c0-1.78-.28-3.05-.84-3.8-.56-.74-1.46-1.12-2.7-1.12-.73,0-1.41.2-2.03.59s-1.11.96-1.48,1.69-.55,1.61-.55,2.63v14.9h-7.35v-14.9c0-1.78-.28-3.05-.84-3.8-.56-.74-1.47-1.12-2.75-1.12-.73,0-1.4.2-2.01.59-.6.4-1.09.96-1.46,1.69s-.55,1.61-.55,2.63v14.9h-7.35v.02Z"/>
      <path class="cls-1" d="m450.3,35.34V10.03h6.92v3.63c.57-1.11,1.47-2.1,2.67-2.96,1.21-.86,2.71-1.29,4.49-1.29,2.01,0,3.56.38,4.66,1.14,1.1.77,1.9,1.8,2.42,3.1.64-1.21,1.63-2.22,2.96-3.03,1.34-.81,2.91-1.22,4.73-1.22,2.74,0,4.82.78,6.25,2.32,1.43,1.54,2.15,3.85,2.15,6.9v16.71h-7.35v-14.9c0-1.78-.28-3.05-.84-3.8-.56-.74-1.46-1.12-2.7-1.12-.73,0-1.41.2-2.03.59s-1.11.96-1.48,1.69-.55,1.61-.55,2.63v14.9h-7.35v-14.9c0-1.78-.28-3.05-.84-3.8-.56-.74-1.47-1.12-2.75-1.12-.73,0-1.4.2-2.01.59-.6.4-1.09.96-1.46,1.69s-.55,1.61-.55,2.63v14.9h-7.35v.02Z"/>
      <path class="cls-1" d="m504.27,35.96c-2.48,0-4.71-.47-6.69-1.41-1.97-.94-3.54-2.38-4.7-4.32-1.16-1.94-1.75-4.38-1.75-7.31v-.96c0-2.8.56-5.12,1.67-6.98,1.11-1.84,2.63-3.24,4.56-4.18s4.06-1.41,6.43-1.41c4.17,0,7.32,1.08,9.46,3.22s3.2,5.26,3.2,9.34v2.67h-17.77c.06,1.24.36,2.28.88,3.1.53.83,1.2,1.42,2.03,1.79.83.37,1.72.55,2.67.55,1.4,0,2.51-.22,3.32-.65s1.35-1.01,1.6-1.75h6.78c-.51,2.77-1.77,4.84-3.77,6.21-2.01,1.37-4.65,2.05-7.93,2.05h0Zm-.24-20.68c-.89,0-1.74.14-2.53.43-.8.29-1.44.76-1.93,1.41-.5.65-.78,1.54-.84,2.65h10.5c0-1.17-.24-2.09-.71-2.75-.47-.65-1.11-1.11-1.89-1.36-.78-.26-1.65-.38-2.6-.38h0Z"/>
      <path class="cls-1" d="m167.37,124.17l.66-73.62h16.52c3.73,0,6.73.74,8.97,2.23,2.24,1.49,3.86,3.65,4.85,6.46.99,2.81,1.47,6.22,1.44,10.2l-.26,33.21c-.05,4.82-.6,8.83-1.68,12.02-1.08,3.19-2.78,5.57-5.1,7.13-2.33,1.57-5.42,2.34-9.26,2.34h-16.15Zm11.29-8.7h3.68c1.31,0,2.41-.26,3.29-.8.88-.53,1.55-1.47,1.99-2.82.44-1.35.68-3.27.7-5.75l.29-36.34c.03-3.76-.4-6.47-1.31-8.11-.9-1.65-2.51-2.47-4.83-2.47h-3.3l-.5,56.3h0Z"/>
      <path class="cls-1" d="m209.53,124.17l.66-73.62h24.67l-.08,9.66h-13.47l-.19,21.42h12.8l-.08,9.45h-12.8l-.21,23.42h13.97l-.09,9.66h-25.18Z"/>
      <path class="cls-1" d="m256.41,125c-3.07,0-5.62-.48-7.66-1.44s-3.64-2.37-4.82-4.22c-1.17-1.85-1.99-4.12-2.47-6.77s-.7-5.7-.67-9.1l.06-6.57h10.63l-.07,7.4c-.04,3.96.27,6.8.93,8.53.65,1.73,1.97,2.6,3.95,2.6,1.34,0,2.35-.32,3.04-.94.69-.62,1.16-1.63,1.41-3.01.25-1.38.38-3.18.41-5.42.02-2.76-.53-5.28-1.67-7.57-1.14-2.29-2.87-4.66-5.18-7.11l-5.39-5.61c-1.49-1.57-2.84-3.22-4.03-4.98-1.2-1.75-2.14-3.72-2.84-5.88-.69-2.16-1.02-4.58-1-7.25.04-3.88.53-7.16,1.51-9.83.97-2.68,2.6-4.7,4.86-6.09,2.27-1.38,5.37-2.07,9.3-2.07,2.96,0,5.39.45,7.28,1.36,1.9.91,3.38,2.23,4.44,3.97,1.06,1.75,1.8,3.86,2.22,6.36s.62,5.35.59,8.56l-.04,4.56h-10.33l.05-5.27c.02-2.23-.08-4.09-.31-5.56-.23-1.47-.65-2.59-1.29-3.33-.63-.74-1.57-1.11-2.79-1.11s-2.12.26-2.85.78-1.26,1.31-1.59,2.39c-.33,1.08-.5,2.46-.52,4.16-.02,1.54.17,2.86.55,3.97.38,1.11.97,2.19,1.77,3.22.8,1.03,1.79,2.19,2.98,3.47l6,6.57c2.87,3.12,5.1,6.37,6.69,9.74,1.59,3.37,2.36,7.14,2.33,11.29-.04,4.41-.55,8.11-1.52,11.11-.98,2.99-2.58,5.27-4.83,6.79-2.24,1.54-5.29,2.3-9.14,2.3v-.02Z"/>
      <path class="cls-1" d="m308.35,125c-3.07,0-5.62-.48-7.66-1.44-2.04-.96-3.64-2.37-4.82-4.22-1.17-1.85-1.99-4.12-2.47-6.77-.47-2.66-.7-5.7-.67-9.1l.06-6.57h10.63l-.07,7.4c-.04,3.96.27,6.8.93,8.53.65,1.73,1.97,2.6,3.95,2.6,1.34,0,2.35-.32,3.04-.94.69-.62,1.16-1.63,1.41-3.01.25-1.38.38-3.18.41-5.42.02-2.76-.53-5.28-1.67-7.57-1.14-2.29-2.87-4.66-5.18-7.11l-5.39-5.61c-1.49-1.57-2.84-3.22-4.03-4.98-1.2-1.75-2.14-3.72-2.84-5.88-.69-2.16-1.02-4.58-1-7.25.04-3.88.53-7.16,1.51-9.83.97-2.68,2.6-4.7,4.86-6.09,2.27-1.38,5.37-2.07,9.3-2.07,2.96,0,5.39.45,7.28,1.36,1.9.91,3.38,2.23,4.44,3.97,1.06,1.75,1.8,3.86,2.22,6.36.42,2.5.62,5.35.59,8.56l-.04,4.56h-10.33l.05-5.27c.02-2.23-.08-4.09-.31-5.56-.23-1.47-.65-2.59-1.29-3.33-.63-.74-1.57-1.11-2.79-1.11s-2.12.26-2.85.78-1.26,1.31-1.59,2.39c-.33,1.08-.5,2.46-.52,4.16-.02,1.54.17,2.86.55,3.97.38,1.11.97,2.19,1.77,3.22.8,1.03,1.79,2.19,2.98,3.47l6,6.57c2.87,3.12,5.1,6.37,6.69,9.74,1.59,3.37,2.36,7.14,2.33,11.29-.04,4.41-.55,8.11-1.52,11.11-.98,2.99-2.58,5.27-4.83,6.79-2.24,1.54-5.29,2.3-9.14,2.3v-.02Z"/>
      <path class="cls-1" d="m346.62,125c-3.57,0-6.53-.82-8.89-2.47s-4.11-4.05-5.27-7.22c-1.16-3.17-1.72-6.99-1.68-11.48l.29-32.08c.03-3.37.34-6.41.92-9.12.58-2.7,1.51-5.02,2.78-6.95,1.27-1.93,2.96-3.4,5.06-4.43s4.68-1.55,7.75-1.55c2.79,0,5.16.45,7.12,1.36,1.96.91,3.55,2.21,4.78,3.91,1.23,1.7,2.11,3.75,2.66,6.17.55,2.42.81,5.12.78,8.13l-.09,10.12h-10.84l.08-9.41c.03-3.63-.25-6.3-.85-8.01-.6-1.71-1.81-2.57-3.66-2.57-2.04,0-3.4.93-4.1,2.78-.7,1.85-1.06,4.44-1.09,7.76l-.31,34.38c-.02,2.57.11,4.67.38,6.3s.76,2.83,1.45,3.6c.69.77,1.66,1.15,2.92,1.15,1.9,0,3.18-.9,3.88-2.68.69-1.78,1.05-4.61,1.08-8.49l.09-10.54h11l-.09,10.41c-.05,4.66-.62,8.54-1.74,11.65-1.11,3.11-2.86,5.43-5.23,6.96-2.37,1.54-5.44,2.3-9.2,2.3h0Z"/>
      <path class="cls-1" d="m387.53,125c-3.82,0-6.93-.81-9.32-2.42-2.4-1.62-4.15-4.02-5.27-7.19-1.11-3.18-1.65-7.11-1.61-11.79l.3-33.67c.04-4.24.62-7.86,1.77-10.87,1.14-3.01,2.93-5.33,5.37-6.95,2.44-1.62,5.63-2.42,9.56-2.42,2.96,0,5.45.46,7.47,1.38,2.02.92,3.66,2.25,4.9,4,1.24,1.75,2.13,3.86,2.69,6.36.55,2.5.81,5.34.78,8.51l-.3,33.67c-.05,4.69-.62,8.62-1.76,11.79-1.13,3.18-2.89,5.58-5.27,7.19s-5.49,2.42-9.31,2.42h0Zm.09-9.7c1.39,0,2.45-.42,3.15-1.26.71-.84,1.18-2.11,1.44-3.82.25-1.72.39-3.88.41-6.5l.31-34.3c.03-3.21-.25-5.68-.84-7.43-.59-1.75-1.87-2.61-3.85-2.61s-3.42.84-4.16,2.53-1.12,4.18-1.15,7.46l-.31,34.34c-.02,2.68.08,4.88.29,6.58.22,1.72.7,2.98,1.43,3.78.73.81,1.82,1.21,3.27,1.21h0Z"/>
      <path class="cls-1" d="m413.84,124.17l.66-73.62h18.53c3.85,0,6.71.75,8.59,2.26,1.88,1.5,3.11,3.71,3.69,6.61.57,2.9.84,6.44.81,10.63-.04,4.32-.5,7.71-1.41,10.18s-2.71,4.12-5.42,4.96c1.28.23,2.35.74,3.21,1.57.86.82,1.54,2.02,2.06,3.6.52,1.57.88,3.6,1.1,6.07.22,2.47.31,5.49.27,9.05,0,.28,0,1.06-.02,2.34-.02,1.29-.02,2.8-.02,4.54,0,1.75,0,3.48.02,5.21.02,1.73.04,3.21.08,4.43s.11,1.95.19,2.17h-11.21c-.08-.14-.14-.86-.17-2.15-.03-1.29-.06-2.95-.08-4.96-.02-2.01-.03-4.17-.02-6.49,0-2.32.02-4.59.04-6.84.02-2.24.04-4.23.05-5.96.02-2.2-.13-3.87-.44-5s-.89-1.92-1.74-2.36-2.06-.71-3.65-.8l-3.6-.21-.31,34.76h-11.21v.02Zm11.64-43.46h4.48c1.36,0,2.41-.31,3.12-.92s1.21-1.75,1.5-3.39c.28-1.65.44-4.02.46-7.11v-.46c.03-2.6-.08-4.58-.32-5.98-.24-1.39-.75-2.36-1.54-2.89-.79-.53-2.02-.8-3.69-.8h-3.81l-.2,21.54h0Z"/>
      <path class="cls-1" d="m455.3,124.17l.66-73.62h24.67l-.08,9.66h-13.47l-.19,21.42h12.8l-.08,9.45h-12.8l-.21,23.42h13.97l-.09,9.66h-25.18,0Z"/>
      <path class="cls-1" d="m502.18,125c-3.07,0-5.62-.48-7.66-1.44s-3.64-2.37-4.82-4.22c-1.17-1.85-1.99-4.12-2.47-6.77-.47-2.66-.7-5.7-.67-9.1l.06-6.57h10.63l-.07,7.4c-.04,3.96.27,6.8.93,8.53.65,1.73,1.97,2.6,3.95,2.6,1.34,0,2.35-.32,3.04-.94s1.16-1.63,1.41-3.01c.25-1.38.38-3.18.41-5.42.02-2.76-.53-5.28-1.67-7.57-1.14-2.29-2.87-4.66-5.18-7.11l-5.39-5.61c-1.49-1.57-2.84-3.22-4.03-4.98-1.2-1.75-2.14-3.72-2.84-5.88-.69-2.16-1.02-4.58-1-7.25.04-3.88.53-7.16,1.51-9.83.97-2.68,2.6-4.7,4.86-6.09,2.27-1.38,5.37-2.07,9.3-2.07,2.96,0,5.39.45,7.28,1.36,1.9.91,3.38,2.23,4.44,3.97,1.06,1.75,1.8,3.86,2.22,6.36s.62,5.35.59,8.56l-.04,4.56h-10.33l.05-5.27c.02-2.23-.08-4.09-.31-5.56-.23-1.47-.65-2.59-1.29-3.33-.63-.74-1.57-1.11-2.79-1.11s-2.12.26-2.85.78-1.26,1.31-1.59,2.39-.5,2.46-.52,4.16c-.02,1.54.17,2.86.55,3.97.38,1.11.97,2.19,1.77,3.22.8,1.03,1.79,2.19,2.98,3.47l6,6.57c2.87,3.12,5.1,6.37,6.69,9.74,1.59,3.37,2.36,7.14,2.33,11.29-.04,4.41-.55,8.11-1.52,11.11-.98,2.99-2.58,5.27-4.83,6.79-2.24,1.54-5.29,2.3-9.14,2.3v-.02Z"/>
      <polygon class="cls-1" points="67.46 39.22 0 39.22 .08 12.54 67.54 12.54 67.46 39.22"/>
      <polygon class="cls-1" points="111.86 78.94 .59 78.94 .67 52.26 111.95 52.26 111.86 78.94"/>
      <polygon class="cls-1" points="77.86 118.67 34.3 118.67 34.39 91.99 77.95 91.99 77.86 118.67"/>
      <circle class="cls-1" cx="95.54" cy="25.97" r="16.25"/>
    </g>
  </g>
</svg>