<?xml version="1.0" encoding="UTF-8"?><svg id="Calque_2" xmlns="http://www.w3.org/2000/svg" viewBox="0 0 129.71 129.71"><defs><style>
.cls-1{fill:none;stroke:#ffffff;stroke-miterlimit:10;stroke-width:7px;}
.cls-2{fill:#f00000;stroke-width:0px;}</style></defs><g id="Calque_1-2"><g id="_Répétition_radiale_"><path class="cls-1" d="M82.15,60.59c28.4-11.22,45.38,20.52,34.48,37.24-2.86,4.4-9.41,14.13-25.59,5.87-26.31-13.42-6.06-40.05,13.61-19.12"/></g><g id="_Répétition_radiale_-2"><path class="cls-1" d="M59.91,81.97c-4.48,30.21-40.46,29.04-49.49,11.24-2.37-4.68-7.53-15.22,7.71-25.1,24.78-16.07,37.71,14.78,9.75,21.34"/></g><g id="_Répétition_radiale_-3"><path class="cls-1" d="M52.51,52.01C28.59,33.03,47.59,2.45,67.52,3.53c5.24.28,16.94,1.09,17.89,19.23,1.53,29.5-31.65,25.27-23.36-2.22"/></g><circle class="cls-2" cx="64.72" cy="63.67" r="9.38"/></g></svg>