<?xml version="1.0" encoding="UTF-8"?>
<svg id="Calque_2" data-name="Calque 2" xmlns="http://www.w3.org/2000/svg" viewBox="0 0 82.71 50.12">
  <defs>
    <style>
      .cls-1 {
        fill: #fff;
      }

      .cls-2 {
        fill: #f00000;
      }
    </style>
  </defs>
  <g id="Calque_1-2" data-name="Calque 1">
    <g id="Calque_1-2" data-name="Calque 1-2">
      <path class="cls-2" d="m58.06,50.12H24.64c0-3.95,1.37-7.58,3.67-10.44.09-.12.18-.23.28-.34,1.64-1.94,3.72-3.5,6.08-4.53,2.05-.9,4.31-1.39,6.68-1.39s4.64.49,6.69,1.39c2.36,1.03,4.43,2.59,6.07,4.53.1.11.19.22.28.34,2.3,2.86,3.67,6.49,3.67,10.44Z"/>
      <path class="cls-2" d="m82.71,0c0,3.11-.34,6.14-1,9.05-.37,1.66-.84,3.29-1.41,4.87-.95,2.69-2.19,5.26-3.66,7.66-1.05,1.71-2.22,3.34-3.51,4.87-2.69,3.24-5.88,6.06-9.45,8.35-2.95,1.9-6.17,3.43-9.57,4.53-.36.13-.72.24-1.09.34-3.7,1.09-7.62,1.67-11.67,1.67s-7.97-.58-11.67-1.67c-.37-.1-.73-.22-1.09-.34-3.4-1.1-6.62-2.63-9.57-4.53-3.56-2.29-6.75-5.11-9.44-8.35-1.29-1.53-2.46-3.16-3.51-4.87-1.47-2.4-2.71-4.96-3.66-7.66-.57-1.58-1.04-3.21-1.41-4.87C.34,6.14,0,3.11,0,0h82.71,0Z"/>
      <path class="cls-1" d="m81.72,9.05c-.37,1.66-.84,3.29-1.41,4.87H2.41c-.57-1.58-1.04-3.21-1.41-4.87h80.72Z"/>
      <path class="cls-1" d="m76.64,21.58c-1.05,1.71-2.22,3.34-3.51,4.87H9.58c-1.29-1.53-2.46-3.16-3.51-4.87h70.57,0Z"/>
      <path class="cls-1" d="m54.11,39.34c.1.11.19.22.28.34h-26.08c.09-.12.18-.23.28-.34-3.4-1.1-6.62-2.63-9.57-4.53h44.67c-2.95,1.9-6.17,3.43-9.57,4.53Z"/>
    </g>
  </g>
</svg>