<?xml version="1.0" encoding="UTF-8"?><svg id="Calque_2" xmlns="http://www.w3.org/2000/svg" xmlns:xlink="http://www.w3.org/1999/xlink" viewBox="0 0 197.11 197.11"><defs><style>.cls-1{clip-path:url(#clippath);}.cls-2,.cls-3{fill:#ffca41;}.cls-4{fill:#120959;}.cls-4,.cls-3,.cls-5,.cls-6{stroke-width:0px;}.cls-5{fill:#fffaec;}.cls-6{fill:#00ecb8;}</style><clipPath id="clippath"><circle class="cls-3" cx="98.55" cy="98.55" r="98.53" transform="translate(-24.57 163.87) rotate(-72.94)"/></clipPath></defs><g id="Calque_1-2"><circle class="cls-2" cx="98.55" cy="98.55" r="98.53" transform="translate(-24.57 163.87) rotate(-72.94)"/><g class="cls-1"><rect class="cls-4" x="1.55" y="-51.82" width="31.49" height="145.67" transform="translate(-8.23 30.45) rotate(-70.82)"/><rect class="cls-6" x="-10.25" y="-19.18" width="31.49" height="145.67" transform="translate(-46.99 41.22) rotate(-70.82)"/><rect class="cls-5" x="-21.1" y="14.66" width="31.49" height="145.67" transform="translate(-86.24 53.69) rotate(-70.82)"/><rect class="cls-4" x="125.42" y="69.61" width="145.67" height="31.49" transform="translate(-17.52 79.6) rotate(-21.77)"/><rect class="cls-6" x="112.93" y="37.22" width="145.67" height="31.49" transform="translate(-6.4 72.66) rotate(-21.77)"/><rect class="cls-5" x="98.95" y="4.55" width="145.67" height="31.49" transform="translate(4.72 65.15) rotate(-21.77)"/><rect class="cls-4" x="-9.21" y="191.81" width="145.67" height="31.5" transform="translate(-144.22 270.26) rotate(-89.75)"/><rect class="cls-6" x="25.5" y="192.38" width="145.67" height="31.5" transform="translate(-110.23 305.54) rotate(-89.75)"/><rect class="cls-5" x="61.03" y="191.67" width="145.67" height="31.5" transform="translate(-74.14 340.37) rotate(-89.75)"/></g></g></svg>