<svg width="396" height="125" viewBox="0 0 396 125" fill="none" xmlns="http://www.w3.org/2000/svg">
    <g clip-path="url(#clip0_396_430)">
        <path d="M35.4 10.29C35.42 10.12 35.44 9.94003 35.44 9.76003C35.44 5.96003 31.33 2.87003 26.25 2.87003C25.8 2.87003 25.35 2.90003 24.92 2.95003C23.25 1.77003 20.94 1.03003 18.38 1.03003C13.31 1.03003 10.59 3.07003 9.11 6.40003C8.71 7.30003 8.69 9.07003 9.31 9.93003C8.78 9.85003 6.78 10.12 6.23 10.22C3.38 10.71 0 13.08 0 16.63C0 20.18 2.07 22.04 7.13 22.97C8.56 23.23 11.39 22.77 12.6 22.28C20.89 25.04 28.41 21.66 28.41 21.66C29.98 22.53 31.96 23.06 34.12 23.06C39.19 23.06 43.31 20.18 43.31 16.63C43.31 13.38 39.87 10.71 35.4 10.27V10.29Z" fill="#EEBCB5"/>
        <path d="M367.97 16.08C367.98 15.89 368 15.7 368 15.5C368 11.36 364.87 8 361 8C358.45 8 356.23 9.46 355.01 11.64C354.12 11.23 353.14 11 352.1 11C348.78 11 346 13.32 345.28 16.43C342.79 17.41 341 19.98 341 23C341 26.87 343.91 30 347.5 30C348.28 30 350.16 30.28 350.85 30C356.37 31.32 356.26 29.52 358.57 30C360.32 30.36 363.05 30.89 365.28 29.78C365.83 29.92 366.41 30 367.01 30C370.88 30 374.01 26.87 374.01 23C374.01 19.47 371.39 16.55 367.98 16.08H367.97Z" fill="#EEBCB5"/>
        <path d="M346.39 0H73.1801V124.52H346.39V0Z" fill="#EEBCB5"/>
        <path d="M359.93 124.52H346.39V0L359.93 14.03V124.52Z" fill="#7D7DB5"/>
        <path d="M346.39 15.29H73.1801V33.81H346.39V15.29Z" fill="#7D7DB5"/>
        <path d="M346.39 49.8H73.1801V68.32H346.39V49.8Z" fill="#7D7DB5"/>
        <path d="M359.93 38.06L346.39 33.82V15.29L359.93 23.07V38.06Z" fill="#505187"/>
        <path d="M359.93 70.12L346.39 68.32V49.8L359.93 52.91V70.12Z" fill="#505187"/>
        <path d="M290.09 16.26H273.9V32.84H290.09V16.26Z" fill="#505187"/>
        <path d="M290.09 19.79H277.85V32.85H290.09V19.79Z" fill="#31356B"/>
        <path d="M270.29 16.26H254.1V32.84H270.29V16.26Z" fill="#505187"/>
        <path d="M270.29 19.79H258.05V32.85H270.29V19.79Z" fill="#31356B"/>
        <path d="M170.5 16.26H154.31V32.84H170.5V16.26Z" fill="#505187"/>
        <path d="M170.5 19.79H158.26V32.85H170.5V19.79Z" fill="#31356B"/>
        <path d="M150.57 16.26H134.38V32.84H150.57V16.26Z" fill="#505187"/>
        <path d="M150.57 19.79H138.33V32.85H150.57V19.79Z" fill="#31356B"/>
        <path d="M130.77 16.26H114.58V32.84H130.77V16.26Z" fill="#505187"/>
        <path d="M130.77 19.79H118.53V32.85H130.77V19.79Z" fill="#31356B"/>
        <path d="M230.43 16.26H214.24V32.84H230.43V16.26Z" fill="#505187"/>
        <path d="M230.43 19.79H218.19V32.85H230.43V19.79Z" fill="#31356B"/>
        <path d="M210.51 16.26H194.32V32.84H210.51V16.26Z" fill="#505187"/>
        <path d="M210.51 19.79H198.27V32.85H210.51V19.79Z" fill="#31356B"/>
        <path d="M190.55 16.26H174.36V32.84H190.55V16.26Z" fill="#505187"/>
        <path d="M190.55 19.79H178.31V32.85H190.55V19.79Z" fill="#31356B"/>
        <path d="M250.37 16.26H234.18V32.84H250.37V16.26Z" fill="#505187"/>
        <path d="M250.37 19.79H238.13V32.85H250.37V19.79Z" fill="#31356B"/>
        <path d="M110.08 16.26H93.89V32.84H110.08V16.26Z" fill="#505187"/>
        <path d="M110.08 19.79H97.84V32.85H110.08V19.79Z" fill="#31356B"/>
        <path d="M90.16 16.26H73.97V32.84H90.16V16.26Z" fill="#505187"/>
        <path d="M90.16 19.79H77.92V32.85H90.16V19.79Z" fill="#31356B"/>
        <path d="M289.37 50.81H273.18V67.39H289.37V50.81Z" fill="#505187"/>
        <path d="M289.37 54.34H277.13V67.4H289.37V54.34Z" fill="#31356B"/>
        <path d="M346.39 84.34H72.83V102.86H346.39V84.34Z" fill="#7D7DB5"/>
        <path d="M359.93 102.86H346.39V84.34L359.93 86.06V102.86Z" fill="#505187"/>
        <path d="M301.71 85.31H285.52V101.89H301.71V85.31Z" fill="#505187"/>
        <path d="M301.71 88.84H289.47V101.9H301.71V88.84Z" fill="#31356B"/>
        <path d="M281.76 85.31H265.57V101.89H281.76V85.31Z" fill="#505187"/>
        <path d="M281.76 88.84H269.52V101.9H281.76V88.84Z" fill="#31356B"/>
        <path d="M265.92 36.6H30.87V124.47H265.92V36.6Z" fill="#EEBCB5"/>
        <path d="M277.74 124.47H265.92V36.6L277.74 47.79V124.47Z" fill="#7D7DB5"/>
        <path d="M265.92 51.9H30.87V70.42H265.92V51.9Z" fill="#7D7DB5"/>
        <path d="M265.92 86.4H30.87V104.92H265.92V86.4Z" fill="#7D7DB5"/>
        <path d="M262.19 52.87H246V69.45H262.19V52.87Z" fill="#505187"/>
        <path d="M277.74 72.29L265.92 70.42V51.9L277.74 56.39V72.29Z" fill="#505187"/>
        <path d="M277.74 104.92H265.92V86.4L277.74 88.12V104.92Z" fill="#505187"/>
        <path d="M262.19 56.39H249.95V69.45H262.19V56.39Z" fill="#31356B"/>
        <path d="M242.27 52.87H226.08V69.45H242.27V52.87Z" fill="#505187"/>
        <path d="M242.27 56.39H230.03V69.45H242.27V56.39Z" fill="#31356B"/>
        <path d="M222.47 52.87H206.28V69.45H222.47V52.87Z" fill="#505187"/>
        <path d="M222.47 56.39H210.23V69.45H222.47V56.39Z" fill="#31356B"/>
        <path d="M90.03 52.87H73.84V69.45H90.03V52.87Z" fill="#505187"/>
        <path d="M90.03 56.39H77.79V69.45H90.03V56.39Z" fill="#31356B"/>
        <path d="M70.11 52.87H53.92V69.45H70.11V52.87Z" fill="#505187"/>
        <path d="M70.11 56.39H57.87V69.45H70.11V56.39Z" fill="#31356B"/>
        <path d="M50.31 52.87H34.12V69.45H50.31V52.87Z" fill="#505187"/>
        <path d="M50.3099 56.39H38.0699V69.45H50.3099V56.39Z" fill="#31356B"/>
        <path d="M166.16 52.87H149.97V69.45H166.16V52.87Z" fill="#505187"/>
        <path d="M166.16 56.39H153.92V69.45H166.16V56.39Z" fill="#31356B"/>
        <path d="M146.23 52.87H130.04V69.45H146.23V52.87Z" fill="#505187"/>
        <path d="M146.24 56.39H134V69.45H146.24V56.39Z" fill="#31356B"/>
        <path d="M122.32 52.87H106.13V69.45H122.32V52.87Z" fill="#505187"/>
        <path d="M122.33 56.39H110.09V69.45H122.33V56.39Z" fill="#31356B"/>
        <path d="M189.85 52.87H173.66V69.45H189.85V52.87Z" fill="#505187"/>
        <path d="M189.85 56.39H177.61V69.45H189.85V56.39Z" fill="#31356B"/>
        <path d="M261.31 87.37H245.12V103.95H261.31V87.37Z" fill="#505187"/>
        <path d="M261.31 90.9H249.07V103.96H261.31V90.9Z" fill="#31356B"/>
        <path d="M241.39 87.37H225.2V103.95H241.39V87.37Z" fill="#505187"/>
        <path d="M241.39 90.9H229.15V103.96H241.39V90.9Z" fill="#31356B"/>
        <path d="M221.59 87.37H205.4V103.95H221.59V87.37Z" fill="#505187"/>
        <path d="M221.59 90.9H209.35V103.96H221.59V90.9Z" fill="#31356B"/>
        <path d="M89.15 87.37H72.96V103.95H89.15V87.37Z" fill="#505187"/>
        <path d="M89.15 90.9H76.91V103.96H89.15V90.9Z" fill="#31356B"/>
        <path d="M69.23 87.37H53.04V103.95H69.23V87.37Z" fill="#505187"/>
        <path d="M69.23 90.9H56.99V103.96H69.23V90.9Z" fill="#31356B"/>
        <path d="M49.43 87.37H33.24V103.95H49.43V87.37Z" fill="#505187"/>
        <path d="M49.4299 90.9H37.1899V103.96H49.4299V90.9Z" fill="#31356B"/>
        <path d="M165.28 87.37H149.09V103.95H165.28V87.37Z" fill="#505187"/>
        <path d="M165.28 90.9H153.04V103.96H165.28V90.9Z" fill="#31356B"/>
        <path d="M145.36 87.37H129.17V103.95H145.36V87.37Z" fill="#505187"/>
        <path d="M145.36 90.9H133.12V103.96H145.36V90.9Z" fill="#31356B"/>
        <path d="M121.45 87.37H105.26V103.95H121.45V87.37Z" fill="#505187"/>
        <path d="M121.45 90.9H109.21V103.96H121.45V90.9Z" fill="#31356B"/>
        <path d="M188.97 87.37H172.78V103.95H188.97V87.37Z" fill="#505187"/>
        <path d="M188.97 90.9H176.73V103.96H188.97V90.9Z" fill="#31356B"/>
        <path d="M50.38 124.49L50.74 72.48" stroke="#AA2E33" stroke-width="2.5" stroke-miterlimit="10"/>
        <path d="M53.7601 72.48H47.7801L46.0601 62.72H55.4101L53.7601 72.48Z" fill="#EBCCBC"/>
        <path d="M45.66 62.72H55.81" stroke="#AA2E33" stroke-width="2.5" stroke-miterlimit="10" stroke-linecap="round"/>
        <path d="M381.38 99.73C389.095 99.73 395.35 87.5208 395.35 72.46C395.35 57.3992 389.095 45.19 381.38 45.19C373.665 45.19 367.41 57.3992 367.41 72.46C367.41 87.5208 373.665 99.73 381.38 99.73Z" fill="#D74F50"/>
        <path d="M381.38 62.18L382.38 124.36H380.38L381.38 62.18Z" fill="#EBCCBC"/>
        <path d="M367.02 108.21C373.482 108.21 378.72 100.205 378.72 90.33C378.72 80.4552 373.482 72.45 367.02 72.45C360.558 72.45 355.32 80.4552 355.32 90.33C355.32 100.205 360.558 108.21 367.02 108.21Z" fill="#E69973"/>
        <path d="M367.02 83.59L368.02 124.36H366.02L367.02 83.59Z" fill="#EBCCBC"/>
        <path d="M338.13 115.06H337.2V124.36H338.13V115.06Z" fill="#7C2224"/>
        <path d="M372.13 115.06H371.2V124.36H372.13V115.06Z" fill="#7C2224"/>
        <path d="M374.23 109.51H335.15V115.84H374.23V109.51Z" fill="#D74F50"/>
        <path d="M374.23 117.99H335.15V119.76H374.23V117.99Z" fill="#D74F50"/>
    </g>
    <defs>
        <clipPath id="clip0_396_430">
            <rect width="395.35" height="124.52" fill="white"/>
        </clipPath>
    </defs>
</svg>
    