<svg width="436" height="128" viewBox="0 0 436 128" fill="none" xmlns="http://www.w3.org/2000/svg">
    <g clip-path="url(#clip0_452_889)">
        <path d="M58.8 10.29C58.82 10.12 58.84 9.94 58.84 9.76C58.84 5.96 54.73 2.87 49.65 2.87C49.2 2.87 48.75 2.9 48.32 2.95C46.65 1.77 44.34 1.03 41.78 1.03C36.71 1.03 33.99 3.07 32.51 6.4C32.11 7.3 32.09 9.07 32.71 9.93C32.18 9.85 30.18 10.12 29.63 10.22C26.78 10.71 23.4 13.08 23.4 16.63C23.4 20.18 25.47 22.04 30.53 22.97C31.96 23.23 34.79 22.77 36 22.28C44.29 25.04 51.81 21.66 51.81 21.66C53.38 22.53 55.36 23.06 57.52 23.06C62.59 23.06 66.71 20.18 66.71 16.63C66.71 13.38 63.27 10.71 58.8 10.27V10.29Z" fill="#EEBCB5"/>
        <path d="M386.86 9.04001C386.87 8.85001 386.89 8.66001 386.89 8.46001C386.89 4.32001 383.76 0.960007 379.89 0.960007C377.34 0.960007 375.12 2.42001 373.9 4.60001C373.01 4.19001 372.03 3.96001 370.99 3.96001C367.67 3.96001 364.89 6.28001 364.17 9.39001C361.68 10.37 359.89 12.94 359.89 15.96C359.89 19.83 362.8 22.96 366.39 22.96C367.17 22.96 369.05 23.24 369.74 22.96C375.26 24.28 375.15 22.48 377.46 22.96C379.21 23.32 381.94 23.85 384.17 22.74C384.72 22.88 385.3 22.96 385.9 22.96C389.77 22.96 392.9 19.83 392.9 15.96C392.9 12.43 390.28 9.51001 386.87 9.04001H386.86Z" fill="#EEBCB5"/>
        <path d="M369.79 0H96.58V124.52H369.79V0Z" fill="#EEBCB5"/>
        <path d="M383.33 124.52H369.79V0L383.33 14.03V124.52Z" fill="#7D7DB5"/>
        <path d="M369.79 15.29H96.58V33.81H369.79V15.29Z" fill="#7D7DB5"/>
        <path d="M369.79 49.8H96.58V68.32H369.79V49.8Z" fill="#7D7DB5"/>
        <path d="M383.33 38.06L369.79 33.82V15.29L383.33 23.07V38.06Z" fill="#505187"/>
        <path d="M383.33 70.12L369.79 68.32V49.8L383.33 52.91V70.12Z" fill="#505187"/>
        <path d="M313.48 16.26H297.29V32.84H313.48V16.26Z" fill="#505187"/>
        <path d="M313.48 19.79H301.24V32.85H313.48V19.79Z" fill="#31356B"/>
        <path d="M293.68 16.26H277.49V32.84H293.68V16.26Z" fill="#505187"/>
        <path d="M293.68 19.79H281.44V32.85H293.68V19.79Z" fill="#31356B"/>
        <path d="M193.89 16.26H177.7V32.84H193.89V16.26Z" fill="#505187"/>
        <path d="M193.89 19.79H181.65V32.85H193.89V19.79Z" fill="#31356B"/>
        <path d="M173.97 16.26H157.78V32.84H173.97V16.26Z" fill="#505187"/>
        <path d="M173.97 19.79H161.73V32.85H173.97V19.79Z" fill="#31356B"/>
        <path d="M154.17 16.26H137.98V32.84H154.17V16.26Z" fill="#505187"/>
        <path d="M154.17 19.79H141.93V32.85H154.17V19.79Z" fill="#31356B"/>
        <path d="M253.83 16.26H237.64V32.84H253.83V16.26Z" fill="#505187"/>
        <path d="M253.83 19.79H241.59V32.85H253.83V19.79Z" fill="#31356B"/>
        <path d="M233.9 16.26H217.71V32.84H233.9V16.26Z" fill="#505187"/>
        <path d="M233.91 19.79H221.67V32.85H233.91V19.79Z" fill="#31356B"/>
        <path d="M213.95 16.26H197.76V32.84H213.95V16.26Z" fill="#505187"/>
        <path d="M213.95 19.79H201.71V32.85H213.95V19.79Z" fill="#31356B"/>
        <path d="M273.77 16.26H257.58V32.84H273.77V16.26Z" fill="#505187"/>
        <path d="M273.77 19.79H261.53V32.85H273.77V19.79Z" fill="#31356B"/>
        <path d="M133.48 16.26H117.29V32.84H133.48V16.26Z" fill="#505187"/>
        <path d="M133.48 19.79H121.24V32.85H133.48V19.79Z" fill="#31356B"/>
        <path d="M113.56 16.26H97.37V32.84H113.56V16.26Z" fill="#505187"/>
        <path d="M113.56 19.79H101.32V32.85H113.56V19.79Z" fill="#31356B"/>
        <path d="M312.77 50.81H296.58V67.39H312.77V50.81Z" fill="#505187"/>
        <path d="M312.77 54.34H300.53V67.4H312.77V54.34Z" fill="#31356B"/>
        <path d="M369.79 84.34H96.23V102.86H369.79V84.34Z" fill="#7D7DB5"/>
        <path d="M383.33 102.86H369.79V84.34L383.33 86.06V102.86Z" fill="#505187"/>
        <path d="M325.1 85.31H308.91V101.89H325.1V85.31Z" fill="#505187"/>
        <path d="M325.11 88.84H312.87V101.9H325.11V88.84Z" fill="#31356B"/>
        <path d="M305.16 85.31H288.97V101.89H305.16V85.31Z" fill="#505187"/>
        <path d="M305.16 88.84H292.92V101.9H305.16V88.84Z" fill="#31356B"/>
        <path d="M289.32 36.6H54.27V124.47H289.32V36.6Z" fill="#EEBCB5"/>
        <path d="M301.14 124.47H289.32V36.6L301.14 47.79V124.47Z" fill="#7D7DB5"/>
        <path d="M289.32 51.9H54.27V70.42H289.32V51.9Z" fill="#7D7DB5"/>
        <path d="M289.32 86.4H54.27V104.92H289.32V86.4Z" fill="#7D7DB5"/>
        <path d="M285.59 52.87H269.4V69.45H285.59V52.87Z" fill="#505187"/>
        <path d="M301.14 72.29L289.32 70.42V51.9L301.14 56.39V72.29Z" fill="#505187"/>
        <path d="M301.14 104.92H289.32V86.4L301.14 88.12V104.92Z" fill="#505187"/>
        <path d="M285.59 56.39H273.35V69.45H285.59V56.39Z" fill="#31356B"/>
        <path d="M265.66 52.87H249.47V69.45H265.66V52.87Z" fill="#505187"/>
        <path d="M265.66 56.39H253.42V69.45H265.66V56.39Z" fill="#31356B"/>
        <path d="M245.86 52.87H229.67V69.45H245.86V52.87Z" fill="#505187"/>
        <path d="M245.86 56.39H233.62V69.45H245.86V56.39Z" fill="#31356B"/>
        <path d="M113.42 52.87H97.23V69.45H113.42V52.87Z" fill="#505187"/>
        <path d="M113.43 56.39H101.19V69.45H113.43V56.39Z" fill="#31356B"/>
        <path d="M93.5001 52.87H77.3101V69.45H93.5001V52.87Z" fill="#505187"/>
        <path d="M93.5 56.39H81.26V69.45H93.5V56.39Z" fill="#31356B"/>
        <path d="M73.7 52.87H57.51V69.45H73.7V52.87Z" fill="#505187"/>
        <path d="M73.7 56.39H61.46V69.45H73.7V56.39Z" fill="#31356B"/>
        <path d="M189.55 52.87H173.36V69.45H189.55V52.87Z" fill="#505187"/>
        <path d="M189.56 56.39H177.32V69.45H189.56V56.39Z" fill="#31356B"/>
        <path d="M169.63 52.87H153.44V69.45H169.63V52.87Z" fill="#505187"/>
        <path d="M169.63 56.39H157.39V69.45H169.63V56.39Z" fill="#31356B"/>
        <path d="M145.72 52.87H129.53V69.45H145.72V52.87Z" fill="#505187"/>
        <path d="M145.72 56.39H133.48V69.45H145.72V56.39Z" fill="#31356B"/>
        <path d="M213.24 52.87H197.05V69.45H213.24V52.87Z" fill="#505187"/>
        <path d="M213.25 56.39H201.01V69.45H213.25V56.39Z" fill="#31356B"/>
        <path d="M284.71 87.37H268.52V103.95H284.71V87.37Z" fill="#505187"/>
        <path d="M284.71 90.9H272.47V103.96H284.71V90.9Z" fill="#31356B"/>
        <path d="M264.78 87.37H248.59V103.95H264.78V87.37Z" fill="#505187"/>
        <path d="M264.79 90.9H252.55V103.96H264.79V90.9Z" fill="#31356B"/>
        <path d="M244.98 87.37H228.79V103.95H244.98V87.37Z" fill="#505187"/>
        <path d="M244.99 90.9H232.75V103.96H244.99V90.9Z" fill="#31356B"/>
        <path d="M112.55 87.37H96.36V103.95H112.55V87.37Z" fill="#505187"/>
        <path d="M112.55 90.9H100.31V103.96H112.55V90.9Z" fill="#31356B"/>
        <path d="M92.6201 87.37H76.4301V103.95H92.6201V87.37Z" fill="#505187"/>
        <path d="M92.63 90.9H80.39V103.96H92.63V90.9Z" fill="#31356B"/>
        <path d="M72.82 87.37H56.63V103.95H72.82V87.37Z" fill="#505187"/>
        <path d="M72.83 90.9H60.59V103.96H72.83V90.9Z" fill="#31356B"/>
        <path d="M188.68 87.37H172.49V103.95H188.68V87.37Z" fill="#505187"/>
        <path d="M188.68 90.9H176.44V103.96H188.68V90.9Z" fill="#31356B"/>
        <path d="M168.75 87.37H152.56V103.95H168.75V87.37Z" fill="#505187"/>
        <path d="M168.75 90.9H156.51V103.96H168.75V90.9Z" fill="#31356B"/>
        <path d="M144.84 87.37H128.65V103.95H144.84V87.37Z" fill="#505187"/>
        <path d="M144.84 90.9H132.6V103.96H144.84V90.9Z" fill="#31356B"/>
        <path d="M212.36 87.37H196.17V103.95H212.36V87.37Z" fill="#505187"/>
        <path d="M212.37 90.9H200.13V103.96H212.37V90.9Z" fill="#31356B"/>
        <path d="M73.78 124.49L74.14 72.48" stroke="#AA2E33" stroke-width="2.5" stroke-miterlimit="10"/>
        <path d="M77.15 72.48H71.18L69.45 62.72H78.81L77.15 72.48Z" fill="#EBCCBC"/>
        <path d="M69.05 62.72H79.21" stroke="#AA2E33" stroke-width="2.5" stroke-miterlimit="10" stroke-linecap="round"/>
        <path d="M404.78 99.73C412.495 99.73 418.75 87.5208 418.75 72.46C418.75 57.3992 412.495 45.19 404.78 45.19C397.065 45.19 390.81 57.3992 390.81 72.46C390.81 87.5208 397.065 99.73 404.78 99.73Z" fill="#D74F50"/>
        <path d="M404.78 62.18L405.78 124.36H403.78L404.78 62.18Z" fill="#EBCCBC"/>
        <path d="M390.42 108.21C396.882 108.21 402.12 100.205 402.12 90.33C402.12 80.4552 396.882 72.45 390.42 72.45C383.958 72.45 378.72 80.4552 378.72 90.33C378.72 100.205 383.958 108.21 390.42 108.21Z" fill="#E69973"/>
        <path d="M390.42 83.59L391.42 124.36H389.42L390.42 83.59Z" fill="#EBCCBC"/>
        <path d="M361.52 115.06H360.59V124.36H361.52V115.06Z" fill="#7C2224"/>
        <path d="M395.53 115.06H394.6V124.36H395.53V115.06Z" fill="#7C2224"/>
        <path d="M397.63 109.51H358.55V115.84H397.63V109.51Z" fill="#D74F50"/>
        <path d="M397.63 117.99H358.55V119.76H397.63V117.99Z" fill="#D74F50"/>
        <path d="M0 125.93H435.43" stroke="#505187" stroke-width="3"/>
    </g>
    <defs>
        <clipPath id="clip0_452_889">
            <rect width="435.43" height="127.43" fill="white"/>
        </clipPath>
    </defs>
</svg>
    