<svg width="381" height="153" viewBox="0 0 381 153" fill="none" xmlns="http://www.w3.org/2000/svg">
    <g clip-path="url(#clip0_396_782)">
        <path d="M354.11 39.91C354.13 39.72 354.14 39.53 354.14 39.33C354.14 35.19 350.49 31.83 345.98 31.83C345.58 31.83 345.18 31.87 344.8 31.92C343.32 30.63 341.27 29.83 338.99 29.83C334.49 29.83 332.08 32.05 330.76 35.68C330.4 36.66 330.39 38.59 330.94 39.53C330.47 39.45 328.7 39.74 328.21 39.84C325.68 40.38 322.68 42.96 322.68 46.83C322.68 50.7 324.52 52.73 329.01 53.74C330.28 54.02 332.79 53.53 333.87 52.99C341.23 56 347.9 52.31 347.9 52.31C349.29 53.26 351.05 53.83 352.97 53.83C357.47 53.83 361.13 50.7 361.13 46.83C361.13 43.3 358.07 40.38 354.11 39.91Z" fill="#EEBCB5"/>
        <path d="M13.9702 51.62C13.9702 51.54 13.9502 51.46 13.9502 51.38C13.9502 49.66 15.7802 48.26 18.0302 48.26C18.2302 48.26 18.4302 48.27 18.6202 48.3C19.3602 47.76 20.3902 47.43 21.5202 47.43C23.7702 47.43 24.9802 48.35 25.6402 49.86C25.8202 50.27 25.8302 51.07 25.5502 51.46C25.7902 51.42 26.6702 51.55 26.9202 51.59C28.1802 51.81 29.6802 52.89 29.6802 54.49C29.6802 56.09 28.7602 56.94 26.5202 57.36C25.8902 57.48 24.6302 57.27 24.0902 57.05C20.4102 58.3 17.0702 56.77 17.0702 56.77C16.3702 57.17 15.4902 57.4 14.5302 57.4C12.2802 57.4 10.4502 56.1 10.4502 54.49C10.4502 53.02 11.9802 51.81 13.9602 51.61L13.9702 51.62Z" fill="#EEBCB5"/>
        <path d="M364.59 63.46C364.59 63.38 364.57 63.3 364.57 63.22C364.57 61.5 366.4 60.1 368.65 60.1C368.85 60.1 369.05 60.11 369.24 60.14C369.98 59.6 371.01 59.27 372.14 59.27C374.39 59.27 375.6 60.19 376.26 61.7C376.44 62.11 376.45 62.91 376.17 63.3C376.41 63.26 377.29 63.39 377.54 63.43C378.8 63.65 380.3 64.73 380.3 66.33C380.3 67.93 379.38 68.78 377.14 69.2C376.51 69.32 375.25 69.11 374.71 68.89C371.03 70.14 367.69 68.61 367.69 68.61C366.99 69.01 366.11 69.24 365.15 69.24C362.9 69.24 361.07 67.94 361.07 66.33C361.07 64.86 362.6 63.65 364.58 63.45L364.59 63.46Z" fill="#EEBCB5"/>
        <path d="M75.6702 8.08C75.6802 7.89 75.7002 7.7 75.7002 7.5C75.7002 3.36 72.5702 0 68.7002 0C66.1502 0 63.9302 1.46 62.7102 3.64C61.8202 3.23 60.8402 3 59.8002 3C56.4802 3 53.7002 5.32 52.9802 8.43C50.4902 9.41 48.7002 11.98 48.7002 15C48.7002 18.87 51.6102 22 55.2002 22C55.9802 22 57.8602 22.28 58.5502 22C64.0702 23.32 63.9602 21.52 66.2702 22C68.0202 22.36 70.7502 22.89 72.9802 21.78C73.5302 21.92 74.1102 22 74.7102 22C78.5802 22 81.7102 18.87 81.7102 15C81.7102 11.47 79.0902 8.55 75.6802 8.08H75.6702Z" fill="#EEBCB5"/>
        <path d="M203.93 11.86H88.9399V151.91H203.93V11.86Z" fill="#EEBCB5"/>
        <path d="M120.59 23.24H108.04V36.59H120.59V23.24Z" fill="#7D7DB5"/>
        <path d="M135.95 23.24H123.4V36.59H135.95V23.24Z" fill="#7D7DB5"/>
        <path d="M151.31 23.24H138.76V36.59H151.31V23.24Z" fill="#7D7DB5"/>
        <path d="M166.67 23.24H154.12V36.59H166.67V23.24Z" fill="#7D7DB5"/>
        <path d="M182.03 23.24H169.48V36.59H182.03V23.24Z" fill="#7D7DB5"/>
        <path d="M214.19 151.91H203.94V11.86L214.19 20.9V151.91Z" fill="#7D7DB5"/>
        <path d="M120.59 26.08H111.1V36.59H120.59V26.08Z" fill="#505187"/>
        <path d="M135.95 26.08H126.46V36.59H135.95V26.08Z" fill="#505187"/>
        <path d="M151.31 26.08H141.82V36.59H151.31V26.08Z" fill="#505187"/>
        <path d="M166.67 26.08H157.18V36.59H166.67V26.08Z" fill="#505187"/>
        <path d="M182.03 26.08H172.54V36.59H182.03V26.08Z" fill="#505187"/>
        <path d="M120.59 44.68H108.04V58.03H120.59V44.68Z" fill="#7D7DB5"/>
        <path d="M135.95 44.68H123.4V58.03H135.95V44.68Z" fill="#7D7DB5"/>
        <path d="M151.31 44.68H138.76V58.03H151.31V44.68Z" fill="#7D7DB5"/>
        <path d="M166.67 44.68H154.12V58.03H166.67V44.68Z" fill="#7D7DB5"/>
        <path d="M182.03 44.68H169.48V58.03H182.03V44.68Z" fill="#7D7DB5"/>
        <path d="M120.59 47.52H111.1V58.03H120.59V47.52Z" fill="#505187"/>
        <path d="M135.95 47.52H126.46V58.03H135.95V47.52Z" fill="#505187"/>
        <path d="M151.31 47.52H141.82V58.03H151.31V47.52Z" fill="#505187"/>
        <path d="M166.67 47.52H157.18V58.03H166.67V47.52Z" fill="#505187"/>
        <path d="M182.03 47.52H172.54V58.03H182.03V47.52Z" fill="#505187"/>
        <path d="M120.59 66.12H108.04V79.47H120.59V66.12Z" fill="#7D7DB5"/>
        <path d="M135.95 66.12H123.4V79.47H135.95V66.12Z" fill="#7D7DB5"/>
        <path d="M151.31 66.12H138.76V79.47H151.31V66.12Z" fill="#7D7DB5"/>
        <path d="M166.67 66.12H154.12V79.47H166.67V66.12Z" fill="#7D7DB5"/>
        <path d="M182.03 66.12H169.48V79.47H182.03V66.12Z" fill="#7D7DB5"/>
        <path d="M120.59 68.96H111.1V79.47H120.59V68.96Z" fill="#505187"/>
        <path d="M135.95 68.96H126.46V79.47H135.95V68.96Z" fill="#505187"/>
        <path d="M151.31 68.96H141.82V79.47H151.31V68.96Z" fill="#505187"/>
        <path d="M166.67 68.96H157.18V79.47H166.67V68.96Z" fill="#505187"/>
        <path d="M182.03 68.96H172.54V79.47H182.03V68.96Z" fill="#505187"/>
        <path d="M120.59 87.57H108.04V100.92H120.59V87.57Z" fill="#7D7DB5"/>
        <path d="M135.95 87.57H123.4V100.92H135.95V87.57Z" fill="#7D7DB5"/>
        <path d="M151.31 87.57H138.76V100.92H151.31V87.57Z" fill="#7D7DB5"/>
        <path d="M166.67 87.57H154.12V100.92H166.67V87.57Z" fill="#7D7DB5"/>
        <path d="M182.03 87.57H169.48V100.92H182.03V87.57Z" fill="#7D7DB5"/>
        <path d="M120.59 90.41H111.1V100.92H120.59V90.41Z" fill="#505187"/>
        <path d="M135.95 90.41H126.46V100.92H135.95V90.41Z" fill="#505187"/>
        <path d="M151.31 90.41H141.82V100.92H151.31V90.41Z" fill="#505187"/>
        <path d="M166.67 90.41H157.18V100.92H166.67V90.41Z" fill="#505187"/>
        <path d="M182.03 90.41H172.54V100.92H182.03V90.41Z" fill="#505187"/>
        <path d="M120.59 109.01H108.04V122.36H120.59V109.01Z" fill="#7D7DB5"/>
        <path d="M135.95 109.01H123.4V122.36H135.95V109.01Z" fill="#7D7DB5"/>
        <path d="M151.31 109.01H138.76V122.36H151.31V109.01Z" fill="#7D7DB5"/>
        <path d="M166.67 109.01H154.12V122.36H166.67V109.01Z" fill="#7D7DB5"/>
        <path d="M182.03 109.01H169.48V122.36H182.03V109.01Z" fill="#7D7DB5"/>
        <path d="M120.59 111.85H111.1V122.36H120.59V111.85Z" fill="#505187"/>
        <path d="M135.95 111.85H126.46V122.36H135.95V111.85Z" fill="#505187"/>
        <path d="M151.31 111.85H141.82V122.36H151.31V111.85Z" fill="#505187"/>
        <path d="M166.67 111.85H157.18V122.36H166.67V111.85Z" fill="#505187"/>
        <path d="M182.03 111.85H172.54V122.36H182.03V111.85Z" fill="#505187"/>
        <path d="M120.59 130.45H108.04V143.8H120.59V130.45Z" fill="#7D7DB5"/>
        <path d="M135.95 130.45H123.4V143.8H135.95V130.45Z" fill="#7D7DB5"/>
        <path d="M151.31 130.45H138.76V151.91H151.31V130.45Z" fill="#7D7DB5"/>
        <path d="M166.67 130.45H154.12V143.8H166.67V130.45Z" fill="#7D7DB5"/>
        <path d="M182.03 130.45H169.48V143.8H182.03V130.45Z" fill="#7D7DB5"/>
        <path d="M120.59 133.29H111.1V143.8H120.59V133.29Z" fill="#505187"/>
        <path d="M135.95 133.29H126.46V143.8H135.95V133.29Z" fill="#505187"/>
        <path d="M151.31 133.29H141.82V151.91H151.31V133.29Z" fill="#505187"/>
        <path d="M166.67 133.29H157.18V143.8H166.67V133.29Z" fill="#505187"/>
        <path d="M182.03 133.29H172.54V143.8H182.03V133.29Z" fill="#505187"/>
        <path d="M283.25 54.24H234.51V152.42H283.25V54.24Z" fill="#EBCCBC"/>
        <path d="M292.13 152.41H283.24V54.24L292.13 60.58V152.41Z" fill="#E69973"/>
        <path d="M249.68 59.46H238.8V71.03H249.68V59.46Z" fill="#E69973"/>
        <path d="M262.99 59.46H252.11V71.03H262.99V59.46Z" fill="#E69973"/>
        <path d="M276.31 59.46H265.43V71.03H276.31V59.46Z" fill="#E69973"/>
        <path d="M249.67 61.92H241.45V71.03H249.67V61.92Z" fill="#D74F50"/>
        <path d="M262.99 61.92H254.77V71.03H262.99V61.92Z" fill="#D74F50"/>
        <path d="M276.3 61.92H268.08V71.03H276.3V61.92Z" fill="#D74F50"/>
        <path d="M249.68 78.04H238.8V89.61H249.68V78.04Z" fill="#E69973"/>
        <path d="M262.99 78.04H252.11V89.61H262.99V78.04Z" fill="#E69973"/>
        <path d="M276.31 78.04H265.43V89.61H276.31V78.04Z" fill="#E69973"/>
        <path d="M249.67 80.51H241.45V89.62H249.67V80.51Z" fill="#D74F50"/>
        <path d="M262.99 80.51H254.77V89.62H262.99V80.51Z" fill="#D74F50"/>
        <path d="M276.3 80.51H268.08V89.62H276.3V80.51Z" fill="#D74F50"/>
        <path d="M249.68 96.63H238.8V108.2H249.68V96.63Z" fill="#E69973"/>
        <path d="M262.99 96.63H252.11V108.2H262.99V96.63Z" fill="#E69973"/>
        <path d="M276.31 96.63H265.43V108.2H276.31V96.63Z" fill="#E69973"/>
        <path d="M249.67 99.09H241.45V108.2H249.67V99.09Z" fill="#D74F50"/>
        <path d="M262.99 99.09H254.77V108.2H262.99V99.09Z" fill="#D74F50"/>
        <path d="M276.3 99.09H268.08V108.2H276.3V99.09Z" fill="#D74F50"/>
        <path d="M249.68 115.22H238.8V126.79H249.68V115.22Z" fill="#E69973"/>
        <path d="M262.99 115.22H252.11V126.79H262.99V115.22Z" fill="#E69973"/>
        <path d="M276.31 115.22H265.43V126.79H276.31V115.22Z" fill="#E69973"/>
        <path d="M249.67 117.68H241.45V126.79H249.67V117.68Z" fill="#D74F50"/>
        <path d="M262.99 117.68H254.77V126.79H262.99V117.68Z" fill="#D74F50"/>
        <path d="M276.3 117.68H268.08V126.79H276.3V117.68Z" fill="#D74F50"/>
        <path d="M249.68 133.81H238.8V145.38H249.68V133.81Z" fill="#E69973"/>
        <path d="M262.99 133.81H252.11V152.41H262.99V133.81Z" fill="#E69973"/>
        <path d="M276.31 133.81H265.43V145.38H276.31V133.81Z" fill="#E69973"/>
        <path d="M249.67 136.27H241.45V145.38H249.67V136.27Z" fill="#D74F50"/>
        <path d="M262.99 136.27H254.77V152.41H262.99V136.27Z" fill="#D74F50"/>
        <path d="M276.3 136.27H268.08V145.38H276.3V136.27Z" fill="#D74F50"/>
        <path d="M51.2298 127.2C58.9452 127.2 65.1998 114.991 65.1998 99.93C65.1998 84.8692 58.9452 72.66 51.2298 72.66C43.5143 72.66 37.2598 84.8692 37.2598 99.93C37.2598 114.991 43.5143 127.2 51.2298 127.2Z" fill="#D74F50"/>
        <path d="M51.23 89.65L52.23 151.83H50.23L51.23 89.65Z" fill="#EBCCBC"/>
        <path d="M31.8699 135.68C38.3317 135.68 43.5699 127.675 43.5699 117.8C43.5699 107.925 38.3317 99.92 31.8699 99.92C25.4082 99.92 20.1699 107.925 20.1699 117.8C20.1699 127.675 25.4082 135.68 31.8699 135.68Z" fill="#E69973"/>
        <path d="M31.8701 111.06L32.8701 151.83H30.8701L31.8701 111.06Z" fill="#EBCCBC"/>
        <path d="M228.73 125.3C228.73 123.1 227.25 121.26 225.23 120.7C225.2 116.41 221.72 112.94 217.42 112.94C216.88 112.94 216.36 112.99 215.85 113.1C215 112.33 213.88 111.85 212.64 111.85C210.58 111.85 208.83 113.16 208.16 114.98C207.93 114.96 207.7 114.95 207.47 114.95C203.15 114.95 199.66 118.45 199.66 122.76C199.66 124.96 200.57 126.94 202.03 128.36C201.88 128.96 201.79 129.59 201.79 130.23C201.79 134.55 205.29 138.04 209.6 138.04C211.22 138.04 212.73 137.54 213.98 136.7C215.31 137.75 216.98 138.38 218.81 138.38C223.13 138.38 226.62 134.88 226.62 130.57C226.62 130.14 226.58 129.73 226.51 129.32C227.84 128.47 228.72 126.99 228.72 125.29L228.73 125.3Z" fill="#505187"/>
        <path d="M214.2 124.28L215.7 151.5H212.7L214.2 124.28Z" fill="#EBCCBC"/>
        <path d="M330.02 149.35C329.88 148.92 329.57 148.55 329.16 148.28C329.04 147.44 328.18 146.8 327.14 146.8C326.84 146.8 326.56 146.85 326.31 146.95C325.91 146.24 325.05 145.76 324.04 145.76C322.65 145.76 321.53 146.69 321.53 147.84C321.53 147.87 321.53 147.9 321.53 147.93C321.3 147.87 321.05 147.84 320.79 147.84C319.4 147.84 318.28 148.77 318.28 149.92C318.28 149.96 318.28 150.01 318.29 150.05C317.99 150.25 317.79 150.56 317.79 150.9C317.79 151.5 318.38 151.99 319.11 151.99H320.65H320.64C320.69 151.99 320.74 151.99 320.79 151.99H323.73H323.89H327.43C327.43 151.99 327.9 151.98 327.93 151.98C328.26 151.98 329.62 152 330.2 151.98C330.98 151.98 331.64 151.48 331.64 150.83C331.64 149.9 330.68 149.32 330.02 149.34V149.35ZM325.1 149.71C325.1 149.71 325.09 149.71 325.08 149.71H325.1Z" fill="#E69973"/>
        <path d="M297.93 151.9L298.17 118.18" stroke="#505187" stroke-width="1.5" stroke-miterlimit="10"/>
        <path d="M300.12 118.18H296.25L295.13 111.85H301.19L300.12 118.18Z" fill="#E69973"/>
        <path d="M294.87 111.85H301.45" stroke="#505187" stroke-width="1.5" stroke-miterlimit="10" stroke-linecap="round"/>
        <path d="M2.9798 142.53H2.0498V151.83H2.9798V142.53Z" fill="#EEBCB5"/>
        <path d="M36.9798 142.53H36.0498V151.83H36.9798V142.53Z" fill="#EEBCB5"/>
        <path d="M39.08 136.98H0V143.31H39.08V136.98Z" fill="#7C2224"/>
        <path d="M39.08 145.46H0V147.23H39.08V145.46Z" fill="#7C2224"/>
        <path d="M321.03 143.61C324.382 143.61 327.1 139.46 327.1 134.34C327.1 129.22 324.382 125.07 321.03 125.07C317.678 125.07 314.96 129.22 314.96 134.34C314.96 139.46 317.678 143.61 321.03 143.61Z" fill="#7C2224"/>
        <path d="M321.03 130.84L321.53 151.99H320.53L321.03 130.84Z" fill="#EBCCBC"/>
    </g>
    <defs>
        <clipPath id="clip0_396_782">
            <rect width="380.3" height="152.41" fill="white"/>
        </clipPath>
    </defs>
</svg>
    