<svg width="385" height="134" viewBox="0 0 385 134" fill="none" xmlns="http://www.w3.org/2000/svg">
    <g clip-path="url(#clip0_396_679)">
        <path d="M307.72 28.2C307.74 28.01 307.75 27.82 307.75 27.62C307.75 23.48 304.1 20.12 299.59 20.12C299.19 20.12 298.79 20.16 298.41 20.21C296.93 18.92 294.88 18.12 292.6 18.12C288.1 18.12 285.69 20.34 284.37 23.97C284.01 24.95 284 26.88 284.55 27.82C284.08 27.74 282.31 28.03 281.82 28.13C279.29 28.67 276.29 31.25 276.29 35.12C276.29 38.99 278.13 41.02 282.62 42.03C283.89 42.31 286.4 41.82 287.48 41.28C294.84 44.29 301.51 40.6 301.51 40.6C302.9 41.55 304.66 42.12 306.58 42.12C311.08 42.12 314.74 38.99 314.74 35.12C314.74 31.59 311.68 28.67 307.72 28.2Z" fill="#EEBCB5"/>
        <path d="M368.83 52.6C368.83 52.52 368.81 52.44 368.81 52.36C368.81 50.64 370.64 49.24 372.89 49.24C373.09 49.24 373.29 49.25 373.48 49.28C374.22 48.74 375.25 48.41 376.38 48.41C378.63 48.41 379.84 49.33 380.5 50.84C380.68 51.25 380.69 52.05 380.41 52.44C380.65 52.4 381.53 52.53 381.78 52.57C383.04 52.79 384.54 53.87 384.54 55.47C384.54 57.07 383.62 57.92 381.38 58.34C380.75 58.46 379.49 58.25 378.95 58.03C375.27 59.28 371.93 57.75 371.93 57.75C371.23 58.15 370.35 58.38 369.39 58.38C367.14 58.38 365.31 57.08 365.31 55.47C365.31 54 366.84 52.79 368.82 52.59L368.83 52.6Z" fill="#EEBCB5"/>
        <path d="M318.2 51.75C318.2 51.67 318.18 51.59 318.18 51.51C318.18 49.79 320.01 48.39 322.26 48.39C322.46 48.39 322.66 48.4 322.85 48.43C323.59 47.89 324.62 47.56 325.75 47.56C328 47.56 329.21 48.48 329.87 49.99C330.05 50.4 330.06 51.2 329.78 51.59C330.02 51.55 330.9 51.68 331.15 51.72C332.41 51.94 333.91 53.02 333.91 54.62C333.91 56.22 332.99 57.07 330.75 57.49C330.12 57.61 328.86 57.4 328.32 57.18C324.64 58.43 321.3 56.9 321.3 56.9C320.6 57.3 319.72 57.53 318.76 57.53C316.51 57.53 314.68 56.23 314.68 54.62C314.68 53.15 316.21 51.94 318.19 51.74L318.2 51.75Z" fill="#EBCCBC"/>
        <path d="M53.0301 8.08C53.0401 7.89 53.0601 7.7 53.0601 7.5C53.0601 3.36 49.9301 0 46.0601 0C43.5101 0 41.2901 1.46 40.0701 3.64C39.1801 3.23 38.2001 3 37.1601 3C33.8401 3 31.0601 5.32 30.3401 8.43C27.8501 9.41 26.0601 11.98 26.0601 15C26.0601 18.87 28.9701 22 32.5601 22C33.3401 22 35.2201 22.28 35.9101 22C41.4301 23.32 41.3201 21.52 43.6301 22C45.3801 22.36 48.1101 22.89 50.3401 21.78C50.8901 21.92 51.4701 22 52.0701 22C55.9401 22 59.0701 18.87 59.0701 15C59.0701 11.47 56.4501 8.55 53.0401 8.08H53.0301Z" fill="#EEBCB5"/>
        <path d="M297.93 35.15H44.8901V86.28H297.93V35.15Z" fill="#D74F50"/>
        <path d="M343.83 133.65H332.13V38.92L343.83 46.63V133.65Z" fill="#D74F50"/>
        <path d="M224.76 86.28H186.56V133.65H224.76V86.28Z" fill="#E69973"/>
        <path d="M332.13 86.28H293.35V133.65H332.13V86.28Z" fill="#E69973"/>
        <path d="M192.97 133.65H186.3V81.09L192.97 86.28V133.65Z" fill="#DDB09E"/>
        <path d="M332.13 38.92H298.34V86.29H332.13V38.92Z" fill="#E69973"/>
        <path d="M82.81 86.28H53.21V133.65H82.81V86.28Z" fill="#E69973"/>
        <path d="M186.3 81.09H82.8101V133.65H186.3V81.09Z" fill="#EBCCBC"/>
        <path d="M304.52 86.28H297.72V35.15L304.52 39.31V86.28Z" fill="#AA2E33"/>
        <path d="M293.35 86.28H224.76V133.65H293.35V86.28Z" fill="#AA2E33"/>
        <path d="M262.34 86.28H255.77V133.65H262.34V86.28Z" fill="#EBCCBC"/>
        <path d="M262.34 86.28H261.51V133.65H262.34V86.28Z" fill="#DDB09E"/>
        <path d="M327.8 47.56H307.53V83.22H327.8V47.56Z" fill="#D74F50"/>
        <path d="M327.8 52.6H312.48V83.22H327.8V52.6Z" fill="#AA2E33"/>
        <path d="M238.12 42.89H217.85V78.55H238.12V42.89Z" fill="#AA2E33"/>
        <path d="M238.12 47.92H222.8V78.54H238.12V47.92Z" fill="#7C2224"/>
        <path d="M212.21 42.89H173.94V78.55H212.21V42.89Z" fill="#AA2E33"/>
        <path d="M212.21 47.35H178.76V78.55H212.21V47.35Z" fill="#7C2224"/>
        <path d="M118.75 42.86H85.5V60.69H118.75V42.86Z" fill="#AA2E33"/>
        <path d="M118.75 46.24H89.7202V60.7H118.75V46.24Z" fill="#7C2224"/>
        <path d="M327.8 97.6H307.53V133.26H327.8V97.6Z" fill="#D74F50"/>
        <path d="M327.8 102.64H312.48V133.26H327.8V102.64Z" fill="#AA2E33"/>
        <path d="M289.43 43.17H244.32V55.14H289.43V43.17Z" fill="#AA2E33"/>
        <path d="M289.43 45.71H247.07V55.14H289.43V45.71Z" fill="#7C2224"/>
        <path d="M169.34 42.86H124.23V54.83H169.34V42.86Z" fill="#AA2E33"/>
        <path d="M169.35 45.41H126.99V54.84H169.35V45.41Z" fill="#7C2224"/>
        <path d="M78.1499 93.39H57.8799V129.05H78.1499V93.39Z" fill="#D74F50"/>
        <path d="M78.1501 98.43H62.8301V129.05H78.1501V98.43Z" fill="#AA2E33"/>
        <path d="M217.86 93.39H197.59V129.05H217.86V93.39Z" fill="#D74F50"/>
        <path d="M217.85 98.43H202.53V129.05H217.85V98.43Z" fill="#AA2E33"/>
        <path d="M112.26 92.14H91.9902V127.8H112.26V92.14Z" fill="#E69973"/>
        <path d="M112.26 97.18H96.9399V127.8H112.26V97.18Z" fill="#D74F50"/>
        <path d="M177.87 92.14H134.56V127.8H177.87V92.14Z" fill="#E69973"/>
        <path d="M177.87 97.18H139.92V127.8H177.87V97.18Z" fill="#D74F50"/>
        <path d="M320.14 83.53C320.14 79.31 317.29 75.76 313.41 74.69C313.36 66.44 306.66 59.77 298.4 59.77C297.37 59.77 296.36 59.87 295.38 60.07C293.75 58.59 291.59 57.68 289.21 57.68C285.25 57.68 281.89 60.19 280.6 63.7C280.16 63.66 279.72 63.63 279.27 63.63C270.98 63.63 264.25 70.35 264.25 78.65C264.25 82.88 266 86.69 268.81 89.42C268.52 90.58 268.36 91.78 268.36 93.02C268.36 101.31 275.08 108.04 283.38 108.04C286.5 108.04 289.4 107.09 291.8 105.46C294.36 107.48 297.57 108.69 301.08 108.69C309.37 108.69 316.1 101.97 316.1 93.67C316.1 92.85 316.02 92.05 315.89 91.27C318.44 89.64 320.14 86.79 320.14 83.53Z" fill="#505187"/>
        <path d="M292.23 81.57L293.73 133.88H290.73L292.23 81.57Z" fill="#EBCCBC"/>
        <path d="M18.7798 116.05C24.2916 116.05 28.7598 107.324 28.7598 96.56C28.7598 85.796 24.2916 77.07 18.7798 77.07C13.268 77.07 8.7998 85.796 8.7998 96.56C8.7998 107.324 13.268 116.05 18.7798 116.05Z" fill="#7D7DB5"/>
        <path d="M18.7798 89.22L19.7798 133.65H17.7798L18.7798 89.22Z" fill="#EBCCBC"/>
        <path d="M282.72 120.05C288.176 120.05 292.6 113.294 292.6 104.96C292.6 96.626 288.176 89.87 282.72 89.87C277.263 89.87 272.84 96.626 272.84 104.96C272.84 113.294 277.263 120.05 282.72 120.05Z" fill="#E69973"/>
        <path d="M282.72 99.26L283.72 133.68H281.72L282.72 99.26Z" fill="#EBCCBC"/>
        <path d="M25.48 128.14C25.18 127.24 24.54 126.47 23.68 125.92C23.43 124.18 21.64 122.83 19.47 122.83C18.85 122.83 18.26 122.94 17.73 123.14C16.9 121.67 15.1 120.66 13 120.66C10.11 120.66 7.76998 122.6 7.76998 125C7.76998 125.06 7.76998 125.12 7.77998 125.19C7.29998 125.07 6.77998 125 6.23998 125C3.34998 125 0.99998 126.94 0.99998 129.33C0.99998 129.42 0.99998 129.52 1.01998 129.61C0.38998 130.02 -0.0200195 130.67 -0.0200195 131.39C-0.0200195 132.64 1.19998 133.66 2.72998 133.66H5.93998H5.90998C6.00998 133.67 6.12998 133.67 6.22998 133.67H12.35H12.69H20.05C20.05 133.67 21.03 133.64 21.09 133.64C21.78 133.64 24.6 133.68 25.82 133.65C27.45 133.65 28.82 132.6 28.82 131.25C28.82 129.3 26.82 128.11 25.46 128.16L25.48 128.14ZM15.25 128.89C15.25 128.89 15.22 128.9 15.21 128.9L15.25 128.88V128.89Z" fill="#EEBCB5"/>
    </g>
    <defs>
        <clipPath id="clip0_396_679">
            <rect width="384.55" height="133.88" fill="white"/>
        </clipPath>
    </defs>
</svg>
    