<svg width="356" height="135" viewBox="0 0 356 135" fill="none" xmlns="http://www.w3.org/2000/svg">
    <g clip-path="url(#clip0_396_285)">
        <path d="M82.5901 14.75C82.6001 14.56 82.6201 14.37 82.6201 14.17C82.6201 10.03 79.4901 6.66998 75.6201 6.66998C73.0701 6.66998 70.8501 8.12998 69.6301 10.31C68.7401 9.89998 67.7601 9.66998 66.7201 9.66998C63.4001 9.66998 60.6201 11.99 59.9001 15.1C57.4101 16.08 55.6201 18.65 55.6201 21.67C55.6201 25.54 58.5301 28.67 62.1201 28.67C62.9001 28.67 64.7801 28.95 65.4701 28.67C70.9901 29.99 70.8801 28.19 73.1901 28.67C74.9401 29.03 77.6701 29.56 79.9001 28.45C80.4501 28.59 81.0301 28.67 81.6301 28.67C85.5001 28.67 88.6301 25.54 88.6301 21.67C88.6301 18.14 86.0101 15.22 82.6001 14.75H82.5901Z" fill="#EEBCB5"/>
        <path d="M88.78 3.04C88.78 2.97 88.78 2.9 88.78 2.82C88.78 1.26 89.86 0 91.2 0C92.08 0 92.85 0.55 93.27 1.37C93.58 1.22 93.92 1.13 94.28 1.13C95.43 1.13 96.39 2 96.64 3.17C97.5 3.54 98.12 4.5 98.12 5.64C98.12 7.09 97.11 8.27 95.87 8.27C95.6 8.27 94.95 8.38 94.71 8.27C92.8 8.77 92.84 8.09 92.04 8.27C91.44 8.41 90.49 8.6 89.72 8.19C89.53 8.24 89.33 8.27 89.12 8.27C87.78 8.27 86.7 7.09 86.7 5.64C86.7 4.31 87.61 3.21 88.78 3.04Z" fill="#EEBCB5"/>
        <path d="M320.76 36.74C320.76 36.66 320.74 36.58 320.74 36.5C320.74 34.78 322.57 33.38 324.82 33.38C325.02 33.38 325.22 33.39 325.41 33.42C326.15 32.88 327.18 32.55 328.31 32.55C330.56 32.55 331.77 33.47 332.43 34.98C332.61 35.39 332.62 36.19 332.34 36.58C332.58 36.54 333.46 36.67 333.71 36.71C334.97 36.93 336.47 38.01 336.47 39.61C336.47 41.21 335.55 42.06 333.31 42.48C332.68 42.6 331.42 42.39 330.88 42.17C327.2 43.42 323.86 41.89 323.86 41.89C323.16 42.29 322.28 42.52 321.32 42.52C319.07 42.52 317.24 41.22 317.24 39.61C317.24 38.14 318.77 36.93 320.75 36.73L320.76 36.74Z" fill="#EEBCB5"/>
        <path d="M44.9899 120.73C50.4189 120.73 54.8199 114.01 54.8199 105.72C54.8199 97.4302 50.4189 90.71 44.9899 90.71C39.561 90.71 35.1599 97.4302 35.1599 105.72C35.1599 114.01 39.561 120.73 44.9899 120.73Z" fill="#E69973"/>
        <path d="M44.99 100.06L45.99 134.29H43.99L44.99 100.06Z" fill="#EBCCBC"/>
        <path d="M310.81 69.53V134.29L68.0801 132.75L67.0701 75.67L292.1 40.92L310.81 69.53Z" fill="#D74F50"/>
        <path d="M64.1399 134.29V120.25C64.1399 120.25 100.44 119.24 113.68 118.73C126.92 118.22 140.76 114.02 168.43 103.91C196.1 93.8 223.77 76.17 245.33 76.34C266.88 76.51 279.9 81.72 288.56 89.68C297.22 97.64 309.81 117.37 310.31 120.9C310.81 124.43 310.81 134.29 310.81 134.29H64.1399Z" fill="#EEBCB5"/>
        <path d="M310.99 76.34L335.22 72.4C335.22 72.4 340.53 63.09 333.18 57.23C325.83 51.37 301.57 42.66 301.57 42.66L271.89 48.08L254.7 55.38C254.7 55.38 259.21 54.63 280.64 56.99C302.07 59.35 310.48 69.64 310.99 76.34Z" fill="#AA2E33"/>
        <path d="M204.97 4.60001C176.26 7.29001 135.79 13.09 97.16 36.19C86.05 42.84 78.47 48.81 73.3 53.95C67.93 57.33 63.85 61.05 62.78 64.86C64.25 53.72 72.11 38.36 88.36 27.31C105.27 15.83 125.35 6.95001 160.68 3.92001C174.13 2.76001 189.4 3.11001 204.97 4.60001Z" fill="#D74F50"/>
        <path d="M320.28 39.78C293.89 30.15 268.09 28.54 241.12 27.96C228.35 27.69 213.69 28.08 197.89 29.61H197.87C196.78 29.6 195.68 29.59 194.59 29.59C137.9 29.59 101.43 40.98 88.57 46.31C83.24 48.52 77.81 51.11 73.3 53.95C78.47 48.81 86.05 42.84 97.16 36.19C135.79 13.09 176.26 7.28998 204.97 4.59998C230.31 7.01998 256.45 12.46 276.85 19.31C297.7 26.3 311.52 33.73 320.28 39.78Z" fill="#AA2E33"/>
        <path d="M337.04 68.7C336.3 72.34 335.28 72.4 335.21 72.4C335.21 72.4 343.22 57.28 322.76 51.95C318.09 50.73 313.11 50.14 307.88 50.04C294.21 44.4 252.54 30.16 197.89 29.61C213.69 28.08 228.35 27.69 241.12 27.96C268.09 28.54 293.89 30.15 320.28 39.78C325.37 43.29 328.75 46.34 330.82 48.57C336.46 54.64 338.68 60.63 337.04 68.7Z" fill="#7C2224"/>
        <path d="M307.88 50.04C297.71 49.83 286.55 51.48 274.72 53.96C253.16 51.48 225.03 52.2 193.93 55.19C192.25 55.35 190.52 55.53 188.76 55.72C181.21 55.61 173.47 55.65 165.81 55.91C129.6 57.17 89.2199 63.6 75.9499 69.2C73.6399 70.18 71.7199 71.1 70.1299 71.97C70.3899 71.7 70.6699 71.43 70.9499 71.16C79.3499 63.04 105.16 49.13 141.97 39.46C161.35 34.38 180.32 31.3 197.87 29.61H197.89C252.54 30.16 294.21 44.4 307.88 50.04Z" fill="#D74F50"/>
        <path d="M197.87 29.61C180.32 31.3 161.35 34.38 141.97 39.46C105.16 49.13 79.3499 63.04 70.9499 71.16C70.6699 71.43 70.3899 71.7 70.1299 71.97C70.1299 71.97 70.1199 71.97 70.1199 71.98C64.5999 75 63.0599 77.38 62.6299 79.17V71.3C63.1399 67.82 65.3599 61.86 73.2999 53.95C77.8099 51.11 83.2399 48.52 88.5699 46.31C101.43 40.98 137.9 29.59 194.59 29.59C195.68 29.59 196.78 29.6 197.87 29.61Z" fill="#7C2224"/>
        <path d="M73.2999 53.95C65.3599 61.86 63.1399 67.82 62.6299 71.3V66.18C62.6699 65.75 62.7199 65.31 62.7799 64.86C63.8499 61.05 67.9299 57.33 73.2999 53.95Z" fill="#D74F50"/>
        <path d="M70.1199 71.98C64.8499 77.35 63.1299 81.95 62.6299 84.69V79.17C63.0599 77.38 64.5999 75 70.1199 71.98Z" fill="#D74F50"/>
        <path d="M249.65 59.89C248.97 60.06 248.29 60.23 247.61 60.4C236.37 63.2 216.82 70.73 195.65 79.27C156.7 79.27 109.73 80.48 93.15 82.95C82.74 84.5 75.53 86.18 70.7 87.76C74.69 84.99 80.52 81.71 89.01 77.76C114.11 66.09 157.56 59.01 188.76 55.72C216.54 56.14 241.62 58.68 249.65 59.89Z" fill="#AA2E33"/>
        <path d="M70.6999 87.76C65.2699 91.55 63.2599 94.41 62.6299 96.78V92.59C62.8499 91.9 63.3699 91.12 64.4499 90.46C65.8099 89.62 67.8399 88.7 70.6999 87.76Z" fill="#AA2E33"/>
        <path d="M195.65 79.27C168.38 90.28 138.44 102.97 120.16 109.45C101.62 107.48 80.8699 104.36 71.1499 103.95C76.2199 101.48 84.1699 98.46 96.5499 94.48C126.59 84.84 181.99 80.4 195.65 79.27Z" fill="#7C2224"/>
        <path d="M120.16 109.45C116.68 110.68 113.63 111.69 111.1 112.42C84.8599 119.98 62.6299 120.43 62.6299 120.43V111.05C63.1299 109.04 65.0899 106.89 71.1499 103.95C80.8699 104.36 101.62 107.48 120.16 109.45Z" fill="#AA2E33"/>
        <path d="M71.1499 103.95C65.0899 106.89 63.1299 109.04 62.6299 111.05V106.77C62.8499 105.72 63.8499 104.2 67.7899 103.95C68.6799 103.89 69.8099 103.9 71.1499 103.95Z" fill="#7C2224"/>
        <path d="M274.72 53.96C266.65 55.65 258.26 57.74 249.66 59.89H249.65C241.62 58.68 216.54 56.14 188.76 55.72C190.52 55.53 192.25 55.35 193.93 55.19C225.03 52.2 253.16 51.48 274.72 53.96Z" fill="#7C2224"/>
        <path d="M308.19 50.17C308.09 50.13 307.98 50.08 307.88 50.04" stroke="#D74F50"/>
        <path d="M188.76 55.72C157.56 59.01 114.11 66.09 89.0099 77.76C80.5199 81.71 74.6899 84.99 70.6999 87.76C67.8399 88.7 65.8099 89.62 64.4499 90.46C63.3699 91.12 62.8499 91.9 62.6299 92.59V84.69C63.1299 81.95 64.8499 77.35 70.1199 71.98C70.1199 71.97 70.1299 71.97 70.1299 71.97C71.7199 71.1 73.6399 70.18 75.9499 69.2C89.2199 63.6 129.6 57.17 165.81 55.91C173.47 55.65 181.21 55.61 188.76 55.72Z" fill="#7C2224"/>
        <path d="M275.36 54.03C275.15 54 274.94 53.98 274.72 53.96" stroke="#D74F50"/>
        <path d="M249.94 59.93C249.85 59.92 249.76 59.9 249.66 59.89" stroke="#D74F50"/>
        <path d="M195.65 79.27C181.99 80.4 126.59 84.84 96.5499 94.48C84.1699 98.46 76.2199 101.48 71.1499 103.95C69.8099 103.9 68.6799 103.89 67.7899 103.95C63.8499 104.2 62.8499 105.72 62.6299 106.77V96.78C63.2599 94.41 65.2699 91.55 70.6999 87.76C75.5299 86.18 82.7399 84.5 93.1499 82.95C109.73 80.48 156.7 79.27 195.65 79.27Z" fill="#D74F50"/>
        <path d="M122.17 109.66C121.5 109.59 120.84 109.52 120.16 109.45" stroke="#D74F50"/>
        <path d="M291.87 134.14L292.24 82.13" stroke="#505187" stroke-width="2.5" stroke-miterlimit="10"/>
        <path d="M295.25 82.13H289.27L287.55 72.37H296.9L295.25 82.13Z" fill="#EBCCBC"/>
        <path d="M287.15 72.37H297.3" stroke="#505187" stroke-width="2.5" stroke-miterlimit="10" stroke-linecap="round"/>
        <path d="M5.96997 134.37L6.33997 82.37" stroke="#505187" stroke-width="2.5" stroke-miterlimit="10"/>
        <path d="M9.3499 82.37H3.3799L1.6499 72.6H10.9999L9.3499 82.37Z" fill="#EBCCBC"/>
        <path d="M1.25 72.6H11.4" stroke="#505187" stroke-width="2.5" stroke-miterlimit="10" stroke-linecap="round"/>
        <path d="M352.34 128.68C352.04 127.78 351.4 127.01 350.54 126.46C350.29 124.72 348.5 123.37 346.33 123.37C345.71 123.37 345.12 123.48 344.59 123.68C343.76 122.21 341.96 121.2 339.86 121.2C336.97 121.2 334.63 123.14 334.63 125.54C334.63 125.6 334.63 125.66 334.64 125.73C334.16 125.61 333.64 125.54 333.1 125.54C330.21 125.54 327.86 127.48 327.86 129.87C327.86 129.96 327.86 130.06 327.88 130.15C327.25 130.56 326.84 131.21 326.84 131.93C326.84 133.18 328.06 134.2 329.59 134.2H332.8H332.77C332.87 134.21 332.99 134.21 333.09 134.21H339.21H339.55H346.91C346.91 134.21 347.89 134.18 347.95 134.18C348.64 134.18 351.46 134.22 352.68 134.19C354.31 134.19 355.68 133.14 355.68 131.79C355.68 129.84 353.68 128.65 352.32 128.7L352.34 128.68ZM342.11 129.44C342.11 129.44 342.08 129.45 342.07 129.45L342.11 129.43V129.44Z" fill="#E69973"/>
        <path d="M298.9 124.71H297.95V134.14H298.9V124.71Z" fill="#505187"/>
        <path d="M333.37 124.71H332.42V134.14H333.37V124.71Z" fill="#505187"/>
        <path d="M335.49 119.09H295.88V125.51H335.49V119.09Z" fill="#7D7DB5"/>
        <path d="M335.49 127.69H295.88V129.48H335.49V127.69Z" fill="#7D7DB5"/>
        <path d="M82.5899 92.46C82.5899 88.95 80.2199 86.01 76.9999 85.11C76.9599 78.26 71.3899 72.71 64.5299 72.71C63.6699 72.71 62.8299 72.8 62.0199 72.96C60.6699 71.73 58.8699 70.97 56.8999 70.97C53.6099 70.97 50.8099 73.06 49.7399 75.98C49.3699 75.95 49.0099 75.92 48.6299 75.92C41.7399 75.92 36.1499 81.51 36.1499 88.4C36.1499 91.91 37.6099 95.08 39.9399 97.35C39.6999 98.31 39.5599 99.31 39.5599 100.34C39.5599 107.23 45.1499 112.82 52.0399 112.82C54.6299 112.82 57.0399 112.03 59.0299 110.68C61.1499 112.35 63.8299 113.36 66.7399 113.36C73.6299 113.36 79.2199 107.77 79.2199 100.88C79.2199 100.2 79.1499 99.54 79.0499 98.89C81.1699 97.54 82.5799 95.17 82.5799 92.46H82.5899Z" fill="#505187"/>
        <path d="M59.3999 90.83L60.8999 134.29H57.8999L59.3999 90.83Z" fill="#EBCCBC"/>
    </g>
    <defs>
        <clipPath id="clip0_396_285">
            <rect width="355.7" height="134.38" fill="white"/>
        </clipPath>
    </defs>
</svg>
    