<?xml version="1.0" encoding="utf-8"?>
<!-- Generator: Adobe Illustrator 28.2.0, SVG Export Plug-In . SVG Version: 6.00 Build 0)  -->
<svg version="1.1" xmlns="http://www.w3.org/2000/svg" xmlns:xlink="http://www.w3.org/1999/xlink" x="0px" y="0px"
	 viewBox="0 0 333.5 435.4" style="enable-background:new 0 0 333.5 435.4;" xml:space="preserve">
<style type="text/css">
	
		.st0{clip-path:url(#XMLID_00000052101997273145082920000009109918308974014852_);fill:none;stroke:#458B4F;stroke-width:7;stroke-miterlimit:10;}
	
		.st1{clip-path:url(#XMLID_00000011013611654691577220000004366858250981553823_);fill:none;stroke:#458B4F;stroke-width:5;stroke-miterlimit:10;}
	
		.st2{clip-path:url(#XMLID_00000011013611654691577220000004366858250981553823_);fill:none;stroke:#FFFFFF;stroke-width:5;stroke-miterlimit:10;}
	
		.st3{clip-path:url(#XMLID_00000041282320720519095980000015020487562215362479_);fill:none;stroke:#458B4F;stroke-width:20;stroke-miterlimit:10;}
	.st4{clip-path:url(#XMLID_00000158711913166993995530000015814667903246628496_);}
	
		.st5{clip-path:url(#SVGID_00000157281549878763609500000012597955439818440834_);fill:none;stroke:#458B4F;stroke-width:30;stroke-miterlimit:10;}
	
		.st6{clip-path:url(#XMLID_00000158711913166993995530000015814667903246628496_);fill:none;stroke:#458B4F;stroke-width:5;stroke-miterlimit:10;}
	.st7{clip-path:url(#XMLID_00000177474405125697714410000015875629279445066404_);}
	
		.st8{clip-path:url(#XMLID_00000177474405125697714410000015875629279445066404_);fill:none;stroke:#3F803F;stroke-width:5;stroke-miterlimit:10;}
	
		.st9{clip-path:url(#XMLID_00000177474405125697714410000015875629279445066404_);fill:none;stroke:#3F803F;stroke-width:15;stroke-miterlimit:10;}
	.st10{fill:#FADC4B;}
	.st11{fill:#1E1E28;}
	.st12{fill:#00A55A;}
	.st13{fill:#00A25A;}
	.st14{fill:#F7D94B;}
	.st15{fill:none;stroke:#FFFFFF;stroke-miterlimit:10;}
	.st16{fill:#FFFFFF;}
	
		.st17{clip-path:url(#XMLID_00000014623046971420017420000010617046673517352110_);fill:none;stroke:#00A55A;stroke-width:0.4603;stroke-miterlimit:10;}
	.st18{clip-path:url(#XMLID_00000014623046971420017420000010617046673517352110_);}
	.st19{fill:none;stroke:#00A55A;stroke-width:9.206779e-02;stroke-miterlimit:10;}
	.st20{fill:none;stroke:#00A55A;stroke-width:0.2148;stroke-miterlimit:10;}
	.st21{fill:none;stroke:#00A55A;stroke-width:0.3376;stroke-miterlimit:10;}
	.st22{fill:none;stroke:#00A55A;stroke-width:0.4603;stroke-miterlimit:10;}
	
		.st23{clip-path:url(#XMLID_00000013162382543232072270000015598453789508064187_);fill:none;stroke:#00A55A;stroke-width:0.4603;stroke-miterlimit:10;}
	.st24{clip-path:url(#XMLID_00000013162382543232072270000015598453789508064187_);}
	
		.st25{clip-path:url(#XMLID_00000061443004088624830690000017697241278110333629_);fill:none;stroke:#00A55A;stroke-width:0.4603;stroke-miterlimit:10;}
	.st26{clip-path:url(#XMLID_00000061443004088624830690000017697241278110333629_);}
	
		.st27{clip-path:url(#XMLID_00000111153638121929857380000003394210631684241554_);fill:none;stroke:#00A55A;stroke-width:0.4603;stroke-miterlimit:10;}
	.st28{clip-path:url(#XMLID_00000111153638121929857380000003394210631684241554_);}
	
		.st29{clip-path:url(#XMLID_00000090259076991703381470000017694466470937684649_);fill:none;stroke:#00A55A;stroke-width:0.4603;stroke-miterlimit:10;}
	.st30{clip-path:url(#XMLID_00000090259076991703381470000017694466470937684649_);}
	
		.st31{clip-path:url(#XMLID_00000114056462662004935160000014248616879578067106_);fill:none;stroke:#00A55A;stroke-width:0.4603;stroke-miterlimit:10;}
	.st32{clip-path:url(#XMLID_00000114056462662004935160000014248616879578067106_);}
	
		.st33{clip-path:url(#XMLID_00000183966854313377872810000000966273531581175981_);fill:none;stroke:#00A55A;stroke-width:0.4603;stroke-miterlimit:10;}
	.st34{clip-path:url(#XMLID_00000183966854313377872810000000966273531581175981_);}
	
		.st35{clip-path:url(#XMLID_00000131336075638089185940000010172985199209244589_);fill:none;stroke:#00A55A;stroke-width:0.4603;stroke-miterlimit:10;}
	.st36{clip-path:url(#XMLID_00000131336075638089185940000010172985199209244589_);}
	
		.st37{clip-path:url(#XMLID_00000083777466823896635450000008692015472028567741_);fill:none;stroke:#00A55A;stroke-width:0.4603;stroke-miterlimit:10;}
	.st38{clip-path:url(#XMLID_00000083777466823896635450000008692015472028567741_);}
	
		.st39{clip-path:url(#XMLID_00000012436252964072723570000005497206414067648186_);fill:none;stroke:#00A55A;stroke-width:0.4603;stroke-miterlimit:10;}
	.st40{clip-path:url(#XMLID_00000012436252964072723570000005497206414067648186_);}
	
		.st41{clip-path:url(#XMLID_00000129889801656313894200000015220702512891198877_);fill:none;stroke:#00A55A;stroke-width:0.4603;stroke-miterlimit:10;}
	.st42{clip-path:url(#XMLID_00000129889801656313894200000015220702512891198877_);}
	
		.st43{clip-path:url(#XMLID_00000127010309457472672430000013009994383349711252_);fill:none;stroke:#00A55A;stroke-width:0.4603;stroke-miterlimit:10;}
	.st44{clip-path:url(#XMLID_00000127010309457472672430000013009994383349711252_);}
	.st45{fill:none;stroke:#FADC4B;stroke-width:7;stroke-miterlimit:10;}
	.st46{fill-rule:evenodd;clip-rule:evenodd;fill:#D8D8D8;}
	.st47{display:none;}
	.st48{display:inline;fill:none;stroke:#000000;stroke-width:10;stroke-miterlimit:10;}
	.st49{display:inline;}
	.st50{display:inline;fill:none;stroke:#1E1E28;stroke-width:15;stroke-miterlimit:10;}
	.st51{display:inline;fill:#FADC4B;}
	.st52{clip-path:url(#XMLID_00000128472839594405053340000005065088841799313567_);fill:#00A55A;}
	.st53{display:inline;fill:#1E1E28;}
	.st54{fill:none;stroke:#1E1E28;stroke-width:10;stroke-miterlimit:10;}
	
		.st55{clip-path:url(#SVGID_00000044857656402044370600000017138000727141557941_);fill:url(#SVGID_00000100376064121819101270000005332016154778982328_);}
	.st56{clip-path:url(#SVGID_00000044857656402044370600000017138000727141557941_);}
	
		.st57{clip-path:url(#SVGID_00000032622765415058791520000002392282428458396319_);fill:url(#SVGID_00000045620999866526716220000014582101167051686533_);}
	.st58{clip-path:url(#SVGID_00000032622765415058791520000002392282428458396319_);}
	
		.st59{clip-path:url(#SVGID_00000057141816450379120560000015898389576659947684_);fill:url(#SVGID_00000087382787185852554550000017261770902096197250_);}
	.st60{clip-path:url(#SVGID_00000057141816450379120560000015898389576659947684_);}
	
		.st61{clip-path:url(#SVGID_00000120528707842097527230000009576933926622019514_);fill:url(#SVGID_00000014614855390213930180000001280411569245626257_);}
	.st62{clip-path:url(#SVGID_00000120528707842097527230000009576933926622019514_);}
	
		.st63{clip-path:url(#SVGID_00000011028776190869376370000006151152172531500971_);fill:url(#SVGID_00000139991905931566380620000017399196607268986302_);}
	.st64{clip-path:url(#SVGID_00000011028776190869376370000006151152172531500971_);}
	
		.st65{clip-path:url(#SVGID_00000162330794344880669810000002994747113121553584_);fill:url(#SVGID_00000137126273215230303230000016917583793684558525_);}
	.st66{clip-path:url(#SVGID_00000162330794344880669810000002994747113121553584_);}
	
		.st67{clip-path:url(#SVGID_00000154397094047180373050000010255817204134289035_);fill:url(#SVGID_00000007408809937358844530000014373253949150137480_);}
	.st68{clip-path:url(#SVGID_00000154397094047180373050000010255817204134289035_);}
	
		.st69{clip-path:url(#SVGID_00000115475137067551536280000004005108282798700189_);fill:url(#SVGID_00000132773240686776386330000007174540939430182053_);}
	.st70{clip-path:url(#SVGID_00000115475137067551536280000004005108282798700189_);}
	
		.st71{clip-path:url(#SVGID_00000089547669093007283190000016866845869443339928_);fill:url(#SVGID_00000178191824836671401140000008359700255863931777_);}
	.st72{clip-path:url(#SVGID_00000089547669093007283190000016866845869443339928_);}
	
		.st73{clip-path:url(#SVGID_00000124151449098395255700000003207517178740992927_);fill:url(#SVGID_00000054229300201863184450000014768141007776395396_);}
	.st74{clip-path:url(#SVGID_00000124151449098395255700000003207517178740992927_);}
	
		.st75{clip-path:url(#SVGID_00000066508326275421903390000000312801777408099747_);fill:url(#SVGID_00000044876051396115648310000000898840378450185605_);}
	.st76{clip-path:url(#SVGID_00000066508326275421903390000000312801777408099747_);}
	
		.st77{clip-path:url(#SVGID_00000133528277627091621750000010838446374134544056_);fill:url(#SVGID_00000087405552421907571600000011713748936312692402_);}
	.st78{clip-path:url(#SVGID_00000133528277627091621750000010838446374134544056_);}
	
		.st79{opacity:0.9;clip-path:url(#SVGID_00000029012879160493616070000012386605566289613211_);fill:url(#SVGID_00000150789280538020146990000004840834261435715221_);}
	.st80{clip-path:url(#SVGID_00000029012879160493616070000012386605566289613211_);}
	
		.st81{opacity:0.9;clip-path:url(#SVGID_00000076565434717242822230000006798817117869219490_);fill:url(#SVGID_00000169542660872933589270000015685145833586677688_);}
	.st82{clip-path:url(#SVGID_00000076565434717242822230000006798817117869219490_);}
	
		.st83{clip-path:url(#SVGID_00000018198715333224146380000011548276615629186451_);fill:url(#SVGID_00000096739632337006883450000016078596222877637041_);}
	.st84{clip-path:url(#SVGID_00000018198715333224146380000011548276615629186451_);}
	
		.st85{clip-path:url(#SVGID_00000014595758972533563000000016494759331064091561_);fill:url(#SVGID_00000103985517573126761210000006922232744017013408_);}
	.st86{clip-path:url(#SVGID_00000014595758972533563000000016494759331064091561_);}
	
		.st87{clip-path:url(#SVGID_00000002343445622881354890000006609029874580261564_);fill:url(#SVGID_00000102542234315277451050000007065856333610007172_);}
	.st88{clip-path:url(#SVGID_00000002343445622881354890000006609029874580261564_);}
	
		.st89{clip-path:url(#SVGID_00000032623677231762905240000001518676480436109235_);fill:url(#SVGID_00000163791338041085152870000004918251327151678606_);}
	.st90{clip-path:url(#SVGID_00000032623677231762905240000001518676480436109235_);}
	
		.st91{clip-path:url(#SVGID_00000160159061155759188360000004287472654543711925_);fill:url(#SVGID_00000035518149612794902750000001489414364591016870_);}
	.st92{clip-path:url(#SVGID_00000160159061155759188360000004287472654543711925_);}
	
		.st93{clip-path:url(#SVGID_00000027603224665618123570000015065400085012237756_);fill:url(#SVGID_00000054237685727022997060000000317471871929093050_);}
	.st94{clip-path:url(#SVGID_00000027603224665618123570000015065400085012237756_);}
	
		.st95{clip-path:url(#SVGID_00000097470664272663637890000005457638514123856515_);fill:url(#SVGID_00000004523121107566792070000008839545294756829349_);}
	.st96{clip-path:url(#SVGID_00000097470664272663637890000005457638514123856515_);}
	
		.st97{clip-path:url(#SVGID_00000176014293907184119160000014037624308829711266_);fill:url(#SVGID_00000104690444752614346760000003271619039198241435_);}
	.st98{clip-path:url(#SVGID_00000176014293907184119160000014037624308829711266_);}
	
		.st99{clip-path:url(#SVGID_00000179646992357948080220000002617305401581375104_);fill:url(#SVGID_00000017512851726858615990000003622987131116442505_);}
	.st100{clip-path:url(#SVGID_00000179646992357948080220000002617305401581375104_);}
	
		.st101{clip-path:url(#SVGID_00000125570505085131165540000013704957339330081211_);fill:url(#SVGID_00000085250230473119665710000003424519669139936702_);}
	.st102{clip-path:url(#SVGID_00000125570505085131165540000013704957339330081211_);}
	
		.st103{clip-path:url(#SVGID_00000156585943064622310490000010827228823880824210_);fill:url(#SVGID_00000109749850433946181970000005089563124702270606_);}
	.st104{clip-path:url(#SVGID_00000156585943064622310490000010827228823880824210_);}
	
		.st105{clip-path:url(#SVGID_00000097483708009876668130000005183898489137140112_);fill:url(#SVGID_00000013191472561031837400000007221767810675448991_);}
	.st106{clip-path:url(#SVGID_00000097483708009876668130000005183898489137140112_);}
	
		.st107{clip-path:url(#SVGID_00000091725974362021572150000006005609139643227326_);fill:url(#SVGID_00000040539410827220805630000010421669222641062822_);}
	.st108{clip-path:url(#SVGID_00000091725974362021572150000006005609139643227326_);}
	
		.st109{clip-path:url(#SVGID_00000180350623415610631350000010965956206832794044_);fill:url(#SVGID_00000008132015336471717920000011276203436614524580_);}
	.st110{clip-path:url(#SVGID_00000180350623415610631350000010965956206832794044_);}
	
		.st111{clip-path:url(#SVGID_00000173864755938002666510000002604285306109388691_);fill:url(#SVGID_00000051354624097332513310000003026790709098264716_);}
	.st112{clip-path:url(#SVGID_00000173864755938002666510000002604285306109388691_);}
	
		.st113{clip-path:url(#SVGID_00000053532837032320325250000017091504693371663784_);fill:url(#SVGID_00000149362187986007800650000017039695235159540120_);}
	.st114{clip-path:url(#SVGID_00000053532837032320325250000017091504693371663784_);}
	
		.st115{clip-path:url(#SVGID_00000127756900095528478720000008476091919402401421_);fill:url(#SVGID_00000180332521262504105400000017388562938087346065_);}
	.st116{clip-path:url(#SVGID_00000127756900095528478720000008476091919402401421_);}
	
		.st117{clip-path:url(#SVGID_00000059287730288435289170000000185323390626806174_);fill:url(#SVGID_00000181767615303002233170000017111841813566856067_);}
	.st118{clip-path:url(#SVGID_00000059287730288435289170000000185323390626806174_);}
	
		.st119{clip-path:url(#SVGID_00000013169079850821548150000016201320372542815879_);fill:url(#SVGID_00000090986769477675679890000011117206783663957424_);}
	.st120{clip-path:url(#SVGID_00000013169079850821548150000016201320372542815879_);}
	
		.st121{clip-path:url(#SVGID_00000182499853566814679970000007218826603598464659_);fill:url(#SVGID_00000040562169042129320120000007003201097868376735_);}
	.st122{clip-path:url(#SVGID_00000182499853566814679970000007218826603598464659_);}
	
		.st123{clip-path:url(#SVGID_00000138550988552371030040000005162925901329558199_);fill:url(#SVGID_00000116218390740342091140000003698529502708061577_);}
	.st124{clip-path:url(#SVGID_00000138550988552371030040000005162925901329558199_);}
	
		.st125{clip-path:url(#SVGID_00000125598373162449264760000014488791961842646691_);fill:url(#SVGID_00000155849371259053087760000013425423070664861374_);}
	.st126{clip-path:url(#SVGID_00000125598373162449264760000014488791961842646691_);}
	
		.st127{clip-path:url(#SVGID_00000043418753294423509520000002299315140119739292_);fill:url(#SVGID_00000133494812600689660710000013692153667302170293_);}
	.st128{clip-path:url(#SVGID_00000043418753294423509520000002299315140119739292_);}
	
		.st129{clip-path:url(#SVGID_00000034792553422707624370000015291166787874153099_);fill:url(#SVGID_00000087378603176214089630000009815899193362382741_);}
	.st130{clip-path:url(#SVGID_00000034792553422707624370000015291166787874153099_);}
	
		.st131{clip-path:url(#SVGID_00000128486786484164113340000002546565099183207353_);fill:url(#SVGID_00000101815184539692801880000009630488874767701399_);}
	.st132{clip-path:url(#SVGID_00000128486786484164113340000002546565099183207353_);}
	
		.st133{clip-path:url(#SVGID_00000146476547889329877150000012113816400552352176_);fill:url(#SVGID_00000124858322004392502120000004072756084745123240_);}
	.st134{clip-path:url(#SVGID_00000146476547889329877150000012113816400552352176_);}
	
		.st135{clip-path:url(#SVGID_00000112611672628397089780000007043878015320454825_);fill:url(#SVGID_00000178169455678918767170000012161129628935684795_);}
	.st136{clip-path:url(#SVGID_00000112611672628397089780000007043878015320454825_);}
	
		.st137{clip-path:url(#SVGID_00000067208799238519342540000008427577070428612240_);fill:url(#SVGID_00000004536101869740637250000012162826309468015497_);}
	.st138{clip-path:url(#SVGID_00000067208799238519342540000008427577070428612240_);}
	
		.st139{clip-path:url(#SVGID_00000119796919317227954680000016971876341638951079_);fill:url(#SVGID_00000049220141350879974440000008735540221325694653_);}
	.st140{clip-path:url(#SVGID_00000119796919317227954680000016971876341638951079_);}
	
		.st141{clip-path:url(#SVGID_00000008124486158259408650000001764667197650049208_);fill:url(#SVGID_00000011748314979208645180000002267165768629868701_);}
	.st142{clip-path:url(#SVGID_00000008124486158259408650000001764667197650049208_);}
	
		.st143{clip-path:url(#SVGID_00000158748410575413626530000016402375734140314754_);fill:url(#SVGID_00000065066675647219058000000002154340423025069492_);}
	.st144{clip-path:url(#SVGID_00000158748410575413626530000016402375734140314754_);}
	
		.st145{clip-path:url(#SVGID_00000136376964070913142290000004555930552225187007_);fill:url(#SVGID_00000134219805668698859300000011874200699005299608_);}
	.st146{clip-path:url(#SVGID_00000136376964070913142290000004555930552225187007_);}
	.st147{clip-path:url(#SVGID_00000111882800990207963860000002432447742186809731_);}
	
		.st148{clip-path:url(#XMLID_00000164478183779159319640000014348588778051745465_);fill:none;stroke:#00A55A;stroke-width:30.2013;stroke-miterlimit:10;}
	.st149{clip-path:url(#XMLID_00000164478183779159319640000014348588778051745465_);fill:#FADC4B;}
	
		.st150{clip-path:url(#SVGID_00000111882800990207963860000002432447742186809731_);fill:url(#SVGID_00000183954571871498823350000008253487601636160399_);}
	.st151{clip-path:url(#SVGID_00000125563837614810011050000007776923833700371846_);}
	
		.st152{clip-path:url(#XMLID_00000054950066044763627320000008977835217815659160_);fill:none;stroke:#458B4F;stroke-width:7.6574;stroke-miterlimit:10;}
	.st153{clip-path:url(#XMLID_00000054950066044763627320000008977835217815659160_);fill:#00A55A;}
	
		.st154{clip-path:url(#XMLID_00000054950066044763627320000008977835217815659160_);fill:none;stroke:#00A55A;stroke-width:7.6574;stroke-miterlimit:10;}
	
		.st155{clip-path:url(#SVGID_00000125563837614810011050000007776923833700371846_);fill:url(#SVGID_00000058550706582151669300000001673984378777971357_);}
	.st156{clip-path:url(#SVGID_00000135672168064131759140000010336593149730996898_);}
	
		.st157{clip-path:url(#XMLID_00000101076835933098934400000014152007605815511988_);fill:none;stroke:#00A55A;stroke-width:7.6245;stroke-miterlimit:10;}
	.st158{clip-path:url(#XMLID_00000101076835933098934400000014152007605815511988_);}
	.st159{fill:none;stroke:#00A55A;stroke-width:1.5249;stroke-miterlimit:10;}
	.st160{fill:none;stroke:#00A55A;stroke-width:3.5581;stroke-miterlimit:10;}
	.st161{fill:none;stroke:#00A55A;stroke-width:5.5913;stroke-miterlimit:10;}
	.st162{fill:none;stroke:#00A55A;stroke-width:7.6245;stroke-miterlimit:10;}
	
		.st163{clip-path:url(#SVGID_00000135672168064131759140000010336593149730996898_);fill:url(#SVGID_00000021118837826216807350000015614833479067822218_);}
	.st164{clip-path:url(#SVGID_00000048460628482955286170000014830150937250686895_);}
	
		.st165{clip-path:url(#XMLID_00000161591857297202351550000005410391601630468511_);fill:none;stroke:#00A55A;stroke-width:30.2013;stroke-miterlimit:10;}
	.st166{clip-path:url(#XMLID_00000161591857297202351550000005410391601630468511_);fill:#FADC4B;}
	
		.st167{clip-path:url(#SVGID_00000048460628482955286170000014830150937250686895_);fill:url(#SVGID_00000024704095472928901760000001898206584813064615_);}
	.st168{clip-path:url(#SVGID_00000007430486609452007060000001960681390706884749_);}
	
		.st169{clip-path:url(#XMLID_00000097470872044448434460000000291446838395001480_);fill:none;stroke:#00A55A;stroke-width:30.2013;stroke-miterlimit:10;}
	.st170{clip-path:url(#XMLID_00000097470872044448434460000000291446838395001480_);fill:#FADC4B;}
	
		.st171{clip-path:url(#SVGID_00000007430486609452007060000001960681390706884749_);fill:url(#SVGID_00000129171736859363584790000016204839277866244507_);}
	.st172{clip-path:url(#SVGID_00000144299044770044987800000011786723508179033776_);}
	
		.st173{clip-path:url(#XMLID_00000044863222635009058060000017003334605332135826_);fill:none;stroke:#00A55A;stroke-width:30.2013;stroke-miterlimit:10;}
	.st174{clip-path:url(#XMLID_00000044863222635009058060000017003334605332135826_);fill:#FADC4B;}
	
		.st175{clip-path:url(#SVGID_00000144299044770044987800000011786723508179033776_);fill:url(#SVGID_00000141438231788065600540000011107040502027931279_);}
	.st176{clip-path:url(#SVGID_00000117678812615147782120000000779555969321299903_);}
	.st177{clip-path:url(#XMLID_00000021825540929778404800000004456493418369091983_);}
	.st178{fill:none;stroke:#00A55A;stroke-width:12.0963;stroke-miterlimit:10;}
	.st179{fill:none;stroke:#00A55A;stroke-width:3.0241;stroke-miterlimit:10;}
	
		.st180{clip-path:url(#XMLID_00000021825540929778404800000004456493418369091983_);fill:none;stroke:#00A55A;stroke-width:12.0963;stroke-miterlimit:10;}
	
		.st181{clip-path:url(#XMLID_00000021825540929778404800000004456493418369091983_);fill:none;stroke:#00A55A;stroke-width:6.0482;stroke-miterlimit:10;}
	.st182{clip-path:url(#XMLID_00000021825540929778404800000004456493418369091983_);fill:#00A55A;}
	.st183{clip-path:url(#XMLID_00000021825540929778404800000004456493418369091983_);fill:#FADC4B;}
	
		.st184{clip-path:url(#XMLID_00000021825540929778404800000004456493418369091983_);fill:none;stroke:#00A55A;stroke-width:7.5602;stroke-miterlimit:10;}
	
		.st185{clip-path:url(#XMLID_00000021825540929778404800000004456493418369091983_);fill:none;stroke:#FADC4B;stroke-width:7.5602;stroke-miterlimit:10;}
	
		.st186{clip-path:url(#SVGID_00000117678812615147782120000000779555969321299903_);fill:url(#SVGID_00000181087548482207532010000001645278991138984628_);}
	.st187{clip-path:url(#SVGID_00000091728100374918985770000009484850718174005432_);}
	
		.st188{clip-path:url(#XMLID_00000083781180753072823820000012952271501764329092_);fill:none;stroke:#00A55A;stroke-width:30.4077;stroke-miterlimit:10;}
	.st189{clip-path:url(#XMLID_00000083781180753072823820000012952271501764329092_);fill:#FADC4B;}
	
		.st190{clip-path:url(#SVGID_00000091728100374918985770000009484850718174005432_);fill:url(#SVGID_00000118376946516055488910000001743514228780955057_);}
	.st191{clip-path:url(#SVGID_00000087391832710513639400000003553236268253693108_);}
	.st192{clip-path:url(#XMLID_00000117636671705250529840000011449157449342945982_);}
	
		.st193{clip-path:url(#XMLID_00000117636671705250529840000011449157449342945982_);fill:none;stroke:#00A55A;stroke-width:12.0963;stroke-miterlimit:10;}
	
		.st194{clip-path:url(#XMLID_00000117636671705250529840000011449157449342945982_);fill:none;stroke:#00A55A;stroke-width:6.0482;stroke-miterlimit:10;}
	.st195{clip-path:url(#XMLID_00000117636671705250529840000011449157449342945982_);fill:#00A55A;}
	.st196{clip-path:url(#XMLID_00000117636671705250529840000011449157449342945982_);fill:#FADC4B;}
	
		.st197{clip-path:url(#XMLID_00000117636671705250529840000011449157449342945982_);fill:none;stroke:#00A55A;stroke-width:7.5602;stroke-miterlimit:10;}
	
		.st198{clip-path:url(#XMLID_00000117636671705250529840000011449157449342945982_);fill:none;stroke:#FADC4B;stroke-width:7.5602;stroke-miterlimit:10;}
	
		.st199{clip-path:url(#SVGID_00000087391832710513639400000003553236268253693108_);fill:url(#SVGID_00000176017940114924509500000003868041722123792281_);}
	.st200{clip-path:url(#SVGID_00000054244284399528411610000004213600723638675867_);}
	.st201{clip-path:url(#XMLID_00000134958756037437072430000012101394360500518305_);}
	
		.st202{clip-path:url(#XMLID_00000134958756037437072430000012101394360500518305_);fill:none;stroke:#00A55A;stroke-width:12.0963;stroke-miterlimit:10;}
	
		.st203{clip-path:url(#XMLID_00000134958756037437072430000012101394360500518305_);fill:none;stroke:#00A55A;stroke-width:6.0482;stroke-miterlimit:10;}
	.st204{clip-path:url(#XMLID_00000134958756037437072430000012101394360500518305_);fill:#00A55A;}
	.st205{clip-path:url(#XMLID_00000134958756037437072430000012101394360500518305_);fill:#FADC4B;}
	
		.st206{clip-path:url(#XMLID_00000134958756037437072430000012101394360500518305_);fill:none;stroke:#00A55A;stroke-width:7.5602;stroke-miterlimit:10;}
	
		.st207{clip-path:url(#XMLID_00000134958756037437072430000012101394360500518305_);fill:none;stroke:#FADC4B;stroke-width:7.5602;stroke-miterlimit:10;}
	
		.st208{clip-path:url(#SVGID_00000054244284399528411610000004213600723638675867_);fill:url(#SVGID_00000157273068765176175500000016831700815871464088_);}
	.st209{clip-path:url(#SVGID_00000020399788723209613710000015339654045370556335_);}
	.st210{clip-path:url(#XMLID_00000126292894804399575410000002386217091773497485_);}
	
		.st211{clip-path:url(#XMLID_00000126292894804399575410000002386217091773497485_);fill:none;stroke:#00A55A;stroke-width:12.0963;stroke-miterlimit:10;}
	
		.st212{clip-path:url(#XMLID_00000126292894804399575410000002386217091773497485_);fill:none;stroke:#00A55A;stroke-width:6.0482;stroke-miterlimit:10;}
	.st213{clip-path:url(#XMLID_00000126292894804399575410000002386217091773497485_);fill:#00A55A;}
	.st214{clip-path:url(#XMLID_00000126292894804399575410000002386217091773497485_);fill:#FADC4B;}
	
		.st215{clip-path:url(#XMLID_00000126292894804399575410000002386217091773497485_);fill:none;stroke:#00A55A;stroke-width:7.5602;stroke-miterlimit:10;}
	
		.st216{clip-path:url(#XMLID_00000126292894804399575410000002386217091773497485_);fill:none;stroke:#FADC4B;stroke-width:7.5602;stroke-miterlimit:10;}
	
		.st217{clip-path:url(#SVGID_00000020399788723209613710000015339654045370556335_);fill:url(#SVGID_00000145041599122125896830000015840428767611855275_);}
	.st218{clip-path:url(#SVGID_00000139258791683011458890000011537853946012061859_);}
	
		.st219{clip-path:url(#XMLID_00000148659668733463326520000013392885679085761972_);fill:none;stroke:#00A55A;stroke-width:7.6245;stroke-miterlimit:10;}
	.st220{clip-path:url(#XMLID_00000148659668733463326520000013392885679085761972_);}
	
		.st221{clip-path:url(#SVGID_00000139258791683011458890000011537853946012061859_);fill:url(#SVGID_00000051356685259634125330000016329485300140989367_);}
	.st222{clip-path:url(#SVGID_00000065795601989144724950000008857904533158487206_);}
	
		.st223{clip-path:url(#XMLID_00000002351745427589978320000017140845296767783356_);fill:none;stroke:#00A55A;stroke-width:7.6245;stroke-miterlimit:10;}
	.st224{clip-path:url(#XMLID_00000002351745427589978320000017140845296767783356_);}
	
		.st225{clip-path:url(#SVGID_00000065795601989144724950000008857904533158487206_);fill:url(#SVGID_00000098207445720988395870000000193861492549709475_);}
	.st226{clip-path:url(#SVGID_00000034785023584110505280000015219252772557002888_);}
	
		.st227{clip-path:url(#XMLID_00000078025119590652507540000002836065441747420075_);fill:none;stroke:#458B4F;stroke-width:7.6574;stroke-miterlimit:10;}
	.st228{clip-path:url(#XMLID_00000078025119590652507540000002836065441747420075_);fill:#00A55A;}
	
		.st229{clip-path:url(#XMLID_00000078025119590652507540000002836065441747420075_);fill:none;stroke:#00A55A;stroke-width:7.6574;stroke-miterlimit:10;}
	
		.st230{clip-path:url(#SVGID_00000034785023584110505280000015219252772557002888_);fill:url(#SVGID_00000132781854492170527210000016886787919851708345_);}
	
		.st231{clip-path:url(#XMLID_00000141434669886501423490000007049155622261953439_);fill:none;stroke:#00A55A;stroke-width:5;stroke-miterlimit:10;}
	.st232{clip-path:url(#XMLID_00000141434669886501423490000007049155622261953439_);}
	.st233{fill:none;stroke:#00A55A;stroke-miterlimit:10;}
	.st234{fill:none;stroke:#00A55A;stroke-width:2.3333;stroke-miterlimit:10;}
	.st235{fill:none;stroke:#00A55A;stroke-width:3.6667;stroke-miterlimit:10;}
	.st236{fill:none;stroke:#00A55A;stroke-width:5;stroke-miterlimit:10;}
	.st237{clip-path:url(#SVGID_00000008843838476908345780000000131477599855738778_);}
	.st238{clip-path:url(#XMLID_00000158723304701179836490000000917615118900589738_);}
	.st239{fill:#4B4B53;}
	.st240{clip-path:url(#XMLID_00000158723304701179836490000000917615118900589738_);fill:#FFFFFF;}
	
		.st241{clip-path:url(#XMLID_00000158723304701179836490000000917615118900589738_);fill:none;stroke:#BBBBBE;stroke-width:10;stroke-miterlimit:10;}
	
		.st242{clip-path:url(#XMLID_00000158723304701179836490000000917615118900589738_);fill:#D2D2D4;stroke:#FFFFFF;stroke-width:10;stroke-miterlimit:10;}
	.st243{clip-path:url(#XMLID_00000158723304701179836490000000917615118900589738_);fill:#00A55A;}
	
		.st244{clip-path:url(#XMLID_00000158723304701179836490000000917615118900589738_);fill:none;stroke:#FFFFFF;stroke-width:10;stroke-miterlimit:10;}
	.st245{clip-path:url(#SVGID_00000137113671769478765050000013895350723714203572_);}
	.st246{fill:#BBBBBE;}
	.st247{fill:#D2D2D4;}
	.st248{opacity:0.75;}
	
		.st249{clip-path:url(#XMLID_00000085932703447186028820000017093488922755797645_);fill:none;stroke:#000000;stroke-width:5.4515;stroke-miterlimit:10;}
	
		.st250{clip-path:url(#XMLID_00000085932703447186028820000017093488922755797645_);fill:none;stroke:#000000;stroke-width:1.0903;stroke-miterlimit:10;}
	
		.st251{clip-path:url(#XMLID_00000085932703447186028820000017093488922755797645_);fill:none;stroke:#000000;stroke-width:2.5441;stroke-miterlimit:10;}
	
		.st252{clip-path:url(#XMLID_00000085932703447186028820000017093488922755797645_);fill:none;stroke:#000000;stroke-width:3.9978;stroke-miterlimit:10;}
	
		.st253{clip-path:url(#XMLID_00000093176111647433253500000003281518551921596072_);fill:none;stroke:#00A55A;stroke-width:5.4515;stroke-miterlimit:10;}
	.st254{clip-path:url(#XMLID_00000093176111647433253500000003281518551921596072_);}
	.st255{fill:none;stroke:#00A55A;stroke-width:1.0903;stroke-miterlimit:10;}
	.st256{fill:none;stroke:#00A55A;stroke-width:2.5441;stroke-miterlimit:10;}
	.st257{fill:none;stroke:#00A55A;stroke-width:3.9978;stroke-miterlimit:10;}
	.st258{fill:none;stroke:#00A55A;stroke-width:5.4515;stroke-miterlimit:10;}
	
		.st259{clip-path:url(#XMLID_00000106834777047339680700000012352063829561379233_);fill:none;stroke:#458B4F;stroke-width:5;stroke-miterlimit:10;}
	.st260{clip-path:url(#XMLID_00000106834777047339680700000012352063829561379233_);fill:#00A55A;}
	
		.st261{clip-path:url(#XMLID_00000106834777047339680700000012352063829561379233_);fill:none;stroke:#00A55A;stroke-width:5;stroke-miterlimit:10;}
	
		.st262{clip-path:url(#XMLID_00000083780433742444526860000018018480151727679643_);fill:none;stroke:#00A55A;stroke-width:20;stroke-miterlimit:10;}
	.st263{clip-path:url(#XMLID_00000083780433742444526860000018018480151727679643_);fill:#FADC4B;}
	.st264{clip-path:url(#XMLID_00000181783449532537964700000014488023236310987176_);}
	.st265{fill:none;stroke:#00A55A;stroke-width:8;stroke-miterlimit:10;}
	.st266{fill:none;stroke:#00A55A;stroke-width:2;stroke-miterlimit:10;}
	
		.st267{clip-path:url(#XMLID_00000181783449532537964700000014488023236310987176_);fill:none;stroke:#00A55A;stroke-width:8;stroke-miterlimit:10;}
	
		.st268{clip-path:url(#XMLID_00000181783449532537964700000014488023236310987176_);fill:none;stroke:#00A55A;stroke-width:4;stroke-miterlimit:10;}
	.st269{clip-path:url(#XMLID_00000181783449532537964700000014488023236310987176_);fill:#00A55A;}
	.st270{clip-path:url(#XMLID_00000181783449532537964700000014488023236310987176_);fill:#FADC4B;}
	
		.st271{clip-path:url(#XMLID_00000181783449532537964700000014488023236310987176_);fill:none;stroke:#00A55A;stroke-width:5;stroke-miterlimit:10;}
	
		.st272{clip-path:url(#XMLID_00000181783449532537964700000014488023236310987176_);fill:none;stroke:#FADC4B;stroke-width:5;stroke-miterlimit:10;}
	
		.st273{clip-path:url(#XMLID_00000055670021063243406860000004151583514552514180_);fill:none;stroke:#000000;stroke-width:8.6998;stroke-miterlimit:10;}
	
		.st274{clip-path:url(#XMLID_00000055670021063243406860000004151583514552514180_);fill:none;stroke:#000000;stroke-width:2.1749;stroke-miterlimit:10;}
	
		.st275{clip-path:url(#XMLID_00000055670021063243406860000004151583514552514180_);fill:none;stroke:#000000;stroke-width:4.3499;stroke-miterlimit:10;}
	.st276{clip-path:url(#XMLID_00000055670021063243406860000004151583514552514180_);}
	
		.st277{clip-path:url(#XMLID_00000055670021063243406860000004151583514552514180_);fill:none;stroke:#000000;stroke-width:5.4374;stroke-miterlimit:10;}
	.st278{clip-path:url(#XMLID_00000111156761491947045870000000179626821753777579_);}
	.st279{fill:none;stroke:#00A55A;stroke-width:8.6998;stroke-miterlimit:10;}
	.st280{fill:none;stroke:#00A55A;stroke-width:2.1749;stroke-miterlimit:10;}
	
		.st281{clip-path:url(#XMLID_00000111156761491947045870000000179626821753777579_);fill:none;stroke:#00A55A;stroke-width:8.6998;stroke-miterlimit:10;}
	
		.st282{clip-path:url(#XMLID_00000111156761491947045870000000179626821753777579_);fill:none;stroke:#00A55A;stroke-width:4.3499;stroke-miterlimit:10;}
	.st283{clip-path:url(#XMLID_00000111156761491947045870000000179626821753777579_);fill:#00A55A;}
	.st284{clip-path:url(#XMLID_00000111156761491947045870000000179626821753777579_);fill:#FADC4B;}
	
		.st285{clip-path:url(#XMLID_00000111156761491947045870000000179626821753777579_);fill:none;stroke:#00A55A;stroke-width:5.4374;stroke-miterlimit:10;}
	
		.st286{clip-path:url(#XMLID_00000111156761491947045870000000179626821753777579_);fill:none;stroke:#FADC4B;stroke-width:5.4374;stroke-miterlimit:10;}
	
		.st287{clip-path:url(#XMLID_00000073710400333584757240000010343008314176048771_);fill:none;stroke:#FFFFFF;stroke-width:10;stroke-miterlimit:10;}
	
		.st288{clip-path:url(#XMLID_00000073710400333584757240000010343008314176048771_);fill:none;stroke:#00A55A;stroke-width:15;stroke-miterlimit:10;}
	.st289{clip-path:url(#XMLID_00000073710400333584757240000010343008314176048771_);}
	.st290{fill:none;stroke:#FFFFFF;stroke-width:10.0653;stroke-miterlimit:10;}
	
		.st291{clip-path:url(#XMLID_00000063633626402443542540000001612945130561008043_);fill:none;stroke:#000000;stroke-width:5.4232;stroke-miterlimit:10;}
	.st292{clip-path:url(#XMLID_00000063633626402443542540000001612945130561008043_);}
	
		.st293{clip-path:url(#XMLID_00000014591733179464954240000017940528025565433269_);fill:none;stroke:#458B4F;stroke-width:5.4232;stroke-miterlimit:10;}
	.st294{clip-path:url(#XMLID_00000014591733179464954240000017940528025565433269_);fill:#00A55A;}
	
		.st295{clip-path:url(#XMLID_00000014591733179464954240000017940528025565433269_);fill:none;stroke:#00A55A;stroke-width:5.4232;stroke-miterlimit:10;}
	
		.st296{clip-path:url(#XMLID_00000136397469195745010780000001966769642870102149_);fill:none;stroke:#000000;stroke-width:10.9031;stroke-miterlimit:10;}
	
		.st297{clip-path:url(#XMLID_00000136397469195745010780000001966769642870102149_);fill:none;stroke:#000000;stroke-width:16.3546;stroke-miterlimit:10;}
	.st298{clip-path:url(#XMLID_00000136397469195745010780000001966769642870102149_);}
	
		.st299{clip-path:url(#XMLID_00000136397469195745010780000001966769642870102149_);fill:none;stroke:#000000;stroke-width:10.9743;stroke-miterlimit:10;}
	
		.st300{clip-path:url(#XMLID_00000147189796059185741440000014500502792716629178_);fill:none;stroke:#FFFFFF;stroke-width:10.9031;stroke-miterlimit:10;}
	
		.st301{clip-path:url(#XMLID_00000147189796059185741440000014500502792716629178_);fill:none;stroke:#00A55A;stroke-width:16.3546;stroke-miterlimit:10;}
	.st302{clip-path:url(#XMLID_00000147189796059185741440000014500502792716629178_);}
	.st303{fill:none;stroke:#FFFFFF;stroke-width:10.9743;stroke-miterlimit:10;}
	
		.st304{clip-path:url(#XMLID_00000153681850428151443040000000202875160587842695_);fill:none;stroke:#000000;stroke-width:21.7358;stroke-miterlimit:10;}
	.st305{clip-path:url(#XMLID_00000153681850428151443040000000202875160587842695_);}
	
		.st306{clip-path:url(#XMLID_00000165937235654284692240000013274575486778017454_);fill:none;stroke:#00A55A;stroke-width:21.7358;stroke-miterlimit:10;}
	.st307{clip-path:url(#XMLID_00000165937235654284692240000013274575486778017454_);fill:#FADC4B;}
	.st308{clip-path:url(#SVGID_00000040560414954796245760000009819048009924222115_);}
	.st309{clip-path:url(#SVGID_00000142871688170502724740000017220328334023864737_);}
</style>
<g id="txt">
</g>
<g id="test">
</g>
<g id="logo" class="st47">
</g>
<g id="cartes_v2" class="st47">
</g>
<g id="maillot">
	<g>
		<g class="st248">
			<path d="M55.2,342.6c-18.9-11.7-30.2-32-30.2-54.3V21h292.8v267.3c0,22.3-11.3,42.6-30.2,54.3l-116.2,72.1L55.2,342.6z"/>
			<path d="M302.8,36v252.3c0,17-8.6,32.6-23.1,41.6L171.4,397L63.1,329.8c-14.5-9-23.1-24.5-23.1-41.6V36H302.8 M332.8,6H10v282.3
				c0,27.3,14.1,52.7,37.3,67.1l124.1,77l124.1-77c23.2-14.4,37.3-39.8,37.3-67.1V6L332.8,6z"/>
		</g>
		<g>
			<path class="st11" d="M45.2,336.6c-18.9-11.7-30.2-32-30.2-54.3V15h292.8v267.3c0,22.3-11.3,42.6-30.2,54.3l-116.2,72.1
				L45.2,336.6z"/>
			<path class="st16" d="M292.8,30v252.3c0,17-8.6,32.6-23.1,41.6L161.4,391L53.1,323.8c-14.5-9-23.1-24.5-23.1-41.6V30H292.8
				 M322.8,0H0v282.3c0,27.3,14.1,52.7,37.3,67.1l124.1,77l124.1-77c23.2-14.4,37.3-39.8,37.3-67.1V0L322.8,0z"/>
		</g>
	</g>
	<g>
		<g class="st248">
			<g>
				<defs>
					<path id="SVGID_00000008141329949926437000000005041036007759456175_" d="M296.2,108c-15.8-10.1-26.6-16.5-44.7-28.2
						c-4.9-3.2-19.6-0.2-31.7-3.6c-4.3-1.2-8.3-3.2-11.4-6.5c-6-6.5-13.4-9.1-21.7-9.1c-5.3,0-23.8-0.2-27.5-0.2
						c-9.8,0-18.6,1.7-25.5,9.2c-3,3.2-6.8,5.2-10.8,6.4c-12.3,3.7-27.3,0.4-32.3,3.7c-18.1,11.7-28.9,18-44.7,28.2
						c-15.9,10.2-13.8,13.1-8.8,26.9c3.7,10.9,15.1,36.5,17.8,43.9c4.3,12.2,30.5-17.6,30.5,0.7c0.5,43.3-0.7,86.6,0.5,129.9
						c0.9,10,8.7,11.1,17.2,11.1c19.7-0.1,116.3-0.1,136.1,0c8.5,0,16.3-1.2,17.2-11.1c1.2-43.2,0-86.6,0.5-129.9
						c0-18.3,26,11.4,30.5-0.7c4.5-12,14.6-37.8,19.2-48.3C312.6,116.7,309,116.2,296.2,108z"/>
				</defs>
				<clipPath id="SVGID_00000023981153877248826410000015009237789894358660_">
					<use xlink:href="#SVGID_00000008141329949926437000000005041036007759456175_"  style="overflow:visible;"/>
				</clipPath>
			</g>
			<g>
				<defs>
					<path id="SVGID_00000100340928290779224870000000299711201133870245_" d="M296.2,108c-15.8-10.1-26.6-16.5-44.7-28.2
						c-4.9-3.2-19.6-0.2-31.7-3.6c-4.3-1.2-8.3-3.2-11.4-6.5c-6-6.5-13.4-9.1-21.7-9.1c-5.3,0-23.8-0.2-27.5-0.2
						c-9.8,0-18.6,1.7-25.5,9.2c-3,3.2-6.8,5.2-10.8,6.4c-12.3,3.7-27.3,0.4-32.3,3.7c-18.1,11.7-28.9,18-44.7,28.2
						c-15.9,10.2-13.8,13.1-8.8,26.9c3.7,10.9,15.1,36.5,17.8,43.9c4.3,12.2,30.5-17.6,30.5,0.7c0.5,43.3-0.7,86.6,0.5,129.9
						c0.9,10,8.7,11.1,17.2,11.1c19.7-0.1,116.3-0.1,136.1,0c8.5,0,16.3-1.2,17.2-11.1c1.2-43.2,0-86.6,0.5-129.9
						c0-18.3,26,11.4,30.5-0.7c4.5-12,14.6-37.8,19.2-48.3C312.6,116.7,309,116.2,296.2,108z"/>
				</defs>
				<use xlink:href="#SVGID_00000100340928290779224870000000299711201133870245_"  style="overflow:visible;"/>
				<clipPath id="SVGID_00000044884848755657407430000018420939613844757140_">
					<use xlink:href="#SVGID_00000100340928290779224870000000299711201133870245_"  style="overflow:visible;"/>
				</clipPath>
				<path style="clip-path:url(#SVGID_00000044884848755657407430000018420939613844757140_);" d="M215.9,99.4l7.3-8.3
					c0,0-9.4-8.1-14.8-21.2l-37,185.9l0,7.3c41.7-30.4,59.2-104,59-153.4L215.9,99.4z"/>
				<path style="clip-path:url(#SVGID_00000044884848755657407430000018420939613844757140_);" d="M134.4,69.8
					C129,82.9,119.6,91,119.6,91l7.3,8.3l-14.5,10.2c-0.2,49.4,17.3,123,59,153.4l0-7.3L134.4,69.8z"/>
				<path style="clip-path:url(#SVGID_00000044884848755657407430000018420939613844757140_);" d="M185.1,235.5
					C185.1,235.5,185.1,235.5,185.1,235.5c-3.8,7.4-8.3,14.2-13.7,20.1c-5.4-6-9.9-12.8-13.7-20.1c0,0,0,0,0,0
					c-20.6-39.8-19.1-133.3-17.6-146.2l62.7,0.8C204.2,103.8,205.3,196.3,185.1,235.5z"/>
				<path style="clip-path:url(#SVGID_00000044884848755657407430000018420939613844757140_);" d="M163.1,109.7
					c-19.8-11-30.5-20.7-31.8-28.7c-0.5-3.3,0.5-6.5,2.8-9c9.1-9.5,15.2-10.5,27-10.5h20.4c12.2,0,18.1,0.9,27.1,10.4
					c2.3,2.4,3.3,5.6,2.8,8.9c-1.2,8-11.9,17.7-31.7,28.8l-5.3-9.5c19.3-10.8,25.9-18.5,26.3-20.9c-6.2-6.5-8.8-7-19.2-7h-20.4
					c-10.3,0-12.9,0.6-19.1,7.1c0.4,2.3,7,10.1,26.3,20.7L163.1,109.7z"/>
				<path style="clip-path:url(#SVGID_00000044884848755657407430000018420939613844757140_);" d="M177.1,102
					c12.2-6.9,35.1-21.4,27.6-29.3c-7.6-8-11.8-8.7-23.1-8.7c-0.7,0-19.7,0-20.4,0c-11.4,0-15.5,0.9-23.1,8.9
					c-7.4,7.8,15.3,22.3,27.6,29.2"/>
				<path style="clip-path:url(#SVGID_00000044884848755657407430000018420939613844757140_);" d="M163.1,106.8
					c-19.8-11-30.5-20.7-31.8-28.7c-0.5-3.3,0.5-6.5,2.8-9c9.1-9.5,15.2-10.5,27-10.5h20.4c12.2,0,18.1,0.9,27.1,10.4
					c2.3,2.4,3.3,5.6,2.8,8.9c-1.2,8-11.9,17.7-31.7,28.8l-5.3-9.5c19.3-10.8,25.9-18.5,26.3-20.9c-6.2-6.5-8.8-7-19.2-7h-20.4
					c-10.3,0-12.9,0.6-19.1,7.1c0.4,2.3,7,10.1,26.3,20.7L163.1,106.8z"/>
				<path style="clip-path:url(#SVGID_00000044884848755657407430000018420939613844757140_);" d="M185.1,235.6
					c-3.8,7.3-8.3,14.1-13.6,20.1c-5.4-6-9.9-12.8-13.7-20.1c0,0,6.8-112.7,7.9-122c0.2-1.9-0.3-3.8-1.4-5.4l-2.6-3.5l3.6-7.4h12.5
					l3.6,7.4l-2.6,3.5c-1.2,1.5-1.7,3.5-1.4,5.4C178.3,122.8,185.1,235.5,185.1,235.6z"/>
				<path style="clip-path:url(#SVGID_00000044884848755657407430000018420939613844757140_);" d="M163.1,106.8
					c-19.8-11-30.5-20.7-31.8-28.7c-0.5-3.3,0.5-6.5,2.8-9c9.1-9.5,15.2-10.5,27-10.5h20.4c12.2,0,18.1,0.9,27.1,10.4
					c2.3,2.4,3.3,5.6,2.8,8.9c-1.2,8-11.9,17.7-31.7,28.8l-5.3-9.5c19.3-10.8,25.9-18.5,26.3-20.9c-6.2-6.5-8.8-7-19.2-7h-20.4
					c-10.3,0-12.9,0.6-19.1,7.1c0.4,2.3,7,10.1,26.3,20.7L163.1,106.8z"/>
			</g>
			<g>
				<defs>
					<path id="SVGID_00000011004119697731459670000016670879192889943991_" d="M296.2,108c-15.8-10.1-26.6-16.5-44.7-28.2
						c-4.9-3.2-19.6-0.2-31.7-3.6c-4.3-1.2-8.3-3.2-11.4-6.5c-6-6.5-13.4-9.1-21.7-9.1c-5.3,0-23.8-0.2-27.5-0.2
						c-9.8,0-18.6,1.7-25.5,9.2c-3,3.2-6.8,5.2-10.8,6.4c-12.3,3.7-27.3,0.4-32.3,3.7c-18.1,11.7-28.9,18-44.7,28.2
						c-15.9,10.2-13.8,13.1-8.8,26.9c3.7,10.9,15.1,36.5,17.8,43.9c4.3,12.2,30.5-17.6,30.5,0.7c0.5,43.3-0.7,86.6,0.5,129.9
						c0.9,10,8.7,11.1,17.2,11.1c19.7-0.1,116.3-0.1,136.1,0c8.5,0,16.3-1.2,17.2-11.1c1.2-43.2,0-86.6,0.5-129.9
						c0-18.3,26,11.4,30.5-0.7c4.5-12,14.6-37.8,19.2-48.3C312.6,116.7,309,116.2,296.2,108z"/>
				</defs>
				<clipPath id="SVGID_00000125597509965874958240000002381422877636068748_">
					<use xlink:href="#SVGID_00000011004119697731459670000016670879192889943991_"  style="overflow:visible;"/>
				</clipPath>
			</g>
		</g>
		<g>
			<g>
				<defs>
					<path id="SVGID_00000050638678457216104250000017787815383212665987_" d="M286.2,102c-15.8-10.1-26.6-16.5-44.7-28.2
						c-4.9-3.2-19.6-0.2-31.7-3.6c-4.3-1.2-8.3-3.2-11.4-6.5c-6-6.5-13.4-9.1-21.7-9.1c-5.3,0-23.8-0.2-27.5-0.2
						c-9.8,0-18.6,1.7-25.5,9.2c-3,3.2-6.8,5.2-10.8,6.4c-12.3,3.7-27.3,0.4-32.3,3.7c-18.1,11.7-28.9,18-44.7,28.2
						c-15.9,10.2-13.8,13.1-8.8,26.9c3.7,10.9,15.1,36.5,17.8,43.9c4.3,12.2,30.5-17.6,30.5,0.7c0.5,43.3-0.7,86.6,0.5,129.9
						c0.9,10,8.7,11.1,17.2,11.1c19.7-0.1,116.3-0.1,136.1,0c8.5,0,16.3-1.2,17.2-11.1c1.2-43.2,0-86.6,0.5-129.9
						c0-18.3,26,11.4,30.5-0.7c4.5-12,14.6-37.8,19.2-48.3C302.6,110.7,299,110.2,286.2,102z"/>
				</defs>
				<clipPath id="SVGID_00000135661781340592605290000017451925550902916507_">
					<use xlink:href="#SVGID_00000050638678457216104250000017787815383212665987_"  style="overflow:visible;"/>
				</clipPath>
			</g>
			<g>
				<defs>
					<path id="SVGID_00000029005393283647925590000003613760050792695957_" d="M286.2,102c-15.8-10.1-26.6-16.5-44.7-28.2
						c-4.9-3.2-19.6-0.2-31.7-3.6c-4.3-1.2-8.3-3.2-11.4-6.5c-6-6.5-13.4-9.1-21.7-9.1c-5.3,0-23.8-0.2-27.5-0.2
						c-9.8,0-18.6,1.7-25.5,9.2c-3,3.2-6.8,5.2-10.8,6.4c-12.3,3.7-27.3,0.4-32.3,3.7c-18.1,11.7-28.9,18-44.7,28.2
						c-15.9,10.2-13.8,13.1-8.8,26.9c3.7,10.9,15.1,36.5,17.8,43.9c4.3,12.2,30.5-17.6,30.5,0.7c0.5,43.3-0.7,86.6,0.5,129.9
						c0.9,10,8.7,11.1,17.2,11.1c19.7-0.1,116.3-0.1,136.1,0c8.5,0,16.3-1.2,17.2-11.1c1.2-43.2,0-86.6,0.5-129.9
						c0-18.3,26,11.4,30.5-0.7c4.5-12,14.6-37.8,19.2-48.3C302.6,110.7,299,110.2,286.2,102z"/>
				</defs>
				<use xlink:href="#SVGID_00000029005393283647925590000003613760050792695957_"  style="overflow:visible;fill:#34343D;"/>
				<clipPath id="SVGID_00000172413981397299714360000008698541164307960730_">
					<use xlink:href="#SVGID_00000029005393283647925590000003613760050792695957_"  style="overflow:visible;"/>
				</clipPath>
				<g style="clip-path:url(#SVGID_00000172413981397299714360000008698541164307960730_);">
					<g>
						<path class="st239" d="M205.9,93.4l7.3-8.3c0,0-9.4-8.1-14.8-21.2l-37,185.9l0,7.3c41.7-30.4,59.2-104,59-153.4L205.9,93.4z"
							/>
					</g>
					<g>
						<path class="st239" d="M124.4,63.8C119,76.9,109.6,85,109.6,85l7.3,8.3l-14.5,10.2c-0.2,49.4,17.3,123,59,153.4l0-7.3
							L124.4,63.8z"/>
					</g>
				</g>
				<g style="clip-path:url(#SVGID_00000172413981397299714360000008698541164307960730_);">
					<path class="st16" d="M175.1,229.5C175.1,229.5,175.1,229.5,175.1,229.5c-3.8,7.4-8.3,14.2-13.7,20.1
						c-5.4-6-9.9-12.8-13.7-20.1c0,0,0,0,0,0c-20.6-39.8-19.1-133.3-17.6-146.2l62.7,0.8C194.2,97.8,195.3,190.3,175.1,229.5z"/>
				</g>
				
					<g id="XMLID_00000011020803433065538020000013848729330068437907_" style="clip-path:url(#SVGID_00000172413981397299714360000008698541164307960730_);">
					<path class="st246" d="M153.1,103.7c-19.8-11-30.5-20.7-31.8-28.7c-0.5-3.3,0.5-6.5,2.8-9c9.1-9.5,15.2-10.5,27-10.5h20.4
						c12.2,0,18.1,0.9,27.1,10.4c2.3,2.4,3.3,5.6,2.8,8.9c-1.2,8-11.9,17.7-31.7,28.8l-5.3-9.5c19.3-10.8,25.9-18.5,26.3-20.9
						c-6.2-6.5-8.8-7-19.2-7h-20.4c-10.3,0-12.9,0.6-19.1,7.1c0.4,2.3,7,10.1,26.3,20.7L153.1,103.7z"/>
				</g>
				
					<g id="XMLID_00000118397997791729733750000011449706977721673388_" style="clip-path:url(#SVGID_00000172413981397299714360000008698541164307960730_);">
					<path class="st247" d="M167.1,96c12.2-6.9,35.1-21.4,27.6-29.3c-7.6-8-11.8-8.7-23.1-8.7c-0.7,0-19.7,0-20.4,0
						c-11.4,0-15.5,0.9-23.1,8.9c-7.4,7.8,15.3,22.3,27.6,29.2"/>
					<path class="st16" d="M153.1,100.8c-19.8-11-30.5-20.7-31.8-28.7c-0.5-3.3,0.5-6.5,2.8-9c9.1-9.5,15.2-10.5,27-10.5h20.4
						c12.2,0,18.1,0.9,27.1,10.4c2.3,2.4,3.3,5.6,2.8,8.9c-1.2,8-11.9,17.7-31.7,28.8l-5.3-9.5c19.3-10.8,25.9-18.5,26.3-20.9
						c-6.2-6.5-8.8-7-19.2-7h-20.4c-10.3,0-12.9,0.6-19.1,7.1c0.4,2.3,7,10.1,26.3,20.7L153.1,100.8z"/>
				</g>
				<g style="clip-path:url(#SVGID_00000172413981397299714360000008698541164307960730_);">
					<path class="st12" d="M175.1,229.6c-3.8,7.3-8.3,14.1-13.6,20.1c-5.4-6-9.9-12.8-13.7-20.1c0,0,6.8-112.7,7.9-122
						c0.2-1.9-0.3-3.8-1.4-5.4l-2.6-3.5l3.6-7.4h12.5l3.6,7.4l-2.6,3.5c-1.2,1.5-1.7,3.5-1.4,5.4
						C168.3,116.8,175.1,229.5,175.1,229.6z"/>
				</g>
				
					<g id="XMLID_00000101807393906958707540000007465737929633266077_" style="clip-path:url(#SVGID_00000172413981397299714360000008698541164307960730_);">
					<path class="st16" d="M153.1,100.8c-19.8-11-30.5-20.7-31.8-28.7c-0.5-3.3,0.5-6.5,2.8-9c9.1-9.5,15.2-10.5,27-10.5h20.4
						c12.2,0,18.1,0.9,27.1,10.4c2.3,2.4,3.3,5.6,2.8,8.9c-1.2,8-11.9,17.7-31.7,28.8l-5.3-9.5c19.3-10.8,25.9-18.5,26.3-20.9
						c-6.2-6.5-8.8-7-19.2-7h-20.4c-10.3,0-12.9,0.6-19.1,7.1c0.4,2.3,7,10.1,26.3,20.7L153.1,100.8z"/>
				</g>
			</g>
			<g>
				<defs>
					<path id="SVGID_00000140004454227632702100000007703927237263335301_" d="M286.2,102c-15.8-10.1-26.6-16.5-44.7-28.2
						c-4.9-3.2-19.6-0.2-31.7-3.6c-4.3-1.2-8.3-3.2-11.4-6.5c-6-6.5-13.4-9.1-21.7-9.1c-5.3,0-23.8-0.2-27.5-0.2
						c-9.8,0-18.6,1.7-25.5,9.2c-3,3.2-6.8,5.2-10.8,6.4c-12.3,3.7-27.3,0.4-32.3,3.7c-18.1,11.7-28.9,18-44.7,28.2
						c-15.9,10.2-13.8,13.1-8.8,26.9c3.7,10.9,15.1,36.5,17.8,43.9c4.3,12.2,30.5-17.6,30.5,0.7c0.5,43.3-0.7,86.6,0.5,129.9
						c0.9,10,8.7,11.1,17.2,11.1c19.7-0.1,116.3-0.1,136.1,0c8.5,0,16.3-1.2,17.2-11.1c1.2-43.2,0-86.6,0.5-129.9
						c0-18.3,26,11.4,30.5-0.7c4.5-12,14.6-37.8,19.2-48.3C302.6,110.7,299,110.2,286.2,102z"/>
				</defs>
				<clipPath id="SVGID_00000001626309403232149220000007147907791343739561_">
					<use xlink:href="#SVGID_00000140004454227632702100000007703927237263335301_"  style="overflow:visible;"/>
				</clipPath>
			</g>
		</g>
	</g>
</g>
</svg>
