<?xml version="1.0" encoding="utf-8"?>
<!-- Generator: Adobe Illustrator 28.1.0, SVG Export Plug-In . SVG Version: 6.00 Build 0)  -->
<svg version="1.1" id="Calque_1" xmlns="http://www.w3.org/2000/svg" xmlns:xlink="http://www.w3.org/1999/xlink" x="0px" y="0px"
	 viewBox="0 0 500 500" style="enable-background:new 0 0 500 500;" xml:space="preserve">
<style type="text/css">
	.st0{fill:#120959;}
	.st1{fill:#FFCA41;}
	.st2{fill:#F00000;}
	.st3{fill:#FFFAEC;}
	.st4{fill:#00ECB8;}
	.st5{fill:none;stroke:#120959;stroke-width:4;stroke-miterlimit:10;}
	.st6{fill:#FFFFFF;}
</style>
<g>
	<path class="st0" d="M261.34,431.4c51.94-1.13,104.29-2.32,154.96-13.81c2.46-0.56,5.09-1.25,6.68-3.21
		c1.82-2.24,1.7-5.43,1.49-8.31c-1.56-21.45-3.25-43.4-12.1-63c-4.42-9.78-10.5-18.7-16.56-27.56c-5-7.32-10.01-14.65-15.01-21.97
		c-2.8-4.09-5.72-8.31-9.93-10.93c-3.62-2.25-7.9-3.14-12.05-4.11c-19.6-4.57-36.09-11.38-53.72-21.09
		c2.9,9.22-3.34,19.03-9.69,26.31s-14.98,12.13-23.48,16.72c-4.64,2.51-9.55,5.05-14.83,5.03c-5.3-0.02-10.2-2.62-14.86-5.15
		c-7.93-4.31-15.97-8.7-22.4-15.02c-6.43-6.32-11.17-14.95-10.78-23.96c-22.2,14.07-50.09,17.47-71.48,32.73
		c-15.16,10.81-22.78,28.43-25.97,46.77c-1.75,10.09-4.6,19.51-4.67,29.76c-0.1,13.45-3.08,26.69-3.32,40.02
		c-0.22,12,14.11,12.08,23.24,13.9c28.26,5.63,57.15,7.25,85.91,7.45C228.97,432.1,245.16,431.76,261.34,431.4z"/>
	<path class="st1" d="M202.99,160.64c-1.42-3.33-6.93-2.51-8.76,0.62c-1.83,3.13-1.14,7.06-0.4,10.61
		c1.38,6.58,2.75,13.15,4.13,19.73c0.67,3.19,1.38,6.49,3.33,9.1s5.49,4.34,8.53,3.17c0.52,10.4,4.92,20.57,12.15,28.07
		c7.23,7.5,17.23,12.26,27.61,13.15c4.26,0.37,8.55,0.1,12.82-0.17c3.54-0.22,7.19-0.47,10.36-2.04c4.84-2.4,7.75-7.43,11.89-10.9
		c3.19-2.68,7.11-4.43,10.05-7.37c5.24-5.24,6.44-13.19,7.03-20.57c6.41,0.91,11.2-5.71,13.65-11.71
		c2.28-5.58,3.97-11.41,5.03-17.35c0.64-3.63,0.96-7.69-1.16-10.7s-7.62-3.56-9.11-0.18c3.64-9.15,4.97-20.15-0.37-28.43
		c-3.43-5.32-9.15-8.77-15.07-11.02c-5.92-2.25-12.17-3.48-18.19-5.46c-5.98-1.97-11.73-4.68-17.84-6.19
		c-8.09-1.99-16.54-1.79-24.87-1.59c-3.76,0.09-7.59,0.2-11.17,1.38c-8.41,2.78-13.88,10.9-17.75,18.42
		c-2.23,4.33-2.11,8.17-2.17,13.06C202.65,148.65,201.28,156.63,202.99,160.64z"/>
	<path class="st2" d="M200.29,107.03c2.9-12.82,13.57-22.26,24.35-29.67c5.04-3.47,10.32-6.74,16.18-8.5
		c4.39-1.32,8.99-1.75,13.57-1.85c11.54-0.23,23.22,1.73,33.72,6.56c10.5,4.83,19.79,12.62,25.66,22.64
		c1.97,3.35,3.54,6.92,5.03,10.52c1.1,2.66,2.17,5.41,2.19,8.29c0.02,2.36-0.67,4.66-1.36,6.92c-1.44,4.73-2.87,9.46-4.31,14.19
		c-4.46-3.23-7.85-7.79-12.37-10.94c-4.09-2.85-8.91-4.41-13.65-5.93c-17.15-5.51-34.48-11.05-52.4-12.67
		c-3.74-0.34-7.57-0.49-11.18,0.54c-3.27,0.94-6.19,2.8-8.98,4.74c-2.49,1.73-4.95,3.56-6.9,5.88c-1.67,1.99-5.57,13.47-8.64,10.01
		c-1.55-1.75-1.48-7.86-1.63-10.15C199.34,114.08,199.5,110.5,200.29,107.03z"/>
	<path class="st1" d="M212.18,257.95c-0.06,4.07-0.11,8.23,1.35,12.07c1.48,3.89,4.43,7.19,7.7,10.02
		c7.79,6.74,17.54,11.21,27.21,15.44c2.28,1,4.61,2,7.1,2.39c4.87,0.77,9.8-0.85,14.28-2.75c8.81-3.74,17-8.71,24.19-14.68
		c3.89-3.23,7.68-7.09,8.34-11.86c0.59-4.24-1.39-8.37-2.48-12.53c-1.68-6.41-1.23-13.09-1-19.68c0.08-2.19,0.05-4.59-1.49-6.27
		c-4.99,3.23-10.03,6.5-14.04,10.72c-1.69,1.78-3.21,3.74-5.28,5.15c-2.41,1.64-5.38,2.39-8.27,3.12
		c-4.62,1.16-9.35,2.33-14.13,2.07c-3.47-0.19-17.22-1.38-22.45-3.21c-2.75-0.96-5.75-4.3-10.37-7.77
		c-2.45-1.84-4.89-4.73-7.68-5.84c-3.97-1.59-2.74,8.33-2.78,11.1C212.31,249.61,212.25,253.78,212.18,257.95z"/>
	<polygon class="st3" points="276.61,332.33 276.47,332.42 258.51,343.61 239.83,333.64 239.69,333.56 257.8,322.29 	"/>
	<polygon class="st4" points="276.65,336.9 259.27,369.55 239.76,338.13 239.98,338.12 258.65,348.09 276.62,336.9 	"/>
	
		<rect x="297.82" y="332.31" transform="matrix(0.998 -0.0634 0.0634 0.998 -20.987 20.9371)" class="st1" width="43.62" height="18.14"/>
	<polygon class="st3" points="252.4,157 267.56,190.38 240.54,190.38 	"/>
	<polygon class="st2" points="276.91,209.05 276.74,209.11 254.38,217.02 232.02,209.11 231.85,209.05 254.38,201.07 	"/>
	<polyline class="st5" points="214.06,147.92 229.81,143.36 244.74,147.92 	"/>
	<polyline class="st5" points="263.47,147.92 279.23,143.36 294.15,147.92 	"/>
	<path class="st6" d="M231.32,169.6c-6.08,0-11.4-3.2-14.37-8c2.97-4.8,8.29-8,14.37-8s11.4,3.2,14.37,8
		C242.72,166.4,237.4,169.6,231.32,169.6z"/>
	<circle class="st0" cx="230.95" cy="160.65" r="6"/>
	<path class="st6" d="M280.56,169.6c-6.08,0-11.4-3.2-14.37-8c2.97-4.8,8.29-8,14.37-8s11.4,3.2,14.37,8
		C291.96,166.4,286.64,169.6,280.56,169.6z"/>
	<circle class="st0" cx="280.19" cy="160.65" r="6"/>
</g>
</svg>
