<?xml version="1.0" encoding="utf-8"?>
<!-- Generator: Adobe Illustrator 28.1.0, SVG Export Plug-In . SVG Version: 6.00 Build 0)  -->
<svg version="1.1" id="Calque_1" xmlns="http://www.w3.org/2000/svg" xmlns:xlink="http://www.w3.org/1999/xlink" x="0px" y="0px"
	 viewBox="0 0 500 500" style="enable-background:new 0 0 500 500;" xml:space="preserve">
<style type="text/css">
	.st0{fill:#F00000;}
	.st1{fill:#FFCA41;}
	.st2{fill:#FFFFFF;}
	.st3{fill:none;stroke:#F00000;stroke-miterlimit:10;}
	.st4{fill:#120959;}
	.st5{fill:#FFFAEC;}
	.st6{fill:none;stroke:#120959;stroke-width:4;stroke-miterlimit:10;}
</style>
<g>
	<path class="st0" d="M189.8,156.59c0.49,0.5,1.06,1,1.76,1.04c0.9,0.06,1.64-0.65,2.22-1.35c5.84-7.11,5.94-17.22,5.23-26.39
		s-1.85-18.91,2.25-27.15c5.18-10.43,17.53-15.49,29.16-16.17c11.63-0.68,23.16,2.11,34.77,3.05c6.85,0.56,14.19,0.62,19.82,4.56
		c2.55,1.79,4.54,4.25,6.49,6.69c8.9,11.09,18.18,23.09,19.36,37.26c0.75,9.03-1.88,18.49,1.23,27.01
		c3.05-4.16,3.32-9.67,3.49-14.82c0.51-16.31,0.84-33.44-6.64-47.95c-3.4-6.59-8.26-12.3-13.08-17.95c-2.82-3.3-5.65-6.61-9-9.37
		c-4.78-3.94-10.5-6.64-16.43-8.43c-12.36-3.71-25.87-3.48-38.09,0.66c-7.22,2.45-13.92,6.18-20.57,9.9
		c-3.49,1.95-7.04,3.94-9.87,6.76c-3.4,3.39-5.59,7.78-7.6,12.14C186.21,113.63,173,139.67,189.8,156.59z"/>
	<path class="st1" d="M201.42,128.84c0.76,3.43,2.22,6.7,2.63,10.19c0.58,5.08-1.13,10.11-2.81,14.94
		c-0.82,2.34-1.67,4.74-3.29,6.62c-1.62,1.88-4.2,3.14-6.6,2.49c-4.06-1.11-5.02-6.43-7.97-9.43c-1.05-1.06-2.69-1.86-4.01-1.15
		c-1.47,0.79-1.56,2.84-1.41,4.5c0.72,8.23,2.29,16.39,4.68,24.3c0.8,2.66,1.76,5.38,3.71,7.36c1.95,1.98,5.16,2.98,7.57,1.61
		c2.17,8.74,4.33,17.49,6.5,26.23c0.77,3.12,1.55,6.26,2.9,9.17c4.04,8.7,12.55,14.29,20.66,19.43c3.42,2.17,6.92,4.37,10.83,5.42
		c6.28,1.69,12.92,0.27,19.42,0.01c7.29-0.29,15.08,0.8,21.47-2.7c3.13-1.71,5.61-4.38,8.03-7.01c3.53-3.83,7.1-7.7,9.71-12.21
		c5.06-8.73,6.46-19.61,13.33-27c1.62-1.74,3.5-3.23,5.05-5.03c3.23-3.76,4.83-8.61,6.35-13.33c2.49-7.73,4.98-16.1,2.4-23.8
		c-4.42,1.08-7.92,5.21-8.25,9.75c-2.53,0.24-4.77-1.91-5.62-4.31c-0.85-2.4-0.68-5.02-0.72-7.56c-0.12-7.52-2.18-14.86-4.22-22.1
		c-1.48-5.23-2.99-10.54-5.76-15.21c-2.77-4.67-6.68-8.52-10.56-12.33c-3.16-3.1-6.37-6.24-10.27-8.33
		c-5.04-2.7-10.88-3.46-16.57-4.04c-11.66-1.18-23.44-1.77-35.08-0.43c-4.67,0.54-9.41,1.43-13.51,3.74
		C200.13,104.23,199.2,118.84,201.42,128.84z"/>
	<path class="st2" d="M227.59,168.08c-6.35,0-11.89-3.34-14.99-8.35c3.1-5.01,8.65-8.35,14.99-8.35c6.35,0,11.89,3.34,14.99,8.35
		C239.48,164.74,233.94,168.08,227.59,168.08z"/>
	<path class="st2" d="M280.25,169.36c-6.35,0-11.89-3.34-14.99-8.35c3.1-5.01,8.65-8.35,14.99-8.35c6.35,0,11.89,3.34,14.99,8.35
		C292.15,166.02,286.6,169.36,280.25,169.36z"/>
	<path class="st1" d="M219.27,294.63c3.46,3.27,7.3,6.12,10.79,9.36c4.07,3.78,7.78,8.39,8.66,13.87c4.01-8.88,7.23-18.1,9.63-27.54
		c4.69-0.22,9.38-0.44,14.07-0.66c1.45-0.07,2.94-0.14,4.29-0.68c1.72-0.68,3.06-2.04,4.43-3.28c2.11-1.9,4.42-3.6,6.21-5.81
		c2.2-2.72,3.47-6.06,4.71-9.34c3.66-9.7,7.34-19.47,9.08-29.69c-11.49,12.42-29.94,15.93-46.81,14.62
		c-10.88-0.84-22.06-3.61-30.34-10.72c-2.26-1.94-8.87-10.78-11.7-7.98c-2.52,2.48-1.81,11.82-1.72,15.12
		c0.26,10.14,3.05,20.21,8.05,29.04C211.46,286,215.05,290.65,219.27,294.63z"/>
	<path class="st3" d="M181.77,188.99c-0.23,10.01,1.34,20.05,4.62,29.51c0.48,1.38,1.01,2.77,1.87,3.95
		c2.25,3.05,6.27,4.09,9.99,4.82"/>
	<path class="st3" d="M324.24,157.28c2.83,18.92,1.82,38.41-2.96,56.94"/>
	<path class="st3" d="M194.79,200.43c-2.09,2.84-3.16,6.43-2.96,9.95c0.2,3.52,1.65,6.97,4.04,9.56c0.46,0.5,0.95,0.97,1.48,1.39
		c0.86,0.69,1.81,1.27,2.82,1.71"/>
	<path class="st3" d="M197.75,207.61c-1.02,3.04-0.51,6.56,1.34,9.19"/>
	<path class="st3" d="M319.4,138.51c0.56,2.42,2.41,4.5,4.76,5.32c1.15,0.41,2.43,0.52,3.59,0.13"/>
	<path class="st4" d="M71.51,324.43c2.47-9.61,5.12-19.3,9.97-27.96c2.44-4.34,5.5-8.46,9.63-11.23c3.82-2.56,8.34-3.83,12.77-5.07
		c18.95-5.28,37.9-10.55,56.84-15.83c1.55,19.96,3.52,41.07,15.32,57.24c1.85,2.53,4.38,5.12,7.52,4.97
		c2.25-0.11,4.15-1.62,5.88-3.06c8.8-7.34,17.61-14.68,26.41-22.01c5.8,8.3,12.42,16.04,19.71,23.06c1.65,1.59,3.92,3.25,6.02,2.33
		c0.9-0.4,1.53-1.2,2.13-1.98c5.44-7.06,10.89-14.13,16.33-21.19c8.87,4.99,13.53,16.02,23.02,19.7
		c10.83,4.19,23.09-3.44,29.21-13.31c6.12-9.87,8.17-21.67,12.5-32.45c0.32-0.8,0.71-1.65,1.46-2.07c0.92-0.51,2.06-0.2,3.06,0.13
		c12.32,4.1,67.45,28.03,72,32.59c23.12,23.12,25.69,77.07,28.59,108.15c0.21,2.29-1.73,4.44-3.63,5.74
		c-1.56,1.06-3.52,1.27-5.4,1.44c-51.5,4.67-170.04-3.81-221.73-5.63c-33.54-1.18-67.09-0.09-100.64,0.01
		c-8.18,0.02-16.37,0.03-24.55-0.15c-5.38-0.12-13.2,0.36-17.37-3.87c-7.42-7.53,0.97-28.34,2.76-37.03
		C62.98,359.34,67.03,341.83,71.51,324.43z"/>
	<path class="st5" d="M182.79,319.61c6.17-5.09,12.57-9.89,19.19-14.39c3.81-2.59,8.09-5.72,8.43-10.31
		c0.28-3.82-2.31-7.16-4.39-10.38c-9.21-14.26-9.9-32.2-10.2-49.17c0.06,3.52-8.72,11.97-11.09,14.62
		c-2.14,2.38-4.42,4.65-6.92,6.66c-1.97,1.58-5.22,2.83-6.72,4.83c-2.92,3.89-1.43,11.83-1.09,16.38
		c0.52,6.79,1.73,13.52,3.62,20.06C175.8,305.47,178.87,312.78,182.79,319.61z"/>
	<path class="st5" d="M270.45,294.49c-0.99,0.61-2.09,1.33-2.29,2.48c-0.16,0.95,0.38,1.86,0.92,2.66
		c5.75,8.38,15.07,14.22,25.12,15.75c0.46,0.07,0.95,0.13,1.37-0.08c0.47-0.24,0.72-0.75,0.94-1.23
		c3.45-7.17,9.41-12.75,14.56-18.81c5.15-6.06,9.75-13.34,9.52-21.29c-0.05-1.75-0.36-3.55-1.32-5.01c-0.74-1.13-1.82-1.99-2.82-2.9
		c-4.74-4.33-7.78-10.04-11.25-15.35c-2.08-3.19-8.37-13.28-9.29-4.82c-1.39,12.77-2.69,23.53-10.45,34.4
		C281.44,285.92,276.35,290.82,270.45,294.49z"/>
	<polygon class="st0" points="275.43,219.36 275.26,219.42 253.57,227.57 231.87,219.42 231.71,219.36 253.57,211.15 	"/>
	<circle class="st4" cx="227.26" cy="159.93" r="7.06"/>
	<circle class="st4" cx="279.92" cy="161.21" r="7.06"/>
	<polygon class="st5" points="252.3,156.72 271.57,199.11 240.9,199.11 	"/>
	<polyline class="st6" points="210.2,140.45 225.35,136.06 239.71,140.45 	"/>
	<polyline class="st6" points="269.13,140.93 284.74,138.71 298.34,145.06 	"/>
</g>
</svg>
