<?xml version="1.0" encoding="utf-8"?>
<!-- Generator: Adobe Illustrator 28.1.0, SVG Export Plug-In . SVG Version: 6.00 Build 0)  -->
<svg version="1.1" id="Calque_1" xmlns="http://www.w3.org/2000/svg" xmlns:xlink="http://www.w3.org/1999/xlink" x="0px" y="0px"
	 viewBox="0 0 500 500" style="enable-background:new 0 0 500 500;" xml:space="preserve">
<style type="text/css">
	.st0{fill:#FFCA41;}
	.st1{fill:#FFCB4F;}
	.st2{fill:#F00000;}
	.st3{fill:#120959;}
	.st4{fill:#00ECB8;}
	.st5{fill:#FFFAEC;}
	.st6{fill:none;stroke:#120959;stroke-width:4;stroke-miterlimit:10;}
	.st7{fill:#FFFFFF;}
</style>
<g>
	<path class="st0" d="M209.02,217.19c-0.32,9.16-0.63,18.5,1.85,27.33c4.96,17.64,20.19,30.46,36.04,39.65
		c2.79,1.62,5.76,3.2,8.99,3.24c2.68,0.04,5.24-1,7.72-2.02c9.43-3.87,18.92-7.78,27.42-13.41c8.5-5.62,16.04-13.15,20.02-22.53
		c4.72-11.11,4.07-23.63,5.14-35.65c1.75-19.62,8.26-38.95,6.55-58.57c-0.31-3.54-0.9-7.11-2.42-10.33
		c-1.54-3.25-3.96-6.01-6.68-8.36c-7.55-6.53-17.34-10.04-27.22-11.56c-9.87-1.52-19.92-1.19-29.9-0.86
		c-6.28,0.21-12.7,0.45-18.56,2.7c-3.03,1.16-5.83,2.83-8.59,4.54c-4.88,3.02-9.76,6.25-13.32,10.76
		c-6.88,8.72-5.18,22.72-5.55,33.19C210.01,189.27,209.51,203.23,209.02,217.19z"/>
	<path class="st0" d="M194.94,184.64c-2.3,7.45-0.37,15.49,1.82,22.97c1.57,5.37,3.28,10.7,5.31,15.91c1.79-0.8,2.08-3.17,2.11-5.13
		c0.11-7.18,0.16-14.35,0.14-21.53c-0.01-3.49,0.73-10.45-1.09-13.66C200.95,179.2,196.17,180.66,194.94,184.64z"/>
	<path class="st1" d="M334.03,187.51c0.58,1.64,0.46,3.44,0.33,5.18c-0.35,4.71-0.7,9.43-1.05,14.14c-0.16,2.21-0.33,4.43-0.79,6.59
		c-0.98,4.65-3.29,8.93-6.08,12.77c-0.64,0.88-1.33,1.76-2.28,2.28c-0.95,0.52-2.23,0.57-3.05-0.15c-1.21-1.07-0.75-3.02-0.24-4.56
		c3.03-9.24,3.09-18.01,2.72-27.56C323.43,191.48,330.69,178.09,334.03,187.51z"/>
	<path class="st2" d="M202.35,134.98c2.85-12.87,10.06-25.41,21.71-31.57c4.6-2.43,9.68-3.78,14.75-4.97
		c16-3.75,32.76-6.06,48.81-2.53c16.05,3.53,31.35,13.8,37.31,29.11c1.62,4.17,2.52,8.58,3.22,13c1.74,11.02,2.3,22.23,1.65,33.37
		c-0.1,1.72-0.95,4.03-2.64,3.68c-0.78-10.09,1.19-20.7-2.66-30.06c-2.67-6.49-7.97-11.66-14.04-15.17s-12.91-5.48-19.79-6.89
		c-13.84-2.83-28.12-3.49-42.16-1.93c-8.87,0.98-17.81,2.91-25.5,7.45c-7.68,4.53-14,12-15.46,20.8c-0.93,5.58,0.43,11.24-0.33,16.8
		c-0.57,4.16-3.12,4.8-5.54,0.91c-2.37-3.81-1.31-10.64-1.22-14.95C200.59,146.32,201.11,140.58,202.35,134.98z"/>
	<path class="st2" d="M237.18,71.22c4.8-6.44,12.05-11,19.93-12.56c6.35-1.26,12.97-0.6,19.24,1.03c5.72,1.49,11.67,4.18,14.4,9.43
		c1.18,2.28,1.87,5.14,4.15,6.32c1.18,0.61,2.58,0.64,3.82,1.12c2.76,1.09,4.12,4.14,5.19,6.91c0.72,1.86,1.46,3.78,1.48,5.78
		c0.02,2-0.82,4.13-2.57,5.1c-2.23,1.23-4.97,0.22-7.35-0.69c-16.22-6.18-34.51-6.77-51.1-1.66c-5.36,1.65-13.64,6.15-13.68-2.38
		C230.66,83.16,233.35,76.35,237.18,71.22z"/>
	<path class="st0" d="M212.96,285.91c-1.33,5.94-2.67,11.97-2.29,18.03c0.28,4.61,1.55,9.1,2.81,13.56
		c3.43,12.14,6.97,24.52,14.28,35.04c2.93,4.22,6.64,8.22,11.6,10.12c4.13,1.58,8.72,1.56,13.18,1.52c4.98-0.05,9.96-0.1,14.93-0.15
		c2.27-0.02,4.58-0.05,6.75-0.68c4.06-1.17,7.13-4.27,9.63-7.49c4.72-6.1,8.05-13.03,11.34-19.9c3.77-7.86,7.54-15.71,11.3-23.57
		c2.03-4.23,4.1-8.85,2.96-13.36c-0.72-2.84-2.66-5.31-3.39-8.15c-1.48-5.75,2.19-11.91,0.44-17.6c-2.69-0.2-3.8-1.06-5.78,0.67
		c-12.74,11.13-22.26,17.42-39.57,19.74c-6.23,0.84-17.83-0.44-22.26-4.64c-3.25-3.09-9.14-8.21-11.34-12.03
		c-1.47-2.55-6.3-9.34-10.23-7.32C214.28,271.26,213.65,282.83,212.96,285.91z"/>
	<path class="st3" d="M140.02,320.01c13.18-3.91,43.07-14.14,58.87-20.41c3.53-1.4,7.45,0.9,7.92,4.67
		c2.28,18.12,8,35.78,16.78,51.61c2.55,4.61,5.59,9.28,10.19,11.6c2.84,1.43,6.03,1.84,9.16,2.23c13.87,1.72,28.97,3.19,40.85-4.45
		c8.54-5.49,14.01-14.87,18.39-24.26c5.92-12.69,10.46-26.06,13.53-39.8c25.9,3.48,49.75,15.81,74.11,25.61
		c20,8.04,41.22,28.77,47.71,42.7c6.49,13.93,8.79,30.34,4.33,45.11c-0.55,1.81-1.24,3.66-2.59,4.92c-1.38,1.28-3.25,1.79-5.05,2.2
		c-12.27,2.76-24.92,2.78-37.48,2.68c-24.1-0.18-48.21-0.36-72.31-0.6c-73.07-0.74-151.27,1.18-224.53,0.54
		c-4.22-0.04-8.86-0.24-11.94-3.23c-2.25-2.17-3.19-5.4-3.99-8.48c-4.29-16.6,6.34-42.29,11.12-59.58
		C99.78,336.11,125.83,324.22,140.02,320.01z"/>
	
		<rect x="329.9" y="370.38" transform="matrix(0.998 -0.0634 0.0634 0.998 -23.5085 22.1617)" class="st4" width="15.56" height="22.73"/>
	
		<rect x="360.81" y="367.91" transform="matrix(0.998 -0.0634 0.0634 0.998 -23.2897 24.1154)" class="st2" width="15.56" height="22.73"/>
	<polygon class="st2" points="285.89,242.33 285.71,242.41 262.55,252 239.39,242.41 239.21,242.33 262.55,232.66 	"/>
	<polygon class="st5" points="263.63,180.28 277.03,221.94 250.88,220.68 	"/>
	<polyline class="st6" points="219.48,170.74 227.91,167.64 246.36,169.9 	"/>
	<polyline class="st6" points="308.19,171.97 299.76,168.87 281.31,171.14 	"/>
	<path class="st7" d="M236.64,195.86c-6.13,0-11.48-3.22-14.48-8.06c2.99-4.84,8.35-8.06,14.48-8.06s11.48,3.22,14.48,8.06
		C248.13,192.64,242.77,195.86,236.64,195.86z"/>
	<circle class="st3" cx="237.51" cy="188.09" r="6.05"/>
	<path class="st7" d="M293.7,195.86c-6.13,0-11.48-3.22-14.48-8.06c2.99-4.84,8.35-8.06,14.48-8.06s11.48,3.22,14.48,8.06
		C305.18,192.64,299.82,195.86,293.7,195.86z"/>
	<circle class="st3" cx="294.57" cy="188.09" r="6.05"/>
</g>
</svg>
