<?xml version="1.0" encoding="utf-8"?>
<!-- Generator: Adobe Illustrator 28.1.0, SVG Export Plug-In . SVG Version: 6.00 Build 0)  -->
<svg version="1.1" id="Calque_1" xmlns="http://www.w3.org/2000/svg" xmlns:xlink="http://www.w3.org/1999/xlink" x="0px" y="0px"
	 viewBox="0 0 500 500" style="enable-background:new 0 0 500 500;" xml:space="preserve">
<style type="text/css">
	.st0{fill:#FFCA41;}
	.st1{fill:#00ECB8;}
	.st2{fill:#F00000;}
	.st3{fill:#120959;}
	.st4{fill:#FFFAEC;}
	.st5{fill:none;stroke:#F00000;stroke-width:2;stroke-miterlimit:10;}
	.st6{fill:none;stroke:#120959;stroke-width:4;stroke-miterlimit:10;}
	.st7{fill:#FFFFFF;}
</style>
<g>
	<path class="st0" d="M199.24,136.7c-0.06,9.19,2.01,18.25,3.09,27.38c1.23,10.44,1.15,21.02,2.91,31.38
		c1.76,10.36,5.63,20.79,13.33,27.94c2.44,2.26,5.2,4.14,7.99,5.94c6.74,4.36,13.84,8.38,21.61,10.42c2.92,0.76,5.99,1.24,8.94,0.62
		c2.58-0.55,4.91-1.9,7.19-3.24c5.04-2.95,10.08-5.91,15.12-8.86c2.7-1.58,5.43-3.19,7.61-5.43c2.03-2.08,3.5-4.62,4.83-7.2
		c5.97-11.58,9.33-24.29,12.64-36.89c3.43-13.04,6.88-26.57,4.56-39.85c-2.42-13.87-10.89-25.91-20.23-36.44
		c-3.5-3.94-7.21-7.79-11.73-10.5c-6.78-4.05-14.98-5.23-22.86-4.72c-7.88,0.51-15.57,2.6-23.19,4.69
		c-4.97,1.37-10.03,2.79-14.34,5.61c-6.32,4.14-7.09,10.26-10.46,16.31C202.04,121.38,199.29,127.84,199.24,136.7z"/>
	<circle class="st1" cx="311.19" cy="189" r="5.14"/>
	<path class="st0" d="M323.65,148.48c-0.63,8.55-1.69,17.06-3.18,25.5c-0.46,2.62-0.98,5.27-2.19,7.63
		c-1.21,2.37-3.21,4.45-5.76,5.17c-0.61,0.17-1.27,0.26-1.85,0.02c-1.53-0.62-1.47-2.79-1.13-4.41c1.96-9.5,4.33-19.01,5.88-28.58
		c0.37-2.26,0.03-5.49,1.72-7.28C319.55,143.99,323.65,144.75,323.65,148.48z"/>
	<path class="st0" d="M187.34,148.01c0.01,8.57,0.46,17.14,1.34,25.67c0.27,2.64,0.6,5.32,1.63,7.77c1.03,2.45,2.88,4.67,5.38,5.57
		c0.59,0.21,1.25,0.35,1.85,0.16c1.57-0.51,1.67-2.67,1.45-4.31c-1.27-9.61-2.95-19.27-3.81-28.93c-0.2-2.28,0.36-5.48-1.2-7.39
		C191.75,143.83,187.6,144.29,187.34,148.01z"/>
	<path class="st2" d="M204.8,90.48c1.62-2.77,3.42-5.47,5.72-7.67c4.46-4.27,10.46-6.36,16.43-7.4c1.05-0.18,2.13-0.34,3.09-0.82
		c1.17-0.58,2.09-1.58,3.06-2.46c5.67-5.15,14.2-6.58,21.14-3.56c7.52-2.81,16.5-0.78,22.22,5.03c0.57,0.57,1.11,1.19,1.81,1.58
		c0.96,0.53,2.08,0.57,3.15,0.75c5.51,0.91,9.8,5.48,12.89,10.32c1.2,1.88,2.3,3.85,3.76,5.53c1.41,1.63,3.13,2.95,4.44,4.67
		c1.74,2.3,2.63,5.15,3.49,7.94c3.52,11.47,7.08,23.26,6.38,35.27c-1.8-1.63-2.16-4.34-2.55-6.79
		c-3.19-20.02-16.72-37.35-33.78-47.14c-1.98-1.14-4.03-2.19-6.21-2.82c-2.88-0.84-5.91-0.93-8.91-0.95
		c-10.11-0.04-12.88-0.38-22.95,0.45c-3.5,0.29-14.4,5.62-17.61,7.12c-5.61,2.61-9.17,8.37-12.4,13.81
		c-5.14,8.67-10.4,13.86-11.46,23.98c-0.27,2.58,0.16,6.19-1.01,8.42c-4.62-1.28-0.53-18.75,0.29-22.36
		C197.64,105.32,200.67,97.55,204.8,90.48z"/>
	<path class="st0" d="M239.17,244.77c4.54,1.29,9.24,2.24,13.95,1.94c3.54-0.23,7-1.16,10.33-2.35c10.64-3.82,20.27-10.43,27.64-19
		c1.97,0.5,3.17,2.57,3.48,4.58c0.31,2.01-0.05,4.06-0.02,6.09c0.08,5.84,3.27,11.11,6.02,16.27s5.2,11.06,3.7,16.7
		c-0.85,3.18-2.87,5.9-4.86,8.53c-2.34,3.09-4.7,6.18-7.35,9.01c-7.75,8.26-17.72,14.03-27.53,19.68c-0.44,0.26-0.91,0.52-1.42,0.55
		c-0.66,0.03-1.26-0.32-1.82-0.66c-10.25-6.25-20.91-12.14-32.57-14.99c-2.5-0.61-5.09-1.1-7.27-2.45c-2.37-1.46-4.05-3.8-6.21-5.56
		c-2.32-1.89-5.15-3.08-7.49-4.95s-4.22-4.84-3.5-7.75c0.66-2.66,3.19-4.33,5.22-6.18c4.58-4.19,7.09-10.34,7.66-16.52
		c0.36-3.92-0.63-7.51-0.72-11.35c-0.11-4.58,1.52-3.4,4.06-1.1C225.7,239.99,232.45,242.86,239.17,244.77z"/>
	<path class="st3" d="M100.67,337.09c2.15-6.87,4.56-13.8,8.8-19.62c5.87-8.05,14.74-13.27,23.36-18.27
		c12.97-7.53,25.95-15.06,38.92-22.59c8.7-5.05,17.62-10.18,27.52-11.95c-2.8,6.59,1.16,14.14,6.11,19.32
		c7.1,7.42,16.28,12.49,25.53,16.95c12.03,5.81,25.02,10.93,38.33,9.88c19.81-1.55,37.34-18.4,39.67-38.14
		c0.64-5.38,0.08-11.31-3.51-15.37c16.01-3.14,32.25,3.37,46.81,10.74c10.31,5.22,20.37,10.93,30.13,17.13
		c6.31,4,12.59,8.29,17.27,14.1c5.84,7.25,8.8,16.35,11.63,25.22c5.73,17.94,11.51,36.13,12.36,54.95
		c0.37,8.15-0.3,16.66-4.33,23.76c-6.78,11.94-21.2,17.01-34.6,20.01c-30.06,6.74-61.06,7.92-91.86,8.67
		c-33.08,0.8-66.18,1.12-99.27,1.14c-21.37,0.01-42.75-0.11-64.12-0.35c-9.52-0.11-19.08-0.24-28.51-1.68
		c-5.44-0.83-14.76-1.21-16.73-7.44c-2.25-7.11,1.66-19.69,2.75-26.97c1.44-9.53,3.22-19.01,5.35-28.41
		C94.67,357.69,97.46,347.32,100.67,337.09z"/>
	<polygon class="st4" points="195.28,381.23 172.26,407.88 214.66,401.82 	"/>
	<polygon class="st1" points="331.74,284.03 311.19,332.83 363.64,357 379.26,309.72 	"/>
	<circle class="st4" cx="347.89" cy="319.46" r="18.17"/>
	<path class="st5" d="M191.64,274.64c0,0-71.46,30.28-79.94,60.56"/>
	<path class="st5" d="M321.36,266.07c0,0,59.88,15.91,78.33,40.71"/>
	<polygon class="st2" points="276.52,201.62 276.34,201.67 253.52,208.89 230.69,201.67 230.52,201.62 253.52,194.34 	"/>
	<polygon class="st4" points="253.31,144.85 268.56,183.21 241.4,181.9 	"/>
	<polyline class="st6" points="212.01,139.72 224.2,132.88 237.48,133.77 	"/>
	<polyline class="st6" points="268.66,133.32 282.63,132.76 294.06,139.58 	"/>
	<path class="st7" d="M229.29,159.54c-6.34,0-11.89-3.34-14.99-8.35c3.1-5.01,8.64-8.35,14.99-8.35s11.89,3.34,14.99,8.35
		C241.18,156.21,235.64,159.54,229.29,159.54z"/>
	<circle class="st3" cx="230.19" cy="151.5" r="6.26"/>
	<path class="st7" d="M279.38,160.83c-6.34,0-11.89-3.34-14.99-8.35c3.1-5.01,8.64-8.35,14.99-8.35c6.34,0,11.89,3.34,14.99,8.35
		C291.27,157.49,285.72,160.83,279.38,160.83z"/>
	<circle class="st3" cx="280.28" cy="152.78" r="6.26"/>
</g>
</svg>
