<?xml version="1.0" encoding="utf-8"?>
<!-- Generator: Adobe Illustrator 28.1.0, SVG Export Plug-In . SVG Version: 6.00 Build 0)  -->
<svg version="1.1" id="Calque_1" xmlns="http://www.w3.org/2000/svg" xmlns:xlink="http://www.w3.org/1999/xlink" x="0px" y="0px"
	 viewBox="0 0 500 500" style="enable-background:new 0 0 500 500;" xml:space="preserve">
<style type="text/css">
	.st0{fill:#FFCA41;}
	.st1{fill:#F00000;}
	.st2{fill:#120959;}
	.st3{fill:#FFFAEC;}
	.st4{fill:none;stroke:#120959;stroke-width:4;stroke-miterlimit:10;}
	.st5{fill:#FFFFFF;}
	.st6{fill:none;stroke:#F00000;stroke-width:2;stroke-miterlimit:10;}
</style>
<g>
	<path class="st0" d="M212.27,180.25c4.45,15.73,6.1,32.38,12.98,47.21c1.27,2.73,2.84,5.53,5.49,6.96
		c3.41,1.84,7.57,0.92,11.37,0.18c7.85-1.53,15.88-2.11,23.87-1.72c9.71,0.48,20.84,1.92,27.87-4.8c2.93-2.8,4.61-6.62,6.22-10.33
		c6.43-14.81,12.91-29.81,15.65-45.72c1.63-9.49,1.9-19.16,2.04-28.8c0.08-6,0.1-12.12-1.68-17.86
		c-2.06-6.65-6.38-12.33-10.63-17.86c-2.28-2.97-4.61-5.99-7.66-8.17c-4.73-3.38-10.69-4.41-16.45-5.21
		c-23.42-3.24-48.38-3.78-69.46,6.93c-2.8,1.42-5.66,3.19-7.06,6c-1,2.01-1.14,4.33-1.24,6.58c-0.44,10.31-1.36,21.36-0.49,31.65
		C204.13,157.38,209,168.69,212.27,180.25z"/>
	<path class="st1" d="M251.04,252.74c9.38,1.37,18.93,0.7,28.35-0.35c2.26-0.25,4.63-0.57,6.45-1.92c2.67-1.98,3.4-6.15,1.56-8.92
		c-3.72-0.45-7.44,0.63-11.1,1.42c-10.08,2.17-20.62,2.19-30.72,0.09c-3.57-0.74-9.85-4.14-13.25-2.1c-4.85,2.91,0.4,5.79,3.23,7.16
		C240.43,250.48,245.7,251.96,251.04,252.74z"/>
	<path class="st1" d="M306.41,215.75c-0.91,2.22-1.99,4.36-2.95,6.56c-1.89,4.36-3.29,8.94-4.16,13.62
		c-0.07,0.38-0.13,0.81,0.1,1.12c0.2,0.28,0.58,0.38,0.93,0.41c1.63,0.16,3.24-0.65,4.39-1.81c1.15-1.16,1.92-2.64,2.61-4.13
		c3.06-6.57,5.59-14.35,5.73-21.67c0.03-1.58-0.69-5.64-3.3-4.09C308.27,206.66,307.16,213.95,306.41,215.75z"/>
	<path class="st1" d="M215.62,215.75c0.91,2.22,1.99,4.36,2.95,6.56c1.89,4.36,3.29,8.94,4.16,13.62c0.07,0.38,0.13,0.81-0.1,1.12
		c-0.2,0.28-0.58,0.38-0.93,0.41c-1.63,0.16-3.24-0.65-4.39-1.81s-1.92-2.64-2.61-4.13c-3.06-6.57-5.59-14.35-5.73-21.67
		c-0.03-1.58,0.69-5.64,3.3-4.09C213.76,206.66,214.88,213.95,215.62,215.75z"/>
	<path class="st0" d="M333.26,163.04c0.95,6.41,0.79,12.93,0.24,19.39c-0.2,2.4-0.46,4.81-1.14,7.12
		c-1.67,5.64-5.72,10.23-9.96,14.3c-0.83,0.79-1.76,1.61-2.9,1.69c-1.16,0.08-2.26-0.67-2.89-1.65c-0.63-0.98-0.87-2.15-1.03-3.31
		c-1.23-8.62,1.11-17.24,4.2-25.22c1.3-3.37,2.82-6.45,3.22-10.08c0.3-2.67,0.84-4.82,2.81-6.83
		C329.68,154.51,332.69,159.17,333.26,163.04z"/>
	<path class="st0" d="M194.23,164.95c-0.74,0.62-1.04,1.61-1.28,2.54c-1.88,7.44-2.14,15.24-1.19,22.85c0.37,3,0.95,6.03,2.39,8.68
		c2.31,4.26,6.87,7.21,11.7,7.58c0.45,0.03,0.94,0.04,1.33-0.19c0.43-0.25,0.66-0.72,0.84-1.18c0.76-1.97,0.84-4.12,0.85-6.23
		c0.05-8.79-0.95-17.58-2.97-26.13c-0.6-2.55-1.07-6.36-3.61-7.79C200.43,164.03,195.9,163.56,194.23,164.95z"/>
	<path class="st1" d="M199.84,102.94c3.8-7.99,8.31-15.74,14.35-22.2c7.07-7.56,15.98-13.11,24.78-18.56
		c1.8-1.11,3.62-2.24,5.65-2.85c2.25-0.68,4.65-0.68,7-0.67c8.53,0.02,17.1,0.04,25.53,1.37c2.46,0.39,5.26,1.16,6.25,3.45
		c0.34,0.78,0.43,1.68,0.96,2.35c0.62,0.77,1.66,1.02,2.63,1.22c4.24,0.89,8.48,1.77,12.72,2.66c3.08,0.64,6.83,1.97,7.19,5.1
		c0.15,1.28-0.36,2.64,0.14,3.83c0.38,0.9,1.25,1.48,2.05,2.04c5.71,4,10.2,9.71,12.74,16.19c1.26,3.22,2.04,6.6,2.82,9.97
		c3.11,13.45,3.66,27.08,3.3,40.88c-0.04,1.45-0.55,3.35-2,3.36c-1.25,0.01-1.91-1.46-2.22-2.68c-1.81-7.1-0.31-14.37-2.17-21.46
		c-3.23-12.33-6.25-17.58-13.82-27.83c-1.23-1.67-2.57-3.35-4.4-4.34c-1.98-1.08-4.52-3.92-7.87-5.22
		c-7.51-2.92-16.11-0.57-24.16-0.62c-20.6-0.13-43.86-1.71-60.72,10.13c-3.49,2.45-6.78,5.46-8.37,9.42
		c-1.34,3.34-1.34,7.05-1.39,10.65c-0.06,4.87-0.23,9.74-0.52,14.6c-0.12,2.11-0.42,11.85-3.65,11.68
		c-2.69-0.14-3.81-9.74-3.98-11.46C191.59,123.22,195.3,112.48,199.84,102.94z"/>
	<path class="st0" d="M211.58,272.39c-0.07,0.85-0.97,1.29-1.73,0.9c-0.69-0.35-1.52-0.5-2.29-0.42c-1.55,0.16-2.93,1.04-4.14,2.02
		c-1.74,1.42-3.32,3.21-3.77,5.41c-0.7,3.45,1.52,6.77,3.75,9.5c5.23,6.43,11.16,12.36,18.05,16.97
		c17.89,11.95,42.08,13.78,61.56,4.66c4.5-2.11,8.74-4.74,13.19-6.95c5.31-2.63,10.96-4.68,15.83-8.07
		c4.15-2.9,7.6-6.69,10.59-10.77c1.59-2.16,3.11-4.58,3.13-7.27c0.02-3.94-3.88-7.37-7.75-7.03c-0.41,0.04-0.75,0.32-0.92,0.69
		l-0.66,1.42c-0.51,1.11-2.18,0.83-2.29-0.39c-1.04-11.21-1.67-22.45-1.89-33.71c-0.02-1.1-1.36-1.58-2.09-0.75
		c-7.35,8.32-18.2,13.09-29.04,15.87c-11.49,2.94-23.59,4.01-35.27,1.92c-5.23-0.94-10.35-2.52-15.16-4.77
		c-2.58-1.21-5.08-2.61-7.45-4.2c-2.13-1.43-4.2-4.02-6.43-5.12c-2.97-1.47-2.77-0.35-3.05,2.83c-0.29,3.27-0.52,6.55-0.78,9.82
		L211.58,272.39z"/>
	<path class="st2" d="M195.45,278.05c-17.39,5.75-34.77,11.49-52.16,17.24c-9.48,3.13-19.09,6.33-27.41,11.86
		c-21.89,14.56-30.87,43.04-29.72,69.3c0.22,5.06,0.78,10.2,2.75,14.87c1.75,4.17,4.57,7.83,7.8,10.99
		c15.6,15.31,39.13,18.64,60.96,19.84c54.25,2.98,108.69-2.21,162.96,0.4c33.06,1.59,65.74,3.02,97.5-6.29
		c4.37-1.28,8.81-2.84,12.17-5.92c3.31-3.03,5.25-7.26,6.77-11.48c7.56-20.91,6.41-45.38-5.43-64.21
		c-13.7-21.79-38.79-33.14-62.44-43.29c-12.33-5.29-24.67-10.59-37-15.88c1.69,12.88-8.81,24.14-19.77,31.11
		c-20.93,13.33-46.74,18.79-71.28,15.1c-11.16-1.68-22.26-5.3-31.2-12.2S195.94,289.33,195.45,278.05z"/>
	<path class="st1" d="M238.99,194.2c-0.45,0.26-0.94,0.55-1.13,1.04c-0.26,0.67,0.19,1.46,0.82,1.81c0.64,0.34,1.4,0.35,2.12,0.31
		c3.12-0.19,6.15-1.1,9.11-2.12c2.11-0.73,4.51-1.64,5.64-3.73c0.93-1.71,0.73-4.28-1.48-4.92c-2.16-0.63-5.17,2.02-6.97,3.04
		C244.4,191.14,241.69,192.67,238.99,194.2z"/>
	<path class="st1" d="M285.87,193.99c0.46,0.24,0.96,0.52,1.16,1.01c0.28,0.67-0.15,1.47-0.78,1.83c-0.63,0.36-1.39,0.39-2.11,0.36
		c-3.13-0.1-6.18-0.94-9.16-1.88c-2.13-0.67-4.55-1.52-5.74-3.58c-0.97-1.68-0.84-4.26,1.35-4.96c2.15-0.68,5.23,1.89,7.04,2.85
		C280.39,191.07,283.13,192.53,285.87,193.99z"/>
	<polygon class="st1" points="286.66,209 286.47,209.08 262.4,219.05 238.31,209.08 238.13,209 262.4,198.94 	"/>
	<polygon class="st3" points="262.23,138.04 276.16,181.35 248.97,180.04 	"/>
	<polyline class="st4" points="215.75,137.74 224.02,133.41 243.34,133.25 	"/>
	<polyline class="st4" points="304.62,136.36 295.98,132.81 276.72,134.43 	"/>
	<path class="st5" d="M234.17,158.1c-6.37,0-11.94-3.35-15.05-8.38c3.11-5.03,8.68-8.38,15.05-8.38c6.37,0,11.94,3.35,15.05,8.38
		C246.11,154.75,240.54,158.1,234.17,158.1z"/>
	<circle class="st2" cx="235.07" cy="150.02" r="6.29"/>
	<path class="st5" d="M293.49,158.1c-6.37,0-11.94-3.35-15.05-8.38c3.11-5.03,8.68-8.38,15.05-8.38s11.94,3.35,15.05,8.38
		C305.43,154.75,299.86,158.1,293.49,158.1z"/>
	<circle class="st2" cx="294.39" cy="150.02" r="6.29"/>
	<polygon class="st3" points="214.89,391.03 214.69,391.11 188.51,401.7 162.94,389.72 162.74,389.63 189.12,378.96 	"/>
	<path class="st6" d="M340.06,288.16c5.16,29.66-134.12,82.53-150.88,0"/>
</g>
</svg>
