<?xml version="1.0" encoding="utf-8"?>
<!-- Generator: Adobe Illustrator 28.1.0, SVG Export Plug-In . SVG Version: 6.00 Build 0)  -->
<svg version="1.1" id="Calque_1" xmlns="http://www.w3.org/2000/svg" xmlns:xlink="http://www.w3.org/1999/xlink" x="0px" y="0px"
	 viewBox="0 0 500 500" style="enable-background:new 0 0 500 500;" xml:space="preserve">
<style type="text/css">
	.st0{fill:#F00000;}
	.st1{fill:#FFCA41;}
	.st2{fill:#FFFAEC;}
	.st3{fill:#FFFFFF;}
	.st4{fill:#120959;}
	.st5{fill:#00ECB8;}
	.st6{fill:none;stroke:#120959;stroke-width:4;stroke-miterlimit:10;}
</style>
<g>
	<path class="st0" d="M159.32,125.87c-0.05-7.06-0.09-14.27,2.08-21c3.32-10.31,11.48-18.37,20.32-24.61
		c17.85-12.6,39.7-19.44,61.54-19.26c5.48,0.05,11.04,0.54,16.13,2.56c4.95,1.97,17.93,9.17,21.84,12.8
		c22.67,21.01,25.25,49.79,20.34,80.31c-2.47-16.84-7.62-33.28-15.19-48.52c-1.92-3.87-4.18-7.85-7.91-10.01
		c-3.38-1.95-7.47-2.12-11.37-2.23c-16.12-0.48-32.24-0.96-48.35-1.44c-10.53-0.31-22.98,0.31-28.76,9.13
		c-2.9,4.43-3.34,9.97-3.7,15.25c-1.13,16.57-0.64,34.42-3.7,50.66c-6.13-2.22-17.69-5.7-21.4-11.75
		C156.4,149.94,159.39,134.68,159.32,125.87z"/>
	<path class="st1" d="M188.22,181.08c-0.04,1.6-0.06,3.28,0.68,4.71c0.99,1.9,3.07,2.9,5,3.84c15.38,7.5,29.79,19.96,33.2,36.69
		c1.17,5.73,1.05,11.91,3.94,17.01c0.98,1.73,2.37,3.33,4.22,4.06c1.37,0.54,2.89,0.56,4.36,0.58c8.34,0.09,16.67,0.19,25.01,0.28
		c2.44,0.03,4.98,0.03,7.15-1.08c3.21-1.63,4.8-5.24,6.15-8.57c2.66-6.56,5.31-13.12,7.97-19.68c0.96-2.38,1.93-4.76,2.54-7.25
		c0.59-2.4,0.86-4.87,1.5-7.25c0.87-3.22,2.42-6.22,3.86-9.23c3.23-6.79,5.96-13.94,6.63-21.43c0.69-7.65-0.78-15.33-2.82-22.74
		c-3.52-12.76-8.72-24.99-13.91-37.18c-0.97-2.29-1.96-4.6-3.47-6.57c-3.32-4.35-8.81-6.57-14.24-7.3s-10.93-0.17-16.41-0.02
		c-10.01,0.29-20.04-0.78-30.03-0.14c-8.27,0.53-16.45,2.37-23.64,6.61c-6.72,3.97-6.2,8.35-6.37,15.77
		C189.11,141.83,188.66,161.46,188.22,181.08z"/>
	<path class="st0" d="M216.76,218.74c0.57,2.87,0.39,5.84,0.75,8.75c0.93,7.65,5.45,14.32,9.91,20.6c1.87,2.64,3.9,5.39,6.88,6.65
		c1.96,0.83,4.15,0.93,6.29,0.96c3.94,0.07,7.89-0.02,11.83-0.24c9.18-0.5,19.03-1.99,25.61-8.41c3.53-3.45,5.74-8,7.58-12.57
		c1.88-4.68,3.44-9.5,4.66-14.39c0.63-2.54,1.19-5.14,2.45-7.43c1.26-2.29,3.38-4.27,5.96-4.66c1.29,2.9,1.13,6.22,0.8,9.38
		c-0.8,7.69-2.49,15.29-5,22.6c-1.3,3.76-2.84,7.5-5.26,10.67c-4.42,5.78-11.31,9.07-18.1,11.69c-10.62,4.1-21.93,7.08-33.27,6.22
		c-2.5-0.19-5.01-0.57-7.36-1.44c-9.66-3.57-14.5-14.12-21.94-21.24c-1.71-1.63-3.57-3.1-5.2-4.8c-2.65-2.76-4.63-6.09-6.58-9.38
		c-3.88-6.53-18.71-28.01-6.29-32.9C200.46,194.87,214.98,209.82,216.76,218.74z"/>
	<polygon class="st2" points="254.12,152.57 273.49,195.19 242.65,195.19 	"/>
	<polygon class="st0" points="277.37,222.01 277.21,222.09 257.33,231.72 237.43,222.09 237.28,222.01 257.33,212.31 	"/>
	<path class="st3" d="M225.06,169.36c-6.38,0-11.96-3.36-15.07-8.4c3.12-5.04,8.69-8.4,15.07-8.4c6.38,0,11.96,3.36,15.07,8.4
		C237.02,166,231.44,169.36,225.06,169.36z"/>
	<path class="st3" d="M278.01,165.48c-6.38,0-11.96-3.36-15.07-8.4c3.12-5.04,8.69-8.4,15.07-8.4c6.38,0,11.96,3.36,15.07,8.4
		C289.97,162.13,284.39,165.48,278.01,165.48z"/>
	<circle class="st4" cx="223.77" cy="160.96" r="7.1"/>
	<circle class="st4" cx="276.72" cy="157.09" r="7.1"/>
	<path class="st1" d="M157.83,185.76c1.89,6,5.69,11.19,9.75,16c2.17,2.57,4.43,5.06,6.78,7.47c1.26,1.29,2.87,2.67,4.63,2.3
		c1.79-0.37,2.73-2.33,3.23-4.09c2.86-10.07,0.13-20.89-3.93-30.54c-1.31-3.11-2.88-6.31-5.71-8.15c-3.22-2.1-10.35-3.41-13.26-0.16
		C155.58,172.77,156.3,180.9,157.83,185.76z"/>
	<path class="st1" d="M312.98,167.93c-0.54,10.05-2.66,19.95-4.76,29.8c-0.21,1-0.44,2.03-0.94,2.92c-1.12,1.97-3.66,3-5.83,2.35
		c-2.62-9.67,3.21-18.91,4.26-28.34c0.33-2.98-2.29-14.73,1.41-15.89C312.01,157.23,313.14,165.05,312.98,167.93z"/>
	<path class="st1" d="M188.41,250.22c-0.74,5.01-2,10.04-1.41,15.07c0.35,2.95,1.33,5.8,2.47,8.54
		c6.26,15.05,17.79,27.85,32.1,35.65c14.31,7.8,31.32,10.55,47.36,7.65c2.03-0.37,4.07-0.83,5.9-1.79c2.68-1.41,4.7-3.79,6.81-5.96
		c2.56-2.63,5.39-5.09,7.21-8.27c1.26-2.22,1.98-4.7,2.64-7.17c1.82-6.83,3.26-13.76,4.31-20.74c1.04-6.9,1.62-14.34-1.62-20.52
		c-9.02,5.36-18.21,10.57-28.06,14.21s-20.44,5.69-30.88,4.56c-3.74-0.41-7.49-1.24-10.78-3.07c-3.36-1.88-6.07-4.71-8.73-7.5
		c-7.45-7.82-14.98-15.73-20.78-24.9c-1.66-2.62-5.29-9.99-6.13-4.02C188,237.85,189.31,244.16,188.41,250.22z"/>
	<path class="st4" d="M172.61,272.9c15.8-2.59,15.41,29.15,30.12,35.27c16.26,10.35,43.2,17.98,65.2,13.95
		c14.52-2.66,26.28-14.23,28.82-28.77c1.58-9.05,4.03-20.01,9.04-23.25c19.64-12.68,61.61,17.61,88.96,28.19
		c10.8,5.48,24.31,26.92,33.97,50.78c14.74,36.42-12.74,76.01-52.02,75.1c-91.5-2.11-186.22-1.27-279.78,0.95
		c-26.58,0.63-48.56-20.55-48.96-47.13c-0.05-3.41-0.08-5.8-0.08-6.52C46.33,326.7,137.81,295.12,172.61,272.9z"/>
	<polygon class="st2" points="351.07,338.4 350.94,338.51 332.94,352.18 312.09,343.43 311.93,343.36 330.08,329.58 	"/>
	<polygon class="st5" points="351.57,343.25 336.31,379.69 312.46,348.21 312.7,348.18 333.54,356.93 351.54,343.26 	"/>
	<polyline class="st6" points="210.58,147.4 225.82,142.99 240.25,147.4 	"/>
	<polyline class="st6" points="263.54,144.82 278.77,140.41 293.21,144.82 	"/>
</g>
</svg>
