<?xml version="1.0" encoding="UTF-8"?><svg id="Calque_2" xmlns="http://www.w3.org/2000/svg" viewBox="0 0 365.59 323.73"><defs><style>.cls-1{stroke:#141456;}.cls-1,.cls-2{fill:none;stroke-miterlimit:10;stroke-width:4px;}.cls-2{stroke:#49e8bb;}.cls-3{fill:#49e8bb;}.cls-3,.cls-4,.cls-5,.cls-6,.cls-7,.cls-8{stroke-width:0px;}.cls-4{fill:#141456;}.cls-5{fill:#e20917;}.cls-6{fill:#fbcb5d;}.cls-7{fill:#fffbee;}.cls-8{fill:#fff;}</style></defs><g id="Calque_8"><path class="cls-6" d="M98.03,100.29c-1.46-.36-2.98.68-3.66,2.03s-.71,2.91-.71,4.42c.04,12.56,2.26,26.02,10.98,35.06,1.61,1.67,3.01,1.52,4.92,2.17.9.31.87-.75,1.85,0,.5.38.71,2.63.97,3.28,1.65,4.14,4.81,7.65,8.89,9.51,2.15.98,4.47,1.5,6.7,2.29,5.77,2.03,10.74,5.81,14.79,10.35,4.29,4.82,5.87,10.62,11.68,14.22,3.59,2.22,6.57,1.63,10.45,1.22,15.39-1.65,30.03-11.53,36.27-25.86,1.87-4.31,3.04-8.88,4.71-13.27,2.37-6.23,5.74-12.02,9.09-17.79,2.08-3.58,4.32-7.32,7.91-9.39,1.85-1.07,3.99-1.65,5.6-3.04,4.2-3.62,2.79-10.24,2.77-15.79-.02-4.22.98-8.41.87-12.63-.12-4.81-.57-9.39-3.45-13.44-1.23-1.74-2.89-3.32-4.97-3.81-4.74-1.11-9.31,10.71-11.74,1.55-1.43-5.38-2.72-10.74-4.7-15.96-3.75-9.9-9.54-20.8-19.63-25.43-3.05-1.4-6.52-1.55-9.88-1.63-12.82-.32-25.65-.03-38.44.85-6.16.43-12.42,1.02-18.13,3.38-8.35,3.47-15.89,10.97-21.8,17.71-6.1,6.96-4,19.68-3.6,28.17.34,7.31,1.1,14.61,2.25,21.83Z"/><path class="cls-5" d="M132.79,165.19c1.72.56,3.5,1.05,5.03,2.01,4.41,2.74,5.72,8.44,8.59,12.76,3.35,5.04,9.22,8.32,15.27,8.53,3.25.11,6.47-.6,9.65-1.32,4.88-1.1,9.85-2.22,14.17-4.74,3.36-1.95,6.2-4.66,9-7.35,3.85-3.69,7.77-7.52,9.95-12.39,1.26-2.82,1.88-5.87,2.73-8.83,2.46-8.6,6.92-16.62,12.93-23.24.69,1.42.68,3.07.57,4.64-.39,5.38-1.81,10.62-3.23,15.82-1.84,6.71-3.87,13.72-8.74,18.68-2.48,2.53-5.56,4.38-8.07,6.88-3.01,3-5.09,6.83-8.2,9.72-3.7,3.43-8.64,5.3-13.62,6.1s-10.07.62-15.11.43c-4.06-.15-8.22-.32-12-1.81-3.29-1.29-6.12-3.52-8.89-5.71-5.52-4.36-11.04-8.72-16.56-13.09-2.02-1.59-4.06-3.21-5.56-5.3-1.68-2.34-3.13-7.53,1.5-6.53,3.46.75,7.1,3.61,10.6,4.75Z"/><path class="cls-5" d="M92.19,33.69c.2-2.39.45-4.82,1.45-7,1.07-2.33,2.91-4.2,4.71-6.01,6.23-6.27,12.93-12.81,21.54-14.81,3.47-.8,7.11-.82,10.48-1.95,2.36-.79,4.53-2.1,6.88-2.93,3.27-1.14,6.88-1.3,10.23-.44,2.29.58,4.45,1.62,6.76,2.12,4.58.99,9.3-.21,13.93-.97,5.94-.98,12.47-1.11,17.48,2.23,2.52,1.67,4.43,4.09,6.24,6.52,4.31,5.79,8.23,11.85,11.75,18.15,5.88,10.5,10.64,21.63,14.17,33.14.55,1.79,1.07,3.72.49,5.5s-2.74,3.16-4.37,2.23c-3.09-11.6-6.31-23.49-13.31-33.24-2.44-3.4-5.45-6.58-9.31-8.2-2.65-1.11-5.56-1.42-8.43-1.61-5.93-.4-11.87-.34-17.81-.28-14,.14-28.18.33-41.88,3.57-6.24,1.48-12.95,3.01-17.41,7.83-2.45,2.65-4.47,5.65-6.51,8.62-.98,1.44-4.75,8.43-6.79,8.11-2.51-.39-.49-18.1-.29-20.59Z"/><path class="cls-6" d="M155.1,213.85c3.52,5.73,7.15,11.46,11.88,16.3s10.68,8.77,17.41,10.1c3.22.64,6.54.66,9.83.65,2.58,0,5.19-.04,7.71-.59,5.3-1.15,9.79-4.44,14.09-7.65,1.32-.98,2.65-1.98,3.63-3.28,1.05-1.4,1.65-3.07,2.22-4.71,3.68-10.49,7.41-21.35,6.41-32.39-.28-3.15-.95-6.25-1.39-9.38-1.31-9.36-.65-19.21-4.52-27.88-1.99,1.03-2.22,3.63-2.71,5.77-1.88,8.2-10.41,13.12-15.05,20.21-1.59,2.42-2.75,5.15-4.75,7.27-3.09,3.28-7.73,4.66-12.2,5.59-5.24,1.09-10.56,1.77-15.91,2.11-9.77.62-17.9-.87-27-4.02-.5,3.11,2.67,8.18,4.1,11.02,1.89,3.73,4.05,7.33,6.24,10.89Z"/><path class="cls-4" d="M7.56,249.87c-3.94,8.98-7.1,18.46-7.52,28.26-.28,6.54.86,13.53,5.19,18.43,2.69,3.04,6.37,5.01,9.98,6.87,11.79,6.07,23.9,11.75,36.79,14.85,12.53,3.01,25.51,3.52,38.39,4.01,30.28,1.15,60.61,2.31,90.86.52,26.86-1.59,53.59-5.49,80.49-5.66,19.87-.12,40.35,1.7,59.09-4.93,5.45-1.93,10.65-4.55,16.14-6.37,10.07-3.34,15.68-3.79,21.83-13.59,4.88-7.78,6.32-17.51,6.67-26.52.64-16.59-1.33-33.46-7.61-48.83-5.37-13.14-14.03-25.2-25.57-33.59-12.38-8.99-23.59-19.79-36.88-27.55-20.39-11.9-44.97-16.43-68.27-12.6,2.33,18.66,3.2,37.51,2.58,56.3-.58,17.5-4.07,34.65-19.27,43.35-6.7,3.84-14.79,4.73-22.46,3.82-16.83-1.99-28.22-10.61-36.07-25.63-4.94-9.45-11.13-19.45-17.03-28.33-3.63-5.46-8.56-9.9-13.43-14.28-10.11-9.08-17.71-17.24-31.27-11.46-12.24,5.21-23.81,12.55-34.23,20.77-20.82,16.42-37.73,37.86-48.41,62.16Z"/><g id="d5Qv3f"><path class="cls-3" d="M269.03,239.7c.32.2.51.31.7.43,2.56,1.59,5.32,2.23,8.33,1.89,7.18-.81,12.3-7.86,10.84-14.96-1.41-6.87-7.89-11.31-14.76-9.93-5.01,1-8.27,4.11-9.77,9.01-.26.86-.19.93.73.93,1.04,0,2.09-.06,3.13.02.82.06,1.2-.25,1.58-.97,1.53-2.94,4.02-4.34,7.32-4.11,3.06.21,5.23,1.87,6.37,4.67,1.19,2.93.65,5.7-1.52,8.02-3.63,3.89-10.05,2.82-12.29-2.01-.25-.54-.54-.74-1.12-.72-1.24.04-2.49.02-3.73.01-.42,0-.65.14-.65.6.02,2.24-.06,4.48.05,6.71.11,2.24,1.56,3.73,3.73,4.13.63.12.92-.01.92-.72,0-.96.08-1.92.14-3Z"/><path class="cls-3" d="M269.03,239.7c-.06,1.08-.14,2.04-.14,3,0,.71-.29.84-.92.72-2.17-.4-3.62-1.89-3.73-4.13-.11-2.23-.03-4.47-.05-6.71,0-.46.22-.6.65-.6,1.24.01,2.49.03,3.73-.01.58-.02.87.18,1.12.72,2.25,4.83,8.66,5.9,12.29,2.01,2.17-2.32,2.71-5.09,1.52-8.02-1.14-2.8-3.31-4.46-6.37-4.67-3.3-.23-5.79,1.18-7.32,4.11-.38.72-.76,1.03-1.58.97-1.04-.08-2.09-.01-3.13-.02-.92,0-.99-.07-.73-.93,1.5-4.9,4.76-8.01,9.77-9.01,6.86-1.37,13.34,3.07,14.76,9.93,1.46,7.1-3.66,14.15-10.84,14.96-3.01.34-5.77-.3-8.33-1.89-.19-.12-.38-.23-.7-.43Z"/></g><polygon class="cls-7" points="152.28 90.65 174.63 126.04 148.03 132.28 152.28 90.65"/><polygon class="cls-5" points="191.8 142.96 191.61 143.07 168.21 157.02 141.03 154.94 140.82 154.92 164.41 140.86 191.8 142.96"/><path class="cls-8" d="M129.76,106.31c-5.8,1.36-11.62,1.98-15.53-1.93,1.76-5.24,6.11-9.49,11.91-10.85,5.8-1.36,11.59.5,15.49,4.42-1.76,5.24-6.08,7-11.88,8.36Z"/><path class="cls-8" d="M185.22,94.53c-5.8,1.36-11.62,1.98-15.53-1.93,1.76-5.24,6.11-9.49,11.91-10.85s11.59.5,15.49,4.42c-1.76,5.24-6.08,7-11.88,8.36Z"/><circle class="cls-4" cx="128.76" cy="100.44" r="6.63" transform="translate(-34.31 91.71) rotate(-34.89)"/><circle class="cls-4" cx="184.22" cy="88.66" r="6.63" transform="translate(-17.6 121.31) rotate(-34.89)"/><polyline class="cls-1" points="107.62 86.87 119.69 78.3 133.77 77.75"/><polyline class="cls-1" points="165.14 75.09 177.69 67.23 191.78 67.51"/><path class="cls-5" d="M136.69,141.72c-1.6,1.14-3.22,2.78-3.03,4.74,1.29.31,2.66.3,3.94-.04,1.08-.28,2.09-.79,3.09-1.29,1.97-.99,10.37-3.45,6.79-6.4-3.03-2.5-8.26,1.19-10.79,2.99Z"/><path class="cls-5" d="M196.03,128.69c1.83.72,3.8,1.91,4.1,3.86-1.17.62-2.5.94-3.83.92-1.12-.01-2.22-.26-3.31-.5-2.15-.48-10.9-.82-8.15-4.55,2.33-3.17,8.3-.86,11.19.27Z"/><path class="cls-2" d="M119.45,85.76c7.87-3.08,18.48-6.96,24.92-.09,7.16-3.81,15.88-5.65,21.9-3.12,60.07-40.02,34.54,65.94,1.65,13.57-6.42-10.23-3.43-8.67-3.83-8.73-2.62.11-17.35.94-16.58,4.19,1.44,7.3-1.45,15.56-6.71,21.45-20.57,22.32-48.81-16.52-21.35-27.27Z"/></g></svg>