<?xml version="1.0" encoding="UTF-8"?><svg id="Calque_2" xmlns="http://www.w3.org/2000/svg" viewBox="0 0 322.7 312.83"><defs><style>.cls-1{stroke:#141456;}.cls-1,.cls-2{fill:none;stroke-miterlimit:10;stroke-width:4px;}.cls-2{stroke:#49e8bb;}.cls-3{fill:#49e8bb;}.cls-3,.cls-4,.cls-5,.cls-6,.cls-7,.cls-8{stroke-width:0px;}.cls-4{fill:#141456;}.cls-5{fill:#e20917;}.cls-6{fill:#fbcb5d;}.cls-7{fill:#fffbee;}.cls-8{fill:#fff;}</style></defs><g id="Calque_8"><path class="cls-6" d="M119.39,92.15c.05,5.57.17,11.44,2.99,16.24,1.67,2.84,4.17,5.1,5.92,7.89,1.45,2.32,2.33,4.95,3.2,7.54,2.12,6.32,4.23,12.63,6.35,18.95,1.43,4.27,3,8.75,6.38,11.72,4.27,3.74,10.4,4.23,16.08,4.45,5.25.2,10.5.31,15.74.33,6.02.03,12.62-.26,17.13-4.24,1.95-1.72,3.32-3.99,4.66-6.21,3.25-5.41,6.51-10.82,9.76-16.24,2.39-3.97,4.77-7.94,6.8-12.1,1.61-3.3,3-6.74,3.78-10.33.78-3.56.96-7.22,1.14-10.86.33-6.79.66-13.58.79-20.38.13-6.91.03-13.97-2.2-20.51-2.23-6.54-6.93-12.59-13.49-14.78-5.39-1.8-11.27-.84-16.94-1.23-5.5-.37-10.82-2.02-16.19-3.22-9.28-2.07-18.8-2.8-28.29-3.12-10.94-.37-17.7,4.39-19.89,15.1-2.81,13.78-3.84,26.94-3.72,41.02Z"/><path class="cls-5" d="M154.2,26.57c-1.35-3-1.19-6.46-.65-9.7.69-4.09,2.01-8.18,4.6-11.42S164.74-.1,168.88.1c4.05.2,7.59,2.64,11.38,4.1,10.73,4.15,23.32.38,33.98,4.71,9.2,3.74,15.04,12.68,20.28,21.12,4.48,7.23,9.1,14.95,9.16,23.46.04,5.33-1.73,10.52-2.01,15.84-.28,5.32,1.51,11.4,6.34,13.65,1.57.73,3.34.99,4.86,1.82,4.96,2.71,5.04,9.74,4.06,15.32-1.23,6.94-3.24,14.1-8.1,19.21-3.62,3.8-8.9,6.67-9.99,11.8-.24,1.1-.29,2.34-1.07,3.16-.63.66-1.59.88-2.48,1.06-3.31.68-6.63,1.37-9.94,2.05-1.08.22-2.21.46-3.09,1.13-1.86,1.41-1.99,4.16-1.52,6.44s1.34,4.59.89,6.88c-.52,2.65-2.79,4.69-5.31,5.69s-5.28,1.12-7.98,1.23c-.53-3.57,3.73-5.74,5.75-8.73,1.81-2.67,1.78-6.12,2.13-9.33.34-3.21,1.44-6.79,4.36-8.16,1.98-.93,4.4-.62,6.31-1.68,3.78-2.1,3.2-7.54,3.23-11.87.02-2.67.47-5.39-.17-7.98-.61-2.47-2.17-4.58-3.37-6.82-5.07-9.44-3.86-20.82-3.7-31.53s-1.6-22.81-10.23-29.15c-4.37-3.21-9.87-4.41-15.19-5.47-8.99-1.78-18.01-3.43-27.04-4.95-5.76-.97-13.31-.1-16.2-6.54Z"/><path class="cls-5" d="M152.11,9.27c.92-1.68,2.05-3.75,1.02-5.37-.44-.7-1.21-1.12-1.96-1.48-7.25-3.46-16.16-3.2-23.2.66-3.61,1.98-6.68,4.81-10.2,6.93-4.59,2.77-9.82,4.29-14.54,6.81s-9.17,6.47-10.19,11.73c-.43,2.23-.21,4.54-.5,6.79s-1.25,4.63-3.27,5.67c-2.09,1.08-4.99.6-6.52,2.38-.54.63-.8,1.45-1,2.25-1.46,6.13.44,12.49,1.86,18.63.16.71.32,1.46.11,2.15-.26.84-1,1.42-1.62,2.04-5.01,4.95-3.58,13.22-1.78,20.03,1.32,5,2.72,10.16,6.01,14.15,2.33,2.83,5.49,4.89,7.77,7.76,3.64,4.58,4.63,11.13,2.51,16.59-.44,1.14-1.02,2.27-1.11,3.5-.1,1.35.41,2.66.91,3.92,2.49,6.29,5.37,13.05,11.24,16.41,3.11,1.78,7.02,2.59,9.11,5.5,1.11,1.55,1.53,3.5,2.48,5.16s2.85,3.1,4.67,2.49c.26-8.42-.4-16.87-1.97-25.14-.53-2.78-1.34-5.82-3.71-7.37-3.07-2.01-7.69-.74-10.34-3.28-1.57-1.51-1.89-3.86-2.12-6.02-.49-4.57-.97-9.13-1.46-13.7-.66-6.19-1.27-12.7,1.24-18.4.24-.55.58-1.14,1.16-1.29.5-.13,1.01.12,1.5.28,3.29,1.11,6.84-1.63,7.99-4.91s.59-6.86.22-10.31c-.76-7.1-.69-14.3.21-21.39.41-3.22,1.01-6.45,2.41-9.38,2.52-5.25,7.49-9.06,12.96-11.07,4.18-1.53,13.48-.52,16.4-4.19,1.66-2.08.61-5.35.73-7.78.18-3.75,1.19-7.47,2.99-10.77Z"/><path class="cls-6" d="M115.01,94.03c-1.1-.85-2.27-1.67-3.63-1.96s-2.93.07-3.74,1.19c-.64.9-.69,2.08-.71,3.18-.14,7.34-.27,14.75,1.21,21.93.47,2.26,1.11,4.53,2.37,6.46.81,1.24,1.95,2.38,3.41,2.66s3.18-.63,3.35-2.1c.09-.77-.23-1.51-.52-2.22-1.56-3.86-2.28-8.06-2.12-12.22.12-2.98.69-5.94.65-8.92-.02-1.85.16-3.83.34-5.67.06-.59-.4-1.78-.61-2.33Z"/><path class="cls-6" d="M225.81,113.88c-.02,3.91-1.04,7.74-2.23,11.46-.23.73-.48,1.46-.91,2.1-.78,1.16-2.18,1.87-3.58,1.82-.32-.01-.67-.07-.9-.31-.31-.32-.27-.83-.21-1.27.89-6.39,1.85-12.77,2.89-19.14.3-1.85,1.38-6.32,3.25-2.66,1.24,2.43,1.69,5.3,1.68,8Z"/><path class="cls-5" d="M131.33,131.14c2.85,8.33,3.79,17.87,9.95,24.15,3.26,3.32,7.68,5.32,12.22,6.33s9.23,1.09,13.89,1.02c2.76-.04,5.51-.13,8.27-.23,5.3-.21,10.78-.53,15.53-2.91,2.99-1.5,5.57-3.78,7.47-6.53,1.58-2.28,2.69-4.84,3.96-7.3,2.36-4.57,5.29-8.82,8.2-13.06.45-.66.97-1.36,1.75-1.55.99-.24,2,.54,2.37,1.49s.25,2.01.08,3.02c-1.64,9.39-7.54,17.39-13.27,25.01-3.79,5.04-7.71,10.2-13.11,13.45-5.47,3.3-12.08,4.35-18.46,4s-12.61-2.03-18.73-3.86c-2.98-.89-5.94-1.83-8.91-2.76-1.12-.35-2.25-.71-3.21-1.38-.9-.63-1.61-1.51-2.28-2.38-2.71-3.49-5.26-7.1-7.65-10.82-1.3-2.03-2.57-4.14-3.09-6.5-.43-1.93-.33-3.94-.43-5.91-.22-4.36-1.37-8.59-2.56-12.76-1.1-3.87-2.95-8.39-2.89-12.46.02-1.11.35-3.27,1.92-3.27,1.42,0,2.87,3.06,3.55,4.1,2.25,3.47,4.08,7.21,5.43,11.13Z"/><path class="cls-6" d="M123.03,181.16c-1.63,2.74-3.95,4.99-6.24,7.2-3.06,2.95-6.11,5.91-9.17,8.86-.91.88-1.85,1.8-2.31,2.98-1.09,2.8.85,5.8,2.69,8.18,7.48,9.66,15.61,19.66,26.98,24.1,3.56,1.39,7.32,2.18,11.09,2.85,11.2,1.98,22.84,2.87,33.84.02,7.87-2.04,15.12-5.91,22.29-9.75,4.3-2.3,8.64-4.64,12.22-7.94s6.37-7.73,6.7-12.6c.08-1.19,0-2.43-.54-3.49-1.3-2.56-4.59-3.16-7.11-4.52-3.26-1.76-5.46-5.08-6.65-8.6s-1.47-7.26-1.75-10.96c-.31-4.19-.63-8.38-.94-12.58-3.49,3.43-6.97,6.86-10.46,10.29-2.13,2.1-4.34,4.25-7.1,5.39-2.24.93-4.7,1.14-7.12,1.29-4.6.29-9.2.4-13.8.52-3.86.1-7.75.19-11.53-.57-9.17-1.85-15.3-8.15-21.8-14.3-2.54-2.41-5.53-3.91-6.1.42-.62,4.68-.67,8.99-3.18,13.2Z"/><path class="cls-4" d="M54.97,218.74c-17.46,8.03-35.47,16.93-46.97,32.32-5.33,7.13-9.12,16.03-7.71,24.82,1.23,7.63,6.25,14.2,12.2,19.14,19.12,15.83,46.16,16.51,70.98,16.74,68.79.63,137.85,3.63,206.19-4.3,11.51-1.34,24.58-4.01,30.31-14.08,3.75-6.59,3.24-14.89.75-22.06-2.48-7.17-6.73-13.57-10.35-20.24-4.08-7.51-7.47-15.52-13.04-21.99-8.64-10.05-21.58-15.32-34.41-18.64s-26.12-5.07-38.48-9.82c-.06,12.52-9.92,22.93-20.66,29.38-23.42,14.05-54.08,15.16-78.44,2.83-6.77-3.42-13.17-7.92-17.58-14.08-4.41-6.17-6.62-14.19-4.65-21.51-.92,3.29-19.27,8.58-22.42,9.96-8.61,3.77-17.19,7.62-25.73,11.55Z"/><path class="cls-2" d="M141.43,76.95c7.48-1.38,17.52-2.98,21.9,5.07,7-2.24,15-2.24,19.81,1.48,60.18-26.72,18.08,71.66-1.08,13.61-3.74-11.34-1.4-9.19-1.74-9.34-2.32-.43-15.41-2.67-15.33.67-.09,7.44-4.16,14.92-9.88,19.6-22.21,17.58-39.79-26.27-13.68-31.1Z"/><polygon class="cls-7" points="174.32 94.78 185.73 123.78 162.87 123.78 174.32 94.78"/><polygon class="cls-5" points="193.74 141.15 193.57 141.2 171.73 148.12 149.89 141.2 149.72 141.15 171.73 134.17 193.74 141.15"/><path class="cls-8" d="M146.86,93.94c-5.01,0-9.89-.61-12.34-4.56,2.45-3.95,6.82-6.59,11.83-6.59s9.39,2.64,11.83,6.59c-2.45,3.95-6.32,4.56-11.32,4.56Z"/><circle class="cls-4" cx="145.34" cy="89.38" r="5.58"/><path class="cls-8" d="M198.53,94.97c-5.01,0-9.89-.61-12.34-4.56,2.45-3.95,6.82-6.59,11.83-6.59s9.39,2.64,11.83,6.59c-2.45,3.95-6.32,4.56-11.32,4.56Z"/><circle class="cls-4" cx="197.01" cy="90.41" r="5.58"/><polyline class="cls-1" points="128.25 76.43 142.55 70.6 156.98 73.4"/><polyline class="cls-1" points="186.68 75.55 198.6 71.98 209.96 75.32"/><g id="_4mxPS5"><path class="cls-3" d="M232.11,268.81c0-2.41,0-4.83,0-7.24,0-.7.05-.74.74-.76,1.45-.04,2.9-.14,4.35-.09.86.03,1.74.22,2.55.49,1.46.49,2.31,1.59,2.51,3.09.46,3.42-1.25,5.76-4.7,6.27-.26.04-.52.07-.78.09-.76.07-.8.01-.96-.73-.09-.45.04-.67.48-.73.14-.02.27-.07.41-.1,1.21-.29,2.03-1.03,2.18-2.26.12-.92.13-1.89-.06-2.79-.26-1.27-1.96-2.06-3.16-1.58-.15.06-.29.34-.3.52-.03.75-.02,1.5-.02,2.26,0,3.6,0,7.21,0,10.81,0,.71-.02.73-.74.73-.63,0-1.26-.02-1.89,0-.49.03-.63-.18-.63-.64.01-2.45,0-4.9,0-7.35Z"/><path class="cls-3" d="M220.36,268.76c0-2.41,0-4.83,0-7.24,0-.7.02-.72.69-.72,2.52,0,5.04,0,7.55,0,.68,0,.7.02.61.73-.13.98-.13.97-1.11.99-1.33.02-2.65.07-3.98.08-.39,0-.53.16-.52.54.01,1.31.01,2.62,0,3.93,0,.44.17.58.59.58,1.31.01,2.62.07,3.93.07.51,0,.68.16.65.67-.06.88-.1.92-.99.94-1.22.02-2.44.07-3.67.09-.35,0-.51.13-.51.5,0,1.52,0,3.04,0,4.56,0,.35.14.51.49.51,1.64.03,3.28.07,4.93.1.67.01.72.06.68.73,0,.12-.04.24-.04.36,0,.46-.23.61-.7.61-2.24-.02-4.48,0-6.72,0-.42,0-.84-.03-1.26,0-.49.04-.64-.17-.64-.64.01-2.47,0-4.93,0-7.4Z"/><path class="cls-3" d="M254.48,269.69c0-2.13-.01-4.27.01-6.4,0-.53-.17-.7-.69-.7-1.14,0-2.27-.06-3.41-.07-.41,0-.55-.14-.49-.57.16-1.14.14-1.15,1.29-1.15,3.48,0,6.96,0,10.44,0,.73,0,.78.07.68.79-.13.9-.13.89-1.06.91-.91.02-1.82.06-2.72.09q-.79.03-.79.84c0,4.09,0,8.18,0,12.28,0,1.2.07,1.08-1.07,1.08-.49,0-.98,0-1.47,0-.69,0-.71-.02-.72-.7,0-1.94,0-3.88,0-5.82,0-.19,0-.38,0-.58Z"/><path class="cls-3" d="M244.78,269.07c0-2.53.01-5.07-.01-7.6,0-.53.15-.72.68-.69.66.04,1.33.02,1.99,0,.38-.01.54.14.53.52-.01.73,0,1.47,0,2.2,0,4,0,8.01,0,12.01,0,1.43-.25,2.79-1.1,3.97-.81,1.12-1.94,1.78-3.2,2.27-.33.13-.51-.02-.61-.3-.09-.26-.52-.53-.09-.81,1.47-.98,1.78-2.48,1.8-4.09.03-2.5,0-5,0-7.5Z"/><path class="cls-3" d="M244.79,245.56c0-1.09,0-1.04,1.13-.97,2.28.15,4.46.64,6.5,1.69,3.65,1.87,5.59,4.95,6.27,8.91.11.67.15,1.35.22,2.03.04.41-.1.61-.56.59-1.71-.06-1.39.32-1.6-1.43-.6-4.98-3.59-8.61-8.82-9.49-.79-.13-1.6-.18-2.4-.23-.74-.05-.75-.03-.75-.78,0-.1,0-.21,0-.31Z"/><path class="cls-3" d="M246.34,248.2c2.53.19,5.18,1.09,7.04,3.58,1.06,1.42,1.55,3.07,1.74,4.82,0,.09,0,.17.01.26.07,1-.19,1.23-1.2.98-.14-.03-.3-.27-.32-.43-.14-1.37-.41-2.7-1.1-3.91-1.27-2.25-3.27-3.37-5.77-3.69-.48-.06-.97-.1-1.46-.11-.35,0-.49-.13-.51-.49-.04-1.05-.05-1.05,1.56-1.02Z"/><path class="cls-3" d="M246.67,254.68c1.14,0,2.03.89,2.04,2.02,0,1.07-.93,2.01-2.01,2.02-1.12,0-2.05-.91-2.05-2.02,0-1.15.87-2.03,2.02-2.02Z"/><path class="cls-3" d="M245.82,251.58c3.11-.01,5.27,1.9,5.63,4.98.03.28.06.55.09.83.03.29-.07.48-.39.48-.29,0-.55.02-.62-.38-.12-.67-.2-1.35-.42-1.99-.61-1.73-1.87-2.69-3.7-2.86-.41-.04-.83-.04-1.25-.02-.28,0-.45-.07-.45-.37,0-.27-.07-.61.32-.67.26-.04.52,0,.78,0Z"/></g></g></svg>