<?xml version="1.0" encoding="UTF-8"?><svg id="Calque_2" xmlns="http://www.w3.org/2000/svg" viewBox="0 0 324.28 318.06"><defs><style>.cls-1{fill:none;stroke:#141456;stroke-miterlimit:10;stroke-width:4px;}.cls-2{fill:#49e8bb;}.cls-2,.cls-3,.cls-4,.cls-5,.cls-6,.cls-7{stroke-width:0px;}.cls-3{fill:#141456;}.cls-4{fill:#e20917;}.cls-5{fill:#fbcb5d;}.cls-6{fill:#fffbee;}.cls-7{fill:#fff;}</style></defs><g id="Calque_8"><path class="cls-4" d="M210.35,188.81c-4.37,9.85-5,13-8.15,20.05-2.85-9.05-1.85-14.05.63-22.5-4.47,4.29-3.48,8.44-13.41,12.87,8.33-16.39,16.72-32.97,21.09-50.83,3.78-15.47,4.42-31.7,1.89-47.41-1.62-10.06-4.53-19.87-7.42-29.65-1.61-5.45-3.23-10.9-4.84-16.36-1.9-6.43-3.87-12.99-7.68-18.51-3.81-5.52-9.86-9.94-16.57-10.05,1.77.03-1.08-13.36-1.52-14.53-1.32-3.43-7.24-8.81-3.81-11.04,3.1-2.02,11.77.06,15.05.89,4.85,1.23,9.46,3.45,13.21,6.79,4.12,3.67,7.05,8.47,9.92,13.19,9.57,15.73,19.22,31.66,24.71,49.24,2.15,6.89,3.64,13.97,4.99,21.06,3.11,16.27,6.76,32.74,10.91,48.78,7,27,17,38,17.78,65.83.11,6.67-1.02,13.35-3.33,19.6-11.26,1.07-22.81-1.22-32.8-6.51-1.44-.76-2.87-1.6-3.99-2.78-1.43-1.5-14.66-13.14-16.66-28.14Z"/><path class="cls-5" d="M121.97,103.92c-2.79,5.79-5.88,11.67-6.34,18.08-.47,6.67,1.98,13.19,4.83,19.24,1.35,2.86,2.8,5.7,4.73,8.21,4.54,5.91,11.49,9.62,18.71,11.45s14.77,1.91,22.21,1.63c4.9-.18,9.89-.53,14.44-2.35,4.03-1.61,7.52-4.3,10.93-6.98,6.41-5.04,13.06-10.64,15.54-18.41,1.4-4.38,1.33-9.09,1.03-13.68-.86-13.44-3.49-26.7-6.11-39.92-2.24-11.26-4.5-22.62-9.02-33.18-3.5-8.19-9.2-16.46-17.86-18.52-4.31-1.02-8.81-.36-13.19.31-4.59.7-16.53.15-19.38,4.47-1.63,2.47-1.33,7.88-1.83,10.8-.7,4.15-1.52,8.29-2.46,12.39-1.84,8.08-4.14,16.06-6.88,23.88-1.35,3.85-2.8,7.66-4.36,11.42-1.19,2.86-4.99,8.17-4.99,11.16Z"/><path class="cls-5" d="M116.24,191.23c3.07,6.23,10.87,8.16,17.7,9.39,4.09.74,8.2,1.48,12.35,1.65,13.19.56,26.09-4.64,36.99-12.09,5.25-3.58,10.29-7.9,12.92-13.68,3.05-6.68,2.49-14.38,1.87-21.7-8.36,8.39-19.94,13.48-31.78,13.96-6.43.26-12.83-.78-19.18-1.82-6.7-1.1-10.45-3.7-15.9-7.4-2.76-1.87-7.46-3.93-9.93-.5-1.4,1.94-1.16,5.38-1.66,7.66-.65,2.95-1.65,5.79-2.57,8.66-1.41,4.44-3.86,11.52-.83,15.87Z"/><path class="cls-3" d="M268.35,220.81c-.3,1.72-1.06,7.8-4,8-5.66.38-29.15-3.47-33.63-6.5-2.35-1.59-4.67-3.28-6.57-5.39-2.9-3.23-14.32-15.94-13.8-17.11-2.26,5.14-5.74,9.86-8,15-1.33-2.04-3.91-4.58-5.24-6.62-29.69,20.72-69.71,20.69-96.76-3.38-1.5-1.33-7.68,6.68-9,8-6,6-20.03,22.46-21,21-10-15-10.83-34.94-13-34-6.17,2.66-5.06,2.48-10.88,5.89-5.29,3.1-9.8,8.06-13.94,12.52-10,10.77-18.1,23.29-23.85,36.81-2.81,6.62-7.28,15.88-7.28,23.19-2.3,11.07-2.56,24.05,5.4,32.08,7.59,7.66,19.68,7.94,30.47,7.72,92.36-1.92,184.73-3.83,277.09-5.75,1.23-.03,2.52-.07,3.59-.67,1.5-.85,2.21-2.59,2.75-4.23,4.02-12.26,4.02-25.46,3.08-38.33-.64-8.82-1.73-17.74-5.02-25.95-2.93-7.31-7.5-13.83-12.03-20.27-4.13-5.88-7.74-12.16-12.4-17.63-7.99-9.37-20.18-6.37-21.99-5.37-3.6,1.99-3.3,16.95-4,21Z"/><path class="cls-3" d="M111.74,190.76c-1.49,3.85-4.22,7.21-7.68,9.46-.28.18-.59.39-.68.71-.1.36.11.72.33,1.01,1.54,2.12,3.86,3.5,6.17,4.73,17.95,9.51,39.22,12.58,59.13,8.54,2.96-.6,5.9-1.35,8.73-2.41,3.95-1.47,7.66-3.52,11.35-5.55,1.51-.83,3.02-1.67,4.31-2.82,1.6-1.43,2.78-3.32,3.36-5.39-3.11-.1-6.24.79-8.84,2.5-1.44-1.61.25-4.57-1.19-6.18-1.3-1.45-3.66-.39-5.27.7-4.74,3.22-9.74,6.27-15.32,7.58-3.77.88-7.69.93-11.56.98-7.34.09-14.8,1.06-22.01-.28-8.23-1.53-12.23-4.53-14.23-6.53-2.27-2.27-3.86-5.39-6.6-7.04Z"/><polygon class="cls-6" points="168.35 83.81 180.29 119.81 156.41 119.81 168.35 83.81"/><polygon class="cls-4" points="187.49 131.15 187.32 131.2 165.78 138.03 144.23 131.2 144.07 131.15 165.78 124.26 187.49 131.15"/><path class="cls-7" d="M144.35,89.81c-4.94,0-9.76-.6-12.17-4.5,2.41-3.9,6.73-6.5,11.67-6.5s9.26,2.6,11.67,6.5c-2.41,3.9-6.23,4.5-11.17,4.5Z"/><path class="cls-7" d="M191.35,90.81c-4.94,0-9.76-.6-12.17-4.5,2.41-3.9,6.73-6.5,11.67-6.5s9.26,2.6,11.67,6.5c-2.41,3.9-6.23,4.5-11.17,4.5Z"/><circle class="cls-3" cx="142.85" cy="85.31" r="5.5"/><circle class="cls-3" cx="189.85" cy="86.31" r="5.5"/><polyline class="cls-1" points="128.83 75.57 140.2 70.94 151.67 73.17"/><polyline class="cls-1" points="179.68 74.91 191.3 70.95 202.62 73.84"/><g id="d5Qv3f"><path class="cls-2" d="M241.68,260.88c.32.2.51.31.7.43,2.56,1.59,5.32,2.23,8.33,1.89,7.18-.81,12.3-7.86,10.84-14.96-1.41-6.87-7.89-11.31-14.76-9.93-5.01,1-8.27,4.11-9.77,9.01-.26.86-.19.93.73.93,1.04,0,2.09-.06,3.13.02.82.06,1.2-.25,1.58-.97,1.53-2.94,4.02-4.34,7.32-4.11,3.06.21,5.23,1.87,6.37,4.67,1.19,2.93.65,5.7-1.52,8.02-3.63,3.89-10.05,2.82-12.29-2.01-.25-.54-.54-.74-1.12-.72-1.24.04-2.49.02-3.73.01-.42,0-.65.14-.65.6.02,2.24-.06,4.48.05,6.71.11,2.24,1.56,3.73,3.73,4.13.63.12.92-.01.92-.72,0-.96.08-1.92.14-3Z"/><path class="cls-2" d="M241.68,260.88c-.06,1.08-.14,2.04-.14,3,0,.71-.29.84-.92.72-2.17-.4-3.62-1.89-3.73-4.13-.11-2.23-.03-4.47-.05-6.71,0-.46.22-.6.65-.6,1.24.01,2.49.03,3.73-.01.58-.02.87.18,1.12.72,2.25,4.83,8.66,5.9,12.29,2.01,2.17-2.32,2.71-5.09,1.52-8.02-1.14-2.8-3.31-4.46-6.37-4.67-3.3-.23-5.79,1.18-7.32,4.11-.38.72-.76,1.03-1.58.97-1.04-.08-2.09-.01-3.13-.02-.92,0-.99-.07-.73-.93,1.5-4.9,4.76-8.01,9.77-9.01,6.86-1.37,13.34,3.07,14.76,9.93,1.46,7.1-3.66,14.15-10.84,14.96-3.01.34-5.77-.3-8.33-1.89-.19-.12-.38-.23-.7-.43Z"/></g><path class="cls-4" d="M61.48,185.72c.22-11.69,2.59-23.21,6.39-34.26,1.55-4.52,2.64-9.22,3.88-13.85,2.42-9.04,5.47-17.9,7.69-26.99,6.24-25.48,6.25-53.29,19.98-75.64,5.02-8.17,11.71-15.24,19.17-21.27,10.38-8.39,23.83-15.05,36.76-11.71,2.55.66,5.04,1.72,7.08,3.38,6.49,5.31,12.23,25.53-1.89,20.88-4.29-1.41-8.79-2.11-13.29-1.74-2.08.17-4.22.53-6,1.64-3.94,2.45-4.93,7.66-5.53,12.26-1.93,14.72-3.74,29.66-9.33,43.41-5.5,13.53-14.73,26.34-14.39,40.94.12,5.27,1.53,10.42,2.47,15.61,2.71,14.93,1.57,30.53-3.26,44.91-2.47,7.35-8.02,14.9-13.76,20.12s-12.08,9.86-16.93,15.92c-2.97,3.72-5.51,8.08-9.75,10.24-2.6-3.73-3.84-8.26-5.38-12.44-1.76-4.78-2.88-9.77-3.33-14.84-.47-5.33-.68-10.92-.57-16.58Z"/></g></svg>