<?xml version="1.0" encoding="UTF-8"?><svg id="Calque_2" xmlns="http://www.w3.org/2000/svg" viewBox="0 0 321.89 306.68"><defs><style>.cls-1{fill:none;stroke:#141456;stroke-miterlimit:10;stroke-width:4px;}.cls-2{fill:#49e8bb;}.cls-2,.cls-3,.cls-4,.cls-5,.cls-6,.cls-7{stroke-width:0px;}.cls-3{fill:#141456;}.cls-4{fill:#e20917;}.cls-5{fill:#fbcb5d;}.cls-6{fill:#fffbee;}.cls-7{fill:#fff;}</style></defs><g id="Calque_8"><path class="cls-4" d="M102.91,61.32c-2.29,5.67-4.58,11.34-6.87,17.01-1.62,4.02-3.27,8.15-3.37,12.49-.07,3.37.8,6.69.88,10.06.39,16.3-16.94,27.77-20.44,43.7-2.49,11.35,2.45,22.94,8.07,33.12,3.83,6.94,8.14,14,8.74,21.91.47,6.24-1.43,12.4-1.87,18.65-.74,10.5,2.88,21.23,9.81,29.15,1.1,1.26,2.32,2.47,3.84,3.16,5.81,2.63,12.08-3.85,12.9-10.18s-1.45-12.69-1.06-19.05c.71-11.72,10.23-21.96,9.32-33.67-.49-6.32-3.34-14.38,2-17.8,2.8-1.79,7.21-1.5,8.57-4.53.56-1.25.36-2.69.15-4.05-1.12-7.13-2.37-14.57-6.65-20.38-2.24-3.05-5.24-5.51-7.33-8.66-4.41-6.64-4.23-15.2-3.88-23.16.09-2.18.33-4.65,2.06-5.98,1.21-.93,2.92-1.07,4.05-2.1,1.27-1.16,1.44-3.06,1.52-4.77.27-5.37.54-10.74.81-16.1.36-7.13,1.54-15.6,7.95-18.75,4.02-1.98,8.84-1.08,13.22-2.02,5.83-1.25,10.56-5.74,13.5-10.93,2.95-5.19,4.37-11.08,5.76-16.88,2.69,14.85,14.33,27.71,28.84,31.87-4.63-9.1-5.5-20.04-2.36-29.75,6.38,20.41,24.88,36.51,45.97,40.02-4.45,1.57-7.21,6.62-6.62,11.3s4.2,8.71,8.62,10.34c3.04,1.12,6.61,1.33,8.92,3.61,2.33,2.3,2.58,6.01,1.95,9.23-2.86,14.7-18.98,22.55-26.82,35.31-6.12,9.98-6.65,23.15-1.34,33.59,3.24,6.36,8.54,11.99,9.33,19.08,1,9.01-5.61,18.32-2.22,26.73,2.08,5.16,7.44,8.27,12.78,9.8s10.99,1.88,16.29,3.57c12.18,3.89,21.92,17.17,18.21,29.4,6.03-3.05,13.08-8.05,11.72-14.67-.45-2.21-1.84-4.11-3.23-5.88-4.73-6.01-10.03-11.58-15.79-16.61-6.12-5.34-12.91-10.22-17.17-17.14s-5.19-16.74.38-22.65c2.75,2.8,4.67,6.41,5.47,10.25,4.01-6.26.84-15.6-2.59-21.47-3.56-6.09-5.33-10.27-5.56-17.72-.5-16.19,5.04-31.99,10.83-46.86,1.37-3.52,2.76-7.05,3.45-10.76,1.01-5.46.46-11.09-.39-16.58-3.41-22.13-11.23-41.03-27.88-56.31-4.37-4.01-8.81-7.99-13.68-11.39-10.81-7.55-23.42-11.99-36.31-14.41-10.82-2.03-26.7-5.32-37.45-2.2-12.16,3.52-23.3,11.5-29.96,22.35-3.33,5.43-4,10.51-5.52,16.4-1.91,7.37-6.73,14.24-9.58,21.29Z"/><path class="cls-5" d="M128.59,91.61c.06,4.69.52,10.12-2.94,13.28-1.19,1.08-2.7,1.73-3.98,2.71-3.46,2.66-4.68,7.59-3.6,11.81s4.17,7.73,7.82,10.1c1.43.93,2.99,1.74,4.1,3.03,1.45,1.69,1.94,3.98,2.49,6.14,1.4,5.57,3.48,10.98,6.17,16.06,1.34,2.53,2.9,5.05,5.25,6.67,1.45,1.01,3.14,1.62,4.66,2.52,1.8,1.07,3.34,2.54,5.08,3.71,6.09,4.11,13.91,4.27,21.25,4.3,4.35.01,8.82,0,12.88-1.53,2.79-1.06,5.26-2.8,7.7-4.51,9.62-6.78,19.69-14.09,24.35-24.9,1.21-2.8,2.25-6.05,4.97-7.44,1.07-.55,2.29-.73,3.44-1.07,5.91-1.76,9.56-7.55,12.39-13.03,2.05-3.97,4.01-8.22,3.79-12.68s-3.36-9.09-7.81-9.46c-1.46-.12-3,.2-4.34-.39-.82-.37-1.47-1.04-1.99-1.77-3.64-5.07-2.19-12.68-6.2-17.46-2.4-2.86-6.21-4.02-9.49-5.8-5.81-3.16-10.13-8.43-14.3-13.56-1.04.08-1.51,1.42-1.28,2.43s.89,1.9,1.1,2.92c.55,2.58-2.02,4.99-4.64,5.25s-5.15-.98-7.45-2.27c-8.37-4.68-16.13-10.45-23.02-17.11,1.47,1.42-7.92,11.1-9.06,12.08-4.12,3.51-9.04,6.08-14.28,7.43-4.05,1.04-7.66.92-9.91,4.85-2.8,4.88-3.23,12.25-3.16,17.71Z"/><path class="cls-5" d="M142.61,186.18c.67,1.29,1.83,2.24,3,3.1,13.85,10.26,33.29,12.42,49.06,5.46,4.5-1.99,8.67-4.64,12.83-7.27,1.76-1.12,3.55-2.26,4.88-3.85,2.66-3.17,3.15-7.6,3.23-11.74.1-4.96-.2-9.93-.91-14.84-5.5,3.7-11.01,7.41-16.51,11.11-2.97,2-5.99,4.02-9.36,5.23-2.85,1.02-5.87,1.43-8.88,1.71-10.67.98-19.81-.73-29.91-3.85-2.6-.8-6.87-2.13-8.72.7-1.65,2.51-.04,11.67,1.3,14.25Z"/><path class="cls-3" d="M127.27,173.05c-2.12,2.97-1.91,6.99-1.19,10.56s1.87,7.19,1.32,10.8c-.65,4.3-3.59,7.84-5.55,11.72-4.17,8.21-3.95,17.88-3.38,27.07.38,6.14.59,13.12-3.75,17.47-2.26,2.27-5.49,3.42-8.69,3.58-10.02.52-18.62-8.1-21.74-17.64s-2.13-19.85-1.6-29.88c.54-10.02.45-20.6-4.47-29.35-5.65-10.04-13.47-3.82-20.65.86-8.55,5.58-16.54,11.99-24.17,18.76-4.88,4.33-9.65,8.85-13.57,14.07-6.81,9.07-10.8,19.92-13.9,30.82-1.44,5.06-2.7,10.16-3.97,15.27-1.76,7.09-3.56,18.9.55,25.48,2.67,4.28,7.85,6.14,12.64,7.7,13.02,4.25,26.08,8.48,39.5,11.17,18.98,3.8,38.44,4.48,57.79,4.84,53.26.99,106.56-.34,159.7-3.98,8.84-.61,17.73-1.28,26.31-3.46,9.12-2.31,18.62-7.15,21.9-15.97,1.18-3.17,1.44-6.6,1.51-9.97.81-39.58-26.57-78.12-64.21-90.38,3.15,3.73,5.08,8.47,5.41,13.34.21,3.1-.44,6.64-3.03,8.35s-7.12-.32-6.47-3.36c-.93,5.03,1.75,10.12,5.4,13.7s8.22,6.05,12.37,9.04c8,5.75,14.52,13.53,18.78,22.41,1.38,2.87,2.55,6.01,2.2,9.18-.51,4.62-4.25,8.38-8.51,10.26-4.26,1.87-9.01,2.21-13.65,2.51-1.52-10.87-4.05-23.27-13.63-28.6-9.24-5.14-22.56-1.99-29.54-9.94-5.22-5.94-3.96-14.95-2.58-22.73s2.12-17.01-3.67-22.4c-.54-.5-1.15-.97-1.87-1.09-1.79-.31-3.16,1.46-4.21,2.93-11.62,16.36-35.25,19.58-54.68,14.55-6.5-1.68-13.01-4.24-17.77-8.98-4.79-4.77-5.29-9.66-5.76-15.94-.37-5-5.33-8.14-9.18-2.76Z"/><polygon class="cls-6" points="176.05 87.23 189.32 121.23 162.8 121.23 176.05 87.23"/><polygon class="cls-4" points="202.31 138.59 202.12 138.65 178.2 146.23 154.27 138.65 154.08 138.59 178.2 130.95 202.31 138.59"/><path class="cls-7" d="M153.4,93.67c-5.49,0-10.84-.67-13.52-5,2.68-4.33,7.48-7.22,12.96-7.22s10.28,2.89,12.96,7.22c-2.68,4.33-6.92,5-12.41,5Z"/><path class="cls-7" d="M201.6,93.78c-5.49,0-10.84-.67-13.52-5,2.68-4.33,7.48-7.22,12.96-7.22s10.28,2.89,12.96,7.22c-2.68,4.33-6.92,5-12.41,5Z"/><circle class="cls-3" cx="151.73" cy="88.68" r="6.11"/><circle class="cls-3" cx="199.93" cy="88.79" r="6.11"/><polyline class="cls-1" points="136.16 77.86 148.79 72.72 161.53 75.19"/><polyline class="cls-1" points="188.64 76.13 201.55 71.73 214.12 74.94"/><path class="cls-2" d="M224.71,249.03c3.99,0,7.86,0,11.6,0-.72,2.49-1.03,5-1.07,7.58,0,.29-.31.59-.56.79-4.65,3.66-6.22,8.35-4.74,14.07.05.17,0,.37,0,.66h-5.24v-23.09Z"/><path class="cls-2" d="M237.79,264.9c4.22-.91,6.89-3.13,7.42-7.48.34.07.61.09.86.19,6.48,2.54,8.9,10.72,4.8,16.32-.31.42-1.16.85-1.59.72-5.08-1.61-8.89-4.79-11.48-9.76Z"/><path class="cls-2" d="M249.71,275.39c-3.12,2.78-6.44,3.76-10.21,2.84-4.07-.99-6.76-3.59-7.89-7.61-.39-1.39-.26-2.94-.33-4.41-.05-.88.45-1.14,1.27-1.13,1.3.02,2.6-.08,3.89-.05.2,0,.61.01.83.12.17.08.16.23.22.35,2.67,4.87,6.68,8.11,12.23,9.89Z"/><path class="cls-2" d="M244.56,257.19c.08,3.52-3.02,6.9-6.42,7.04-.16,0-.4.14-.58,0-.16-.12-.27-.49-.33-.63-.36-.83-.63-1.71-.86-2.59-.64-2.43-.5-2.69,1.89-3.53,2.03-.71,4.1-.99,6.3-.3Z"/><path class="cls-2" d="M244.45,254.79c-2.91.44-5.71.86-8.58,1.3-.23-2.26.27-4.49,1.19-6.41.14-.3.71-.64,1.07-.62,3.45.18,5.9,2.5,6.32,5.73Z"/><path class="cls-2" d="M234.88,259.14c.16.05.31.11.47.16.48,1.62.95,3.23,1.49,5.07-1.68,0-3.3,0-5.52,0,.82-2.4,1.97-4.21,3.56-5.23Z"/></g></svg>