<?xml version="1.0" encoding="UTF-8"?><svg id="Calque_2" xmlns="http://www.w3.org/2000/svg" viewBox="0 0 329.14 305.21"><defs><style>.cls-1{stroke:#141456;stroke-width:4px;}.cls-1,.cls-2{fill:none;stroke-miterlimit:10;}.cls-2{stroke:#e20917;}.cls-3{fill:#49e8bb;}.cls-3,.cls-4,.cls-5,.cls-6,.cls-7,.cls-8{stroke-width:0px;}.cls-4{fill:#141456;}.cls-5{fill:#e20917;}.cls-6{fill:#fbcb5d;}.cls-7{fill:#fffbee;}.cls-8{fill:#fff;}</style></defs><g id="Calque_8"><path class="cls-6" d="M115.26,99.09c.38,12.87.97,25.98,5.41,38.06.85,2.31,2.39,4.95,4.85,4.88,2.64-.07,4.04-3.2,6.4-4.39,2.76-1.4,6.14.2,8.35,2.36,4.78,4.68,6.65,11.84,11.79,16.12,2.71,2.25,6.1,3.5,9.47,4.53,6.25,1.9,12.69,3.18,19.19,3.81,1.25.12,2.55.21,3.73-.22,1.4-.51,2.44-1.69,3.42-2.82,5.1-5.92,10.21-11.85,15.31-17.77.91-1.05,1.93-2.17,3.3-2.38,2.7-.42,4.44,2.71,5.33,5.29,3.33-3.47,4.46-8.45,5.36-13.18,3.34-17.38,5.66-34.96,6.94-52.61.14-1.88.25-3.85-.53-5.56-.57-1.26-1.58-2.26-2.56-3.23-8.15-8.08-16.33-16.19-25.42-23.21-3.93-3.04-8.26-5.96-13.21-6.48-3.25-.34-6.54.39-9.61,1.51-8.67,3.14-15.91,9.18-23.65,14.19-4.51,2.92-9.22,5.52-13.92,8.11-3.03,1.67-6.06,3.34-9.09,5.01-4.35,2.39-11.2,1.05-11.34,6.85-.17,7.02.27,14.12.47,21.14Z"/><path class="cls-4" d="M115,40.03C127.63,18.57,150.07-6.72,177.69,1.64c17.4,3.33,45.76,27.24,44.87,46.1-15.34-17.65-39.44-17.17-61.41-14.35-7.47.96-14.6,3.7-20.77,8.01-9.73,6.79-19.71,13.55-27.27,22.66-14.09,17.09-1.16-20.24,1.89-24.03Z"/><path class="cls-4" d="M140.58,44.94c1.86-1.43,3.73-2.84,5.79-3.96,3.33-1.82,7.04-2.83,10.7-3.82,2.42-.66,4.85-1.32,7.34-1.64,2.45-.32,4.92-.31,7.39-.25,5.45.15,12.73-.07,18.1.85,16.74,2.87,31.51,11.64,40.79,25.86,1.54,2.36,2.89,4.98,2.93,7.79.01.78-.14,1.66-.79,2.08-.51.33-1.18.28-1.78.18-5.86-.97-10.91-4.68-15.13-8.86-4.22-4.18-7.86-8.95-12.34-12.85-7.57-6.59-17.46-10.47-27.5-10.77-2.17-.06-4.35.03-6.46.56-3.87.97-7.23,3.3-10.53,5.56-10.02,6.85-20.32,13.3-30.86,19.32-1.98,1.13-4.02,2.26-6.27,2.57-2.47.34-6.56-.47-4.31-3.23,2-2.47,4.99-4.56,7.39-6.65,5.05-4.41,10.24-8.66,15.55-12.74Z"/><path class="cls-6" d="M101.46,90.59c-.76,1.46-.84,3.17-.83,4.82.03,8.5,2.01,16.85,3.98,25.12.46,1.91.96,3.92,2.3,5.36s3.8,2.04,5.27.74c.94-.83,1.23-2.15,1.37-3.39.94-8.31-2.42-16.39-2.88-24.63-.15-2.69-.55-4.84-1.93-7.23-1.7-2.92-5.26-4.67-7.28-.77Z"/><path class="cls-6" d="M222.21,127.07c-.54-1.46-.59-3.17-.59-4.82.02-8.5,1.42-16.85,2.82-25.12.32-1.91.68-3.92,1.63-5.36s2.69-2.04,3.73-.74c.66.83.87,2.15.97,3.39.66,8.31-1.71,16.39-2.04,24.63-.11,2.69-.39,4.84-1.37,7.23-1.2,2.92-3.72,4.67-5.15.77Z"/><path class="cls-5" d="M134.88,140.91c.68.09,1.28.49,1.83.9,2.4,1.79,4.43,4.06,5.93,6.65.93,1.6,1.66,3.32,2.62,4.91,3.33,5.52,9.23,9.11,15.41,10.97s12.7,2.16,19.14,2.46c.96.04,1.93.09,2.86-.16.85-.22,1.62-.68,2.37-1.13,2.1-1.25,4.22-2.52,6.08-4.1,2.94-2.51,5.17-5.74,7.82-8.55,1.78-1.88,3.76-3.58,5.9-5.05.47-.32.97-.64,1.54-.65.67-.01,1.26.41,1.72.89,2.07,2.19,2.05,5.75.76,8.48s-3.6,4.81-5.85,6.82c-1.41,1.26-2.81,2.51-4.22,3.77-1.99,1.78-3.99,3.56-6.26,4.97-7.39,4.59-16.63,4.67-25.34,4.58-3.73-.04-7.51-.08-11.09-1.14-1.83-.54-3.58-1.34-5.31-2.13-6.38-2.91-12.83-5.87-18.29-10.27-3.78-3.05-10.29-9.31-9.95-14.71.14-2.17,1.79-3.37,3.58-4.32,2.16-1.15,6.29-3.53,8.75-3.19Z"/><path class="cls-5" d="M106.17,74.01c-.45.72-.7,1.57-.95,2.4-.71,2.42-1.44,4.93-1.21,7.46.03.28.07.58.26.78.19.2.46.24.72.26,1.17.12,2.36.21,3.46.65s2.01,4.35,2.44,5.57c.9-2.13.93-7.57.87-9.86-.06-2.66.33-4.8.77-7.38.98-5.8-4.69-2.55-6.35.12Z"/><path class="cls-5" d="M99.31,127.14c.51.89,1.1,1.74,1.38,2.72.6,2.1-.36,4.29-1.12,6.35-4.15,11.29-2.23,23.96,1.64,35.35,1.06-8.44-.75-17.48,2.88-25.16.53-1.11,1.33-2.29,2.55-2.45.86-.11,1.69.34,2.38.87,2.02,1.58,3.26,3.99,3.87,6.48s.64,5.08.65,7.65c.02,8.83-.53,18.37-6.08,25.24,3.07-.33,6.14-.66,9.21-.99,0,.73,0,1.46,0,2.18,2.18-.84,4.6-1.92,5.4-4.11.49-1.34.26-2.82.13-4.24-.31-3.44.05-6.92-.43-10.34-.79-5.65-3.84-11.14-2.8-16.74.44-2.37,1.59-4.59,1.77-6.99.2-2.73-.89-5.4-2.32-7.73-1.2-1.95-2.97-3.91-5.26-3.94-.78,0-1.57.22-2.34.1-.89-.14-1.65-.72-2.34-1.31-2.04-1.77-3.8-3.84-5.23-6.13s-2.02-5.11-3.37-7.47c-1.95-3.41-2.52.12-2.59,2.31-.1,2.9.57,5.84,2.01,8.37Z"/><path class="cls-5" d="M224.7,153.01c1.23,3.94,1.26,8.24.07,12.19-.23.76-.51,1.52-1,2.15-.44.56-1.03.97-1.54,1.46-4.13,3.89-3.02,11.37-7.3,15.09-4.4-8.16-4.72-18.4-.84-26.82.96-2.08,2.15-4.05,3.26-6.05.86-1.54,1.61-4.65,2.83-5.83,1.54-1.48,2.13-.25,2.49,1.19.56,2.27,1.33,4.39,2.03,6.61Z"/><path class="cls-6" d="M168.96,182.33c3.24-.14,6.45-.6,9.66-1.05,5.14-.72,10.37-1.47,15.05-3.72,3.27-1.57,6.18-3.85,8.64-6.51.44-.47.89-.98,1.51-1.17,1.24-.38,2.5.76,2.84,2.01s.07,2.57.01,3.87c-.15,3.4,1.26,6.84,3.77,9.15.91.84,1.99,1.57,2.57,2.67.43.81.55,1.74.57,2.65.16,5.77-3.05,11.09-6.69,15.57-7.47,9.18-17.43,16.53-28.8,19.8-3.54,1.02-7.21,1.64-10.89,1.54-7.56-.21-14.67-3.45-21.54-6.63-9.21-4.26-18.52-8.58-26.52-14.83-1.01-.79-2.05-1.67-2.5-2.87-.31-.83-.32-1.73-.33-2.62,0-1.34-.01-2.67-.02-4.01,0-.95,0-1.91.26-2.82.45-1.51,1.59-2.69,2.55-3.93,2.96-3.81,4.36-8.5,4.95-13.23.32-2.51-.52-12.2,4.29-10.88,1.68.46,3.77,3.56,5.14,4.71,1.84,1.55,3.79,2.98,5.83,4.26,4.15,2.62,8.66,4.66,13.37,6.03,5.26,1.54,10.77,2.25,16.25,2.01Z"/><path class="cls-4" d="M47.45,207.21c-39.9,13.64-75.32,83.35-15.62,93.81,89.94,7.86,180.71,1.81,271.07,4.18,46.76-7.96,23.37-76.43-10.71-89.15-11.72-3.72-72.06-38.26-74.46-22.53-18.71,55.64-98.85,46.04-111.3-6.76-19.92,1.67-40.17,12.86-58.97,20.46Z"/><path class="cls-2" d="M95.56,133.4c-5.13,2.19-9.55,6.43-11.11,11.78s.17,11.74,4.73,14.95"/><path class="cls-2" d="M93.45,144.79c-1.26,1.21-1.99,2.88-2.35,4.58s-.37,3.46-.35,5.21c0,.79.04,1.64.53,2.27"/><path class="cls-2" d="M109.86,165.54c-.82,2.82-2.35,5.4-4.15,7.72-.77.99-1.6,1.94-2.63,2.64s-2.3,1.13-3.53.96"/><path class="cls-2" d="M224.72,138.2c4.87,4.38,7.66,10.98,7.4,17.53"/><path class="cls-2" d="M229.42,128.69c1.51,3.18,3.53,6.11,5.95,8.66"/><path class="cls-5" d="M144.94,133.84c-.53.28-1.08.66-1,1.12.11.58,1.13.82,1.98.92,4.15.45,8.4.44,12.54-.03,2.89-.33,9.17-.9,10.94-2.74,1.43-1.49-.67-3.42-2.93-3.75-2.9-.42-7.48.89-10.36,1.34-3.95.62-7.93,1.43-11.18,3.15Z"/><path class="cls-5" d="M200.99,134.67c.33.29.67.68.6,1.13-.08.58-.74.8-1.29.88-2.65.38-5.36.29-7.98-.25-1.83-.38-5.81-1.06-6.89-2.93-.87-1.51.52-3.41,1.97-3.7,1.86-.37,4.74,1.02,6.56,1.52,2.5.69,5.01,1.56,7.03,3.35Z"/><path class="cls-3" d="M144.99,78.3c3.17-.28,6.3-.92,9.48-1s6.49.44,9.09,2.27c1.5,1.05,2.25,2.41,3.33,3.81,1.33,1.72,2.19.97,4.39.7,4.32-.53,8.73-.31,12.97.66.81.18,1.67.39,2.46.12.57-.2,1.03-.64,1.48-1.04,4.36-3.82,10.47-4.84,16.24-5.31,4.75-.38,9.87-.41,13.86,2.19,1.13.74,2.14,1.68,2.83,2.85.64,1.1.97,2.35,1.2,3.59,1.67,9.19-2.41,19.18-10.04,24.58-.97.68-2,1.31-3.15,1.6-.93.24-1.9.26-2.86.27-4.23.04-8.62-.16-12.37-2.1-2.7-1.4-4.94-3.69-6.28-6.43-1.01-2.07-1.51-4.35-1.99-6.6-.54-2.51-1.09-5.08-.75-7.62.12-.91.27-2.05-.49-2.57-.25-.17-.56-.24-.85-.29-2.32-.43-15.06-1.53-14.99,1.81.08,3.94-1.27,7.79-3.13,11.26-1.7,3.18-3.88,6.16-6.75,8.34s-6.48,3.51-10.07,3.2c-2.57-.22-4.99-1.25-7.35-2.26-1.92-.82-3.88-1.67-5.42-3.07-3.75-3.4-4.15-9.05-4.29-14.12-.1-3.66-.54-9.37,2.21-12.32,2.55-2.74,7.92-2.24,11.26-2.53Z"/><polygon class="cls-7" points="176.86 88.66 188.3 123.13 165.43 123.13 176.86 88.66"/><polygon class="cls-5" points="196.3 145.5 196.13 145.55 174.29 152.47 152.45 145.55 152.28 145.5 174.29 138.52 196.3 145.5"/><path class="cls-8" d="M150.42,95.3c-5.01,0-9.89-.61-12.34-4.56,2.45-3.95,6.82-6.59,11.83-6.59s9.39,2.64,11.83,6.59c-2.45,3.95-6.32,4.56-11.32,4.56Z"/><circle class="cls-4" cx="148.9" cy="90.73" r="5.58"/><path class="cls-8" d="M202.1,96.32c-5.01,0-9.89-.61-12.34-4.56,2.45-3.95,6.82-6.59,11.83-6.59s9.39,2.64,11.83,6.59c-2.45,3.95-6.32,4.56-11.32,4.56Z"/><circle class="cls-4" cx="200.58" cy="91.76" r="5.58"/><polyline class="cls-1" points="131.81 77.78 146.12 71.95 160.54 74.75"/><polyline class="cls-1" points="190.24 76.91 202.17 73.33 213.53 76.68"/><g id="NR4x5i"><path class="cls-3" d="M233.41,263v-.32c0-4.85,0-9.69,0-14.54,0-.51-.06-1.02-.16-1.52-.79-3.6-4.21-6.08-7.87-5.72-3.8.37-6.69,3.54-6.69,7.37,0,2.33,0,4.65,0,6.98,0,.1,0,.2,0,.31h5.2c0-.1,0-.18,0-.27,0-2.22,0-4.45,0-6.67,0-.21,0-.42.03-.62.11-1.03.99-1.87,2-1.92,1.08-.05,2.08.65,2.23,1.69.12.84.07,1.7.1,2.58-.14,0-.23.01-.32.01-.53,0-1.06.01-1.58,0-.25,0-.3.08-.3.31,0,1.41,0,2.82,0,4.23q0,.67.68.67c.49,0,.98,0,1.5,0v7.42h5.19ZM257.09,240.84c-1.17,0-2.34,0-3.5,0-.52,0-.46-.07-.46.45,0,1.45,0,2.91,0,4.36q0,.39.39.39c2.3,0,4.6,0,6.9,0,1.55,0,2.61,1.43,2.13,2.85-.3.9-1.12,1.48-2.13,1.48-2.34,0-4.67,0-7.01,0-.23,0-.3.06-.29.29,0,1.53.01,3.06,0,4.59,0,.27.07.33.33.33,2.33-.01,4.65.01,6.98-.02.63,0,1.28-.08,1.9-.23,3.92-.95,6.35-5.09,5.3-8.97-.9-3.33-3.77-5.52-7.22-5.53-1.11,0-2.21,0-3.32,0ZM245.45,248.23c.07.01.11.02.15.02,1.61,0,3.22,0,4.83,0,.18,0,.23-.08.21-.23-.05-.44-.08-.88-.17-1.31-.84-4.1-5.06-6.69-9.1-5.59-3.24.88-5.46,3.77-5.47,7.14,0,2.34,0,4.69,0,7.03,0,.24.08.29.3.29,1.53,0,3.06-.01,4.59,0,.28,0,.33-.09.32-.34,0-2.08,0-4.15,0-6.23,0-.32,0-.64.03-.96.1-.91.59-1.55,1.45-1.85.84-.29,1.6-.09,2.24.53.41.4.59.9.63,1.49ZM243.28,263.01c.73.03,1.4-.09,2.07-.28,3.07-.86,5.29-3.79,5.29-6.98,0-1.69,0-3.37,0-5.06,0-.25-.07-.32-.32-.32-2.26,0-4.51,0-6.77,0-.23,0-.29.06-.29.29,0,1.56,0,3.11,0,4.67,0,.07.01.15.02.25.11,0,.2,0,.3,0,.54,0,1.09,0,1.63,0,.17,0,.23.05.21.23-.05.59-.29,1.08-.73,1.47-.4.36-.89.52-1.43.56v5.17ZM255.31,257.82s.05-.02.07-.03c.53.57,1.04,1.16,1.59,1.71,1.13,1.13,2.29,2.23,3.43,3.35.13.13.26.17.44.17,2.27,0,4.55,0,6.82,0,.09,0,.18,0,.26,0,.02-.03.03-.06.05-.1-.1-.08-.21-.15-.3-.24-1.6-1.56-3.21-3.12-4.81-4.69-.13-.13-.27-.19-.45-.19-2.28,0-4.57,0-6.85,0-.08,0-.16,0-.25.01Z"/><path class="cls-3" d="M233.41,263h-5.19v-7.42c-.52,0-1.01,0-1.5,0q-.68,0-.68-.67c0-1.41,0-2.82,0-4.23,0-.23.05-.32.3-.31.53.02,1.06,0,1.58,0,.09,0,.19,0,.32-.01-.03-.88.02-1.74-.1-2.58-.15-1.04-1.15-1.74-2.23-1.69-1.01.05-1.89.89-2,1.92-.02.21-.03.41-.03.62,0,2.22,0,4.45,0,6.67,0,.08,0,.17,0,.27h-5.2c0-.11,0-.21,0-.31,0-2.33,0-4.65,0-6.98,0-3.83,2.88-7,6.69-7.37,3.67-.35,7.08,2.12,7.87,5.72.11.49.16,1.01.16,1.52.01,4.85,0,9.69,0,14.54v.32Z"/><path class="cls-3" d="M257.09,240.84c1.11,0,2.21,0,3.32,0,3.45,0,6.32,2.2,7.22,5.53,1.05,3.88-1.39,8.02-5.3,8.97-.62.15-1.26.23-1.9.23-2.33.03-4.65,0-6.98.02-.26,0-.34-.07-.33-.33.01-1.53.01-3.06,0-4.59,0-.23.07-.29.29-.29,2.34,0,4.67,0,7.01,0,1.01,0,1.83-.58,2.13-1.48.48-1.43-.58-2.85-2.13-2.85-2.3,0-4.6,0-6.9,0q-.39,0-.39-.39c0-1.45,0-2.91,0-4.36,0-.52-.06-.45.46-.45,1.17,0,2.34,0,3.5,0Z"/><path class="cls-3" d="M245.45,248.23c-.04-.58-.22-1.09-.63-1.49-.64-.63-1.4-.83-2.24-.53-.86.3-1.35.94-1.45,1.85-.03.32-.03.64-.03.96,0,2.08,0,4.15,0,6.23,0,.25-.05.34-.32.34-1.53-.01-3.06-.01-4.59,0-.22,0-.3-.05-.3-.29,0-2.34,0-4.69,0-7.03.01-3.37,2.24-6.26,5.47-7.14,4.05-1.1,8.26,1.48,9.1,5.59.09.43.11.87.17,1.31.02.16-.03.24-.21.23-1.61,0-3.22,0-4.83,0-.04,0-.08-.01-.15-.02Z"/><path class="cls-3" d="M243.28,263.01v-5.17c.54-.04,1.02-.2,1.43-.56.44-.4.68-.89.73-1.47.01-.17-.05-.23-.21-.23-.54,0-1.09,0-1.63,0-.09,0-.19,0-.3,0,0-.1-.02-.18-.02-.25,0-1.56,0-3.11,0-4.67,0-.23.06-.29.29-.29,2.26,0,4.51,0,6.77,0,.25,0,.32.07.32.32-.01,1.69,0,3.37,0,5.06,0,3.19-2.22,6.12-5.29,6.98-.67.19-1.34.31-2.07.28Z"/><path class="cls-3" d="M255.31,257.82c.08,0,.16-.01.25-.01,2.28,0,4.57,0,6.85,0,.19,0,.32.06.45.19,1.6,1.57,3.2,3.13,4.81,4.69.09.09.2.16.3.24-.02.03-.03.06-.05.1-.09,0-.18,0-.26,0-2.27,0-4.55,0-6.82,0-.18,0-.31-.04-.44-.17-1.14-1.12-2.3-2.22-3.43-3.35-.55-.55-1.06-1.14-1.59-1.71-.02,0-.05.02-.07.03Z"/></g></g></svg>