<?xml version="1.0" encoding="UTF-8"?><svg id="Calque_2" xmlns="http://www.w3.org/2000/svg" viewBox="0 0 328.08 326.7"><defs><style>.cls-1{fill:none;stroke:#141456;stroke-miterlimit:10;stroke-width:4px;}.cls-2{fill:#49e8bb;}.cls-2,.cls-3,.cls-4,.cls-5,.cls-6,.cls-7{stroke-width:0px;}.cls-3{fill:#141456;}.cls-4{fill:#e20917;}.cls-5{fill:#fbcb5d;}.cls-6{fill:#fffbee;}.cls-7{fill:#fff;}</style></defs><g id="Calque_8"><path class="cls-5" d="M127.01,42.66c-6.09,7.52-7.37,17.78-7.76,27.45-.63,15.86.49,31.74,1.61,47.58.26,3.68.54,7.43,1.94,10.85,1.5,3.66,4.2,6.69,7.05,9.43,1.89,1.82,3.92,3.57,6.33,4.61,3.23,1.39,14.01,5.87,23.31,6.35s18.97-.64,28.1-3.5c5.2-1.63,10.53-3.33,14.81-6.7,3.57-2.81,6.19-6.63,8.51-10.54,5.01-8.45,8.88-17.99,8.44-27.81-.31-6.76-1.65-18.33-3.16-24.93-2.67-11.69-3.89-19.18-9.81-29.6-1.62-2.85-3.64-5.47-5.94-7.82-7.3-7.46-17.38-12.01-27.77-13.12s-21.02,1.13-30.35,5.82c-4.62,2.32-8.72,5.84-12.72,9.11-.83.68-1.91,1.99-2.59,2.82Z"/><path class="cls-5" d="M112.05,110.72c.45,2.78.93,5.66,2.52,7.99.49.72,1.17,1.43,2.04,1.49,1.06.08,1.98-.86,2.25-1.88s.06-2.11-.16-3.16c-1.08-5.22-2.23-10.43-3.11-15.69-.38-2.26-.42-8.53-2.34-10.14-2.35-1.98-3.54,1.21-3.79,3.68-.57,5.53,1.72,12.25,2.6,17.71Z"/><path class="cls-5" d="M227.79,116.49c-.41,1.45-.83,2.91-1.55,4.24-.94,1.76-2.36,3.21-3.76,4.64-3.98-3.98-.5-13.28.07-18.13.52-4.45.32-10.49,2.61-14.5,2.04-3.58,6.62-3.08,8.1,1.11,1.13,3.22-1.33,8.14-2.21,11.22-1.09,3.81-2.11,7.64-3.26,11.42Z"/><path class="cls-4" d="M107.74,56.34c6.22-17.58,18.11-32.85,32.59-44.61,1.52-1.23,3.15-2.47,5.07-2.85,2.07-.41,4.19.21,6.16.95,3.13,1.17,6.15,2.64,9.01,4.39,4.41-4.58,9.15-8.84,14.18-12.73.93-.72,1.95-1.46,3.13-1.48.9-.02,1.75.4,2.55.81,4.5,2.34,8.84,5.09,12.38,8.71,3.69,3.77,6.41,8.35,9.42,12.68,4.61,6.62,9.95,12.71,15.63,18.44,8.93,8.99,19.35,18.22,21.07,30.78.88,6.44-.81,13.21-4.62,18.47-2.87-.91-5.93-1.21-8.92-.87-.89.1-1.86.24-2.6-.26-.58-.39-.87-1.08-1.1-1.74-1.74-5.03-1.51-10.5-2.45-15.74-1.46-8.17-5.68-15.54-9.87-22.7-5.76-9.85-12.27-20.28-22.78-24.71-5.46-2.3-11.5-2.74-17.41-3.16-7.21-.5-14.62-.98-21.52,1.18-8,2.51-14.51,8.32-20.36,14.33-2.89,2.97-5.72,6.09-7.52,9.81-1.72,3.56-2.42,7.53-2.96,11.45-1.31,9.62-1.71,19.35-1.2,29.05-3.48.15-7.6.67-9.22,3.76-.82,1.57-.76,3.44-.63,5.21.32,4.33.37,10.4,2.24,14.33-.84-4.34-2.83-8.55-3.66-12.98-.84-4.45-1.25-8.99-1.26-13.52-.02-9.18,1.59-18.35,4.65-27Z"/><path class="cls-5" d="M125.22,178.4c-.56,1.84-1.22,3.67-1.3,5.59-.16,3.8,1.91,7.28,3.58,10.7,2.36,4.85,4.03,10.09,7.17,14.49,2.7,3.78,6.44,6.8,10.67,8.72,3.07,1.39,6.38,2.21,9.69,2.88,3.22.65,6.52,1.18,9.78.78,2.81-.35,5.49-1.38,8.11-2.46,4.14-1.71,8.22-3.57,12.23-5.58,4.55-2.28,9.09-4.81,12.59-8.51,2.7-2.85,4.67-6.3,6.48-9.79,2.15-4.15,4.1-8.44,5.15-12.99,1.95-8.4.74-17.22-1.21-25.63-12.96,9.8-29.88,14.07-46,11.98-8.33-1.08-16.37-3.76-24.26-6.66-2.25-.83-4.48-2.31-6.78-2.92-2.62-.7-2.57.98-2.83,3.2-.62,5.46-1.47,10.92-3.08,16.19Z"/><path class="cls-4" d="M144.42,108.66c-1.91.49-3.86.99-5.52,2.05-2.4,1.54-4,4.25-4.2,7.09,7.16-1.15,13.45-6.45,20.7-6.19,2.01.07,4.15.26,5.05-1.94.6-1.47.33-3.57-1.33-4.15-1.82-.63-5.04.75-6.85,1.18-2.63.62-5.24,1.28-7.85,1.95Z"/><path class="cls-4" d="M193.03,107.66c1.91.49,3.86.99,5.52,2.05,2.4,1.54,4,4.25,4.2,7.09-7.16-1.15-13.45-6.45-20.7-6.19-2.01.07-4.15.26-5.05-1.94-.6-1.47-.33-3.57,1.33-4.15,1.82-.63,5.04.75,6.85,1.18,2.63.62,5.24,1.28,7.85,1.95Z"/><path class="cls-4" d="M171.26,150.59c4.07-.49,8.08-1.35,12.09-2.21,6.02-1.29,12.17-2.64,17.4-5.89,4.69-2.91,8.36-7.2,11.61-11.67.77-1.06,2.09-2.26,3.18-1.54.33.22.54.57.68.93.66,1.65.17,3.52-.44,5.19-3.52,9.68-10.79,17.68-19.3,23.48-2.32,1.58-4.76,3.03-7.39,4.04-5.82,2.25-12.22,2.3-18.46,2.35-8.93.07-18.16.14-26.38-3.35-4.79-2.03-9.04-5.21-12.64-8.96-2.02-2.1-5.71-6.2-4.32-9.43,1.5-3.5,6.56.68,8.72,1.64,7.04,3.14,14.61,5.06,22.29,5.66,4.31.34,8.66.26,12.96-.26Z"/><path class="cls-3" d="M48.23,216.21c-22.56,14.58-43.18,35.62-47.53,62.13-1.24,7.57-1.03,15.63,2.33,22.53,7.43,15.23,26.77,19.62,43.61,21.47,43.45,4.78,87.28,4.51,130.99,4.24,28.63-.18,57.28-.35,85.86-2.05,9.78-.58,19.6-1.35,29.08-3.82,10.56-2.75,20.95-7.94,27.39-16.75,7.65-10.46,8.63-24.32,7.94-37.26-.52-9.8-2.03-20.08-8.02-27.85-2.97-3.86-6.88-6.87-10.74-9.83-12.59-9.66-25.27-19.38-39.41-26.58-18.93-9.64-33.93-7.89-46.54-24.98,7.6,19,.89,38.98-13,54-18.98,20.53-56.96,18.91-82.7,7.99-3.8-1.61-7.54-3.51-10.63-6.25-7.45-6.58-10.18-17.1-10.46-27.05-.13-4.69.22-9.42,1.19-14.02.55-2.59,3.33-7.58,1.94-9.96-5.08,1.92-10.01,5.75-14.83,8.37-5.26,2.86-10.57,5.62-15.88,8.4-10.38,5.43-20.75,10.92-30.6,17.28Z"/><path class="cls-3" d="M112.13,205.45c-.07,4.41-.02,8.87,1.02,13.16s3.15,8.44,6.58,11.22c2.57,2.08,5.72,3.28,8.85,4.33,4.02,1.36,8.1,2.53,12.18,3.69,5.8,1.66,11.64,3.33,17.63,4.01,19.03,2.15,38.15-6,52.71-18.44,1.94-1.66,3.83-3.41,5.26-5.52,1.74-2.57,2.73-5.58,3.37-8.61.94-4.42,1.2-8.96,1.38-13.48.2-5.01.3-10.02.31-15.03,0-1.63-.01-3.32-.68-4.81-1.13-2.54-3.84-3.93-6.36-5.12-2.41,4.39-1.89,9.72-2.56,14.68-.88,6.56-3.92,12.69-7.93,17.96s-8.95,9.75-14.04,13.98c-2.55,2.12-5.18,4.21-8.18,5.65-5.73,2.75-12.33,2.92-18.69,3-3.79.05-7.58.09-11.37.11-1.58.01-3.22,0-4.63-.69-.97-.48-1.75-1.25-2.52-2.01-1.91-1.89-3.82-3.78-5.74-5.67-4.35-4.3-8.75-8.66-11.89-13.91-5.49-9.19-6.65-20.27-7.16-30.96,0,1.63-3.82,5.3-4.79,6.75-1.52,2.27-1.52,4.41-1.77,7.15-.56,6.17-.89,12.35-.99,18.55Z"/><polygon class="cls-6" points="166.08 69.44 181.08 102.44 157.2 102.44 166.08 69.44"/><polygon class="cls-4" points="190.27 122.36 190.11 122.41 168.57 129.24 147.02 122.41 146.85 122.36 168.57 115.47 190.27 122.36"/><path class="cls-7" d="M145.69,80.25c-4.91.56-9.76.5-12.6-3.1,1.96-4.15,5.96-7.22,10.86-7.77s9.49,1.54,12.33,5.14c-1.96,4.15-5.68,5.17-10.59,5.73Z"/><path class="cls-7" d="M195.53,79.47c-4.9-.64-9.6-1.87-11.48-6.05,2.9-3.55,7.52-5.57,12.42-4.92s8.84,3.78,10.73,7.97c-2.9,3.55-6.76,3.65-11.66,3.01Z"/><circle class="cls-3" cx="143.69" cy="75.94" r="5.5" transform="translate(-18.79 79.59) rotate(-29.14)"/><circle class="cls-3" cx="194.63" cy="74.81" r="5.5"/><polyline class="cls-1" points="133.03 65.08 143.79 59.15 155.44 60.01"/><polyline class="cls-1" points="185.25 59.74 197.44 58.24 207.93 63.39"/><g id="d5Qv3f"><path class="cls-2" d="M262.16,280.37c.32.2.51.31.7.43,2.56,1.59,5.32,2.23,8.33,1.89,7.18-.81,12.3-7.86,10.84-14.96-1.41-6.87-7.89-11.31-14.76-9.93-5.01,1-8.27,4.11-9.77,9.01-.26.86-.19.93.73.93,1.04,0,2.09-.06,3.13.02.82.06,1.2-.25,1.58-.97,1.53-2.94,4.02-4.34,7.32-4.11,3.06.21,5.23,1.87,6.37,4.67,1.19,2.93.65,5.7-1.52,8.02-3.63,3.89-10.05,2.82-12.29-2.01-.25-.54-.54-.74-1.12-.72-1.24.04-2.49.02-3.73.01-.42,0-.65.14-.65.6.02,2.24-.06,4.48.05,6.71.11,2.24,1.56,3.73,3.73,4.13.63.12.92-.01.92-.72,0-.96.08-1.92.14-3Z"/><path class="cls-2" d="M262.16,280.37c-.06,1.08-.14,2.04-.14,3,0,.71-.29.84-.92.72-2.17-.4-3.62-1.89-3.73-4.13-.11-2.23-.03-4.47-.05-6.71,0-.46.22-.6.65-.6,1.24.01,2.49.03,3.73-.01.58-.02.87.18,1.12.72,2.25,4.83,8.66,5.9,12.29,2.01,2.17-2.32,2.71-5.09,1.52-8.02-1.14-2.8-3.31-4.46-6.37-4.67-3.3-.23-5.79,1.18-7.32,4.11-.38.72-.76,1.03-1.58.97-1.04-.08-2.09-.01-3.13-.02-.92,0-.99-.07-.73-.93,1.5-4.9,4.76-8.01,9.77-9.01,6.86-1.37,13.34,3.07,14.76,9.93,1.46,7.1-3.66,14.15-10.84,14.96-3.01.34-5.77-.3-8.33-1.89-.19-.12-.38-.23-.7-.43Z"/></g></g></svg>