<?xml version="1.0" encoding="UTF-8"?><svg id="Calque_2" xmlns="http://www.w3.org/2000/svg" viewBox="0 0 319.93 308.39"><defs><style>.cls-1{fill:none;stroke:#141456;stroke-miterlimit:10;stroke-width:4px;}.cls-2{fill:#49e8bb;}.cls-2,.cls-3,.cls-4,.cls-5,.cls-6,.cls-7{stroke-width:0px;}.cls-3{fill:#141456;}.cls-4{fill:#e20917;}.cls-5{fill:#fbcb5d;}.cls-6{fill:#fffbee;}.cls-7{fill:#fff;}</style></defs><g id="Calque_8"><path class="cls-5" d="M97.34,64.99c.2,7.63,1.07,15.41-.82,22.8-2.13-.39-4.19,1.35-4.91,3.39s-.43,4.29-.09,6.43c1.67,10.48,4.38,20.78,8.08,30.72.7,1.88,2.24,4.15,4.13,3.48.48-.17.92-.54,1.43-.54.94,0,1.4,1.11,1.63,2.02,2.77,10.8,7.39,21.12,13.6,30.38,1.88,2.8,4.2,5.7,7.5,6.36,6.04,1.21,10.51-5.41,16.12-7.93,4.17-1.87,8.96-1.4,13.53-1.21,9.67.39,19.39-.71,28.72-3.25,2.34-.64,4.78-1.43,6.43-3.2,1.25-1.33,1.93-3.09,2.54-4.81,4.23-11.85,6.7-24.33,7.32-36.9,2.37.65,4.91-.84,6.25-2.9,1.34-2.06,1.75-4.57,2.13-7,1.18-7.54,2.36-15.07,3.54-22.61.35-2.26.58-4.92-1.08-6.49-1.81-1.71-4.85-1.06-6.86.41s-3.49,3.58-5.56,4.97c-5.91-9.26-7.76-20.45-11.29-30.86s-9.79-21.05-20.21-24.54c-11.98-4.01-24.6,2.69-37.08,4.64-5.48.86-11.09.79-16.54,1.82s-10.97,3.4-14.16,7.94c-3.62,5.16-4.5,21.25-4.35,26.89Z"/><path class="cls-4" d="M90.33,53.98c.72-4.44,1.45-8.89,2.79-13.18,4.47-14.31,15.5-25.92,28.38-33.58,4.29-2.55,8.85-4.73,13.7-5.91C139.77.2,144.49,0,149.18,0c12.6-.02,25.99,1.61,35.83,9.47,9.24,7.38,13.85,19.05,17.01,30.44,2.36,8.54,4.14,17.31,4.07,26.17,0,.53-.02,1.07-.21,1.57-.69,1.81-3.43,1.95-4.93.72s-2.08-3.23-2.62-5.09c-2.36-8.14-5.43-16.06-9.02-23.73-3.86-8.26-8.99-16.84-17.5-20.11-6.64-2.55-14.13-1.34-20.96.66s-13.54,4.77-20.64,5.28c-8.35.6-17.52-1.79-24.63,2.62-3.87,2.4-6.42,6.53-7.81,10.87s-1.75,8.93-2.09,13.47c-.4,5.29-.8,10.58-1.2,15.87-.13,1.77.38,12.28-2.9,11.62-2.58-.53-2.63-10.04-2.64-12.06-.01-4.64,1.39-9.23,1.39-13.79Z"/><path class="cls-4" d="M151.36,165.2c4.84-1.07,9.87-.44,14.82-.19s10.17.05,14.45-2.46c.89-.52,2.37-.94,2.67.05.08.26.02.54-.06.79-.38,1.16-1.27,2.06-2.18,2.88-5.97,5.39-13.63,8.77-21.57,9.9-2.77.4-23.29.31-21.97-3.91.44-1.42,5.15-3.46,6.43-4.16,2.34-1.27,4.8-2.34,7.41-2.91Z"/><path class="cls-5" d="M115.49,198.75c.78,3.29,2.21,6.4,3.92,9.32,5.95,10.14,15.46,18.13,26.46,22.25,11.01,4.12,23.43,4.33,34.57.59,2.35-.79,4.64-1.75,6.78-3,4.66-2.72,8.44-6.72,11.84-10.9,2.3-2.82,4.47-5.78,5.96-9.1,2.01-4.49,2.69-9.47,2.81-14.38.11-4.95-.7-10.61-4.78-13.42-2.46-1.69-5.93-2.19-7.41-4.78-.64-1.12-.78-2.45-.91-3.74-.32-3.31-.65-6.62-.97-9.94-5.99,8.59-15.29,14.6-25.35,17.5-10.06,2.9-20.83,2.84-31.11.82-3.49-.69-7.03-1.67-10.16-3.41-1.63-.9-3.01-2.01-4.38-3.26-1.73-1.58-1.63-2.67-3.33-1.12-2.31,2.09-3.34,9.86-3.92,12.86-.87,4.52-1.09,9.2-.03,13.71Z"/><path class="cls-3" d="M69.52,196.53c-12.63,5.31-25.31,10.64-37.19,17.46-6.42,3.69-12.69,7.89-17.47,13.55-4.86,5.74-7.99,12.76-10.21,19.95C1.45,257.87.03,268.77,0,279.64c-.01,4.02.22,8.23,2.3,11.67,3.24,5.35,9.93,7.31,16.05,8.6,29.34,6.15,59.54,6.56,89.52,6.94,16.85.22,33.7.43,50.54.65,20.6.27,41.21.53,61.81.79,18.55.23,37.26.44,55.48-3.04,18.15-3.47,37.66-12.76,42.93-30.47,4.08-13.72-1.95-28.84-11.7-39.32-9.75-10.48-22.75-17.23-35.48-23.77-19.29-9.92-38.58-19.85-57.87-29.77,1.1,15.89-4.84,32.23-16.22,43.38s-28.05,16.78-43.79,14.37c-20.31-3.11-37.12-18.92-45.6-37.63-1.8-3.98-3.3-8.59-2.96-13.03.41-5.4,3.32-8.7-4-5.7-10.53,4.32-21,8.82-31.5,13.23Z"/><polygon class="cls-6" points="148.83 89.79 162.73 120.37 140.6 120.37 148.83 89.79"/><polygon class="cls-4" points="173.57 139.24 173.4 139.29 152.06 146.06 130.71 139.29 130.54 139.24 152.06 132.42 173.57 139.24"/><path class="cls-7" d="M125.07,89.45c-5.22.59-10.39.54-13.41-3.3,2.08-4.41,6.34-7.68,11.56-8.27,5.22-.59,10.1,1.64,13.12,5.47-2.08,4.41-6.05,5.5-11.27,6.1Z"/><path class="cls-7" d="M174.38,86.02c-5.23.5-10.4.35-13.35-3.54,2.16-4.37,6.47-7.56,11.71-8.06s10.07,1.82,13.02,5.71c-2.16,4.37-6.15,5.4-11.38,5.89Z"/><circle class="cls-3" cx="122.95" cy="84.87" r="5.85" transform="translate(-25.77 70.62) rotate(-29.14)"/><circle class="cls-3" cx="172.34" cy="81.4" r="5.85"/><polyline class="cls-1" points="106.83 73.09 118.27 66.78 130.67 67.7"/><polyline class="cls-1" points="161.02 63.15 173.49 59.22 185.46 62.57"/><g id="yeQCNY"><path class="cls-2" d="M233.51,252.85c-3.89,0-7.78,0-11.66,0-.44,0-.61-.09-.58-.56.04-.71.02-1.43,0-2.15,0-.31.1-.41.41-.41,1.07.02,2.15,0,3.22,0,6.76,0,13.53,0,20.29,0,.42,0,.58.09.56.54-.04.7-.03,1.4,0,2.1.01.37-.11.48-.48.48-3.92-.01-7.84,0-11.75,0Z"/><path class="cls-2" d="M245.7,258.95h-24.38v-3.05h24.38v3.05Z"/><path class="cls-2" d="M238.05,277.26h-9.1v-3.05h9.1v3.05Z"/><path class="cls-2" d="M228.94,271.14v-3.03h9.11v3.03h-9.11Z"/><path class="cls-2" d="M228.94,265.03v-3.01h9.11v3.01h-9.11Z"/></g></g></svg>