<?xml version="1.0" encoding="UTF-8"?><svg id="Calque_2" xmlns="http://www.w3.org/2000/svg" viewBox="0 0 341.88 332.07"><defs><style>.cls-1{fill:none;stroke:#141456;stroke-miterlimit:10;stroke-width:4px;}.cls-2{fill:#49e8bb;}.cls-2,.cls-3,.cls-4,.cls-5,.cls-6,.cls-7{stroke-width:0px;}.cls-3{fill:#141456;}.cls-4{fill:#e20917;}.cls-5{fill:#fbcb5d;}.cls-6{fill:#fffbee;}.cls-7{fill:#fff;}</style></defs><g id="Calque_8"><path class="cls-4" d="M124.52,16.99c-3.45,4.03-5.59,9.02-7.3,14.05-2.86,8.4-4.65,17.12-6.24,25.85-5.9,32.33-9.18,65.22-18.13,96.84-3.55,12.53-7.99,24.88-9.74,37.78-3.18,23.37,3,47.89,16.87,66.97,20.04-8.93,38.33-25.49,42.2-47.08,2.46-13.73-1.12-27.84-6.06-40.89-4.93-13.05-11.26-25.64-14.61-39.18-5.99-24.19-2.11-49.6,1.94-74.19.95-5.78,1.95-11.69,4.76-16.83s7.79-9.48,13.64-9.89c4.17-.29,9.35,1,11.77-2.41.74-1.05,1.02-2.35,1.19-3.62,1.16-8.53.61-16.02-9.06-16.39-7.92-.3-16.03,2.95-21.21,9.01Z"/><path class="cls-4" d="M160.26,26.91c-.3,1.36-.59,2.83-.02,4.09.74,1.61,2.61,2.31,4.3,2.82,14.88,4.5,31.26,7.16,42.56,17.84,9.55,9.03,13.71,22.22,17.5,34.8,1.14-4.89,8.81-5.17,12.13-1.41,3.32,3.76,3.45,9.29,3.36,14.31-.13,7.3-.41,14.87-3.65,21.42-2.69,5.43-7.22,9.73-10.34,14.93-4.26,7.1-5.69,15.5-7.03,23.68-2.93,17.93-5.79,35.87-8.43,53.84-1.21,8.25-2.38,16.56-1.99,24.88.1,2.03.33,4.18,1.57,5.79.99,1.28,2.48,2.05,3.94,2.73,19.62,9.17,42.2,10.1,63.66,7.22,2.11-.28,4.3-.63,6.06-1.84,1.3-.89,2.26-2.19,3.11-3.52,8.83-13.81,7.16-32.11.97-47.29-6.19-15.18-16.34-28.35-24.41-42.62-9.22-16.3-9.56-36.56-13.03-54.96-4.08-21.61-10.3-42.02-19.81-61.85-6.58-13.73-17.83-24.98-31.16-32.23-6.79-3.69-14.14-6.37-21.74-7.82-4.09-.78-17.5-3.84-19.97.68-1.38,2.52,1.55,7.42,2.22,9.83,1.37,4.93,1.27,9.67.19,14.66Z"/><path class="cls-5" d="M124.46,104.93c-.08,9.3-.05,18.7,2.16,27.73,2.84,11.62,9.14,22.05,15.35,32.27,3.52,5.8,7.35,11.88,13.4,14.95,5.07,2.57,10.99,2.64,16.68,2.61,6.76-.04,13.79-.2,19.82-3.25,4.53-2.29,8.13-6.04,11.63-9.72,4.56-4.79,9.2-9.73,11.84-15.8,3.81-8.76,3.53-19.86,10.69-26.18,1.58-1.39,3.44-2.46,4.86-4.01,2.42-2.64,3.26-6.35,3.81-9.89.83-5.39,1.21-10.85,1.13-16.3-.04-2.39-.2-4.9-1.48-6.91s-4.06-3.27-6.15-2.11c-.86.48-1.52,1.3-2.43,1.68-2.6,1.07-4.96-1.92-6.13-4.48-5.29-11.63-9.19-24.58-18.79-33.02-5.89-5.18-13.39-8.12-20.85-10.57-11.44-3.77-29.53-8.67-40.75-1.41-9.98,6.45-12.28,27.1-13.5,37.72-1.01,8.86-1.22,17.79-1.29,26.7Z"/><path class="cls-5" d="M147.44,205.72c.04,2.55.03,5.31,1.57,7.34.96,1.27,2.41,2.06,3.86,2.73,11.69,5.41,25.18,4.67,38.02,3.74,1.55-.11,3.14-.23,4.56-.87,1.83-.82,3.2-2.4,4.4-4.01,8.84-11.9,11.18-27.29,12.53-42.05.08-.88.06-1.96-.7-2.39-.71-.41-1.61.03-2.27.51-3.75,2.74-6.01,7.2-9.91,9.72-2.57,1.66-5.65,2.33-8.64,2.97-5.66,1.21-11.35,2.42-17.13,2.81-2.74.19-5.5.19-8.21-.2-2.7-.39-5.33-1.16-7.95-1.93-3.04-.89-6.09-1.84-8.95-3.23-2-.98-4.38-3.54-6.47-3.8,1.02,4.71,2.91,9.25,3.81,14.05.91,4.81,1.41,9.7,1.48,14.6Z"/><path class="cls-3" d="M25.29,235.25c-9.43,10.68-15.4,23.92-20.65,37.17-3.48,8.79-6.69,18.75-3,27.46,3.71,8.76,13.23,13.39,22.18,16.62,46.18,16.62,96.53,15.65,145.61,15.54,51.03-.12,102.41.89,152.7-7.75,4.3-.74,8.79-1.64,12.13-4.44,4.43-3.7,5.84-9.84,6.59-15.56,2.03-15.52,1.07-31.43-2.8-46.59-1.58-6.21-3.7-12.39-7.41-17.61-7.92-11.14-21.68-16.24-32.44-24.65.31,8.15.6,16.45-1.48,24.34-2.08,7.89-6.94,15.45-14.37,18.81-4.72,2.13-10.04,2.42-15.21,2.42-15.48.03-30.87-2.12-46.2-4.26-5.57-.78-11.71-1.86-15.2-6.27-5.05-6.38-1.84-15.68-2.81-23.76-.13-1.06-.36-2.16-1.08-2.94-1.35-1.47-3.7-1.18-5.66-.82-15.03,2.75-30.58,2.64-45.57-.34-1.32-.26-2.7-.55-4-.19-2.35.65-3.64,3.09-4.76,5.25-8.07,15.54-21.56,28.2-37.58,35.27-1.96.86-4.11,1.66-6.19,1.15-2.65-.65-4.34-3.19-5.7-5.55-5.16-8.96-9.47-18.41-12.88-28.17-1.89-5.4-3.07-14.76-9.06-17.34-6.46-2.78-17.37,2.75-23.1,5.54-8.34,4.06-15.91,9.73-22.05,16.68Z"/><polygon class="cls-6" points="173.02 104.5 162.41 136.8 184.54 136.8 173.02 104.5"/><polygon class="cls-4" points="151.57 155.67 151.73 155.72 173.08 162.49 194.43 155.72 194.6 155.67 173.08 148.85 151.57 155.67"/><path class="cls-7" d="M199.2,101.94c5.25-.25,10.34-1.12,12.71-5.39-2.76-4.02-7.48-6.57-12.73-6.33s-9.71,3.23-12.08,7.49c2.76,4.02,6.85,4.47,12.1,4.23Z"/><path class="cls-7" d="M147.45,103.32c5.25-.29,10.33-1.21,12.67-5.5-2.79-4-7.53-6.51-12.78-6.22-5.25.29-9.68,3.31-12.02,7.59,2.79,4,6.88,4.41,12.13,4.12Z"/><circle class="cls-3" cx="200.57" cy="97.08" r="5.85" transform="translate(43.36 255) rotate(-70.96)"/><circle class="cls-3" cx="148.78" cy="98.45" r="5.85" transform="translate(-23.34 145.41) rotate(-48.75)"/><polyline class="cls-1" points="214.61 82.89 202.31 78.48 190.21 81.36"/><polyline class="cls-1" points="157.24 78.71 144.33 76.69 132.99 81.79"/><g id="yeQCNY"><path class="cls-2" d="M250.58,278.23c-3.89,0-7.78,0-11.66,0-.44,0-.61-.09-.58-.56.04-.71.02-1.43,0-2.15,0-.31.1-.41.41-.41,1.07.02,2.15,0,3.22,0,6.76,0,13.53,0,20.29,0,.42,0,.58.09.56.54-.04.7-.03,1.4,0,2.1.01.37-.11.48-.48.48-3.92-.01-7.84,0-11.75,0Z"/><path class="cls-2" d="M262.77,284.32h-24.38v-3.05h24.38v3.05Z"/><path class="cls-2" d="M255.12,302.64h-9.1v-3.05h9.1v3.05Z"/><path class="cls-2" d="M246.01,296.52v-3.03h9.11v3.03h-9.11Z"/><path class="cls-2" d="M246.01,290.41v-3.01h9.11v3.01h-9.11Z"/></g></g></svg>