<?xml version="1.0" encoding="UTF-8"?><svg id="Calque_2" xmlns="http://www.w3.org/2000/svg" viewBox="0 0 295.63 288.49"><defs><style>.cls-1{stroke:#141456;stroke-width:4px;}.cls-1,.cls-2{fill:none;stroke-miterlimit:10;}.cls-2{stroke:#e20917;}.cls-3{fill:#49e8bb;}.cls-3,.cls-4,.cls-5,.cls-6,.cls-7,.cls-8{stroke-width:0px;}.cls-4{fill:#141456;}.cls-5{fill:#e20917;}.cls-6{fill:#fbcb5d;}.cls-7{fill:#fffbee;}.cls-8{fill:#fff;}</style></defs><g id="Calque_8"><path class="cls-6" d="M90.87,70.43c-1.9-.55-3.93.87-4.75,2.67-.82,1.8-.75,3.87-.66,5.85.15,3.22.31,6.52,1.52,9.5,1.14,2.81,3.14,5.17,4.66,7.79,5.4,9.32,4.32,21.05,8.15,31.12,3.55,9.33,11.33,16.78,20.47,20.8,9.14,4.02,19.54,4.77,29.38,3.05,2.75-.48,5.5-1.16,7.92-2.55,2.43-1.4,4.42-3.46,6.32-5.52,10.77-11.64,20.87-25.86,20.04-41.69-.09-1.8-.32-3.65.28-5.35.5-1.41,1.53-2.56,2.46-3.74,5.42-6.84,8.17-15.73,7.56-24.44-.06-.91-.17-1.84-.61-2.64-1.61-2.95-6.01-2.15-9.14-.93-3.28-10.21-6.58-20.45-11.17-30.14-.97-2.04-2.06-4.14-3.91-5.43-1.48-1.04-3.3-1.45-5.08-1.82-11.79-2.45-23.9-3.92-35.88-2.68-10.36,1.07-25.4,4.38-32.63,12.72-2.78,3.21-2.97,7.39-3.35,11.44-.69,7.32-1.16,14.66-1.57,22Z"/><path class="cls-5" d="M91.5,21.18c1.85-2.67,3.96-5.16,6.27-7.45,2.84-2.81,5.98-5.33,9.34-7.48,4.15-2.66,8.7-4.8,13.55-5.65,2.7-.47,5.46-.54,8.2-.57,6.95-.08,13.89.05,20.84.19,3.19.06,6.42.13,9.47,1.06,4.78,1.46,8.66,4.87,12.37,8.22,6.69,6.04,13.56,12.54,16.37,21.1,2.53,7.7,1.5,16.35,4.81,23.74.95,2.11,2.23,4.07,3,6.25-3.26.91-7.13,1.7-9.73-.47-1.19-1-1.88-2.47-2.44-3.92-1.82-4.75-2.62-9.83-4.02-14.72-1.41-4.89-3.56-9.78-7.43-13.08-4.46-3.79-10.54-4.95-16.37-5.54-7.78-.79-15.62-.81-23.44-.83-6.02-.02-12.11-.02-17.96,1.43-7.14,1.77-13.61,5.65-19.27,10.33-1.26,1.04-2.52,2.16-3.32,3.59-1.55,2.75-1.18,6.12-1.05,9.27.16,4.17.26,13.89-3.11,17.08-2.33,2.2-2.68-1.22-3.22-3.46-.63-2.62-1.03-5.28-1.22-7.97-.75-10.91,2.14-22.1,8.36-31.12Z"/><path class="cls-6" d="M105.31,159.83c0,1.98,0,3.99.5,5.91.63,2.4,1.99,4.53,3.34,6.61,4.8,7.44,10.24,15.38,18.66,18.11,2.27.73,4.65,1.04,7.01,1.35,4.22.55,8.44,1.09,12.66,1.64,2.83.37,5.68.73,8.54.64,4.03-.13,8.03-1.21,11.59-3.11,4.84-2.58,8.75-6.59,12.57-10.53,4.56-4.71,9.14-9.43,13.07-14.68,1.37-1.83,2.68-3.76,3.26-5.97s.34-4.75-1.15-6.47c-.82-.95-1.94-1.58-3.08-2.12-2.18-1.02-4.49-1.75-6.58-2.94s-4-2.95-4.66-5.26c-.32-1.14-.33-2.34-.33-3.52,0-2.35,0-4.7,0-7.06-6.31,4.54-8.31,13.47-14.71,17.87-2.97,2.04-6.59,2.88-10.14,3.44-7.9,1.25-15.93,1.34-23.92,1.42-3.22.03-6.55.05-9.51-1.22-4.16-1.78-9.21-9.71-13.92-8.68-5.08,1.11-3.19,10.88-3.19,14.57Z"/><path class="cls-4" d="M91.68,161.1c-.07,3.51,1.97,6.66,3.56,9.79,5.04,9.95,6.43,22.4,15.08,29.43,3.81,3.09,8.58,4.7,13.25,6.18,12.96,4.09,27.15,7.6,39.88,2.85,4.56-1.7,8.68-4.39,12.65-7.22,15.74-11.22,30.43-26.36,33.5-45.44-2.6-1.97-6.56-.6-8.67,1.89-2.11,2.49-2.98,5.76-4.26,8.76-3.8,8.87-11.35,15.49-18.66,21.78-3.29,2.83-6.65,5.71-10.66,7.38-4.74,1.97-10.01,2.1-15.14,2.19-9.04.17-18.36.28-26.74-3.11-8.89-3.59-16.09-11.15-19.25-20.2-1.93-5.52-2.4-11.8-5.64-16.8-2.98-4.6-8.77-3.92-8.9,2.51Z"/><path class="cls-4" d="M256.72,177.36c13.77,9.97,23.32,24.96,29.14,40.94,5.81,15.98,8.14,33,9.63,49.93.18,2.04.34,4.18-.46,6.07-1.14,2.7-3.93,4.28-6.6,5.49-17.02,7.71-36.29,8.37-54.98,8.58-17.58.2-35.17.1-52.75,0-42.82-.24-85.63-.47-128.45-.71-8.19-.05-16.39-.09-24.57-.47-6.43-.3-13-.84-18.89-3.46-14.05-6.26-7.54-21.65-5.58-36.91,1.96-15.26,6.93-25.37,17-37,11.44-13.2,20.97-24.11,36-33,8.91-5.27,19.69-14.97,30-14,7.96,13.02,6,19,11,29,2.11,4.22,11.64,15.02,16.13,16.47,11.57,3.72,23.61,6.71,35.75,6.07,16.95-.9,32.56-9.21,44.55-20.93,6.13-6,11.39-12.9,15.65-20.34,1.71-2.99,3.21-9.28,5.61-11.52,2.67-2.5,8.13.53,11.86,1.74,10.51,3.41,20.94,7.53,29.95,14.05Z"/><path class="cls-2" d="M196.25,63.2c.92,4.42,2.56,8.69,4.86,12.57"/><path class="cls-2" d="M202.72,72.33c-2.41-2.99-2-9-5.89-16.86l-4.11-8.14"/><path class="cls-2" d="M84.5,66.07c-.78,6.26-3.78,13.26-8.56,18.22"/><polygon class="cls-7" points="135.03 68.83 150.03 101.83 126.15 101.83 135.03 68.83"/><polygon class="cls-5" points="160.22 118.1 160.05 118.15 138.51 124.98 116.97 118.15 116.8 118.1 138.51 111.22 160.22 118.1"/><path class="cls-8" d="M115.22,78.83c-4.94,0-9.76-.6-12.17-4.5,2.41-3.9,6.73-6.5,11.67-6.5s9.26,2.6,11.67,6.5c-2.41,3.9-6.23,4.5-11.17,4.5Z"/><path class="cls-8" d="M161.22,75.83c-4.94,0-9.76-.6-12.17-4.5,2.41-3.9,6.73-6.5,11.67-6.5s9.26,2.6,11.67,6.5c-2.41,3.9-6.23,4.5-11.17,4.5Z"/><circle class="cls-4" cx="113.72" cy="74.33" r="5.5"/><circle class="cls-4" cx="159.72" cy="71.33" r="5.5"/><polyline class="cls-1" points="98.98 66.82 109.73 60.89 121.39 61.76"/><polyline class="cls-1" points="149.2 60.89 161.33 58.97 171.99 63.75"/><g id="d5Qv3f"><path class="cls-3" d="M208.1,239.88c.32.2.51.31.7.43,2.56,1.59,5.32,2.23,8.33,1.89,7.18-.81,12.3-7.86,10.84-14.96-1.41-6.87-7.89-11.31-14.76-9.93-5.01,1-8.27,4.11-9.77,9.01-.26.86-.19.93.73.93,1.04,0,2.09-.06,3.13.02.82.06,1.2-.25,1.58-.97,1.53-2.94,4.02-4.34,7.32-4.11,3.06.21,5.23,1.87,6.37,4.67,1.19,2.93.65,5.7-1.52,8.02-3.63,3.89-10.05,2.82-12.29-2.01-.25-.54-.54-.74-1.12-.72-1.24.04-2.49.02-3.73.01-.42,0-.65.14-.65.6.02,2.24-.06,4.48.05,6.71.11,2.24,1.56,3.73,3.73,4.13.63.12.92-.01.92-.72,0-.96.08-1.92.14-3Z"/><path class="cls-3" d="M208.1,239.88c-.06,1.08-.14,2.04-.14,3,0,.71-.29.84-.92.72-2.17-.4-3.62-1.89-3.73-4.13-.11-2.23-.03-4.47-.05-6.71,0-.46.22-.6.65-.6,1.24.01,2.49.03,3.73-.01.58-.02.87.18,1.12.72,2.25,4.83,8.66,5.9,12.29,2.01,2.17-2.32,2.71-5.09,1.52-8.02-1.14-2.8-3.31-4.46-6.37-4.67-3.3-.23-5.79,1.18-7.32,4.11-.38.72-.76,1.03-1.58.97-1.04-.08-2.09-.01-3.13-.02-.92,0-.99-.07-.73-.93,1.5-4.9,4.76-8.01,9.77-9.01,6.86-1.37,13.34,3.07,14.76,9.93,1.46,7.1-3.66,14.15-10.84,14.96-3.01.34-5.77-.3-8.33-1.89-.19-.12-.38-.23-.7-.43Z"/></g><path class="cls-5" d="M199.87,119.61c.89,2.54,1.85,5.09,3.37,7.31,2.38,3.47,5.99,5.92,8.61,9.21s4.12,8.22,1.65,11.62c-1.57,2.16-4.39,3.14-7.06,3.08s-5.23-1-7.69-2.04c-3.71-1.56-7.31-3.35-10.8-5.35-1.09-.63-2.22-1.32-2.88-2.39-.67-1.08-.78-2.4-.84-3.67-.14-2.94-.12-5.89-.09-8.83.04-4.81,2.18-9.33,3.08-14.71.66-3.94-.36-8.92,1.78-11.95,3.33-4.7,5.02-2.42,6.18,2.11,1.35,5.27,2.89,10.48,4.69,15.62Z"/></g></svg>