<?xml version="1.0" encoding="UTF-8"?><svg id="Calque_2" xmlns="http://www.w3.org/2000/svg" viewBox="0 0 309.24 312"><defs><style>.cls-1{fill:none;stroke:#141456;stroke-miterlimit:10;stroke-width:4px;}.cls-2{fill:#49e8bb;}.cls-2,.cls-3,.cls-4,.cls-5,.cls-6,.cls-7{stroke-width:0px;}.cls-3{fill:#141456;}.cls-4{fill:#e20917;}.cls-5{fill:#fbcb5d;}.cls-6{fill:#fffbee;}.cls-7{fill:#fff;}</style></defs><g id="Calque_8"><path class="cls-4" d="M117.57,125.9c2.19,3.22,4.85,6.25,5.91,9.99,1.68,5.9-.88,12.74,2.1,18.11,1.95-.31,2.96-2.43,3.64-4.28,1.19-3.2,2.37-6.4,3.56-9.6.76-2.06,1.73-4.34,3.77-5.17,2.42-.98,5.24.7,6.47,3s1.3,5.01,1.42,7.62.36,5.35,1.85,7.48c2.26,3.24,6.62,4.08,10.55,4.53,7.06.79,14.17,1.13,21.28,1.01,3.68-.06,7.68-.37,10.4-2.84,1.67-1.51,2.62-3.64,3.76-5.58,2.8-4.78,6.91-8.66,10.11-13.19,5.7-8.05,8.31-17.82,10.82-27.36,1.28,0,2.33,1.16,2.64,2.41s.05,2.55-.2,3.81c-2.03,9.98-4.07,19.96-6.6,29.83-2.69,10.5-6.44,21.59-15.15,28.04-8.33,6.16-19.43,6.76-29.79,6.55-3.82-.08-7.65-.23-11.42-.86-11.26-1.86-21.59-7.89-29.72-15.9s-14.21-17.91-18.93-28.3c-1.98-4.36-3.75-8.87-4.38-13.61-.46-3.46-1.01-25.27,6.08-18.65,2.77,2.58,4.12,8.05,5.67,11.45,1.81,3.96,3.7,7.91,6.16,11.52Z"/><path class="cls-4" d="M117.47,47.46c-6.88,13.15-9.86,27.83-12.76,42.3-4.78-4.33-7.49-10.45-8.73-16.66-1.24-6.21-1.12-12.59-1-18.92.09-4.57.18-9.19,1.29-13.64,1.11-4.45,3.32-8.77,7-11.67,2.27-1.79,5.2-2.99,8.1-2.58.88.12,1.75.39,2.63.31,2.02-.19,3.33-2.07,4.44-3.71,7.83-11.6,20.47-20.52,34.68-22.42,4.66-.62,9.4-.5,14.1-.38,5.92.15,11.89.31,17.68,1.54s11.45,3.61,15.64,7.65c3.32,3.2,5.56,7.29,7.52,11.4,8.49,17.84,14.09,41.39,6,59.4-1.84-10.18-5.74-22.69-8.35-32.71-.8-3.06-1.64-6.14-3.08-8.98-5-9.87-16.36-15.3-27.51-17.53-10.17-2.04-20.77-1.92-30.91.18-5.08,1.05-10.04,2.59-14.79,4.61-3.12,1.32-10.77,3.77-11.55,7.39-.45,2.1,1.47,4.13,1.86,6.1.6,3.02-.88,5.69-2.25,8.32Z"/><path class="cls-5" d="M122.31,35.66c.11,1.2.93,2.21,1.27,3.37.48,1.63-.05,3.37-.57,4.99-4.22,13.03-9.46,17.95-13.68,30.99-1.55,4.79-3.11,9.63-3.5,14.64s.5,10.3,3.47,14.36c1.2,1.64,2.72,3.07,3.56,4.92.56,1.23.79,2.59,1.23,3.87.72,2.1,2,3.96,3.26,5.78,3.26,4.72,6.51,9.44,9.77,14.16.49.71,1.03,1.46,1.85,1.76.88.32,1.85.02,2.75-.25,3.96-1.2,8.64-1.74,11.91.8,4.56,3.53,3.93,10.98,7.95,15.11,2.3,2.36,5.72,3.21,8.97,3.77,6.83,1.19,13.79,1.63,20.71,1.3,1.25-.06,2.55-.16,3.66-.75,2.62-1.41,3.13-4.88,4.58-7.48,1.68-3,4.73-4.92,7.2-7.31,5.27-5.1,7.82-12.32,10.2-19.26,2.57-7.51,5.16-15.09,6.02-22.98,1.5-13.76-1.34-19.35-4.68-32.78-1.59-6.41-3.1-12.9-5.93-18.87-2.83-5.97-7.16-11.46-13.07-14.4-3.47-1.73-7.32-2.51-11.13-3.25-9.14-1.78-18.4-3.45-27.71-3.15-5.38.17-10.77,1.03-15.85,2.84-2.48.88-12.53,4.48-12.24,7.83Z"/><path class="cls-4" d="M146.75,118.36c-2.09.78-4.18,1.72-5.81,3.24s-2.78,3.71-2.55,5.93c.05.51.22,1.08.69,1.29.27.13.59.1.88.07,8.5-.9,16.75-4.02,23.71-8.97.54-.38,1.08-.79,1.41-1.36s.39-1.35-.04-1.86c-.28-.34-.71-.5-1.13-.62-5.62-1.62-11.89.31-17.16,2.28Z"/><path class="cls-4" d="M197.58,122.42c1.34.99,2.65,2.14,3.57,3.82s1.39,3.99.91,6.19c-.11.5-.31,1.06-.66,1.22-.21.1-.42.04-.62-.02-5.78-1.75-11.06-5.7-15.18-11.35-.32-.44-.64-.9-.78-1.51s-.07-1.39.29-1.85c.24-.31.57-.43.87-.5,4.14-1.05,8.22,1.51,11.6,4.01Z"/><path class="cls-5" d="M108.81,175.38c.26,1.52.91,2.95,1.6,4.34,5.93,11.85,16.06,21.54,28.15,26.94,4.66,2.08,9.58,3.54,14.47,4.99,3.98,1.18,8.08,2.37,12.2,1.92,4.18-.45,7.98-2.55,11.59-4.71,4.4-2.63,8.71-5.43,12.91-8.37,3.04-2.13,6.08-4.4,8.16-7.48,2.95-4.37,3.61-9.85,4.19-15.09.17-1.51.2-3.35-1.05-4.21-3.53,3.48-7.8,6.24-12.47,7.9-3.27,1.16-6.7,1.79-10.15,2.17-11.99,1.34-24.24-.41-35.49-4.73-5.67-2.18-11.1-5-16.12-8.42-4.15-2.83-8.63-8.85-13.49-10.19-3.11-.86-3.52.34-3.86,3.17-.44,3.63-1.27,8.14-.65,11.76Z"/><path class="cls-3" d="M72.2,199.18c-16.81,8.39-35.88,13.69-49.72,25.93C5.2,240.39-.78,264.07.08,286.27c.21,5.54,1.03,11.56,5.22,15.5,3.11,2.93,7.55,4.19,11.84,5.16,22.8,5.16,46.52,5.12,69.98,5.06,48.73-.13,97.46-.26,146.19-.38,15.93-.04,31.9-.09,47.73-1.75,4.38-.46,8.88-1.09,12.67-3.2,3.73-2.08,6.45-5.43,8.6-8.96,11.46-18.81,7.89-43.36-4.48-61.66-12.37-18.3-32.23-31.16-53.04-40.71-8.46-3.88-17.22-7.32-26.43-9.16-2.02-.4-4.21-.72-6.1.08-2.13.89-3.35,2.96-4.48,4.86-6.64,11.13-16.09,21.59-28.98,25.79-13.31,4.33-28.22,1.26-40.94-4.42-12.63-5.64-22.57-13.69-32.27-22.94-4.97-4.74-8.21-5.95-14.23-1.94-6.23,4.15-12.36,8.21-19.14,11.59Z"/><polygon class="cls-6" points="171.54 77.05 182.97 111.52 160.11 111.52 171.54 77.05"/><polygon class="cls-4" points="193.98 137.35 193.81 137.4 171.97 144.32 150.13 137.4 149.96 137.35 171.97 130.37 193.98 137.35"/><path class="cls-7" d="M144.1,84.14c-5.01,0-9.89-.61-12.34-4.56,2.45-3.95,6.82-6.59,11.83-6.59s9.39,2.64,11.83,6.59c-2.45,3.95-6.32,4.56-11.32,4.56Z"/><circle class="cls-3" cx="142.58" cy="79.58" r="5.58"/><path class="cls-7" d="M193.78,86.17c-5.01,0-9.89-.61-12.34-4.56,2.45-3.95,6.82-6.59,11.83-6.59s9.39,2.64,11.83,6.59c-2.45,3.95-6.32,4.56-11.32,4.56Z"/><circle class="cls-3" cx="192.25" cy="81.61" r="5.58"/><polyline class="cls-1" points="126.49 66.63 140.79 60.8 155.22 63.6"/><polyline class="cls-1" points="180.86 67.3 192.91 64.18 204.13 67.96"/><path class="cls-5" d="M90.83,80.65c-1.2.12-2.47.58-3.09,1.62-.37.61-.46,1.34-.54,2.05-1.12,10.33-.4,20.85,2.12,30.92.34,1.37.73,2.77,1.53,3.94s2.07,2.11,3.49,2.13c.72.01,1.5-.26,1.84-.89.19-.36.22-.78.23-1.19.08-2.89-.24-5.8.19-8.65.26-1.73.8-3.4,1.23-5.09,1.52-5.93,1.65-11.97.81-18.02-.6-4.36-2.75-7.33-7.81-6.83Z"/><g id="NR4x5i"><path class="cls-2" d="M219.03,260.47v-.32c0-4.85,0-9.69,0-14.54,0-.51-.06-1.02-.16-1.52-.79-3.6-4.21-6.08-7.87-5.72-3.8.37-6.69,3.54-6.69,7.37,0,2.33,0,4.65,0,6.98,0,.1,0,.2,0,.31h5.2c0-.1,0-.18,0-.27,0-2.22,0-4.45,0-6.67,0-.21,0-.42.03-.62.11-1.03.99-1.87,2-1.92,1.08-.05,2.08.65,2.23,1.69.12.84.07,1.7.1,2.58-.14,0-.23.01-.32.01-.53,0-1.06.01-1.58,0-.25,0-.3.08-.3.31,0,1.41,0,2.82,0,4.23q0,.67.68.67c.49,0,.98,0,1.5,0v7.42h5.19ZM242.71,238.3c-1.17,0-2.34,0-3.5,0-.52,0-.46-.07-.46.45,0,1.45,0,2.91,0,4.36q0,.39.39.39c2.3,0,4.6,0,6.9,0,1.55,0,2.61,1.43,2.13,2.85-.3.9-1.12,1.48-2.13,1.48-2.34,0-4.67,0-7.01,0-.23,0-.3.06-.29.29,0,1.53.01,3.06,0,4.59,0,.27.07.33.33.33,2.33-.01,4.65.01,6.98-.02.63,0,1.28-.08,1.9-.23,3.92-.95,6.35-5.09,5.3-8.97-.9-3.33-3.77-5.52-7.22-5.53-1.11,0-2.21,0-3.32,0ZM231.06,245.69c.07.01.11.02.15.02,1.61,0,3.22,0,4.83,0,.18,0,.23-.08.21-.23-.05-.44-.08-.88-.17-1.31-.84-4.1-5.06-6.69-9.1-5.59-3.24.88-5.46,3.77-5.47,7.14,0,2.34,0,4.69,0,7.03,0,.24.08.29.3.29,1.53,0,3.06-.01,4.59,0,.28,0,.33-.09.32-.34,0-2.08,0-4.15,0-6.23,0-.32,0-.64.03-.96.1-.91.59-1.55,1.45-1.85.84-.29,1.6-.09,2.24.53.41.4.59.9.63,1.49ZM228.9,260.47c.73.03,1.4-.09,2.07-.28,3.07-.86,5.29-3.79,5.29-6.98,0-1.69,0-3.37,0-5.06,0-.25-.07-.32-.32-.32-2.26,0-4.51,0-6.77,0-.23,0-.29.06-.29.29,0,1.56,0,3.11,0,4.67,0,.07.01.15.02.25.11,0,.2,0,.3,0,.54,0,1.09,0,1.63,0,.17,0,.23.05.21.23-.05.59-.29,1.08-.73,1.47-.4.36-.89.52-1.43.56v5.17ZM240.93,255.29s.05-.02.07-.03c.53.57,1.04,1.16,1.59,1.71,1.13,1.13,2.29,2.23,3.43,3.35.13.13.26.17.44.17,2.27,0,4.55,0,6.82,0,.09,0,.18,0,.26,0,.02-.03.03-.06.05-.1-.1-.08-.21-.15-.3-.24-1.6-1.56-3.21-3.12-4.81-4.69-.13-.13-.27-.19-.45-.19-2.28,0-4.57,0-6.85,0-.08,0-.16,0-.25.01Z"/><path class="cls-2" d="M219.03,260.47h-5.19v-7.42c-.52,0-1.01,0-1.5,0q-.68,0-.68-.67c0-1.41,0-2.82,0-4.23,0-.23.05-.32.3-.31.53.02,1.06,0,1.58,0,.09,0,.19,0,.32-.01-.03-.88.02-1.74-.1-2.58-.15-1.04-1.15-1.74-2.23-1.69-1.01.05-1.89.89-2,1.92-.02.21-.03.41-.03.62,0,2.22,0,4.45,0,6.67,0,.08,0,.17,0,.27h-5.2c0-.11,0-.21,0-.31,0-2.33,0-4.65,0-6.98,0-3.83,2.88-7,6.69-7.37,3.67-.35,7.08,2.12,7.87,5.72.11.49.16,1.01.16,1.52.01,4.85,0,9.69,0,14.54v.32Z"/><path class="cls-2" d="M242.71,238.3c1.11,0,2.21,0,3.32,0,3.45,0,6.32,2.2,7.22,5.53,1.05,3.88-1.39,8.02-5.3,8.97-.62.15-1.26.23-1.9.23-2.33.03-4.65,0-6.98.02-.26,0-.34-.07-.33-.33.01-1.53.01-3.06,0-4.59,0-.23.07-.29.29-.29,2.34,0,4.67,0,7.01,0,1.01,0,1.83-.58,2.13-1.48.48-1.43-.58-2.85-2.13-2.85-2.3,0-4.6,0-6.9,0q-.39,0-.39-.39c0-1.45,0-2.91,0-4.36,0-.52-.06-.45.46-.45,1.17,0,2.34,0,3.5,0Z"/><path class="cls-2" d="M231.06,245.69c-.04-.58-.22-1.09-.63-1.49-.64-.63-1.4-.83-2.24-.53-.86.3-1.35.94-1.45,1.85-.03.32-.03.64-.03.96,0,2.08,0,4.15,0,6.23,0,.25-.05.34-.32.34-1.53-.01-3.06-.01-4.59,0-.22,0-.3-.05-.3-.29,0-2.34,0-4.69,0-7.03.01-3.37,2.24-6.26,5.47-7.14,4.05-1.1,8.26,1.48,9.1,5.59.09.43.11.87.17,1.31.02.16-.03.24-.21.23-1.61,0-3.22,0-4.83,0-.04,0-.08-.01-.15-.02Z"/><path class="cls-2" d="M228.9,260.47v-5.17c.54-.04,1.02-.2,1.43-.56.44-.4.68-.89.73-1.47.01-.17-.05-.23-.21-.23-.54,0-1.09,0-1.63,0-.09,0-.19,0-.3,0,0-.1-.02-.18-.02-.25,0-1.56,0-3.11,0-4.67,0-.23.06-.29.29-.29,2.26,0,4.51,0,6.77,0,.25,0,.32.07.32.32-.01,1.69,0,3.37,0,5.06,0,3.19-2.22,6.12-5.29,6.98-.67.19-1.34.31-2.07.28Z"/><path class="cls-2" d="M240.93,255.29c.08,0,.16-.01.25-.01,2.28,0,4.57,0,6.85,0,.19,0,.32.06.45.19,1.6,1.57,3.2,3.13,4.81,4.69.09.09.2.16.3.24-.02.03-.03.06-.05.1-.09,0-.18,0-.26,0-2.27,0-4.55,0-6.82,0-.18,0-.31-.04-.44-.17-1.14-1.12-2.3-2.22-3.43-3.35-.55-.55-1.06-1.14-1.59-1.71-.02,0-.05.02-.07.03Z"/></g></g></svg>