<?xml version="1.0" encoding="UTF-8"?><svg id="Calque_2" xmlns="http://www.w3.org/2000/svg" viewBox="0 0 321.67 315.45"><defs><style>.cls-1{stroke:#141456;}.cls-1,.cls-2{fill:none;stroke-miterlimit:10;stroke-width:4px;}.cls-2{stroke:#49e8bb;}.cls-3{fill:#49e8bb;}.cls-3,.cls-4,.cls-5,.cls-6,.cls-7,.cls-8{stroke-width:0px;}.cls-4{fill:#141456;}.cls-5{fill:#e20917;}.cls-6{fill:#fbcb5d;}.cls-7{fill:#fffbee;}.cls-8{fill:#fff;}</style></defs><g id="Calque_8"><path class="cls-6" d="M98.37,126.46c.39,9.42,1.79,18.85,4.87,27.77,1.32,3.82,2.96,7.55,5.27,10.86,5.03,7.2,13.01,11.97,21.44,14.42,8.43,2.44,17.35,2.73,26.12,2.34,9.22-.41,18.73-1.65,26.59-6.48,4.16-2.56,7.68-6.01,11.16-9.44,5.51-5.43,11.2-11.13,13.7-18.44,1.48-4.32,1.75-8.96,1.89-13.52.37-12.28-.09-24.59-1.38-36.81-.39-3.72-.91-7.57-2.89-10.75-1.34-2.16-3.27-3.88-5.3-5.4-5.96-4.48-12.99-7.54-20.34-8.84-9.25-1.64-18.75-.51-28.14-.87-5.43-.21-10.85-.91-16.28-.66-8.13.38-16.24,3.02-22.67,8.01-14.27,11.1-14.72,31.26-14.03,47.82Z"/><path class="cls-5" d="M82.45,92.49c-1.28-1.03-1.32-1.8-1.37-5.18-.15-9.18.12-18.54,3.02-27.33,1.59-4.83,3.94-9.36,6.28-13.87,2.35-4.53,4.7-9.07,7.54-13.31C115.74,6.12,149.7-3.66,180.24,1.2c12.98,2.06,25.63,7.15,35.63,15.68,6.67,5.69,12.01,12.74,17.29,19.74,2.91,3.85,5.86,7.77,7.58,12.28,1.5,3.93,2.01,8.16,2.37,12.35,1.01,11.72.94,23.53-.2,35.24-2.05.79-3.28-2.15-4.64-3.88-2.87-3.64-9.2-1.89-11.75,1.99-2.55,3.87-2.58,8.81-3.01,13.42-.56,5.93-1.94,11.79-4.09,17.35-.34.88-.75,1.82-1.56,2.3-1.32.78-3.12-.07-3.91-1.39s-.85-2.93-.92-4.47c-.67-14.75.21-24.8-6.32-38.05-1.9-3.85-5.31-7.62-8.57-10.35-4.21-3.52-10.34-3.62-15.59-4.24-15.31-1.82-30.48-.28-45.76-.87-12.63-.49-24.58,2.65-33.62,12.04-1.3,1.35-2.51,2.8-3.51,4.4-4.93,7.92-4.24,19.07-3.4,27.96.3,3.17,1.63,11.87-.46,18.15,1.27-3.81-1.38-12.03-2.1-15.91-1.02-5.51-2.23-11.47-5.06-16.39-1.1-1.92-2.34-3.39-4.16-4.63-.9-.61-1.55-1.04-2.03-1.42Z"/><path class="cls-6" d="M189.24,196.81c-4.68,4.07-9.47,8.03-14.35,11.86-3.76,2.95-7.72,5.9-12.36,7.04-4.4,1.09-9.06.45-13.45-.67-19.69-5.05-36.4-20.5-42.97-39.74,3.24,1.04,6.11,2.95,9.08,4.62,21.72,12.22,50.33,11,70.93-3.05,6.87-4.69,12.77-10.58,18.58-16.5,1.3-1.32,5.87-7.67,8.06-6.92,2.34.81.95,6.94.58,8.99-2.52,14.09-13.57,25.45-24.08,34.37Z"/><path class="cls-6" d="M231.96,95.64c2.85-1.15,6.5.13,7.91,2.86,1.24,2.41.73,5.31.09,7.94-1.94,7.89-4.89,15.53-8.68,22.72-1.62,3.08-4.17,6.51-7.63,6.17-.59-.06-1.18-.24-1.64-.6-.97-.76-1.21-2.17-.93-3.37s.97-2.25,1.61-3.3c3.38-5.62,5.34-12.18,5.52-18.74.13-4.75-2.22-11.28,3.76-13.68Z"/><path class="cls-6" d="M85.97,117.67c.15,1.53.12,3.08.27,4.61.32,3.42,1.48,6.75,3.35,9.63.39.6,1.09,1.25,1.71.9.34-.2.47-.62.56-1,2.34-10.02,1.1-22.11-4.4-31-2.68-4.32-5.36-3.3-4.92,1.88s2.96,9.85,3.45,14.98Z"/><path class="cls-4" d="M50.57,188.4c-7.55,5.01-15.11,10.2-21.2,16.91-7.6,8.37-12.59,18.76-16.61,29.32-6.83,17.97-10.34,36.33-12.59,55.34-2.06,17.43,15.36,21.49,30.36,23.29,18.01,2.15,36.2,2.17,54.34,2.18,64.15.05,128.44.09,192.25-6.58,17.66-1.85,53.18-6.95,42.63-34.22-3.11-8.05-5.07-16.52-8.09-24.65-7.13-19.12-22.11-34.02-35.72-49.22-4.48-5.01-8.87-10.12-13.85-14.65-7.01-6.38-15.07-11.47-23.09-16.54-4.45-2.81-9.09-5.69-14.31-6.35-1.81-.23-3.72-.16-5.34.67-2.26,1.17-3.05,2.95-3.61,5.27-.68,2.81-1.87,5.33-3.26,7.94-4.28,8.03-9.8,14.97-16.1,21.47-3.99,4.11-9.09,7.31-13.59,10.79s-9.5,6.98-15.07,8.89c-5.42,1.85-12.09,3-17.5,1.08-6.53-2.32-13.21-3.84-19.52-6.83s-12.76-7.44-17.05-13.33c-5.29-7.25-7.37-16.28-11.06-24.46-1.7-3.78-4.19-7.74-8.22-8.71-1.78-.43-3.65-.2-5.44.19-6.77,1.48-12.64,5.61-18.43,9.23-6.72,4.2-13.33,8.57-19.93,12.95Z"/><path class="cls-2" d="M185.17,90.25c-7.83-1.45-18.33-3.12-22.91,5.31-7.32-2.35-15.69-2.35-20.73,1.55-62.97-27.96-18.91,74.98,1.12,14.24,3.91-11.86,1.47-9.62,1.82-9.77,2.43-.45,16.12-2.79,16.04.7.1,7.78,4.36,15.61,10.34,20.51,23.24,18.39,41.63-27.48,14.31-32.54Z"/><polygon class="cls-7" points="151.79 103.63 139.86 133.97 163.78 133.97 151.79 103.63"/><polygon class="cls-5" points="130.43 152.18 130.61 152.24 153.46 159.48 176.31 152.24 176.49 152.18 153.46 144.89 130.43 152.18"/><path class="cls-8" d="M179.48,108.03c5.24,0,10.35-.64,12.91-4.77-2.56-4.14-7.14-6.89-12.38-6.89s-9.82,2.76-12.38,6.89c2.56,4.14,6.61,4.77,11.85,4.77Z"/><circle class="cls-4" cx="180.03" cy="102.21" r="5.83"/><path class="cls-8" d="M125.42,109.11c5.24,0,10.35-.64,12.91-4.77-2.56-4.14-7.14-6.89-12.38-6.89s-9.82,2.76-12.38,6.89c2.56,4.14,6.61,4.77,11.85,4.77Z"/><circle class="cls-4" cx="124.91" cy="103.29" r="5.83"/><polyline class="cls-1" points="198.96 89.7 183.99 83.61 168.89 86.54"/><polyline class="cls-1" points="137.82 88.79 125.35 85.05 113.46 88.55"/><g id="d5Qv3f"><path class="cls-3" d="M232.71,257.11c.33.2.53.32.73.45,2.68,1.66,5.57,2.33,8.72,1.98,7.51-.85,12.87-8.23,11.34-15.65-1.48-7.18-8.26-11.83-15.44-10.39-5.25,1.05-8.65,4.3-10.23,9.43-.28.9-.2.97.76.97,1.09,0,2.19-.06,3.28.02.86.06,1.25-.26,1.65-1.02,1.6-3.07,4.21-4.54,7.66-4.3,3.21.22,5.48,1.96,6.67,4.89,1.25,3.07.68,5.96-1.59,8.39-3.8,4.07-10.51,2.95-12.86-2.1-.26-.56-.57-.77-1.18-.75-1.3.04-2.6.02-3.9.01-.44,0-.68.14-.68.63.02,2.34-.06,4.69.05,7.02.11,2.34,1.63,3.9,3.9,4.32.66.12.97-.01.96-.76,0-1,.09-2.01.15-3.14Z"/><path class="cls-3" d="M232.71,257.11c-.06,1.13-.15,2.13-.15,3.14,0,.75-.3.88-.96.76-2.27-.42-3.79-1.98-3.9-4.32-.11-2.34-.04-4.68-.05-7.02,0-.48.23-.63.68-.63,1.3.01,2.6.03,3.9-.01.61-.02.91.19,1.18.75,2.35,5.06,9.06,6.17,12.86,2.1,2.27-2.43,2.84-5.32,1.59-8.39-1.19-2.93-3.46-4.66-6.67-4.89-3.45-.24-6.06,1.23-7.66,4.3-.4.76-.79,1.08-1.65,1.02-1.09-.08-2.18-.02-3.28-.02-.96,0-1.04-.07-.76-.97,1.57-5.13,4.98-8.38,10.23-9.43,7.18-1.44,13.96,3.21,15.44,10.39,1.53,7.43-3.83,14.81-11.34,15.65-3.15.36-6.04-.32-8.72-1.98-.2-.12-.4-.24-.73-.45Z"/></g></g></svg>