<?xml version="1.0" encoding="utf-8"?>
<!-- Generator: Adobe Illustrator 28.1.0, SVG Export Plug-In . SVG Version: 6.00 Build 0)  -->
<svg version="1.1" xmlns="http://www.w3.org/2000/svg" xmlns:xlink="http://www.w3.org/1999/xlink" x="0px" y="0px"
	 viewBox="0 0 795 283" style="enable-background:new 0 0 795 283;" xml:space="preserve">
<style type="text/css">
	.st0{fill:#FFFBEE;}
	.st1{fill:#E20917;}
	.st2{fill:#FFFFFF;}
	.st3{fill:#141456;}
	.st4{fill:#FBCB5D;}
	.st5{fill:#EAB959;}
	.st6{fill:#49E8BB;}
	.st7{fill:none;stroke:#10103F;stroke-width:11;stroke-miterlimit:10;}
	.st8{fill:none;stroke:#E20917;stroke-width:11;stroke-miterlimit:10;}
	.st9{fill:#FFFBEE;stroke:#4F4F4F;stroke-width:0.5;stroke-miterlimit:10;}
	.st10{fill:none;stroke:#4F4F4F;stroke-width:0.5;stroke-miterlimit:10;}
	.st11{fill:none;stroke:#FFFFFF;stroke-width:7;stroke-miterlimit:10;}
	.st12{fill:none;stroke:#10103F;stroke-width:7;stroke-miterlimit:10;}
	.st13{display:none;}
	.st14{display:inline;}
	.st15{fill:none;stroke:#10103F;stroke-width:2;stroke-miterlimit:10;}
	.st16{fill:none;stroke:#10103F;stroke-width:12;stroke-miterlimit:10;}
	.st17{fill:url(#);}
	.st18{fill:none;stroke:#FBCB5D;stroke-width:11;stroke-miterlimit:10;}
	.st19{fill:none;stroke:#FBCB5D;stroke-width:11;stroke-miterlimit:10;stroke-dasharray:20.9876,13.3558;}
	.st20{display:inline;clip-path:url(#SVGID_00000147923121758444491420000011619842287684930745_);}
	.st21{display:inline;clip-path:url(#SVGID_00000075125115615541428090000017401184117934383791_);}
	.st22{display:inline;clip-path:url(#SVGID_00000046322452901878287920000009697415350142153393_);}
	.st23{fill:none;stroke:#141456;stroke-width:4;stroke-miterlimit:10;}
	.st24{fill:none;stroke:#E20917;stroke-miterlimit:10;}
	.st25{fill:none;stroke:#E20917;stroke-width:2;stroke-miterlimit:10;}
	.st26{fill:#FFCC66;}
	.st27{fill:#20234A;}
	.st28{fill:#EA600A;}
	.st29{fill:#FAB800;}
	.st30{fill:#005D45;}
	.st31{fill:#F5E9D2;}
	.st32{fill:#2858A3;}
	.st33{fill:#0F4A6E;}
	.st34{fill:#00A469;}
	.st35{fill:#FFFFFF;stroke:#000000;stroke-width:0.25;stroke-miterlimit:10;}
	.st36{fill:#EF6518;}
	.st37{fill:#0D2251;}
	.st38{fill:#285BEA;}
	.st39{fill:#FF7900;}
	.st40{fill:#136FA8;}
	.st41{fill:#1687DB;}
	.st42{fill:#0F567A;}
	.st43{fill:#0D2359;}
	.st44{fill:#EF151D;}
	.st45{fill:#172F56;}
	.st46{fill:#B9E530;}
	.st47{fill:#7067CF;}
	.st48{fill:#0A2744;}
	.st49{fill:#D7E4F9;}
	.st50{fill:#F2B814;}
	.st51{fill:#F49B3F;}
	.st52{fill:#E4F3FD;}
	.st53{clip-path:url(#SVGID_00000081618666297398312100000005345127651244720280_);}
	.st54{clip-path:url(#SVGID_00000162323806680029683570000009110921284946465700_);}
	.st55{fill:none;stroke:#FFFFFF;stroke-width:0.75;stroke-miterlimit:10;}
	.st56{fill:none;stroke:#FFFFFF;stroke-width:0.5;stroke-miterlimit:10;}
	.st57{fill:none;stroke:#FFFFFF;stroke-miterlimit:10;}
	.st58{fill:none;stroke:#FFFFFF;stroke-width:2;stroke-miterlimit:10;stroke-dasharray:11.9283,11.9283;}
</style>
<g id="Calque_1">
	<g>
		<g>
			<g>
				<g>
					<path class="st2" d="M276.24,104.03V59.6h11.42v35.03h19.04v9.39H276.24z"/>
					<path class="st2" d="M327.33,104.85c-3.3,0-6.26-0.62-8.89-1.87c-2.62-1.25-4.71-3.16-6.25-5.74
						c-1.54-2.58-2.32-5.82-2.32-9.71v-1.27c0-3.72,0.74-6.81,2.22-9.27c1.48-2.45,3.5-4.3,6.06-5.55c2.56-1.25,5.4-1.87,8.54-1.87
						c5.54,0,9.73,1.43,12.57,4.28s4.25,6.99,4.25,12.41v3.55h-23.61c0.08,1.65,0.48,3.03,1.17,4.12c0.7,1.1,1.6,1.89,2.7,2.38
						c1.1,0.49,2.28,0.73,3.55,0.73c1.86,0,3.33-0.29,4.41-0.86s1.79-1.34,2.13-2.32h9.01c-0.68,3.68-2.35,6.43-5.01,8.25
						C335.21,103.94,331.69,104.85,327.33,104.85z M327.02,77.37c-1.18,0-2.31,0.19-3.36,0.57c-1.06,0.38-1.92,1.01-2.57,1.87
						c-0.66,0.87-1.03,2.04-1.11,3.52h13.96c0-1.56-0.32-2.78-0.95-3.65c-0.63-0.87-1.47-1.47-2.51-1.81
						C329.44,77.54,328.29,77.37,327.02,77.37z"/>
					<path class="st2" d="M376.21,104.03V68.99h-13.65V59.6h38.71v9.39h-13.65v35.03H376.21z"/>
					<path class="st2" d="M416.82,104.85c-3.3,0-6.26-0.62-8.89-1.87c-2.62-1.25-4.71-3.16-6.25-5.74
						c-1.54-2.58-2.32-5.82-2.32-9.71v-1.27c0-3.72,0.74-6.81,2.22-9.27c1.48-2.45,3.5-4.3,6.06-5.55c2.56-1.25,5.4-1.87,8.54-1.87
						c5.54,0,9.73,1.43,12.57,4.28s4.25,6.99,4.25,12.41v3.55H409.4c0.08,1.65,0.48,3.03,1.17,4.12c0.7,1.1,1.6,1.89,2.7,2.38
						c1.1,0.49,2.28,0.73,3.55,0.73c1.86,0,3.33-0.29,4.41-0.86s1.79-1.34,2.13-2.32h9.01c-0.68,3.68-2.35,6.43-5.01,8.25
						C424.69,103.94,421.18,104.85,416.82,104.85z M416.51,77.37c-1.18,0-2.31,0.19-3.36,0.57c-1.06,0.38-1.92,1.01-2.57,1.87
						c-0.66,0.87-1.03,2.04-1.11,3.52h13.96c0-1.56-0.32-2.78-0.95-3.65c-0.63-0.87-1.47-1.47-2.51-1.81
						C418.93,77.54,417.78,77.37,416.51,77.37z M412.38,67.22l6.98-10.15h10.15L420,67.22H412.38z"/>
					<path class="st2" d="M450.14,104.41c-2.71,0-4.93-0.33-6.66-0.98c-1.74-0.66-3.01-1.86-3.84-3.62
						c-0.83-1.75-1.24-4.3-1.24-7.65V59.6h9.77v31.1c0,2.07,0.29,3.52,0.86,4.35s1.77,1.24,3.59,1.24c0.51,0,0.93-0.01,1.27-0.03
						c0.34-0.02,0.68-0.05,1.02-0.1v8.06c-0.42,0.04-0.88,0.07-1.36,0.09c-0.49,0.02-1.02,0.04-1.59,0.06
						S450.78,104.41,450.14,104.41z"/>
					<path class="st2" d="M475.21,104.85c-3.3,0-6.26-0.62-8.89-1.87c-2.62-1.25-4.71-3.16-6.25-5.74
						c-1.54-2.58-2.32-5.82-2.32-9.71v-1.27c0-3.72,0.74-6.81,2.22-9.27c1.48-2.45,3.5-4.3,6.06-5.55c2.56-1.25,5.4-1.87,8.54-1.87
						c5.54,0,9.73,1.43,12.57,4.28s4.25,6.99,4.25,12.41v3.55h-23.61c0.08,1.65,0.48,3.03,1.17,4.12c0.7,1.1,1.6,1.89,2.7,2.38
						c1.1,0.49,2.28,0.73,3.55,0.73c1.86,0,3.33-0.29,4.41-0.86s1.79-1.34,2.13-2.32h9.01c-0.68,3.68-2.35,6.43-5.01,8.25
						C483.08,103.94,479.57,104.85,475.21,104.85z M474.9,77.37c-1.18,0-2.31,0.19-3.36,0.57c-1.06,0.38-1.92,1.01-2.57,1.87
						c-0.66,0.87-1.03,2.04-1.11,3.52h13.96c0-1.56-0.32-2.78-0.95-3.65c-0.63-0.87-1.47-1.47-2.51-1.81
						C477.32,77.54,476.17,77.37,474.9,77.37z M470.77,67.22l6.98-10.15h10.15l-9.52,10.15H470.77z"/>
					<path class="st2" d="M511.71,117.55c-3.64,0-6.55-0.42-8.73-1.27c-2.18-0.85-3.77-2.08-4.76-3.71c-1-1.63-1.58-3.52-1.75-5.68
						h9.96c0.21,0.76,0.69,1.48,1.43,2.16s2.02,1.02,3.84,1.02c2.54,0,4.45-0.58,5.74-1.75c1.29-1.16,1.94-3.01,1.94-5.55v-3.62
						c-1.14,1.65-2.57,2.91-4.28,3.78c-1.71,0.87-3.52,1.3-5.43,1.3c-2.92,0-5.47-0.63-7.65-1.9c-2.18-1.27-3.86-3.15-5.05-5.65
						c-1.18-2.5-1.78-5.65-1.78-9.46v-1.27c0-3.55,0.58-6.55,1.75-8.98c1.16-2.43,2.83-4.27,5.01-5.52
						c2.18-1.25,4.75-1.87,7.71-1.87c2.62,0,4.81,0.56,6.57,1.68c1.75,1.12,3.06,2.36,3.9,3.71v-4.57h9.01v31.42
						c0,5.25-1.41,9.18-4.22,11.81C522.13,116.23,517.71,117.55,511.71,117.55z M512.02,96.16c1.4,0,2.64-0.32,3.75-0.95
						c1.1-0.63,1.98-1.55,2.63-2.76c0.66-1.21,0.98-2.63,0.98-4.28v-3.17c0-1.61-0.33-2.95-0.98-4.03c-0.66-1.08-1.53-1.9-2.63-2.48
						c-1.1-0.57-2.35-0.86-3.75-0.86c-1.99,0-3.62,0.69-4.89,2.06c-1.27,1.38-1.9,3.46-1.9,6.25v1.27c0,2.92,0.64,5.14,1.94,6.67
						C508.46,95.4,510.08,96.16,512.02,96.16z"/>
					<path class="st2" d="M535.51,104.03V70.39h9.01v4.57c0.34-0.76,0.91-1.56,1.71-2.41c0.8-0.85,1.78-1.56,2.92-2.13
						c1.14-0.57,2.41-0.86,3.81-0.86c0.72,0,1.29,0.04,1.71,0.13c0.42,0.08,0.8,0.17,1.14,0.25v8.44c-0.21-0.13-0.7-0.27-1.46-0.44
						c-0.76-0.17-1.65-0.25-2.67-0.25c-1.48,0-2.7,0.3-3.65,0.89c-0.95,0.59-1.65,1.4-2.09,2.41c-0.44,1.02-0.67,2.16-0.67,3.43
						v19.61H535.51z"/>
					<path class="st2" d="M569.78,104.85c-2.41,0-4.47-0.47-6.19-1.4c-1.71-0.93-3.01-2.21-3.9-3.84c-0.89-1.63-1.33-3.44-1.33-5.43
						c0-3.34,1.03-5.9,3.08-7.68c2.05-1.78,5.15-2.67,9.3-2.67h9.52v-1.4c0-2.03-0.48-3.43-1.43-4.19s-2.27-1.14-3.97-1.14
						c-1.61,0-2.79,0.24-3.55,0.73c-0.76,0.49-1.19,1.28-1.27,2.38h-9.77c0.13-2.03,0.77-3.85,1.94-5.46
						c1.16-1.61,2.83-2.88,5.01-3.81c2.18-0.93,4.83-1.4,7.96-1.4c2.96,0,5.56,0.44,7.81,1.33c2.24,0.89,3.99,2.32,5.24,4.28
						c1.25,1.97,1.87,4.6,1.87,7.9v12.38c0,1.78,0.04,3.33,0.13,4.67c0.08,1.33,0.21,2.63,0.38,3.9h-9.33
						c-0.04-0.72-0.09-1.35-0.16-1.9c-0.06-0.55-0.1-1.23-0.1-2.03c-1.02,1.35-2.42,2.49-4.22,3.4
						C574.99,104.4,572.66,104.85,569.78,104.85z M572.95,97.93c1.4,0,2.64-0.25,3.74-0.76c1.1-0.51,1.97-1.28,2.6-2.32
						c0.63-1.04,0.95-2.21,0.95-3.52v-1.4h-7.62c-1.44,0-2.51,0.38-3.21,1.14c-0.7,0.76-1.05,1.63-1.05,2.6
						c0,1.27,0.35,2.29,1.05,3.08C570.13,97.54,571.3,97.93,572.95,97.93z"/>
					<path class="st2" d="M596.12,104.03V70.39h9.2v4.82c0.76-1.48,1.95-2.79,3.55-3.93c1.61-1.14,3.6-1.71,5.97-1.71
						c2.67,0,4.73,0.51,6.19,1.52c1.46,1.02,2.53,2.39,3.21,4.12c0.85-1.61,2.16-2.95,3.94-4.03c1.78-1.08,3.87-1.62,6.28-1.62
						c3.64,0,6.41,1.03,8.31,3.08c1.9,2.05,2.86,5.11,2.86,9.17v22.21h-9.77v-19.8c0-2.37-0.37-4.05-1.11-5.05
						c-0.74-0.99-1.94-1.49-3.59-1.49c-0.97,0-1.87,0.26-2.7,0.79c-0.83,0.53-1.48,1.28-1.97,2.25c-0.49,0.97-0.73,2.14-0.73,3.49
						v19.8h-9.77v-19.8c0-2.37-0.37-4.05-1.11-5.05c-0.74-0.99-1.96-1.49-3.65-1.49c-0.97,0-1.86,0.26-2.67,0.79
						c-0.8,0.53-1.45,1.28-1.94,2.25c-0.49,0.97-0.73,2.14-0.73,3.49v19.8H596.12z"/>
					<path class="st2" d="M651.65,104.03V70.39h9.2v4.82c0.76-1.48,1.95-2.79,3.55-3.93c1.61-1.14,3.6-1.71,5.97-1.71
						c2.67,0,4.73,0.51,6.19,1.52c1.46,1.02,2.53,2.39,3.21,4.12c0.85-1.61,2.16-2.95,3.94-4.03c1.78-1.08,3.87-1.62,6.28-1.62
						c3.64,0,6.41,1.03,8.31,3.08c1.9,2.05,2.86,5.11,2.86,9.17v22.21h-9.77v-19.8c0-2.37-0.37-4.05-1.11-5.05
						c-0.74-0.99-1.94-1.49-3.59-1.49c-0.97,0-1.87,0.26-2.7,0.79c-0.83,0.53-1.48,1.28-1.97,2.25c-0.49,0.97-0.73,2.14-0.73,3.49
						v19.8h-9.77v-19.8c0-2.37-0.37-4.05-1.11-5.05c-0.74-0.99-1.96-1.49-3.65-1.49c-0.97,0-1.86,0.26-2.67,0.79
						c-0.8,0.53-1.45,1.28-1.94,2.25c-0.49,0.97-0.73,2.14-0.73,3.49v19.8H651.65z"/>
					<path class="st2" d="M723.37,104.85c-3.3,0-6.26-0.62-8.89-1.87c-2.62-1.25-4.71-3.16-6.25-5.74
						c-1.54-2.58-2.32-5.82-2.32-9.71v-1.27c0-3.72,0.74-6.81,2.22-9.27c1.48-2.45,3.5-4.3,6.06-5.55c2.56-1.25,5.4-1.87,8.54-1.87
						c5.54,0,9.73,1.43,12.57,4.28s4.25,6.99,4.25,12.41v3.55h-23.61c0.08,1.65,0.48,3.03,1.17,4.12c0.7,1.1,1.6,1.89,2.7,2.38
						c1.1,0.49,2.28,0.73,3.55,0.73c1.86,0,3.33-0.29,4.41-0.86s1.79-1.34,2.13-2.32h9.01c-0.68,3.68-2.35,6.43-5.01,8.25
						C731.24,103.94,727.73,104.85,723.37,104.85z M723.05,77.37c-1.18,0-2.31,0.19-3.36,0.57c-1.06,0.38-1.92,1.01-2.57,1.87
						c-0.66,0.87-1.03,2.04-1.11,3.52h13.96c0-1.56-0.32-2.78-0.95-3.65c-0.63-0.87-1.47-1.47-2.51-1.81
						C725.47,77.54,724.32,77.37,723.05,77.37z"/>
				</g>
			</g>
			<g>
				<path class="st2" d="M275.65,222.07l0.88-97.83h21.96c4.96,0,8.94,0.99,11.92,2.97s5.13,4.85,6.45,8.59
					c1.32,3.74,1.96,8.26,1.91,13.56l-0.34,44.13c-0.06,6.41-0.8,11.74-2.23,15.98c-1.43,4.24-3.69,7.4-6.78,9.48
					c-3.09,2.08-7.2,3.11-12.31,3.11H275.65z M290.65,210.51h4.89c1.74,0,3.2-0.35,4.37-1.06c1.17-0.7,2.06-1.95,2.65-3.75
					c0.59-1.8,0.9-4.34,0.93-7.64l0.38-48.3c0.04-5-0.53-8.6-1.74-10.78c-1.2-2.19-3.34-3.28-6.42-3.28h-4.39L290.65,210.51z"/>
				<path class="st2" d="M331.68,222.07l0.88-97.83h32.79l-0.11,12.84h-17.9l-0.25,28.46h17.01l-0.11,12.56h-17.01l-0.28,31.13
					h18.56l-0.12,12.84H331.68z"/>
				<path class="st2" d="M393.98,223.18c-4.08,0-7.47-0.64-10.18-1.92c-2.71-1.28-4.84-3.15-6.4-5.61c-1.55-2.46-2.65-5.47-3.28-9
					s-0.93-7.57-0.89-12.09l0.08-8.73h14.12l-0.09,9.84c-0.05,5.26,0.36,9.04,1.23,11.34c0.87,2.3,2.62,3.45,5.25,3.45
					c1.78,0,3.12-0.42,4.04-1.25c0.92-0.83,1.54-2.17,1.87-4s0.51-4.23,0.54-7.2c0.03-3.67-0.71-7.02-2.22-10.06
					c-1.51-3.04-3.81-6.19-6.89-9.45l-7.16-7.45c-1.98-2.08-3.77-4.28-5.36-6.62c-1.59-2.33-2.85-4.94-3.77-7.81
					c-0.92-2.87-1.36-6.09-1.33-9.64c0.05-5.15,0.71-9.51,2.01-13.06c1.29-3.56,3.45-6.25,6.46-8.09c3.02-1.83,7.14-2.75,12.36-2.75
					c3.93,0,7.16,0.6,9.68,1.81c2.53,1.21,4.49,2.96,5.9,5.28c1.41,2.32,2.39,5.13,2.95,8.45c0.56,3.32,0.83,7.11,0.79,11.37
					l-0.05,6.06h-13.73l0.06-7c0.03-2.96-0.11-5.43-0.41-7.39c-0.3-1.96-0.87-3.44-1.71-4.42c-0.84-0.98-2.08-1.47-3.71-1.47
					c-1.56,0-2.82,0.34-3.79,1.03c-0.97,0.69-1.67,1.74-2.11,3.17c-0.44,1.43-0.67,3.27-0.69,5.53c-0.02,2.04,0.22,3.8,0.73,5.28
					c0.51,1.48,1.29,2.91,2.35,4.28c1.06,1.37,2.38,2.91,3.96,4.61l7.98,8.73c3.82,4.15,6.78,8.47,8.89,12.95s3.14,9.49,3.09,15.01
					c-0.05,5.86-0.73,10.78-2.02,14.76c-1.3,3.98-3.43,7-6.42,9.03C403.14,222.17,399.09,223.18,393.98,223.18z"/>
				<path class="st2" d="M463.01,223.18c-4.08,0-7.47-0.64-10.18-1.92c-2.71-1.28-4.84-3.15-6.4-5.61c-1.55-2.46-2.65-5.47-3.28-9
					s-0.93-7.57-0.89-12.09l0.08-8.73h14.12l-0.09,9.84c-0.05,5.26,0.36,9.04,1.23,11.34c0.87,2.3,2.62,3.45,5.25,3.45
					c1.78,0,3.12-0.42,4.04-1.25c0.92-0.83,1.54-2.17,1.87-4s0.51-4.23,0.54-7.2c0.03-3.67-0.71-7.02-2.22-10.06
					c-1.51-3.04-3.81-6.19-6.89-9.45l-7.16-7.45c-1.98-2.08-3.77-4.28-5.36-6.62c-1.59-2.33-2.85-4.94-3.77-7.81
					c-0.92-2.87-1.36-6.09-1.33-9.64c0.05-5.15,0.71-9.51,2.01-13.06c1.29-3.56,3.45-6.25,6.46-8.09c3.02-1.83,7.14-2.75,12.36-2.75
					c3.93,0,7.16,0.6,9.68,1.81c2.53,1.21,4.49,2.96,5.9,5.28c1.41,2.32,2.39,5.13,2.95,8.45c0.56,3.32,0.83,7.11,0.79,11.37
					l-0.05,6.06h-13.73l0.06-7c0.03-2.96-0.11-5.43-0.41-7.39c-0.3-1.96-0.87-3.44-1.71-4.42c-0.84-0.98-2.08-1.47-3.71-1.47
					c-1.56,0-2.82,0.34-3.79,1.03c-0.97,0.69-1.67,1.74-2.11,3.17c-0.44,1.43-0.67,3.27-0.69,5.53c-0.02,2.04,0.22,3.8,0.73,5.28
					c0.51,1.48,1.29,2.91,2.35,4.28c1.06,1.37,2.38,2.91,3.96,4.61l7.98,8.73c3.82,4.15,6.78,8.47,8.89,12.95s3.14,9.49,3.09,15.01
					c-0.05,5.86-0.73,10.78-2.02,14.76c-1.3,3.98-3.43,7-6.42,9.03C472.18,222.17,468.13,223.18,463.01,223.18z"/>
				<path class="st2" d="M513.87,223.18c-4.74,0-8.68-1.09-11.81-3.28c-3.13-2.19-5.46-5.38-7-9.59c-1.54-4.21-2.28-9.29-2.23-15.26
					l0.38-42.63c0.04-4.48,0.45-8.52,1.22-12.12c0.77-3.59,2.01-6.67,3.7-9.23c1.69-2.56,3.93-4.52,6.72-5.89
					c2.79-1.37,6.22-2.06,10.3-2.06c3.71,0,6.86,0.6,9.46,1.81c2.6,1.21,4.72,2.94,6.35,5.2c1.63,2.26,2.81,4.99,3.54,8.2
					c0.73,3.21,1.08,6.81,1.04,10.81l-0.12,13.45h-14.4l0.11-12.51c0.04-4.82-0.33-8.37-1.13-10.64s-2.41-3.42-4.86-3.42
					c-2.71,0-4.52,1.23-5.45,3.7c-0.93,2.46-1.41,5.9-1.45,10.31l-0.41,45.69c-0.03,3.41,0.14,6.2,0.51,8.37
					c0.37,2.17,1.01,3.76,1.93,4.78c0.92,1.02,2.21,1.53,3.88,1.53c2.52,0,4.23-1.19,5.15-3.56s1.39-6.13,1.44-11.28l0.12-14.01
					h14.62l-0.12,13.84c-0.06,6.19-0.82,11.35-2.31,15.48c-1.48,4.13-3.8,7.22-6.95,9.25C522.95,222.17,518.88,223.18,513.87,223.18
					z"/>
				<path class="st2" d="M568.23,223.18c-5.08,0-9.21-1.08-12.39-3.22c-3.19-2.15-5.52-5.34-7-9.56c-1.48-4.22-2.19-9.45-2.14-15.67
					l0.4-44.75c0.05-5.63,0.83-10.45,2.35-14.45c1.52-4,3.9-7.08,7.14-9.23c3.24-2.15,7.48-3.22,12.7-3.22
					c3.93,0,7.24,0.61,9.93,1.83c2.69,1.22,4.86,2.99,6.51,5.31c1.65,2.32,2.83,5.13,3.57,8.45c0.73,3.32,1.08,7.09,1.04,11.31
					l-0.4,44.75c-0.06,6.23-0.83,11.45-2.34,15.67c-1.5,4.22-3.84,7.41-7.01,9.56C577.43,222.11,573.31,223.18,568.23,223.18z
					 M568.35,210.29c1.85,0,3.25-0.56,4.18-1.67c0.94-1.11,1.57-2.81,1.91-5.08c0.33-2.28,0.52-5.16,0.55-8.64l0.41-45.58
					c0.04-4.26-0.33-7.55-1.11-9.87c-0.78-2.32-2.48-3.47-5.11-3.47c-2.71,0-4.55,1.12-5.53,3.36c-0.98,2.24-1.49,5.55-1.53,9.92
					l-0.41,45.63c-0.03,3.56,0.1,6.48,0.39,8.75c0.29,2.28,0.93,3.96,1.9,5.03C564.97,209.75,566.42,210.29,568.35,210.29z"/>
				<path class="st2" d="M603.21,222.07l0.88-97.83h24.62c5.11,0,8.92,1,11.42,3c2.5,2,4.13,4.93,4.9,8.78
					c0.76,3.85,1.12,8.56,1.07,14.12c-0.05,5.74-0.67,10.25-1.87,13.53c-1.2,3.28-3.6,5.48-7.2,6.59c1.7,0.3,3.12,0.99,4.26,2.08
					c1.14,1.09,2.05,2.69,2.74,4.78c0.69,2.09,1.17,4.78,1.46,8.06c0.29,3.28,0.41,7.29,0.36,12.03c0,0.37-0.01,1.41-0.03,3.11
					c-0.02,1.71-0.02,3.72-0.03,6.03c0,2.32,0,4.62,0.02,6.92c0.02,2.3,0.05,4.26,0.11,5.89c0.06,1.63,0.14,2.59,0.25,2.89h-14.9
					c-0.11-0.18-0.18-1.14-0.22-2.86c-0.04-1.72-0.08-3.92-0.11-6.59c-0.03-2.67-0.04-5.54-0.03-8.62c0.01-3.08,0.03-6.1,0.05-9.09
					c0.03-2.98,0.05-5.62,0.07-7.92c0.03-2.93-0.17-5.14-0.58-6.64s-1.18-2.55-2.31-3.14c-1.13-0.59-2.74-0.95-4.85-1.06l-4.78-0.28
					l-0.41,46.19H603.21z M618.67,164.32h5.95c1.81,0,3.2-0.41,4.15-1.22c0.95-0.81,1.61-2.32,1.99-4.5
					c0.37-2.19,0.58-5.34,0.61-9.45l0.01-0.61c0.03-3.45-0.11-6.09-0.43-7.95c-0.32-1.85-1-3.13-2.05-3.84
					c-1.05-0.7-2.69-1.06-4.91-1.06h-5.06L618.67,164.32z"/>
				<path class="st2" d="M658.29,222.07l0.88-97.83h32.79l-0.11,12.84h-17.9l-0.25,28.46h17.01l-0.11,12.56h-17.01l-0.28,31.13
					h18.56l-0.12,12.84H658.29z"/>
				<path class="st2" d="M720.59,223.18c-4.08,0-7.47-0.64-10.18-1.92c-2.71-1.28-4.84-3.15-6.4-5.61c-1.55-2.46-2.65-5.47-3.28-9
					s-0.93-7.57-0.89-12.09l0.08-8.73h14.12l-0.09,9.84c-0.05,5.26,0.36,9.04,1.23,11.34c0.87,2.3,2.62,3.45,5.25,3.45
					c1.78,0,3.12-0.42,4.04-1.25c0.92-0.83,1.54-2.17,1.87-4s0.51-4.23,0.54-7.2c0.03-3.67-0.71-7.02-2.22-10.06
					c-1.51-3.04-3.81-6.19-6.89-9.45l-7.16-7.45c-1.98-2.08-3.77-4.28-5.36-6.62c-1.59-2.33-2.85-4.94-3.77-7.81
					c-0.92-2.87-1.36-6.09-1.33-9.64c0.05-5.15,0.71-9.51,2.01-13.06c1.29-3.56,3.45-6.25,6.46-8.09c3.02-1.83,7.14-2.75,12.36-2.75
					c3.93,0,7.16,0.6,9.68,1.81c2.53,1.21,4.49,2.96,5.9,5.28c1.41,2.32,2.39,5.13,2.95,8.45c0.56,3.32,0.83,7.11,0.79,11.37
					l-0.05,6.06h-13.73l0.06-7c0.03-2.96-0.11-5.43-0.41-7.39c-0.3-1.96-0.87-3.44-1.71-4.42c-0.84-0.98-2.08-1.47-3.71-1.47
					c-1.56,0-2.82,0.34-3.79,1.03c-0.97,0.69-1.67,1.74-2.11,3.17c-0.44,1.43-0.67,3.27-0.69,5.53c-0.02,2.04,0.22,3.8,0.73,5.28
					c0.51,1.48,1.29,2.91,2.35,4.28c1.06,1.37,2.38,2.91,3.96,4.61l7.98,8.73c3.82,4.15,6.78,8.47,8.89,12.95s3.14,9.49,3.09,15.01
					c-0.05,5.86-0.73,10.78-2.02,14.76c-1.3,3.98-3.43,7-6.42,9.03C729.75,222.17,725.7,223.18,720.59,223.18z"/>
			</g>
		</g>
		<g>
			<polygon class="st2" points="142.88,109.18 53.23,109.18 53.35,73.72 142.99,73.72 			"/>
			<polygon class="st2" points="201.89,161.97 54.01,161.97 54.13,126.51 202,126.51 			"/>
			<polygon class="st2" points="156.71,214.77 98.81,214.77 98.93,179.31 156.82,179.31 			"/>
			<circle class="st2" cx="180.19" cy="91.57" r="21.6"/>
		</g>
	</g>
</g>
<g id="Calque_4">
</g>
<g id="Calque_5">
</g>
<g id="Calque_6">
</g>
<g id="Calque_2">
</g>
<g id="Calque_3">
</g>
</svg>
