<svg width="43" height="41" viewBox="0 0 43 41" fill="none" xmlns="http://www.w3.org/2000/svg">
<g clip-path="url(#clip0_351_1358)">
<path d="M20.2412 40.9998C31.4202 40.9998 40.4825 31.8981 40.4825 20.6706C40.4825 9.44302 31.4202 0.341309 20.2412 0.341309C9.06231 0.341309 0 9.44302 0 20.6706C0 31.8981 9.06231 40.9998 20.2412 40.9998Z" fill="#5E3E21" fill-opacity="0.1"/>
<path d="M22.7585 40.6585C33.9375 40.6585 42.9998 31.5568 42.9998 20.3293C42.9998 9.10172 33.9375 0 22.7585 0C11.5796 0 2.5173 9.10172 2.5173 20.3293C2.5173 31.5568 11.5796 40.6585 22.7585 40.6585Z" fill="#E67E5D"/>
<path d="M27.2683 30.4871L13.6341 21.0255L27.2683 11.564" stroke="#FFD8B3" stroke-width="3" stroke-linecap="round" stroke-linejoin="round"/>
</g>
<defs>
<clipPath id="clip0_351_1358">
<rect width="43" height="41" fill="white"/>
</clipPath>
</defs>
</svg>
