<svg width="44" height="42" viewBox="0 0 44 42" fill="none" xmlns="http://www.w3.org/2000/svg">
<path d="M20.2412 0.999945C9.06231 0.999944 -4.87061e-06 10.1017 -5.85216e-06 21.3292C-6.8337e-06 32.5567 9.06231 41.6584 20.2412 41.6584C31.4202 41.6584 40.4825 32.5567 40.4825 21.3292C40.4825 10.1017 31.4202 0.999946 20.2412 0.999945Z" fill="#5E3E21" fill-opacity="0.1"/>
<path d="M23.2414 0.341498C12.0625 0.341497 3.00018 9.44321 3.00018 20.6707C3.00018 31.8983 12.0625 41 23.2414 41C34.4204 41 43.4827 31.8983 43.4827 20.6707C43.4827 9.44321 34.4204 0.341499 23.2414 0.341498Z" fill="#E67E5D"/>
<path d="M13.862 25.243C13.862 23.5176 13.8599 21.792 13.8653 20.0665C13.8658 19.8915 13.8284 19.8427 13.6326 19.8461C12.6113 19.8636 11.5894 19.8617 10.568 19.8606C10.2761 19.8605 10.0802 19.7375 10.0195 19.5306C9.94831 19.2885 10.0818 19.1338 10.2626 18.9925C12.5148 17.2325 14.8221 15.5418 17.0909 13.803C18.592 12.6526 20.0962 11.5061 21.598 10.3566C22.1201 9.95712 22.6382 9.55285 23.1597 9.15262C23.4187 8.95391 23.5533 8.94584 23.8187 9.14841C24.9464 10.0092 26.0663 10.8793 27.1947 11.739C28.4933 12.7282 29.8086 13.697 31.0966 14.699C32.0588 15.4476 33.0529 16.1547 34.013 16.9054C34.909 17.606 35.8111 18.299 36.721 18.9825C37.0705 19.2452 37.0905 19.5721 36.7873 19.7701C36.6752 19.8434 36.549 19.8494 36.422 19.8476C35.4152 19.834 34.4085 19.834 33.4016 19.844C33.1987 19.8461 33.141 19.8941 33.1415 20.0972C33.1482 23.5046 33.1464 26.9122 33.1462 30.3196C33.1462 30.8615 32.9972 30.9971 32.4396 30.9964C30.6272 30.9939 28.8148 30.9964 27.0025 30.9976C26.4836 30.998 26.342 30.8719 26.3411 30.3734C26.3377 28.3204 26.3366 26.2671 26.3426 24.2141C26.3429 24.0602 26.3086 24.0153 26.1497 24.0157C24.3746 24.0201 22.5996 24.0208 20.8244 24.0134C20.6524 24.0127 20.654 24.0936 20.6506 24.2112C20.613 25.4998 20.6389 26.7885 20.6353 28.0771C20.6332 28.8486 20.6202 29.6203 20.6558 30.392C20.6756 30.8215 20.507 30.9955 20.0611 30.9968C18.1965 31.0013 16.332 31.001 14.4673 30.9964C14.013 30.9953 13.8662 30.8431 13.8656 30.3982C13.8637 28.6799 13.8649 26.9616 13.8649 25.2434C13.8638 25.2434 13.8629 25.2434 13.8619 25.2434L13.862 25.243Z" fill="#FFD8B3"/>
</svg>
