<svg width="430" height="81" viewBox="0 0 430 81" fill="none" xmlns="http://www.w3.org/2000/svg">
<path d="M242.06 54.54C249.775 54.54 256.03 42.3308 256.03 27.27C256.03 12.2092 249.775 0 242.06 0C234.345 0 228.09 12.2092 228.09 27.27C228.09 42.3308 234.345 54.54 242.06 54.54Z" fill="#D74F50"/>
<path d="M242.06 16.98L243.06 79.16H241.06L242.06 16.98Z" fill="#EBCCBC"/>
<path d="M222.16 30.06C222.16 25.97 219.4 22.53 215.64 21.49C215.59 13.49 209.1 7.03 201.09 7.03C200.09 7.03 199.11 7.13 198.17 7.32C196.59 5.88 194.5 5 192.19 5C188.35 5 185.09 7.43 183.84 10.84C183.41 10.8 182.99 10.77 182.55 10.77C174.51 10.77 168 17.29 168 25.32C168 29.42 169.7 33.11 172.42 35.76C172.14 36.88 171.98 38.04 171.98 39.25C171.98 47.29 178.5 53.8 186.53 53.8C189.55 53.8 192.36 52.88 194.69 51.3C197.17 53.25 200.29 54.43 203.69 54.43C211.73 54.43 218.24 47.91 218.24 39.88C218.24 39.09 218.16 38.31 218.04 37.56C220.52 35.98 222.16 33.22 222.16 30.06Z" fill="#505187"/>
<path d="M195.12 28.1599L196.62 78.8599H193.62L195.12 28.1599Z" fill="#EBCCBC"/>
<path d="M222.7 63.02C229.162 63.02 234.4 55.0149 234.4 45.14C234.4 35.2652 229.162 27.26 222.7 27.26C216.238 27.26 211 35.2652 211 45.14C211 55.0149 216.238 63.02 222.7 63.02Z" fill="#E69973"/>
<path d="M222.7 38.4L223.7 79.16H221.7L222.7 38.4Z" fill="#EBCCBC"/>
<path d="M-27 79H451" stroke="#505187" stroke-width="3"/>
</svg>
