<svg width="430" height="139" viewBox="0 0 430 139" fill="none" xmlns="http://www.w3.org/2000/svg">
<path d="M242.06 112.54C249.775 112.54 256.03 100.331 256.03 85.27C256.03 70.2092 249.775 58 242.06 58C234.345 58 228.09 70.2092 228.09 85.27C228.09 100.331 234.345 112.54 242.06 112.54Z" fill="#D74F50"/>
<path d="M242.06 74.98L243.06 137.16H241.06L242.06 74.98Z" fill="#EBCCBC"/>
<path d="M222.16 88.06C222.16 83.97 219.4 80.53 215.64 79.49C215.59 71.49 209.1 65.03 201.09 65.03C200.09 65.03 199.11 65.13 198.17 65.32C196.59 63.88 194.5 63 192.19 63C188.35 63 185.09 65.43 183.84 68.84C183.41 68.8 182.99 68.77 182.55 68.77C174.51 68.77 168 75.29 168 83.32C168 87.42 169.7 91.11 172.42 93.76C172.14 94.88 171.98 96.04 171.98 97.25C171.98 105.29 178.5 111.8 186.53 111.8C189.55 111.8 192.36 110.88 194.69 109.3C197.17 111.25 200.29 112.43 203.69 112.43C211.73 112.43 218.24 105.91 218.24 97.88C218.24 97.09 218.16 96.31 218.04 95.56C220.52 93.98 222.16 91.22 222.16 88.06Z" fill="#505187"/>
<path d="M195.12 86.1599L196.62 136.86H193.62L195.12 86.1599Z" fill="#EBCCBC"/>
<path d="M222.7 121.02C229.162 121.02 234.4 113.015 234.4 103.14C234.4 93.2652 229.162 85.26 222.7 85.26C216.238 85.26 211 93.2652 211 103.14C211 113.015 216.238 121.02 222.7 121.02Z" fill="#E69973"/>
<path d="M222.7 96.4L223.7 137.16H221.7L222.7 96.4Z" fill="#EBCCBC"/>
<path d="M-27 137H451" stroke="#505187" stroke-width="3"/>
<path d="M376.43 35.08C376.45 34.89 376.46 34.7 376.46 34.5C376.46 30.36 372.81 27 368.3 27C367.9 27 367.5 27.04 367.12 27.09C365.64 25.8 363.59 25 361.31 25C356.81 25 354.4 27.22 353.08 30.85C352.72 31.83 352.71 33.76 353.26 34.7C352.79 34.62 351.02 34.91 350.53 35.01C348 35.55 345 38.13 345 42C345 45.87 346.84 47.9 351.33 48.91C352.6 49.19 355.11 48.7 356.19 48.16C363.55 51.17 370.22 47.48 370.22 47.48C371.61 48.43 373.37 49 375.29 49C379.79 49 383.45 45.87 383.45 42C383.45 38.47 380.39 35.55 376.43 35.08Z" fill="#EDBDBF"/>
<path d="M80.43 29.08C80.45 28.89 80.46 28.7 80.46 28.5C80.46 24.36 76.81 21 72.3 21C71.9 21 71.5 21.04 71.12 21.09C69.64 19.8 67.59 19 65.31 19C60.81 19 58.4 21.22 57.08 24.85C56.72 25.83 56.71 27.76 57.26 28.7C56.79 28.62 55.02 28.91 54.53 29.01C52 29.55 49 32.13 49 36C49 39.87 50.84 41.9 55.33 42.91C56.6 43.19 59.11 42.7 60.19 42.16C67.55 45.17 74.22 41.48 74.22 41.48C75.61 42.43 77.37 43 79.29 43C83.79 43 87.45 39.87 87.45 36C87.45 32.47 84.39 29.55 80.43 29.08Z" fill="#EDBDBF"/>
<path d="M108.705 5.79746C108.72 5.68818 108.728 5.57891 108.728 5.46388C108.728 3.08278 105.975 1.15029 102.573 1.15029C102.272 1.15029 101.97 1.17329 101.683 1.20205C100.567 0.460115 99.0211 0 97.3014 0C93.9074 0 92.0897 1.27682 91.0941 3.3646C90.8226 3.92824 90.8151 5.03827 91.2299 5.5789C90.8754 5.53289 89.5404 5.69969 89.1709 5.7572C87.2627 6.06778 85 7.55165 85 9.77746C85 12.0033 86.3878 13.1708 89.7742 13.7517C90.7321 13.9128 92.6252 13.6309 93.4398 13.3204C98.9909 15.0515 104.022 12.9293 104.022 12.9293C105.07 13.4756 106.397 13.8035 107.846 13.8035C111.24 13.8035 114 12.0033 114 9.77746C114 7.7472 111.692 6.06778 108.705 5.79746Z" fill="#EDBDBF"/>
</svg>
