<svg width="311" height="185" viewBox="0 0 311 185" fill="none" xmlns="http://www.w3.org/2000/svg">
    <g clip-path="url(#clip0_532_274)">
        <path d="M3.20494 156.389L6.70438 156.026V160.821H11.5551V163.804H6.66973V171.686C6.66973 173.497 7.46663 174.411 9.06044 174.411C9.71875 174.411 10.4117 174.221 11.1913 173.842L12.1961 176.791C11.07 177.291 9.96128 177.532 8.85255 177.532C7.03353 177.584 5.63029 177.101 4.66015 176.101C3.69001 175.101 3.18761 173.635 3.18761 171.686V163.804H0V160.821H3.20494V156.389Z" fill="#D74F50"/>
        <path d="M15.0719 160.786H18.3115L18.554 162.959C19.5242 161.252 21.1526 160.407 23.4394 160.407C25.1198 160.407 26.4884 160.873 27.5452 161.821L25.9514 164.839C25.1198 164.167 24.1497 163.839 23.0236 163.839C21.7416 163.839 20.6675 164.236 19.8187 165.012C18.9698 165.788 18.5367 166.909 18.5367 168.375V177.326H15.0719V160.786Z" fill="#D74F50"/>
        <path d="M30.7501 162.89C32.3266 161.252 34.3881 160.441 36.9348 160.441C39.4814 160.441 41.5429 161.269 43.1541 162.908C44.7652 164.546 45.5621 166.598 45.5621 169.065C45.5621 171.531 44.7652 173.6 43.1887 175.221C41.5949 176.843 39.516 177.653 36.9348 177.653C34.3535 177.653 32.3093 176.843 30.7328 175.221C29.1563 173.6 28.3767 171.548 28.3767 169.065C28.3767 166.581 29.1736 164.529 30.7501 162.89ZM36.9348 163.632C35.4102 163.632 34.1802 164.149 33.2447 165.201C32.3093 166.253 31.8415 167.547 31.8415 169.065C31.8415 170.582 32.3093 171.858 33.2274 172.893C34.1456 173.928 35.3929 174.445 36.9348 174.445C38.4766 174.445 39.7239 173.928 40.6594 172.893C41.5949 171.858 42.0627 170.582 42.0627 169.065C42.0627 167.547 41.5776 166.288 40.6074 165.219C39.6373 164.149 38.4246 163.632 36.9348 163.632Z" fill="#D74F50"/>
        <path d="M48.9748 160.786H52.4396V169.651C52.4396 171.082 52.8381 172.238 53.635 173.1C54.4319 173.98 55.5406 174.411 56.9612 174.411C58.3818 174.411 59.4212 173.928 60.2874 172.962C61.1536 171.996 61.5867 170.806 61.5867 169.409V160.786H65.0515V177.36H61.9159L61.708 174.911C60.1315 176.705 58.2258 177.601 55.9737 177.601C53.8775 177.601 52.1971 176.894 50.8978 175.48C49.5985 174.066 48.9575 172.134 48.9575 169.668V160.769L48.9748 160.786Z" fill="#D74F50"/>
        <path d="M82.1329 160.752H85.9442L78.8934 177.394H75.0821L67.9966 160.752H71.8425L74.06 166.081L76.9877 173.756L79.621 166.736L82.1156 160.735L82.1329 160.752Z" fill="#D74F50"/>
        <path d="M104.325 170.341H90.8469C91.0028 171.6 91.5745 172.6 92.5447 173.359C93.5148 174.118 94.7621 174.497 96.2693 174.497C97.1702 174.497 98.071 174.342 98.9892 174.014C99.9073 173.686 100.6 173.255 101.103 172.721L103.355 174.894C102.523 175.79 101.467 176.48 100.167 176.98C98.8852 177.481 97.5513 177.722 96.2 177.722C93.4802 177.722 91.3147 176.929 89.6689 175.342C88.0404 173.755 87.2262 171.634 87.2262 168.961C87.2262 166.288 88.0404 164.356 89.6516 162.752C91.2627 161.148 93.3762 160.338 95.9575 160.338C98.7466 160.338 100.912 161.183 102.454 162.89C103.996 164.598 104.619 167.081 104.308 170.341H104.325ZM90.8989 167.426H100.981C100.895 166.15 100.41 165.167 99.5089 164.477C98.6254 163.787 97.4647 163.442 96.0614 163.442C94.7621 163.442 93.6361 163.787 92.7006 164.477C91.7651 165.167 91.1587 166.15 90.8989 167.426Z" fill="#D74F50"/>
        <path d="M118.098 156.389L121.597 156.026V160.821H126.448V163.804H121.562V171.686C121.562 173.497 122.359 174.411 123.953 174.411C124.611 174.411 125.304 174.221 126.084 173.842L127.089 176.791C125.963 177.291 124.854 177.532 123.745 177.532C121.926 177.584 120.523 177.101 119.553 176.101C118.583 175.101 118.08 173.635 118.08 171.686V163.804H114.875V160.821H118.08V156.389H118.098Z" fill="#D74F50"/>
        <path d="M131.298 162.89C132.875 161.252 134.936 160.441 137.483 160.441C140.03 160.441 142.091 161.269 143.702 162.908C145.314 164.546 146.11 166.598 146.11 169.065C146.11 171.531 145.314 173.6 143.737 175.221C142.161 176.843 140.064 177.653 137.483 177.653C134.902 177.653 132.858 176.843 131.281 175.221C129.705 173.6 128.925 171.548 128.925 169.065C128.925 166.581 129.722 164.529 131.298 162.89ZM137.483 163.632C135.959 163.632 134.729 164.149 133.793 165.201C132.858 166.253 132.39 167.547 132.39 169.065C132.39 170.582 132.858 171.858 133.776 172.893C134.694 173.928 135.924 174.445 137.483 174.445C139.042 174.445 140.272 173.928 141.208 172.893C142.143 171.858 142.611 170.582 142.611 169.065C142.611 167.547 142.126 166.288 141.156 165.219C140.186 164.149 138.973 163.632 137.483 163.632Z" fill="#D74F50"/>
        <path d="M165.894 177.325H162.395V168.461C162.395 167.012 161.996 165.857 161.217 164.994C160.437 164.132 159.329 163.701 157.908 163.701C156.487 163.701 155.448 164.184 154.565 165.15C153.681 166.115 153.248 167.288 153.248 168.668V177.325H149.783V160.752H152.953L153.161 163.166C154.738 161.407 156.591 160.51 158.757 160.51C160.922 160.51 162.551 161.217 163.902 162.632C165.236 164.046 165.912 165.977 165.912 168.444V177.343L165.894 177.325Z" fill="#D74F50"/>
        <path d="M195.484 185H192.019V174.894C191.43 175.825 190.598 176.532 189.507 176.998C188.416 177.463 187.307 177.688 186.146 177.688C183.582 177.688 181.538 176.877 180.013 175.273C178.489 173.669 177.727 171.6 177.727 169.065C177.727 166.529 178.506 164.494 180.065 162.89C181.625 161.286 183.651 160.459 186.146 160.441C187.307 160.441 188.416 160.7 189.472 161.235C190.512 161.752 191.361 162.511 191.984 163.459L192.192 160.769H195.501V185H195.484ZM182.699 172.859C183.669 173.842 184.933 174.342 186.458 174.342C187.982 174.342 189.23 173.842 190.217 172.824C191.205 171.807 191.69 170.565 191.69 169.065C191.69 167.564 191.205 166.305 190.252 165.305C189.299 164.305 188.034 163.787 186.458 163.787C184.881 163.787 183.617 164.27 182.664 165.253C181.711 166.236 181.226 167.495 181.226 169.065C181.226 170.634 181.711 171.876 182.699 172.859Z" fill="#D74F50"/>
        <path d="M199.936 160.786H203.401V169.651C203.401 171.082 203.799 172.238 204.596 173.1C205.393 173.962 206.502 174.411 207.922 174.411C209.343 174.411 210.382 173.928 211.249 172.962C212.115 171.996 212.548 170.806 212.548 169.409V160.786H216.013V177.36H212.877L212.669 174.911C211.093 176.705 209.187 177.601 206.935 177.601C204.839 177.601 203.158 176.894 201.859 175.48C200.56 174.066 199.919 172.134 199.919 169.668V160.769L199.936 160.786Z" fill="#D74F50"/>
        <path d="M233.978 163.408L234.082 160.786H237.46V177.326H234.151L233.978 174.635C233.458 175.635 232.661 176.411 231.57 176.946C230.478 177.481 229.369 177.757 228.243 177.757C225.749 177.774 223.704 177.015 222.111 175.48C220.517 173.945 219.72 171.789 219.72 169.03C219.72 166.271 220.534 164.236 222.163 162.701C223.791 161.166 225.835 160.407 228.313 160.407C229.508 160.407 230.617 160.683 231.656 161.218C232.696 161.752 233.458 162.477 233.978 163.391V163.408ZM228.59 163.563C227.065 163.563 225.783 164.063 224.744 165.063C223.704 166.064 223.185 167.392 223.185 169.047C223.185 170.703 223.704 172.031 224.744 173.048C225.783 174.049 227.065 174.566 228.59 174.566C229.577 174.566 230.461 174.359 231.24 173.962C232.02 173.566 232.609 173.031 232.99 172.393C233.389 171.738 233.683 171.031 233.874 170.255C234.064 169.478 234.064 168.702 233.874 167.926C233.683 167.15 233.389 166.426 232.99 165.771C232.592 165.115 232.02 164.598 231.24 164.201C230.461 163.804 229.577 163.598 228.59 163.598V163.563Z" fill="#D74F50"/>
        <path d="M242.172 160.786H245.411L245.654 162.959C246.624 161.252 248.253 160.407 250.539 160.407C252.22 160.407 253.588 160.873 254.645 161.821L253.069 164.839C252.237 164.167 251.267 163.839 250.141 163.839C248.859 163.839 247.802 164.236 246.936 165.012C246.087 165.788 245.654 166.909 245.654 168.375V177.326H242.189V160.786H242.172Z" fill="#D74F50"/>
        <path d="M258.855 156.389L262.354 156.026V160.821H267.205V163.804H262.32V171.686C262.32 173.497 263.117 174.411 264.71 174.411C265.369 174.411 266.079 174.221 266.841 173.842L267.846 176.791C266.72 177.291 265.611 177.532 264.502 177.532C262.683 177.584 261.28 177.101 260.31 176.101C259.34 175.101 258.838 173.635 258.838 171.686V163.804H255.633V160.821H258.838V156.389H258.855Z" fill="#D74F50"/>
        <path d="M271.397 157.82C270.67 157.458 270.323 156.82 270.323 155.923C270.323 155.026 270.687 154.405 271.397 154.043C272.108 153.681 272.835 153.681 273.563 154.043C274.29 154.405 274.637 155.026 274.637 155.923C274.637 156.82 274.273 157.458 273.563 157.82C272.853 158.182 272.125 158.182 271.397 157.82ZM274.187 160.717H270.722V177.325H274.187V160.717Z" fill="#D74F50"/>
        <path d="M294.993 170.341H281.515C281.67 171.6 282.242 172.6 283.212 173.359C284.182 174.118 285.43 174.497 286.937 174.497C287.838 174.497 288.739 174.342 289.657 174.014C290.575 173.686 291.268 173.255 291.77 172.721L294.022 174.894C293.191 175.79 292.134 176.48 290.835 176.98C289.536 177.481 288.219 177.722 286.868 177.722C284.148 177.722 281.982 176.929 280.354 175.342C278.725 173.755 277.911 171.634 277.911 168.961C277.911 166.288 278.725 164.356 280.337 162.752C281.948 161.148 284.061 160.338 286.642 160.338C289.432 160.338 291.597 161.183 293.139 162.89C294.698 164.598 295.304 167.081 294.993 170.341ZM281.567 167.426H291.649C291.562 166.15 291.077 165.167 290.177 164.477C289.293 163.787 288.132 163.442 286.729 163.442C285.43 163.442 284.304 163.787 283.368 164.477C282.433 165.167 281.826 166.15 281.567 167.426Z" fill="#D74F50"/>
        <path d="M298.527 160.786H301.766L302.009 162.959C302.979 161.252 304.607 160.407 306.894 160.407C308.575 160.407 309.943 160.873 311 161.821L309.424 164.839C308.592 164.167 307.622 163.839 306.496 163.839C305.214 163.839 304.157 164.236 303.291 165.012C302.442 165.788 302.009 166.909 302.009 168.375V177.326H298.544V160.786H298.527Z" fill="#D74F50"/>
        <path d="M104.394 116.119H110.804L110.718 104.891C110.718 104.891 110.718 95.8199 118.929 95.8199C126.101 95.8199 127.071 104.529 127.071 104.529V116.119H133.412V64.8113H104.394V116.119ZM115.343 70.8819H122.481V83.5406H115.343V70.8819Z" fill="#E69973"/>
        <path d="M58.2432 59.7754V121.086H100.583V59.7754H58.2432ZM87.8845 80.1604H82.5833V72.1064H87.8845V80.1604Z" fill="#EBCCBC"/>
        <path d="M254.229 51.0315H240.058L241.462 43.9778H184.951V51.0315V51.2902V60.3617H252.237L254.229 51.0315Z" fill="#D74F50"/>
        <path d="M200.04 67.4326H194.323V89.7492H200.04V67.4326Z" fill="#E69973"/>
        <path d="M214.055 67.4326H208.338V89.7492H214.055V67.4326Z" fill="#E69973"/>
        <path d="M242.172 67.3809H236.455V89.6974H242.172V67.3809Z" fill="#E69973"/>
        <path d="M228.122 67.3809H222.405V89.6974H228.122V67.3809Z" fill="#E69973"/>
        <path d="M207.056 94.009H201.339V116.326H207.056V94.009Z" fill="#E69973"/>
        <path d="M221.071 94.009H215.354V116.326H221.071V94.009Z" fill="#E69973"/>
        <path d="M249.171 93.9746H243.454V116.291H249.171V93.9746Z" fill="#E69973"/>
        <path d="M235.121 93.9746H229.404V116.291H235.121V93.9746Z" fill="#E69973"/>
        <path d="M103.563 45.9784H55.2634V57.3436H103.563V45.9784Z" fill="#E69973"/>
        <path d="M141.381 43.5467V35.5444H92.2675L80.7817 43.5467H141.381Z" fill="#D74F50"/>
        <path d="M126.881 47.6685H120.956V59.758H126.881V47.6685Z" fill="#EBCCBC"/>
        <path d="M116.088 47.6685H110.163V59.758H116.088V47.6685Z" fill="#EBCCBC"/>
        <path d="M154.114 17.2806H172.131C171.802 21.9544 167.887 25.645 163.122 25.645C158.358 25.645 154.443 21.9544 154.114 17.2806Z" fill="#E69973"/>
        <path d="M172.166 25.214V80.1604H154.079V25.214C156.349 27.6112 159.571 29.0944 163.123 29.0944C166.674 29.0944 169.896 27.6112 172.166 25.214Z" fill="#E69973"/>
        <path d="M172.166 16.6425C172.166 16.8667 172.166 17.0737 172.131 17.2806C171.802 21.9544 167.887 25.6451 163.123 25.6451C158.358 25.6451 154.443 21.9544 154.114 17.2806C154.079 17.0737 154.079 16.8667 154.079 16.6425C154.079 11.6756 158.133 7.64001 163.123 7.64001C168.112 7.64001 172.166 11.6756 172.166 16.6425Z" fill="#D74F50"/>
        <path d="M185.921 83.5406H140.324V121.086H185.921V83.5406Z" fill="#D74F50"/>
        <path d="M181.434 0H177.432V80.1603H181.434V0Z" fill="#EBCCBC"/>
        <path d="M147.999 5.00679e-06V3.98389L177.432 3.98389V5.00679e-06L147.999 5.00679e-06Z" fill="#EBCCBC"/>
        <path d="M149.021 0H144.707V80.1603H149.021V0Z" fill="#EBCCBC"/>
    </g>
    <defs>
        <clipPath id="clip0_532_274">
            <rect width="311" height="185" fill="white"/>
        </clipPath>
    </defs>
</svg>
    