<svg width="314" height="223" viewBox="0 0 314 223" fill="none" xmlns="http://www.w3.org/2000/svg">
    <g clip-path="url(#clip0_216_7)">
        <path d="M3.2282 194.055L6.76384 193.691V198.537H11.6638V201.564H6.72541V209.533C6.72541 211.372 7.53246 212.272 9.14656 212.272C9.79989 212.272 10.5109 212.081 11.2987 211.698L12.3171 214.686C11.1834 215.184 10.0689 215.433 8.95441 215.433C7.10972 215.472 5.70699 214.993 4.70779 213.996C3.7278 213 3.2282 211.506 3.2282 209.533V201.564H0V198.537H3.2282V194.055Z" fill="#BF4430"/>
        <path d="M15.2186 198.499H18.4853L18.7158 200.702C19.6958 198.978 21.3291 198.116 23.6542 198.116C25.3644 198.116 26.7479 198.595 27.8048 199.533L26.2099 202.579C25.3644 201.909 24.3844 201.564 23.2507 201.564C21.9633 201.564 20.8872 201.966 20.0225 202.752C19.1578 203.537 18.7351 204.667 18.7351 206.142V215.203H15.2378V198.48L15.2186 198.499Z" fill="#BF4430"/>
        <path d="M31.0522 200.625C32.6471 198.978 34.7224 198.154 37.2972 198.154C39.8721 198.154 41.9474 198.978 43.5807 200.644C45.1948 202.311 46.0211 204.38 46.0211 206.87C46.0211 209.361 45.214 211.449 43.6191 213.096C42.0242 214.744 39.9105 215.548 37.2972 215.548C34.6839 215.548 32.6279 214.724 31.033 213.096C29.4381 211.449 28.6503 209.38 28.6503 206.87C28.6503 204.361 29.4573 202.273 31.0522 200.625ZM37.2972 201.372C35.76 201.372 34.511 201.909 33.5694 202.962C32.6279 204.016 32.1475 205.319 32.1475 206.87C32.1475 208.422 32.6087 209.705 33.5502 210.74C34.4726 211.774 35.7216 212.291 37.2972 212.291C38.8729 212.291 40.1219 211.774 41.0635 210.74C42.005 209.705 42.4854 208.403 42.4854 206.87C42.4854 205.338 42.005 204.054 41.025 202.981C40.045 201.909 38.8153 201.372 37.3164 201.372H37.2972Z" fill="#BF4430"/>
        <path d="M49.4414 198.499H52.9386V207.464C52.9386 208.92 53.3421 210.069 54.1492 210.951C54.9562 211.832 56.0707 212.272 57.5119 212.272C58.953 212.272 59.9907 211.793 60.8554 210.816C61.7201 209.84 62.162 208.652 62.162 207.215V198.499H65.6592V215.261H62.4887L62.2773 212.79C60.6824 214.59 58.7609 215.51 56.4935 215.51C54.3798 215.51 52.6696 214.801 51.3629 213.364C50.0563 211.947 49.403 209.993 49.403 207.502V198.518L49.4414 198.499Z" fill="#BF4430"/>
        <path d="M82.934 198.461H86.7771L79.6674 215.28H75.8243L68.6761 198.461H72.5577L74.8059 203.863L77.7651 211.64L80.4168 204.552L82.934 198.48V198.461Z" fill="#BF4430"/>
        <path d="M105.32 208.173H91.7154C91.8691 209.437 92.4456 210.453 93.4256 211.219C94.4056 211.985 95.6738 212.368 97.1918 212.368C98.095 212.368 99.0173 212.196 99.9396 211.87C100.862 211.544 101.573 211.104 102.073 210.567L104.359 212.77C103.514 213.671 102.457 214.38 101.15 214.878C99.8436 215.376 98.5177 215.625 97.1534 215.625C94.4056 215.625 92.215 214.82 90.5625 213.211C88.91 211.602 88.1029 209.456 88.1029 206.775C88.1029 204.093 88.91 202.12 90.5625 200.491C92.1958 198.863 94.3095 198.039 96.9228 198.039C99.7283 198.039 101.919 198.901 103.495 200.625C105.051 202.349 105.685 204.859 105.358 208.154L105.32 208.173ZM91.7731 205.204H101.957C101.861 203.92 101.381 202.924 100.478 202.215C99.5745 201.506 98.4216 201.162 96.9997 201.162C95.6738 201.162 94.5593 201.506 93.6178 202.215C92.6762 202.924 92.0613 203.92 91.7923 205.204H91.7731Z" fill="#BF4430"/>
        <path d="M119.251 194.055L122.787 193.691V198.537H127.687V201.564H122.748V209.533C122.748 211.372 123.555 212.272 125.17 212.272C125.823 212.272 126.534 212.081 127.322 211.698L128.34 214.686C127.206 215.184 126.073 215.433 124.977 215.433C123.133 215.472 121.73 214.993 120.731 213.996C119.751 213 119.251 211.506 119.251 209.533V201.564H116.023V198.537H119.251V194.055Z" fill="#BF4430"/>
        <path d="M132.567 200.625C134.162 198.978 136.257 198.154 138.812 198.154C141.368 198.154 143.463 198.978 145.096 200.644C146.729 202.311 147.536 204.38 147.536 206.87C147.536 209.361 146.729 211.449 145.134 213.096C143.539 214.744 141.426 215.548 138.812 215.548C136.199 215.548 134.143 214.724 132.548 213.096C130.953 211.449 130.166 209.38 130.166 206.87C130.166 204.361 130.973 202.273 132.567 200.625ZM138.812 201.372C137.275 201.372 136.026 201.909 135.085 202.962C134.143 204.016 133.663 205.319 133.663 206.87C133.663 208.422 134.124 209.705 135.065 210.74C135.988 211.774 137.237 212.291 138.812 212.291C140.388 212.291 141.637 211.774 142.579 210.74C143.52 209.705 144.001 208.403 144.001 206.87C144.001 205.338 143.52 204.054 142.54 202.981C141.56 201.909 140.331 201.372 138.832 201.372H138.812Z" fill="#BF4430"/>
        <path d="M167.501 215.222H163.966V206.257C163.966 204.782 163.562 203.614 162.774 202.752C161.986 201.89 160.872 201.449 159.45 201.449C158.028 201.449 156.971 201.928 156.087 202.905C155.203 203.882 154.761 205.07 154.761 206.468V215.222H151.264V198.461H154.454L154.665 200.893C156.26 199.112 158.143 198.212 160.315 198.212C162.486 198.212 164.158 198.92 165.503 200.357C166.848 201.775 167.52 203.748 167.52 206.219V215.203L167.501 215.222Z" fill="#BF4430"/>
        <path d="M197.381 223H193.884V212.79C193.288 213.747 192.443 214.437 191.348 214.916C190.252 215.376 189.119 215.606 187.966 215.606C185.372 215.606 183.316 214.782 181.778 213.173C180.241 211.544 179.453 209.456 179.453 206.889C179.453 204.322 180.241 202.273 181.817 200.644C183.392 199.016 185.448 198.192 187.966 198.173C189.138 198.173 190.272 198.441 191.309 198.978C192.366 199.514 193.212 200.261 193.846 201.238L194.057 198.518H197.401V223.019L197.381 223ZM184.468 210.702C185.448 211.698 186.717 212.196 188.254 212.196C189.791 212.196 191.059 211.679 192.039 210.663C193.019 209.648 193.519 208.384 193.519 206.87C193.519 205.357 193.039 204.093 192.078 203.077C191.117 202.062 189.83 201.545 188.254 201.545C186.678 201.545 185.391 202.043 184.43 203.02C183.469 203.997 182.989 205.28 182.989 206.87C182.989 208.46 183.488 209.705 184.468 210.702Z" fill="#BF4430"/>
        <path d="M201.859 198.499H205.356V207.464C205.356 208.92 205.759 210.069 206.566 210.951C207.373 211.832 208.488 212.272 209.91 212.272C211.332 212.272 212.389 211.793 213.272 210.816C214.137 209.84 214.579 208.652 214.579 207.215V198.499H218.076V215.261H214.906L214.694 212.79C213.1 214.59 211.178 215.51 208.911 215.51C206.797 215.51 205.087 214.801 203.78 213.364C202.473 211.928 201.82 209.993 201.82 207.502V198.518L201.859 198.499Z" fill="#BF4430"/>
        <path d="M236.235 201.143L236.331 198.499H239.732V215.223H236.389L236.216 212.502C235.697 213.518 234.89 214.303 233.775 214.839C232.68 215.376 231.566 215.663 230.432 215.663C227.915 215.682 225.839 214.916 224.245 213.364C222.63 211.813 221.823 209.629 221.823 206.851C221.823 204.074 222.65 202.005 224.283 200.453C225.935 198.901 227.992 198.135 230.49 198.135C231.681 198.135 232.815 198.403 233.852 198.94C234.89 199.476 235.678 200.223 236.197 201.143H236.235ZM230.797 201.315C229.26 201.315 227.953 201.813 226.915 202.828C225.878 203.844 225.34 205.185 225.34 206.851C225.34 208.518 225.859 209.878 226.915 210.893C227.953 211.908 229.26 212.426 230.797 212.426C231.796 212.426 232.68 212.215 233.468 211.813C234.256 211.41 234.832 210.874 235.236 210.223C235.639 209.571 235.928 208.843 236.12 208.077C236.312 207.311 236.312 206.506 236.12 205.721C235.928 204.936 235.639 204.208 235.236 203.556C234.832 202.905 234.256 202.369 233.468 201.966C232.68 201.564 231.796 201.353 230.797 201.353V201.315Z" fill="#BF4430"/>
        <path d="M244.498 198.499H247.764L247.995 200.702C248.975 198.978 250.608 198.116 252.933 198.116C254.643 198.116 256.027 198.595 257.084 199.533L255.489 202.579C254.643 201.909 253.663 201.564 252.53 201.564C251.242 201.564 250.166 201.966 249.302 202.752C248.437 203.537 248.014 204.667 248.014 206.142V215.203H244.517V198.48L244.498 198.499Z" fill="#BF4430"/>
        <path d="M261.35 194.055L264.885 193.691V198.537H269.785V201.564H264.847V209.533C264.847 211.372 265.654 212.272 267.268 212.272C267.921 212.272 268.632 212.081 269.42 211.698L270.439 214.686C269.305 215.184 268.19 215.433 267.076 215.433C265.231 215.472 263.828 214.993 262.829 213.996C261.849 213 261.35 211.506 261.35 209.533V201.564H258.121V198.537H261.35V194.055Z" fill="#BF4430"/>
        <path d="M274.013 195.491C273.282 195.127 272.917 194.476 272.917 193.576C272.917 192.675 273.282 192.043 274.013 191.679C274.743 191.315 275.473 191.315 276.184 191.679C276.895 192.043 277.279 192.675 277.279 193.576C277.279 194.476 276.914 195.127 276.184 195.491C275.454 195.855 274.724 195.855 274.013 195.491ZM276.837 198.422H273.34V215.222H276.837V198.422Z" fill="#BF4430"/>
        <path d="M297.84 208.173H284.235C284.389 209.437 284.965 210.453 285.945 211.219C286.925 211.985 288.194 212.368 289.712 212.368C290.615 212.368 291.537 212.196 292.44 211.87C293.363 211.544 294.074 211.104 294.573 210.567L296.86 212.77C296.014 213.671 294.938 214.38 293.651 214.878C292.344 215.376 291.018 215.625 289.654 215.625C286.906 215.625 284.716 214.82 283.063 213.211C281.411 211.602 280.604 209.456 280.604 206.775C280.604 204.093 281.43 202.12 283.063 200.491C284.696 198.863 286.81 198.039 289.423 198.039C292.229 198.039 294.419 198.901 295.995 200.625C297.571 202.349 298.186 204.859 297.859 208.154L297.84 208.173ZM284.293 205.204H294.458C294.362 203.92 293.881 202.924 292.978 202.215C292.075 201.506 290.922 201.162 289.481 201.162C288.155 201.162 287.041 201.506 286.099 202.215C285.158 202.924 284.543 203.92 284.274 205.204H284.293Z" fill="#BF4430"/>
        <path d="M301.395 198.499H304.661L304.892 200.702C305.872 198.978 307.505 198.116 309.83 198.116C311.54 198.116 312.924 198.595 313.981 199.533L312.386 202.579C311.54 201.909 310.56 201.564 309.427 201.564C308.139 201.564 307.063 201.966 306.199 202.752C305.334 203.537 304.911 204.667 304.911 206.142V215.203H301.414V198.48L301.395 198.499Z" fill="#BF4430"/>
        <path d="M103.264 153.884H109.74L109.663 142.524C109.663 142.524 109.663 133.348 117.945 133.348C125.189 133.348 126.169 142.16 126.169 142.16V153.884H132.568V102.008H103.264V153.884ZM114.313 108.157H121.519V120.954H114.313V108.157Z" fill="#E69973"/>
        <path d="M56.6664 96.9315V158.922H99.4208V96.9315H56.6664ZM86.5849 117.544H81.2238V109.402H86.5849V117.544Z" fill="#EBCCBC"/>
        <path d="M248.149 87.8514H233.833L235.255 80.7444H178.204V87.8514V88.1196V97.2955H246.112L248.149 87.8514Z" fill="#BF4430"/>
        <path d="M162.928 46.5692H154.877V35.0945C154.877 35.0945 155.03 31.0717 158.912 31.1483C162.409 31.2058 162.947 35.0945 162.947 35.0945V46.5692H162.928Z" fill="#EBCCBC"/>
        <path d="M177.513 100.016L173.996 98.5024L159.335 92.2L154.723 94.0964L136.084 101.816V159.688H180.856V107.468L180.914 104.556V103.636L180.971 101.491L177.513 100.016ZM165.407 149.286L151.649 149.229V128.789C151.649 128.789 153.032 122.505 158.259 122.505C164.408 122.505 165.407 128.77 165.407 128.77V149.286Z" fill="#BF4430"/>
        <path d="M176.494 55.975H174.611V96.1078L164.427 91.6443V69.3079H164.235C164.235 70.3998 163.889 71.4151 163.312 72.2389C162.39 73.5607 160.833 74.4227 159.085 74.4227C157.336 74.4227 155.799 73.5607 154.877 72.2389C154.281 71.4151 153.954 70.3807 153.954 69.3079H153.743V78.2348V91.6443L143.559 96.1078V55.975H141.676L146.883 50.1707H170.941L176.494 55.975Z" fill="#E69973"/>
        <path d="M193.423 104.441H187.658V127.007H193.423V104.441Z" fill="#E69973"/>
        <path d="M207.566 104.441H201.801V127.007H207.566V104.441Z" fill="#E69973"/>
        <path d="M235.947 104.403H230.182V126.969H235.947V104.403Z" fill="#E69973"/>
        <path d="M221.766 104.403H216.001V126.969H221.766V104.403Z" fill="#E69973"/>
        <path d="M200.494 131.317H194.73V153.884H200.494V131.317Z" fill="#E69973"/>
        <path d="M214.656 131.317H208.891V153.884H214.656V131.317Z" fill="#E69973"/>
        <path d="M243.037 131.279H237.273V153.845H243.037V131.279Z" fill="#E69973"/>
        <path d="M228.837 131.279H223.072V153.845H228.837V131.279Z" fill="#E69973"/>
        <path d="M158.912 0L170.902 25.4014H146.902L158.912 0Z" fill="#BF4430"/>
        <path d="M102.438 82.9856H53.6688V94.4795H102.438V82.9856Z" fill="#E69973"/>
        <path d="M140.6 80.5336V72.4496H91.0045L79.3983 80.5336H140.58H140.6Z" fill="#BF4430"/>
        <path d="M125.977 84.6906H119.981V96.9124H125.977V84.6906Z" fill="#EBCCBC"/>
        <path d="M115.081 84.6906H109.086V96.9124H115.081V84.6906Z" fill="#EBCCBC"/>
    </g>
    <defs>
        <clipPath id="clip0_216_7">
            <rect width="314" height="223" fill="white"/>
        </clipPath>
    </defs>
</svg>
    