<svg width="80" height="50" viewBox="0 0 80 50" fill="none" xmlns="http://www.w3.org/2000/svg">
<path d="M65.394 20.7052C65.4356 20.3149 65.4564 19.9247 65.4564 19.5138C65.4564 11.0099 57.8621 4.10818 48.4785 4.10818C47.6462 4.10818 46.8141 4.19034 46.0235 4.29305C42.9441 1.64327 38.6787 0 33.9349 0C24.5721 0 19.5578 4.56008 16.8114 12.0164C16.0623 14.0294 16.0417 17.9938 17.186 19.9247C16.2081 19.7603 12.5252 20.356 11.5057 20.5614C6.24169 21.6706 0 26.9702 0 34.9195C0 42.8688 3.82826 47.0386 13.1703 49.1133C15.8127 49.6884 21.035 48.6819 23.2821 47.5727C38.5955 53.7555 52.4733 46.1759 52.4733 46.1759C55.3654 48.1273 59.0272 49.2981 63.022 49.2981C72.3848 49.2981 80 42.8688 80 34.9195C80 27.6686 73.6332 21.6706 65.394 20.7052Z" fill="#EDBDBF"/>
</svg>
