<svg width="108" height="49" viewBox="0 0 108 49" fill="none" xmlns="http://www.w3.org/2000/svg">
<g clip-path="url(#clip0_211_73)">
<path d="M104.701 0.0936348L106.649 34.4941L97.9982 43.5422L3.299 48.9064L0.867188 5.97522L104.701 0.0936348Z" fill="#FFDB00"/>
<path d="M17.5226 31.522L17.2623 38.1145L14.0695 38.2953L15.6594 12.7003L20.2537 12.44L24.7879 37.6882L21.4618 37.8766L20.4588 31.3556L17.5275 31.5217L17.5226 31.522ZM18.1072 15.8853L17.5992 28.7661L20.0616 28.6266L18.1023 15.8856L18.1072 15.8853Z" fill="#009E49"/>
<path d="M24.7393 12.1859L32.1267 11.7675L34.2391 13.6629L34.8377 24.2321L33.1763 26.1025L35.802 37.0593L32.7078 37.2346L30.1299 26.5089L28.763 26.5863L29.3768 37.4232L26.184 37.6041L24.7442 12.1856L24.7393 12.1859ZM31.573 23.1432L31.1221 15.1829L30.418 14.5511L28.0887 14.683L28.6155 23.9825L30.9447 23.8505L31.573 23.1432Z" fill="#009E49"/>
<path d="M36.2676 13.548L38.1524 11.4262L43.0774 11.1472L45.1897 13.0427L45.5137 18.7612L42.3208 18.942L42.0728 14.5626L41.3686 13.9308L40.1695 13.9987L39.5412 14.706L40.5984 33.3694L41.3025 34.0012L42.5017 33.9333L43.1299 33.226L42.8836 28.8763L46.0764 28.6955L46.4023 34.4487L44.5175 36.5706L39.5925 36.8496L37.4801 34.9541L36.2676 13.548Z" fill="#009E49"/>
<path d="M50.7381 22.0228L54.0988 21.8325L53.4602 10.5591L56.653 10.3782L58.0931 35.8017L54.9003 35.9825L54.258 24.6446L50.8974 24.835L51.5397 36.1729L48.3468 36.3537L46.9067 10.9303L50.0996 10.7494L50.7381 22.0228Z" fill="#009E49"/>
<path d="M58.854 10.2535L62.0468 10.0727L63.4869 35.4961L60.2941 35.677L58.854 10.2535Z" fill="#009E49"/>
<path d="M67.7802 35.2529L63.4434 9.99359L66.572 9.81637L69.8608 31.3437L70.6975 9.58268L73.693 9.41301L72.2363 35.0005L67.7753 35.2532L67.7802 35.2529Z" fill="#009E49"/>
<path d="M75.0943 9.33358L82.9801 8.88689L83.1355 11.6296L78.4425 11.8954L78.9201 20.3269L83.011 20.0952L83.1664 22.8379L79.0754 23.0696L79.5719 31.8334L84.329 31.564L84.4844 34.3067L76.5294 34.7573L75.0894 9.33386L75.0943 9.33358Z" fill="#009E49"/>
<path d="M90.1919 11.8369L89.4878 11.2051L88.3232 11.2711L87.6949 11.9784L88.1003 19.1352L88.8044 19.7671L91.9331 19.5898L94.0455 21.4853L94.6254 31.7221L92.7405 33.844L87.6824 34.1305L85.57 32.2351L85.2688 26.9183L88.4616 26.7374L88.6872 30.7201L89.3914 31.3519L90.7238 31.2764L91.352 30.5691L90.9275 23.075L90.2234 22.4432L87.0947 22.6204L84.9823 20.7249L84.4216 10.8254L86.3064 8.70347L91.1968 8.42646L93.3092 10.3219L93.6123 15.6734L90.4195 15.8543L90.1922 11.8419L90.1919 11.8369Z" fill="#009E49"/>
<path d="M106.649 34.4941L98.1506 34.3486L97.9981 43.5422L106.649 34.4941Z" fill="white"/>
</g>
<defs>
<clipPath id="clip0_211_73">
<rect width="104" height="43" fill="white" transform="translate(0.867188 5.97522) rotate(-3.24202)"/>
</clipPath>
</defs>
</svg>
