<svg width="26" height="23" viewBox="0 0 26 23" fill="none" xmlns="http://www.w3.org/2000/svg">
<g clip-path="url(#clip0_249_22)">
<path d="M26.0002 17.25C26.0002 17.9278 25.6958 18.5778 25.154 19.0571C24.6123 19.5363 23.8775 19.8056 23.1113 19.8056H17.3335V3.19444H23.1113C23.8775 3.19444 24.6123 3.46369 25.154 3.94295C25.6958 4.42221 26.0002 5.07222 26.0002 5.75V17.25Z" fill="#ED2939"/>
<path d="M2.88889 3.19444C2.12271 3.19444 1.38791 3.46369 0.846136 3.94295C0.304364 4.42221 0 5.07222 0 5.75L0 17.25C0 17.9278 0.304364 18.5778 0.846136 19.0571C1.38791 19.5363 2.12271 19.8056 2.88889 19.8056H8.66667V3.19444H2.88889Z" fill="#002495"/>
<path d="M8.6665 3.19444H17.3332V19.8056H8.6665V3.19444Z" fill="#EEEEEE"/>
</g>
<defs>
<clipPath id="clip0_249_22">
<rect width="26" height="23" fill="white"/>
</clipPath>
</defs>
</svg>
