<svg width="26" height="23" viewBox="0 0 26 23" fill="none" xmlns="http://www.w3.org/2000/svg">
<g clip-path="url(#clip0_656_8)">
<path d="M26.0002 17.25C26.0002 17.9278 25.6958 18.5778 25.154 19.0571C24.6123 19.5363 23.8775 19.8056 23.1113 19.8056H17.3335V3.19446H23.1113C23.8775 3.19446 24.6123 3.4637 25.154 3.94296C25.6958 4.42222 26.0002 5.07224 26.0002 5.75001V17.25Z" fill="#CE1126"/>
<path d="M2.88889 3.19446C2.12271 3.19446 1.38791 3.4637 0.846136 3.94296C0.304364 4.42222 0 5.07224 0 5.75001L0 17.25C0 17.9278 0.304364 18.5778 0.846136 19.0571C1.38791 19.5363 2.12271 19.8056 2.88889 19.8056H8.66667V3.19446H2.88889Z" fill="#14B53A"/>
<path d="M8.6665 3.19446H17.3332V19.8056H8.6665V3.19446Z" fill="#FCD116"/>
</g>
<defs>
<clipPath id="clip0_656_8">
<rect width="26" height="23" fill="white"/>
</clipPath>
</defs>
</svg>
