<svg width="64" height="64" viewBox="0 0 64 64" fill="none" xmlns="http://www.w3.org/2000/svg">
<path d="M64 43C64 49.075 60.627 54 54 54H10C3.373 54 0 49.075 0 43V21C0 14.925 3.373 10 10 10H54C60.627 10 64 14.925 64 21V43Z" fill="#128807"/>
<path d="M57.1402 32.79L32.1502 50.35L7.15918 32.79L32.1502 15.23L57.1402 32.79Z" fill="#F9CB38"/>
<path fill-rule="evenodd" clip-rule="evenodd" d="M42.01 35.848C40.872 39.715 37.311 42.659 33.279 43.059C27.892 43.598 23.179 40.174 22.033 34.881C21.6939 33.3255 21.7372 31.7111 22.159 30.176C22.316 30.006 22.533 29.965 22.749 29.935C24.3246 29.7162 25.9173 29.6469 27.506 29.728C29.201 29.824 30.882 30.059 32.516 30.521C34.193 30.996 35.817 31.616 37.35 32.44C38.5037 33.0529 39.6056 33.7586 40.645 34.55C40.997 34.823 41.356 35.091 41.694 35.382C41.845 35.512 41.964 35.652 42.01 35.848Z" fill="#002776"/>
<path fill-rule="evenodd" clip-rule="evenodd" d="M22.7241 28.611C24.0151 25.726 26.1921 23.805 29.2011 22.903C35.2611 21.086 41.4781 25.091 42.3791 31.337C42.5191 32.302 42.5251 33.27 42.3771 34.237C42.2241 34.294 42.1101 34.213 42.0051 34.126C40.9069 33.2285 39.7351 32.425 38.5021 31.724C37.5528 31.1852 36.5663 30.7147 35.5501 30.316C35.3701 30.245 35.1441 30.208 35.0821 29.967C35.1471 29.851 35.2291 29.75 35.3271 29.656C35.3621 29.62 35.4131 29.585 35.3661 29.525C35.3501 29.506 35.3171 29.506 35.2891 29.509C35.2141 29.517 35.2241 29.569 35.2271 29.624C35.2331 29.803 35.1291 29.918 34.9921 30.01C34.7491 30.065 34.5161 29.992 34.3191 29.887C33.7551 29.591 33.1311 29.49 32.5341 29.325C31.6031 29.072 30.6471 28.929 29.6931 28.78C28.9317 28.6584 28.1653 28.571 27.3961 28.518C26.6961 28.469 25.9831 28.476 25.2781 28.524C24.5091 28.578 23.7381 28.632 22.9731 28.724C22.9252 28.731 22.8762 28.7241 22.832 28.704C22.7879 28.684 22.7504 28.6517 22.7241 28.611Z" fill="#002776"/>
<path fill-rule="evenodd" clip-rule="evenodd" d="M35.0902 29.905C35.0862 30.027 35.1952 30.011 35.2612 30.037C37.8436 31.0416 40.245 32.4601 42.3712 34.237C42.3098 34.7856 42.1884 35.3259 42.0092 35.848C40.7582 34.81 39.4772 33.821 38.0602 33.013C33.5812 30.462 28.7852 29.451 23.6582 29.993C23.1582 30.044 22.6582 30.112 22.1582 30.173C22.2872 29.632 22.4512 29.101 22.7202 28.609C26.4632 28.104 30.1412 28.391 33.7502 29.508C34.1982 29.647 34.6252 29.871 35.1032 29.913L35.0902 29.902" fill="#FEFEFE"/>
<path fill-rule="evenodd" clip-rule="evenodd" d="M39.75 36.35C39.449 36.318 39.776 36.687 39.472 36.679C39.207 36.675 39.193 36.463 39.063 36.345C39.163 36.241 39.34 36.22 39.396 36.058C39.434 36.229 39.595 36.265 39.75 36.35Z" fill="#D9DFEA"/>
<path fill-rule="evenodd" clip-rule="evenodd" d="M28.3941 38.2C28.1111 38.233 28.3481 38.541 28.1111 38.546C27.8721 38.551 27.7491 38.374 27.7011 38.191C27.6841 38.139 27.9141 38.023 28.0271 37.937C28.0411 38.118 28.2291 38.11 28.3941 38.2Z" fill="#E9ECF3"/>
<path fill-rule="evenodd" clip-rule="evenodd" d="M32.14 37.643C31.747 37.897 32.064 37.323 31.833 37.379C31.908 37.259 32.12 37.287 32.134 37.103C32.234 37.207 32.319 37.327 32.478 37.349C32.251 37.318 32.498 37.822 32.14 37.643Z" fill="#EDEFF5"/>
<path fill-rule="evenodd" clip-rule="evenodd" d="M24.0198 30.905C23.9258 31.084 23.8548 31.284 23.5698 31.164C23.4238 31.103 23.5798 30.903 23.4048 30.884L23.7288 30.599C23.7508 30.646 23.7768 30.691 23.7988 30.738C23.8248 30.857 24.0618 30.699 24.0198 30.905Z" fill="#F0F2F6"/>
<path fill-rule="evenodd" clip-rule="evenodd" d="M24.9269 35.25C24.7779 35.297 24.8849 35.689 24.5649 35.518C24.5329 35.502 24.3929 35.579 24.4189 35.534C24.5029 35.37 24.3149 35.29 24.3439 35.159C24.5189 35.235 24.5089 34.915 24.6879 35.001C24.7009 35.011 24.7009 35.051 24.7099 35.077C24.7289 35.201 24.9709 35.046 24.9269 35.25Z" fill="#ECEFF4"/>
<path fill-rule="evenodd" clip-rule="evenodd" d="M23.3541 36.408C23.0471 36.515 23.2761 36.144 23.1001 36.147C23.1821 36.078 23.2741 35.949 23.3561 35.954C23.4541 35.959 23.5441 36.08 23.6341 36.149C23.5001 36.194 23.6411 36.557 23.3541 36.408Z" fill="#D9DFEA"/>
<path fill-rule="evenodd" clip-rule="evenodd" d="M35.22 39.947C34.895 40.095 35.2109 39.658 34.9939 39.715C34.9719 39.548 35.2429 39.649 35.2089 39.473L35.5019 39.708C35.3829 39.762 35.502 40.102 35.22 39.947Z" fill="#D8DEEA"/>
<path fill-rule="evenodd" clip-rule="evenodd" d="M37.2998 39.706C37.0308 39.818 37.1958 39.456 37.0508 39.42C37.1488 39.357 37.2518 39.29 37.3478 39.225C37.3558 39.373 37.5588 39.319 37.5808 39.45C37.4298 39.459 37.5868 39.785 37.2998 39.706ZM39.1698 38.36C38.8638 38.515 39.0898 38.108 38.9148 38.125C38.9498 37.995 39.1508 38.044 39.1628 37.894L39.4498 38.109C39.2748 38.104 39.4898 38.533 39.1698 38.36Z" fill="#DCE1EC"/>
<path fill-rule="evenodd" clip-rule="evenodd" d="M26.7829 36.493C26.4629 36.674 26.6719 36.269 26.5239 36.261C26.5389 36.112 26.7649 36.176 26.7749 36.018C26.8049 36.164 26.9989 36.122 27.0409 36.253C26.8499 36.225 27.1219 36.684 26.7829 36.493Z" fill="#D4DAE7"/>
<path fill-rule="evenodd" clip-rule="evenodd" d="M28.0802 33.455C27.8992 33.443 28.1312 33.158 27.9092 33.176C27.9472 33.016 28.1182 33.049 28.2122 32.966C28.2602 33.067 28.3962 33.09 28.4032 33.235C28.4192 33.5 28.1842 33.363 28.0802 33.455Z" fill="#F2F4F7"/>
<path fill-rule="evenodd" clip-rule="evenodd" d="M33.3498 35.567C33.0728 35.726 33.2188 35.371 33.0908 35.332C33.1778 35.26 33.2618 35.187 33.3498 35.113C33.3558 35.261 33.6388 35.228 33.5588 35.342C33.5108 35.41 33.6658 35.721 33.3498 35.567Z" fill="#E6E9F1"/>
<path fill-rule="evenodd" clip-rule="evenodd" d="M32.11 34.676C31.794 34.708 32.12 34.421 31.915 34.428C31.995 34.353 32.072 34.225 32.162 34.217C32.24 34.209 32.33 34.336 32.415 34.406C32.304 34.513 32.321 34.789 32.11 34.676Z" fill="#EAEDF3"/>
<path fill-rule="evenodd" clip-rule="evenodd" d="M39.7821 37.01C39.8471 37.182 39.9751 37.205 40.0751 37.266C39.9731 37.381 39.9331 37.557 39.7211 37.557C39.5041 37.559 39.6511 37.394 39.6021 37.317C39.4811 37.125 39.9281 37.287 39.7821 37.01Z" fill="#E4E8F0"/>
<path fill-rule="evenodd" clip-rule="evenodd" d="M37.5178 40.494C37.4418 40.607 37.4938 40.715 37.2918 40.719C37.0608 40.723 37.1348 40.554 37.1248 40.502C37.1058 40.416 37.2378 40.334 37.3138 40.351C37.3798 40.363 37.5078 40.4 37.5178 40.494Z" fill="#CED5E4"/>
<path fill-rule="evenodd" clip-rule="evenodd" d="M26.714 37.29C26.549 37.309 26.686 37.525 26.477 37.518C26.286 37.512 26.314 37.383 26.293 37.305C26.26 37.196 26.421 37.199 26.457 37.117C26.533 37.17 26.61 37.223 26.714 37.29Z" fill="#DAE0EB"/>
<path fill-rule="evenodd" clip-rule="evenodd" d="M37.0698 38.432C37.1408 38.379 37.2118 38.33 37.2868 38.28C37.2928 38.391 37.5318 38.327 37.4518 38.469C37.4188 38.526 37.4998 38.682 37.2928 38.668C37.1068 38.655 37.1508 38.525 37.0698 38.432Z" fill="#D8DEE9"/>
<path fill-rule="evenodd" clip-rule="evenodd" d="M36.3101 38.775C36.2741 38.972 36.1621 39.004 36.0391 39.027C35.8301 39.062 35.9871 38.905 35.9531 38.845C35.8651 38.695 36.0871 38.724 36.1131 38.626C36.1711 38.702 36.3041 38.7 36.3101 38.775Z" fill="#CBD2E3"/>
<path fill-rule="evenodd" clip-rule="evenodd" d="M35.1401 32.29C35.0701 32.323 35.1631 32.49 35.0131 32.442C34.8991 32.403 34.7591 32.349 34.7691 32.209C34.7731 32.155 34.9091 32.11 34.9851 32.063C34.9981 32.164 35.2141 32.131 35.1401 32.29Z" fill="#D1D8E6"/>
<path fill-rule="evenodd" clip-rule="evenodd" d="M40.7989 36.676C40.6109 36.75 40.6959 36.595 40.6629 36.55C40.5369 36.379 40.7859 36.404 40.7989 36.302C40.8759 36.353 41.0259 36.411 41.0199 36.455C41.0156 36.5122 40.9909 36.5659 40.9503 36.6064C40.9098 36.6469 40.8561 36.6716 40.7989 36.676Z" fill="#DADFEA"/>
<path fill-rule="evenodd" clip-rule="evenodd" d="M31.1302 35.15C31.1302 35.266 31.3642 35.22 31.2852 35.365C31.2532 35.424 31.3212 35.582 31.1592 35.549C31.0362 35.524 30.9122 35.452 30.9082 35.33C30.9082 35.273 31.0502 35.212 31.1302 35.15Z" fill="#CAD2E2"/>
<path fill-rule="evenodd" clip-rule="evenodd" d="M34.3301 38.768C34.2381 38.725 34.2341 38.604 34.2401 38.546C34.2501 38.469 34.3531 38.365 34.4411 38.407C34.4951 38.433 34.6481 38.418 34.6111 38.558C34.5771 38.692 34.4431 38.711 34.3301 38.768Z" fill="#D0D7E5"/>
<path fill-rule="evenodd" clip-rule="evenodd" d="M38.2002 38.592C38.2042 38.591 38.2742 38.494 38.3532 38.492C38.4102 38.49 38.4682 38.608 38.5292 38.674C38.4472 38.697 38.5172 38.848 38.3552 38.846C38.2092 38.843 38.2092 38.777 38.2002 38.592Z" fill="#EFF2F6"/>
<path fill-rule="evenodd" clip-rule="evenodd" d="M31.7661 36.06C31.7391 36.168 31.7391 36.235 31.6431 36.233C31.5451 36.231 31.4971 36.195 31.4991 36.095C31.4991 36.016 31.5511 35.961 31.6101 35.966C31.6781 35.971 31.7751 35.99 31.7661 36.06Z" fill="#CCD4E3"/>
<path fill-rule="evenodd" clip-rule="evenodd" d="M25.634 34.504C25.682 34.556 25.7369 34.597 25.7579 34.65C25.7759 34.694 25.748 34.761 25.686 34.768C25.617 34.774 25.5429 34.772 25.5209 34.686C25.5009 34.602 25.574 34.572 25.634 34.504Z" fill="#E0E5EE"/>
<path fill-rule="evenodd" clip-rule="evenodd" d="M24.927 35.25C24.9 35.135 24.722 35.208 24.71 35.076C24.748 35.176 25.045 34.953 24.927 35.25Z" fill="#7085B1"/>
<path fill-rule="evenodd" clip-rule="evenodd" d="M24.0198 30.905C23.9978 30.782 23.8088 30.879 23.7988 30.738C23.8518 30.822 24.1198 30.623 24.0198 30.905Z" fill="#5C75A7"/>
<path fill-rule="evenodd" clip-rule="evenodd" d="M35.1098 29.916C35.1288 29.84 35.1898 29.716 35.1658 29.693C34.8398 29.403 35.2748 29.354 35.3398 29.295C35.4588 29.18 35.4398 29.665 35.7538 29.358C35.5848 29.733 35.3588 29.841 35.0988 29.905L35.1098 29.916Z" fill="#E7EAF2"/>
<path fill-rule="evenodd" clip-rule="evenodd" d="M25.4709 29.605C25.1529 29.574 25.4359 29.16 25.3669 28.92C25.2809 28.61 25.5069 28.614 25.7269 28.613C26.0679 28.611 26.2609 28.755 26.2609 29.115C26.2599 29.469 26.0959 29.609 25.4709 29.605Z" fill="#15A24A"/>
<path fill-rule="evenodd" clip-rule="evenodd" d="M37.6208 31.603C37.5508 31.817 37.2918 31.951 37.2478 32.215C37.2438 32.25 37.1438 32.243 37.1248 32.141C37.0448 31.663 37.0408 31.664 36.6878 31.92C36.6598 31.941 36.6108 31.96 36.5838 31.951C36.5318 31.928 36.5108 31.876 36.5418 31.817C36.6588 31.589 36.7688 31.355 36.8998 31.134C36.9878 30.988 37.0948 31.11 37.1808 31.152C37.3698 31.245 37.6028 31.298 37.6208 31.603Z" fill="#13A248"/>
<path fill-rule="evenodd" clip-rule="evenodd" d="M38.516 32.381C38.332 32.455 38.243 32.316 38.125 32.266C38.045 32.232 37.97 32.2 37.916 32.289C37.857 32.383 37.916 32.437 37.997 32.479C38.059 32.51 38.125 32.534 38.171 32.583C38.252 32.668 38.506 32.645 38.403 32.826C38.322 32.97 38.186 32.802 38.096 32.749C37.941 32.654 37.634 32.602 37.667 32.437C37.718 32.172 37.869 31.884 38.07 31.702C38.231 31.556 38.409 31.832 38.59 31.901C38.668 31.93 38.801 31.956 38.778 32.079C38.756 32.206 38.662 32.132 38.59 32.115C38.421 32.076 38.257 31.79 38.124 31.988C38.044 32.106 38.373 32.155 38.477 32.285C38.493 32.304 38.497 32.33 38.516 32.381ZM40.671 33.795C40.701 34.029 40.606 34.188 40.361 34.148C40.107 34.106 39.914 33.951 39.87 33.673C39.866 33.645 39.9 33.588 39.928 33.58C39.9441 33.5747 39.9612 33.573 39.978 33.5751C39.9949 33.5771 40.0111 33.5828 40.0255 33.5917C40.0399 33.6007 40.0521 33.6127 40.0614 33.6269C40.0706 33.6411 40.0766 33.6572 40.079 33.674C40.111 33.865 40.211 33.95 40.412 33.954C40.451 33.641 39.886 33.498 40.211 33.173C40.374 33.01 40.573 33.145 40.715 33.276C40.846 33.395 41.006 33.526 40.767 33.696C40.733 33.678 40.687 33.649 40.662 33.669C40.611 33.703 40.661 33.752 40.671 33.795Z" fill="#11A147"/>
<path fill-rule="evenodd" clip-rule="evenodd" d="M33.764 30.817C33.645 30.75 33.651 30.686 33.67 30.616C33.708 30.467 33.631 30.389 33.495 30.347C33.359 30.303 33.254 30.309 33.217 30.479C33.204 30.555 33.164 30.608 33.081 30.58C32.985 30.545 33.033 30.467 33.051 30.41C33.089 30.279 33.123 30.147 33.183 30.022C33.237 29.897 33.199 29.668 33.396 29.683C33.605 29.698 33.831 29.748 33.99 29.921C34.061 29.997 34.09 30.128 34.032 30.185C33.863 30.359 33.877 30.605 33.764 30.817Z" fill="#0FA046"/>
<path fill-rule="evenodd" clip-rule="evenodd" d="M27.5931 29.544C27.2701 29.666 27.0151 29.595 26.7661 29.6C26.6531 29.603 26.6431 29.518 26.6431 29.432C26.6511 29.337 26.6511 29.241 26.6511 29.146C26.6631 28.619 26.8501 28.484 27.3681 28.631C27.4261 28.647 27.4811 28.657 27.4851 28.722C27.4851 28.812 27.4201 28.828 27.3401 28.826C27.3291 28.824 27.3161 28.821 27.3021 28.823C27.1471 28.861 26.8691 28.686 26.8641 28.918C26.8581 29.096 27.1611 28.97 27.3161 29.03C27.3381 29.039 27.3621 29.059 27.3961 29.084C27.2981 29.261 27.1351 29.162 27.0091 29.183C26.9341 29.195 26.8361 29.162 26.8251 29.284C26.8111 29.428 26.9111 29.421 27.0091 29.431C27.1761 29.451 27.3571 29.388 27.5931 29.544Z" fill="#0B9F43"/>
<path fill-rule="evenodd" clip-rule="evenodd" d="M24.9379 29.62C24.7639 29.582 24.7879 29.482 24.7579 29.412C24.7059 29.283 24.6029 29.283 24.4899 29.292C24.3609 29.304 24.2909 29.354 24.3019 29.497C24.3099 29.567 24.3379 29.68 24.2079 29.664C24.0959 29.65 24.1279 29.541 24.1219 29.467C24.1119 29.346 24.0999 29.222 24.1119 29.102C24.1279 28.968 23.9999 28.763 24.1929 28.715C24.3919 28.663 24.6219 28.626 24.8289 28.725C24.9189 28.768 24.9899 28.873 24.9569 28.958C24.8809 29.172 24.9409 29.389 24.9379 29.62Z" fill="#079D3F"/>
<path fill-rule="evenodd" clip-rule="evenodd" d="M22.8271 29.28C22.8591 29.009 22.9781 28.789 23.2751 28.799C23.5601 28.808 23.7121 29.006 23.7121 29.291C23.7121 29.574 23.5801 29.769 23.2791 29.767C22.9731 29.765 22.8691 29.543 22.8271 29.28Z" fill="#15A24A"/>
<path fill-rule="evenodd" clip-rule="evenodd" d="M41.8641 34.36C41.8361 34.629 41.7031 34.832 41.3961 34.859C41.1131 34.882 40.9631 34.72 40.9411 34.454C40.9161 34.185 41.1801 33.928 41.4491 33.93C41.6851 33.932 41.8581 34.103 41.8641 34.36Z" fill="#11A147"/>
<path fill-rule="evenodd" clip-rule="evenodd" d="M36.2499 31.23C36.4759 31.412 36.2019 31.532 36.1919 31.685C36.0039 31.598 35.7689 31.633 35.6169 31.468C35.4549 31.292 35.4849 31.093 35.5909 30.899C35.7079 30.694 35.8879 30.606 36.1089 30.684C36.3109 30.756 36.4619 30.892 36.3639 31.148C36.2089 31.176 36.0819 30.972 35.8639 31.109C36.0089 31.176 36.1829 31.083 36.2499 31.23Z" fill="#0C9F43"/>
<path fill-rule="evenodd" clip-rule="evenodd" d="M30.8101 29.17C30.6781 29.325 30.5811 29.265 30.4901 29.267C30.4021 29.267 30.3081 29.194 30.1991 29.285C30.2971 29.445 30.5341 29.342 30.6261 29.501C30.6131 29.524 30.6071 29.555 30.5901 29.571C30.4581 29.675 30.2471 29.423 30.1651 29.631C30.0901 29.81 30.2871 29.748 30.3721 29.778C30.4681 29.816 30.5871 29.802 30.7031 29.932C30.4341 30.05 30.1131 29.995 30.0021 29.865C29.8271 29.66 29.9501 29.296 30.0831 29.114C30.2401 28.899 30.5271 29.109 30.8101 29.17Z" fill="#19A44D"/>
<path fill-rule="evenodd" clip-rule="evenodd" d="M32.5152 30.04C32.2882 30.016 32.0302 29.856 31.9652 30.23C31.9632 30.242 31.8842 30.259 31.8602 30.243C31.8332 30.228 31.8182 30.172 31.8232 30.14C31.8822 29.903 31.9122 29.649 32.0172 29.436C32.1392 29.196 32.3462 29.399 32.5172 29.422C32.7212 29.449 32.8342 29.573 32.8122 29.788C32.7922 29.973 32.6522 30.023 32.5152 30.04Z" fill="#0D9F44"/>
<path fill-rule="evenodd" clip-rule="evenodd" d="M35.2201 30.613C35.1981 30.914 35.0501 31.122 34.7491 31.131C34.4801 31.141 34.3291 30.952 34.3351 30.684C34.3431 30.394 34.4841 30.184 34.7971 30.175C35.0841 30.165 35.1951 30.358 35.2201 30.613Z" fill="#0FA046"/>
<path fill-rule="evenodd" clip-rule="evenodd" d="M28.4788 29.527C28.4458 29.598 28.4188 29.699 28.3238 29.676C28.1588 29.637 28.2328 29.478 28.1928 29.374C28.0708 29.255 28.1028 29.419 28.0648 29.449C28.0508 29.523 28.0848 29.636 27.9848 29.651C27.8618 29.666 27.8908 29.548 27.8938 29.478C27.9038 29.332 27.9058 29.179 27.9458 29.039C27.9808 28.919 27.8538 28.698 28.0928 28.696C28.3038 28.695 28.2578 28.91 28.2848 29.039C28.3128 29.187 28.3278 29.25 28.4488 29.103C28.5738 29.07 28.5998 29.161 28.6288 29.249C28.6448 29.377 28.5878 29.466 28.4788 29.527Z" fill="#0EA044"/>
<path fill-rule="evenodd" clip-rule="evenodd" d="M39.1301 33.2C39.2041 33.2 39.2791 33.298 39.3511 33.214C39.4061 33.151 39.3571 33.089 39.3081 33.038C39.2721 32.999 39.2341 32.962 39.2001 32.92C39.0981 32.797 38.9551 32.679 39.0961 32.501C39.2241 32.338 39.3731 32.378 39.5211 32.481C39.5481 32.533 39.5391 32.583 39.5111 32.63C39.4021 32.801 39.6051 32.905 39.6011 33.051C39.6321 33.188 39.6521 33.326 39.5011 33.405C39.3131 33.505 39.1681 33.413 39.0301 33.293C39.0151 33.214 39.0441 33.175 39.1301 33.2Z" fill="#10A146"/>
<path fill-rule="evenodd" clip-rule="evenodd" d="M36.25 31.23C36.173 31.284 36.018 31.109 36.023 31.241C36.033 31.475 35.916 31.454 35.807 31.385C35.66 31.294 35.652 31.138 35.745 30.994C35.835 30.853 35.962 30.771 36.116 30.886C36.21 30.955 36.281 31.059 36.362 31.148L36.25 31.23Z" fill="#ECF7F0"/>
<path fill-rule="evenodd" clip-rule="evenodd" d="M28.5452 29.29C28.516 29.2282 28.4839 29.1678 28.4492 29.109C28.4842 29.02 28.5162 28.93 28.5582 28.844C28.5962 28.763 28.6622 28.718 28.7552 28.748C28.8592 28.783 28.8512 28.863 28.8452 28.947C28.8232 29.192 28.8032 29.436 28.7842 29.681C28.6382 29.774 28.6012 29.689 28.5772 29.563C28.5592 29.472 28.6062 29.374 28.5452 29.29Z" fill="#17A34C"/>
<path fill-rule="evenodd" clip-rule="evenodd" d="M39.6041 33.05C39.5141 32.958 39.4181 32.871 39.3341 32.773C39.2361 32.657 39.2741 32.586 39.4201 32.567C39.6311 32.614 39.7601 32.716 39.6981 32.958C39.6691 32.988 39.6371 33.02 39.6041 33.05Z" fill="#D7EFE0"/>
<path fill-rule="evenodd" clip-rule="evenodd" d="M39.6979 32.958C39.6009 32.832 39.5749 32.652 39.4199 32.567L39.5239 32.48C39.6919 32.599 39.9989 32.667 39.6979 32.958Z" fill="#2BAB5B"/>
<path fill-rule="evenodd" clip-rule="evenodd" d="M40.6712 33.795C40.6582 33.787 40.6412 33.783 40.6352 33.772C40.5552 33.624 40.2902 33.491 40.3802 33.36C40.4932 33.202 40.6112 33.389 40.6732 33.524C40.7012 33.581 40.7352 33.637 40.7672 33.696C40.7342 33.729 40.7012 33.762 40.6712 33.795Z" fill="#E6F5EC"/>
<path fill-rule="evenodd" clip-rule="evenodd" d="M39.1302 33.2C39.0982 33.231 39.0672 33.263 39.0302 33.294C38.9882 33.264 38.9302 33.243 38.9032 33.2C38.8522 33.103 38.7062 32.974 38.8752 32.898C39.0172 32.83 39.0172 33.011 39.0632 33.099C39.0822 33.136 39.1062 33.167 39.1302 33.2Z" fill="#29AA59"/>
<path fill-rule="evenodd" clip-rule="evenodd" d="M28.545 29.29C28.691 29.347 28.614 29.469 28.616 29.56C28.624 29.685 28.668 29.727 28.785 29.683C28.541 29.919 28.572 29.604 28.478 29.534C28.503 29.451 28.522 29.37 28.545 29.29Z" fill="#DDF1E4"/>
<path fill-rule="evenodd" clip-rule="evenodd" d="M28.0601 29.45V29.128C28.1981 29.172 28.2021 29.269 28.1881 29.375C28.1461 29.4 28.1021 29.424 28.0601 29.45Z" fill="#6FC690"/>
<path fill-rule="evenodd" clip-rule="evenodd" d="M25.5679 29.12C25.5819 28.974 25.5119 28.784 25.7609 28.8C25.9429 28.811 26.0749 28.884 26.0849 29.092C26.0949 29.316 25.9639 29.407 25.7569 29.422C25.4939 29.443 25.6009 29.236 25.5679 29.12Z" fill="#F5FBF7"/>
<path fill-rule="evenodd" clip-rule="evenodd" d="M37.1 31.32C37.204 31.377 37.363 31.388 37.397 31.542C37.414 31.622 37.345 31.675 37.274 31.652C37.142 31.612 36.967 31.61 36.949 31.424C36.944 31.37 37.002 31.302 37.1 31.32Z" fill="#EFF8F3"/>
<path fill-rule="evenodd" clip-rule="evenodd" d="M33.8571 30.09C33.8301 30.194 33.7571 30.23 33.6731 30.199C33.5601 30.158 33.3781 30.203 33.3761 30.005C33.3721 29.902 33.4421 29.871 33.5361 29.902C33.6601 29.942 33.8101 29.937 33.8571 30.09Z" fill="#DEF2E5"/>
<path fill-rule="evenodd" clip-rule="evenodd" d="M24.515 28.859C24.613 28.871 24.768 28.819 24.758 28.986C24.748 29.132 24.6 29.109 24.494 29.111C24.409 29.114 24.287 29.158 24.279 29.005C24.273 28.823 24.415 28.88 24.515 28.859Z" fill="#F3FAF5"/>
<path fill-rule="evenodd" clip-rule="evenodd" d="M23.2502 28.998C23.4312 29.01 23.5212 29.118 23.5282 29.288C23.5382 29.44 23.4632 29.57 23.3072 29.584C23.1272 29.601 23.0462 29.464 23.0362 29.297C23.0262 29.143 23.0862 29.031 23.2502 28.998Z" fill="#F3FAF6"/>
<path fill-rule="evenodd" clip-rule="evenodd" d="M41.6651 34.395C41.6391 34.561 41.5391 34.678 41.3461 34.678C41.1911 34.676 41.1331 34.563 41.1491 34.426C41.1641 34.24 41.2751 34.12 41.4641 34.123C41.6131 34.127 41.6711 34.234 41.6651 34.395Z" fill="#F9FCFA"/>
<path fill-rule="evenodd" clip-rule="evenodd" d="M32.2798 29.548C32.3808 29.61 32.5838 29.546 32.6128 29.746C32.6218 29.822 32.5378 29.861 32.4708 29.846C32.3398 29.817 32.1568 29.864 32.1408 29.653C32.1378 29.588 32.1668 29.518 32.2798 29.548Z" fill="#E7F5EC"/>
<path fill-rule="evenodd" clip-rule="evenodd" d="M35.0198 30.637C35.0008 30.81 34.9158 30.931 34.7408 30.931C34.5688 30.933 34.5078 30.813 34.5158 30.655C34.5298 30.481 34.6288 30.365 34.7978 30.358C34.9658 30.352 35.0198 30.486 35.0198 30.637Z" fill="#F5FBF7"/>
</svg>
