<svg width="64" height="64" viewBox="0 0 64 64" fill="none" xmlns="http://www.w3.org/2000/svg">
<path d="M0 23H64V42H0V23Z" fill="#E6E7E8"/>
<path d="M54 10H10C3.373 10 0 14.925 0 21V23H64V21C64 14.925 60.627 10 54 10ZM0 43C0 49.075 3.373 54 10 54H54C60.627 54 64 49.075 64 43V42H0V43Z" fill="#EC1C24"/>
<path d="M40.3902 37.28C40.0579 36.9598 39.6874 36.6817 39.2872 36.452C38.7142 36.119 38.1432 35.789 37.5712 35.454C37.2932 35.298 37.2852 34.956 37.5532 34.794C37.9162 34.57 38.2602 34.657 38.5922 34.867C38.8292 35.025 39.0762 35.143 39.3602 35.182C39.5032 35.2 39.6392 35.217 39.6922 35.043C39.7412 34.875 39.6762 34.724 39.5212 34.656C39.1802 34.5 38.9152 34.247 38.6462 33.994L38.0772 33.461C37.9093 33.2973 37.7096 33.1699 37.4905 33.0866C37.2713 33.0033 37.0374 32.966 36.8032 32.977C36.6372 32.979 36.5752 32.885 36.6412 32.737C36.6902 32.615 36.7852 32.52 36.9132 32.53C37.4652 32.59 38.0152 32.427 38.5732 32.514C38.7222 32.539 38.8712 32.469 38.9222 32.307C38.9812 32.134 38.8372 32.073 38.7142 32.022C38.6532 31.989 38.5872 31.978 38.5232 31.961C37.9322 31.819 37.3592 31.607 36.7592 31.506C36.6592 31.485 36.5862 31.428 36.5792 31.322C36.5672 31.197 36.6152 31.105 36.7252 31.058C36.8102 31.02 36.9012 30.99 36.9952 31.027C37.3502 31.172 37.7302 31.174 38.0972 31.23C38.2792 31.265 38.3772 31.144 38.3122 30.968C38.2903 30.9115 38.2555 30.8609 38.2105 30.8202C38.1655 30.7796 38.1116 30.7501 38.0532 30.734C37.7454 30.6246 37.4538 30.4743 37.1862 30.287C36.7945 30.0188 36.4148 29.7336 36.0482 29.432C35.6362 29.1 35.2732 28.713 34.7682 28.508C34.6392 28.453 34.5512 28.338 34.5982 28.188C34.6432 28.033 34.7742 27.977 34.9262 27.983C35.0962 27.985 35.2492 28.065 35.4052 28.128C35.7222 28.255 36.0462 28.35 36.3912 28.357C36.4722 28.359 36.5632 28.365 36.5912 28.264C36.6122 28.171 36.5272 28.136 36.4642 28.109C36.0512 27.948 35.7112 27.677 35.3682 27.41C35.2872 27.349 35.1312 27.297 35.1912 27.158C35.2522 27.025 35.4072 27.051 35.5292 27.046C35.5562 27.046 35.5892 27.057 35.6102 27.061C35.7142 27.093 35.8262 27.144 35.8792 26.998C35.9342 26.857 35.8902 26.734 35.7652 26.673C35.4382 26.511 35.1612 26.279 34.8542 26.088C34.4735 25.8374 34.0416 25.6751 33.5902 25.613C32.9722 25.524 32.4972 25.201 32.1732 24.668C32.0152 24.406 31.8912 24.134 31.7462 23.832C31.5222 24.193 31.2972 24.508 31.0162 24.779C31.0072 24.848 30.9632 24.883 30.8962 24.9C30.7722 24.991 30.6702 25.114 30.5432 25.211C30.3012 25.391 30.0742 25.59 29.8412 25.783C29.7632 25.842 29.7562 25.935 29.7862 26.015C29.8292 26.12 29.8982 26.015 29.9512 26.011C30.0076 26.0055 30.0644 26.0156 30.1155 26.0401C30.1666 26.0646 30.2101 26.1026 30.2412 26.15C30.3082 26.25 30.1932 26.304 30.1352 26.357C30.0092 26.485 29.8482 26.548 29.6942 26.627L29.5732 26.696C29.5382 26.716 29.4992 26.734 29.4642 26.751C29.4179 26.8023 29.3579 26.8391 29.2912 26.857C29.2572 26.877 29.2192 26.894 29.1862 26.913C29.0372 27.018 28.8822 27.122 28.7302 27.226C28.6782 27.451 28.7112 27.497 28.9352 27.492C29.0172 27.492 29.0872 27.504 29.1622 27.542C29.2802 27.603 29.3532 27.689 29.2882 27.811C29.2202 27.952 29.1212 28.08 28.9322 28.067L28.6522 28.106C28.5388 28.1438 28.4397 28.2153 28.3682 28.311C28.3032 28.418 28.2322 28.518 28.1692 28.621C28.1474 28.6617 28.1212 28.6999 28.0912 28.735C27.8792 28.993 27.5842 29.135 27.2892 29.28C27.1902 29.327 27.1012 29.378 27.0072 29.428C26.8272 29.493 26.6852 29.629 26.5202 29.717C26.4892 29.787 26.4292 29.809 26.3622 29.83C26.0942 30.008 26.0652 30.117 26.2092 30.309C26.3232 30.456 26.4752 30.402 26.6142 30.379C26.8282 30.351 27.0112 30.219 27.2302 30.191C27.3232 30.154 27.4082 30.142 27.4962 30.195C27.7762 30.353 27.8432 30.538 27.7692 30.961C27.7429 31.0859 27.6704 31.1963 27.5662 31.27C27.2902 31.573 26.9972 31.854 26.5872 31.963C26.3392 32.033 26.1082 32.116 25.9082 32.287C25.8212 32.377 25.7332 32.466 25.6402 32.557C25.4092 32.775 25.1832 32.993 24.9412 33.202C24.8792 33.253 24.8502 33.29 24.8502 33.372C24.8502 33.552 24.9412 33.651 25.1592 33.696C25.2392 33.696 25.3172 33.692 25.4012 33.69C25.4672 33.666 25.5332 33.635 25.6002 33.613C25.6782 33.567 25.7552 33.518 25.8362 33.474C25.8622 33.445 25.8932 33.405 25.9422 33.405C26.0312 33.32 26.1302 33.257 26.2392 33.202C26.4912 33.045 26.6072 33.056 26.8432 33.261C26.9282 33.298 26.9532 33.366 26.9612 33.451C27.0062 33.66 26.9322 33.824 26.7912 33.975C26.7702 34.043 26.7062 34.064 26.6412 34.089L26.1382 34.342C26.0776 34.375 26.0186 34.4107 25.9612 34.449C25.6512 34.615 25.3712 34.826 25.1092 35.056C25.0668 35.1307 24.9979 35.1868 24.9162 35.213C24.7702 35.357 24.6132 35.489 24.4782 35.644C24.2902 35.847 24.0942 36.025 23.8112 36.066C23.7422 36.125 23.6432 36.162 23.6722 36.285C23.7022 36.409 23.8072 36.449 23.9152 36.463C24.0182 36.475 24.1272 36.463 24.2342 36.459C24.3402 36.437 24.4482 36.409 24.5552 36.386C25.1442 36.226 25.6972 35.973 26.2392 35.699C26.3192 35.656 26.4002 35.61 26.4802 35.566C26.6382 35.461 26.8062 35.38 26.9912 35.332C27.0263 35.3118 27.0661 35.3012 27.1067 35.3012C27.1472 35.3012 27.187 35.3118 27.2222 35.332C27.2421 35.3389 27.2631 35.3426 27.2842 35.343C27.3872 35.358 27.4752 35.395 27.5172 35.498C27.5352 35.526 27.5522 35.549 27.5682 35.572C27.6272 35.644 27.6182 35.714 27.5682 35.781C27.5075 35.8929 27.422 35.9894 27.3182 36.063C27.1562 36.179 26.9712 36.245 26.8062 36.347C26.7606 36.3888 26.7019 36.4135 26.6402 36.417C26.6026 36.4359 26.5642 36.4533 26.5252 36.469C26.478 36.5068 26.4205 36.5295 26.3602 36.534C26.1112 36.624 25.8562 36.707 25.6032 36.792C25.542 36.8308 25.4724 36.8545 25.4002 36.861C25.1822 36.928 24.9662 37.014 24.7432 37.052C24.5972 37.08 24.5202 37.141 24.4722 37.265V37.461C24.5172 37.637 24.6702 37.611 24.7972 37.63H25.2352C25.3012 37.63 25.3632 37.623 25.4252 37.623C25.5048 37.5899 25.5919 37.5792 25.6772 37.592C25.8232 37.56 25.9722 37.528 26.1152 37.501C26.1913 37.4616 26.2747 37.4381 26.3602 37.432C26.4832 37.387 26.6032 37.344 26.7212 37.303C26.8102 37.246 26.9032 37.214 27.0052 37.185C27.1072 37.145 27.2112 37.1 27.3142 37.057C27.389 37.0007 27.476 36.9627 27.5682 36.946C27.623 36.8952 27.6928 36.8637 27.7672 36.856C27.8123 36.8156 27.869 36.7904 27.9292 36.784C28.0052 36.712 28.1172 36.7 28.2082 36.661C28.2945 36.6057 28.39 36.5664 28.4902 36.545C28.6272 36.483 28.7742 36.427 28.9302 36.462C29.0022 36.452 29.0722 36.448 29.1372 36.499L29.1572 36.495L29.1732 36.507C29.2603 36.5188 29.3408 36.5601 29.4012 36.624C29.6292 36.808 29.7752 37.038 29.8192 37.329C29.8492 37.407 29.8572 37.483 29.8192 37.56C29.7952 37.661 29.7912 37.767 29.7502 37.86C29.5292 38.321 29.2802 38.768 28.9262 39.151C28.8561 39.2865 28.7457 39.397 28.6102 39.467C28.5282 39.535 28.4432 39.604 28.3642 39.672C28.2862 39.7731 28.1737 39.8418 28.0482 39.865C27.9854 39.8992 27.9206 39.9295 27.8542 39.956C27.8076 39.9964 27.7496 40.0213 27.6882 40.027C27.6352 40.045 27.5842 40.065 27.5302 40.08L27.3692 40.148C27.3612 40.158 27.3492 40.162 27.3392 40.156C27.2652 40.2138 27.1778 40.252 27.0852 40.267C26.9862 40.335 26.8972 40.434 26.7862 40.47C26.6572 40.516 26.6942 40.611 26.7022 40.678C26.7082 40.749 26.7712 40.81 26.8422 40.825C26.9302 40.846 27.0012 40.804 27.0432 40.728C27.1912 40.469 27.4392 40.381 27.7192 40.346C27.7833 40.3135 27.8563 40.3026 27.9272 40.315C28.2392 40.297 28.5392 40.229 28.8322 40.147C28.9222 40.104 29.0062 40.067 29.0902 40.026C29.1722 39.969 29.2522 39.921 29.3282 39.872C29.3992 39.811 29.4672 39.761 29.5312 39.704C29.6972 39.538 29.8742 39.391 30.0972 39.302C30.1179 39.2803 30.1429 39.263 30.1706 39.2513C30.1983 39.2396 30.2281 39.2337 30.2582 39.234C30.4202 39.142 30.5792 39.203 30.7382 39.238C30.7962 39.258 30.8472 39.279 30.9032 39.294C30.9278 39.3036 30.9532 39.3109 30.9792 39.316H31.2592C31.3986 39.2581 31.5519 39.2424 31.7002 39.271C31.7538 39.2783 31.8041 39.301 31.8451 39.3363C31.8861 39.3716 31.916 39.4181 31.9312 39.47C31.9612 39.517 31.9272 39.583 31.9872 39.616C32.0362 39.671 32.0812 39.721 32.0972 39.79C32.1232 39.815 32.1552 39.849 32.1812 39.877C32.2712 39.902 32.3362 39.966 32.4052 40.026C32.5802 40.147 32.7462 40.282 32.9002 40.435C32.9382 40.475 32.9962 40.536 33.0852 40.485C33.1682 40.435 33.1892 40.379 33.1772 40.288C33.1682 40.261 33.1802 40.226 33.1802 40.194C33.1772 40.131 33.1742 40.075 33.2212 40.028C33.2462 39.899 33.3422 39.864 33.4522 39.88C33.5842 39.892 33.7152 39.917 33.8462 39.944C34.1292 40.001 34.4262 40.02 34.6712 40.198C34.7037 40.2038 34.7343 40.2173 34.7606 40.2373C34.7868 40.2573 34.8079 40.2832 34.8222 40.313C34.8942 40.393 34.9642 40.477 35.0312 40.555C35.1072 40.5994 35.1636 40.6708 35.1892 40.755C35.2332 40.824 35.3322 40.83 35.3632 40.908C35.4652 40.885 35.5722 40.946 35.6752 40.881C35.8042 40.677 35.7642 40.5 35.5132 40.36C35.1062 40.128 34.7702 39.811 34.4422 39.495C34.0262 39.087 33.7772 38.598 33.7402 38.006C33.7105 37.572 33.7249 37.1361 33.7832 36.705C33.8342 36.272 34.2372 36.042 34.6342 36.223C34.7992 36.298 34.9622 36.38 35.1222 36.46C35.4512 36.622 35.7952 36.712 36.1672 36.69C36.5082 36.673 36.8512 36.67 37.1882 36.655C37.8698 36.6154 38.5431 36.8212 39.0862 37.235C39.3882 37.464 39.7042 37.673 40.0632 37.819C40.2242 37.885 40.3642 37.883 40.4612 37.725C40.5602 37.575 40.5312 37.413 40.3902 37.28ZM28.6622 33.078C28.3376 33.2515 27.9854 33.3676 27.6212 33.421C27.4232 33.431 27.3392 33.285 27.2572 33.147C27.0392 32.763 27.1092 32.638 27.5512 32.605C27.8132 32.582 28.0812 32.556 28.3472 32.531C28.4407 32.5204 28.5352 32.5375 28.6192 32.58C28.8572 32.688 28.8882 32.946 28.6622 33.078ZM28.4572 30.595C28.2262 30.552 27.9572 30.221 27.9572 29.986C27.9572 29.797 28.0812 29.684 28.2672 29.695C28.5262 29.712 28.8512 30.001 28.8912 30.25C28.9242 30.451 28.6922 30.639 28.4572 30.595ZM29.8142 27.071C29.9712 27.067 30.0332 27.169 30.0462 27.296C30.0572 27.465 29.9512 27.589 29.8252 27.583C29.6712 27.571 29.6052 27.471 29.6052 27.327C29.6062 27.187 29.6492 27.071 29.8142 27.071ZM29.0862 29.871C29.0822 29.624 29.2562 29.483 29.5782 29.483C29.7302 29.479 29.8642 29.628 29.8672 29.786C29.8702 29.976 29.6322 30.165 29.3992 30.161C29.2072 30.161 29.0862 30.054 29.0862 29.871ZM29.6552 35.331C29.5342 35.367 29.4542 35.298 29.3992 35.194C29.2782 34.988 29.2632 34.751 29.2172 34.526C29.1952 34.412 29.2782 34.375 29.3842 34.379C29.5019 34.4002 29.6101 34.4579 29.6932 34.544C29.8372 34.694 29.8402 34.898 29.8702 35.077C29.8922 35.198 29.7862 35.3 29.6552 35.331ZM29.7372 28.823C29.6632 28.739 29.6862 28.641 29.7402 28.563C29.9182 28.318 30.1542 28.132 30.4422 28.033C30.6432 27.969 30.5932 28.16 30.6342 28.227C30.6312 28.374 30.6022 28.497 30.4992 28.575C30.3463 28.7027 30.1742 28.8053 29.9892 28.879C29.8992 28.912 29.8042 28.905 29.7372 28.823ZM30.2092 32.029C30.0602 32.012 29.9772 31.909 29.9662 31.758C29.9552 31.652 30.0142 31.58 30.1232 31.57C30.2442 31.56 30.3782 31.716 30.3782 31.851C30.3782 31.966 30.3202 32.036 30.2092 32.029ZM30.6462 35.262C30.4832 35.161 30.4332 34.999 30.4252 34.818C30.4222 34.711 30.5002 34.725 30.5672 34.74C30.7322 34.763 30.8832 34.957 30.8792 35.133C30.8782 35.294 30.7902 35.349 30.6462 35.262ZM32.6662 27.357C32.8302 27.357 32.8962 27.464 32.9042 27.61C32.9042 27.758 32.8412 27.86 32.6892 27.868C32.5542 27.872 32.4422 27.736 32.4422 27.579C32.4422 27.433 32.5182 27.357 32.6662 27.357ZM32.0942 29.345C32.1202 29.5 31.9792 29.675 31.8282 29.693C31.7936 29.6979 31.7583 29.6956 31.7247 29.6863C31.691 29.677 31.6596 29.6609 31.6324 29.639C31.6052 29.617 31.5828 29.5897 31.5666 29.5588C31.5504 29.5278 31.5407 29.4938 31.5382 29.459C31.5202 29.282 31.6042 29.209 31.8672 29.188C32.0092 29.138 32.0722 29.22 32.0942 29.345ZM31.0942 27.806C31.1782 27.654 31.6932 27.4 31.8552 27.442C31.9552 27.465 32.0122 27.542 32.0232 27.64C32.0402 27.775 32.0202 27.917 31.8882 27.972C31.7025 28.0481 31.5085 28.1022 31.3102 28.133C31.0782 28.133 30.9932 27.993 31.0942 27.806ZM31.3022 31.836C31.1712 31.85 31.1142 31.742 31.1112 31.625C31.1112 31.494 31.1632 31.381 31.3102 31.372C31.4442 31.365 31.4982 31.459 31.5012 31.586C31.4852 31.707 31.4452 31.825 31.3022 31.836ZM31.7592 35.215C31.5712 35.223 31.4502 35.098 31.4642 34.881C31.4722 34.752 31.3732 34.553 31.5772 34.531C31.8352 34.531 32.0302 34.715 32.0352 34.914C32.0352 35.09 31.9252 35.211 31.7592 35.215ZM32.3932 32.511C32.309 32.5449 32.215 32.5452 32.1305 32.5119C32.0461 32.4786 31.9776 32.4142 31.9392 32.332C31.9065 32.2583 31.8892 32.1786 31.8882 32.098C31.8922 32.078 31.8922 32.062 31.8922 32.041C31.9082 31.887 31.9612 31.727 32.1132 31.688C32.2272 31.657 32.3082 31.802 32.3752 31.899C32.4232 31.97 32.4662 32.061 32.4992 32.146C32.5532 32.291 32.5882 32.433 32.3932 32.511ZM32.8962 32.485C32.7922 32.485 32.7462 32.402 32.7542 32.303C32.7602 32.21 32.7822 32.094 32.9142 32.094C33.0312 32.086 33.0382 32.185 33.0582 32.278C33.0312 32.367 33.0332 32.489 32.8962 32.485ZM33.0732 29.414C33.0602 29.609 32.9142 29.781 32.7572 29.76C32.5922 29.737 32.5462 29.61 32.5512 29.467C32.5582 29.305 32.7572 29.122 32.9142 29.125C32.9992 29.128 33.0762 29.272 33.0732 29.414ZM35.3662 30.801C35.5452 30.806 35.6962 30.965 35.6962 31.162C35.6962 31.328 35.5502 31.473 35.3732 31.479C35.1752 31.486 34.9632 31.296 34.9672 31.113C34.9672 30.946 35.1562 30.801 35.3662 30.801ZM33.3292 27.741C33.3192 27.568 33.4592 27.442 33.7062 27.437C33.8452 27.449 33.8992 27.564 33.9032 27.711C33.9076 27.7926 33.8795 27.8726 33.8252 27.9337C33.7709 27.9947 33.6947 28.0318 33.6132 28.037C33.4562 28.043 33.3382 27.918 33.3292 27.741ZM34.1372 30.205H34.1182C33.7912 30.195 33.5802 30.065 33.5442 29.838C33.5192 29.643 33.6292 29.543 33.7912 29.483C34.1132 29.36 34.4022 29.425 34.5412 29.66C34.6062 29.767 34.6292 29.884 34.5662 29.997C34.5042 30.125 34.3272 30.205 34.1372 30.205ZM35.7332 34.1C35.5822 34.277 35.3252 34.38 35.0592 34.375C34.9764 34.3775 34.894 34.3628 34.8172 34.332C34.5522 34.247 34.4982 34.078 34.6932 33.877C34.9272 33.636 35.2512 33.588 35.5612 33.588C35.7932 33.596 35.8892 33.92 35.7332 34.1ZM37.2782 34.484C37.1432 34.708 36.9412 34.815 36.6642 34.822C36.5112 34.802 36.3272 34.799 36.2452 34.607C36.1882 34.465 36.3042 34.247 36.4792 34.139C36.5942 34.067 36.7172 34.019 36.8362 33.961C36.9952 33.888 37.1252 33.93 37.2292 34.054C37.3322 34.184 37.3702 34.332 37.2782 34.484Z" fill="#137A08"/>
</svg>
