<svg width="64" height="64" viewBox="0 0 64 64" fill="none" xmlns="http://www.w3.org/2000/svg">
<path d="M0 25H64V39H0V25Z" fill="#F9CB38"/>
<path d="M54 10H10C3.373 10 0 14.925 0 21V25H64V21C64 14.925 60.627 10 54 10Z" fill="#EC1C24"/>
<path d="M0 43C0 49.075 3.373 54 10 54H54C60.627 54 64 49.075 64 43V39H0V43Z" fill="#137A08"/>
<path d="M31.7781 25.825L33.7251 29.77L38.0801 30.408L34.9311 33.48L35.6751 37.813L31.7781 35.766L27.8821 37.813L28.6261 33.48L25.4761 30.408L29.8321 29.77L31.7781 25.825Z" fill="#25333A"/>
</svg>
