<svg width="26" height="17" viewBox="0 0 26 17" fill="none" xmlns="http://www.w3.org/2000/svg">
<path d="M14.157 9.11592L14.872 11.1088L13 9.877L11.1273 11.1088L11.8423 9.11592L10.9063 8.5H0V14.3846C0 15.0783 0.304364 15.7435 0.846136 16.234C1.38791 16.7245 2.12271 17 2.88889 17H23.1111C23.8773 17 24.6121 16.7245 25.1539 16.234C25.6956 15.7435 26 15.0783 26 14.3846V8.5H15.0937L14.157 9.11592Z" fill="#009E49"/>
<path d="M23.1111 0H2.88889C2.12271 0 1.38791 0.275549 0.846136 0.766028C0.304364 1.25651 0 1.92174 0 2.61538L0 8.5H10.9063L9.97028 7.88408H12.285L13 5.89115L13.715 7.88408H16.0297L15.0937 8.5H26V2.61538C26 1.92174 25.6956 1.25651 25.1539 0.766028C24.6121 0.275549 23.8773 0 23.1111 0Z" fill="#EF2B2D"/>
<path d="M11.1272 11.1088L12.9999 9.87699L14.8727 11.1088L14.1569 9.11591L15.0937 8.49999L16.0297 7.88407H13.7149L12.9999 5.89114L12.2849 7.88407H9.97021L10.9062 8.49999L11.8429 9.11591L11.1272 11.1088Z" fill="#FCD116"/>
</svg>
