<svg width="64" height="64" viewBox="0 0 64 64" fill="none" xmlns="http://www.w3.org/2000/svg">
<path d="M64 43C64 49.075 60.627 54 54 54H10C3.373 54 0 49.075 0 43V21C0 14.925 3.373 10 10 10H54C60.627 10 64 14.925 64 21V43Z" fill="#EC1C24"/>
<path fill-rule="evenodd" clip-rule="evenodd" d="M43.3599 28.25C40.7739 28.25 38.1859 28.257 35.5979 28.257C35.5349 28.257 35.4679 28.25 35.4049 28.257C35.3019 28.262 35.2489 28.221 35.2339 28.119C35.2219 28.071 35.2039 28.026 35.1859 27.977C34.3689 25.211 33.5489 22.44 32.7279 19.669C32.7079 19.595 32.6919 19.522 32.6409 19.443C32.5719 19.53 32.5619 19.629 32.5359 19.71C31.7269 22.458 30.9199 25.202 30.1069 27.95C30.0069 28.293 30.0649 28.249 29.7139 28.249C27.1099 28.256 24.5099 28.256 21.9039 28.259C21.8169 28.259 21.7259 28.242 21.6279 28.281C21.6909 28.375 21.7689 28.421 21.8389 28.475C23.9599 30.174 26.0829 31.871 28.2059 33.574C28.3979 33.726 28.3979 33.726 28.3309 33.961C27.9219 35.354 27.5119 36.739 27.1079 38.128C26.6829 39.567 26.2659 41.004 25.8419 42.441C25.8219 42.478 25.8179 42.512 25.8519 42.546C25.9199 42.495 25.9999 42.442 26.0689 42.39C28.1709 40.703 30.2729 39.022 32.3749 37.34C32.4329 37.289 32.4919 37.25 32.5499 37.199C32.6049 37.149 32.6609 37.142 32.7239 37.192C32.7669 37.233 32.8139 37.267 32.8559 37.302L39.2089 42.377C39.2849 42.439 39.3589 42.495 39.4519 42.566C39.4639 42.446 39.4309 42.375 39.4069 42.294C38.9199 40.636 38.4289 38.978 37.9379 37.322C37.6059 36.194 37.2759 35.064 36.9379 33.937C36.8919 33.79 36.9049 33.684 37.0429 33.603C37.0769 33.586 37.1059 33.554 37.1409 33.529C39.2469 31.839 41.3549 30.148 43.4599 28.456C43.5239 28.405 43.6109 28.367 43.6499 28.248C43.5389 28.251 43.4519 28.251 43.3609 28.251M32.6259 25.917C32.7169 26.093 32.7439 26.228 32.7809 26.358C32.9529 26.926 33.1249 27.493 33.2879 28.059C33.3439 28.246 33.3359 28.25 33.1449 28.257C32.7619 28.26 32.3739 28.257 31.9469 28.257C32.1559 27.471 32.3949 26.718 32.6259 25.917ZM27.2199 30.308C27.2739 30.25 27.3069 30.255 27.3369 30.255C27.9709 30.2495 28.6049 30.2465 29.2389 30.246C29.4259 30.246 29.4279 30.255 29.3819 30.424C29.2579 30.849 29.1319 31.271 28.9989 31.733C28.3879 31.246 27.8039 30.782 27.2199 30.308ZM29.4259 37.218C29.3219 37.22 29.3309 37.155 29.3509 37.092C29.5269 36.404 29.7339 35.733 29.9409 35.058C29.9449 35.045 29.9599 35.032 29.9849 34.999C30.3489 35.287 30.7149 35.582 31.1049 35.89C30.5309 36.347 29.9779 36.78 29.4259 37.218ZM32.7749 34.552C32.6859 34.623 32.6219 34.642 32.5179 34.56C31.9099 34.062 31.2899 33.569 30.6709 33.076C30.5809 33.005 30.5539 32.943 30.5849 32.829C30.8299 32.022 31.0639 31.218 31.2989 30.411C31.3349 30.29 31.3929 30.241 31.5269 30.241C32.2739 30.247 33.0249 30.245 33.7749 30.245C33.8739 30.245 33.9419 30.26 33.9729 30.372C34.2159 31.206 34.4589 32.034 34.7039 32.861C34.7119 32.887 34.7139 32.911 34.7209 32.935C34.7209 33.015 34.6549 33.042 34.6059 33.081C34.2199 33.39 33.8349 33.701 33.4469 34.008C33.2219 34.191 32.9949 34.366 32.7749 34.552ZM35.8719 37.216C35.3189 36.78 34.7629 36.347 34.1839 35.895C34.5719 35.584 34.9329 35.295 35.2879 35.008C35.3189 35.029 35.3359 35.033 35.3449 35.045C35.5529 35.726 35.7619 36.404 35.9419 37.099C35.9689 37.167 35.9729 37.22 35.8719 37.216ZM38.0479 30.303C37.5439 30.747 37.0049 31.149 36.4879 31.574C36.4309 31.623 36.3809 31.681 36.2939 31.696C36.1929 31.455 36.1399 31.196 36.0599 30.948C36.0033 30.7683 35.95 30.5876 35.8999 30.406C35.8639 30.265 35.8759 30.246 36.0239 30.246C36.4529 30.24 36.8779 30.244 37.3049 30.244H38.0449C38.0289 30.284 38.0429 30.244 38.0549 30.277C38.0549 30.284 38.0549 30.295 38.0479 30.303Z" fill="black"/>
<path fill-rule="evenodd" clip-rule="evenodd" d="M25.8457 42.44C25.8527 42.477 25.8527 42.511 25.8557 42.545C25.7927 42.538 25.7927 42.52 25.8457 42.44Z" fill="#570007"/>
<path fill-rule="evenodd" clip-rule="evenodd" d="M43.1701 28.432C43.1311 28.541 43.0541 28.579 42.9921 28.63C41.0131 30.215 39.0381 31.803 37.0571 33.393C37.0431 33.401 37.0301 33.411 37.0171 33.421C36.8551 33.545 36.8391 33.538 36.7791 33.336C36.6561 32.935 36.5491 32.529 36.4191 32.132C36.3591 31.952 36.4021 31.843 36.5451 31.729C37.1541 31.251 37.7501 30.761 38.3541 30.275C38.4061 30.235 38.4671 30.203 38.5001 30.128C38.4501 30.054 38.3711 30.085 38.3041 30.085C36.8561 30.08 35.4061 30.08 33.9581 30.08H31.6831C31.6331 30.085 31.5821 30.08 31.5351 30.077C31.4641 30.077 31.4311 30.037 31.4451 29.965C31.4541 29.9169 31.4665 29.8694 31.4821 29.823C31.5931 29.435 31.7091 29.046 31.8231 28.663C31.9031 28.409 31.9031 28.409 32.1621 28.409C33.4431 28.407 34.7191 28.407 35.9951 28.407H42.8401C42.9411 28.406 43.0491 28.39 43.1701 28.432ZM22.0801 28.453C22.1891 28.39 22.2701 28.408 22.3511 28.408C24.7821 28.406 27.2111 28.406 29.6401 28.406C29.9671 28.402 29.9671 28.406 29.8781 28.71C29.7671 29.085 29.6561 29.455 29.5491 29.826C29.4721 30.079 29.4721 30.079 29.2111 30.084C28.4961 30.084 27.7751 30.084 27.0611 30.087C26.9771 30.087 26.8841 30.071 26.7931 30.112C26.8091 30.219 26.8941 30.251 26.9521 30.299C28.6961 31.694 30.4381 33.088 32.1761 34.485C32.2351 34.529 32.2951 34.575 32.3511 34.624C32.4921 34.744 32.4921 34.761 32.3391 34.879C32.0231 35.144 31.7001 35.4 31.3801 35.654C31.2241 35.772 31.2211 35.777 31.0621 35.651C30.5781 35.262 30.0891 34.868 29.6001 34.478L22.2901 28.63C22.2251 28.579 22.1651 28.523 22.0801 28.453Z" fill="#006838"/>
<path fill-rule="evenodd" clip-rule="evenodd" d="M26.1099 42.1L28.5239 33.89C28.6389 33.884 28.6829 33.948 28.7419 33.994C29.0449 34.234 29.3429 34.482 29.6499 34.714C29.7819 34.816 29.8109 34.913 29.7669 35.073C29.5289 35.861 29.2979 36.651 29.0699 37.443C29.0449 37.528 29.0019 37.608 29.0289 37.718C29.1229 37.682 29.1909 37.618 29.2579 37.564C31.0129 36.16 32.7689 34.755 34.5219 33.345C34.7909 33.129 34.7909 33.129 34.8889 33.447C34.9959 33.811 35.0999 34.176 35.2069 34.542C35.2789 34.799 35.2789 34.799 35.0689 34.971C33.0489 36.582 31.0489 38.196 29.0289 39.804C28.1419 40.518 27.2579 41.226 26.3699 41.938C26.3039 41.988 26.2419 42.06 26.1089 42.1" fill="#006838"/>
<path fill-rule="evenodd" clip-rule="evenodd" d="M39.16 42.09C39.062 42.068 39.01 42.002 38.946 41.953C36.971 40.379 34.997 38.8 33.02 37.223C32.752 37.01 32.752 37.038 33.017 36.829C33.302 36.604 33.58 36.373 33.869 36.148C34.066 35.991 34.069 35.991 34.262 36.145C34.848 36.613 35.436 37.081 36.023 37.547C36.1 37.608 36.176 37.661 36.258 37.724C36.307 37.619 36.256 37.544 36.233 37.47C35.564 35.195 34.895 32.92 34.223 30.648C34.093 30.199 34.073 30.238 34.532 30.238H35.42C35.686 30.238 35.688 30.24 35.758 30.489C36.065 31.515 36.367 32.546 36.671 33.57C37.484 36.327 38.298 39.08 39.109 41.839C39.136 41.915 39.165 41.989 39.16 42.09ZM32.64 20.04C32.716 20.108 32.718 20.184 32.741 20.256C33.498 22.823 34.26 25.388 35.016 27.955C35.103 28.244 35.099 28.244 34.804 28.246C34.449 28.246 34.094 28.246 33.742 28.244C33.519 28.244 33.517 28.241 33.448 28.026C33.213 27.226 32.972 26.43 32.74 25.632C32.716 25.558 32.703 25.476 32.643 25.4C32.564 25.485 32.556 25.588 32.532 25.684C31.855 27.964 31.182 30.249 30.512 32.532C30.412 32.86 30.412 32.86 30.155 32.654C29.888 32.443 29.625 32.232 29.367 32.02C29.139 31.84 29.136 31.836 29.218 31.566C29.618 30.208 30.015 28.846 30.417 27.488L32.522 20.329C32.555 20.236 32.564 20.135 32.642 20.04" fill="#006838"/>
<path fill-rule="evenodd" clip-rule="evenodd" d="M29.3519 37.09C29.3789 37.133 29.4029 37.174 29.4269 37.216C29.4049 37.262 29.3679 37.289 29.3009 37.303C29.2926 37.266 29.293 37.2275 29.3018 37.1906C29.3106 37.1537 29.3278 37.1193 29.3519 37.09Z" fill="#C30010"/>
<path fill-rule="evenodd" clip-rule="evenodd" d="M35.873 37.21C35.894 37.17 35.921 37.132 35.942 37.093C35.955 37.12 35.975 37.146 35.986 37.17C35.997 37.21 36.017 37.26 35.978 37.28C35.928 37.299 35.898 37.248 35.873 37.21Z" fill="#C90010"/>
</svg>
