<svg width="64" height="64" viewBox="0 0 64 64" fill="none" xmlns="http://www.w3.org/2000/svg">
<path d="M0 25H64V39H0V25Z" fill="#E6E7E8"/>
<path d="M54 10H10C3.373 10 0 14.925 0 21V25H64V21C64 14.925 60.627 10 54 10ZM0 43C0 49.075 3.373 54 10 54H54C60.627 54 64 49.075 64 43V39H0V43Z" fill="#74ACDF"/>
<path fill-rule="evenodd" clip-rule="evenodd" d="M32.678 27.898C32.988 27.512 33.02 27.127 33.028 26.72C33.037 26.375 33.088 26.028 33.15 25.682C33.173 25.553 33.264 25.425 33.354 25.327C33.3898 25.2965 33.4317 25.2741 33.4769 25.2613C33.5222 25.2486 33.5696 25.2457 33.616 25.253C33.665 25.266 33.711 25.4 33.707 25.479C33.7 25.616 33.636 25.752 33.627 25.889C33.607 26.178 33.607 26.462 33.606 26.748C33.602 27.037 33.604 27.323 33.604 27.645C33.81 27.217 34.006 26.805 34.208 26.396C34.3121 26.1685 34.4303 25.9477 34.562 25.735C34.613 25.664 34.744 25.644 34.836 25.602C34.871 25.697 34.96 25.802 34.94 25.882C34.821 26.305 34.677 26.722 34.536 27.139C34.41 27.521 34.275 27.896 34.117 28.34C34.521 28.114 34.698 27.809 34.856 27.474C35.029 27.106 35.231 26.747 35.46 26.412C35.569 26.255 35.772 26.06 35.984 26.24C36.039 26.286 35.938 26.59 35.841 26.721C35.615 27.027 35.478 27.351 35.379 27.72C35.295 28.035 35.076 28.316 34.931 28.583C34.984 28.541 35.077 28.463 35.162 28.383C35.573 28.015 35.981 27.642 36.394 27.275C36.507 27.174 36.629 27.08 36.762 27.016C36.825 26.985 36.948 27.01 37.004 27.054C37.049 27.085 37.055 27.216 37.025 27.271C36.9416 27.4193 36.8427 27.5584 36.73 27.686C36.255 28.219 35.776 28.746 35.253 29.321C35.754 29.252 36.07 29.007 36.373 28.708C36.611 28.473 36.888 28.27 37.157 28.065C37.2367 28.0038 37.3336 27.9692 37.434 27.966C37.569 27.97 37.702 28.027 37.832 28.065C37.76 28.172 37.716 28.324 37.615 28.383C37.2212 28.605 36.8839 28.9146 36.629 29.288C36.478 29.512 36.195 29.64 35.928 29.847C36.507 29.64 37.042 29.449 37.579 29.265C37.787 29.194 38.002 29.135 38.217 29.099C38.282 29.088 38.406 29.152 38.428 29.21C38.449 29.272 38.409 29.399 38.355 29.442C38.213 29.551 38.055 29.642 37.891 29.717C37.27 30.019 36.647 30.311 35.977 30.629C36.518 30.791 36.942 30.598 37.383 30.434C37.723 30.309 38.096 30.263 38.459 30.229C38.566 30.219 38.693 30.366 38.807 30.442C38.704 30.524 38.605 30.67 38.49 30.68C38.018 30.731 37.616 30.92 37.205 31.147C36.934 31.297 36.582 31.303 36.264 31.377C37.014 31.419 37.764 31.461 38.515 31.507C38.524 31.507 38.535 31.505 38.545 31.51L38.953 31.743C38.823 31.823 38.694 31.967 38.556 31.976C37.877 32.039 37.191 32.067 36.511 32.109C36.407 32.113 36.304 32.122 36.134 32.136C36.62 32.494 37.1 32.465 37.595 32.48C37.95 32.486 38.311 32.61 38.657 32.722C38.746 32.749 38.792 32.915 38.855 33.017C38.744 33.057 38.631 33.126 38.522 33.126C38.375 33.126 38.227 33.064 38.078 33.039C37.951 33.017 37.816 32.976 37.695 32.999C37.176 33.094 36.665 33.168 36.168 32.875C36.166 32.9 36.159 32.926 36.153 32.951C36.716 33.216 37.275 33.481 37.834 33.749C37.996 33.827 38.164 33.907 38.306 34.015C38.377 34.07 38.399 34.194 38.441 34.288C38.348 34.326 38.252 34.408 38.167 34.397C37.972 34.37 37.778 34.302 37.589 34.237C36.986 34.031 36.384 33.816 35.756 33.592C35.916 33.985 36.22 34.18 36.824 34.416C37.108 34.525 37.371 34.709 37.611 34.896C37.765 35.017 37.993 35.222 37.822 35.422C37.641 35.637 37.438 35.397 37.285 35.278C37.001 35.059 36.688 34.939 36.342 34.844C36.011 34.751 35.718 34.522 35.423 34.355C35.811 34.785 36.22 35.236 36.624 35.688C36.75 35.832 36.885 35.973 36.978 36.137C37.029 36.221 36.998 36.354 37.001 36.463C36.89 36.455 36.746 36.486 36.67 36.428C36.369 36.196 36.087 35.937 35.8 35.684C35.45 35.376 35.106 35.063 34.718 34.715C34.796 35.281 35.106 35.625 35.472 35.935C35.778 36.196 36.015 36.507 36.089 36.908C36.112 37.026 36.04 37.159 36.009 37.285C35.9 37.22 35.741 37.184 35.687 37.087C35.4563 36.6859 35.1351 36.3441 34.749 36.089C34.532 35.942 34.404 35.661 34.214 35.413C34.303 35.679 34.383 35.923 34.468 36.167C34.605 36.555 34.745 36.94 34.88 37.329C34.9212 37.4313 34.9423 37.5407 34.942 37.651C34.935 37.736 34.882 37.864 34.822 37.883C34.75 37.904 34.626 37.849 34.573 37.781C34.472 37.659 34.402 37.51 34.334 37.369C34.032 36.747 33.735 36.12 33.413 35.441C33.267 35.9 33.377 36.267 33.524 36.637C33.644 36.943 33.755 37.256 33.819 37.578C33.855 37.753 33.797 37.955 33.756 38.137C33.741 38.192 33.637 38.259 33.575 38.257C33.515 38.257 33.406 38.179 33.402 38.13C33.356 37.5 33.054 36.972 32.792 36.42C32.697 36.224 32.729 35.972 32.659 35.744C32.63 36.35 32.599 36.953 32.568 37.559C32.56 37.74 32.564 37.925 32.513 38.098C32.48 38.211 32.366 38.309 32.287 38.41C32.212 38.306 32.077 38.206 32.068 38.095C32.009 37.425 31.977 36.753 31.94 36.085C31.933 35.938 31.94 35.79 31.899 35.636C31.679 35.8921 31.5596 36.2194 31.563 36.557C31.563 36.885 31.592 37.222 31.547 37.546C31.518 37.766 31.402 37.981 31.29 38.179C31.25 38.25 31.109 38.263 31.012 38.3C30.979 38.214 30.935 38.13 30.913 38.039C30.902 37.984 30.926 37.921 30.94 37.862C31.042 37.47 31.091 37.089 30.982 36.676C30.918 36.43 30.972 36.152 30.972 35.867C30.746 36.337 30.521 36.804 30.295 37.267C30.211 37.44 30.129 37.617 30.02 37.768C29.965 37.839 29.838 37.857 29.746 37.897C29.707 37.804 29.631 37.703 29.641 37.615C29.671 37.419 29.737 37.227 29.804 37.038C30.014 36.434 30.229 35.833 30.465 35.161C30.004 35.41 29.842 35.785 29.669 36.161C29.5192 36.4873 29.3355 36.797 29.121 37.085C29.008 37.241 28.805 37.433 28.595 37.256C28.54 37.214 28.643 36.906 28.742 36.77C28.965 36.464 29.101 36.142 29.199 35.772C29.283 35.456 29.506 35.178 29.664 34.891C29.207 35.3 28.74 35.728 28.264 36.149C28.1305 36.27 27.9851 36.3773 27.83 36.469C27.769 36.504 27.639 36.493 27.588 36.449C27.544 36.405 27.529 36.272 27.561 36.212C27.634 36.068 27.734 35.94 27.838 35.819C28.313 35.289 28.793 34.764 29.313 34.187C28.759 34.256 28.452 34.573 28.133 34.897C27.8974 35.1256 27.6352 35.325 27.352 35.491C27.184 35.598 26.913 35.724 26.786 35.499C26.641 35.238 26.95 35.149 27.115 35.056C27.432 34.864 27.667 34.611 27.886 34.314C28.074 34.06 28.368 33.882 28.623 33.666L26.993 34.234C26.841 34.289 26.691 34.363 26.536 34.378C26.411 34.395 26.278 34.336 26.15 34.311C26.215 34.191 26.254 34.016 26.354 33.961C26.864 33.69 27.397 33.445 27.921 33.19L28.553 32.882C28.153 32.731 27.845 32.782 27.289 33.025C27.023 33.1385 26.7453 33.2227 26.461 33.276C26.3024 33.3013 26.14 33.289 25.987 33.24C25.9 33.216 25.841 33.103 25.77 33.032C25.841 32.965 25.909 32.846 25.989 32.839C26.517 32.777 26.983 32.579 27.444 32.31C27.678 32.173 28.003 32.186 28.358 32.117C27.673 32.083 27.058 32.055 26.446 32.024C26.2446 32.019 26.044 31.9953 25.847 31.953C25.759 31.932 25.699 31.815 25.624 31.744C25.698 31.675 25.763 31.561 25.85 31.538C26.045 31.491 26.247 31.481 26.448 31.471C27.087 31.437 27.722 31.408 28.443 31.374C27.975 31.032 27.531 30.992 27.067 31.054C26.6747 31.1083 26.2757 31.0249 25.938 30.818C25.837 30.755 25.792 30.605 25.723 30.494C25.845 30.459 25.982 30.37 26.087 30.395C26.5145 30.501 26.9589 30.5204 27.394 30.452C27.748 30.397 28.132 30.534 28.507 30.589C27.962 30.33 27.403 30.067 26.85 29.795C26.641 29.6983 26.4395 29.5864 26.247 29.46C26.183 29.416 26.13 29.277 26.152 29.21C26.172 29.15 26.31 29.085 26.388 29.098C26.594 29.13 26.796 29.191 26.994 29.26C27.6 29.467 28.201 29.684 28.828 29.906C28.673 29.521 28.365 29.33 27.763 29.081C27.439 28.944 27.159 28.702 26.87 28.498C26.8018 28.4375 26.7536 28.3576 26.732 28.269C26.713 28.202 26.72 28.094 26.762 28.051C26.804 28.009 26.905 28.022 26.979 28.014C26.99 28.014 27.001 28.018 27.008 28.024C27.579 28.65 28.562 28.513 29.142 29.149C29.106 29.096 29.07 29.04 29.026 28.993C28.615 28.539 28.203 28.084 27.795 27.627C27.7044 27.5336 27.6294 27.4262 27.573 27.309C27.542 27.229 27.539 27.086 27.586 27.041C27.639 26.993 27.784 26.995 27.857 27.035C27.988 27.102 28.105 27.203 28.217 27.305C28.739 27.771 29.259 28.243 29.83 28.756C29.779 28.261 29.508 27.972 29.231 27.669C28.974 27.387 28.766 27.059 28.541 26.742C28.5075 26.6915 28.4914 26.6315 28.495 26.571C28.512 26.452 28.554 26.336 28.585 26.217C28.69 26.274 28.84 26.308 28.893 26.396C29.142 26.82 29.441 27.169 29.862 27.445C30.068 27.585 30.182 27.867 30.359 28.111C30.336 28.02 30.328 27.949 30.302 27.883C30.125 27.379 29.944 26.883 29.767 26.377C29.725 26.266 29.662 26.149 29.662 26.036C29.66 25.89 29.711 25.745 29.738 25.598C29.86 25.678 30.035 25.733 30.093 25.849C30.415 26.461 30.704 27.093 31.005 27.717C31.054 27.814 31.103 27.908 31.169 28.041C31.325 27.542 31.165 27.144 31.001 26.732C30.8889 26.434 30.8059 26.1259 30.753 25.812C30.726 25.673 30.767 25.511 30.816 25.37C30.839 25.309 30.943 25.244 31.014 25.237C31.067 25.235 31.174 25.322 31.178 25.372C31.238 25.976 31.496 26.499 31.775 27.027C31.882 27.229 31.852 27.507 31.914 27.75C31.956 27.009 32.002 26.27 32.045 25.528C32.047 25.486 32.038 25.439 32.055 25.41C32.127 25.299 32.202 25.191 32.279 25.086C32.359 25.197 32.505 25.303 32.512 25.419C32.574 26.168 32.605 26.922 32.647 27.677C32.654 27.73 32.663 27.778 32.678 27.898ZM27.207 30.946C27.49 30.971 27.783 30.971 28.061 31.041C28.318 31.104 28.556 31.25 28.811 31.334C28.935 31.379 29.079 31.363 29.213 31.376C28.806 31.179 28.412 30.993 27.999 30.898C27.754 30.842 27.472 30.926 27.207 30.946C26.812 30.853 26.417 30.758 26.023 30.664C26.373 30.966 26.785 30.982 27.207 30.946ZM36.747 34.539C37.02 34.737 37.299 34.93 37.564 35.14C37.623 35.184 37.637 35.291 37.671 35.369C37.713 35.318 37.732 35.249 37.704 35.211C37.478 34.852 37.178 34.597 36.735 34.546C36.352 34.322 35.924 34.162 35.655 33.771C35.5516 33.6347 35.427 33.5159 35.286 33.419C35.189 33.348 35.063 33.316 34.949 33.266C35.175 33.554 35.453 33.75 35.678 33.996C35.9498 34.3096 36.3335 34.5044 36.747 34.539ZM27.916 28.95C27.4947 28.8017 27.1329 28.5206 26.885 28.149C26.796 28.455 27.483 29.004 27.925 28.943C27.965 28.992 28.005 29.045 28.053 29.085C28.342 29.306 28.639 29.519 28.925 29.744C29.072 29.862 29.197 30.01 29.351 30.121C29.429 30.178 29.544 30.184 29.643 30.209C29.44 29.97 29.187 29.81 28.999 29.597C28.7219 29.2647 28.34 29.0366 27.916 28.95ZM27.228 32.905C27.712 32.709 28.217 32.681 28.732 32.709C28.889 32.716 29.051 32.676 29.204 32.634C29.257 32.619 29.292 32.539 29.353 32.465C28.831 32.494 28.357 32.486 27.898 32.563C27.662 32.602 27.456 32.792 27.232 32.913L26.133 33.104L26.148 33.179C26.532 33.196 26.907 33.171 27.228 32.905ZM33.792 34.58C33.727 34.55 33.662 34.524 33.596 34.497C33.574 34.512 33.552 34.529 33.53 34.546C33.924 35.491 34.315 36.44 34.707 37.387C34.728 37.381 34.747 37.372 34.77 37.366C34.441 36.432 34.115 35.5 33.787 34.571C33.997 34.859 34.268 35.121 34.403 35.443C34.618 35.953 35.071 36.157 35.469 36.443C35.187 36.113 34.832 35.831 34.597 35.474C34.355 35.112 34.291 34.634 33.883 34.294C33.843 34.42 33.819 34.5 33.792 34.578M31.309 28.528C31.08 28.078 30.848 27.625 30.623 27.17C30.431 26.783 30.248 26.391 30.06 26.004C30.0366 26.0127 30.0139 26.023 29.992 26.035C30.39 26.989 30.787 27.947 31.184 28.903L31.304 28.878V28.523L31.495 28.763C31.495 28.386 31.502 28.007 31.493 27.629C31.489 27.472 31.493 27.286 31.415 27.164C31.114 26.692 30.996 26.174 30.948 25.633C30.948 25.622 30.919 25.616 30.802 25.549C30.882 25.913 30.882 26.237 31.017 26.488C31.381 27.143 31.37 27.827 31.309 28.528ZM27.865 36.403C27.901 36.357 27.93 36.306 27.974 36.268C28.687 35.622 29.405 34.977 30.113 34.326C30.184 34.26 30.203 34.133 30.248 34.032C30.15 34.074 30.028 34.087 29.961 34.154C29.305 34.8167 28.653 35.4834 28.005 36.154C27.941 36.22 27.912 36.318 27.865 36.4C27.661 36.251 27.812 36.145 27.914 36.04C28.531 35.41 29.152 34.78 29.771 34.149C29.871 34.047 29.957 33.934 30.075 33.795C29.746 33.82 27.721 36.029 27.668 36.375C27.735 36.382 27.801 36.392 27.865 36.4M33.276 34.983C33.515 35.455 33.755 35.924 33.992 36.4C34.192 36.806 34.384 37.217 34.582 37.626C34.603 37.618 34.624 37.605 34.647 37.597C34.23 36.597 33.817 35.598 33.402 34.6C33.362 34.604 33.322 34.609 33.282 34.617C33.282 34.744 33.282 34.868 33.28 34.992L33.036 34.67C33.063 35.222 33.023 35.711 33.129 36.168C33.266 36.755 33.521 37.312 33.714 37.853C33.7658 37.5573 33.7109 37.2529 33.559 36.994C33.186 36.358 33.215 35.673 33.276 34.983ZM35.146 30.232L35.057 30.487C35.112 30.489 35.175 30.508 35.219 30.492C36.177 30.088 37.134 29.679 38.09 29.272C38.085 29.253 38.075 29.236 38.07 29.217L35.136 30.242C35.422 30.036 35.713 29.829 35.997 29.619C36.21 29.461 36.471 29.33 36.619 29.122C36.836 28.82 37.071 28.57 37.398 28.393C37.517 28.33 37.617 28.231 37.726 28.146C37.4859 28.2367 37.2586 28.3584 37.05 28.508C36.879 28.628 36.698 28.752 36.577 28.916C36.3621 29.2186 36.0626 29.451 35.716 29.584C35.411 29.706 35.135 29.904 34.849 30.068L34.882 30.186C34.974 30.203 35.058 30.218 35.146 30.232ZM29.479 33.242C29.182 33.457 28.913 33.726 28.588 33.879C28.135 34.089 27.901 34.451 27.687 34.852C28 34.586 28.264 34.254 28.606 34.041C28.961 33.817 29.399 33.723 29.726 33.352L29.473 33.249C29.488 33.162 29.506 33.078 29.54 32.927L26.488 34.231C26.499 34.252 26.505 34.271 26.513 34.292C27.501 33.941 28.491 33.59 29.479 33.242ZM31.633 34.329C32.348 34.553 32.348 34.553 32.942 34.338C32.897 34.424 32.864 34.493 32.82 34.573C34.186 34.441 35.293 32.992 35.18 31.524C35.058 29.938 33.701 28.773 32.07 28.851C30.557 28.927 29.351 30.26 29.379 31.825C29.406 33.251 30.617 34.591 31.885 34.593C31.813 34.518 31.74 34.443 31.633 34.329ZM35.077 32.967L35.032 33.074C35.179 33.285 37.585 34.209 38.135 34.234C37.115 33.811 36.094 33.39 35.077 32.967ZM32.381 38.107L32.426 38.111C32.481 37.073 32.535 36.033 32.574 34.995C32.579 34.928 32.495 34.855 32.45 34.784C32.426 34.797 32.404 34.805 32.381 34.815V38.107ZM32.375 28.721C32.592 28.572 32.592 28.572 32.516 27.07C32.489 26.514 32.451 25.956 32.417 25.398L32.375 25.402V28.721ZM34.584 26.027C34.5647 26.0153 34.5443 26.0056 34.523 25.998C34.432 26.183 34.339 26.368 34.251 26.556C33.948 27.192 33.641 27.822 33.348 28.462C33.281 28.599 33.171 28.763 33.411 28.934C33.811 27.948 34.196 26.985 34.584 26.027ZM32.202 34.74C31.978 34.963 32.023 37.395 32.202 38.107V34.74ZM35.307 31.576C35.32 31.608 35.332 31.639 35.347 31.672H38.616C37.6117 31.571 36.6046 31.5 35.596 31.459C35.502 31.454 35.405 31.537 35.311 31.576M38.652 31.863H35.339L35.341 32.021C36.445 32.044 37.547 31.924 38.652 31.863ZM25.947 31.791C25.947 31.821 25.947 31.849 25.944 31.878C26.428 31.905 26.913 31.937 27.4 31.962C27.92 31.991 28.44 32.025 28.961 32.038C29.049 32.04 29.14 31.953 29.229 31.907C29.149 31.869 29.067 31.8 28.989 31.798C27.975 31.789 26.962 31.791 25.947 31.791ZM32.204 25.395L32.164 25.404C32.109 26.414 32.053 27.424 32.004 28.434C32.002 28.523 32.077 28.62 32.115 28.714C32.1442 28.7028 32.1739 28.6932 32.204 28.685V25.393M26.055 31.629H29.293C29.047 31.437 26.576 31.499 26.055 31.629ZM36.68 27.244L36.637 27.2C35.901 27.874 35.163 28.549 34.426 29.22C34.3864 29.2517 34.3566 29.294 34.34 29.342C34.329 29.392 34.344 29.449 34.348 29.501C34.401 29.489 34.464 29.491 34.5 29.462C34.592 29.386 34.67 29.293 34.754 29.209C35.395 28.555 36.037 27.897 36.68 27.242M32.918 28.74C32.971 28.759 33.023 28.78 33.074 28.801C33.118 28.717 33.175 28.637 33.2 28.549C33.286 28.203 33.364 27.854 33.446 27.506C33.478 27.371 33.558 27.222 33.528 27.1C33.396 26.546 33.451 26.007 33.606 25.472C33.615 25.434 33.566 25.381 33.537 25.321C33.486 25.565 33.433 25.762 33.406 25.963C33.368 26.227 33.307 26.5 33.335 26.759C33.377 27.132 33.328 27.467 33.186 27.811C33.064 28.106 33.004 28.426 32.918 28.74ZM31.296 34.607C31.2512 34.6007 31.2062 34.5963 31.161 34.594L30.057 37.345C30.078 37.353 30.101 37.366 30.126 37.374C30.516 36.553 30.909 35.731 31.291 34.903C31.33 34.824 31.296 34.707 31.296 34.607ZM28.678 37.097V37.199C28.765 37.167 28.891 37.165 28.938 37.102C29.146 36.828 29.382 36.554 29.517 36.243C29.706 35.813 29.898 35.409 30.28 35.109C30.442 34.981 30.572 34.806 30.696 34.639C30.743 34.573 30.73 34.462 30.743 34.374C30.454 34.629 30.212 34.884 30.009 35.164C29.829 35.41 29.62 35.667 29.554 35.949C29.447 36.412 29.114 36.707 28.866 37.067C28.841 37.101 28.744 37.091 28.678 37.097ZM27.91 27.183C27.894 27.203 27.874 27.223 27.857 27.245C28.099 27.474 28.343 27.704 28.579 27.937C29.066 28.419 29.546 28.906 30.037 29.384C30.087 29.432 30.18 29.437 30.254 29.462C30.229 29.386 30.222 29.297 30.18 29.232C30.129 29.157 30.049 29.106 29.985 29.044C29.4338 28.5441 28.8811 28.0457 28.327 27.549C28.192 27.428 28.051 27.306 27.91 27.183ZM36.677 36.313C36.6961 36.2941 36.7132 36.2734 36.728 36.251C36.014 35.537 35.293 34.821 34.572 34.109C34.517 34.052 34.412 34.046 34.334 34.018C34.363 34.105 34.372 34.214 34.433 34.273C34.697 34.533 34.975 34.781 35.248 35.03C35.725 35.463 36.203 35.886 36.677 36.313ZM27.8 27.428L27.787 27.435C27.954 27.62 28.118 27.805 28.287 27.991C28.765 28.517 29.24 29.049 29.725 29.568C29.795 29.642 29.913 29.67 30.008 29.72L30.035 29.644C29.291 28.904 28.543 28.165 27.8 27.428ZM26.498 29.275C27.497 29.683 28.495 30.093 29.557 30.53C29.439 30.221 27.295 29.365 26.498 29.275ZM34.528 29.656C34.566 29.696 34.606 29.736 34.648 29.776C35.438 29.02 36.121 28.163 36.868 27.367C36.889 27.386 36.908 27.405 36.926 27.426C36.124 28.169 35.328 28.91 34.528 29.656ZM35.239 30.949C35.254 30.976 35.266 31.004 35.279 31.031C35.656 31.006 36.036 31.006 36.408 30.949C36.686 30.909 36.956 30.8 37.229 30.716C37.486 30.638 37.735 30.547 37.992 30.474C38.143 30.432 38.302 30.416 38.46 30.392C38.447 30.347 38.437 30.303 38.426 30.259C38.114 30.339 37.784 30.379 37.493 30.503C37.053 30.694 36.619 30.851 36.128 30.791C35.9578 30.7695 35.7854 30.7725 35.616 30.8C35.486 30.821 35.364 30.896 35.239 30.949ZM33.804 29.092L33.921 29.149C34.037 28.994 34.134 28.817 34.273 28.682C34.71 28.264 35.019 27.797 35.183 27.195C35.28 26.851 35.549 26.525 35.906 26.317C35.804 26.332 35.672 26.348 35.617 26.424C35.42 26.683 35.209 26.945 35.08 27.242C34.897 27.66 34.725 28.07 34.344 28.356C34.2083 28.4612 34.0878 28.5847 33.986 28.723C33.906 28.831 33.862 28.968 33.804 29.092ZM29.819 25.949C29.7989 25.9594 29.7778 25.9678 29.756 25.974C30.102 26.935 30.445 27.895 30.801 28.851C30.824 28.914 30.928 28.946 30.99 28.997C31.013 28.976 31.037 28.955 31.057 28.935L29.819 25.949ZM29.412 30.76C29.416 30.716 29.423 30.674 29.429 30.629C28.48 30.239 27.532 29.848 26.583 29.456C27.42 29.935 28.285 30.35 29.153 30.754C29.227 30.789 29.325 30.76 29.412 30.76ZM29.808 37.739C29.835 37.626 29.859 37.48 29.913 37.345C30.248 36.496 30.591 35.652 30.931 34.803C30.966 34.71 30.988 34.614 31.035 34.464C30.701 34.673 29.722 37.451 29.808 37.739ZM38.171 29.463L38.129 29.398L35.153 30.672C35.178 30.727 35.204 30.779 35.226 30.836C36.226 30.423 37.188 29.915 38.171 29.463ZM38.009 34.022L38.03 33.966C37.171 33.556 36.313 33.146 35.454 32.743C35.372 32.705 35.261 32.736 35.163 32.736L35.142 32.838C36.099 33.234 37.053 33.631 38.009 34.022ZM33.557 28.959C33.827 28.871 34.783 26.377 34.81 25.836L33.557 28.959ZM26.547 33.969C26.56 33.99 26.574 34.015 26.589 34.036C27.532 33.634 28.477 33.227 29.42 32.823C29.397 32.774 29.373 32.723 29.355 32.671C28.392 33.044 27.49 33.554 26.547 33.969ZM35.371 32.134C35.375 32.152 35.377 32.168 35.382 32.185C35.784 32.332 36.18 32.501 36.591 32.625C36.784 32.682 37.008 32.684 37.21 32.656C37.76 32.585 38.25 32.727 38.741 32.968C38.683 32.884 38.621 32.779 38.537 32.755C38.223 32.671 37.896 32.549 37.58 32.564C37.075 32.584 36.603 32.562 36.154 32.309C36.0021 32.2324 35.8412 32.1753 35.675 32.139C35.578 32.113 35.473 32.134 35.371 32.134ZM36.526 35.691C36.5204 35.7016 36.5134 35.7114 36.505 35.72C35.941 35.101 35.381 34.478 34.812 33.861C34.757 33.801 34.659 33.785 34.581 33.747C34.575 33.765 34.568 33.776 34.564 33.792C35.215 34.426 35.873 35.059 36.526 35.691ZM38.01 32.776C37.511 32.776 37.052 32.829 36.61 32.759C36.164 32.69 35.772 32.35 35.241 32.432C35.284 32.515 35.304 32.603 35.337 32.605C36.207 32.692 37.037 33.2 38.01 32.776ZM29.293 31.117C29.313 31.07 29.333 31.022 29.355 30.975C29.25 30.924 29.151 30.857 29.039 30.829C28.788 30.77 28.511 30.781 28.279 30.68C27.766 30.452 27.279 30.545 26.764 30.74C27.678 30.4 28.443 31.037 29.293 31.117ZM29.104 26.936C29.079 26.953 29.057 26.971 29.035 26.989C29.199 27.157 29.343 27.346 29.528 27.486C29.803 27.688 29.989 27.938 30.12 28.258C30.223 28.515 30.364 28.759 30.507 28.997C30.545 29.059 30.659 29.073 30.737 29.106C30.717 29.018 30.721 28.911 30.675 28.845C30.189 28.177 29.845 27.395 29.104 26.936ZM31.614 34.706C31.258 34.91 31.039 36.582 31.264 37.265C31.283 36.846 31.226 36.411 31.297 36.003C31.376 35.579 31.669 35.205 31.614 34.706ZM34.819 33.47C34.781 33.514 34.746 33.558 34.708 33.605C35.051 33.868 35.375 34.167 35.746 34.388C36.132 34.619 36.563 34.776 36.976 34.965L37.031 34.845C36.887 34.782 36.753 34.685 36.605 34.657C36.169 34.579 35.836 34.351 35.535 34.034C35.331 33.816 35.062 33.654 34.819 33.47ZM33.459 37.423C33.423 37.283 33.421 37.069 33.318 36.926C32.993 36.473 32.943 35.972 32.958 35.437C32.962 35.211 32.882 34.986 32.829 34.696C32.73 34.793 32.676 34.822 32.68 34.842C32.869 35.735 32.8 36.702 33.459 37.423ZM31.25 38.016C31.279 38.022 31.309 38.026 31.336 38.035C31.393 37.72 31.518 37.401 31.492 37.094C31.441 36.524 31.5 35.999 31.776 35.495C31.841 35.375 31.879 35.232 31.906 35.098C31.924 35.007 31.894 34.906 31.887 34.809C31.683 35.289 31.428 35.757 31.403 36.24C31.372 36.823 31.418 37.408 31.224 37.977C31.221 37.984 31.243 38.004 31.25 38.016ZM31.138 26.035C31.172 26.17 31.172 26.403 31.284 26.561C31.602 27.02 31.653 27.521 31.639 28.054C31.635 28.28 31.715 28.504 31.758 28.728C31.799 28.741 31.84 28.749 31.877 28.759C31.895 28.722 31.924 28.682 31.917 28.648C31.742 27.732 31.755 26.762 31.138 26.035ZM27.574 28.663C27.749 28.726 27.932 28.774 28.098 28.857C28.385 29.004 28.669 29.158 28.939 29.338C29.168 29.494 29.365 29.7 29.587 29.869C29.648 29.913 29.758 29.9 29.844 29.913C29.787 29.831 29.747 29.73 29.671 29.676C29.526 29.572 29.33 29.524 29.214 29.4C28.771 28.93 28.232 28.667 27.574 28.663ZM35.317 31.221L35.348 31.369C36.26 31.191 37.227 31.236 37.994 30.579C37.83 30.625 37.613 30.642 37.459 30.747C37.049 31.038 36.606 31.105 36.12 31.097C35.852 31.092 35.582 31.176 35.317 31.221ZM34.051 29.24C34.1 29.276 34.153 29.309 34.198 29.345C34.575 28.555 35.451 28.052 35.411 26.998C35.342 27.16 35.245 27.296 35.222 27.445C35.149 27.897 34.907 28.232 34.584 28.542C34.375 28.743 34.226 29.007 34.051 29.24ZM26.633 32.896C26.756 32.86 26.953 32.852 27.09 32.757C27.516 32.46 27.975 32.375 28.483 32.39C28.742 32.399 29.007 32.304 29.27 32.255C29.255 32.207 29.248 32.162 29.235 32.114C28.333 32.317 27.358 32.237 26.633 32.896ZM30.531 34.246L30.382 34.149C30.022 34.939 29.144 35.438 29.184 36.489C29.251 36.338 29.34 36.218 29.361 36.089C29.432 35.597 29.702 35.233 30.051 34.898C30.245 34.712 30.373 34.466 30.531 34.246ZM30.401 29.324C30.431 29.302 30.461 29.276 30.492 29.251C30.011 28.754 30.069 27.909 29.387 27.566C29.549 27.841 29.735 28.13 29.895 28.431C29.998 28.624 30.052 28.842 30.154 29.035C30.209 29.145 30.315 29.229 30.401 29.324ZM32.629 28.665C32.68 28.681 32.734 28.692 32.789 28.71C32.8 28.029 33.395 27.478 33.208 26.84C33.093 27.175 32.951 27.576 32.822 27.979C32.749 28.204 32.694 28.435 32.629 28.665ZM28.179 34.579C28.504 34.415 28.847 34.244 29.189 34.069C29.36 33.983 29.533 33.905 29.693 33.801C29.754 33.764 29.784 33.675 29.826 33.61L29.767 33.553C29.314 34.04 28.509 33.981 28.178 34.579M34.724 29.823C34.753 29.864 34.783 29.903 34.812 29.941C35.261 29.451 36.059 29.505 36.388 28.954C36.015 29.127 35.585 29.32 35.166 29.531C35.008 29.608 34.869 29.724 34.724 29.823ZM35.159 35.883C34.999 35.609 34.84 35.35 34.7 35.078C34.593 34.874 34.528 34.648 34.423 34.446C34.37 34.347 34.263 34.275 34.183 34.191L34.107 34.254C34.585 34.72 34.528 35.518 35.159 35.883ZM28.041 34.83C27.647 35.055 27.338 35.362 26.89 35.4C27.152 35.562 27.658 35.316 28.041 34.83ZM35.594 36.173L35.516 36.218C35.649 36.449 35.779 36.679 35.91 36.913C35.941 36.892 35.973 36.875 36.005 36.853C35.867 36.628 35.731 36.398 35.594 36.173ZM28.686 26.561C28.655 26.58 28.624 26.601 28.593 26.618C28.728 26.854 28.864 27.086 28.997 27.319C29.024 27.306 29.052 27.29 29.077 27.277L28.686 26.561Z" fill="#7B4022"/>
<path fill-rule="evenodd" clip-rule="evenodd" d="M31.6333 34.33C31.7403 34.444 31.8133 34.519 31.8843 34.594C30.6163 34.592 29.4053 33.252 29.3783 31.826C29.3513 30.262 30.5573 28.929 32.0693 28.852C33.7013 28.774 35.0573 29.939 35.1793 31.525C35.2913 32.993 34.1853 34.442 32.8193 34.574C32.8633 34.494 32.8963 34.425 32.9413 34.339C32.3483 34.554 32.3483 34.554 31.6333 34.33ZM32.8533 32.06C32.8423 32.089 32.8313 32.122 32.8173 32.151C32.8423 32.164 32.8733 32.174 32.8893 32.193C32.9523 32.267 33.0113 32.34 33.0713 32.417C32.9823 32.434 32.8893 32.457 32.7973 32.47C32.7463 32.478 32.6713 32.449 32.6423 32.474C32.3743 32.72 32.1343 32.64 31.8903 32.493C31.7703 32.476 31.6503 32.458 31.5303 32.438L31.7583 32.068C31.6403 32.101 31.5003 32.104 31.4293 32.173C31.3663 32.232 31.3323 32.396 31.3723 32.463C31.4273 32.558 31.5533 32.627 31.6633 32.67C31.7453 32.701 31.8443 32.676 31.9363 32.676L31.9553 32.76C31.8423 32.794 31.7263 32.86 31.6143 32.855C31.4453 32.849 31.2833 32.855 31.2833 33.055C31.2853 33.224 31.4083 33.337 31.6053 33.337C32.0713 33.333 32.5373 33.335 33.0013 33.333C33.0393 33.333 33.0963 33.339 33.1173 33.316C33.1903 33.225 33.2793 33.13 33.3083 33.025C33.3153 32.987 33.1693 32.881 33.0803 32.854C32.9223 32.81 32.7563 32.799 32.5943 32.777C32.5943 32.75 32.5943 32.722 32.5963 32.692C32.6943 32.684 32.7963 32.695 32.8893 32.668C33.0023 32.632 33.1503 32.59 33.2093 32.503C33.2553 32.428 33.2363 32.253 33.1753 32.179C33.1093 32.102 32.9653 32.096 32.8533 32.06ZM30.5493 30.601C31.4823 30.341 31.8623 30.401 31.8973 30.814C31.4153 30.614 30.9543 30.543 30.5353 30.984C30.9603 31.419 31.4313 31.34 31.9173 31.182C31.5883 31.481 31.1963 31.468 30.7883 31.446C30.9673 31.53 31.1563 31.605 31.3423 31.599C31.5313 31.593 31.7173 31.5 31.9323 31.439V32.06C32.1153 31.755 32.1613 30.814 32.0183 30.567C31.9893 30.5139 31.949 30.4678 31.9003 30.432C31.5833 30.177 30.8063 30.167 30.5493 30.601ZM34.0513 30.983C33.6303 30.537 33.1623 30.621 32.6453 30.823C32.7313 30.431 33.0283 30.446 33.2603 30.444C33.5063 30.444 33.7523 30.526 34.0673 30.586C33.7313 30.259 33.3993 30.2 33.0243 30.286C32.6383 30.375 32.5023 30.518 32.4933 30.903C32.4853 31.213 32.5113 31.527 32.5293 31.837C32.5343 31.902 32.5783 31.968 32.6053 32.032L32.6723 32.019V31.415C33.0703 31.599 33.4343 31.723 33.8703 31.382C33.3903 31.475 33.0003 31.475 32.6723 31.182C33.1583 31.351 33.6213 31.413 34.0513 30.983ZM31.8183 33.862H32.7873C32.6523 33.798 32.5523 33.747 32.4533 33.698C32.4533 33.673 32.4503 33.647 32.4483 33.625C32.6193 33.625 32.7873 33.61 32.9543 33.627C33.1693 33.654 33.2423 33.622 33.3043 33.45H31.2843C31.3913 33.532 31.5243 33.597 31.6613 33.616C31.8373 33.637 32.0153 33.62 32.1923 33.62C32.1923 33.645 32.1923 33.673 32.1883 33.698C32.0753 33.747 31.9623 33.8 31.8203 33.862M29.4793 33.24L26.5143 34.291C26.5053 34.27 26.4993 34.251 26.4893 34.23C27.4833 33.806 28.4733 33.381 29.5413 32.926C29.5073 33.077 29.4883 33.161 29.4743 33.248L29.4793 33.24ZM35.0803 32.97C36.0973 33.393 37.1183 33.815 38.1383 34.238C37.5883 34.213 35.1833 33.289 35.0353 33.078L35.0803 32.97ZM35.1503 30.23L34.8883 30.186L34.8553 30.068C35.1413 29.904 35.4183 29.706 35.7223 29.584C36.0823 29.438 36.3593 29.229 36.5833 28.916C36.7043 28.752 36.8853 28.628 37.0563 28.508C37.2573 28.362 37.4833 28.24 37.7323 28.146C37.6233 28.231 37.5233 28.33 37.4043 28.393C37.0773 28.57 36.8413 28.82 36.6253 29.122C36.4773 29.33 36.2163 29.461 36.0033 29.619C35.7193 29.829 35.4283 30.036 35.1423 30.242L35.1503 30.23Z" fill="#FDD12E"/>
<path fill-rule="evenodd" clip-rule="evenodd" d="M35.14 30.24C36.118 29.897 37.094 29.555 38.074 29.215C38.079 29.234 38.089 29.251 38.094 29.27C37.138 29.676 36.181 30.085 35.223 30.49C35.179 30.507 35.116 30.487 35.061 30.485L35.15 30.23L35.14 30.24ZM32.381 38.11V34.818C32.404 34.808 32.426 34.799 32.45 34.787C32.495 34.858 32.579 34.931 32.574 34.998C32.535 36.036 32.48 37.076 32.426 38.114L32.381 38.11ZM32.375 28.724V25.405L32.417 25.401C32.45 25.959 32.488 26.517 32.516 27.073C32.592 28.574 32.592 28.574 32.375 28.724ZM34.584 26.03C34.196 26.988 33.811 27.951 33.411 28.936C33.171 28.765 33.28 28.601 33.348 28.464C33.641 27.823 33.949 27.193 34.251 26.558C34.34 26.37 34.433 26.185 34.523 26C34.544 26.009 34.563 26.018 34.584 26.03ZM32.2 34.743V38.11C32.021 37.398 31.977 34.966 32.2 34.743ZM35.31 31.579C35.405 31.54 35.501 31.457 35.594 31.462C36.604 31.508 37.614 31.567 38.614 31.675H35.345C35.3311 31.6433 35.3181 31.6113 35.306 31.579M38.648 31.866C37.543 31.927 36.441 32.047 35.337 32.024L35.335 31.866H38.648ZM25.943 31.794C26.958 31.794 27.97 31.792 28.984 31.801C29.062 31.803 29.144 31.872 29.224 31.91C29.135 31.956 29.044 32.043 28.956 32.041C28.435 32.028 27.915 31.994 27.395 31.965C26.908 31.94 26.423 31.908 25.939 31.881C25.943 31.852 25.943 31.824 25.943 31.794ZM32.2 25.398V28.69C32.17 28.698 32.14 28.709 32.111 28.719C32.073 28.624 31.998 28.528 32 28.439C32.049 27.426 32.105 26.415 32.16 25.409L32.2 25.4M26.05 31.634C26.571 31.504 29.042 31.443 29.288 31.634H26.05ZM36.676 27.25C36.033 27.905 35.391 28.563 34.75 29.218C34.666 29.302 34.588 29.395 34.496 29.471C34.46 29.5 34.396 29.498 34.344 29.51C34.34 29.458 34.325 29.401 34.336 29.351C34.3525 29.303 34.3824 29.2607 34.422 29.229C35.159 28.555 35.897 27.88 36.633 27.209C36.6478 27.2228 36.6621 27.2372 36.676 27.252M33.28 34.993V34.616C33.32 34.608 33.36 34.603 33.4 34.599C33.815 35.597 34.228 36.596 34.645 37.596C34.622 37.604 34.601 37.617 34.58 37.625C34.382 37.217 34.19 36.806 33.99 36.399C33.754 35.923 33.513 35.454 33.274 34.982L33.28 34.993ZM27.865 36.402C27.912 36.318 27.941 36.219 28.005 36.154C28.653 35.482 29.305 34.812 29.961 34.154C30.028 34.087 30.15 34.074 30.248 34.032C30.203 34.133 30.185 34.26 30.113 34.326C29.405 34.977 28.687 35.622 27.974 36.268C27.93 36.306 27.901 36.356 27.865 36.402V36.405ZM32.914 28.747C33 28.433 33.06 28.113 33.182 27.816C33.325 27.472 33.373 27.137 33.331 26.764C33.304 26.505 33.364 26.232 33.402 25.968C33.429 25.768 33.482 25.571 33.533 25.326C33.562 25.387 33.611 25.439 33.602 25.477C33.447 26.012 33.392 26.551 33.524 27.105C33.554 27.227 33.474 27.376 33.442 27.511C33.36 27.859 33.282 28.208 33.196 28.554C33.171 28.642 33.114 28.722 33.07 28.806L32.914 28.747ZM31.3 28.518V28.875L31.18 28.9C30.783 27.944 30.386 26.986 29.988 26.032C30.0096 26.0196 30.0324 26.0092 30.056 26.001C30.244 26.388 30.426 26.78 30.619 27.167C30.844 27.622 31.076 28.075 31.305 28.525L31.3 28.518Z" fill="#FDD12E"/>
<path fill-rule="evenodd" clip-rule="evenodd" d="M27.8651 36.4C27.8011 36.391 27.7351 36.381 27.6681 36.375C27.7211 36.029 29.7461 33.82 30.0751 33.795C29.9571 33.935 29.8711 34.048 29.7711 34.149C29.1521 34.78 28.5311 35.41 27.9141 36.04C27.8121 36.145 27.6611 36.251 27.8651 36.402V36.4ZM31.2901 34.614C31.2901 34.714 31.3241 34.831 31.2861 34.911C30.9041 35.739 30.5111 36.56 30.1211 37.382C30.0961 37.373 30.0731 37.361 30.0521 37.353C30.4181 36.437 30.7871 35.518 31.1561 34.602C31.1991 34.604 31.2461 34.608 31.2901 34.614ZM28.6741 37.1C28.7401 37.094 28.8371 37.105 28.8621 37.071C29.1091 36.711 29.4421 36.416 29.5501 35.953C29.6161 35.671 29.8251 35.414 30.0051 35.168C30.2081 34.888 30.4501 34.633 30.7391 34.378C30.7261 34.466 30.7391 34.576 30.6921 34.643C30.5681 34.81 30.4381 34.985 30.2761 35.113C29.8941 35.413 29.7031 35.817 29.5131 36.247C29.3781 36.559 29.1421 36.832 28.9341 37.106C28.8871 37.169 28.7611 37.17 28.6741 37.203V37.1ZM27.9061 27.19C28.0471 27.312 28.1871 27.434 28.3221 27.556C28.8771 28.053 29.4281 28.55 29.9801 29.051C30.0441 29.113 30.1251 29.163 30.1751 29.239C30.2171 29.304 30.2241 29.393 30.2491 29.469C30.1751 29.444 30.0821 29.439 30.0321 29.391C29.5411 28.912 29.0611 28.426 28.5741 27.944C28.3364 27.7103 28.0957 27.4796 27.8521 27.252C27.8701 27.23 27.8911 27.21 27.9061 27.19ZM36.6731 36.32C36.1991 35.892 35.7211 35.469 35.2431 35.038C34.9701 34.789 34.6911 34.541 34.4281 34.281C34.3671 34.222 34.3591 34.113 34.3291 34.026C34.4071 34.053 34.5131 34.06 34.5671 34.117C35.2891 34.829 36.0091 35.545 36.7231 36.259C36.7086 36.281 36.6919 36.3015 36.6731 36.32ZM27.7961 27.435L30.0311 29.651C30.0221 29.676 30.0111 29.702 30.0041 29.727C29.9081 29.676 29.7911 29.649 29.7211 29.575C29.2371 29.055 28.7611 28.524 28.2831 27.998C28.1141 27.812 27.9501 27.627 27.7831 27.442C27.7874 27.4395 27.7917 27.4371 27.7961 27.435ZM26.4941 29.28C27.2911 29.37 29.4341 30.225 29.5531 30.535C28.4911 30.099 27.4931 29.688 26.4941 29.28ZM34.5211 29.663L36.9181 27.433C36.9004 27.4119 36.881 27.3921 36.8601 27.374C36.1131 28.17 35.4301 29.027 34.6401 29.783C34.5997 29.7437 34.56 29.7037 34.5211 29.663ZM35.2301 30.956C35.3551 30.903 35.4761 30.828 35.6071 30.807C35.7766 30.7805 35.9489 30.7775 36.1191 30.798C36.6101 30.858 37.0441 30.701 37.4841 30.51C37.7751 30.386 38.1051 30.346 38.4171 30.266C38.4281 30.31 38.4381 30.354 38.4511 30.399C38.2931 30.423 38.1351 30.439 37.9831 30.481C37.7261 30.554 37.4771 30.645 37.2201 30.723C36.9471 30.807 36.6771 30.916 36.3991 30.956C36.0271 31.013 35.6471 31.013 35.2701 31.038C35.258 31.0101 35.2447 30.9827 35.2301 30.956ZM33.7971 29.1C33.8561 28.976 33.9001 28.839 33.9781 28.732C34.0811 28.594 34.2041 28.466 34.3361 28.365C34.7171 28.079 34.8901 27.669 35.0721 27.251C35.2011 26.954 35.4121 26.691 35.6091 26.433C35.6641 26.357 35.7971 26.34 35.8981 26.326C35.5421 26.534 35.2721 26.86 35.1751 27.204C35.0111 27.807 34.7011 28.273 34.2651 28.691C34.1261 28.826 34.0301 29.003 33.9131 29.158C33.8752 29.1373 33.8365 29.1179 33.7971 29.1ZM29.8121 25.956L31.0501 28.942L30.9831 29.004C30.9201 28.953 30.8171 28.922 30.7941 28.858C30.4391 27.902 30.0951 26.942 29.7491 25.981C29.7709 25.9746 29.7919 25.9662 29.8121 25.956ZM29.4051 30.767C29.3181 30.767 29.2191 30.796 29.1461 30.761C28.2781 30.357 27.4131 29.942 26.5761 29.463C27.5241 29.855 28.4721 30.246 29.4221 30.636C29.4161 30.681 29.4091 30.723 29.4051 30.767ZM29.8011 37.746C29.7151 37.458 30.6951 34.68 31.0281 34.472C30.9811 34.621 30.9601 34.718 30.9241 34.811C30.5841 35.66 30.2411 36.504 29.9061 37.353C29.8521 37.487 29.8281 37.633 29.8011 37.746ZM38.1601 29.47C37.1771 29.922 36.2171 30.43 35.2161 30.843C35.1941 30.786 35.1681 30.734 35.1431 30.679C36.1371 30.253 37.1261 29.829 38.1191 29.405L38.1601 29.47ZM31.3101 28.525C31.3721 27.824 31.3821 27.139 31.0201 26.485C30.8851 26.234 30.8851 25.91 30.8051 25.546C30.9211 25.613 30.9511 25.619 30.9511 25.63C30.9991 26.171 31.1171 26.69 31.4181 27.161C31.4961 27.283 31.4921 27.469 31.4961 27.626C31.5051 28.004 31.4981 28.383 31.4981 28.76C31.4353 28.6818 31.3726 28.6035 31.3101 28.525ZM33.2801 34.983C33.2181 35.673 33.1891 36.358 33.5621 36.993C33.7241 37.266 33.7661 37.585 33.7171 37.852C33.5241 37.311 33.2691 36.754 33.1321 36.167C33.0271 35.71 33.0671 35.221 33.0391 34.669L33.2831 34.991C33.2861 34.994 33.2801 34.983 33.2801 34.983ZM33.7861 34.568L34.7691 37.365C34.7461 37.371 34.7271 37.38 34.7061 37.386C34.3141 36.439 33.9231 35.49 33.5291 34.545C33.5511 34.528 33.5731 34.511 33.5951 34.496C33.6611 34.523 33.7261 34.549 33.7911 34.579L33.7861 34.568ZM38.0001 34.03C37.0441 33.638 36.0901 33.242 35.1341 32.846C35.1411 32.814 35.1491 32.779 35.1551 32.744C35.2531 32.744 35.3641 32.713 35.4461 32.751C36.3051 33.153 37.1631 33.564 38.0221 33.974L38.0001 34.03ZM33.5501 28.966L34.8031 25.843C34.7751 26.384 33.8191 28.878 33.5501 28.966Z" fill="#FDD12E"/>
<path fill-rule="evenodd" clip-rule="evenodd" d="M33.792 34.579C33.819 34.501 33.843 34.421 33.883 34.296C34.291 34.636 34.355 35.113 34.597 35.476C34.832 35.832 35.187 36.115 35.469 36.445C35.071 36.157 34.617 35.953 34.403 35.445C34.268 35.123 33.997 34.861 33.787 34.573L33.792 34.581M26.541 33.977C27.484 33.562 28.386 33.052 29.349 32.679C29.368 32.732 29.391 32.783 29.414 32.831C28.471 33.235 27.526 33.642 26.583 34.044C26.568 34.022 26.554 33.997 26.541 33.977ZM35.37 32.14C35.472 32.14 35.577 32.119 35.674 32.145C35.838 32.185 36.004 32.235 36.153 32.315C36.602 32.568 37.074 32.589 37.579 32.57C37.895 32.555 38.222 32.677 38.536 32.761C38.62 32.784 38.682 32.89 38.74 32.974C38.249 32.734 37.759 32.591 37.209 32.662C37.0027 32.6934 36.7922 32.6828 36.59 32.631C36.179 32.507 35.783 32.338 35.381 32.191C35.376 32.174 35.374 32.157 35.37 32.14ZM36.52 35.699C35.868 35.067 35.209 34.433 34.557 33.8C34.561 33.784 34.568 33.773 34.574 33.755C34.652 33.793 34.751 33.81 34.805 33.869C35.374 34.486 35.934 35.109 36.498 35.728C36.507 35.7197 36.5144 35.7099 36.52 35.699Z" fill="#FDD12E"/>
<path fill-rule="evenodd" clip-rule="evenodd" d="M38.0002 32.784C37.0272 33.208 36.1972 32.7 35.3262 32.613C35.2942 32.611 35.2732 32.523 35.2302 32.44C35.7612 32.358 36.1532 32.698 36.5992 32.767C37.0422 32.837 37.5012 32.784 38.0002 32.784ZM29.2902 31.13C28.4392 31.05 27.6752 30.413 26.7612 30.753C27.2712 30.559 27.7612 30.466 28.2762 30.693C28.5072 30.795 28.7852 30.784 29.0362 30.842C29.1482 30.869 29.2472 30.937 29.3522 30.988C29.3302 31.035 29.3102 31.083 29.2902 31.13ZM29.4732 33.25C29.5472 33.279 29.6222 33.311 29.7262 33.353C29.3992 33.724 28.9612 33.819 28.6062 34.042C28.2642 34.255 28.0012 34.587 27.6872 34.853C27.9022 34.453 28.1352 34.09 28.5882 33.88C28.9122 33.728 29.1822 33.458 29.4792 33.241L29.4732 33.25ZM29.1002 26.944C29.8412 27.403 30.1852 28.184 30.6712 28.854C30.7172 28.919 30.7132 29.027 30.7332 29.115C30.6552 29.082 30.5412 29.067 30.5032 29.006C30.3548 28.7703 30.2254 28.5232 30.1162 28.267C29.9972 27.9581 29.7916 27.6901 29.5242 27.495C29.3382 27.355 29.1952 27.166 29.0312 26.998C29.053 26.9784 29.076 26.9604 29.1002 26.944ZM31.6082 34.714C31.6632 35.213 31.3702 35.587 31.2922 36.011C31.2212 36.419 31.2772 36.854 31.2592 37.273C31.0332 36.59 31.2522 34.918 31.6082 34.714ZM34.8132 33.478C35.0552 33.663 35.3252 33.825 35.5292 34.042C35.8312 34.359 36.1642 34.587 36.5992 34.665C36.7462 34.692 36.8812 34.789 37.0252 34.853L36.9702 34.973C36.5572 34.784 36.1252 34.627 35.7402 34.396C35.3692 34.174 35.0452 33.875 34.7022 33.613C34.7402 33.565 34.7752 33.521 34.8132 33.478ZM33.4532 37.431C32.7942 36.71 32.8632 35.743 32.6742 34.849C32.6702 34.829 32.7252 34.8 32.8232 34.703C32.8762 34.993 32.9562 35.219 32.9522 35.444C32.9372 35.979 32.9872 36.48 33.3122 36.933C33.4152 37.076 33.4172 37.291 33.4532 37.431Z" fill="#FDD12E"/>
<path fill-rule="evenodd" clip-rule="evenodd" d="M31.2401 38.02C31.2331 38.007 31.2111 37.988 31.2151 37.98C31.4081 37.411 31.3621 36.826 31.3941 36.243C31.4191 35.761 31.6741 35.293 31.8781 34.812C31.8851 34.909 31.9141 35.01 31.8971 35.101C31.8738 35.2391 31.83 35.3729 31.7671 35.498C31.4911 36.002 31.4321 36.526 31.4831 37.097C31.5081 37.405 31.3831 37.723 31.3271 38.038C31.2991 38.03 31.2691 38.026 31.2401 38.02ZM31.1301 26.04C31.7471 26.767 31.7341 27.737 31.9091 28.653C31.9161 28.687 31.8871 28.727 31.8691 28.764C31.8321 28.754 31.7911 28.745 31.7501 28.733C31.7071 28.509 31.6271 28.285 31.6311 28.059C31.6451 27.526 31.5941 27.025 31.2761 26.566C31.1641 26.408 31.1641 26.175 31.1301 26.04ZM27.5681 28.671C28.2251 28.675 28.7641 28.939 29.2091 29.408C29.3251 29.532 29.5221 29.581 29.6661 29.684C29.7421 29.739 29.7821 29.839 29.8391 29.921C29.7531 29.908 29.6431 29.921 29.5821 29.877C29.3591 29.708 29.1631 29.502 28.9341 29.346C28.6634 29.1693 28.3826 29.0087 28.0931 28.865C27.9271 28.782 27.7431 28.734 27.5681 28.671ZM27.2301 32.911C27.4541 32.79 27.6601 32.6 27.8961 32.561C28.3551 32.485 28.8291 32.493 29.3511 32.463C29.2891 32.537 29.2541 32.617 29.2021 32.632C29.0496 32.6812 28.8903 32.7065 28.7301 32.707C28.2151 32.68 27.7101 32.707 27.2261 32.903L27.2301 32.911ZM35.3101 31.23C35.5761 31.184 35.8451 31.1 36.1131 31.106C36.5991 31.115 37.0421 31.047 37.4521 30.756C37.6061 30.651 37.8231 30.634 37.9871 30.588C37.2201 31.245 36.2541 31.2 35.3411 31.378C35.3291 31.33 35.3201 31.279 35.3101 31.23ZM34.0501 29.25C34.2251 29.017 34.3741 28.753 34.5831 28.553C34.9051 28.243 35.1471 27.908 35.2211 27.456C35.2441 27.307 35.3411 27.171 35.4101 27.009C35.4501 28.063 34.5741 28.566 34.1971 29.356C34.1511 29.319 34.0991 29.286 34.0501 29.25Z" fill="#FDD12E"/>
<path fill-rule="evenodd" clip-rule="evenodd" d="M26.627 32.904C27.352 32.245 28.327 32.325 29.229 32.123C29.242 32.171 29.25 32.216 29.264 32.264C29.001 32.313 28.736 32.408 28.477 32.399C27.969 32.384 27.51 32.469 27.084 32.766C26.947 32.86 26.75 32.868 26.627 32.904ZM30.525 34.25C30.367 34.47 30.239 34.716 30.045 34.901C29.695 35.236 29.426 35.6 29.355 36.092C29.334 36.221 29.246 36.341 29.178 36.492C29.138 35.441 30.016 34.942 30.376 34.152C30.427 34.184 30.478 34.219 30.525 34.25ZM27.92 28.945C28.355 29.038 28.704 29.258 28.999 29.595C29.187 29.808 29.439 29.968 29.643 30.207C29.544 30.183 29.429 30.176 29.351 30.119C29.198 30.008 29.073 29.86 28.925 29.742C28.639 29.516 28.342 29.304 28.053 29.083C28.005 29.043 27.965 28.99 27.925 28.941L27.92 28.945ZM36.745 34.538C36.3325 34.5034 35.9501 34.3085 35.68 33.995C35.454 33.749 35.176 33.553 34.951 33.265C35.065 33.316 35.191 33.347 35.288 33.418C35.423 33.52 35.562 33.631 35.657 33.77C35.927 34.162 36.354 34.322 36.737 34.545L36.745 34.538ZM30.395 29.332C30.309 29.237 30.204 29.153 30.147 29.044C30.045 28.851 29.991 28.633 29.888 28.44C29.728 28.139 29.542 27.85 29.38 27.575C30.063 27.918 30.004 28.763 30.485 29.26C30.454 29.284 30.425 29.31 30.395 29.332ZM32.623 28.673C32.688 28.444 32.743 28.212 32.816 27.986C32.945 27.584 33.087 27.182 33.202 26.847C33.39 27.485 32.794 28.036 32.783 28.717C32.729 28.7 32.674 28.688 32.623 28.673ZM28.17 34.587C28.501 33.989 29.306 34.048 29.759 33.562L29.818 33.619C29.776 33.684 29.746 33.773 29.685 33.81C29.525 33.914 29.352 33.992 29.181 34.078C28.838 34.252 28.494 34.423 28.17 34.587ZM27.21 30.945C27.473 30.924 27.755 30.841 28.001 30.897C28.414 30.992 28.808 31.177 29.215 31.375C29.08 31.362 28.937 31.378 28.813 31.333C28.558 31.249 28.32 31.104 28.063 31.04C27.785 30.971 27.493 30.971 27.21 30.945ZM34.719 29.831C34.865 29.732 35.003 29.616 35.161 29.539C35.58 29.328 36.01 29.135 36.383 28.962C36.054 29.514 35.256 29.459 34.807 29.949C34.7766 29.9104 34.7472 29.8711 34.719 29.831ZM35.15 35.889C34.519 35.525 34.576 34.726 34.097 34.261L34.173 34.198C34.253 34.282 34.361 34.354 34.413 34.453C34.518 34.655 34.583 34.881 34.69 35.085C34.831 35.355 34.99 35.614 35.15 35.889Z" fill="#FDD12E"/>
<path fill-rule="evenodd" clip-rule="evenodd" d="M27.9249 28.942C27.4829 29.004 26.7959 28.454 26.8849 28.148C27.1349 28.517 27.4769 28.791 27.9179 28.947L27.9249 28.942ZM28.0399 34.836C27.6569 35.322 27.1509 35.568 26.8889 35.41C27.3369 35.368 27.6469 35.061 28.0399 34.836ZM36.7359 34.545C37.1779 34.596 37.4789 34.851 37.7049 35.21C37.7319 35.248 37.7139 35.317 37.6719 35.368C37.6379 35.29 37.6229 35.182 37.5649 35.139C37.2989 34.929 37.0209 34.737 36.7479 34.538L36.7359 34.545ZM27.2299 32.904C26.9099 33.17 26.5349 33.195 26.1499 33.177L26.1349 33.102C26.5009 33.039 26.8669 32.973 27.2339 32.911L27.2299 32.904ZM27.2099 30.945C26.7879 30.981 26.3759 30.965 26.0259 30.663C26.4199 30.758 26.8159 30.853 27.2099 30.945ZM35.5889 36.18L35.9989 36.861C35.9679 36.882 35.9359 36.899 35.9039 36.921C35.7739 36.6885 35.6426 36.4569 35.5099 36.226C35.5379 36.21 35.5629 36.193 35.5889 36.18ZM28.6809 26.567L29.0729 27.283C29.0479 27.296 29.0199 27.312 28.9929 27.325C28.8599 27.092 28.7229 26.86 28.5889 26.624C28.6189 26.607 28.6489 26.586 28.6809 26.567Z" fill="#FDD12E"/>
<path fill-rule="evenodd" clip-rule="evenodd" d="M32.8532 32.06C32.9652 32.096 33.1102 32.103 33.1752 32.178C33.2372 32.252 33.2552 32.427 33.2092 32.502C33.1492 32.589 33.0022 32.631 32.8892 32.667C32.7962 32.694 32.6942 32.684 32.5962 32.691C32.5942 32.721 32.5942 32.749 32.5942 32.776C32.7562 32.798 32.9222 32.809 33.0802 32.853C33.1692 32.88 33.3142 32.986 33.3082 33.024C33.2792 33.129 33.1902 33.224 33.1172 33.315C33.0962 33.337 33.0392 33.332 33.0012 33.332C32.5362 33.334 32.0702 33.332 31.6052 33.336C31.4082 33.336 31.2852 33.223 31.2832 33.054C31.2832 32.854 31.4452 32.848 31.6142 32.854C31.7252 32.859 31.8422 32.793 31.9552 32.759L31.9362 32.675C31.8432 32.675 31.7452 32.7 31.6632 32.669C31.5532 32.626 31.4272 32.557 31.3722 32.462C31.3322 32.395 31.3652 32.231 31.4292 32.172C31.5002 32.103 31.6402 32.1 31.7582 32.067L31.5302 32.437C31.6502 32.457 31.7702 32.475 31.8902 32.492C32.1342 32.639 32.3742 32.72 32.6422 32.473C32.6712 32.448 32.7462 32.477 32.7972 32.469C32.8902 32.456 32.9832 32.433 33.0712 32.416C33.012 32.3402 32.9513 32.2655 32.8892 32.192C32.8722 32.173 32.8422 32.163 32.8172 32.15C32.8302 32.121 32.8422 32.089 32.8532 32.06ZM31.8822 32.97V33.059H32.7102V32.97H31.8822ZM30.5492 30.603C30.8062 30.169 31.5832 30.179 31.8992 30.434C31.9479 30.4698 31.9882 30.5159 32.0172 30.569C32.1612 30.816 32.1142 31.757 31.9312 32.062V31.441C31.7162 31.503 31.5312 31.595 31.3412 31.601C31.1552 31.607 30.9662 31.532 30.7872 31.448C31.1952 31.47 31.5872 31.483 31.9162 31.184C31.4302 31.342 30.9592 31.42 30.5342 30.986C30.9532 30.545 31.4142 30.616 31.8962 30.816C31.8612 30.402 31.4812 30.343 30.5492 30.603ZM31.5212 30.979C31.4082 30.897 31.3302 30.799 31.2812 30.815C31.2082 30.836 31.1532 30.93 31.0922 30.994C31.1552 31.047 31.2172 31.131 31.2812 31.136C31.3432 31.14 31.4102 31.058 31.5212 30.979ZM34.0502 30.985C33.6202 31.415 33.1572 31.352 32.6712 31.183C32.9992 31.476 33.3892 31.476 33.8692 31.383C33.4322 31.724 33.0692 31.6 32.6712 31.416V32.02L32.6042 32.033C32.5772 31.969 32.5332 31.903 32.5282 31.838C32.5092 31.528 32.4842 31.214 32.4922 30.904C32.5012 30.519 32.6382 30.376 33.0232 30.287C33.3982 30.201 33.7302 30.26 34.0662 30.587C33.7522 30.527 33.5052 30.445 33.2592 30.445C33.0272 30.447 32.7302 30.432 32.6442 30.824C33.1612 30.623 33.6292 30.539 34.0502 30.985ZM33.2282 31.242L33.3612 31.171C33.4012 31.104 33.4852 31.028 33.4752 30.971C33.4592 30.908 33.3662 30.86 33.3062 30.805C33.2472 30.87 33.1532 30.929 33.1402 31.003C33.1282 31.076 33.1952 31.163 33.2282 31.242ZM31.8182 33.864L32.1852 33.7C32.1892 33.675 32.1892 33.647 32.1892 33.622C32.0122 33.622 31.8342 33.64 31.6582 33.618C31.5205 33.5955 31.3908 33.5384 31.2812 33.452H33.3012C33.2392 33.624 33.1662 33.656 32.9512 33.629C32.7842 33.612 32.6162 33.627 32.4452 33.627C32.4472 33.649 32.4502 33.675 32.4502 33.7C32.5492 33.749 32.6492 33.8 32.7842 33.864H31.8162" fill="#7B4022"/>
<path fill-rule="evenodd" clip-rule="evenodd" d="M31.8818 32.972H32.7098V33.061H31.8818V32.972ZM31.5208 30.979C31.4098 31.057 31.3418 31.139 31.2808 31.135C31.2168 31.13 31.1548 31.046 31.0918 30.993C31.1538 30.93 31.2078 30.835 31.2808 30.814C31.3298 30.8 31.4078 30.897 31.5208 30.979ZM33.2298 31.24C33.1968 31.161 33.1288 31.074 33.1418 31.001C33.1548 30.927 33.2488 30.868 33.3078 30.803C33.3678 30.858 33.4608 30.906 33.4768 30.969C33.4868 31.027 33.4028 31.102 33.3628 31.169C33.3183 31.1923 33.2739 31.216 33.2298 31.24Z" fill="#FDD12E"/>
</svg>
