<?xml version="1.0" encoding="UTF-8"?>
<svg id="Calque_4" data-name="Calque 4" xmlns="http://www.w3.org/2000/svg" viewBox="0 0 157.14 158.01">
  <defs>
    <style>
      .cls-1 {
        fill: #5e8aa5;
      }

      .cls-1, .cls-2, .cls-3 {
        stroke-width: 0px;
      }

      .cls-2 {
        fill: #de9b94;
      }

      .cls-3 {
        fill: #e5dfca;
      }
    </style>
  </defs>
  <path class="cls-2" d="M115.84,49.03l-16.58,6.26s-5.66,2.69-25.57,13.33c-1.61.86-3.27,1.74-4.99,2.62l-42.4,20.02s-2.96-6.9-2.96-6.9c0,0,40.12-18.34,41.31-18.91,1.19-.57,44.98-26.06,45.65-25.64.53.3,3.46,5.33,5.55,9.23Z"/>
  <path class="cls-3" d="M39.36,117.99c2.86,2.63,39.23-19.09,41.34-19.69,2.11-.62,53.3-21.4,53.3-21.4,0,0-14.91-21.26-16.61-24.82-.38-.82-.94-1.89-1.55-3.06l-16.59,6.26s-5.65,2.7-25.57,13.33c-1.61.86-3.28,1.74-5,2.62l-42.39,20.02c4.06,9.3,11.05,24.92,13.07,26.74ZM106.43,67.4l10.45-4.94,8.46,12.67s-8.32,3.12-9.35,3.26c-1,.14-13.76,6.44-13.76,6.44,0,0-3.22-9.49-5.96-14.2l10.17-3.24ZM66.82,77.49s1.4-1.11,1.71-1.18c.32-.06,1.11,1.16,1.15,1.63.04.47,1.16,8.69.88,8.99-.27.3-1.93.71-2.05.75-.12.01-1.91-2.39-2.16-2.76-.23-.37-1.87-2.15-1.87-2.15,0,0,1.07,5.92,1.16,6.27.12.36-1.42,1.16-1.72,1.4l-1.47-3.8s-.98-6.21-1.04-6.39c-.06-.19,1.43-2,1.43-2,0,0,2.1,1.16,2.47,1.56.38.39,1.95,3.07,1.95,3.07l-.44-5.39ZM60.52,79.81s.45,5.49.53,6.1c.08.59.61,5.1.66,5.19.04.11-1.84,1-1.84,1,0,0-1.53-6.64-1.5-6.85.04-.22-.05-4.61-.05-4.61l2.2-.84ZM54.6,83.24s4.67,8.86,4.76,9.28l-2.51.62-1.15-1.66s-2.4-.08-2.67.12c-.29.2.34,3.13-.04,3.35-.38.23-2.48.99-2.48.99l.38-9.82,1.25-2.86,2.46-.02ZM43.92,86.88c1.04-.31,2.65.17,3.32.46.66.28.25,3.43,0,3.91-.24.49.34,2.22.6,2.61.27.36,2.64,2.55,2.64,2.55l-3.06,1.45-1.7-2.01-1.36-.97-1.22,1.23.47,3.19-3.07,1.48-.26-6.55-.18-3.94s2.75-3.09,3.81-3.41ZM39.04,92.38l-3.11,1.09,1.02,4.67,1.48,4.01-2.81.99-1.99-8.56-2.4,1.12-.64-2.19s8-3.49,8.24-3.56c.23-.06.21,2.43.21,2.43Z"/>
  <path class="cls-1" d="M39.05,92.38l-3.11,1.09,1.02,4.67,1.48,4.02-2.8.98-2-8.56-2.39,1.13-.64-2.2s8-3.5,8.25-3.56c.23-.07.21,2.43.21,2.43Z"/>
  <path class="cls-1" d="M40.11,90.29l.18,3.94.26,6.55,3.07-1.48-.47-3.19,1.22-1.23,1.36.97,1.7,2.01,3.06-1.45s-2.37-2.19-2.64-2.55c-.26-.39-.84-2.12-.6-2.61.24-.49.65-3.64,0-3.91-.67-.29-2.28-.77-3.32-.46-1.05.32-3.81,3.41-3.81,3.41ZM44.45,88.78s1.43.56,1.67.79c.24.24-1.22,2.05-1.4,2.31-.17.26-1.87.69-2.23.43-.38-.23-.43-1.32-.43-1.32l1.5-1.56.9-.65Z"/>
  <path class="cls-1" d="M50.89,86.12l-.38,9.82s2.09-.76,2.48-.99c.38-.22-.26-3.15.04-3.35.28-.2,2.67-.12,2.67-.12l1.15,1.66,2.51-.62c-.09-.42-4.76-9.28-4.76-9.28l-2.46.02-1.25,2.86ZM54.21,87.35c.16.17.36,1.02.08,1.94-.29.91-1.49.65-2.02-.06-.54-.71.62-3.32.7-3.5,0,0,1.11,1.44,1.24,1.61Z"/>
  <path class="cls-1" d="M60.52,79.82s.45,5.5.53,6.1c.09.59.62,5.1.66,5.2.05.11-1.84,1-1.84,1,0,0-1.53-6.64-1.5-6.85.03-.22-.06-4.61-.06-4.61l2.21-.83Z"/>
  <path class="cls-1" d="M69.68,77.94c.04.47,1.16,8.7.88,8.99-.27.3-1.93.73-2.04.75-.12.02-1.91-2.39-2.16-2.76-.24-.37-1.87-2.16-1.87-2.16,0,0,1.07,5.92,1.17,6.27.12.36-1.43,1.16-1.73,1.4l-1.47-3.79s-.98-6.21-1.04-6.4c-.07-.19,1.42-2,1.42-2,0,0,2.1,1.16,2.48,1.56s1.95,3.07,1.95,3.07l-.43-5.39s1.4-1.11,1.71-1.17c.31-.07,1.12,1.16,1.15,1.62Z"/>
  <path class="cls-1" d="M116.88,62.46l8.46,12.68s-8.33,3.11-9.35,3.25c-1.01.14-13.76,6.44-13.76,6.44,0,0-3.22-9.5-5.96-14.2l10.16-3.24,10.45-4.94Z"/>
  <path class="cls-2" d="M116.88,62.46l8.46,12.68s-8.33,3.11-9.35,3.25c-1.01.14-13.76,6.44-13.76,6.44,0,0-3.22-9.5-5.96-14.2l10.16-3.24,10.45-4.94Z"/>
  <g>
    <path class="cls-2" d="M39.05,92.38l-3.11,1.09,1.02,4.67,1.48,4.02-2.8.98-2-8.56-2.39,1.13-.64-2.2s8-3.5,8.25-3.56c.23-.07.21,2.43.21,2.43Z"/>
    <path class="cls-2" d="M40.11,90.29l.18,3.94.26,6.55,3.07-1.48-.47-3.19,1.22-1.23,1.36.97,1.7,2.01,3.06-1.45s-2.37-2.19-2.64-2.55c-.26-.39-.84-2.12-.6-2.61.24-.49.65-3.64,0-3.91-.67-.29-2.28-.77-3.32-.46-1.05.32-3.81,3.41-3.81,3.41ZM44.45,88.78s1.43.56,1.67.79c.24.24-1.22,2.05-1.4,2.31-.17.26-1.87.69-2.23.43-.38-.23-.43-1.32-.43-1.32l1.5-1.56.9-.65Z"/>
    <path class="cls-3" d="M43.55,89.43l.9-.65s1.43.56,1.67.79c.24.24-1.22,2.05-1.4,2.31-.17.26-1.87.69-2.23.43-.38-.23-.43-1.32-.43-1.32l1.5-1.56Z"/>
    <path class="cls-2" d="M50.89,86.12l-.38,9.82s2.09-.76,2.48-.99c.38-.22-.26-3.15.04-3.35.28-.2,2.67-.12,2.67-.12l1.15,1.66,2.51-.62c-.09-.42-4.76-9.28-4.76-9.28l-2.46.02-1.25,2.86ZM54.21,87.35c.16.17.36,1.02.08,1.94-.29.91-1.49.65-2.02-.06-.54-.71.62-3.32.7-3.5,0,0,1.11,1.44,1.24,1.61Z"/>
    <path class="cls-3" d="M52.97,85.74s1.11,1.44,1.24,1.61c.16.17.36,1.02.08,1.94-.29.91-1.49.65-2.02-.06-.54-.71.62-3.32.7-3.5Z"/>
    <path class="cls-2" d="M60.52,79.82s.45,5.5.53,6.1c.09.59.62,5.1.66,5.2.05.11-1.84,1-1.84,1,0,0-1.53-6.64-1.5-6.85.03-.22-.06-4.61-.06-4.61l2.21-.83Z"/>
    <path class="cls-2" d="M69.68,77.94c.04.47,1.16,8.7.88,8.99-.27.3-1.93.73-2.04.75-.12.02-1.91-2.39-2.16-2.76-.24-.37-1.87-2.16-1.87-2.16,0,0,1.07,5.92,1.17,6.27.12.36-1.43,1.16-1.73,1.4l-1.47-3.79s-.98-6.21-1.04-6.4c-.07-.19,1.42-2,1.42-2,0,0,2.1,1.16,2.48,1.56s1.95,3.07,1.95,3.07l-.43-5.39s1.4-1.11,1.71-1.17c.31-.07,1.12,1.16,1.15,1.62Z"/>
  </g>
</svg>