<?xml version="1.0" encoding="UTF-8"?>
<svg id="Calque_8" data-name="Calque 8" xmlns="http://www.w3.org/2000/svg" viewBox="0 0 57.01 20.4">
  <defs>
    <style>
      .cls-1 {
        fill: #386f9c;
      }

      .cls-1, .cls-2 {
        stroke-width: 0px;
      }

      .cls-2 {
        fill: #fff;
      }
    </style>
  </defs>
  <path class="cls-1" d="M1.2,20.39C.3,14.14.37,10.87.37,10.87.37,10.87-.46,0,.37,0s11.79.16,12.91.16,21.85.43,21.85.43C35.13.6,55.31-.06,56.52,0c1.21.05-.18,13.7-.18,13.7l.18,6.69s-13.68-.03-15.94-.28c-4.45-.49-17.83-.23-17.83-.23l-21.55.51h0Z"/>
  <path class="cls-2" d="M9.85,14.43l-1.75-3.18h-.49v3.18h-2.05V6h3.44c.66,0,1.23.12,1.7.35.47.23.82.55,1.05.95.23.4.35.85.35,1.35,0,.56-.16,1.06-.47,1.5-.32.44-.78.75-1.4.94l1.94,3.34h-2.32ZM7.6,9.8h1.27c.38,0,.66-.09.85-.28.19-.18.28-.44.28-.78,0-.32-.09-.57-.28-.76-.19-.18-.47-.28-.85-.28h-1.27v2.09Z"/>
  <path class="cls-2" d="M15.43,7.65v1.7h2.75v1.58h-2.75v1.85h3.11v1.64h-5.16V6h5.16v1.64h-3.11Z"/>
  <path class="cls-2" d="M25.93,6v1.64h-2.23v6.78h-2.05v-6.78h-2.23v-1.64h6.52Z"/>
  <path class="cls-2" d="M28.76,13.96c-.66-.37-1.18-.88-1.57-1.54-.39-.66-.58-1.4-.58-2.23s.19-1.56.58-2.22c.39-.66.91-1.17,1.57-1.54s1.39-.55,2.18-.55,1.52.18,2.18.55,1.18.88,1.56,1.54.57,1.4.57,2.22-.19,1.57-.58,2.23-.9,1.17-1.56,1.54c-.66.37-1.38.55-2.17.55s-1.52-.18-2.18-.55ZM32.56,11.97c.4-.45.61-1.04.61-1.78s-.2-1.34-.61-1.78c-.4-.44-.94-.67-1.61-.67s-1.22.22-1.63.66c-.4.44-.61,1.04-.61,1.79s.2,1.34.61,1.78c.4.44.95.67,1.63.67s1.21-.22,1.61-.67Z"/>
  <path class="cls-2" d="M38.41,6v5.04c0,.5.12.89.37,1.16.25.27.61.41,1.09.41s.85-.14,1.1-.41c.26-.27.38-.66.38-1.16v-5.04h2.05v5.03c0,.75-.16,1.39-.48,1.91-.32.52-.75.91-1.29,1.18-.54.26-1.14.4-1.81.4s-1.26-.13-1.78-.39c-.52-.26-.94-.65-1.24-1.18-.3-.52-.46-1.16-.46-1.91v-5.03h2.05Z"/>
  <path class="cls-2" d="M49.15,14.43l-1.75-3.18h-.49v3.18h-2.05V6h3.44c.66,0,1.23.12,1.7.35.47.23.82.55,1.05.95.23.4.35.85.35,1.35,0,.56-.16,1.06-.47,1.5-.32.44-.78.75-1.4.94l1.94,3.34h-2.32ZM46.9,9.8h1.27c.38,0,.66-.09.85-.28.19-.18.28-.44.28-.78,0-.32-.09-.57-.28-.76-.19-.18-.47-.28-.85-.28h-1.27v2.09Z"/>
</svg>