<?xml version="1.0" encoding="UTF-8"?>
<svg id="Calque_4" data-name="Calque 4" xmlns="http://www.w3.org/2000/svg" viewBox="0 0 185.25 225.68">
  <defs>
    <style>
      .cls-1 {
        fill: #d85f45;
      }

      .cls-1, .cls-2 {
        stroke-width: 0px;
      }

      .cls-2 {
        fill: #e5dfca;
      }
    </style>
  </defs>
  <path class="cls-1" d="M38.37,57.73s-12.45-6.3-17.77-6.4c0,0-7.65,2.43-8.04,5.58-.39,3.14,2.64,18.65,2.64,18.65,0,0,11.71,30.76,13.65,33.1,1.93,2.34,16.25,14.83,16.25,14.83,0,0,17.95,4.74,21.96,5.81,4.01,1.07,9.83-1.17,9.83-1.17l-7.8-11.12s-11.21,5.12-14.87,4.37-18.53-18.08-20.02-20.9c-1.49-2.81-11.66-31.14-10.25-32.26l22.87,14.86-8.45-25.34Z"/>
  <path class="cls-1" d="M137.41,41.93s9.49-13.07,13.8-14.34c4.3-1.27,12.87,7.73,12.87,7.73,0,0,1.48,31.49,1.24,36.97s-13.35,41.13-19.06,42.22c-5.71,1.1-18.34,4.21-18.34,4.21,0,0-4.14-.38-6.55-2.41l6.24-11.15s9.04-.19,13.05-1.76c4.01-1.56,11.29-10.76,11.29-10.76l5.51-24.5s1.03-11.65-2.09-15.4c-3.12-3.75-4.37-5.11-4.37-5.11l-12.19,9.77-1.38-15.47Z"/>
  <path class="cls-1" d="M137.3,23.02c.1,2.12-25.91,16.25-30.22,17.68-4.31,1.43-51.19,7.02-51.19,7.02,0,0-23.02-3.85-23.41-7.44,0,0,41.22-17.64,49.88-18.68,8.66-1.04,33.34-4.54,36.22-3.86,2.88.67,18.63,3.16,18.72,5.28Z"/>
  <path class="cls-2" d="M137.3,23.02s5.07,45.41,4.11,52c-.96,6.58-12.29,42.74-13.92,44.53-.93,1.03-4.39,6.06-8.49,10.49v.02c-3.02,3.25-6.38,6.17-9.37,6.95-6.94,1.81-24.2-.39-24.71-.45h-.02s-31.67-30.42-31.85-31.37-20.3-55.99-20.33-57.46c-.04-1.47-.25-7.44-.25-7.44.38,3.59,23.41,7.44,23.41,7.44,0,0,46.89-5.59,51.19-7.02,4.31-1.43,30.31-15.56,30.22-17.68Z"/>
  <path class="cls-1" d="M132.25,175.99s-18.2,6.63-20.12,7c-1.93.37-20.17,1.52-20.17,1.52,2.8-1.03,9.58-9.98,9.58-9.98l-1.16-6.1-9.55-7.32s-.52-2.73,1.44-6.27c1.97-3.54,1.45-12.59,1.45-12.59l-8.78-5.72c.51.06,17.77,2.26,24.71.45,2.99-.78,6.35-3.7,9.36-6.95,0,0-3.95,4.75-2.12,8.77,1.09,2.4,4.01,9.07,6.66,10.73,2.64,1.65-.82,9.63-2.38,11.93-1.56,2.29-2.25,7.41-1.49,8.76.76,1.35,12.58,5.75,12.58,5.75Z"/>
  <path class="cls-2" d="M134.96,182c-.06.74-16.23,6.75-16.63,6.83-.4.08-11.21,1.93-12.08,2.3-.87.38-14.1-1.16-14.1-1.16l-.2-5.45s18.24-1.15,20.17-1.52c1.93-.37,20.12-7,20.12-7,0,0,2.78,5.26,2.71,6Z"/>
  <path class="cls-1" d="M151.44,188.63s-5.09,6.16-8.74,9.15c-3.65,2.99-26.37,9-26.37,9,0,0-18.48,1.48-20.28,1.19-1.79-.29-16.74-6.74-16.74-6.74l1.45-3.89v-.02s11.39-7.36,11.39-7.36c0,0,13.23,1.54,14.1,1.16.87-.37,11.68-2.21,12.08-2.3.4-.08,16.57-6.09,16.63-6.83,0,0,10.84,1.68,11.97,1.95l.63.36c1.42,1.11,3.88,4.32,3.88,4.32Z"/>
  <path class="cls-2" d="M156.35,195.11c-.22,1.44-15.96,11.3-16.68,11.51-.71.22-23.22,8.06-31.63,8.01-8.42-.04-21.88-.11-22.66-.78-.79-.68-10.15-4.74-8.98-7.69,1.14-2.85,4.18-8.47,4.37-8.82l-1.45,3.89s14.95,6.45,16.74,6.74c1.8.29,20.28-1.19,20.28-1.19,0,0,22.72-6.02,26.37-9,3.65-2.99,8.74-9.15,8.74-9.15,0,0-2.46-3.22-3.88-4.32l6.34,3.6s2.67,5.76,2.45,7.2Z"/>
</svg>