<?xml version="1.0" encoding="UTF-8"?>
<svg id="Calque_4" data-name="Calque 4" xmlns="http://www.w3.org/2000/svg" viewBox="0 0 157.14 158.01">
  <defs>
    <style>
      .cls-1 {
        fill: #386f9c;
      }

      .cls-1, .cls-2, .cls-3, .cls-4 {
        stroke-width: 0px;
      }

      .cls-2 {
        fill: #de9b94;
      }

      .cls-3 {
        fill: #d85f45;
      }

      .cls-4 {
        fill: #e5dfca;
      }
    </style>
  </defs>
  <path class="cls-1" d="M106.8,94.44l-13.19,32.72s-18.56.43-23.85-.63c-5.29-1.06-20.85-6.94-20.85-6.94,0,0-3.38-24.48-2.91-26.84s2.16-10.78,2.16-10.78l58.64,12.47Z"/>
  <path class="cls-4" d="M85.82,92.09s12.47,6.5,15.61,6.7c3.14.21,8.77-1.47,10.6-3.33,1.83-1.86,6.83-16.22,6.19-20.32-.63-4.1-8.71-9.43-8.71-9.43l-.15-7.84s-4.28-7.74-5.14-8.71,3.42-9.78-.73-14.19c-4.15-4.41-5.37-10.88-5.37-10.88,0,0-9.76,9.7-14.72,10.69-4.97.99-12.97,7.2-12.97,7.2l-10.21,2.06s-5.7,7.2-5.99,10.32c-.28,3.12-7.85,5.84-8.74,8.31s-4.39,17.93.35,21.39c4.74,3.47,21.95,4.14,21.95,4.14,0,0,4.15,5.73,5.19,5.81,1.04.08,12.84-1.93,12.84-1.93Z"/>
  <path class="cls-3" d="M116.49,53.65c-.35,1.89-.98,3.83-2.37,5.16-2.16,2.06-5.49,2.11-8.46,1.86-1.68-.14-3.39-.35-4.88-1.14-1.7-.91-2.94-2.51-3.84-4.21-1.24-2.33-1.96-4.98-1.67-7.6.29-2.62,1.68-5.17,3.93-6.54,3.84-2.32,9.72-.94,13.41,1.19,3.79,2.18,4.61,7.33,3.88,11.28Z"/>
  <path class="cls-2" d="M97.27,100.96c-.27.64-6,18.13-6.59,19.69-.59,1.55-3.18,3.4-3.18,3.4l-3.48-.7s6.64-13.69,7.59-16.01,3.84-7.72,3.84-7.72l1.82,1.34Z"/>
  <path class="cls-2" d="M84.18,97.36s-2.78,16.02-3.44,17.17c-.66,1.16-3.24,8.15-3.24,8.15,0,0-3.26.74-3.65.56s-.39-1.8.5-4.62,6.13-14.76,6.04-16.06c-.09-1.31,1.15-7.72,1.47-7.33s2.33,2.13,2.33,2.13Z"/>
  <path class="cls-2" d="M65.83,122.25c.63-1.9,2.76-21.35,2.91-22.71s.93-5.29.04-5.26-3.96.17-3.96.17c0,0,.05,5.45.09,7.74.05,2.29-1.49,15.78-1.58,16.14s2.49,3.92,2.49,3.92Z"/>
  <path class="cls-2" d="M57.56,117.52s-2.01-15.01-1.76-15.98,1.92-9.39,1.89-10.15-2.83-2.35-3.14-1.89c-.31.46.25,3.03-.6,4.8-.85,1.77-.54,8.35-.51,10.09s.81,12.09.82,12.72c.02.63,3.29.41,3.29.41Z"/>
</svg>