<?xml version="1.0" encoding="UTF-8"?>
<svg xmlns="http://www.w3.org/2000/svg" viewBox="0 0 206.04 366.3">
  <defs>
    <style>
      .cls-1, .cls-2, .cls-3, .cls-4, .cls-5, .cls-6, .cls-7, .cls-8, .cls-9, .cls-10, .cls-11, .cls-12, .cls-13 {
        stroke-width: 0px;
      }

      .cls-1, .cls-14 {
        fill: none;
      }

      .cls-2, .cls-15 {
        opacity: .2;
      }

      .cls-2, .cls-15, .cls-5 {
        fill: #212425;
      }

      .cls-15, .cls-14 {
        stroke: #212425;
        stroke-miterlimit: 10;
      }

      .cls-3 {
        fill: #5e8aa5;
      }

      .cls-4 {
        fill: #386f9c;
      }

      .cls-6 {
        fill: #171b26;
      }

      .cls-7 {
        fill: #252127;
      }

      .cls-8 {
        fill: #de9b94;
      }

      .cls-9 {
        fill: #d85f45;
      }

      .cls-10 {
        fill: #8da0cf;
      }

      .cls-11 {
        fill: #677f63;
      }

      .cls-12 {
        fill: #e5d5bb;
      }

      .cls-13 {
        fill: #e5dfca;
      }
    </style>
  </defs>
  <g id="Fond">
    <rect class="cls-5" x="0" y="0" width="206.04" height="366.3"/>
  </g>
  <g id="Calque_4" data-name="Calque 4">
    <g>
      <path class="cls-8" d="M118.85,148.69l-16.58,6.26s-5.66,2.69-25.57,13.33c-1.61.86-3.27,1.74-4.99,2.62l-42.4,20.02s-2.96-6.9-2.96-6.9c0,0,40.12-18.34,41.31-18.91,1.19-.57,44.98-26.06,45.65-25.64.53.3,3.46,5.33,5.55,9.23Z"/>
      <path class="cls-13" d="M42.37,217.66c2.86,2.63,39.23-19.09,41.34-19.69,2.11-.62,53.3-21.4,53.3-21.4,0,0-14.91-21.26-16.61-24.82-.38-.82-.94-1.89-1.55-3.06l-16.59,6.26s-5.65,2.7-25.57,13.33c-1.61.86-3.28,1.74-5,2.62l-42.39,20.02c4.06,9.3,11.05,24.92,13.07,26.74ZM109.44,167.06l10.45-4.94,8.46,12.67s-8.32,3.12-9.35,3.26c-1,.14-13.76,6.44-13.76,6.44,0,0-3.22-9.49-5.96-14.2l10.17-3.24ZM69.82,177.15s1.4-1.11,1.71-1.18c.32-.06,1.11,1.16,1.15,1.63.04.47,1.16,8.69.88,8.99-.27.3-1.93.71-2.05.75-.12.01-1.91-2.39-2.16-2.76-.23-.37-1.87-2.15-1.87-2.15,0,0,1.07,5.92,1.16,6.27.12.36-1.42,1.16-1.72,1.4l-1.47-3.8s-.98-6.21-1.04-6.39c-.06-.19,1.43-2,1.43-2,0,0,2.1,1.16,2.47,1.56.38.39,1.95,3.07,1.95,3.07l-.44-5.39ZM63.52,179.48s.45,5.49.53,6.1c.08.59.61,5.1.66,5.19.04.11-1.84,1-1.84,1,0,0-1.53-6.64-1.5-6.85.04-.22-.05-4.61-.05-4.61l2.2-.84ZM57.61,182.9s4.67,8.86,4.76,9.28l-2.51.62-1.15-1.66s-2.4-.08-2.67.12c-.29.2.34,3.13-.04,3.35-.38.23-2.48.99-2.48.99l.38-9.82,1.25-2.86,2.46-.02ZM46.93,186.54c1.04-.31,2.65.17,3.32.46.66.28.25,3.43,0,3.91-.24.49.34,2.22.6,2.61.27.36,2.64,2.55,2.64,2.55l-3.06,1.45-1.7-2.01-1.36-.97-1.22,1.23.47,3.19-3.07,1.48-.26-6.55-.18-3.94s2.75-3.09,3.81-3.41ZM42.05,192.05l-3.11,1.09,1.02,4.67,1.48,4.01-2.81.99-1.99-8.56-2.4,1.12-.64-2.19s8-3.49,8.24-3.56c.23-.06.21,2.43.21,2.43Z"/>
      <path class="cls-3" d="M42.05,192.05l-3.11,1.09,1.02,4.67,1.48,4.02-2.8.98-2-8.56-2.39,1.13-.64-2.2s8-3.5,8.25-3.56c.23-.07.21,2.43.21,2.43Z"/>
      <path class="cls-3" d="M43.12,189.96l.18,3.94.26,6.55,3.07-1.48-.47-3.19,1.22-1.23,1.36.97,1.7,2.01,3.06-1.45s-2.37-2.19-2.64-2.55c-.26-.39-.84-2.12-.6-2.61.24-.49.65-3.64,0-3.91-.67-.29-2.28-.77-3.32-.46-1.05.32-3.81,3.41-3.81,3.41ZM47.45,188.44s1.43.56,1.67.79c.24.24-1.22,2.05-1.4,2.31-.17.26-1.87.69-2.23.43-.38-.23-.43-1.32-.43-1.32l1.5-1.56.9-.65Z"/>
      <path class="cls-3" d="M53.9,185.78l-.38,9.82s2.09-.76,2.48-.99c.38-.22-.26-3.15.04-3.35.28-.2,2.67-.12,2.67-.12l1.15,1.66,2.51-.62c-.09-.42-4.76-9.28-4.76-9.28l-2.46.02-1.25,2.86ZM57.22,187.02c.16.17.36,1.02.08,1.94-.29.91-1.49.65-2.02-.06-.54-.71.62-3.32.7-3.5,0,0,1.11,1.44,1.24,1.61Z"/>
      <path class="cls-3" d="M63.53,179.48s.45,5.5.53,6.1c.09.59.62,5.1.66,5.2.05.11-1.84,1-1.84,1,0,0-1.53-6.64-1.5-6.85.03-.22-.06-4.61-.06-4.61l2.21-.83Z"/>
      <path class="cls-3" d="M72.68,177.6c.04.47,1.16,8.7.88,8.99-.27.3-1.93.73-2.04.75-.12.02-1.91-2.39-2.16-2.76-.24-.37-1.87-2.16-1.87-2.16,0,0,1.07,5.92,1.17,6.27.12.36-1.43,1.16-1.73,1.4l-1.47-3.79s-.98-6.21-1.04-6.4c-.07-.19,1.42-2,1.42-2,0,0,2.1,1.16,2.48,1.56s1.95,3.07,1.95,3.07l-.43-5.39s1.4-1.11,1.71-1.17c.31-.07,1.12,1.16,1.15,1.62Z"/>
      <path class="cls-3" d="M119.89,162.13l8.46,12.68s-8.33,3.11-9.35,3.25c-1.01.14-13.76,6.44-13.76,6.44,0,0-3.22-9.5-5.96-14.2l10.16-3.24,10.45-4.94Z"/>
      <path class="cls-8" d="M119.89,162.13l8.46,12.68s-8.33,3.11-9.35,3.25c-1.01.14-13.76,6.44-13.76,6.44,0,0-3.22-9.5-5.96-14.2l10.16-3.24,10.45-4.94Z"/>
      <g>
        <path class="cls-8" d="M42.05,192.05l-3.11,1.09,1.02,4.67,1.48,4.02-2.8.98-2-8.56-2.39,1.13-.64-2.2s8-3.5,8.25-3.56c.23-.07.21,2.43.21,2.43Z"/>
        <path class="cls-8" d="M43.12,189.96l.18,3.94.26,6.55,3.07-1.48-.47-3.19,1.22-1.23,1.36.97,1.7,2.01,3.06-1.45s-2.37-2.19-2.64-2.55c-.26-.39-.84-2.12-.6-2.61.24-.49.65-3.64,0-3.91-.67-.29-2.28-.77-3.32-.46-1.05.32-3.81,3.41-3.81,3.41ZM47.45,188.44s1.43.56,1.67.79c.24.24-1.22,2.05-1.4,2.31-.17.26-1.87.69-2.23.43-.38-.23-.43-1.32-.43-1.32l1.5-1.56.9-.65Z"/>
        <path class="cls-13" d="M46.56,189.09l.9-.65s1.43.56,1.67.79c.24.24-1.22,2.05-1.4,2.31-.17.26-1.87.69-2.23.43-.38-.23-.43-1.32-.43-1.32l1.5-1.56Z"/>
        <path class="cls-8" d="M53.9,185.78l-.38,9.82s2.09-.76,2.48-.99c.38-.22-.26-3.15.04-3.35.28-.2,2.67-.12,2.67-.12l1.15,1.66,2.51-.62c-.09-.42-4.76-9.28-4.76-9.28l-2.46.02-1.25,2.86ZM57.22,187.02c.16.17.36,1.02.08,1.94-.29.91-1.49.65-2.02-.06-.54-.71.62-3.32.7-3.5,0,0,1.11,1.44,1.24,1.61Z"/>
        <path class="cls-13" d="M55.98,185.41s1.11,1.44,1.24,1.61c.16.17.36,1.02.08,1.94-.29.91-1.49.65-2.02-.06-.54-.71.62-3.32.7-3.5Z"/>
        <path class="cls-8" d="M63.53,179.48s.45,5.5.53,6.1c.09.59.62,5.1.66,5.2.05.11-1.84,1-1.84,1,0,0-1.53-6.64-1.5-6.85.03-.22-.06-4.61-.06-4.61l2.21-.83Z"/>
        <path class="cls-8" d="M72.68,177.6c.04.47,1.16,8.7.88,8.99-.27.3-1.93.73-2.04.75-.12.02-1.91-2.39-2.16-2.76-.24-.37-1.87-2.16-1.87-2.16,0,0,1.07,5.92,1.17,6.27.12.36-1.43,1.16-1.73,1.4l-1.47-3.79s-.98-6.21-1.04-6.4c-.07-.19,1.42-2,1.42-2,0,0,2.1,1.16,2.48,1.56s1.95,3.07,1.95,3.07l-.43-5.39s1.4-1.11,1.71-1.17c.31-.07,1.12,1.16,1.15,1.62Z"/>
      </g>
    </g>
    <polyline class="cls-1" points="174.25 91.33 174.1 91.26 159.74 86.65"/>
    <path class="cls-10" d="M80.22,231.91l-.53-.4c.15.06.33.2.53.4Z"/>
    <g>
      <path class="cls-13" d="M215.07,48.02c-1.32,6.2-4.27,11.43-5.81,17.57-1.24,4.93-2.08,9.95-3.42,14.85-1.2,4.38-2,8.86-3.27,13.22-.25.86-.52,1.12-1.37.69-.5-.26-1.1-.35-1.66-.46-6.73-1.32-11.45-2.45-18.09-4.13-3.7-.94-7.41-1.9-11.09-2.92-4.56-1.27-9.19-2.21-13.82-3.08-4.51-.85-8.99-1.84-13.5-2.62-6.71-1.16-13.38-2.53-20.09-3.7-5.05-.88-10.03-2.07-15.07-3-.98-.18-1.22-.52-.99-1.51,1.02-4.53,1.98-9.07,2.94-13.61,2.06-9.72,4.3-19.41,6.1-29.18,1.34-7.28,4.43-21.76,4.43-21.76,0,0,22.89,3.74,33.53,5.96,8.28,1.73,14.63,4.9,22.94,6.45,6.92,1.29,14.92,2.92,21.87,4.07,6.2,1.03,12.79,2.5,18.97,3.65,1.24.23,1.44.69,1.18,1.86-1.4,6.32-2.42,11.31-3.77,17.64h0Z"/>
      <path class="cls-8" d="M134.89,26.44s-11.75,2.57-11.01,8.39c.74,5.82,6.25,10.35,6.25,10.35,0,0,10.85-4.65,11.23-6.16.37-1.51.31-9.69-3.08-11.14l-3.39-1.45Z"/>
      <path class="cls-8" d="M161.85,39.08c-.44-.04-6.73,1.42-7.17,4.36s-1.28,9.75,2.35,10.11,9.4.95,10.95.51,8.19-4.11,6.91-7.68c-1.29-3.57-7.16-7.6-8.33-7.87s-4.7.57-4.7.57Z"/>
      <path class="cls-8" d="M194.71,46.94c-2.43.73-6.32.75-6.34,6.44-.02,5.69,4.95,11.47,7.34,11.15s8.75-5.5,9-9.37c.25-3.86.14-6.93-2.19-8.55l-7.81.32Z"/>
      <path class="cls-8" d="M132.26,85.84l12.21-23.74s11.26-5.75,14.17-5.63c2.92.12,11.83,3.95,12.68,5.76s.21,28.02.21,28.02l-39.27-4.41Z"/>
      <path class="cls-8" d="M133.08,83.29s5.73-26.83,4.83-29.17c-.9-2.33-.66-4.71-5.25-5.98s-12.05-.28-13.94,1.63c-1.89,1.91-4.99,13.92-4.99,13.92l-8.38,13.72,27.72,5.89Z"/>
      <path class="cls-8" d="M173.92,87.19s5.95-12.38,9.74-15.76c3.79-3.38,8.32-4.8,10.32-4.45,2,.36,9,6.55,8.81,7.16s2.84,10.95,2.64,11.4-2.34,8.7-2.34,8.7l-2.74,4.11-26.89-6.66.45-4.5Z"/>
      <path class="cls-8" d="M160.3,39.65c.08.38.19.77.43,1.08.29.35.73.54,1.16.69,1.5.54,3.06.92,4.64,1.14,1.03.14,2.26.14,2.88-.69.26-.34.37-.77.43-1.2.42-2.95-1.76-6.93-4.87-7.51-1.03-.19-3.92-.24-4.71.36-1.2.92-.24,4.9.03,6.13Z"/>
      <path class="cls-4" d="M149.59,4.49c10.7,1.61,20.53,4.27,30.46,6.42,5.63,1.22,11.33,1.95,17.02,2.69,8.63,1.13,20.59,2.47,29.06,4.46,2.69.63,5.39,1.23,8.1,1.8.81.17,1.03.34.77,1.27-2.72,9.79-6.78,18.76-8.49,28.83-3.12,18.31-10.17,37.42-14.16,55.55-.26,1.18-.63,1.42-1.83,1.2-6.87-1.31-13.79-2.42-20.65-3.79-3.67-.73-7.27-1.78-10.88-2.75-6.97-1.86-13.89-3.85-21.08-4.83-8.38-1.15-16.74-2.5-24.9-4.88-11.81-3.45-35.78-8.99-35.78-8.99,0,0,2.93-19.94,4.56-29.31,2.14-12.31,4.7-24.54,7.53-36.71,1.38-5.91,5.71-18.35,5.71-18.35,0,0,6.71,1.45,10.07,2.16,8.37,1.78,16.75,3.57,24.49,5.21ZM215.07,48.02h0c1.35-6.33,2.39-11.3,3.79-17.62.26-1.17.06-1.63-1.18-1.86-6.17-1.14-12.27-2.67-18.47-3.7-6.94-1.15-15.45-2.75-22.37-4.04-8.32-1.55-14.66-4.72-22.94-6.45-10.64-2.22-33.53-5.96-33.53-5.96,0,0-3.08,14.47-4.43,21.76-1.8,9.77-4.04,19.46-6.1,29.18-.96,4.54-1.92,9.08-2.94,13.61-.22.99.02,1.33.99,1.51,5.04.93,10.02,2.11,15.07,3,6.7,1.17,13.38,2.54,20.09,3.7,4.52.78,9,1.77,13.5,2.62,4.63.87,9.26,1.81,13.82,3.08,3.68,1.02,7.38,1.98,11.09,2.92,6.64,1.68,11.36,2.81,18.09,4.13.57.11,1.16.21,1.66.46.85.43,1.12.18,1.37-.69,1.28-4.36,2.07-8.84,3.27-13.22,1.34-4.9,2.18-9.92,3.42-14.85,1.54-6.14,4.49-11.37,5.81-17.57Z"/>
    </g>
    <g>
      <path class="cls-13" d="M191.99,187.92s-9.72-7.93-17.53-3.8c-7.81,4.13-14.8,12.03-16.44,18.94-1.63,6.91,5.17,19.45,6.07,20.47.9,1.02,18.79,6.93,20.02,6.35,1.23-.58,17.3-11.74,17.96-15.8.66-4.06-.46-15.52-.97-15.82s-9.1-10.35-9.1-10.35Z"/>
      <path class="cls-11" d="M188.39,201.02s-4.58,2.84-5.12,2.65-5.13-2.04-5.13-2.04l2.63,5.32s-4.42,5.05-4.67,5.08,5.73-.17,5.73-.17l4.55,4.66s-.55-5.63-.63-5.69,6.05.36,5.59-.28c-1.48-2.07-4.13-4.21-4.05-4.5s1.08-5.03,1.08-5.03Z"/>
      <path class="cls-11" d="M193.68,198.32s-9.61-4.62-14.37-1.72-7.75,11.96-7.75,11.96c0,0,.64,6.76,5.06,10.28,4.42,3.53,6.75,3.86,6.75,3.86,0,0-12.44-2.94-13.61-4.46-1.17-1.52-4.27-10.6-3.8-12.86s6.76-11.5,6.76-11.5c0,0,9.25-2.12,10.55-1.9,1.3.22,7.79,3.11,10.41,6.34Z"/>
      <path class="cls-9" d="M211.78,155.51c1.79-2.97,4.71-16.76,1.11-20.86-3.6-4.1-14.75-13.5-18.59-14.47,0,0-19.01-7.18-30.46,10.75,0,0,.72,17.57,2.19,18.96s20.87,11.08,24.6,11.23c3.73.15,19.37-2.65,21.16-5.62ZM198.85,157.18c-3.04,2.47-20.58-3.45-20.58-3.45,0,0-8.02-8.69-8.45-12.39-.43-3.7,4.98-13.61,8.9-16.19,3.06-2.01,12.3-.85,16.2-.24,5.87,4.32,13.41,15.95,13.8,19.86.4,4.04-6.84,9.94-9.88,12.41Z"/>
      <path class="cls-9" d="M186.05,185.71c1.13-2.74,6.31-18.32,6.34-19.5.03-1.18,1.08-12.98.96-13.21-.12-.23-2.3-2.9-2.98-3.18,0,0-8.04,4.75-8.9,6.23-.86,1.48-4.62,13.03-4.48,16.11s1.33,14.96,2.13,15.61,5.81.69,6.94-2.05ZM181.19,181.99c-.64-.24.58-9.54.39-10.35-.19-.8,3.23-12.31,3.63-13.44.41-1.13,2.26-1.57,2.26-1.57,2.28,2.74.98,9.59.81,10.4-.17.81-4.25,14-4.57,14.56-.32.56-1.89.64-2.53.39Z"/>
    </g>
    <g>
      <path class="cls-8" d="M126.52,327.59s28.06,9.99,31.52,12.79,11.42,21.46,11.42,21.46c0,0,18.21-2.34,19.26-3.47,1.05-1.13,13.57-11.84,13.47-15.03-.1-3.19-14.27-23.21-14.97-24.02-.71-.8-34.9-16.27-34.9-16.27l-9.77-28.68s-49.23-12.98-53.54-14.32c-4.31-1.34-23.92-.64-25.75,3.19s-10.15,17.38-10.15,17.38c0,0,.22,17.76,2.31,22.9,2.09,5.14,24.56-.68,27.46.23,2.9.91,15.61,11.15,15.61,11.15,0,0,10.79-.36,13.93.29s-13.59-19.68-14.49-19.82c-.9-.13-17.68-1.39-21.16-1.46-3.48-.07-15.73,4.66-15.77.72s7.75-25.98,7.75-25.98c0,0,17.81.94,23.13,3.26,5.32,2.32,33.2,9.58,34.27,11.77,1.07,2.19,19.65,22.04,19.65,22.04,0,0,28.42,22.46,29.95,24.53,1.53,2.07,3.43,14.93,3.43,14.93l-7.41,3.3s-10.61-14.98-11.51-15.55c-1.74-1.1-27.6-20.1-27.6-20.1l-20.93,3.18,14.79,11.58Z"/>
      <path class="cls-13" d="M129.65,365.96s-17.03,7.12-23.95,5.89c-7.45-1.35-14.48-3.79-21.23-7.09-7.61-3.75-12.05-9.83-13.24-18.29-1.17-8.16-1.34-16.29,2.94-23.72,13.84-23.99,39.59-19.7,39.59-19.7l12.92,4.5.14.07c4.37,2.27,8.22,5.3,11.07,9.28,5.34,7.44,6.84,15.92,5.55,24.79-1.7,11.88-13.79,24.27-13.79,24.27Z"/>
      <g>
        <path class="cls-9" d="M114.79,358.09c-1.91-.13-3.85.38-6.16-.33,2.09-1.34,4.04-2.34,5.51-3.93,4.07-4.42,4.77-10.59,1.92-16.26-1.13-2.25-2.16-4.52-2.9-6.96-1.35-4.45-.67-8.42,2.5-12.32-4.27-.24-10.07,4.09-10.07,4.09l-6.6,9.13s-2.35,6.87-3.27,10.91c-1.68-3.35-2.91-10.21-2.91-10.21,0,0-6.34,7.72-7.23,12.56-.89,4.89.49,9.39,2.94,13.91-12-3.31-8-28.86-8-28.86,0,0,8.82-25.36,34.17-17.75,25.09,10.76,18.65,33.27,18.65,33.27,0,0-11.66,24.17-31.91,20.01-.08-1.27,10.48-2.45,13.35-7.22.08,0,.16.03.23.02.04-.01.07-.08.11-.13-.11.03-.23.07-.34.1Z"/>
        <path class="cls-9" d="M95.6,359.36c.08.06-.37-.18-.68-.53-.9-1.02-2.21-2.41-1.42-3.51.92-1.28,2.38-.34,3.45.65,1.06.99,2.93.37,3.79,1.88.27.47,1.01.71.74,1.42-.23.61-.81.83-1.4.88-1.35.1-2.73.28-4.47-.78Z"/>
      </g>
    </g>
    <g>
      <path class="cls-9" d="M3.36,43.3s-12.45-6.3-17.77-6.4c0,0-7.65,2.43-8.04,5.58-.39,3.14,2.64,18.65,2.64,18.65,0,0,11.71,30.76,13.65,33.1,1.93,2.34,16.25,14.83,16.25,14.83,0,0,17.95,4.74,21.96,5.81,4.01,1.07,9.83-1.17,9.83-1.17l-7.8-11.12s-11.21,5.12-14.87,4.37S.68,88.87-.81,86.05c-1.49-2.81-11.66-31.14-10.25-32.26l22.87,14.86L3.36,43.3Z"/>
      <path class="cls-9" d="M102.39,27.51s9.49-13.07,13.8-14.34c4.3-1.27,12.87,7.73,12.87,7.73,0,0,1.48,31.49,1.24,36.97s-13.35,41.13-19.06,42.22c-5.71,1.1-18.34,4.21-18.34,4.21,0,0-4.14-.38-6.55-2.41l6.24-11.15s9.04-.19,13.05-1.76c4.01-1.56,11.29-10.76,11.29-10.76l5.51-24.5s1.03-11.65-2.09-15.4c-3.12-3.75-4.37-5.11-4.37-5.11l-12.19,9.77-1.38-15.47Z"/>
      <path class="cls-9" d="M102.29,8.59c.1,2.12-25.91,16.25-30.22,17.68-4.31,1.43-51.19,7.02-51.19,7.02,0,0-23.02-3.85-23.41-7.44,0,0,41.22-17.64,49.88-18.68,8.66-1.04,33.34-4.54,36.22-3.86,2.88.67,18.63,3.16,18.72,5.28Z"/>
      <path class="cls-13" d="M102.29,8.59s5.07,45.41,4.11,52c-.96,6.58-12.29,42.74-13.92,44.53-.93,1.03-4.39,6.06-8.49,10.49v.02c-3.02,3.25-6.38,6.17-9.37,6.95-6.94,1.81-24.2-.39-24.71-.45h-.02s-31.67-30.42-31.85-31.37S-2.25,34.76-2.28,33.29c-.04-1.47-.25-7.44-.25-7.44.38,3.59,23.41,7.44,23.41,7.44,0,0,46.89-5.59,51.19-7.02,4.31-1.43,30.31-15.56,30.22-17.68Z"/>
      <path class="cls-9" d="M97.23,161.57s-18.2,6.63-20.12,7c-1.93.37-20.17,1.52-20.17,1.52,2.8-1.03,9.58-9.98,9.58-9.98l-1.16-6.1-9.55-7.32s-.52-2.73,1.44-6.27c1.97-3.54,1.45-12.59,1.45-12.59l-8.78-5.72c.51.06,17.77,2.26,24.71.45,2.99-.78,6.35-3.7,9.36-6.95,0,0-3.95,4.75-2.12,8.77,1.09,2.4,4.01,9.07,6.66,10.73,2.64,1.65-.82,9.63-2.38,11.93-1.56,2.29-2.25,7.41-1.49,8.76.76,1.35,12.58,5.75,12.58,5.75Z"/>
      <path class="cls-13" d="M99.94,167.57c-.06.74-16.23,6.75-16.63,6.83-.4.08-11.21,1.93-12.08,2.3-.87.38-14.1-1.16-14.1-1.16l-.2-5.45s18.24-1.15,20.17-1.52c1.93-.37,20.12-7,20.12-7,0,0,2.78,5.26,2.71,6Z"/>
      <path class="cls-9" d="M116.43,174.21s-5.09,6.16-8.74,9.15c-3.65,2.99-26.37,9-26.37,9,0,0-18.48,1.48-20.28,1.19-1.79-.29-16.74-6.74-16.74-6.74l1.45-3.89v-.02s11.39-7.36,11.39-7.36c0,0,13.23,1.54,14.1,1.16.87-.37,11.68-2.21,12.08-2.3.4-.08,16.57-6.09,16.63-6.83,0,0,10.84,1.68,11.97,1.95l.63.36c1.42,1.11,3.88,4.32,3.88,4.32Z"/>
      <path class="cls-13" d="M121.33,180.68c-.22,1.44-15.96,11.3-16.68,11.51-.71.22-23.22,8.06-31.63,8.01-8.42-.04-21.88-.11-22.66-.78-.79-.68-10.15-4.74-8.98-7.69,1.14-2.85,4.18-8.47,4.37-8.82l-1.45,3.89s14.95,6.45,16.74,6.74c1.8.29,20.28-1.19,20.28-1.19,0,0,22.72-6.02,26.37-9,3.65-2.99,8.74-9.15,8.74-9.15,0,0-2.46-3.22-3.88-4.32l6.34,3.6s2.67,5.76,2.45,7.2Z"/>
    </g>
    <g>
      <path class="cls-4" d="M168.19,149.08l-13.19,32.72s-18.56.43-23.85-.63c-5.29-1.06-20.85-6.94-20.85-6.94,0,0-3.38-24.48-2.91-26.84s2.16-10.78,2.16-10.78l58.64,12.47Z"/>
      <path class="cls-13" d="M147.2,146.73s12.47,6.5,15.61,6.7c3.14.21,8.77-1.47,10.6-3.33,1.83-1.86,6.83-16.22,6.19-20.32-.63-4.1-8.71-9.43-8.71-9.43l-.15-7.84s-4.28-7.74-5.14-8.71,3.42-9.78-.73-14.19c-4.15-4.41-5.37-10.88-5.37-10.88,0,0-9.76,9.7-14.72,10.69-4.97.99-12.97,7.2-12.97,7.2l-10.21,2.06s-5.7,7.2-5.99,10.32c-.28,3.12-7.85,5.84-8.74,8.31s-4.39,17.93.35,21.39c4.74,3.47,21.95,4.14,21.95,4.14,0,0,4.15,5.73,5.19,5.81,1.04.08,12.84-1.93,12.84-1.93Z"/>
      <path class="cls-9" d="M177.87,108.28c-.35,1.89-.98,3.83-2.37,5.16-2.16,2.06-5.49,2.11-8.46,1.86-1.68-.14-3.39-.35-4.88-1.14-1.7-.91-2.94-2.51-3.84-4.21-1.24-2.33-1.96-4.98-1.67-7.6.29-2.62,1.68-5.17,3.93-6.54,3.84-2.32,9.72-.94,13.41,1.19,3.79,2.18,4.61,7.33,3.88,11.28Z"/>
      <path class="cls-8" d="M158.66,155.59c-.27.64-6,18.13-6.59,19.69-.59,1.55-3.18,3.4-3.18,3.4l-3.48-.7s6.64-13.69,7.59-16.01,3.84-7.72,3.84-7.72l1.82,1.34Z"/>
      <path class="cls-8" d="M145.56,151.99s-2.78,16.02-3.44,17.17c-.66,1.16-3.24,8.15-3.24,8.15,0,0-3.26.74-3.65.56s-.39-1.8.5-4.62,6.13-14.76,6.04-16.06c-.09-1.31,1.15-7.72,1.47-7.33s2.33,2.13,2.33,2.13Z"/>
      <path class="cls-8" d="M127.22,176.89c.63-1.9,2.76-21.35,2.91-22.71s.93-5.29.04-5.26-3.96.17-3.96.17c0,0,.05,5.45.09,7.74.05,2.29-1.49,15.78-1.58,16.14s2.49,3.92,2.49,3.92Z"/>
      <path class="cls-8" d="M118.95,172.15s-2.01-15.01-1.76-15.98,1.92-9.39,1.89-10.15-2.83-2.35-3.14-1.89c-.31.46.25,3.03-.6,4.8-.85,1.77-.54,8.35-.51,10.09s.81,12.09.82,12.72c.02.63,3.29.41,3.29.41Z"/>
    </g>
    <g>
      <g>
        <path class="cls-13" d="M115.93,236.2s10.89.08,12.33,1.15c1.44,1.07,15.12,12.46,15.12,12.46,0,0,17.17,13.56,18.53,15.27,1.51,1.9,15.05,14.19,15.05,14.19,0,0,8.26-.55,9.67-1.76,1.41-1.21,5.89-5.32,5.89-5.32,0,0,4.11-7.64,4.29-8.32.17-.67.13-8.52-2.26-10.5-2.39-1.98-9.37-6.37-9.37-6.37l-21.74-13.18s-16.37-13.23-17.22-14.09c-.85-.87-7.72-9.13-7.72-9.13,0,0-22.07-16.95-23.32-16.81-1.26.14-5.29,2.54-6.2,3.79-.91,1.26-7.15,10.46-7.15,10.46,0,0-7.95,6.71-8.52,8.26-.57,1.55.83,5.27.83,5.27l21.79,14.64ZM183.17,260.49s1.51-3.21,4.31-1.94c2.8,1.27,1.42,4.66,1.42,4.66,0,0-2.63,2.07-4.38.97-1.75-1.1-1.35-3.69-1.35-3.69ZM175.21,271.53c-.3-1.14,1.76-2.66,1.76-2.66,0,0,2.31-.27,2.99.71.68.98,0,3.56,0,3.56l-2.88,1.14s-1.57-1.61-1.87-2.75Z"/>
        <path class="cls-7" d="M142.01,213.38s-9.17,6.94-10.91,9.12c-1.74,2.18-7.32,7.43-7.32,7.43,0,0-2.78,1.28-3.09,1.3s0-6.13-.34-6.81-10.44-12.07-10.75-12.05-8.11-5.51-8.11-5.51c0,0,9.41-12.17,9.45-12.69s8.47-3.16,9.16-2.78,18.55,15.69,19.27,16.59,2.65,5.39,2.65,5.39Z"/>
        <path class="cls-4" d="M138.38,201.64s-20.62,22.54-21.21,23.74-9.43,13.05-9.43,13.05c0,0-10.67-6.28-11.03-6.56s-4.69-4.25-4.69-4.25c0,0,8.37-16.86,13.41-22.07,5.04-5.21,17.78-16.54,17.78-16.54,0,0,12.61,8.33,13.37,9.66.76,1.33,1.8,2.98,1.8,2.98Z"/>
        <path class="cls-4" d="M179.91,249.33s-8.58,9.35-8.85,10.51c-.27,1.16-3.72,5.88-3.72,5.88,0,0-3.56-2.14-4.28-2.94-.71-.8,4.31-7.11,5.81-9.25,1.49-2.15,7.87-7.65,7.87-7.65l3.17,3.45Z"/>
      </g>
      <g>
        <path class="cls-13" d="M93.89,248.74s10.45,3.03,11.55,4.46c1.1,1.42,11.16,16.1,11.16,16.1,0,0,10.13,13.37,11.52,16.2.96,1.96,10.8,18.48,10.8,18.48,0,0,8.1,1.71,9.78.93,1.69-.78,13.54-11.75,13.89-12.35.35-.6,1.36-8.92-.4-11.48-1.76-2.56-11.59-11.59-11.59-11.59l-10.36-10.14s-12.16-17.18-12.74-18.25c-.59-1.06-4.95-10.88-4.95-10.88,0,0-16.63-22.31-17.88-22.52-1.25-.2-5.79,1.01-7,1.97-1.22.96-9.72,8.12-9.72,8.12,0,0-8.33,5.96-9.3,7.3-.97,1.34-.63,5.3-.63,5.3l15.85,18.34ZM149.7,287.26s2.64-3.26,4.99-1.27c2.35,1.99,0,4.99,0,4.99,0,0-2.99,2.09-4.37.55-1.38-1.54-.61-4.26-.61-4.26ZM138.8,295.43c.02-1.18,2.8-2.43,2.8-2.43,0,0,3.29,1.01,3.68,2.14.39,1.13-2.22,3.8-2.22,3.8l-3.15-.02s-1.12-2.32-1.1-3.5Z"/>
        <path class="cls-7" d="M124.83,234.12s-10.24,3.59-12.51,5.22c-2.27,1.63-8,4.83-8,4.83,0,0-2.25.84-2.55.78s-.27-5.6-.42-6.35-6.77-14.45-7.07-14.52-7.61-6.21-7.61-6.21c0,0,14.71-11.18,14.89-11.67s7.96,0,8.52.55,13.18,20.56,13.63,21.62c.45,1.06,1.13,5.75,1.13,5.75Z"/>
        <path class="cls-8" d="M124,220.29s-25.97,16.09-26.87,17.08-14.57,8.32-14.57,8.32c0,0-5.72-5.98-5.99-6.34s-2.41-6.81-2.41-6.81c0,0,11.68-12.5,17.96-16.15,6.27-3.65,21.6-11.09,21.6-11.09,0,0,9.87,11.45,10.24,12.93.37,1.48.04,2.06.04,2.06Z"/>
        <path class="cls-8" d="M128.92,279.34s5.5-2,6.11-3.04c.6-1.03,11.76-7.75,11.76-7.75,0,0,1.76,1.93,2.2,2.9s-6.61,4.69-8.67,6.3-7.81,4.53-7.81,4.53l-3.59-2.94Z"/>
      </g>
    </g>
    <g>
      <path class="cls-4" d="M52.1,250.13s-14.58,2.83-17.99,3.41c-3.4.59-20.24-1.73-20.24-1.73l-4.4-10.59s-2.34-26.69-2.43-28.73,4.63-20.74,4.84-22.5c.22-1.76-3.08-7.14-3.51-16.88-.43-9.74,2.61-18,2.61-18,2.47-.11,33.04-2.51,33.04-2.51,0,0,5.41,7.19,6.42,13.41,1,6.22-2.4,21.51-2.96,22.12-.56.61,4.08,16.71,6.35,21.86,2.27,5.14-1.73,40.13-1.73,40.13Z"/>
      <path class="cls-13" d="M47.12,152.05c.09.3-3.71,1.65-3.71,1.65,0,0-29.96,1.32-32.43,1.43,0,0-1.88-.03-2.47-.5-.58-.47-.22-9.18.78-10.15,1-.96,9.24-3.3,12.83-3.53,1.76-.11,5.99-.3,9.84-.46,4-.17,7.59-.31,7.59-.31l5.92,4.4s1.56,7.17,1.64,7.47Z"/>
      <path class="cls-13" d="M32.14,132.1l-.18,8.38c-3.85.16-8.08.35-9.84.46,0,0-1.96-8.01-1.75-8.68.21-.68,6.65-1.99,7.14-1.95.49.04,4.63,1.8,4.63,1.8Z"/>
      <line class="cls-13" x1="31.97" y1="140.51" x2="31.97" y2="140.48"/>
      <path class="cls-4" d="M24.01,129.24s-4.48,2.27-4.81,2.55.69,2.42,1.38,2.2,11.6-1.13,11.6-1.13c0,0,1.59-1.86,1.34-1.73s-5.19-2.08-6.05-2.04l-3.45.15Z"/>
    </g>
    <g>
      <path class="cls-9" d="M29.17,234.56s-8.66,31.11-9.82,35.39c-1.16,4.27-7.92,32.69-8.95,34.52-1.04,1.83-7.62,18.84-6.79,21.79s7.66,5.86,8.22,6.1,40.61,10.62,41.54,10.53,12.42-35.19,13.3-37.89c.88-2.7,11.03-46.89,11.29-49.11.26-2.22,1.83-8.21.62-8.96s-27.73-8.42-30.49-9.23c-1.96-.58-18.92-3.13-18.92-3.13Z"/>
      <path class="cls-13" d="M29.69,245.26s27.83,6.89,28.39,6.87c.56-.01,15.73,5.71,15.73,5.71,0,0-6.88,28.45-8.54,34.18s-10.19,38.94-11.7,38.65-25.37-6.89-29.14-8.1c-3.77-1.21-14.49-6.05-15.04-7.06s15.3-49.72,15.3-49.72l5-20.54Z"/>
      <path class="cls-13" d="M30.87,326.71s-3.81-.44-4.47.97-.21,4.84-.02,4.99,3.6,1.64,4.47,1.37c.87-.27,2.96-.5,2.84-2.71-.12-2.21-2.82-4.62-2.82-4.62Z"/>
    </g>
  </g>
  <g id="Sac">
    <path class="cls-6" d="M206.04,283.55v6.23l-5.4-3.19c.07-.3.13-.57.18-.81.24-1.15.51-2.63.82-4.41l4.4,2.18Z"/>
    <g>
      <path class="cls-4" d="M206.05,0v45.9c-1.55-4.87-2.48-7.76-2.48-7.76,0,0-4.8-15.4-11.94-38.14h14.42Z"/>
      <path class="cls-4" d="M12.83,0C6.72,13.93,2.66,24.17,2.2,27.69c-.3,2.35-1.08,6.04-2.19,10.63V0h12.82Z"/>
      <path class="cls-4" d="M15.62,366.31H0v-36.26c5.62,13.93,11.24,26.72,15.62,36.26Z"/>
      <path class="cls-4" d="M206.05,325.34v40.97h-17.81c3.38-6.51,10.8-23.89,17.81-40.97Z"/>
      <path class="cls-5" d="M34.48,0c-.66,1.75-1.35,3.54-2.04,5.35l-.42,1.11c-.51,1.37-1.03,2.76-1.56,4.16-.04.1-.08.21-.12.31-.21.58-.43,1.16-.65,1.74-1.96,5.29-3.96,10.81-5.98,16.49-.25.71-.5,1.42-.75,2.13-.21.64-.44,1.27-.67,1.92-.16.46-.32.92-.47,1.38-.21.58-.41,1.16-.61,1.75-.61,1.78-1.22,3.57-1.83,5.37-.96,2.83-1.91,5.69-2.85,8.57-.28.83-.55,1.65-.81,2.48-.07.2-.13.4-.2.61-.44,1.38-.89,2.76-1.33,4.16-.24.75-.48,1.5-.71,2.25-.26.82-.52,1.65-.78,2.48-.37,1.22-.75,2.44-1.12,3.67-.62,2.02-1.23,4.05-1.83,6.08l-.12.42-.62,2.08c-.6,2.04-1.18,4.08-1.75,6.12-.09.31-.18.63-.27.94-.51,1.82-1.02,3.65-1.51,5.47-.08.3-.16.61-.24.91-.58,2.14-1.15,4.28-1.69,6.42-.23.87-.44,1.73-.66,2.6-1.03,4.07-1.98,8.11-2.88,12.12,0,.01-.01.03-.01.04v-33.24s.01-.03.01-.04c.12-.44.23-.87.35-1.32.2-.76.41-1.52.61-2.29.26-.96.53-1.93.81-2.9.54-1.96,1.1-3.94,1.68-5.93.5-1.71,1-3.43,1.52-5.16.13-.45.27-.9.4-1.35.38-1.29.78-2.58,1.18-3.88.2-.65.4-1.32.6-1.98.03-.1.06-.19.09-.29.45-1.44.91-2.9,1.38-4.35.47-1.46.94-2.93,1.43-4.39.37-1.14.75-2.29,1.14-3.45.11-.33.22-.65.33-.98.5-1.49,1-2.97,1.52-4.47.04-.12.08-.24.12-.36.11-.33.22-.65.33-.97.04-.11.08-.24.13-.35,0-.03.02-.06.03-.09.64-1.86,1.33-3.78,2.06-5.75.71-1.96,1.46-3.97,2.25-6.03.29-.77.59-1.55.9-2.33.31-.79.61-1.58.93-2.38.21-.53.42-1.06.63-1.6.26-.69.54-1.37.82-2.08.21-.53.44-1.09.65-1.63.27-.67.54-1.35.82-2.03.51-1.25,1.03-2.52,1.55-3.79.51-1.23,1.03-2.47,1.55-3.72h8.66Z"/>
      <path class="cls-5" d="M36.86,366.3h-8.48c-.07-.15-.14-.3-.21-.45-.07-.15-.14-.31-.22-.46-.31-.65-.62-1.29-.92-1.94h-.01c-.26-.56-.52-1.12-.78-1.67-.04-.09-.09-.18-.13-.27-.18-.36-.35-.73-.53-1.1-.05-.11-.1-.22-.15-.32-.03-.07-.06-.15-.1-.22-.02-.04-.04-.07-.05-.11-.3-.61-.59-1.23-.88-1.85-.46-.96-.91-1.92-1.36-2.89-.55-1.16-1.1-2.32-1.64-3.48-.07-.14-.14-.29-.2-.43-.21-.45-.42-.9-.63-1.35,0-.02-.02-.05-.03-.07-.18-.39-.36-.77-.54-1.16-.02-.04-.04-.08-.06-.12-.2-.42-.4-.84-.59-1.26-.69-1.47-1.38-2.93-2.06-4.4h0c-.04-.1-.08-.18-.12-.27-.19-.43-.39-.85-.59-1.28-.2-.43-.4-.85-.59-1.27-.21-.46-.42-.91-.63-1.37-.1-.23-.21-.46-.32-.69-.1-.23-.21-.46-.31-.69-.09-.19-.18-.37-.26-.55-.19-.42-.38-.83-.57-1.25-.11-.22-.21-.45-.31-.67-.04-.08-.08-.17-.12-.25-.15-.34-.31-.69-.46-1.03-.26-.57-.52-1.13-.77-1.69-.02-.04-.04-.08-.06-.13-.02-.04-.04-.08-.06-.12-.09-.2-.18-.39-.27-.59-.36-.79-.72-1.58-1.07-2.37-.36-.78-.71-1.57-1.06-2.34-.35-.78-.7-1.56-1.04-2.33-.35-.77-.69-1.54-1.03-2.3-.06-.15-.13-.29-.19-.44-.39-.87-.77-1.73-1.15-2.59-.05-.1-.09-.21-.14-.31-.37-.85-.74-1.69-1.11-2.54-.12-.28-.24-.55-.36-.82-.24-.53-.47-1.06-.69-1.59-.48-1.09-.94-2.17-1.4-3.23-.06-.14-.11-.27-.17-.4-.28-.66-.56-1.31-.83-1.95-.06-.15-.13-.29-.19-.44-.08-.18-.15-.35-.23-.53,0-.02-.02-.05-.03-.08-.14-.35-.29-.69-.43-1.03-.25-.57-.48-1.15-.72-1.72,0-.01-.01-.01-.01-.02v-21.89s.01.03.01.04c.47,1.73.94,3.39,1.42,4.99.44,1.5.88,2.93,1.33,4.32.91,2.86,1.83,5.5,2.71,7.93.52,1.43,1.34,3.43,2.41,5.91.43,1,.9,2.07,1.41,3.22.3.68.62,1.38.95,2.11.43.96.89,1.96,1.37,3.01.05.1.09.21.14.31.37.8.75,1.63,1.15,2.48,1.65,3.58,3.52,7.57,5.57,11.9.68,1.44,1.38,2.92,2.1,4.44.41.85.82,1.71,1.23,2.58.28.59.57,1.19.86,1.79.43.88.86,1.77,1.3,2.68l.03.06c1.92,4,3.95,8.2,6.07,12.56.68,1.43,1.39,2.87,2.1,4.33.14.3.29.61.44.91.73,1.5,1.47,3.02,2.22,4.56.09.19.18.39.28.58.47.97.95,1.96,1.44,2.95.11.22.21.44.32.66Z"/>
      <path class="cls-5" d="M206.04,74.33v25.74c-1.59-7.31-3.2-13.86-4.61-18.93-.21-.76-.41-1.47-.62-2.15-.28-.99-.57-1.91-.84-2.74-.36-1.12-1.04-3.12-2-5.87-.43-1.24-.93-2.65-1.47-4.2-.19-.53-.38-1.09-.59-1.67-.06-.16-.12-.33-.18-.5-.06-.17-.12-.35-.18-.52-.26-.71-.52-1.45-.79-2.21-.03-.07-.05-.15-.08-.22-.19-.55-.39-1.1-.59-1.66-1.68-4.74-3.66-10.28-5.87-16.47-.22-.6-.44-1.23-.66-1.85-.02-.06-.04-.11-.06-.17-.39-1.09-.79-2.21-1.2-3.34-.16-.46-.33-.93-.5-1.4-.27-.77-.55-1.54-.83-2.32-1.13-3.16-2.32-6.44-3.54-9.83-.22-.66-.47-1.33-.71-2-.86-2.38-1.73-4.8-2.62-7.27-.46-1.28-.92-2.57-1.39-3.87-.09-.24-.17-.48-.26-.72-.22-.6-.44-1.2-.65-1.81-.18-.5-.36-1-.54-1.5-.05-.13-.09-.26-.14-.39h-.26l.23-.08c-.76-2.1-1.52-4.23-2.3-6.38h5.94c.64,1.76,1.27,3.51,1.89,5.25.27.72.53,1.44.79,2.16l.42,1.15.15.42.2.56s0,.02,0,.02c.4,1.1.8,2.2,1.19,3.29,1.23,3.37,2.44,6.7,3.63,9.97.27.72.54,1.44.79,2.16.76,2.06,1.5,4.1,2.24,6.1.28.77.56,1.54.85,2.3h0c.24.66.48,1.31.72,1.96.41,1.12.82,2.23,1.22,3.33.39,1.06.78,2.12,1.16,3.16.25.65.48,1.31.73,1.96.26.72.53,1.44.79,2.15.26.71.52,1.41.78,2.1.09.27.19.53.29.8.09.25.19.51.28.76.32.86.63,1.72.94,2.55.02.04.03.08.05.12.17.47.33.94.51,1.4.06.16.11.31.17.47.25.65.49,1.3.72,1.94.09.22.17.45.25.67.39,1.04.78,2.07,1.15,3.07.2.54.39,1.07.59,1.6.02.06.05.13.07.19.06.16.12.32.18.48.18.47.35.94.52,1.4.21.56.42,1.11.62,1.65,0,.02,0,.03,0,.04.21.56.41,1.11.61,1.65.09.22.17.44.25.66.14.4.29.79.43,1.17.19.49.37.98.54,1.46.18.47.35.94.52,1.4.37.98.72,1.92,1.05,2.81Z"/>
      <path class="cls-5" d="M206.04,253.19v47.52c-.11.27-.22.55-.33.83-.23.57-.46,1.16-.7,1.77-.15.38-.3.76-.46,1.15-.03.08-.06.16-.09.24-.25.62-.5,1.25-.75,1.89-.04.1-.08.19-.12.29-.16.41-.33.83-.5,1.26-.13.34-.27.69-.4,1.04-.21.53-.42,1.06-.64,1.6-.07.18-.14.36-.21.54-.15.36-.29.73-.44,1.1-.16.41-.32.83-.49,1.25-.01.03-.02.05-.03.08-.17.41-.33.84-.5,1.26h0c-.16.4-.32.8-.47,1.2h-.01c-.03.08-.06.16-.09.24-.18.45-.36.91-.54,1.37h0c-.02.06-.04.11-.06.17s-.04.11-.06.17h0c-.11.28-.22.55-.32.82h0c-.06.15-.12.31-.18.46-.06.15-.12.3-.17.46h-.01c-.05.14-.11.27-.16.41h0c-.19.49-.39.98-.58,1.47-.29.73-.58,1.46-.87,2.21-.21.52-.42,1.04-.63,1.56-.21.55-.43,1.1-.65,1.65-.14.35-.28.7-.42,1.06-.11.28-.22.56-.33.84h-.01c-.25.64-.51,1.29-.76,1.93-.29.75-.58,1.51-.88,2.27-.12.3-.24.61-.36.91-.11.28-.22.55-.32.83-.24.58-.47,1.17-.7,1.76-.22.54-.43,1.08-.65,1.63-.05.14-.11.28-.16.42-.31.78-.63,1.56-.94,2.35-.06.16-.13.32-.19.49-.76,1.9-1.52,3.82-2.27,5.77h0c-.33.83-.65,1.67-.98,2.5-.33.84-.67,1.68-1,2.52-.5,1.27-1,2.55-1.51,3.83-.21.52-.41,1.03-.61,1.55-.01.02-.02.05-.03.07,0,.03-.03.07-.04.1-.13.31-.25.61-.37.92h0c-.12.31-.24.62-.36.92-.08.21-.17.41-.25.62-.29.71-.57,1.43-.86,2.15-.48,1.22-.96,2.44-1.44,3.66h-9.04c.99-2.54,1.97-5.06,2.95-7.57.5-1.28,1-2.56,1.49-3.83l.26-.67.7-1.79c2.07-5.34,4.09-10.57,6.02-15.62.36-.94.72-1.87,1.07-2.79.11-.27.2-.53.31-.8.02-.06.05-.13.07-.19.31-.81.62-1.62.92-2.42.03-.07.05-.14.08-.21.31-.79.61-1.58.9-2.36,1.9-4.98,3.68-9.7,5.31-14.07.17-.45.33-.9.5-1.35,0-.03.02-.07.04-.1.32-.89.64-1.74.96-2.58.26-.71.52-1.41.77-2.1.14-.38.28-.75.41-1.12.01-.04.03-.06.04-.1h0s.01-.03.01-.04c.09-.21.15-.43.24-.64h0c.83-2.29,1.6-4.43,2.3-6.41.1-.29.2-.57.3-.85.1-.28.19-.56.29-.83.28-.82.56-1.6.82-2.35.26-.75.5-1.47.73-2.15.25-.73.47-1.41.68-2.06.11-.32.2-.64.3-.94.29-.9.53-1.7.74-2.41.15-.51.27-.96.37-1.36.07-.3.13-.57.18-.81.24-1.15.51-2.63.82-4.41.41-2.26.86-4.99,1.36-8.1.11-.69.22-1.4.33-2.11.83-5.22,1.75-11.35,2.71-17.97Z"/>
      <path class="cls-6" d="M203.33,271.16c-.11.71-.22,1.42-.33,2.11-.5,3.11-.95,5.84-1.36,8.1-.31,1.78-.58,3.26-.82,4.41-.05.24-.11.51-.18.81-.1.4-.22.85-.37,1.36-.21.71-.45,1.51-.74,2.41-.1.3-.19.62-.3.94-.21.65-.43,1.33-.68,2.06-.23.68-.47,1.4-.73,2.15-.26.75-.54,1.53-.82,2.35-.1.27-.19.55-.29.83-.1.28-.2.56-.3.85-.7,1.98-1.47,4.12-2.3,6.4h0c-.09.22-.15.44-.24.65,0,.01-.01.02-.01.03h0s-.03.07-.04.11c-.13.37-.27.74-.41,1.12-.25.69-.51,1.39-.77,2.1-.32.84-.64,1.69-.96,2.58-.02.03-.03.07-.04.1-.17.45-.33.9-.5,1.35-1.63,4.37-3.41,9.09-5.31,14.07-.29.78-.59,1.57-.9,2.36-.03.07-.05.14-.08.21-.3.8-.61,1.61-.92,2.42-.02.06-.05.13-.07.19-.11.27-.2.53-.31.8-.35.92-.71,1.85-1.07,2.79-1.93,5.05-3.95,10.28-6.02,15.62l-.7,1.79-.26.67c-.49,1.27-.99,2.55-1.49,3.83-.98,2.51-1.96,5.03-2.95,7.57h9.04c.48-1.22.96-2.44,1.44-3.66.29-.72.57-1.44.86-2.15.08-.21.17-.41.25-.62.12-.3.24-.61.36-.91h0c.12-.32.24-.62.37-.93,0-.03.03-.07.04-.1.01-.02.02-.05.03-.07.2-.52.4-1.03.61-1.55.51-1.28,1.01-2.56,1.51-3.83.33-.84.67-1.68,1-2.52.33-.83.65-1.67.98-2.49h0c.75-1.96,1.51-3.88,2.27-5.78.06-.17.13-.33.19-.49.31-.79.63-1.57.94-2.35.05-.14.11-.28.16-.42.22-.55.43-1.09.65-1.63.23-.59.46-1.18.7-1.76.1-.28.21-.55.32-.83.12-.3.24-.61.36-.91.3-.76.59-1.52.88-2.27.25-.64.51-1.29.76-1.93.12-.28.23-.56.34-.84.14-.36.28-.71.42-1.06.22-.55.44-1.1.65-1.65.03-.07.06-.15.1-.22.18-.45.35-.9.53-1.34.29-.75.58-1.48.87-2.21.19-.49.39-.98.58-1.46h0c.05-.15.11-.28.16-.41h.01c.05-.17.11-.32.17-.47.06-.15.12-.31.18-.46h0c.1-.27.21-.54.32-.81h0c.02-.07.04-.12.06-.18s.04-.11.06-.17h0c.18-.46.36-.92.54-1.37.03-.08.06-.16.09-.24h.01c.15-.4.31-.8.47-1.19h0c.17-.43.33-.86.5-1.27,0-.03.02-.05.03-.08.17-.42.33-.84.49-1.25.15-.37.29-.74.44-1.1.07-.18.14-.36.21-.54.22-.54.43-1.07.64-1.6.13-.35.27-.7.4-1.04.17-.43.34-.85.5-1.26h0c.03-.1.07-.19.11-.29.25-.64.5-1.27.75-1.89.03-.08.06-.16.09-.24.16-.39.31-.77.46-1.15.24-.61.47-1.2.7-1.77.11-.28.22-.56.33-.83v-47.52c-.96,6.62-1.88,12.75-2.71,17.97ZM204.99,71.52c-.17-.46-.34-.93-.52-1.4-.17-.48-.35-.97-.54-1.46-.14-.38-.29-.77-.43-1.17-.08-.22-.16-.44-.25-.66-.2-.54-.4-1.09-.61-1.65,0-.01,0-.02,0-.04-.2-.54-.41-1.09-.62-1.65-.17-.46-.34-.93-.52-1.4-.06-.16-.12-.32-.18-.48-.02-.06-.05-.13-.07-.19-.2-.53-.39-1.06-.59-1.6-.37-1-.76-2.03-1.15-3.07-.08-.22-.16-.45-.25-.67-.23-.64-.47-1.29-.72-1.94-.06-.16-.11-.31-.17-.47-.18-.46-.34-.93-.51-1.4-.02-.04-.03-.08-.05-.12-.31-.83-.62-1.69-.94-2.55-.09-.25-.19-.51-.28-.76-.1-.27-.2-.53-.29-.8-.26-.69-.52-1.39-.78-2.1-.26-.71-.53-1.43-.79-2.15-.25-.65-.48-1.31-.73-1.96-.38-1.04-.77-2.1-1.16-3.16-.4-1.1-.81-2.21-1.22-3.33-.24-.65-.48-1.3-.72-1.95h0c-.29-.77-.57-1.54-.85-2.31-.74-2-1.48-4.04-2.24-6.1-.25-.72-.52-1.44-.79-2.16-1.19-3.27-2.4-6.6-3.63-9.97-.39-1.09-.79-2.19-1.19-3.29,0,0,0-.01,0-.02l-.2-.56-.15-.42-.42-1.15c-.26-.72-.52-1.44-.79-2.16-.62-1.74-1.25-3.49-1.89-5.25h-5.94c.78,2.15,1.54,4.28,2.3,6.38l-.23.08h.26c.05.13.09.26.14.39.18.5.36,1,.54,1.5.21.61.43,1.21.65,1.81.09.24.17.48.26.72.47,1.3.93,2.59,1.39,3.87.89,2.47,1.76,4.89,2.62,7.27.24.67.49,1.34.71,2,1.22,3.39,2.41,6.67,3.54,9.83.28.78.56,1.55.83,2.32.17.47.34.94.5,1.4.41,1.13.81,2.25,1.2,3.34.02.06.04.11.06.17.22.62.44,1.25.66,1.85,2.21,6.19,4.19,11.73,5.87,16.47.2.56.4,1.11.59,1.66.03.07.05.15.08.22.27.76.53,1.5.79,2.21.06.17.12.35.18.52.06.17.12.34.18.5.21.58.4,1.14.59,1.67.54,1.55,1.04,2.96,1.47,4.2.96,2.75,1.64,4.75,2,5.87.27.83.56,1.75.84,2.74.21.68.41,1.39.62,2.15,1.41,5.07,3.02,11.62,4.61,18.93v-25.74c-.33-.89-.68-1.83-1.05-2.81ZM25.82,0c-.52,1.25-1.04,2.49-1.55,3.72-.52,1.27-1.04,2.54-1.55,3.79-.28.68-.55,1.36-.82,2.03-.21.54-.44,1.1-.65,1.63-.28.71-.56,1.39-.82,2.08-.21.54-.42,1.07-.63,1.6-.32.8-.62,1.59-.93,2.38-.31.78-.61,1.56-.9,2.33-.79,2.06-1.54,4.07-2.25,6.03-.73,1.97-1.42,3.89-2.06,5.75-.01.03-.02.06-.03.09-.05.11-.09.24-.13.35-.11.32-.22.64-.33.97-.04.12-.08.24-.12.36-.52,1.5-1.02,2.98-1.52,4.47-.11.33-.22.65-.33.98-.39,1.16-.77,2.31-1.14,3.45-.49,1.46-.96,2.93-1.43,4.39-.47,1.45-.93,2.91-1.38,4.35-.03.1-.06.19-.09.29-.2.66-.4,1.33-.6,1.98-.4,1.3-.8,2.59-1.18,3.88-.13.45-.27.9-.4,1.35-.52,1.73-1.02,3.45-1.52,5.16-.58,1.99-1.14,3.97-1.68,5.93-.28.97-.55,1.94-.81,2.9-.2.77-.41,1.53-.61,2.29-.12.45-.23.88-.35,1.32,0,.01-.01.03-.01.04v33.24s.01-.03.01-.04c.9-4.01,1.85-8.05,2.88-12.12.22-.87.43-1.73.66-2.6.54-2.14,1.11-4.28,1.69-6.42.08-.3.16-.61.24-.91.49-1.82,1-3.65,1.51-5.47.09-.31.18-.63.27-.94.57-2.04,1.15-4.08,1.75-6.12l.62-2.08.12-.42c.6-2.03,1.21-4.06,1.83-6.08.37-1.23.75-2.45,1.12-3.67.26-.83.52-1.66.78-2.48.23-.75.47-1.5.71-2.25.44-1.4.89-2.78,1.33-4.16.07-.21.13-.41.2-.61.26-.83.53-1.65.81-2.48.94-2.88,1.89-5.74,2.85-8.57.61-1.8,1.22-3.59,1.83-5.37.2-.59.4-1.17.61-1.75.15-.46.31-.92.47-1.38.23-.65.46-1.28.67-1.92.25-.71.5-1.42.75-2.13,2.02-5.68,4.02-11.2,5.98-16.49.22-.58.44-1.16.65-1.74.04-.1.08-.21.12-.31.53-1.4,1.05-2.79,1.56-4.16l.42-1.11c.69-1.81,1.38-3.6,2.04-5.35h-8.66ZM36.54,365.64c-.49-.99-.97-1.98-1.44-2.95-.1-.19-.19-.39-.28-.58-.75-1.54-1.49-3.06-2.22-4.56-.15-.3-.3-.61-.44-.91-.71-1.46-1.42-2.9-2.1-4.33-2.12-4.36-4.15-8.56-6.07-12.56l-.03-.06c-.44-.91-.87-1.8-1.3-2.68-.29-.6-.58-1.2-.86-1.79-.41-.87-.82-1.73-1.23-2.58-.72-1.52-1.42-3-2.1-4.44-2.05-4.33-3.92-8.32-5.57-11.9-.4-.85-.78-1.68-1.15-2.48-.05-.1-.09-.21-.14-.31-.48-1.05-.94-2.05-1.37-3.01-.33-.73-.65-1.43-.95-2.11-.51-1.15-.98-2.22-1.41-3.22-1.07-2.48-1.89-4.48-2.41-5.91-.88-2.43-1.8-5.07-2.71-7.93-.45-1.39-.89-2.82-1.33-4.32-.48-1.6-.95-3.26-1.42-4.99,0,0-.01-.03-.01-.04v21.89s.01.01.01.02c.24.57.47,1.15.72,1.72.14.34.29.68.43,1.03,0,.03.02.06.03.08h.01c.07.18.15.35.22.53.06.15.13.29.19.44.27.64.55,1.29.83,1.95.06.13.11.26.17.4.46,1.06.92,2.14,1.4,3.23.22.53.45,1.06.69,1.59.12.27.24.54.36.82.37.85.74,1.69,1.11,2.54.05.1.09.21.14.31.38.86.76,1.72,1.15,2.59.06.15.13.29.19.44.34.76.68,1.53,1.03,2.3.34.77.69,1.55,1.04,2.33.35.77.7,1.56,1.06,2.34.08.17.15.35.24.52.27.61.55,1.23.83,1.85.09.2.18.39.27.59.02.04.04.08.06.12.02.05.04.09.06.13.25.56.51,1.12.77,1.69.15.34.31.69.46,1.03.04.08.08.17.12.25.1.22.2.45.3.67h0c.19.42.38.83.57,1.25.08.18.17.36.26.55.1.23.21.46.31.69.11.23.22.46.32.69.21.46.42.91.63,1.37.19.42.39.84.59,1.27.2.43.4.85.59,1.28.04.09.08.17.12.26h0c.68,1.48,1.37,2.94,2.06,4.41.19.42.39.84.59,1.26.02.04.04.08.06.12.18.39.36.77.54,1.16.01.02.02.05.03.07.21.45.42.9.63,1.35.06.14.13.29.2.43.54,1.16,1.09,2.32,1.64,3.48.45.97.9,1.93,1.36,2.89.29.62.58,1.24.88,1.85,0,.04.03.07.05.11.04.07.07.15.1.22.05.1.1.21.15.32.11.23.22.46.33.69.07.14.13.27.2.4h0c.04.1.09.19.13.28.26.55.52,1.11.78,1.66h.01c.3.66.61,1.3.92,1.95.08.15.15.31.22.46.07.15.14.3.21.45h8.48c-.11-.22-.21-.44-.32-.66Z"/>
      <path class="cls-6" d="M28.39,366.31h-12.76c-4.38-9.54-10-22.33-15.62-36.26v-26.17c1.56,3.75,3.26,7.71,5.06,11.81.41.95.83,1.89,1.25,2.85,3.02,6.85,6.29,14.06,9.68,21.4.43.93.87,1.87,1.3,2.81,3.5,7.54,7.1,15.18,10.66,22.65.15.3.29.61.43.91Z"/>
      <path class="cls-6" d="M206.05,300.7v24.63c-7.02,17.08-14.43,34.46-17.81,40.97h-8.13c.48-1.22.96-2.43,1.44-3.65.28-.72.57-1.44.85-2.16.08-.21.17-.41.25-.62.12-.3.24-.61.36-.91h0c.12-.32.24-.62.37-.93,0-.03.03-.07.04-.1.01-.02.02-.05.03-.07.21-.52.41-1.03.62-1.55.84-2.13,1.68-4.25,2.5-6.35.33-.83.65-1.67.98-2.49h0c.83-2.12,1.66-4.2,2.47-6.26.32-.79.63-1.58.93-2.36.05-.14.11-.28.16-.42.22-.55.43-1.09.65-1.63.23-.59.46-1.18.7-1.76.23-.59.46-1.17.69-1.74.29-.76.58-1.52.87-2.27.26-.65.51-1.29.77-1.93.11-.28.22-.56.33-.84.14-.36.28-.71.42-1.06.25-.63.5-1.25.75-1.87.18-.45.35-.9.53-1.34.29-.75.58-1.48.87-2.21.19-.49.39-.98.58-1.46h0c.05-.15.11-.28.16-.41h.01c.12-.32.24-.63.36-.93.1-.27.21-.54.32-.81h0c.02-.07.04-.12.06-.18.03-.06.05-.12.07-.17.19-.46.37-.92.55-1.37.03-.08.06-.16.09-.24.15-.4.31-.8.47-1.19h0c.17-.43.33-.86.5-1.27,0-.03.02-.05.03-.08.17-.42.33-.84.49-1.25.15-.37.29-.74.44-1.1.07-.18.14-.36.21-.54.22-.54.43-1.07.64-1.6.31-.79.61-1.55.91-2.3.03-.1.07-.19.11-.29.25-.64.5-1.27.75-1.89.03-.08.06-.16.09-.24.16-.39.31-.77.46-1.15.24-.61.48-1.2.7-1.77.11-.28.22-.56.33-.83h.01Z"/>
      <path class="cls-6" d="M206.05,45.9v28.43c-.76-2.06-1.62-4.34-2.54-6.84h-.01c-.08-.22-.16-.44-.25-.66-.2-.54-.4-1.09-.61-1.65,0-.01,0-.02,0-.04-.42-1.14-.86-2.32-1.31-3.53-.02-.06-.05-.13-.07-.19-.2-.53-.4-1.06-.59-1.6-.89-2.39-1.83-4.92-2.81-7.55-.02-.04-.03-.08-.05-.12-.3-.84-.62-1.69-.94-2.55-.09-.25-.19-.51-.28-.76-.1-.27-.2-.53-.29-.8-.26-.69-.52-1.39-.78-2.1-.26-.71-.53-1.43-.79-2.15-.25-.65-.48-1.31-.73-1.96-.38-1.04-.77-2.1-1.16-3.16-.4-1.1-.81-2.21-1.22-3.33-.24-.65-.48-1.3-.72-1.95h0c-.29-.77-.57-1.54-.85-2.31-.74-2-1.48-4.04-2.24-6.1-.25-.72-.52-1.44-.79-2.16-1.19-3.27-2.4-6.6-3.63-9.97-.39-1.09-.78-2.19-1.18-3.29,0,0-.01-.01-.01-.02l-.21-.56-.15-.42-.42-1.15c-.88-2.45-1.77-4.92-2.67-7.41h12.88c7.14,22.74,11.95,38.14,11.95,38.14,0,0,.92,2.89,2.48,7.76Z"/>
      <path class="cls-6" d="M25.82,0c-.52,1.25-1.04,2.49-1.55,3.72-.52,1.27-1.04,2.54-1.55,3.79-.28.68-.55,1.36-.82,2.03-.21.54-.44,1.1-.65,1.63-.28.71-.56,1.39-.82,2.08-2.56,6.45-4.84,12.52-6.77,18.09-.06.14-.11.3-.16.44-.11.32-.22.64-.33.97-.04.12-.08.24-.12.36-.63,1.83-1.25,3.64-1.85,5.45-1.38,4.11-2.69,8.17-3.95,12.19-.23.76-.46,1.52-.69,2.27-1.08,3.5-2.11,6.97-3.1,10.39-.58,1.99-1.14,3.97-1.68,5.93-.28.97-.55,1.94-.81,2.9-.2.77-.41,1.53-.61,2.29-.12.46-.24.91-.36,1.36v-37.58c1.11-4.59,1.89-8.28,2.19-10.63C2.65,24.17,6.71,13.93,12.82,0h13Z"/>
      <path class="cls-12" d="M203.33,271.16c-.11.71-.22,1.42-.33,2.11-.5,3.11-.95,5.84-1.36,8.1-.31,1.78-.58,3.26-.82,4.41-.05.24-.11.51-.18.81-.1.4-.22.85-.37,1.36-.21.71-.45,1.51-.74,2.41-.1.3-.19.62-.3.94-.21.65-.43,1.33-.68,2.06-.23.68-.47,1.4-.73,2.15-.26.75-.54,1.53-.82,2.35-.1.27-.19.55-.29.83-.1.28-.2.56-.3.85-.7,1.98-1.47,4.12-2.3,6.4h0c-.09.22-.15.44-.24.65,0,.01-.01.02-.01.03h0s-.03.07-.04.11c-.13.37-.27.74-.41,1.12-.25.69-.51,1.39-.77,2.1-.32.84-.64,1.69-.96,2.58-.02.03-.03.07-.04.1-.17.45-.33.9-.5,1.35-1.63,4.37-3.41,9.09-5.31,14.07-.29.78-.59,1.57-.9,2.36-.03.07-.05.14-.08.21-.3.8-.61,1.61-.92,2.42-.02.06-.05.13-.07.19-.11.27-.2.53-.31.8-.35.92-.71,1.85-1.07,2.79-1.93,5.05-3.95,10.28-6.02,15.62l-.7,1.79-.26.67c-.49,1.27-.99,2.55-1.49,3.83-.98,2.51-1.96,5.03-2.95,7.57h9.04c.48-1.22.96-2.44,1.44-3.66.29-.72.57-1.44.86-2.15.08-.21.17-.41.25-.62.12-.3.24-.61.36-.91h0c.12-.32.24-.62.37-.93,0-.03.03-.07.04-.1.01-.02.02-.05.03-.07.2-.52.4-1.03.61-1.55.51-1.28,1.01-2.56,1.51-3.83.33-.84.67-1.68,1-2.52.33-.83.65-1.67.98-2.49h0c.75-1.96,1.51-3.88,2.27-5.78.06-.17.13-.33.19-.49.31-.79.63-1.57.94-2.35.05-.14.11-.28.16-.42.22-.55.43-1.09.65-1.63.23-.59.46-1.18.7-1.76.1-.28.21-.55.32-.83.12-.3.24-.61.36-.91.3-.76.59-1.52.88-2.27.25-.64.51-1.29.76-1.93.12-.28.23-.56.34-.84.14-.36.28-.71.42-1.06.22-.55.44-1.1.65-1.65.03-.07.06-.15.1-.22.18-.45.35-.9.53-1.34.29-.75.58-1.48.87-2.21.19-.49.39-.98.58-1.46h0c.05-.15.11-.28.16-.41h.01c.05-.17.11-.32.17-.47.06-.15.12-.31.18-.46h0c.1-.27.21-.54.32-.81h0c.02-.07.04-.12.06-.18s.04-.11.06-.17h0c.18-.46.36-.92.54-1.37.03-.08.06-.16.09-.24h.01c.15-.4.31-.8.47-1.19h0c.17-.43.33-.86.5-1.27,0-.03.02-.05.03-.08.17-.42.33-.84.49-1.25.15-.37.29-.74.44-1.1.07-.18.14-.36.21-.54.22-.54.43-1.07.64-1.6.13-.35.27-.7.4-1.04.17-.43.34-.85.5-1.26h0c.03-.1.07-.19.11-.29.25-.64.5-1.27.75-1.89.03-.08.06-.16.09-.24.16-.39.31-.77.46-1.15.24-.61.47-1.2.7-1.77.11-.28.22-.56.33-.83v-47.52c-.96,6.62-1.88,12.75-2.71,17.97ZM204.99,71.52c-.17-.46-.34-.93-.52-1.4-.17-.48-.35-.97-.54-1.46-.14-.38-.29-.77-.43-1.17-.08-.22-.16-.44-.25-.66-.2-.54-.4-1.09-.61-1.65,0-.01,0-.02,0-.04-.2-.54-.41-1.09-.62-1.65-.17-.46-.34-.93-.52-1.4-.06-.16-.12-.32-.18-.48-.02-.06-.05-.13-.07-.19-.2-.53-.39-1.06-.59-1.6-.37-1-.76-2.03-1.15-3.07-.08-.22-.16-.45-.25-.67-.23-.64-.47-1.29-.72-1.94-.06-.16-.11-.31-.17-.47-.18-.46-.34-.93-.51-1.4-.02-.04-.03-.08-.05-.12-.31-.83-.62-1.69-.94-2.55-.09-.25-.19-.51-.28-.76-.1-.27-.2-.53-.29-.8-.26-.69-.52-1.39-.78-2.1-.26-.71-.53-1.43-.79-2.15-.25-.65-.48-1.31-.73-1.96-.38-1.04-.77-2.1-1.16-3.16-.4-1.1-.81-2.21-1.22-3.33-.24-.65-.48-1.3-.72-1.95h0c-.29-.77-.57-1.54-.85-2.31-.74-2-1.48-4.04-2.24-6.1-.25-.72-.52-1.44-.79-2.16-1.19-3.27-2.4-6.6-3.63-9.97-.39-1.09-.79-2.19-1.19-3.29,0,0,0-.01,0-.02l-.2-.56-.15-.42-.42-1.15c-.26-.72-.52-1.44-.79-2.16-.62-1.74-1.25-3.49-1.89-5.25h-5.94c.78,2.15,1.54,4.28,2.3,6.38l-.23.08h.26c.05.13.09.26.14.39.18.5.36,1,.54,1.5.21.61.43,1.21.65,1.81.09.24.17.48.26.72.47,1.3.93,2.59,1.39,3.87.89,2.47,1.76,4.89,2.62,7.27.24.67.49,1.34.71,2,1.22,3.39,2.41,6.67,3.54,9.83.28.78.56,1.55.83,2.32.17.47.34.94.5,1.4.41,1.13.81,2.25,1.2,3.34.02.06.04.11.06.17.22.62.44,1.25.66,1.85,2.21,6.19,4.19,11.73,5.87,16.47.2.56.4,1.11.59,1.66.03.07.05.15.08.22.27.76.53,1.5.79,2.21.06.17.12.35.18.52.06.17.12.34.18.5.21.58.4,1.14.59,1.67.54,1.55,1.04,2.96,1.47,4.2.96,2.75,1.64,4.75,2,5.87.27.83.56,1.75.84,2.74.21.68.41,1.39.62,2.15,1.41,5.07,3.02,11.62,4.61,18.93v-25.74c-.33-.89-.68-1.83-1.05-2.81ZM25.82,0c-.52,1.25-1.04,2.49-1.55,3.72-.52,1.27-1.04,2.54-1.55,3.79-.28.68-.55,1.36-.82,2.03-.21.54-.44,1.1-.65,1.63-.28.71-.56,1.39-.82,2.08-.21.54-.42,1.07-.63,1.6-.32.8-.62,1.59-.93,2.38-.31.78-.61,1.56-.9,2.33-.79,2.06-1.54,4.07-2.25,6.03-.73,1.97-1.42,3.89-2.06,5.75-.01.03-.02.06-.03.09-.05.11-.09.24-.13.35-.11.32-.22.64-.33.97-.04.12-.08.24-.12.36-.52,1.5-1.02,2.98-1.52,4.47-.11.33-.22.65-.33.98-.39,1.16-.77,2.31-1.14,3.45-.49,1.46-.96,2.93-1.43,4.39-.47,1.45-.93,2.91-1.38,4.35-.03.1-.06.19-.09.29-.2.66-.4,1.33-.6,1.98-.4,1.3-.8,2.59-1.18,3.88-.13.45-.27.9-.4,1.35-.52,1.73-1.02,3.45-1.52,5.16-.58,1.99-1.14,3.97-1.68,5.93-.28.97-.55,1.94-.81,2.9-.2.77-.41,1.53-.61,2.29-.12.45-.23.88-.35,1.32,0,.01-.01.03-.01.04v33.24s.01-.03.01-.04c.9-4.01,1.85-8.05,2.88-12.12.22-.87.43-1.73.66-2.6.54-2.14,1.11-4.28,1.69-6.42.08-.3.16-.61.24-.91.49-1.82,1-3.65,1.51-5.47.09-.31.18-.63.27-.94.57-2.04,1.15-4.08,1.75-6.12l.62-2.08.12-.42c.6-2.03,1.21-4.06,1.83-6.08.37-1.23.75-2.45,1.12-3.67.26-.83.52-1.66.78-2.48.23-.75.47-1.5.71-2.25.44-1.4.89-2.78,1.33-4.16.07-.21.13-.41.2-.61.26-.83.53-1.65.81-2.48.94-2.88,1.89-5.74,2.85-8.57.61-1.8,1.22-3.59,1.83-5.37.2-.59.4-1.17.61-1.75.15-.46.31-.92.47-1.38.23-.65.46-1.28.67-1.92.25-.71.5-1.42.75-2.13,2.02-5.68,4.02-11.2,5.98-16.49.22-.58.44-1.16.65-1.74.04-.1.08-.21.12-.31.53-1.4,1.05-2.79,1.56-4.16l.42-1.11c.69-1.81,1.38-3.6,2.04-5.35h-8.66ZM36.54,365.64c-.49-.99-.97-1.98-1.44-2.95-.1-.19-.19-.39-.28-.58-.75-1.54-1.49-3.06-2.22-4.56-.15-.3-.3-.61-.44-.91-.71-1.46-1.42-2.9-2.1-4.33-2.12-4.36-4.15-8.56-6.07-12.56l-.03-.06c-.44-.91-.87-1.8-1.3-2.68-.29-.6-.58-1.2-.86-1.79-.41-.87-.82-1.73-1.23-2.58-.72-1.52-1.42-3-2.1-4.44-2.05-4.33-3.92-8.32-5.57-11.9-.4-.85-.78-1.68-1.15-2.48-.05-.1-.09-.21-.14-.31-.48-1.05-.94-2.05-1.37-3.01-.33-.73-.65-1.43-.95-2.11-.51-1.15-.98-2.22-1.41-3.22-1.07-2.48-1.89-4.48-2.41-5.91-.88-2.43-1.8-5.07-2.71-7.93-.45-1.39-.89-2.82-1.33-4.32-.48-1.6-.95-3.26-1.42-4.99,0,0-.01-.03-.01-.04v21.89s.01.01.01.02c.24.57.47,1.15.72,1.72.14.34.29.68.43,1.03,0,.03.02.06.03.08h.01c.07.18.15.35.22.53.06.15.13.29.19.44.27.64.55,1.29.83,1.95.06.13.11.26.17.4.46,1.06.92,2.14,1.4,3.23.22.53.45,1.06.69,1.59.12.27.24.54.36.82.37.85.74,1.69,1.11,2.54.05.1.09.21.14.31.38.86.76,1.72,1.15,2.59.06.15.13.29.19.44.34.76.68,1.53,1.03,2.3.34.77.69,1.55,1.04,2.33.35.77.7,1.56,1.06,2.34.08.17.15.35.24.52.27.61.55,1.23.83,1.85.09.2.18.39.27.59.02.04.04.08.06.12.02.05.04.09.06.13.25.56.51,1.12.77,1.69.15.34.31.69.46,1.03.04.08.08.17.12.25.1.22.2.45.3.67h0c.19.42.38.83.57,1.25.08.18.17.36.26.55.1.23.21.46.31.69.11.23.22.46.32.69.21.46.42.91.63,1.37.19.42.39.84.59,1.27.2.43.4.85.59,1.28.04.09.08.17.12.26h0c.68,1.48,1.37,2.94,2.06,4.41.19.42.39.84.59,1.26.02.04.04.08.06.12.18.39.36.77.54,1.16.01.02.02.05.03.07.21.45.42.9.63,1.35.06.14.13.29.2.43.54,1.16,1.09,2.32,1.64,3.48.45.97.9,1.93,1.36,2.89.29.62.58,1.24.88,1.85,0,.04.03.07.05.11.04.07.07.15.1.22.05.1.1.21.15.32.11.23.22.46.33.69.07.14.13.27.2.4h0c.04.1.09.19.13.28.26.55.52,1.11.78,1.66h.01c.3.66.61,1.3.92,1.95.08.15.15.31.22.46.07.15.14.3.21.45h8.48c-.11-.22-.21-.44-.32-.66Z"/>
      <path class="cls-6" d="M15.52,53.37c-.44,1.38-.89,2.76-1.33,4.16-.24.75-.48,1.5-.71,2.25l-6.98-2.48-1.11-.39h0s-.86-.31-.86-.31v-6.3l2.64.74,1.2.33,7.16,2Z"/>
      <path class="cls-6" d="M23.71,29.16c-.25.71-.5,1.42-.75,2.13-.21.64-.44,1.27-.67,1.92-.16.46-.32.92-.47,1.38l-6.77-2.61-1.42-.55-.81-.31v-6.82l2.9,1.29,1.3.58,6.69,2.99Z"/>
      <path class="cls-6" d="M32.44,5.35l-.42,1.11c-.51,1.37-1.03,2.76-1.56,4.16-.04.1-.08.21-.12.31l-7.62-3.42-2.91-1.3,1.18-3.14,3.28.65,8.17,1.63Z"/>
      <path class="cls-6" d="M185.91,11.94l-2.53.91-1.1.39-4.18,1.51c-.46-1.28-.92-2.57-1.39-3.87-.09-.24-.17-.48-.26-.72l4.24-1.26,1.14-.34.73-.22,3.35,3.6Z"/>
      <path class="cls-6" d="M194.77,37.86l-1.94.81-1.83.77-3.5,1.47c-.39-1.09-.79-2.21-1.2-3.34-.16-.46-.33-.93-.5-1.4l3.32-1.82,1.77-.96h0s2.1-1.15,2.1-1.15l1.78,5.62Z"/>
      <path class="cls-6" d="M205.24,66.58l-1.73.91h-.01l-2.41,1.26-3.12,1.63c-.43-1.24-.93-2.65-1.47-4.2-.19-.53-.38-1.09-.59-1.67l4.18-2.42,1.15-.67h0l1.36-.79,2.63,5.95Z"/>
      <path class="cls-6" d="M10.24,310.5l-4.07,3.21-1.46,1.14h0s-2.49,1.97-2.49,1.97l-1.23-5.27,1.63-1.51h.01s1.39-1.29,1.39-1.29l3.87-3.58c.43,1,.9,2.07,1.41,3.22.3.68.62,1.38.95,2.11Z"/>
      <path class="cls-6" d="M20.57,332.64l-6.23,2.56-.44.18h0l-3.78,1.55v-4.4l2-1.04h.02l.4-.21,5.94-3.08c.68,1.44,1.38,2.92,2.1,4.44Z"/>
      <path class="cls-6" d="M32.16,356.64l-6.78,1.11-.97.16h-.01l-5.07.83v-2.29l3.71-1.43h.01l.8-.31,6.21-2.4c.68,1.43,1.39,2.87,2.1,4.33Z"/>
      <path class="cls-6" d="M201.47,314.35l-1.47,3.99-.73-.52h0l-.27-.19h-.01l-.63-.44h0s-.78-.54-.78-.54l-5.89-4.12c.32-.89.64-1.74.96-2.58.26-.71.52-1.41.77-2.1.14-.38.28-.75.41-1.12.01-.04.03-.06.04-.1h0s.01-.03.01-.04l5.2,5.31.71.73h0l.59.59v.02l.5.51.59.6Z"/>
      <path class="cls-6" d="M194.38,337.98l-1.61,4.82-2.74-1.59h-.01s-1.66-.97-1.66-.97l-5.88-3.42c.36-.94.72-1.87,1.07-2.79.11-.27.2-.53.31-.8l6.17,2.79,1.74.78,2.61,1.18Z"/>
      <path class="cls-6" d="M187.58,360.13l-2.58,4.31-3.45-1.79h-.01s-7.53-3.92-7.53-3.92c.5-1.28,1-2.56,1.49-3.83l.26-.67,7.62,3.8,4.2,2.1Z"/>
      <path class="cls-6" d="M7.26,80.63c-.09.31-.18.63-.27.94-.51,1.82-1.02,3.65-1.51,5.47-.08.3-.16.61-.24.91L.01,85.46h-.01v-6.88h.01l7.25,2.05Z"/>
      <path class="cls-15" d="M58.41,366.3h-21.11c-.11-.22-.21-.45-.32-.67-.5-1-.98-2-1.46-2.99-.1-.19-.19-.39-.28-.59-.76-1.56-1.51-3.1-2.25-4.61-.15-.3-.3-.62-.45-.92-.72-1.48-1.44-2.93-2.13-4.38-2.15-4.41-4.2-8.66-6.14-12.71l-.03-.06c-.45-.92-.88-1.82-1.32-2.71-.29-.61-.59-1.21-.87-1.81-.42-.88-.83-1.75-1.25-2.61-.73-1.54-1.44-3.04-2.12-4.49-2.07-4.38-3.97-8.42-5.64-12.04-.4-.86-.79-1.7-1.16-2.51-.05-.1-.09-.21-.14-.31-.49-1.06-.95-2.07-1.39-3.05-.33-.74-.66-1.45-.96-2.14-.52-1.16-.99-2.25-1.43-3.26-1.08-2.51-1.91-4.53-2.44-5.98-.89-2.46-1.82-5.13-2.74-8.02-.46-1.41-.9-2.85-1.35-4.37-.49-1.62-.96-3.3-1.44-5.05v-18.06c.45.95,30.88,60.08,34.45,64.79,3.6,4.77,23.95,38.55,23.95,38.55Z"/>
      <path class="cls-2" d="M45.99,0s-23.43,63.3-23.43,65.5S.01,141.14.01,143.57v-34.48c.9-4.01,1.85-8.05,2.88-12.12.22-.87.43-1.73.66-2.6.54-2.14,1.11-4.28,1.69-6.42.08-.3.16-.61.24-.91.49-1.82,1-3.65,1.51-5.47.09-.31.18-.63.27-.94.57-2.04,1.15-4.08,1.75-6.12l.62-2.08.12-.42c.6-2.03,1.21-4.06,1.83-6.08.37-1.23.75-2.45,1.12-3.67.26-.83.52-1.66.78-2.48.23-.75.47-1.5.71-2.25.44-1.4.89-2.78,1.33-4.16.07-.21.13-.41.2-.61.26-.83.53-1.65.81-2.48.94-2.88,1.89-5.74,2.85-8.57.61-1.8,1.22-3.59,1.83-5.37.2-.59.4-1.17.61-1.75.15-.46.31-.92.47-1.38.23-.65.46-1.28.67-1.92.25-.71.5-1.42.75-2.13,2.02-5.68,4.02-11.2,5.98-16.49.22-.58.44-1.16.65-1.74.04-.1.08-.21.12-.31.53-1.4,1.05-2.79,1.56-4.16l.42-1.11c.69-1.81,1.38-3.6,2.04-5.35h11.51Z"/>
      <path class="cls-15" d="M206.05,112.46l-27.29-50.79L164.57,0h7.98c.79,2.17,1.55,4.31,2.32,6.43l.03.08c.05.13.09.26.14.39.18.5.36,1.01.54,1.51.21.61.43,1.22.65,1.82.09.24.17.48.26.73.47,1.31.94,2.61,1.4,3.9.9,2.49,1.77,4.93,2.64,7.32.24.67.49,1.35.72,2.01,1.23,3.41,2.43,6.72,3.57,9.9.28.79.56,1.56.84,2.34.17.47.34.95.5,1.41.41,1.14.82,2.27,1.21,3.36.02.06.04.11.06.17.22.62.44,1.26.66,1.86,2.23,6.23,4.22,11.82,5.91,16.59.2.56.4,1.12.59,1.67.03.07.05.15.08.22.27.77.53,1.51.8,2.23.06.17.12.35.18.52.06.17.12.34.18.5.21.58.4,1.15.59,1.68.54,1.56,1.05,2.98,1.48,4.23.97,2.77,1.65,4.78,2.01,5.91.27.84.56,1.76.85,2.76.21.68.41,1.4.62,2.17,1.42,5.11,3.04,11.7,4.64,19.07v11.66Z"/>
      <line class="cls-14" x1="175.12" y1="6.46" x2="175.09" y2="6.38"/>
      <path class="cls-14" d="M.01,264.17H0"/>
      <path class="cls-15" d="M206.05,227.26l-.03,24.67c-.97,6.69-1.9,12.88-2.74,18.15-.11.72-.22,1.43-.33,2.13-.51,3.14-.96,5.9-1.37,8.18-.31,1.8-.59,3.29-.83,4.45-.05.24-.11.52-.18.82-.1.4-.22.86-.37,1.37-.21.72-.45,1.53-.75,2.43-.1.3-.19.63-.3.95-.21.66-.43,1.34-.69,2.08-.23.69-.47,1.41-.74,2.17-.26.76-.54,1.55-.83,2.37-.1.27-.19.56-.29.84-.1.28-.2.57-.3.86-.71,2-1.48,4.16-2.32,6.46h0c-.09.22-.15.44-.24.66,0,.01-.01.02-.01.03h0c0,.05-.03.07-.04.11-.13.37-.27.75-.41,1.13-.25.7-.52,1.4-.78,2.12-.32.85-.65,1.71-.97,2.61-.02.03-.03.07-.04.1-.17.45-.33.91-.51,1.36-1.65,4.41-3.44,9.18-5.36,14.21-.29.79-.6,1.59-.91,2.38-.03.07-.05.14-.08.21-.3.81-.62,1.63-.93,2.44-.02.06-.05.13-.07.19-.11.27-.2.54-.31.81-.35.93-.72,1.87-1.08,2.82-1.95,5.1-3.99,10.38-6.08,15.78l-.71,1.81-.26.68c-.49,1.28-1,2.58-1.5,3.87-.99,2.54-1.98,5.08-2.98,7.65h-15.47c8.3-16.88,33.59-68.44,33.83-70.54.21-1.98,12.02-53.72,17.01-68.38Z"/>
    </g>
  </g>
</svg>