<?xml version="1.0" encoding="UTF-8"?>
<svg id="Calque_4" data-name="Calque 4" xmlns="http://www.w3.org/2000/svg" viewBox="0 0 157.14 158.01">
  <defs>
    <style>
      .cls-1 {
        fill: #386f9c;
      }

      .cls-1, .cls-2 {
        stroke-width: 0px;
      }

      .cls-2 {
        fill: #e5dfca;
      }
    </style>
  </defs>
  <path class="cls-1" d="M100.8,136.38s-14.58,2.83-17.99,3.41c-3.4.59-20.24-1.73-20.24-1.73l-4.4-10.59s-2.34-26.69-2.43-28.73,4.63-20.74,4.84-22.5c.22-1.76-3.08-7.14-3.51-16.88-.43-9.74,2.61-18,2.61-18,2.47-.11,33.04-2.51,33.04-2.51,0,0,5.41,7.19,6.42,13.41,1,6.22-2.4,21.51-2.96,22.12-.56.61,4.08,16.71,6.35,21.86,2.27,5.14-1.73,40.13-1.73,40.13Z"/>
  <path class="cls-2" d="M95.82,38.3c.09.3-3.71,1.65-3.71,1.65,0,0-29.96,1.32-32.43,1.43,0,0-1.88-.03-2.47-.5-.58-.47-.22-9.18.78-10.15,1-.96,9.24-3.3,12.83-3.53,1.76-.11,5.99-.3,9.84-.46,4-.17,7.59-.31,7.59-.31l5.92,4.4s1.56,7.17,1.64,7.47Z"/>
  <path class="cls-2" d="M80.84,18.35l-.18,8.38c-3.85.16-8.08.35-9.84.46,0,0-1.96-8.01-1.75-8.68.21-.68,6.65-1.99,7.14-1.95.49.04,4.63,1.8,4.63,1.8Z"/>
  <line class="cls-2" x1="80.67" y1="26.76" x2="80.67" y2="26.73"/>
  <path class="cls-1" d="M72.71,15.48s-4.48,2.27-4.81,2.55.69,2.42,1.38,2.2,11.6-1.13,11.6-1.13c0,0,1.59-1.86,1.34-1.73s-5.19-2.08-6.05-2.04l-3.45.15Z"/>
</svg>