<?xml version="1.0" encoding="UTF-8"?>
<svg id="Calque_4" data-name="Calque 4" xmlns="http://www.w3.org/2000/svg" viewBox="0 0 157.14 158.01">
  <defs>
    <style>
      .cls-1 {
        fill: #386f9c;
      }

      .cls-1, .cls-2, .cls-3, .cls-4 {
        stroke-width: 0px;
      }

      .cls-2 {
        fill: #252127;
      }

      .cls-3 {
        fill: #de9b94;
      }

      .cls-4 {
        fill: #e5dfca;
      }
    </style>
  </defs>
  <g>
    <path class="cls-4" d="M61.26,63.29s10.89.08,12.33,1.15c1.44,1.07,15.12,12.46,15.12,12.46,0,0,17.17,13.56,18.53,15.27,1.51,1.9,15.05,14.19,15.05,14.19,0,0,8.26-.55,9.67-1.76,1.41-1.21,5.89-5.32,5.89-5.32,0,0,4.11-7.64,4.29-8.32.17-.67.13-8.52-2.26-10.5-2.39-1.98-9.37-6.37-9.37-6.37l-21.74-13.18s-16.37-13.23-17.22-14.09c-.85-.87-7.72-9.13-7.72-9.13,0,0-22.07-16.95-23.32-16.81-1.26.14-5.29,2.54-6.2,3.79-.91,1.26-7.15,10.46-7.15,10.46,0,0-7.95,6.71-8.52,8.26-.57,1.55.83,5.27.83,5.27l21.79,14.64ZM128.5,87.58s1.51-3.21,4.31-1.94c2.8,1.27,1.42,4.66,1.42,4.66,0,0-2.63,2.07-4.38.97-1.75-1.1-1.35-3.69-1.35-3.69ZM120.54,98.62c-.3-1.14,1.76-2.66,1.76-2.66,0,0,2.31-.27,2.99.71.68.98,0,3.56,0,3.56l-2.88,1.14s-1.57-1.61-1.87-2.75Z"/>
    <path class="cls-2" d="M87.34,40.47s-9.17,6.94-10.91,9.12c-1.74,2.18-7.32,7.43-7.32,7.43,0,0-2.78,1.28-3.09,1.3s0-6.13-.34-6.81-10.44-12.07-10.75-12.05-8.11-5.51-8.11-5.51c0,0,9.41-12.17,9.45-12.69s8.47-3.16,9.16-2.78,18.55,15.69,19.27,16.59,2.65,5.39,2.65,5.39Z"/>
    <path class="cls-1" d="M83.71,28.74s-20.62,22.54-21.21,23.74-9.43,13.05-9.43,13.05c0,0-10.67-6.28-11.03-6.56s-4.69-4.25-4.69-4.25c0,0,8.37-16.86,13.41-22.07,5.04-5.21,17.78-16.54,17.78-16.54,0,0,12.61,8.33,13.37,9.66.76,1.33,1.8,2.98,1.8,2.98Z"/>
    <path class="cls-1" d="M125.24,76.43s-8.58,9.35-8.85,10.51c-.27,1.16-3.72,5.88-3.72,5.88,0,0-3.56-2.14-4.28-2.94-.71-.8,4.31-7.11,5.81-9.25,1.49-2.15,7.87-7.65,7.87-7.65l3.17,3.45Z"/>
  </g>
  <g>
    <path class="cls-4" d="M39.22,75.84s10.45,3.03,11.55,4.46c1.1,1.42,11.16,16.1,11.16,16.1,0,0,10.13,13.37,11.52,16.2.96,1.96,10.8,18.48,10.8,18.48,0,0,8.1,1.71,9.78.93,1.69-.78,13.54-11.75,13.89-12.35.35-.6,1.36-8.92-.4-11.48-1.76-2.56-11.59-11.59-11.59-11.59l-10.36-10.14s-12.16-17.18-12.74-18.25c-.59-1.06-4.95-10.88-4.95-10.88,0,0-16.63-22.31-17.88-22.52-1.25-.2-5.79,1.01-7,1.97-1.22.96-9.72,8.12-9.72,8.12,0,0-8.33,5.96-9.3,7.3-.97,1.34-.63,5.3-.63,5.3l15.85,18.34ZM95.02,114.36s2.64-3.26,4.99-1.27c2.35,1.99,0,4.99,0,4.99,0,0-2.99,2.09-4.37.55-1.38-1.54-.61-4.26-.61-4.26ZM84.12,122.52c.02-1.18,2.8-2.43,2.8-2.43,0,0,3.29,1.01,3.68,2.14.39,1.13-2.22,3.8-2.22,3.8l-3.15-.02s-1.12-2.32-1.1-3.5Z"/>
    <path class="cls-2" d="M70.15,61.22s-10.24,3.59-12.51,5.22c-2.27,1.63-8,4.83-8,4.83,0,0-2.25.84-2.55.78s-.27-5.6-.42-6.35-6.77-14.45-7.07-14.52-7.61-6.21-7.61-6.21c0,0,14.71-11.18,14.89-11.67s7.96,0,8.52.55,13.18,20.56,13.63,21.62c.45,1.06,1.13,5.75,1.13,5.75Z"/>
    <path class="cls-3" d="M69.33,47.39s-25.97,16.09-26.87,17.08-14.57,8.32-14.57,8.32c0,0-5.72-5.98-5.99-6.34s-2.41-6.81-2.41-6.81c0,0,11.68-12.5,17.96-16.15,6.27-3.65,21.6-11.09,21.6-11.09,0,0,9.87,11.45,10.24,12.93.37,1.48.04,2.06.04,2.06Z"/>
    <path class="cls-3" d="M74.25,106.43s5.5-2,6.11-3.04c.6-1.03,11.76-7.75,11.76-7.75,0,0,1.76,1.93,2.2,2.9s-6.61,4.69-8.67,6.3-7.81,4.53-7.81,4.53l-3.59-2.94Z"/>
  </g>
</svg>