<?xml version="1.0" encoding="UTF-8"?>
<svg id="Calque_4" data-name="Calque 4" xmlns="http://www.w3.org/2000/svg" viewBox="0 0 157.14 158.01">
  <defs>
    <style>
      .cls-1 {
        fill: #de9b94;
      }

      .cls-1, .cls-2, .cls-3 {
        stroke-width: 0px;
      }

      .cls-2 {
        fill: #d85f45;
      }

      .cls-3 {
        fill: #e5dfca;
      }
    </style>
  </defs>
  <path class="cls-1" d="M77.44,85.39s28.06,9.99,31.52,12.79,11.42,21.46,11.42,21.46c0,0,18.21-2.34,19.26-3.47,1.05-1.13,13.57-11.84,13.47-15.03-.1-3.19-14.27-23.21-14.97-24.02-.71-.8-34.9-16.27-34.9-16.27l-9.77-28.68s-49.23-12.98-53.54-14.32c-4.31-1.34-23.92-.64-25.75,3.19s-10.15,17.38-10.15,17.38c0,0,.22,17.76,2.31,22.9,2.09,5.14,24.56-.68,27.46.23,2.9.91,15.61,11.15,15.61,11.15,0,0,10.79-.36,13.93.29s-13.59-19.68-14.49-19.82c-.9-.13-17.68-1.39-21.16-1.46-3.48-.07-15.73,4.66-15.77.72s7.75-25.98,7.75-25.98c0,0,17.81.94,23.13,3.26,5.32,2.32,33.2,9.58,34.27,11.77,1.07,2.19,19.65,22.04,19.65,22.04,0,0,28.42,22.46,29.95,24.53,1.53,2.07,3.43,14.93,3.43,14.93l-7.41,3.3s-10.61-14.98-11.51-15.55c-1.74-1.1-27.6-20.1-27.6-20.1l-20.93,3.18,14.79,11.58Z"/>
  <path class="cls-3" d="M80.57,123.76s-17.03,7.12-23.95,5.89c-7.45-1.35-14.48-3.79-21.23-7.09-7.61-3.75-12.05-9.83-13.24-18.29-1.17-8.16-1.34-16.29,2.94-23.72,13.84-23.99,39.59-19.7,39.59-19.7l12.92,4.5.14.07c4.37,2.27,8.22,5.3,11.07,9.28,5.34,7.44,6.84,15.92,5.55,24.79-1.7,11.88-13.79,24.27-13.79,24.27Z"/>
  <g>
    <path class="cls-2" d="M65.7,115.88c-1.91-.13-3.85.38-6.16-.33,2.09-1.34,4.04-2.34,5.51-3.93,4.07-4.42,4.77-10.59,1.92-16.26-1.13-2.25-2.16-4.52-2.9-6.96-1.35-4.45-.67-8.42,2.5-12.32-4.27-.24-10.07,4.09-10.07,4.09l-6.6,9.13s-2.35,6.87-3.27,10.91c-1.68-3.35-2.91-10.21-2.91-10.21,0,0-6.34,7.72-7.23,12.56-.89,4.89.49,9.39,2.94,13.91-12-3.31-8-28.86-8-28.86,0,0,8.82-25.36,34.17-17.75,25.09,10.76,18.65,33.27,18.65,33.27,0,0-11.66,24.17-31.91,20.01-.08-1.27,10.48-2.45,13.35-7.22.08,0,.16.03.23.02.04-.01.07-.08.11-.13-.11.03-.23.07-.34.1Z"/>
    <path class="cls-2" d="M46.52,117.15c.08.06-.37-.18-.68-.53-.9-1.02-2.21-2.41-1.42-3.51.92-1.28,2.38-.34,3.45.65,1.06.99,2.93.37,3.79,1.88.27.47,1.01.71.74,1.42-.23.61-.81.83-1.4.88-1.35.1-2.73.28-4.47-.78Z"/>
  </g>
</svg>