<?xml version="1.0" encoding="UTF-8"?>
<svg id="Calque_4" data-name="Calque 4" xmlns="http://www.w3.org/2000/svg" viewBox="0 0 157.14 158.01">
  <defs>
    <style>
      .cls-1 {
        fill: #386f9c;
      }

      .cls-1, .cls-2, .cls-3 {
        stroke-width: 0px;
      }

      .cls-2 {
        fill: #de9b94;
      }

      .cls-3 {
        fill: #e5dfca;
      }
    </style>
  </defs>
  <path class="cls-3" d="M129.59,86.36c-1.32,6.2-4.27,11.43-5.81,17.57-1.24,4.93-2.08,9.95-3.42,14.85-1.2,4.38-2,8.86-3.27,13.22-.25.86-.52,1.12-1.37.69-.5-.26-1.1-.35-1.66-.46-6.73-1.32-11.45-2.45-18.09-4.13-3.7-.94-7.41-1.9-11.09-2.92-4.56-1.27-9.19-2.21-13.82-3.08-4.51-.85-8.99-1.84-13.5-2.62-6.71-1.16-13.38-2.53-20.09-3.7-5.05-.88-10.03-2.07-15.07-3-.98-.18-1.22-.52-.99-1.51,1.02-4.53,1.98-9.07,2.94-13.61,2.06-9.72,4.3-19.41,6.1-29.18,1.34-7.28,4.43-21.76,4.43-21.76,0,0,22.89,3.74,33.53,5.96,8.28,1.73,14.63,4.9,22.94,6.45,6.92,1.29,14.92,2.92,21.87,4.07,6.2,1.03,12.79,2.5,18.97,3.65,1.24.23,1.44.69,1.18,1.86-1.4,6.32-2.42,11.31-3.77,17.64h0Z"/>
  <path class="cls-2" d="M49.4,64.79s-11.75,2.57-11.01,8.39c.74,5.82,6.25,10.35,6.25,10.35,0,0,10.85-4.65,11.23-6.16.37-1.51.31-9.69-3.08-11.14l-3.39-1.45Z"/>
  <path class="cls-2" d="M76.36,77.42c-.44-.04-6.73,1.42-7.17,4.36s-1.28,9.75,2.35,10.11,9.4.95,10.95.51,8.19-4.11,6.91-7.68c-1.29-3.57-7.16-7.6-8.33-7.87s-4.7.57-4.7.57Z"/>
  <path class="cls-2" d="M109.22,85.28c-2.43.73-6.32.75-6.34,6.44-.02,5.69,4.95,11.47,7.34,11.15s8.75-5.5,9-9.37c.25-3.86.14-6.93-2.19-8.55l-7.81.32Z"/>
  <path class="cls-2" d="M46.78,124.19l12.21-23.74s11.26-5.75,14.17-5.63c2.92.12,11.83,3.95,12.68,5.76s.21,28.02.21,28.02l-39.27-4.41Z"/>
  <path class="cls-2" d="M47.59,121.63s5.73-26.83,4.83-29.17c-.9-2.33-.66-4.71-5.25-5.98s-12.05-.28-13.94,1.63c-1.89,1.91-4.99,13.92-4.99,13.92l-8.38,13.72,27.72,5.89Z"/>
  <path class="cls-2" d="M88.44,125.53s5.95-12.38,9.74-15.76c3.79-3.38,8.32-4.8,10.32-4.45,2,.36,9,6.55,8.81,7.16s2.84,10.95,2.64,11.4-2.34,8.7-2.34,8.7l-2.74,4.11-26.89-6.66.45-4.5Z"/>
  <path class="cls-2" d="M74.81,77.99c.08.38.19.77.43,1.08.29.35.73.54,1.16.69,1.5.54,3.06.92,4.64,1.14,1.03.14,2.26.14,2.88-.69.26-.34.37-.77.43-1.2.42-2.95-1.76-6.93-4.87-7.51-1.03-.19-3.92-.24-4.71.36-1.2.92-.24,4.9.03,6.13Z"/>
  <path class="cls-1" d="M64.1,42.84c10.7,1.61,20.53,4.27,30.46,6.42,5.63,1.22,11.33,1.95,17.02,2.69,8.63,1.13,20.59,2.47,29.06,4.46,2.69.63,5.39,1.23,8.1,1.8.81.17,1.03.34.77,1.27-2.72,9.79-6.78,18.76-8.49,28.83-3.12,18.31-10.17,37.42-14.16,55.55-.26,1.18-.63,1.42-1.83,1.2-6.87-1.31-13.79-2.42-20.65-3.79-3.67-.73-7.27-1.78-10.88-2.75-6.97-1.86-13.89-3.85-21.08-4.83-8.38-1.15-16.74-2.5-24.9-4.88-11.81-3.45-35.78-8.99-35.78-8.99,0,0,2.93-19.94,4.56-29.31,2.14-12.31,4.7-24.54,7.53-36.71,1.38-5.91,5.71-18.35,5.71-18.35,0,0,6.71,1.45,10.07,2.16,8.37,1.78,16.75,3.57,24.49,5.21ZM129.59,86.36h0c1.35-6.33,2.39-11.3,3.79-17.62.26-1.17.06-1.63-1.18-1.86-6.17-1.14-12.27-2.67-18.47-3.7-6.94-1.15-15.45-2.75-22.37-4.04-8.32-1.55-14.66-4.72-22.94-6.45-10.64-2.22-33.53-5.96-33.53-5.96,0,0-3.08,14.47-4.43,21.76-1.8,9.77-4.04,19.46-6.1,29.18-.96,4.54-1.92,9.08-2.94,13.61-.22.99.02,1.33.99,1.51,5.04.93,10.02,2.11,15.07,3,6.7,1.17,13.38,2.54,20.09,3.7,4.52.78,9,1.77,13.5,2.62,4.63.87,9.26,1.81,13.82,3.08,3.68,1.02,7.38,1.98,11.09,2.92,6.64,1.68,11.36,2.81,18.09,4.13.57.11,1.16.21,1.66.46.85.43,1.12.18,1.37-.69,1.28-4.36,2.07-8.84,3.27-13.22,1.34-4.9,2.18-9.92,3.42-14.85,1.54-6.14,4.49-11.37,5.81-17.57Z"/>
</svg>