<?xml version="1.0" encoding="UTF-8"?>
<svg id="Calque_4" data-name="Calque 4" xmlns="http://www.w3.org/2000/svg" viewBox="0 0 157.14 158.01">
  <defs>
    <style>
      .cls-1 {
        fill: #d85f45;
      }

      .cls-1, .cls-2, .cls-3 {
        stroke-width: 0px;
      }

      .cls-2 {
        fill: #677f63;
      }

      .cls-3 {
        fill: #e5dfca;
      }
    </style>
  </defs>
  <path class="cls-3" d="M81.39,84.6s-9.72-7.93-17.53-3.8c-7.81,4.13-14.8,12.03-16.44,18.94-1.63,6.91,5.17,19.45,6.07,20.47.9,1.02,18.79,6.93,20.02,6.35,1.23-.58,17.3-11.74,17.96-15.8.66-4.06-.46-15.52-.97-15.82s-9.1-10.35-9.1-10.35Z"/>
  <path class="cls-2" d="M77.79,97.7s-4.58,2.84-5.12,2.65-5.13-2.04-5.13-2.04l2.63,5.32s-4.42,5.05-4.67,5.08,5.73-.17,5.73-.17l4.55,4.66s-.55-5.63-.63-5.69,6.05.36,5.59-.28c-1.48-2.07-4.13-4.21-4.05-4.5s1.08-5.03,1.08-5.03Z"/>
  <path class="cls-2" d="M83.08,95s-9.61-4.62-14.37-1.72-7.75,11.96-7.75,11.96c0,0,.64,6.76,5.06,10.28,4.42,3.53,6.75,3.86,6.75,3.86,0,0-12.44-2.94-13.61-4.46-1.17-1.52-4.27-10.6-3.8-12.86s6.76-11.5,6.76-11.5c0,0,9.25-2.12,10.55-1.9,1.3.22,7.79,3.11,10.41,6.34Z"/>
  <path class="cls-1" d="M101.18,52.19c1.79-2.97,4.71-16.76,1.11-20.86-3.6-4.1-14.75-13.5-18.59-14.47,0,0-19.01-7.18-30.46,10.75,0,0,.72,17.57,2.19,18.96s20.87,11.08,24.6,11.23c3.73.15,19.37-2.65,21.16-5.62ZM88.25,53.86c-3.04,2.47-20.58-3.45-20.58-3.45,0,0-8.02-8.69-8.45-12.39-.43-3.7,4.98-13.61,8.9-16.19,3.06-2.01,12.3-.85,16.2-.24,5.87,4.32,13.41,15.95,13.8,19.86.4,4.04-6.84,9.94-9.88,12.41Z"/>
  <path class="cls-1" d="M75.45,82.39c1.13-2.74,6.31-18.32,6.34-19.5.03-1.18,1.08-12.98.96-13.21-.12-.23-2.3-2.9-2.98-3.18,0,0-8.04,4.75-8.9,6.23-.86,1.48-4.62,13.03-4.48,16.11s1.33,14.96,2.13,15.61,5.81.69,6.94-2.05ZM70.59,78.67c-.64-.24.58-9.54.39-10.35-.19-.8,3.23-12.31,3.63-13.44.41-1.13,2.26-1.57,2.26-1.57,2.28,2.74.98,9.59.81,10.4-.17.81-4.25,14-4.57,14.56-.32.56-1.89.64-2.53.39Z"/>
</svg>