<?xml version="1.0" encoding="UTF-8"?>
<svg id="Calque_4" data-name="Calque 4" xmlns="http://www.w3.org/2000/svg" viewBox="0 0 157.14 158.01">
  <defs>
    <style>
      .cls-1 {
        fill: #d85f45;
      }

      .cls-1, .cls-2 {
        stroke-width: 0px;
      }

      .cls-2 {
        fill: #e5dfca;
      }
    </style>
  </defs>
  <path class="cls-1" d="M60.94,27.16s-8.66,31.11-9.82,35.39c-1.16,4.27-7.92,32.69-8.95,34.52-1.04,1.83-7.62,18.84-6.79,21.79s7.66,5.86,8.22,6.1,40.61,10.62,41.54,10.53,12.42-35.19,13.3-37.89c.88-2.7,11.03-46.89,11.29-49.11.26-2.22,1.83-8.21.62-8.96s-27.73-8.42-30.49-9.23c-1.96-.58-18.92-3.13-18.92-3.13Z"/>
  <path class="cls-2" d="M61.46,37.86s27.83,6.89,28.39,6.87c.56-.01,15.73,5.71,15.73,5.71,0,0-6.88,28.45-8.54,34.18s-10.19,38.94-11.7,38.65-25.37-6.89-29.14-8.1c-3.77-1.21-14.49-6.05-15.04-7.06s15.3-49.72,15.3-49.72l5-20.54Z"/>
  <path class="cls-2" d="M62.64,119.3s-3.81-.44-4.47.97-.21,4.84-.02,4.99,3.6,1.64,4.47,1.37c.87-.27,2.96-.5,2.84-2.71-.12-2.21-2.82-4.62-2.82-4.62Z"/>
</svg>