<?xml version="1.0" encoding="UTF-8"?>
<svg id="Calque_4" data-name="Calque 4" xmlns="http://www.w3.org/2000/svg" viewBox="0 0 122.18 120.87">
  <defs>
    <style>
      .cls-1 {
        fill: #d85f45;
      }

      .cls-1, .cls-2 {
        stroke-width: 0px;
      }

      .cls-2 {
        fill: #e5dfca;
      }
    </style>
  </defs>
  <path class="cls-1" d="M98.38,17.9c-1.21-.74-27.73-8.42-30.49-9.23-1.96-.58-18.92-3.13-18.92-3.13,0,0-8.65,31.11-9.82,35.38-1.16,4.27-7.91,32.69-8.95,34.52-1.04,1.83-7.62,18.85-6.79,21.79.83,2.95,7.66,5.87,8.22,6.1.56.24,40.61,10.62,41.54,10.53.93-.1,12.42-35.19,13.3-37.89.89-2.71,11.03-46.89,11.29-49.12.26-2.22,1.84-8.21.62-8.95ZM85.07,63.01c-1.66,5.73-10.19,38.93-11.7,38.65-1.51-.29-25.37-6.89-29.14-8.1-3.77-1.21-14.49-6.05-15.04-7.06-.54-1.01,15.3-49.72,15.3-49.72l5-20.54s27.79,6.87,28.39,6.87,15.73,5.71,15.73,5.71c0,0-6.88,28.45-8.54,34.19Z"/>
  <path class="cls-2" d="M50.68,97.69s-3.81-.44-4.47.97c-.66,1.42-.21,4.84-.02,4.99s3.6,1.64,4.47,1.37c.87-.27,2.96-.5,2.84-2.71-.12-2.21-2.82-4.62-2.82-4.62Z"/>
</svg>