<?xml version="1.0" encoding="UTF-8"?>
<svg id="Sac" xmlns="http://www.w3.org/2000/svg" viewBox="0 0 161.46 541">
  <defs>
    <style>
      .cls-1 {
        fill: #386f9c;
      }

      .cls-1, .cls-2, .cls-3, .cls-4 {
        stroke-width: 0px;
      }

      .cls-2 {
        fill: #212425;
      }

      .cls-3 {
        fill: #e5d5bb;
      }

      .cls-4 {
        fill: #030403;
      }
    </style>
  </defs>
  <path class="cls-1" d="M140.12,268.66c-3.52-16.21-10.54-96.21-8.2-107.91,1.9-9.46,2.26-65.62,1.09-88.72-.27-5.51-.64-9.14-1.09-9.81-.48-.72-3.38-2.63-7.75-5.23-17.1-10.18-56.67-30.98-61.33-32.38-3.99-1.2-12.66-2.12-35.9.41v36.9l5.35.02s.71,2.27,1.91,6.09c.99,3.17,2.32,7.41,3.85,12.31,7.59,24.3,20.18,64.72,21.74,70.61,2.25,8.49,25.75,65.47,25.75,65.47,0,0,3.71,17.61,6.89,33.09.17.84.34,1.67.51,2.49.25,1.23.5,2.44.74,3.62.16.79.31,1.56.47,2.32.3,1.51.59,2.95.86,4.3.67,3.37,1.21,6.16,1.54,7.98.07.36.13.69.17.97.07.42.12.75.15.97,0,.08.02.14.02.19.25,3.24-6.85,60.67-7.1,62.17s-15.89,41.76-18.29,47.06c-1.32,2.93-10.08,29.72-17.38,52.2-.19.61-.39,1.22-.59,1.83-.39,1.22-.78,2.42-1.17,3.61-.19.59-.38,1.17-.57,1.75-.46,1.45-.92,2.87-1.37,4.25-.36,1.09-.7,2.17-1.04,3.2h0c-.16.53-.33,1.04-.49,1.54-.73,2.26-1.4,4.34-2,6.2-.4,1.23-.76,2.37-1.09,3.38-.06.19-.12.38-.18.56-.36,1.09-.66,2.03-.9,2.79-.04.13-.08.25-.12.37h0c-.1.32-.19.6-.27.84-.07.2-.12.38-.17.53-.12.38-.18.58-.18.58h-.01l-12.11,29.27h-4.92v31.33c39.51-.54,103.2-9.7,104.98-22.99,2.34-17.44-1.17-122.53-1.76-133.65-.58-11.12,13.47-84.31,9.96-100.51Z"/>
  <path class="cls-2" d="M96.89,272.35c0-.05,0-.11-.02-.19-.03-.22-.08-.55-.15-.97-.05-.28-.1-.61-.17-.97-.33-1.82-.87-4.61-1.54-7.98-.27-1.35-.56-2.79-.86-4.3-.16-.76-.31-1.53-.47-2.32-.24-1.18-.49-2.39-.74-3.62-.17-.82-.34-1.65-.51-2.49-3.18-15.48-6.89-33.09-6.89-33.09,0,0-23.5-56.98-25.75-65.47-1.56-5.89-14.15-46.31-21.74-70.61-1.53-4.9-2.86-9.14-3.85-12.31-1.2-3.82-1.91-6.09-1.91-6.09l-5.35-.02v4.48h.69s.02.02.03.09c.09.28.38,1.21.83,2.68.03.09.06.18.09.28.29.91.62,2.01,1.02,3.27.07.2.13.41.19.62.02.06.04.13.06.19.04.14.09.29.14.44.09.3.19.61.3.93.08.27.16.55.25.84.12.4.25.82.38,1.24,0,.03.02.06.03.09.15.45.29.91.44,1.38.61,1.95,1.28,4.09,2.01,6.4.14.44.29.89.43,1.35.64,2.02,1.31,4.15,2.02,6.38.38,1.19.76,2.4,1.16,3.64.01.03.01.06.03.09.13.44.27.88.42,1.33.98,3.07,2,6.28,3.06,9.58.11.35.22.69.34,1.04.51,1.58,1.02,3.18,1.54,4.8.33,1,.65,2.02.98,3.04.02.06.04.11.06.17.1.31.21.63.3.94.84,2.55,1.67,5.13,2.52,7.71.12.36.24.73.36,1.1.79,2.41,1.58,4.82,2.38,7.22.21.64.42,1.27.63,1.9.11.32.21.63.31.94.02.08.05.16.08.23.47,1.43.94,2.83,1.42,4.23.41,1.25.84,2.53,1.29,3.83l.33.96c1.01,2.97,2.09,6.08,3.21,9.27.1.31.21.62.32.93.19.57.39,1.13.59,1.7.51,1.43,1.01,2.88,1.53,4.34.2.57.41,1.14.61,1.72.01.02.02.04.02.06.05.14.1.28.15.43.17.44.32.9.49,1.35.9,2.54,1.81,5.09,2.73,7.65.14.39.28.78.42,1.18.44,1.22.88,2.45,1.32,3.67.44,1.19.87,2.38,1.29,3.56.13.34.25.67.37,1.01l.44,1.2v.02c.93,2.55,1.84,5.06,2.73,7.51.16.41.31.82.45,1.22,1.15,3.13,2.26,6.14,3.31,9.01.07.18.13.36.2.54.14.37.27.74.41,1.11.24.64.47,1.28.7,1.9.94,2.56,1.83,4.97,2.66,7.19.12.34.25.68.38,1.01,1.55,4.2,2.84,7.66,3.75,10.07.08.22.16.42.23.62.02.08.05.15.08.22.05.14.1.27.14.39.64,1.7,1,2.64,1,2.64,0,0,.22,1.03.61,2.81.35,1.68.85,4.02,1.41,6.81.07.4.15.8.23,1.22.69,3.41,1.46,7.39,2.22,11.58.08.48.17.95.25,1.43.12.64.23,1.28.34,1.93.2,1.13.4,2.27.58,3.41.09.5.17,1.01.25,1.52.32,1.95.62,3.88.9,5.78.06.43.12.86.18,1.28.52,3.67.93,7.15,1.18,10.21.03.44.06.87.09,1.3.09,1.32.14,2.54.15,3.66,0,1.77-.08,3.26-.3,4.36-.02.1-.04.19-.06.28-.12.5-.24,1.09-.38,1.75-.1.52-.21,1.09-.31,1.69-.52,2.84-1.11,6.61-1.72,10.84-.07.42-.13.85-.19,1.27-.28,1.92-.56,3.92-.84,5.97-.18,1.36-.37,2.75-.56,4.15-.06.46-.12.93-.19,1.4,0,.15-.04.3-.05.45-.39,2.84-.75,5.68-1.11,8.43-.06.47-.12.93-.18,1.4-.51,3.98-.97,7.71-1.36,10.86-.05.37-.09.74-.14,1.09-.06.49-.11.96-.17,1.41-.19,1.57-.35,2.92-.49,3.99-.17,1.45-.29,2.41-.33,2.75,0,.09,0,.14,0,.14,0,0,0,.02-.03.06,0,.03-.03.08-.06.14-.01.04-.02.09-.05.15-.1.25-.25.62-.45,1.12-.05.14-.11.28-.17.44-.14.35-.29.74-.46,1.17-.95,2.4-2.42,6.11-4.21,10.64-.21.51-.42,1.04-.63,1.57-.46,1.17-.94,2.39-1.44,3.65-.59,1.49-1.2,3.03-1.83,4.61-.06.18-.13.35-.2.53-.1.25-.2.5-.3.76-1.63,4.13-3.38,8.54-5.15,13.03-.2.5-.4,1-.59,1.5-.35.9-.71,1.8-1.07,2.7-.51,1.3-1.03,2.61-1.55,3.91-.55,1.39-1.09,2.78-1.64,4.16-.2.51-.39,1.01-.59,1.51-.36.9-.72,1.8-1.06,2.69-1.33,3.35-2.61,6.6-3.82,9.68-.21.52-.41,1.04-.61,1.55-.02.06-.05.13-.08.19-.69,1.75-1.35,3.43-1.98,5.03-.55,1.4-1.07,2.73-1.57,3.99-.1.26-.2.52-.3.78-.09.23-.19.46-.27.68-.03.07-.06.13-.08.2-.1.25-.19.49-.28.73-1.78,4.51-3.07,7.85-3.67,9.38-.02.05-.04.12-.07.18-.23.62-.51,1.4-.83,2.32-.25.68-.51,1.43-.79,2.25-.06.16-.11.33-.17.5-.05.14-.1.29-.15.44-.03.11-.08.24-.13.36-.03.08-.05.17-.08.25-.05.16-.11.32-.17.47,0,.07-.04.15-.07.22-.02.09-.05.17-.08.26-.03.08-.06.15-.08.23-.18.54-.37,1.1-.56,1.68-.29.86-.58,1.75-.89,2.68-.23.68-.46,1.38-.69,2.09-1.03,3.12-2.14,6.53-3.27,10.01-.29.92-.59,1.85-.9,2.78-.11.35-.22.7-.33,1.05h0c-.64,1.98-1.27,3.95-1.89,5.88-.45,1.4-.89,2.79-1.32,4.14-.28.85-.54,1.69-.81,2.52-1.18,3.71-2.26,7.1-3.13,9.86-.76,2.39-1.37,4.31-1.77,5.56-.16.53-.29.94-.37,1.21-.06.2-.11.33-.13.39v.02s-.01.01-.01.01l-2.13.94s0-.03-.04-.09c0-.04-.04-.09-.07-.15-.08-.17-.19-.4-.34-.72-.04-.09-.08-.18-.13-.28-.04-.08-.07-.16-.11-.25v9.1h4.92l12.12-29.27s.06-.2.18-.58c.05-.15.1-.33.17-.53.08-.24.17-.52.27-.83h0c.04-.13.08-.25.12-.38.25-.76.55-1.7.9-2.79.06-.18.12-.37.18-.56.33-1.01.69-2.15,1.09-3.38.6-1.86,1.27-3.94,2-6.2.16-.5.33-1.01.49-1.53h0c.34-1.04.69-2.11,1.04-3.21.45-1.38.91-2.8,1.37-4.25.19-.58.38-1.16.57-1.75.39-1.19.78-2.39,1.17-3.61.2-.61.4-1.22.59-1.83,7.3-22.48,16.06-49.27,17.38-52.2,2.4-5.3,18.04-45.56,18.29-47.06s7.35-58.93,7.1-62.17Z"/>
  <path class="cls-3" d="M90.83,276.13c-.03-.43-.06-.86-.09-1.3-.25-3.06-.66-6.54-1.18-10.21-.06-.42-.12-.85-.18-1.28-.28-1.9-.58-3.83-.9-5.78-.08-.51-.16-1.02-.25-1.52-.18-1.14-.38-2.28-.58-3.41-.11-.65-.22-1.29-.34-1.93-.08-.48-.17-.95-.25-1.43-.76-4.19-1.53-8.17-2.22-11.58-.08-.42-.16-.82-.23-1.22-.56-2.79-1.06-5.13-1.41-6.81-.39-1.78-.61-2.81-.61-2.81,0,0-.36-.94-1-2.64-.04-.12-.09-.25-.14-.39-.03-.07-.06-.14-.08-.22-.07-.2-.15-.4-.23-.62-.91-2.41-2.2-5.87-3.75-10.07-.13-.33-.26-.67-.38-1.01-.83-2.22-1.72-4.63-2.66-7.19-.23-.62-.46-1.26-.7-1.9-.14-.37-.27-.74-.41-1.11-.07-.18-.13-.36-.2-.54-1.05-2.87-2.16-5.88-3.31-9.01-.14-.4-.29-.81-.45-1.22-.89-2.45-1.8-4.96-2.73-7.51v-.02l-.44-1.2c-.12-.34-.24-.67-.37-1.01-.42-1.18-.85-2.37-1.29-3.56-.44-1.22-.88-2.45-1.32-3.67-.14-.4-.28-.79-.42-1.18-.92-2.56-1.83-5.11-2.73-7.65-.17-.45-.32-.91-.49-1.35-.05-.15-.1-.29-.15-.43,0-.02,0-.04-.02-.06-.2-.58-.41-1.15-.61-1.72-.52-1.46-1.02-2.91-1.53-4.34-.2-.57-.4-1.13-.59-1.7-.11-.31-.22-.62-.32-.93-1.12-3.19-2.2-6.3-3.21-9.27l-.33-.96c-.45-1.3-.88-2.58-1.29-3.83-.48-1.4-.95-2.8-1.42-4.23-.03-.07-.06-.15-.08-.23-.1-.31-.2-.62-.31-.94-.21-.63-.42-1.26-.63-1.9-.8-2.4-1.59-4.81-2.38-7.22-.12-.37-.24-.74-.36-1.1-.85-2.58-1.68-5.16-2.52-7.71-.09-.31-.2-.63-.3-.94-.02-.06-.04-.11-.06-.17-.33-1.02-.65-2.04-.98-3.04-.52-1.62-1.03-3.22-1.54-4.8-.12-.35-.23-.69-.34-1.04-1.06-3.3-2.08-6.51-3.06-9.58-.15-.45-.29-.89-.42-1.33-.02-.03-.02-.06-.03-.09-.4-1.24-.78-2.45-1.16-3.64-.71-2.23-1.38-4.36-2.02-6.38-.14-.46-.29-.91-.43-1.35-.73-2.31-1.4-4.45-2.01-6.4-.15-.47-.29-.93-.44-1.38,0-.03-.02-.06-.03-.09-.13-.42-.26-.84-.38-1.24-.09-.29-.17-.57-.25-.84-.11-.32-.21-.63-.3-.93-.05-.15-.1-.3-.14-.44-.02-.06-.04-.13-.06-.19-.06-.21-.12-.42-.19-.62-.4-1.26-.73-2.36-1.02-3.27-.03-.1-.06-.19-.09-.28-.45-1.47-.74-2.4-.83-2.68,0-.07-.03-.09-.03-.09h-.69v20.19s0,.02,0,.03c.11.3.25.66.4,1.09.6,1.63,1.53,4.15,2.73,7.38.3.83.62,1.71.97,2.64.13.36.27.74.41,1.12.04.11.08.21.12.32.99,2.69,2.11,5.7,3.3,8.98.11.29.22.58.34.88.71,1.95,1.46,3.98,2.23,6.1.27.71.54,1.44.81,2.17.14.37.28.75.41,1.13.03.07.05.15.08.23.93,2.51,1.9,5.12,2.87,7.79.14.37.28.75.41,1.12.75,2.02,1.51,4.07,2.28,6.16.26.71.53,1.43.79,2.14.11.32.23.64.34.96.07.19.14.38.21.58,1,2.69,2,5.44,3.02,8.19.09.25.18.51.28.76,1.13,3.08,2.28,6.18,3.4,9.27.12.32.24.64.36.95.17.46.34.93.51,1.39.56,1.55,1.13,3.09,1.69,4.62.28.76.55,1.51.83,2.26.16.42.31.85.47,1.26.98,2.67,1.95,5.32,2.91,7.93.1.28.2.56.3.84.43,1.17.86,2.33,1.28,3.48.49,1.35.98,2.68,1.46,3.99.12.34.25.68.37,1.01l-.14.04h.16c.12.36.26.71.38,1.06.96,2.62,1.89,5.17,2.79,7.62.14.38.27.75.4,1.12,1.16,3.15,2.25,6.13,3.25,8.91.08.2.15.4.22.6.13.34.25.69.39,1.03.28.79.55,1.55.82,2.29.92,2.54,1.76,4.85,2.5,6.89.12.36.25.7.37,1.05,1.53,4.23,2.57,7.16,2.96,8.35.15.46.31.97.47,1.52.12.38.24.78.35,1.2.1.35.2.7.3,1.07.41,1.5.85,3.19,1.29,5.04.45,1.86.91,3.87,1.36,5.98.08.36.16.73.24,1.1.24,1.14.49,2.32.73,3.5.55,2.75,1.08,5.58,1.58,8.41.07.45.15.9.23,1.35.13.75.25,1.51.37,2.25.25,1.59.49,3.16.7,4.69.24,1.69.45,3.33.63,4.91.05.43.1.86.14,1.28.37,3.57.57,6.76.51,9.29,0,.16,0,.32,0,.49-.02.4-.04.83-.06,1.28-.04.94-.11,1.99-.2,3.15-.12,1.6-.28,3.39-.48,5.32-.05.52-.1,1.05-.16,1.58-.04.46-.09.92-.13,1.38-.36,3.3-.78,6.9-1.23,10.62-.05.42-.1.84-.16,1.28-.28,2.18-.55,4.41-.85,6.63-.16,1.27-.33,2.54-.5,3.8l-.25,1.8-.13,1.01c-.35,2.56-.7,5.06-1.05,7.46-.06.42-.12.84-.18,1.25-.57,3.95-1.12,7.6-1.61,10.68-.06.41-.12.81-.19,1.2-.03.23-.07.45-.1.67-.34,2.05-.64,3.79-.87,5.11-.1.5-.18.94-.26,1.31-.06.31-.17.73-.31,1.23-.12.4-.26.86-.42,1.37-.81,2.53-2.17,6.37-3.91,11.1-.19.49-.37,1-.56,1.51-.43,1.14-.86,2.32-1.32,3.54-.62,1.64-1.27,3.35-1.93,5.11-.02.03-.03.06-.04.09-.17.44-.34.89-.52,1.34-1.49,3.95-3.11,8.16-4.8,12.48l-.54,1.4c-.25.65-.51,1.3-.77,1.96h0c-.58,1.5-1.16,3.01-1.76,4.51-.49,1.28-.99,2.55-1.49,3.83-.21.52-.41,1.04-.61,1.56-.71,1.8-1.42,3.61-2.12,5.4-.92,2.33-1.82,4.62-2.71,6.87-.25.63-.49,1.24-.74,1.86-.1.26-.2.51-.3.77-.64,1.62-1.28,3.22-1.89,4.78-.47,1.19-.93,2.35-1.39,3.48-.2.5-.39,1-.59,1.49-1.69,4.27-3.24,8.15-4.55,11.43-.29.73-.58,1.45-.85,2.12-.34.85-.65,1.64-.95,2.38-.58,1.46-1.07,2.69-1.46,3.66-.57,1.43-.93,2.32-1.03,2.56-.02.04-.03.06-.03.06l-.38,1.13-.59,1.74-3.86,11.33-.59,1.73-.33.98-1.4,4.11-2.12,6.22-.64,1.9-1.98,5.8s0-.03-.03-.08t0-.01l-.65,2.25v10.46c.04.09.07.17.11.25.05.1.09.19.13.28.15.32.26.55.34.72.03.06.06.11.07.15.03.06.04.09.04.09l2.13-.94s0-.01.01-.01v-.02c.02-.06.07-.19.13-.39.08-.27.21-.68.37-1.21.4-1.25,1.01-3.17,1.77-5.56.87-2.76,1.95-6.15,3.13-9.86.27-.83.53-1.67.81-2.52.43-1.35.87-2.74,1.32-4.14.62-1.93,1.25-3.9,1.89-5.87h0c.11-.36.22-.71.33-1.06.31-.93.61-1.86.9-2.78,1.13-3.48,2.24-6.89,3.27-10.01.23-.71.46-1.41.69-2.09.31-.93.6-1.82.89-2.68.19-.58.38-1.14.56-1.68.02-.08.05-.15.08-.23.03-.09.06-.17.08-.26.03-.07.06-.15.07-.22.06-.15.12-.31.17-.47.03-.08.05-.17.08-.25.05-.12.1-.25.13-.36.05-.15.1-.3.15-.44.06-.17.11-.34.17-.5.28-.82.54-1.57.79-2.25.32-.92.6-1.7.83-2.32.03-.06.05-.13.07-.18.6-1.53,1.89-4.87,3.67-9.38.09-.24.18-.48.28-.73.02-.07.05-.13.08-.2.08-.22.18-.45.27-.68.1-.26.2-.52.3-.78.5-1.26,1.02-2.59,1.57-3.99.63-1.6,1.29-3.28,1.98-5.03.03-.06.06-.13.08-.19.2-.51.4-1.03.61-1.55,1.21-3.08,2.49-6.33,3.82-9.68.34-.89.7-1.79,1.06-2.69.2-.5.39-1,.59-1.51.55-1.38,1.09-2.77,1.64-4.16.52-1.3,1.04-2.61,1.55-3.91.36-.9.72-1.8,1.07-2.7.19-.5.39-1,.59-1.5,1.77-4.49,3.52-8.9,5.15-13.03.1-.26.2-.51.3-.76.07-.18.14-.35.2-.53.63-1.58,1.24-3.12,1.83-4.61.5-1.26.98-2.48,1.44-3.65.21-.53.42-1.06.63-1.57,1.79-4.53,3.26-8.24,4.21-10.64.17-.43.32-.82.46-1.17.06-.16.12-.3.17-.44.2-.5.35-.87.45-1.12.03-.06.04-.11.05-.15.03-.06.05-.11.06-.14.02-.04.03-.06.03-.06,0,0,0-.05,0-.14.04-.34.16-1.3.33-2.75.14-1.07.3-2.42.49-3.99.06-.45.11-.92.17-1.41.05-.35.09-.72.14-1.09.39-3.15.85-6.88,1.36-10.86.06-.47.12-.93.18-1.4.36-2.75.72-5.59,1.11-8.43,0-.15.04-.3.05-.45.07-.47.13-.94.19-1.4.19-1.4.38-2.79.56-4.15.28-2.05.56-4.05.84-5.97.06-.42.12-.85.19-1.27.61-4.23,1.2-8,1.72-10.84.1-.6.21-1.17.31-1.69.14-.66.26-1.25.38-1.75.02-.09.04-.18.06-.28.22-1.1.31-2.59.3-4.36-.01-1.12-.06-2.34-.15-3.66Z"/>
  <polygon class="cls-2" points="41.39 457.47 39.03 463.41 37.3 462.22 32.37 458.84 33.77 454.73 34.1 453.75 39.19 456.34 39.19 456.35 41.39 457.47"/>
  <polygon class="cls-2" points="35.53 479.97 33.97 486.17 30.27 484.3 26.94 482.62 26.94 476.95 32.04 478.74 35.53 479.97"/>
  <path class="cls-2" d="M51.06,434.94l-2.2,4.72-3.59-1.93-4.69-2.53c.39-.97.88-2.2,1.46-3.66l4.72,1.78,4.3,1.62Z"/>
  <path class="cls-2" d="M59.59,409.1l-2.57,4.94-2.4-1.23-4.25-2.17c.61-1.56,1.25-3.16,1.89-4.78l4.34,1.92,2.99,1.32Z"/>
  <path class="cls-2" d="M68.21,385.82l-1.98,3.25-1.83-1.07-4.17-2.43c.6-1.5,1.18-3.01,1.76-4.5l3.96,3.02,2.26,1.73Z"/>
  <path class="cls-2" d="M77.15,362.01l-1.85,5.26-2.24-1.17-4.4-2.31c.66-1.76,1.31-3.47,1.93-5.11l4.5,2.28,2.06,1.05Z"/>
  <path class="cls-2" d="M85.54,335.81v3.56l-2.61-.24-5.56-.51c.23-1.32.53-3.06.87-5.11l5.18,1.63,2.12.67Z"/>
  <path class="cls-2" d="M90.98,306.18l-1.18,6.28-3.42-.51-4.88-.71.25-1.8c.17-1.26.34-2.53.5-3.8l4.93.31,3.8.23Z"/>
  <path class="cls-2" d="M93.36,284.15h-8.58c.2-1.93.36-3.72.48-5.32l5.72.96,1.7.29.68,4.07Z"/>
  <path class="cls-2" d="M91.21,256.99l-2.73.57-4.23.87c-.21-1.53-.45-3.1-.7-4.69l4.1-1.11,2.3-.63,1.26,4.99Z"/>
  <path class="cls-2" d="M85.54,228.83l-2.34.83-4.16,1.49c-.44-1.85-.88-3.54-1.29-5.04l3.7-2.29,2.62-1.61,1.47,6.62Z"/>
  <path class="cls-2" d="M76.39,203.95l-2.04.76-3.55,1.32c-.27-.74-.54-1.5-.82-2.29-.14-.34-.26-.69-.39-1.03-.07-.2-.14-.4-.22-.6l3.67-.95,1.59-.41,1.76,3.2Z"/>
  <path class="cls-2" d="M67.71,180.56l-1.97.63-3.58,1.16c-.48-1.31-.97-2.64-1.46-3.99l3.75-.73,1.19-.23,2.07,3.16Z"/>
  <path class="cls-2" d="M59.94,161.24l-1.23.33-3.8,1.02c-.56-1.53-1.13-3.07-1.69-4.62l3.96-.74,1.53-.29,1.23,4.3Z"/>
  <path class="cls-2" d="M51.46,132.98v2.97l-1.44.36-4.37,1.1c-.07-.2-.14-.39-.21-.58-.11-.32-.23-.64-.34-.96-.26-.71-.53-1.43-.79-2.14l4.69-.49,2.46-.26Z"/>
  <polygon class="cls-2" points="32.55 73.7 32.55 76.67 31.05 77.04 30.95 77.07 26.94 78.07 26.94 74.29 29.99 73.97 30.75 73.89 32.55 73.7"/>
  <path class="cls-2" d="M45.52,115.21l-2.08,1.06-4.69,2.39c-.03-.08-.05-.16-.08-.23-.13-.38-.27-.76-.41-1.13-.27-.73-.54-1.46-.81-2.17l4.95-2.07,2.19-.92.93,3.07Z"/>
  <path class="cls-2" d="M39.56,94.83l-2.55,1.39-5.43,2.95c-.04-.11-.08-.21-.12-.32-.14-.38-.28-.76-.41-1.12-.35-.93-.67-1.81-.97-2.64l5.77-2.51,2.61-1.14,1.1,3.39Z"/>
  <path class="cls-3" d="M53.1,76.73c-.29-.5-2.72-4.59-2.72-4.59,0,0-9.46-2.41-16.18-4.11-3.64-.92-6.47-1.62-6.57-1.63-.09,0-.36.72-.69,1.72v4.33c.09-.25.7-2.57,1.13-2.93.07-.06.25-.07.51-.07,1.37.05,4.89.92,5.17,1.46.24.48-.41,2.37-1.2,3.13-.28.27-.58.39-.86.25-.22-.11-.55-.25-.94-.4-.28-.12-.58-.24-.9-.36-1.37-.53-2.91-1.08-2.91-1.08v2.64c1.04.49,2.43,1.15,3.98,1.89.04.02.09.04.13.06,2.2,1.04,4.72,2.23,7,3.3,3.42,1.61,6.3,2.95,6.79,3.14,1.33.52,5.25.03,6.07-1.1.81-1.11,2.47-5.16,2.19-5.65ZM48.27,80.99c-.36-.14-2.96-1.15-2.96-1.15l2.04-5.28s3.01,1.37,3.09,1.88-1.81,4.69-2.17,4.55Z"/>
  <path class="cls-4" d="M133.01,72.03c-7-3.08-23.9-9.71-47.47-13.61-16.63-2.75-40.13-3.24-58.6-3.1v-8.65c14.01.78,62.61,3.53,97.23,10.32,4.37,2.6,7.27,4.51,7.75,5.23.45.67.82,4.3,1.09,9.81Z"/>
</svg>