<?xml version="1.0" encoding="UTF-8"?>
<svg id="Sac" xmlns="http://www.w3.org/2000/svg" viewBox="0 0 161.46 541">
  <defs>
    <style>
      .cls-1 {
        fill: #386f9c;
      }

      .cls-1, .cls-2, .cls-3, .cls-4 {
        stroke-width: 0px;
      }

      .cls-2 {
        fill: #212425;
      }

      .cls-3 {
        fill: #e5d5bb;
      }

      .cls-4 {
        fill: #030403;
      }
    </style>
  </defs>
  <path class="cls-1" d="M99.99,31.06c-38.97,6.43-61.13,30.05-71.19,44.21-3.39,4.78-5.41,8.48-6.24,10.08-.27.52-.41.81-.43.86-1.36,2.01-1.88,11.15-1.88,23.79,0,38.62,4.8,109.88,4.8,109.88,0,0-.58,106.56,2.93,124.36,3.51,17.81-6.43,133.87-1.18,154.15,5.28,20.28,67.34,18.35,88.41,25.28,5.01,1.65,14.99,2.32,27.33,2.14v-31.33h-1.3l-31.07-65.63-31.49-68.47s-15.12-26.74-15.62-53.73c-.5-26.99,4.48-73.24,4.48-73.24,0,0,9.67-29.12,15.14-45.38.23-.67.45-1.33.66-1.96.21-.63.42-1.23.61-1.81.29-.86.56-1.66.81-2.39.19-.54.36-1.05.51-1.5.12-.35.23-.68.34-.98.12-.34.23-.64.32-.9.04-.13.08-.25.12-.36.08-.21.14-.38.19-.51.26-.69,1.3-2.91,2.88-6.19.43-.89.9-1.85,1.4-2.89.17-.34.35-.7.53-1.07.35-.72.71-1.46,1.09-2.24,7.24-14.74,19.31-38.87,26.06-52.37.36-.7.7-1.38,1.02-2.03,0-.01.01-.01.01-.01.43-.86.83-1.66,1.2-2.4.09-.19.18-.37.27-.55.24-.49.48-.95.69-1.37.11-.21.21-.42.31-.61.04-.1.09-.2.14-.29.05-.09.1-.18.14-.27.12-.24.24-.49.36-.74.37-.74.74-1.52,1.11-2.33.25-.54.5-1.09.75-1.65.5-1.12,1.01-2.28,1.52-3.46.76-1.78,1.52-3.61,2.25-5.44.59-1.46,1.17-2.93,1.73-4.36,1.86-4.79,3.51-9.28,4.66-12.45.17-.48.33-.93.48-1.34.09-.28.19-.54.28-.78.09-.25.17-.48.24-.69.42-1.18.65-1.85.65-1.85l1.78-8.34,4.75.02V25.02c-10.74,1.17-24.6,3.08-42.55,6.04Z"/>
  <path class="cls-2" d="M69.04,288.19c0-.45.02-.91.03-1.36.09-3.89.29-7.99.6-12.29.05-.5.08-1,.12-1.5.12-1.52.25-3.06.41-4.63.13-1.33.27-2.69.43-4.06.12-1.05.25-2.12.38-3.19.06-.49.13-.99.19-1.48.51-3.93,1.14-7.99,1.87-12.2.1-.61.21-1.22.32-1.85.17-.9.34-1.81.51-2.73.2-1.02.4-2.04.61-3.07.45-2.24.94-4.51,1.46-6.83.1-.44.2-.88.3-1.33.3-1.27.6-2.55.91-3.84.48-1.96.99-3.95,1.52-5.97.14-.54.28-1.09.43-1.63.11-.43.23-.86.35-1.3.13-.46.26-.93.39-1.4.86-3.11,1.78-6.27,2.77-9.49.14-.42.26-.85.39-1.28.62-1.97,1.26-3.97,1.93-5.98.38-1.16.77-2.32,1.18-3.49.06-.18.11-.36.18-.53.08-.25.17-.5.26-.75.02-.08.05-.17.08-.25,1.1-3.16,2.39-6.6,3.84-10.25.15-.39.31-.78.46-1.18.12-.3.25-.62.37-.93.18-.45.37-.91.56-1.37.54-1.33,1.1-2.68,1.68-4.06.37-.89.75-1.79,1.13-2.7.19-.45.38-.9.58-1.35,1.43-3.35,2.93-6.79,4.47-10.27.07-.15.14-.3.21-.45.1-.24.21-.47.32-.71.35-.78.69-1.56,1.05-2.34,1.16-2.58,2.35-5.18,3.53-7.76.18-.39.35-.77.52-1.15.68-1.47,1.37-2.95,2.05-4.41.54-1.16,1.08-2.31,1.62-3.46.34-.73.69-1.46,1.03-2.19.17-.35.34-.71.5-1.06,1.28-2.71,2.55-5.38,3.79-7.96.18-.39.38-.79.56-1.18.14-.26.26-.52.37-.77.32-.66.64-1.33.96-1.98,1.1-2.29,2.18-4.5,3.21-6.61.17-.36.35-.72.52-1.07.66-1.35,1.29-2.64,1.9-3.89.55-1.11,1.07-2.18,1.58-3.2.14-.3.29-.59.43-.87.2-.4.39-.79.57-1.17,1.81-3.65,3.32-6.66,4.4-8.85.23-.44.43-.86.63-1.23,0-.03.03-.05.04-.08.74-1.49,1.18-2.37,1.25-2.53.13-.31.28-.7.46-1.15.43-1.16.97-2.75,1.58-4.62.21-.67.44-1.38.67-2.11.92-2.9,1.93-6.22,2.9-9.45.38-1.25.74-2.49,1.1-3.68.05-.19.11-.37.16-.55.07-.21.13-.42.18-.63.03-.09.06-.17.08-.26.06-.2.13-.41.19-.62.1-.32.18-.63.27-.93l.19-.65c1.3-4.45,2.23-7.68,2.23-7.68h1.74v-4.48l-4.75-.02-1.78,8.34s-.23.67-.65,1.85c-.07.21-.15.44-.24.69-.09.24-.19.5-.28.78-.15.41-.31.86-.48,1.34-1.15,3.17-2.8,7.66-4.66,12.45-.56,1.43-1.14,2.9-1.73,4.36-.74,1.83-1.5,3.66-2.25,5.44-.51,1.18-1.02,2.34-1.52,3.46-.25.56-.5,1.11-.75,1.65-.38.81-.75,1.59-1.11,2.33-.13.25-.25.5-.37.74-.05.09-.09.18-.13.27-.05.09-.1.19-.14.29-.1.19-.2.4-.31.61-.21.42-.45.88-.69,1.37-.09.18-.18.36-.27.55-.38.74-.78,1.54-1.2,2.4,0,0-.01,0-.01.01-.32.65-.66,1.33-1.02,2.03-6.75,13.5-18.82,37.63-26.06,52.37-.38.78-.74,1.52-1.09,2.24-.18.37-.36.73-.53,1.07-.5,1.04-.97,2-1.4,2.89-1.58,3.28-2.62,5.5-2.88,6.19-.05.13-.11.3-.19.51-.04.11-.08.23-.12.36-.09.26-.2.56-.32.9-.1.3-.21.62-.34.98-.15.45-.32.96-.51,1.5-.25.73-.52,1.53-.81,2.39-.19.58-.4,1.18-.61,1.81-.21.63-.43,1.29-.66,1.96-5.47,16.26-15.14,45.38-15.14,45.38,0,0-4.98,46.25-4.48,73.24.5,26.99,15.62,53.73,15.62,53.73l31.49,68.47,31.07,65.63h1.3v-9.12c-.11-.22-.22-.47-.35-.74-.05-.11-.11-.23-.16-.35-.34-.71-.73-1.56-1.18-2.51-.06-.13-.12-.25-.18-.38h0c-.62-1.33-1.34-2.86-2.14-4.55v-.02c-.37-.78-.74-1.59-1.14-2.43-1.34-2.86-2.84-6.07-4.42-9.45-.21-.44-.41-.88-.62-1.32-1.39-2.98-2.84-6.07-4.3-9.18l-.69-1.47c-.24-.51-.48-1.02-.72-1.52-.3-.64-.6-1.28-.89-1.92-1.47-3.11-2.9-6.17-4.28-9.09-.29-.63-.58-1.25-.87-1.86-1.14-2.42-2.23-4.71-3.21-6.82-.64-1.35-1.24-2.63-1.79-3.8-.24-.5-.48-.99-.7-1.47-.08-.15-.15-.3-.22-.45-.94-1.99-1.71-3.59-2.23-4.67-.38-.79-.92-1.89-1.59-3.26-.31-.63-.65-1.31-1-2.05-.99-1.98-2.15-4.35-3.46-7-.24-.49-.48-.99-.73-1.5-.07-.14-.14-.28-.21-.42-.56-1.15-1.15-2.35-1.75-3.59-.93-1.88-1.89-3.86-2.89-5.91-.2-.42-.41-.84-.61-1.27-.04-.07-.07-.14-.11-.21-1.5-3.1-3.06-6.35-4.65-9.66-.23-.48-.46-.97-.69-1.45-.05-.11-.1-.21-.15-.31-.61-1.29-1.23-2.59-1.85-3.9-1.36-2.87-2.71-5.76-4.04-8.62-.25-.54-.5-1.07-.73-1.6-.73-1.57-1.45-3.12-2.15-4.66-.61-1.34-1.2-2.67-1.79-3.97-.53-1.18-1.05-2.35-1.55-3.49-.24-.54-.48-1.08-.71-1.61-1.73-3.95-3.29-7.65-4.61-10.95-.22-.58-.45-1.14-.66-1.69-.1-.24-.18-.48-.28-.71-.2-.53-.39-1.04-.57-1.54-.39-1.04-.74-2.03-1.05-2.95-.7-2.05-1.21-3.79-1.48-5.13-.27-1.38-.6-3.04-.95-4.99-.12-.61-.23-1.26-.34-1.93-.38-2.18-.76-4.65-1.13-7.42h0c-.17-1.36-.34-2.78-.51-4.27-.01-.11-.02-.23-.03-.35-.04-.38-.08-.76-.12-1.14-.34-3.39-.63-7.1-.82-11.14-.02-.49-.04-1-.07-1.51-.1-2.64-.16-5.42-.17-8.32,0-1.4,0-2.82.03-4.28,0-.12.01-.25.01-.37Z"/>
  <path class="cls-3" d="M140.8,66.4s-.93,3.23-2.23,7.68l-.19.65c-.09.3-.17.61-.27.93-.06.21-.13.42-.19.62-.02.09-.05.17-.08.26-.05.21-.11.42-.18.63-.05.18-.11.36-.16.55-.36,1.19-.72,2.43-1.1,3.68-.97,3.23-1.98,6.55-2.9,9.45-.23.73-.46,1.44-.67,2.11-.61,1.87-1.15,3.46-1.58,4.62-.18.45-.33.84-.46,1.15-.07.16-.51,1.04-1.25,2.53-.01.03-.03.05-.04.08-.2.37-.4.79-.63,1.23-1.08,2.19-2.59,5.2-4.4,8.85-.18.38-.37.77-.57,1.17-.14.28-.29.57-.43.87-.51,1.02-1.03,2.09-1.58,3.2-.61,1.25-1.24,2.54-1.9,3.89-.17.35-.35.71-.52,1.07-1.03,2.11-2.11,4.32-3.21,6.61-.32.65-.64,1.32-.96,1.98-.11.25-.23.51-.37.77-.18.39-.38.79-.56,1.18-1.24,2.58-2.51,5.25-3.79,7.96-.16.35-.33.71-.5,1.06-.34.73-.69,1.46-1.03,2.19-.54,1.15-1.08,2.3-1.62,3.46-.68,1.46-1.37,2.94-2.05,4.41-.17.38-.34.76-.52,1.15-1.18,2.58-2.37,5.18-3.53,7.76-.36.78-.7,1.56-1.05,2.34-.11.24-.22.47-.32.71-.07.15-.14.3-.21.45-1.54,3.48-3.04,6.92-4.47,10.27-.2.45-.39.9-.58,1.35-.38.91-.76,1.81-1.13,2.7-.58,1.38-1.14,2.73-1.68,4.06-.19.46-.38.92-.56,1.37-.12.31-.25.63-.37.93-.15.4-.31.79-.46,1.18-1.45,3.65-2.74,7.09-3.84,10.25-.03.08-.06.17-.08.25-.09.25-.18.5-.26.75-.07.17-.12.35-.18.53-.41,1.17-.8,2.33-1.18,3.49-.67,2.01-1.31,4.01-1.93,5.98-.13.43-.25.86-.39,1.28-.99,3.22-1.91,6.38-2.77,9.49-.13.47-.26.94-.39,1.4-.12.44-.24.87-.35,1.3-.15.54-.29,1.09-.43,1.63-.53,2.02-1.04,4.01-1.52,5.97-.31,1.29-.61,2.57-.91,3.84-.1.45-.2.89-.3,1.33-.52,2.32-1.01,4.59-1.46,6.83-.21,1.03-.41,2.05-.61,3.07-.17.92-.34,1.83-.51,2.73-.11.63-.22,1.24-.32,1.85-.73,4.21-1.36,8.27-1.87,12.2-.06.49-.13.99-.19,1.48-.13,1.07-.26,2.14-.38,3.19-.16,1.37-.3,2.73-.43,4.06-.16,1.57-.29,3.11-.41,4.63-.04.5-.07,1-.12,1.5-.31,4.3-.51,8.4-.6,12.29,0,.45-.02.91-.03,1.36,0,.12-.01.25-.01.37-.02,1.46-.03,2.88-.03,4.28,0,2.9.07,5.68.17,8.32.03.51.05,1.02.07,1.51.19,4.04.48,7.75.82,11.14.04.38.08.76.12,1.14,0,.12.02.24.03.35.17,1.49.34,2.91.51,4.26h0c.37,2.78.75,5.25,1.13,7.43.11.67.22,1.32.34,1.93.35,1.95.68,3.61.95,4.99.27,1.34.78,3.08,1.48,5.13.31.92.66,1.91,1.05,2.95.18.5.37,1.01.57,1.54.1.23.18.47.28.71.21.55.44,1.11.66,1.69,1.32,3.3,2.88,7,4.61,10.95.23.53.47,1.07.71,1.61.5,1.14,1.02,2.31,1.55,3.49.59,1.3,1.18,2.63,1.79,3.97.7,1.54,1.42,3.09,2.15,4.66.23.53.48,1.06.73,1.6,1.33,2.86,2.68,5.75,4.04,8.62.62,1.31,1.24,2.61,1.85,3.9.05.1.1.2.15.31.23.48.46.97.69,1.45,1.59,3.31,3.15,6.56,4.65,9.66.04.07.07.14.11.21.2.43.41.85.61,1.27,1,2.05,1.96,4.03,2.89,5.91.6,1.24,1.19,2.44,1.75,3.59.07.14.14.28.21.42.25.51.49,1.01.73,1.5,1.31,2.65,2.47,5.02,3.46,7,.35.74.69,1.42,1,2.05.67,1.37,1.21,2.47,1.59,3.26.52,1.08,1.29,2.68,2.23,4.67.07.15.14.3.22.45.22.48.46.97.7,1.47.55,1.17,1.15,2.45,1.79,3.8.98,2.11,2.07,4.4,3.21,6.82.29.61.58,1.23.87,1.86,1.38,2.92,2.81,5.98,4.28,9.09.29.64.59,1.28.89,1.92.24.5.48,1.01.72,1.52l.69,1.47c1.46,3.11,2.91,6.2,4.3,9.18.21.44.41.88.62,1.32,1.58,3.38,3.08,6.59,4.42,9.45.4.84.77,1.65,1.14,2.43v.02c.8,1.69,1.52,3.22,2.14,4.54h0c.06.14.12.26.18.39.45.95.84,1.8,1.18,2.51.05.12.11.24.16.35.13.27.24.52.35.74v-14c-.54-1.07-1.38-2.73-2.47-4.9h0c-.67-1.34-1.44-2.87-2.29-4.56-.18-.36-.38-.73-.56-1.11-1.46-2.88-3.11-6.18-4.93-9.82-.22-.43-.44-.85-.65-1.29-.04-.09-.09-.17-.13-.26-.69-1.38-1.41-2.81-2.15-4.27-1.03-2.07-2.11-4.22-3.21-6.43-.26-.52-.52-1.03-.78-1.56-1.52-3.05-3.11-6.22-4.72-9.45-.23-.46-.46-.92-.69-1.39-.28-.55-.55-1.1-.82-1.66-.25-.48-.49-.97-.73-1.45-1.02-2.05-2.05-4.12-3.08-6.19-.3-.6-.59-1.19-.89-1.79-1.25-2.52-2.51-5.05-3.76-7.58-.24-.51-.5-1.02-.75-1.53-.26-.51-.51-1.04-.77-1.55-.63-1.28-1.26-2.55-1.89-3.82-.72-1.47-1.44-2.93-2.16-4.39-.02-.04-.04-.08-.05-.11-.25-.51-.5-1.01-.74-1.51-1.61-3.25-3.18-6.45-4.69-9.56-.28-.56-.55-1.12-.82-1.67-.06-.14-.13-.27-.19-.4-.67-1.36-1.32-2.7-1.95-4.01-1.46-3-2.85-5.88-4.15-8.59-.26-.52-.51-1.04-.75-1.55-.84-1.76-1.64-3.45-2.41-5.04-.71-1.51-1.38-2.94-2.01-4.29-.39-.84-.77-1.64-1.12-2.41-.25-.54-.49-1.07-.73-1.58-1.69-3.7-2.9-6.49-3.48-8.07-.5-1.38-1.02-2.87-1.53-4.5-.07-.18-.13-.37-.19-.57-.19-.61-.38-1.23-.57-1.87-.3-1.01-.6-2.06-.89-3.15-.57-2.12-1.13-4.39-1.66-6.84,0,0-.75-3.71-.85-4.29-.46-2.49-.88-5.12-1.24-7.92-.17-1.25-.32-2.52-.47-3.83,0-.1-.02-.19-.03-.29-.05-.38-.09-.76-.13-1.15-.35-3.5-.63-7.22-.8-11.18-.02-.49-.04-.97-.06-1.47-.08-2.18-.13-4.44-.14-6.77.02-.5.04-.99.07-1.48.06-1.3.13-2.61.19-3.93,0-.05.01-.1.01-.14.03-.55.06-1.1.09-1.65.22-3.81.47-7.73.76-11.69.03-.48.06-.97.1-1.45.12-1.57.24-3.14.37-4.72.1-1.25.2-2.5.31-3.76.11-1.15.21-2.31.32-3.47.04-.47.09-.95.13-1.43.25-2.66.52-5.33.8-7.97.18-1.04.38-2.08.57-3.14.1-.47.18-.95.28-1.43.12-.61.24-1.23.38-1.85.05-.27.11-.55.17-.84.25-1.2.52-2.41.79-3.63.55-2.41,1.13-4.84,1.76-7.29.12-.48.25-.97.37-1.45.75-2.87,1.55-5.75,2.38-8.63.23-.81.47-1.63.72-2.45.14-.46.28-.93.42-1.38.01-.03.01-.06.02-.09,1.09-3.58,2.21-7.15,3.36-10.65.15-.46.3-.92.46-1.38.55-1.67,1.11-3.33,1.68-4.97.39-1.16.8-2.32,1.2-3.47.13-.37.26-.72.39-1.08.13-.36.25-.72.37-1.07,1.29-3.59,2.57-7.07,3.82-10.38.14-.38.29-.76.43-1.14.18-.47.36-.94.54-1.41.11-.31.23-.61.35-.92.4-1.05.81-2.09,1.21-3.11.51-1.3,1.01-2.58,1.5-3.82.18-.46.36-.9.54-1.34,1.37-3.43,2.66-6.56,3.8-9.31.1-.22.2-.45.29-.67.18-.43.36-.84.52-1.24.29-.69.58-1.35.85-1.98,1.75-4.12,3.01-6.94,3.53-8.08.16-.36.25-.56.25-.56l.23-.48,1.95-4.04,1.65-3.43,1.01-2.09.53-1.1,3.45-7.16,1.13-2.35.45-.93.24-.5,3.84-7.94.52-1.09,1.21-2.5,1.93-4,.45-.93.58-1.2,3.92-8.15.63-1.29h0s.02-.05.02-.05l1.38-2.87,1.96-4.07.96-1.99,2.8-5.8.83-1.71.96-2v.03s.02.04.02.04c.06.13.15.42.33.88v-20.17h-1.74Z"/>
  <polygon class="cls-2" points="142.19 85.62 141.23 87.62 140.4 89.33 136.4 81.4 135.11 78.83 136.56 75.44 136.79 74.9 136.79 74.89 137.3 73.7 137.75 74.79 137.75 74.8 138.11 75.66 139.41 78.86 142.19 85.62"/>
  <polygon class="cls-2" points="134.68 101.19 133.3 104.06 133.28 104.1 129.5 101.34 128.04 100.28 130.33 96.61 131.25 97.58 134.68 101.19"/>
  <polygon class="cls-2" points="127.7 115.68 125.77 119.68 121.89 116.66 118.78 114.23 119.6 111.42 123.47 113.46 127.7 115.68"/>
  <polygon class="cls-2" points="120.2 131.21 119.96 131.71 119.51 132.64 118.38 134.99 114.37 132.16 112.59 130.91 114.57 126.95 116.26 128.23 120.2 131.21"/>
  <path class="cls-2" d="M84.47,219.87s0,.06-.02.09c-.14.45-.28.92-.42,1.38-.25.82-.49,1.64-.72,2.45l-4.61-1.93-3.23-1.35.39-5.02,4.01,2.04,4.6,2.34Z"/>
  <polygon class="cls-2" points="113.39 145.34 111.74 148.77 107.43 146.83 103.6 145.11 104.92 141.5 109.05 143.37 113.39 145.34"/>
  <path class="cls-2" d="M105.78,161.93c-.27.63-.56,1.29-.85,1.98-.16.4-.34.81-.52,1.24-.09.22-.19.45-.29.67l-4.16-2.62-3.1-1.95,1.95-2.11,2.52,1.01,4.45,1.78Z"/>
  <path class="cls-2" d="M98.28,180.29c-.4,1.02-.81,2.06-1.21,3.11-.12.31-.24.61-.35.92l-4.83-2.29-2.89-1.37,1.63-4.15,2.94,1.46,4.71,2.32Z"/>
  <path class="cls-2" d="M78.8,241.16c-.27,1.22-.54,2.43-.79,3.63l-4.11-1.89-4.9-2.25,2.61-1.71,2.9.89,4.29,1.33Z"/>
  <path class="cls-2" d="M91.17,199.4c-.4,1.15-.81,2.31-1.2,3.47l-5.01-2.09-.43-.18.97-3.58.64.27,5.03,2.11Z"/>
  <path class="cls-2" d="M75.36,264.92c-.11,1.26-.21,2.51-.31,3.76l-4.85-.27-1.66-.1v-4.22l2.09.26,4.73.57Z"/>
  <path class="cls-2" d="M73.73,288.19s-.01.09-.01.14c-.06,1.32-.13,2.63-.19,3.93l-4.53.58-2.68.34v-4.99h7.41Z"/>
  <path class="cls-2" d="M75.09,318.43l-4.37,1.13h0s-1.5.4-1.5.4v-4.87l.96-.14,4.41-.64c.01.1.02.19.03.29.15,1.31.3,2.58.47,3.83Z"/>
  <path class="cls-2" d="M80.3,342.5l-4.06,1.03-2.79.71-.99-4.39,2.16-.81,4.22-1.56c.29,1.09.59,2.14.89,3.15.19.64.38,1.26.57,1.87Z"/>
  <path class="cls-2" d="M89.36,363.92l-3.52,2.03-2.54,1.46-1.63-3.73,2.38-1.7,3.3-2.35c.63,1.35,1.3,2.78,2.01,4.29Z"/>
  <path class="cls-2" d="M98.62,383.11l-4.01,1.62-2.88,1.16-.6-4.33,1.63-.73,3.91-1.73c.63,1.31,1.28,2.65,1.95,4.01Z"/>
  <path class="cls-2" d="M109.16,404.57l-3.7,2.56-1.89,1.31-3.2-2.28,3.34-2.62,3.56-2.79c.63,1.27,1.26,2.54,1.89,3.82Z"/>
  <path class="cls-2" d="M120.65,427.71l-3.26,4.04-.99,1.22-3.78-4.36,2.28-2.13,3.51-3.27c.24.48.48.97.73,1.45.27.56.54,1.11.82,1.66.23.47.46.93.69,1.39Z"/>
  <path class="cls-2" d="M131.51,449.42l-3.46,5.01-1.04,1.5-3.84-3.28,2.58-3.13,3.61-4.37c.74,1.46,1.46,2.89,2.15,4.27Z"/>
  <path class="cls-2" d="M142.54,471.36v3.58l-.53,1.82-1.34,4.61h0s-.08.26-.08.26l-.68,2.36-3.71-6.09,1.19-3.52,2.68-7.92c1.09,2.17,1.93,3.83,2.47,4.9Z"/>
  <polygon class="cls-2" points="142.54 476.95 142.54 482.61 140.85 481.76 140.59 481.63 137.77 480.2 138.53 476.83 138.53 476.81 138.8 475.63 142.01 476.76 142.54 476.95"/>
  <polygon class="cls-2" points="142.54 74.29 142.54 78.07 139.41 78.86 138.83 79 137.66 77.17 136.56 75.44 136.25 74.95 136.79 74.89 137.75 74.79 138.38 74.73 141.16 74.43 142.54 74.29"/>
  <path class="cls-3" d="M140.69,74.21s.17.08.47.22c.32.15.79.38,1.38.66v-6.94c-.77,2.3-1.85,6.06-1.85,6.06Z"/>
  <path class="cls-4" d="M142.54,46.67v8.65c-16.47.13-28.94.77-28.94.77,0,0-67.04,16.86-69.52,18.26-1.85,1.04-11.39,6.1-21.52,11,.83-1.6,2.85-5.3,6.24-10.08,13.03-5.67,36.72-15.94,40.21-17.08,4.83-1.58,68.21-11.97,69.64-11.75.18.03,1.55.1,3.89.23Z"/>
</svg>