<?xml version="1.0" encoding="UTF-8"?>
<svg id="Calque_1" data-name="Calque 1" xmlns="http://www.w3.org/2000/svg" viewBox="0 0 535.75 250.12">
  <defs>
    <style>
      .cls-1, .cls-2 {
        stroke-width: 0px;
      }

      .cls-2 {
        fill: #b7b7b7;
      }
    </style>
  </defs>
  <g>
    <path class="cls-2" d="M16.81,249.12c-.5-8.49-7.32-15.31-15.81-15.81V16.81c8.49-.5,15.31-7.32,15.81-15.81h502.12c.5,8.49,7.32,15.31,15.82,15.81v216.51c-8.5.5-15.32,7.32-15.82,15.81H16.81Z"/>
    <path class="cls-1" d="M518.01,2c.92,8.24,7.49,14.8,15.74,15.72v214.67c-8.25.92-14.81,7.48-15.74,15.72H17.72c-.92-8.24-7.48-14.8-15.72-15.72V17.72c8.24-.92,14.8-7.48,15.72-15.72h500.29M519.9,0H15.83c0,8.74-7.1,15.83-15.83,15.83v218.45c8.74,0,15.83,7.1,15.83,15.83h504.06c0-8.74,7.1-15.83,15.85-15.83V15.83c-8.75,0-15.85-7.1-15.85-15.83h0Z"/>
  </g>
  <g>
    <path class="cls-1" d="M198.94,175.83c-28.89,0-50.91-22.72-50.91-50.77s22.02-50.77,50.91-50.77,51.05,22.72,51.05,50.77-22.02,50.77-51.05,50.77ZM198.94,89.58c-18.79,0-32.53,15.57-32.53,35.48s13.74,35.48,32.53,35.48,32.68-15.57,32.68-35.48-13.74-35.48-32.68-35.48Z"/>
    <path class="cls-1" d="M346.9,128.01c0,30.85-11.64,47.82-39.27,47.82s-38.57-16.97-38.57-47.82v-52.03h17.39v54.97c0,19.91,8.27,29.59,21.46,29.59s21.6-9.68,21.6-29.59v-54.97h17.39v52.03Z"/>
    <path class="cls-1" d="M370.32,174.15v-98.17h17.39v98.17h-17.39Z"/>
  </g>
</svg>