<?xml version="1.0" encoding="UTF-8"?>
<svg id="Calque_1" data-name="Calque 1" xmlns="http://www.w3.org/2000/svg" viewBox="0 0 543.08 253.54">
  <defs>
    <style>
      .cls-1, .cls-2 {
        stroke-width: 0px;
      }

      .cls-2 {
        fill: #fcf3ec;
      }
    </style>
  </defs>
  <g>
    <path class="cls-2" d="M17.02,252.54c-.5-8.61-7.42-15.52-16.02-16.02V17.02c8.61-.5,15.52-7.42,16.02-16.02h509.02c.5,8.61,7.42,15.52,16.04,16.02v219.5c-8.62.5-15.54,7.41-16.04,16.02H17.02Z"/>
    <path class="cls-1" d="M525.12,2c.93,8.36,7.59,15.02,15.95,15.94v217.66c-8.37.93-15.03,7.58-15.95,15.94H17.94c-.93-8.36-7.58-15.02-15.94-15.94V17.94c8.36-.93,15.02-7.58,15.94-15.94h507.18M527.01,0H16.05c0,8.86-7.19,16.05-16.05,16.05v221.44c8.86,0,16.05,7.19,16.05,16.05h510.96c0-8.86,7.19-16.05,16.07-16.05V16.05c-8.87,0-16.07-7.19-16.07-16.05h0Z"/>
  </g>
  <g>
    <path class="cls-1" d="M193.62,124.9c0,35.28-28.72,64-64,64s-64.02-28.72-64.02-64c0-5.14.62-10.26,1.82-15.21.31-1.26,1.59-2.06,2.87-1.73,1.26.31,2.04,1.59,1.73,2.87-1.11,4.57-1.68,9.31-1.68,14.07,0,32.67,26.58,59.26,59.28,59.26s59.26-26.58,59.26-59.26-26.58-59.28-59.26-59.28c-6.59,0-13.03,1.09-19.19,3.2,1,2.04,1.49,4.34,1.35,6.73-.07.95-.69,1.78-1.59,2.11l-20.09,7.01c-.26.09-.52.12-.78.12-.66,0-1.33-.26-1.78-.78-.64-.71-.78-1.75-.36-2.61l9.24-19.17c.4-.85,1.33-1.37,2.27-1.33,3.46.19,6.54,1.63,8.86,3.91,7.06-2.61,14.45-3.93,22.06-3.93,35.28,0,64,28.72,64,64.02Z"/>
    <path class="cls-1" d="M155.76,143.57c-.47.64-1.18.97-1.94.97-.47,0-.95-.14-1.37-.43l-24.07-17.2-.12-.09c-.17-.12-.31-.26-.43-.4-.12-.12-.21-.24-.26-.38-.12-.19-.19-.4-.24-.62-.05-.17-.07-.33-.07-.52v-34.83c0-1.33,1.04-2.37,2.37-2.37s2.37,1.04,2.37,2.37v33.62l23.22,16.56c1.07.76,1.3,2.25.54,3.32Z"/>
  </g>
  <g>
    <path class="cls-1" d="M277.72,110.07h-6.93l-15.58-41.46h9.83l9.83,28.49h.06l10.3-28.49h9.36l-16.88,41.46Z"/>
    <path class="cls-1" d="M318.35,110.78c-12.32,0-21.73-9.59-21.73-21.44s9.42-21.44,21.73-21.44,21.67,9.59,21.67,21.44-9.42,21.44-21.67,21.44ZM318.35,75.31c-7.34,0-12.67,6.16-12.67,14.04s5.33,14.04,12.67,14.04,12.61-6.16,12.61-14.04-5.33-14.04-12.61-14.04Z"/>
    <path class="cls-1" d="M347.56,110.07v-41.46h8.47v41.46h-8.47Z"/>
    <path class="cls-1" d="M378.42,68.62c6.69,0,15.16,3.44,15.16,12.44,0,6.46-4.38,10.01-9,11.55,3.67,5.15,9.83,13.62,12.67,17.47h-10.66l-11.37-16.52h-1.48v16.52h-8.47v-41.46h13.15ZM373.74,86.38h3.32c4.26,0,7.46-1.54,7.46-5.15,0-3.26-2.55-5.45-6.34-5.45h-4.44v10.6Z"/>
    <path class="cls-1" d="M417.63,110.07v-41.46h8.47v34.29h17v7.17h-25.47Z"/>
    <path class="cls-1" d="M447.96,110.07v-41.46h26.59v7.17h-18.12v9.36h18.12v7.17h-18.12v10.6h18.12v7.17h-26.59Z"/>
    <path class="cls-1" d="M289.75,139.7c6.69,0,15.16,3.44,15.16,12.44,0,6.46-4.38,10.01-9,11.55,3.67,5.15,9.83,13.62,12.67,17.47h-10.66l-11.37-16.52h-1.48v16.52h-8.47v-41.46h13.15ZM285.07,157.47h3.32c4.26,0,7.46-1.54,7.46-5.15,0-3.26-2.55-5.45-6.34-5.45h-4.44v10.6Z"/>
    <path class="cls-1" d="M314.15,181.16v-41.46h26.59v7.17h-18.12v9.36h18.12v7.17h-18.12v10.6h18.12v7.17h-26.59ZM326.47,137.75l-3.79-4.8,10.19-8.53,4.38,5.75-10.78,7.58Z"/>
    <path class="cls-1" d="M368.88,174.46c3.14,0,6.28-1.24,8.82-3.44l4.74,6.16c-4.03,3.08-8.83,4.68-13.92,4.68-12.44,0-21.73-8.76-21.73-21.44s9.89-21.44,22.09-21.44c4.74,0,8.64,1.48,12.73,4.03l-4.09,6.57c-2.49-1.9-5.45-3.2-8.64-3.2-7.52,0-13.03,6.16-13.03,14.04,0,8.29,4.91,14.04,13.03,14.04Z"/>
    <path class="cls-1" d="M415.08,181.16l-2.67-7.7h-14.75l-2.78,7.7h-9.42l16.94-41.46h6.87l15.57,41.46h-9.77ZM400.16,166.53h9.89l-4.8-13.92h-.06l-5.03,13.92Z"/>
    <path class="cls-1" d="M443.7,139.7c7.05,0,15.51,3.44,15.51,12.85s-8.41,12.97-15.51,12.97h-4.74v15.63h-8.47v-41.46h13.21ZM438.96,158.35h3.38c4.5,0,7.88-1.48,7.88-5.62,0-3.67-2.72-5.86-6.75-5.86h-4.5v11.49Z"/>
  </g>
</svg>