<?xml version="1.0" encoding="UTF-8"?>
<svg xmlns="http://www.w3.org/2000/svg" viewBox="0 0 543.08 253.54">
  <defs>
    <style>
      .cls-1, .cls-2, .cls-3 {
        stroke-width: 0px;
      }

      .cls-2 {
        fill: #1c1c1b;
      }

      .cls-3 {
        fill: #fcf3ec;
      }
    </style>
  </defs>
  <g id="Calque_2" data-name="Calque 2">
    <g>
      <path class="cls-3" d="M17.02,252.54c-.5-8.61-7.42-15.52-16.02-16.02V17.02c8.61-.5,15.52-7.42,16.02-16.02h509.02c.5,8.61,7.42,15.52,16.04,16.02v219.5c-8.62.5-15.54,7.41-16.04,16.02H17.02Z"/>
      <path class="cls-1" d="M525.12,2c.93,8.36,7.59,15.02,15.95,15.94v217.66c-8.37.93-15.03,7.58-15.95,15.94H17.94c-.93-8.36-7.58-15.02-15.94-15.94V17.94c8.36-.93,15.02-7.58,15.94-15.94h507.18M527.01,0H16.05c0,8.86-7.19,16.05-16.05,16.05v221.44c8.86,0,16.05,7.19,16.05,16.05h510.96c0-8.86,7.19-16.05,16.07-16.05V16.05c-8.87,0-16.07-7.19-16.07-16.05h0Z"/>
    </g>
  </g>
  <g id="Calque_1" data-name="Calque 1">
    <g>
      <path class="cls-1" d="M268.9,99.26c0,3.91-.77,6.93-2.66,8.94-1.72,1.84-4.38,2.78-8.23,2.78-2.13,0-5.27-.65-7.76-1.9l2.66-6.69c1.36.77,2.55,1.18,4.09,1.18s2.37-.47,2.84-1.24c.53-.95.59-2.37.59-4.09v-29.43h8.47v30.44Z"/>
      <path class="cls-1" d="M277.61,110.27v-41.45h26.59v7.17h-18.12v9.36h18.12v7.17h-18.12v10.6h18.12v7.17h-26.59Z"/>
      <path class="cls-1" d="M344.88,110.27h-6.93l-15.57-41.45h9.83l9.83,28.48h.06l10.3-28.48h9.36l-16.88,41.45Z"/>
      <path class="cls-1" d="M366.68,110.27v-41.45h26.59v7.17h-18.12v9.36h18.12v7.17h-18.12v10.6h18.12v7.17h-26.59Z"/>
      <path class="cls-1" d="M434.31,90.73c0,13.03-4.97,20.25-16.82,20.25s-16.58-7.22-16.58-20.25v-21.91h8.47v23.04c0,7.94,3.2,11.73,8.23,11.73s8.23-3.79,8.23-11.73v-23.04h8.47v21.91Z"/>
      <path class="cls-1" d="M465.34,89.07l15.34,21.2h-11.13l-10.01-14.15-10.01,14.15h-10.66l15.28-20.85-14.8-20.61h11.13l9.53,13.62,9.65-13.62h10.6l-14.92,20.25Z"/>
      <path class="cls-1" d="M268.01,181.34v-17.35l-13.21-24.1h10.54l7.17,14.92h.12l7.82-14.92h9.89l-13.86,24.34v17.11h-8.47Z"/>
      <path class="cls-1" d="M335.7,181.34l-2.67-7.7h-14.75l-2.78,7.7h-9.42l16.94-41.45h6.87l15.58,41.45h-9.77ZM320.78,166.71h9.89l-4.8-13.92h-.06l-5.03,13.92Z"/>
      <path class="cls-1" d="M351.1,181.34v-41.45h8.47v34.29h17v7.17h-25.46Z"/>
      <path class="cls-1" d="M381.42,181.34v-41.45h8.47v34.29h17v7.17h-25.46Z"/>
      <path class="cls-1" d="M411.74,181.34v-41.45h26.59v7.17h-18.12v9.36h18.12v7.17h-18.12v10.6h18.12v7.17h-26.59Z"/>
      <path class="cls-1" d="M459.24,139.89c6.69,0,15.16,3.43,15.16,12.44,0,6.46-4.38,10.01-9,11.55,3.67,5.15,9.83,13.62,12.67,17.47h-10.66l-11.37-16.52h-1.48v16.52h-8.47v-41.45h13.15ZM454.56,157.65h3.32c4.26,0,7.46-1.54,7.46-5.15,0-3.26-2.55-5.45-6.34-5.45h-4.44v10.6Z"/>
    </g>
    <path class="cls-2" d="M127.04,206.62c-3.4,0-6.05-2.15-6.76-5.51-1.88-8.85-5.95-17.25-13.19-27.24-.53-.73-1.08-1.44-1.64-2.15-1.07-1.37-2.17-2.78-3.11-4.35-1.72-1.78-3.21-3.72-4.66-5.59-.57-.74-1.14-1.48-1.73-2.21-5.07-6.32-10.37-13.13-14.56-20.82l-.36-.65c-.86-1.57-1.75-3.19-2.35-5.01-2.08-4.13-3.58-8.8-4.56-14.27-2.19-12.07-.82-23.48,4.08-33.91,2.33-4.95,4.73-8.66,7.56-11.65,2.58-3.59,5.88-6.31,8.48-8.29,10.44-7.96,22.45-11.69,35.7-11.11,4.82.22,9.12,1.01,13.15,2.41,6.85,2.02,13.3,5.57,19.16,10.57,4.62,3.95,8.54,8.69,11.64,14.08.28.5.51.99.73,1.46.08.18.16.35.25.53,2.29,3.89,3.92,8.37,5,13.69h0c2.89,14.23.44,28.53-7.28,42.48-4.54,8.22-10.43,15.58-16.12,22.69l-.68.84c-5.63,7.02-11.44,14.28-15.79,22.29-2.95,5.43-4.93,10.65-6.06,15.95-.75,3.52-3.35,5.73-6.78,5.76-.04,0-.07,0-.11,0ZM127.26,57.8c-11.31,0-21.6,3.47-30.61,10.35-2.4,1.83-5.44,4.33-7.72,7.54l-.18.22c-2.56,2.69-4.77,6.09-6.93,10.69-4.54,9.66-5.81,20.26-3.77,31.49.93,5.14,2.32,9.5,4.26,13.31l.12.29c.49,1.52,1.28,2.95,2.11,4.47l.36.66c4.03,7.41,9.21,14.06,14.17,20.23.6.75,1.19,1.51,1.77,2.27,1.49,1.93,2.9,3.76,4.52,5.41l.17.18.13.21c.83,1.42,1.85,2.73,2.94,4.12.58.75,1.17,1.5,1.73,2.27,7.59,10.46,11.87,19.33,13.87,28.75.32,1.49,1.35,2.34,2.85,2.34.02,0,.04,0,.05,0,1.57-.01,2.55-.89,2.91-2.59,1.21-5.68,3.32-11.25,6.46-17.02,4.52-8.32,10.45-15.72,16.18-22.88l.67-.84c5.59-6.98,11.37-14.2,15.75-22.13,7.35-13.29,9.6-26.29,6.86-39.75h0c-.99-4.91-2.49-9.01-4.56-12.53l-.08-.14c-.11-.22-.21-.44-.31-.67-.18-.39-.36-.79-.57-1.16-2.87-5-6.49-9.38-10.76-13.03-5.45-4.64-11.42-7.93-17.74-9.79l-.1-.03c-3.67-1.28-7.62-2.01-12.06-2.21-.83-.04-1.66-.06-2.49-.06ZM127,130.01c-12.43,0-22.55-10.11-22.55-22.55s10.11-22.55,22.55-22.55,22.55,10.11,22.55,22.55-10.11,22.55-22.55,22.55ZM127,88.91c-10.23,0-18.55,8.32-18.55,18.55s8.32,18.55,18.55,18.55,18.55-8.32,18.55-18.55-8.32-18.55-18.55-18.55Z"/>
  </g>
</svg>