<?xml version="1.0" encoding="UTF-8"?>
<svg xmlns="http://www.w3.org/2000/svg" viewBox="0 0 543.08 253.54">
  <defs>
    <style>
      .cls-1, .cls-2, .cls-3 {
        stroke-width: 0px;
      }

      .cls-2 {
        fill: #1c1c1b;
      }

      .cls-3 {
        fill: #fcf3ec;
      }
    </style>
  </defs>
  <g id="Calque_2" data-name="Calque 2">
    <g>
      <path class="cls-3" d="M17.02,252.54c-.5-8.61-7.42-15.52-16.02-16.02V17.02c8.61-.5,15.52-7.42,16.02-16.02h509.02c.5,8.61,7.42,15.52,16.04,16.02v219.5c-8.62.5-15.54,7.41-16.04,16.02H17.02Z"/>
      <path class="cls-1" d="M525.12,2c.93,8.36,7.59,15.02,15.95,15.94v217.66c-8.37.93-15.03,7.58-15.95,15.94H17.94c-.93-8.36-7.58-15.02-15.94-15.94V17.94c8.36-.93,15.02-7.58,15.94-15.94h507.18M527.01,0H16.05c0,8.86-7.19,16.05-16.05,16.05v221.44c8.86,0,16.05,7.19,16.05,16.05h510.96c0-8.86,7.19-16.05,16.07-16.05V16.05c-8.87,0-16.07-7.19-16.07-16.05h0Z"/>
    </g>
  </g>
  <g id="Calque_1" data-name="Calque 1">
    <g>
      <path class="cls-1" d="M329.94,111.56v-39.89h25.59v6.9h-17.44v9h17.44v6.9h-17.44v10.2h17.44v6.9h-25.59Z"/>
      <path class="cls-1" d="M389.43,111.56l-18.29-24.96v24.96h-8.15v-39.89h7.18l18.47,25.02v-25.02h8.15v39.89h-7.35Z"/>
      <path class="cls-1" d="M253.92,146.32c-2.74,0-5.19,1.37-5.19,3.99,0,3.08,3.76,3.93,6.84,5.02,5.64,1.94,12.42,4.56,12.42,12.94s-8.15,12.37-15.1,12.37c-6.16,0-10.94-2.34-15.27-6.67l5.41-5.3c3.25,3.13,5.76,5.01,9.92,5.01,3.19,0,6.33-1.54,6.33-5.07s-3.65-4.73-7.69-6.21c-5.19-1.94-11-4.22-11-11.85s6.44-11.17,13.05-11.17c5.13,0,9.18,1.65,13.22,4.73l-4.67,5.81c-2.22-1.88-5.19-3.59-8.26-3.59Z"/>
      <path class="cls-1" d="M299.39,179.94l-2.56-7.41h-14.19l-2.68,7.41h-9.06l16.3-39.89h6.61l14.99,39.89h-9.4ZM285.03,165.87h9.52l-4.62-13.39h-.06l-4.84,13.39Z"/>
      <path class="cls-1" d="M329.65,179.94h-6.67l-14.99-39.89h9.46l9.46,27.41h.06l9.92-27.41h9l-16.24,39.89Z"/>
      <path class="cls-1" d="M368.74,180.63c-11.85,0-20.92-9.23-20.92-20.63s9.06-20.63,20.92-20.63,20.86,9.23,20.86,20.63-9.06,20.63-20.86,20.63ZM368.74,146.49c-7.07,0-12.2,5.93-12.2,13.51s5.13,13.51,12.2,13.51,12.14-5.93,12.14-13.51-5.13-13.51-12.14-13.51Z"/>
      <path class="cls-1" d="M396.84,179.94v-39.89h8.15v39.89h-8.15Z"/>
      <path class="cls-1" d="M426.53,140.05c6.44,0,14.59,3.31,14.59,11.97,0,6.21-4.22,9.63-8.66,11.11,3.53,4.96,9.46,13.11,12.2,16.81h-10.26l-10.94-15.9h-1.42v15.9h-8.15v-39.89h12.65ZM422.02,157.15h3.19c4.1,0,7.18-1.48,7.18-4.96,0-3.13-2.45-5.24-6.1-5.24h-4.27v10.2Z"/>
      <path class="cls-1" d="M472,158.8v-10.83h6.84v10.83h10.89v6.84h-10.89v10.88h-6.84v-10.88h-10.83v-6.84h10.83Z"/>
    </g>
    <path class="cls-2" d="M189.75,181.67H59.81c-5.23,0-9.49-4.26-9.49-9.49v-94.19c0-5.23,4.26-9.49,9.49-9.49h129.94c5.23,0,9.49,4.26,9.49,9.49v94.19c0,5.24-4.26,9.49-9.49,9.49ZM59.81,72.49c-3.03,0-5.49,2.46-5.49,5.49v94.19c0,3.03,2.46,5.49,5.49,5.49h129.94c3.03,0,5.49-2.46,5.49-5.49v-94.19c0-3.03-2.46-5.49-5.49-5.49H59.81Z"/>
    <path class="cls-2" d="M117.78,138.28c-.47.06-.94-.07-1.3-.36-.16-.13-.3-.28-.42-.47l-10.43-17.81c-.34-.58-.31-1.35.11-1.89.43-.56,1.13-.81,1.8-.62l19.96,5.2c.68.17,1.17.74,1.27,1.44.98,7.03-3.96,13.54-11,14.52Z"/>
    <path class="cls-2" d="M188.13,96.83H61.43c-.55,0-1-.45-1-1s.45-1,1-1h126.7c.55,0,1,.45,1,1s-.45,1-1,1Z"/>
    <path class="cls-2" d="M153.05,155.35c-.32,0-.64-.1-.91-.31l-30.82-23.72c-.66-.5-.78-1.45-.27-2.1.51-.66,1.45-.78,2.1-.27l30.82,23.72c.66.5.78,1.45.27,2.1-.3.38-.74.58-1.19.58Z"/>
    <circle class="cls-2" cx="64.44" cy="83.94" r="3.01"/>
    <circle class="cls-2" cx="75.16" cy="83.94" r="3.01"/>
    <circle class="cls-2" cx="85.88" cy="83.94" r="3.01"/>
  </g>
</svg>