<?xml version="1.0" encoding="utf-8"?>
<!-- Generator: Adobe Illustrator 28.1.0, SVG Export Plug-In . SVG Version: 6.00 Build 0)  -->
<svg version="1.1" id="Calque_1" xmlns="http://www.w3.org/2000/svg" xmlns:xlink="http://www.w3.org/1999/xlink" x="0px" y="0px"
	 viewBox="0 0 534.6 249.6" style="enable-background:new 0 0 534.6 249.6;" xml:space="preserve">
<style type="text/css">
	.st0{fill:#fcf3ec;}
</style>
<g>
	<path class="st0" d="M16.8,248.6c-0.5-8.5-7.3-15.3-15.8-15.8v-216C9.5,16.3,16.3,9.5,16.8,1h501c0.5,8.5,7.3,15.3,15.8,15.8v216
		c-8.5,0.5-15.3,7.3-15.8,15.8H16.8L16.8,248.6z"/>
	<path d="M516.8,2c0.9,8.2,7.5,14.8,15.7,15.7v214.2c-8.2,0.9-14.8,7.5-15.7,15.7H17.7c-0.9-8.2-7.5-14.8-15.7-15.7V17.7
		c8.2-0.9,14.8-7.5,15.7-15.7L516.8,2 M518.7,0H15.8c0,8.7-7.1,15.8-15.8,15.8v218c8.7,0,15.8,7.1,15.8,15.8h502.9
		c0-8.7,7.1-15.8,15.8-15.8v-218C525.8,15.8,518.7,8.7,518.7,0L518.7,0z"/>
</g>
<path d="M142.5,103.3l-13.3,32.1c-0.1,0.2-0.2,0.4-0.4,0.6c-0.2,0.4-0.6,0.8-1,0.9l-32,13.3c-0.3,0.1-0.5,0.2-0.8,0.2
	c-0.5,0-1.1-0.2-1.4-0.6c-0.6-0.6-0.8-1.5-0.4-2.2l13.3-32.1c0.1-0.2,0.2-0.4,0.4-0.6c0.2-0.4,0.6-0.8,1-0.9l32.1-13.3
	c0.8-0.3,1.6-0.1,2.2,0.4C142.7,101.6,142.9,102.5,142.5,103.3L142.5,103.3z"/>
<path d="M117.8,190.5c-35.9,0-65.1-29.2-65.1-65.1s29.2-65.1,65.1-65.1s65.1,29.2,65.1,65.1S153.7,190.5,117.8,190.5z M117.8,64.9
	c-33.3,0-60.5,27.1-60.5,60.5s27.1,60.5,60.5,60.5s60.5-27.1,60.5-60.5S151.1,64.9,117.8,64.9z"/>
<g>
	<path d="M217.3,173.6v-26.2h3.6v23h11.4v3.2H217.3z"/>
	<path d="M236,173.6v-26.2h15.7v3.2h-12.1v7.9h12.1v3.2h-12.1v8.7h12.1v3.2H236z"/>
	<path d="M265.8,150.2c-2.8,0-4.7,1.3-4.7,3.6c0,2.3,2.6,3.1,5.5,4.2c3.7,1.3,7.9,3,7.9,7.9c0,5.9-5.2,8.2-9.2,8.2
		c-3.8,0-6.7-1.2-9.5-3.9l2.5-2.4c2.5,2.4,4.3,3.1,7,3.1c2.7,0,5.3-1.3,5.3-4.5c0-2.9-2.8-3.9-5.8-4.9c-3.6-1.2-7.4-3-7.4-7.2
		c0-4.9,3.6-7.2,7.9-7.2c3.1,0,5.8,0.9,8.1,2.7l-2.2,2.6C270,151.1,267.8,150.2,265.8,150.2z"/>
	<path d="M307.2,173.6v-11.9h-13.8v11.9h-3.6v-26.2h3.6v11.1h13.8v-11.1h3.6v26.2H307.2z"/>
	<path d="M334.3,173.6l-2.1-5.6h-11.1l-2,5.6h-3.9l10.1-26.2h3.1l10,26.2H334.3z M322.3,164.8h8.8l-4.4-11.9h0L322.3,164.8z"/>
	<path d="M342.7,147.4h6.2c2.5,0,5,0.4,7,1.6c1.8,1.2,2.8,3.1,2.8,5.4c0,2.5-1.1,4.3-4,5.4c3.4,1,5.1,3.1,5.1,6.2
		c0,3-1.6,5.3-4.3,6.4c-2,0.8-4.5,1-6.9,1h-5.9V147.4z M353.6,151.5c-1.3-0.9-3.3-1-5.5-1h-1.8v8.1h2.5c3.9,0,6.3-1.2,6.3-4
		C355.1,153,354.5,152.1,353.6,151.5z M350.5,161.8h-4.2v8.7h2c2.2,0,4.1-0.1,5.5-0.8c1.3-0.6,2.1-1.7,2.1-3.5
		C356,163.6,354.1,161.8,350.5,161.8z"/>
	<path d="M365.6,173.6v-26.2h3.6v26.2H365.6z"/>
	<path d="M383.6,150.6v23H380v-23h-6.6v-3.2h16.8v3.2H383.6z"/>
	<path d="M409.2,173.6l-2.1-5.6H396l-2,5.6H390l10.1-26.2h3.1l10,26.2H409.2z M397.2,164.8h8.8l-4.4-11.9h0L397.2,164.8z"/>
	<path d="M435.6,173.6l-14.4-19.5v19.5h-3.6v-26.2h3.1l14.4,19.5v-19.5h3.6v26.2H435.6z"/>
	<path d="M453.2,150.6v23h-3.6v-23h-6.6v-3.2h16.8v3.2H453.2z"/>
	<path d="M471.8,150.2c-2.8,0-4.7,1.3-4.7,3.6c0,2.3,2.6,3.1,5.5,4.2c3.7,1.3,7.9,3,7.9,7.9c0,5.9-5.2,8.2-9.2,8.2
		c-3.8,0-6.7-1.2-9.5-3.9l2.5-2.4c2.5,2.4,4.3,3.1,7,3.1c2.7,0,5.3-1.3,5.3-4.5c0-2.9-2.8-3.9-5.8-4.9c-3.6-1.2-7.4-3-7.4-7.2
		c0-4.9,3.6-7.2,7.9-7.2c3.1,0,5.8,0.9,8.1,2.7l-2.2,2.6C476.1,151.1,473.9,150.2,471.8,150.2z"/>
</g>
<g>
	<path d="M214,91.6h9.6c8.6,0,18.3,4.5,18.3,16.7c0,12.5-9.6,17-18.8,17H214V91.6z M219.9,120.3h1.1c8.6,0,14.5-2.9,14.5-11.5
		c0-7.9-4.8-12.1-12.8-12.1h-2.8V120.3z"/>
	<path d="M248.6,125.4V91.6h21.1v5.1h-15.1v8.7h15.1v5.1h-15.1v9.7h15.1v5.1H248.6z M258,89.9l-2.7-3.3l8.2-6.9l3.1,4.1L258,89.9z"
		/>
	<path d="M293.1,120.7c2.6,0,5.1-0.9,7.3-2.6l3.3,4.3c-3.2,2.3-6.9,3.5-10.8,3.5c-10.1,0-17.9-7-17.9-17.5c0-9.9,8.1-17.5,18-17.5
		c3.6,0,6.8,1.1,9.8,3l-2.8,4.6c-2-1.4-4.4-2.4-7-2.4c-6.8,0-11.7,5.3-11.7,12.2C281.4,115.9,286,120.7,293.1,120.7z"/>
	<path d="M322.9,126c-9.9,0-17.5-7.8-17.5-17.5c0-9.7,7.6-17.5,17.5-17.5c10,0,17.6,7.8,17.6,17.5C340.5,118.1,332.9,126,322.9,126z
		 M322.9,96.3c-6.5,0-11.2,5.4-11.2,12.2s4.7,12.2,11.2,12.2c6.5,0,11.2-5.4,11.2-12.2S329.4,96.3,322.9,96.3z"/>
	<path d="M373.8,109.5c0,10.6-4,16.5-13.5,16.5c-9.3,0-13.3-5.8-13.3-16.5V91.6h6v18.9c0,6.9,2.8,10.2,7.4,10.2
		c4.6,0,7.4-3.3,7.4-10.2V91.6h6V109.5z"/>
	<path d="M395.8,125.4h-5L378,91.6h6.9l8.8,24.7h0l9-24.7h6.6L395.8,125.4z"/>
	<path d="M424,91.6c5.4,0,12,2.8,12,9.9c0,5.5-3.8,8.3-7.7,9.5l10.5,14.4h-7.4l-9.7-13.8h-2.1v13.8h-6V91.6H424z M422.9,106.5
		c3.9,0,6.8-1.4,6.8-4.8c0-3-2.4-5-5.8-5h-4.3v9.8H422.9z"/>
	<path d="M443.8,125.4V91.6h6v33.8H443.8z"/>
	<path d="M468.4,91.6c5.4,0,12,2.8,12,9.9c0,5.5-3.8,8.3-7.7,9.5l10.5,14.4h-7.4l-9.7-13.8h-2.1v13.8h-6V91.6H468.4z M467.3,106.5
		c3.9,0,6.8-1.4,6.8-4.8c0-3-2.4-5-5.8-5h-4.3v9.8H467.3z"/>
</g>
</svg>
