<?xml version="1.0" encoding="UTF-8"?><svg id="Calque_1" xmlns="http://www.w3.org/2000/svg" viewBox="0 0 543.1 253.5"><defs><style>.cls-1,.cls-2{stroke-width:0px;}.cls-2{fill:#f8e8db;}</style></defs><path class="cls-2" d="M17,252.5c-.5-8.6-7.4-15.5-16-16V17c8.6-.5,15.5-7.4,16-16h509c.5,8.6,7.4,15.5,16,16v219.5c-8.6.5-15.5,7.4-16,16H17Z"/><path class="cls-1" d="M525.1,2c.9,8.4,7.6,15,16,15.9v217.7c-8.4.9-15,7.6-16,15.9H17.9c-.9-8.4-7.6-15-15.9-15.9V17.9c8.4-.9,15-7.5,15.9-15.9h507.2M527,0H16c0,8.9-7.2,16-16,16v221.4c8.9,0,16,7.2,16,16.1h511c0-8.9,7.2-16.1,16.1-16.1V16c-8.9,0-16.1-7.1-16.1-16h0Z"/><path class="cls-1" d="M168.27,140.23c3.48,0,6.95-1.38,9.77-3.8l5.25,6.82c-4.46,3.41-9.77,5.18-15.42,5.18-13.78,0-24.07-9.71-24.07-23.75s10.95-23.75,24.47-23.75c5.25,0,9.58,1.64,14.1,4.46l-4.53,7.28c-2.76-2.1-6.04-3.54-9.58-3.54-8.33,0-14.43,6.82-14.43,15.55,0,9.18,5.44,15.55,14.43,15.55Z"/><path class="cls-1" d="M204.54,101.72c7.41,0,16.79,3.8,16.79,13.78,0,7.15-4.85,11.09-9.97,12.79,4.07,5.71,10.89,15.09,14.04,19.35h-11.81l-12.59-18.3h-1.64v18.3h-9.38v-45.92h14.56ZM199.36,121.4h3.67c4.72,0,8.26-1.71,8.26-5.71,0-3.61-2.82-6.04-7.02-6.04h-4.92v11.74Z"/><path class="cls-1" d="M231.57,147.64v-45.92h29.45v7.94h-20.07v10.36h20.07v7.94h-20.07v11.74h20.07v7.94h-29.45ZM245.21,99.56l-4.2-5.31,11.28-9.45,4.85,6.36-11.94,8.4Z"/><path class="cls-1" d="M269.61,101.72h13.38c11.87,0,25.19,6.17,25.19,22.76s-13.18,23.16-25.78,23.16h-12.79v-45.92ZM278.99,139.7h1.05c10.76,0,18.1-3.8,18.1-14.63,0-10.1-5.97-15.42-16.27-15.42h-2.89v30.04Z"/><path class="cls-1" d="M316.51,147.64v-45.92h9.38v45.92h-9.38Z"/><path class="cls-1" d="M351.81,109.66v37.98h-9.38v-37.98h-10.89v-7.94h31.16v7.94h-10.89Z"/><path class="cls-1" d="M383.75,108.94c-3.15,0-5.97,1.57-5.97,4.59,0,3.54,4.33,4.53,7.87,5.77,6.49,2.23,14.3,5.25,14.3,14.89s-9.38,14.23-17.38,14.23c-7.08,0-12.59-2.69-17.58-7.67l6.23-6.1c3.74,3.61,6.62,5.77,11.41,5.77,3.67,0,7.28-1.77,7.28-5.84s-4.2-5.44-8.86-7.15c-5.97-2.23-12.66-4.85-12.66-13.64s7.41-12.86,15.02-12.86c5.9,0,10.56,1.9,15.22,5.44l-5.38,6.69c-2.56-2.16-5.97-4.13-9.51-4.13Z"/></svg>