<svg width="31" height="45" viewBox="0 0 31 45" fill="none" xmlns="http://www.w3.org/2000/svg">
<path d="M30.3419 42.2216C30.2878 42.8654 30.0171 43.3482 29.6111 43.5628C29.178 43.7774 28.6367 43.7238 28.0683 43.4019C27.4728 43.0531 26.9044 42.463 26.5255 41.7119L19.6505 28.8898L22.9527 27.1462L29.8006 39.9952C30.2066 40.7462 30.396 41.5242 30.3419 42.2216Z" fill="black"/>
<path d="M13.5605 24.0346C7.68698 24.0346 2.89615 19.2867 2.89615 13.4658C2.89615 7.6449 7.68698 2.89697 13.5605 2.89697C19.434 2.89697 24.2248 7.6449 24.2248 13.4658C24.2248 19.2867 19.4611 24.0346 13.5605 24.0346ZM13.5605 3.37981C7.95765 3.37981 3.38335 7.91315 3.38335 13.4658C3.38335 19.0185 7.95765 23.5518 13.5605 23.5518C19.1633 23.5518 23.7376 19.0185 23.7376 13.4658C23.7376 7.91315 19.1904 3.37981 13.5605 3.37981Z" fill="black"/>
<path d="M5.14269 12.393C5.06149 12.393 5.00735 12.3393 5.00735 12.2589C5.00735 10.3007 5.87349 8.47663 7.47044 7.08176C7.52457 7.02811 7.60577 7.05493 7.63284 7.08176C7.68697 7.1354 7.6599 7.21588 7.63284 7.2427C6.09003 8.58392 5.25096 10.3543 5.25096 12.2321C5.25096 12.3394 5.19682 12.393 5.14269 12.393Z" fill="black"/>
<path d="M13.5605 0C6.09004 0 0 6.0355 0 13.4391C0 20.8426 6.09004 26.8781 13.5605 26.8781C15.374 26.8781 17.1062 26.5294 18.6761 25.8856C19.4611 25.5637 20.246 25.1613 20.9497 24.7053C24.6579 22.3179 27.121 18.1602 27.121 13.4391C27.148 6.0355 21.058 0 13.5605 0ZM13.5605 25.9392C6.63137 25.9392 0.974406 20.3329 0.974406 13.4659C0.974406 6.59882 6.60431 0.992505 13.5605 0.992505C20.4896 0.992505 26.1466 6.57199 26.1466 13.4659C26.1466 20.3598 20.4896 25.9392 13.5605 25.9392Z" fill="black"/>
<path d="M30.2607 39.7539L23.2775 26.6904C23.2233 26.5831 23.0609 26.5294 22.9527 26.5831L22.1677 27.0122L19.8941 28.1925L19.2174 28.5412C19.1633 28.5681 19.1092 28.6217 19.1092 28.6754C19.0821 28.729 19.1092 28.8095 19.1362 28.8631L26.1195 41.9266C26.5526 42.7582 27.1751 43.402 27.8518 43.8044C28.2848 44.0458 28.6908 44.1531 29.0698 44.1531C29.3404 44.1531 29.6111 44.0994 29.8547 43.9653C30.4231 43.6702 30.775 43.0533 30.8562 42.2217C30.9103 41.4706 30.6938 40.5854 30.2607 39.7539ZM30.3419 42.2217C30.2878 42.8655 30.0171 43.3483 29.6111 43.5629C29.178 43.7775 28.6367 43.7239 28.0683 43.402C27.4728 43.0533 26.9044 42.4631 26.5255 41.7121L19.6505 28.89L22.9527 27.1464L29.8006 39.9953C30.2066 40.7464 30.396 41.5243 30.3419 42.2217Z" fill="black"/>
<path d="M22.1677 27.0123L19.8941 28.1925L18.6761 25.9125C19.4611 25.5906 20.246 25.1882 20.9497 24.7322L22.1677 27.0123Z" fill="black"/>
</svg>
