<?xml version="1.0" encoding="UTF-8"?><svg id="Calque_1" xmlns="http://www.w3.org/2000/svg" viewBox="0 0 92.75 114.27"><defs><style>.cls-1{fill:#fcf3ec;}.cls-1,.cls-2{stroke:#1d1d1b;stroke-miterlimit:10;}.cls-2{fill:none;}.cls-3{fill:#1d1d1b;stroke-width:0px;}</style></defs><path class="cls-1" d="M8.06,55.62s-10.49-1.77-6.75,10.63c0,0,2.02,7.17,9.29,10.8"/><path class="cls-1" d="M84.45,55.61s10.4-2.2,7.18,10.35c0,0-1.72,7.25-8.83,11.17"/><path class="cls-1" d="M46,7.25c-11.12,0-35.23,2.98-37.93,30.59,0,0-3.09,40.79,7.44,58.19,5.7,9.42,15.26,17.73,30.33,17.73,14.08,0,26.08-7.26,31.69-16.58,3.3-5.48,8.51-19.24,6.27-60.13,0,0,0-29.81-37.79-29.81Z"/><circle class="cls-3" cx="29.56" cy="57.14" r="2.08"/><line class="cls-2" x1="34.06" y1="46.38" x2="27.47" y2="47.1"/><circle class="cls-3" cx="62.11" cy="57.14" r="2.08"/><line class="cls-2" x1="57.61" y1="46.38" x2="64.2" y2="47.1"/><polyline class="cls-2" points="45.69 63.61 43.44 80.61 48.82 81.68"/><path class="cls-2" d="M33.39,91.87s11.26,7.95,24.89,0"/><path class="cls-3" d="M7.65,49.87s12.06-8.6,10.19-27.52c0,0,35.56,13.64,56.88,7.51,0,0,4.81,19.2,8.81,21.6,0,0,4.64-8.71,2.14-29.11-1.34-10.92-9.37-12.21-16.02-15.09-5.76-2.5-12.06-6.92-20.83-3.3,0,0-1.81-4.7-6.66-3.84C22.46,3.58,10.59,12.04,7.26,24.62c-1.44,5.46-2.56,12.2.39,25.25Z"/></svg>