<?xml version="1.0" encoding="UTF-8"?><svg id="Calque_1" xmlns="http://www.w3.org/2000/svg" viewBox="0 0 122.53 288.02"><defs><style>.cls-1{fill:#fbf2eb;stroke-linecap:square;stroke-linejoin:round;stroke-width:.72px;}.cls-1,.cls-2,.cls-3{stroke:#000;}.cls-4,.cls-2{fill:none;}.cls-4,.cls-2,.cls-5,.cls-6,.cls-7,.cls-8,.cls-3{stroke-miterlimit:10;stroke-width:.75px;}.cls-4,.cls-5,.cls-6,.cls-7,.cls-8{stroke:#1d1d1b;}.cls-5{fill:#fff;}.cls-6{fill:#fbf3eb;}.cls-9{fill:#1d1d1b;stroke-width:0px;}.cls-7{fill:#a9c180;}.cls-8{fill:#aac280;}.cls-3{fill:#4669aa;}</style></defs><polygon class="cls-8" points="48.73 272.51 48.73 287.64 1.38 287.64 27.16 272.51 48.73 272.51"/><polygon class="cls-8" points="73.8 272.51 73.8 287.64 121.16 287.64 95.37 272.51 73.8 272.51"/><polygon class="cls-3" points="33.12 111.45 89.63 110.67 108.66 276.71 70.16 276.71 61.51 140.09 52.36 276.71 16.43 276.71 33.12 111.45"/><path class="cls-6" d="M19.46,276.51s-6.7-5.23-6.99-2.52c-.19,1.77,6.99,2.52,6.99,2.52Z"/><path class="cls-2" d="M14.18,278.12s3.53.18,5.83-1.41"/><path class="cls-6" d="M102.98,276.58s7.38-5.96,6.78-2.81c-.33,1.75-6.78,2.81-6.78,2.81Z"/><path class="cls-2" d="M110.5,278.54s-5.46-.12-7.75-1.72"/><path class="cls-1" d="M67.56,41.61s-1.13,6.77,1.05,7.62l-9.73,13.37-7.54-12s2.49-3.71,1.23-9.89l14.99.91Z"/><path class="cls-7" d="M90.94,53.09s6.34,2.54,8.94,11.1l10.99,30.86-7.14,33.79-16.29-14.1,11.08-22.22-8.13-14.87.56-24.56Z"/><path class="cls-4" d="M81.86,116.18s-1.02,11.41,10.2,15"/><path class="cls-4" d="M41.24,116.18s1.02,11.41-10.2,15"/><path class="cls-6" d="M83.54,124.17s2.78-7.73,6.2-7.42l7.33,6.34s-2.07,7.87-7.83,6.91c0,0-4.3-1.66-5.7-5.84Z"/><path class="cls-7" d="M31.56,52.86s-6.34,2.54-8.94,11.1l-7.71,33.23-6.65,30.27,19.25-2.87,1.92-27.41,2.69-19.76-.56-24.56Z"/><path class="cls-6" d="M14.5,139.3c.81.11,1.07-.82,1.07-.82.05.51.52.58.52.58.37.1.73-.14.73-.14,1.42-.99,3.37-8.07,3.37-8.07,0,0,1.16,3.04,2.14,2.73,1.48-.47,0-8.21,0-8.21l-10.74,1.59s-2.04,7.65-.61,10.97c.13.3.64.99,1.38.22.05-.05.08-.79.07-.26,0,0-.14,1.07.6,1.13.5.04.72-.28.8-.46.05-.12.04-.28.04.05s.13.62.63.69Z"/><path class="cls-5" d="M13.87,138.44s.17-2.64.89-4.16"/><path class="cls-5" d="M12.43,137.89s-.02-2.59.69-4.11"/><path class="cls-5" d="M15.58,138.44s.17-2.64.89-4.16"/><path class="cls-7" d="M67.78,48.05c16.14.93,23.16,5.04,23.16,5.04-.32,13.67-1.31,57.58-1.31,57.58l-56.51.79-1.53-58.61c7.43-3.18,12.81-3.81,20.31-4.54l2.54,4.15c2.46,4,8.28,3.98,10.71-.04l2.64-4.37Z"/><path class="cls-1" d="M44.89,21.98s-4.14-.7-2.67,4.2c0,0,.8,2.83,3.67,4.27"/><path class="cls-1" d="M75.09,21.98s4.11-.87,2.84,4.09c0,0-.68,2.87-3.49,4.42"/><path class="cls-1" d="M59.89,2.87c-4.4,0-13.92,1.18-14.99,12.09,0,0-1.22,16.12,2.94,23,2.25,3.72,6.03,7.01,11.99,7.01,5.56,0,10.31-2.87,12.52-6.55,1.3-2.17,3.36-7.6,2.48-23.77,0,0,0-11.78-14.94-11.78Z"/><circle class="cls-9" cx="53.39" cy="22.58" r=".82"/><line class="cls-4" x1="55.17" y1="18.33" x2="52.57" y2="18.61"/><circle class="cls-9" cx="66.26" cy="22.58" r=".82"/><line class="cls-4" x1="64.48" y1="18.33" x2="67.08" y2="18.61"/><polyline class="cls-4" points="59.77 25.14 58.88 31.86 61 32.28"/><path class="cls-4" d="M54.91,36.31s4.45,3.14,9.84,0"/><path class="cls-9" d="M44.73,19.71s4.77-3.4,4.03-10.88c0,0,14.05,5.39,22.48,2.97,0,0,1.9,7.59,3.48,8.54,0,0,1.84-3.44.85-11.5-.53-4.31-3.7-4.83-6.33-5.97-2.28-.99-4.76-2.74-8.23-1.31,0,0-.71-1.86-2.63-1.52-7.79,1.37-12.48,4.72-13.79,9.69-.57,2.16-1.01,4.82.15,9.98Z"/></svg>