<svg width="203" height="203" viewBox="0 0 203 203" fill="none" xmlns="http://www.w3.org/2000/svg">
<circle cx="101.5" cy="101.5" r="101" fill="#4669AA" stroke="black"/>
<g clip-path="url(#clip0_548_5563)">
<path d="M48.3456 99.3596C48.3456 99.3596 33.5203 96.827 38.7965 114.539C38.7965 114.539 41.6451 124.767 51.9224 129.947" fill="#FCF3EC"/>
<path d="M48.3456 99.3596C48.3456 99.3596 33.5203 96.827 38.7965 114.539C38.7965 114.539 41.6451 124.767 51.9224 129.947" stroke="#1D1D1B" stroke-width="0.83" stroke-miterlimit="10"/>
<path d="M156.315 99.343C156.315 99.343 171.01 96.2059 166.462 114.114C166.462 114.114 164.035 124.456 153.984 130.061" fill="#FCF3EC"/>
<path d="M156.315 99.343C156.315 99.343 171.01 96.2059 166.462 114.114C166.462 114.114 164.035 124.456 153.984 130.061" stroke="#1D1D1B" stroke-width="0.83" stroke-miterlimit="10"/>
<path d="M101.966 30.3427C86.2504 30.3427 52.1813 34.5909 48.3617 73.9848C48.3617 73.9848 43.9918 132.169 58.8819 157.004C66.9419 170.451 80.4562 182.297 101.739 182.297C121.63 182.297 138.592 171.938 146.523 158.638C151.184 150.828 158.548 131.188 155.376 72.841C155.376 72.841 155.376 30.3101 101.966 30.3101V30.3427Z" fill="#FCF3EC" stroke="#1D1D1B" stroke-width="0.83" stroke-miterlimit="10"/>
<path d="M78.7406 104.507C80.3674 104.507 81.6862 103.175 81.6862 101.533C81.6862 99.8905 80.3674 98.5591 78.7406 98.5591C77.1137 98.5591 75.7949 99.8905 75.7949 101.533C75.7949 103.175 77.1137 104.507 78.7406 104.507Z" fill="#1D1D1B"/>
<path d="M85.1012 86.1738L75.7949 87.1869" stroke="#1D1D1B" stroke-width="0.88" stroke-miterlimit="10"/>
<path d="M124.754 104.507C126.381 104.507 127.7 103.175 127.7 101.533C127.7 99.8905 126.381 98.5591 124.754 98.5591C123.127 98.5591 121.809 99.8905 121.809 101.533C121.809 103.175 123.127 104.507 124.754 104.507Z" fill="#1D1D1B"/>
<path d="M118.377 86.1738L127.7 87.1869" stroke="#1D1D1B" stroke-width="0.88" stroke-miterlimit="10"/>
<path d="M101.529 110.748L98.3567 135.012L105.947 136.531" stroke="#1D1D1B" stroke-width="0.88" stroke-miterlimit="10"/>
<path d="M84.1626 151.073C84.1626 151.073 100.072 162.413 119.332 151.073" stroke="#1D1D1B" stroke-width="0.88" stroke-miterlimit="10"/>
<path d="M47.7791 91.1412C47.7791 91.1412 64.8218 78.8704 62.1836 51.878C62.1836 51.878 75.7951 67.8741 98.3567 67.8741C133.559 67.8741 151.2 73.1027 156.104 93.1019C156.104 93.1019 161.575 80.9782 158.046 51.878C156.153 36.3068 144.807 34.4604 135.404 30.343C127.263 26.781 118.361 20.4577 105.964 25.6209C105.964 25.6209 103.406 18.9219 96.5602 20.1473C68.7061 25.0981 51.9224 37.1728 47.2288 55.1132C45.1896 62.907 43.6196 72.5145 47.7791 91.1412Z" fill="#1D1D1B"/>
</g>
<defs>
<clipPath id="clip0_548_5563">
<rect width="131" height="163" fill="white" transform="translate(37 20)"/>
</clipPath>
</defs>
</svg>
