<?xml version="1.0" encoding="UTF-8"?><svg id="Calque_1" xmlns="http://www.w3.org/2000/svg" viewBox="0 0 390.53 505.16"><defs><style>.cls-1{font-family:ShantellSans-Regular, 'Shantell Sans';font-size:18px;font-variation-settings:'wght' 400, 'INFM' 0, 'BNCE' 0, 'SPAC' 0;}.cls-1,.cls-2{fill:#fbf2ea;}.cls-2,.cls-3{stroke:#1e1e1c;}.cls-2,.cls-3,.cls-4,.cls-5{stroke-miterlimit:10;}.cls-3{fill:#fbf3ea;}.cls-4{fill:#316dae;stroke:#010101;}.cls-5{fill:none;stroke:#fbf2ea;}</style></defs><rect class="cls-4" x=".53" y=".5" width="389.5" height="407.66"/><polygon class="cls-2" points="19.89 408.16 .89 408.16 .89 218.16 19.89 231.16 19.89 408.16"/><polygon class="cls-2" points="125.61 408.16 106.61 408.16 106.61 218.16 125.61 231.16 125.61 408.16"/><polygon class="cls-2" points="231.32 408.16 212.32 408.16 212.32 218.16 231.32 231.16 231.32 408.16"/><polygon class="cls-2" points="363.46 408.16 344.46 408.16 344.46 218.16 363.46 231.16 363.46 408.16"/><polygon class="cls-2" points="257.75 408.16 238.75 408.16 238.75 218.16 257.75 231.16 257.75 408.16"/><polygon class="cls-2" points="46.32 408.16 27.32 408.16 27.32 218.16 46.32 231.16 46.32 408.16"/><polygon class="cls-2" points="53.75 408.16 72.75 408.16 72.75 197.16 53.75 210.16 53.75 408.16"/><polygon class="cls-2" points="159.46 408.16 178.46 408.16 178.46 197.16 159.46 210.16 159.46 408.16"/><polygon class="cls-2" points="291.61 408.16 310.61 408.16 310.61 197.16 291.61 210.16 291.61 408.16"/><polygon class="cls-2" points="80.18 408.16 99.18 408.16 99.18 218.16 80.18 231.16 80.18 408.16"/><polygon class="cls-2" points="370.89 408.16 389.89 408.16 389.89 218.16 370.89 231.16 370.89 408.16"/><polygon class="cls-2" points="265.18 408.16 284.18 408.16 284.18 218.16 265.18 231.16 265.18 408.16"/><polygon class="cls-2" points="185.89 408.16 204.89 408.16 204.89 218.16 185.89 231.16 185.89 408.16"/><polygon class="cls-2" points="318.04 408.16 337.04 408.16 337.04 218.16 318.04 231.16 318.04 408.16"/><polygon class="cls-2" points="133.04 408.16 152.04 408.16 152.04 218.16 133.04 231.16 133.04 408.16"/><path class="cls-5" d="M.39,91.75C35.42,47.61,109.57,17.16,195.39,17.16s159.27,30.16,194.5,73.96"/><text class="cls-1" transform="translate(138.41 59.72) rotate(-9.07) scale(.98 1)"><tspan x="0" y="0">G</tspan></text><text class="cls-1" transform="translate(151.42 57.67) rotate(-6.57) scale(.98 1)"><tspan x="0" y="0">a</tspan></text><text class="cls-1" transform="translate(161.95 56.47) rotate(-4.69) scale(.98 1)"><tspan x="0" y="0">r</tspan></text><text class="cls-1" transform="translate(169.47 55.82) rotate(-2.9) scale(.98 1)"><tspan x="0" y="0">d</tspan></text><text class="cls-1" transform="translate(180.35 55.28) rotate(-.88) scale(.98 1)"><tspan x="0" y="0">e</tspan></text><text class="cls-1" transform="translate(190.05 55.12) rotate(1.08) scale(.98 1)"><tspan x="0" y="0">n</tspan></text><text class="cls-1" transform="translate(200.75 55.35) rotate(2.71) scale(.98 1)"><tspan x="0" y="0"> </tspan></text><text class="cls-1" transform="translate(206.67 55.6) rotate(4.31) scale(.98 1)"><tspan x="0" y="0">P</tspan></text><text class="cls-1" transform="translate(215.87 56.27) rotate(6.25) scale(.98 1)"><tspan x="0" y="0">a</tspan></text><text class="cls-1" transform="translate(226.38 57.43) rotate(8.16) scale(.98 1)"><tspan x="0" y="0">r</tspan></text><text class="cls-1" transform="translate(234.06 58.53) rotate(9.73) scale(.98 1)"><tspan x="0" y="0">t</tspan></text><text class="cls-1" transform="translate(241.16 59.76) rotate(10.99) scale(.98 1)"><tspan x="0" y="0">i</tspan></text><text class="cls-1" transform="translate(245.73 60.6) rotate(12.55) scale(.98 1)"><tspan x="0" y="0">e</tspan></text><rect class="cls-5" x="131.89" y="30.16" width="128" height="44"/><line class="cls-5" x1="148.15" y1="20.32" x2="148.15" y2="30.66"/><line class="cls-5" x1="243.15" y1="20.32" x2="243.15" y2="30.66"/><path class="cls-3" d="M44.89,408.16s-4.95-30.78-29.83-24.32c0,0,20.49-10.69,35.14,9.32,0,0,3.22-21.08-24.29-41.08,0,0,33.94,12.24,36.08,37.92,0,0-1.69-38.59,15.59-46.83,0,0-9.87,31.77-4.52,50,0,0,6.07-22.86,39.3-15.36,0,0-25.72,6.43-33.23,26.79,0,0,8.93-9.65,20.01-12.15,0,0-13.93,10-11.43,15.72h-42.82Z"/><path class="cls-3" d="M304.89,408.16s-19-24-40-22c0,0,24-13,47,7,0,0,7-21.07-41-26,0,0,34-12,59,6,0,0,8-16,26-20,0,0-14,20-14,32,0,0,19-19,35-15,0,0-26.56,17.88-25.28,30.44,0,0,10.28-7.44,16.28-8.44,0,0-11.07,10-11.53,16h-51.47Z"/><rect class="cls-2" x=".68" y="408.16" width="389.36" height="96.5"/><rect class="cls-2" x=".53" y="441.16" width="389.5" height="13"/></svg>