<?xml version="1.0" encoding="UTF-8"?><svg id="Calque_1" xmlns="http://www.w3.org/2000/svg" viewBox="0 0 520.06 692.74"><defs><style>.cls-1,.cls-2{stroke:#000;}.cls-1,.cls-2,.cls-3{stroke-miterlimit:10;}.cls-1,.cls-4,.cls-5{fill:#f8e8db;}.cls-2,.cls-3{fill:none;}.cls-3{stroke:#f8e8db;}.cls-4{font-family:ShantellSans-Light, 'Shantell Sans';font-size:18px;font-variation-settings:'wght' 300, 'INFM' 0, 'BNCE' 0, 'SPAC' 0;font-weight:300;}.cls-4,.cls-6{isolation:isolate;}.cls-5,.cls-7{stroke-width:0px;}.cls-7{fill:#4669aa;}</style></defs><rect class="cls-7" x="0" width="520.06" height="576.54"/><polygon class="cls-1" points="75.52 576.54 56.52 576.54 56.52 386.54 75.52 399.54 75.52 576.54"/><polygon class="cls-1" points="186.41 576.54 167.41 576.54 167.41 386.54 186.41 399.54 186.41 576.54"/><polygon class="cls-1" points="297.3 576.54 278.3 576.54 278.3 386.54 297.3 399.54 297.3 576.54"/><polygon class="cls-1" points="435.91 576.54 416.91 576.54 416.91 386.54 435.91 399.54 435.91 576.54"/><polygon class="cls-1" points="325.02 576.54 306.02 576.54 306.02 386.54 325.02 399.54 325.02 576.54"/><polygon class="cls-1" points="103.24 576.54 84.24 576.54 84.24 386.54 103.24 399.54 103.24 576.54"/><polygon class="cls-1" points="111.96 576.54 130.96 576.54 130.96 365.54 111.96 378.54 111.96 576.54"/><polygon class="cls-1" points=".53 576.21 19.53 576.21 19.53 365.21 .53 378.21 .53 576.21"/><polygon class="cls-1" points="222.85 576.54 241.85 576.54 241.85 365.54 222.85 378.54 222.85 576.54"/><polygon class="cls-1" points="361.46 576.54 380.46 576.54 380.46 365.54 361.46 378.54 361.46 576.54"/><polygon class="cls-1" points="472.35 576.21 491.35 576.21 491.35 365.21 472.35 378.21 472.35 576.21"/><polygon class="cls-1" points="139.69 576.54 158.69 576.54 158.69 386.54 139.69 399.54 139.69 576.54"/><polygon class="cls-1" points="444.63 576.54 463.63 576.54 463.63 386.54 444.63 399.54 444.63 576.54"/><polygon class="cls-1" points="333.74 576.54 352.74 576.54 352.74 386.54 333.74 399.54 333.74 576.54"/><polygon class="cls-1" points="250.57 576.54 269.57 576.54 269.57 386.54 250.57 399.54 250.57 576.54"/><polygon class="cls-1" points="500.55 576.26 519.55 576.26 519.55 386.26 500.55 399.26 500.55 576.26"/><polygon class="cls-1" points="389.19 576.54 408.19 576.54 408.19 386.54 389.19 399.54 389.19 576.54"/><polygon class="cls-1" points="195.13 576.54 214.13 576.54 214.13 386.54 195.13 399.54 195.13 576.54"/><polygon class="cls-1" points="28.8 576.21 47.8 576.21 47.8 386.21 28.8 399.21 28.8 576.21"/><path class="cls-3" d="M62.02,571.7l2.12-311.57c35.03-44.14,109.18-74.58,195-74.58s159.27,30.16,194.5,73.96v312.19"/><g class="cls-6"><text class="cls-4" transform="translate(202.15 228.1) rotate(-9.07) scale(.98 1)"><tspan x="0" y="0">G</tspan></text></g><g class="cls-6"><text class="cls-4" transform="translate(215.16 226.05) rotate(-6.57) scale(.98 1)"><tspan x="0" y="0">a</tspan></text></g><g class="cls-6"><text class="cls-4" transform="translate(225.7 224.85) rotate(-4.69) scale(.98 1)"><tspan x="0" y="0">r</tspan></text></g><g class="cls-6"><text class="cls-4" transform="translate(233.22 224.2) rotate(-2.9) scale(.98 1)"><tspan x="0" y="0">d</tspan></text></g><g class="cls-6"><text class="cls-4" transform="translate(244.1 223.65) rotate(-.88) scale(.98 1)"><tspan x="0" y="0">e</tspan></text></g><g class="cls-6"><text class="cls-4" transform="translate(253.79 223.49) rotate(1.08) scale(.98 1)"><tspan x="0" y="0">n</tspan></text></g><g class="cls-6"><text class="cls-4" transform="translate(270.41 223.98) rotate(4.31) scale(.98 1)"><tspan x="0" y="0">P</tspan></text></g><g class="cls-6"><text class="cls-4" transform="translate(279.61 224.65) rotate(6.25) scale(.98 1)"><tspan x="0" y="0">a</tspan></text></g><g class="cls-6"><text class="cls-4" transform="translate(290.12 225.81) rotate(8.16) scale(.98 1)"><tspan x="0" y="0">r</tspan></text></g><g class="cls-6"><text class="cls-4" transform="translate(297.8 226.91) rotate(9.73) scale(.98 1)"><tspan x="0" y="0">t</tspan></text></g><g class="cls-6"><text class="cls-4" transform="translate(304.9 228.14) rotate(10.99) scale(.98 1)"><tspan x="0" y="0">i</tspan></text></g><g class="cls-6"><text class="cls-4" transform="translate(309.47 228.98) rotate(12.55) scale(.98 1)"><tspan x="0" y="0">e</tspan></text></g><rect class="cls-3" x="195.64" y="198.54" width="128" height="44"/><line class="cls-3" x1="211.89" y1="188.7" x2="211.89" y2="199.04"/><line class="cls-3" x1="306.89" y1="188.7" x2="306.89" y2="199.04"/><path class="cls-1" d="M112.64,576.54s-4.95-30.78-29.83-24.32c0,0,20.49-10.69,35.14,9.32,0,0,3.22-21.08-24.29-41.08,0,0,33.94,12.24,36.08,37.92,0,0-1.69-38.59,15.59-46.83,0,0-9.87,31.77-4.52,50,0,0,6.07-22.86,39.3-15.36,0,0-25.72,6.43-33.23,26.79,0,0,8.93-9.65,20.01-12.15,0,0-13.93,10-11.43,15.72h-42.82,0Z"/><path class="cls-1" d="M372.64,576.54s-19-24-40-22c0,0,24-13,47,7,0,0,7-21.07-41-26,0,0,34-12,59,6,0,0,8-16,26-20,0,0-14,20-14,32,0,0,19-19,35-15,0,0-26.56,17.88-25.28,30.44,0,0,10.28-7.44,16.28-8.44,0,0-11.07,10-11.53,16h-51.47Z"/><polyline class="cls-5" points="0 572.17 520.06 572.17 520.06 691.93 0 692.32"/><line class="cls-2" x1="0" y1="637.82" x2="520.06" y2="637.82"/><line class="cls-1" x1="520.06" y1="650.8" x2="0" y2="650.82"/><line class="cls-2" x1="520.06" y1="596.28" x2="0" y2="596.33"/><line class="cls-2" x1="0" y1="572.36" x2="520.06" y2="572.36"/><line class="cls-2" x1="520.06" y1="692.24" x2="0" y2="692.24"/></svg>