<?xml version="1.0" encoding="UTF-8"?><svg id="Calque_1" xmlns="http://www.w3.org/2000/svg" viewBox="0 0 519.5 691.67"><defs><style>.cls-1{stroke-width:1px;}.cls-1,.cls-2,.cls-3{fill:#f8e8db;}.cls-1,.cls-3,.cls-4{stroke:#000;}.cls-1,.cls-3,.cls-4,.cls-5{stroke-miterlimit:10;}.cls-2{font-family:ShantellSans-Regular, 'Shantell Sans';font-size:18px;font-variation-settings:'wght' 400, 'INFM' 0, 'BNCE' 0, 'SPAC' 0;}.cls-4{fill:#4669aa;stroke-width:1.37px;}.cls-5{fill:none;stroke:#f8e8db;}</style></defs><rect class="cls-4" x=".79" y=".68" width="518" height="575.33"/><polygon class="cls-1" points="75.24 576.01 56.24 576.01 56.24 386.01 75.24 399.01 75.24 576.01"/><polygon class="cls-1" points="186.13 576.01 167.13 576.01 167.13 386.01 186.13 399.01 186.13 576.01"/><polygon class="cls-1" points="297.02 576.01 278.02 576.01 278.02 386.01 297.02 399.01 297.02 576.01"/><polygon class="cls-1" points="435.63 576.01 416.63 576.01 416.63 386.01 435.63 399.01 435.63 576.01"/><polygon class="cls-1" points="324.74 576.01 305.74 576.01 305.74 386.01 324.74 399.01 324.74 576.01"/><polygon class="cls-1" points="102.96 576.01 83.96 576.01 83.96 386.01 102.96 399.01 102.96 576.01"/><polygon class="cls-1" points="111.68 576.01 130.68 576.01 130.68 365.01 111.68 378.01 111.68 576.01"/><polygon class="cls-1" points=".79 575.68 19.79 575.68 19.79 364.68 .79 377.68 .79 575.68"/><polygon class="cls-1" points="222.57 576.01 241.57 576.01 241.57 365.01 222.57 378.01 222.57 576.01"/><polygon class="cls-1" points="361.18 576.01 380.18 576.01 380.18 365.01 361.18 378.01 361.18 576.01"/><polygon class="cls-1" points="472.07 575.68 491.07 575.68 491.07 364.68 472.07 377.68 472.07 575.68"/><polygon class="cls-1" points="139.41 576.01 158.41 576.01 158.41 386.01 139.41 399.01 139.41 576.01"/><polygon class="cls-1" points="444.35 576.01 463.35 576.01 463.35 386.01 444.35 399.01 444.35 576.01"/><polygon class="cls-1" points="333.46 576.01 352.46 576.01 352.46 386.01 333.46 399.01 333.46 576.01"/><polygon class="cls-1" points="250.29 576.01 269.29 576.01 269.29 386.01 250.29 399.01 250.29 576.01"/><polygon class="cls-1" points="499.79 575.68 518.79 575.68 518.79 385.68 499.79 398.68 499.79 575.68"/><polygon class="cls-1" points="388.91 576.01 407.91 576.01 407.91 386.01 388.91 399.01 388.91 576.01"/><polygon class="cls-1" points="194.85 576.01 213.85 576.01 213.85 386.01 194.85 399.01 194.85 576.01"/><polygon class="cls-1" points="28.52 575.68 47.52 575.68 47.52 385.68 28.52 398.68 28.52 575.68"/><path class="cls-5" d="M61.74,571.17l2.12-311.57c35.03-44.14,109.18-74.58,195-74.58s159.27,30.16,194.5,73.96v312.19"/><text class="cls-2" transform="translate(201.87 227.57) rotate(-9.07) scale(.98 1)"><tspan x="0" y="0">G</tspan></text><text class="cls-2" transform="translate(214.88 225.52) rotate(-6.57) scale(.98 1)"><tspan x="0" y="0">a</tspan></text><text class="cls-2" transform="translate(225.42 224.32) rotate(-4.69) scale(.98 1)"><tspan x="0" y="0">r</tspan></text><text class="cls-2" transform="translate(232.94 223.67) rotate(-2.9) scale(.98 1)"><tspan x="0" y="0">d</tspan></text><text class="cls-2" transform="translate(243.82 223.12) rotate(-.88) scale(.98 1)"><tspan x="0" y="0">e</tspan></text><text class="cls-2" transform="translate(253.51 222.96) rotate(1.08) scale(.98 1)"><tspan x="0" y="0">n</tspan></text><text class="cls-2" transform="translate(264.21 223.2) rotate(2.71) scale(.98 1)"><tspan x="0" y="0"> </tspan></text><text class="cls-2" transform="translate(270.13 223.45) rotate(4.31) scale(.98 1)"><tspan x="0" y="0">P</tspan></text><text class="cls-2" transform="translate(279.33 224.12) rotate(6.25) scale(.98 1)"><tspan x="0" y="0">a</tspan></text><text class="cls-2" transform="translate(289.84 225.28) rotate(8.16) scale(.98 1)"><tspan x="0" y="0">r</tspan></text><text class="cls-2" transform="translate(297.52 226.38) rotate(9.73) scale(.98 1)"><tspan x="0" y="0">t</tspan></text><text class="cls-2" transform="translate(304.62 227.61) rotate(10.99) scale(.98 1)"><tspan x="0" y="0">i</tspan></text><text class="cls-2" transform="translate(309.19 228.45) rotate(12.55) scale(.98 1)"><tspan x="0" y="0">e</tspan></text><rect class="cls-5" x="195.36" y="198.01" width="128" height="44"/><line class="cls-5" x1="211.61" y1="188.17" x2="211.61" y2="198.51"/><line class="cls-5" x1="306.61" y1="188.17" x2="306.61" y2="198.51"/><path class="cls-1" d="M112.36,576.01s-4.95-30.78-29.83-24.32c0,0,20.49-10.69,35.14,9.32,0,0,3.22-21.08-24.29-41.08,0,0,33.94,12.24,36.08,37.92,0,0-1.69-38.59,15.59-46.83,0,0-9.87,31.77-4.52,50,0,0,6.07-22.86,39.3-15.36,0,0-25.72,6.43-33.23,26.79,0,0,8.93-9.65,20.01-12.15,0,0-13.93,10-11.43,15.72h-42.82Z"/><path class="cls-1" d="M372.36,576.01s-19-24-40-22c0,0,24-13,47,7,0,0,7-21.07-41-26,0,0,34-12,59,6,0,0,8-16,26-20,0,0-14,20-14,32,0,0,19-19,35-15,0,0-26.56,17.88-25.28,30.44,0,0,10.28-7.44,16.28-8.44,0,0-11.07,10-11.53,16h-51.47Z"/><polygon class="cls-1" points="518.58 691.17 .58 691.17 .5 594.57 519 594.57 518.58 691.17"/><rect class="cls-3" x=".5" y="637.57" width="518.5" height="13"/><rect class="cls-1" x=".58" y="571.17" width="518" height="23.15"/></svg>