<svg width="390" height="689" viewBox="0 0 390 689" fill="none" xmlns="http://www.w3.org/2000/svg">
<g clip-path="url(#clip0_662_406)">
<path d="M397 184H-5V591H397V184Z" fill="#4669AA" stroke="black" stroke-miterlimit="10"/>
<path d="M19.5 591.16H0.5V401.16L19.5 414.16V591.16Z" fill="#F8E8DB" stroke="#1D1D1B" stroke-miterlimit="10"/>
<path d="M125.21 591.16H106.21V401.16L125.21 414.16V591.16Z" fill="#F8E8DB" stroke="#1D1D1B" stroke-miterlimit="10"/>
<path d="M230.93 591.16H211.93V401.16L230.93 414.16V591.16Z" fill="#F8E8DB" stroke="#1D1D1B" stroke-miterlimit="10"/>
<path d="M363.07 591.16H344.07V401.16L363.07 414.16V591.16Z" fill="#F8E8DB" stroke="#1D1D1B" stroke-miterlimit="10"/>
<path d="M257.36 591.16H238.36V401.16L257.36 414.16V591.16Z" fill="#F8E8DB" stroke="#1D1D1B" stroke-miterlimit="10"/>
<path d="M45.9302 591.16H26.9302V401.16L45.9302 414.16V591.16Z" fill="#F8E8DB" stroke="#1D1D1B" stroke-miterlimit="10"/>
<path d="M53.3599 591.16H72.3599V380.16L53.3599 393.16V591.16Z" fill="#F8E8DB" stroke="#1D1D1B" stroke-miterlimit="10"/>
<path d="M159.07 591.16H178.07V380.16L159.07 393.16V591.16Z" fill="#F8E8DB" stroke="#1D1D1B" stroke-miterlimit="10"/>
<path d="M291.21 591.16H310.21V380.16L291.21 393.16V591.16Z" fill="#F8E8DB" stroke="#1D1D1B" stroke-miterlimit="10"/>
<path d="M79.79 591.16H98.79V401.16L79.79 414.16V591.16Z" fill="#F8E8DB" stroke="#1D1D1B" stroke-miterlimit="10"/>
<path d="M370.5 591.16H389.5V401.16L370.5 414.16V591.16Z" fill="#F8E8DB" stroke="#1D1D1B" stroke-miterlimit="10"/>
<path d="M264.79 591.16H283.79V401.16L264.79 414.16V591.16Z" fill="#F8E8DB" stroke="#1D1D1B" stroke-miterlimit="10"/>
<path d="M185.5 591.16H204.5V401.16L185.5 414.16V591.16Z" fill="#F8E8DB" stroke="#1D1D1B" stroke-miterlimit="10"/>
<path d="M317.64 591.16H336.64V401.16L317.64 414.16V591.16Z" fill="#F8E8DB" stroke="#1D1D1B" stroke-miterlimit="10"/>
<path d="M132.64 591.16H151.64V401.16L132.64 414.16V591.16Z" fill="#F8E8DB" stroke="#1D1D1B" stroke-miterlimit="10"/>
<path d="M0 274.75C35.03 230.61 109.18 200.17 195 200.17C280.82 200.17 354.27 230.33 389.5 274.13" stroke="#F8E8DB" stroke-miterlimit="10"/>
<path d="M146.022 242.658C145.842 242.686 145.685 242.655 145.55 242.565C145.415 242.474 145.271 242.324 145.118 242.116C145.013 241.965 144.886 241.748 144.737 241.467C144.595 241.177 144.447 240.804 144.294 240.347C144.141 239.89 144 239.335 143.872 238.682L144.27 238.691C144.062 239.55 143.802 240.233 143.49 240.74C143.186 241.246 142.845 241.621 142.467 241.866C142.096 242.102 141.707 242.252 141.3 242.317C140.799 242.397 140.337 242.362 139.912 242.214C139.487 242.065 139.131 241.793 138.844 241.398C138.556 241.002 138.36 240.476 138.255 239.82C138.164 239.249 138.169 238.678 138.27 238.109C138.38 237.538 138.566 236.995 138.828 236.48C139.09 235.957 139.411 235.485 139.793 235.063C140.175 234.641 140.597 234.293 141.058 234.019C141.527 233.743 142.012 233.566 142.513 233.486C142.794 233.441 143.028 233.448 143.214 233.506C143.398 233.557 143.541 233.646 143.642 233.775C143.742 233.903 143.806 234.053 143.834 234.225C143.871 234.46 143.869 234.673 143.827 234.864C143.794 235.054 143.726 235.209 143.625 235.329C143.524 235.45 143.403 235.521 143.262 235.544C143.153 235.561 143.081 235.536 143.046 235.47C143.018 235.394 143 235.305 142.991 235.202C142.991 235.098 142.982 234.995 142.966 234.893C142.958 234.79 142.916 234.709 142.843 234.648C142.777 234.586 142.662 234.569 142.497 234.595C142.13 234.654 141.776 234.798 141.436 235.029C141.095 235.252 140.779 235.539 140.491 235.89C140.21 236.239 139.97 236.622 139.772 237.039C139.574 237.456 139.434 237.887 139.353 238.333C139.272 238.779 139.264 239.209 139.33 239.624C139.433 240.265 139.65 240.724 139.983 240.999C140.316 241.275 140.705 241.377 141.151 241.306C141.542 241.244 141.885 241.085 142.181 240.829C142.477 240.573 142.735 240.231 142.956 239.803C143.176 239.375 143.367 238.863 143.529 238.268C143.59 238.05 143.677 237.891 143.79 237.793C143.902 237.695 144.06 237.63 144.264 237.597C144.405 237.575 144.518 237.609 144.605 237.699C144.698 237.78 144.759 237.911 144.788 238.091C144.868 238.591 144.964 239.045 145.077 239.452C145.198 239.858 145.332 240.221 145.48 240.543C145.635 240.863 145.799 241.158 145.97 241.427C146.056 241.566 146.127 241.683 146.182 241.778C146.238 241.873 146.274 241.952 146.292 242.013C146.319 242.081 146.338 242.15 146.349 242.221C146.368 242.338 146.347 242.433 146.287 242.507C146.228 242.589 146.139 242.639 146.022 242.658ZM141.812 238.891C141.64 238.918 141.5 238.896 141.392 238.825C141.293 238.753 141.231 238.647 141.209 238.506C141.19 238.389 141.224 238.275 141.311 238.165C141.398 238.055 141.58 237.941 141.858 237.825C142.376 237.606 142.895 237.415 143.415 237.251C143.942 237.087 144.475 236.962 145.015 236.876C145.242 236.84 145.417 236.836 145.542 236.864C145.674 236.883 145.765 236.928 145.817 237C145.875 237.063 145.913 237.149 145.93 237.259C145.949 237.376 145.916 237.498 145.832 237.623C145.754 237.74 145.606 237.816 145.387 237.851C144.707 237.96 144.134 238.091 143.67 238.245C143.213 238.398 142.838 238.538 142.546 238.665C142.252 238.784 142.007 238.86 141.812 238.891Z" fill="#FBF2EB"/>
<path d="M153.427 240.513C153.073 240.554 152.753 240.507 152.467 240.373C152.188 240.238 151.961 240.029 151.785 239.746C151.608 239.463 151.497 239.121 151.451 238.72C151.408 238.343 151.423 237.954 151.496 237.555C151.57 237.156 151.693 236.771 151.866 236.4C152.038 236.03 152.255 235.694 152.515 235.393C152.783 235.091 153.085 234.845 153.422 234.655C153.758 234.457 154.127 234.334 154.528 234.288C154.709 234.267 154.864 234.297 154.993 234.378C155.122 234.459 155.197 234.594 155.219 234.783C155.23 234.877 155.208 234.963 155.153 235.041C155.105 235.111 155.023 235.16 154.907 235.189C154.364 235.323 153.903 235.572 153.522 235.935C153.149 236.296 152.874 236.715 152.698 237.189C152.521 237.664 152.461 238.145 152.517 238.633C152.544 238.861 152.587 239.068 152.648 239.252C152.709 239.428 152.822 239.654 152.99 239.93L152.282 239.186C152.484 239.347 152.647 239.447 152.771 239.489C152.904 239.529 153.076 239.537 153.288 239.513C153.792 239.455 154.206 239.104 154.53 238.461C154.863 237.817 155.054 236.914 155.103 235.752C155.118 235.599 155.159 235.479 155.229 235.391C155.298 235.296 155.399 235.24 155.533 235.225C155.722 235.203 155.892 235.259 156.042 235.393C156.193 235.519 156.297 235.699 156.356 235.931C156.479 236.379 156.601 236.78 156.721 237.133C156.848 237.477 157.009 237.801 157.204 238.105C157.397 238.402 157.648 238.712 157.957 239.035C158.037 239.106 158.086 239.192 158.106 239.293C158.126 239.394 158.122 239.498 158.094 239.605C158.073 239.703 158.027 239.788 157.956 239.86C157.892 239.931 157.81 239.973 157.707 239.985C157.597 239.997 157.504 239.984 157.428 239.945C157.351 239.906 157.278 239.855 157.207 239.791C157.033 239.596 156.867 239.404 156.71 239.215C156.552 239.018 156.402 238.792 156.261 238.537C156.119 238.274 155.988 237.963 155.866 237.602C155.744 237.233 155.638 236.795 155.548 236.287L155.936 236.231C155.909 236.967 155.823 237.603 155.677 238.138C155.53 238.665 155.337 239.098 155.097 239.436C154.856 239.767 154.59 240.021 154.3 240.198C154.017 240.374 153.726 240.479 153.427 240.513Z" fill="#FBF2EB"/>
<path d="M163.431 239.46C163.312 239.469 163.207 239.442 163.114 239.378C163.021 239.314 162.946 239.217 162.887 239.087C162.829 238.957 162.793 238.809 162.779 238.643C162.737 238.13 162.688 237.625 162.631 237.129C162.575 236.633 162.506 236.178 162.424 235.764C162.35 235.349 162.263 235.01 162.162 234.748C162.1 234.571 162.053 234.432 162.02 234.331C161.996 234.23 161.98 234.128 161.972 234.025C161.96 233.883 161.986 233.766 162.05 233.673C162.121 233.572 162.236 233.515 162.393 233.502C162.536 233.49 162.667 233.547 162.789 233.672C162.918 233.788 163.035 234.005 163.14 234.322C163.245 234.632 163.337 235.069 163.415 235.635C163.493 236.201 163.56 236.918 163.615 237.788L163.208 237.475C163.201 236.705 163.27 236.052 163.417 235.515C163.571 234.97 163.769 234.529 164.011 234.191C164.262 233.853 164.535 233.6 164.831 233.433C165.127 233.265 165.425 233.169 165.725 233.145C165.923 233.129 166.061 233.165 166.14 233.254C166.226 233.342 166.275 233.453 166.286 233.588C166.295 233.698 166.268 233.808 166.206 233.916C166.143 234.017 166.026 234.098 165.856 234.159C165.454 234.288 165.128 234.485 164.88 234.752C164.631 235.011 164.435 235.329 164.291 235.706C164.154 236.075 164.057 236.492 164 236.958C163.951 237.422 163.928 237.925 163.933 238.465C163.938 238.719 163.922 238.919 163.887 239.065C163.858 239.202 163.807 239.298 163.732 239.352C163.657 239.413 163.557 239.449 163.431 239.46Z" fill="#FBF2EB"/>
<path d="M172.301 238.764C171.929 238.783 171.58 238.709 171.255 238.543C170.937 238.377 170.655 238.142 170.41 237.837C170.172 237.532 169.98 237.177 169.833 236.772C169.685 236.367 169.6 235.935 169.577 235.476C169.55 234.946 169.633 234.478 169.827 234.072C170.028 233.665 170.321 233.341 170.705 233.1C171.09 232.858 171.539 232.728 172.053 232.71C172.449 232.69 172.792 232.728 173.082 232.825C173.372 232.913 173.597 233.048 173.757 233.231C173.925 233.412 174.015 233.626 174.027 233.871C174.032 233.974 174.009 234.058 173.957 234.124C173.904 234.183 173.842 234.214 173.771 234.217C173.668 234.222 173.58 234.199 173.506 234.147C173.432 234.096 173.346 234.036 173.247 233.97C173.156 233.895 173.03 233.834 172.869 233.787C172.708 233.74 172.493 233.723 172.224 233.736C171.687 233.764 171.282 233.927 171.012 234.226C170.742 234.525 170.619 234.924 170.645 235.422C170.667 235.857 170.754 236.253 170.907 236.61C171.068 236.967 171.26 237.247 171.485 237.449C171.717 237.652 171.952 237.747 172.189 237.735C172.608 237.714 172.962 237.41 173.249 236.825C173.544 236.231 173.759 235.379 173.893 234.27C174.027 233.153 174.054 231.808 173.974 230.234C173.961 229.973 173.995 229.789 174.077 229.682C174.166 229.574 174.282 229.517 174.425 229.509C174.615 229.5 174.766 229.587 174.878 229.772C174.99 229.949 175.051 230.215 175.061 230.571C175.083 231.157 175.086 231.68 175.07 232.141C175.061 232.594 175.048 233.038 175.03 233.475C175.02 233.904 175.028 234.375 175.054 234.89C175.08 235.396 175.133 235.813 175.213 236.142C175.301 236.471 175.398 236.736 175.503 236.937C175.616 237.137 175.719 237.298 175.813 237.42C175.914 237.542 175.999 237.653 176.068 237.752C176.144 237.852 176.185 237.965 176.192 238.091C176.198 238.218 176.157 238.335 176.067 238.442C175.985 238.542 175.853 238.596 175.671 238.605C175.489 238.614 175.302 238.529 175.11 238.348C174.927 238.167 174.759 237.914 174.608 237.588C174.465 237.263 174.347 236.892 174.254 236.476C174.169 236.052 174.123 235.607 174.115 235.139L174.653 234.957C174.54 235.851 174.363 236.578 174.121 237.137C173.888 237.688 173.611 238.095 173.291 238.357C172.979 238.611 172.649 238.746 172.301 238.764Z" fill="#FBF2EB"/>
<path d="M183.193 238.349C182.591 238.358 182.098 238.255 181.715 238.039C181.339 237.815 181.057 237.511 180.869 237.126C180.689 236.732 180.595 236.282 180.587 235.775C180.581 235.372 180.646 234.967 180.782 234.561C180.926 234.147 181.134 233.771 181.406 233.434C181.678 233.09 182.007 232.811 182.392 232.599C182.777 232.388 183.21 232.278 183.693 232.27C184.066 232.265 184.391 232.327 184.671 232.457C184.95 232.588 185.167 232.786 185.321 233.053C185.484 233.312 185.568 233.644 185.574 234.047C185.581 234.475 185.456 234.841 185.199 235.146C184.95 235.443 184.605 235.674 184.164 235.839C183.723 236.005 183.225 236.091 182.671 236.1C182.196 236.107 181.862 236.049 181.67 235.925C181.478 235.793 181.381 235.648 181.379 235.49C181.377 235.395 181.4 235.327 181.447 235.287C181.494 235.239 181.572 235.214 181.683 235.212C181.77 235.211 181.878 235.225 182.005 235.255C182.14 235.276 182.33 235.285 182.575 235.282C182.971 235.276 183.315 235.223 183.607 235.123C183.906 235.016 184.141 234.869 184.313 234.685C184.484 234.5 184.568 234.289 184.564 234.051C184.56 233.782 184.49 233.581 184.353 233.448C184.216 233.316 183.994 233.252 183.685 233.257C183.376 233.261 183.092 233.337 182.833 233.484C182.582 233.63 182.363 233.827 182.177 234.076C181.998 234.324 181.86 234.607 181.762 234.926C181.664 235.236 181.617 235.562 181.623 235.902C181.627 236.187 181.678 236.444 181.777 236.672C181.875 236.892 182.033 237.072 182.249 237.211C182.465 237.343 182.755 237.406 183.119 237.4C183.546 237.393 183.902 237.336 184.185 237.229C184.477 237.122 184.717 237.003 184.905 236.873C185.093 236.736 185.249 236.619 185.375 236.522C185.508 236.417 185.63 236.363 185.74 236.362C185.851 236.36 185.927 236.39 185.968 236.453C186.008 236.516 186.03 236.619 186.032 236.761C186.034 236.919 185.958 237.091 185.802 237.276C185.654 237.452 185.447 237.622 185.18 237.784C184.913 237.947 184.61 238.082 184.272 238.19C183.932 238.29 183.573 238.343 183.193 238.349Z" fill="#FBF2EB"/>
<path d="M195.953 238.346C195.715 238.341 195.508 238.23 195.33 238.013C195.152 237.788 195.016 237.429 194.922 236.936C194.836 236.435 194.801 235.785 194.816 234.985C194.823 234.605 194.821 234.3 194.81 234.07C194.798 233.84 194.774 233.658 194.737 233.522C194.708 233.387 194.662 233.279 194.6 233.199C194.539 233.119 194.461 233.034 194.368 232.945C194.526 232.94 194.66 232.963 194.77 233.012C194.888 233.054 194.974 233.135 195.027 233.255C195.08 233.367 195.109 233.518 195.114 233.708C195.006 233.539 194.913 233.427 194.835 233.37C194.765 233.313 194.674 233.284 194.563 233.282C194.405 233.279 194.221 233.378 194.011 233.58C193.801 233.774 193.582 234.051 193.354 234.411C193.125 234.771 192.903 235.203 192.688 235.706C192.473 236.201 192.28 236.748 192.11 237.346C192.025 237.693 191.929 237.933 191.824 238.066C191.718 238.198 191.578 238.263 191.404 238.26C191.111 238.254 190.893 238.072 190.749 237.713C190.605 237.354 190.539 236.897 190.549 236.343C190.557 235.939 190.579 235.587 190.616 235.286C190.662 234.986 190.707 234.706 190.751 234.445C190.804 234.185 190.848 233.916 190.885 233.64C190.93 233.364 190.956 233.047 190.962 232.691C190.965 232.54 191.003 232.426 191.076 232.348C191.149 232.263 191.256 232.221 191.399 232.224C191.581 232.227 191.718 232.297 191.811 232.434C191.911 232.562 191.959 232.777 191.953 233.078C191.948 233.339 191.92 233.592 191.868 233.837C191.823 234.081 191.775 234.346 191.722 234.63C191.669 234.914 191.623 235.246 191.584 235.625C191.546 235.997 191.533 236.436 191.548 236.944L191.335 236.88C191.623 235.864 191.948 235.011 192.31 234.32C192.679 233.63 193.062 233.111 193.456 232.762C193.859 232.413 194.25 232.242 194.63 232.249C195.05 232.257 195.36 232.429 195.559 232.766C195.767 233.102 195.865 233.548 195.855 234.102C195.843 234.72 195.837 235.25 195.837 235.694C195.836 236.137 195.869 236.502 195.935 236.789C196.001 237.075 196.119 237.295 196.291 237.449C196.369 237.514 196.423 237.586 196.453 237.666C196.483 237.738 196.497 237.825 196.496 237.928C196.494 238.031 196.448 238.129 196.359 238.222C196.278 238.308 196.143 238.349 195.953 238.346Z" fill="#FBF2EB"/>
<path d="M208.297 238.871C208.139 238.859 208.01 238.778 207.91 238.628C207.81 238.477 207.772 238.248 207.795 237.94C207.834 237.427 207.833 236.958 207.794 236.534C207.754 236.11 207.701 235.709 207.634 235.331C207.575 234.953 207.52 234.587 207.467 234.234C207.423 233.873 207.414 233.507 207.442 233.136C207.485 232.568 207.621 232.078 207.851 231.666C208.081 231.246 208.414 230.934 208.851 230.729C209.288 230.515 209.838 230.434 210.501 230.484C211.015 230.522 211.473 230.664 211.875 230.909C212.285 231.154 212.602 231.488 212.824 231.91C213.047 232.324 213.137 232.819 213.093 233.395C213.065 233.774 212.954 234.135 212.762 234.478C212.569 234.821 212.316 235.12 212.003 235.374C211.69 235.628 211.326 235.823 210.911 235.959C210.504 236.087 210.064 236.133 209.59 236.098C209.298 236.076 209.04 236.016 208.817 235.92C208.594 235.824 208.42 235.704 208.296 235.559C208.172 235.415 208.115 235.272 208.126 235.13C208.135 235.011 208.173 234.923 208.241 234.864C208.317 234.806 208.399 234.781 208.485 234.787C208.596 234.796 208.693 234.823 208.777 234.869C208.862 234.907 208.966 234.951 209.089 235C209.221 235.041 209.397 235.07 209.618 235.087C210.069 235.121 210.47 235.06 210.823 234.904C211.177 234.748 211.459 234.527 211.672 234.241C211.892 233.956 212.014 233.648 212.039 233.316C212.068 232.937 212.008 232.619 211.861 232.361C211.721 232.105 211.522 231.907 211.262 231.768C211.003 231.622 210.724 231.537 210.424 231.514C209.824 231.469 209.362 231.593 209.038 231.886C208.722 232.18 208.541 232.623 208.497 233.216C208.47 233.571 208.479 233.929 208.523 234.29C208.568 234.643 208.623 235.016 208.689 235.41C208.754 235.804 208.805 236.241 208.84 236.72C208.876 237.191 208.871 237.727 208.826 238.327C208.813 238.501 208.763 238.64 208.676 238.745C208.597 238.842 208.47 238.884 208.297 238.871Z" fill="#FBF2EB"/>
<path d="M217.842 239.649C217.488 239.611 217.186 239.494 216.937 239.299C216.695 239.105 216.52 238.851 216.411 238.536C216.302 238.222 216.269 237.864 216.313 237.462C216.355 237.084 216.456 236.709 216.616 236.336C216.776 235.963 216.982 235.615 217.232 235.292C217.483 234.969 217.768 234.69 218.089 234.454C218.417 234.219 218.767 234.046 219.137 233.935C219.509 233.817 219.895 233.779 220.297 233.823C220.478 233.843 220.622 233.907 220.73 234.014C220.838 234.122 220.881 234.27 220.861 234.459C220.85 234.553 220.81 234.632 220.739 234.696C220.677 234.753 220.586 234.783 220.466 234.786C219.908 234.797 219.402 234.936 218.95 235.206C218.507 235.476 218.146 235.823 217.869 236.246C217.591 236.67 217.426 237.126 217.372 237.614C217.347 237.842 217.344 238.053 217.363 238.246C217.382 238.432 217.443 238.677 217.545 238.983L217.02 238.101C217.181 238.302 217.318 238.437 217.43 238.505C217.55 238.574 217.716 238.62 217.929 238.643C218.433 238.698 218.914 238.448 219.373 237.893C219.84 237.339 220.227 236.501 220.533 235.379C220.581 235.233 220.648 235.125 220.736 235.055C220.824 234.977 220.935 234.945 221.069 234.96C221.258 234.98 221.411 235.073 221.528 235.237C221.647 235.393 221.709 235.591 221.714 235.831C221.735 236.295 221.765 236.713 221.804 237.084C221.852 237.447 221.937 237.799 222.059 238.139C222.182 238.471 222.358 238.829 222.587 239.213C222.649 239.299 222.678 239.394 222.675 239.497C222.672 239.601 222.645 239.701 222.594 239.799C222.552 239.89 222.489 239.963 222.403 240.017C222.325 240.073 222.235 240.095 222.133 240.083C222.023 240.071 221.935 240.038 221.869 239.983C221.803 239.928 221.743 239.861 221.688 239.784C221.561 239.555 221.443 239.331 221.331 239.111C221.221 238.884 221.125 238.631 221.044 238.351C220.964 238.063 220.905 237.73 220.867 237.351C220.829 236.965 220.823 236.514 220.847 235.999L221.238 236.03C221.049 236.742 220.824 237.343 220.563 237.832C220.303 238.313 220.019 238.693 219.709 238.969C219.401 239.238 219.086 239.427 218.763 239.535C218.448 239.644 218.142 239.682 217.842 239.649Z" fill="#FBF2EB"/>
<path d="M227.806 240.836C227.688 240.819 227.591 240.769 227.515 240.686C227.439 240.603 227.387 240.492 227.359 240.352C227.331 240.212 227.329 240.059 227.353 239.895C227.426 239.385 227.49 238.882 227.545 238.386C227.6 237.89 227.634 237.431 227.647 237.009C227.667 236.588 227.657 236.238 227.617 235.96C227.596 235.773 227.581 235.627 227.572 235.522C227.571 235.418 227.577 235.315 227.592 235.213C227.612 235.072 227.664 234.963 227.747 234.887C227.839 234.804 227.963 234.774 228.12 234.796C228.261 234.817 228.377 234.901 228.467 235.05C228.567 235.193 228.633 235.43 228.665 235.763C228.699 236.088 228.691 236.534 228.641 237.103C228.591 237.672 228.497 238.387 228.358 239.247L228.03 238.852C228.194 238.099 228.407 237.478 228.67 236.987C228.941 236.49 229.232 236.104 229.544 235.829C229.863 235.554 230.186 235.369 230.512 235.271C230.838 235.174 231.15 235.147 231.448 235.19C231.644 235.218 231.77 235.284 231.827 235.388C231.892 235.493 231.915 235.613 231.896 235.746C231.88 235.856 231.83 235.956 231.745 236.048C231.66 236.132 231.529 236.185 231.35 236.208C230.929 236.243 230.567 236.363 230.266 236.568C229.966 236.765 229.703 237.032 229.479 237.368C229.264 237.697 229.077 238.082 228.917 238.523C228.766 238.965 228.633 239.45 228.517 239.978C228.465 240.226 228.406 240.418 228.339 240.552C228.28 240.68 228.208 240.762 228.123 240.797C228.037 240.841 227.931 240.854 227.806 240.836Z" fill="#FBF2EB"/>
<path d="M236.911 242.242C236.31 242.139 235.854 241.913 235.545 241.562C235.235 241.212 235.043 240.761 234.969 240.21C234.903 239.66 234.929 239.038 235.048 238.343C235.121 237.922 235.205 237.547 235.302 237.218C235.406 236.89 235.512 236.579 235.618 236.284C235.725 235.989 235.82 235.692 235.904 235.392C236.006 235.032 236.08 234.74 236.127 234.515C236.182 234.283 236.235 234.071 236.284 233.879C236.318 233.772 236.374 233.681 236.451 233.606C236.528 233.531 236.641 233.506 236.789 233.532C237.039 233.574 237.178 233.751 237.205 234.061C237.233 234.363 237.166 234.805 237.001 235.388C236.909 235.693 236.818 235.963 236.73 236.197C236.65 236.432 236.57 236.664 236.49 236.891C236.42 237.112 236.348 237.349 236.272 237.601C236.206 237.847 236.144 238.138 236.087 238.473C235.98 239.098 235.949 239.603 235.996 239.988C236.042 240.374 236.161 240.663 236.353 240.857C236.545 241.051 236.801 241.175 237.121 241.23C237.316 241.263 237.467 241.269 237.576 241.248C237.684 241.226 237.776 241.205 237.851 241.186C237.928 241.159 238.017 241.155 238.119 241.172C238.228 241.191 238.308 241.241 238.358 241.321C238.409 241.402 238.424 241.501 238.404 241.619C238.366 241.837 238.219 242.017 237.962 242.157C237.706 242.29 237.356 242.319 236.911 242.242ZM236.273 237.457C236.054 237.515 235.893 237.496 235.789 237.398C235.693 237.301 235.658 237.178 235.683 237.03C235.711 236.866 235.775 236.728 235.875 236.617C235.982 236.507 236.206 236.42 236.546 236.358C236.845 236.297 237.176 236.266 237.538 236.263C237.902 236.253 238.235 236.274 238.54 236.327C238.766 236.365 238.929 236.446 239.029 236.567C239.13 236.681 239.166 236.82 239.138 236.984C239.116 237.116 239.06 237.207 238.971 237.256C238.882 237.305 238.758 237.324 238.6 237.313C238.268 237.28 237.969 237.265 237.703 237.268C237.446 237.272 237.201 237.29 236.971 237.323C236.748 237.357 236.515 237.402 236.273 237.457Z" fill="#FBF2EB"/>
<path d="M242.401 243.21C242.269 243.184 242.166 243.132 242.093 243.053C242.019 242.974 241.972 242.864 241.951 242.723C241.938 242.583 241.949 242.424 241.983 242.245C242.101 241.639 242.201 241.122 242.284 240.694C242.367 240.267 242.435 239.897 242.488 239.584C242.55 239.265 242.607 238.97 242.66 238.698C242.713 238.426 242.769 238.138 242.828 237.835C242.855 237.695 242.898 237.578 242.956 237.485C243.015 237.391 243.093 237.322 243.19 237.276C243.288 237.23 243.403 237.221 243.535 237.246C243.706 237.279 243.835 237.365 243.921 237.503C244.015 237.642 244.042 237.833 244.003 238.075C243.97 238.246 243.919 238.49 243.849 238.808C243.781 239.117 243.702 239.461 243.612 239.839C243.531 240.218 243.448 240.602 243.365 240.989C243.283 241.368 243.207 241.717 243.138 242.034C243.068 242.351 243.015 242.603 242.979 242.79C242.95 242.937 242.887 243.054 242.79 243.14C242.694 243.218 242.564 243.241 242.401 243.21ZM243.856 236.28C243.568 236.224 243.344 236.092 243.182 235.883C243.021 235.674 242.964 235.449 243.011 235.208C243.052 234.998 243.159 234.842 243.332 234.738C243.515 234.628 243.723 234.596 243.956 234.641C244.15 234.679 244.308 234.758 244.43 234.879C244.56 235.001 244.645 235.142 244.687 235.304C244.729 235.457 244.736 235.612 244.706 235.767C244.677 235.915 244.59 236.051 244.445 236.176C244.309 236.295 244.112 236.33 243.856 236.28Z" fill="#FBF2EB"/>
<path d="M248.468 244.418C247.881 244.287 247.425 244.072 247.103 243.773C246.789 243.468 246.586 243.107 246.492 242.688C246.408 242.264 246.421 241.804 246.531 241.309C246.619 240.915 246.777 240.536 247.003 240.173C247.24 239.804 247.529 239.487 247.872 239.223C248.217 238.95 248.601 238.756 249.024 238.639C249.448 238.523 249.895 238.517 250.367 238.622C250.73 238.703 251.033 238.839 251.274 239.031C251.515 239.222 251.68 239.466 251.768 239.761C251.866 240.051 251.871 240.393 251.784 240.787C251.691 241.204 251.484 241.532 251.163 241.769C250.852 242 250.463 242.144 249.996 242.202C249.529 242.261 249.024 242.23 248.483 242.109C248.019 242.006 247.708 241.872 247.55 241.707C247.394 241.534 247.333 241.37 247.368 241.216C247.388 241.123 247.426 241.062 247.481 241.034C247.538 240.998 247.62 240.992 247.729 241.016C247.814 241.035 247.915 241.074 248.031 241.132C248.158 241.185 248.341 241.238 248.58 241.291C248.967 241.377 249.313 241.405 249.62 241.376C249.936 241.341 250.199 241.254 250.409 241.114C250.618 240.974 250.749 240.788 250.801 240.556C250.859 240.293 250.837 240.081 250.735 239.921C250.633 239.76 250.431 239.646 250.13 239.579C249.828 239.512 249.534 239.52 249.248 239.602C248.97 239.686 248.711 239.827 248.472 240.026C248.241 240.226 248.041 240.469 247.872 240.756C247.704 241.035 247.583 241.341 247.509 241.673C247.447 241.951 247.438 242.213 247.481 242.458C247.525 242.695 247.636 242.906 247.814 243.092C247.994 243.27 248.261 243.398 248.617 243.478C249.034 243.57 249.393 243.598 249.694 243.559C250.002 243.522 250.263 243.463 250.476 243.38C250.691 243.29 250.87 243.212 251.015 243.147C251.169 243.076 251.3 243.052 251.408 243.077C251.516 243.101 251.583 243.148 251.607 243.218C251.632 243.289 251.629 243.394 251.598 243.533C251.564 243.687 251.45 243.836 251.255 243.98C251.071 244.117 250.83 244.234 250.532 244.33C250.235 244.426 249.909 244.487 249.554 244.514C249.201 244.533 248.839 244.501 248.468 244.418Z" fill="#F8E8DB"/>
<path d="M259.5 213.16H131.5V257.16H259.5V213.16Z" stroke="#F8E8DB" stroke-miterlimit="10"/>
<path d="M147.76 203.32V213.66" stroke="#F8E8DB" stroke-miterlimit="10"/>
<path d="M242.76 203.32V213.66" stroke="#F8E8DB" stroke-miterlimit="10"/>
<path d="M44.4999 591.16C44.4999 591.16 39.5499 560.38 14.6699 566.84C14.6699 566.84 35.1599 556.15 49.8099 576.16C49.8099 576.16 53.0299 555.08 25.5199 535.08C25.5199 535.08 59.4599 547.32 61.5999 573C61.5999 573 59.9098 534.41 77.1898 526.17C77.1898 526.17 67.3199 557.94 72.6699 576.17C72.6699 576.17 78.7398 553.31 111.97 560.81C111.97 560.81 86.2499 567.24 78.7399 587.6C78.7399 587.6 87.6699 577.95 98.7499 575.45C98.7499 575.45 84.8198 585.45 87.3198 591.17H44.4999V591.16Z" fill="#F8E8DB" stroke="#1D1D1B" stroke-miterlimit="10"/>
<path d="M304.5 591.16C304.5 591.16 285.5 567.16 264.5 569.16C264.5 569.16 288.5 556.16 311.5 576.16C311.5 576.16 318.5 555.09 270.5 550.16C270.5 550.16 304.5 538.16 329.5 556.16C329.5 556.16 337.5 540.16 355.5 536.16C355.5 536.16 341.5 556.16 341.5 568.16C341.5 568.16 360.5 549.16 376.5 553.16C376.5 553.16 349.94 571.04 351.22 583.6C351.22 583.6 361.5 576.16 367.5 575.16C367.5 575.16 356.43 585.16 355.97 591.16H304.5Z" fill="#F8E8DB" stroke="#1D1D1B" stroke-miterlimit="10"/>
<path d="M1169 590.16H-1556.5V687.66H1169V590.16Z" fill="#F8E8DB" stroke="#1D1D1B" stroke-width="1.01" stroke-miterlimit="10"/>
<path d="M1169 633.16H-1557.5V646.16H1169V633.16Z" fill="#F8E8DB" stroke="#1D1D1B" stroke-miterlimit="10"/>
</g>
<rect y="-4" width="390" height="195" fill="#4669AA"/>
<defs>
<clipPath id="clip0_662_406">
<rect width="2727.5" height="505.17" fill="white" transform="translate(-1558 183)"/>
</clipPath>
</defs>
</svg>
