<svg width="390" height="690" viewBox="0 0 390 690" fill="none" xmlns="http://www.w3.org/2000/svg">
<rect x="-14" y="-38" width="419" height="236" fill="#4669AA"/>
<path d="M390.488 156H-0.511749V569H390.488V156Z" fill="#4669AA"/>
<path d="M340.828 284.281H42.3383V569.841H340.828V284.281Z" fill="#F8E8DB" stroke="#1D1D1B" stroke-miterlimit="10"/>
<path d="M356.418 237.689H33.2582C28.9118 237.689 25.3882 241.365 25.3882 245.9V276.071C25.3882 280.605 28.9118 284.281 33.2582 284.281H356.418C360.765 284.281 364.288 280.605 364.288 276.071V245.9C364.288 241.365 360.765 237.689 356.418 237.689Z" fill="#F8E8DB" stroke="#1D1D1B" stroke-miterlimit="10"/>
<path d="M187.138 284.438L187.138 568.662H196.018L196.018 284.438H187.138Z" fill="#F8E8DB" stroke="#1D1D1B" stroke-miterlimit="10"/>
<path d="M389.898 568.558H0.898254V594.326H389.898V568.558Z" fill="#F8E8DB" stroke="#1D1D1B" stroke-miterlimit="10"/>
<path d="M132.858 267.015C134.588 267.13 136.318 267.234 138.048 267.349C137.968 268.58 137.898 269.801 137.828 271.032C135.018 270.854 132.208 270.667 129.408 270.489C129.138 263.948 128.858 257.407 128.588 250.866L132.178 250.709C132.408 256.145 132.638 261.59 132.858 267.026V267.015Z" fill="#1D1D1B"/>
<path d="M151.428 270.041C150.258 270.333 149.098 270.625 147.938 270.928C147.408 268.799 146.868 266.692 146.338 264.564L143.778 264.793C143.538 266.765 143.298 268.737 143.058 270.709C141.868 270.562 140.678 270.406 139.488 270.26C140.248 263.886 141.028 257.511 141.788 251.127C143.428 250.981 145.058 250.824 146.698 250.688C148.278 257.136 149.868 263.583 151.428 270.041ZM144.478 257.198L143.668 261.257L145.718 261.121L144.478 257.198Z" fill="#1D1D1B"/>
<path d="M163.688 271.293C161.208 271.293 159.898 269.352 159.238 267.485C158.658 265.805 158.438 263.865 158.438 261.893C158.438 258.45 159.078 255.79 160.178 253.902C161.298 251.961 162.988 250.709 165.168 250.709C168.048 250.709 170.018 253.589 170.828 255.091L167.708 256.937C167.588 256.718 167.378 256.238 166.638 255.435C166.028 254.799 165.318 254.465 165.098 254.465C164.698 254.496 164.028 254.747 163.338 255.842C162.638 256.948 162.038 258.982 162.038 261.893C162.038 263.573 162.258 265.2 162.648 266.275C163.058 267.349 163.428 267.579 163.588 267.62C163.748 267.568 164.298 267.349 164.788 266.953C165.518 266.337 165.738 265.993 165.898 265.805C166.888 266.525 167.878 267.245 168.858 267.986C168.068 269.081 166.148 271.303 163.698 271.303L163.688 271.293Z" fill="#1D1D1B"/>
<path d="M185.518 255.425C185.958 256.864 186.128 258.408 186.128 259.9C186.128 263.343 185.418 265.993 183.978 268.257C182.888 269.957 181.248 271.407 178.958 271.407C176.988 271.407 175.068 270.416 173.898 268.601C172.838 266.953 172.288 264.741 172.288 261.914C172.288 261.559 172.288 261.194 172.308 260.818C172.618 254.141 176.308 250.74 179.998 250.74C183.068 250.74 184.778 253.015 185.518 255.435V255.425ZM181.198 254.945C180.858 254.611 180.588 254.475 179.998 254.475C178.708 254.475 176.168 255.581 175.908 260.985C175.888 261.288 175.888 261.58 175.888 261.851C175.888 264.178 176.368 265.68 176.938 266.504C177.558 267.412 178.158 267.641 178.918 267.641C179.448 267.641 180.138 267.297 180.898 266.17C181.918 264.668 182.518 262.54 182.518 259.984C182.518 257.991 182.138 255.863 181.188 254.934L181.198 254.945Z" fill="#1D1D1B"/>
<path d="M191.418 252.149L195.448 259.89L199.688 252.149V252.013C200.828 252.013 201.968 252.013 203.118 252.013H203.288C203.288 258.534 203.288 265.064 203.288 271.585V271.762C202.148 271.762 201.008 271.762 199.858 271.762H199.688C199.688 267.777 199.688 263.802 199.688 259.817C198.808 261.392 197.938 262.978 197.058 264.553C195.968 264.574 194.878 264.584 193.788 264.605C192.998 263.113 192.208 261.622 191.428 260.13V269.853V270.03C190.288 270.03 189.148 270.03 187.998 270.03H187.828C187.828 264.084 187.828 258.137 187.818 252.191V252.013C188.958 252.013 190.108 252.013 191.248 252.013H191.418V252.149Z" fill="#1D1D1B"/>
<path d="M208.688 252.149L212.718 259.89L216.948 252.149V252.013C218.088 252.013 219.238 252.013 220.378 252.013H220.548C220.548 258.534 220.548 265.064 220.548 271.585V271.762C219.408 271.762 218.268 271.762 217.118 271.762H216.948C216.948 267.777 216.948 263.802 216.948 259.817C216.068 261.392 215.198 262.978 214.318 264.553C213.228 264.574 212.138 264.584 211.038 264.605C210.248 263.113 209.468 261.622 208.678 260.13V269.853V270.03C207.538 270.03 206.388 270.03 205.248 270.03H205.078C205.078 264.084 205.078 258.137 205.078 252.191V252.013C206.218 252.013 207.358 252.013 208.508 252.013H208.678V252.149H208.688Z" fill="#1D1D1B"/>
<path d="M230.538 251.982H233.968H234.138V252.253C234.138 254.861 234.018 261.476 233.538 263.781C233.368 264.574 233.088 266.149 232.378 267.652C231.598 269.3 230.178 270.865 227.748 270.865H227.708C226.298 270.854 225.118 270.364 224.308 269.561C223.498 268.757 223.068 267.766 222.808 266.827C222.288 264.95 222.358 263.02 222.328 261.955C222.308 261.465 222.298 260.964 222.298 260.464C222.298 256.833 222.578 252.587 222.888 252.587H222.908C224.048 252.712 225.178 252.848 226.318 252.973C226.298 253.203 225.908 256.812 225.908 260.526C225.908 260.964 225.908 261.403 225.928 261.82C225.988 263.531 225.928 266.024 226.828 266.838C227.028 267.015 227.148 267.109 227.758 267.12C228.068 267.12 228.128 267.088 228.338 266.921C229.238 266.222 229.728 264.167 230.008 262.957C230.228 261.966 230.408 259.097 230.478 256.677C230.538 254.548 230.538 252.67 230.538 252.253V251.992V251.982Z" fill="#1D1D1B"/>
<path d="M246.428 264.48L246.318 251.429L249.908 251.387L250.078 270.594L246.838 270.625C246.838 270.625 246.728 270.719 246.668 270.771C246.618 270.698 246.568 270.635 246.518 270.562L239.408 261.517L239.508 272.096L235.908 272.138L235.748 255.539L239.258 255.508L246.428 264.48Z" fill="#1D1D1B"/>
<path d="M261.018 254.882C259.158 254.934 257.298 254.987 255.438 255.039L255.508 259.483C256.878 259.431 258.238 259.389 259.608 259.337C259.648 260.568 259.688 261.789 259.728 263.02C258.338 263.072 256.948 263.114 255.568 263.166L255.648 268.194C257.408 268.142 259.178 268.1 260.938 268.048C260.968 269.279 261.008 270.51 261.038 271.741C258.088 271.825 255.098 271.898 252.108 271.95C252.008 265.106 251.908 258.262 251.808 251.408C252.788 251.398 253.768 251.377 254.748 251.367C256.818 251.304 258.878 251.252 260.938 251.189C260.968 252.42 261.008 253.651 261.038 254.882H261.018Z" fill="#1D1D1B"/>
<path d="M-4.34175 496.302C-4.34175 496.302 -7.27175 490.95 -14.5918 492.484C-16.2018 492.817 -18.2518 495.54 -16.0518 497.835C-16.0518 497.835 -21.9118 497.074 -26.3018 497.835C-28.7218 498.253 -34.3618 500.892 -30.6918 507.006C-30.6918 507.006 -39.2818 505.201 -42.4118 512.357C-43.7718 515.466 -43.1418 521.528 -36.5518 524.584C-36.5518 524.584 -41.6818 529.164 -29.9618 530.698C-29.9618 530.698 -10.1917 536.811 2.25825 531.46C2.25825 531.46 12.1583 502.822 4.45825 494.789C-1.40175 488.676 -4.33175 496.312 -4.33175 496.312L-4.34175 496.302Z" fill="#F8E8DB" stroke="#1D1D1B" stroke-miterlimit="10"/>
<path d="M22.7583 531.449C22.7583 531.449 42.5283 532.211 43.9983 526.097C43.9983 526.097 46.1983 519.984 36.6783 519.222C36.6783 519.222 40.0483 507.84 33.7483 503.939C31.9583 502.833 28.6183 501.643 24.9583 504.596C24.9583 504.596 27.8883 488.655 19.0983 488.655C19.0983 488.655 14.7083 487.893 13.2383 494.007C13.2383 494.007 11.0383 489.427 5.91825 490.188C5.91825 490.188 -0.671748 491.712 0.788252 500.12C0.788252 500.12 -1.41175 498.597 -5.07175 499.359C-5.07175 499.359 -13.8617 501.654 -9.46175 509.29C-9.46175 509.29 -27.0417 508.529 -17.5217 521.517C-17.5217 521.517 -23.3817 525.336 -16.0617 531.449C-16.0617 531.449 -5.07175 533.932 6.27825 533.838L22.7583 531.449Z" fill="#F8E8DB" stroke="#1D1D1B" stroke-miterlimit="10"/>
<path d="M33.1283 547.807L20.6782 594.409H-15.8517L-27.0118 547.807H-29.1517L-33.5117 531H39.2183L34.5883 547.807H33.1283Z" fill="#F8E8DB" stroke="#1D1D1B" stroke-miterlimit="10"/>
<path d="M-26.5117 548H33.2583" stroke="#1D1D1B" stroke-miterlimit="10"/>
<path d="M361.688 470.252C361.688 470.252 366.108 514.507 379.368 540.327H384.938C384.938 540.327 381.138 507.131 361.688 470.252Z" fill="#F8E8DB" stroke="#1D1D1B" stroke-miterlimit="10"/>
<path d="M417.608 540.358L388.208 540.337H359.038V543.102H360.808C360.808 543.102 358.158 578.145 368.758 585.521C374.058 589.214 376.708 593.815 376.708 593.815H388.128V593.835H399.928C399.928 593.835 402.578 589.224 407.878 585.542C418.488 578.166 415.828 543.123 415.828 543.123H417.598V540.358H417.608Z" fill="#F8E8DB" stroke="#1D1D1B" stroke-miterlimit="10"/>
<path d="M393.498 540.337C393.498 540.337 397.038 479.484 391.728 465.651C391.728 465.651 371.398 510.834 379.358 540.337H393.498Z" fill="#F8E8DB" stroke="#1D1D1B" stroke-miterlimit="10"/>
<path d="M390.708 540.338C390.708 540.338 387.318 495.154 378.478 477.638C378.478 477.638 371.478 519.128 377.628 540.338H390.708Z" fill="#F8E8DB" stroke="#1D1D1B" stroke-miterlimit="10"/>
<path d="M356.378 525.576L361.678 513.62C361.678 513.62 363.448 510.824 366.098 512.671C366.098 512.671 378.468 522.811 380.678 540.327H374.468C374.468 540.327 368.198 527.182 366.098 522.811C365.578 521.726 364.328 519.118 361.678 521.277L356.378 525.576Z" fill="#F8E8DB" stroke="#1D1D1B" stroke-miterlimit="10"/>
<path d="M404.108 463.804C404.108 463.804 406.498 527.422 401.768 540.338H388.198C388.198 540.338 392.618 482.249 404.108 463.804Z" fill="#F8E8DB" stroke="#1D1D1B" stroke-miterlimit="10"/>
<path d="M2726.49 594H-3.51175V689.5H2726.49V594Z" fill="#F8E8DB" stroke="#1D1D1B" stroke-miterlimit="10"/>
<path d="M2726.49 638H-0.511749V651H2726.49V638Z" fill="#F8E8DB" stroke="#1D1D1B" stroke-miterlimit="10"/>
</svg>
