<?xml version="1.0" encoding="UTF-8"?><svg id="Calque_1" xmlns="http://www.w3.org/2000/svg" viewBox="0 0 520.25 692.7"><defs><style>.cls-1,.cls-2{fill:#f8e8db;stroke:#1d1d1b;}.cls-1,.cls-2,.cls-3{stroke-miterlimit:10;}.cls-2{stroke-width:1.08px;}.cls-3{fill:#4669aa;stroke:#000;stroke-width:1.41px;}.cls-4{fill:#1d1d1b;stroke-width:0px;}</style></defs><rect class="cls-3" x="1.54" y=".7" width="518" height="570.8"/><rect class="cls-1" x="111.54" y="299.01" width="298.49" height="273.72"/><rect class="cls-1" x="94.59" y="254.35" width="338.9" height="44.66" rx="7.87" ry="7.87"/><rect class="cls-1" x="124.56" y="430.94" width="272.44" height="8.88" transform="translate(-174.6 696.16) rotate(-90)"/><rect class="cls-2" x=".54" y="571.5" width="519" height="24.7"/><path class="cls-4" d="M202.06,282.46c1.73.11,3.46.21,5.19.32-.08,1.18-.15,2.35-.22,3.53-2.81-.17-5.62-.35-8.42-.52-.27-6.27-.55-12.54-.82-18.81l3.59-.15c.23,5.21.46,10.43.68,15.64Z"/><path class="cls-4" d="M220.63,285.36c-1.17.28-2.33.56-3.49.85-.53-2.04-1.07-4.06-1.6-6.1l-2.56.22c-.24,1.89-.48,3.78-.72,5.67-1.19-.14-2.38-.29-3.57-.43.76-6.11,1.54-12.22,2.3-18.34,1.64-.14,3.27-.29,4.91-.42,1.58,6.18,3.17,12.36,4.73,18.55ZM213.69,273.05l-.81,3.89,2.05-.13-1.24-3.76Z"/><path class="cls-4" d="M232.89,286.56c-2.48,0-3.79-1.86-4.45-3.65-.58-1.61-.8-3.47-.8-5.36,0-3.3.64-5.85,1.74-7.66,1.12-1.86,2.81-3.06,4.99-3.06,2.88,0,4.85,2.76,5.66,4.2l-3.12,1.77c-.12-.21-.33-.67-1.07-1.44-.61-.61-1.32-.93-1.54-.93-.4.03-1.07.27-1.76,1.32-.7,1.06-1.3,3.01-1.3,5.8,0,1.61.22,3.17.61,4.2.41,1.03.78,1.25.94,1.29.16-.05.71-.26,1.2-.64.73-.59.95-.92,1.11-1.1.99.69,1.98,1.38,2.96,2.09-.79,1.05-2.71,3.18-5.16,3.18Z"/><path class="cls-4" d="M254.73,271.35c.44,1.38.61,2.86.61,4.29,0,3.3-.71,5.84-2.15,8.01-1.09,1.63-2.73,3.02-5.02,3.02-1.97,0-3.89-.95-5.06-2.69-1.06-1.58-1.61-3.7-1.61-6.41,0-.34,0-.69.02-1.05.31-6.4,4-9.66,7.69-9.66,3.07,0,4.78,2.18,5.52,4.5ZM250.4,270.89c-.34-.32-.61-.45-1.2-.45-1.29,0-3.83,1.06-4.09,6.24-.02.29-.02.57-.02.83,0,2.23.48,3.67,1.05,4.46.62.87,1.22,1.09,1.98,1.09.53,0,1.22-.33,1.98-1.41,1.02-1.44,1.62-3.48,1.62-5.93,0-1.91-.38-3.95-1.33-4.84Z"/><path class="cls-4" d="M260.62,268.21l4.03,7.42,4.24-7.42v-.13c1.14,0,2.28,0,3.43,0h.17c0,6.25,0,12.51,0,18.76v.17c-1.14,0-2.28,0-3.43,0h-.17c0-3.82,0-7.63,0-11.45-.88,1.51-1.75,3.03-2.63,4.54-1.09.02-2.18.03-3.27.05-.79-1.43-1.58-2.86-2.36-4.29v9.32s0,.17,0,.17c-1.14,0-2.28,0-3.43,0h-.17c0-5.7,0-11.4-.01-17.1v-.17c1.14,0,2.29,0,3.43,0h.17v.13Z"/><path class="cls-4" d="M277.9,268.21l4.03,7.42,4.23-7.42v-.13c1.14,0,2.29,0,3.43,0h.17c0,6.25,0,12.51,0,18.76v.17c-1.14,0-2.28,0-3.43,0h-.17c0-3.82,0-7.63,0-11.45-.88,1.51-1.75,3.03-2.63,4.54-1.09.02-2.18.03-3.28.05-.79-1.43-1.57-2.86-2.36-4.29v9.32s0,.17,0,.17c-1.14,0-2.29,0-3.43,0h-.17c0-5.7,0-11.4,0-17.1v-.17c1.14,0,2.28,0,3.43,0h.17v.13Z"/><path class="cls-4" d="M299.74,268.05h3.43s.17,0,.17,0v.26c0,2.5-.12,8.84-.6,11.05-.17.76-.45,2.27-1.16,3.71-.78,1.58-2.2,3.08-4.63,3.08h-.04c-1.41-.01-2.59-.48-3.4-1.25-.81-.77-1.24-1.72-1.5-2.62-.52-1.8-.45-3.65-.48-4.67-.02-.47-.03-.95-.03-1.43,0-3.48.28-7.55.59-7.55h.02c1.14.12,2.27.25,3.41.37-.02.22-.41,3.68-.41,7.24,0,.42,0,.84.02,1.24.06,1.64,0,4.03.9,4.81.2.17.32.26.93.27.31,0,.37-.03.58-.19.9-.67,1.39-2.64,1.67-3.8.22-.95.4-3.7.47-6.02.06-2.04.06-3.84.06-4.24v-.25Z"/><path class="cls-4" d="M315.63,280.03l-.11-12.51,3.59-.04.17,18.41-3.24.03s-.11.09-.17.14c-.05-.07-.1-.13-.15-.2l-7.11-8.67.1,10.14-3.6.04-.16-15.91,3.51-.03,7.17,8.6Z"/><path class="cls-4" d="M330.22,270.83c-1.86.05-3.72.1-5.58.15l.07,4.26c1.37-.05,2.73-.09,4.1-.14.04,1.18.08,2.35.12,3.53-1.39.05-2.78.09-4.16.14l.08,4.82c1.76-.05,3.53-.09,5.29-.14.03,1.18.07,2.36.1,3.54-2.95.08-5.94.15-8.93.2-.1-6.56-.2-13.12-.3-19.69.98-.01,1.96-.03,2.94-.04,2.07-.06,4.13-.11,6.19-.17.03,1.18.07,2.36.1,3.54Z"/><path class="cls-1" d="M64.86,502.24s-2.93-5.13-10.25-3.66c-1.61.32-3.66,2.93-1.46,5.13,0,0-5.86-.73-10.25,0-2.42.4-8.06,2.93-4.39,8.79,0,0-8.59-1.73-11.72,5.13-1.36,2.98-.73,8.79,5.86,11.72,0,0-5.13,4.39,6.59,5.86,0,0,19.77,5.86,32.22.73,0,0,9.9-27.45,2.2-35.15-5.86-5.86-8.79,1.46-8.79,1.46Z"/><path class="cls-1" d="M91.96,535.93s19.77.73,21.24-5.13c0,0,2.2-5.86-7.32-6.59,0,0,3.37-10.91-2.93-14.65-1.79-1.06-5.13-2.2-8.79.63,0,0,2.93-15.28-5.86-15.28,0,0-4.39-.73-5.86,5.13,0,0-2.2-4.39-7.32-3.66,0,0-6.59,1.46-5.13,9.52,0,0-2.2-1.46-5.86-.73,0,0-8.79,2.2-4.39,9.52,0,0-17.58-.73-8.06,11.72,0,0-5.86,3.66,1.46,9.52,0,0,10.99,2.38,22.34,2.29l16.48-2.29Z"/><polygon class="cls-1" points="102.21 550.58 89.76 595.25 53.23 595.25 42.07 550.58 39.93 550.58 35.57 534.47 108.3 534.47 103.68 550.58 102.21 550.58"/><line class="cls-1" x1="42.07" y1="550.58" x2="101.85" y2="550.58"/><path class="cls-1" d="M430.89,477.27s4.42,42.42,17.68,67.17h5.57s-3.8-31.82-23.25-67.17Z"/><path class="cls-1" d="M486.81,544.47l-29.4-.02h-29.17v2.65h1.77s-2.65,33.59,7.95,40.66c5.3,3.54,7.95,7.95,7.95,7.95h11.42v.02s11.8,0,11.8,0c0,0,2.65-4.42,7.95-7.95,10.61-7.07,7.95-40.66,7.95-40.66h1.77v-2.65Z"/><path class="cls-1" d="M472.48,544.44s22.93-58.33,21.16-66.29c0,0-24.15,31.82-33.73,66.29h12.57Z"/><path class="cls-1" d="M462.71,544.44s3.54-58.33-1.77-71.59c0,0-20.33,43.31-12.37,71.59h14.14Z"/><path class="cls-1" d="M459.91,544.44s-3.39-43.31-12.23-60.1c0,0-7,39.77-.85,60.1h13.08Z"/><path class="cls-1" d="M425.59,530.3l5.3-11.46s1.77-2.68,4.42-.91c0,0,12.37,9.72,14.58,26.51h-6.21s-6.27-12.6-8.37-16.79c-.52-1.04-1.77-3.54-4.42-1.47l-5.3,4.12Z"/><path class="cls-1" d="M468.11,544.44s19.34-64.52,16.69-74.24c0,0-23.26,30.93-24.89,74.24h8.2Z"/><path class="cls-1" d="M473.31,471.09s2.39,60.98-2.34,73.36h-13.57s4.42-55.68,15.91-73.36Z"/><path class="cls-1" d="M468.55,544.44l6.53-10.61s4.42-7.95,7.95-1.77l3.54,7.95s-4.63-5.45-7.07-4.42c-2.09.88-3.54,5.3-5.25,8.84h-5.69Z"/><rect class="cls-1" x=".54" y="594.7" width="519" height="97.5"/><rect class="cls-1" x=".54" y="637.7" width="519" height="13"/></svg>