<svg width="390" height="582" viewBox="0 0 390 582" fill="none" xmlns="http://www.w3.org/2000/svg">
<g clip-path="url(#clip0_548_5447)">
<path d="M398 77H-7V461H398V77Z" fill="#316CAD" stroke="black" stroke-miterlimit="10"/>
<path d="M339.34 188.31H40.85V462.03H339.34V188.31Z" fill="#FBF2EB" stroke="#1D1D1B" stroke-miterlimit="10"/>
<path d="M354.93 143.65H31.77C27.4235 143.65 23.9 147.173 23.9 151.52V180.44C23.9 184.786 27.4235 188.31 31.77 188.31H354.93C359.276 188.31 362.8 184.786 362.8 180.44V151.52C362.8 147.173 359.276 143.65 354.93 143.65Z" fill="#FBF2EB" stroke="#1D1D1B" stroke-miterlimit="10"/>
<path d="M185.65 188.46L185.65 460.9H194.53L194.53 188.46H185.65Z" fill="#FAF2EA" stroke="#1D1D1B" stroke-miterlimit="10"/>
<path d="M388.41 460.8H-0.589996V485.5H388.41V460.8Z" fill="#FBF2EB" stroke="#1D1D1B" stroke-width="0.94" stroke-miterlimit="10"/>
<path d="M131.37 171.76C133.1 171.87 134.83 171.97 136.56 172.08C136.48 173.26 136.41 174.43 136.34 175.61C133.53 175.44 130.72 175.26 127.92 175.09C127.65 168.82 127.37 162.55 127.1 156.28L130.69 156.13C130.92 161.34 131.15 166.56 131.37 171.77V171.76Z" fill="#1D1D1B"/>
<path d="M149.94 174.66C148.77 174.94 147.61 175.22 146.45 175.51C145.92 173.47 145.38 171.45 144.85 169.41L142.29 169.63C142.05 171.52 141.81 173.41 141.57 175.3C140.38 175.16 139.19 175.01 138 174.87C138.76 168.76 139.54 162.65 140.3 156.53C141.94 156.39 143.57 156.24 145.21 156.11C146.79 162.29 148.38 168.47 149.94 174.66ZM142.99 162.35L142.18 166.24L144.23 166.11L142.99 162.35Z" fill="#1D1D1B"/>
<path d="M162.2 175.86C159.72 175.86 158.41 174 157.75 172.21C157.17 170.6 156.95 168.74 156.95 166.85C156.95 163.55 157.59 161 158.69 159.19C159.81 157.33 161.5 156.13 163.68 156.13C166.56 156.13 168.53 158.89 169.34 160.33L166.22 162.1C166.1 161.89 165.89 161.43 165.15 160.66C164.54 160.05 163.83 159.73 163.61 159.73C163.21 159.76 162.54 160 161.85 161.05C161.15 162.11 160.55 164.06 160.55 166.85C160.55 168.46 160.77 170.02 161.16 171.05C161.57 172.08 161.94 172.3 162.1 172.34C162.26 172.29 162.81 172.08 163.3 171.7C164.03 171.11 164.25 170.78 164.41 170.6C165.4 171.29 166.39 171.98 167.37 172.69C166.58 173.74 164.66 175.87 162.21 175.87L162.2 175.86Z" fill="#1D1D1B"/>
<path d="M184.03 160.65C184.47 162.03 184.64 163.51 184.64 164.94C184.64 168.24 183.93 170.78 182.49 172.95C181.4 174.58 179.76 175.97 177.47 175.97C175.5 175.97 173.58 175.02 172.41 173.28C171.35 171.7 170.8 169.58 170.8 166.87C170.8 166.53 170.8 166.18 170.82 165.82C171.13 159.42 174.82 156.16 178.51 156.16C181.58 156.16 183.29 158.34 184.03 160.66V160.65ZM179.71 160.19C179.37 159.87 179.1 159.74 178.51 159.74C177.22 159.74 174.68 160.8 174.42 165.98C174.4 166.27 174.4 166.55 174.4 166.81C174.4 169.04 174.88 170.48 175.45 171.27C176.07 172.14 176.67 172.36 177.43 172.36C177.96 172.36 178.65 172.03 179.41 170.95C180.43 169.51 181.03 167.47 181.03 165.02C181.03 163.11 180.65 161.07 179.7 160.18L179.71 160.19Z" fill="#1D1D1B"/>
<path d="M189.93 157.51L193.96 164.93L198.2 157.51V157.38C199.34 157.38 200.48 157.38 201.63 157.38H201.8C201.8 163.63 201.8 169.89 201.8 176.14V176.31C200.66 176.31 199.52 176.31 198.37 176.31H198.2C198.2 172.49 198.2 168.68 198.2 164.86C197.32 166.37 196.45 167.89 195.57 169.4C194.48 169.42 193.39 169.43 192.3 169.45C191.51 168.02 190.72 166.59 189.94 165.16V174.48V174.65C188.8 174.65 187.66 174.65 186.51 174.65H186.34C186.34 168.95 186.34 163.25 186.33 157.55V157.38C187.47 157.38 188.62 157.38 189.76 157.38H189.93V157.51Z" fill="#1D1D1B"/>
<path d="M207.2 157.51L211.23 164.93L215.46 157.51V157.38C216.6 157.38 217.75 157.38 218.89 157.38H219.06C219.06 163.63 219.06 169.89 219.06 176.14V176.31C217.92 176.31 216.78 176.31 215.63 176.31H215.46C215.46 172.49 215.46 168.68 215.46 164.86C214.58 166.37 213.71 167.89 212.83 169.4C211.74 169.42 210.65 169.43 209.55 169.45C208.76 168.02 207.98 166.59 207.19 165.16V174.48V174.65C206.05 174.65 204.9 174.65 203.76 174.65H203.59C203.59 168.95 203.59 163.25 203.59 157.55V157.38C204.73 157.38 205.87 157.38 207.02 157.38H207.19V157.51H207.2Z" fill="#1D1D1B"/>
<path d="M229.05 157.35H232.48H232.65V157.61C232.65 160.11 232.53 166.45 232.05 168.66C231.88 169.42 231.6 170.93 230.89 172.37C230.11 173.95 228.69 175.45 226.26 175.45H226.22C224.81 175.44 223.63 174.97 222.82 174.2C222.01 173.43 221.58 172.48 221.32 171.58C220.8 169.78 220.87 167.93 220.84 166.91C220.82 166.44 220.81 165.96 220.81 165.48C220.81 162 221.09 157.93 221.4 157.93H221.42C222.56 158.05 223.69 158.18 224.83 158.3C224.81 158.52 224.42 161.98 224.42 165.54C224.42 165.96 224.42 166.38 224.44 166.78C224.5 168.42 224.44 170.81 225.34 171.59C225.54 171.76 225.66 171.85 226.27 171.86C226.58 171.86 226.64 171.83 226.85 171.67C227.75 171 228.24 169.03 228.52 167.87C228.74 166.92 228.92 164.17 228.99 161.85C229.05 159.81 229.05 158.01 229.05 157.61V157.36V157.35Z" fill="#1D1D1B"/>
<path d="M244.94 169.33L244.83 156.82L248.42 156.78L248.59 175.19L245.35 175.22C245.35 175.22 245.24 175.31 245.18 175.36C245.13 175.29 245.08 175.23 245.03 175.16L237.92 166.49L238.02 176.63L234.42 176.67L234.26 160.76L237.77 160.73L244.94 169.33Z" fill="#1D1D1B"/>
<path d="M259.53 160.12C257.67 160.17 255.81 160.22 253.95 160.27L254.02 164.53C255.39 164.48 256.75 164.44 258.12 164.39C258.16 165.57 258.2 166.74 258.24 167.92C256.85 167.97 255.46 168.01 254.08 168.06L254.16 172.88C255.92 172.83 257.69 172.79 259.45 172.74C259.48 173.92 259.52 175.1 259.55 176.28C256.6 176.36 253.61 176.43 250.62 176.48C250.52 169.92 250.42 163.36 250.32 156.79C251.3 156.78 252.28 156.76 253.26 156.75C255.33 156.69 257.39 156.64 259.45 156.58C259.48 157.76 259.52 158.94 259.55 160.12H259.53Z" fill="#1D1D1B"/>
<path d="M2724.91 485H-0.589996V581.5H2724.91V485Z" fill="#FBF2EB" stroke="#1D1D1B" stroke-miterlimit="10"/>
<path d="M-5.83 391.54C-5.83 391.54 -8.76 386.41 -16.08 387.88C-17.69 388.2 -19.74 390.81 -17.54 393.01C-17.54 393.01 -23.4 392.28 -27.79 393.01C-30.21 393.41 -35.85 395.94 -32.18 401.8C-32.18 401.8 -40.77 400.07 -43.9 406.93C-45.26 409.91 -44.63 415.72 -38.04 418.65C-38.04 418.65 -43.17 423.04 -31.45 424.51C-31.45 424.51 -11.68 430.37 0.77 425.24C0.77 425.24 10.67 397.79 2.97 390.09C-2.89 384.23 -5.82 391.55 -5.82 391.55L-5.83 391.54Z" fill="#FBF2EB" stroke="#1D1D1B" stroke-miterlimit="10"/>
<path d="M21.27 425.23C21.27 425.23 41.04 425.96 42.51 420.1C42.51 420.1 44.71 414.24 35.19 413.51C35.19 413.51 38.56 402.6 32.26 398.86C30.47 397.8 27.13 396.66 23.47 399.49C23.47 399.49 26.4 384.21 17.61 384.21C17.61 384.21 13.22 383.48 11.75 389.34C11.75 389.34 9.55 384.95 4.43 385.68C4.43 385.68 -2.16 387.14 -0.699999 395.2C-0.699999 395.2 -2.9 393.74 -6.56 394.47C-6.56 394.47 -15.35 396.67 -10.95 403.99C-10.95 403.99 -28.53 403.26 -19.01 415.71C-19.01 415.71 -24.87 419.37 -17.55 425.23C-17.55 425.23 -6.56 427.61 4.79 427.52L21.27 425.23Z" fill="#FBF2EB" stroke="#1D1D1B" stroke-miterlimit="10"/>
<path d="M31.52 439.87L19.07 484.55H-17.46L-28.62 439.87H-30.76L-35.12 423.76H37.61L32.98 439.87H31.52Z" fill="#FBF2EB" stroke="#1D1D1B" stroke-miterlimit="10"/>
<path d="M-28.62 439.87H31.15" stroke="#1D1D1B" stroke-miterlimit="10"/>
<path d="M360.2 366.57C360.2 366.57 364.62 408.99 377.88 433.74H383.45C383.45 433.74 379.65 401.92 360.2 366.57Z" fill="#FBF2EB" stroke="#1D1D1B" stroke-miterlimit="10"/>
<path d="M416.12 433.76L386.72 433.74H357.55V436.39H359.32C359.32 436.39 356.67 469.98 367.27 477.05C372.57 480.59 375.22 485 375.22 485H386.64V485.02H398.44C398.44 485.02 401.09 480.6 406.39 477.07C417 470 414.34 436.41 414.34 436.41H416.11V433.76H416.12Z" fill="#FBF2EB" stroke="#1D1D1B" stroke-miterlimit="10"/>
<path d="M401.79 433.74C401.79 433.74 424.72 375.41 422.95 367.45C422.95 367.45 398.8 399.27 389.22 433.74H401.79Z" fill="#FBF2EB" stroke="#1D1D1B" stroke-miterlimit="10"/>
<path d="M392.01 433.74C392.01 433.74 395.55 375.41 390.24 362.15C390.24 362.15 369.91 405.46 377.87 433.74H392.01Z" fill="#FBF2EB" stroke="#1D1D1B" stroke-miterlimit="10"/>
<path d="M389.22 433.74C389.22 433.74 385.83 390.43 376.99 373.64C376.99 373.64 369.99 413.41 376.14 433.74H389.22Z" fill="#FBF2EB" stroke="#1D1D1B" stroke-miterlimit="10"/>
<path d="M354.89 419.6L360.19 408.14C360.19 408.14 361.96 405.46 364.61 407.23C364.61 407.23 376.98 416.95 379.19 433.74H372.98C372.98 433.74 366.71 421.14 364.61 416.95C364.09 415.91 362.84 413.41 360.19 415.48L354.89 419.6Z" fill="#FBF2EB" stroke="#1D1D1B" stroke-miterlimit="10"/>
<path d="M397.42 433.74C397.42 433.74 416.76 369.22 414.11 359.5C414.11 359.5 390.85 390.43 389.22 433.74H397.42Z" fill="#FBF2EB" stroke="#1D1D1B" stroke-miterlimit="10"/>
<path d="M402.62 360.38C402.62 360.38 405.01 421.36 400.28 433.74H386.71C386.71 433.74 391.13 378.06 402.62 360.38Z" fill="#FBF2EB" stroke="#1D1D1B" stroke-miterlimit="10"/>
</g>
<rect x="-1" width="392" height="106" fill="#316CAD"/>
<defs>
<clipPath id="clip0_548_5447">
<rect width="2770.41" height="505" fill="white" transform="translate(-45 77)"/>
</clipPath>
</defs>
</svg>
