<svg width="55" height="55" viewBox="0 0 55 55" fill="none" xmlns="http://www.w3.org/2000/svg">
<path d="M46.6314 8.71467C41.6777 3.76091 34.8415 0.689575 27.3118 0.689575C19.749 0.689575 12.9128 3.76091 7.99207 8.71467C3.03831 13.6684 0 20.5046 0 28.0344C0 43.1268 12.2523 55.3791 27.3448 55.3791C34.9075 55.3791 41.7107 52.3078 46.6645 47.3871C51.6182 42.4333 54.6565 35.5971 54.6565 28.0674C54.6235 20.4716 51.5522 13.6354 46.6314 8.71467ZM39.3989 32.4927L28.2034 42.7966C27.9392 43.0608 27.609 43.1598 27.2787 43.1598C26.9485 43.1598 26.6182 43.0608 26.354 42.7966L15.1255 32.4597C13.0119 30.6764 11.79 28.0013 11.79 25.1942C11.79 19.9102 16.0832 15.6169 21.3672 15.6169C23.5469 15.6169 25.5945 16.3435 27.2787 17.6645C28.963 16.3435 31.0106 15.6169 33.1902 15.6169C38.4742 15.6169 42.7675 19.9102 42.7675 25.1942C42.7675 28.0344 41.5456 30.6764 39.3989 32.4927Z" fill="#F7EF24"/>
<path d="M42.7676 25.2272C42.7676 28.0344 41.5457 30.6764 39.399 32.5258L28.2035 42.8296C27.9393 43.0938 27.6091 43.1929 27.2788 43.1929C26.9486 43.1929 26.6183 43.0938 26.3541 42.8296L15.1256 32.4928C13.012 30.7094 11.79 28.0344 11.79 25.2272C11.79 19.9432 16.0833 15.65 21.3673 15.65C23.547 15.65 25.5945 16.3765 27.2788 17.6975C28.9631 16.3765 31.0106 15.65 33.1903 15.65C38.4743 15.65 42.7676 19.9432 42.7676 25.2272Z" fill="#009E49"/>
</svg>
