<svg width="37" height="37" viewBox="0 0 37 37" fill="none" xmlns="http://www.w3.org/2000/svg">
<path d="M18.6907 35.3813C9.46967 35.3813 2.00001 27.9117 2.00002 18.6907C2.00002 9.46964 9.46967 1.99999 18.6907 1.99999C27.9117 1.99999 35.3813 9.46964 35.3813 18.6907C35.3602 27.9117 27.8906 35.3813 18.6907 35.3813Z" stroke="#F7EF24" stroke-width="3" stroke-miterlimit="10" stroke-linejoin="round"/>
<path d="M27.5793 16.4078C27.5793 17.9428 26.8772 19.3874 25.6438 20.3987L19.2112 26.0328C19.0594 26.1773 18.8696 26.2314 18.6799 26.2314C18.4901 26.2314 18.3004 26.1773 18.1486 26.0328L11.697 20.3806C10.4826 19.4055 9.78052 17.9428 9.78052 16.4078C9.78052 13.5185 12.2473 11.171 15.2833 11.171C16.5357 11.171 17.7122 11.5682 18.6799 12.2906C19.6476 11.5682 20.8241 11.171 22.0765 11.171C25.1125 11.171 27.5793 13.5185 27.5793 16.4078Z" fill="#F7EF24"/>
</svg>
