<svg width="37" height="37" viewBox="0 0 37 37" fill="none" xmlns="http://www.w3.org/2000/svg">
<path d="M17.9326 34.3813C8.71161 34.3813 1.24196 26.9116 1.24196 17.6906C1.24196 8.46961 8.71162 0.999957 17.9326 0.999957C27.1536 0.999958 34.6233 8.46961 34.6233 17.6906C34.6022 26.9116 27.1325 34.3813 17.9326 34.3813Z" fill="#F7EF24" stroke="#F7EF24" stroke-width="2" stroke-miterlimit="10" stroke-linejoin="round"/>
<path d="M26.8212 15.4078C26.8212 16.9428 26.1191 18.3874 24.8857 19.3987L18.4531 25.0328C18.3013 25.1773 18.1116 25.2314 17.9218 25.2314C17.7321 25.2314 17.5423 25.1773 17.3905 25.0328L10.939 19.3806C9.72455 18.4055 9.02246 16.9428 9.02246 15.4078C9.02246 12.5185 11.4892 10.171 14.5253 10.171C15.7776 10.171 16.9541 10.5682 17.9218 11.2906C18.8896 10.5682 20.066 10.171 21.3184 10.171C24.3544 10.171 26.8212 12.5185 26.8212 15.4078Z" fill="#009E49"/>
</svg>
