<svg width="27" height="27" viewBox="0 0 27 27" fill="none" xmlns="http://www.w3.org/2000/svg">
<path d="M0.999999 13.8093C0.999999 7.07442 6.45574 1.61867 13.1907 1.61867C19.9256 1.61867 25.3813 7.07442 25.3813 13.8093C25.3813 20.5443 19.9256 26 13.1907 26C6.45575 25.9846 1 20.5288 0.999999 13.8093Z" stroke="#FADD4B" stroke-width="2" stroke-miterlimit="10" stroke-linejoin="round"/>
<path d="M16 8.94737V13.3053L15.1289 14.0947H14.2927L13.9443 14.4105V17.1105H12.2718V13.5895L13.1429 12.8H13.9791L14.3275 12.4842V9.61053L13.9791 9.29474H13.0209L12.6725 9.61053V11.2526H11V8.94737L12.0453 8H14.9547L16 8.94737ZM13.9443 20H12.2718V18.2632H13.9443V20Z" fill="#FADD4B"/>
</svg>
