<?xml version="1.0" encoding="UTF-8"?><svg id="Calque_1" xmlns="http://www.w3.org/2000/svg" viewBox="0 0 519.5 692.52"><defs><style>.cls-1{stroke-width:.97px;}.cls-1,.cls-2,.cls-3{fill:#f8e8db;}.cls-1,.cls-2,.cls-3,.cls-4{stroke:#1d1d1b;stroke-miterlimit:10;}.cls-2{stroke-width:1px;}.cls-5{stroke-width:0px;}.cls-4{fill:#aac280;stroke-width:1.06px;}</style></defs><polygon class="cls-2" points="518.58 691.53 .58 691.53 .5 594.93 519 594.93 518.58 691.53"/><rect class="cls-3" x=".5" y="637.93" width="518.5" height="13"/><rect class="cls-4" x=".58" y=".53" width="518" height="571"/><rect class="cls-1" x=".58" y="571.53" width="518" height="23.15"/><path class="cls-2" d="M123.71,253.34h270.94c.12,0,.22.1.22.22v317.67H123.49V253.56c0-.12.1-.22.22-.22Z"/><rect class="cls-2" x="114.02" y="422.5" width="289.19" height="8.88" transform="translate(-168.32 685.55) rotate(-90)"/><rect class="cls-2" x="134.05" y="295.45" width="108.33" height="37.89"/><rect class="cls-2" x="134.05" y="342.45" width="47.83" height="123.89"/><rect class="cls-2" x="194.05" y="342.45" width="47.83" height="123.89"/><rect class="cls-2" x="274.05" y="342.45" width="47.83" height="123.89"/><rect class="cls-2" x="334.05" y="342.45" width="47.83" height="123.89"/><rect class="cls-2" x="274.05" y="295.45" width="108.53" height="37.89"/><path class="cls-2" d="M394.64,253.53c.1,0,.17-.11.12-.19-1.87-3.05-27.59-41.3-140.59-41.64-104.04-.32-128.78,38.58-130.57,41.64-.05.09.02.19.12.19h270.92Z"/><polyline class="cls-2" points="382.08 253.98 382.08 255.03 382.08 284.34 133.88 284.34 133.88 255.03 133.88 253.98"/><path class="cls-5" d="M218.62,275.89c.08.07.17.15.26.25.09.1.18.21.26.32.08.11.14.23.18.35.04.12.05.24.02.36-.04.13-.15.2-.32.2-.12,0-.25-.04-.37-.11s-.24-.14-.33-.21c-.13-.09-.34-.16-.6-.21-.27-.05-.55-.08-.84-.09-.31-.03-.6-.04-.88-.05-.28,0-.51,0-.68,0h-.16c-.08,0-.16,0-.25,0-.09,0-.17,0-.25,0-.64.04-1.31.11-1.99.21-.68.1-1.36.23-2.03.4-.67.17-1.33.37-1.97.61s-1.25.52-1.81.84c-.08.04-.17.06-.26.06-.13,0-.27-.04-.41-.12s-.27-.18-.4-.31c-.13-.13-.24-.26-.34-.4-.1-.14-.17-.27-.21-.39-.03-.04-.05-.12-.06-.24-.01-.12.01-.2.08-.24.35-.19.69-.36,1.04-.52.34-.16.69-.31,1.05-.44-.19-.24-.31-.5-.36-.76-.01-.08-.02-.16-.02-.24v-.24c.01-.42.07-.87.17-1.38.1-.5.22-1.01.35-1.52.13-.51.27-1.01.42-1.51s.28-.94.4-1.33c.23-.71.47-1.45.72-2.21.26-.76.53-1.52.81-2.28.29-.76.59-1.5.91-2.23s.66-1.42,1.03-2.08c.11-.21.22-.42.34-.62.12-.2.25-.39.4-.58.08-.11.17-.21.28-.3.11-.09.24-.14.38-.14.07,0,.16.04.27.11.11.07.22.16.33.26.11.1.21.2.3.29.09.09.16.17.2.22.01.01.05.06.12.15.07.09.13.18.19.27s.1.18.12.26c.02.08,0,.12-.09.12-.19.05-.39.23-.61.54-.22.31-.43.65-.63,1.01-.2.37-.38.73-.54,1.1-.16.36-.28.62-.36.78-.68,1.53-1.3,3.08-1.84,4.65-.54,1.57-1.03,3.17-1.46,4.79-.11.4-.2.8-.29,1.21-.09.4-.16.8-.23,1.21,1.93-.56,3.91-.84,5.93-.84.32,0,.67.01,1.04.04.37.03.73.07,1.1.14.36.07.71.17,1.05.3.33.13.62.31.86.52Z"/><path class="cls-5" d="M223.74,268.09c.07-.03.13-.04.2-.04.09,0,.18.03.25.09.07.06.13.13.17.21.04.08.06.16.07.24,0,.08,0,.15-.05.2-.04.05-.19.25-.46.59s-.61.75-1.03,1.22c-.42.47-.88.97-1.41,1.5-.52.53-1.05,1.01-1.6,1.46-.54.44-1.07.81-1.59,1.09-.52.29-.98.43-1.4.41-.5-.01-.9-.12-1.22-.32-.32-.2-.57-.44-.74-.72-.19-.27-.32-.56-.39-.86-.07-.31-.1-.58-.09-.8.04-.64.2-1.36.47-2.16.27-.8.64-1.54,1.11-2.24.46-.7,1-1.28,1.61-1.76.61-.48,1.26-.71,1.96-.71.19,0,.41.06.65.17.25.11.49.26.72.43.23.17.45.36.64.56.19.2.33.38.41.54.09.17.14.36.13.55,0,.19-.04.39-.11.57-.09.32-.24.64-.44.96s-.44.61-.7.87c-.27.26-.57.47-.9.63-.34.16-.68.24-1.05.24-.32,0-.64-.09-.95-.28-.31-.19-.58-.38-.82-.58-.24.47-.45.95-.63,1.45-.18.5-.3,1-.37,1.53-.03.21.03.38.16.48s.28.16.44.16c.31,0,.68-.13,1.13-.4.44-.27.91-.6,1.4-1,.49-.4.98-.84,1.47-1.31.49-.47.93-.91,1.33-1.33.39-.41.72-.76.98-1.05s.41-.44.43-.46c.07-.07.14-.11.22-.14ZM217.47,269.68c.32,0,.64-.09.96-.26.31-.17.59-.39.86-.65.26-.26.49-.55.68-.87.19-.32.33-.62.41-.9-.64.23-1.21.59-1.69,1.1-.48.5-.89,1.04-1.23,1.6Z"/><path class="cls-5" d="M229.11,265.66s.06.1.09.18c.03.08.07.17.11.27.04.1.07.19.09.28.02.09.02.16.01.21-.03.08-.06.13-.1.15s-.09.03-.16.03c-.32,0-.68.04-1.09.12-.42.08-.82.19-1.22.34-.4.15-.77.34-1.11.56-.34.23-.58.5-.74.8-.03.07-.05.14-.08.23-.03.09-.02.22.03.4.05.18.15.42.31.7.16.29.41.67.74,1.14.27-.19.6-.41,1-.67.4-.26.79-.52,1.18-.77.38-.25.72-.48,1.01-.67.29-.19.48-.32.54-.37.09-.07.2-.1.32-.1h.02c.15.01.24.09.29.23s0,.26-.11.35c-.63.48-1.26.92-1.88,1.32-.62.4-1.26.84-1.9,1.34.19.24.38.49.56.74.19.25.35.52.5.78.07.12.13.27.19.46.06.19.09.4.08.63,0,.23-.06.49-.17.75-.11.27-.29.54-.56.8-.19.19-.44.39-.77.61-.33.22-.68.43-1.05.61s-.75.34-1.13.46c-.38.12-.7.18-.98.18-.23,0-.44-.04-.63-.13-.19-.09-.39-.22-.57-.39l-.32-.3c-.11-.12-.21-.25-.3-.39-.09-.14-.16-.29-.19-.44-.03-.15-.02-.31.05-.47.09-.26.25-.5.46-.74.27-.32.56-.63.87-.91.31-.29.62-.57.93-.83.28-.25.57-.49.85-.71.29-.22.59-.45.89-.67-.09-.12-.21-.28-.34-.47-.13-.19-.27-.39-.41-.59s-.27-.4-.4-.6c-.13-.2-.23-.38-.31-.52-.27-.46-.4-.88-.39-1.28,0-.39.09-.77.25-1.14.16-.35.39-.67.68-.96.29-.29.63-.55.99-.76s.75-.39,1.16-.51c.4-.13.78-.19,1.14-.19.39,0,.69.07.9.2s.43.38.64.72ZM221.79,275.93c.32-.04.72-.13,1.21-.27s.95-.32,1.41-.55.85-.5,1.18-.81c.33-.31.51-.66.55-1.04,0-.07-.02-.14-.05-.22-.03-.08-.07-.16-.12-.25-.05-.09-.1-.17-.15-.24s-.09-.12-.12-.15c-.84.76-1.6,1.44-2.26,2.02-.66.58-1.21,1.09-1.64,1.52Z"/><path class="cls-5" d="M251.7,268.07c.47-.15.89-.28,1.28-.41.38-.13.72-.24,1.01-.35.59-.19,1.02-.28,1.29-.28.36,0,.56.19.6.56,0,.05-.17.13-.5.22-.43.13-.85.26-1.27.39-.42.13-.83.24-1.25.35-.23.07-.43.13-.59.18-.17.05-.31.1-.41.14.04.48-.02.96-.18,1.45-.2.56-.51,1.14-.91,1.72-.41.58-.89,1.14-1.44,1.67-.55.53-1.15,1.02-1.79,1.49-.64.46-1.31.87-1.99,1.22-.68.35-1.37.62-2.06.81-.69.19-1.35.29-1.98.29-.91,0-1.62-.2-2.11-.59s-.88-1-1.16-1.82c-.05-.15-.05-.3.02-.46.04-.11.13-.22.27-.35s.29-.25.46-.37c.17-.12.34-.23.5-.34.17-.11.3-.19.39-.24-.23-.2-.45-.48-.68-.82-.23-.35-.37-.68-.44-.98-.04-.23-.05-.43-.04-.6.03-.35.11-.76.24-1.25.13-.48.3-.99.51-1.53s.45-1.09.71-1.65c.27-.56.54-1.11.81-1.65.27-.54.55-1.03.83-1.5.28-.46.54-.85.76-1.18.04-.07.09-.14.16-.23.07-.09.14-.18.22-.27.08-.09.16-.17.25-.23.09-.06.17-.09.25-.09.13,0,.26.06.39.18.13.12.23.23.31.32.05.07.11.14.16.21s.11.14.16.21c.05.07.09.13.12.19s.05.11.08.15c.01.03.03.06.06.1s.05.09.08.14c.05.11.07.2.04.28-.03.07-.06.1-.1.1-.03,0-.05,0-.06-.02-.08.04-.19.13-.32.28s-.26.31-.39.49-.24.35-.35.51c-.11.16-.18.28-.22.36.47-.23,1.05-.55,1.74-.95s1.38-.86,2.07-1.37c.69-.5,1.32-1.02,1.88-1.56s.94-1.05,1.14-1.55c.07-.19.07-.35,0-.48-.07-.15-.19-.26-.36-.34-.17-.08-.37-.14-.58-.18-.22-.04-.43-.07-.63-.08-.21-.01-.38-.02-.53-.02-.75,0-1.57.09-2.47.28s-1.8.46-2.71.81c-.91.35-1.79.79-2.64,1.3-.85.51-1.61,1.09-2.27,1.74-.66.65-1.2,1.36-1.6,2.14-.4.78-.6,1.61-.6,2.49.01.05.02.1.02.15v.13c0,.12,0,.21.02.26,0,.16-.04.24-.12.24-.09,0-.21-.07-.36-.2s-.28-.3-.41-.48-.24-.38-.33-.57c-.09-.19-.14-.35-.14-.47-.01-.09-.02-.18-.03-.27,0-.09,0-.18,0-.27,0-.95.19-1.83.56-2.64.37-.81.88-1.55,1.52-2.22s1.37-1.26,2.2-1.78,1.7-.95,2.61-1.3,1.83-.61,2.77-.79c.94-.18,1.82-.27,2.65-.27,1.05,0,1.93.19,2.67.57.74.38,1.34,1.04,1.81,1.98.15.31.25.64.32.99.04.25.04.5,0,.74-.08.4-.26.8-.55,1.21-.29.4-.62.78-.99,1.15-.37.36-.77.69-1.19,1-.42.3-.78.55-1.11.75.96.08,1.78.38,2.45.9.67.52,1.16,1.25,1.47,2.17ZM240.48,275.55c.8,0,1.66-.17,2.56-.52s1.78-.8,2.64-1.37c.86-.56,1.65-1.19,2.36-1.89s1.29-1.39,1.72-2.09c-.71.29-1.51.66-2.41,1.09s-1.8.9-2.69,1.42c-.9.52-1.75,1.06-2.54,1.62-.8.56-1.46,1.14-1.98,1.73.04.01.1.02.18.02h.16ZM250.47,267.91c.05-.25.05-.5-.02-.72-.15-.36-.4-.59-.75-.68-.35-.09-.7-.14-1.04-.14-.58,0-1.16.06-1.76.17-.6.11-1.19.26-1.79.44-.6.18-1.19.38-1.77.59s-1.14.43-1.68.64c-.16.32-.33.68-.5,1.06-.17.39-.33.78-.47,1.19-.14.4-.26.8-.35,1.21-.09.4-.15.79-.16,1.17l.12.18s.02.05.02.06c1.58-.91,3.21-1.74,4.88-2.47,1.67-.74,3.37-1.42,5.08-2.05.08-.2.14-.41.18-.64ZM240.18,272.95l.04.14-.04-.14ZM256.48,268.21s-.07,0-.08-.02c.01,0,.02,0,.03,0,0,0,.02.01.05.01Z"/><path class="cls-5" d="M261.16,273.46c-.34.48-.68.88-1.05,1.2s-.74.47-1.13.47c-.23,0-.44-.05-.63-.15-.19-.1-.37-.23-.52-.39-.16-.16-.29-.34-.39-.54-.11-.2-.19-.4-.24-.6-.07-.24-.09-.47-.07-.67.02-.21.02-.39-.01-.55-.08.11-.21.32-.39.63-.18.32-.38.64-.59.96-.21.33-.43.63-.65.89s-.41.4-.57.4c-.2,0-.42-.07-.66-.21-.24-.14-.47-.31-.68-.51-.21-.2-.4-.42-.57-.65-.17-.23-.28-.45-.33-.63-.08-.27-.11-.54-.09-.81.02-.27.05-.55.09-.81.05-.29.14-.64.25-1.02s.26-.8.43-1.23c.17-.43.38-.85.61-1.26.23-.41.49-.78.77-1.1.28-.33.59-.59.91-.78.33-.19.68-.29,1.05-.29.35,0,.68.1.98.29.31.19.58.41.82.63.03-.05.06-.14.09-.25.03-.11.07-.22.1-.33.03-.11.06-.2.09-.29.03-.09.05-.13.06-.13h.04c.07,0,.2.03.41.09s.42.15.64.26.41.25.57.41c.16.16.23.34.2.54,0,.01-.05.15-.15.4-.1.25-.22.58-.36.97-.14.4-.29.83-.43,1.32s-.27.96-.37,1.42c-.1.46-.16.89-.19,1.29-.03.39.01.7.12.91.08.12.16.18.24.18.17,0,.38-.16.62-.48.24-.32.5-.73.79-1.23s.57-1.05.86-1.65.58-1.19.84-1.75c.04-.09.1-.16.17-.19.07-.03.14-.05.21-.05.13,0,.25.04.35.11.1.07.14.14.11.21-.01.04-.08.23-.21.58s-.29.77-.5,1.26-.45,1.01-.73,1.58c-.28.56-.59,1.09-.93,1.57ZM254.85,272.59c.27-.16.6-.44.98-.85.39-.41.8-.96,1.24-1.66.44-.7.83-1.59,1.18-2.69-.36.01-.7.12-1.02.32-.32.2-.61.46-.87.77-.27.32-.51.67-.73,1.07s-.41.79-.57,1.2c-.16.4-.3.79-.42,1.18-.12.38-.21.71-.26.99.04-.04.2-.15.48-.32Z"/><path class="cls-5" d="M270.61,265.84l.3.32s.07.08.13.16c.06.08.12.17.17.26s.09.18.1.25-.02.11-.1.11c-.03.01-.06.02-.1.02-.27.09-.52.25-.74.48-.23.23-.43.44-.6.64-.23.27-.44.55-.64.83-.2.29-.4.58-.6.87-.43.64-.86,1.28-1.29,1.92s-.88,1.26-1.37,1.86c-.08.11-.2.25-.35.43s-.32.35-.5.52c-.18.17-.36.31-.54.43-.18.12-.35.18-.51.18-.21,0-.42-.07-.62-.2-.2-.13-.37-.26-.52-.38-.39-.34-.69-.67-.89-1.01-.21-.34-.33-.77-.35-1.3-.03-.36,0-.73.05-1.09.06-.37.13-.73.21-1.08.11-.43.23-.85.36-1.27.13-.42.27-.82.42-1.23.03-.07.09-.22.19-.46.1-.24.21-.49.33-.74.12-.25.24-.48.35-.68.11-.2.19-.3.23-.3.11,0,.23.05.38.15s.29.22.44.35c.15.13.28.27.39.4.11.13.19.24.23.32l.1.18c.03.07.02.13-.02.2-.24.4-.47.86-.7,1.38-.23.52-.44,1.05-.62,1.6-.19.55-.35,1.1-.47,1.65-.13.55-.2,1.06-.23,1.53.16-.13.31-.27.45-.42.14-.15.27-.29.39-.44.56-.68,1.08-1.39,1.56-2.11.47-.72.96-1.45,1.46-2.17.23-.32.45-.64.68-.96.23-.31.48-.61.74-.89.16-.19.35-.36.56-.53s.46-.26.72-.29c.08-.01.16.01.25.08s.16.12.23.16c.12.08.24.17.34.26Z"/><path class="cls-5" d="M278.54,273.46c-.34.48-.68.88-1.05,1.2s-.74.47-1.13.47c-.23,0-.44-.05-.63-.15-.19-.1-.37-.23-.52-.39-.16-.16-.29-.34-.39-.54-.11-.2-.19-.4-.24-.6-.07-.24-.09-.47-.07-.67.02-.21.02-.39-.01-.55-.08.11-.21.32-.39.63-.18.32-.38.64-.59.96-.21.33-.43.63-.65.89s-.41.4-.57.4c-.2,0-.42-.07-.66-.21-.24-.14-.47-.31-.68-.51-.21-.2-.4-.42-.57-.65-.17-.23-.28-.45-.33-.63-.08-.27-.11-.54-.09-.81.02-.27.05-.55.09-.81.05-.29.14-.64.25-1.02s.26-.8.43-1.23c.17-.43.38-.85.61-1.26.23-.41.49-.78.77-1.1.28-.33.59-.59.91-.78.33-.19.68-.29,1.05-.29.35,0,.68.1.98.29.31.19.58.41.82.63.03-.05.06-.14.09-.25.03-.11.07-.22.1-.33.03-.11.06-.2.09-.29.03-.09.05-.13.06-.13h.04c.07,0,.2.03.41.09s.42.15.64.26.41.25.57.41c.16.16.23.34.2.54,0,.01-.05.15-.15.4-.1.25-.22.58-.36.97-.14.4-.29.83-.43,1.32s-.27.96-.37,1.42c-.1.46-.16.89-.19,1.29-.03.39.01.7.12.91.08.12.16.18.24.18.17,0,.38-.16.62-.48.24-.32.5-.73.79-1.23s.57-1.05.86-1.65.58-1.19.84-1.75c.04-.09.1-.16.17-.19.07-.03.14-.05.21-.05.13,0,.25.04.35.11.1.07.14.14.11.21-.01.04-.08.23-.21.58s-.29.77-.5,1.26-.45,1.01-.73,1.58c-.28.56-.59,1.09-.93,1.57ZM272.23,272.59c.27-.16.6-.44.98-.85.39-.41.8-.96,1.24-1.66.44-.7.83-1.59,1.18-2.69-.36.01-.7.12-1.02.32-.32.2-.61.46-.87.77-.27.32-.51.67-.73,1.07s-.41.79-.57,1.2c-.16.4-.3.79-.42,1.18-.12.38-.21.71-.26.99.04-.04.2-.15.48-.32Z"/><path class="cls-5" d="M278.34,273.76c.23-1.43.57-2.85,1.02-4.26.45-1.41.97-2.77,1.56-4.1.07-.16.18-.24.34-.24.08,0,.15.02.2.06.23.19.43.37.6.54.15.15.28.3.4.44s.17.26.14.34c-.07.27-.16.57-.28.91s-.22.61-.3.81c-.07.17-.12.32-.15.43-.03.11-.06.21-.09.29-.01.08-.02.15-.02.2.5-.8.95-1.53,1.37-2.17.19-.28.37-.56.55-.82.18-.27.35-.51.51-.72.16-.21.3-.39.42-.54s.21-.24.28-.28c.12-.07.25-.13.38-.19s.27-.09.42-.09c.23,0,.44.05.64.16.2.11.38.23.54.38.12.11.18.27.17.49,0,.22-.05.47-.12.75s-.16.58-.27.88c-.11.31-.2.61-.28.89s-.13.55-.15.78c-.02.23.02.42.13.55-.46-.07-.84-.17-1.17-.3-.27-.13-.5-.31-.69-.53-.19-.22-.24-.51-.13-.85.12-.36.25-.65.38-.86s.19-.32.16-.32l-.02.02s-.03,0-.04.02c-.43.39-.92.96-1.47,1.72-.55.76-1.13,1.77-1.73,3.04l-.66,1.51c-.15.35-.28.7-.41,1.06-.13.36-.26.74-.41,1.13,0-.01,0,0-.02.05s-.04.1-.08.16c-.04.06-.08.11-.13.16-.05.05-.1.07-.15.07-.09,0-.2-.04-.32-.12-.12-.08-.24-.18-.36-.29-.12-.11-.23-.23-.33-.34-.1-.11-.18-.21-.23-.29-.04-.07-.09-.15-.14-.25s-.07-.2-.06-.29Z"/><path class="cls-5" d="M293.15,278.7c-.19,0-.38-.06-.56-.18-.44-.25-.79-.6-1.05-1.04-.26-.44-.45-.89-.57-1.38-.11-.44-.16-.9-.16-1.37s.03-.93.08-1.39c.01-.11.03-.21.04-.31s.03-.2.04-.31c-.15.21-.33.46-.56.72-.23.27-.48.52-.74.76-.27.24-.55.44-.83.6-.29.16-.57.24-.83.24s-.55-.07-.79-.22c-.25-.15-.47-.34-.67-.56-.2-.23-.37-.48-.5-.75-.13-.27-.21-.54-.24-.79-.05-.43-.02-.86.09-1.3.11-.44.25-.85.39-1.24.11-.28.25-.61.42-.99.17-.37.38-.76.61-1.17.23-.4.49-.8.77-1.2s.58-.75.88-1.06.62-.56.95-.75c.33-.19.65-.29.97-.29.2,0,.41.04.62.13.21.09.42.2.6.34.19.14.35.3.49.47s.24.35.31.54c.08-.19.22-.48.41-.86.19-.39.42-.83.67-1.32.25-.49.53-.99.83-1.51.3-.52.6-.99.89-1.42.29-.43.58-.78.85-1.05s.51-.41.69-.41c.13,0,.27.04.42.13.15.09.28.19.41.31.13.12.24.25.34.39.1.14.17.27.21.39.03.05.05.14.06.25.01.11-.01.19-.08.23-.13.08-.27.19-.42.34-.15.15-.29.3-.42.47s-.26.34-.38.5c-.12.17-.22.31-.3.43-.56.83-1.11,1.76-1.64,2.78-.53,1.02-1,2.08-1.42,3.18-.42,1.09-.76,2.18-1.03,3.28-.27,1.09-.43,2.13-.48,3.1,0,.28.01.56.04.84.03.28.06.56.1.84.03.04.04.08.05.12,0,.04.02.07.03.1.15.13.27.28.38.45.11.17.17.35.2.53.01.07,0,.13-.02.2-.03.07-.09.11-.18.14ZM287.45,273.92v.06s.02.02.02.03,0,.02.02.03c.08.07.19.1.32.1.23,0,.49-.12.79-.36.3-.24.62-.57.95-.97.34-.41.68-.88,1.04-1.43.35-.54.71-1.11,1.05-1.7.15-.48.3-.96.47-1.44.17-.48.35-.95.55-1.42-.16-.03-.3-.09-.42-.18-.03-.01-.06-.02-.1-.02h-.02c-.21,0-.4.03-.54.1-.48.21-.96.6-1.44,1.16-.48.56-.91,1.17-1.31,1.84s-.72,1.35-.97,2.04c-.26.69-.4,1.29-.44,1.8v.3s0,.05.02.06Z"/><path class="cls-5" d="M303.6,268.09c.07-.03.13-.04.2-.04.09,0,.18.03.25.09.07.06.13.13.17.21.04.08.06.16.07.24,0,.08,0,.15-.05.2-.04.05-.19.25-.46.59s-.61.75-1.03,1.22c-.42.47-.88.97-1.41,1.5-.52.53-1.05,1.01-1.6,1.46-.54.44-1.07.81-1.59,1.09-.52.29-.98.43-1.4.41-.5-.01-.9-.12-1.22-.32-.32-.2-.57-.44-.74-.72-.19-.27-.32-.56-.39-.86-.07-.31-.1-.58-.09-.8.04-.64.2-1.36.47-2.16.27-.8.64-1.54,1.11-2.24.46-.7,1-1.28,1.61-1.76.61-.48,1.26-.71,1.96-.71.19,0,.41.06.65.17.25.11.49.26.72.43.23.17.45.36.64.56.19.2.33.38.41.54.09.17.14.36.13.55,0,.19-.04.39-.11.57-.09.32-.24.64-.44.96s-.44.61-.7.87c-.27.26-.57.47-.9.63-.34.16-.68.24-1.05.24-.32,0-.64-.09-.95-.28-.31-.19-.58-.38-.82-.58-.24.47-.45.95-.63,1.45-.18.5-.3,1-.37,1.53-.03.21.03.38.16.48s.28.16.44.16c.31,0,.68-.13,1.13-.4.44-.27.91-.6,1.4-1,.49-.4.98-.84,1.47-1.31.49-.47.93-.91,1.33-1.33.39-.41.72-.76.98-1.05s.41-.44.43-.46c.07-.07.14-.11.22-.14ZM297.33,269.68c.32,0,.64-.09.96-.26.31-.17.59-.39.86-.65.26-.26.49-.55.68-.87.19-.32.33-.62.41-.9-.64.23-1.21.59-1.69,1.1-.48.5-.89,1.04-1.23,1.6Z"/><path class="cls-5" d="M308.97,265.66s.06.1.09.18c.03.08.07.17.11.27.04.1.07.19.09.28.02.09.02.16.01.21-.03.08-.06.13-.1.15s-.09.03-.16.03c-.32,0-.68.04-1.09.12-.42.08-.82.19-1.22.34-.4.15-.77.34-1.11.56-.34.23-.58.5-.74.8-.03.07-.05.14-.08.23-.03.09-.02.22.03.4.05.18.15.42.31.7.16.29.41.67.74,1.14.27-.19.6-.41,1-.67.4-.26.79-.52,1.18-.77.38-.25.72-.48,1.01-.67.29-.19.48-.32.54-.37.09-.07.2-.1.32-.1h.02c.15.01.24.09.29.23s0,.26-.11.35c-.63.48-1.26.92-1.88,1.32-.62.4-1.26.84-1.9,1.34.19.24.38.49.56.74.19.25.35.52.5.78.07.12.13.27.19.46.06.19.09.4.08.63,0,.23-.06.49-.17.75-.11.27-.29.54-.56.8-.19.19-.44.39-.77.61-.33.22-.68.43-1.05.61s-.75.34-1.13.46c-.38.12-.7.18-.98.18-.23,0-.44-.04-.63-.13-.19-.09-.39-.22-.57-.39l-.32-.3c-.11-.12-.21-.25-.3-.39-.09-.14-.16-.29-.19-.44-.03-.15-.02-.31.05-.47.09-.26.25-.5.46-.74.27-.32.56-.63.87-.91.31-.29.62-.57.93-.83.28-.25.57-.49.85-.71.29-.22.59-.45.89-.67-.09-.12-.21-.28-.34-.47-.13-.19-.27-.39-.41-.59s-.27-.4-.4-.6c-.13-.2-.23-.38-.31-.52-.27-.46-.4-.88-.39-1.28,0-.39.09-.77.25-1.14.16-.35.39-.67.68-.96.29-.29.63-.55.99-.76s.75-.39,1.16-.51c.4-.13.78-.19,1.14-.19.39,0,.69.07.9.2s.43.38.64.72ZM301.65,275.93c.32-.04.72-.13,1.21-.27s.95-.32,1.41-.55.85-.5,1.18-.81c.33-.31.51-.66.55-1.04,0-.07-.02-.14-.05-.22-.03-.08-.07-.16-.12-.25-.05-.09-.1-.17-.15-.24s-.09-.12-.12-.15c-.84.76-1.6,1.44-2.26,2.02-.66.58-1.21,1.09-1.64,1.52Z"/><path class="cls-2" d="M419.01,537.34s-8.13,41,17.87,57h26.58s23.99-10.5,17.96-57h-62.4Z"/><path class="cls-2" d="M429.38,490.34s6,6,6,14c0,0-1,19,5,21,0,0,7,4,12-1,0,0,1-27-23-34Z"/><path class="cls-2" d="M405.38,508.34s5,9,15,9c0,0,16-2,22,7,0,0,5,9.02-13,7.51,0,0-18-1.51-23-12.51,0,0-2-5-1-11Z"/><path class="cls-2" d="M405.38,540.34s19.01-21.11,35.5-7.55c0,0,6.02,7.79-4.5,11.55-7.36,2.63-22,5-31-4Z"/><path class="cls-2" d="M450.38,525.34s-4-8,7-18c0,0,12-12,7-26,0,0,17.44,12.08,1.22,34.54,0,0-10.22,14.46-15.22,9.46Z"/><path class="cls-2" d="M454.38,524.34s6,2,15-5c0,0,5-4,15-6,0,0,8-2,9-6,0,0-21-1-32,7s-7,10-7,10Z"/><path class="cls-2" d="M456.38,529.34s8.46,7,22.23,0c0,0,9.62-7.89,18.2-7.44l9.57-.56s-12-7-32-2c0,0-21,6-18,10Z"/><path class="cls-2" d="M456.38,535.34s6,8,20,10c0,0,19.85,2.24,21.43,8.62,0,0-3.43-22.62-31.43-25.62,0,0-13-2-10,7Z"/><path class="cls-2" d="M450.38,526.34s-11-5-11,4c0,0,0,18,17,36,0,0,18-19,5-40,0,0-6-10-11,0Z"/><polygon class="cls-3" points="84 594.51 .58 594.51 .58 614.01 88 614.01 84 594.51"/><polygon class="cls-3" points="89 622.51 .58 622.51 .58 642.01 94 642.01 89 622.51"/><polygon class="cls-3" points="96 649.51 .58 649.51 .58 669.01 101 669.01 96 649.51"/><polygon class="cls-3" points="102 676.51 .58 676.51 .58 692.01 106.58 691.53 102 676.51"/></svg>