<svg width="390" height="582" viewBox="0 0 390 582" fill="none" xmlns="http://www.w3.org/2000/svg">
<g clip-path="url(#clip0_548_5449)">
<path d="M184.83 282.58C184.83 282.58 186.06 287.25 184.29 290.26L192.82 296.13L201.61 289.73C199.43 288.88 200.56 282.11 200.56 282.11" fill="#FCF3EC"/>
<path d="M184.83 282.58C184.83 282.58 186.06 287.25 184.29 290.26L192.82 296.13L201.61 289.73C199.43 288.88 200.56 282.11 200.56 282.11" stroke="#1D1D1B" stroke-width="0.75" stroke-miterlimit="10"/>
<path d="M177.61 261.1C177.61 261.1 173.79 260.05 174.71 264.79C174.71 264.79 175.19 267.53 177.75 269.14" fill="#FCF3EC"/>
<path d="M177.61 261.1C177.61 261.1 173.79 260.05 174.71 264.79C174.71 264.79 175.19 267.53 177.75 269.14" stroke="#1D1D1B" stroke-width="0.75" stroke-miterlimit="10"/>
<path d="M206.56 261.1C206.56 261.1 210.38 260.05 209.46 264.79C209.46 264.79 209.03 267.36 206.47 268.98" fill="#FCF3EC"/>
<path d="M206.56 261.1C206.56 261.1 210.38 260.05 209.46 264.79C209.46 264.79 209.03 267.36 206.47 268.98" stroke="#1D1D1B" stroke-width="0.75" stroke-miterlimit="10"/>
<path d="M192.01 244.7C187.86 244.7 178.88 245.81 177.87 256.1C177.87 256.1 176.13 273.15 180.93 279.66C182.07 281.2 185.4 283.99 192.21 283.99C197.68 283.99 200.88 282.49 203.55 279.63C205.68 277.35 207.62 272.7 206.09 255.8C206.09 255.8 206.09 244.69 192 244.69L192.01 244.7Z" fill="#FCF3EC" stroke="#1D1D1B" stroke-width="0.75" stroke-miterlimit="10"/>
<path d="M177.63 260.46C177.63 260.46 181.73 256.28 181.01 248.97C181.01 248.97 194.8 255.04 203.03 252.67C203.03 252.67 204.89 260.08 206.43 261.01C206.43 261.01 207.36 259.96 207.26 249.78C207.26 249.78 208.59 246.15 206.96 243.03C206.96 243.03 202.36 234.87 187.39 241.77L186.26 239.9C186.26 239.9 179.28 241.62 179.12 247.58C179.12 247.58 173.74 252.09 177.63 260.46Z" fill="#1D1D1B"/>
<path d="M186.17 264.35C186.601 264.35 186.95 264.001 186.95 263.57C186.95 263.139 186.601 262.79 186.17 262.79C185.739 262.79 185.39 263.139 185.39 263.57C185.39 264.001 185.739 264.35 186.17 264.35Z" fill="#1D1D1B"/>
<path d="M187.4 259.56L184.95 259.82" stroke="#1D1D1B" stroke-width="0.75" stroke-miterlimit="10"/>
<path d="M198.31 264.35C198.741 264.35 199.09 264.001 199.09 263.57C199.09 263.139 198.741 262.79 198.31 262.79C197.879 262.79 197.53 263.139 197.53 263.57C197.53 264.001 197.879 264.35 198.31 264.35Z" fill="#1D1D1B"/>
<path d="M197.06 259.42L199.52 259.69" stroke="#1D1D1B" stroke-width="0.75" stroke-miterlimit="10"/>
<path d="M192.84 265.77L192 272.11L194 272.51" stroke="#1D1D1B" stroke-width="0.75" stroke-miterlimit="10"/>
<path d="M188.58 276.63C188.58 276.63 192.78 279.59 197.86 276.63" stroke="#1D1D1B" stroke-width="0.75" stroke-miterlimit="10"/>
<path d="M181.73 513.02V528.15H134.38L160.16 513.02H181.73Z" fill="#AAC280" stroke="#1D1D1B" stroke-width="0.75" stroke-miterlimit="10"/>
<path d="M206.8 513.02V528.15H254.16L228.37 513.02H206.8Z" fill="#AAC280" stroke="#1D1D1B" stroke-width="0.75" stroke-miterlimit="10"/>
<path d="M166.12 351.96L222.63 351.18L241.66 517.22H203.16L194.51 380.6L185.36 517.22H149.43L166.12 351.96Z" fill="#316CAD" stroke="black" stroke-width="0.75" stroke-miterlimit="10"/>
<path d="M152.46 517.02C152.46 517.02 145.76 511.79 145.47 514.5C145.28 516.27 152.46 517.02 152.46 517.02Z" fill="#FBF3EB" stroke="#1D1D1B" stroke-width="0.75" stroke-miterlimit="10"/>
<path d="M147.18 518.63C147.18 518.63 150.71 518.81 153.01 517.22" stroke="black" stroke-width="0.75" stroke-miterlimit="10"/>
<path d="M235.98 517.09C235.98 517.09 243.36 511.13 242.76 514.28C242.43 516.03 235.98 517.09 235.98 517.09Z" fill="#FBF3EB" stroke="#1D1D1B" stroke-width="0.75" stroke-miterlimit="10"/>
<path d="M243.5 519.05C243.5 519.05 238.04 518.93 235.75 517.33" stroke="black" stroke-width="0.75" stroke-miterlimit="10"/>
<path d="M200.78 288.56C216.92 289.49 223.94 293.6 223.94 293.6C223.62 307.27 222.63 351.18 222.63 351.18L166.12 351.97L164.59 293.36C172.02 290.18 177.4 289.55 184.9 288.82L192.82 293.58L200.78 288.56Z" fill="#FFE078" stroke="black" stroke-width="0.75" stroke-miterlimit="10"/>
<path d="M184.9 288.82L192.56 293.37L188.54 296.14L182.47 289.09L184.9 288.82Z" fill="#FCF3EC" stroke="#1D1D1B" stroke-width="0.75" stroke-miterlimit="10"/>
<path d="M200.78 288.56L193.11 293.37L197.12 296.14L203.48 288.76L200.78 288.56Z" fill="#FCF3EC" stroke="#1D1D1B" stroke-width="0.75" stroke-miterlimit="10"/>
<path d="M180.68 289.26C180.68 289.26 182.15 298.22 193.1 297.89C198.29 297.74 202.73 295.94 206.57 289.06" stroke="#1D1D1B" stroke-width="0.75" stroke-miterlimit="10"/>
<path d="M192.82 293.58V297.9" stroke="#1D1D1B" stroke-width="0.75" stroke-miterlimit="10"/>
<path d="M223.94 293.6C223.94 293.6 230.28 296.14 232.88 304.7L243.87 335.56L236.73 369.35L220.44 355.25L231.52 333.03L223.39 318.16L223.95 293.6H223.94Z" fill="#FFE078" stroke="black" stroke-width="0.75" stroke-miterlimit="10"/>
<path d="M214.86 356.69C214.86 356.69 213.84 368.1 225.06 371.69" stroke="#1D1D1B" stroke-width="0.75" stroke-miterlimit="10"/>
<path d="M174.24 356.69C174.24 356.69 175.26 368.1 164.04 371.69" stroke="#1D1D1B" stroke-width="0.75" stroke-miterlimit="10"/>
<path d="M216.54 364.68C216.54 364.68 219.32 356.95 222.74 357.26L230.07 363.6C230.07 363.6 228 371.47 222.24 370.51C222.24 370.51 217.94 368.85 216.54 364.67V364.68Z" fill="#FCF3EC" stroke="#1D1D1B" stroke-width="0.75" stroke-miterlimit="10"/>
<path d="M164.56 293.37C164.56 293.37 158.22 295.91 155.62 304.47L147.91 337.7L141.26 367.97L160.51 365.1L162.43 337.69L165.12 317.93L164.56 293.37Z" fill="#FFE078" stroke="black" stroke-width="0.75" stroke-miterlimit="10"/>
<path d="M147.5 379.81C148.31 379.92 148.57 378.99 148.57 378.99C148.62 379.5 149.09 379.57 149.09 379.57C149.46 379.67 149.82 379.43 149.82 379.43C151.24 378.44 153.19 371.36 153.19 371.36C153.19 371.36 154.35 374.4 155.33 374.09C156.81 373.62 155.33 365.88 155.33 365.88L144.59 367.47C144.59 367.47 142.55 375.12 143.98 378.44C144.11 378.74 144.62 379.43 145.36 378.66C145.41 378.61 145.44 377.87 145.43 378.4C145.43 378.4 145.29 379.47 146.03 379.53C146.53 379.57 146.75 379.25 146.83 379.07C146.88 378.95 146.87 378.79 146.87 379.12C146.87 379.45 147 379.74 147.5 379.81Z" fill="#FCF3EC" stroke="#1D1D1B" stroke-width="0.75" stroke-miterlimit="10"/>
<path d="M146.87 378.95C146.87 378.95 147.04 376.31 147.76 374.79Z" fill="white"/>
<path d="M146.87 378.95C146.87 378.95 147.04 376.31 147.76 374.79" stroke="#1D1D1B" stroke-width="0.75" stroke-miterlimit="10"/>
<path d="M145.43 378.4C145.43 378.4 145.41 375.81 146.12 374.29Z" fill="white"/>
<path d="M145.43 378.4C145.43 378.4 145.41 375.81 146.12 374.29" stroke="#1D1D1B" stroke-width="0.75" stroke-miterlimit="10"/>
<path d="M148.58 378.95C148.58 378.95 148.75 376.31 149.47 374.79Z" fill="white"/>
<path d="M148.58 378.95C148.58 378.95 148.75 376.31 149.47 374.79" stroke="#1D1D1B" stroke-width="0.75" stroke-miterlimit="10"/>
</g>
<g clip-path="url(#clip1_548_5449)">
<path d="M395 76H-3V460H395V76Z" fill="#AAC280" stroke="#1D1D1B" stroke-width="0.75" stroke-miterlimit="10"/>
<path d="M390 460H0V484H390V460Z" fill="#FBF2EB" stroke="#1D1D1B" stroke-miterlimit="10"/>
<path d="M331.5 142.04H60.12V459.93H331.5V142.04Z" fill="#FBF2EB" stroke="#1D1D1B" stroke-miterlimit="10"/>
<path d="M190.8 172.04L190.8 459.78H199.68L199.68 172.04H190.8Z" fill="#FBF2EB" stroke="#1D1D1B" stroke-miterlimit="10"/>
<path d="M179 185.15H70.6699V223.04H179V185.15Z" fill="#FBF2EB" stroke="#1D1D1B" stroke-miterlimit="10"/>
<path d="M118.5 232.15H70.6699V356.04H118.5V232.15Z" fill="#FBF2EB" stroke="#1D1D1B" stroke-miterlimit="10"/>
<path d="M178.5 232.15H130.67V356.04H178.5V232.15Z" fill="#FBF2EB" stroke="#1D1D1B" stroke-miterlimit="10"/>
<path d="M258.5 232.15H210.67V356.04H258.5V232.15Z" fill="#FBF2EB" stroke="#1D1D1B" stroke-miterlimit="10"/>
<path d="M318.5 232.15H270.67V356.04H318.5V232.15Z" fill="#FBF2EB" stroke="#1D1D1B" stroke-miterlimit="10"/>
<path d="M319 185.15H210.67V223.04H319V185.15Z" fill="#FBF2EB" stroke="#1D1D1B" stroke-miterlimit="10"/>
<path d="M331.5 142.04C331.5 142.04 308.5 100.56 190.8 100.2C82.5 99.8699 60.12 142.04 60.12 142.04H331.5Z" fill="#FAF2EA" stroke="#1D1D1B" stroke-miterlimit="10"/>
<path d="M319.5 141.93H71.5V172.04H319.5V141.93Z" fill="#FBF2EB" stroke="#1D1D1B" stroke-miterlimit="10"/>
<path d="M156.24 164.59C156.32 164.66 156.41 164.74 156.5 164.84C156.59 164.94 156.68 165.05 156.76 165.16C156.84 165.27 156.9 165.39 156.94 165.51C156.98 165.63 156.99 165.75 156.96 165.87C156.92 166 156.81 166.07 156.64 166.07C156.52 166.07 156.39 166.03 156.27 165.96C156.15 165.89 156.03 165.82 155.94 165.75C155.81 165.66 155.6 165.59 155.34 165.54C155.07 165.49 154.79 165.46 154.5 165.45C154.19 165.42 153.9 165.41 153.62 165.4C153.34 165.4 153.11 165.4 152.94 165.4H152.78C152.7 165.4 152.62 165.4 152.53 165.4C152.44 165.4 152.36 165.4 152.28 165.4C151.64 165.44 150.97 165.51 150.29 165.61C149.61 165.71 148.93 165.84 148.26 166.01C147.59 166.18 146.93 166.38 146.29 166.62C145.65 166.86 145.04 167.14 144.48 167.46C144.4 167.5 144.31 167.52 144.22 167.52C144.09 167.52 143.95 167.48 143.81 167.4C143.67 167.32 143.54 167.22 143.41 167.09C143.28 166.96 143.17 166.83 143.07 166.69C142.97 166.55 142.9 166.42 142.86 166.3C142.83 166.26 142.81 166.18 142.8 166.06C142.79 165.94 142.81 165.86 142.88 165.82C143.23 165.63 143.57 165.46 143.92 165.3C144.26 165.14 144.61 164.99 144.97 164.86C144.78 164.62 144.66 164.36 144.61 164.1C144.6 164.02 144.59 163.94 144.59 163.86V163.62C144.6 163.2 144.66 162.75 144.76 162.24C144.86 161.74 144.98 161.23 145.11 160.72C145.24 160.21 145.38 159.71 145.53 159.21C145.68 158.71 145.81 158.27 145.93 157.88C146.16 157.17 146.4 156.43 146.65 155.67C146.91 154.91 147.18 154.15 147.46 153.39C147.75 152.63 148.05 151.89 148.37 151.16C148.69 150.43 149.03 149.74 149.4 149.08C149.51 148.87 149.62 148.66 149.74 148.46C149.86 148.26 149.99 148.07 150.14 147.88C150.22 147.77 150.31 147.67 150.42 147.58C150.53 147.49 150.66 147.44 150.8 147.44C150.87 147.44 150.96 147.48 151.07 147.55C151.18 147.62 151.29 147.71 151.4 147.81C151.51 147.91 151.61 148.01 151.7 148.1C151.79 148.19 151.86 148.27 151.9 148.32C151.91 148.33 151.95 148.38 152.02 148.47C152.09 148.56 152.15 148.65 152.21 148.74C152.27 148.83 152.31 148.92 152.33 149C152.35 149.08 152.33 149.12 152.24 149.12C152.05 149.17 151.85 149.35 151.63 149.66C151.41 149.97 151.2 150.31 151 150.67C150.8 151.04 150.62 151.4 150.46 151.77C150.3 152.13 150.18 152.39 150.1 152.55C149.42 154.08 148.8 155.63 148.26 157.2C147.72 158.77 147.23 160.37 146.8 161.99C146.69 162.39 146.6 162.79 146.51 163.2C146.42 163.6 146.35 164 146.28 164.41C148.21 163.85 150.19 163.57 152.21 163.57C152.53 163.57 152.88 163.58 153.25 163.61C153.62 163.64 153.98 163.68 154.35 163.75C154.71 163.82 155.06 163.92 155.4 164.05C155.73 164.18 156.02 164.36 156.26 164.57L156.24 164.59Z" fill="black"/>
<path d="M161.37 156.79C161.44 156.76 161.5 156.75 161.57 156.75C161.66 156.75 161.75 156.78 161.82 156.84C161.89 156.9 161.95 156.97 161.99 157.05C162.03 157.13 162.05 157.21 162.06 157.29C162.06 157.37 162.06 157.44 162.01 157.49C161.97 157.54 161.82 157.74 161.55 158.08C161.28 158.42 160.94 158.83 160.52 159.3C160.1 159.77 159.64 160.27 159.11 160.8C158.59 161.33 158.06 161.81 157.51 162.26C156.97 162.7 156.44 163.07 155.92 163.35C155.4 163.64 154.94 163.78 154.52 163.76C154.02 163.75 153.62 163.64 153.3 163.44C152.98 163.24 152.73 163 152.56 162.72C152.37 162.45 152.24 162.16 152.17 161.86C152.1 161.55 152.07 161.28 152.08 161.06C152.12 160.42 152.28 159.7 152.55 158.9C152.82 158.1 153.19 157.36 153.66 156.66C154.12 155.96 154.66 155.38 155.27 154.9C155.88 154.42 156.53 154.19 157.23 154.19C157.42 154.19 157.64 154.25 157.88 154.36C158.13 154.47 158.37 154.62 158.6 154.79C158.83 154.96 159.05 155.15 159.24 155.35C159.43 155.55 159.57 155.73 159.65 155.89C159.74 156.06 159.79 156.25 159.78 156.44C159.78 156.63 159.74 156.83 159.67 157.01C159.58 157.33 159.43 157.65 159.23 157.97C159.03 158.29 158.79 158.58 158.53 158.84C158.26 159.1 157.96 159.31 157.63 159.47C157.29 159.63 156.95 159.71 156.58 159.71C156.26 159.71 155.94 159.62 155.63 159.43C155.32 159.24 155.05 159.05 154.81 158.85C154.57 159.32 154.36 159.8 154.18 160.3C154 160.8 153.88 161.3 153.81 161.83C153.78 162.04 153.84 162.21 153.97 162.31C154.1 162.41 154.25 162.47 154.41 162.47C154.72 162.47 155.09 162.34 155.54 162.07C155.98 161.8 156.45 161.47 156.94 161.07C157.43 160.67 157.92 160.23 158.41 159.76C158.9 159.29 159.34 158.85 159.74 158.43C160.13 158.02 160.46 157.67 160.72 157.38C160.98 157.09 161.13 156.94 161.15 156.92C161.22 156.85 161.29 156.81 161.37 156.78V156.79ZM155.1 158.38C155.42 158.38 155.74 158.29 156.06 158.12C156.37 157.95 156.65 157.73 156.92 157.47C157.18 157.21 157.41 156.92 157.6 156.6C157.79 156.28 157.93 155.98 158.01 155.7C157.37 155.93 156.8 156.29 156.32 156.8C155.84 157.3 155.43 157.84 155.09 158.4L155.1 158.38Z" fill="black"/>
<path d="M166.73 154.36C166.73 154.36 166.79 154.46 166.82 154.54C166.85 154.62 166.89 154.71 166.93 154.81C166.97 154.91 167 155 167.02 155.09C167.04 155.18 167.04 155.25 167.03 155.3C167 155.38 166.97 155.43 166.93 155.45C166.89 155.47 166.84 155.48 166.77 155.48C166.45 155.48 166.09 155.52 165.68 155.6C165.26 155.68 164.86 155.79 164.46 155.94C164.06 156.09 163.69 156.28 163.35 156.5C163.01 156.73 162.77 157 162.61 157.3C162.58 157.37 162.56 157.44 162.53 157.53C162.5 157.62 162.51 157.75 162.56 157.93C162.61 158.11 162.71 158.35 162.87 158.63C163.03 158.92 163.28 159.3 163.61 159.77C163.88 159.58 164.21 159.36 164.61 159.1C165.01 158.84 165.4 158.58 165.79 158.33C166.17 158.08 166.51 157.85 166.8 157.66C167.09 157.47 167.28 157.34 167.34 157.29C167.43 157.22 167.54 157.19 167.66 157.19H167.68C167.83 157.2 167.92 157.28 167.97 157.42C168.02 157.56 167.97 157.68 167.86 157.77C167.23 158.25 166.6 158.69 165.98 159.09C165.36 159.49 164.72 159.93 164.08 160.43C164.27 160.67 164.46 160.92 164.64 161.17C164.83 161.42 164.99 161.69 165.14 161.95C165.21 162.07 165.27 162.22 165.33 162.41C165.39 162.6 165.42 162.81 165.41 163.04C165.41 163.27 165.35 163.53 165.24 163.79C165.13 164.06 164.95 164.33 164.68 164.59C164.49 164.78 164.24 164.98 163.91 165.2C163.58 165.42 163.23 165.63 162.86 165.81C162.49 165.99 162.11 166.15 161.73 166.27C161.35 166.39 161.03 166.45 160.75 166.45C160.52 166.45 160.31 166.41 160.12 166.32C159.93 166.23 159.73 166.1 159.55 165.93L159.23 165.63C159.12 165.51 159.02 165.38 158.93 165.24C158.84 165.1 158.77 164.95 158.74 164.8C158.71 164.65 158.72 164.49 158.79 164.33C158.88 164.07 159.04 163.83 159.25 163.59C159.52 163.27 159.81 162.96 160.12 162.68C160.43 162.39 160.74 162.11 161.05 161.85C161.33 161.6 161.62 161.36 161.9 161.14C162.19 160.92 162.49 160.69 162.79 160.47C162.7 160.35 162.58 160.19 162.45 160C162.32 159.81 162.18 159.61 162.04 159.41C161.9 159.21 161.77 159.01 161.64 158.81C161.51 158.61 161.41 158.43 161.33 158.29C161.06 157.83 160.93 157.41 160.94 157.01C160.94 156.62 161.03 156.24 161.19 155.87C161.35 155.52 161.58 155.2 161.87 154.91C162.16 154.62 162.5 154.36 162.86 154.15C163.22 153.94 163.61 153.76 164.02 153.64C164.42 153.51 164.8 153.45 165.16 153.45C165.55 153.45 165.85 153.52 166.06 153.65C166.27 153.78 166.49 154.03 166.7 154.37L166.73 154.36ZM159.42 164.63C159.74 164.59 160.14 164.5 160.63 164.36C161.12 164.22 161.58 164.04 162.04 163.81C162.5 163.58 162.89 163.31 163.22 163C163.55 162.69 163.73 162.34 163.77 161.96C163.77 161.89 163.75 161.82 163.72 161.74C163.69 161.66 163.65 161.58 163.6 161.49C163.55 161.4 163.5 161.32 163.45 161.25C163.4 161.18 163.36 161.13 163.33 161.1C162.49 161.86 161.73 162.54 161.07 163.12C160.41 163.7 159.86 164.21 159.43 164.64L159.42 164.63Z" fill="black"/>
<path d="M189.32 156.77C189.79 156.62 190.21 156.49 190.6 156.36C190.98 156.23 191.32 156.12 191.61 156.01C192.2 155.82 192.63 155.73 192.9 155.73C193.26 155.73 193.46 155.92 193.5 156.29C193.5 156.34 193.33 156.42 193 156.51C192.57 156.64 192.15 156.77 191.73 156.9C191.31 157.03 190.9 157.14 190.48 157.25C190.25 157.32 190.05 157.38 189.89 157.43C189.72 157.48 189.58 157.53 189.48 157.57C189.52 158.05 189.46 158.53 189.3 159.02C189.1 159.58 188.79 160.16 188.39 160.74C187.98 161.32 187.5 161.88 186.95 162.41C186.4 162.94 185.8 163.43 185.16 163.9C184.52 164.36 183.85 164.77 183.17 165.12C182.49 165.47 181.8 165.74 181.11 165.93C180.42 166.12 179.76 166.22 179.13 166.22C178.22 166.22 177.51 166.02 177.02 165.63C176.53 165.24 176.14 164.63 175.86 163.81C175.81 163.66 175.81 163.51 175.88 163.35C175.92 163.24 176.01 163.13 176.15 163C176.29 162.87 176.44 162.75 176.61 162.63C176.78 162.51 176.95 162.4 177.11 162.29C177.28 162.18 177.41 162.1 177.5 162.05C177.27 161.85 177.05 161.57 176.82 161.23C176.59 160.88 176.45 160.55 176.38 160.25C176.34 160.02 176.33 159.82 176.34 159.65C176.37 159.3 176.45 158.89 176.58 158.4C176.71 157.92 176.88 157.41 177.09 156.87C177.3 156.33 177.54 155.78 177.8 155.22C178.07 154.66 178.34 154.11 178.61 153.57C178.88 153.03 179.16 152.54 179.44 152.07C179.72 151.61 179.98 151.22 180.2 150.89C180.24 150.82 180.29 150.75 180.36 150.66C180.43 150.57 180.5 150.48 180.58 150.39C180.66 150.3 180.74 150.22 180.83 150.16C180.92 150.1 181 150.07 181.08 150.07C181.21 150.07 181.34 150.13 181.47 150.25C181.6 150.37 181.7 150.48 181.78 150.57C181.83 150.64 181.89 150.71 181.94 150.78C181.99 150.85 182.05 150.92 182.1 150.99C182.15 151.06 182.19 151.12 182.22 151.18C182.25 151.24 182.27 151.29 182.3 151.33C182.31 151.36 182.33 151.39 182.36 151.43C182.39 151.47 182.41 151.52 182.44 151.57C182.49 151.68 182.51 151.77 182.48 151.85C182.45 151.92 182.42 151.95 182.38 151.95C182.35 151.95 182.33 151.95 182.32 151.93C182.24 151.97 182.13 152.06 182 152.21C181.87 152.36 181.74 152.52 181.61 152.7C181.48 152.88 181.37 153.05 181.26 153.21C181.15 153.37 181.08 153.49 181.04 153.57C181.51 153.34 182.09 153.02 182.78 152.62C183.47 152.22 184.16 151.76 184.85 151.25C185.54 150.75 186.17 150.23 186.73 149.69C187.29 149.15 187.67 148.64 187.87 148.14C187.94 147.95 187.94 147.79 187.87 147.66C187.8 147.51 187.68 147.4 187.51 147.32C187.34 147.24 187.14 147.18 186.93 147.14C186.71 147.1 186.5 147.07 186.3 147.06C186.09 147.05 185.92 147.04 185.77 147.04C185.02 147.04 184.2 147.13 183.3 147.32C182.4 147.51 181.5 147.78 180.59 148.13C179.68 148.48 178.8 148.92 177.95 149.43C177.1 149.94 176.34 150.52 175.68 151.17C175.02 151.82 174.48 152.53 174.08 153.31C173.68 154.09 173.48 154.92 173.48 155.8C173.49 155.85 173.5 155.9 173.5 155.95V156.08C173.5 156.2 173.5 156.29 173.52 156.34C173.52 156.5 173.48 156.58 173.4 156.58C173.31 156.58 173.19 156.51 173.04 156.38C172.89 156.25 172.76 156.08 172.63 155.9C172.5 155.72 172.39 155.52 172.3 155.33C172.21 155.14 172.16 154.98 172.16 154.86C172.15 154.77 172.14 154.68 172.13 154.59C172.13 154.5 172.13 154.41 172.13 154.32C172.13 153.37 172.32 152.49 172.69 151.68C173.06 150.87 173.57 150.13 174.21 149.46C174.85 148.79 175.58 148.2 176.41 147.68C177.24 147.16 178.11 146.73 179.02 146.38C179.93 146.03 180.85 145.77 181.79 145.59C182.73 145.41 183.61 145.32 184.44 145.32C185.49 145.32 186.37 145.51 187.11 145.89C187.85 146.27 188.45 146.93 188.92 147.87C189.07 148.18 189.17 148.51 189.24 148.86C189.28 149.11 189.28 149.36 189.24 149.6C189.16 150 188.98 150.4 188.69 150.81C188.4 151.21 188.07 151.59 187.7 151.96C187.33 152.32 186.93 152.65 186.51 152.96C186.09 153.26 185.73 153.51 185.4 153.71C186.36 153.79 187.18 154.09 187.85 154.61C188.52 155.13 189.01 155.86 189.32 156.78V156.77ZM178.11 164.24C178.91 164.24 179.77 164.07 180.67 163.72C181.57 163.37 182.45 162.92 183.31 162.35C184.17 161.79 184.96 161.16 185.67 160.46C186.38 159.76 186.96 159.07 187.39 158.37C186.68 158.66 185.88 159.03 184.98 159.46C184.08 159.89 183.18 160.36 182.29 160.88C181.39 161.4 180.54 161.94 179.75 162.5C178.95 163.06 178.29 163.64 177.77 164.23C177.81 164.24 177.87 164.25 177.95 164.25H178.11V164.24ZM188.1 156.61C188.15 156.36 188.15 156.11 188.08 155.89C187.93 155.53 187.68 155.3 187.33 155.21C186.98 155.12 186.63 155.07 186.29 155.07C185.71 155.07 185.13 155.13 184.53 155.24C183.93 155.35 183.34 155.5 182.74 155.68C182.14 155.86 181.55 156.06 180.97 156.27C180.39 156.48 179.83 156.7 179.29 156.91C179.13 157.23 178.96 157.59 178.79 157.97C178.62 158.36 178.46 158.75 178.32 159.16C178.18 159.56 178.06 159.96 177.97 160.37C177.88 160.77 177.82 161.16 177.81 161.54L177.93 161.72C177.93 161.72 177.95 161.77 177.95 161.78C179.53 160.87 181.16 160.04 182.83 159.31C184.5 158.57 186.2 157.89 187.91 157.26C187.99 157.06 188.05 156.85 188.09 156.62L188.1 156.61ZM194.1 156.91C194.1 156.91 194.03 156.91 194.02 156.89C194.03 156.89 194.04 156.89 194.05 156.89C194.05 156.89 194.07 156.9 194.1 156.9V156.91Z" fill="black"/>
<path d="M198.79 162.15C198.45 162.63 198.11 163.03 197.74 163.35C197.37 163.67 197 163.82 196.61 163.82C196.38 163.82 196.17 163.77 195.98 163.67C195.79 163.57 195.61 163.44 195.46 163.28C195.3 163.12 195.17 162.94 195.07 162.74C194.96 162.54 194.88 162.34 194.83 162.14C194.76 161.9 194.74 161.67 194.76 161.47C194.78 161.26 194.78 161.08 194.75 160.92C194.67 161.03 194.54 161.24 194.36 161.55C194.18 161.87 193.98 162.19 193.77 162.51C193.56 162.84 193.34 163.14 193.12 163.4C192.9 163.66 192.71 163.8 192.55 163.8C192.35 163.8 192.13 163.73 191.89 163.59C191.65 163.45 191.42 163.28 191.21 163.08C191 162.88 190.81 162.66 190.64 162.43C190.47 162.2 190.36 161.98 190.31 161.8C190.23 161.53 190.2 161.26 190.22 160.99C190.24 160.72 190.27 160.44 190.31 160.18C190.36 159.89 190.45 159.54 190.56 159.16C190.67 158.78 190.82 158.36 190.99 157.93C191.16 157.5 191.37 157.08 191.6 156.67C191.83 156.26 192.09 155.89 192.37 155.57C192.65 155.24 192.96 154.98 193.28 154.79C193.61 154.6 193.96 154.5 194.33 154.5C194.68 154.5 195.01 154.6 195.31 154.79C195.62 154.98 195.89 155.2 196.13 155.42C196.16 155.37 196.19 155.28 196.22 155.17C196.25 155.06 196.29 154.95 196.32 154.84C196.35 154.73 196.38 154.64 196.41 154.55C196.44 154.46 196.46 154.42 196.47 154.42H196.51C196.58 154.42 196.71 154.45 196.92 154.51C197.13 154.57 197.34 154.66 197.56 154.77C197.78 154.88 197.97 155.02 198.13 155.18C198.29 155.34 198.36 155.52 198.33 155.72C198.33 155.73 198.28 155.87 198.18 156.12C198.08 156.37 197.96 156.7 197.82 157.09C197.68 157.49 197.53 157.92 197.39 158.41C197.25 158.9 197.12 159.37 197.02 159.83C196.92 160.29 196.86 160.72 196.83 161.12C196.8 161.51 196.84 161.82 196.95 162.03C197.03 162.15 197.11 162.21 197.19 162.21C197.36 162.21 197.57 162.05 197.81 161.73C198.05 161.41 198.31 161 198.6 160.5C198.89 160 199.17 159.45 199.46 158.85C199.75 158.25 200.04 157.66 200.3 157.1C200.34 157.01 200.4 156.94 200.47 156.91C200.54 156.88 200.61 156.86 200.68 156.86C200.81 156.86 200.93 156.9 201.03 156.97C201.13 157.04 201.17 157.11 201.14 157.18C201.13 157.22 201.06 157.41 200.93 157.76C200.8 158.11 200.64 158.53 200.43 159.02C200.22 159.51 199.98 160.03 199.7 160.6C199.42 161.16 199.11 161.69 198.77 162.17L198.79 162.15ZM192.48 161.29C192.75 161.13 193.08 160.85 193.46 160.44C193.85 160.03 194.26 159.48 194.7 158.78C195.14 158.08 195.53 157.19 195.88 156.09C195.52 156.1 195.18 156.21 194.86 156.41C194.54 156.61 194.25 156.87 193.99 157.18C193.72 157.5 193.48 157.85 193.26 158.25C193.04 158.65 192.85 159.04 192.69 159.45C192.53 159.85 192.39 160.24 192.27 160.63C192.15 161.01 192.06 161.34 192.01 161.62C192.05 161.58 192.21 161.47 192.49 161.3L192.48 161.29Z" fill="black"/>
<path d="M208.23 154.54L208.53 154.86C208.53 154.86 208.6 154.94 208.66 155.02C208.72 155.1 208.78 155.19 208.83 155.28C208.88 155.37 208.92 155.46 208.93 155.53C208.94 155.6 208.91 155.64 208.83 155.64C208.8 155.65 208.77 155.66 208.73 155.66C208.46 155.75 208.21 155.91 207.99 156.14C207.76 156.37 207.56 156.58 207.39 156.78C207.16 157.05 206.95 157.33 206.75 157.61C206.55 157.9 206.35 158.19 206.15 158.48C205.72 159.12 205.29 159.76 204.86 160.4C204.43 161.04 203.98 161.66 203.49 162.26C203.41 162.37 203.29 162.51 203.14 162.69C202.99 162.87 202.82 163.04 202.64 163.21C202.46 163.38 202.28 163.52 202.1 163.64C201.92 163.76 201.75 163.82 201.59 163.82C201.38 163.82 201.17 163.75 200.97 163.62C200.77 163.49 200.6 163.36 200.45 163.24C200.06 162.9 199.76 162.57 199.56 162.23C199.35 161.89 199.23 161.46 199.21 160.93C199.18 160.57 199.21 160.2 199.26 159.84C199.32 159.47 199.39 159.11 199.47 158.76C199.58 158.33 199.7 157.91 199.83 157.49C199.96 157.07 200.1 156.67 200.25 156.26C200.28 156.19 200.34 156.04 200.44 155.8C200.54 155.56 200.65 155.31 200.77 155.06C200.89 154.81 201.01 154.58 201.12 154.38C201.23 154.18 201.31 154.08 201.35 154.08C201.46 154.08 201.58 154.13 201.73 154.23C201.88 154.33 202.02 154.45 202.17 154.58C202.32 154.71 202.45 154.85 202.56 154.98C202.67 155.11 202.75 155.22 202.79 155.3L202.89 155.48C202.92 155.55 202.91 155.61 202.87 155.68C202.63 156.08 202.4 156.54 202.17 157.06C201.94 157.58 201.73 158.11 201.55 158.66C201.36 159.21 201.2 159.76 201.08 160.31C200.95 160.86 200.88 161.37 200.85 161.84C201.01 161.71 201.16 161.57 201.3 161.42C201.44 161.27 201.57 161.13 201.69 160.98C202.25 160.3 202.77 159.59 203.25 158.87C203.72 158.15 204.21 157.42 204.71 156.7C204.94 156.38 205.16 156.06 205.39 155.74C205.62 155.43 205.87 155.13 206.13 154.85C206.29 154.66 206.48 154.49 206.69 154.32C206.9 154.15 207.15 154.06 207.41 154.03C207.49 154.02 207.57 154.04 207.66 154.11C207.75 154.18 207.82 154.23 207.89 154.27C208.01 154.35 208.13 154.44 208.23 154.53V154.54Z" fill="black"/>
<path d="M216.17 162.15C215.83 162.63 215.49 163.03 215.12 163.35C214.75 163.67 214.38 163.82 213.99 163.82C213.76 163.82 213.55 163.77 213.36 163.67C213.17 163.57 212.99 163.44 212.84 163.28C212.68 163.12 212.55 162.94 212.45 162.74C212.34 162.54 212.26 162.34 212.21 162.14C212.14 161.9 212.12 161.67 212.14 161.47C212.16 161.26 212.16 161.08 212.13 160.92C212.05 161.03 211.92 161.24 211.74 161.55C211.56 161.87 211.36 162.19 211.15 162.51C210.94 162.84 210.72 163.14 210.5 163.4C210.28 163.66 210.09 163.8 209.93 163.8C209.73 163.8 209.51 163.73 209.27 163.59C209.03 163.45 208.8 163.28 208.59 163.08C208.38 162.88 208.19 162.66 208.02 162.43C207.85 162.2 207.74 161.98 207.69 161.8C207.61 161.53 207.58 161.26 207.6 160.99C207.62 160.72 207.65 160.44 207.69 160.18C207.74 159.89 207.83 159.54 207.94 159.16C208.05 158.78 208.2 158.36 208.37 157.93C208.54 157.5 208.75 157.08 208.98 156.67C209.21 156.26 209.47 155.89 209.75 155.57C210.03 155.24 210.34 154.98 210.66 154.79C210.99 154.6 211.34 154.5 211.71 154.5C212.06 154.5 212.39 154.6 212.69 154.79C213 154.98 213.27 155.2 213.51 155.42C213.54 155.37 213.57 155.28 213.6 155.17C213.63 155.06 213.67 154.95 213.7 154.84C213.73 154.73 213.76 154.64 213.79 154.55C213.82 154.46 213.84 154.42 213.85 154.42H213.89C213.96 154.42 214.09 154.45 214.3 154.51C214.51 154.57 214.72 154.66 214.94 154.77C215.16 154.88 215.35 155.02 215.51 155.18C215.67 155.34 215.74 155.52 215.71 155.72C215.71 155.73 215.66 155.87 215.56 156.12C215.46 156.37 215.34 156.7 215.2 157.09C215.06 157.49 214.91 157.92 214.77 158.41C214.63 158.9 214.5 159.37 214.4 159.83C214.3 160.29 214.24 160.72 214.21 161.12C214.18 161.51 214.22 161.82 214.33 162.03C214.41 162.15 214.49 162.21 214.57 162.21C214.74 162.21 214.95 162.05 215.19 161.73C215.43 161.41 215.69 161 215.98 160.5C216.27 160 216.55 159.45 216.84 158.85C217.13 158.25 217.42 157.66 217.68 157.1C217.72 157.01 217.78 156.94 217.85 156.91C217.92 156.88 217.99 156.86 218.06 156.86C218.19 156.86 218.31 156.9 218.41 156.97C218.51 157.04 218.55 157.11 218.52 157.18C218.51 157.22 218.44 157.41 218.31 157.76C218.18 158.11 218.02 158.53 217.81 159.02C217.6 159.51 217.36 160.03 217.08 160.6C216.8 161.16 216.49 161.69 216.15 162.17L216.17 162.15ZM209.86 161.29C210.13 161.13 210.46 160.85 210.84 160.44C211.23 160.03 211.64 159.48 212.08 158.78C212.52 158.08 212.91 157.19 213.26 156.09C212.9 156.1 212.56 156.21 212.24 156.41C211.92 156.61 211.63 156.87 211.37 157.18C211.1 157.5 210.86 157.85 210.64 158.25C210.42 158.65 210.23 159.04 210.07 159.45C209.91 159.85 209.77 160.24 209.65 160.63C209.53 161.01 209.44 161.34 209.39 161.62C209.43 161.58 209.59 161.47 209.87 161.3L209.86 161.29Z" fill="black"/>
<path d="M215.97 162.46C216.2 161.03 216.54 159.61 216.99 158.2C217.44 156.79 217.96 155.43 218.55 154.1C218.62 153.94 218.73 153.86 218.89 153.86C218.97 153.86 219.04 153.88 219.09 153.92C219.32 154.11 219.52 154.29 219.69 154.46C219.84 154.61 219.97 154.76 220.09 154.9C220.21 155.04 220.26 155.16 220.23 155.24C220.16 155.51 220.07 155.81 219.95 156.15C219.83 156.49 219.73 156.76 219.65 156.96C219.58 157.13 219.53 157.28 219.5 157.39C219.47 157.5 219.44 157.6 219.41 157.68C219.4 157.76 219.39 157.83 219.39 157.88C219.89 157.08 220.34 156.35 220.76 155.71C220.95 155.43 221.13 155.15 221.31 154.89C221.49 154.62 221.66 154.38 221.82 154.17C221.98 153.96 222.12 153.78 222.24 153.63C222.36 153.48 222.45 153.39 222.52 153.35C222.64 153.28 222.77 153.22 222.9 153.16C223.03 153.1 223.17 153.07 223.32 153.07C223.55 153.07 223.76 153.12 223.96 153.23C224.16 153.34 224.34 153.46 224.5 153.61C224.62 153.72 224.68 153.88 224.67 154.1C224.67 154.32 224.62 154.57 224.55 154.85C224.48 155.13 224.39 155.43 224.28 155.73C224.17 156.04 224.08 156.34 224 156.62C223.92 156.9 223.87 157.17 223.85 157.4C223.83 157.63 223.87 157.82 223.98 157.95C223.52 157.88 223.14 157.78 222.81 157.65C222.54 157.52 222.31 157.34 222.12 157.12C221.93 156.9 221.88 156.61 221.99 156.27C222.11 155.91 222.24 155.62 222.37 155.41C222.5 155.2 222.56 155.09 222.53 155.09L222.51 155.11C222.51 155.11 222.48 155.11 222.47 155.13C222.04 155.52 221.55 156.09 221 156.85C220.45 157.61 219.87 158.62 219.27 159.89L218.61 161.4C218.46 161.75 218.33 162.1 218.2 162.46C218.07 162.82 217.94 163.2 217.79 163.59C217.79 163.58 217.79 163.59 217.77 163.64C217.75 163.69 217.73 163.74 217.69 163.8C217.65 163.86 217.61 163.91 217.56 163.96C217.51 164.01 217.46 164.03 217.41 164.03C217.32 164.03 217.21 163.99 217.09 163.91C216.97 163.83 216.85 163.73 216.73 163.62C216.61 163.51 216.5 163.39 216.4 163.28C216.3 163.17 216.22 163.07 216.17 162.99C216.13 162.92 216.08 162.84 216.03 162.74C215.98 162.64 215.96 162.54 215.97 162.45V162.46Z" fill="black"/>
<path d="M230.78 167.4C230.59 167.4 230.4 167.34 230.22 167.22C229.78 166.97 229.43 166.62 229.17 166.18C228.91 165.74 228.72 165.29 228.6 164.8C228.49 164.36 228.44 163.9 228.44 163.43C228.44 162.96 228.47 162.5 228.52 162.04C228.53 161.93 228.55 161.83 228.56 161.73C228.57 161.63 228.59 161.53 228.6 161.42C228.45 161.63 228.27 161.88 228.04 162.14C227.81 162.41 227.56 162.66 227.3 162.9C227.03 163.14 226.75 163.34 226.47 163.5C226.18 163.66 225.9 163.74 225.64 163.74C225.38 163.74 225.09 163.67 224.85 163.52C224.6 163.37 224.38 163.18 224.18 162.96C223.98 162.73 223.81 162.48 223.68 162.21C223.55 161.94 223.47 161.67 223.44 161.42C223.39 160.99 223.42 160.56 223.53 160.12C223.64 159.68 223.78 159.27 223.92 158.88C224.03 158.6 224.17 158.27 224.34 157.89C224.51 157.52 224.72 157.13 224.95 156.72C225.18 156.32 225.44 155.92 225.72 155.52C226 155.12 226.3 154.77 226.6 154.46C226.9 154.15 227.22 153.9 227.55 153.71C227.88 153.52 228.2 153.42 228.52 153.42C228.72 153.42 228.93 153.46 229.14 153.55C229.35 153.64 229.56 153.75 229.74 153.89C229.93 154.03 230.09 154.19 230.23 154.36C230.37 154.53 230.47 154.71 230.54 154.9C230.62 154.71 230.76 154.42 230.95 154.04C231.14 153.65 231.37 153.21 231.62 152.72C231.87 152.23 232.15 151.73 232.45 151.21C232.75 150.69 233.05 150.22 233.34 149.79C233.63 149.36 233.92 149.01 234.19 148.74C234.46 148.47 234.7 148.33 234.88 148.33C235.01 148.33 235.15 148.37 235.3 148.46C235.45 148.55 235.58 148.65 235.71 148.77C235.84 148.89 235.95 149.02 236.05 149.16C236.15 149.3 236.22 149.43 236.26 149.55C236.29 149.6 236.31 149.69 236.32 149.8C236.33 149.91 236.31 149.99 236.24 150.03C236.11 150.11 235.97 150.22 235.82 150.37C235.67 150.52 235.53 150.67 235.4 150.84C235.27 151.01 235.14 151.18 235.02 151.34C234.9 151.51 234.8 151.65 234.72 151.77C234.16 152.6 233.61 153.53 233.08 154.55C232.55 155.57 232.08 156.63 231.66 157.73C231.24 158.82 230.9 159.91 230.63 161.01C230.36 162.1 230.2 163.14 230.15 164.11C230.15 164.39 230.16 164.67 230.19 164.95C230.22 165.23 230.25 165.51 230.29 165.79C230.32 165.83 230.33 165.87 230.34 165.91C230.34 165.95 230.36 165.98 230.37 166.01C230.52 166.14 230.64 166.29 230.75 166.46C230.86 166.63 230.92 166.81 230.95 166.99C230.96 167.06 230.95 167.12 230.93 167.19C230.9 167.26 230.84 167.3 230.75 167.33L230.78 167.4ZM225.07 162.62V162.68C225.07 162.68 225.09 162.7 225.09 162.71C225.09 162.72 225.09 162.73 225.11 162.74C225.19 162.81 225.3 162.84 225.43 162.84C225.66 162.84 225.92 162.72 226.22 162.48C226.52 162.24 226.84 161.91 227.17 161.51C227.51 161.1 227.85 160.63 228.21 160.08C228.56 159.54 228.92 158.97 229.26 158.38C229.41 157.9 229.56 157.42 229.73 156.94C229.9 156.46 230.08 155.99 230.28 155.52C230.12 155.49 229.98 155.43 229.86 155.34C229.83 155.33 229.8 155.32 229.76 155.32H229.74C229.53 155.32 229.34 155.35 229.2 155.42C228.72 155.63 228.24 156.02 227.76 156.58C227.28 157.14 226.85 157.75 226.45 158.42C226.05 159.09 225.73 159.77 225.48 160.46C225.22 161.15 225.08 161.75 225.04 162.26V162.56C225.04 162.56 225.04 162.61 225.06 162.62H225.07Z" fill="black"/>
<path d="M241.23 156.79C241.3 156.76 241.36 156.75 241.43 156.75C241.52 156.75 241.61 156.78 241.68 156.84C241.75 156.9 241.81 156.97 241.85 157.05C241.89 157.13 241.91 157.21 241.92 157.29C241.92 157.37 241.92 157.44 241.87 157.49C241.83 157.54 241.68 157.74 241.41 158.08C241.14 158.42 240.8 158.83 240.38 159.3C239.96 159.77 239.5 160.27 238.97 160.8C238.45 161.33 237.92 161.81 237.37 162.26C236.83 162.7 236.3 163.07 235.78 163.35C235.26 163.64 234.8 163.78 234.38 163.76C233.88 163.75 233.48 163.64 233.16 163.44C232.84 163.24 232.59 163 232.42 162.72C232.23 162.45 232.1 162.16 232.03 161.86C231.96 161.55 231.93 161.28 231.94 161.06C231.98 160.42 232.14 159.7 232.41 158.9C232.68 158.1 233.05 157.36 233.52 156.66C233.98 155.96 234.52 155.38 235.13 154.9C235.74 154.42 236.39 154.19 237.09 154.19C237.28 154.19 237.5 154.25 237.74 154.36C237.99 154.47 238.23 154.62 238.46 154.79C238.69 154.96 238.91 155.15 239.1 155.35C239.29 155.55 239.43 155.73 239.51 155.89C239.6 156.06 239.65 156.25 239.64 156.44C239.64 156.63 239.6 156.83 239.53 157.01C239.44 157.33 239.29 157.65 239.09 157.97C238.89 158.29 238.65 158.58 238.39 158.84C238.12 159.1 237.82 159.31 237.49 159.47C237.15 159.63 236.81 159.71 236.44 159.71C236.12 159.71 235.8 159.62 235.49 159.43C235.18 159.24 234.91 159.05 234.67 158.85C234.43 159.32 234.22 159.8 234.04 160.3C233.86 160.8 233.74 161.3 233.67 161.83C233.64 162.04 233.7 162.21 233.83 162.31C233.96 162.41 234.11 162.47 234.27 162.47C234.58 162.47 234.95 162.34 235.4 162.07C235.84 161.8 236.31 161.47 236.8 161.07C237.29 160.67 237.78 160.23 238.27 159.76C238.76 159.29 239.2 158.85 239.6 158.43C239.99 158.02 240.32 157.67 240.58 157.38C240.84 157.09 240.99 156.94 241.01 156.92C241.08 156.85 241.15 156.81 241.23 156.78V156.79ZM234.96 158.38C235.28 158.38 235.6 158.29 235.92 158.12C236.23 157.95 236.51 157.73 236.78 157.47C237.04 157.21 237.27 156.92 237.46 156.6C237.65 156.28 237.79 155.98 237.87 155.7C237.23 155.93 236.66 156.29 236.18 156.8C235.7 157.3 235.29 157.84 234.95 158.4L234.96 158.38Z" fill="black"/>
<path d="M246.59 154.36C246.59 154.36 246.65 154.46 246.68 154.54C246.71 154.62 246.75 154.71 246.79 154.81C246.83 154.91 246.86 155 246.88 155.09C246.9 155.18 246.9 155.25 246.89 155.3C246.86 155.38 246.83 155.43 246.79 155.45C246.75 155.47 246.7 155.48 246.63 155.48C246.31 155.48 245.95 155.52 245.54 155.6C245.12 155.68 244.72 155.79 244.32 155.94C243.92 156.09 243.55 156.28 243.21 156.5C242.87 156.73 242.63 157 242.47 157.3C242.44 157.37 242.42 157.44 242.39 157.53C242.36 157.62 242.37 157.75 242.42 157.93C242.47 158.11 242.57 158.35 242.73 158.63C242.89 158.92 243.14 159.3 243.47 159.77C243.74 159.58 244.07 159.36 244.47 159.1C244.87 158.84 245.26 158.58 245.65 158.33C246.03 158.08 246.37 157.85 246.66 157.66C246.95 157.47 247.14 157.34 247.2 157.29C247.29 157.22 247.4 157.19 247.52 157.19H247.54C247.69 157.2 247.78 157.28 247.83 157.42C247.88 157.56 247.83 157.68 247.72 157.77C247.09 158.25 246.46 158.69 245.84 159.09C245.22 159.49 244.58 159.93 243.94 160.43C244.13 160.67 244.32 160.92 244.5 161.17C244.69 161.42 244.85 161.69 245 161.95C245.07 162.07 245.13 162.22 245.19 162.41C245.25 162.6 245.28 162.81 245.27 163.04C245.27 163.27 245.21 163.53 245.1 163.79C244.99 164.06 244.81 164.33 244.54 164.59C244.35 164.78 244.1 164.98 243.77 165.2C243.44 165.42 243.09 165.63 242.72 165.81C242.35 165.99 241.97 166.15 241.59 166.27C241.21 166.39 240.89 166.45 240.61 166.45C240.38 166.45 240.17 166.41 239.98 166.32C239.79 166.23 239.59 166.1 239.41 165.93L239.09 165.63C238.98 165.51 238.88 165.38 238.79 165.24C238.7 165.1 238.63 164.95 238.6 164.8C238.57 164.65 238.58 164.49 238.65 164.33C238.74 164.07 238.9 163.83 239.11 163.59C239.38 163.27 239.67 162.96 239.98 162.68C240.29 162.39 240.6 162.11 240.91 161.85C241.19 161.6 241.48 161.36 241.76 161.14C242.05 160.92 242.35 160.69 242.65 160.47C242.56 160.35 242.44 160.19 242.31 160C242.18 159.81 242.04 159.61 241.9 159.41C241.76 159.21 241.63 159.01 241.5 158.81C241.37 158.61 241.27 158.43 241.19 158.29C240.92 157.83 240.79 157.41 240.8 157.01C240.8 156.62 240.89 156.24 241.05 155.87C241.21 155.52 241.44 155.2 241.73 154.91C242.02 154.62 242.36 154.36 242.72 154.15C243.08 153.94 243.47 153.76 243.88 153.64C244.28 153.51 244.66 153.45 245.02 153.45C245.41 153.45 245.71 153.52 245.92 153.65C246.13 153.78 246.35 154.03 246.56 154.37L246.59 154.36ZM239.28 164.63C239.6 164.59 240 164.5 240.49 164.36C240.98 164.22 241.44 164.04 241.9 163.81C242.36 163.58 242.75 163.31 243.08 163C243.41 162.69 243.59 162.34 243.63 161.96C243.63 161.89 243.61 161.82 243.58 161.74C243.55 161.66 243.51 161.58 243.46 161.49C243.41 161.4 243.36 161.32 243.31 161.25C243.26 161.18 243.22 161.13 243.19 161.1C242.35 161.86 241.59 162.54 240.93 163.12C240.27 163.7 239.72 164.21 239.29 164.64L239.28 164.63Z" fill="black"/>
<path d="M1948 484.04H-777.5V580.54H1948V484.04Z" fill="#FBF2EB" stroke="#1D1D1B" stroke-miterlimit="10"/>
<path d="M154.5 503.54H-197.42L-193.42 484.04H150.5L154.5 503.54Z" fill="#FBF2EB" stroke="#1D1D1B" stroke-miterlimit="10"/>
<path d="M160.5 530.54H-204.42L-199.42 511.04H155.5L160.5 530.54Z" fill="#FBF2EB" stroke="#1D1D1B" stroke-miterlimit="10"/>
<path d="M167.5 557.54H-210.42L-205.42 538.04H162.5L167.5 557.54Z" fill="#FBF2EB" stroke="#1D1D1B" stroke-miterlimit="10"/>
<path d="M173.5 580.54H-217.42L-212.42 565.04H168.5L173.5 580.54Z" fill="#FBF2EB" stroke="#1D1D1B" stroke-miterlimit="10"/>
<path d="M353.64 427.04C353.64 427.04 345.51 468.04 371.51 484.04H398.09C398.09 484.04 422.08 473.54 416.05 427.04H353.65H353.64Z" fill="#FBF2EB" stroke="#1D1D1B" stroke-miterlimit="10"/>
<path d="M364.01 380.04C364.01 380.04 370.01 386.04 370.01 394.04C370.01 394.04 369.01 413.04 375.01 415.04C375.01 415.04 382.01 419.04 387.01 414.04C387.01 414.04 388.01 387.04 364.01 380.04Z" fill="#FBF2EB" stroke="#1D1D1B" stroke-miterlimit="10"/>
<path d="M340.01 398.04C340.01 398.04 345.01 407.04 355.01 407.04C355.01 407.04 371.01 405.04 377.01 414.04C377.01 414.04 382.01 423.06 364.01 421.55C364.01 421.55 346.01 420.04 341.01 409.04C341.01 409.04 339.01 404.04 340.01 398.04Z" fill="#FBF2EB" stroke="#1D1D1B" stroke-miterlimit="10"/>
<path d="M340.01 430.04C340.01 430.04 359.02 408.93 375.51 422.49C375.51 422.49 381.53 430.28 371.01 434.04C363.65 436.67 349.01 439.04 340.01 430.04Z" fill="#FBF2EB" stroke="#1D1D1B" stroke-miterlimit="10"/>
<path d="M385.01 415.04C385.01 415.04 381.01 407.04 392.01 397.04C392.01 397.04 404.01 385.04 399.01 371.04C399.01 371.04 416.45 383.12 400.23 405.58C400.23 405.58 390.01 420.04 385.01 415.04Z" fill="#FBF2EB" stroke="#1D1D1B" stroke-miterlimit="10"/>
<path d="M389.01 414.04C389.01 414.04 395.01 416.04 404.01 409.04C404.01 409.04 409.01 405.04 419.01 403.04C419.01 403.04 427.01 401.04 428.01 397.04C428.01 397.04 407.01 396.04 396.01 404.04C385.01 412.04 389.01 414.04 389.01 414.04Z" fill="#FBF2EB" stroke="#1D1D1B" stroke-miterlimit="10"/>
<path d="M391.01 419.04C391.01 419.04 399.47 426.04 413.24 419.04C413.24 419.04 422.86 411.15 431.44 411.6L441.01 411.04C441.01 411.04 429.01 404.04 409.01 409.04C409.01 409.04 388.01 415.04 391.01 419.04Z" fill="#FBF2EB" stroke="#1D1D1B" stroke-miterlimit="10"/>
<path d="M391.01 425.04C391.01 425.04 397.01 433.04 411.01 435.04C411.01 435.04 430.86 437.28 432.44 443.66C432.44 443.66 429.01 421.04 401.01 418.04C401.01 418.04 388.01 416.04 391.01 425.04Z" fill="#FBF2EB" stroke="#1D1D1B" stroke-miterlimit="10"/>
<path d="M385.01 416.04C385.01 416.04 374.01 411.04 374.01 420.04C374.01 420.04 374.01 438.04 391.01 456.04C391.01 456.04 409.01 437.04 396.01 416.04C396.01 416.04 390.01 406.04 385.01 416.04Z" fill="#FBF2EB" stroke="#1D1D1B" stroke-miterlimit="10"/>
</g>
<rect x="-15" y="-63" width="419" height="151" fill="#AAC280"/>
<defs>
<clipPath id="clip0_548_5449">
<rect width="122.54" height="289.53" fill="white" transform="translate(133 239)"/>
</clipPath>
<clipPath id="clip1_548_5449">
<rect width="2726.5" height="505.04" fill="white" transform="translate(-778 76)"/>
</clipPath>
</defs>
</svg>
