<svg width="390" height="690" viewBox="0 0 390 690" fill="none" xmlns="http://www.w3.org/2000/svg">
<g clip-path="url(#clip0_548_5449)">
<path d="M400 184H-10V568H400V184Z" fill="#AAC382" stroke="#1D1D1B" stroke-width="0.75" stroke-miterlimit="10"/>
<path d="M389 568H-4V591H389V568Z" fill="#F8E8DB" stroke="#1D1D1B" stroke-miterlimit="10"/>
<path d="M330.5 250.15H59.12V568.04H330.5V250.15Z" fill="#F8E8DB" stroke="#1D1D1B" stroke-miterlimit="10"/>
<path d="M189.8 280.15L189.8 567.89H198.68L198.68 280.15H189.8Z" fill="#F8E8DB" stroke="#1D1D1B" stroke-miterlimit="10"/>
<path d="M178 293.27H69.6699V331.16H178V293.27Z" fill="#F8E8DB" stroke="#1D1D1B" stroke-miterlimit="10"/>
<path d="M117.5 340.27H69.6699V464.16H117.5V340.27Z" fill="#F8E8DB" stroke="#1D1D1B" stroke-miterlimit="10"/>
<path d="M177.5 340.27H129.67V464.16H177.5V340.27Z" fill="#F8E8DB" stroke="#1D1D1B" stroke-miterlimit="10"/>
<path d="M257.5 340.27H209.67V464.16H257.5V340.27Z" fill="#F8E8DB" stroke="#1D1D1B" stroke-miterlimit="10"/>
<path d="M317.5 340.27H269.67V464.16H317.5V340.27Z" fill="#F8E8DB" stroke="#1D1D1B" stroke-miterlimit="10"/>
<path d="M318 293.27H209.67V331.16H318V293.27Z" fill="#F8E8DB" stroke="#1D1D1B" stroke-miterlimit="10"/>
<path d="M330.5 250.15C330.5 250.15 307.5 208.67 189.8 208.31C81.5 207.98 59.12 250.15 59.12 250.15H330.5Z" fill="#F8E8DB" stroke="#1D1D1B" stroke-miterlimit="10"/>
<path d="M318.5 250.04H70.5V280.15H318.5V250.04Z" fill="#F8E8DB" stroke="#1D1D1B" stroke-miterlimit="10"/>
<path d="M155.24 272.7C155.32 272.77 155.41 272.85 155.5 272.95C155.59 273.05 155.68 273.16 155.76 273.27C155.84 273.38 155.9 273.5 155.94 273.62C155.98 273.74 155.99 273.86 155.96 273.98C155.92 274.11 155.81 274.18 155.64 274.18C155.52 274.18 155.39 274.14 155.27 274.07C155.15 274 155.03 273.93 154.94 273.86C154.81 273.77 154.6 273.7 154.34 273.65C154.07 273.6 153.79 273.57 153.5 273.56C153.19 273.53 152.9 273.52 152.62 273.51C152.34 273.51 152.11 273.51 151.94 273.51H151.78C151.7 273.51 151.62 273.51 151.53 273.51C151.44 273.51 151.36 273.51 151.28 273.51C150.64 273.55 149.97 273.62 149.29 273.72C148.61 273.82 147.93 273.95 147.26 274.12C146.59 274.29 145.93 274.49 145.29 274.73C144.65 274.97 144.04 275.25 143.48 275.57C143.4 275.61 143.31 275.63 143.22 275.63C143.09 275.63 142.95 275.59 142.81 275.51C142.67 275.43 142.54 275.33 142.41 275.2C142.28 275.07 142.17 274.94 142.07 274.8C141.97 274.66 141.9 274.53 141.86 274.41C141.83 274.37 141.81 274.29 141.8 274.17C141.79 274.05 141.81 273.97 141.88 273.93C142.23 273.74 142.57 273.57 142.92 273.41C143.26 273.25 143.61 273.1 143.97 272.97C143.78 272.73 143.66 272.47 143.61 272.21C143.6 272.13 143.59 272.05 143.59 271.97V271.73C143.6 271.31 143.66 270.86 143.76 270.35C143.86 269.85 143.98 269.34 144.11 268.83C144.24 268.32 144.38 267.82 144.53 267.32C144.68 266.82 144.81 266.38 144.93 265.99C145.16 265.28 145.4 264.54 145.65 263.78C145.91 263.02 146.18 262.26 146.46 261.5C146.75 260.74 147.05 260 147.37 259.27C147.69 258.54 148.03 257.85 148.4 257.19C148.51 256.98 148.62 256.77 148.74 256.57C148.86 256.37 148.99 256.18 149.14 255.99C149.22 255.88 149.31 255.78 149.42 255.69C149.53 255.6 149.66 255.55 149.8 255.55C149.87 255.55 149.96 255.59 150.07 255.66C150.18 255.73 150.29 255.82 150.4 255.92C150.51 256.02 150.61 256.12 150.7 256.21C150.79 256.3 150.86 256.38 150.9 256.43C150.91 256.44 150.95 256.49 151.02 256.58C151.09 256.67 151.15 256.76 151.21 256.85C151.27 256.94 151.31 257.03 151.33 257.11C151.35 257.19 151.33 257.23 151.24 257.23C151.05 257.28 150.85 257.46 150.63 257.77C150.41 258.08 150.2 258.42 150 258.78C149.8 259.15 149.62 259.51 149.46 259.88C149.3 260.24 149.18 260.5 149.1 260.66C148.42 262.19 147.8 263.74 147.26 265.31C146.72 266.88 146.23 268.48 145.8 270.1C145.69 270.5 145.6 270.9 145.51 271.31C145.42 271.71 145.35 272.11 145.28 272.52C147.21 271.96 149.19 271.68 151.21 271.68C151.53 271.68 151.88 271.69 152.25 271.72C152.62 271.75 152.98 271.79 153.35 271.86C153.71 271.93 154.06 272.03 154.4 272.16C154.73 272.29 155.02 272.47 155.26 272.68L155.24 272.7Z" fill="black"/>
<path d="M160.37 264.9C160.44 264.87 160.5 264.86 160.57 264.86C160.66 264.86 160.75 264.89 160.82 264.95C160.89 265.01 160.95 265.08 160.99 265.16C161.03 265.24 161.05 265.32 161.06 265.4C161.06 265.48 161.06 265.55 161.01 265.6C160.97 265.65 160.82 265.85 160.55 266.19C160.28 266.53 159.94 266.94 159.52 267.41C159.1 267.88 158.64 268.38 158.11 268.91C157.59 269.44 157.06 269.92 156.51 270.37C155.97 270.81 155.44 271.18 154.92 271.46C154.4 271.75 153.94 271.89 153.52 271.87C153.02 271.86 152.62 271.75 152.3 271.55C151.98 271.35 151.73 271.11 151.56 270.83C151.37 270.56 151.24 270.27 151.17 269.97C151.1 269.66 151.07 269.39 151.08 269.17C151.12 268.53 151.28 267.81 151.55 267.01C151.82 266.21 152.19 265.47 152.66 264.77C153.12 264.07 153.66 263.49 154.27 263.01C154.88 262.53 155.53 262.3 156.23 262.3C156.42 262.3 156.64 262.36 156.88 262.47C157.13 262.58 157.37 262.73 157.6 262.9C157.83 263.07 158.05 263.26 158.24 263.46C158.43 263.66 158.57 263.84 158.65 264C158.74 264.17 158.79 264.36 158.78 264.55C158.78 264.74 158.74 264.94 158.67 265.12C158.58 265.44 158.43 265.76 158.23 266.08C158.03 266.4 157.79 266.69 157.53 266.95C157.26 267.21 156.96 267.42 156.63 267.58C156.29 267.74 155.95 267.82 155.58 267.82C155.26 267.82 154.94 267.73 154.63 267.54C154.32 267.35 154.05 267.16 153.81 266.96C153.57 267.43 153.36 267.91 153.18 268.41C153 268.91 152.88 269.41 152.81 269.94C152.78 270.15 152.84 270.32 152.97 270.42C153.1 270.52 153.25 270.58 153.41 270.58C153.72 270.58 154.09 270.45 154.54 270.18C154.98 269.91 155.45 269.58 155.94 269.18C156.43 268.78 156.92 268.34 157.41 267.87C157.9 267.4 158.34 266.96 158.74 266.54C159.13 266.13 159.46 265.78 159.72 265.49C159.98 265.2 160.13 265.05 160.15 265.03C160.22 264.96 160.29 264.92 160.37 264.89V264.9ZM154.1 266.49C154.42 266.49 154.74 266.4 155.06 266.23C155.37 266.06 155.65 265.84 155.92 265.58C156.18 265.32 156.41 265.03 156.6 264.71C156.79 264.39 156.93 264.09 157.01 263.81C156.37 264.04 155.8 264.4 155.32 264.91C154.84 265.41 154.43 265.95 154.09 266.51L154.1 266.49Z" fill="black"/>
<path d="M165.73 262.47C165.73 262.47 165.79 262.57 165.82 262.65C165.85 262.73 165.89 262.82 165.93 262.92C165.97 263.02 166 263.11 166.02 263.2C166.04 263.29 166.04 263.36 166.03 263.41C166 263.49 165.97 263.54 165.93 263.56C165.89 263.58 165.84 263.59 165.77 263.59C165.45 263.59 165.09 263.63 164.68 263.71C164.26 263.79 163.86 263.9 163.46 264.05C163.06 264.2 162.69 264.39 162.35 264.61C162.01 264.84 161.77 265.11 161.61 265.41C161.58 265.48 161.56 265.55 161.53 265.64C161.5 265.73 161.51 265.86 161.56 266.04C161.61 266.22 161.71 266.46 161.87 266.74C162.03 267.03 162.28 267.41 162.61 267.88C162.88 267.69 163.21 267.47 163.61 267.21C164.01 266.95 164.4 266.69 164.79 266.44C165.17 266.19 165.51 265.96 165.8 265.77C166.09 265.58 166.28 265.45 166.34 265.4C166.43 265.33 166.54 265.3 166.66 265.3H166.68C166.83 265.31 166.92 265.39 166.97 265.53C167.02 265.67 166.97 265.79 166.86 265.88C166.23 266.36 165.6 266.8 164.98 267.2C164.36 267.6 163.72 268.04 163.08 268.54C163.27 268.78 163.46 269.03 163.64 269.28C163.83 269.53 163.99 269.8 164.14 270.06C164.21 270.18 164.27 270.33 164.33 270.52C164.39 270.71 164.42 270.92 164.41 271.15C164.41 271.38 164.35 271.64 164.24 271.9C164.13 272.17 163.95 272.44 163.68 272.7C163.49 272.89 163.24 273.09 162.91 273.31C162.58 273.53 162.23 273.74 161.86 273.92C161.49 274.1 161.11 274.26 160.73 274.38C160.35 274.5 160.03 274.56 159.75 274.56C159.52 274.56 159.31 274.52 159.12 274.43C158.93 274.34 158.73 274.21 158.55 274.04L158.23 273.74C158.12 273.62 158.02 273.49 157.93 273.35C157.84 273.21 157.77 273.06 157.74 272.91C157.71 272.76 157.72 272.6 157.79 272.44C157.88 272.18 158.04 271.94 158.25 271.7C158.52 271.38 158.81 271.07 159.12 270.79C159.43 270.5 159.74 270.22 160.05 269.96C160.33 269.71 160.62 269.47 160.9 269.25C161.19 269.03 161.49 268.8 161.79 268.58C161.7 268.46 161.58 268.3 161.45 268.11C161.32 267.92 161.18 267.72 161.04 267.52C160.9 267.32 160.77 267.12 160.64 266.92C160.51 266.72 160.41 266.54 160.33 266.4C160.06 265.94 159.93 265.52 159.94 265.12C159.94 264.73 160.03 264.35 160.19 263.98C160.35 263.63 160.58 263.31 160.87 263.02C161.16 262.73 161.5 262.47 161.86 262.26C162.22 262.05 162.61 261.87 163.02 261.75C163.42 261.62 163.8 261.56 164.16 261.56C164.55 261.56 164.85 261.63 165.06 261.76C165.27 261.89 165.49 262.14 165.7 262.48L165.73 262.47ZM158.42 272.74C158.74 272.7 159.14 272.61 159.63 272.47C160.12 272.33 160.58 272.15 161.04 271.92C161.5 271.69 161.89 271.42 162.22 271.11C162.55 270.8 162.73 270.45 162.77 270.07C162.77 270 162.75 269.93 162.72 269.85C162.69 269.77 162.65 269.69 162.6 269.6C162.55 269.51 162.5 269.43 162.45 269.36C162.4 269.29 162.36 269.24 162.33 269.21C161.49 269.97 160.73 270.65 160.07 271.23C159.41 271.81 158.86 272.32 158.43 272.75L158.42 272.74Z" fill="black"/>
<path d="M188.32 264.88C188.79 264.73 189.21 264.6 189.6 264.47C189.98 264.34 190.32 264.23 190.61 264.12C191.2 263.93 191.63 263.84 191.9 263.84C192.26 263.84 192.46 264.03 192.5 264.4C192.5 264.45 192.33 264.53 192 264.62C191.57 264.75 191.15 264.88 190.73 265.01C190.31 265.14 189.9 265.25 189.48 265.36C189.25 265.43 189.05 265.49 188.89 265.54C188.72 265.59 188.58 265.64 188.48 265.68C188.52 266.16 188.46 266.64 188.3 267.13C188.1 267.69 187.79 268.27 187.39 268.85C186.98 269.43 186.5 269.99 185.95 270.52C185.4 271.05 184.8 271.54 184.16 272.01C183.52 272.47 182.85 272.88 182.17 273.23C181.49 273.58 180.8 273.85 180.11 274.04C179.42 274.23 178.76 274.33 178.13 274.33C177.22 274.33 176.51 274.13 176.02 273.74C175.53 273.35 175.14 272.74 174.86 271.92C174.81 271.77 174.81 271.62 174.88 271.46C174.92 271.35 175.01 271.24 175.15 271.11C175.29 270.98 175.44 270.86 175.61 270.74C175.78 270.62 175.95 270.51 176.11 270.4C176.28 270.29 176.41 270.21 176.5 270.16C176.27 269.96 176.05 269.68 175.82 269.34C175.59 268.99 175.45 268.66 175.38 268.36C175.34 268.13 175.33 267.93 175.34 267.76C175.37 267.41 175.45 267 175.58 266.51C175.71 266.03 175.88 265.52 176.09 264.98C176.3 264.44 176.54 263.89 176.8 263.33C177.07 262.77 177.34 262.22 177.61 261.68C177.88 261.14 178.16 260.65 178.44 260.18C178.72 259.72 178.98 259.33 179.2 259C179.24 258.93 179.29 258.86 179.36 258.77C179.43 258.68 179.5 258.59 179.58 258.5C179.66 258.41 179.74 258.33 179.83 258.27C179.92 258.21 180 258.18 180.08 258.18C180.21 258.18 180.34 258.24 180.47 258.36C180.6 258.48 180.7 258.59 180.78 258.68C180.83 258.75 180.89 258.82 180.94 258.89C180.99 258.96 181.05 259.03 181.1 259.1C181.15 259.17 181.19 259.23 181.22 259.29C181.25 259.35 181.27 259.4 181.3 259.44C181.31 259.47 181.33 259.5 181.36 259.54C181.39 259.58 181.41 259.63 181.44 259.68C181.49 259.79 181.51 259.88 181.48 259.96C181.45 260.03 181.42 260.06 181.38 260.06C181.35 260.06 181.33 260.06 181.32 260.04C181.24 260.08 181.13 260.17 181 260.32C180.87 260.47 180.74 260.63 180.61 260.81C180.48 260.99 180.37 261.16 180.26 261.32C180.15 261.48 180.08 261.6 180.04 261.68C180.51 261.45 181.09 261.13 181.78 260.73C182.47 260.33 183.16 259.87 183.85 259.36C184.54 258.86 185.17 258.34 185.73 257.8C186.29 257.26 186.67 256.75 186.87 256.25C186.94 256.06 186.94 255.9 186.87 255.77C186.8 255.62 186.68 255.51 186.51 255.43C186.34 255.35 186.14 255.29 185.93 255.25C185.71 255.21 185.5 255.18 185.3 255.17C185.09 255.16 184.92 255.15 184.77 255.15C184.02 255.15 183.2 255.24 182.3 255.43C181.4 255.62 180.5 255.89 179.59 256.24C178.68 256.59 177.8 257.03 176.95 257.54C176.1 258.05 175.34 258.63 174.68 259.28C174.02 259.93 173.48 260.64 173.08 261.42C172.68 262.2 172.48 263.03 172.48 263.91C172.49 263.96 172.5 264.01 172.5 264.06V264.19C172.5 264.31 172.5 264.4 172.52 264.45C172.52 264.61 172.48 264.69 172.4 264.69C172.31 264.69 172.19 264.62 172.04 264.49C171.89 264.36 171.76 264.19 171.63 264.01C171.5 263.83 171.39 263.63 171.3 263.44C171.21 263.25 171.16 263.09 171.16 262.97C171.15 262.88 171.14 262.79 171.13 262.7C171.13 262.61 171.13 262.52 171.13 262.43C171.13 261.48 171.32 260.6 171.69 259.79C172.06 258.98 172.57 258.24 173.21 257.57C173.85 256.9 174.58 256.31 175.41 255.79C176.24 255.27 177.11 254.84 178.02 254.49C178.93 254.14 179.85 253.88 180.79 253.7C181.73 253.52 182.61 253.43 183.44 253.43C184.49 253.43 185.37 253.62 186.11 254C186.85 254.38 187.45 255.04 187.92 255.98C188.07 256.29 188.17 256.62 188.24 256.97C188.28 257.22 188.28 257.47 188.24 257.71C188.16 258.11 187.98 258.51 187.69 258.92C187.4 259.32 187.07 259.7 186.7 260.07C186.33 260.43 185.93 260.76 185.51 261.07C185.09 261.37 184.73 261.62 184.4 261.82C185.36 261.9 186.18 262.2 186.85 262.72C187.52 263.24 188.01 263.97 188.32 264.89V264.88ZM177.11 272.36C177.91 272.36 178.77 272.19 179.67 271.84C180.57 271.49 181.45 271.04 182.31 270.47C183.17 269.91 183.96 269.28 184.67 268.58C185.38 267.88 185.96 267.19 186.39 266.49C185.68 266.78 184.88 267.15 183.98 267.58C183.08 268.01 182.18 268.48 181.29 269C180.39 269.52 179.54 270.06 178.75 270.62C177.95 271.18 177.29 271.76 176.77 272.35C176.81 272.36 176.87 272.37 176.95 272.37H177.11V272.36ZM187.1 264.72C187.15 264.47 187.15 264.22 187.08 264C186.93 263.64 186.68 263.41 186.33 263.32C185.98 263.23 185.63 263.18 185.29 263.18C184.71 263.18 184.13 263.24 183.53 263.35C182.93 263.46 182.34 263.61 181.74 263.79C181.14 263.97 180.55 264.17 179.97 264.38C179.39 264.59 178.83 264.81 178.29 265.02C178.13 265.34 177.96 265.7 177.79 266.08C177.62 266.47 177.46 266.86 177.32 267.27C177.18 267.67 177.06 268.07 176.97 268.48C176.88 268.88 176.82 269.27 176.81 269.65L176.93 269.83C176.93 269.83 176.95 269.88 176.95 269.89C178.53 268.98 180.16 268.15 181.83 267.42C183.5 266.68 185.2 266 186.91 265.37C186.99 265.17 187.05 264.96 187.09 264.73L187.1 264.72ZM193.1 265.02C193.1 265.02 193.03 265.02 193.02 265C193.03 265 193.04 265 193.05 265C193.05 265 193.07 265.01 193.1 265.01V265.02Z" fill="black"/>
<path d="M197.79 270.27C197.45 270.75 197.11 271.15 196.74 271.47C196.37 271.79 196 271.94 195.61 271.94C195.38 271.94 195.17 271.89 194.98 271.79C194.79 271.69 194.61 271.56 194.46 271.4C194.3 271.24 194.17 271.06 194.07 270.86C193.96 270.66 193.88 270.46 193.83 270.26C193.76 270.02 193.74 269.79 193.76 269.59C193.78 269.38 193.78 269.2 193.75 269.04C193.67 269.15 193.54 269.36 193.36 269.67C193.18 269.99 192.98 270.31 192.77 270.63C192.56 270.96 192.34 271.26 192.12 271.52C191.9 271.78 191.71 271.92 191.55 271.92C191.35 271.92 191.13 271.85 190.89 271.71C190.65 271.57 190.42 271.4 190.21 271.2C190 271 189.81 270.78 189.64 270.55C189.47 270.32 189.36 270.1 189.31 269.92C189.23 269.65 189.2 269.38 189.22 269.11C189.24 268.84 189.27 268.56 189.31 268.3C189.36 268.01 189.45 267.66 189.56 267.28C189.67 266.9 189.82 266.48 189.99 266.05C190.16 265.62 190.37 265.2 190.6 264.79C190.83 264.38 191.09 264.01 191.37 263.69C191.65 263.36 191.96 263.1 192.28 262.91C192.61 262.72 192.96 262.62 193.33 262.62C193.68 262.62 194.01 262.72 194.31 262.91C194.62 263.1 194.89 263.32 195.13 263.54C195.16 263.49 195.19 263.4 195.22 263.29C195.25 263.18 195.29 263.07 195.32 262.96C195.35 262.85 195.38 262.76 195.41 262.67C195.44 262.58 195.46 262.54 195.47 262.54H195.51C195.58 262.54 195.71 262.57 195.92 262.63C196.13 262.69 196.34 262.78 196.56 262.89C196.78 263 196.97 263.14 197.13 263.3C197.29 263.46 197.36 263.64 197.33 263.84C197.33 263.85 197.28 263.99 197.18 264.24C197.08 264.49 196.96 264.82 196.82 265.21C196.68 265.61 196.53 266.04 196.39 266.53C196.25 267.02 196.12 267.49 196.02 267.95C195.92 268.41 195.86 268.84 195.83 269.24C195.8 269.63 195.84 269.94 195.95 270.15C196.03 270.27 196.11 270.33 196.19 270.33C196.36 270.33 196.57 270.17 196.81 269.85C197.05 269.53 197.31 269.12 197.6 268.62C197.89 268.12 198.17 267.57 198.46 266.97C198.75 266.37 199.04 265.78 199.3 265.22C199.34 265.13 199.4 265.06 199.47 265.03C199.54 265 199.61 264.98 199.68 264.98C199.81 264.98 199.93 265.02 200.03 265.09C200.13 265.16 200.17 265.23 200.14 265.3C200.13 265.34 200.06 265.53 199.93 265.88C199.8 266.23 199.64 266.65 199.43 267.14C199.22 267.63 198.98 268.15 198.7 268.72C198.42 269.28 198.11 269.81 197.77 270.29L197.79 270.27ZM191.48 269.4C191.75 269.24 192.08 268.96 192.46 268.55C192.85 268.14 193.26 267.59 193.7 266.89C194.14 266.19 194.53 265.3 194.88 264.2C194.52 264.21 194.18 264.32 193.86 264.52C193.54 264.72 193.25 264.98 192.99 265.29C192.72 265.61 192.48 265.96 192.26 266.36C192.04 266.76 191.85 267.15 191.69 267.56C191.53 267.96 191.39 268.35 191.27 268.74C191.15 269.12 191.06 269.45 191.01 269.73C191.05 269.69 191.21 269.58 191.49 269.41L191.48 269.4Z" fill="black"/>
<path d="M207.23 262.65L207.53 262.97C207.53 262.97 207.6 263.05 207.66 263.13C207.72 263.21 207.78 263.3 207.83 263.39C207.88 263.48 207.92 263.57 207.93 263.64C207.94 263.71 207.91 263.75 207.83 263.75C207.8 263.76 207.77 263.77 207.73 263.77C207.46 263.86 207.21 264.02 206.99 264.25C206.76 264.48 206.56 264.69 206.39 264.89C206.16 265.16 205.95 265.44 205.75 265.72C205.55 266.01 205.35 266.3 205.15 266.59C204.72 267.23 204.29 267.87 203.86 268.51C203.43 269.15 202.98 269.77 202.49 270.37C202.41 270.48 202.29 270.62 202.14 270.8C201.99 270.98 201.82 271.15 201.64 271.32C201.46 271.49 201.28 271.63 201.1 271.75C200.92 271.87 200.75 271.93 200.59 271.93C200.38 271.93 200.17 271.86 199.97 271.73C199.77 271.6 199.6 271.47 199.45 271.35C199.06 271.01 198.76 270.68 198.56 270.34C198.35 270 198.23 269.57 198.21 269.04C198.18 268.68 198.21 268.31 198.26 267.95C198.32 267.58 198.39 267.22 198.47 266.87C198.58 266.44 198.7 266.02 198.83 265.6C198.96 265.18 199.1 264.78 199.25 264.37C199.28 264.3 199.34 264.15 199.44 263.91C199.54 263.67 199.65 263.42 199.77 263.17C199.89 262.92 200.01 262.69 200.12 262.49C200.23 262.29 200.31 262.19 200.35 262.19C200.46 262.19 200.58 262.24 200.73 262.34C200.88 262.44 201.02 262.56 201.17 262.69C201.32 262.82 201.45 262.96 201.56 263.09C201.67 263.22 201.75 263.33 201.79 263.41L201.89 263.59C201.92 263.66 201.91 263.72 201.87 263.79C201.63 264.19 201.4 264.65 201.17 265.17C200.94 265.69 200.73 266.22 200.55 266.77C200.36 267.32 200.2 267.87 200.08 268.42C199.95 268.97 199.88 269.48 199.85 269.95C200.01 269.82 200.16 269.68 200.3 269.53C200.44 269.38 200.57 269.24 200.69 269.09C201.25 268.41 201.77 267.7 202.25 266.98C202.72 266.26 203.21 265.53 203.71 264.81C203.94 264.49 204.16 264.17 204.39 263.85C204.62 263.54 204.87 263.24 205.13 262.96C205.29 262.77 205.48 262.6 205.69 262.43C205.9 262.26 206.15 262.17 206.41 262.14C206.49 262.13 206.57 262.15 206.66 262.22C206.75 262.29 206.82 262.34 206.89 262.38C207.01 262.46 207.13 262.55 207.23 262.64V262.65Z" fill="black"/>
<path d="M215.17 270.27C214.83 270.75 214.49 271.15 214.12 271.47C213.75 271.79 213.38 271.94 212.99 271.94C212.76 271.94 212.55 271.89 212.36 271.79C212.17 271.69 211.99 271.56 211.84 271.4C211.68 271.24 211.55 271.06 211.45 270.86C211.34 270.66 211.26 270.46 211.21 270.26C211.14 270.02 211.12 269.79 211.14 269.59C211.16 269.38 211.16 269.2 211.13 269.04C211.05 269.15 210.92 269.36 210.74 269.67C210.56 269.99 210.36 270.31 210.15 270.63C209.94 270.96 209.72 271.26 209.5 271.52C209.28 271.78 209.09 271.92 208.93 271.92C208.73 271.92 208.51 271.85 208.27 271.71C208.03 271.57 207.8 271.4 207.59 271.2C207.38 271 207.19 270.78 207.02 270.55C206.85 270.32 206.74 270.1 206.69 269.92C206.61 269.65 206.58 269.38 206.6 269.11C206.62 268.84 206.65 268.56 206.69 268.3C206.74 268.01 206.83 267.66 206.94 267.28C207.05 266.9 207.2 266.48 207.37 266.05C207.54 265.62 207.75 265.2 207.98 264.79C208.21 264.38 208.47 264.01 208.75 263.69C209.03 263.36 209.34 263.1 209.66 262.91C209.99 262.72 210.34 262.62 210.71 262.62C211.06 262.62 211.39 262.72 211.69 262.91C212 263.1 212.27 263.32 212.51 263.54C212.54 263.49 212.57 263.4 212.6 263.29C212.63 263.18 212.67 263.07 212.7 262.96C212.73 262.85 212.76 262.76 212.79 262.67C212.82 262.58 212.84 262.54 212.85 262.54H212.89C212.96 262.54 213.09 262.57 213.3 262.63C213.51 262.69 213.72 262.78 213.94 262.89C214.16 263 214.35 263.14 214.51 263.3C214.67 263.46 214.74 263.64 214.71 263.84C214.71 263.85 214.66 263.99 214.56 264.24C214.46 264.49 214.34 264.82 214.2 265.21C214.06 265.61 213.91 266.04 213.77 266.53C213.63 267.02 213.5 267.49 213.4 267.95C213.3 268.41 213.24 268.84 213.21 269.24C213.18 269.63 213.22 269.94 213.33 270.15C213.41 270.27 213.49 270.33 213.57 270.33C213.74 270.33 213.95 270.17 214.19 269.85C214.43 269.53 214.69 269.12 214.98 268.62C215.27 268.12 215.55 267.57 215.84 266.97C216.13 266.37 216.42 265.78 216.68 265.22C216.72 265.13 216.78 265.06 216.85 265.03C216.92 265 216.99 264.98 217.06 264.98C217.19 264.98 217.31 265.02 217.41 265.09C217.51 265.16 217.55 265.23 217.52 265.3C217.51 265.34 217.44 265.53 217.31 265.88C217.18 266.23 217.02 266.65 216.81 267.14C216.6 267.63 216.36 268.15 216.08 268.72C215.8 269.28 215.49 269.81 215.15 270.29L215.17 270.27ZM208.86 269.4C209.13 269.24 209.46 268.96 209.84 268.55C210.23 268.14 210.64 267.59 211.08 266.89C211.52 266.19 211.91 265.3 212.26 264.2C211.9 264.21 211.56 264.32 211.24 264.52C210.92 264.72 210.63 264.98 210.37 265.29C210.1 265.61 209.86 265.96 209.64 266.36C209.42 266.76 209.23 267.15 209.07 267.56C208.91 267.96 208.77 268.35 208.65 268.74C208.53 269.12 208.44 269.45 208.39 269.73C208.43 269.69 208.59 269.58 208.87 269.41L208.86 269.4Z" fill="black"/>
<path d="M214.97 270.57C215.2 269.14 215.54 267.72 215.99 266.31C216.44 264.9 216.96 263.54 217.55 262.21C217.62 262.05 217.73 261.97 217.89 261.97C217.97 261.97 218.04 261.99 218.09 262.03C218.32 262.22 218.52 262.4 218.69 262.57C218.84 262.72 218.97 262.87 219.09 263.01C219.21 263.15 219.26 263.27 219.23 263.35C219.16 263.62 219.07 263.92 218.95 264.26C218.83 264.6 218.73 264.87 218.65 265.07C218.58 265.24 218.53 265.39 218.5 265.5C218.47 265.61 218.44 265.71 218.41 265.79C218.4 265.87 218.39 265.94 218.39 265.99C218.89 265.19 219.34 264.46 219.76 263.82C219.95 263.54 220.13 263.26 220.31 263C220.49 262.73 220.66 262.49 220.82 262.28C220.98 262.07 221.12 261.89 221.24 261.74C221.36 261.59 221.45 261.5 221.52 261.46C221.64 261.39 221.77 261.33 221.9 261.27C222.03 261.21 222.17 261.18 222.32 261.18C222.55 261.18 222.76 261.23 222.96 261.34C223.16 261.45 223.34 261.57 223.5 261.72C223.62 261.83 223.68 261.99 223.67 262.21C223.67 262.43 223.62 262.68 223.55 262.96C223.48 263.24 223.39 263.54 223.28 263.84C223.17 264.15 223.08 264.45 223 264.73C222.92 265.01 222.87 265.28 222.85 265.51C222.83 265.74 222.87 265.93 222.98 266.06C222.52 265.99 222.14 265.89 221.81 265.76C221.54 265.63 221.31 265.45 221.12 265.23C220.93 265.01 220.88 264.72 220.99 264.38C221.11 264.02 221.24 263.73 221.37 263.52C221.5 263.31 221.56 263.2 221.53 263.2L221.51 263.22C221.51 263.22 221.48 263.22 221.47 263.24C221.04 263.63 220.55 264.2 220 264.96C219.45 265.72 218.87 266.73 218.27 268L217.61 269.51C217.46 269.86 217.33 270.21 217.2 270.57C217.07 270.93 216.94 271.31 216.79 271.7C216.79 271.69 216.79 271.7 216.77 271.75C216.75 271.8 216.73 271.85 216.69 271.91C216.65 271.97 216.61 272.02 216.56 272.07C216.51 272.12 216.46 272.14 216.41 272.14C216.32 272.14 216.21 272.1 216.09 272.02C215.97 271.94 215.85 271.84 215.73 271.73C215.61 271.62 215.5 271.5 215.4 271.39C215.3 271.28 215.22 271.18 215.17 271.1C215.13 271.03 215.08 270.95 215.03 270.85C214.98 270.75 214.96 270.65 214.97 270.56V270.57Z" fill="black"/>
<path d="M229.78 275.51C229.59 275.51 229.4 275.45 229.22 275.33C228.78 275.08 228.43 274.73 228.17 274.29C227.91 273.85 227.72 273.4 227.6 272.91C227.49 272.47 227.44 272.01 227.44 271.54C227.44 271.07 227.47 270.61 227.52 270.15C227.53 270.04 227.55 269.94 227.56 269.84C227.57 269.74 227.59 269.64 227.6 269.53C227.45 269.74 227.27 269.99 227.04 270.25C226.81 270.52 226.56 270.77 226.3 271.01C226.03 271.25 225.75 271.45 225.47 271.61C225.18 271.77 224.9 271.85 224.64 271.85C224.38 271.85 224.09 271.78 223.85 271.63C223.6 271.48 223.38 271.29 223.18 271.07C222.98 270.84 222.81 270.59 222.68 270.32C222.55 270.05 222.47 269.78 222.44 269.53C222.39 269.1 222.42 268.67 222.53 268.23C222.64 267.79 222.78 267.38 222.92 266.99C223.03 266.71 223.17 266.38 223.34 266C223.51 265.63 223.72 265.24 223.95 264.83C224.18 264.43 224.44 264.03 224.72 263.63C225 263.23 225.3 262.88 225.6 262.57C225.9 262.26 226.22 262.01 226.55 261.82C226.88 261.63 227.2 261.53 227.52 261.53C227.72 261.53 227.93 261.57 228.14 261.66C228.35 261.75 228.56 261.86 228.74 262C228.93 262.14 229.09 262.3 229.23 262.47C229.37 262.64 229.47 262.82 229.54 263.01C229.62 262.82 229.76 262.53 229.95 262.15C230.14 261.76 230.37 261.32 230.62 260.83C230.87 260.34 231.15 259.84 231.45 259.32C231.75 258.8 232.05 258.33 232.34 257.9C232.63 257.47 232.92 257.12 233.19 256.85C233.46 256.58 233.7 256.44 233.88 256.44C234.01 256.44 234.15 256.48 234.3 256.57C234.45 256.66 234.58 256.76 234.71 256.88C234.84 257 234.95 257.13 235.05 257.27C235.15 257.41 235.22 257.54 235.26 257.66C235.29 257.71 235.31 257.8 235.32 257.91C235.33 258.02 235.31 258.1 235.24 258.14C235.11 258.22 234.97 258.33 234.82 258.48C234.67 258.63 234.53 258.78 234.4 258.95C234.27 259.12 234.14 259.29 234.02 259.45C233.9 259.62 233.8 259.76 233.72 259.88C233.16 260.71 232.61 261.64 232.08 262.66C231.55 263.68 231.08 264.74 230.66 265.84C230.24 266.93 229.9 268.02 229.63 269.12C229.36 270.21 229.2 271.25 229.15 272.22C229.15 272.5 229.16 272.78 229.19 273.06C229.22 273.34 229.25 273.62 229.29 273.9C229.32 273.94 229.33 273.98 229.34 274.02C229.34 274.06 229.36 274.09 229.37 274.12C229.52 274.25 229.64 274.4 229.75 274.57C229.86 274.74 229.92 274.92 229.95 275.1C229.96 275.17 229.95 275.23 229.93 275.3C229.9 275.37 229.84 275.41 229.75 275.44L229.78 275.51ZM224.07 270.73V270.79C224.07 270.79 224.09 270.81 224.09 270.82C224.09 270.83 224.09 270.84 224.11 270.85C224.19 270.92 224.3 270.95 224.43 270.95C224.66 270.95 224.92 270.83 225.22 270.59C225.52 270.35 225.84 270.02 226.17 269.62C226.51 269.21 226.85 268.74 227.21 268.19C227.56 267.65 227.92 267.08 228.26 266.49C228.41 266.01 228.56 265.53 228.73 265.05C228.9 264.57 229.08 264.1 229.28 263.63C229.12 263.6 228.98 263.54 228.86 263.45C228.83 263.44 228.8 263.43 228.76 263.43H228.74C228.53 263.43 228.34 263.46 228.2 263.53C227.72 263.74 227.24 264.13 226.76 264.69C226.28 265.25 225.85 265.86 225.45 266.53C225.05 267.2 224.73 267.88 224.48 268.57C224.22 269.26 224.08 269.86 224.04 270.37V270.67C224.04 270.67 224.04 270.72 224.06 270.73H224.07Z" fill="black"/>
<path d="M240.23 264.9C240.3 264.87 240.36 264.86 240.43 264.86C240.52 264.86 240.61 264.89 240.68 264.95C240.75 265.01 240.81 265.08 240.85 265.16C240.89 265.24 240.91 265.32 240.92 265.4C240.92 265.48 240.92 265.55 240.87 265.6C240.83 265.65 240.68 265.85 240.41 266.19C240.14 266.53 239.8 266.94 239.38 267.41C238.96 267.88 238.5 268.38 237.97 268.91C237.45 269.44 236.92 269.92 236.37 270.37C235.83 270.81 235.3 271.18 234.78 271.46C234.26 271.75 233.8 271.89 233.38 271.87C232.88 271.86 232.48 271.75 232.16 271.55C231.84 271.35 231.59 271.11 231.42 270.83C231.23 270.56 231.1 270.27 231.03 269.97C230.96 269.66 230.93 269.39 230.94 269.17C230.98 268.53 231.14 267.81 231.41 267.01C231.68 266.21 232.05 265.47 232.52 264.77C232.98 264.07 233.52 263.49 234.13 263.01C234.74 262.53 235.39 262.3 236.09 262.3C236.28 262.3 236.5 262.36 236.74 262.47C236.99 262.58 237.23 262.73 237.46 262.9C237.69 263.07 237.91 263.26 238.1 263.46C238.29 263.66 238.43 263.84 238.51 264C238.6 264.17 238.65 264.36 238.64 264.55C238.64 264.74 238.6 264.94 238.53 265.12C238.44 265.44 238.29 265.76 238.09 266.08C237.89 266.4 237.65 266.69 237.39 266.95C237.12 267.21 236.82 267.42 236.49 267.58C236.15 267.74 235.81 267.82 235.44 267.82C235.12 267.82 234.8 267.73 234.49 267.54C234.18 267.35 233.91 267.16 233.67 266.96C233.43 267.43 233.22 267.91 233.04 268.41C232.86 268.91 232.74 269.41 232.67 269.94C232.64 270.15 232.7 270.32 232.83 270.42C232.96 270.52 233.11 270.58 233.27 270.58C233.58 270.58 233.95 270.45 234.4 270.18C234.84 269.91 235.31 269.58 235.8 269.18C236.29 268.78 236.78 268.34 237.27 267.87C237.76 267.4 238.2 266.96 238.6 266.54C238.99 266.13 239.32 265.78 239.58 265.49C239.84 265.2 239.99 265.05 240.01 265.03C240.08 264.96 240.15 264.92 240.23 264.89V264.9ZM233.96 266.49C234.28 266.49 234.6 266.4 234.92 266.23C235.23 266.06 235.51 265.84 235.78 265.58C236.04 265.32 236.27 265.03 236.46 264.71C236.65 264.39 236.79 264.09 236.87 263.81C236.23 264.04 235.66 264.4 235.18 264.91C234.7 265.41 234.29 265.95 233.95 266.51L233.96 266.49Z" fill="black"/>
<path d="M245.59 262.47C245.59 262.47 245.65 262.57 245.68 262.65C245.71 262.73 245.75 262.82 245.79 262.92C245.83 263.02 245.86 263.11 245.88 263.2C245.9 263.29 245.9 263.36 245.89 263.41C245.86 263.49 245.83 263.54 245.79 263.56C245.75 263.58 245.7 263.59 245.63 263.59C245.31 263.59 244.95 263.63 244.54 263.71C244.12 263.79 243.72 263.9 243.32 264.05C242.92 264.2 242.55 264.39 242.21 264.61C241.87 264.84 241.63 265.11 241.47 265.41C241.44 265.48 241.42 265.55 241.39 265.64C241.36 265.73 241.37 265.86 241.42 266.04C241.47 266.22 241.57 266.46 241.73 266.74C241.89 267.03 242.14 267.41 242.47 267.88C242.74 267.69 243.07 267.47 243.47 267.21C243.87 266.95 244.26 266.69 244.65 266.44C245.03 266.19 245.37 265.96 245.66 265.77C245.95 265.58 246.14 265.45 246.2 265.4C246.29 265.33 246.4 265.3 246.52 265.3H246.54C246.69 265.31 246.78 265.39 246.83 265.53C246.88 265.67 246.83 265.79 246.72 265.88C246.09 266.36 245.46 266.8 244.84 267.2C244.22 267.6 243.58 268.04 242.94 268.54C243.13 268.78 243.32 269.03 243.5 269.28C243.69 269.53 243.85 269.8 244 270.06C244.07 270.18 244.13 270.33 244.19 270.52C244.25 270.71 244.28 270.92 244.27 271.15C244.27 271.38 244.21 271.64 244.1 271.9C243.99 272.17 243.81 272.44 243.54 272.7C243.35 272.89 243.1 273.09 242.77 273.31C242.44 273.53 242.09 273.74 241.72 273.92C241.35 274.1 240.97 274.26 240.59 274.38C240.21 274.5 239.89 274.56 239.61 274.56C239.38 274.56 239.17 274.52 238.98 274.43C238.79 274.34 238.59 274.21 238.41 274.04L238.09 273.74C237.98 273.62 237.88 273.49 237.79 273.35C237.7 273.21 237.63 273.06 237.6 272.91C237.57 272.76 237.58 272.6 237.65 272.44C237.74 272.18 237.9 271.94 238.11 271.7C238.38 271.38 238.67 271.07 238.98 270.79C239.29 270.5 239.6 270.22 239.91 269.96C240.19 269.71 240.48 269.47 240.76 269.25C241.05 269.03 241.35 268.8 241.65 268.58C241.56 268.46 241.44 268.3 241.31 268.11C241.18 267.92 241.04 267.72 240.9 267.52C240.76 267.32 240.63 267.12 240.5 266.92C240.37 266.72 240.27 266.54 240.19 266.4C239.92 265.94 239.79 265.52 239.8 265.12C239.8 264.73 239.89 264.35 240.05 263.98C240.21 263.63 240.44 263.31 240.73 263.02C241.02 262.73 241.36 262.47 241.72 262.26C242.08 262.05 242.47 261.87 242.88 261.75C243.28 261.62 243.66 261.56 244.02 261.56C244.41 261.56 244.71 261.63 244.92 261.76C245.13 261.89 245.35 262.14 245.56 262.48L245.59 262.47ZM238.28 272.74C238.6 272.7 239 272.61 239.49 272.47C239.98 272.33 240.44 272.15 240.9 271.92C241.36 271.69 241.75 271.42 242.08 271.11C242.41 270.8 242.59 270.45 242.63 270.07C242.63 270 242.61 269.93 242.58 269.85C242.55 269.77 242.51 269.69 242.46 269.6C242.41 269.51 242.36 269.43 242.31 269.36C242.26 269.29 242.22 269.24 242.19 269.21C241.35 269.97 240.59 270.65 239.93 271.23C239.27 271.81 238.72 272.32 238.29 272.75L238.28 272.74Z" fill="black"/>
<path d="M352.64 535.15C352.64 535.15 344.51 576.15 370.51 592.15H397.09C397.09 592.15 421.08 581.65 415.05 535.15H352.65H352.64Z" fill="#F8E8DB" stroke="#1D1D1B" stroke-miterlimit="10"/>
<path d="M363.01 488.15C363.01 488.15 369.01 494.15 369.01 502.15C369.01 502.15 368.01 521.15 374.01 523.15C374.01 523.15 381.01 527.15 386.01 522.15C386.01 522.15 387.01 495.15 363.01 488.15Z" fill="#F8E8DB" stroke="#1D1D1B" stroke-miterlimit="10"/>
<path d="M339.01 506.15C339.01 506.15 344.01 515.15 354.01 515.15C354.01 515.15 370.01 513.15 376.01 522.15C376.01 522.15 381.01 531.17 363.01 529.66C363.01 529.66 345.01 528.15 340.01 517.15C340.01 517.15 338.01 512.15 339.01 506.15Z" fill="#F8E8DB" stroke="#1D1D1B" stroke-miterlimit="10"/>
<path d="M339.01 538.15C339.01 538.15 358.02 517.04 374.51 530.6C374.51 530.6 380.53 538.39 370.01 542.15C362.65 544.78 348.01 547.15 339.01 538.15Z" fill="#F8E8DB" stroke="#1D1D1B" stroke-miterlimit="10"/>
<path d="M384.01 523.15C384.01 523.15 380.01 515.15 391.01 505.15C391.01 505.15 403.01 493.15 398.01 479.15C398.01 479.15 415.45 491.23 399.23 513.69C399.23 513.69 389.01 528.15 384.01 523.15Z" fill="#F8E8DB" stroke="#1D1D1B" stroke-miterlimit="10"/>
<path d="M388.01 522.15C388.01 522.15 394.01 524.15 403.01 517.15C403.01 517.15 408.01 513.15 418.01 511.15C418.01 511.15 426.01 509.15 427.01 505.15C427.01 505.15 406.01 504.15 395.01 512.15C384.01 520.15 388.01 522.15 388.01 522.15Z" fill="#FBF2EB" stroke="#1D1D1B" stroke-miterlimit="10"/>
<path d="M390.01 527.15C390.01 527.15 398.47 534.15 412.24 527.15C412.24 527.15 421.86 519.26 430.44 519.71L440.01 519.15C440.01 519.15 428.01 512.15 408.01 517.15C408.01 517.15 387.01 523.15 390.01 527.15Z" fill="#FBF2EB" stroke="#1D1D1B" stroke-miterlimit="10"/>
<path d="M390.01 533.15C390.01 533.15 396.01 541.15 410.01 543.15C410.01 543.15 429.86 545.39 431.44 551.77C431.44 551.77 428.01 529.15 400.01 526.15C400.01 526.15 387.01 524.15 390.01 533.15Z" fill="#FBF2EB" stroke="#1D1D1B" stroke-miterlimit="10"/>
<path d="M384.01 524.15C384.01 524.15 373.01 519.15 373.01 528.15C373.01 528.15 373.01 546.15 390.01 564.15C390.01 564.15 408.01 545.15 395.01 524.15C395.01 524.15 389.01 514.15 384.01 524.15Z" fill="#F8E8DB" stroke="#1D1D1B" stroke-miterlimit="10"/>
<path d="M1947 591.15H-778.5V688.65H1947V591.15Z" fill="#F8E8DB" stroke="#1D1D1B" stroke-width="1.01" stroke-miterlimit="10"/>
<path d="M1947 634.15H-779.5V647.15H1947V634.15Z" fill="#F8E8DB" stroke="#1D1D1B" stroke-miterlimit="10"/>
<path d="M154 612H-198L-193.999 591H149.999L154 612Z" fill="#F8E8DB" stroke="#1D1D1B" stroke-miterlimit="10"/>
<path d="M159.5 638.65H-205.42L-200.42 619.15H154.5L159.5 638.65Z" fill="#F8E8DB" stroke="#1D1D1B" stroke-miterlimit="10"/>
<path d="M166.5 665.65H-211.42L-206.42 646.15H161.5L166.5 665.65Z" fill="#F8E8DB" stroke="#1D1D1B" stroke-miterlimit="10"/>
<path d="M172.5 688.65H-218.42L-213.42 673.15H167.5L172.5 688.65Z" fill="#F8E8DB" stroke="#1D1D1B" stroke-miterlimit="10"/>
</g>
<rect x="-18" y="-14" width="419" height="213" fill="#AAC382"/>
<defs>
<clipPath id="clip0_548_5449">
<rect width="2760.86" height="505.16" fill="white" transform="translate(-780 184)"/>
</clipPath>
</defs>
</svg>
