<?xml version="1.0" encoding="UTF-8"?><svg id="Calque_1" xmlns="http://www.w3.org/2000/svg" viewBox="0 0 136.77 289.7"><defs><style>.cls-1,.cls-2{fill:none;}.cls-1,.cls-2,.cls-3,.cls-4,.cls-5,.cls-6,.cls-7,.cls-8{stroke-width:.75px;}.cls-1,.cls-2,.cls-3,.cls-5,.cls-6,.cls-7,.cls-8{stroke-miterlimit:10;}.cls-1,.cls-6,.cls-8{stroke:#1d1d1b;}.cls-2,.cls-3,.cls-4,.cls-5,.cls-7{stroke:#000;}.cls-3{fill:#fff;stroke-linecap:round;}.cls-4{fill:#fcf3ec;stroke-linecap:square;stroke-linejoin:round;}.cls-5{fill:#fbf3eb;}.cls-6{fill:#f0aac8;}.cls-9{fill:#1d1d1b;stroke-width:0px;}.cls-7{fill:#316cad;}.cls-8{fill:#aac280;}</style></defs><path class="cls-4" d="M117.58,126.54s-1.23-3.99-1.55-7.02c-1.03-9.78-2.68-29.69-7.41-41.23l-9.23,4.34s7.22,24.62,8.13,36.97c.09,1.22-.81,4.42-.84,5.32,0,0-1.5,7.86,0,8.33.99.32,2.17-2.77,2.17-2.77,0,0,1.99,7.19,3.43,8.2,0,0,.36.23.74.14,0,0,.48-.08.53-.59,0,0,.27.95,1.09.84.5-.07.64-.36.64-.7s0-.17.04-.05c.08.18.31.51.81.47.75-.07.61-1.15.61-1.15-.01-.54.03.21.07.26.75.78,1.27.08,1.4-.22,1.44-3.37-.62-11.14-.62-11.14Z"/><path class="cls-4" d="M28.86,118.57c.91-12.35,8.13-36.97,8.13-36.97l-9.23-4.34c-4.73,11.53-6.38,31.45-7.41,41.23-.32,3.03-1.55,7.02-1.55,7.02,0,0-2.07,7.76-.62,11.14.13.31.65,1.01,1.4.22.05-.05.08-.81.07-.26,0,0-.14,1.09.61,1.15.5.05.73-.29.81-.47.05-.12.04-.29.04.05s.13.63.64.7c.82.12,1.09-.84,1.09-.84.05.52.53.59.53.59.38.1.74-.14.74-.14,1.44-1.01,3.43-8.2,3.43-8.2,0,0,1.18,3.08,2.17,2.77,1.5-.48,0-8.33,0-8.33-.03-.9-.92-4.11-.84-5.32Z"/><path class="cls-9" d="M64.46.38s-15.81-1.31-17.68,15.96c-.24,2.24-1.06,4.81-.78,6.78.31,2.13.54,3.42.5,4.43-.11,3.22,1.04,3.45,1.74,6.12.33,1.27.14,3.08-.75,4.96-.38.8.13,1.75,1.01,1.88,2.1.3,5.64.66,11.29.26l-.44-3.1,12.55-2.33v5c5.34.38,8.22.29,9.71-.18.74-.23,1.08-1.08.73-1.77-.83-1.63-1.13-2.84-.78-4.17.7-2.66,1.46-2.82,1.4-6.04-.02-1.3-.13-3.38.23-6.35.24-1.98-.7-3.64-.94-5.88C80.4-1.32,64.3.37,64.3.37"/><path class="cls-4" d="M72.15,37.37s.77,8.96,2.77,8.96l-7,11-11-6,1-5s3.08-2.42,1.54-7.71"/><polygon class="cls-8" points="49.46 273.96 49.46 289.33 1.38 289.33 27.56 273.96 49.46 273.96"/><path class="cls-2" d="M14.37,279.66s3.59.19,5.92-1.43"/><path class="cls-4" d="M80.23,19.09s4-.48,2.36,4.14c0,0-.9,2.67-3.71,3.91"/><path class="cls-4" d="M50.16,27.19c-2.75-1.37-3.51-4.09-3.51-4.09-1.41-4.69,2.55-4.02,2.55-4.02"/><path class="cls-4" d="M64.32.38c-4.21,0-14.32,1.89-15.35,12.34,0,0-.64,11.16,3.14,17.86,2.99,5.3,7.3,9.62,13,9.62,5.33,0,9.18-4.32,11.76-9.6,1.06-2.17,4.04-8.24,3.01-18.62,0,0-1.26-11.59-15.56-11.59Z"/><path class="cls-9" d="M80.54,18.86c-.49,1.76-2.76-2.36-4.6-2.98-6.93-2.34-11.59-9.31-11.59-9.31,0,0-3.15,8.77-15.41,12.47,0,0-3.96-15.61,12.49-18.42,0,0,11.39-2.15,16.81,6.75,0,0,4.29,4.36,2.31,11.49Z"/><circle class="cls-9" cx="58.18" cy="20.4" r=".79"/><line class="cls-1" x1="59.89" y1="16.33" x2="56.42" y2="16.83"/><circle class="cls-9" cx="70.5" cy="20.4" r=".79"/><line class="cls-1" x1="68.8" y1="16.33" x2="72.42" y2="16.83"/><polyline class="cls-1" points="64.25 21.84 63.4 28.27 65.43 28.67"/><path class="cls-1" d="M59.8,32.32s4.26,3.01,9.42,0"/><polygon class="cls-8" points="87.31 273.87 87.31 289.24 135.39 289.24 109.21 273.87 87.31 273.87"/><polygon class="cls-7" points="45.55 99.83 90.43 99.21 122.7 278.14 83.62 278.14 67.98 139.44 52.87 278.14 16.39 278.14 45.55 99.83"/><path class="cls-5" d="M117.94,278.01s7.49-6.05,6.88-2.85c-.34,1.77-6.88,2.85-6.88,2.85Z"/><path class="cls-2" d="M124.57,280s-5.54-.13-7.87-1.75"/><path class="cls-6" d="M74.35,45.99c16.38.94,22.79,5.24,22.79,5.24-1.24,13.78-6.71,47.97-6.71,47.97l-44.88.63-6.31-49.63c7.54-3.23,11.38-3.2,18.99-3.94l3.86,6.37c1.86,3.08,6.32,3.08,8.2.02l4.07-6.65Z"/><path class="cls-1" d="M83.34,102.15s-1.03,11.58,10.36,15.22"/><path class="cls-1" d="M53.24,102.15s1.03,11.58-10.36,15.22"/><path class="cls-6" d="M39.23,50.2s-6.6,2.65-9.24,11.34l-5.28,14.28,15.43,7.26,2.2-8.49-3.1-24.39Z"/><path class="cls-3" d="M21.11,137.16s.18-2.68.9-4.22"/><path class="cls-3" d="M19.64,136.6s-.02-2.63.71-4.18"/><path class="cls-3" d="M22.84,137.16s.18-2.68.9-4.22"/><path class="cls-5" d="M19.73,278.02s-6.8-5.31-7.09-2.55c-.19,1.8,7.09,2.55,7.09,2.55Z"/><path class="cls-6" d="M97.14,51.23s6.6,2.65,9.24,11.34l5.28,14.28-15.43,7.26-2.2-8.49,3.1-24.39Z"/><path class="cls-3" d="M115.26,138.19s-.18-2.68-.9-4.22"/><path class="cls-3" d="M116.73,137.63s.02-2.63-.71-4.18"/><path class="cls-3" d="M113.54,138.19s-.18-2.68-.9-4.22"/></svg>