<svg width="203" height="203" viewBox="0 0 203 203" fill="none" xmlns="http://www.w3.org/2000/svg">
<circle cx="101.5" cy="101.5" r="101" fill="#AAC382" stroke="black"/>
<g clip-path="url(#clip0_548_5561)">
<path d="M101.943 19.693C101.943 19.693 42.5819 14.7745 35.5674 79.6119C34.6547 88.0461 31.5785 97.6805 32.6602 105.084C33.8265 113.078 34.6716 117.929 34.5364 121.716C34.1138 133.801 38.4577 134.68 41.0607 144.669C42.3114 149.435 41.5846 156.213 38.2211 163.295C36.7844 166.321 38.7281 169.87 42.0241 170.344C49.8837 171.459 63.2027 172.828 84.4321 171.341L88.7422 170.885H111.003L129.68 171.324C149.743 172.744 160.78 170.817 166.408 169.059C169.18 168.197 170.465 165.019 169.164 162.433C166.07 156.298 164.921 151.785 166.223 146.799C168.842 136.809 171.716 136.218 171.496 124.133C171.412 119.248 171.006 111.422 172.341 100.3C173.237 92.8802 169.704 86.6432 168.792 78.209C161.76 13.3378 101.318 19.693 101.318 19.693" fill="#1D1D1B"/>
<path d="M161.135 89.99C161.135 89.99 176.144 88.1983 169.975 105.557C169.975 105.557 166.611 115.597 156.047 120.245" fill="#FCF3EC"/>
<path d="M161.135 89.99C161.135 89.99 176.144 88.1983 169.975 105.557C169.975 105.557 166.611 115.597 156.047 120.245" stroke="#1D1D1B" stroke-width="0.85" stroke-miterlimit="10"/>
<path d="M48.2273 120.38C37.8999 115.225 35.0265 105.033 35.0265 105.033C29.7192 87.4038 44.6271 89.9222 44.6271 89.9222" fill="#FCF3EC"/>
<path d="M48.2273 120.38C37.8999 115.225 35.0265 105.033 35.0265 105.033C29.7192 87.4038 44.6271 89.9222 44.6271 89.9222" stroke="#1D1D1B" stroke-width="0.85" stroke-miterlimit="10"/>
<path d="M101.385 19.6929C85.5646 19.6929 47.6019 26.7919 43.7651 66.0391C43.7651 66.0391 41.348 107.94 55.546 133.124C66.7692 153.019 82.9447 169.228 104.343 169.228C124.355 169.228 138.824 153.019 148.492 133.175C152.481 125.011 163.653 102.227 159.8 63.2333C159.8 63.2333 155.084 19.7098 101.385 19.7098V19.6929Z" fill="#FCF3EC" stroke="#1D1D1B" stroke-width="0.83" stroke-miterlimit="10"/>
<path d="M162.284 89.1109C160.442 95.7366 151.906 80.2541 144.993 77.9216C118.98 69.1492 101.47 42.9675 101.47 42.9675C101.47 42.9675 89.6549 75.9102 43.596 89.787C43.596 89.787 28.7558 31.1697 90.4831 20.6226C90.4831 20.6226 133.229 12.5433 153.613 45.9423C153.613 45.9423 169.704 62.3207 162.284 89.094V89.1109Z" fill="#1D1D1B"/>
<path d="M78.3473 97.8665C79.9809 97.8665 81.3052 96.5422 81.3052 94.9086C81.3052 93.275 79.9809 91.9507 78.3473 91.9507C76.7137 91.9507 75.3894 93.275 75.3894 94.9086C75.3894 96.5422 76.7137 97.8665 78.3473 97.8665Z" fill="#1D1D1B"/>
<path d="M84.7533 79.6118L75.3894 80.626" stroke="#1D1D1B" stroke-width="0.85" stroke-miterlimit="10"/>
<path d="M124.609 97.8665C126.243 97.8665 127.567 96.5422 127.567 94.9086C127.567 93.275 126.243 91.9507 124.609 91.9507C122.975 91.9507 121.651 93.275 121.651 94.9086C121.651 96.5422 122.975 97.8665 124.609 97.8665Z" fill="#1D1D1B"/>
<path d="M118.203 79.6118L127.584 80.626" stroke="#1D1D1B" stroke-width="0.85" stroke-miterlimit="10"/>
<path d="M101.115 100.283L97.9202 124.437L105.56 125.958" stroke="#1D1D1B" stroke-width="0.85" stroke-miterlimit="10"/>
<path d="M84.4152 139.666C84.4152 139.666 100.405 150.957 119.775 139.666" stroke="#1D1D1B" stroke-width="0.85" stroke-miterlimit="10"/>
</g>
<defs>
<clipPath id="clip0_548_5561">
<rect width="140.036" height="153" fill="white" transform="translate(32.4236 19)"/>
</clipPath>
</defs>
</svg>
