<?xml version="1.0" encoding="UTF-8"?><svg id="Calque_1" xmlns="http://www.w3.org/2000/svg" viewBox="0 0 106.14 115.92"><defs><style>.cls-1{fill:#fcf3ec;}.cls-1,.cls-2{stroke:#1d1d1b;stroke-miterlimit:10;}.cls-2{fill:none;}.cls-3{fill:#1d1d1b;stroke-width:0px;}</style></defs><path class="cls-3" d="M52.68.5S7.69-3.24,2.38,45.91c-.69,6.39-3.02,13.7-2.21,19.3.88,6.06,1.52,9.73,1.42,12.61-.32,9.16,2.97,9.83,4.95,17.4.95,3.61.39,8.75-2.15,14.12-1.08,2.29.38,4.98,2.89,5.34,5.96.85,16.05,1.88,32.14.75l5.71-.45,11.54.14,17.03.29c15.21,1.07,23.57-.38,27.83-1.71,2.1-.66,3.08-3.06,2.09-5.02-2.35-4.65-3.22-8.08-2.23-11.86,1.98-7.58,4.16-8.02,3.99-17.18-.07-3.7-.37-9.63.65-18.06.68-5.62-1.99-10.36-2.69-16.74C98.03-4.32,52.21.5,52.21.5"/><path class="cls-1" d="M98.07,53.84s11.45.07,5.19,12.53c0,0-3.47,7.23-11.85,9.74"/><path class="cls-1" d="M12.65,76.43c-8.05-3.42-10.69-11-10.69-11-4.83-13.09,6.56-11.87,6.56-11.87"/><path class="cls-1" d="M52.26.5C40.28.5,11.5,5.88,8.59,35.62c0,0-1.83,31.75,8.93,50.84,8.5,15.07,20.76,27.36,36.98,27.36,15.16,0,26.13-12.29,33.46-27.33,3.02-6.19,11.49-23.45,8.57-53,0,0-3.57-32.99-44.27-32.99Z"/><path class="cls-3" d="M98.42,53.1c-1.39,5.02-7.86-6.71-13.1-8.48-19.71-6.65-32.98-26.49-32.98-26.49,0,0-8.95,24.96-43.87,35.49,0,0-11.26-44.43,35.53-52.43,0,0,32.4-6.12,47.85,19.2,0,0,12.2,12.41,6.57,32.71Z"/><circle class="cls-3" cx="34.81" cy="57.5" r="2.24"/><line class="cls-2" x1="39.66" y1="45.91" x2="32.56" y2="46.68"/><circle class="cls-3" cx="69.87" cy="57.5" r="2.24"/><line class="cls-2" x1="65.02" y1="45.91" x2="72.12" y2="46.68"/><polyline class="cls-2" points="52.06 61.57 49.64 79.88 55.43 81.03"/><path class="cls-2" d="M39.4,91.42s12.12,8.56,26.8,0"/></svg>