<svg width="80" height="45" viewBox="0 0 80 45" fill="none" xmlns="http://www.w3.org/2000/svg">
<g clip-path="url(#clip0_215_109)">
<path d="M76.822 -3.65034e-06L79.1047 31.268L71.3264 39.631L2.8488 44.6303L0 5.6084L76.822 -3.65034e-06Z" fill="#FFDB00"/>
<path d="M21.9786 25.137L22.1606 27.63L20.6414 27.7409L21.112 34.1874L18.2539 34.3961L17.7833 27.9495L12.4322 28.3402L12.239 25.694L14.9846 11.4032L19.425 11.0791L20.4594 25.2479L21.9786 25.137ZM17.6013 25.4566L16.7802 14.2089L14.7116 25.6675L17.6013 25.4566Z" fill="#009E49"/>
<path d="M32.1949 31.5428L30.5024 33.5019L25.7284 33.8504L23.7693 32.1579L22.3489 12.7011L24.0413 10.742L28.8154 10.3935L30.7745 12.086L32.1949 31.5428ZM25.9274 13.1106L25.3632 13.7636L26.5974 30.6689L27.2504 31.233L28.6209 31.133L29.185 30.48L27.9509 13.5747L27.2978 13.0106L25.9274 13.1106Z" fill="#009E49"/>
<path d="M41.1346 26.7342L40.9927 32.736L38.0759 32.949L39.1569 9.63853L43.3539 9.33213L47.8675 32.2341L44.829 32.456L43.8169 26.5384L41.1436 26.7336L41.1346 26.7342ZM41.4414 12.4992L41.1645 24.2258L43.414 24.0616L41.4369 12.4995L41.4414 12.4992Z" fill="#009E49"/>
<path d="M47.4563 9.03263L50.6165 8.80192L55.1311 24.5794L53.9614 8.55772L56.6077 8.36453L58.2947 31.4729L55.1346 31.7036L50.6377 16.1696L51.7896 31.9478L49.1433 32.141L47.4563 9.03263Z" fill="#009E49"/>
<path d="M63.8219 10.897L63.1688 10.3329L62.1049 10.4105L61.5408 11.0636L62.0157 17.5687L62.6687 18.1329L65.5268 17.9242L67.4859 19.6167L68.1652 28.9213L66.4727 30.8804L61.8519 31.2177L59.8929 29.5253L59.54 24.6926L62.4568 24.4797L62.721 28.0997L63.3741 28.6638L64.5912 28.575L65.1554 27.9219L64.6581 21.1102L64.0051 20.5461L61.147 20.7547L59.1879 19.0623L58.531 10.0642L60.2235 8.1051L64.691 7.77895L66.65 9.47143L67.0052 14.3356L64.0884 14.5486L63.8222 10.9015L63.8219 10.897Z" fill="#009E49"/>
<path d="M79.1047 31.268L71.3318 31.2644L71.3263 39.631L79.1047 31.268Z" fill="white"/>
</g>
<defs>
<clipPath id="clip0_215_109">
<rect width="77.0265" height="39.1257" fill="white" transform="translate(0 5.6084) rotate(-4.17548)"/>
</clipPath>
</defs>
</svg>
