<?xml version="1.0" encoding="utf-8"?>
<!-- Generator: Adobe Illustrator 28.1.0, SVG Export Plug-In . SVG Version: 6.00 Build 0)  -->
<svg version="1.1" id="Calque_1" xmlns="http://www.w3.org/2000/svg" xmlns:xlink="http://www.w3.org/1999/xlink" x="0px" y="0px"
	 viewBox="0 0 30 40" style="enable-background:new 0 0 30 40;" xml:space="preserve">
<style type="text/css">
	.st0{clip-path:url(#SVGID_00000171704711932405940000000011988244630623406781_);}
	.st1{fill:#EC5F62;}
	.st2{fill:#010202;}
	.st3{fill:#FFFFFF;}
	.st4{clip-path:url(#SVGID_00000119806577716859780240000007606385944262316699_);}
	.st5{fill:#515EA7;}
</style>
<g>
	<defs>
		<rect id="SVGID_1_" x="7.74" y="13.95" width="14.53" height="12.11"/>
	</defs>
	<clipPath id="SVGID_00000098189601439402473930000004470741722339136190_">
		<use xlink:href="#SVGID_1_"  style="overflow:visible;"/>
	</clipPath>
	<g style="clip-path:url(#SVGID_00000098189601439402473930000004470741722339136190_);">
		<path class="st1" d="M22.26,19.53v0.91h-5.4v-0.91H22.26z"/>
		<path class="st1" d="M22.26,17.68v0.91h-5.4v-0.91H22.26z"/>
		<path class="st1" d="M22.26,15.83v0.91h-5.4v-0.91H22.26z"/>
		<path class="st1" d="M22.26,13.96v0.91h-5.4v-0.91H22.26z"/>
		<path class="st2" d="M16.9,13.95H7.74v6.49h9.16V13.95z"/>
		<path class="st1" d="M22.25,25.15v0.9H7.74v-0.9H22.25z"/>
		<path class="st1" d="M22.25,23.27v0.91H7.74v-0.91H22.25z"/>
		<path class="st1" d="M22.25,21.4v0.91H7.74V21.4H22.25L22.25,21.4z"/>
		<path class="st3" d="M11.19,14.44c0.2,0.01,0.33-0.04,0.36-0.26c0.05,0.19,0.15,0.29,0.37,0.25c-0.19,0.11-0.23,0.24-0.16,0.43
			c-0.07-0.04-0.13-0.09-0.21-0.13c-0.07,0.04-0.13,0.09-0.25,0.17C11.41,14.68,11.4,14.53,11.19,14.44z"/>
		<path class="st3" d="M13.42,14.46c-0.06,0.05-0.12,0.1-0.19,0.15c0.02,0.08,0.04,0.15,0.08,0.3c-0.17-0.18-0.31-0.2-0.46-0.03
			c0.09-0.19,0.07-0.33-0.12-0.44c0.08-0.01,0.17,0,0.23-0.04c0.05-0.04,0.07-0.13,0.12-0.25c0.03,0.23,0.13,0.33,0.34,0.26
			L13.42,14.46z"/>
		<path class="st3" d="M15.92,14.88c0.03-0.11,0.05-0.19,0.07-0.27c-0.06-0.05-0.13-0.1-0.24-0.19c0.22,0.02,0.38,0,0.39-0.25
			c0.03,0.23,0.17,0.27,0.36,0.27c-0.17,0.11-0.26,0.23-0.15,0.42c-0.07-0.04-0.13-0.09-0.21-0.13
			C16.08,14.77,16.02,14.82,15.92,14.88L15.92,14.88z"/>
		<path class="st3" d="M13.42,15.75c-0.06,0.05-0.12,0.09-0.19,0.14c0.02,0.08,0.04,0.16,0.08,0.29c-0.17-0.16-0.31-0.22-0.46-0.01
			c0.07-0.2,0.09-0.35-0.15-0.44c0.21,0.01,0.34-0.05,0.37-0.27C13.11,15.69,13.23,15.75,13.42,15.75z"/>
		<path class="st3" d="M14.59,16.02c-0.07,0.05-0.14,0.09-0.23,0.15c0.03-0.11,0.05-0.18,0.07-0.27c-0.06-0.05-0.12-0.1-0.24-0.19
			c0.22,0.03,0.37-0.01,0.39-0.24c0.05,0.2,0.16,0.29,0.36,0.28c-0.06,0.05-0.13,0.1-0.2,0.16c0.02,0.08,0.05,0.16,0.08,0.27
			C14.73,16.11,14.66,16.06,14.59,16.02L14.59,16.02z"/>
		<path class="st3" d="M16.51,15.73c-0.19,0.1-0.24,0.23-0.16,0.42c-0.07-0.04-0.13-0.09-0.21-0.13c-0.07,0.04-0.14,0.09-0.23,0.15
			c0.03-0.11,0.05-0.19,0.08-0.27c-0.06-0.05-0.13-0.1-0.25-0.19c0.23,0.03,0.39,0,0.4-0.24C16.19,15.68,16.32,15.74,16.51,15.73
			L16.51,15.73z"/>
		<path class="st3" d="M13.42,18.32c-0.06,0.05-0.12,0.1-0.19,0.15c0.02,0.08,0.04,0.16,0.06,0.23c-0.15-0.13-0.29-0.14-0.44,0.05
			c0.03-0.19-0.02-0.35-0.15-0.47c0.19,0.01,0.35-0.01,0.36-0.25C13.11,18.26,13.22,18.34,13.42,18.32z"/>
		<path class="st3" d="M8.63,14.61c0.03,0.09,0.05,0.17,0.07,0.27c-0.1-0.06-0.16-0.11-0.23-0.15c-0.07,0.05-0.14,0.09-0.23,0.15
			c0.03-0.11,0.05-0.19,0.07-0.27c-0.07-0.05-0.13-0.11-0.23-0.19c0.21,0.02,0.36-0.01,0.38-0.25c0.05,0.2,0.15,0.29,0.35,0.27
			C8.75,14.5,8.69,14.56,8.63,14.61L8.63,14.61z"/>
		<path class="st3" d="M14.24,17.03c0.19,0.01,0.31-0.06,0.34-0.28c0.04,0.21,0.15,0.3,0.35,0.28c-0.06,0.05-0.13,0.11-0.19,0.16
			c0.02,0.08,0.05,0.16,0.07,0.24c-0.15-0.12-0.3-0.16-0.43,0.05c-0.01-0.02-0.01-0.03-0.02-0.05c0.02-0.08,0.04-0.15,0.07-0.24
			C14.37,17.14,14.31,17.08,14.24,17.03L14.24,17.03z"/>
		<path class="st3" d="M13.3,17.45c-0.09-0.06-0.15-0.1-0.23-0.15c-0.06,0.04-0.13,0.08-0.25,0.16c0.09-0.2,0.13-0.36-0.13-0.44
			c0.2-0.01,0.35-0.03,0.37-0.27c0.04,0.21,0.15,0.3,0.35,0.28c-0.06,0.05-0.12,0.1-0.19,0.16C13.25,17.27,13.27,17.35,13.3,17.45
			L13.3,17.45z"/>
		<path class="st3" d="M8.25,17.42c0.02-0.07,0.04-0.15,0.06-0.23c-0.06-0.05-0.12-0.1-0.24-0.2c0.24,0.05,0.37-0.02,0.38-0.25
			c0.08,0.16,0.21,0.25,0.37,0.28c-0.07,0.06-0.13,0.11-0.2,0.16c0.02,0.08,0.04,0.16,0.08,0.29c-0.16-0.15-0.31-0.24-0.44,0
			C8.26,17.46,8.25,17.44,8.25,17.42z"/>
		<path class="st3" d="M13.42,19.61c-0.06,0.05-0.12,0.1-0.18,0.15c0.02,0.08,0.04,0.16,0.08,0.3c-0.17-0.18-0.31-0.22-0.46-0.02
			c0.07-0.2,0.08-0.34-0.14-0.43c0.19-0.01,0.34-0.03,0.36-0.27c0.06,0.19,0.14,0.32,0.37,0.22C13.43,19.57,13.42,19.59,13.42,19.61
			L13.42,19.61z"/>
		<path class="st3" d="M16.15,19.33c0.04,0.22,0.16,0.28,0.37,0.27c-0.2,0.1-0.23,0.23-0.13,0.43c-0.15-0.15-0.29-0.17-0.45-0.02
			c0.02-0.08,0.04-0.16,0.06-0.24c-0.06-0.05-0.12-0.1-0.22-0.18C15.98,19.6,16.14,19.58,16.15,19.33L16.15,19.33z"/>
		<path class="st3" d="M14.93,19.62c-0.06,0.05-0.12,0.1-0.18,0.15c0.02,0.08,0.04,0.16,0.07,0.24c-0.15-0.12-0.29-0.15-0.45,0
			c0.02-0.07,0.04-0.15,0.06-0.23c-0.06-0.05-0.12-0.1-0.23-0.19c0.23,0.04,0.37-0.01,0.39-0.25
			C14.63,19.53,14.73,19.62,14.93,19.62z"/>
		<path class="st3" d="M8.81,15.75c-0.06,0.05-0.12,0.1-0.18,0.15c0.02,0.08,0.04,0.16,0.06,0.24C8.54,16,8.4,16,8.24,16.13
			c0.02-0.08,0.04-0.15,0.06-0.23c-0.06-0.05-0.13-0.1-0.22-0.18c0.11-0.01,0.19,0.01,0.25-0.02c0.05-0.04,0.08-0.12,0.13-0.22
			c0.05,0.17,0.14,0.3,0.35,0.21C8.82,15.71,8.82,15.73,8.81,15.75L8.81,15.75z"/>
		<path class="st3" d="M14.25,18.28c0.2,0.06,0.3-0.03,0.34-0.23c0.03,0.21,0.16,0.28,0.39,0.24c-0.1,0.09-0.16,0.14-0.23,0.19
			c0.02,0.08,0.04,0.16,0.07,0.27c-0.09-0.06-0.16-0.11-0.23-0.15c-0.07,0.05-0.14,0.09-0.23,0.15c0.03-0.11,0.05-0.18,0.07-0.27
			c-0.06-0.05-0.12-0.1-0.19-0.15C14.25,18.31,14.25,18.29,14.25,18.28L14.25,18.28z"/>
		<path class="st3" d="M11.33,16.14c0.1-0.18,0.06-0.31-0.14-0.4c0.17-0.02,0.36,0,0.35-0.28c0.05,0.21,0.15,0.31,0.38,0.26
			c-0.21,0.11-0.23,0.25-0.12,0.45C11.64,16.07,11.48,16.06,11.33,16.14z"/>
		<path class="st3" d="M11.2,17.02c0.18,0,0.33-0.03,0.35-0.27c0.04,0.21,0.16,0.29,0.38,0.24c-0.13,0.14-0.18,0.29-0.15,0.45
			c-0.08-0.05-0.14-0.09-0.22-0.14c-0.07,0.04-0.13,0.09-0.24,0.16C11.4,17.26,11.4,17.11,11.2,17.02L11.2,17.02z"/>
		<path class="st3" d="M8.7,18.74c-0.15-0.09-0.3-0.09-0.46-0.01c0.02-0.09,0.04-0.17,0.07-0.25c-0.06-0.05-0.12-0.1-0.24-0.19
			c0.22,0.02,0.37,0,0.39-0.24c0.05,0.2,0.16,0.3,0.36,0.28c-0.06,0.05-0.11,0.09-0.19,0.15C8.65,18.55,8.67,18.63,8.7,18.74
			L8.7,18.74z"/>
		<path class="st3" d="M9.68,14.46c0.19-0.01,0.33-0.05,0.35-0.29c0.03,0.22,0.15,0.29,0.36,0.26c-0.15,0.11-0.26,0.23-0.12,0.44
			c-0.16-0.14-0.31-0.16-0.46-0.02c0.02-0.08,0.04-0.16,0.07-0.24C9.81,14.56,9.74,14.51,9.68,14.46z"/>
		<path class="st3" d="M16.38,17.43c-0.16-0.07-0.31-0.07-0.46,0.02c0.03-0.1,0.05-0.18,0.07-0.26c-0.06-0.05-0.12-0.09-0.24-0.18
			c0.22,0.01,0.38-0.01,0.37-0.27c0.09,0.16,0.23,0.26,0.4,0.3C16.33,17.12,16.27,17.24,16.38,17.43L16.38,17.43z"/>
		<path class="st3" d="M14.43,14.61c-0.07-0.06-0.13-0.11-0.24-0.2c0.23,0.04,0.36-0.01,0.39-0.24c0.04,0.21,0.16,0.28,0.39,0.24
			c-0.11,0.09-0.17,0.14-0.23,0.2c0.02,0.08,0.04,0.16,0.06,0.23c-0.15-0.12-0.29-0.15-0.45,0C14.39,14.78,14.41,14.7,14.43,14.61
			L14.43,14.61z"/>
		<path class="st3" d="M11.17,18.28c0.23,0.05,0.35-0.01,0.37-0.22c0.07,0.16,0.13,0.32,0.38,0.23c-0.18,0.12-0.25,0.25-0.14,0.45
			c-0.16-0.15-0.29-0.17-0.44,0.02C11.36,18.56,11.3,18.41,11.17,18.28L11.17,18.28z"/>
		<path class="st3" d="M9.8,16.17c0.03-0.11,0.05-0.19,0.07-0.27c-0.06-0.05-0.12-0.1-0.22-0.19c0.22,0.02,0.36-0.02,0.38-0.25
			c0.03,0.22,0.16,0.28,0.39,0.25c-0.1,0.09-0.16,0.14-0.23,0.19c0.02,0.08,0.04,0.16,0.07,0.27c-0.1-0.06-0.16-0.1-0.23-0.15
			C9.96,16.06,9.89,16.11,9.8,16.17L9.8,16.17z"/>
		<path class="st3" d="M15.99,18.48c-0.07-0.05-0.13-0.1-0.24-0.19c0.22,0.03,0.36-0.01,0.39-0.24c0.05,0.2,0.15,0.29,0.37,0.25
			c-0.18,0.11-0.25,0.24-0.15,0.43c-0.07-0.04-0.13-0.09-0.21-0.13c-0.07,0.04-0.14,0.09-0.23,0.15
			C15.95,18.64,15.97,18.56,15.99,18.48L15.99,18.48z"/>
		<path class="st3" d="M11.77,20.02c-0.15-0.17-0.29-0.15-0.44-0.03c0.02-0.07,0.04-0.15,0.06-0.23c-0.06-0.05-0.12-0.1-0.23-0.19
			c0.21,0.02,0.36,0,0.37-0.24c0.06,0.18,0.15,0.3,0.37,0.25C11.74,19.7,11.67,19.83,11.77,20.02z"/>
		<path class="st3" d="M8.31,19.77c-0.07-0.06-0.12-0.1-0.22-0.19c0.23,0.03,0.35-0.03,0.38-0.25c0.04,0.2,0.14,0.3,0.34,0.28
			c-0.06,0.05-0.12,0.1-0.18,0.16c0.02,0.08,0.04,0.15,0.06,0.23c-0.15-0.12-0.29-0.14-0.45,0C8.27,19.93,8.29,19.85,8.31,19.77
			L8.31,19.77z"/>
		<path class="st3" d="M10.26,17.45c-0.16-0.16-0.29-0.16-0.45-0.02c0.02-0.07,0.04-0.15,0.07-0.23c-0.06-0.05-0.12-0.11-0.23-0.2
			c0.23,0.04,0.35-0.02,0.39-0.24c0.04,0.2,0.15,0.28,0.36,0.26C10.21,17.12,10.14,17.25,10.26,17.45L10.26,17.45z"/>
		<path class="st3" d="M9.81,18.71c0.02-0.08,0.04-0.16,0.06-0.23c-0.06-0.05-0.13-0.11-0.2-0.16c0.16-0.03,0.28-0.12,0.37-0.27
			c0.02,0.21,0.12,0.3,0.33,0.28c-0.06,0.05-0.12,0.1-0.18,0.16c0.02,0.07,0.04,0.15,0.08,0.29c-0.16-0.16-0.3-0.22-0.44-0.01
			C9.82,18.74,9.81,18.73,9.81,18.71z"/>
		<path class="st3" d="M9.64,19.57c0.24,0.05,0.36-0.02,0.39-0.24c0.03,0.22,0.16,0.28,0.39,0.25c-0.1,0.08-0.16,0.13-0.22,0.19
			c0.02,0.08,0.04,0.16,0.06,0.24C10.1,19.88,9.96,19.85,9.81,20c0.02-0.08,0.04-0.16,0.06-0.23C9.81,19.71,9.75,19.66,9.64,19.57
			L9.64,19.57z"/>
		<path class="st3" d="M13.51,17.72c0.22,0.04,0.32-0.07,0.36-0.26c0.04,0.2,0.14,0.3,0.35,0.25c-0.15,0.11-0.26,0.22-0.12,0.43
			c-0.16-0.12-0.31-0.2-0.45,0.02C13.71,17.96,13.72,17.81,13.51,17.72z"/>
		<path class="st3" d="M9.44,15.56c-0.06-0.04-0.12-0.09-0.19-0.14C9.19,15.46,9.12,15.51,9,15.6c0.09-0.21,0.12-0.37-0.09-0.46
			c0.07,0,0.15-0.01,0.23-0.01c0.03-0.07,0.06-0.15,0.11-0.25c0.04,0.1,0.07,0.17,0.1,0.26h0.23c-0.14,0.11-0.23,0.24-0.08,0.43
			C9.48,15.55,9.46,15.55,9.44,15.56L9.44,15.56z"/>
		<path class="st3" d="M14.09,16.85c-0.15-0.15-0.29-0.16-0.44,0c0.07-0.19,0.07-0.33-0.14-0.42c0.2,0.01,0.34-0.04,0.35-0.28
			c0.06,0.18,0.13,0.32,0.37,0.27C14.02,16.52,14,16.67,14.09,16.85L14.09,16.85z"/>
		<path class="st3" d="M9.62,16.45c-0.23,0.07-0.22,0.21-0.12,0.42c-0.11-0.08-0.18-0.12-0.25-0.16c-0.07,0.04-0.14,0.09-0.2,0.13
			c0.06-0.18,0.05-0.32-0.13-0.42c0.07,0,0.15-0.01,0.24-0.01c0.02-0.07,0.05-0.14,0.09-0.26c0.04,0.11,0.08,0.18,0.11,0.27h0.23
			C9.6,16.43,9.61,16.44,9.62,16.45L9.62,16.45z"/>
		<path class="st3" d="M13.51,19.01c0.23,0.04,0.31-0.07,0.36-0.25c0.03,0.07,0.06,0.14,0.09,0.23c0.07,0.01,0.15,0.01,0.29,0.02
			c-0.22,0.1-0.26,0.24-0.16,0.42c-0.15-0.11-0.29-0.2-0.44,0.02C13.72,19.25,13.72,19.1,13.51,19.01z"/>
		<path class="st3" d="M10.76,14.9c0.05,0.19,0.16,0.27,0.37,0.24c-0.17,0.11-0.25,0.23-0.15,0.42c-0.07-0.04-0.13-0.08-0.2-0.13
			c-0.07,0.04-0.14,0.09-0.23,0.15c0.03-0.11,0.05-0.18,0.07-0.27c-0.06-0.05-0.12-0.1-0.21-0.17c0.11-0.01,0.18-0.01,0.27-0.02
			C10.7,15.05,10.73,14.97,10.76,14.9L10.76,14.9z"/>
		<path class="st3" d="M9.35,17.7c0.09,0,0.16,0.01,0.24,0.01c-0.17,0.1-0.21,0.24-0.13,0.43c-0.07-0.05-0.13-0.09-0.2-0.14
			c-0.07,0.05-0.14,0.09-0.23,0.15c0.03-0.11,0.05-0.19,0.07-0.27c-0.06-0.05-0.12-0.1-0.21-0.17c0.11-0.01,0.18-0.01,0.27-0.02
			c0.03-0.07,0.05-0.15,0.09-0.26C9.29,17.54,9.32,17.62,9.35,17.7z"/>
		<path class="st3" d="M12.24,17.69c0.03-0.08,0.06-0.15,0.1-0.25c0.06,0.18,0.11,0.35,0.36,0.26c-0.16,0.12-0.27,0.24-0.15,0.43
			c-0.07-0.04-0.13-0.09-0.2-0.13c-0.07,0.04-0.13,0.09-0.25,0.17c0.1-0.2,0.13-0.35-0.09-0.45C12.08,17.71,12.15,17.7,12.24,17.69z
			"/>
		<path class="st3" d="M10.97,16.85c-0.06-0.04-0.12-0.08-0.2-0.13c-0.06,0.04-0.13,0.08-0.24,0.16c0.07-0.19,0.12-0.35-0.13-0.43
			c0.22,0.02,0.33-0.06,0.38-0.25c0.03,0.07,0.06,0.15,0.09,0.22c0.08,0,0.15,0.01,0.28,0.02C10.97,16.53,10.88,16.65,10.97,16.85
			L10.97,16.85z"/>
		<path class="st3" d="M10.45,18.99h0.22c0.03-0.08,0.06-0.15,0.1-0.26c0.04,0.1,0.08,0.18,0.11,0.25c0.08,0,0.15,0.01,0.28,0.02
			c-0.2,0.1-0.27,0.23-0.18,0.42c-0.06-0.04-0.13-0.09-0.2-0.13c-0.06,0.04-0.13,0.09-0.25,0.16c0.09-0.2,0.11-0.35-0.13-0.42
			C10.42,19.02,10.43,19.01,10.45,18.99z"/>
		<path class="st3" d="M11.98,19.01c0.22,0.03,0.31-0.06,0.36-0.25c0.03,0.07,0.06,0.15,0.1,0.23c0.08,0,0.15,0.01,0.28,0.02
			c-0.2,0.11-0.28,0.22-0.19,0.42c-0.06-0.04-0.13-0.09-0.2-0.14c-0.06,0.04-0.13,0.09-0.25,0.16
			C12.18,19.25,12.21,19.1,11.98,19.01L11.98,19.01z"/>
		<path class="st3" d="M13.65,15.56c0.08-0.19,0.06-0.32-0.12-0.42c0.08-0.01,0.15-0.01,0.24-0.02c0.03-0.07,0.05-0.15,0.1-0.28
			c0.04,0.23,0.13,0.34,0.36,0.29c-0.2,0.1-0.23,0.24-0.14,0.43C13.93,15.42,13.8,15.41,13.65,15.56L13.65,15.56z"/>
		<path class="st3" d="M15.02,15.11c0.23,0.06,0.34-0.03,0.38-0.23c0.03,0.07,0.06,0.15,0.09,0.23c0.08,0.01,0.16,0.01,0.23,0.02
			c-0.18,0.1-0.2,0.24-0.07,0.46c-0.13-0.08-0.19-0.12-0.26-0.17c-0.07,0.05-0.13,0.09-0.22,0.15c0.02-0.11,0.07-0.19,0.05-0.26
			C15.19,15.25,15.11,15.2,15.02,15.11L15.02,15.11z"/>
		<path class="st3" d="M15.6,16.85c-0.08-0.06-0.15-0.1-0.21-0.14c-0.07,0.04-0.14,0.09-0.2,0.13c0.07-0.18,0.04-0.31-0.15-0.41
			c0.21,0.03,0.32-0.05,0.35-0.27c0.05,0.19,0.13,0.32,0.37,0.24C15.63,16.54,15.58,16.69,15.6,16.85L15.6,16.85z"/>
		<path class="st3" d="M9.44,19.42c-0.06-0.04-0.12-0.09-0.19-0.13c-0.07,0.05-0.14,0.09-0.24,0.15c0.03-0.1,0.05-0.18,0.07-0.27
			c-0.05-0.04-0.12-0.1-0.21-0.17c0.11-0.01,0.18-0.01,0.27-0.01c0.03-0.07,0.05-0.15,0.09-0.26c0.04,0.11,0.07,0.18,0.1,0.26
			c0.08,0,0.16,0.01,0.28,0.02c-0.2,0.11-0.28,0.23-0.13,0.43C9.48,19.43,9.46,19.42,9.44,19.42z"/>
		<path class="st3" d="M12.01,16.42c0.08,0,0.15-0.01,0.23-0.01c0.03-0.08,0.06-0.15,0.1-0.25c0.04,0.1,0.07,0.18,0.1,0.25
			c0.08,0,0.15,0.01,0.3,0.02c-0.23,0.1-0.28,0.23-0.2,0.42c-0.06-0.04-0.13-0.08-0.2-0.13c-0.06,0.04-0.13,0.08-0.25,0.16
			c0.08-0.19,0.12-0.35-0.13-0.41C11.98,16.44,11.99,16.43,12.01,16.42L12.01,16.42z"/>
		<path class="st3" d="M12.71,15.13c-0.13,0.11-0.18,0.26-0.14,0.44c-0.08-0.06-0.15-0.1-0.22-0.15c-0.07,0.04-0.13,0.09-0.25,0.16
			c0.08-0.2,0.13-0.36-0.14-0.41c0.02-0.01,0.04-0.02,0.05-0.03c0.08-0.01,0.16-0.01,0.24-0.02c0.03-0.07,0.05-0.14,0.09-0.25
			c0.04,0.1,0.07,0.17,0.11,0.25C12.52,15.12,12.6,15.13,12.71,15.13L12.71,15.13z"/>
		<path class="st3" d="M15.38,18.74c0.03,0.23,0.15,0.29,0.36,0.26c-0.17,0.11-0.25,0.23-0.15,0.42c-0.07-0.04-0.13-0.08-0.2-0.13
			c-0.07,0.05-0.13,0.09-0.23,0.16c0.07-0.19,0.12-0.35-0.13-0.43C15.23,19.01,15.37,18.98,15.38,18.74z"/>
		<path class="st3" d="M10.97,18.13c-0.06-0.04-0.13-0.09-0.19-0.13c-0.07,0.04-0.14,0.09-0.26,0.17c0.12-0.21,0.11-0.36-0.08-0.46
			c0.07,0,0.15-0.01,0.23-0.01c0.03-0.07,0.06-0.15,0.1-0.25c0.04,0.1,0.07,0.17,0.11,0.25c0.08,0,0.15,0.01,0.29,0.02
			c-0.19,0.11-0.28,0.22-0.15,0.41C11,18.13,10.99,18.13,10.97,18.13L10.97,18.13z"/>
		<path class="st3" d="M15.74,17.71c-0.16,0.12-0.26,0.23-0.09,0.42c-0.02,0-0.04,0-0.06,0c-0.07-0.04-0.13-0.08-0.2-0.13
			c-0.07,0.04-0.13,0.09-0.25,0.17c0.1-0.21,0.11-0.35-0.1-0.44c0.2,0.01,0.33-0.05,0.35-0.27C15.44,17.64,15.52,17.77,15.74,17.71
			L15.74,17.71z"/>
		<g>
			<defs>
				<rect id="SVGID_00000079455798672554912380000013752179567199618233_" x="7.5" y="13.5" width="15" height="13"/>
			</defs>
			<clipPath id="SVGID_00000005250468682065366520000012253244793511867788_">
				<use xlink:href="#SVGID_00000079455798672554912380000013752179567199618233_"  style="overflow:visible;"/>
			</clipPath>
			<g style="clip-path:url(#SVGID_00000005250468682065366520000012253244793511867788_);">
				<path class="st3" d="M22.5,13.5h-15v13h15V13.5z"/>
				<path class="st5" d="M13.73,13.5H7.5v4.17h6.23V13.5z"/>
				<path class="st5" d="M22.5,13.5h-6.23v4.17h6.23V13.5z"/>
				<path class="st5" d="M13.73,22.33H7.5v4.17h6.23V22.33z"/>
				<path class="st5" d="M22.5,22.33h-6.23v4.17h6.23V22.33z"/>
				<path class="st3" d="M22.5,25.47v1.03h-2.41l-3.82-3.63l-0.43-0.41L15,21.66l-0.29-0.28l-0.3-0.28l-0.25-0.24l-0.33-0.31
					l-0.59-0.56l-1.44-1.36l-1-0.95L7.5,14.53V13.5h2.41l3.82,3.63l0.43,0.41l0.84,0.8l0.29,0.28l0.3,0.28l0.25,0.24l0.33,0.31h0
					l0.59,0.56l1.43,1.36l1,0.95L22.5,25.47z"/>
				<path class="st3" d="M22.5,13.5v1.15l-3.23,3.02l-1.02,0.95l-1.49,1.39l-0.55,0.51l-0.37,0.35l-0.21,0.19l-0.34,0.31L15,21.66
					l-0.84,0.78l-0.43,0.4L9.81,26.5H7.5v-1.15l3.23-3.02l1.02-0.95l1.49-1.39l0.62-0.58l0.3-0.28l0.28-0.26l0.26-0.25l0.3-0.28
					l0.84-0.78l0.43-0.4l3.93-3.66H22.5z"/>
				<path class="st1" d="M22.5,18.62h-15v2.75h15V18.62z"/>
				<path class="st1" d="M22.5,13.5v0.02l-4.43,4.15l-1.02,0.95l-0.88,0.83h0l-0.33,0.31l-0.22,0.21l-0.58,0.54l-0.63,0.59
					l-0.25,0.23l-0.05,0.05l-1.02,0.95L8.64,26.5H7.5v-0.02l4.43-4.15l1.02-0.95l0.88-0.83l0.33-0.31l0.3-0.28l0.58-0.54l0.56-0.52
					l0.25-0.23l0.05-0.05l1.02-0.95l4.46-4.17H22.5z"/>
				<path class="st1" d="M22.5,26.41v0.09h-1.06l-4.46-4.17l-1.02-0.95l-0.13-0.12l-0.21-0.2l-0.59-0.56l-0.58-0.54l-0.3-0.28
					l-0.3-0.28l-0.84-0.79l-1.02-0.95L7.55,13.5h1.16l4.46,4.17l1,0.93l0.02,0.02l0.26,0.25l0.59,0.56l0.58,0.54l0.22,0.21
					l0.37,0.35l0.91,0.85l1.02,0.95L22.5,26.41z"/>
				<path class="st1" d="M15.84,13.5h-1.68v13h1.68V13.5z"/>
			</g>
		</g>
	</g>
</g>
</svg>
