<?xml version="1.0" encoding="utf-8"?>
<!-- Generator: Adobe Illustrator 28.1.0, SVG Export Plug-In . SVG Version: 6.00 Build 0)  -->
<svg version="1.1" id="Calque_1" xmlns="http://www.w3.org/2000/svg" xmlns:xlink="http://www.w3.org/1999/xlink" x="0px" y="0px"
	 viewBox="0 0 30 40" style="enable-background:new 0 0 30 40;" xml:space="preserve">
<style type="text/css">
	.st0{fill:#F5F8FB;}
	.st1{clip-path:url(#SVGID_00000049938168315951536140000013634160309124075941_);}
	.st2{fill:#EC5F62;}
	.st3{fill:#010202;}
	.st4{fill:#FFFFFF;}
	.st5{clip-path:url(#SVGID_00000159462174729217843160000000855391840726462392_);}
	.st6{fill:#515EA7;}
</style>
<path class="st0" d="M26.5,20c0,6.4-5.1,11.5-11.5,11.5C8.6,31.5,3.5,26.3,3.5,20C3.5,13.6,8.6,8.5,15,8.5
	C21.4,8.5,26.5,13.6,26.5,20z"/>
<g>
	<g>
		<defs>
			<rect id="SVGID_1_" x="7.8" y="13.9" width="14.5" height="12.1"/>
		</defs>
		<clipPath id="SVGID_00000015353382533888876580000017309990295579781801_">
			<use xlink:href="#SVGID_1_"  style="overflow:visible;"/>
		</clipPath>
		<g style="clip-path:url(#SVGID_00000015353382533888876580000017309990295579781801_);">
			<path class="st2" d="M22.3,19.5v0.9h-5.4v-0.9H22.3z"/>
			<path class="st2" d="M22.3,17.7v0.9h-5.4v-0.9H22.3z"/>
			<path class="st2" d="M22.3,15.8v0.9h-5.4v-0.9H22.3z"/>
			<path class="st2" d="M22.3,14v0.9h-5.4V14H22.3z"/>
			<path class="st3" d="M16.9,13.9H7.8v6.5h9.2V13.9z"/>
			<path class="st2" d="M22.3,25.1V26H7.8v-0.9H22.3z"/>
			<path class="st2" d="M22.3,23.3v0.9H7.8v-0.9H22.3z"/>
			<path class="st2" d="M22.3,21.4v0.9H7.8v-0.9H22.3L22.3,21.4z"/>
			<path class="st4" d="M11.2,14.4c0.2,0,0.3,0,0.4-0.3c0.1,0.2,0.1,0.3,0.4,0.2c-0.2,0.1-0.2,0.2-0.2,0.4c-0.1,0-0.1-0.1-0.2-0.1
				c-0.1,0-0.1,0.1-0.2,0.2C11.4,14.7,11.4,14.5,11.2,14.4z"/>
			<path class="st4" d="M13.4,14.5c-0.1,0.1-0.1,0.1-0.2,0.1c0,0.1,0,0.1,0.1,0.3c-0.2-0.2-0.3-0.2-0.5,0c0.1-0.2,0.1-0.3-0.1-0.4
				c0.1,0,0.2,0,0.2,0c0.1,0,0.1-0.1,0.1-0.2C13.1,14.4,13.2,14.5,13.4,14.5L13.4,14.5z"/>
			<path class="st4" d="M15.9,14.9c0-0.1,0.1-0.2,0.1-0.3c-0.1-0.1-0.1-0.1-0.2-0.2c0.2,0,0.4,0,0.4-0.2c0,0.2,0.2,0.3,0.4,0.3
				c-0.2,0.1-0.3,0.2-0.1,0.4c-0.1,0-0.1-0.1-0.2-0.1C16.1,14.8,16,14.8,15.9,14.9L15.9,14.9z"/>
			<path class="st4" d="M13.4,15.7c-0.1,0.1-0.1,0.1-0.2,0.1c0,0.1,0,0.2,0.1,0.3c-0.2-0.2-0.3-0.2-0.5,0c0.1-0.2,0.1-0.4-0.1-0.4
				c0.2,0,0.3-0.1,0.4-0.3C13.1,15.7,13.2,15.7,13.4,15.7z"/>
			<path class="st4" d="M14.6,16c-0.1,0-0.1,0.1-0.2,0.1c0-0.1,0.1-0.2,0.1-0.3c-0.1-0.1-0.1-0.1-0.2-0.2c0.2,0,0.4,0,0.4-0.2
				c0.1,0.2,0.2,0.3,0.4,0.3c-0.1,0.1-0.1,0.1-0.2,0.2c0,0.1,0.1,0.2,0.1,0.3C14.7,16.1,14.7,16.1,14.6,16L14.6,16z"/>
			<path class="st4" d="M16.5,15.7c-0.2,0.1-0.2,0.2-0.2,0.4c-0.1,0-0.1-0.1-0.2-0.1c-0.1,0-0.1,0.1-0.2,0.1c0-0.1,0.1-0.2,0.1-0.3
				c-0.1-0.1-0.1-0.1-0.2-0.2c0.2,0,0.4,0,0.4-0.2C16.2,15.7,16.3,15.7,16.5,15.7L16.5,15.7z"/>
			<path class="st4" d="M13.4,18.3c-0.1,0-0.1,0.1-0.2,0.1c0,0.1,0,0.2,0.1,0.2c-0.1-0.1-0.3-0.1-0.4,0c0-0.2,0-0.4-0.1-0.5
				c0.2,0,0.4,0,0.4-0.2C13.1,18.3,13.2,18.3,13.4,18.3z"/>
			<path class="st4" d="M8.6,14.6c0,0.1,0.1,0.2,0.1,0.3c-0.1-0.1-0.2-0.1-0.2-0.1c-0.1,0.1-0.1,0.1-0.2,0.1c0-0.1,0.1-0.2,0.1-0.3
				c-0.1-0.1-0.1-0.1-0.2-0.2c0.2,0,0.4,0,0.4-0.2c0.1,0.2,0.1,0.3,0.4,0.3C8.8,14.5,8.7,14.6,8.6,14.6L8.6,14.6z"/>
			<path class="st4" d="M14.3,17c0.2,0,0.3-0.1,0.3-0.3c0,0.2,0.1,0.3,0.4,0.3c-0.1,0-0.1,0.1-0.2,0.2c0,0.1,0.1,0.2,0.1,0.2
				c-0.1-0.1-0.3-0.2-0.4,0c0,0,0,0,0,0c0-0.1,0-0.1,0.1-0.2C14.4,17.1,14.3,17.1,14.3,17L14.3,17z"/>
			<path class="st4" d="M13.3,17.4c-0.1-0.1-0.1-0.1-0.2-0.1c-0.1,0-0.1,0.1-0.2,0.2c0.1-0.2,0.1-0.4-0.1-0.4c0.2,0,0.4,0,0.4-0.3
				c0,0.2,0.1,0.3,0.4,0.3c-0.1,0-0.1,0.1-0.2,0.2C13.3,17.3,13.3,17.3,13.3,17.4L13.3,17.4z"/>
			<path class="st4" d="M8.3,17.4c0-0.1,0-0.1,0.1-0.2c-0.1,0-0.1-0.1-0.2-0.2c0.2,0,0.4,0,0.4-0.2C8.5,16.9,8.7,17,8.8,17
				c-0.1,0.1-0.1,0.1-0.2,0.2c0,0.1,0,0.2,0.1,0.3C8.6,17.3,8.4,17.2,8.3,17.4C8.3,17.5,8.3,17.4,8.3,17.4z"/>
			<path class="st4" d="M13.4,19.6c-0.1,0-0.1,0.1-0.2,0.1c0,0.1,0,0.2,0.1,0.3c-0.2-0.2-0.3-0.2-0.5,0c0.1-0.2,0.1-0.3-0.1-0.4
				c0.2,0,0.3,0,0.4-0.3C13.2,19.5,13.2,19.7,13.4,19.6C13.4,19.6,13.4,19.6,13.4,19.6L13.4,19.6z"/>
			<path class="st4" d="M16.2,19.3c0,0.2,0.2,0.3,0.4,0.3c-0.2,0.1-0.2,0.2-0.1,0.4c-0.2-0.1-0.3-0.2-0.5,0c0-0.1,0-0.2,0.1-0.2
				c-0.1,0-0.1-0.1-0.2-0.2C16,19.6,16.2,19.6,16.2,19.3L16.2,19.3z"/>
			<path class="st4" d="M14.9,19.6c-0.1,0-0.1,0.1-0.2,0.1c0,0.1,0,0.2,0.1,0.2c-0.1-0.1-0.3-0.1-0.4,0c0-0.1,0-0.1,0.1-0.2
				c-0.1,0-0.1-0.1-0.2-0.2c0.2,0,0.4,0,0.4-0.2C14.6,19.5,14.7,19.6,14.9,19.6z"/>
			<path class="st4" d="M8.8,15.7c-0.1,0.1-0.1,0.1-0.2,0.1c0,0.1,0,0.2,0.1,0.2c-0.2-0.1-0.3-0.1-0.5,0c0-0.1,0-0.1,0.1-0.2
				c-0.1-0.1-0.1-0.1-0.2-0.2c0.1,0,0.2,0,0.2,0c0.1,0,0.1-0.1,0.1-0.2C8.5,15.6,8.6,15.8,8.8,15.7C8.8,15.7,8.8,15.7,8.8,15.7
				L8.8,15.7z"/>
			<path class="st4" d="M14.3,18.3c0.2,0.1,0.3,0,0.3-0.2c0,0.2,0.2,0.3,0.4,0.2c-0.1,0.1-0.2,0.1-0.2,0.2c0,0.1,0,0.2,0.1,0.3
				c-0.1-0.1-0.2-0.1-0.2-0.1c-0.1,0-0.1,0.1-0.2,0.1c0-0.1,0.1-0.2,0.1-0.3C14.4,18.4,14.3,18.4,14.3,18.3
				C14.3,18.3,14.3,18.3,14.3,18.3L14.3,18.3z"/>
			<path class="st4" d="M11.3,16.1c0.1-0.2,0.1-0.3-0.1-0.4c0.2,0,0.4,0,0.4-0.3c0.1,0.2,0.1,0.3,0.4,0.3c-0.2,0.1-0.2,0.2-0.1,0.4
				C11.7,16.1,11.5,16.1,11.3,16.1z"/>
			<path class="st4" d="M11.2,17c0.2,0,0.3,0,0.4-0.3c0,0.2,0.2,0.3,0.4,0.2c-0.1,0.1-0.2,0.3-0.1,0.5c-0.1,0-0.1-0.1-0.2-0.1
				c-0.1,0-0.1,0.1-0.2,0.2C11.4,17.3,11.4,17.1,11.2,17L11.2,17z"/>
			<path class="st4" d="M8.7,18.7c-0.1-0.1-0.3-0.1-0.5,0c0-0.1,0-0.2,0.1-0.2c-0.1,0-0.1-0.1-0.2-0.2c0.2,0,0.4,0,0.4-0.2
				c0.1,0.2,0.2,0.3,0.4,0.3c-0.1,0-0.1,0.1-0.2,0.1C8.7,18.5,8.7,18.6,8.7,18.7L8.7,18.7z"/>
			<path class="st4" d="M9.7,14.5c0.2,0,0.3-0.1,0.4-0.3c0,0.2,0.1,0.3,0.4,0.3c-0.1,0.1-0.3,0.2-0.1,0.4c-0.2-0.1-0.3-0.2-0.5,0
				c0-0.1,0-0.2,0.1-0.2C9.8,14.6,9.8,14.5,9.7,14.5z"/>
			<path class="st4" d="M16.4,17.4c-0.2-0.1-0.3-0.1-0.5,0c0-0.1,0.1-0.2,0.1-0.3c-0.1,0-0.1-0.1-0.2-0.2c0.2,0,0.4,0,0.4-0.3
				c0.1,0.2,0.2,0.3,0.4,0.3C16.3,17.1,16.3,17.2,16.4,17.4L16.4,17.4z"/>
			<path class="st4" d="M14.4,14.6c-0.1-0.1-0.1-0.1-0.2-0.2c0.2,0,0.4,0,0.4-0.2c0,0.2,0.2,0.3,0.4,0.2c-0.1,0.1-0.2,0.1-0.2,0.2
				c0,0.1,0,0.2,0.1,0.2c-0.1-0.1-0.3-0.1-0.4,0C14.4,14.8,14.4,14.7,14.4,14.6L14.4,14.6z"/>
			<path class="st4" d="M11.2,18.3c0.2,0,0.4,0,0.4-0.2c0.1,0.2,0.1,0.3,0.4,0.2c-0.2,0.1-0.2,0.2-0.1,0.5c-0.2-0.1-0.3-0.2-0.4,0
				C11.4,18.6,11.3,18.4,11.2,18.3L11.2,18.3z"/>
			<path class="st4" d="M9.8,16.2c0-0.1,0.1-0.2,0.1-0.3c-0.1-0.1-0.1-0.1-0.2-0.2c0.2,0,0.4,0,0.4-0.2c0,0.2,0.2,0.3,0.4,0.2
				c-0.1,0.1-0.2,0.1-0.2,0.2c0,0.1,0,0.2,0.1,0.3c-0.1-0.1-0.2-0.1-0.2-0.1C10,16.1,9.9,16.1,9.8,16.2L9.8,16.2z"/>
			<path class="st4" d="M16,18.5c-0.1,0-0.1-0.1-0.2-0.2c0.2,0,0.4,0,0.4-0.2c0,0.2,0.2,0.3,0.4,0.2c-0.2,0.1-0.2,0.2-0.2,0.4
				c-0.1,0-0.1-0.1-0.2-0.1c-0.1,0-0.1,0.1-0.2,0.1C16,18.6,16,18.6,16,18.5L16,18.5z"/>
			<path class="st4" d="M11.8,20c-0.1-0.2-0.3-0.1-0.4,0c0-0.1,0-0.1,0.1-0.2c-0.1,0-0.1-0.1-0.2-0.2c0.2,0,0.4,0,0.4-0.2
				c0.1,0.2,0.1,0.3,0.4,0.2C11.8,19.7,11.7,19.8,11.8,20z"/>
			<path class="st4" d="M8.3,19.8c-0.1-0.1-0.1-0.1-0.2-0.2c0.2,0,0.4,0,0.4-0.2c0,0.2,0.1,0.3,0.3,0.3c-0.1,0-0.1,0.1-0.2,0.2
				c0,0.1,0,0.1,0.1,0.2c-0.1-0.1-0.3-0.1-0.4,0C8.3,19.9,8.3,19.8,8.3,19.8L8.3,19.8z"/>
			<path class="st4" d="M10.3,17.4c-0.2-0.2-0.3-0.2-0.4,0c0-0.1,0-0.1,0.1-0.2c-0.1,0-0.1-0.1-0.2-0.2c0.2,0,0.4,0,0.4-0.2
				c0,0.2,0.1,0.3,0.4,0.3C10.2,17.1,10.2,17.2,10.3,17.4L10.3,17.4z"/>
			<path class="st4" d="M9.8,18.7c0-0.1,0-0.2,0.1-0.2c-0.1,0-0.1-0.1-0.2-0.2c0.2,0,0.3-0.1,0.4-0.3c0,0.2,0.1,0.3,0.3,0.3
				c-0.1,0-0.1,0.1-0.2,0.2c0,0.1,0,0.1,0.1,0.3C10.1,18.6,10,18.6,9.8,18.7C9.8,18.7,9.8,18.7,9.8,18.7z"/>
			<path class="st4" d="M9.7,19.6c0.2,0,0.4,0,0.4-0.2c0,0.2,0.2,0.3,0.4,0.2c-0.1,0.1-0.2,0.1-0.2,0.2c0,0.1,0,0.2,0.1,0.2
				c-0.2-0.1-0.3-0.2-0.5,0c0-0.1,0-0.2,0.1-0.2C9.8,19.7,9.8,19.7,9.7,19.6L9.7,19.6z"/>
			<path class="st4" d="M13.5,17.7c0.2,0,0.3-0.1,0.4-0.3c0,0.2,0.1,0.3,0.4,0.2c-0.1,0.1-0.3,0.2-0.1,0.4c-0.2-0.1-0.3-0.2-0.4,0
				C13.7,18,13.7,17.8,13.5,17.7z"/>
			<path class="st4" d="M9.5,15.6c-0.1,0-0.1-0.1-0.2-0.1c-0.1,0-0.1,0.1-0.2,0.2c0.1-0.2,0.1-0.4-0.1-0.5c0.1,0,0.1,0,0.2,0
				c0-0.1,0.1-0.1,0.1-0.2c0,0.1,0.1,0.2,0.1,0.3h0.2C9.5,15.2,9.4,15.4,9.5,15.6C9.5,15.5,9.5,15.5,9.5,15.6L9.5,15.6z"/>
			<path class="st4" d="M14.1,16.8c-0.1-0.1-0.3-0.2-0.4,0c0.1-0.2,0.1-0.3-0.1-0.4c0.2,0,0.3,0,0.4-0.3c0.1,0.2,0.1,0.3,0.4,0.3
				C14,16.5,14,16.7,14.1,16.8L14.1,16.8z"/>
			<path class="st4" d="M9.6,16.4c-0.2,0.1-0.2,0.2-0.1,0.4c-0.1-0.1-0.2-0.1-0.2-0.2c-0.1,0-0.1,0.1-0.2,0.1
				c0.1-0.2,0.1-0.3-0.1-0.4c0.1,0,0.1,0,0.2,0c0-0.1,0.1-0.1,0.1-0.3c0,0.1,0.1,0.2,0.1,0.3L9.6,16.4C9.6,16.4,9.6,16.4,9.6,16.4
				L9.6,16.4z"/>
			<path class="st4" d="M13.5,19c0.2,0,0.3-0.1,0.4-0.2c0,0.1,0.1,0.1,0.1,0.2c0.1,0,0.1,0,0.3,0c-0.2,0.1-0.3,0.2-0.2,0.4
				c-0.1-0.1-0.3-0.2-0.4,0C13.7,19.2,13.7,19.1,13.5,19z"/>
			<path class="st4" d="M10.8,14.9c0.1,0.2,0.2,0.3,0.4,0.2c-0.2,0.1-0.2,0.2-0.1,0.4c-0.1,0-0.1-0.1-0.2-0.1
				c-0.1,0-0.1,0.1-0.2,0.1c0-0.1,0.1-0.2,0.1-0.3c-0.1-0.1-0.1-0.1-0.2-0.2c0.1,0,0.2,0,0.3,0C10.7,15,10.7,15,10.8,14.9L10.8,14.9
				z"/>
			<path class="st4" d="M9.4,17.7c0.1,0,0.2,0,0.2,0c-0.2,0.1-0.2,0.2-0.1,0.4c-0.1,0-0.1-0.1-0.2-0.1c-0.1,0-0.1,0.1-0.2,0.1
				c0-0.1,0.1-0.2,0.1-0.3c-0.1,0-0.1-0.1-0.2-0.2c0.1,0,0.2,0,0.3,0c0-0.1,0.1-0.1,0.1-0.3C9.3,17.5,9.3,17.6,9.4,17.7z"/>
			<path class="st4" d="M12.3,17.7c0-0.1,0.1-0.1,0.1-0.2c0.1,0.2,0.1,0.4,0.4,0.3c-0.2,0.1-0.3,0.2-0.1,0.4c-0.1,0-0.1-0.1-0.2-0.1
				c-0.1,0-0.1,0.1-0.2,0.2c0.1-0.2,0.1-0.4-0.1-0.5C12.1,17.7,12.2,17.7,12.3,17.7z"/>
			<path class="st4" d="M11,16.8c-0.1,0-0.1-0.1-0.2-0.1c-0.1,0-0.1,0.1-0.2,0.2c0.1-0.2,0.1-0.4-0.1-0.4c0.2,0,0.3-0.1,0.4-0.2
				c0,0.1,0.1,0.1,0.1,0.2c0.1,0,0.1,0,0.3,0C11,16.5,10.9,16.6,11,16.8L11,16.8z"/>
			<path class="st4" d="M10.5,19h0.2c0-0.1,0.1-0.1,0.1-0.3c0,0.1,0.1,0.2,0.1,0.2c0.1,0,0.1,0,0.3,0c-0.2,0.1-0.3,0.2-0.2,0.4
				c-0.1,0-0.1-0.1-0.2-0.1c-0.1,0-0.1,0.1-0.2,0.2C10.6,19.2,10.7,19.1,10.5,19C10.4,19,10.4,19,10.5,19z"/>
			<path class="st4" d="M12,19c0.2,0,0.3-0.1,0.4-0.2c0,0.1,0.1,0.1,0.1,0.2c0.1,0,0.1,0,0.3,0c-0.2,0.1-0.3,0.2-0.2,0.4
				c-0.1,0-0.1-0.1-0.2-0.1c-0.1,0-0.1,0.1-0.2,0.2C12.2,19.2,12.2,19.1,12,19L12,19z"/>
			<path class="st4" d="M13.7,15.6c0.1-0.2,0.1-0.3-0.1-0.4c0.1,0,0.1,0,0.2,0c0-0.1,0.1-0.1,0.1-0.3c0,0.2,0.1,0.3,0.4,0.3
				c-0.2,0.1-0.2,0.2-0.1,0.4C13.9,15.4,13.8,15.4,13.7,15.6L13.7,15.6z"/>
			<path class="st4" d="M15,15.1c0.2,0.1,0.3,0,0.4-0.2c0,0.1,0.1,0.1,0.1,0.2c0.1,0,0.2,0,0.2,0c-0.2,0.1-0.2,0.2-0.1,0.5
				c-0.1-0.1-0.2-0.1-0.3-0.2c-0.1,0.1-0.1,0.1-0.2,0.1c0-0.1,0.1-0.2,0.1-0.3C15.2,15.2,15.1,15.2,15,15.1L15,15.1z"/>
			<path class="st4" d="M15.6,16.8c-0.1-0.1-0.1-0.1-0.2-0.1c-0.1,0-0.1,0.1-0.2,0.1c0.1-0.2,0-0.3-0.1-0.4c0.2,0,0.3,0,0.4-0.3
				c0.1,0.2,0.1,0.3,0.4,0.2C15.6,16.5,15.6,16.7,15.6,16.8L15.6,16.8z"/>
			<path class="st4" d="M9.5,19.4c-0.1,0-0.1-0.1-0.2-0.1c-0.1,0-0.1,0.1-0.2,0.1c0-0.1,0.1-0.2,0.1-0.3C9,19.1,9,19.1,8.9,19
				c0.1,0,0.2,0,0.3,0c0-0.1,0.1-0.1,0.1-0.3c0,0.1,0.1,0.2,0.1,0.3c0.1,0,0.2,0,0.3,0C9.4,19.1,9.3,19.2,9.5,19.4
				C9.5,19.4,9.5,19.4,9.5,19.4z"/>
			<path class="st4" d="M12,16.4c0.1,0,0.1,0,0.2,0c0-0.1,0.1-0.1,0.1-0.2c0,0.1,0.1,0.2,0.1,0.2c0.1,0,0.1,0,0.3,0
				c-0.2,0.1-0.3,0.2-0.2,0.4c-0.1,0-0.1-0.1-0.2-0.1c-0.1,0-0.1,0.1-0.2,0.2C12.2,16.7,12.2,16.5,12,16.4C12,16.4,12,16.4,12,16.4
				L12,16.4z"/>
			<path class="st4" d="M12.7,15.1c-0.1,0.1-0.2,0.3-0.1,0.4c-0.1-0.1-0.1-0.1-0.2-0.1c-0.1,0-0.1,0.1-0.2,0.2
				c0.1-0.2,0.1-0.4-0.1-0.4c0,0,0,0,0.1,0c0.1,0,0.2,0,0.2,0c0-0.1,0.1-0.1,0.1-0.2c0,0.1,0.1,0.2,0.1,0.2
				C12.5,15.1,12.6,15.1,12.7,15.1L12.7,15.1z"/>
			<path class="st4" d="M15.4,18.7c0,0.2,0.1,0.3,0.4,0.3c-0.2,0.1-0.2,0.2-0.1,0.4c-0.1,0-0.1-0.1-0.2-0.1c-0.1,0-0.1,0.1-0.2,0.2
				c0.1-0.2,0.1-0.4-0.1-0.4C15.2,19,15.4,19,15.4,18.7z"/>
			<path class="st4" d="M11,18.1c-0.1,0-0.1-0.1-0.2-0.1c-0.1,0-0.1,0.1-0.3,0.2c0.1-0.2,0.1-0.4-0.1-0.5c0.1,0,0.1,0,0.2,0
				c0-0.1,0.1-0.1,0.1-0.2c0,0.1,0.1,0.2,0.1,0.2c0.1,0,0.1,0,0.3,0C11,17.8,10.9,17.9,11,18.1C11,18.1,11,18.1,11,18.1L11,18.1z"/>
			<path class="st4" d="M15.8,17.7c-0.2,0.1-0.3,0.2-0.1,0.4c0,0,0,0-0.1,0c-0.1,0-0.1-0.1-0.2-0.1c-0.1,0-0.1,0.1-0.2,0.2
				c0.1-0.2,0.1-0.4-0.1-0.4c0.2,0,0.3,0,0.4-0.3C15.5,17.6,15.5,17.8,15.8,17.7L15.8,17.7z"/>
			<g>
				<g>
					<defs>
						<rect id="SVGID_00000021115250922577366110000014487782774077043363_" x="7.5" y="13.5" width="15" height="13"/>
					</defs>
					<clipPath id="SVGID_00000027584594220092313300000005055640380186846866_">
						<use xlink:href="#SVGID_00000021115250922577366110000014487782774077043363_"  style="overflow:visible;"/>
					</clipPath>
					<g style="clip-path:url(#SVGID_00000027584594220092313300000005055640380186846866_);">
						<path class="st4" d="M22.5,13.5h-15v13h15V13.5z"/>
						<path class="st6" d="M13.7,13.5H7.5v4.2h6.2V13.5z"/>
						<path class="st6" d="M22.5,13.5h-6.2v4.2h6.2V13.5z"/>
						<path class="st6" d="M13.7,22.3H7.5v4.2h6.2V22.3z"/>
						<path class="st6" d="M22.5,22.3h-6.2v4.2h6.2V22.3z"/>
						<path class="st4" d="M22.5,25.5v1h-2.4l-3.8-3.6l-0.4-0.4L15,21.7l-0.3-0.3l-0.3-0.3l-0.2-0.2l-0.3-0.3L13.3,20l-1.4-1.4l-1-1
							l-3.3-3.1v-1h2.4l3.8,3.6l0.4,0.4l0.8,0.8l0.3,0.3l0.3,0.3l0.2,0.2l0.3,0.3l0,0l0.6,0.6l1.4,1.4l1,1L22.5,25.5z"/>
						<path class="st4" d="M22.5,13.5v1.1l-3.2,3l-1,1L16.8,20l-0.5,0.5l-0.4,0.4l-0.2,0.2l-0.3,0.3L15,21.7l-0.8,0.8l-0.4,0.4
							l-3.9,3.7H7.5v-1.1l3.2-3l1-1l1.5-1.4l0.6-0.6l0.3-0.3l0.3-0.3l0.3-0.2l0.3-0.3l0.8-0.8l0.4-0.4l3.9-3.7
							C20.2,13.5,22.5,13.5,22.5,13.5z"/>
						<path class="st2" d="M22.5,18.6h-15v2.8h15V18.6z"/>
						<path class="st2" d="M22.5,13.5L22.5,13.5l-4.4,4.2l-1,1l-0.9,0.8l0,0l-0.3,0.3L15.6,20l-0.6,0.5l-0.6,0.6l-0.2,0.2l-0.1,0
							l-1,1l-4.4,4.2H7.5v0l4.4-4.1l1-1l0.9-0.8l0.3-0.3l0.3-0.3l0.6-0.5l0.6-0.5l0.2-0.2l0.1,0l1-1l4.5-4.2
							C21.4,13.5,22.5,13.5,22.5,13.5z"/>
						<path class="st2" d="M22.5,26.4L22.5,26.4l-1.1,0.1L17,22.3l-1-1l-0.1-0.1l-0.2-0.2L15,20.5L14.5,20l-0.3-0.3l-0.3-0.3
							L13,18.6l-1-1l-4.4-4.2h1.2l4.5,4.2l1,0.9l0,0l0.3,0.2l0.6,0.6l0.6,0.5l0.2,0.2l0.4,0.4l0.9,0.9l1,1L22.5,26.4z"/>
						<path class="st2" d="M15.9,13.5h-1.7v13h1.7V13.5z"/>
					</g>
				</g>
			</g>
		</g>
	</g>
</g>
</svg>
