<svg xmlns="http://www.w3.org/2000/svg" width="355" height="355" viewBox="0 0 355 355" fill="none">
<path d="M177.5 355C275.531 355 355 275.531 355 177.5C355 79.4695 275.531 0 177.5 0C79.4695 0 0 79.4695 0 177.5C0 275.531 79.4695 355 177.5 355Z" fill="#5F64FA"/>
<path d="M177.5 318.154C255.183 318.154 318.158 255.18 318.158 177.497C318.158 99.8135 255.183 36.8389 177.5 36.8389C99.8171 36.8389 36.8424 99.8135 36.8424 177.497C36.8424 255.18 99.8171 318.154 177.5 318.154Z" fill="white"/>
<path d="M177.501 289.638C239.435 289.638 289.643 239.43 289.643 177.496C289.643 115.561 239.435 65.3531 177.501 65.3531C115.566 65.3531 65.3581 115.561 65.3581 177.496C65.3581 239.43 115.566 289.638 177.501 289.638Z" fill="#5F64FA"/>
<path d="M127.247 244.351V224.249L172.429 185.338C178.084 180.297 182.571 176.178 185.891 172.982C189.333 169.662 191.792 166.527 193.268 163.577C194.743 160.626 195.481 157.429 195.481 153.987C195.481 148.7 194.005 144.459 191.055 141.262C188.227 137.943 183.862 136.283 177.961 136.283C171.199 136.283 165.974 138.127 162.286 141.816C158.597 145.381 156.753 151.528 156.753 160.257H129.091C129.091 150.545 130.935 142.184 134.623 135.177C138.312 128.046 143.783 122.575 151.036 118.764C158.413 114.952 167.388 113.047 177.961 113.047C187.797 113.047 196.095 114.829 202.857 118.395C209.619 121.837 214.66 126.632 217.979 132.779C221.422 138.926 223.143 145.996 223.143 153.987C223.143 159.888 221.729 165.421 218.901 170.584C216.197 175.748 212.57 180.666 208.021 185.338C203.472 190.01 198.37 194.681 192.714 199.353L166.158 221.483H224.987V244.351H127.247Z" fill="white"/>
</svg>