<svg xmlns="http://www.w3.org/2000/svg" width="161" height="222" viewBox="0 0 161 222" fill="none">
<path d="M159.249 20.2434C162.81 17.8591 159.836 15.6602 159.836 15.6602L82.6886 7.67268L82.6035 7.66396L6.97164 0C6.97164 0 3.67299 1.55851 6.61105 4.60638L159.252 20.2437L159.249 20.2434Z" fill="#5F64FA"/>
<path d="M80.77 61.0884L4.47182 69.8928C4.47182 69.8928 19.2752 71.3056 21.5558 76.3674C23.8388 81.4262 32.5615 113.566 63.7612 117.824C63.7612 117.824 64.2102 120.189 63.7411 121.915C63.5904 122.463 64.0222 122.998 64.6002 122.993C68.9688 122.959 82.5491 122.803 87.2957 122.158C87.9977 122.063 88.7008 121.975 89.4074 121.895C94.1678 121.36 107.372 118.188 111.616 117.152C112.175 117.016 112.462 116.392 112.184 115.897C111.306 114.339 111.16 111.936 111.16 111.936C140.363 100.177 140.932 66.883 141.9 61.4177C142.871 55.9546 156.873 50.9607 156.873 50.9607L80.7727 61.0881L80.77 61.0884Z" fill="white"/>
<path d="M157.375 51.8462C160.31 48.7257 156.917 47.2483 156.917 47.2483L79.9394 56.7265L79.8545 56.7371L4.42625 66.1915C4.42625 66.1915 1.56148 68.4484 5.10915 70.7613L157.377 51.8459L157.375 51.8462Z" fill="#5F64FA"/>
<path d="M77.4797 110.962L0.853142 105.72C0.853142 105.72 15.1498 109.806 16.4668 115.198C17.7867 120.588 20.4881 153.777 50.3858 163.647C50.3858 163.647 50.3949 166.054 49.6183 167.665C49.3699 168.177 49.6966 168.781 50.2659 168.882C54.5673 169.644 67.948 171.965 72.733 172.194C73.4407 172.229 74.1478 172.271 74.8572 172.321C79.6355 172.662 93.1979 171.949 97.5597 171.703C98.1342 171.671 98.5307 171.11 98.3479 170.572C97.769 168.88 98.0653 166.491 98.0653 166.491C128.927 160.25 135.572 127.618 137.523 122.421C139.477 117.226 154.157 114.867 154.157 114.867L77.4824 110.962L77.4797 110.962Z" fill="white"/>
<path d="M154.488 115.829C157.944 113.295 154.879 111.225 154.879 111.225L77.4605 106.522L77.375 106.517L1.48503 102.073C1.48503 102.073 -1.74419 103.77 1.32114 106.69L154.491 115.829L154.488 115.829Z" fill="#5F64FA"/>
<path d="M80.5763 160.573L3.79928 158.457C3.79928 158.457 18.251 161.957 19.7873 167.291C21.3263 172.622 25.3818 205.674 55.6578 214.318C55.6578 214.318 55.7653 216.722 55.0552 218.364C54.8279 218.885 55.1791 219.476 55.752 219.553C60.081 220.14 73.5454 221.913 78.3358 221.948C79.0443 221.954 79.7526 221.967 80.4634 221.988C85.2517 222.134 98.7736 220.869 103.122 220.446C103.694 220.391 104.068 219.814 103.863 219.284C103.216 217.617 103.414 215.218 103.414 215.218C133.995 207.725 139.301 174.85 141.038 169.577C142.778 164.308 157.349 161.352 157.349 161.352L80.5789 160.573L80.5763 160.573Z" fill="white"/>
<path d="M157.719 162.3C161.069 159.628 157.921 157.684 157.921 157.684L80.3754 156.138L80.2899 156.136L4.2814 154.787C4.2814 154.787 1.12423 156.614 4.30634 159.407L157.722 162.3L157.719 162.3Z" fill="#5F64FA"/>
</svg>