<svg xmlns="http://www.w3.org/2000/svg" width="267" height="267" viewBox="0 0 267 267" fill="none">
<path d="M133.032 266.063C206.503 266.063 266.063 206.503 266.063 133.032C266.063 59.5603 206.503 0 133.032 0C59.5603 0 0 59.5603 0 133.032C0 206.503 59.5603 266.063 133.032 266.063Z" fill="#FA8C5F"/>
<path d="M133.032 238.448C191.253 238.448 238.451 191.25 238.451 133.029C238.451 74.8076 191.253 27.6098 133.032 27.6098C74.8103 27.6098 27.6124 74.8076 27.6124 133.029C27.6124 191.25 74.8103 238.448 133.032 238.448Z" fill="white"/>
<path d="M133.032 217.076C179.45 217.076 217.08 179.447 217.08 133.028C217.08 86.6099 179.45 48.9804 133.032 48.9804C86.6136 48.9804 48.9841 86.6099 48.9841 133.028C48.9841 179.447 86.6136 217.076 133.032 217.076Z" fill="#FA8C5F"/>
<path d="M134.432 182.043C127.173 182.043 121.034 180.786 116.015 178.273C111.086 175.759 107.322 172.315 104.723 167.939C102.123 163.47 100.824 158.35 100.824 152.578H116.956C116.956 157.233 118.345 160.864 121.123 163.47C123.991 165.984 128.427 167.241 134.432 167.241C140.257 167.241 144.604 165.984 147.472 163.47C150.429 160.864 151.908 157.233 151.908 152.578C151.908 147.83 150.564 144.106 147.875 141.406C145.187 138.613 140.705 137.217 134.432 137.217H125.022V123.252H134.432C139.809 123.252 143.842 122.089 146.531 119.761C149.219 117.341 150.564 113.896 150.564 109.428C150.564 104.959 149.264 101.607 146.665 99.3731C144.156 97.1388 140.078 96.0217 134.432 96.0217C128.875 96.0217 124.753 97.1854 122.064 99.5128C119.465 101.84 118.166 105.099 118.166 109.288H102.034C102.034 103.609 103.244 98.6749 105.664 94.4855C108.173 90.2962 111.847 87.0378 116.687 84.7104C121.526 82.383 127.441 81.2192 134.432 81.2192C141.512 81.2192 147.427 82.4295 152.177 84.85C156.927 87.1774 160.512 90.3427 162.932 94.3459C165.441 98.256 166.696 102.632 166.696 107.473C166.696 113.058 165.262 117.76 162.394 121.577C159.526 125.301 155.583 127.954 150.564 129.537C156.031 131.212 160.288 134.052 163.335 138.055C166.472 141.965 168.04 147.271 168.04 153.974C168.04 159.188 166.74 163.936 164.141 168.218C161.632 172.501 157.868 175.899 152.849 178.412C147.92 180.833 141.781 182.043 134.432 182.043Z" fill="white"/>
</svg>