<?xml version="1.0" encoding="utf-8"?>
<!-- Generator: Adobe Illustrator 28.1.0, SVG Export Plug-In . SVG Version: 6.00 Build 0)  -->
<svg version="1.1" id="Calque_1" xmlns="http://www.w3.org/2000/svg" xmlns:xlink="http://www.w3.org/1999/xlink" x="0px" y="0px"
	 viewBox="0 0 142 67" style="enable-background:new 0 0 142 67;" xml:space="preserve">
<style type="text/css">
	.st0{fill:none;stroke:#FCC665;stroke-width:6;}
	.st1{fill:#FFFFFF;}
	.st2{fill:#FCC665;}
	.st3{fill:#020203;}
</style>
<path class="st0" d="M10,3h122c3.87,0,7,3.13,7,7v47c0,3.87-3.13,7-7,7H10c-3.87,0-7-3.13-7-7V10C3,6.13,6.13,3,10,3z"/>
<path class="st1" d="M121.26,33.5c0,0.59-0.03,1.18-0.1,1.75c-0.13,1.21-0.41,2.39-0.8,3.5c-0.44,1.25-1.03,2.42-1.76,3.5
	c-0.89,1.32-1.97,2.5-3.2,3.5c-2.71,2.19-6.15,3.5-9.91,3.5c-3.75,0-7.2-1.31-9.91-3.5c-1.23-1-2.31-2.18-3.2-3.5
	c-0.72-1.08-1.32-2.26-1.76-3.5c-0.39-1.12-0.67-2.29-0.8-3.5c-0.06-0.58-0.1-1.16-0.1-1.75s0.03-1.18,0.1-1.75
	c0.18-1.66,0.62-3.23,1.28-4.69c0.01-0.01,0.01-0.03,0.02-0.04c1.32-2.91,3.49-5.35,6.2-6.99h0c0.15-0.09,0.31-0.18,0.46-0.27
	c0.09-0.05,0.17-0.1,0.26-0.14c0.22-0.12,0.45-0.24,0.68-0.35c2.05-0.97,4.34-1.52,6.76-1.52c3.75,0,7.2,1.31,9.91,3.5
	c1.23,1,2.31,2.18,3.2,3.5c0.72,1.08,1.32,2.26,1.76,3.5c0.39,1.12,0.67,2.29,0.8,3.5C121.23,32.32,121.26,32.91,121.26,33.5z"/>
<path class="st2" d="M124,33.5c0,0.69-0.04,1.38-0.11,2.06c-0.16,1.43-0.48,2.8-0.94,4.11c-0.52,1.46-1.21,2.84-2.06,4.11
	c-1.04,1.55-2.31,2.94-3.75,4.11c-3.18,2.57-7.22,4.11-11.63,4.11s-8.45-1.54-11.63-4.11c-1.45-1.17-2.72-2.56-3.75-4.11
	c-0.85-1.27-1.55-2.65-2.06-4.11c-0.46-1.31-0.78-2.68-0.94-4.11C87.04,34.88,87,34.2,87,33.5s0.04-1.38,0.11-2.06
	c0.21-1.94,0.73-3.8,1.5-5.51c0.01-0.02,0.02-0.03,0.02-0.05c1.54-3.42,4.1-6.28,7.28-8.21h0c0.18-0.11,0.36-0.22,0.54-0.32
	c0.1-0.06,0.2-0.11,0.3-0.17c0.26-0.14,0.53-0.28,0.8-0.41c2.4-1.14,5.1-1.78,7.94-1.78c4.41,0,8.45,1.54,11.63,4.11
	c1.45,1.17,2.72,2.56,3.75,4.11c0.85,1.27,1.55,2.65,2.06,4.11c0.46,1.31,0.78,2.68,0.94,4.11C123.96,32.12,124,32.81,124,33.5z"/>
<path class="st1" d="M121.26,33.5c0,0.59-0.03,1.18-0.1,1.75c-0.13,1.21-0.41,2.39-0.8,3.5c-0.44,1.25-1.03,2.42-1.76,3.5
	c-0.89,1.32-1.97,2.5-3.2,3.5c-2.71,2.19-6.15,3.5-9.91,3.5c-3.75,0-7.2-1.31-9.91-3.5c-1.23-1-2.31-2.18-3.2-3.5
	c-0.72-1.08-1.32-2.26-1.76-3.5c-0.39-1.12-0.67-2.29-0.8-3.5c-0.06-0.58-0.1-1.16-0.1-1.75s0.03-1.18,0.1-1.75
	c0.18-1.66,0.62-3.23,1.28-4.69c0.01-0.01,0.01-0.03,0.02-0.04c1.32-2.91,3.49-5.35,6.2-6.99h0c0.15-0.09,0.31-0.18,0.46-0.27
	c0.09-0.05,0.17-0.1,0.26-0.14c0.22-0.12,0.45-0.24,0.68-0.35c2.05-0.97,4.34-1.52,6.76-1.52c3.75,0,7.2,1.31,9.91,3.5
	c1.23,1,2.31,2.18,3.2,3.5c0.72,1.08,1.32,2.26,1.76,3.5c0.39,1.12,0.67,2.29,0.8,3.5C121.23,32.32,121.26,32.91,121.26,33.5z"/>
<path class="st3" d="M115.41,21.24h-9.91v-3.5C109.25,17.74,112.7,19.05,115.41,21.24z"/>
<path class="st3" d="M120.36,28.25H105.5v-3.5h13.11C119.33,25.83,119.92,27,120.36,28.25z"/>
<path class="st3" d="M121.26,33.5c0,0.59-0.03,1.18-0.1,1.75H89.84c-0.06-0.58-0.1-1.16-0.1-1.75s0.03-1.18,0.1-1.75h31.33
	C121.23,32.32,121.26,32.91,121.26,33.5z"/>
<path class="st3" d="M120.36,38.75c-0.44,1.25-1.03,2.42-1.76,3.5H92.39c-0.72-1.08-1.32-2.26-1.76-3.5H120.36z"/>
<path class="st3" d="M115.41,45.76c-2.71,2.19-6.15,3.5-9.91,3.5c-3.75,0-7.2-1.31-9.91-3.5H115.41z"/>
<path class="st3" d="M99.04,22.78l-1.1-0.47l-0.32,0.63l-0.32-0.63l-1.1,0.47l1.13-2.76h0c0.15-0.09,0.31-0.18,0.46-0.27
	L99.04,22.78z"/>
<path class="st3" d="M102.87,19.32l-0.47,0.32l-0.79-0.32L102.4,19L102.87,19.32z"/>
<path class="st3" d="M102.87,19.32l-0.32-0.47l0.32-0.79l0.32,0.79L102.87,19.32z"/>
<path class="st3" d="M102.87,19.32l0.47-0.32l0.79,0.32l-0.79,0.32L102.87,19.32z"/>
<path class="st3" d="M102.87,19.32l1.42,3.47l-1.1-0.47l-0.32,0.63l-0.32-0.63l-1.1,0.47L102.87,19.32z"/>
<path class="st3" d="M94.99,23.61l-0.47,0.32l-0.79-0.32l0.79-0.32L94.99,23.61z"/>
<path class="st3" d="M94.99,23.61l-0.32-0.47l0.32-0.79l0.32,0.79L94.99,23.61z"/>
<path class="st3" d="M94.99,23.61l0.47-0.32l0.79,0.32l-0.79,0.32L94.99,23.61z"/>
<path class="st3" d="M94.99,23.61l1.42,3.47l-1.1-0.47l-0.32,0.63l-0.32-0.63l-1.1,0.47L94.99,23.61z"/>
<path class="st3" d="M100.25,23.61l-0.47,0.32l-0.79-0.32l0.79-0.32L100.25,23.61z"/>
<path class="st3" d="M100.25,23.61l-0.31-0.47l0.31-0.79l0.32,0.79L100.25,23.61z"/>
<path class="st3" d="M100.25,23.61l0.47-0.32l0.79,0.32l-0.79,0.32L100.25,23.61z"/>
<path class="st3" d="M100.25,23.61l1.42,3.47l-1.1-0.47l-0.32,0.63l-0.31-0.63l-1.1,0.47L100.25,23.61z"/>
<path class="st3" d="M92.37,27.9l-0.47,0.32l-0.79-0.32l0.79-0.32L92.37,27.9z"/>
<path class="st3" d="M92.37,27.9l-0.32-0.47l0.32-0.79l0.32,0.79L92.37,27.9z"/>
<path class="st3" d="M92.37,27.9l0.47-0.32l0.79,0.32l-0.79,0.32L92.37,27.9z"/>
<path class="st3" d="M92.37,27.9l1.42,3.47l-1.1-0.47l-0.32,0.63l-0.32-0.63l-1.1,0.47L92.37,27.9z"/>
<path class="st3" d="M97.62,27.9l-0.47,0.32l-0.79-0.32l0.79-0.32L97.62,27.9z"/>
<path class="st3" d="M97.62,27.9l-0.32-0.47l0.32-0.79l0.32,0.79L97.62,27.9z"/>
<path class="st3" d="M97.62,27.9l0.47-0.32l0.79,0.32l-0.79,0.32L97.62,27.9z"/>
<path class="st3" d="M97.62,27.9l1.42,3.47l-1.1-0.47l-0.32,0.63l-0.32-0.63l-1.1,0.47L97.62,27.9z"/>
<path class="st3" d="M102.87,27.9l-0.47,0.32l-0.79-0.32l0.79-0.32L102.87,27.9z"/>
<path class="st3" d="M102.87,27.9l-0.32-0.47l0.32-0.79l0.32,0.79L102.87,27.9z"/>
<path class="st3" d="M102.87,27.9l0.47-0.32l0.79,0.32l-0.79,0.32L102.87,27.9z"/>
<path class="st3" d="M102.87,27.9l1.42,3.47l-1.1-0.47l-0.32,0.63l-0.32-0.63l-1.1,0.47L102.87,27.9z"/>
</svg>
