<svg width="72" height="68" viewBox="0 0 72 68" fill="none" xmlns="http://www.w3.org/2000/svg">
<path d="M25.39 29.2C22.27 27.89 20.23 24.84 20.31 21.59C20.31 21.47 20.32 21.35 20.33 21.23C20.6 17.03 23.98 13.66 28.18 13.39C30.35 13.26 32.32 13.79 33.85 14.91C34.5 22.41 40.8 28.31 48.46 28.31V22.07C43.81 22.07 40.03 18.29 40.03 13.64L40 12.13C39.78 12.16 39.55 12.17 39.32 12.17C36.27 12.17 33.67 10.28 32.63 7.59998C31.1 7.20998 29.47 7.05998 27.79 7.16998C20.47 7.62998 14.59 13.5 14.1 20.82C14.1 21.03 14.08 21.24 14.08 21.44C13.93 27.05 17.29 32.33 22.48 34.73C22.52 34.74 22.55 34.76 22.59 34.78C22.72 34.84 22.85 34.9 22.98 34.95C23.19 35.04 23.39 35.13 23.6 35.22C23.65 35.25 23.71 35.27 23.77 35.3C29.95 38.24 33.9 44.45 33.9 51.35V51.55H37.99V51.5C37.99 49.17 38.43 46.95 39.25 44.9C37.32 37.92 32.3 32.08 25.39 29.2Z" fill="#7BD69A"/>
<path d="M56.03 35.66C47.29 35.66 40.19 42.77 40.19 51.5C40.19 60.23 47.29 67.34 56.03 67.34C64.77 67.34 71.86 60.23 71.86 51.5C71.86 42.77 64.76 35.66 56.03 35.66ZM56.03 61.1C50.73 61.1 46.42 56.8 46.42 51.5C46.42 46.2 50.73 41.9 56.03 41.9C61.33 41.9 65.63 46.21 65.63 51.5C65.63 56.79 61.32 61.1 56.03 61.1Z" fill="#7BD69A"/>
<path d="M39.32 9.97C42.07 9.97 44.3 7.74 44.3 4.99C44.3 2.24 42.07 0 39.32 0C36.57 0 34.33 2.23 34.33 4.99C34.33 7.75 36.56 9.97 39.32 9.97Z" fill="#7BD69A"/>
<path d="M15.83 35.66C7.1 35.66 0 42.77 0 51.5C0 60.23 7.1 67.34 15.83 67.34C24.56 67.34 31.67 60.23 31.67 51.5C31.67 42.77 24.57 35.66 15.83 35.66ZM15.83 61.1C10.54 61.1 6.23 56.8 6.23 51.5C6.23 46.2 10.54 41.9 15.83 41.9C21.12 41.9 25.44 46.21 25.44 51.5C25.44 56.79 21.13 61.1 15.83 61.1Z" fill="#7BD69A"/>
</svg>
