<?xml version="1.0" encoding="utf-8"?>
<!-- Generator: Adobe Illustrator 28.1.0, SVG Export Plug-In . SVG Version: 6.00 Build 0)  -->
<svg version="1.1" id="Calque_1" xmlns="http://www.w3.org/2000/svg" xmlns:xlink="http://www.w3.org/1999/xlink" x="0px" y="0px"
	 viewBox="0 0 30 40" style="enable-background:new 0 0 30 40;" xml:space="preserve">
<style type="text/css">
	.st0{fill:#EC5F62;}
	.st1{fill:#FFFFFF;}
</style>
<polygon class="st0" points="21.36,13.5 20.19,13.5 16.27,13.5 15.84,13.5 14.16,13.5 13.73,13.5 9.91,13.5 8.71,13.5 7.55,13.5 
	7.5,13.5 7.5,13.5 7.5,26.5 7.5,26.5 8.64,26.5 9.81,26.5 14.16,26.5 15.84,26.5 20.09,26.5 21.44,26.5 22.5,26.5 22.5,26.5 
	22.5,26.41 22.5,25.47 22.5,22.33 22.5,21.38 22.5,18.62 22.5,17.67 22.5,14.65 22.5,13.52 22.5,13.5 "/>
<rect x="13.63" y="12.5" transform="matrix(6.123234e-17 -1 1 6.123234e-17 -4.9999 34.9998)" class="st1" width="2.75" height="15"/>
<rect x="11.21" y="13.5" transform="matrix(-1 -1.224647e-16 1.224647e-16 -1 25.1635 39.9997)" class="st1" width="2.75" height="13"/>
</svg>
