<?xml version="1.0" encoding="utf-8"?>
<!-- Generator: Adobe Illustrator 28.1.0, SVG Export Plug-In . SVG Version: 6.00 Build 0)  -->
<svg version="1.1" id="Calque_1" xmlns="http://www.w3.org/2000/svg" xmlns:xlink="http://www.w3.org/1999/xlink" x="0px" y="0px"
	 viewBox="0 0 30 40" style="enable-background:new 0 0 30 40;" xml:space="preserve">
<style type="text/css">
	.st0{fill:#F5F8FB;}
	.st1{fill:#EC5F62;}
	.st2{fill:#FFFFFF;}
</style>
<path class="st0" d="M26.5,20c0,6.4-5.1,11.5-11.5,11.5C8.6,31.5,3.5,26.3,3.5,20C3.5,13.6,8.6,8.5,15,8.5
	C21.4,8.5,26.5,13.6,26.5,20z"/>
<g>
	<polygon class="st1" points="21.2,13.9 20.1,13.9 16.3,13.9 15.8,13.9 14.2,13.9 13.8,13.9 10.1,13.9 8.9,13.9 7.8,13.9 7.8,13.9 
		7.8,13.9 7.8,26.1 7.8,26.1 8.9,26.1 10,26.1 14.2,26.1 15.8,26.1 20,26.1 21.3,26.1 22.3,26.1 22.3,26.1 22.3,26 22.3,25.1 
		22.3,22.2 22.3,21.3 22.3,18.7 22.3,17.8 22.3,15 22.3,13.9 22.3,13.9 	"/>
	<rect x="7.8" y="18.7" class="st2" width="14.5" height="2.6"/>
	<rect x="11.3" y="13.9" class="st2" width="2.7" height="12.1"/>
</g>
</svg>
