<svg xmlns="http://www.w3.org/2000/svg" width="72" height="72" viewBox="0 0 72 72" fill="none">
<path d="M56.9592 44.6819L61.4526 61.4551L44.6801 56.9615L35.9986 72L27.317 56.9615L10.5445 61.4551L15.0379 44.6819L0 36L15.0379 27.3181L10.5445 10.5449L27.317 15.0385L36.0014 0L44.683 15.0385L61.4555 10.5449L56.9621 27.3181L72 36L56.9621 44.6847L56.9592 44.6819Z" fill="#1E2328"/>
<path d="M27.6733 46.6568C27.0804 46.6568 26.4904 46.4287 26.0429 45.9698C25.1621 45.0691 25.1792 43.6269 26.0771 42.7461L43.1676 26.029C44.0683 25.1483 45.5105 25.1654 46.3913 26.0632C47.272 26.9639 47.2549 28.4062 46.3571 29.2869L29.2666 46.004C28.8219 46.4373 28.2462 46.6539 27.6733 46.6539V46.6568Z" fill="white"/>
<path d="M44.5785 46.8448C43.9857 46.8448 43.3956 46.6168 42.9481 46.1579L26.2311 29.0674C25.3503 28.1667 25.3674 26.7245 26.2653 25.8437C27.166 24.963 28.6082 24.9801 29.489 25.8779L46.206 42.9684C47.0868 43.8691 47.0697 45.3114 46.1718 46.1921C45.7272 46.6254 45.1514 46.842 44.5785 46.842V46.8448Z" fill="white"/>
</svg>