<?xml version="1.0" encoding="utf-8"?>
<!-- Generator: Adobe Illustrator 28.1.0, SVG Export Plug-In . SVG Version: 6.00 Build 0)  -->
<svg version="1.1" id="Calque_1" xmlns="http://www.w3.org/2000/svg" xmlns:xlink="http://www.w3.org/1999/xlink" x="0px" y="0px"
	 viewBox="0 0 393 767" style="enable-background:new 0 0 393 767;" xml:space="preserve">
<style type="text/css">
	.st0{fill:#EA505A;}
	.st1{fill:#FBCD5F;}
	.st2{fill:#F18960;}
	.st3{fill:#F6FBFB;}
	.st4{fill:#515EA7;}
	.st5{fill:#84C496;}
	.st6{fill:#D9D9D9;}
	.st7{fill:#FFFFFF;}
	.st8{fill-rule:evenodd;clip-rule:evenodd;fill:#F6FBFB;}
	.st9{fill:#F5F4F5;}
	.st10{clip-path:url(#SVGID_00000134219895689355505310000001493594231105930378_);}
	.st11{fill:#F08056;}
	.st12{fill:#878688;}
	.st13{fill:#010202;}
	.st14{fill:#242632;}
</style>
<rect class="st0" width="393" height="122"/>
<rect y="122" class="st1" width="196" height="268"/>
<rect y="389" class="st2" width="196" height="125"/>
<rect x="196" y="326" class="st3" width="196" height="188"/>
<rect y="514" class="st4" width="393" height="253"/>
<path class="st5" d="M46,590.8l3.8-24.97l58.34-19.89l9.3,8.46l2.54-6.35l20.72,2.11l2.54-15.24l37.32-5.93l27.36,41.06l27.9-21.16
	l11.84,11.01l21.14-11.01l35.51,27.93l25.79-7.62l4.65,60.53l-19.45,34.28L347,701.69l-35.33,6.68l18,33.96L265.41,753l-18.6-33.11
	l-32.97-14.81l9.3-16.51l-78.63-25.82L109.83,641l-30.02,15.4l-28.75-31.74l32.13-7.19l-23.68-19.47l26.21-3.81L46,590.8z"/>
<path class="st6" d="M69.93,538.98H52.89v3.78h17.03V538.98z"/>
<path class="st7" d="M71.82,589.13H51l0.12-1.3l0.17-1.94l1.09-12.21l0.2-2.27l0.17-1.95l1.01-11.24l0.29-3.24l0.17-1.95l0.92-10.26
	h12.49l0.97,10.79l0.15,1.63l0.27,3.04l0.82,9.05L70,568.9l0.43,4.78l0.65,7.31l0.15,1.62L71.82,589.13z"/>
<path class="st1" d="M66.14,528.57h-9.46v10.41h9.46V528.57z"/>
<path class="st7" d="M62.09,522.83V521h-1.37v1.83c-2.81,0.34-4.99,2.78-4.99,5.74h11.36C67.09,525.61,64.91,523.17,62.09,522.83z"
	/>
<path class="st4" d="M65.9,542.76l-12.3,12.3l0.18-1.96l10.34-10.34H65.9z"/>
<path class="st4" d="M68.98,555.67l-16.09,15.48l0.17-1.86l15.76-15.17L68.98,555.67z"/>
<path class="st4" d="M69.93,569.01L51,588.18l0.18-1.97l18.6-18.85L69.93,569.01z"/>
<path class="st4" d="M70.87,583.07l-5.95,6.06H63.3l7.44-7.57L70.87,583.07z"/>
<path class="st7" d="M28.9,711v-7h1.16l3.44,5v-5h1.2v7h-1.16l-3.44-5v5H28.9z"/>
<path class="st8" d="M29.39,737.61L32,757l2.61-19.39L54,735l-19.39-2.61L32,713l-2.61,19.39L10,735L29.39,737.61z"/>
<path class="st8" d="M32,732.43l10.83-8.26L34.57,735l8.26,10.83L32,737.57l-10.83,8.26L29.43,735l-8.26-10.83L32,732.43z"/>
<path class="st9" d="M142.39,657.03c0,0-1.77-5.67,2.25-25.29c4.03-19.62,5.87-15.21,7.92-16.28c2.05-1.07,3.55-2.67,4.51,0
	c0.96,2.67,2.6,25.89,1.64,33.96c-0.96,8.07-0.48,8.14-1.84,8.34C155.5,657.96,143.34,658.43,142.39,657.03L142.39,657.03z"/>
<g>
	<defs>
		<rect id="SVGID_1_" x="124" y="531" width="36" height="32"/>
	</defs>
	<clipPath id="SVGID_00000134245627918883125290000016924665738224197784_">
		<use xlink:href="#SVGID_1_"  style="overflow:visible;"/>
	</clipPath>
	<g style="clip-path:url(#SVGID_00000134245627918883125290000016924665738224197784_);">
		<path class="st11" d="M147.83,562.53h-3.22l-0.05-4.53c0,0-0.61-0.84,0.05-1.37v-2.83h0.65v2.76c0,0,0.59,0.79,0,1.39v3.6
			c0,0-0.05,0.35,0.72,0.38C146.75,561.96,147.83,561.72,147.83,562.53z"/>
		<path class="st7" d="M124.62,554.38c-0.61-0.02-0.82-0.8-0.3-1.12c5.03-3.05,19.54-11.95,20.43-13.57
			c1.07-1.96-1.51-8.63,2.79-8.7c4.3-0.07,7.52,2.31,7.66,3.44c0,0,4.44-0.91,4.8,1.54l-4.99-0.06c0,0-1.53,0.06-1.96,4.7
			c-0.43,4.63,0.79,13.47-12.25,13.75C132.33,554.55,127.18,554.47,124.62,554.38z"/>
		<path class="st12" d="M141.03,542.6c1.64,1.42,7.88,7.5-0.09,11.69c-0.09,0.05-0.19,0.07-0.29,0.07l-16.02,0.33
			c-0.61,0-0.86-1.17-0.36-1.5l16-10.64C140.5,542.4,140.81,542.42,141.03,542.6L141.03,542.6z"/>
		<path class="st11" d="M138.27,563h-3.22l-0.05-4.53c0,0-0.61-0.84,0.05-1.37v-2.83h0.65v2.76c0,0,0.59,0.79,0,1.39v3.6
			c0,0-0.04,0.35,0.72,0.38C137.19,562.43,138.27,562.18,138.27,563z"/>
		<path class="st7" d="M150.2,534.7c-0.03-0.03-0.03-0.07,0-0.09c0.15-0.1,0.52-0.35,0.64-0.53c0.16-0.23,0.9-0.49,1.44-0.02
			c0.41,0.35,0.54,0.51,0.59,0.58c0.01,0.02,0.01,0.04,0,0.06c-0.11,0.18-0.69,1.05-1.39,0.78
			C150.86,535.22,150.37,534.84,150.2,534.7L150.2,534.7z"/>
		<path class="st11" d="M151.57,535.32c0.35,0,0.63-0.27,0.63-0.61c0-0.34-0.28-0.61-0.63-0.61c-0.35,0-0.63,0.28-0.63,0.61
			C150.94,535.04,151.22,535.32,151.57,535.32z"/>
		<path class="st13" d="M151.57,534.96c0.14,0,0.26-0.11,0.26-0.26c0-0.14-0.12-0.26-0.26-0.26c-0.14,0-0.26,0.11-0.26,0.26
			C151.31,534.84,151.42,534.96,151.57,534.96z"/>
		<path class="st11" d="M153.95,535.9l1.25-1.46c0,0,4.37-1.06,4.8,1.54L153.95,535.9L153.95,535.9z"/>
	</g>
</g>
<path class="st14" d="M139.14,599.15c0.56-0.09,0.93-0.6,0.85-1.15c-0.09-0.55-0.61-0.92-1.16-0.83c-2.48,0.39-4.92-2.01-5.57-2.71
	l0.02-3.34c1.41,1.11,3.54,2.3,5.87,1.94c0.56-0.09,0.93-0.6,0.85-1.15c-0.09-0.55-0.61-0.92-1.16-0.83
	c-2.43,0.38-4.82-1.92-5.53-2.67l0.02-3.41c0-0.55-0.45-1-1.01-1.01h-0.01c-0.56,0-1.01,0.44-1.02,0.99l-0.03,3.74
	c-0.43,0.62-2.98,1.82-5.53,2.58c-0.54,0.16-0.84,0.72-0.68,1.25c0.13,0.43,0.54,0.71,0.97,0.71c0.1,0,0.2-0.01,0.3-0.04
	c1.43-0.43,3.43-1.12,4.93-2l-0.02,3.64c-0.53,0.64-3.01,1.79-5.49,2.53c-0.54,0.16-0.84,0.72-0.68,1.25
	c0.13,0.43,0.54,0.71,0.97,0.71c0.1,0,0.2-0.01,0.3-0.04c1.42-0.42,3.39-1.11,4.89-1.98l-0.03,3.91c-0.61,0.64-3.03,1.76-5.45,2.48
	c-0.54,0.16-0.84,0.72-0.68,1.25c0.13,0.43,0.54,0.71,0.97,0.71c0.1,0,0.2-0.01,0.29-0.04c1.41-0.42,3.36-1.09,4.84-1.95l-0.06,9.29
	c0,0.55,0.45,1,1.01,1.01h0.01c0.56,0,1.01-0.44,1.02-0.99l0.06-9.53c1.41,1.13,3.58,2.37,5.95,2c0.56-0.09,0.93-0.6,0.85-1.14
	c-0.09-0.55-0.61-0.92-1.16-0.83c-2.54,0.4-5.03-2.12-5.61-2.75l0.02-3.57C134.65,598.3,136.79,599.51,139.14,599.15L139.14,599.15z
	"/>
<path class="st14" d="M278,701.33c-0.03-0.93-0.56-1.9-1.57-2.86c-0.2-0.2-0.26-0.51-0.14-0.75c0.44-0.9,0.86-2.39,0.33-4.32
	c-0.24-0.87-0.68-1.45-1.31-1.74c-0.71-0.33-1.58-0.23-2.59,0.3c-0.47,0.25-1.01,0.2-1.38-0.13c-0.7-0.61-1.62-1.14-2.76-1.57
	c-1.82-0.69-3.57,0.04-4.8,1.99c-0.19,0.31-0.54,0.45-0.85,0.36c-1.49-0.46-2.7-0.33-3.58,0.39c-0.82,0.65-1.28,1.78-1.28,3.08
	c0,0.34-0.02,0.68-0.03,1.03c-0.07,1.42-0.14,3.03,0.73,5.19c1.34,3.3,4.14,3.31,5.57,2.83h0.18c0.69,0,1.4-0.08,2.15-0.23v12.23
	c0,0.49,0.37,0.88,0.83,0.88s0.83-0.39,0.83-0.88v-12.68c0.24-0.08,0.49-0.17,0.74-0.27c0.47-0.18,0.87-0.08,1.29,0.32
	c0.73,0.69,1.6,1.03,2.53,1.03c1.44,0,3.02-0.8,4.42-2.36C277.78,702.63,278.02,702,278,701.33L278,701.33z"/>
<path class="st14" d="M298,647.33c-0.03-0.93-0.56-1.9-1.57-2.86c-0.2-0.2-0.26-0.51-0.14-0.75c0.44-0.9,0.86-2.39,0.33-4.32
	c-0.24-0.87-0.68-1.45-1.31-1.74c-0.71-0.33-1.58-0.23-2.59,0.3c-0.47,0.25-1.01,0.2-1.38-0.13c-0.7-0.61-1.62-1.14-2.76-1.57
	c-1.82-0.69-3.57,0.04-4.8,1.99c-0.19,0.31-0.54,0.45-0.85,0.36c-1.49-0.46-2.7-0.33-3.58,0.39c-0.82,0.65-1.28,1.78-1.28,3.08
	c0,0.34-0.02,0.68-0.03,1.03c-0.07,1.42-0.14,3.03,0.73,5.19c1.34,3.3,4.14,3.31,5.57,2.83h0.18c0.69,0,1.4-0.08,2.15-0.23v12.23
	c0,0.49,0.37,0.88,0.83,0.88s0.83-0.39,0.83-0.88v-12.68c0.24-0.08,0.49-0.17,0.74-0.27c0.47-0.18,0.87-0.08,1.29,0.32
	c0.73,0.69,1.6,1.03,2.53,1.03c1.44,0,3.02-0.8,4.42-2.36C297.78,648.63,298.02,648,298,647.33L298,647.33z"/>
</svg>
