<svg xmlns="http://www.w3.org/2000/svg" width="86" height="72" viewBox="0 0 86 72" fill="none">
<path d="M84.3278 65.5432L45.9952 1.88793C44.3489 -0.629309 40.6664 -0.629309 39.0202 1.88793L0.687575 65.5432C-1.12724 68.3184 0.862771 72 4.17506 72H80.837C84.1493 72 86.1393 68.3184 84.3245 65.5432H84.3278Z" fill="#EB5059"/>
<path d="M39.4257 62.0009C38.5887 61.119 38.1687 60.0273 38.1687 58.7225C38.1687 57.4178 38.5887 56.3294 39.4257 55.4442C40.2627 54.5591 41.2988 54.1198 42.5372 54.1198C43.7755 54.1198 44.7494 54.5624 45.5864 55.4442C46.4234 56.3261 46.8434 57.4178 46.8434 58.7225C46.8434 60.0273 46.4234 61.1157 45.5864 62.0009C44.7494 62.886 43.732 63.3253 42.5372 63.3253C41.3424 63.3253 40.2658 62.8827 39.4257 62.0009ZM45.9442 19.0844L45.1663 49.6481H39.4848L38.707 19.0844H45.9442Z" fill="white"/>
</svg>