<svg width="54" height="43" viewBox="0 0 54 43" fill="none" xmlns="http://www.w3.org/2000/svg">
<path id="Vector" d="M25.6357 5.96396L27.0003 7.23708L28.3646 5.96368C34.4944 0.242628 42.3923 1.30606 47.4081 5.41422C49.9104 7.46371 51.5594 10.1754 51.9231 13.0036C52.2788 15.7692 51.439 18.8835 48.5174 21.9169L48.5173 21.9169L32.1593 38.9019L32.1586 38.9027C29.469 41.6984 24.5373 41.7002 21.8403 38.9015L5.48267 21.9169L5.48262 21.9169C2.5609 18.8834 1.72119 15.7694 2.07685 13.0044C2.44056 10.1767 4.08945 7.4655 6.59177 5.41629C11.6077 1.30864 19.5059 0.245218 25.6357 5.96396Z" stroke="#545454" stroke-width="4" stroke-miterlimit="10"/>
</svg>
