<svg width="77" height="58" viewBox="0 0 77 58" fill="none" xmlns="http://www.w3.org/2000/svg">
<path d="M76.0364 20V39C76.0364 49.4646 67.501 58 57.0364 58C46.5718 58 38.91 50.3381 38.0364 40.5651V39C38.0364 36.5613 38.5642 34.1226 39.4377 32.0297C40.3113 29.9368 41.5307 28.0259 42.932 26.4425C45.0249 24.1676 47.4636 22.4387 50.4301 21.2193C52.523 20.3458 54.7797 20 57.2366 20V1C67.5192 1 76.0728 9.37165 76.0728 20H76.0364Z" fill="#FACD5F"/>
<path d="M0.0364058 38L0.0364041 19C0.0364032 8.53545 8.57184 2.57587e-06 19.0364 1.66103e-06C29.501 7.46192e-07 37.1628 7.66188 38.0364 17.4349L38.0364 19C38.0364 21.4387 37.5086 23.8774 36.6351 25.9703C35.7615 28.0632 34.5422 29.9741 33.1408 31.5575C31.0479 33.8324 28.6092 35.5613 25.6427 36.7807C23.5498 37.6542 21.2931 38 18.8362 38L18.8362 57C8.55365 57 6.89752e-06 48.6284 5.96836e-06 38L0.0364058 38Z" fill="#FACD5F"/>
</svg>
