<?xml version="1.0" encoding="utf-8"?>
<!-- Generator: Adobe Illustrator 28.1.0, SVG Export Plug-In . SVG Version: 6.00 Build 0)  -->
<svg version="1.1" id="Calque_1" xmlns="http://www.w3.org/2000/svg" xmlns:xlink="http://www.w3.org/1999/xlink" x="0px" y="0px"
	 viewBox="0 0 187.8 55.7" style="enable-background:new 0 0 187.8 55.7;" xml:space="preserve">
<style type="text/css">
	.st0{fill:#25283D;}
	.st1{opacity:0.75;fill:#FFFFFF;enable-background:new    ;}
	.st2{fill:#FBCE60;}
	.st3{fill:#FFFFFF;}
	.st4{fill:#989AA8;}
</style>
<g>
	<path class="st0" d="M44.8,26.5c-0.8,0.5-1.5,1-2.2,1.7c-1.5,1.4-2.6,3.1-3.3,5.1c-0.4,1-0.6,2.1-0.7,3.2c-1,0.5-2.2,0.9-3.3,1
		c-0.4,0-0.9,0-1.4,0v10.9c-6,0-10.9-4.9-10.9-10.9V26.6c0-1.6,0.4-3.2,1-4.6l0,0c1.4-3,4.2-5.3,7.5-6c0.8-0.2,1.6-0.3,2.4-0.3
		C39.9,15.7,44.8,20.5,44.8,26.5z"/>
	<path class="st0" d="M62.5,26.6v10.9c0,6-4.9,10.9-10.9,10.9c-5.7,0-10.4-4.4-10.9-10c0-0.3,0-0.6,0-0.9c0-1.4,0.3-2.8,0.8-4
		s1.2-2.3,2-3.2c1.2-1.3,2.6-2.3,4.3-3c1.2-0.5,2.5-0.7,3.9-0.7V15.7C57.6,15.7,62.5,20.5,62.5,26.6z"/>
	<path class="st1" d="M39.4,33.2c-0.4,1-0.6,2.1-0.7,3.2c-1,0.5-2.2,0.9-3.3,1c-5.8-1.8-9.8-5.1-12.4-8.1v-2.7c0-1.6,0.4-3.2,1-4.6
		C24.5,22.9,28.8,31.3,39.4,33.2z"/>
	<path class="st1" d="M44.7,38.6c-0.3,0-0.6,0-0.9,0c-1.1,0-2.1,0-3.1-0.2c0-0.3,0-0.6,0-0.9c0-1.4,0.3-2.8,0.8-4
		c0.3,0,0.6,0.1,0.9,0.1c0.6,0,1.2,0,1.9,0c0.1,0,0.2,0,0.3,0v1.1L44.7,38.6z"/>
	<path class="st1" d="M44.8,26.5c-0.8,0.5-1.5,1-2.2,1.7C41,24.1,37.7,19,31.4,16c0.8-0.2,1.6-0.3,2.4-0.3
		C39.9,15.7,44.8,20.5,44.8,26.5z"/>
	<path class="st1" d="M49.3,34.4l-4.7,0.3h-0.2c0-0.1,0-0.5-0.1-1.1c-0.1-0.8-0.4-2-0.8-3.4c1.2-1.3,2.6-2.3,4.3-3
		C49.1,31.1,49.3,34.1,49.3,34.4z"/>
	<g>
		<path class="st2" d="M52,40.3c1.9-2.2,1.7-5.5-0.5-7.5c-2.2-1.9-5.5-1.7-7.5,0.5c-1.9,2.2-1.7,5.5,0.5,7.5S50.1,42.5,52,40.3z"/>
		<path class="st3" d="M51.2,39.5c1.5-1.7,1.3-4.4-0.4-5.9s-4.4-1.4-5.9,0.4c-1.5,1.7-1.3,4.4,0.4,5.9C47,41.5,49.6,41.3,51.2,39.5z
			"/>
		<path class="st2" d="M50.5,39c1.2-1.4,1.1-3.5-0.3-4.7c-1.4-1.2-3.5-1.1-4.7,0.3s-1.1,3.5,0.3,4.7C47.2,40.5,49.3,40.4,50.5,39z"
			/>
		<path class="st3" d="M48.6,38.9l-0.4-0.4l0.6-0.7l-1.9-1.7l-0.1,1.1l-0.5-0.5l0.1-1.1l0.4-0.5l2.5,2.2l0.5-0.6l0.4,0.4L48.6,38.9z
			"/>
	</g>
	<path class="st4" d="M23.3,15.9c-1.8,0-3.4,0.4-4.8,1.2c-1.4,0.8-2.6,1.9-3.6,3.4v-4h-6v30.6h6V26.6c0.8-1.8,1.9-3.2,3.2-4.1
		c1.2-0.8,2.6-1.3,4.1-1.4c0.9-1.9,2.2-3.6,3.9-4.8C25.3,16,24.4,15.9,23.3,15.9z"/>
	<path class="st4" d="M85.2,39.2c-0.8,0.7-1.6,1.3-2.4,1.8c-0.3,0.2-0.6,0.3-0.8,0.4c-1.4,0.6-2.8,0.9-4.4,0.9
		c-1.9,0-3.6-0.5-5.1-1.4c-1.5-0.9-2.7-2.2-3.6-3.8s-1.3-3.4-1.3-5.4s0.4-3.7,1.3-5.3s2-2.9,3.5-3.8c1.5-0.9,3.2-1.4,5.1-1.4
		c1.6,0,3.1,0.3,4.5,1c0.3,0.1,0.6,0.3,0.8,0.4v-5.9c-1.8-0.6-3.6-0.9-5.4-0.9c-3,0-5.6,0.7-8,2.1c-2.2,1.3-3.9,3-5.3,5
		c0.3,1.1,0.5,2.2,0.5,3.4v11.2c0,1.1-0.1,2.2-0.4,3.2c1.3,2,3.1,3.6,5.2,4.9c2.4,1.4,5.1,2.1,8,2.1c1.8,0,3.7-0.3,5.4-0.9
		c0.4-0.1,0.7-0.3,1.1-0.4c0.4-0.2,0.9-0.4,1.3-0.6c1.6-0.8,3-1.8,4.2-3.1l-3.7-3.9C85.5,38.9,85.4,39.1,85.2,39.2z"/>
	<path class="st4" d="M106.7,21.6v-5h-9.1V7.4h-5.9v9.2h-6.5v5h6.5v17.9c0,2.7,0.8,4.7,2.3,6.1c1.5,1.4,3.8,2,6.7,2
		c0.9,0,1.9-0.1,3-0.2s2-0.3,2.8-0.6v-5.1c-0.8,0.3-1.5,0.5-2.1,0.6c-0.7,0.1-1.4,0.2-2.2,0.2c-1.6,0-2.8-0.3-3.4-1
		c-0.6-0.7-1.1-1.8-1.1-3.3V21.6C97.7,21.6,106.7,21.6,106.7,21.6z"/>
	<path class="st4" d="M133.5,47.7c-3,0-5.7-0.7-8.1-2.1c-2.4-1.4-4.3-3.3-5.8-5.7s-2.1-5.1-2.1-8.1c0-3,0.7-5.7,2.1-8.1
		s3.3-4.3,5.8-5.7c2.4-1.4,5.1-2.1,8.1-2.1s5.6,0.7,8.1,2.1c2.4,1.4,4.3,3.3,5.7,5.7s2.1,5.1,2.1,8.1s-0.7,5.7-2.1,8.1
		c-1.4,2.4-3.3,4.3-5.7,5.7C139.1,47,136.4,47.7,133.5,47.7z M133.5,42.4c1.9,0,3.6-0.5,5.1-1.4s2.7-2.2,3.6-3.8
		c0.9-1.6,1.3-3.4,1.3-5.4s-0.4-3.7-1.3-5.3c-0.9-1.6-2.1-2.8-3.6-3.8s-3.2-1.4-5.1-1.4c-1.8,0-3.5,0.5-5.1,1.4
		c-1.5,1-2.8,2.2-3.6,3.8c-0.9,1.6-1.3,3.4-1.3,5.3c0,2,0.4,3.8,1.3,5.4c0.9,1.6,2.1,2.9,3.6,3.8C129.9,41.9,131.6,42.4,133.5,42.4z
		"/>
	<path class="st4" d="M151.8,47.1V16.6h6v3.1c2.4-2.5,5.4-3.7,9.2-3.7c2.4,0,4.4,0.5,6.2,1.5s3.2,2.4,4.2,4.2s1.5,3.9,1.5,6.2v19.2
		h-6V28.9c0-2.4-0.7-4.3-2-5.7c-1.4-1.4-3.2-2.1-5.6-2.1c-1.6,0-3,0.4-4.3,1c-1.3,0.7-2.3,1.7-3.2,3V47L151.8,47.1L151.8,47.1
		L151.8,47.1z"/>
	<g>
		<path class="st4" d="M109.1,16.6v30.5h6V16.6H109.1z"/>
		<rect x="109.1" y="7.3" class="st4" width="6" height="6"/>
	</g>
	<g>
		<path class="st0" d="M36.2,7.4c-0.2,0.2-0.5,0.5-0.7,0.7l-0.1,0.1l-6.7,6.2c0.3,0,0.6,0,1,0c1.7,0,3.4-0.3,5-1s3.1-1.6,4.3-2.9
			L36.2,7.4z"/>
	</g>
</g>
</svg>