<svg width="174" height="24" viewBox="0 0 174 24" fill="none" xmlns="http://www.w3.org/2000/svg">
<g id="layer" clip-path="url(#clip0_51_414)">
<path id="Vector" d="M141.3 6.24188H144.957C145.022 6.52817 145.084 6.80035 145.167 7.17132C147.329 5.74592 149.404 5.62898 151.386 7.46366C152.763 6.43946 154.234 5.84874 155.984 6.19148C158.112 6.6068 159.362 7.81245 159.632 10.0221C159.777 11.2157 159.725 12.4354 159.733 13.6431C159.747 15.5504 159.737 17.4596 159.737 19.4435H155.754C155.754 17.8427 155.754 16.2439 155.754 14.6431C155.754 13.6693 155.766 12.6955 155.75 11.7217C155.73 10.4959 155.078 9.70963 154.103 9.69753C153.122 9.68342 152.468 10.4556 152.462 11.6975C152.448 14.2459 152.458 16.7963 152.458 19.4334H148.48C148.48 19.1088 148.48 18.756 148.48 18.4012C148.48 16.1854 148.49 13.9677 148.474 11.752C148.465 10.4657 147.787 9.67334 146.762 9.68947C145.825 9.70358 145.181 10.504 145.171 11.752C145.151 13.9354 145.165 16.1169 145.163 18.3004C145.163 18.6633 145.163 19.0241 145.163 19.4536H141.298V6.24188H141.3Z" fill="white"/>
<path id="Vector_2" d="M130.937 19.5162C129.756 19.5162 128.752 19.5182 127.747 19.5141C127.551 19.5141 127.356 19.4859 127.027 19.4597C127.027 18.4234 127.027 17.4274 127.027 16.4335C127.027 14.8891 127.043 13.3448 127.021 11.8004C127.002 10.4879 126.352 9.69156 125.351 9.68551C124.358 9.67744 123.688 10.4839 123.676 11.7843C123.656 13.9657 123.672 16.1472 123.668 18.3307C123.668 18.6895 123.637 19.0484 123.619 19.4617H119.855V6.2843H123.522C123.563 6.54438 123.607 6.82462 123.664 7.19155C125.82 5.73591 127.886 5.64518 129.885 7.4718C131.306 6.37301 132.866 5.85284 134.671 6.2097C136.552 6.58268 138.034 7.9718 138.106 9.89115C138.223 13.0383 138.139 16.1936 138.139 19.4315H134.352C134.334 19.0928 134.297 18.7379 134.297 18.3831C134.291 16.369 134.303 14.3549 134.289 12.3407C134.285 11.875 134.259 11.3952 134.15 10.9456C133.966 10.1774 133.427 9.71575 132.64 9.70365C131.811 9.68954 131.233 10.1351 131.041 10.9597C130.953 11.3448 130.945 11.7561 130.943 12.1532C130.934 14.5625 130.939 16.9738 130.939 19.5182L130.937 19.5162Z" fill="white"/>
<path id="Vector_3" d="M87.873 7.14522C87.9417 6.81861 87.9941 6.56861 88.0567 6.2682H91.7728C91.7971 6.59482 91.8395 6.9174 91.8415 7.23796C91.8455 10.867 91.8556 14.494 91.8415 18.123C91.8253 21.7017 89.7765 23.8146 86.2057 23.9819C84.3103 24.0706 82.5098 23.873 81.0544 22.3751C81.9082 21.623 82.752 20.8791 83.6624 20.0787C84.599 20.7097 85.8545 20.992 87.0919 20.1714C87.9053 19.6311 87.9376 18.7299 87.8145 17.6936C86.3854 18.7077 84.9239 18.9577 83.3636 18.4174C81.9668 17.9335 81.0302 16.9295 80.9131 15.496C80.7516 13.5343 80.6608 11.5303 80.8768 9.5807C81.2159 6.52829 84.601 5.10087 87.2291 6.75409C87.4229 6.87506 87.6187 6.99199 87.875 7.14724L87.873 7.14522ZM84.607 12.238C84.6615 12.8751 84.6535 13.3509 84.7503 13.8045C84.9239 14.623 85.4488 15.115 86.3087 15.0686C87.1564 15.0222 87.6934 14.5182 87.7418 13.6714C87.7943 12.744 87.7963 11.8025 87.6934 10.8811C87.6167 10.1876 87.1221 9.77425 86.3793 9.7299C85.6183 9.68554 85.0531 9.97385 84.8513 10.7279C84.708 11.2702 84.6676 11.8408 84.605 12.238H84.607Z" fill="white"/>
<path id="Vector_4" d="M113.02 19.4415C112.984 19.2036 112.943 18.9516 112.889 18.6088C112.693 18.7399 112.56 18.8266 112.431 18.9173C110.973 19.9576 108.83 19.9435 107.338 18.881C105.973 17.9092 105.344 15.9012 105.87 14.1955C106.375 12.5604 107.849 11.5866 109.95 11.5282C110.88 11.502 111.813 11.5241 113.079 11.5241C112.723 10.7862 112.614 10.0745 112.215 9.82455C110.997 9.06245 109.776 9.40721 108.795 10.1673C107.929 9.38503 107.114 8.64914 106.242 7.86285C108.313 5.87495 110.711 5.80035 113.169 6.32858C115.618 6.85277 116.704 8.20761 116.76 10.7258C116.825 13.6048 116.775 16.4858 116.775 19.4435H113.02V19.4415ZM112.883 14.2358C112.059 14.2358 111.272 14.1189 110.547 14.2822C110.148 14.3729 109.591 14.9294 109.584 15.2862C109.578 15.6552 110.083 16.2439 110.481 16.3709C111.948 16.8366 112.877 16.0201 112.881 14.2379L112.883 14.2358Z" fill="white"/>
<path id="Vector_5" d="M23.7036 14.1955H15.8737C15.7425 15.1572 16.1866 15.748 16.881 16.0504C18.3121 16.6734 19.6322 16.3387 20.8211 15.3044C21.5761 16.0766 22.3209 16.8367 23.1082 17.6431C21.6124 19.2641 19.7231 19.7641 17.5753 19.6592C12.3271 19.4032 11.55 15.2298 11.9295 11.5766C12.1394 9.56247 12.9711 7.84674 14.8584 6.80037C18.4251 4.82456 22.8155 6.89916 23.4553 10.9092C23.6209 11.9516 23.6188 13.0201 23.7016 14.1935L23.7036 14.1955ZM15.8656 11.4617H19.6282C19.6928 10.1129 19.0206 9.379 17.7671 9.37698C16.5196 9.37497 15.8515 10.0846 15.8656 11.4617Z" fill="white"/>
<path id="Vector_6" d="M78.2708 14.2177H70.3843C70.3076 15.1452 70.7093 15.7439 71.4239 16.0504C72.859 16.6673 74.1711 16.3407 75.2995 15.3448C76.0605 16.125 76.8033 16.8871 77.6349 17.7419C77.1807 18.0827 76.6983 18.5564 76.125 18.8528C73.8946 20 71.5954 19.9395 69.3266 18.996C68.1579 18.5101 67.3787 17.5484 66.973 16.3669C66.2261 14.1855 66.0929 11.9677 66.9104 9.76814C67.8208 7.31855 70.0412 5.90524 72.5643 6.12097C75.4973 6.37298 77.5098 8.07056 77.966 10.7762C78.1476 11.8569 78.1658 12.9637 78.2728 14.2218L78.2708 14.2177ZM70.3561 11.4012H74.2095C74.1025 10.0081 73.5131 9.39718 72.3605 9.375C71.1171 9.35081 70.4691 9.98992 70.3561 11.4012Z" fill="white"/>
<path id="Vector_7" d="M52.8756 15.2883C53.6689 16.0867 54.3996 16.8226 55.197 17.623C53.7194 19.2117 51.8724 19.8427 49.7792 19.6552C45.187 19.2419 43.0696 16.0443 44.0607 11.1331C44.8984 6.97378 48.3925 5.06652 52.3165 6.62095C53.5397 7.10482 54.3673 8.00603 54.9446 9.1391C55.6229 10.4677 55.8631 12.4496 55.5885 14.1935H47.9282C47.8131 15.2137 48.2774 15.7722 49.0021 16.0705C50.409 16.6512 51.6968 16.3528 52.8797 15.2883H52.8756ZM47.8616 11.4536H51.7029C51.6423 10.0363 51.0125 9.377 49.7812 9.37499C48.5459 9.37499 47.9181 10.0322 47.8616 11.4536Z" fill="white"/>
<path id="Vector_8" d="M174 14.2359H166.069C166.063 15.2621 166.564 15.8629 167.379 16.1412C168.722 16.6008 169.953 16.3206 171.075 15.2944C171.806 16.121 172.527 16.9375 173.267 17.7742C171.36 20.2218 166.416 20.2037 164.283 18.5C163.726 18.0545 163.205 17.4436 162.918 16.7984C161.867 14.4295 161.798 11.9678 162.735 9.55849C163.633 7.24599 165.805 5.95366 168.221 6.09882C171.021 6.26616 172.987 7.76616 173.606 10.4033C173.885 11.5887 173.869 12.8428 174.004 14.2399L174 14.2359ZM169.848 11.4617C169.913 10.1311 169.293 9.41737 168.086 9.37503C166.802 9.32866 166.112 10.0262 166.073 11.4617H169.85H169.848Z" fill="white"/>
<path id="Vector_9" d="M39.9166 19.4658H35.6938V5.75208H31.4609V2.00208H44.2302C44.2302 3.09482 44.2686 4.15933 44.1959 5.21579C44.1818 5.40732 43.7195 5.70772 43.4511 5.71982C42.3166 5.77627 41.1782 5.74401 39.9146 5.74401V19.4658H39.9166Z" fill="white"/>
<path id="Vector_10" d="M9.94534 15.6754V19.4476H0V2.02625H4.08148V15.6754H9.94332H9.94534Z" fill="white"/>
<path id="Vector_11" d="M64.6276 16.246V19.492C63.6547 19.492 62.7181 19.5706 61.7997 19.4758C60.0516 19.2944 58.681 18.0787 58.6346 16.2521C58.5135 11.5363 58.5942 6.81657 58.5942 2.02222H62.4718V3.14318C62.4718 6.73189 62.4718 10.3186 62.4718 13.9073C62.4718 15.3025 63.1911 16.0827 64.6297 16.248L64.6276 16.246Z" fill="white"/>
<path id="Vector_12" d="M104.986 7.30644C103.906 8.3024 102.923 9.20764 101.859 10.1895C101.857 10.1895 101.712 10.123 101.571 10.0504C100.099 9.29434 98.9225 9.93143 98.8579 11.5806C98.8014 13.0544 98.8417 14.5322 98.8417 16.008C98.8417 17.1391 98.8417 18.2701 98.8417 19.4597H94.9944V6.29232H98.6802C98.7267 6.52418 98.7812 6.8024 98.8518 7.15523C100.864 5.9274 102.869 5.52619 104.986 7.30442V7.30644Z" fill="white"/>
<path id="Vector_13" d="M53.6266 0.0281982C52.7162 1.46368 51.9128 2.80239 51.0186 4.07659C50.8551 4.30844 50.3242 4.32255 49.9528 4.36288C49.5269 4.40925 49.0909 4.37296 48.5156 4.37296C48.9012 2.88102 49.2645 1.48183 49.6399 0.0281982H53.6266Z" fill="white"/>
<path id="Vector_14" d="M72.1688 0H76.1635C75.2249 1.46371 74.4598 2.9254 73.4102 4.14113C73.0489 4.55847 71.977 4.3629 70.998 4.47379C71.4199 2.86089 71.7933 1.43548 72.1688 0Z" fill="white"/>
</g>
<defs>
<clipPath id="clip0_51_414">
<rect width="174" height="24" fill="white"/>
</clipPath>
</defs>
</svg>
