<?xml version="1.0" encoding="utf-8"?>
<!-- Generator: Adobe Illustrator 28.1.0, SVG Export Plug-In . SVG Version: 6.00 Build 0)  -->
<svg version="1.1" id="Calque_1" xmlns="http://www.w3.org/2000/svg" xmlns:xlink="http://www.w3.org/1999/xlink" x="0px" y="0px"
	 viewBox="0 0 187.97 55.69" style="enable-background:new 0 0 187.97 55.69;" xml:space="preserve">
<style type="text/css">
	.st0{fill:#25283D;}
	.st1{fill:#FFFFFF;}
	.st2{opacity:0.75;fill:none;stroke:#FFFFFF;stroke-width:5;stroke-miterlimit:10;}
	.st3{fill:#FBCE60;}
	.st4{fill:#989AA8;}
</style>
<g>
	<path class="st0" d="M31.16,48.26c-6.57,0-11.92-5.35-11.92-11.92V25.42c0-6.57,5.35-11.92,11.92-11.92s11.92,5.35,11.92,11.92
		c0,6.24-4.81,11.37-10.92,11.88v10.96H31.16z"/>
	<path class="st1" d="M31.16,14.5c6.03,0,10.92,4.89,10.92,10.92c0,6.03-4.89,10.92-10.92,10.92v10.92
		c-6.03,0-10.92-4.89-10.92-10.92V25.42C20.24,19.39,25.13,14.5,31.16,14.5 M31.16,12.5c-7.12,0-12.92,5.8-12.92,12.92v10.92
		c0,7.12,5.8,12.92,12.92,12.92h2v-2v-9.07c6.18-0.96,10.92-6.32,10.92-12.77C44.08,18.29,38.29,12.5,31.16,12.5L31.16,12.5z"/>
</g>
<g>
	<path class="st0" d="M48.82,48.26c-6.57,0-11.92-5.35-11.92-11.92c0-6.24,4.81-11.37,10.92-11.88V13.5h1
		c6.57,0,11.92,5.35,11.92,11.92v10.92C60.74,42.91,55.4,48.26,48.82,48.26z"/>
	<path class="st1" d="M48.82,14.5c6.03,0,10.92,4.89,10.92,10.92v10.92c0,6.03-4.89,10.92-10.92,10.92S37.9,42.37,37.9,36.34
		c0-6.03,4.89-10.92,10.92-10.92V14.5 M48.82,12.5h-2v2v9.07c-6.18,0.96-10.92,6.32-10.92,12.77c0,7.12,5.8,12.92,12.92,12.92
		s12.92-5.8,12.92-12.92V25.42C61.74,18.29,55.95,12.5,48.82,12.5L48.82,12.5z"/>
</g>
<path class="st2" d="M19.06,21.91c0,0,5.97,13.46,22.82,13.02"/>
<path class="st2" d="M44.09,33.4c0,0-1.16-16.6-17.11-22.05"/>
<g>
	<path class="st3" d="M49.22,39.12c1.92-2.2,1.7-5.54-0.5-7.47c-2.2-1.92-5.54-1.7-7.47,0.5c-1.92,2.2-1.7,5.54,0.5,7.47
		S47.3,41.32,49.22,39.12z"/>
	<path class="st1" d="M48.4,38.39c1.52-1.74,1.35-4.39-0.39-5.92c-1.74-1.52-4.39-1.35-5.92,0.39c-1.52,1.74-1.35,4.39,0.39,5.92
		C44.22,40.31,46.87,40.14,48.4,38.39z"/>
	<path class="st3" d="M47.76,37.83c1.22-1.39,1.07-3.5-0.31-4.72c-1.39-1.22-3.5-1.07-4.72,0.31c-1.22,1.39-1.07,3.5,0.31,4.72
		C44.43,39.36,46.54,39.22,47.76,37.83z"/>
	<path class="st1" d="M45.87,37.7l-0.43-0.38l0.6-0.68l-1.94-1.7l-0.11,1.11l-0.51-0.45l0.12-1.13L44,33.98l2.47,2.16l0.49-0.56
		l0.43,0.38L45.87,37.7z"/>
</g>
<path class="st4" d="M20.51,14.75c-1.81,0-3.42,0.4-4.83,1.2c-1.43,0.8-2.62,1.92-3.58,3.36v-3.96h-6v30.6h6V25.49
	c0.8-1.8,1.88-3.17,3.25-4.12c1.22-0.84,2.59-1.31,4.11-1.39c0.88-1.91,2.22-3.57,3.88-4.83C22.58,14.88,21.63,14.75,20.51,14.75z"
	/>
<path class="st4" d="M79.13,40.28c-1.36,0.62-2.82,0.92-4.38,0.92c-1.88,0-3.58-0.45-5.1-1.37s-2.72-2.19-3.6-3.81
	c-0.88-1.62-1.32-3.41-1.32-5.37s0.43-3.74,1.29-5.34c0.86-1.6,2.04-2.86,3.54-3.78s3.19-1.38,5.07-1.38c1.56,0,3.06,0.32,4.5,0.96
	c1.44,0.64,2.74,1.6,3.9,2.88l3.72-4.14c-1.56-1.64-3.41-2.89-5.55-3.75c-2.14-0.86-4.35-1.29-6.63-1.29
	c-2.96,0-5.63,0.71-8.01,2.13c-2.15,1.29-3.92,2.96-5.28,5.04c0.31,1.1,0.47,2.25,0.47,3.44v10.92c0,1.09-0.14,2.16-0.4,3.17
	c1.33,2.01,3.06,3.64,5.18,4.88c2.4,1.4,5.08,2.1,8.04,2.1c2.24,0,4.41-0.45,6.51-1.33c2.1-0.87,3.95-2.11,5.55-3.71l-3.66-3.91
	C81.77,38.75,80.49,39.66,79.13,40.28z"/>
<path class="st4" d="M104.59,46.48c-2.92,0-5.16-0.68-6.72-2.04c-1.56-1.36-2.34-3.38-2.34-6.06V20.44h-6.48V15.4h6.48V6.16h5.94
	v9.24h9.06v5.04h-9.06v16.62c0,1.52,0.35,2.61,1.05,3.27c0.7,0.66,1.85,0.99,3.45,0.99c0.84,0,1.59-0.06,2.25-0.18
	c0.66-0.12,1.37-0.32,2.13-0.6v5.1c-0.8,0.28-1.73,0.49-2.79,0.63C106.51,46.41,105.51,46.48,104.59,46.48z"/>
<path class="st4" d="M137.35,46.54c-2.96,0-5.65-0.69-8.07-2.07c-2.42-1.38-4.34-3.28-5.76-5.7c-1.42-2.42-2.13-5.11-2.13-8.07
	c0-3,0.7-5.69,2.1-8.07c1.4-2.38,3.32-4.28,5.76-5.7c2.44-1.42,5.14-2.13,8.1-2.13s5.65,0.71,8.07,2.13
	c2.42,1.42,4.33,3.32,5.73,5.7c1.4,2.38,2.1,5.07,2.1,8.07c0,2.96-0.7,5.65-2.1,8.07c-1.4,2.42-3.31,4.32-5.73,5.7
	C143,45.85,140.31,46.54,137.35,46.54z M137.35,41.26c1.88,0,3.58-0.47,5.1-1.41c1.52-0.94,2.72-2.21,3.6-3.81
	c0.88-1.6,1.32-3.4,1.32-5.4c0-1.96-0.44-3.73-1.32-5.31c-0.88-1.58-2.08-2.85-3.6-3.81c-1.52-0.96-3.22-1.44-5.1-1.44
	c-1.84,0-3.53,0.48-5.07,1.44c-1.54,0.96-2.75,2.23-3.63,3.81c-0.88,1.58-1.32,3.35-1.32,5.31c0,2,0.44,3.8,1.32,5.4
	c0.88,1.6,2.09,2.87,3.63,3.81C133.82,40.79,135.51,41.26,137.35,41.26z"/>
<path class="st4" d="M155.67,45.94V15.4h6v3.12c2.36-2.48,5.42-3.72,9.18-3.72c2.36,0,4.43,0.5,6.21,1.5c1.78,1,3.18,2.4,4.2,4.2
	c1.02,1.8,1.53,3.88,1.53,6.24v19.2h-6V27.76c0-2.4-0.68-4.29-2.04-5.67c-1.36-1.38-3.22-2.07-5.58-2.07c-1.6,0-3.03,0.35-4.29,1.05
	c-1.26,0.7-2.33,1.69-3.21,2.97v21.9H155.67z"/>
<g>
	<path class="st4" d="M112.96,15.4v30.54h6V15.4H112.96z"/>
	<rect x="112.96" y="6.16" class="st4" width="6" height="6"/>
</g>
<g>
	<path class="st0" d="M33.47,6.23c-0.23,0.23-0.47,0.45-0.7,0.66l-0.06,0.05l-6.69,6.18c0.31,0.02,0.63,0.03,0.95,0.03
		c1.74,0,3.42-0.34,5.04-1.02c1.63-0.68,3.06-1.64,4.3-2.88L33.47,6.23z"/>
</g>
</svg>
