<?xml version="1.0" encoding="utf-8"?>
<!-- Generator: Adobe Illustrator 28.1.0, SVG Export Plug-In . SVG Version: 6.00 Build 0)  -->
<svg version="1.1" id="Calque_1" xmlns="http://www.w3.org/2000/svg" xmlns:xlink="http://www.w3.org/1999/xlink" x="0px" y="0px"
	 viewBox="0 0 30 40" style="enable-background:new 0 0 30 40;" xml:space="preserve">
<style type="text/css">
	.st0{fill:#F5F8FB;}
	.st1{fill:#515EA7;}
	.st2{clip-path:url(#SVGID_00000135649048316843193300000014191777875807487934_);}
	.st3{fill:#EC5F62;}
	.st4{fill:#010202;}
	.st5{fill:#FFFFFF;}
	.st6{clip-path:url(#SVGID_00000097494958753297526500000014305959145292032395_);}
	.st7{fill:#EC5F62;stroke:#FFFFFF;stroke-width:0.25;stroke-miterlimit:10;}
</style>
<path class="st0" d="M26.5,20c0,6.4-5.1,11.5-11.5,11.5S3.5,26.3,3.5,20C3.5,13.6,8.6,8.5,15,8.5S26.5,13.6,26.5,20z"/>
<rect x="7.8" y="13.9" class="st1" width="14.5" height="12.1"/>
<g>
	<g>
		<g>
			<defs>
				<rect id="SVGID_1_" x="7.8" y="13.9" width="7.3" height="6.1"/>
			</defs>
			<clipPath id="SVGID_00000169538889899316096060000015596816329064974770_">
				<use xlink:href="#SVGID_1_"  style="overflow:visible;"/>
			</clipPath>
			<g style="clip-path:url(#SVGID_00000169538889899316096060000015596816329064974770_);">
				<path class="st3" d="M15.1,16.7v0.5h-2.7v-0.5H15.1z"/>
				<path class="st3" d="M15.1,15.8v0.5h-2.7v-0.5H15.1z"/>
				<path class="st3" d="M15.1,14.9v0.5h-2.7v-0.5C12.4,14.9,15.1,14.9,15.1,14.9z"/>
				<path class="st3" d="M15.1,14v0.5h-2.7V14H15.1z"/>
				<path class="st4" d="M12.4,13.9H7.8v3.3h4.6L12.4,13.9L12.4,13.9z"/>
				<path class="st3" d="M15.1,19.5V20H7.8v-0.5H15.1z"/>
				<path class="st3" d="M15.1,18.6v0.5H7.8v-0.5H15.1z"/>
				<path class="st3" d="M15.1,17.7v0.5H7.8v-0.5H15.1L15.1,17.7z"/>
				<path class="st5" d="M9.5,14.2c0.1,0,0.2,0,0.2-0.2c0.1,0.1,0.1,0.2,0.2,0.1c-0.1,0.1-0.1,0.1-0.1,0.2c-0.1,0-0.1-0.1-0.1-0.1
					c-0.1,0-0.1,0.1-0.1,0.1C9.6,14.3,9.6,14.2,9.5,14.2z"/>
				<path class="st5" d="M10.6,14.2c-0.1,0.1-0.1,0.1-0.1,0.1c0,0.1,0,0.1,0.1,0.2c-0.1-0.1-0.2-0.1-0.3,0c0.1-0.1,0.1-0.2-0.1-0.2
					c0.1,0,0.1,0,0.1,0c0.1,0,0.1-0.1,0.1-0.1C10.5,14.2,10.5,14.2,10.6,14.2L10.6,14.2z"/>
				<path class="st5" d="M11.9,14.4c0-0.1,0.1-0.1,0.1-0.2c-0.1-0.1-0.1-0.1-0.1-0.1c0.1,0,0.2,0,0.2-0.1c0,0.1,0.1,0.2,0.2,0.2
					c-0.1,0.1-0.2,0.1-0.1,0.2c-0.1,0-0.1-0.1-0.1-0.1C12,14.4,11.9,14.4,11.9,14.4L11.9,14.4z"/>
				<path class="st5" d="M10.6,14.8c-0.1,0.1-0.1,0.1-0.1,0.1c0,0.1,0,0.1,0.1,0.2c-0.1-0.1-0.2-0.1-0.3,0c0.1-0.1,0.1-0.2-0.1-0.2
					c0.1,0,0.2-0.1,0.2-0.2C10.5,14.8,10.5,14.8,10.6,14.8z"/>
				<path class="st5" d="M11.2,15c-0.1,0-0.1,0.1-0.1,0.1c0-0.1,0.1-0.1,0.1-0.2c-0.1-0.1-0.1-0.1-0.1-0.1c0.1,0,0.2,0,0.2-0.1
					c0.1,0.1,0.1,0.2,0.2,0.2c-0.1,0.1-0.1,0.1-0.1,0.1c0,0.1,0.1,0.1,0.1,0.2C11.3,15,11.3,15,11.2,15L11.2,15z"/>
				<path class="st5" d="M12.2,14.8c-0.1,0.1-0.1,0.1-0.1,0.2C12,15,12,15,12,15c-0.1,0-0.1,0.1-0.1,0.1c0-0.1,0.1-0.1,0.1-0.2
					c-0.1-0.1-0.1-0.1-0.1-0.1c0.1,0,0.2,0,0.2-0.1C12,14.8,12.1,14.8,12.2,14.8L12.2,14.8z"/>
				<path class="st5" d="M10.6,16.1c-0.1,0-0.1,0.1-0.1,0.1c0,0.1,0,0.1,0.1,0.1c-0.1-0.1-0.2-0.1-0.2,0c0-0.1,0-0.2-0.1-0.3
					c0.1,0,0.2,0,0.2-0.1C10.5,16.1,10.5,16.1,10.6,16.1z"/>
				<path class="st5" d="M8.2,14.3c0,0.1,0.1,0.1,0.1,0.2c-0.1-0.1-0.1-0.1-0.1-0.1c-0.1,0.1-0.1,0.1-0.1,0.1c0-0.1,0.1-0.1,0.1-0.2
					c-0.1-0.1-0.1-0.1-0.1-0.1c0.1,0,0.2,0,0.2-0.1c0.1,0.1,0.1,0.2,0.2,0.2C8.3,14.2,8.3,14.3,8.2,14.3L8.2,14.3z"/>
				<path class="st5" d="M11.1,15.5c0.1,0,0.2-0.1,0.2-0.2c0,0.1,0.1,0.2,0.2,0.2c-0.1,0-0.1,0.1-0.1,0.1c0,0.1,0.1,0.1,0.1,0.1
					c-0.1-0.1-0.2-0.1-0.2,0l0,0c0-0.1,0-0.1,0.1-0.1C11.1,15.5,11.1,15.5,11.1,15.5L11.1,15.5z"/>
				<path class="st5" d="M10.6,15.7c-0.1-0.1-0.1-0.1-0.1-0.1s-0.1,0.1-0.1,0.1c0.1-0.1,0.1-0.2-0.1-0.2c0.1,0,0.2,0,0.2-0.2
					c0,0.1,0.1,0.2,0.2,0.2C10.7,15.5,10.7,15.6,10.6,15.7C10.6,15.6,10.6,15.6,10.6,15.7L10.6,15.7z"/>
				<path class="st5" d="M8.1,15.7c0-0.1,0-0.1,0.1-0.1c-0.1,0-0.1-0.1-0.1-0.1c0.1,0,0.2,0,0.2-0.1c-0.1,0.1,0.1,0.1,0.1,0.1
					c-0.1,0.1-0.1,0.1-0.1,0.1c0,0.1,0,0.1,0.1,0.2C8.2,15.6,8.1,15.6,8.1,15.7C8.1,15.7,8.1,15.7,8.1,15.7z"/>
				<path class="st5" d="M10.6,16.8c-0.1,0-0.1,0.1-0.1,0.1c0,0.1,0,0.1,0.1,0.2c-0.1-0.1-0.2-0.1-0.3,0c0.1-0.1,0.1-0.2-0.1-0.2
					c0.1,0,0.2,0,0.2-0.2C10.5,16.7,10.5,16.8,10.6,16.8L10.6,16.8L10.6,16.8z"/>
				<path class="st5" d="M12,16.6c0,0.1,0.1,0.2,0.2,0.2c-0.1,0.1-0.1,0.1-0.1,0.2c-0.1-0.1-0.2-0.1-0.3,0c0-0.1,0-0.1,0.1-0.1
					c-0.1,0-0.1-0.1-0.1-0.1C11.9,16.8,12,16.8,12,16.6L12,16.6z"/>
				<path class="st5" d="M11.4,16.8c-0.1,0-0.1,0.1-0.1,0.1c0,0.1,0,0.1,0.1,0.1c-0.1-0.1-0.2-0.1-0.2,0c0-0.1,0-0.1,0.1-0.1
					c-0.1,0-0.1-0.1-0.1-0.1c0.1,0,0.2,0,0.2-0.1C11.2,16.7,11.3,16.8,11.4,16.8z"/>
				<path class="st5" d="M8.3,14.8c-0.1,0.1-0.1,0.1-0.1,0.1c0,0.1,0,0.1,0.1,0.1c-0.1-0.1-0.2-0.1-0.3,0c0-0.1,0-0.1,0.1-0.1
					C8,14.8,8,14.8,8,14.8c0.1,0,0.1,0,0.1,0c0.1,0,0.1-0.1,0.1-0.1C8.2,14.8,8.2,14.9,8.3,14.8L8.3,14.8L8.3,14.8z"/>
				<path class="st5" d="M11.1,16.1c0.1,0.1,0.2,0,0.2-0.1c0,0.1,0.1,0.2,0.2,0.1c-0.1,0.1-0.1,0.1-0.1,0.1s0,0.1,0.1,0.2
					c-0.1-0.1-0.1-0.1-0.1-0.1c-0.1,0-0.1,0.1-0.1,0.1c0-0.1,0.1-0.1,0.1-0.2C11.1,16.2,11.1,16.2,11.1,16.1L11.1,16.1L11.1,16.1z"
					/>
				<path class="st5" d="M9.6,15c0.1-0.1,0.1-0.2-0.1-0.2c0.1,0,0.2,0,0.2-0.2c0.1,0.1,0.1,0.2,0.2,0.2c-0.1,0.1-0.1,0.1-0.1,0.2
					C9.8,15,9.7,15,9.6,15z"/>
				<path class="st5" d="M9.5,15.5c0.1,0,0.2,0,0.2-0.2c0,0.1,0.1,0.2,0.2,0.1c-0.1,0.1-0.1,0.2-0.1,0.3c-0.1,0-0.1-0.1-0.1-0.1
					c-0.1,0-0.1,0.1-0.1,0.1C9.6,15.6,9.6,15.5,9.5,15.5L9.5,15.5z"/>
				<path class="st5" d="M8.3,16.3c-0.1-0.1-0.2-0.1-0.3,0c0-0.1,0-0.1,0.1-0.1C8,16.2,8,16.2,8,16.1c0.1,0,0.2,0,0.2-0.1
					c0.1,0.1,0.1,0.2,0.2,0.2c-0.1,0-0.1,0.1-0.1,0.1C8.3,16.2,8.3,16.3,8.3,16.3L8.3,16.3z"/>
				<path class="st5" d="M8.8,14.2c0.1,0,0.2-0.1,0.2-0.2c0,0.1,0.1,0.2,0.2,0.2c-0.1,0.1-0.2,0.1-0.1,0.2c-0.1-0.1-0.2-0.1-0.3,0
					c0-0.1,0-0.1,0.1-0.1C8.8,14.3,8.8,14.2,8.8,14.2z"/>
				<path class="st5" d="M12.1,15.7c-0.1-0.1-0.2-0.1-0.3,0c0-0.1,0.1-0.1,0.1-0.2c-0.1,0-0.1-0.1-0.1-0.1c0.1,0,0.2,0,0.2-0.2
					c0.1,0.1,0.1,0.2,0.2,0.2C12.1,15.5,12.1,15.6,12.1,15.7L12.1,15.7z"/>
				<path class="st5" d="M11.1,14.3c-0.1-0.1-0.1-0.1-0.1-0.1c0.1,0,0.2,0,0.2-0.1c0,0.1,0.1,0.2,0.2,0.1c-0.1,0.1-0.1,0.1-0.1,0.1
					c0,0.1,0,0.1,0.1,0.1c-0.1-0.1-0.2-0.1-0.2,0C11.1,14.4,11.1,14.3,11.1,14.3L11.1,14.3z"/>
				<path class="st5" d="M9.5,16.1c0.1,0,0.2,0,0.2-0.1c0.1,0.1,0.1,0.2,0.2,0.1c-0.1,0.1-0.1,0.1-0.1,0.3c-0.1-0.1-0.2-0.1-0.2,0
					C9.6,16.3,9.6,16.2,9.5,16.1L9.5,16.1z"/>
				<path class="st5" d="M8.8,15.1c0-0.1,0.1-0.1,0.1-0.2c-0.1-0.1-0.1-0.1-0.1-0.1c0.1,0,0.2,0,0.2-0.1c0,0.1,0.1,0.2,0.2,0.1
					c-0.1,0.1-0.1,0.1-0.1,0.1s0,0.1,0.1,0.2C9.1,15,9,15,9,15C8.9,15,8.9,15,8.8,15.1L8.8,15.1z"/>
				<path class="st5" d="M11.9,16.2c-0.1,0-0.1-0.1-0.1-0.1c0.1,0,0.2,0,0.2-0.1c0,0.1,0.1,0.2,0.2,0.1c-0.1,0.1-0.1,0.1-0.1,0.2
					c-0.1,0-0.1-0.1-0.1-0.1c-0.1,0-0.1,0.1-0.1,0.1C11.9,16.3,11.9,16.3,11.9,16.2L11.9,16.2z"/>
				<path class="st5" d="M9.8,17c-0.1-0.1-0.2-0.1-0.2,0c0-0.1,0-0.1,0.1-0.1c-0.1,0-0.1-0.1-0.1-0.1c0.1,0,0.2,0,0.2-0.1
					c0.1,0.1,0.1,0.2,0.2,0.1C9.8,16.8,9.8,16.9,9.8,17z"/>
				<path class="st5" d="M8.1,16.9C8,16.8,8,16.8,8,16.8c0.1,0,0.2,0,0.2-0.1c0,0.1,0.1,0.2,0.2,0.2c-0.1,0-0.1,0.1-0.1,0.1
					c0,0.1,0,0.1,0.1,0.1C8.2,17,8.1,17,8.1,17C8.1,16.9,8.1,16.9,8.1,16.9L8.1,16.9z"/>
				<path class="st5" d="M9.1,15.7c-0.1-0.1-0.2-0.1-0.2,0c0-0.1,0-0.1,0.1-0.1c-0.1,0-0.1-0.1-0.1-0.1c0.1,0,0.2,0,0.2-0.1
					c0,0.1,0.1,0.2,0.2,0.2C9,15.5,9,15.6,9.1,15.7L9.1,15.7z"/>
				<path class="st5" d="M8.8,16.3c0-0.1,0-0.1,0.1-0.1c-0.1,0-0.1-0.1-0.1-0.1c0.1,0,0.2-0.1,0.2-0.2c0,0.1,0.1,0.2,0.2,0.2
					c-0.1,0-0.1,0.1-0.1,0.1c0,0.1,0,0.1,0.1,0.2C9,16.3,8.9,16.3,8.8,16.3L8.8,16.3z"/>
				<path class="st5" d="M8.8,16.8c0.1,0,0.2,0,0.2-0.1c0,0.1,0.1,0.2,0.2,0.1c-0.1,0.1-0.1,0.1-0.1,0.1s0,0.1,0.1,0.1
					C9,16.9,9,16.9,8.9,17c0-0.1,0-0.1,0.1-0.1C8.8,16.8,8.8,16.8,8.8,16.8L8.8,16.8z"/>
				<path class="st5" d="M10.7,15.8c0.1,0,0.2-0.1,0.2-0.2c0,0.1,0.1,0.2,0.2,0.1C11,15.8,10.9,15.9,11,16c-0.1-0.1-0.2-0.1-0.2,0
					C10.8,16,10.8,15.9,10.7,15.8z"/>
				<path class="st5" d="M8.7,14.8c-0.1,0-0.1-0.1-0.1-0.1s-0.1,0.1-0.1,0.1c0.1-0.1,0.1-0.2-0.1-0.3c0.1,0,0.1,0,0.1,0
					c0-0.1,0.1-0.1,0.1-0.1c0,0.1,0.1,0.1,0.1,0.2h0.1C8.7,14.6,8.6,14.7,8.7,14.8C8.7,14.7,8.7,14.7,8.7,14.8L8.7,14.8z"/>
				<path class="st5" d="M11,15.4c-0.1-0.1-0.2-0.1-0.2,0c0.1-0.1,0.1-0.2-0.1-0.2c0.1,0,0.2,0,0.2-0.2c0.1,0.1,0.1,0.2,0.2,0.2
					C10.9,15.2,10.9,15.3,11,15.4L11,15.4z"/>
				<path class="st5" d="M8.7,15.2c-0.1,0.1-0.1,0.1-0.1,0.2c-0.1-0.1-0.1-0.1-0.1-0.1c-0.1,0-0.1,0.1-0.1,0.1
					c0.1-0.1,0.1-0.2-0.1-0.2c0.1,0,0.1,0,0.1,0c0-0.1,0.1-0.1,0.1-0.2c0,0.1,0.1,0.1,0.1,0.2L8.7,15.2L8.7,15.2L8.7,15.2z"/>
				<path class="st5" d="M10.7,16.5c0.1,0,0.2-0.1,0.2-0.1c0,0.1,0.1,0.1,0.1,0.1c0.1,0,0.1,0,0.2,0c-0.1,0.1-0.2,0.1-0.1,0.2
					c-0.1-0.1-0.2-0.1-0.2,0C10.8,16.6,10.8,16.5,10.7,16.5z"/>
				<path class="st5" d="M9.3,14.4c0.1,0.1,0.1,0.2,0.2,0.1c-0.1,0.1-0.1,0.1-0.1,0.2c-0.1,0-0.1-0.1-0.1-0.1
					c-0.1,0-0.1,0.1-0.1,0.1c0-0.1,0.1-0.1,0.1-0.2c-0.1-0.1-0.1-0.1-0.1-0.1C9.3,14.5,9.3,14.5,9.3,14.4
					C9.3,14.5,9.3,14.5,9.3,14.4L9.3,14.4z"/>
				<path class="st5" d="M8.6,15.8c0.1,0,0.1,0,0.1,0c-0.1,0.1-0.1,0.1-0.1,0.2C8.6,16,8.6,16,8.6,16C8.5,16,8.5,16,8.5,16
					c0-0.1,0.1-0.1,0.1-0.2c-0.1,0-0.1-0.1-0.1-0.1C8.5,15.8,8.5,15.8,8.6,15.8c-0.1-0.1,0-0.1,0-0.2C8.6,15.7,8.6,15.8,8.6,15.8z"
					/>
				<path class="st5" d="M10.1,15.8c0-0.1,0.1-0.1,0.1-0.1c0.1,0.1,0.1,0.2,0.2,0.2c-0.1,0.1-0.2,0.1-0.1,0.2
					c-0.1,0-0.1-0.1-0.1-0.1c-0.1,0-0.1,0.1-0.1,0.1C10.1,16,10.1,15.9,10.1,15.8C10,15.8,10,15.8,10.1,15.8z"/>
				<path class="st5" d="M9.4,15.4c-0.1,0-0.1-0.1-0.1-0.1c-0.1,0-0.1,0.1-0.1,0.1c0.1-0.1,0.1-0.2-0.1-0.2c0.1,0,0.2-0.1,0.2-0.1
					c0,0.1,0.1,0.1,0.1,0.1c0.1,0,0.1,0,0.2,0C9.4,15.2,9.4,15.3,9.4,15.4L9.4,15.4z"/>
				<path class="st5" d="M9.2,16.5h0.1c0-0.1,0.1-0.1,0.1-0.2c0,0.1,0.1,0.1,0.1,0.1c0.1,0,0.1,0,0.2,0c-0.1,0.1-0.2,0.1-0.1,0.2
					c-0.1,0-0.1-0.1-0.1-0.1c-0.1,0-0.1,0.1-0.1,0.1C9.2,16.6,9.3,16.5,9.2,16.5C9.1,16.5,9.1,16.5,9.2,16.5z"/>
				<path class="st5" d="M9.9,16.5c0.1,0,0.2-0.1,0.2-0.1c0,0.1,0.1,0.1,0.1,0.1c0.1,0,0.1,0,0.2,0c-0.1,0.1-0.2,0.1-0.1,0.2
					c-0.1,0-0.1-0.1-0.1-0.1c-0.1,0-0.1,0.1-0.1,0.1C10,16.6,10,16.5,9.9,16.5L9.9,16.5z"/>
				<path class="st5" d="M10.8,14.8c0.1-0.1,0.1-0.2-0.1-0.2c0.1,0,0.1,0,0.1,0c0-0.1,0.1-0.1,0.1-0.2c0,0.1,0.1,0.2,0.2,0.2
					C11,14.6,11,14.7,11,14.8C10.9,14.7,10.8,14.7,10.8,14.8L10.8,14.8z"/>
				<path class="st5" d="M11.4,14.5c0.1,0.1,0.2,0,0.2-0.1c0,0.1,0.1,0.1,0.1,0.1c0.1,0,0.1,0,0.1,0c-0.1,0.1-0.1,0.1-0.1,0.3
					c-0.1-0.1-0.1-0.1-0.2-0.1c-0.1,0.1-0.1,0.1-0.1,0.1c0-0.1,0.1-0.1,0.1-0.2C11.5,14.6,11.5,14.6,11.4,14.5L11.4,14.5z"/>
				<path class="st5" d="M11.7,15.4c-0.1-0.1-0.1-0.1-0.1-0.1c-0.1,0-0.1,0.1-0.1,0.1c0.1-0.1,0-0.2-0.1-0.2c0.1,0,0.2,0,0.2-0.2
					c0.1,0.1,0.1,0.2,0.2,0.1C11.7,15.2,11.7,15.3,11.7,15.4L11.7,15.4z"/>
				<path class="st5" d="M8.7,16.7c-0.1,0-0.1-0.1-0.1-0.1s-0.1,0.1-0.1,0.1c0-0.1,0.1-0.1,0.1-0.2c-0.1,0-0.1,0-0.2-0.1
					c0.1,0,0.1,0,0.2,0c0-0.1,0.1-0.1,0.1-0.2c0,0.1,0.1,0.1,0.1,0.2c0.1,0,0.1,0,0.2,0C8.6,16.5,8.6,16.6,8.7,16.7L8.7,16.7z"/>
				<path class="st5" d="M9.9,15.2c0.1,0,0.1,0,0.1,0c0-0.1,0.1-0.1,0.1-0.1c0,0.1,0.1,0.1,0.1,0.1c0.1,0,0.1,0,0.2,0
					c-0.1,0.1-0.2,0.1-0.1,0.2c-0.1,0-0.1-0.1-0.1-0.1S10,15.4,10,15.4C10,15.3,10,15.2,9.9,15.2L9.9,15.2L9.9,15.2z"/>
				<path class="st5" d="M10.3,14.5c-0.1,0.1-0.1,0.2-0.1,0.2c-0.1-0.1-0.1-0.1-0.1-0.1c-0.1,0-0.1,0.1-0.1,0.1
					c0.1-0.1,0.1-0.2-0.1-0.2c0,0,0,0,0.1,0c0.1,0,0.1,0,0.1,0c0-0.1,0.1-0.1,0.1-0.1C10.2,14.5,10.2,14.6,10.3,14.5
					C10.2,14.5,10.2,14.5,10.3,14.5L10.3,14.5z"/>
				<path class="st5" d="M11.6,16.3c0,0.1,0.1,0.2,0.2,0.2c-0.1,0.1-0.1,0.1-0.1,0.2c-0.1,0-0.1-0.1-0.1-0.1c-0.1,0-0.1,0.1-0.1,0.1
					c0.1-0.1,0.1-0.2-0.1-0.2C11.5,16.5,11.6,16.5,11.6,16.3z"/>
				<path class="st5" d="M9.4,16C9.4,16,9.4,16,9.3,16c-0.1,0-0.1,0.1-0.2,0.1c0.1-0.1,0.1-0.2-0.1-0.3c0.1,0,0.1,0,0.1,0
					c0-0.1,0.1-0.1,0.1-0.1c0,0.1,0.1,0.1,0.1,0.1c0.1,0,0.1,0,0.2,0C9.4,15.9,9.4,15.9,9.4,16L9.4,16L9.4,16z"/>
				<path class="st5" d="M11.8,15.8c-0.1,0.1-0.2,0.1-0.1,0.2c0,0,0,0-0.1,0c-0.1,0-0.1-0.1-0.1-0.1c-0.1,0-0.1,0.1-0.1,0.1
					c0.1-0.1,0.1-0.2-0.1-0.2c0.1,0,0.2,0,0.2-0.2C11.7,15.8,11.7,15.9,11.8,15.8L11.8,15.8z"/>
				<g>
					<g>
						<g>
							<defs>
								<rect id="SVGID_00000011727417861191964220000011725601929852475569_" x="7.6" y="13.7" width="7.5" height="6.5"/>
							</defs>
							<clipPath id="SVGID_00000131332214392301967420000017837414513277158078_">
								<use xlink:href="#SVGID_00000011727417861191964220000011725601929852475569_"  style="overflow:visible;"/>
							</clipPath>
							<g style="clip-path:url(#SVGID_00000131332214392301967420000017837414513277158078_);">
								<path class="st5" d="M15.2,13.7H7.6v6.5h7.5V13.7z"/>
								<path class="st1" d="M10.8,13.7H7.6v2.1h3.1V13.7z"/>
								<path class="st1" d="M15.2,13.7h-3.1v2.1h3.1V13.7z"/>
								<path class="st1" d="M10.8,18.1H7.6v2.1h3.1V18.1z"/>
								<path class="st1" d="M15.2,18.1h-3.1v2.1h3.1V18.1z"/>
								<path class="st5" d="M15.2,19.7v0.5H14l-1.9-1.8l-0.2-0.2l-0.5-0.4l-0.2-0.2l-0.2-0.2L11,17.4l-0.2-0.2L10.6,17l-0.7-0.7
									l-0.5-0.5l-1.7-1.6v-0.5h1.2l1.9,1.8l0.2,0.2l0.4,0.4l0.2,0.2l0.2,0.2l0.1,0.1l0.2,0.2l0,0l0.3,0.3l0.7,0.7l0.5,0.5
									L15.2,19.7z"/>
								<path class="st5" d="M15.2,13.7v0.6l-1.6,1.5l-0.5,0.5L12.3,17l-0.3,0.3l-0.2,0.2l-0.1,0.1l-0.2,0.2l-0.2,0.2L11,18.2
									l-0.2,0.2l-2,1.9H7.6v-0.6l1.6-1.5l0.5-0.5l0.8-0.7l0.3-0.3l0.2-0.2l0.2-0.2l0.2-0.1l0.2-0.2l0.4-0.4l0.2-0.2l2-1.9
									C14,13.7,15.2,13.7,15.2,13.7z"/>
								<path class="st3" d="M15.2,16.3H7.6v1.4h7.5V16.3z"/>
								<path class="st3" d="M15.2,13.7L15.2,13.7L13,15.8l-0.5,0.5L12,16.7l0,0l-0.2,0.2L11.7,17l-0.3,0.3l-0.3,0.3L11,17.6H11
									l-0.5,0.5l-2.2,2.1H7.6l0,0l2.2-2.1l0.5-0.5l0.5-0.4l0.2-0.2l0.2-0.2l0.3-0.3l0.3-0.3l0.1-0.1h0.1l0.5-0.5l2.3-2.1
									C14.6,13.7,15.2,13.7,15.2,13.7z"/>
								<path class="st3" d="M15.2,20.2L15.2,20.2l-0.6,0.1l-2.2-2.1l-0.5-0.5l-0.1-0.1l-0.1-0.1l-0.4-0.3L11.2,17L11,16.8l-0.2-0.2
									l-0.5-0.4l-0.5-0.5l-2.2-2.1h0.6l2.3,2.1l0.5,0.5l0,0l0.2,0.1l0.3,0.3l0.3,0.3l0.1,0.1l0.2,0.2l0.5,0.5l0.5,0.5L15.2,20.2z"
									/>
								<path class="st3" d="M11.9,13.7H11v6.5h0.9V13.7z"/>
							</g>
						</g>
					</g>
				</g>
			</g>
		</g>
	</g>
</g>
<polygon class="st7" points="18.7,16.7 19,17.3 19.6,17.4 19.2,17.9 19.3,18.5 18.7,18.2 18.1,18.5 18.2,17.9 17.7,17.4 18.4,17.3 
	"/>
<polygon class="st7" points="18.7,22.7 19,23.3 19.6,23.3 19.2,23.8 19.3,24.5 18.7,24.2 18.1,24.5 18.2,23.8 17.7,23.3 18.4,23.3 
	"/>
<polygon class="st7" points="17.2,19.2 17.5,19.8 18.1,19.9 17.6,20.4 17.8,21 17.2,20.7 16.6,21 16.7,20.4 16.2,19.9 16.9,19.8 "/>
<polygon class="st7" points="20.3,19.2 20.6,19.8 21.2,19.9 20.7,20.4 20.8,21 20.3,20.7 19.7,21 19.8,20.4 19.3,19.9 20,19.8 "/>
</svg>
