<svg xmlns="http://www.w3.org/2000/svg" width="356" height="356" viewBox="0 0 356 356" fill="none">
<path d="M178 356C276.307 356 356 276.307 356 178C356 79.6933 276.307 0 178 0C79.6934 0 0 79.6933 0 178C0 276.307 79.6934 356 178 356Z" fill="#FACD5F"/>
<path d="M178 319.05C255.902 319.05 319.054 255.898 319.054 177.996C319.054 100.095 255.902 36.9427 178 36.9427C100.098 36.9427 36.9462 100.095 36.9462 177.996C36.9462 255.898 100.098 319.05 178 319.05Z" fill="white"/>
<path d="M178.001 290.454C240.11 290.454 290.459 240.105 290.459 177.996C290.459 115.886 240.11 65.5372 178.001 65.5372C115.892 65.5372 65.5422 115.886 65.5422 177.996C65.5422 240.105 115.892 290.454 178.001 290.454Z" fill="#FACD5F"/>
<path d="M139.626 239.491V220.258H170.14V133.523L139.626 155.161V132.229L170.88 110.036H192.332V220.258H217.299V239.491H139.626Z" fill="white"/>
</svg>