<svg xmlns="http://www.w3.org/2000/svg" width="72" height="72" viewBox="0 0 72 72" fill="none">
<path d="M61.348 50.2072L62.9076 56.0261C64.0288 60.2075 60.2026 64.0339 56.0214 62.9126L50.2026 61.353C47.745 60.6942 45.1502 61.7698 43.8784 63.9721L40.8669 69.1887C38.7023 72.9371 33.2923 72.9371 31.1278 69.1887L28.1162 63.9721C26.8444 61.7671 24.2496 60.6942 21.792 61.353L15.9733 62.9126C11.7921 64.0339 7.96579 60.2075 9.08705 56.0261L10.6466 50.2072C11.3054 47.7495 10.2298 45.1546 8.02764 43.8827L2.81122 40.8711C-0.937073 38.7065 -0.937073 33.2962 2.81122 31.1316L8.02764 28.12C10.2325 26.8481 11.3054 24.2532 10.6466 21.7955L9.08705 15.9765C7.96579 11.7952 11.7921 7.96878 15.9733 9.09008L21.792 10.6497C24.2496 11.3085 26.8444 10.2329 28.1162 8.03062L31.1304 2.81132C33.295 -0.937108 38.705 -0.937108 40.8696 2.81132L43.8811 8.03062C45.1529 10.2356 47.7477 11.3085 50.2053 10.6497L56.0241 9.09008C60.2053 7.96878 64.0315 11.7952 62.9103 15.9765L61.3507 21.7955C60.6919 24.2532 61.7675 26.8481 63.9697 28.12L69.1888 31.1316C72.9371 33.2962 72.9371 38.7065 69.1888 40.8711L63.9697 43.8854C61.7648 45.1573 60.6919 47.7522 61.3507 50.2099L61.348 50.2072Z" fill="#7BD69A"/>
<path d="M36.5 55C47.2696 55 56 46.2696 56 35.5C56 24.7304 47.2696 16 36.5 16C25.7304 16 17 24.7304 17 35.5C17 46.2696 25.7304 55 36.5 55Z" fill="white"/>
<path d="M34.0522 47L25.611 38.3634C24.7963 37.5299 24.7963 36.1755 25.611 35.342C26.4256 34.5085 27.7493 34.5085 28.5639 35.342L34.0835 40.9894L45.4516 29.6092C46.2767 28.7837 47.5978 28.7998 48.4046 29.6413C49.2114 30.4854 49.1957 31.8372 48.3732 32.6626L34.0496 46.9973L34.0522 47Z" fill="#7BD69A"/>
</svg>