<svg width="56" height="56" viewBox="0 0 56 56" fill="none" xmlns="http://www.w3.org/2000/svg">
<path d="M47.7151 39.0501L48.9281 43.5759C49.8002 46.8281 46.8242 49.8042 43.5722 48.932L39.0465 47.719C37.135 47.2066 35.1169 48.0432 34.1276 49.7561L31.7853 53.8134C30.1018 56.7289 25.894 56.7289 24.2105 53.8134L21.8682 49.7561C20.879 48.0411 18.8608 47.2066 16.9493 47.719L12.4236 48.932C9.1716 49.8042 6.19562 46.8281 7.06771 43.5759L8.28069 39.0501C8.79307 37.1385 7.95653 35.1203 6.24372 34.131L2.1865 31.7886C-0.728834 30.105 -0.728834 25.8971 2.1865 24.2135L6.24372 21.8711C7.95862 20.8818 8.79307 18.8636 8.28069 16.952L7.06771 12.4262C6.19562 9.17404 9.1716 6.19794 12.4236 7.07006L16.9493 8.28309C18.8608 8.79549 20.879 7.95892 21.8682 6.24604L24.2126 2.18659C25.8961 -0.728862 30.1039 -0.728862 31.7874 2.18659L34.1297 6.24604C35.1189 7.96101 37.1371 8.79549 39.0486 8.28309L43.5743 7.07006C46.8263 6.19794 49.8023 9.17404 48.9302 12.4262L47.7172 16.952C47.2048 18.8636 48.0414 20.8818 49.7542 21.8711L53.8135 24.2135C56.7288 25.8971 56.7288 30.105 53.8135 31.7886L49.7542 34.1331C48.0393 35.1224 47.2048 37.1406 47.7172 39.0521L47.7151 39.0501Z" fill="#242632"/>
<path d="M28.3889 42.7778C36.7652 42.7778 43.5555 35.9874 43.5555 27.6111C43.5555 19.2348 36.7652 12.4445 28.3889 12.4445C20.0126 12.4445 13.2222 19.2348 13.2222 27.6111C13.2222 35.9874 20.0126 42.7778 28.3889 42.7778Z" fill="white"/>
<path d="M26.485 36.5555L19.9196 29.8382C19.286 29.1899 19.286 28.1365 19.9196 27.4882C20.5532 26.84 21.5828 26.84 22.2164 27.4882L26.5094 31.8806L35.3512 23.0294C35.9929 22.3873 37.0205 22.3998 37.648 23.0543C38.2755 23.7109 38.2633 24.7622 37.6236 25.4042L26.483 36.5535L26.485 36.5555Z" fill="#242632"/>
</svg>
