<svg xmlns="http://www.w3.org/2000/svg" width="58" height="58" viewBox="0 0 58 58" fill="none">
<path d="M28.924 57.8479C44.8982 57.8479 57.8479 44.8982 57.8479 28.924C57.8479 12.9497 44.8982 0 28.924 0C12.9497 0 0 12.9497 0 28.924C0 44.8982 12.9497 57.8479 28.924 57.8479Z" fill="#25283D"/>
<path d="M28.9241 51.984C41.6599 51.984 51.9843 41.6596 51.9843 28.9238C51.9843 16.1879 41.6599 5.86348 28.9241 5.86348C16.1882 5.86348 5.86378 16.1879 5.86378 28.9238C5.86378 41.6596 16.1882 51.984 28.9241 51.984Z" fill="#5F64FA"/>
<path d="M18.5902 42.6714V38.5379L27.8811 30.5364C29.044 29.4998 29.9668 28.6529 30.6494 27.9956C31.3573 27.313 31.8629 26.6683 32.1663 26.0616C32.4697 25.4548 32.6214 24.7975 32.6214 24.0896C32.6214 23.0025 32.318 22.1303 31.7112 21.473C31.1298 20.7904 30.2323 20.4491 29.0188 20.4491C27.6283 20.4491 26.5538 20.8283 25.7954 21.5868C25.0369 22.3199 24.6577 23.584 24.6577 25.379H18.9694C18.9694 23.3817 19.3486 21.6626 20.1071 20.2216C20.8655 18.7552 21.9905 17.6302 23.4821 16.8465C24.999 16.0628 26.8446 15.6709 29.0188 15.6709C31.0413 15.6709 32.7478 16.0375 34.1382 16.7707C35.5287 17.4785 36.5653 18.4645 37.2479 19.7286C37.9557 20.9926 38.3097 22.4463 38.3097 24.0896C38.3097 25.3031 38.0189 26.4408 37.4375 27.5026C36.8813 28.5644 36.1355 29.5757 35.2001 30.5364C34.2646 31.4971 33.2155 32.4578 32.0525 33.4184L26.5917 37.9691H38.6889V42.6714H18.5902Z" fill="#25283D"/>
</svg>