<svg xmlns="http://www.w3.org/2000/svg" width="47" height="47" viewBox="0 0 47 47" fill="none">
<path d="M23.3769 46.7538C36.2876 46.7538 46.7538 36.2876 46.7538 23.3769C46.7538 10.4662 36.2876 0 23.3769 0C10.4662 0 0 10.4662 0 23.3769C0 36.2876 10.4662 46.7538 23.3769 46.7538Z" fill="white"/>
<path d="M23.377 42.0145C33.6703 42.0145 42.0147 33.6701 42.0147 23.3767C42.0147 13.0834 33.6703 4.73898 23.377 4.73898C13.0836 4.73898 4.73922 13.0834 4.73922 23.3767C4.73922 33.6701 13.0836 42.0145 23.377 42.0145Z" fill="#FA8C5F"/>
<path d="M23.6874 34.2459C22.0777 34.2459 20.7163 33.9672 19.6034 33.4098C18.5103 32.8524 17.6756 32.0886 17.0993 31.1183C16.523 30.1274 16.2348 28.9919 16.2348 27.712H19.8121C19.8121 28.7442 20.1201 29.5493 20.7362 30.1274C21.3721 30.6848 22.3559 30.9635 23.6874 30.9635C24.9792 30.9635 25.9431 30.6848 26.579 30.1274C27.2349 29.5493 27.5628 28.7442 27.5628 27.712C27.5628 26.6591 27.2647 25.8333 26.6685 25.2346C26.0723 24.6153 25.0786 24.3056 23.6874 24.3056H21.6007V21.209H23.6874C24.8798 21.209 25.7742 20.9509 26.3704 20.4348C26.9666 19.898 27.2647 19.1342 27.2647 18.1433C27.2647 17.1523 26.9765 16.4091 26.4002 15.9137C25.8437 15.4182 24.9395 15.1705 23.6874 15.1705C22.4553 15.1705 21.5411 15.4285 20.9449 15.9446C20.3685 16.4608 20.0804 17.1833 20.0804 18.1123H16.5031C16.5031 16.853 16.7714 15.7588 17.308 14.8298C17.8644 13.9008 18.6793 13.1783 19.7524 12.6622C20.8256 12.1461 22.1373 11.888 23.6874 11.888C25.2574 11.888 26.5691 12.1564 27.6224 12.6932C28.6757 13.2093 29.4707 13.9112 30.0073 14.7989C30.5637 15.6659 30.842 16.6362 30.842 17.7097C30.842 18.9484 30.524 19.9909 29.888 20.8374C29.2521 21.6631 28.3776 22.2515 27.2647 22.6025C28.477 22.9741 29.421 23.6037 30.0967 24.4914C30.7923 25.3585 31.1401 26.5352 31.1401 28.0216C31.1401 29.1777 30.8519 30.2306 30.2756 31.1802C29.7191 32.1299 28.8844 32.8834 27.7715 33.4408C26.6784 33.9775 25.3171 34.2459 23.6874 34.2459Z" fill="white"/>
</svg>