<svg xmlns="http://www.w3.org/2000/svg" width="23" height="23" viewBox="0 0 23 23" fill="none">
<path d="M23 11.5C23 17.8513 17.8513 23 11.5 23C5.14873 23 0 17.8513 0 11.5C0 5.14873 5.14873 0 11.5 0C17.8513 0 23 5.14873 23 11.5Z" fill="#F5F8FB"/>
<path d="M4.23689 5.44736H18.7632V17.5526H4.23689V5.44736Z" fill="white"/>
<path d="M18.7632 11.0328V11.9379H13.3628V11.0328H18.7632Z" fill="#FA5F5F"/>
<path d="M18.7632 9.17945V10.0846H13.3628V9.17945H18.7632Z" fill="#FA5F5F"/>
<path d="M18.7632 7.3333V8.23841H13.3628V7.3333H18.7632Z" fill="#FA5F5F"/>
<path d="M18.7632 5.46172V6.36684H13.3628V5.46172H18.7632Z" fill="#FA5F5F"/>
<path d="M13.4023 5.44736H4.24004V11.9351H13.4023V5.44736Z" fill="black"/>
<path d="M18.7489 16.6486V17.5526H4.23908V16.6486H18.7489Z" fill="#FA5F5F"/>
<path d="M18.7506 14.771V15.6772H4.23689V14.771H18.7506Z" fill="#FA5F5F"/>
<path d="M18.7495 12.8994V13.8045H4.23853V12.8994H18.7495Z" fill="#FA5F5F"/>
<path d="M7.68983 5.94136C7.89045 5.95352 8.01577 5.90268 8.0449 5.68496C8.09712 5.87339 8.19606 5.97175 8.41262 5.93252C8.2197 6.03972 8.17957 6.17676 8.25487 6.36076C8.18781 6.31711 8.12076 6.2729 8.0493 6.22594C7.98389 6.27069 7.92178 6.31379 7.80196 6.39613C7.90859 6.17952 7.89705 6.03198 7.68983 5.94136Z" fill="white"/>
<path d="M9.91868 5.95904C9.85932 6.00656 9.79996 6.05408 9.73125 6.10934C9.75159 6.1856 9.77192 6.26351 9.8093 6.40442C9.64056 6.22483 9.50039 6.20604 9.34759 6.37458C9.43279 6.18449 9.41575 6.04082 9.23106 5.93694C9.30966 5.92644 9.4031 5.93915 9.46192 5.89936C9.51523 5.86289 9.53008 5.77006 9.58559 5.65181C9.61362 5.88279 9.71366 5.97838 9.92583 5.90931L9.91868 5.95904Z" fill="white"/>
<path d="M12.4213 6.3801C12.4509 6.27235 12.4724 6.19444 12.4955 6.10934C12.4339 6.06127 12.3701 6.01098 12.2575 5.92202C12.4762 5.94302 12.6356 5.92202 12.651 5.67336C12.6851 5.89992 12.8209 5.94689 13.0094 5.94136C12.8418 6.04911 12.7544 6.17013 12.8588 6.36242C12.7912 6.31877 12.7241 6.27456 12.6532 6.2287C12.5834 6.27456 12.5158 6.31822 12.4213 6.3801Z" fill="white"/>
<path d="M9.91648 7.25373C9.85602 7.30014 9.79556 7.346 9.73125 7.39574C9.75214 7.47697 9.77247 7.55543 9.80655 7.68694C9.63946 7.52835 9.49765 7.4626 9.35144 7.67534C9.41795 7.47641 9.43883 7.32059 9.19973 7.23439C9.40805 7.24046 9.53777 7.18465 9.5702 6.96804C9.60593 7.18631 9.7285 7.24875 9.91648 7.25373Z" fill="white"/>
</svg>