<?xml version="1.0" encoding="utf-8"?>
<!-- Generator: Adobe Illustrator 28.1.0, SVG Export Plug-In . SVG Version: 6.00 Build 0)  -->
<svg version="1.1" id="Calque_1" xmlns="http://www.w3.org/2000/svg" xmlns:xlink="http://www.w3.org/1999/xlink" x="0px" y="0px"
	 viewBox="0 0 30 40" style="enable-background:new 0 0 30 40;" xml:space="preserve">
<style type="text/css">
	.st0{fill:#F5F8FB;}
	.st1{fill:#FFFFFF;}
	.st2{fill:#FA5F5F;}
</style>
<rect x="7.7" y="14" class="st0" width="14.5" height="12.1"/>
<path class="st0" d="M26.5,20c0,6.4-5.1,11.5-11.5,11.5C8.6,31.5,3.5,26.4,3.5,20C3.5,13.7,8.6,8.5,15,8.5
	C21.4,8.5,26.5,13.7,26.5,20z"/>
<path class="st1" d="M7.7,14h14.5v12.1H7.7V14z"/>
<path class="st2" d="M22.3,19.5v0.9h-5.4v-0.9H22.3z"/>
<path class="st2" d="M22.3,17.7v0.9h-5.4v-0.9H22.3z"/>
<path class="st2" d="M22.3,15.8v0.9h-5.4v-0.9H22.3z"/>
<path class="st2" d="M22.3,14v0.9h-5.4V14H22.3z"/>
<path d="M16.9,14H7.7v6.5h9.2V14z"/>
<path class="st2" d="M22.2,25.2v0.9H7.7v-0.9H22.2z"/>
<path class="st2" d="M22.3,23.3v0.9H7.7v-0.9H22.3z"/>
<path class="st2" d="M22.2,21.4v0.9H7.7v-0.9H22.2z"/>
<path class="st1" d="M11.2,14.4c0.2,0,0.3,0,0.4-0.3c0.1,0.2,0.2,0.3,0.4,0.2c-0.2,0.1-0.2,0.2-0.2,0.4c-0.1,0-0.1-0.1-0.2-0.1
	c-0.1,0-0.1,0.1-0.2,0.2C11.4,14.7,11.4,14.5,11.2,14.4z"/>
<path class="st1" d="M13.4,14.5c-0.1,0-0.1,0.1-0.2,0.2c0,0.1,0,0.2,0.1,0.3c-0.2-0.2-0.3-0.2-0.5,0c0.1-0.2,0.1-0.3-0.1-0.4
	c0.1,0,0.2,0,0.2,0c0.1,0,0.1-0.1,0.1-0.2C13.1,14.4,13.2,14.5,13.4,14.5L13.4,14.5z"/>
<path class="st1" d="M15.9,14.9c0-0.1,0.1-0.2,0.1-0.3c-0.1,0-0.1-0.1-0.2-0.2c0.2,0,0.4,0,0.4-0.2c0,0.2,0.2,0.3,0.4,0.3
	c-0.2,0.1-0.3,0.2-0.2,0.4c-0.1,0-0.1-0.1-0.2-0.1C16.1,14.8,16,14.8,15.9,14.9z"/>
<path class="st1" d="M13.4,15.8c-0.1,0-0.1,0.1-0.2,0.1c0,0.1,0,0.2,0.1,0.3c-0.2-0.2-0.3-0.2-0.5,0c0.1-0.2,0.1-0.4-0.2-0.4
	c0.2,0,0.3,0,0.4-0.3C13.1,15.7,13.2,15.8,13.4,15.8z"/>
<path class="st1" d="M14.6,16c-0.1,0-0.1,0.1-0.2,0.2c0-0.1,0-0.2,0.1-0.3c-0.1,0-0.1-0.1-0.2-0.2c0.2,0,0.4,0,0.4-0.2
	c0.1,0.2,0.2,0.3,0.4,0.3c-0.1,0.1-0.1,0.1-0.2,0.2c0,0.1,0,0.2,0.1,0.3C14.7,16.1,14.7,16.1,14.6,16L14.6,16z"/>
<path class="st1" d="M16.5,15.7c-0.2,0.1-0.2,0.2-0.2,0.4c-0.1,0-0.1-0.1-0.2-0.1c-0.1,0-0.1,0.1-0.2,0.2c0-0.1,0.1-0.2,0.1-0.3
	c-0.1,0-0.1-0.1-0.2-0.2c0.2,0,0.4,0,0.4-0.2C16.2,15.7,16.3,15.7,16.5,15.7z"/>
<path class="st1" d="M13.4,18.3c-0.1,0.1-0.1,0.1-0.2,0.2c0,0.1,0,0.2,0.1,0.2c-0.2-0.1-0.3-0.1-0.4,0.1c0-0.2,0-0.4-0.2-0.5
	c0.2,0,0.3,0,0.4-0.3C13.1,18.3,13.2,18.3,13.4,18.3z"/>
<path class="st1" d="M8.6,14.6c0,0.1,0,0.2,0.1,0.3c-0.1-0.1-0.2-0.1-0.2-0.2c-0.1,0-0.1,0.1-0.2,0.2c0-0.1,0.1-0.2,0.1-0.3
	c-0.1-0.1-0.1-0.1-0.2-0.2c0.2,0,0.4,0,0.4-0.2c0,0.2,0.2,0.3,0.4,0.3C8.8,14.5,8.7,14.6,8.6,14.6z"/>
<path class="st1" d="M14.2,17c0.2,0,0.3-0.1,0.3-0.3c0,0.2,0.2,0.3,0.4,0.3c-0.1,0.1-0.1,0.1-0.2,0.2c0,0.1,0,0.2,0.1,0.2
	c-0.2-0.1-0.3-0.2-0.4,0.1c0,0,0,0,0-0.1c0-0.1,0-0.2,0.1-0.2C14.4,17.1,14.3,17.1,14.2,17z"/>
<path class="st1" d="M13.3,17.5c-0.1-0.1-0.2-0.1-0.2-0.1c-0.1,0-0.1,0.1-0.2,0.2c0.1-0.2,0.1-0.4-0.1-0.4c0.2,0,0.4,0,0.4-0.3
	c0,0.2,0.2,0.3,0.4,0.3c-0.1,0.1-0.1,0.1-0.2,0.2C13.3,17.3,13.3,17.4,13.3,17.5z"/>
<path class="st1" d="M8.2,17.4c0-0.1,0-0.1,0.1-0.2c-0.1-0.1-0.1-0.1-0.2-0.2c0.2,0,0.4,0,0.4-0.2C8.5,16.9,8.7,17,8.8,17
	c-0.1,0.1-0.1,0.1-0.2,0.2c0,0.1,0,0.2,0.1,0.3C8.5,17.3,8.4,17.2,8.2,17.4C8.3,17.5,8.3,17.4,8.2,17.4z"/>
<path class="st1" d="M13.4,19.6c-0.1,0.1-0.1,0.1-0.2,0.2c0,0.1,0,0.2,0.1,0.3c-0.2-0.2-0.3-0.2-0.5,0c0.1-0.2,0.1-0.3-0.1-0.4
	c0.2,0,0.3,0,0.4-0.3C13.1,19.5,13.2,19.7,13.4,19.6C13.4,19.6,13.4,19.6,13.4,19.6z"/>
<path class="st1" d="M16.1,19.3c0,0.2,0.2,0.3,0.4,0.3c-0.2,0.1-0.2,0.2-0.1,0.4c-0.2-0.1-0.3-0.2-0.4,0c0-0.1,0-0.2,0.1-0.2
	c-0.1-0.1-0.1-0.1-0.2-0.2C16,19.6,16.1,19.6,16.1,19.3z"/>
<path class="st1" d="M14.9,19.6c-0.1,0-0.1,0.1-0.2,0.1c0,0.1,0,0.2,0.1,0.2c-0.2-0.1-0.3-0.1-0.5,0c0-0.1,0-0.1,0.1-0.2
	c-0.1,0-0.1-0.1-0.2-0.2c0.2,0,0.4,0,0.4-0.2C14.6,19.5,14.7,19.6,14.9,19.6z"/>
<path class="st1" d="M8.8,15.8c-0.1,0-0.1,0.1-0.2,0.1c0,0.1,0,0.2,0.1,0.2c-0.2-0.1-0.3-0.1-0.4,0c0-0.1,0-0.2,0.1-0.2
	c-0.1-0.1-0.1-0.1-0.2-0.2c0.1,0,0.2,0,0.2,0c0.1,0,0.1-0.1,0.1-0.2C8.5,15.7,8.6,15.8,8.8,15.8C8.8,15.7,8.8,15.7,8.8,15.8
	L8.8,15.8z"/>
<path class="st1" d="M14.2,18.3c0.2,0.1,0.3,0,0.3-0.2c0,0.2,0.2,0.3,0.4,0.2c-0.1,0.1-0.2,0.1-0.2,0.2c0,0.1,0,0.2,0.1,0.3
	c-0.1-0.1-0.2-0.1-0.2-0.2c-0.1,0-0.1,0.1-0.2,0.2c0-0.1,0-0.2,0.1-0.3C14.4,18.4,14.3,18.4,14.2,18.3
	C14.2,18.3,14.2,18.3,14.2,18.3z"/>
<path class="st1" d="M11.3,16.1c0.1-0.2,0.1-0.3-0.1-0.4c0.2,0,0.4,0,0.4-0.3c0.1,0.2,0.2,0.3,0.4,0.3c-0.2,0.1-0.2,0.3-0.1,0.4
	C11.6,16.1,11.5,16.1,11.3,16.1z"/>
<path class="st1" d="M11.2,17c0.2,0,0.3,0,0.3-0.3c0,0.2,0.2,0.3,0.4,0.2c-0.1,0.1-0.2,0.3-0.2,0.5c-0.1,0-0.1-0.1-0.2-0.1
	c-0.1,0-0.1,0.1-0.2,0.2C11.4,17.3,11.4,17.1,11.2,17z"/>
<path class="st1" d="M8.7,18.7c-0.1-0.1-0.3-0.1-0.5,0c0-0.1,0-0.2,0.1-0.3c-0.1,0-0.1-0.1-0.2-0.2c0.2,0,0.4,0,0.4-0.2
	c0.1,0.2,0.2,0.3,0.4,0.3c-0.1,0-0.1,0.1-0.2,0.2C8.6,18.6,8.7,18.6,8.7,18.7z"/>
<path class="st1" d="M9.7,14.5c0.2,0,0.3-0.1,0.3-0.3c0,0.2,0.2,0.3,0.4,0.3c-0.2,0.1-0.3,0.2-0.1,0.4c-0.2-0.1-0.3-0.2-0.5,0
	c0-0.1,0-0.2,0.1-0.2C9.8,14.6,9.7,14.5,9.7,14.5z"/>
<path class="st1" d="M16.4,17.4c-0.2-0.1-0.3-0.1-0.5,0c0-0.1,0-0.2,0.1-0.3c-0.1,0-0.1-0.1-0.2-0.2c0.2,0,0.4,0,0.4-0.3
	c0.1,0.2,0.2,0.3,0.4,0.3C16.3,17.1,16.3,17.2,16.4,17.4z"/>
<path class="st1" d="M14.4,14.6c-0.1-0.1-0.1-0.1-0.2-0.2c0.2,0,0.4,0,0.4-0.2c0,0.2,0.2,0.3,0.4,0.2c-0.1,0.1-0.2,0.1-0.2,0.2
	c0,0.1,0,0.2,0.1,0.2c-0.2-0.1-0.3-0.2-0.4,0C14.4,14.8,14.4,14.7,14.4,14.6z"/>
<path class="st1" d="M11.2,18.3c0.2,0.1,0.3,0,0.4-0.2c0.1,0.2,0.1,0.3,0.4,0.2c-0.2,0.1-0.2,0.2-0.1,0.4c-0.2-0.1-0.3-0.2-0.4,0
	C11.4,18.6,11.3,18.4,11.2,18.3z"/>
<path class="st1" d="M9.8,16.2c0-0.1,0-0.2,0.1-0.3c-0.1-0.1-0.1-0.1-0.2-0.2c0.2,0,0.4,0,0.4-0.2c0,0.2,0.2,0.3,0.4,0.2
	c-0.1,0.1-0.2,0.1-0.2,0.2c0,0.1,0,0.2,0.1,0.3c-0.1-0.1-0.2-0.1-0.2-0.1C10,16.1,9.9,16.1,9.8,16.2z"/>
<path class="st1" d="M16,18.5c-0.1-0.1-0.1-0.1-0.2-0.2c0.2,0,0.4,0,0.4-0.2c0.1,0.2,0.2,0.3,0.4,0.2c-0.2,0.1-0.3,0.2-0.2,0.4
	c-0.1,0-0.1-0.1-0.2-0.1c-0.1,0-0.1,0.1-0.2,0.1C16,18.6,16,18.6,16,18.5z"/>
<path class="st1" d="M11.8,20c-0.2-0.2-0.3-0.1-0.4,0c0-0.1,0-0.1,0.1-0.2c-0.1,0-0.1-0.1-0.2-0.2c0.2,0,0.4,0,0.4-0.2
	c0.1,0.2,0.1,0.3,0.4,0.2C11.7,19.7,11.7,19.8,11.8,20z"/>
<path class="st1" d="M8.3,19.8c-0.1-0.1-0.1-0.1-0.2-0.2c0.2,0,0.4,0,0.4-0.3c0,0.2,0.1,0.3,0.3,0.3c-0.1,0.1-0.1,0.1-0.2,0.2
	c0,0.1,0,0.2,0.1,0.2c-0.2-0.1-0.3-0.1-0.4,0C8.3,19.9,8.3,19.9,8.3,19.8z"/>
<path class="st1" d="M10.3,17.5c-0.2-0.2-0.3-0.2-0.5,0c0-0.1,0-0.1,0.1-0.2c-0.1-0.1-0.1-0.1-0.2-0.2c0.2,0,0.4,0,0.4-0.2
	c0,0.2,0.2,0.3,0.4,0.3C10.2,17.1,10.1,17.3,10.3,17.5z"/>
<path class="st1" d="M9.8,18.7c0-0.1,0-0.2,0.1-0.2c-0.1-0.1-0.1-0.1-0.2-0.2c0.2,0,0.3-0.1,0.4-0.3c0,0.2,0.1,0.3,0.3,0.3
	c-0.1,0.1-0.1,0.1-0.2,0.2c0,0.1,0,0.2,0.1,0.3C10.1,18.6,10,18.6,9.8,18.7C9.8,18.7,9.8,18.7,9.8,18.7z"/>
<path class="st1" d="M9.6,19.6c0.2,0,0.4,0,0.4-0.2c0,0.2,0.2,0.3,0.4,0.2c-0.1,0.1-0.2,0.1-0.2,0.2c0,0.1,0,0.2,0.1,0.2
	c-0.2-0.1-0.3-0.2-0.4,0c0-0.1,0-0.2,0.1-0.2C9.8,19.7,9.7,19.7,9.6,19.6z"/>
<path class="st1" d="M13.5,17.7c0.2,0,0.3-0.1,0.4-0.3c0,0.2,0.1,0.3,0.3,0.3c-0.2,0.1-0.3,0.2-0.1,0.4c-0.2-0.1-0.3-0.2-0.5,0
	C13.7,18,13.7,17.8,13.5,17.7z"/>
<path class="st1" d="M9.4,15.6c-0.1,0-0.1-0.1-0.2-0.1c-0.1,0-0.1,0.1-0.3,0.2c0.1-0.2,0.1-0.4-0.1-0.5c0.1,0,0.1,0,0.2,0
	c0-0.1,0.1-0.1,0.1-0.3c0,0.1,0.1,0.2,0.1,0.3h0.2C9.4,15.2,9.4,15.4,9.4,15.6C9.5,15.6,9.5,15.6,9.4,15.6L9.4,15.6z"/>
<path class="st1" d="M14.1,16.9c-0.2-0.1-0.3-0.2-0.4,0c0.1-0.2,0.1-0.3-0.1-0.4c0.2,0,0.3,0,0.3-0.3c0.1,0.2,0.1,0.3,0.4,0.3
	C14,16.5,14,16.7,14.1,16.9z"/>
<path class="st1" d="M9.6,16.5c-0.2,0.1-0.2,0.2-0.1,0.4c-0.1-0.1-0.2-0.1-0.2-0.2c-0.1,0-0.1,0.1-0.2,0.1c0.1-0.2,0.1-0.3-0.1-0.4
	c0.1,0,0.1,0,0.2,0c0-0.1,0.1-0.1,0.1-0.3c0,0.1,0.1,0.2,0.1,0.3L9.6,16.5C9.6,16.4,9.6,16.4,9.6,16.5z"/>
<path class="st1" d="M13.5,19c0.2,0,0.3-0.1,0.4-0.3c0,0.1,0.1,0.1,0.1,0.2c0.1,0,0.2,0,0.3,0c-0.2,0.1-0.3,0.2-0.2,0.4
	c-0.2-0.1-0.3-0.2-0.4,0C13.7,19.3,13.7,19.1,13.5,19z"/>
<path class="st1" d="M10.8,14.9c0.1,0.2,0.2,0.3,0.4,0.2c-0.2,0.1-0.2,0.2-0.1,0.4c-0.1,0-0.1-0.1-0.2-0.1c-0.1,0-0.1,0.1-0.2,0.1
	c0-0.1,0.1-0.2,0.1-0.3c-0.1-0.1-0.1-0.1-0.2-0.2c0.1,0,0.2,0,0.3,0C10.7,15.1,10.7,15,10.8,14.9z"/>
<path class="st1" d="M9.3,17.7c0.1,0,0.2,0,0.2,0c-0.2,0.1-0.2,0.2-0.1,0.4c-0.1,0-0.1-0.1-0.2-0.1c-0.1,0-0.1,0.1-0.2,0.2
	c0-0.1,0-0.2,0.1-0.3c-0.1,0-0.1-0.1-0.2-0.2c0.1,0,0.2,0,0.3,0c0-0.1,0.1-0.1,0.1-0.3C9.3,17.5,9.3,17.6,9.3,17.7z"/>
<path class="st1" d="M12.2,17.7c0-0.1,0.1-0.1,0.1-0.3c0.1,0.2,0.1,0.3,0.4,0.3c-0.2,0.1-0.3,0.2-0.2,0.4c-0.1,0-0.1-0.1-0.2-0.1
	c-0.1,0-0.1,0.1-0.3,0.2c0.1-0.2,0.1-0.4-0.1-0.5C12.1,17.7,12.2,17.7,12.2,17.7z"/>
<path class="st1" d="M11,16.9c-0.1,0-0.1-0.1-0.2-0.1c-0.1,0-0.1,0.1-0.2,0.2c0.1-0.2,0.1-0.4-0.1-0.4c0.2,0,0.3-0.1,0.4-0.2
	c0,0.1,0.1,0.1,0.1,0.2c0.1,0,0.2,0,0.3,0C11,16.5,10.9,16.7,11,16.9L11,16.9z"/>
<path class="st1" d="M10.4,19h0.2c0-0.1,0.1-0.2,0.1-0.3c0,0.1,0.1,0.2,0.1,0.3c0.1,0,0.2,0,0.3,0c-0.2,0.1-0.3,0.2-0.2,0.4
	c-0.1,0-0.1-0.1-0.2-0.1c-0.1,0-0.1,0.1-0.2,0.2C10.6,19.3,10.6,19.1,10.4,19C10.4,19,10.4,19,10.4,19z"/>
<path class="st1" d="M12,19c0.2,0,0.3-0.1,0.4-0.2c0,0.1,0.1,0.1,0.1,0.2c0.1,0,0.2,0,0.3,0c-0.2,0.1-0.3,0.2-0.2,0.4
	c-0.1,0-0.1-0.1-0.2-0.1c-0.1,0-0.1,0.1-0.2,0.2C12.2,19.3,12.2,19.1,12,19z"/>
<path class="st1" d="M13.6,15.6c0.1-0.2,0.1-0.3-0.1-0.4c0.1,0,0.2,0,0.2,0c0-0.1,0.1-0.1,0.1-0.3c0,0.2,0.1,0.3,0.4,0.3
	c-0.2,0.1-0.2,0.2-0.1,0.4C13.9,15.4,13.8,15.4,13.6,15.6z"/>
<path class="st1" d="M15,15.1c0.2,0.1,0.3,0,0.4-0.2c0,0.1,0.1,0.1,0.1,0.2c0.1,0,0.2,0,0.2,0c-0.2,0.1-0.2,0.2-0.1,0.5
	c-0.1-0.1-0.2-0.1-0.3-0.2c-0.1,0-0.1,0.1-0.2,0.2c0-0.1,0.1-0.2,0-0.3C15.2,15.3,15.1,15.2,15,15.1z"/>
<path class="st1" d="M15.6,16.9c-0.1-0.1-0.1-0.1-0.2-0.1c-0.1,0-0.1,0.1-0.2,0.1c0.1-0.2,0-0.3-0.2-0.4c0.2,0,0.3-0.1,0.4-0.3
	c0.1,0.2,0.1,0.3,0.4,0.2C15.6,16.5,15.6,16.7,15.6,16.9z"/>
<path class="st1" d="M9.4,19.4c-0.1,0-0.1-0.1-0.2-0.1c-0.1,0-0.1,0.1-0.2,0.2c0-0.1,0-0.2,0.1-0.3C9,19.1,9,19.1,8.9,19
	c0.1,0,0.2,0,0.3,0c0-0.1,0.1-0.1,0.1-0.3c0,0.1,0.1,0.2,0.1,0.3c0.1,0,0.2,0,0.3,0C9.4,19.1,9.4,19.2,9.4,19.4
	C9.5,19.4,9.5,19.4,9.4,19.4z"/>
<path class="st1" d="M12,16.4c0.1,0,0.2,0,0.2,0c0-0.1,0.1-0.2,0.1-0.3c0,0.1,0.1,0.2,0.1,0.3c0.1,0,0.2,0,0.3,0
	c-0.2,0.1-0.3,0.2-0.2,0.4c-0.1,0-0.1-0.1-0.2-0.1c-0.1,0-0.1,0.1-0.2,0.2C12.2,16.7,12.2,16.5,12,16.4C12,16.4,12,16.4,12,16.4z"/>
<path class="st1" d="M12.7,15.1c-0.1,0.1-0.2,0.3-0.1,0.4c-0.1-0.1-0.1-0.1-0.2-0.1c-0.1,0-0.1,0.1-0.2,0.2c0.1-0.2,0.1-0.4-0.1-0.4
	c0,0,0,0,0.1,0c0.1,0,0.2,0,0.2,0c0-0.1,0.1-0.1,0.1-0.2c0,0.1,0.1,0.2,0.1,0.2C12.5,15.1,12.6,15.1,12.7,15.1z"/>
<path class="st1" d="M15.4,18.7c0,0.2,0.2,0.3,0.4,0.3c-0.2,0.1-0.3,0.2-0.2,0.4c-0.1,0-0.1-0.1-0.2-0.1c-0.1,0-0.1,0.1-0.2,0.2
	c0.1-0.2,0.1-0.4-0.1-0.4C15.2,19,15.4,19,15.4,18.7z"/>
<path class="st1" d="M11,18.1c-0.1,0-0.1-0.1-0.2-0.1c-0.1,0-0.1,0.1-0.3,0.2c0.1-0.2,0.1-0.4-0.1-0.5c0.1,0,0.1,0,0.2,0
	c0-0.1,0.1-0.1,0.1-0.3c0,0.1,0.1,0.2,0.1,0.3c0.1,0,0.2,0,0.3,0C11,17.8,10.9,17.9,11,18.1C11,18.1,11,18.1,11,18.1z"/>
<path class="st1" d="M15.7,17.7c-0.2,0.1-0.3,0.2-0.1,0.4c0,0,0,0-0.1,0c-0.1,0-0.1-0.1-0.2-0.1c-0.1,0-0.1,0.1-0.3,0.2
	c0.1-0.2,0.1-0.4-0.1-0.4c0.2,0,0.3-0.1,0.4-0.3C15.4,17.6,15.5,17.8,15.7,17.7z"/>
</svg>
