<svg width="70" height="41" viewBox="0 0 70 41" fill="none" xmlns="http://www.w3.org/2000/svg">
<path d="M57.0266 40.7586C49.8591 40.7586 44.0531 34.9199 44.0531 27.7196C44.0531 20.5194 49.8628 14.6806 57.0266 14.6806C64.1904 14.6806 70 20.5194 70 27.7196C70 34.9199 64.1904 40.7586 57.0266 40.7586Z" fill="#010101"/>
<path d="M12.9735 40.7586C5.80604 40.7586 0 34.9199 0 27.7196C0 20.5194 5.80968 14.6806 12.9735 14.6806C20.1373 14.6806 25.947 20.5194 25.947 27.7196C25.947 34.9199 20.1373 40.7586 12.9735 40.7586Z" fill="#010101"/>
<path d="M49.4842 9.05673L26.9335 25.6922V9.31882L49.4842 9.05673Z" fill="#84C7A8"/>
<path d="M30.781 4.51722L21.1565 11.6155V4.62643L30.781 4.51358V4.51722Z" fill="#84C7A8"/>
<path d="M50.791 11.5575H56.2185C58.5482 11.5575 60.4483 9.65002 60.4483 7.30577V4.25169C60.4483 1.90743 58.5518 0 56.2185 0H49.2257V2.38065H56.2185C57.245 2.38065 58.0786 3.21789 58.0786 4.24805V7.30213C58.0786 8.33229 57.245 9.16953 56.2185 9.16953H50.791V11.5502V11.5575Z" fill="#84C7A8"/>
</svg>
