<svg width="89" height="62" viewBox="0 0 89 62" fill="none" xmlns="http://www.w3.org/2000/svg">
<path d="M73.63 49.1614C70.28 46.6914 66.14 45.4114 61.94 45.6214C56.81 45.8714 52.01 48.2914 48.76 52.2514L54.29 56.8014C56.27 54.3914 59.18 52.9314 62.29 52.7714C65.38 52.6214 68.42 53.7914 70.62 55.9914L75.65 50.9414L75.67 50.9114C75.16 50.4014 74.62 49.9214 74.05 49.4814C73.91 49.3714 73.77 49.2614 73.63 49.1614Z" fill="#5F64FA"/>
<path d="M13.52 24.5314C13.05 24.6214 12.56 24.6714 12.08 24.6714C11.72 24.6714 11.37 24.6514 11.03 24.6014C7.30001 29.7614 6.57001 36.6014 9.41001 42.3114C9.51001 42.5114 9.62001 42.7114 9.73001 42.9114C11.54 46.2514 14.39 48.9514 17.82 50.5814C20.34 51.7814 23.02 52.3814 25.69 52.3814C28.19 52.3814 30.69 51.8514 33.04 50.8114C37.49 48.8514 40.9 45.2714 42.65 40.7414L35.97 38.1614C33.78 43.8314 27.38 46.6614 21.71 44.4614C18.96 43.4014 16.79 41.3314 15.6 38.6414C14.49 36.1314 14.35 33.3614 15.2 30.7714C16.68 31.1514 18.21 31.3514 19.74 31.3514C20.84 31.3514 21.94 31.2514 23.03 31.0514C28.07 30.1214 32.51 27.0914 35.21 22.7214L29.11 18.9614C27.48 21.6014 24.79 23.4514 21.73 24.0114C19.83 24.3614 17.88 24.2014 16.09 23.5714C15.31 24.0314 14.45 24.3614 13.52 24.5314Z" fill="#5F64FA"/>
<path d="M50.23 23.8414C50.17 25.1614 49.93 26.4514 49.53 27.6914L56.35 29.8814C56.94 28.0414 57.29 26.1214 57.38 24.1814C57.62 19.0914 56.09 14.1214 53.11 10.0814C54.92 8.76141 57.64 7.26141 60.82 7.17141C64.42 7.06141 68.03 8.79141 71.55 12.3114C77.33 18.0914 77.33 27.4814 71.55 33.2614L76.61 38.3214C85.18 29.7514 85.18 15.8114 76.61 7.24141C71.61 2.24141 66.2 -0.18859 60.51 0.0114101C51.62 0.33141 45.62 7.14141 45.37 7.42141L43.12 10.0114L45.61 12.3714C48.75 15.3414 50.43 19.5214 50.23 23.8314V23.8414Z" fill="#5F64FA"/>
<path d="M12.08 22.4714C12.28 22.4714 12.48 22.4614 12.68 22.4314C12.82 22.4314 12.97 22.4014 13.12 22.3714C13.26 22.3414 13.39 22.3114 13.52 22.2714H13.53C16.41 21.5314 18.26 18.6714 17.72 15.7014C17.21 12.9414 14.8 11.0114 12.09 11.0114C11.75 11.0114 11.4 11.0414 11.05 11.1014C7.93999 11.6814 5.87999 14.6614 6.44999 17.7814C6.95999 20.5414 9.36999 22.4714 12.08 22.4714Z" fill="#5F64FA"/>
<path d="M70.53 37.8813C67.99 37.1113 65.39 36.7413 62.81 36.7413C58.74 36.7413 54.72 37.6613 51.07 39.4113C47.42 41.1613 44.15 43.7413 41.58 47.0313C37.69 51.9913 31.7 54.7813 25.56 54.7813C23.61 54.7813 21.65 54.5013 19.74 53.9213C13.3 51.9713 8.27 46.9613 6.28 40.5313L0 42.4813C2.64 50.9913 9.3 57.6213 17.82 60.2113C20.36 60.9813 22.96 61.3513 25.54 61.3513C29.61 61.3513 33.63 60.4213 37.28 58.6713C40.93 56.9213 44.2 54.3513 46.77 51.0613C50.66 46.0913 56.65 43.3013 62.79 43.3013C64.74 43.3013 66.7 43.5913 68.62 44.1713C75.05 46.1213 80.08 51.1313 82.07 57.5513L88.35 55.6113C85.71 47.1013 79.05 40.4713 70.53 37.8813Z" fill="#5F64FA"/>
</svg>
