<svg width="32" height="23" viewBox="0 0 32 23" fill="none" xmlns="http://www.w3.org/2000/svg">
<path d="M31.5894 9.13036C31.2159 8.60143 30.6655 8.24881 30.0169 8.13127C29.3682 8.01373 28.7392 8.15086 28.1888 8.54266H28.1692L28.8965 4.40919C29.0144 3.78232 28.8571 3.13585 28.4837 2.60692C28.1102 2.078 27.5598 1.72538 26.9112 1.60784C26.4198 1.52948 25.948 1.58825 25.5156 1.78415C25.437 1.52948 25.319 1.27481 25.1618 1.05932C24.7883 0.530394 24.2379 0.177776 23.5893 0.060237C22.9603 -0.0573023 22.3116 0.0994168 21.7809 0.452035C21.5647 0.608754 21.3681 0.804653 21.2109 1.02014C20.8767 0.706704 20.4443 0.471626 19.9529 0.393266C19.3239 0.275727 18.6752 0.432446 18.1445 0.785064C17.6138 1.15727 17.26 1.70579 17.142 2.35226L15.9823 8.91487L14.8226 2.35226C14.7046 1.72538 14.3508 1.15727 13.8201 0.785064C13.2894 0.412856 12.6407 0.275726 12.0117 0.373675C11.5203 0.452035 11.0879 0.687114 10.7537 1.00055C10.223 0.275726 9.31882 -0.135662 8.37532 0.0406474C7.43182 0.197367 6.70454 0.902603 6.46867 1.76456C6.03623 1.56866 5.56448 1.50989 5.07307 1.58825C4.44407 1.70579 3.87404 2.05841 3.50057 2.58733C3.1271 3.11626 2.98951 3.76273 3.10745 4.3896L3.83473 8.52307H3.81507C3.28435 8.15086 2.6357 8.01373 1.98704 8.11168C1.35804 8.22922 0.788007 8.58184 0.434195 9.11077C0.0607256 9.6397 -0.0768682 10.2862 0.0410694 10.913C0.159007 11.5399 0.51282 12.108 1.04354 12.4802L5.03376 15.262L5.4662 17.7499V17.7695L6.29176 22.4515C6.33107 22.6278 6.42935 22.7845 6.56695 22.8825C6.68488 22.9608 6.80282 23 6.94042 23C6.97973 23 7.01904 23 7.05835 22.9804L15.9823 21.4132L24.9062 22.9804C24.9455 22.9804 24.9849 23 25.0242 23C25.3387 23 25.6139 22.7649 25.6728 22.4515L26.4984 17.7499L26.8719 15.6146L26.9308 15.262L30.921 12.4802C31.4518 12.108 31.8056 11.5595 31.9235 10.913C32.1004 10.3058 31.9628 9.65928 31.5894 9.13036ZM1.82979 11.4224C1.59391 11.2461 1.43666 11.011 1.37769 10.7171C1.31873 10.4233 1.39735 10.1294 1.5546 9.89436C1.73151 9.65929 1.96738 9.50257 2.26223 9.4438C2.55707 9.38503 2.85191 9.46339 3.08779 9.62011L4.40476 10.5408C4.62098 10.6976 4.91582 10.6975 5.13204 10.5604C5.36792 10.4233 5.4662 10.149 5.42688 9.89436L4.42441 4.1937C4.40476 4.11534 4.40476 4.05658 4.40476 3.97822C4.40476 3.76273 4.48338 3.54724 4.60132 3.37093C4.77823 3.13585 5.03376 2.95954 5.30895 2.92036C5.89863 2.82241 6.46867 3.21421 6.5866 3.80191L7.43182 8.56225C7.49079 8.91487 7.8446 9.16954 8.19842 9.09118C8.55223 9.03241 8.80776 8.67979 8.72914 8.32717L7.74632 2.6461C7.64804 2.05841 8.04117 1.47071 8.63085 1.37276C9.22054 1.27481 9.81023 1.66661 9.90851 2.25431L10.0658 3.13585C10.0658 3.15544 10.0658 3.17503 10.0658 3.17503L10.6751 6.64244L10.911 7.93537C10.9699 8.28799 11.3238 8.54266 11.6776 8.4643C12.0314 8.40553 12.2869 8.05291 12.2083 7.7003L12.0117 6.64244L11.3434 2.92036C11.3434 2.88118 11.3238 2.82241 11.3238 2.76364C11.3238 2.23472 11.7169 1.76456 12.2476 1.6862C12.5424 1.62743 12.8373 1.70579 13.0732 1.86251C13.309 2.03882 13.4663 2.2739 13.5253 2.56774L15.314 12.6957L14.8226 15.4187L6.68488 16.888L6.42935 15.3991L6.31142 14.7918C6.2721 14.6155 6.17382 14.4588 6.03623 14.3609L1.82979 11.4224ZM6.92076 18.1809L14.626 16.8292L13.997 20.4141C13.997 20.4337 13.997 20.4533 13.997 20.4533L7.51045 21.5895L6.92076 18.1809ZM24.5328 21.5895L15.4123 19.9832L16.0216 16.5745L25.1421 18.1809L24.5328 21.5895ZM30.6852 10.7171C30.6262 11.011 30.469 11.2657 30.2331 11.4224L26.0266 14.3609C25.889 14.4588 25.7908 14.6155 25.7515 14.7918L25.378 16.888L16.2575 15.2816L18.4983 2.58733C18.5573 2.29349 18.7145 2.03882 18.9504 1.8821C19.1863 1.70579 19.4811 1.64702 19.776 1.70579C20.3656 1.80374 20.7784 2.37184 20.6605 2.97913L19.8153 7.73948C19.7563 8.09209 19.9922 8.44471 20.346 8.50348C20.6998 8.56225 21.0536 8.32717 21.1126 7.97455L21.9578 3.21421L22.115 2.2739C22.174 1.98005 22.3313 1.72538 22.5671 1.56866C22.803 1.41194 23.0979 1.33358 23.3927 1.39235C23.6875 1.45112 23.9431 1.60784 24.1003 1.84292C24.2772 2.078 24.3362 2.37184 24.2772 2.66569L23.2748 8.36635C23.2158 8.71897 23.4517 9.07159 23.8055 9.13036C24.1593 9.18913 24.5131 8.95405 24.5721 8.60143L25.4173 3.84109C25.5156 3.25339 26.0856 2.842 26.695 2.95954C26.9898 3.01831 27.2453 3.17503 27.4026 3.41011C27.5795 3.66478 27.6385 3.93904 27.5795 4.23288L26.577 9.93354C26.5377 10.1882 26.6556 10.4625 26.8719 10.5996C27.1077 10.7367 27.3829 10.7367 27.5991 10.58L28.9161 9.65928C29.152 9.48298 29.4468 9.42421 29.7417 9.48297C30.0365 9.54174 30.2724 9.69846 30.4493 9.93354C30.6655 10.1294 30.7245 10.4233 30.6852 10.7171Z" fill="white"/>
</svg>
