<svg width="25" height="25" viewBox="0 0 25 25" fill="none" xmlns="http://www.w3.org/2000/svg">
<path d="M24.1002 12.572C24.1002 12.9817 24.0855 13.3767 24.0416 13.757C23.9392 14.7811 23.6905 15.7759 23.3394 16.6976C23.1054 17.312 22.8128 17.8972 22.4909 18.4678C21.9935 19.3017 21.4083 20.0624 20.7207 20.7354C19.5942 21.8618 18.2191 22.7542 16.7122 23.3394C16.1709 23.5442 15.615 23.7198 15.0444 23.8368C14.2398 24.0124 13.4059 24.1002 12.5574 24.1002C11.665 24.1002 10.7872 23.9978 9.9387 23.8076C9.41203 23.6905 8.89999 23.5296 8.40259 23.3394C5.93018 22.3885 3.85278 20.6037 2.55074 18.3215C2.25815 17.8094 1.99481 17.2681 1.77537 16.6976C1.40963 15.7467 1.16093 14.7226 1.05852 13.6692C1.02926 13.3035 1 12.9231 1 12.5574C1 11.0944 1.27796 9.68999 1.77537 8.38796C2.27278 7.10055 2.98963 5.91555 3.89666 4.90611C4.05759 4.73055 4.21852 4.555 4.37944 4.37944C5.40352 3.35537 6.61777 2.52148 7.9637 1.95093C8.10999 1.89241 8.25629 1.81926 8.40259 1.77537C9.68999 1.27796 11.0944 1 12.5574 1C14.0204 1 15.4248 1.27796 16.7122 1.77537C16.8585 1.83389 17.0048 1.89241 17.1511 1.95093C18.497 2.53611 19.7113 3.35537 20.7354 4.37944C20.9255 4.56963 21.1011 4.75981 21.2767 4.96463C22.1544 5.97407 22.8566 7.12981 23.3541 8.40259C23.8368 9.71925 24.1002 11.1237 24.1002 12.572Z" stroke="white" stroke-width="1.2" stroke-miterlimit="10" stroke-linejoin="round"/>
<path d="M12.5429 7.715L7.91992 11.0798L9.69011 16.5074H15.3957L17.1658 11.0798L12.5429 7.715Z" stroke="white" stroke-width="1.2" stroke-miterlimit="10" stroke-linejoin="round"/>
<path d="M17.1366 1.98016L17.1658 2.06794L12.5429 5.41812L7.91992 2.06794L7.94918 1.98016" stroke="white" stroke-width="1.2" stroke-miterlimit="10" stroke-linejoin="round"/>
<path d="M24.1002 12.572C24.1002 12.9816 24.0856 13.3766 24.0417 13.757L19.4333 10.4068L21.2035 4.97925H21.2621C22.1398 5.98869 22.842 7.14443 23.3395 8.41721C23.8369 9.71924 24.1002 11.1237 24.1002 12.572Z" stroke="white" stroke-width="1.2" stroke-miterlimit="10" stroke-linejoin="round"/>
<path d="M3.88185 4.92075L5.68129 10.3337L1.08759 13.7278L1.0437 13.6985" stroke="white" stroke-width="1.2" stroke-miterlimit="10" stroke-linejoin="round"/>
<path d="M22.4908 18.4824C21.9934 19.3163 21.4082 20.077 20.7206 20.75C19.5941 21.8765 18.219 22.7689 16.7121 23.3541C16.1708 23.5589 15.6149 23.7344 15.0443 23.8515L14.9712 23.7929L16.756 18.3654L22.4762 18.38L22.4908 18.4824Z" stroke="white" stroke-width="1.2" stroke-miterlimit="10" stroke-linejoin="round"/>
<path d="M2.53613 18.3507L8.22705 18.3654L9.98261 23.793L9.92409 23.8368" stroke="white" stroke-width="1.2" stroke-miterlimit="10" stroke-linejoin="round"/>
</svg>
