<svg width="55" height="55" viewBox="0 0 55 55" fill="none" xmlns="http://www.w3.org/2000/svg">
<path d="M46.6314 8.0251C41.6777 3.07133 34.8415 0 27.3118 0C19.749 0 12.9128 3.07133 7.99207 8.0251C3.03831 12.9789 0 19.8151 0 27.3448C0 42.4373 12.2523 54.6896 27.3448 54.6896C34.9075 54.6896 41.7107 51.6182 46.6645 46.6975C51.6182 41.7437 54.6565 34.9075 54.6565 27.3778C54.6235 19.782 51.5522 12.9458 46.6314 8.0251ZM39.3989 31.8032L28.2034 42.107C27.9392 42.3712 27.609 42.4703 27.2787 42.4703C26.9485 42.4703 26.6182 42.3712 26.354 42.107L15.1255 31.7701C13.0119 29.9868 11.79 27.3118 11.79 24.5046C11.79 19.2206 16.0832 14.9273 21.3672 14.9273C23.5469 14.9273 25.5945 15.6539 27.2787 16.9749C28.963 15.6539 31.0106 14.9273 33.1902 14.9273C38.4742 14.9273 42.7675 19.2206 42.7675 24.5046C42.7675 27.3448 41.5456 29.9868 39.3989 31.8032Z" fill="#F7EF24"/>
<path d="M38.7463 31.0786L38.7339 31.0893L38.7218 31.1004L27.5263 41.4042L27.5111 41.4183L27.4964 41.4329C27.4707 41.4586 27.4469 41.4726 27.4202 41.4824C27.3904 41.4934 27.3448 41.5033 27.2788 41.5033C27.2128 41.5033 27.1672 41.4934 27.1374 41.4824C27.1108 41.4726 27.0869 41.4586 27.0612 41.4329L27.0466 41.4183L27.0314 41.4043L15.8029 31.0675L15.787 31.0528L15.7704 31.0389C13.8877 29.4504 12.79 27.0577 12.79 24.5377C12.79 19.8059 16.6356 15.9604 21.3673 15.9604C23.3192 15.9604 25.1503 16.6094 26.6617 17.7948L27.2788 18.2788L27.896 17.7948C29.4073 16.6094 31.2384 15.9604 33.1903 15.9604C37.922 15.9604 41.7676 19.8059 41.7676 24.5377C41.7676 27.0497 40.6756 29.4165 38.7463 31.0786Z" fill="#F7EF24" stroke="#17853C" stroke-width="2"/>
</svg>
