<svg width="28" height="21" viewBox="0 0 28 21" fill="none" xmlns="http://www.w3.org/2000/svg">
<path d="M28 20.4363L28 14.8922L28 6.12405L28 0.579994C28 0.255879 27.742 -1.12769e-08 27.4152 -2.5561e-08L0.584768 -1.19836e-06C0.257986 -1.21264e-06 -3.87046e-07 0.255878 -4.01213e-07 0.579992L-6.43552e-07 6.12405L-1.02607e-06 14.8751L-1.26841e-06 20.4192C-1.28258e-06 20.7433 0.257986 20.9992 0.584767 20.9992L27.4152 20.9992C27.742 21.0163 28 20.7604 28 20.4363ZM26.8477 14.3122L23.0467 14.3122L23.0467 6.70405L26.8477 6.70405L26.8477 14.3122ZM26.8477 5.56112L22.4619 5.56112C22.1351 5.56112 21.8771 5.817 21.8771 6.14111L21.8771 14.8922C21.8771 15.2163 22.1351 15.4722 22.4619 15.4722L26.8477 15.4722L26.8477 19.8733L14.5848 19.8733L14.5848 14.2951C16.4423 14.0222 17.8526 12.4358 17.8526 10.5252C17.8526 8.61462 16.4251 7.02816 14.5848 6.75522L14.5848 1.15999L26.8477 1.15999L26.8477 5.56112ZM14.0172 13.1863C12.5381 13.1863 11.317 11.9922 11.317 10.5081C11.317 9.04108 12.5209 7.82992 14.0172 7.82992C15.4963 7.82992 16.7174 9.02402 16.7174 10.5081C16.7002 11.9752 15.4963 13.1863 14.0172 13.1863ZM1.16953 6.70405L4.97052 6.70405L4.97052 14.3122L1.16953 14.3122L1.16953 6.70405ZM1.16953 15.4551L5.55528 15.4551C5.88206 15.4551 6.14005 15.1993 6.14005 14.8751L6.14005 6.12405C6.14005 5.79994 5.88206 5.54406 5.55528 5.54406L1.16953 5.54406L1.16953 1.15999L13.4324 1.15999L13.4324 6.73816C11.5749 7.0111 10.1646 8.59756 10.1646 10.5081C10.1646 12.4187 11.5921 14.0051 13.4324 14.2781L13.4324 19.8563L1.16953 19.8563L1.16953 15.4551Z" fill="white"/>
</svg>
