<svg xmlns="http://www.w3.org/2000/svg" width="94" height="46" viewBox="0 0 94 46" fill="none">
  <path d="M0.524658 0.5V42.7193H93.5991V0.5H0.524658ZM89.7487 40.2181H4.3823V2.69726H89.7487V40.2181Z" fill="#6E454C"/>
  <path opacity="0.12" d="M94 42.9515L87.7728 45.5H1V3.5H4.94527V42.9515H94Z" fill="black"/>
  <path d="M89.7485 2.69763L88.196 3.89704H4.38281V2.69763H89.7485Z" fill="#603D44"/>
  <path d="M89.7485 2.69763V40.218H88.196V3.89704L89.7485 2.69763Z" fill="#54363D"/>
  <path d="M4.38281 33.5809L33.8116 40.2181H4.38281V33.5809Z" fill="#5A344B"/>
  <path d="M4.38281 3.89697L88.196 35.4661V40.218H33.8116L4.38281 33.5808V3.89697Z" fill="#4B284A"/>
  <path d="M4.38281 3.89697L88.196 35.4661V3.89697H4.38281Z" fill="#684F5F"/>
  <path d="M31.7619 11.5144C32.6351 11.5144 33.5083 11.5165 34.3815 11.5133C34.6954 11.5122 34.9952 11.5244 35.2474 11.7592C35.6992 12.1798 35.9158 12.4942 35.3497 13.1008C34.6288 13.8736 33.9187 14.3324 32.818 14.1968C32.0134 14.0976 31.1662 14.0633 30.3744 14.2041C29.0024 14.4482 28.4356 13.4243 27.6725 12.695C27.3923 12.4271 27.6424 12.1332 27.8401 11.9789C28.186 11.7089 28.5589 11.4794 29.058 11.5015C29.9576 11.5408 30.8607 11.5126 31.7619 11.5144Z" fill="#F08461"/>
  <path d="M56.6945 11.7268C57.5677 11.7268 58.4409 11.7289 59.3141 11.7257C59.628 11.7246 59.9278 11.7368 60.18 11.9716C60.6318 12.3922 60.8484 12.7066 60.2823 13.3132C59.5615 14.086 58.8513 14.5448 57.7506 14.4092C56.946 14.31 56.0988 14.2757 55.307 14.4165C53.935 14.6606 53.3682 13.6367 52.6052 12.9074C52.325 12.6395 52.5751 12.3456 52.7727 12.1913C53.1186 11.9213 53.4916 11.6918 53.9906 11.7139C54.8903 11.7532 55.7933 11.725 56.6945 11.7268Z" fill="#F08461"/>
  <path d="M71.6945 11.7268C72.5677 11.7268 73.4409 11.7289 74.3141 11.7257C74.628 11.7246 74.9278 11.7368 75.18 11.9716C75.6318 12.3922 75.8484 12.7066 75.2823 13.3132C74.5615 14.086 73.8513 14.5448 72.7506 14.4092C71.946 14.31 71.0988 14.2757 70.307 14.4165C68.935 14.6606 68.3682 13.6367 67.6052 12.9074C67.325 12.6395 67.5751 12.3456 67.7727 12.1913C68.1186 11.9213 68.4916 11.6918 68.9906 11.7139C69.8903 11.7532 70.7933 11.725 71.6945 11.7268Z" fill="#F08461"/>
  <path d="M26.1212 16.9171C26.1212 16.1587 26.1208 15.4003 26.1215 14.6422C26.1215 14.4736 26.1228 14.305 26.1292 14.1367C26.15 13.5799 26.5758 13.2821 26.9662 13.048C27.3462 12.8201 27.4933 13.3351 27.7609 13.4918C28.6799 14.03 28.8792 14.8524 28.8117 15.8607C28.7387 16.951 28.7385 18.055 28.8197 19.1443C28.8915 20.1086 28.2146 20.48 27.6052 20.8911C27.2359 21.1402 26.1714 20.2068 26.1511 19.6125C26.1206 18.7148 26.1431 17.8154 26.1431 16.9167C26.1358 16.9167 26.1285 16.9167 26.1212 16.9167V16.9171Z" fill="#F08461"/>
  <path d="M51.0539 17.1295C51.0539 16.3711 51.0534 15.6127 51.0541 14.8546C51.0541 14.686 51.0555 14.5175 51.0618 14.3491C51.0826 13.7923 51.5085 13.4945 51.8988 13.2604C52.2788 13.0325 52.4259 13.5475 52.6935 13.7042C53.6125 14.2424 53.8118 15.0648 53.7443 16.0731C53.6714 17.1634 53.6711 18.2674 53.7523 19.3567C53.8241 20.321 53.1472 20.6924 52.5378 21.1035C52.1685 21.3526 51.104 20.4192 51.0837 19.8249C51.0532 18.9272 51.0757 18.0278 51.0757 17.1291C51.0685 17.1291 51.0612 17.1291 51.0539 17.1291V17.1295Z" fill="#F08461"/>
  <path d="M66.0539 17.1295C66.0539 16.3711 66.0534 15.6127 66.0541 14.8546C66.0541 14.686 66.0555 14.5175 66.0618 14.3491C66.0826 13.7923 66.5085 13.4945 66.8988 13.2604C67.2788 13.0325 67.4259 13.5475 67.6935 13.7042C68.6125 14.2424 68.8118 15.0648 68.7443 16.0731C68.6714 17.1634 68.6711 18.2674 68.7523 19.3567C68.8241 20.321 68.1472 20.6924 67.5378 21.1035C67.1685 21.3526 66.104 20.4192 66.0837 19.8249C66.0532 18.9272 66.0757 18.0278 66.0757 17.1291C66.0685 17.1291 66.0612 17.1291 66.0539 17.1291V17.1295Z" fill="#F08461"/>
  <path d="M26.118 26.0609C26.118 25.4426 26.2051 24.8087 26.0982 24.2095C25.9238 23.2323 26.5231 22.6822 27.0767 22.0767C27.2331 21.9059 27.4928 21.8417 27.602 21.981C28.0607 22.5656 28.8939 22.8824 28.8098 23.8649C28.7287 24.8134 28.7166 25.7829 28.8178 26.7279C28.9441 27.9069 28.583 28.7931 27.6077 29.4464C27.3678 29.607 27.156 30.0424 26.8801 29.8563C26.5484 29.6325 26.1002 29.4157 26.1239 28.8427C26.1622 27.9169 26.1342 26.9883 26.1342 26.0609H26.1178H26.118Z" fill="#F08461"/>
  <path d="M51.0506 26.2733C51.0506 25.655 51.1377 25.0211 51.0308 24.4219C50.8564 23.4447 51.4557 22.8947 52.0093 22.2891C52.1657 22.1183 52.4254 22.0541 52.5346 22.1934C52.9933 22.778 53.8266 23.0948 53.7424 24.0773C53.6613 25.0258 53.6492 25.9953 53.7504 26.9403C53.8767 28.1193 53.5156 29.0055 52.5403 29.6588C52.3004 29.8194 52.0886 30.2548 51.8128 30.0687C51.481 29.8449 51.0328 29.6281 51.0565 29.0551C51.0948 28.1293 51.0668 27.2007 51.0668 26.2733H51.0504H51.0506Z" fill="#F08461"/>
  <path d="M66.0506 26.2733C66.0506 25.655 66.1377 25.0211 66.0308 24.4219C65.8564 23.4447 66.4557 22.8947 67.0093 22.2891C67.1657 22.1183 67.4254 22.0541 67.5346 22.1934C67.9933 22.778 68.8266 23.0948 68.7424 24.0773C68.6613 25.0258 68.6492 25.9953 68.7504 26.9403C68.8767 28.1193 68.5156 29.0055 67.5403 29.6588C67.3004 29.8194 67.0886 30.2548 66.8128 30.0687C66.481 29.8449 66.0328 29.6281 66.0565 29.0551C66.0948 28.1293 66.0668 27.2007 66.0668 26.2733H66.0504H66.0506Z" fill="#F08461"/>
  <path d="M37.1703 26.0947C37.1703 26.9088 37.1277 27.7261 37.1845 28.5364C37.2264 29.1351 36.8578 29.4551 36.526 29.8282C36.4469 29.9174 36.3694 29.9717 36.2404 29.9449C35.771 29.8471 34.7318 28.5034 34.7297 27.9588C34.7252 26.6672 34.8159 25.3688 34.7076 24.0865C34.6294 23.1596 35.0772 22.5909 35.6367 22.0165C35.7477 21.9026 35.9219 21.7333 36.0669 21.8991C36.5089 22.4051 37.2349 22.7076 37.1897 23.5686C37.1457 24.4084 37.1801 25.2526 37.1801 26.0947H37.1703Z" fill="#F08461"/>
  <path d="M62.1029 26.3071C62.1029 27.1212 62.0603 27.9385 62.1171 28.7488C62.159 29.3475 61.7904 29.6675 61.4587 30.0406C61.3795 30.1298 61.302 30.1841 61.173 30.1573C60.7036 30.0595 59.6644 28.7158 59.6624 28.1712C59.6578 26.8796 59.7485 25.5812 59.6402 24.2989C59.562 23.372 60.0098 22.8033 60.5693 22.2289C60.6803 22.115 60.8545 21.9457 60.9995 22.1116C61.4416 22.6175 62.1675 22.92 62.1223 23.781C62.0783 24.6208 62.1128 25.465 62.1128 26.3071H62.1029Z" fill="#F08461"/>
  <path d="M77.1029 26.3071C77.1029 27.1212 77.0603 27.9385 77.1171 28.7488C77.159 29.3475 76.7904 29.6675 76.4587 30.0406C76.3795 30.1298 76.302 30.1841 76.173 30.1573C75.7036 30.0595 74.6644 28.7158 74.6624 28.1712C74.6578 26.8796 74.7485 25.5812 74.6402 24.2989C74.562 23.372 75.0098 22.8033 75.5693 22.2289C75.6803 22.115 75.8545 21.9457 75.9995 22.1116C76.4416 22.6175 77.1675 22.92 77.1223 23.781C77.0783 24.6208 77.1128 25.465 77.1128 26.3071H77.1029Z" fill="#F08461"/>
  <path d="M37.1794 16.8256C37.1794 17.6404 37.1539 18.4564 37.1892 19.2698C37.2095 19.7346 37.0818 20.1135 36.7196 20.374C36.4198 20.5894 36.2394 21.2013 35.8357 20.9861C35.3688 20.737 34.8118 20.3133 34.7869 19.7455C34.7135 18.0631 34.6873 16.3714 34.7869 14.6917C34.8346 13.891 35.6337 13.3865 36.2634 13.0862C36.6261 12.9131 37.1553 13.5316 37.1708 14.1285C37.194 15.027 37.1771 15.9267 37.1794 16.8256Z" fill="#F08461"/>
  <path d="M62.1123 17.038C62.1123 17.8528 62.0867 18.6688 62.1221 19.4822C62.1424 19.947 62.0147 20.3259 61.6524 20.5864C61.3526 20.8018 61.1723 21.4137 60.7685 21.1985C60.3016 20.9494 59.7447 20.5257 59.7198 19.9579C59.6464 18.2755 59.6202 16.5838 59.7198 14.9041C59.7674 14.1034 60.5665 13.5989 61.1962 13.2986C61.559 13.1255 62.0881 13.744 62.1036 14.3409C62.1269 15.2394 62.11 16.1391 62.1123 17.038Z" fill="#F08461"/>
  <path d="M77.1123 17.038C77.1123 17.8528 77.0867 18.6688 77.1221 19.4822C77.1424 19.947 77.0147 20.3259 76.6524 20.5864C76.3526 20.8018 76.1723 21.4137 75.7685 21.1985C75.3016 20.9494 74.7447 20.5257 74.7198 19.9579C74.6464 18.2755 74.6202 16.5838 74.7198 14.9041C74.7674 14.1034 75.5665 13.5989 76.1962 13.2986C76.559 13.1255 77.0881 13.744 77.1036 14.3409C77.1269 15.2394 77.11 16.1391 77.1123 17.038Z" fill="#F08461"/>
  <path d="M31.6509 31.3295C30.7503 31.3295 29.8493 31.3142 28.9492 31.337C28.5883 31.3461 28.3054 31.2596 28.0273 31.0235C27.6023 30.6625 27.5531 30.4175 27.983 29.9548C28.7197 29.1623 29.5017 28.7183 30.624 28.8627C31.344 28.9553 32.0907 28.9339 32.8161 28.8666C33.8092 28.7745 34.627 28.9674 35.2161 29.8459C35.3974 30.1159 35.7715 30.3033 35.6087 30.6875C35.4327 31.1036 35.0889 31.3211 34.6063 31.3147C33.6211 31.3013 32.636 31.3106 31.6507 31.3106C31.6507 31.317 31.6507 31.3233 31.6507 31.3297L31.6509 31.3295Z" fill="#F08461"/>
  <path d="M56.5837 31.5419C55.6832 31.5419 54.7822 31.5266 53.8821 31.5494C53.5212 31.5585 53.2383 31.472 52.9601 31.2359C52.5352 30.8749 52.4859 30.6299 52.9159 30.1672C53.6525 29.3747 54.4345 28.9307 55.5569 29.0751C56.2769 29.1677 57.0235 29.1463 57.749 29.079C58.7421 28.9869 59.5599 29.1798 60.149 30.0583C60.3302 30.3283 60.7044 30.5157 60.5416 30.8999C60.3656 31.316 60.0218 31.5335 59.5391 31.5271C58.554 31.5137 57.5689 31.523 56.5835 31.523C56.5835 31.5294 56.5835 31.5357 56.5835 31.5421L56.5837 31.5419Z" fill="#F08461"/>
  <path d="M71.5837 31.5419C70.6832 31.5419 69.7822 31.5266 68.8821 31.5494C68.5212 31.5585 68.2383 31.472 67.9601 31.2359C67.5352 30.8749 67.4859 30.6299 67.9159 30.1672C68.6525 29.3747 69.4345 28.9307 70.5569 29.0751C71.2769 29.1677 72.0235 29.1463 72.749 29.079C73.7421 28.9869 74.5599 29.1798 75.149 30.0583C75.3302 30.3283 75.7044 30.5157 75.5416 30.8999C75.3656 31.316 75.0218 31.5335 74.5391 31.5271C73.554 31.5137 72.5689 31.523 71.5835 31.523C71.5835 31.5294 71.5835 31.5357 71.5835 31.5421L71.5837 31.5419Z" fill="#F08461"/>
  <path d="M17.0025 27.142C17.0025 26.2217 17.0025 25.3011 17.0025 24.3809C17.0025 24.0647 16.9595 23.7318 17.2336 23.4947C17.6679 23.119 17.9313 22.3543 18.6101 22.5241C18.995 22.6206 19.2645 23.1632 19.597 23.4942C19.9369 23.8327 19.7923 24.2418 19.8553 24.629C20.0964 26.1116 19.9525 27.5852 19.9981 29.06C20.0139 29.57 18.5463 31.5114 18.0764 31.4998C17.35 31.4821 17.0634 30.9383 17.0188 30.2829C16.9825 29.746 17.0124 29.2048 17.0127 28.6653C17.0127 28.1575 17.0127 27.6498 17.0127 27.142H17.0025Z" fill="#F08461"/>
  <path d="M17.0025 16.142C17.0025 15.2217 17.0025 14.3011 17.0025 13.3809C17.0025 13.0647 16.9595 12.7318 17.2336 12.4947C17.6679 12.119 17.9313 11.3543 18.6101 11.5241C18.995 11.6206 19.2645 12.1632 19.597 12.4942C19.9369 12.8327 19.7923 13.2418 19.8553 13.629C20.0964 15.1116 19.9525 16.5852 19.9981 18.06C20.0139 18.57 18.5463 20.5114 18.0764 20.4998C17.35 20.4821 17.0634 19.9383 17.0188 19.2829C16.9825 18.746 17.0124 18.2048 17.0127 17.6653C17.0127 17.1575 17.0127 16.6498 17.0127 16.142H17.0025Z" fill="#F08461"/>
  <rect x="41.8999" y="16.0652" width="3.59993" height="3.59993" fill="#F08461"/>
  <rect x="42" y="24.7124" width="3.59993" height="3.59993" fill="#F08461"/>
</svg>