<svg width="94" height="46" viewBox="0 0 94 46" fill="none" xmlns="http://www.w3.org/2000/svg">
<path d="M0 0.5V42.7193H93.0744V0.5H0ZM89.224 40.2181H3.85765V2.69726H89.224V40.2181Z" fill="#6E454C"/>
<path opacity="0.12" d="M93.4753 42.9515L87.2481 45.5H0.475342V3.5H4.42061V42.9515H93.4753Z" fill="black"/>
<path d="M89.2238 2.69763L87.6713 3.89704H3.85815V2.69763H89.2238Z" fill="#603D44"/>
<path d="M89.2239 2.69763V40.218H87.6714V3.89704L89.2239 2.69763Z" fill="#54363D"/>
<path d="M3.85815 33.5809L33.2869 40.2181H3.85815V33.5809Z" fill="#5A344B"/>
<path d="M3.85815 3.89697L87.6713 35.4661V40.218H33.2869L3.85815 33.5808V3.89697Z" fill="#4B284A"/>
<path d="M3.85815 3.89697L87.6713 35.4661V3.89697H3.85815Z" fill="#684F5F"/>
<path d="M56.1699 11.7268C57.0431 11.7268 57.9163 11.7289 58.7894 11.7257C59.1034 11.7246 59.4032 11.7368 59.6553 11.9716C60.1072 12.3922 60.3238 12.7066 59.7577 13.3132C59.0368 14.086 58.3266 14.5448 57.2259 14.4092C56.4213 14.31 55.5742 14.2757 54.7824 14.4165C53.4103 14.6606 52.8436 13.6367 52.0805 12.9074C51.8003 12.6395 52.0504 12.3456 52.2481 12.1913C52.5939 11.9213 52.9669 11.6918 53.466 11.7139C54.3656 11.7532 55.2686 11.725 56.1699 11.7268Z" fill="#F08461"/>
<path d="M71.1699 11.7268C72.0431 11.7268 72.9163 11.7289 73.7894 11.7257C74.1034 11.7246 74.4032 11.7368 74.6553 11.9716C75.1072 12.3922 75.3238 12.7066 74.7577 13.3132C74.0368 14.086 73.3266 14.5448 72.2259 14.4092C71.4213 14.31 70.5742 14.2757 69.7824 14.4165C68.4103 14.6606 67.8436 13.6367 67.0805 12.9074C66.8003 12.6395 67.0504 12.3456 67.2481 12.1913C67.5939 11.9213 67.9669 11.6918 68.466 11.7139C69.3656 11.7532 70.2686 11.725 71.1699 11.7268Z" fill="#F08461"/>
<path d="M50.5294 17.1295C50.5294 16.3711 50.529 15.6127 50.5297 14.8546C50.5297 14.686 50.531 14.5175 50.5374 14.3491C50.5582 13.7923 50.984 13.4945 51.3744 13.2604C51.7544 13.0325 51.9015 13.5475 52.1691 13.7042C53.0881 14.2424 53.2874 15.0648 53.2199 16.0731C53.1469 17.1634 53.1467 18.2674 53.2279 19.3567C53.2997 20.321 52.6228 20.6924 52.0134 21.1035C51.6441 21.3526 50.5796 20.4192 50.5593 19.8249C50.5288 18.9272 50.5513 18.0278 50.5513 17.1291C50.544 17.1291 50.5367 17.1291 50.5294 17.1291V17.1295Z" fill="#F08461"/>
<path d="M65.5294 17.1295C65.5294 16.3711 65.529 15.6127 65.5297 14.8546C65.5297 14.686 65.531 14.5175 65.5374 14.3491C65.5582 13.7923 65.984 13.4945 66.3744 13.2604C66.7544 13.0325 66.9015 13.5475 67.1691 13.7042C68.0881 14.2424 68.2874 15.0648 68.2199 16.0731C68.1469 17.1634 68.1467 18.2674 68.2279 19.3567C68.2997 20.321 67.6228 20.6924 67.0134 21.1035C66.6441 21.3526 65.5796 20.4192 65.5593 19.8249C65.5288 18.9272 65.5513 18.0278 65.5513 17.1291C65.544 17.1291 65.5367 17.1291 65.5294 17.1291V17.1295Z" fill="#F08461"/>
<path d="M50.526 26.2733C50.526 25.655 50.613 25.0211 50.5061 24.4219C50.3317 23.4447 50.9311 22.8947 51.4846 22.2891C51.641 22.1183 51.9007 22.0541 52.0099 22.1934C52.4686 22.778 53.3019 23.0948 53.2178 24.0773C53.1366 25.0258 53.1245 25.9953 53.2258 26.9403C53.3521 28.1193 52.9909 29.0055 52.0156 29.6588C51.7758 29.8194 51.564 30.2548 51.2881 30.0687C50.9564 29.8449 50.5082 29.6281 50.5319 29.0551C50.5702 28.1293 50.5421 27.2007 50.5421 26.2733H50.5257H50.526Z" fill="#F08461"/>
<path d="M65.526 26.2733C65.526 25.655 65.613 25.0211 65.5061 24.4219C65.3317 23.4447 65.9311 22.8947 66.4846 22.2891C66.641 22.1183 66.9007 22.0541 67.0099 22.1934C67.4686 22.778 68.3019 23.0948 68.2178 24.0773C68.1366 25.0258 68.1245 25.9953 68.2258 26.9403C68.3521 28.1193 67.9909 29.0055 67.0156 29.6588C66.7758 29.8194 66.564 30.2548 66.2881 30.0687C65.9564 29.8449 65.5082 29.6281 65.5319 29.0551C65.5702 28.1293 65.5421 27.2007 65.5421 26.2733H65.5257H65.526Z" fill="#F08461"/>
<path d="M61.5783 26.3071C61.5783 27.1212 61.5357 27.9385 61.5924 28.7488C61.6344 29.3475 61.2657 29.6675 60.934 30.0406C60.8549 30.1298 60.7774 30.1841 60.6483 30.1573C60.1789 30.0595 59.1398 28.7158 59.1377 28.1712C59.1331 26.8796 59.2239 25.5812 59.1156 24.2989C59.0374 23.372 59.4851 22.8033 60.0446 22.2289C60.1557 22.115 60.3298 21.9457 60.4748 22.1116C60.9169 22.6175 61.6428 22.92 61.5977 23.781C61.5537 24.6208 61.5881 25.465 61.5881 26.3071H61.5783Z" fill="#F08461"/>
<path d="M76.5783 26.3071C76.5783 27.1212 76.5357 27.9385 76.5924 28.7488C76.6344 29.3475 76.2657 29.6675 75.934 30.0406C75.8549 30.1298 75.7774 30.1841 75.6483 30.1573C75.1789 30.0595 74.1398 28.7158 74.1377 28.1712C74.1331 26.8796 74.2239 25.5812 74.1156 24.2989C74.0374 23.372 74.4851 22.8033 75.0446 22.2289C75.1557 22.115 75.3298 21.9457 75.4748 22.1116C75.9169 22.6175 76.6428 22.92 76.5977 23.781C76.5537 24.6208 76.5881 25.465 76.5881 26.3071H76.5783Z" fill="#F08461"/>
<path d="M61.5876 17.038C61.5876 17.8528 61.5621 18.6688 61.5974 19.4822C61.6177 19.947 61.49 20.3259 61.1278 20.5864C60.828 20.8018 60.6476 21.4137 60.2439 21.1985C59.777 20.9494 59.22 20.5257 59.1951 19.9579C59.1217 18.2755 59.0955 16.5838 59.1951 14.9041C59.2428 14.1034 60.0419 13.5989 60.6716 13.2986C61.0343 13.1255 61.5635 13.744 61.579 14.3409C61.6022 15.2394 61.5853 16.1391 61.5876 17.038Z" fill="#F08461"/>
<path d="M76.5876 17.038C76.5876 17.8528 76.5621 18.6688 76.5974 19.4822C76.6177 19.947 76.49 20.3259 76.1278 20.5864C75.828 20.8018 75.6476 21.4137 75.2439 21.1985C74.777 20.9494 74.22 20.5257 74.1951 19.9579C74.1217 18.2755 74.0955 16.5838 74.1951 14.9041C74.2428 14.1034 75.0419 13.5989 75.6716 13.2986C76.0343 13.1255 76.5635 13.744 76.579 14.3409C76.6022 15.2394 76.5853 16.1391 76.5876 17.038Z" fill="#F08461"/>
<path d="M56.0591 31.5419C55.1585 31.5419 54.2575 31.5266 53.3574 31.5494C52.9965 31.5585 52.7136 31.472 52.4355 31.2359C52.0105 30.8749 51.9613 30.6299 52.3912 30.1672C53.1279 29.3747 53.9099 28.9307 55.0322 29.0751C55.7522 29.1677 56.4989 29.1463 57.2243 29.079C58.2174 28.9869 59.0352 29.1798 59.6243 30.0583C59.8056 30.3283 60.1797 30.5157 60.0169 30.8999C59.8409 31.316 59.4971 31.5335 59.0145 31.5271C58.0293 31.5137 57.0442 31.523 56.0589 31.523C56.0589 31.5294 56.0589 31.5357 56.0589 31.5421L56.0591 31.5419Z" fill="#F08461"/>
<path d="M71.0591 31.5419C70.1585 31.5419 69.2575 31.5266 68.3574 31.5494C67.9965 31.5585 67.7136 31.472 67.4355 31.2359C67.0105 30.8749 66.9613 30.6299 67.3912 30.1672C68.1279 29.3747 68.9099 28.9307 70.0322 29.0751C70.7522 29.1677 71.4989 29.1463 72.2243 29.079C73.2174 28.9869 74.0352 29.1798 74.6243 30.0583C74.8056 30.3283 75.1797 30.5157 75.0169 30.8999C74.8409 31.316 74.4971 31.5335 74.0145 31.5271C73.0293 31.5137 72.0442 31.523 71.0589 31.523C71.0589 31.5294 71.0589 31.5357 71.0589 31.5421L71.0591 31.5419Z" fill="#F08461"/>
<path d="M16.4778 27.142C16.4778 26.2217 16.4778 25.3011 16.4778 24.3809C16.4778 24.0647 16.4348 23.7318 16.7089 23.4947C17.1433 23.119 17.4066 22.3543 18.0854 22.5241C18.4704 22.6206 18.7399 23.1632 19.0723 23.4942C19.4122 23.8327 19.2676 24.2418 19.3306 24.629C19.5717 26.1116 19.4279 27.5852 19.4734 29.06C19.4893 29.57 18.0217 31.5114 17.5518 31.4998C16.8254 31.4821 16.5387 30.9383 16.4942 30.2829C16.4578 29.746 16.4878 29.2048 16.488 28.6653C16.488 28.1575 16.488 27.6498 16.488 27.142H16.4778Z" fill="#F08461"/>
<path d="M16.4778 16.142C16.4778 15.2217 16.4778 14.3011 16.4778 13.3809C16.4778 13.0647 16.4348 12.7318 16.7089 12.4947C17.1433 12.119 17.4066 11.3543 18.0854 11.5241C18.4704 11.6206 18.7399 12.1632 19.0723 12.4942C19.4122 12.8327 19.2676 13.2418 19.3306 13.629C19.5717 15.1116 19.4279 16.5852 19.4734 18.06C19.4893 18.57 18.0217 20.5114 17.5518 20.4998C16.8254 20.4821 16.5387 19.9383 16.4942 19.2829C16.4578 18.746 16.4878 18.2048 16.488 17.6653C16.488 17.1575 16.488 16.6498 16.488 16.142H16.4778Z" fill="#F08461"/>
<rect x="41.3752" y="16.0652" width="3.59993" height="3.59993" fill="#F08461"/>
<rect x="41.4753" y="24.7124" width="3.59993" height="3.59993" fill="#F08461"/>
<path d="M29.679 14.1739C29.2016 14.1739 28.8215 14.1102 28.4714 14.1852C27.1356 14.4712 26.3937 13.6211 25.6291 12.7829C25.4768 12.6157 25.3803 12.4282 25.5506 12.2681C25.9065 11.9332 26.1963 11.4908 26.7865 11.5001C27.9132 11.5177 29.0404 11.5088 30.1673 11.5099C30.8999 11.5106 31.6333 11.5318 32.3647 11.5022C32.9349 11.4792 33.2773 11.8334 33.5114 12.2299C33.7672 12.6625 33.2773 12.8984 33.0808 13.2189C32.2024 14.6509 30.7877 14.0417 29.679 14.1743V14.1739Z" fill="#F08461"/>
<path d="M35.0426 16.837C35.0426 17.5947 35.0337 18.3524 35.046 19.1099C35.0531 19.5378 35.0184 19.899 34.6573 20.2373C34.3481 20.5268 34.1193 21.1683 33.7018 20.9718C33.1939 20.7325 32.6034 20.3244 32.5954 19.6051C32.5774 18.006 32.5829 16.4064 32.5943 14.807C32.5965 14.5027 33.8963 12.931 34.1142 12.9952C34.6594 13.1553 35.012 13.5548 35.028 14.1439C35.0522 15.0411 35.0344 15.9394 35.0344 16.8372C35.0371 16.8372 35.0399 16.8372 35.0428 16.8372L35.0426 16.837Z" fill="#F08461"/>
<path d="M24.0022 26.0038C24.0022 25.1881 24.0022 24.3722 24.0022 23.5564C24.0022 23.2762 23.9639 22.9812 24.2081 22.771C24.5949 22.4379 24.8295 21.7601 25.4342 21.9107C25.7771 21.9962 26.0171 22.4771 26.3133 22.7705C26.616 23.0706 26.4872 23.4331 26.5433 23.7764C26.7581 25.0905 26.6299 26.3967 26.6705 27.704C26.6847 28.1559 25.3774 29.8768 24.9588 29.8666C24.3118 29.8509 24.0564 29.3688 24.0168 28.7879C23.9844 28.312 24.0111 27.8323 24.0113 27.3541C24.0113 26.9039 24.0113 26.454 24.0113 26.0038H24.0022Z" fill="#F08461"/>
<path d="M29.5173 31.3022C28.6147 31.3022 27.7119 31.2858 26.81 31.309C26.3449 31.321 25.9911 31.1582 25.6999 30.8147C25.5884 30.6832 25.4904 30.5558 25.541 30.3641C25.6464 29.9639 27.0232 28.8791 27.4673 28.8784C28.8774 28.8762 30.2875 28.8816 31.6976 28.8953C32.123 28.8994 33.6334 30.0363 33.5903 30.3891C33.5176 30.9826 33.0823 31.2935 32.4786 31.301C31.4917 31.3131 30.5045 31.304 29.5173 31.3022Z" fill="#F08461"/>
<path d="M29.5858 20.551C30.3475 20.551 31.1158 20.6126 31.8688 20.5328C32.5551 20.46 32.9121 20.8535 33.2636 21.286C33.5395 21.6251 32.9752 22.479 32.3674 22.495C30.5638 22.5423 28.7557 22.558 26.9546 22.4747C26.4268 22.4504 25.7659 21.9938 25.8577 21.4136C25.9457 20.8588 26.5203 20.4971 27.2168 20.5305C28.0047 20.5683 28.796 20.5392 29.5858 20.5392C29.5858 20.543 29.5858 20.5469 29.5858 20.551Z" fill="#F08461"/>
</svg>
