<svg width="94" height="46" viewBox="0 0 94 46" fill="none" xmlns="http://www.w3.org/2000/svg">
<path d="M0 0.5V42.7193H93.0744V0.5H0ZM89.224 40.2181H3.85765V2.69726H89.224V40.2181Z" fill="#6E454C"/>
<path opacity="0.12" d="M93.4753 42.9515L87.2481 45.5H0.475342V3.5H4.42061V42.9515H93.4753Z" fill="black"/>
<path d="M89.2238 2.69763L87.6713 3.89704H3.85815V2.69763H89.2238Z" fill="#603D44"/>
<path d="M89.2239 2.69763V40.218H87.6714V3.89704L89.2239 2.69763Z" fill="#54363D"/>
<path d="M3.85815 33.5809L33.2869 40.2181H3.85815V33.5809Z" fill="#5A344B"/>
<path d="M3.85815 3.89697L87.6713 35.4661V40.218H33.2869L3.85815 33.5808V3.89697Z" fill="#4B284A"/>
<path d="M3.85815 3.89697L87.6713 35.4661V3.89697H3.85815Z" fill="#684F5F"/>
<path d="M56.1699 11.7268C57.0431 11.7268 57.9163 11.7289 58.7894 11.7257C59.1034 11.7246 59.4032 11.7368 59.6553 11.9716C60.1072 12.3922 60.3238 12.7066 59.7577 13.3132C59.0368 14.086 58.3266 14.5448 57.2259 14.4092C56.4213 14.31 55.5742 14.2757 54.7824 14.4165C53.4103 14.6606 52.8436 13.6367 52.0805 12.9074C51.8003 12.6395 52.0504 12.3456 52.2481 12.1913C52.5939 11.9213 52.9669 11.6918 53.466 11.7139C54.3656 11.7532 55.2686 11.725 56.1699 11.7268Z" fill="#F08461"/>
<path d="M71.1699 11.7268C72.0431 11.7268 72.9163 11.7289 73.7894 11.7257C74.1034 11.7246 74.4032 11.7368 74.6553 11.9716C75.1072 12.3922 75.3238 12.7066 74.7577 13.3132C74.0368 14.086 73.3266 14.5448 72.2259 14.4092C71.4213 14.31 70.5742 14.2757 69.7824 14.4165C68.4103 14.6606 67.8436 13.6367 67.0805 12.9074C66.8003 12.6395 67.0504 12.3456 67.2481 12.1913C67.5939 11.9213 67.9669 11.6918 68.466 11.7139C69.3656 11.7532 70.2686 11.725 71.1699 11.7268Z" fill="#F08461"/>
<path d="M50.5294 17.1295C50.5294 16.3711 50.529 15.6127 50.5297 14.8546C50.5297 14.686 50.531 14.5175 50.5374 14.3491C50.5582 13.7923 50.984 13.4945 51.3744 13.2604C51.7544 13.0325 51.9015 13.5475 52.1691 13.7042C53.0881 14.2424 53.2874 15.0648 53.2199 16.0731C53.1469 17.1634 53.1467 18.2674 53.2279 19.3567C53.2997 20.321 52.6228 20.6924 52.0134 21.1035C51.6441 21.3526 50.5796 20.4192 50.5593 19.8249C50.5288 18.9272 50.5513 18.0278 50.5513 17.1291C50.544 17.1291 50.5367 17.1291 50.5294 17.1291V17.1295Z" fill="#F08461"/>
<path d="M65.5294 17.1295C65.5294 16.3711 65.529 15.6127 65.5297 14.8546C65.5297 14.686 65.531 14.5175 65.5374 14.3491C65.5582 13.7923 65.984 13.4945 66.3744 13.2604C66.7544 13.0325 66.9015 13.5475 67.1691 13.7042C68.0881 14.2424 68.2874 15.0648 68.2199 16.0731C68.1469 17.1634 68.1467 18.2674 68.2279 19.3567C68.2997 20.321 67.6228 20.6924 67.0134 21.1035C66.6441 21.3526 65.5796 20.4192 65.5593 19.8249C65.5288 18.9272 65.5513 18.0278 65.5513 17.1291C65.544 17.1291 65.5367 17.1291 65.5294 17.1291V17.1295Z" fill="#F08461"/>
<path d="M50.526 26.2733C50.526 25.655 50.613 25.0211 50.5061 24.4219C50.3317 23.4447 50.9311 22.8947 51.4846 22.2891C51.641 22.1183 51.9007 22.0541 52.0099 22.1934C52.4686 22.778 53.3019 23.0948 53.2178 24.0773C53.1366 25.0258 53.1245 25.9953 53.2258 26.9403C53.3521 28.1193 52.9909 29.0055 52.0156 29.6588C51.7758 29.8194 51.564 30.2548 51.2881 30.0687C50.9564 29.8449 50.5082 29.6281 50.5319 29.0551C50.5702 28.1293 50.5421 27.2007 50.5421 26.2733H50.5257H50.526Z" fill="#F08461"/>
<path d="M65.526 26.2733C65.526 25.655 65.613 25.0211 65.5061 24.4219C65.3317 23.4447 65.9311 22.8947 66.4846 22.2891C66.641 22.1183 66.9007 22.0541 67.0099 22.1934C67.4686 22.778 68.3019 23.0948 68.2178 24.0773C68.1366 25.0258 68.1245 25.9953 68.2258 26.9403C68.3521 28.1193 67.9909 29.0055 67.0156 29.6588C66.7758 29.8194 66.564 30.2548 66.2881 30.0687C65.9564 29.8449 65.5082 29.6281 65.5319 29.0551C65.5702 28.1293 65.5421 27.2007 65.5421 26.2733H65.5257H65.526Z" fill="#F08461"/>
<path d="M61.5783 26.3071C61.5783 27.1212 61.5357 27.9385 61.5924 28.7488C61.6344 29.3475 61.2657 29.6675 60.934 30.0406C60.8549 30.1298 60.7774 30.1841 60.6483 30.1573C60.1789 30.0595 59.1398 28.7158 59.1377 28.1712C59.1331 26.8796 59.2239 25.5812 59.1156 24.2989C59.0374 23.372 59.4851 22.8033 60.0446 22.2289C60.1557 22.115 60.3298 21.9457 60.4748 22.1116C60.9169 22.6175 61.6428 22.92 61.5977 23.781C61.5537 24.6208 61.5881 25.465 61.5881 26.3071H61.5783Z" fill="#F08461"/>
<path d="M76.5783 26.3071C76.5783 27.1212 76.5357 27.9385 76.5924 28.7488C76.6344 29.3475 76.2657 29.6675 75.934 30.0406C75.8549 30.1298 75.7774 30.1841 75.6483 30.1573C75.1789 30.0595 74.1398 28.7158 74.1377 28.1712C74.1331 26.8796 74.2239 25.5812 74.1156 24.2989C74.0374 23.372 74.4851 22.8033 75.0446 22.2289C75.1557 22.115 75.3298 21.9457 75.4748 22.1116C75.9169 22.6175 76.6428 22.92 76.5977 23.781C76.5537 24.6208 76.5881 25.465 76.5881 26.3071H76.5783Z" fill="#F08461"/>
<path d="M61.5876 17.038C61.5876 17.8528 61.5621 18.6688 61.5974 19.4822C61.6177 19.947 61.49 20.3259 61.1278 20.5864C60.828 20.8018 60.6476 21.4137 60.2439 21.1985C59.777 20.9494 59.22 20.5257 59.1951 19.9579C59.1217 18.2755 59.0955 16.5838 59.1951 14.9041C59.2428 14.1034 60.0419 13.5989 60.6716 13.2986C61.0343 13.1255 61.5635 13.744 61.579 14.3409C61.6022 15.2394 61.5853 16.1391 61.5876 17.038Z" fill="#F08461"/>
<path d="M76.5876 17.038C76.5876 17.8528 76.5621 18.6688 76.5974 19.4822C76.6177 19.947 76.49 20.3259 76.1278 20.5864C75.828 20.8018 75.6476 21.4137 75.2439 21.1985C74.777 20.9494 74.22 20.5257 74.1951 19.9579C74.1217 18.2755 74.0955 16.5838 74.1951 14.9041C74.2428 14.1034 75.0419 13.5989 75.6716 13.2986C76.0343 13.1255 76.5635 13.744 76.579 14.3409C76.6022 15.2394 76.5853 16.1391 76.5876 17.038Z" fill="#F08461"/>
<path d="M56.0591 31.5419C55.1585 31.5419 54.2575 31.5266 53.3574 31.5494C52.9965 31.5585 52.7136 31.472 52.4355 31.2359C52.0105 30.8749 51.9613 30.6299 52.3912 30.1672C53.1279 29.3747 53.9099 28.9307 55.0322 29.0751C55.7522 29.1677 56.4989 29.1463 57.2243 29.079C58.2174 28.9869 59.0352 29.1798 59.6243 30.0583C59.8056 30.3283 60.1797 30.5157 60.0169 30.8999C59.8409 31.316 59.4971 31.5335 59.0145 31.5271C58.0293 31.5137 57.0442 31.523 56.0589 31.523C56.0589 31.5294 56.0589 31.5357 56.0589 31.5421L56.0591 31.5419Z" fill="#F08461"/>
<path d="M71.0591 31.5419C70.1585 31.5419 69.2575 31.5266 68.3574 31.5494C67.9965 31.5585 67.7136 31.472 67.4355 31.2359C67.0105 30.8749 66.9613 30.6299 67.3912 30.1672C68.1279 29.3747 68.9099 28.9307 70.0322 29.0751C70.7522 29.1677 71.4989 29.1463 72.2243 29.079C73.2174 28.9869 74.0352 29.1798 74.6243 30.0583C74.8056 30.3283 75.1797 30.5157 75.0169 30.8999C74.8409 31.316 74.4971 31.5335 74.0145 31.5271C73.0293 31.5137 72.0442 31.523 71.0589 31.523C71.0589 31.5294 71.0589 31.5357 71.0589 31.5421L71.0591 31.5419Z" fill="#F08461"/>
<path d="M16.0025 27.1421C16.0025 26.2218 16.0025 25.3013 16.0025 24.381C16.0025 24.0648 15.9595 23.732 16.2336 23.4948C16.6679 23.1191 16.9313 22.3544 17.6101 22.5243C17.995 22.6208 18.2645 23.1633 18.597 23.4943C18.9369 23.8328 18.7923 24.2419 18.8553 24.6292C19.0964 26.1117 18.9525 27.5853 18.9981 29.0601C19.0139 29.5701 17.5463 31.5115 17.0764 31.4999C16.35 31.4822 16.0634 30.9384 16.0188 30.283C15.9825 29.7461 16.0124 29.2049 16.0127 28.6655C16.0127 28.1576 16.0127 27.65 16.0127 27.1421H16.0025Z" fill="#F08461"/>
<path d="M16.0025 16.1421C16.0025 15.2218 16.0025 14.3013 16.0025 13.381C16.0025 13.0648 15.9595 12.732 16.2336 12.4948C16.6679 12.1191 16.8212 11.8301 17.5 12C17.8849 12.0965 18.2645 12.1633 18.597 12.4943C18.9369 12.8328 18.7923 13.2419 18.8553 13.6292C19.0964 15.1117 18.9525 16.5853 18.9981 18.0601C19.0139 18.5701 17.5463 20.5115 17.0764 20.4999C16.35 20.4822 16.0634 19.9384 16.0188 19.283C15.9825 18.7461 16.0124 18.2049 16.0127 17.6654C16.0127 17.1576 16.0127 16.65 16.0127 16.1421H16.0025Z" fill="#F08461"/>
<rect x="41.3752" y="16.0652" width="3.59993" height="3.59993" fill="#F08461"/>
<rect x="41.4753" y="24.7124" width="3.59993" height="3.59993" fill="#F08461"/>
<path d="M29.2275 14.6739C29.6925 14.6739 30.0626 14.6102 30.4036 14.6852C31.7045 14.9712 32.427 14.1211 33.1717 13.2829C33.32 13.1157 33.414 12.9282 33.2481 12.7681C32.9015 12.4333 32.6193 11.9908 32.0445 12.0001C30.9472 12.0177 29.8494 12.0088 28.7519 12.0099C28.0385 12.0106 27.3243 12.0318 26.612 12.0022C26.0567 11.9792 25.7232 12.3334 25.4951 12.7299C25.246 13.1625 25.7232 13.3984 25.9146 13.7189C26.7701 15.1509 28.1478 14.5417 29.2275 14.6743V14.6739Z" fill="#F08461"/>
<path d="M24.004 17.3369C24.004 18.0946 24.0127 18.8523 24.0007 19.6098C23.9938 20.0377 24.0276 20.3989 24.3793 20.7371C24.6803 21.0267 24.9033 21.6682 25.3098 21.4717C25.8045 21.2324 26.3796 20.8243 26.3873 20.105C26.4049 18.5059 26.3995 16.9063 26.3884 15.3069C26.3862 15.0025 25.1204 13.4309 24.9081 13.4951C24.3773 13.6552 24.0338 14.0547 24.0182 14.6438C23.9947 15.541 24.012 16.4393 24.012 17.3371C24.0094 17.3371 24.0067 17.3371 24.0038 17.3371L24.004 17.3369Z" fill="#F08461"/>
<path d="M34.7559 26.5041C34.7559 25.6883 34.7559 24.8724 34.7559 24.0567C34.7559 23.7764 34.7932 23.4814 34.5554 23.2712C34.1786 22.9382 33.9502 22.2603 33.3613 22.4109C33.0274 22.4964 32.7936 22.9773 32.5052 23.2708C32.2103 23.5708 32.3358 23.9334 32.2811 24.2766C32.072 25.5908 32.1968 26.8969 32.1572 28.2042C32.1435 28.6562 33.4166 30.377 33.8243 30.3668C34.4544 30.3511 34.7031 29.8691 34.7417 29.2881C34.7732 28.8122 34.7473 28.3325 34.747 27.8544C34.747 27.4042 34.747 26.9542 34.747 26.5041H34.7559Z" fill="#F08461"/>
<path d="M29.3849 31.8024C30.264 31.8024 31.1432 31.786 32.0216 31.8092C32.4745 31.8213 32.8191 31.6584 33.1027 31.3149C33.2112 31.1834 33.3067 31.0561 33.2574 30.8643C33.1548 30.4642 31.814 29.3794 31.3815 29.3787C30.0082 29.3764 28.6349 29.3819 27.2616 29.3955C26.8473 29.3996 25.3763 30.5365 25.4183 30.8893C25.4891 31.4828 25.913 31.7938 26.5009 31.8013C27.4621 31.8133 28.4235 31.8045 29.3849 31.8026V31.8024Z" fill="#F08461"/>
<path d="M29.3182 21.0513C28.5764 21.0513 27.8281 21.113 27.0947 21.0332C26.4264 20.9604 26.0787 21.3539 25.7363 21.7863C25.4677 22.1255 26.0172 22.9794 26.6092 22.9953C28.3657 23.0427 30.1266 23.0583 31.8807 22.9751C32.3947 22.9507 33.0384 22.4942 32.9489 21.9139C32.8632 21.3591 32.3036 20.9974 31.6253 21.0309C30.858 21.0686 30.0873 21.0395 29.3182 21.0395C29.3182 21.0434 29.3182 21.0473 29.3182 21.0513Z" fill="#F08461"/>
</svg>
