<svg width="94" height="46" viewBox="0 0 94 46" fill="none" xmlns="http://www.w3.org/2000/svg">
<path d="M0.524658 0.5V42.7193H93.5991V0.5H0.524658ZM89.7487 40.2181H4.3823V2.69726H89.7487V40.2181Z" fill="#6E454C"/>
<path opacity="0.12" d="M94 42.9515L87.7728 45.5H1V3.5H4.94527V42.9515H94Z" fill="black"/>
<path d="M89.7485 2.69763L88.196 3.89704H4.38281V2.69763H89.7485Z" fill="#603D44"/>
<path d="M89.7485 2.69763V40.218H88.196V3.89704L89.7485 2.69763Z" fill="#54363D"/>
<path d="M4.38281 33.5809L33.8116 40.2181H4.38281V33.5809Z" fill="#5A344B"/>
<path d="M4.38281 3.89697L88.196 35.4661V40.218H33.8116L4.38281 33.5808V3.89697Z" fill="#4B284A"/>
<path d="M4.38281 3.89697L88.196 35.4661V3.89697H4.38281Z" fill="#684F5F"/>
<path d="M33.7617 12.302C34.6349 12.302 35.508 12.3041 36.3812 12.3009C36.6952 12.2998 36.995 12.312 37.2471 12.5468C37.699 12.9674 37.9156 13.2818 37.3495 13.8884C36.6286 14.6612 35.9184 15.12 34.8177 14.9844C34.0131 14.8852 33.1659 14.8509 32.3742 14.9917C31.0021 15.2358 30.4354 14.2119 29.6723 13.4826C29.3921 13.2147 29.6422 12.9208 29.8399 12.7665C30.1857 12.4965 30.5587 12.267 31.0578 12.2891C31.9574 12.3284 32.86 12.3002 33.7612 12.302H33.7617Z" fill="#F08461"/>
<path d="M58.6945 12.302C59.5677 12.302 60.4409 12.3041 61.3141 12.3009C61.628 12.2998 61.9278 12.312 62.18 12.5468C62.6318 12.9674 62.8484 13.2818 62.2823 13.8884C61.5615 14.6612 60.8513 15.12 59.7506 14.9844C58.946 14.8852 58.0988 14.8509 57.307 14.9917C55.935 15.2358 55.3682 14.2119 54.6052 13.4826C54.325 13.2147 54.5751 12.9208 54.7727 12.7665C55.1186 12.4965 55.4916 12.267 55.9906 12.2891C56.8903 12.3284 57.7929 12.3002 58.6941 12.302H58.6945Z" fill="#F08461"/>
<path d="M73.6945 12.302C74.5677 12.302 75.4409 12.3041 76.3141 12.3009C76.628 12.2998 76.9278 12.312 77.18 12.5468C77.6318 12.9674 77.8484 13.2818 77.2823 13.8884C76.5615 14.6612 75.8513 15.12 74.7506 14.9844C73.946 14.8852 73.0988 14.8509 72.307 14.9917C70.935 15.2358 70.3682 14.2119 69.6052 13.4826C69.325 13.2147 69.5751 12.9208 69.7727 12.7665C70.1186 12.4965 70.4916 12.267 70.9906 12.2891C71.8903 12.3284 72.7929 12.3002 73.6941 12.302H73.6945Z" fill="#F08461"/>
<path d="M28.1212 17.7047C28.1212 16.9463 28.1208 16.1879 28.1215 15.4298C28.1215 15.2612 28.1228 15.0926 28.1292 14.9243C28.15 14.3675 28.5758 14.0697 28.9662 13.8356C29.3462 13.6077 29.4933 14.1227 29.7609 14.2794C30.6799 14.8176 30.8792 15.6399 30.8117 16.6483C30.7387 17.7386 30.7385 18.8425 30.8197 19.9319C30.8915 20.8962 30.2146 21.2676 29.6052 21.6787C29.2359 21.9278 28.1714 20.9944 28.1511 20.4001C28.1206 19.5024 28.1431 18.603 28.1431 17.7043C28.1358 17.7043 28.1285 17.7043 28.1212 17.7043V17.7047Z" fill="#F08461"/>
<path d="M53.0541 17.7047C53.0541 16.9463 53.0536 16.1879 53.0543 15.4298C53.0543 15.2612 53.0557 15.0926 53.0621 14.9243C53.0828 14.3675 53.5087 14.0697 53.899 13.8356C54.2791 13.6077 54.4261 14.1227 54.6938 14.2794C55.6128 14.8176 55.812 15.6399 55.7446 16.6483C55.6716 17.7386 55.6714 18.8425 55.7525 19.9319C55.8244 20.8962 55.1475 21.2676 54.5381 21.6787C54.1687 21.9278 53.1043 20.9944 53.084 20.4001C53.0534 19.5024 53.076 18.603 53.076 17.7043C53.0687 17.7043 53.0614 17.7043 53.0541 17.7043V17.7047Z" fill="#F08461"/>
<path d="M68.0541 17.7047C68.0541 16.9463 68.0536 16.1879 68.0543 15.4298C68.0543 15.2612 68.0557 15.0926 68.0621 14.9243C68.0828 14.3675 68.5087 14.0697 68.899 13.8356C69.2791 13.6077 69.4261 14.1227 69.6938 14.2794C70.6128 14.8176 70.812 15.6399 70.7446 16.6483C70.6716 17.7386 70.6714 18.8425 70.7525 19.9319C70.8244 20.8962 70.1475 21.2676 69.5381 21.6787C69.1687 21.9278 68.1043 20.9944 68.084 20.4001C68.0534 19.5024 68.076 18.603 68.076 17.7043C68.0687 17.7043 68.0614 17.7043 68.0541 17.7043V17.7047Z" fill="#F08461"/>
<path d="M28.1178 26.8485C28.1178 26.2302 28.2048 25.5963 28.0979 24.9971C27.9235 24.0199 28.5229 23.4698 29.0764 22.8643C29.2328 22.6935 29.4925 22.6293 29.6017 22.7685C30.0604 23.3532 30.8937 23.67 30.8096 24.6525C30.7284 25.601 30.7163 26.5705 30.8176 27.5155C30.9439 28.6945 30.5827 29.5807 29.6074 30.234C29.3676 30.3946 29.1558 30.83 28.8799 30.6439C28.5482 30.4201 28.1 30.2033 28.1237 29.6303C28.162 28.7045 28.1339 27.7759 28.1339 26.8485H28.1175H28.1178Z" fill="#F08461"/>
<path d="M53.0506 26.8485C53.0506 26.2302 53.1377 25.5963 53.0308 24.9971C52.8564 24.0199 53.4557 23.4698 54.0093 22.8643C54.1657 22.6935 54.4254 22.6293 54.5346 22.7685C54.9933 23.3532 55.8266 23.67 55.7424 24.6525C55.6613 25.601 55.6492 26.5705 55.7504 27.5155C55.8767 28.6945 55.5156 29.5807 54.5403 30.234C54.3004 30.3946 54.0886 30.83 53.8128 30.6439C53.481 30.4201 53.0328 30.2033 53.0565 29.6303C53.0948 28.7045 53.0668 27.7759 53.0668 26.8485H53.0504H53.0506Z" fill="#F08461"/>
<path d="M68.0506 26.8485C68.0506 26.2302 68.1377 25.5963 68.0308 24.9971C67.8564 24.0199 68.4557 23.4698 69.0093 22.8643C69.1657 22.6935 69.4254 22.6293 69.5346 22.7685C69.9933 23.3532 70.8266 23.67 70.7424 24.6525C70.6613 25.601 70.6492 26.5705 70.7504 27.5155C70.8767 28.6945 70.5156 29.5807 69.5403 30.234C69.3004 30.3946 69.0886 30.83 68.8128 30.6439C68.481 30.4201 68.0328 30.2033 68.0565 29.6303C68.0948 28.7045 68.0668 27.7759 68.0668 26.8485H68.0504H68.0506Z" fill="#F08461"/>
<path d="M39.1701 26.8823C39.1701 27.6964 39.1275 28.5137 39.1842 29.324C39.2262 29.9227 38.8575 30.2427 38.5258 30.6158C38.4467 30.705 38.3692 30.7593 38.2401 30.7325C37.7707 30.6347 36.7315 29.291 36.7295 28.7464C36.7249 27.4548 36.8157 26.1564 36.7074 24.8741C36.6292 23.9472 37.0769 23.3785 37.6364 22.8041C37.7475 22.6902 37.9216 22.5209 38.0666 22.6867C38.5087 23.1926 39.2346 23.4952 39.1895 24.3562C39.1455 25.196 39.1799 26.0402 39.1799 26.8823H39.1701Z" fill="#F08461"/>
<path d="M64.1029 26.8823C64.1029 27.6964 64.0603 28.5137 64.1171 29.324C64.159 29.9227 63.7904 30.2427 63.4587 30.6158C63.3795 30.705 63.302 30.7593 63.173 30.7325C62.7036 30.6347 61.6644 29.291 61.6624 28.7464C61.6578 27.4548 61.7485 26.1564 61.6402 24.8741C61.562 23.9472 62.0098 23.3785 62.5693 22.8041C62.6803 22.6902 62.8545 22.5209 62.9995 22.6867C63.4416 23.1926 64.1675 23.4952 64.1223 24.3562C64.0783 25.196 64.1128 26.0402 64.1128 26.8823H64.1029Z" fill="#F08461"/>
<path d="M79.1029 26.8823C79.1029 27.6964 79.0603 28.5137 79.1171 29.324C79.159 29.9227 78.7904 30.2427 78.4587 30.6158C78.3795 30.705 78.302 30.7593 78.173 30.7325C77.7036 30.6347 76.6644 29.291 76.6624 28.7464C76.6578 27.4548 76.7485 26.1564 76.6402 24.8741C76.562 23.9472 77.0098 23.3785 77.5693 22.8041C77.6803 22.6902 77.8545 22.5209 77.9995 22.6867C78.4416 23.1926 79.1675 23.4952 79.1223 24.3562C79.0783 25.196 79.1128 26.0402 79.1128 26.8823H79.1029Z" fill="#F08461"/>
<path d="M39.1794 17.6135C39.1794 18.4283 39.1539 19.2442 39.1892 20.0577C39.2095 20.5224 39.0818 20.9014 38.7196 21.1618C38.4198 21.3772 38.2394 21.9891 37.8357 21.774C37.3688 21.5249 36.8118 21.1011 36.7869 20.5333C36.7135 18.8509 36.6873 17.1592 36.7869 15.4795C36.8346 14.6788 37.6337 14.1743 38.2634 13.874C38.6261 13.7009 39.1553 14.3194 39.1708 14.9163C39.194 15.8148 39.1771 16.7145 39.1794 17.6135Z" fill="#F08461"/>
<path d="M64.1123 17.6135C64.1123 18.4283 64.0867 19.2442 64.1221 20.0577C64.1424 20.5224 64.0147 20.9014 63.6524 21.1618C63.3526 21.3772 63.1723 21.9891 62.7685 21.774C62.3016 21.5249 61.7447 21.1011 61.7198 20.5333C61.6464 18.8509 61.6202 17.1592 61.7198 15.4795C61.7674 14.6788 62.5665 14.1743 63.1962 13.874C63.559 13.7009 64.0881 14.3194 64.1036 14.9163C64.1269 15.8148 64.11 16.7145 64.1123 17.6135Z" fill="#F08461"/>
<path d="M79.1123 17.6135C79.1123 18.4283 79.0867 19.2442 79.1221 20.0577C79.1424 20.5224 79.0147 20.9014 78.6524 21.1618C78.3526 21.3772 78.1723 21.9891 77.7685 21.774C77.3016 21.5249 76.7447 21.1011 76.7198 20.5333C76.6464 18.8509 76.6202 17.1592 76.7198 15.4795C76.7674 14.6788 77.5665 14.1743 78.1962 13.874C78.559 13.7009 79.0881 14.3194 79.1036 14.9163C79.1269 15.8148 79.11 16.7145 79.1123 17.6135Z" fill="#F08461"/>
<path d="M33.6509 32.1171C32.7503 32.1171 31.8493 32.1018 30.9492 32.1246C30.5883 32.1337 30.3054 32.0472 30.0273 31.8111C29.6023 31.4501 29.5531 31.2051 29.983 30.7424C30.7197 29.9499 31.5017 29.5059 32.624 29.6503C33.344 29.7429 34.0907 29.7215 34.8161 29.6542C35.8092 29.5621 36.627 29.755 37.2161 30.6335C37.3974 30.9035 37.7715 31.0909 37.6087 31.4751C37.4327 31.8912 37.0889 32.1086 36.6063 32.1023C35.6211 32.0889 34.636 32.0982 33.6507 32.0982C33.6507 32.1046 33.6507 32.1109 33.6507 32.1173L33.6509 32.1171Z" fill="#F08461"/>
<path d="M58.5837 32.1171C57.6832 32.1171 56.7822 32.1018 55.8821 32.1246C55.5212 32.1337 55.2383 32.0472 54.9601 31.8111C54.5352 31.4501 54.4859 31.2051 54.9159 30.7424C55.6525 29.9499 56.4345 29.5059 57.5569 29.6503C58.2769 29.7429 59.0235 29.7215 59.749 29.6542C60.7421 29.5621 61.5599 29.755 62.149 30.6335C62.3302 30.9035 62.7044 31.0909 62.5416 31.4751C62.3656 31.8912 62.0218 32.1086 61.5391 32.1023C60.554 32.0889 59.5689 32.0982 58.5835 32.0982C58.5835 32.1046 58.5835 32.1109 58.5835 32.1173L58.5837 32.1171Z" fill="#F08461"/>
<path d="M73.5837 32.1171C72.6832 32.1171 71.7822 32.1018 70.8821 32.1246C70.5212 32.1337 70.2383 32.0472 69.9601 31.8111C69.5352 31.4501 69.4859 31.2051 69.9159 30.7424C70.6525 29.9499 71.4345 29.5059 72.5569 29.6503C73.2769 29.7429 74.0235 29.7215 74.749 29.6542C75.7421 29.5621 76.5599 29.755 77.149 30.6335C77.3302 30.9035 77.7044 31.0909 77.5416 31.4751C77.3656 31.8912 77.0218 32.1086 76.5391 32.1023C75.554 32.0889 74.5689 32.0982 73.5835 32.0982C73.5835 32.1046 73.5835 32.1109 73.5835 32.1173L73.5837 32.1171Z" fill="#F08461"/>
<path d="M18.6265 14.8514C18.1491 14.8514 17.7691 14.7877 17.4189 14.8627C16.0831 15.1487 15.3412 14.2986 14.5766 13.4604C14.4243 13.2932 14.3278 13.1057 14.4981 12.9456C14.854 12.6107 15.1438 12.1683 15.7341 12.1776C16.8608 12.1952 17.9879 12.1863 19.1149 12.1874C19.8474 12.1881 20.5808 12.2092 21.3122 12.1797C21.8824 12.1567 22.2248 12.5109 22.459 12.9074C22.7148 13.34 22.2248 13.5759 22.0283 13.8964C21.1499 15.3284 19.7352 14.7192 18.6265 14.8518V14.8514Z" fill="#F08461"/>
<path d="M23.9901 17.5145C23.9901 18.2722 23.9812 19.0299 23.9935 19.7874C24.0006 20.2153 23.9659 20.5765 23.6048 20.9148C23.2957 21.2043 23.0668 21.8458 22.6493 21.6493C22.1414 21.41 21.5509 21.0019 21.5429 20.2826C21.5249 18.6835 21.5304 17.0839 21.5418 15.4845C21.544 15.1802 22.8438 13.6085 23.0617 13.6727C23.6069 13.8328 23.9596 14.2323 23.9755 14.8214C23.9997 15.7186 23.9819 16.6169 23.9819 17.5147C23.9846 17.5147 23.9874 17.5147 23.9903 17.5147L23.9901 17.5145Z" fill="#F08461"/>
<path d="M12.9497 26.6813C12.9497 25.8656 12.9497 25.0496 12.9497 24.2339C12.9497 23.9537 12.9114 23.6586 13.1556 23.4485C13.5425 23.1154 13.7771 22.4376 14.3817 22.5882C14.7246 22.6737 14.9646 23.1546 15.2608 23.448C15.5636 23.748 15.4347 24.1106 15.4908 24.4539C15.7056 25.768 15.5775 27.0742 15.618 28.3814C15.6322 28.8334 14.3249 30.5543 13.9063 30.544C13.2593 30.5283 13.004 30.0463 12.9643 29.4654C12.9319 28.9895 12.9586 28.5097 12.9588 28.0316C12.9588 27.5814 12.9588 27.1315 12.9588 26.6813H12.9497Z" fill="#F08461"/>
<path d="M18.4648 31.9797C17.5622 31.9797 16.6594 31.9633 15.7575 31.9865C15.2924 31.9985 14.9386 31.8357 14.6474 31.4922C14.536 31.3607 14.4379 31.2333 14.4885 31.0416C14.5939 30.6414 15.9707 29.5566 16.4148 29.5559C17.8249 29.5536 19.235 29.5591 20.6451 29.5728C21.0705 29.5768 22.5809 30.7138 22.5378 31.0666C22.4651 31.6601 22.0299 31.971 21.4261 31.9785C20.4392 31.9906 19.452 31.9815 18.4648 31.9797Z" fill="#F08461"/>
<path d="M18.5333 21.2285C19.295 21.2285 20.0633 21.2901 20.8163 21.2103C21.5026 21.1375 21.8596 21.531 22.2111 21.9634C22.487 22.3026 21.9227 23.1565 21.3149 23.1725C19.5113 23.2198 17.7032 23.2355 15.9021 23.1522C15.3743 23.1279 14.7134 22.6713 14.8053 22.0911C14.8933 21.5362 15.4678 21.1746 16.1643 21.208C16.9522 21.2458 17.7435 21.2166 18.5333 21.2166C18.5333 21.2205 18.5333 21.2244 18.5333 21.2285Z" fill="#F08461"/>
<rect x="43.8999" y="16.8528" width="3.59993" height="3.59993" fill="#F08461"/>
<rect x="44" y="25.5" width="3.59993" height="3.59993" fill="#F08461"/>
</svg>
