<svg xmlns="http://www.w3.org/2000/svg" width="94" height="45" viewBox="0 0 94 45" fill="none">
  <path d="M0.524658 0V42.2193H93.5991V0H0.524658ZM89.7487 39.7181H4.3823V2.19726H89.7487V39.7181Z" fill="#6E454C"/>
  <path opacity="0.12" d="M94 42.4515L87.7728 45H1V3H4.94527V42.4515H94Z" fill="black"/>
  <path d="M89.7486 2.19751L88.1961 3.39692H4.38293V2.19751H89.7486Z" fill="#603D44"/>
  <path d="M89.7485 2.19751V39.7179H88.196V3.39692L89.7485 2.19751Z" fill="#54363D"/>
  <path d="M4.38293 33.0808L33.8117 39.7179H4.38293V33.0808Z" fill="#5A344B"/>
  <path d="M4.38293 3.39697L88.1961 34.9661V39.718H33.8117L4.38293 33.0808V3.39697Z" fill="#4B284A"/>
  <path d="M4.38293 3.39697L88.1961 34.9661V3.39697H4.38293Z" fill="#684F5F"/>
  <path d="M19.6945 11.802C20.5677 11.802 21.4409 11.8041 22.3141 11.8009C22.628 11.7998 22.9278 11.812 23.18 12.0468C23.6318 12.4674 23.8484 12.7818 23.2823 13.3884C22.5615 14.1612 21.8513 14.62 20.7506 14.4844C19.946 14.3852 19.0988 14.3509 18.307 14.4917C16.935 14.7358 16.3682 13.7119 15.6052 12.9826C15.325 12.7147 15.5751 12.4208 15.7727 12.2665C16.1186 11.9965 16.4916 11.767 16.9906 11.7891C17.8903 11.8284 18.7933 11.8002 19.6945 11.802Z" fill="#F08461"/>
  <path d="M57.6945 11.0144C58.5677 11.0144 59.4409 11.0165 60.3141 11.0133C60.628 11.0122 60.9278 11.0244 61.18 11.2592C61.6318 11.6798 61.8484 11.9942 61.2823 12.6008C60.5615 13.3736 59.8513 13.8324 58.7506 13.6968C57.946 13.5976 57.0988 13.5633 56.307 13.7041C54.935 13.9482 54.3682 12.9243 53.6052 12.195C53.325 11.9271 53.5751 11.6332 53.7727 11.4789C54.1186 11.2089 54.4916 10.9794 54.9906 11.0015C55.8903 11.0408 56.7933 11.0126 57.6945 11.0144Z" fill="#F08461"/>
  <path d="M32.141 11.8034C32.999 11.8034 33.8569 11.8056 34.7149 11.8022C35.0234 11.8009 35.3179 11.8144 35.5657 12.0713C36.0097 12.5317 36.2225 12.8758 35.6663 13.5398C34.9579 14.3856 34.2602 14.8878 33.1786 14.7394C32.3881 14.6308 31.5557 14.5932 30.7777 14.7473C29.4296 15.0145 28.8727 13.8938 28.123 13.0956C27.8477 12.8023 28.0934 12.4806 28.2876 12.3118C28.6275 12.0163 28.9939 11.7651 29.4843 11.7892C30.3682 11.8323 31.2555 11.8014 32.141 11.8034Z" fill="#F08461"/>
  <path d="M72.6945 11.0144C73.5677 11.0144 74.4409 11.0165 75.3141 11.0133C75.628 11.0122 75.9278 11.0244 76.18 11.2592C76.6318 11.6798 76.8484 11.9942 76.2823 12.6008C75.5615 13.3736 74.8513 13.8324 73.7506 13.6968C72.946 13.5976 72.0988 13.5633 71.307 13.7041C69.935 13.9482 69.3682 12.9243 68.6052 12.195C68.325 11.9271 68.5751 11.6332 68.7727 11.4789C69.1186 11.2089 69.4916 10.9794 69.9906 11.0015C70.8903 11.0408 71.7933 11.0126 72.6945 11.0144Z" fill="#F08461"/>
  <path d="M14.054 17.2047C14.054 16.4463 14.0535 15.6879 14.0542 14.9298C14.0542 14.7612 14.0556 14.5926 14.062 14.4243C14.0827 13.8675 14.5086 13.5697 14.8989 13.3356C15.2789 13.1077 15.426 13.6227 15.6937 13.7794C16.6127 14.3176 16.8119 15.1399 16.7444 16.1483C16.6715 17.2386 16.6713 18.3425 16.7524 19.4319C16.8242 20.3962 16.1473 20.7676 15.5379 21.1787C15.1686 21.4278 14.1041 20.4944 14.0838 19.9001C14.0533 19.0024 14.0759 18.103 14.0759 17.2043C14.0686 17.2043 14.0613 17.2043 14.054 17.2043V17.2047Z" fill="#F08461"/>
  <path d="M67.054 16.4171C67.054 15.6587 67.0535 14.9003 67.0542 14.1422C67.0542 13.9736 67.0556 13.805 67.062 13.6367C67.0827 13.0799 67.5086 12.7821 67.8989 12.548C68.2789 12.3201 68.426 12.8351 68.6937 12.9918C69.6127 13.53 69.8119 14.3524 69.7444 15.3607C69.6715 16.451 69.6713 17.555 69.7524 18.6443C69.8242 19.6086 69.1473 19.98 68.5379 20.3911C68.1686 20.6402 67.1041 19.7068 67.0838 19.1125C67.0533 18.2148 67.0759 17.3154 67.0759 16.4167C67.0686 16.4167 67.0613 16.4167 67.054 16.4167V16.4171Z" fill="#F08461"/>
  <path d="M14.0506 26.3485C14.0506 25.7302 14.1377 25.0963 14.0308 24.4971C13.8564 23.5199 14.4557 22.9698 15.0093 22.3643C15.1657 22.1935 15.4254 22.1293 15.5346 22.2685C15.9933 22.8532 16.8266 23.17 16.7424 24.1525C16.6613 25.101 16.6492 26.0705 16.7504 27.0155C16.8767 28.1945 16.5156 29.0807 15.5403 29.734C15.3004 29.8946 15.0886 30.33 14.8128 30.1439C14.481 29.9201 14.0328 29.7033 14.0565 29.1303C14.0948 28.2045 14.0668 27.2759 14.0668 26.3485H14.0504H14.0506Z" fill="#F08461"/>
  <path d="M57.3621 19.8423C57.9033 19.8423 58.4583 19.9365 58.9827 19.8209C59.8382 19.6323 60.3197 20.2803 60.8497 20.8788C60.9993 21.0479 61.0554 21.3287 60.9335 21.4468C60.4218 21.9427 60.1444 22.8437 59.2844 22.7527C58.4541 22.665 57.6054 22.6519 56.7783 22.7613C55.7462 22.8979 54.9705 22.5075 54.3986 21.4529C54.258 21.1936 53.8769 20.9646 54.0398 20.6664C54.2357 20.3077 54.4255 19.8231 54.927 19.8487C55.7375 19.8901 56.5503 19.8598 57.3621 19.8598L57.3621 19.8421L57.3621 19.8423Z" fill="#F08461"/>
  <path d="M67.0506 25.5609C67.0506 24.9426 67.1377 24.3087 67.0308 23.7095C66.8564 22.7323 67.4557 22.1822 68.0093 21.5767C68.1657 21.4059 68.4254 21.3417 68.5346 21.481C68.9933 22.0656 69.8266 22.3824 69.7424 23.3649C69.6613 24.3134 69.6492 25.2829 69.7504 26.2279C69.8767 27.4069 69.5156 28.2931 68.5403 28.9464C68.3004 29.107 68.0886 29.5424 67.8128 29.3563C67.481 29.1325 67.0328 28.9157 67.0565 28.3427C67.0948 27.4169 67.0668 26.4883 67.0668 25.5609H67.0504H67.0506Z" fill="#F08461"/>
  <path d="M25.1029 26.3823C25.1029 27.1964 25.0603 28.0137 25.1171 28.824C25.159 29.4227 24.7904 29.7427 24.4587 30.1158C24.3795 30.205 24.302 30.2593 24.173 30.2325C23.7036 30.1347 22.6644 28.791 22.6624 28.2464C22.6578 26.9548 22.7485 25.6564 22.6402 24.3741C22.562 23.4472 23.0098 22.8785 23.5693 22.3041C23.6803 22.1902 23.8545 22.0209 23.9995 22.1867C24.4416 22.6926 25.1675 22.9952 25.1223 23.8562C25.0783 24.696 25.1128 25.5402 25.1128 26.3823H25.1029Z" fill="#F08461"/>
  <path d="M63.1029 25.5947C63.1029 26.4088 63.0603 27.2261 63.1171 28.0364C63.159 28.6351 62.7904 28.9551 62.4587 29.3282C62.3795 29.4174 62.302 29.4717 62.173 29.4449C61.7036 29.3471 60.6644 28.0034 60.6624 27.4588C60.6578 26.1672 60.7485 24.8688 60.6402 23.5865C60.562 22.6596 61.0098 22.0909 61.5693 21.5165C61.6803 21.4026 61.8545 21.2333 61.9995 21.3991C62.4416 21.9051 63.1675 22.2076 63.1223 23.0686C63.0783 23.9084 63.1128 24.7526 63.1128 25.5947H63.1029Z" fill="#F08461"/>
  <path d="M37.9743 26.9884C37.9743 27.7903 37.923 28.5954 37.9913 29.3934C38.0417 29.9832 37.5981 30.2984 37.1989 30.6659C37.1037 30.7537 37.0105 30.8073 36.8552 30.7808C36.2903 30.6845 35.0398 29.361 35.0373 28.8246C35.0318 27.5524 35.141 26.2734 35.0107 25.0104C34.9166 24.0974 35.4554 23.5372 36.1287 22.9715C36.2623 22.8592 36.4719 22.6925 36.6464 22.8559C37.1784 23.3542 38.0519 23.6522 37.9976 24.5002C37.9446 25.3275 37.9861 26.1589 37.9861 26.9884H37.9743Z" fill="#F08461"/>
  <path d="M78.1029 25.5947C78.1029 26.4088 78.0603 27.2261 78.1171 28.0364C78.159 28.6351 77.7904 28.9551 77.4587 29.3282C77.3795 29.4174 77.302 29.4717 77.173 29.4449C76.7036 29.3471 75.6644 28.0034 75.6624 27.4588C75.6578 26.1672 75.7485 24.8688 75.6402 23.5865C75.562 22.6596 76.0098 22.0909 76.5693 21.5165C76.6803 21.4026 76.8545 21.2333 76.9995 21.3991C77.4416 21.9051 78.1675 22.2076 78.1223 23.0686C78.0783 23.9084 78.1128 24.7526 78.1128 25.5947H78.1029Z" fill="#F08461"/>
  <path d="M25.1123 17.1132C25.1123 17.928 25.0867 18.744 25.1221 19.5574C25.1424 20.0222 25.0147 20.4011 24.6524 20.6616C24.3526 20.877 24.1723 21.4889 23.7685 21.2737C23.3016 21.0246 22.7447 20.6009 22.7198 20.0331C22.6464 18.3507 22.6202 16.659 22.7198 14.9793C22.7674 14.1786 23.5665 13.6741 24.1962 13.3738C24.559 13.2007 25.0881 13.8192 25.1036 14.4161C25.1269 15.3146 25.11 16.2143 25.1123 17.1132Z" fill="#F08461"/>
  <path d="M63.1123 16.3256C63.1123 17.1404 63.0867 17.9564 63.1221 18.7698C63.1424 19.2346 63.0147 19.6135 62.6524 19.874C62.3526 20.0894 62.1723 20.7013 61.7685 20.4861C61.3016 20.237 60.7447 19.8133 60.7198 19.2455C60.6464 17.5631 60.6202 15.8714 60.7198 14.1917C60.7674 13.391 61.5665 12.8865 62.1962 12.5862C62.559 12.4131 63.0881 13.0316 63.1036 13.6285C63.1269 14.527 63.11 15.4267 63.1123 16.3256Z" fill="#F08461"/>
  <path d="M37.9856 17.5686C37.9856 18.386 37.9546 19.2045 37.9975 20.0205C38.0221 20.4867 37.8671 20.8669 37.427 21.1282C37.0628 21.3443 36.8437 21.9582 36.3532 21.7423C35.7861 21.4924 35.1095 21.0673 35.0793 20.4977C34.9901 18.81 34.9582 17.1129 35.0793 15.4279C35.1372 14.6246 36.1079 14.1185 36.8728 13.8172C37.3134 13.6436 37.9562 14.2641 37.9751 14.8628C38.0033 15.7642 37.9828 16.6667 37.9856 17.5686Z" fill="#F08461"/>
  <path d="M78.1123 16.3256C78.1123 17.1404 78.0867 17.9564 78.1221 18.7698C78.1424 19.2346 78.0147 19.6135 77.6524 19.874C77.3526 20.0894 77.1723 20.7013 76.7685 20.4861C76.3016 20.237 75.7447 19.8133 75.7198 19.2455C75.6464 17.5631 75.6202 15.8714 75.7198 14.1917C75.7674 13.391 76.5665 12.8865 77.1962 12.5862C77.559 12.4131 78.0881 13.0316 78.1036 13.6285C78.1269 14.527 78.11 15.4267 78.1123 16.3256Z" fill="#F08461"/>
  <path d="M19.5837 31.6171C18.6831 31.6171 17.7821 31.6018 16.882 31.6246C16.5211 31.6337 16.2382 31.5472 15.9601 31.3111C15.5351 30.9501 15.4859 30.7051 15.9158 30.2424C16.6525 29.4499 17.4345 29.0059 18.5568 29.1503C19.2768 29.2429 20.0235 29.2215 20.7489 29.1542C21.742 29.0621 22.5598 29.255 23.1489 30.1335C23.3302 30.4035 23.7043 30.5909 23.5415 30.9751C23.3655 31.3912 23.0217 31.6086 22.5391 31.6023C21.5539 31.5889 20.5688 31.5982 19.5835 31.5982C19.5835 31.6046 19.5835 31.6109 19.5835 31.6173L19.5837 31.6171Z" fill="#F08461"/>
  <path d="M57.5837 30.8295C56.6831 30.8295 55.7821 30.8142 54.882 30.837C54.5211 30.8461 54.2382 30.7596 53.9601 30.5235C53.5351 30.1625 53.4859 29.9175 53.9158 29.4548C54.6525 28.6623 55.4345 28.2183 56.5568 28.3627C57.2768 28.4553 58.0235 28.4339 58.7489 28.3666C59.742 28.2745 60.5598 28.4674 61.1489 29.3459C61.3302 29.6159 61.7043 29.8033 61.5415 30.1875C61.3655 30.6036 61.0217 30.8211 60.5391 30.8147C59.5539 30.8013 58.5688 30.8106 57.5835 30.8106C57.5835 30.817 57.5835 30.8233 57.5835 30.8297L57.5837 30.8295Z" fill="#F08461"/>
  <path d="M72.5837 30.8295C71.6831 30.8295 70.7821 30.8142 69.882 30.837C69.5211 30.8461 69.2382 30.7596 68.9601 30.5235C68.5351 30.1625 68.4859 29.9175 68.9158 29.4548C69.6525 28.6623 70.4345 28.2183 71.5568 28.3627C72.2768 28.4553 73.0235 28.4339 73.7489 28.3666C74.742 28.2745 75.5598 28.4674 76.1489 29.3459C76.3302 29.6159 76.7043 29.8033 76.5415 30.1875C76.3655 30.6036 76.0217 30.8211 75.5391 30.8147C74.5539 30.8013 73.5688 30.8106 72.5835 30.8106C72.5835 30.817 72.5835 30.8233 72.5835 30.8297L72.5837 30.8295Z" fill="#F08461"/>
  <rect x="42.8999" y="15.3528" width="3.59993" height="3.59993" fill="#F08461"/>
  <rect x="43" y="24" width="3.59993" height="3.59993" fill="#F08461"/>
</svg>