<svg xmlns="http://www.w3.org/2000/svg" width="103" height="39" viewBox="0 0 103 39" fill="none">
  <g clip-path="url(#clip0_360_1246)">
    <path d="M84.869 2.94141H84.8733L84.8044 3.12712L84.869 2.94141Z" fill="#472D48"/>
    <path d="M18.2666 6.81577L25.0573 0H21.3865L13.8084 7.77464V0H10.9617V17.0783H13.8084V11.338L16.2398 8.92359L21.8169 17.0783H25.535L18.2666 6.81577Z" fill="#472D48"/>
    <path d="M52.6113 0L48.1789 7.6537L43.6733 0H40.2178L46.6039 10.3835V17.0783H49.5818V10.3835L55.9464 0H52.6113Z" fill="#472D48"/>
    <path d="M68.5035 14.4954H60.594V0H57.6161V17.0783H68.5035V14.4954Z" fill="#472D48"/>
    <path d="M85.7038 0L85.2046 1.41672L84.6452 2.94145H84.6409L84.5763 3.12716L79.4984 16.9876L79.464 17.0783H76.6367L83.1175 0H85.7038Z" fill="#472D48"/>
    <path d="M36.2588 0H33.0915L26.5591 17.0783H29.636L31.2325 12.5604H38.0231L39.6197 17.0783H42.8127L36.2588 0ZM32.0415 10.2841L34.6149 2.94145H34.688L37.2356 10.2841H32.0415Z" fill="#472D48"/>
    <path d="M0 20.7932H3.14611L10.9163 33.3763H10.964V20.7932H13.8001V37.8738H10.654L2.90794 25.3145H2.83658V37.8738H0V20.7932Z" fill="#472D48"/>
    <path d="M16.8072 20.7932H29.0584V23.3766H19.7865V27.8504H28.3671V30.2905H19.7865V35.29H29.2252V37.8738H16.8072V20.7932Z" fill="#472D48"/>
    <path d="M31.7755 20.7932H35.9701L40.6656 34.1659H40.7133L45.2893 20.7932H49.4367V37.8738H46.6001V24.6927H46.5524L41.8333 37.8738H39.3784L34.6593 24.6927H34.6116V37.8738H31.7755V20.7932Z" fill="#472D48"/>
    <path d="M71.2054 20.7932H74.1847V30.745C74.1847 31.3189 74.2118 31.9014 74.2677 32.4913C74.3236 33.0816 74.4826 33.6118 74.7448 34.0822C75.0071 34.5525 75.4036 34.9396 75.9366 35.2425C76.4688 35.5455 77.2191 35.6969 78.1889 35.6969C79.1586 35.6969 79.9089 35.5454 80.4411 35.2425C80.9734 34.9396 81.3706 34.5526 81.6329 34.0822C81.8951 33.6119 82.0534 33.0816 82.1093 32.4913C82.1651 31.9014 82.193 31.3189 82.193 30.745V20.7932H85.1723V31.7258C85.1723 32.8261 85.0055 33.7832 84.6719 34.5965C84.3382 35.4099 83.865 36.0917 83.2536 36.6419C82.6415 37.192 81.9067 37.6028 81.0486 37.8738C80.1905 38.1448 79.2377 38.2803 78.1888 38.2803C77.1398 38.2803 76.1863 38.1448 75.329 37.8738C74.4709 37.6028 73.7353 37.192 73.124 36.6419C72.5118 36.0917 72.0393 35.4099 71.7057 34.5965C71.3721 33.7832 71.2053 32.8261 71.2053 31.7258V20.7932H71.2054Z" fill="#472D48"/>
    <path d="M88.604 20.7932H96.7311C98.6063 20.7932 100.012 21.1997 100.95 22.0131C101.887 22.8265 102.356 23.9591 102.356 25.4103C102.356 26.2237 102.237 26.8976 101.998 27.4314C101.76 27.966 101.482 28.3967 101.164 28.7233C100.846 29.0504 100.533 29.2856 100.223 29.4292C99.9129 29.5725 99.6871 29.6683 99.5436 29.7162V29.7641C99.798 29.796 100.072 29.8758 100.366 30.0031C100.66 30.1312 100.934 30.3345 101.188 30.6133C101.442 30.8924 101.653 31.2553 101.82 31.7016C101.987 32.1486 102.071 32.7065 102.071 33.3762C102.071 34.3812 102.145 35.2942 102.296 36.1154C102.448 36.937 102.682 37.5234 103 37.8738H99.8058C99.5831 37.507 99.452 37.1005 99.4124 36.6539C99.3729 36.2073 99.3527 35.7767 99.3527 35.362C99.3527 34.5806 99.3054 33.907 99.2099 33.3405C99.1145 32.7747 98.9399 32.304 98.6854 31.929C98.4309 31.5545 98.0857 31.2795 97.6489 31.1036C97.2113 30.9284 96.6519 30.8407 95.9684 30.8407H91.5833V37.8738H88.604V20.7932ZM91.5833 28.568H96.4689C97.4224 28.568 98.1455 28.3406 98.6382 27.8863C99.1301 27.4315 99.3768 26.7497 99.3768 25.841C99.3768 25.299 99.2969 24.8563 99.1386 24.5132C98.9796 24.1702 98.7608 23.9031 98.483 23.7119C98.2053 23.5203 97.8872 23.393 97.5295 23.3288C97.1726 23.2653 96.8025 23.2333 96.4216 23.2333H91.5833V28.568Z" fill="#472D48"/>
    <path d="M60.2596 37.0751C64.5063 37.0751 67.9489 33.6197 67.9489 29.3572C67.9489 25.0948 64.5063 21.6394 60.2596 21.6394C56.0128 21.6394 52.5702 25.0948 52.5702 29.3572C52.5702 33.6197 56.0128 37.0751 60.2596 37.0751Z" fill="#FCD596"/>
    <path d="M60.2723 38.1553C60.0769 38.1553 59.8809 38.1486 59.684 38.1354C57.3478 37.9815 55.2113 36.9232 53.6679 35.1563C52.1248 33.389 51.3595 31.1243 51.5134 28.7795C51.6672 26.4347 52.7214 24.2903 54.4819 22.7414C56.2427 21.1921 58.4995 20.4253 60.835 20.5789C63.1711 20.7328 65.3077 21.7911 66.851 23.5584C68.3942 25.3254 69.1595 27.59 69.0058 29.9348C68.852 32.2796 67.7978 34.4244 66.037 35.9733C64.4248 37.3914 62.3967 38.1553 60.2723 38.1553ZM60.2498 22.7191C58.6468 22.7191 57.1169 23.2953 55.9003 24.3654C54.5719 25.5342 53.7763 27.1522 53.6604 28.9213C53.5444 30.6907 54.1216 32.3994 55.2861 33.7328C56.4504 35.0661 58.0624 35.8646 59.8252 35.981C61.59 36.0948 63.2905 35.5178 64.6189 34.3491C65.9473 33.1807 66.7429 31.5626 66.8589 29.7932C66.9748 28.0241 66.3974 26.3154 65.2329 24.9817C64.0686 23.6483 62.4566 22.8499 60.6938 22.7335C60.5453 22.7238 60.3974 22.7191 60.2498 22.7191V22.7191Z" fill="#AF9169"/>
    <path d="M61.2937 25.4409V33.294H59.8767V26.8253H59.8305L58.0007 27.9987V26.695L59.9452 25.441H61.2938L61.2937 25.4409Z" fill="#BB9C71"/>
    <path d="M85.6565 0H85.6522L84.3526 3.7232L86.6333 10.2841H81.6329L80.8411 12.5604H87.4209L89.0174 17.0783H92.2105L85.6565 0Z" fill="#472D48"/>
    <path d="M74.1882 0H71.2103V17.0783H74.1882V0Z" fill="#472D48"/>
  </g>
  <defs>
    <clipPath id="clip0_360_1246">
      <rect width="103" height="38.2803" fill="white"/>
    </clipPath>
  </defs>
</svg>