<svg width="28" height="31" viewBox="0 0 28 31" fill="none" xmlns="http://www.w3.org/2000/svg">
<path d="M28 14.036C28 6.32682 21.7707 0.0682128 14.0626 0.00162324V0H14.042C14.0277 0 14.0134 -8.92215e-07 13.9991 0.00162324C13.9848 -8.92215e-07 13.9705 0 13.9562 0H13.9356V0.00162324C6.22765 0.0680968 0 6.32682 0 14.036C0 20.5595 4.45838 26.0444 10.5002 27.6187V28.3035H7.01546V31H20.9829V28.3035H17.4982V27.6187C23.5401 26.0445 28 20.5595 28 14.036ZM10.4637 17.4031V18.3685C9.48374 17.0432 8.70545 15.6259 8.09873 14.131C8.03841 13.9804 8.03678 13.8123 8.09559 13.6618C8.74834 11.9814 9.70132 10.4104 10.8783 8.92022C10.9751 8.79969 11.1133 8.71894 11.2658 8.68878C12.0441 8.53507 12.9573 8.48112 13.9357 8.47323C13.9436 8.47161 13.9515 8.47161 13.9596 8.47323C13.9722 8.47161 13.985 8.47161 13.9993 8.47161C14.0136 8.47161 14.0263 8.47161 14.0391 8.47323C14.047 8.47161 14.055 8.47161 14.0629 8.47323C15.0428 8.48112 15.9562 8.53507 16.7343 8.68878C16.8868 8.71894 17.025 8.79969 17.1203 8.92022C18.2973 10.4104 19.2519 11.9814 19.9046 13.6618C19.9618 13.8123 19.9602 13.9804 19.8999 14.131C19.2948 15.6259 18.5149 17.0431 17.5364 18.3685V17.4031L17.392 17.1859H14.0629V17.1843C16.0911 17.1446 17.7239 15.4912 17.7239 13.4589C17.7239 11.4265 16.0911 9.7715 14.0629 9.73194C14.0454 9.73031 14.0279 9.73032 14.0105 9.73032H13.9883C13.9708 9.73032 13.9533 9.73031 13.9358 9.73194C11.9076 9.77161 10.2748 11.425 10.2748 13.4589C10.2748 15.4928 11.9076 17.1446 13.9358 17.1843V17.1859H10.6084L10.4637 17.4031Z" fill="#ffffff"/>
</svg>
