<svg width="35" height="47" viewBox="0 0 35 47" fill="none" xmlns="http://www.w3.org/2000/svg">
<path d="M2 27.6889V2H33V27.7514C33 31.9375 30.9036 35.8383 27.4294 38.1322L17.6203 44.6087L7.63998 38.1151C4.1259 35.8287 2 31.9046 2 27.6889Z" fill="#1E1E28" fill-opacity="0.9" stroke="white" stroke-width="4"/>
<path d="M32.0535 10.479C30.2432 9.31089 29.007 8.57668 26.9418 7.22847C26.3834 6.86405 24.698 7.20628 23.3105 6.8173C22.8186 6.6794 22.3643 6.44963 22.0108 6.0639C21.3212 5.31126 20.4762 5.0188 19.5297 5.0188C18.9289 5.0188 16.805 5 16.3863 5C15.2642 5 14.2597 5.19593 13.4645 6.0639C13.1225 6.43722 12.6906 6.66574 12.2235 6.80627C10.8217 7.22784 9.1016 6.85766 8.53353 7.22847C6.46828 8.57668 5.2306 9.30864 3.42186 10.479C1.60579 11.6539 1.84452 11.9876 2.41844 13.582C2.83688 14.8374 4.15149 17.7904 4.44976 18.6483C4.93892 20.0552 7.93724 16.6176 7.93687 18.7274C7.98919 23.7194 7.85174 28.7253 7.99006 33.7142C8.0947 34.8634 8.98565 34.9969 9.95477 35C12.2133 34.9853 23.2621 34.9853 25.5206 35C26.4897 34.9969 27.3805 34.8634 27.4853 33.7142C27.6235 28.7253 27.4861 23.7194 27.5385 18.7274C27.538 16.6176 30.5076 20.0447 31.0256 18.6483C31.5409 17.2589 32.6914 14.2883 33.2244 13.078C33.9283 11.4796 33.5163 11.4228 32.0536 10.479H32.0535Z" fill="#1E1E28"/>
<g filter="url(#filter0_d_315_641)">
<path d="M32.436 10.479C30.61 9.31089 29.3631 8.57668 27.2799 7.22847C26.7167 6.86405 25.0166 7.20628 23.6171 6.8173C23.121 6.6794 22.6627 6.44963 22.3061 6.0639C21.6105 5.31126 20.7582 5.0188 19.8035 5.0188C19.1974 5.0188 17.0551 5 16.6327 5C15.5009 5 14.4878 5.19593 13.6856 6.0639C13.3406 6.43722 12.905 6.66574 12.4338 6.80627C11.0199 7.22784 9.28484 6.85766 8.71183 7.22847C6.62865 8.57668 5.38023 9.30864 3.55578 10.479C1.72395 11.6539 1.96476 11.9876 2.54365 13.582C2.96573 14.8374 4.29175 17.7904 4.59261 18.6483C5.08601 20.0552 8.11037 16.6176 8.10999 18.7274C8.16277 23.7194 8.02413 28.7253 8.16365 33.7142C8.2692 34.8634 9.16788 34.9969 10.1454 35C12.4235 34.9853 23.5682 34.9853 25.8463 35C26.8239 34.9969 27.7224 34.8634 27.8281 33.7142C27.9675 28.7253 27.829 23.7194 27.8818 18.7274C27.8813 16.6176 30.8767 20.0447 31.3991 18.6483C31.919 17.2589 33.0794 14.2883 33.6171 13.078C34.3271 11.4796 33.9115 11.4228 32.4361 10.479H32.436Z" fill="#34343D"/>
<mask id="mask0_315_641" style="mask-type:luminance" maskUnits="userSpaceOnUse" x="2" y="5" width="32" height="30">
<path d="M32.436 10.479C30.61 9.31089 29.3631 8.57668 27.2799 7.22847C26.7167 6.86405 25.0166 7.20628 23.6171 6.8173C23.121 6.6794 22.6627 6.44963 22.3061 6.0639C21.6105 5.31126 20.7582 5.0188 19.8035 5.0188C19.1974 5.0188 17.0551 5 16.6327 5C15.5009 5 14.4878 5.19593 13.6856 6.0639C13.3406 6.43722 12.905 6.66574 12.4338 6.80627C11.0199 7.22784 9.28484 6.85766 8.71183 7.22847C6.62865 8.57668 5.38023 9.30864 3.55578 10.479C1.72395 11.6539 1.96476 11.9876 2.54365 13.582C2.96573 14.8374 4.29175 17.7904 4.59261 18.6483C5.08601 20.0552 8.11037 16.6176 8.10999 18.7274C8.16277 23.7194 8.02413 28.7253 8.16365 33.7142C8.2692 34.8634 9.16788 34.9969 10.1454 35C12.4235 34.9853 23.5682 34.9853 25.8463 35C26.8239 34.9969 27.7224 34.8634 27.8281 33.7142C27.9675 28.7253 27.829 23.7194 27.8818 18.7274C27.8813 16.6176 30.8767 20.0447 31.3991 18.6483C31.919 17.2589 33.0794 14.2883 33.6171 13.078C34.3271 11.4796 33.9115 11.4228 32.4361 10.479H32.436Z" fill="white"/>
</mask>
<g mask="url(#mask0_315_641)">
<path d="M23.1703 9.47887L24.0131 8.51538C24.0131 8.51538 22.9296 7.57959 22.3063 6.0639L18.039 27.5116L18.0386 28.3591C22.8537 24.8532 24.8684 16.359 24.8447 10.6582L23.1704 9.47887H23.1703Z" fill="#4B4B53"/>
<path d="M13.7704 6.0639C13.1471 7.57972 12.0636 8.51538 12.0636 8.51538L12.9064 9.47887L11.2321 10.6582C11.2084 16.359 13.2232 24.8531 18.0383 28.3591L18.0379 27.5116L13.7704 6.0639Z" fill="#4B4B53"/>
<path d="M19.6158 25.19C19.6158 25.19 19.6146 25.1925 19.6133 25.1975C19.1783 26.0386 18.6593 26.8234 18.0388 27.5116C17.417 26.8221 16.8968 26.0374 16.4618 25.1975C16.4606 25.1962 16.4606 25.195 16.4606 25.195C14.0813 20.5994 14.2593 9.81859 14.4273 8.32559L21.6604 8.41961C21.8233 9.98657 21.9487 20.6671 19.6158 25.19Z" fill="white"/>
<path d="M17.078 10.6731C14.7877 9.40378 13.5541 8.28924 13.4115 7.36059C13.3526 6.97675 13.4684 6.60933 13.7377 6.32615C14.7849 5.22451 15.4917 5.10944 16.8549 5.10944H19.2112C20.618 5.10944 21.2944 5.21837 22.3358 6.31374C22.6041 6.59604 22.72 6.96221 22.6623 7.34505C22.5234 8.26692 21.2917 9.38611 19.0018 10.6715L18.3881 9.5784C20.6117 8.33023 21.3785 7.43856 21.4215 7.17231C20.7116 6.42756 20.41 6.363 19.2111 6.363H16.8548C15.6682 6.363 15.3704 6.42894 14.6516 7.18396C14.6941 7.45198 15.4613 8.34389 17.6857 9.57652L17.0779 10.673L17.078 10.6731Z" fill="#BBBBBE"/>
<path d="M18.6953 9.78488C20.1072 8.99238 22.7416 7.31022 21.8817 6.40552C21.0095 5.48791 20.5212 5.39627 19.2115 5.39627C19.1275 5.39627 16.9393 5.39627 16.8553 5.39627C15.5455 5.39627 15.0646 5.50044 14.1923 6.41793C13.3335 7.32137 15.9583 8.99564 17.3824 9.78488" fill="#D2D2D4"/>
<path d="M17.078 10.3331C14.7877 9.06369 13.5541 7.94914 13.4115 7.0205C13.3526 6.63666 13.4684 6.26924 13.7377 5.98606C14.7846 4.88455 15.4914 4.76947 16.8548 4.76947H19.2111C20.618 4.76947 21.2944 4.87841 22.3356 5.97365C22.604 6.25595 22.7199 6.62212 22.6622 7.00496C22.5233 7.92683 21.2915 9.04602 19.0016 10.3314L18.388 9.23831C20.6116 7.99014 21.3784 7.09847 21.4214 6.83234C20.7115 6.0876 20.41 6.02316 19.211 6.02316H16.8547C15.668 6.02316 15.3703 6.0891 14.6515 6.84412C14.694 7.11214 15.4612 8.00405 17.6855 9.23681L17.0778 10.3333L17.078 10.3331Z" fill="white"/>
<path d="M19.6134 25.1975C19.1784 26.0386 18.6594 26.8234 18.0389 27.5116C17.4171 26.8221 16.8969 26.0374 16.4619 25.1975C16.4607 25.1962 17.2429 12.1891 17.3758 11.1148C17.4021 10.8942 17.3432 10.671 17.209 10.493L16.9082 10.0919L17.3181 9.23819H18.7585L19.1684 10.0919L18.8675 10.493C18.7346 10.671 18.6745 10.8942 18.702 11.1148C18.8349 12.1891 19.6146 25.1925 19.6134 25.1975Z" fill="#00A55A"/>
<path d="M17.078 10.3331C14.7877 9.06369 13.5541 7.94914 13.4115 7.0205C13.3526 6.63666 13.4684 6.26924 13.7377 5.98606C14.7846 4.88455 15.4914 4.76947 16.8548 4.76947H19.2111C20.618 4.76947 21.2944 4.87841 22.3356 5.97365C22.604 6.25595 22.7199 6.62212 22.6622 7.00496C22.5233 7.92683 21.2915 9.04602 19.0016 10.3314L18.388 9.23831C20.6116 7.99014 21.3784 7.09847 21.4214 6.83234C20.7115 6.0876 20.41 6.02316 19.211 6.02316H16.8547C15.668 6.02316 15.3703 6.0891 14.6515 6.84412C14.694 7.11214 15.4612 8.00405 17.6855 9.23681L17.0778 10.3333L17.078 10.3331Z" fill="white"/>
</g>
</g>
<defs>
<filter id="filter0_d_315_641" x="2.12158" y="5" width="31.8335" height="30" filterUnits="userSpaceOnUse" color-interpolation-filters="sRGB">
<feFlood flood-opacity="0" result="BackgroundImageFix"/>
<feColorMatrix in="SourceAlpha" type="matrix" values="0 0 0 0 0 0 0 0 0 0 0 0 0 0 0 0 0 0 127 0" result="hardAlpha"/>
<feMorphology radius="2" operator="erode" in="SourceAlpha" result="effect1_dropShadow_315_641"/>
<feOffset dx="2" dy="2"/>
<feComposite in2="hardAlpha" operator="out"/>
<feColorMatrix type="matrix" values="0 0 0 0 0 0 0 0 0 0 0 0 0 0 0 0 0 0 0.5 0"/>
<feBlend mode="normal" in2="BackgroundImageFix" result="effect1_dropShadow_315_641"/>
<feBlend mode="normal" in="SourceGraphic" in2="effect1_dropShadow_315_641" result="shape"/>
</filter>
</defs>
</svg>
