<svg width="16" height="14" viewBox="0 0 16 14" fill="none" xmlns="http://www.w3.org/2000/svg">
<path d="M7.54305 2.70419L7.99933 3.72551L8.456 2.70437C9.03892 1.40095 10.3279 0.5 11.8136 0.5C13.8381 0.5 15.5 2.17686 15.5 4.25347C15.5 4.70115 15.4225 5.13016 15.2813 5.52772C15.0952 6.05014 14.798 6.51846 14.4189 6.90456L14.2641 7.0621L8.01044 13.3739L1.83712 7.14456L1.82312 7.13044L1.80805 7.11748C1.66012 6.99021 1.52283 6.85142 1.39618 6.70165L1.3956 6.70098C1.09863 6.35106 0.864344 5.94507 0.709756 5.50065L0.709721 5.50055C0.573904 5.11036 0.5 4.69142 0.5 4.25347C0.5 2.17686 2.16135 0.5 4.18695 0.5C5.67174 0.5 6.96082 1.40093 7.54305 2.70419ZM7.798 13.5883C7.79802 13.5883 7.79805 13.5883 7.79808 13.5883L7.798 13.5883Z" fill="#FADC00" stroke="#FADC00"/>
</svg>
