<svg width="31" height="46" viewBox="0 0 31 46" fill="none" xmlns="http://www.w3.org/2000/svg">
<path d="M22.0193 43.039C18.5372 40.4562 18.3273 39.4552 17.8587 37.0684H18.9009C19.0291 36.492 18.705 36.0164 17.9799 35.6325C25.7871 31.5895 33.8659 15.5089 30.0037 10.9184C29.3229 10.1077 28.1746 9.82003 27.1989 10.2376C25.9888 10.7548 26.0109 11.9297 26.1124 13.1463C25.6892 13.906 25.0912 14.2806 24.3998 14.45C24.0734 14.53 23.7295 14.4952 23.4241 14.3572C22.502 13.9408 21.75 13.3539 21.3443 12.4203V11.1271C21.3443 11.1271 20.2287 10.945 19.1655 8.66719C18.1035 6.38934 16.1986 6.05532 16.1986 6.05532C16.4306 5.83496 16.5798 5.46962 16.5787 4.84449V0H14.4208V4.84449C14.4208 5.46962 14.57 5.83496 14.802 6.05532C14.802 6.05532 12.8971 6.38934 11.834 8.66719C10.7719 10.945 9.65629 11.1271 9.65629 11.1271V12.4203C9.25061 13.3539 8.49868 13.9408 7.57656 14.3572C7.27112 14.4952 6.92722 14.53 6.60081 14.45C5.9095 14.2806 5.31146 13.906 4.88828 13.1463C4.98971 11.9297 5.01185 10.7548 3.80178 10.2376C2.82486 9.82003 1.67774 10.1077 0.995761 10.9184C-2.86528 15.5089 5.21353 31.5895 13.0207 35.6325C12.2956 36.0164 11.9715 36.492 12.0998 37.0684H13.1408C12.6733 39.4552 12.4635 40.4562 8.98131 43.039C7.72344 43.888 7.49612 44.3612 7.5614 45.078H6.91906V46H24.0816V45.078H23.4392C23.5045 44.3612 23.2772 43.888 22.0193 43.039ZM25.8804 15.8313C25.8804 15.8313 26.8888 15.2549 26.9354 13.5685C26.9785 12.0121 27.6069 11.6328 28.1909 11.6212C28.8228 11.6096 29.3742 12.0341 29.5887 12.6256C31.0669 16.6872 26.6078 27.9292 19.4418 34.2721C24.3835 29.5575 25.9188 19.8813 25.8804 15.8313ZM1.41194 12.6256C1.62644 12.0341 2.17669 11.6096 2.80854 11.6212C3.39259 11.6328 4.02211 12.0121 4.06525 13.5685C4.11188 15.2549 5.12027 15.8313 5.12027 15.8313C5.0818 19.8813 6.61712 29.5575 11.5577 34.2721C4.39166 27.9292 -0.0662623 16.6872 1.41194 12.6256Z" fill="#ffffff"/>
</svg>
