<svg width="52" height="52" viewBox="0 0 52 52" fill="none" xmlns="http://www.w3.org/2000/svg">
<path d="M52 26C52 40.3594 40.3594 52 26 52C11.6406 52 0 40.3594 0 26C0 11.6406 11.6406 0 26 0C40.3594 0 52 11.6406 52 26Z" fill="white"/>
<path fill-rule="evenodd" clip-rule="evenodd" d="M32.2672 35.9361H19.7328V37.004H17.9616V44H34.0384V37.004H32.2672V35.9361Z" fill="#1E1E28"/>
<path d="M30.6394 38.4831H21.3606V42.521H30.6394V38.4831Z" fill="white"/>
<path fill-rule="evenodd" clip-rule="evenodd" d="M34.8378 13.3578L34.98 12H16.9954L17.1375 13.3578H12.5451C12.1826 14.4115 12 15.5146 12 16.6284C12 20.9272 14.7158 24.6339 18.5872 26.1418C19.387 29.1495 21.6234 30.9433 24.138 31.5256V35.9361H27.8621V31.5181C30.3634 30.9284 32.5849 29.1404 33.3847 26.1531C37.2711 24.6522 40 20.9377 40 16.6284C40 15.5146 39.8174 14.4115 39.4549 13.3578H34.8378ZM13.8705 16.6284C13.8705 16.1339 13.9242 15.6768 13.9867 15.1902H17.3295L18.2476 23.9564C15.6259 22.5117 13.8705 19.7589 13.8705 16.6284ZM33.7263 23.9709L34.6458 15.1902H38.0133C38.0758 15.6769 38.1295 16.1339 38.1295 16.6284C38.1295 19.7694 36.3624 22.5301 33.7263 23.9709Z" fill="#FADC00" fill-opacity="0.7"/>
<path fill-rule="evenodd" clip-rule="evenodd" d="M34.8378 13.3578L34.98 12H26.0001V35.9361H27.8621V31.5181C30.3634 30.9284 32.5849 29.1404 33.3847 26.1531C37.2711 24.6522 40 20.9377 40 16.6284C40 15.5146 39.8174 14.4115 39.4549 13.3578H34.8378ZM33.7263 23.9709L34.6458 15.1902H38.0133C38.0758 15.6769 38.1295 16.1339 38.1295 16.6284C38.1295 19.7694 36.3624 22.5301 33.7263 23.9709Z" fill="#FADC00"/>
</svg>
