<svg width="80%" height="40%" viewBox="0 0 13 24" fill="none" xmlns="http://www.w3.org/2000/svg">
<path d="M12.9936 10.585L12.6818 13.0252C12.6293 13.4333 12.2749 13.7397 11.8549 13.7397H7.79928V23.9433C7.37119 23.9811 6.93802 24 6.49995 24C5.52055 24 4.56377 23.9043 3.63939 23.7228V13.7397H0.520034C0.233827 13.7397 0 13.5107 0 13.231V10.1774C0 9.89781 0.233733 9.66881 0.520034 9.66881H3.63939V5.0887C3.63929 2.27821 5.96739 0 8.83925 0H12.4785C12.7648 0 12.9986 0.228996 12.9986 0.508585V3.56221C12.9986 3.8418 12.7648 4.07079 12.4785 4.07079H9.87857C8.73044 4.07079 7.79919 4.98209 7.79919 6.10651V9.66872H12.1666C12.6679 9.66872 13.0554 10.0988 12.9935 10.5849L12.9936 10.585Z" fill="#FADC00"/>
</svg>
