<svg width="100%" height="100%" viewBox="0 0 314 483" fill="none" xmlns="http://www.w3.org/2000/svg">
<path d="M312.293 12.2144V470.852H1.70652V12.2144H312.293ZM314 10.5095H0V472.557H314V10.5095Z" fill="white"/>
<path d="M0.680902 32.4883L0.598989 30.785C10.9525 30.2922 19.3298 21.7964 19.6694 11.4438L21.3742 11.5C21.0056 22.7341 11.9166 31.9546 0.680902 32.4883Z" fill="white"/>
<path d="M313.201 32.4047C301.966 31.8693 292.875 22.6506 292.506 11.4165L294.213 11.3602C294.551 21.7128 302.928 30.2087 313.282 30.7014L313.201 32.4047Z" fill="white"/>
<path d="M293.242 471.817H291.535C291.535 459.831 301.297 450.079 313.293 450.079V451.784C302.239 451.784 293.242 460.772 293.242 471.817Z" fill="white"/>
<path d="M20.6813 471.817H18.9748C18.9748 461.4 11.1555 452.822 0.785 451.869L0.942 450.171C12.1948 451.207 20.6813 460.513 20.6813 471.817Z" fill="white"/>
<path d="M185.257 12.6321V37.0832H128.745V12.6321H185.257ZM186.963 10.9272H127.039V38.7881H186.963V10.9272Z" fill="white"/>
<path d="M184.646 419.752C179.965 413.712 169.099 409.809 156.962 409.809C144.904 409.809 134.064 413.678 129.348 419.665L127.525 418.82C132.619 412.353 144.174 408.174 156.962 408.174C169.835 408.174 181.42 412.392 186.475 418.917L184.646 419.752Z" fill="white"/>
<path d="M213.851 420.071V470.741H100.149V420.071H213.851ZM215.356 418.567H98.6438V472.245H215.356V418.567Z" fill="white"/>
<path d="M184.646 63.1317C179.965 69.1724 169.099 73.0751 156.962 73.0751C144.904 73.0751 134.064 69.2065 129.348 63.2187L127.525 64.0643C132.619 70.5313 144.174 74.7102 156.962 74.7102C169.835 74.7102 181.42 70.4921 186.475 63.9672L184.646 63.1317Z" fill="white"/>
<path d="M213.851 62.8129V12.1428H100.149V62.8129H213.851ZM215.356 64.3167H98.6438V10.639H215.356V64.3167Z" fill="white"/>
<path d="M185.257 445.895V470.346H128.745V445.895H185.257ZM186.963 444.19H127.039V472.051H186.963V444.19Z" fill="white"/>
<path d="M174.726 472.225V481.295H139.884V472.225H174.726ZM176.432 470.52H138.177V483H176.432V470.52Z" fill="white"/>
<path d="M174.726 1.70497V10.7754H139.884V1.70497H174.726ZM176.432 0H138.177V12.4804H176.432V0Z" fill="white"/>
<path d="M313.293 240.681H0V242.386H313.293V240.681Z" fill="white"/>
<path d="M157 276.557C137.67 276.557 121.945 260.845 121.945 241.535C121.945 222.224 137.67 206.511 157 206.511C176.33 206.511 192.054 222.223 192.054 241.535C192.054 260.847 176.328 276.557 157 276.557ZM157 208.216C138.612 208.216 123.651 223.162 123.651 241.535C123.651 259.908 138.611 274.852 157 274.852C175.389 274.852 190.347 259.906 190.347 241.535C190.347 223.164 175.388 208.216 157 208.216Z" fill="white"/>
</svg>
