<svg width="314" height="463" viewBox="0 0 314 463" fill="none" xmlns="http://www.w3.org/2000/svg">
<path d="M312.293 2.21443V460.852H1.70652V2.21443H312.293ZM314 0.50946H0V462.557H314V0.50946Z" fill="white"/>
<path d="M0.680902 22.4883L0.598989 20.785C10.9525 20.2923 19.3298 11.7964 19.6694 1.44379L21.3742 1.50005C21.0056 12.7341 11.9166 21.9546 0.680902 22.4883Z" fill="white"/>
<path d="M313.201 22.4047C301.966 21.8694 292.875 12.6506 292.506 1.41651L294.213 1.36024C294.551 11.7128 302.928 20.2087 313.282 20.7015L313.201 22.4047Z" fill="white"/>
<path d="M293.242 461.817H291.535C291.535 449.831 301.297 440.079 313.293 440.079V441.784C302.239 441.784 293.242 450.772 293.242 461.817Z" fill="white"/>
<path d="M20.6813 461.817H18.9748C18.9748 451.4 11.1555 442.822 0.785 441.869L0.942 440.171C12.1948 441.207 20.6813 450.513 20.6813 461.817Z" fill="white"/>
<path d="M185.257 2.63215V27.0832H128.745V2.63215H185.257ZM186.963 0.927179H127.039V28.7881H186.963V0.927179Z" fill="white"/>
<path d="M184.646 409.752C179.965 403.712 169.099 399.809 156.962 399.809C144.904 399.809 134.064 403.678 129.348 409.665L127.525 408.82C132.619 402.353 144.174 398.174 156.962 398.174C169.835 398.174 181.42 402.392 186.475 408.917L184.646 409.752Z" fill="white"/>
<path d="M213.851 410.071V460.741H100.149V410.071H213.851ZM215.356 408.567H98.6438V462.245H215.356V408.567Z" fill="white"/>
<path d="M184.646 53.1317C179.965 59.1725 169.099 63.0751 156.962 63.0751C144.904 63.0751 134.064 59.2066 129.348 53.2187L127.525 54.0644C132.619 60.5313 144.174 64.7102 156.962 64.7102C169.835 64.7102 181.42 60.4921 186.475 53.9672L184.646 53.1317Z" fill="white"/>
<path d="M213.851 52.8129V2.14283H100.149V52.8129H213.851ZM215.356 54.3167H98.6438V0.639038H215.356V54.3167Z" fill="white"/>
<path d="M185.257 435.895V460.346H128.745V435.895H185.257ZM186.963 434.19H127.039V462.051H186.963V434.19Z" fill="white"/>
<path d="M313.293 230.681H0V232.386H313.293V230.681Z" fill="white"/>
<path d="M157 266.557C137.67 266.557 121.945 250.845 121.945 231.535C121.945 212.224 137.67 196.511 157 196.511C176.33 196.511 192.054 212.223 192.054 231.535C192.054 250.847 176.328 266.557 157 266.557ZM157 198.216C138.612 198.216 123.651 213.162 123.651 231.535C123.651 249.908 138.611 264.852 157 264.852C175.389 264.852 190.347 249.906 190.347 231.535C190.347 213.164 175.388 198.216 157 198.216Z" fill="white"/>
</svg>
