<svg width="39" height="39" viewBox="0 0 39 39" fill="none" xmlns="http://www.w3.org/2000/svg">
<circle cx="19.5" cy="19.5" r="19.5" fill="white"/>
<path d="M19.043 15.1542L19.4993 16.1755L19.956 15.1544C20.7365 13.4091 22.4639 12.2 24.4577 12.2C27.1747 12.2 29.4001 14.4493 29.4001 17.2295C29.4001 17.8291 29.2962 18.4039 29.1069 18.9367C28.8576 19.6366 28.4595 20.2639 27.9516 20.781L27.7501 20.9863L19.5137 29.2992L11.3818 21.0935L11.3678 21.0794L11.3527 21.0664C11.1543 20.8957 10.9703 20.7096 10.8006 20.509L10.8 20.5083C10.4021 20.0394 10.0882 19.4955 9.88111 18.9001L9.88107 18.9C9.69907 18.3771 9.6001 17.8158 9.6001 17.2295C9.6001 14.4493 11.8248 12.2 14.5431 12.2C16.5359 12.2 18.2634 13.4091 19.043 15.1542Z" stroke="#FADC00"/>
</svg>
