<svg width="80%" height="80%" viewBox="0 0 25 25" fill="none" xmlns="http://www.w3.org/2000/svg">
<path d="M12.5 2.25226C15.8376 2.25226 16.2329 2.26501 17.551 2.32508C18.7698 2.38072 19.4316 2.58434 19.8721 2.7555C20.4556 2.98229 20.872 3.25313 21.3094 3.69055C21.7468 4.12797 22.0177 4.54436 22.2445 5.12781C22.4156 5.56826 22.6192 6.23018 22.6749 7.44887C22.735 8.76702 22.7477 9.1623 22.7477 12.5C22.7477 15.8377 22.735 16.2329 22.6749 17.551C22.6192 18.7698 22.4156 19.4316 22.2445 19.8721C22.0177 20.4556 21.7468 20.872 21.3094 21.3094C20.872 21.7468 20.4556 22.0177 19.8721 22.2445C19.4317 22.4156 18.7698 22.6192 17.551 22.6749C16.2331 22.735 15.8378 22.7477 12.5 22.7477C9.16211 22.7477 8.76678 22.7349 7.44892 22.6749C6.23018 22.6192 5.56831 22.4156 5.12785 22.2445C4.54441 22.0177 4.12801 21.7468 3.69059 21.3094C3.25322 20.872 2.98229 20.4556 2.75554 19.8721C2.58439 19.4317 2.38077 18.7698 2.32513 17.5511C2.26501 16.233 2.25226 15.8377 2.25226 12.5C2.25226 9.1623 2.26501 8.76702 2.32513 7.44892C2.38077 6.23018 2.58439 5.56831 2.75554 5.12781C2.98229 4.54436 3.25317 4.12797 3.69059 3.69055C4.12801 3.25313 4.54441 2.98224 5.12785 2.7555C5.56831 2.58434 6.23023 2.38072 7.44892 2.32508C8.76702 2.26496 9.16235 2.25226 12.5 2.25226M12.5 0C9.10517 0 8.67948 0.0143875 7.34625 0.0752076C6.01572 0.135934 5.10711 0.347216 4.31197 0.656222C3.49001 0.975644 2.79291 1.40307 2.09797 2.09797C1.40307 2.79291 0.975644 3.49001 0.656222 4.31197C0.347216 5.10711 0.135888 6.01572 0.0752076 7.34625C0.0143875 8.67952 0 9.10517 0 12.5C0 15.8948 0.0143875 16.3204 0.0752076 17.6537C0.135934 18.9842 0.347216 19.8928 0.656222 20.688C0.975644 21.5099 1.40307 22.207 2.09797 22.902C2.79291 23.5969 3.49001 24.0243 4.31197 24.3437C5.10711 24.6527 6.01572 24.8641 7.34625 24.9247C8.67952 24.9856 9.10517 25 12.5 25C15.8948 25 16.3204 24.9856 17.6537 24.9247C18.9842 24.8641 19.8928 24.6527 20.688 24.3437C21.5099 24.0243 22.207 23.5969 22.902 22.902C23.5969 22.207 24.0243 21.5099 24.3437 20.688C24.6527 19.8928 24.8641 18.9842 24.9247 17.6537C24.9856 16.3204 25 15.8948 25 12.5C25 9.10517 24.9856 8.67952 24.9247 7.34625C24.8641 6.01572 24.6527 5.10711 24.3437 4.31197C24.0243 3.49001 23.5969 2.79291 22.902 2.09797C22.207 1.40307 21.5099 0.975644 20.688 0.656222C19.8928 0.347216 18.9842 0.135888 17.6537 0.0752076C16.3204 0.0143875 15.8948 0 12.5 0Z" fill="#FADC00"/>
<path d="M12.5004 6.08118C8.95536 6.08118 6.08154 8.95504 6.08154 12.5001C6.08154 16.0451 8.95541 18.919 12.5004 18.919C16.0455 18.919 18.9193 16.0451 18.9193 12.5001C18.9193 8.95504 16.0455 6.08118 12.5004 6.08118ZM12.5004 16.6668C10.1993 16.6668 8.33376 14.8012 8.33376 12.5001C8.33376 10.1989 10.1993 8.33339 12.5004 8.33339C14.8016 8.33339 16.6671 10.1989 16.6671 12.5001C16.6671 14.8013 14.8017 16.6668 12.5004 16.6668Z" fill="#FADC00"/>
<path d="M20.2328 6.88817C20.8185 6.30239 20.8185 5.35264 20.2328 4.76686C19.647 4.18107 18.6972 4.18107 18.1114 4.76686C17.5257 5.35264 17.5257 6.30239 18.1114 6.88817C18.6972 7.47396 19.647 7.47396 20.2328 6.88817Z" fill="#FADC00"/>
</svg>
