<svg width="48" height="64" viewBox="0 0 48 64" fill="none" xmlns="http://www.w3.org/2000/svg">
<g filter="url(#filter0_d_188_307)">
<path d="M2 37.1149V2H45V37.1987C45 43.036 42.0715 48.4786 37.213 51.6806L23.6643 60.61L9.88405 51.6602C4.96976 48.4686 2 42.9934 2 37.1149Z" fill="#1E1E28" fill-opacity="0.9" stroke="white" stroke-width="4"/>
<g filter="url(#filter1_d_188_307)">
<path d="M43.2653 13.8446C40.7964 12.2652 39.1104 11.2725 36.2937 9.44955C35.5322 8.95683 33.2335 9.41955 31.3412 8.8936C30.6703 8.70716 30.0506 8.39647 29.5686 7.87492C28.6281 6.85726 27.4756 6.46183 26.1848 6.46183C25.3652 6.46183 22.4685 6.4364 21.8975 6.4364C20.3671 6.4364 18.9972 6.70133 17.9126 7.87492C17.4462 8.37969 16.8571 8.68868 16.22 8.87869C14.3082 9.44871 11.9622 8.94818 11.1875 9.44955C8.37076 11.2725 6.68274 12.2622 4.21587 13.8446C1.74901 15.427 2.06479 15.8843 2.84752 18.0404C3.41822 19.7377 5.21116 23.7305 5.61796 24.8906C6.2851 26.7929 10.3744 22.1447 10.3739 24.9975C10.4452 31.7473 10.2578 38.5158 10.4464 45.2614C10.5891 46.8152 11.8043 46.9957 13.126 47C16.2063 46.9801 31.2753 46.9801 34.3555 47C35.6773 46.9957 36.8922 46.8152 37.0351 45.2614C37.2236 38.5158 37.0363 31.7473 37.1077 24.9975C37.107 22.1447 41.1571 26.7786 41.8636 24.8906C42.5665 23.0119 44.1355 18.9953 44.8625 17.3588C45.8225 15.1975 45.2606 15.1208 43.2657 13.8446H43.2653Z" fill="#FADC00"/>
<mask id="mask0_188_307" style="mask-type:luminance" maskUnits="userSpaceOnUse" x="2" y="6" width="44" height="41">
<path d="M43.2653 13.8446C40.7964 12.2652 39.1104 11.2725 36.2937 9.44955C35.5322 8.95683 33.2335 9.41955 31.3412 8.8936C30.6703 8.70716 30.0506 8.39647 29.5686 7.87492C28.6281 6.85726 27.4756 6.46183 26.1848 6.46183C25.3652 6.46183 22.4685 6.4364 21.8975 6.4364C20.3671 6.4364 18.9972 6.70133 17.9126 7.87492C17.4462 8.37969 16.8571 8.68868 16.22 8.87869C14.3082 9.44871 11.9622 8.94818 11.1875 9.44955C8.37076 11.2725 6.68274 12.2622 4.21587 13.8446C1.74901 15.427 2.06479 15.8843 2.84752 18.0404C3.41822 19.7377 5.21116 23.7305 5.61796 24.8906C6.2851 26.7929 10.3744 22.1447 10.3739 24.9975C10.4452 31.7473 10.2578 38.5158 10.4464 45.2614C10.5891 46.8152 11.8043 46.9957 13.126 47C16.2063 46.9801 31.2753 46.9801 34.3555 47C35.6773 46.9957 36.8922 46.8152 37.0351 45.2614C37.2236 38.5158 37.0363 31.7473 37.1077 24.9975C37.107 22.1447 41.1571 26.7786 41.8636 24.8906C42.5665 23.0119 44.1355 18.9953 44.8625 17.3588C45.8225 15.1975 45.2606 15.1208 43.2657 13.8446H43.2653Z" fill="white"/>
</mask>
<g mask="url(#mask0_188_307)">
<path d="M2.26319 14.401L1.47754 14.7188L4.76996 22.8584L5.55561 22.5406L2.26319 14.401Z" fill="#00A55A"/>
<path d="M45.3345 14.0275L41.7896 22.7902L42.5752 23.108L46.1201 14.3454L45.3345 14.0275Z" fill="#00A55A"/>
<path d="M26.6295 13.8234H26.46V47H26.6295V13.8234Z" fill="#00A55A"/>
<path d="M25.8134 14.1H25.418V47.0001H25.8134V14.1Z" fill="#00A55A"/>
<path d="M24.998 14.3766H24.3765V47H24.998V14.3766Z" fill="#00A55A"/>
<path d="M24.1829 14.6533H23.3354V46.9999H24.1829V14.6533Z" fill="#00A55A"/>
<path d="M23.1259 14.3766H22.5044V47H23.1259V14.3766Z" fill="#00A55A"/>
<path d="M22.0678 14.1H21.6724V47.0001H22.0678V14.1Z" fill="#00A55A"/>
<path d="M21.0108 13.8234H20.8413V47H21.0108V13.8234Z" fill="#00A55A"/>
<path d="M23.7592 15.077C21.3678 15.077 18.127 12.9943 17.2163 10.8723C16.7835 9.86398 16.9125 8.92242 17.5791 8.22104C19.0134 6.71235 19.6594 6.44708 21.8979 6.44708H25.6203C27.859 6.44708 28.5048 6.71235 29.9389 8.22104C30.6057 8.92242 30.7345 9.86398 30.3018 10.8725C29.3911 12.9944 26.1505 15.0772 23.759 15.0772L23.7592 15.077ZM21.8979 7.29457C19.905 7.29457 19.4548 7.47813 18.1936 8.80513C17.7629 9.25819 17.6961 9.84126 17.9953 10.5382C18.7799 12.3668 21.6888 14.2297 23.7592 14.2297C25.8296 14.2297 28.7383 12.3668 29.5231 10.5384C29.8221 9.84143 29.7553 9.25819 29.3248 8.80513C28.0634 7.47813 27.6134 7.29457 25.6204 7.29457H21.8979Z" fill="#00A55A"/>
<path d="M23.7592 15.077C21.3678 15.077 18.127 12.9943 17.2163 10.8723C16.7835 9.86398 16.9125 8.92242 17.5791 8.22104C19.0134 6.71235 19.6594 6.44708 21.8979 6.44708H25.6203C27.859 6.44708 28.5048 6.71235 29.9389 8.22104C30.6057 8.92242 30.7345 9.86398 30.3018 10.8725C29.3911 12.9944 26.1505 15.0772 23.759 15.0772L23.7592 15.077ZM21.8979 7.29457C19.905 7.29457 19.4548 7.47813 18.1936 8.80513C17.7629 9.25819 17.6961 9.84126 17.9953 10.5382C18.7799 12.3668 21.6888 14.2297 23.7592 14.2297C25.8296 14.2297 28.7383 12.3668 29.5231 10.5384C29.8221 9.84143 29.7553 9.25819 29.3248 8.80513C28.0634 7.47813 27.6134 7.29457 25.6204 7.29457H21.8979Z" fill="#00A55A"/>
</g>
</g>
</g>
<defs>
<filter id="filter0_d_188_307" x="0" y="0" width="48" height="64" filterUnits="userSpaceOnUse" color-interpolation-filters="sRGB">
<feFlood flood-opacity="0" result="BackgroundImageFix"/>
<feColorMatrix in="SourceAlpha" type="matrix" values="0 0 0 0 0 0 0 0 0 0 0 0 0 0 0 0 0 0 127 0" result="hardAlpha"/>
<feMorphology radius="2" operator="erode" in="SourceAlpha" result="effect1_dropShadow_188_307"/>
<feOffset dx="3" dy="3"/>
<feComposite in2="hardAlpha" operator="out"/>
<feColorMatrix type="matrix" values="0 0 0 0 0 0 0 0 0 0 0 0 0 0 0 0 0 0 0.5 0"/>
<feBlend mode="normal" in2="BackgroundImageFix" result="effect1_dropShadow_188_307"/>
<feBlend mode="normal" in="SourceGraphic" in2="effect1_dropShadow_188_307" result="shape"/>
</filter>
<filter id="filter1_d_188_307" x="2.27979" y="6.4364" width="43.0396" height="40.5636" filterUnits="userSpaceOnUse" color-interpolation-filters="sRGB">
<feFlood flood-opacity="0" result="BackgroundImageFix"/>
<feColorMatrix in="SourceAlpha" type="matrix" values="0 0 0 0 0 0 0 0 0 0 0 0 0 0 0 0 0 0 127 0" result="hardAlpha"/>
<feMorphology radius="2" operator="erode" in="SourceAlpha" result="effect1_dropShadow_188_307"/>
<feOffset dx="2" dy="2"/>
<feComposite in2="hardAlpha" operator="out"/>
<feColorMatrix type="matrix" values="0 0 0 0 0 0 0 0 0 0 0 0 0 0 0 0 0 0 0.5 0"/>
<feBlend mode="normal" in2="BackgroundImageFix" result="effect1_dropShadow_188_307"/>
<feBlend mode="normal" in="SourceGraphic" in2="effect1_dropShadow_188_307" result="shape"/>
</filter>
</defs>
</svg>
