<svg width="28" height="46" viewBox="0 0 28 46" fill="none" xmlns="http://www.w3.org/2000/svg">
<path d="M21.7814 44.4524V43.9687C18.2252 43.3003 16.503 41.2675 17.7616 39.2362C18.3372 39.0703 18.6545 38.6237 18.4539 37.6127C30.0823 15.763 29.3854 4.66535 25.2801 1.04928C24.3498 0.228949 23.0865 -0.146201 21.8607 0.052197C20.0842 0.339029 19.3716 1.61368 19.3779 3.55344C19.381 4.41868 19.6812 5.26529 20.263 5.90724C20.6706 6.35694 21.2695 6.82364 22.1438 7.18803C22.7567 7.44233 23.2359 7.96646 23.3604 8.61767C23.6777 10.2752 21.7114 11.4367 21.7114 11.4367V10.6148C22.245 10.3869 22.4052 9.93724 22.0862 9.19759H5.91369C5.59318 9.93724 5.75507 10.3869 6.28856 10.6148V11.4367C6.28856 11.4367 4.32217 10.2752 4.63954 8.61767C4.76403 7.96646 5.24318 7.44233 5.8561 7.18803C6.73042 6.82364 7.32929 6.35694 7.7369 5.90724C8.3187 5.26529 8.61889 4.41868 8.62203 3.55344C8.6283 1.61368 7.91574 0.339029 6.13922 0.052197C4.91186 -0.146316 3.65014 0.228949 2.71996 1.04928C-1.38539 4.66535 -2.08239 15.763 9.54617 37.6127C9.3455 38.6236 9.66288 39.0702 10.2384 39.2362C11.4969 41.2675 9.77483 43.3003 6.21865 43.9687V44.4524C5.45174 44.7547 5.30077 45.3053 5.3521 45.938L13.8568 46H14.1415L22.6477 45.938C22.699 45.3053 22.5483 44.7549 21.7814 44.4524ZM24.0386 8.24414C23.7647 7.11997 23.1021 6.3229 22.0738 5.77089C21.4453 5.4344 20.5773 4.62808 20.3999 3.78298C20.1635 2.65255 20.6349 1.67885 21.142 1.3485C22.0397 0.760826 23.2235 0.843009 24.1397 1.40278C27.7006 3.58296 28.6138 11.3437 23.2857 25.5054L24.6796 15.1955C23.3448 14.5659 22.3103 13.7534 22.0287 12.4819C23.589 11.0104 24.4664 9.58535 24.0386 8.24414ZM3.32045 15.1955L4.71433 25.5054C-0.61372 11.3437 0.299392 3.58296 3.86033 1.40278C4.77507 0.843009 5.9605 0.760826 6.85805 1.3485C7.36518 1.67885 7.83654 2.65255 7.6001 3.78298C7.42278 4.62808 6.55472 5.4344 5.92624 5.77089C4.89793 6.3229 4.23368 7.11985 3.96148 8.24414C3.53366 9.58547 4.411 11.0105 5.97141 12.4819C5.6898 13.7534 4.65534 14.5659 3.32057 15.1955H3.32045Z" fill="#00A55A"/>
</svg>
