<svg width="93" height="45" viewBox="0 0 93 45" fill="none" xmlns="http://www.w3.org/2000/svg">
<g clip-path="url(#clip0_275_683)">
<path d="M67.604 20.2243H92.9691V13.7693L72.1392 13.6834L67.604 20.2243Z" fill="white"/>
<path d="M92.9161 28.2265H58.733L74.1114 6.56063H92.9161V0H49.769V6.36229H66.0703L49.709 29.4237V34.7938H74.8551V34.7872H92.9161V28.2265Z" fill="white"/>
<path d="M40.1141 22.4133L26.8871 0H20.9906V0.02643H0.00146484V23.0747C0.00146484 25.2637 1.11687 27.3008 2.96302 28.4846L13.3281 34.9262L23.534 28.4913C25.3601 27.3008 26.4623 25.2704 26.4623 23.1011V11.706L40.1143 34.7938H47.0998V0H40.1143L40.1141 22.4133ZM19.8221 23.0085L13.3016 27.1156L6.64171 22.9821V6.63992H19.8221V23.0085Z" fill="white"/>
<path d="M67.5776 20.2243H92.9427V13.7693L72.1128 13.6834L67.5776 20.2243Z" fill="white"/>
<path d="M92.8897 28.2265H58.7066L74.085 6.56063H92.8897V0H49.7426V6.36229H66.044L49.6826 29.4237V34.7938H74.8287V34.7872H92.8897V28.2265Z" fill="white"/>
<path d="M0.00146484 0.02643V23.0747C0.00146484 25.2637 1.11687 27.3008 2.96302 28.4846L13.3281 34.9262L23.534 28.4913C25.3601 27.3008 26.4623 25.2704 26.4623 23.1013V0L0.00146484 0.02643ZM19.8221 23.0085L13.3016 27.1156L6.64171 22.9821V6.63992H19.8221V23.0085Z" fill="white"/>
<path d="M74.1114 28.2265H58.733L74.1114 6.56063V0H49.769V6.36229H66.0703L49.709 29.4237V34.7938H74.8551V34.7872H74.1114V28.2265Z" fill="white"/>
<path d="M26.4624 11.706L40.1144 34.7938H47.0998V0H40.1144V22.4133L26.4624 0V11.706Z" fill="white"/>
<path d="M0.764415 39.4475H0V45H3.40887V44.3017H0.764415V39.4475Z" fill="white"/>
<path d="M14.2775 37.782L13.561 38.9244H14.1419L15.2248 37.782H14.2775Z" fill="white"/>
<path d="M12.2227 45H15.8304V44.3017H12.9871V42.5096H15.3526V41.8113H12.9871V40.1458H15.8304V39.4475H12.2227V45Z" fill="white"/>
<path d="M27.4641 39.4475H25.688C24.9311 39.4475 24.5732 39.8046 24.5732 40.5584V43.8897C24.5732 44.6429 24.9311 45 25.688 45H27.4641C28.2203 45 28.5788 44.6429 28.5788 43.8897V42.0574H26.4921V42.7395H27.8142V43.8657C27.8142 44.1829 27.6949 44.3017 27.3843 44.3017H25.7678C25.4572 44.3017 25.3379 44.1829 25.3379 43.8657V40.5815C25.3379 40.2644 25.4572 40.1455 25.7678 40.1455H27.3843C27.6949 40.1455 27.8142 40.2644 27.8142 40.5815V41.1532H28.5786V40.5584C28.5786 39.8046 28.2203 39.4475 27.4641 39.4475Z" fill="white"/>
<path d="M37.6729 45H41.2809V44.3017H38.4375V42.5096H40.803V41.8113H38.4375V40.1458H41.2809V39.4475H37.6729V45Z" fill="white"/>
<path d="M53.7024 43.7702L51.051 39.4475H50.2222V45H50.9549V40.59L53.6707 45H54.4352V39.4475H53.7024V43.7702Z" fill="white"/>
<path d="M66.5628 39.4475H63.6875V45H66.5628C67.3196 45 67.6775 44.6429 67.6775 43.8897V40.5584C67.6775 39.8046 67.3196 39.4475 66.5628 39.4475ZM66.9131 43.8659C66.9131 44.1831 66.7938 44.3019 66.4753 44.3019H64.4521V40.1458H66.4753C66.7938 40.1458 66.9131 40.2646 66.9131 40.5817V43.8659Z" fill="white"/>
<path d="M76.7793 45H80.3873V44.3017H77.5437V42.5096H79.9092V41.8113H77.5437V40.1458H80.3873V39.4475H76.7793V45Z" fill="white"/>
<path d="M91.8535 41.9934L90.316 41.6447C89.9897 41.5736 89.8466 41.4704 89.8466 41.1292V40.55C89.8466 40.2406 89.9659 40.1218 90.2765 40.1218H91.7257C92.0364 40.1218 92.1556 40.2406 92.1556 40.55V41.1055H92.9125V40.5584C92.9125 39.8046 92.5539 39.4475 91.7978 39.4475H90.1967C89.4405 39.4475 89.0819 39.8046 89.0819 40.5584V41.2321C89.0819 42.0258 89.5754 42.2242 90.2283 42.3668L91.7574 42.7077C92.0919 42.7872 92.2353 42.8898 92.2353 43.2307V43.8973C92.2353 44.2066 92.116 44.3255 91.7975 44.3255H90.2522C89.9338 44.3255 89.8145 44.2066 89.8145 43.8973V43.2785H89.0654V43.8895C89.0654 44.6426 89.424 44.9998 90.1808 44.9998H91.8849C92.6418 44.9998 92.9997 44.6426 92.9997 43.8895V43.1281C92.9997 42.3343 92.4984 42.136 91.8533 41.9934H91.8535Z" fill="white"/>
</g>
<defs>
<clipPath id="clip0_275_683">
<rect width="93" height="45" fill="white"/>
</clipPath>
</defs>
</svg>
