<svg width="21" height="21" viewBox="0 0 21 21" fill="none" xmlns="http://www.w3.org/2000/svg">
<path d="M21 12.0767V8.92329L18.13 8.08368L17.6053 6.81451L19.0379 4.19073L16.8098 1.96234L14.1863 3.39505L12.9173 2.87029L12.0753 0H8.9247L8.08274 2.87029L6.81371 3.39505L4.19024 1.96234L1.96212 4.19073L3.39465 6.81451L2.86996 8.08368L0 8.92329V12.0767L2.86996 12.9188L3.39465 14.1879L1.96212 16.8117L4.19024 19.0401L6.81371 17.6074L8.08274 18.1321L8.9247 21H12.0753L12.9173 18.1321L14.1863 17.6074L16.8098 19.0401L19.0379 16.8117L17.6053 14.1879L18.13 12.9188L21 12.0767ZM10.5012 13.3117C8.9491 13.3117 7.68983 12.0523 7.68983 10.5C7.68983 8.9477 8.9491 7.69073 10.5012 7.69073C12.0533 7.69073 13.3102 8.9477 13.3102 10.5C13.3102 12.0523 12.0509 13.3117 10.5012 13.3117Z" fill="#FADC00"/>
</svg>
