<svg width="40" height="40" viewBox="0 0 40 40" fill="none" xmlns="http://www.w3.org/2000/svg">
<g filter="url(#filter0_d_610_713)">
<circle cx="19.5" cy="19.5" r="19.5" fill="white"/>
<path d="M30 21.0767V17.9233L27.13 17.0837L26.6053 15.8145L28.0379 13.1907L25.8098 10.9623L23.1863 12.395L21.9173 11.8703L21.0753 9H17.9247L17.0827 11.8703L15.8137 12.395L13.1902 10.9623L10.9621 13.1907L12.3947 15.8145L11.87 17.0837L9 17.9233V21.0767L11.87 21.9188L12.3947 23.1879L10.9621 25.8117L13.1902 28.0401L15.8137 26.6074L17.0827 27.1321L17.9247 30H21.0753L21.9173 27.1321L23.1863 26.6074L25.8098 28.0401L28.0379 25.8117L26.6053 23.1879L27.13 21.9188L30 21.0767ZM19.5012 22.3117C17.9491 22.3117 16.6898 21.0523 16.6898 19.5C16.6898 17.9477 17.9491 16.6907 19.5012 16.6907C21.0533 16.6907 22.3102 17.9477 22.3102 19.5C22.3102 21.0523 21.0509 22.3117 19.5012 22.3117Z" fill="#FADC00"/>
</g>
<defs>
<filter id="filter0_d_610_713" x="0" y="0" width="40" height="40" filterUnits="userSpaceOnUse" color-interpolation-filters="sRGB">
<feFlood flood-opacity="0" result="BackgroundImageFix"/>
<feColorMatrix in="SourceAlpha" type="matrix" values="0 0 0 0 0 0 0 0 0 0 0 0 0 0 0 0 0 0 127 0" result="hardAlpha"/>
<feMorphology radius="2" operator="erode" in="SourceAlpha" result="effect1_dropShadow_610_713"/>
<feOffset dx="3" dy="3"/>
<feComposite in2="hardAlpha" operator="out"/>
<feColorMatrix type="matrix" values="0 0 0 0 0 0 0 0 0 0 0 0 0 0 0 0 0 0 0.5 0"/>
<feBlend mode="normal" in2="BackgroundImageFix" result="effect1_dropShadow_610_713"/>
<feBlend mode="normal" in="SourceGraphic" in2="effect1_dropShadow_610_713" result="shape"/>
</filter>
</defs>
</svg>
