<svg width="24" height="24" viewBox="0 0 24 24" fill="none" xmlns="http://www.w3.org/2000/svg">
<path d="M13.6192 0.444457L4.63859 7.0174L3.53605e-07 7.0174L8.70393e-07 16.6237L4.63859 16.6237L13.6192 23.1966L13.6192 0.444457Z" fill="#FADC00"/>
<path d="M17.3741 21.6007L16.6812 19.7973C19.9133 18.5298 22.0849 15.3244 22.0849 11.8206C22.0849 8.26249 19.9639 5.13162 16.6817 3.84423L17.3746 2.04083C21.3994 3.61926 23.9999 7.45822 23.9999 11.8206C23.9999 16.1831 21.3991 20.0223 17.3741 21.6007Z" fill="#FADC00"/>
<path d="M17.7209 15.7741L16.3355 14.4383C17.0047 13.7299 17.3732 12.8002 17.3732 11.8204C17.3732 10.8072 16.9828 9.85505 16.2734 9.13867L17.6276 7.77057C18.6983 8.85233 19.2879 10.2906 19.2879 11.8204C19.2879 13.2999 18.7314 14.7039 17.7209 15.7741Z" fill="#FADC00"/>
</svg>
