<svg width="218" height="66" viewBox="0 0 218 66" fill="none" xmlns="http://www.w3.org/2000/svg">
<path d="M6.60219 64V43.4L1.24219 45.56V39.28L8.48219 36H14.1222V64H6.60219ZM25.4678 64V43.4L20.1078 45.56V39.28L27.3478 36H32.9878V64H25.4678ZM51.5791 64V36H71.2591V42.24H59.0991V47.12H68.7391V53.28H59.0991V64H51.5791ZM71.6394 64L80.0794 36H89.9994L98.5194 64H90.5194L89.0394 58.24H80.7994L79.3194 64H71.6394ZM82.3194 52.24H87.5194L84.9194 42.12L82.3194 52.24ZM105.157 64L96.7169 36H104.797L109.557 56.24L114.317 36H122.157L113.717 64H105.157ZM130.912 64C127.232 64 125.472 62.24 125.472 58.56V41.44C125.472 37.76 127.232 36 130.912 36H142.152C145.832 36 147.592 37.76 147.592 41.44V58.56C147.592 62.24 145.832 64 142.152 64H130.912ZM132.992 57.04C132.992 57.6 133.152 57.76 133.712 57.76H139.352C139.912 57.76 140.072 57.6 140.072 57.04V42.96C140.072 42.4 139.912 42.24 139.352 42.24H133.712C133.152 42.24 132.992 42.4 132.992 42.96V57.04ZM153.721 64V36H170.121C173.801 36 175.561 37.76 175.561 41.44V48.72C175.561 51.8 174.321 53.52 171.761 54.04L176.681 64H169.081L164.321 54.64H161.241V64H153.721ZM161.241 48.72H167.321C167.881 48.72 168.041 48.56 168.041 48V42.8C168.041 42.24 167.881 42.08 167.321 42.08H161.241V48.72ZM181.532 64V36H189.052V64H181.532ZM200.115 64C196.435 64 194.675 62.24 194.675 58.56V54.72H202.195V57.28C202.195 57.84 202.355 58 202.915 58H208.075C208.635 58 208.795 57.84 208.795 57.28V54.84C208.795 54.4 208.595 54.28 207.955 54.12L200.515 52.08C196.595 51 194.755 50.32 194.755 46.32V41.44C194.755 37.76 196.515 36 200.195 36H210.395C214.075 36 215.835 37.76 215.835 41.44V45H208.315V42.72C208.315 42.16 208.155 42 207.595 42H202.995C202.435 42 202.275 42.16 202.275 42.72V44.88C202.275 45.32 202.395 45.44 203.115 45.64L210.555 47.64C214.475 48.68 216.315 49.4 216.315 53.4V58.56C216.315 62.24 214.555 64 210.875 64H200.115Z" fill="#00A55A"/>
<path d="M14.747 26L9.47197 8.5H14.522L17.497 21.15L20.472 8.5H25.372L20.097 26H14.747ZM30.844 26C28.544 26 27.444 24.9 27.444 22.6V11.9C27.444 9.6 28.544 8.5 30.844 8.5H37.869C40.169 8.5 41.269 9.6 41.269 11.9V22.6C41.269 24.9 40.169 26 37.869 26H30.844ZM32.144 21.65C32.144 22 32.244 22.1 32.594 22.1H36.119C36.469 22.1 36.569 22 36.569 21.65V12.85C36.569 12.5 36.469 12.4 36.119 12.4H32.594C32.244 12.4 32.144 12.5 32.144 12.85V21.65ZM48.1067 26V12.5H43.7317V8.5H57.1817V12.5H52.8067V26H48.1067ZM60.1622 26V8.5H72.4622V12.4H64.8622V15.125H70.8872V18.975H64.8622V22.1H72.4622V26H60.1622ZM83.0606 26V8.5H93.2856C95.5856 8.5 96.6856 9.6 96.6856 11.9V17.175C96.6856 19.475 95.5856 20.575 93.2856 20.575H87.7606V26H83.0606ZM87.7606 16.725H91.5356C91.8856 16.725 91.9856 16.625 91.9856 16.275V12.8C91.9856 12.45 91.8856 12.35 91.5356 12.35H87.7606V16.725ZM103.056 26C100.756 26 99.656 24.9 99.656 22.6V11.9C99.656 9.6 100.756 8.5 103.056 8.5H110.081C112.381 8.5 113.481 9.6 113.481 11.9V22.6C113.481 24.9 112.381 26 110.081 26H103.056ZM104.356 21.65C104.356 22 104.456 22.1 104.806 22.1H108.331C108.681 22.1 108.781 22 108.781 21.65V12.85C108.781 12.5 108.681 12.4 108.331 12.4H104.806C104.456 12.4 104.356 12.5 104.356 12.85V21.65ZM120.637 26C118.437 26 117.237 24.8 117.237 22.6V8.5H121.937V21.5C121.937 21.8 122.087 21.95 122.387 21.95H125.637C125.937 21.95 126.087 21.8 126.087 21.5V8.5H130.787V22.6C130.787 24.8 129.587 26 127.387 26H120.637ZM134.767 26V8.5H145.017C147.317 8.5 148.417 9.6 148.417 11.9V16.45C148.417 18.375 147.642 19.45 146.042 19.775L149.117 26H144.367L141.392 20.15H139.467V26H134.767ZM139.467 16.45H143.267C143.617 16.45 143.717 16.35 143.717 16V12.75C143.717 12.4 143.617 12.3 143.267 12.3H139.467V16.45ZM161.942 26V12.5H157.567V8.5H171.017V12.5H166.642V26H161.942ZM176.879 26C174.579 26 173.479 24.9 173.479 22.6V11.9C173.479 9.6 174.579 8.5 176.879 8.5H183.904C186.204 8.5 187.304 9.6 187.304 11.9V22.6C187.304 24.9 186.204 26 183.904 26H176.879ZM178.179 21.65C178.179 22 178.279 22.1 178.629 22.1H182.154C182.504 22.1 182.604 22 182.604 21.65V12.85C182.604 12.5 182.504 12.4 182.154 12.4H178.629C178.279 12.4 178.179 12.5 178.179 12.85V21.65ZM191.135 26V8.5H195.81L201.535 17.8V8.5H206.085V26H201.91L195.685 15.975V26H191.135Z" fill="white"/>
</svg>

