<svg width="22" height="44" viewBox="0 0 22 44" fill="none" xmlns="http://www.w3.org/2000/svg">
<path d="M10.9999 44L17.1385 43.7768L20.6555 42.7554V37.0774L18.6747 36.1373V35.5253C17.0362 33.8963 15.8175 32.1016 15.2426 30.0484C15.092 29.5133 15.0525 28.9515 15.1036 28.3987C16.1468 17.1565 18.663 6.61809 22 0.718376C19.8816 0.233537 16.154 0.0295304 11.4126 0H10.5889C5.84745 0.0295304 2.11839 0.233537 0 0.718376C3.33699 6.61809 5.85334 17.1565 6.89636 28.3987C6.94754 28.9515 6.90803 29.5133 6.75739 30.0484C6.18246 32.1016 4.96385 33.8963 3.32533 35.5253V36.1373L1.34453 37.0774V42.7554L4.8615 43.7768L10.9999 44H11.0016H10.9999Z" fill="#ffffff"/>
</svg>
