<svg width="390" height="204" viewBox="0 0 390 204" fill="none" xmlns="http://www.w3.org/2000/svg">
<g clip-path="url(#clip0_233_53)">
<path d="M291.2 8.37012H75.8101V190.58H291.2V8.37012Z" fill="white" stroke="#1D1D1B" stroke-width="1.04" stroke-miterlimit="10"/>
<path d="M257.78 51.9299H105.91V191.2H257.78V51.9299Z" fill="white" stroke="#1D1D1B" stroke-width="1.04" stroke-miterlimit="10"/>
<path d="M261.85 29.21H105.16C100.814 29.21 97.29 32.7335 97.29 37.08V44.06C97.29 48.4064 100.814 51.93 105.16 51.93H261.85C266.197 51.93 269.72 48.4064 269.72 44.06V37.08C269.72 32.7335 266.197 29.21 261.85 29.21Z" fill="white" stroke="#1D1D1B" stroke-width="1.04" stroke-miterlimit="10"/>
<path d="M257.78 186.69H105.91V191.21H257.78V186.69Z" fill="white" stroke="#1D1D1B" stroke-width="1.04" stroke-miterlimit="10"/>
<path d="M257.78 182.17H105.91V186.69H257.78V182.17Z" fill="white" stroke="#1D1D1B" stroke-width="1.04" stroke-miterlimit="10"/>
<path d="M257.78 177.65H105.91V182.17H257.78V177.65Z" fill="white" stroke="#1D1D1B" stroke-width="1.04" stroke-miterlimit="10"/>
<path d="M257.78 173.14H105.91V177.66H257.78V173.14Z" fill="white" stroke="#1D1D1B" stroke-width="1.04" stroke-miterlimit="10"/>
<path d="M257.78 168.62H105.91V173.14H257.78V168.62Z" fill="white" stroke="#1D1D1B" stroke-width="1.04" stroke-miterlimit="10"/>
<path d="M257.78 164.1H105.91V168.62H257.78V164.1Z" fill="white" stroke="#1D1D1B" stroke-width="1.04" stroke-miterlimit="10"/>
<path d="M257.78 159.58H105.91V164.1H257.78V159.58Z" fill="white" stroke="#1D1D1B" stroke-width="1.04" stroke-miterlimit="10"/>
<path d="M257.78 155.07H105.91V159.59H257.78V155.07Z" fill="white" stroke="#1D1D1B" stroke-width="1.04" stroke-miterlimit="10"/>
<path d="M257.78 150.55H105.91V155.07H257.78V150.55Z" fill="white" stroke="#1D1D1B" stroke-width="1.04" stroke-miterlimit="10"/>
<path d="M257.78 146.03H105.91V150.55H257.78V146.03Z" fill="white" stroke="#1D1D1B" stroke-width="1.04" stroke-miterlimit="10"/>
<path d="M257.78 141.51H105.91V146.03H257.78V141.51Z" fill="white" stroke="#1D1D1B" stroke-width="1.04" stroke-miterlimit="10"/>
<path d="M257.78 137H105.91V141.52H257.78V137Z" fill="white" stroke="#1D1D1B" stroke-width="1.04" stroke-miterlimit="10"/>
<path d="M257.78 132.48H105.91V137H257.78V132.48Z" fill="white" stroke="#1D1D1B" stroke-width="1.04" stroke-miterlimit="10"/>
<path d="M257.78 127.96H105.91V132.48H257.78V127.96Z" fill="white" stroke="#1D1D1B" stroke-width="1.04" stroke-miterlimit="10"/>
<path d="M257.78 123.45H105.91V127.97H257.78V123.45Z" fill="white" stroke="#1D1D1B" stroke-width="1.04" stroke-miterlimit="10"/>
<path d="M257.78 118.93H105.91V123.45H257.78V118.93Z" fill="white" stroke="#1D1D1B" stroke-width="1.04" stroke-miterlimit="10"/>
<path d="M257.78 114.79H105.91V119.31H257.78V114.79Z" fill="white" stroke="#1D1D1B" stroke-width="1.04" stroke-miterlimit="10"/>
<path d="M257.78 110.28H105.91V114.8H257.78V110.28Z" fill="white" stroke="#1D1D1B" stroke-width="1.04" stroke-miterlimit="10"/>
<path d="M257.78 105.76H105.91V110.28H257.78V105.76Z" fill="white" stroke="#1D1D1B" stroke-width="1.04" stroke-miterlimit="10"/>
<path d="M257.78 101.24H105.91V105.76H257.78V101.24Z" fill="white" stroke="#1D1D1B" stroke-width="1.04" stroke-miterlimit="10"/>
<path d="M257.78 96.72H105.91V101.24H257.78V96.72Z" fill="white" stroke="#1D1D1B" stroke-width="1.04" stroke-miterlimit="10"/>
<path d="M257.78 92.21H105.91V96.73H257.78V92.21Z" fill="white" stroke="#1D1D1B" stroke-width="1.04" stroke-miterlimit="10"/>
<path d="M257.78 87.6899H105.91V92.2099H257.78V87.6899Z" fill="white" stroke="#1D1D1B" stroke-width="1.04" stroke-miterlimit="10"/>
<path d="M257.78 83.1699H105.91V87.6899H257.78V83.1699Z" fill="white" stroke="#1D1D1B" stroke-width="1.04" stroke-miterlimit="10"/>
<path d="M257.78 78.8501H105.91V83.3701H257.78V78.8501Z" fill="white" stroke="#1D1D1B" stroke-width="1.04" stroke-miterlimit="10"/>
<path d="M257.78 74.3301H105.91V78.8501H257.78V74.3301Z" fill="white" stroke="#1D1D1B" stroke-width="1.04" stroke-miterlimit="10"/>
<path d="M257.78 65.3899H105.91V69.9099H257.78V65.3899Z" fill="white" stroke="#1D1D1B" stroke-width="1.04" stroke-miterlimit="10"/>
<path d="M257.78 60.8701H105.91V65.3901H257.78V60.8701Z" fill="white" stroke="#1D1D1B" stroke-width="1.04" stroke-miterlimit="10"/>
<path d="M257.78 56.45H105.91V60.97H257.78V56.45Z" fill="white" stroke="#1D1D1B" stroke-width="1.04" stroke-miterlimit="10"/>
<path d="M257.78 51.9299H105.91V56.4499H257.78V51.9299Z" fill="white" stroke="#1D1D1B" stroke-width="1.04" stroke-miterlimit="10"/>
<path d="M291.2 190.58H75.8101V203.15H291.2V190.58Z" fill="white" stroke="#1D1D1B" stroke-width="1.04" stroke-miterlimit="10"/>
<path d="M461.4 190.58H291.2V203.15H461.4V190.58Z" fill="white" stroke="#1D1D1B" stroke-width="1.04" stroke-miterlimit="10"/>
<path d="M461.4 0.52002H-101.48V8.37002H461.4V0.52002Z" fill="white" stroke="#1D1D1B" stroke-width="1.04" stroke-miterlimit="10"/>
<path d="M153.935 37.45C154.025 39.775 154.13 42.115 154.235 44.44C155.015 44.485 155.78 44.53 156.56 44.59C156.53 45.115 156.485 45.64 156.455 46.165C155.195 46.09 153.95 46 152.69 45.925C152.57 43.12 152.45 40.315 152.33 37.51L153.935 37.45ZM160.433 37.435C161.138 40.21 161.843 42.97 162.548 45.745C162.023 45.865 161.498 45.985 160.973 46.12C160.748 45.205 160.508 44.305 160.268 43.39L159.113 43.495C159.008 44.335 158.903 45.175 158.798 46.03C158.258 45.97 157.733 45.895 157.208 45.835C157.538 43.105 157.883 40.36 158.228 37.63C158.963 37.57 159.698 37.495 160.433 37.435ZM159.998 41.905L159.443 40.225L159.083 41.965L159.998 41.905ZM170.34 44.86C169.98 45.325 169.125 46.285 168.03 46.285C166.92 46.285 166.335 45.445 166.035 44.65C165.78 43.93 165.69 43.09 165.69 42.25C165.69 40.765 165.975 39.625 166.455 38.815C166.965 37.99 167.715 37.45 168.69 37.45C169.98 37.45 170.865 38.68 171.225 39.325L169.83 40.12C169.77 40.03 169.68 39.82 169.35 39.475C169.08 39.205 168.765 39.055 168.66 39.055C168.48 39.07 168.18 39.19 167.88 39.655C167.565 40.12 167.295 41.005 167.295 42.25C167.295 42.97 167.385 43.66 167.565 44.125C167.745 44.59 167.91 44.68 167.985 44.695C168.06 44.68 168.3 44.59 168.525 44.41C168.855 44.14 168.945 44.005 169.02 43.915C169.455 44.23 169.905 44.53 170.34 44.86ZM175.336 37.45C176.701 37.45 177.466 38.425 177.796 39.475C177.991 40.09 178.066 40.75 178.066 41.395C178.066 42.865 177.751 44.005 177.106 44.965C176.626 45.7 175.891 46.33 174.856 46.33C173.986 46.33 173.116 45.895 172.591 45.115C172.126 44.41 171.886 43.465 171.886 42.25C171.886 42.1 171.886 41.935 171.886 41.785C172.036 38.92 173.671 37.45 175.336 37.45ZM176.461 41.425C176.461 40.57 176.281 39.67 175.861 39.265C175.711 39.13 175.591 39.07 175.321 39.07C174.751 39.07 173.611 39.535 173.491 41.86C173.491 41.98 173.491 42.115 173.491 42.22C173.491 43.225 173.701 43.87 173.956 44.23C174.241 44.605 174.496 44.71 174.841 44.71C175.081 44.71 175.396 44.56 175.726 44.08C176.191 43.435 176.461 42.535 176.461 41.425ZM180.435 38.005V38.065L182.235 41.395L184.125 38.065V38.005C184.635 38.005 185.16 38.005 185.67 38.005H185.745C185.745 40.81 185.745 43.6 185.745 46.405V46.48C185.235 46.48 184.725 46.48 184.215 46.48H184.14C184.14 44.77 184.125 43.06 184.125 41.365C183.735 42.04 183.345 42.715 182.955 43.39C182.46 43.39 181.98 43.405 181.485 43.405C181.14 42.775 180.78 42.13 180.435 41.485V45.655V45.73C179.925 45.73 179.415 45.73 178.905 45.73H178.83C178.83 43.18 178.83 40.63 178.83 38.08V38.005C179.34 38.005 179.85 38.005 180.36 38.005H180.435ZM188.155 38.005V38.065L189.955 41.395L191.845 38.065V38.005C192.355 38.005 192.88 38.005 193.39 38.005H193.465C193.465 40.81 193.465 43.6 193.465 46.405V46.48C192.955 46.48 192.445 46.48 191.935 46.48H191.86C191.86 44.77 191.845 43.06 191.845 41.365C191.455 42.04 191.065 42.715 190.675 43.39C190.18 43.39 189.7 43.405 189.205 43.405C188.86 42.775 188.5 42.13 188.155 41.485V45.655V45.73C187.645 45.73 187.135 45.73 186.625 45.73H186.55C186.55 43.18 186.55 40.63 186.55 38.08V38.005C187.06 38.005 187.57 38.005 188.08 38.005H188.155ZM197.915 38.11V37.99H197.99H199.445H199.52V38.11C199.52 39.22 199.475 42.07 199.25 43.045C199.175 43.39 199.055 44.065 198.74 44.71C198.395 45.415 197.75 46.09 196.67 46.09H196.655C196.025 46.09 195.5 45.88 195.125 45.535C194.765 45.19 194.57 44.755 194.465 44.365C194.225 43.555 194.255 42.73 194.24 42.265C194.24 42.055 194.24 41.845 194.24 41.635C194.24 40.075 194.36 38.245 194.495 38.245C195.005 38.305 195.515 38.365 196.025 38.425C196.01 38.515 195.845 40.06 195.845 41.65C195.845 41.845 195.845 42.025 195.845 42.205C195.875 42.94 195.845 44.005 196.25 44.365C196.34 44.44 196.4 44.485 196.67 44.485C196.805 44.485 196.835 44.47 196.925 44.395C197.33 44.095 197.555 43.21 197.675 42.7C197.78 42.265 197.855 41.035 197.885 40C197.915 39.085 197.915 38.29 197.915 38.11ZM201.82 39.505L205.03 43.36L204.97 37.765L206.59 37.75L206.665 45.985L205.21 46C205.195 46.015 205.165 46.03 205.135 46.06C205.12 46.03 205.09 46 205.075 45.97L201.895 42.085L201.94 46.63L200.32 46.645L200.26 39.52L201.82 39.505ZM211.503 37.66C211.518 38.185 211.533 38.71 211.548 39.235C210.708 39.265 209.883 39.28 209.043 39.31L209.073 41.215C209.688 41.185 210.303 41.17 210.918 41.14C210.933 41.68 210.948 42.205 210.963 42.73C210.348 42.745 209.718 42.775 209.103 42.79L209.133 44.95C209.928 44.92 210.708 44.905 211.503 44.89C211.518 45.415 211.533 45.94 211.548 46.465C210.228 46.51 208.893 46.54 207.558 46.555C207.513 43.615 207.453 40.69 207.423 37.75C207.858 37.735 208.293 37.735 208.728 37.735C209.658 37.705 210.573 37.675 211.503 37.66Z" fill="#1D1D1B"/>
<path d="M461.4 8.37012H291.2V26.0101H461.4V8.37012Z" fill="white" stroke="#1D1D1B" stroke-width="1.04" stroke-miterlimit="10"/>
<path d="M443.06 177.56H308.53V51.89C308.53 51.89 344.28 42.99 375.8 42.99C415.28 42.99 443.07 51.89 443.07 51.89V177.56H443.06Z" fill="white" stroke="#1D1D1B" stroke-width="1.04" stroke-miterlimit="10"/>
<path d="M386.67 61.8H316.71V169.55H386.67V61.8Z" fill="white" stroke="#1D1D1B" stroke-width="1.04" stroke-miterlimit="10"/>
<path d="M349.46 65.8799H323.61V76.5499H349.46V65.8799Z" fill="white" stroke="#1D1D1B" stroke-width="1.04" stroke-miterlimit="10"/>
<path d="M379.78 65.8799H353.93V76.5499H379.78V65.8799Z" fill="white" stroke="#1D1D1B" stroke-width="1.04" stroke-miterlimit="10"/>
<path d="M-80.1001 203.2V51.8399C-80.1001 51.8399 -44.3501 42.9399 -12.8301 42.9399C26.6499 42.9399 54.4399 51.8399 54.4399 51.8399V203.2" fill="white"/>
<path d="M-80.1001 203.2V51.8399C-80.1001 51.8399 -44.3501 42.9399 -12.8301 42.9399C26.6499 42.9399 54.4399 51.8399 54.4399 51.8399V203.2" stroke="#1D1D1B" stroke-width="1.04" stroke-miterlimit="10"/>
<path d="M-4.67995 48.7701H-21.94L-26.2 8.32007H0.530045L-4.67995 48.7701Z" fill="white" stroke="#1D1D1B" stroke-width="1.04" stroke-miterlimit="10"/>
<path d="M75.81 8.37012H-101.48V26.0101H75.81V8.37012Z" fill="white" stroke="#1D1D1B" stroke-width="1.04" stroke-miterlimit="10"/>
<path d="M75.81 203.15H56.35H-101.48" fill="white"/>
<path d="M75.81 203.15H56.35H-101.48" stroke="#1D1D1B" stroke-width="1.04" stroke-miterlimit="10"/>
<g clip-path="url(#clip1_233_53)">
<path d="M51.6735 32.1978C51.1799 32.7157 50.5043 33.0005 49.8028 33.0005C49.491 33.0005 49.1792 32.9487 48.8674 32.8451L19.6629 21.7371C18.7015 21.3746 18.026 20.4424 18 19.4067C18 18.3451 18.5716 17.3871 19.533 16.9728L48.036 4.23352C48.9973 3.79334 50.1146 4.00048 50.8941 4.72548C58.7149 12.0791 59.0526 24.4041 51.6735 32.1978Z" fill="#010101"/>
</g>
</g>
<defs>
<clipPath id="clip0_233_53">
<rect width="563.92" height="203.67" fill="white" transform="translate(-102)"/>
</clipPath>
<clipPath id="clip1_233_53">
<rect width="39" height="29" fill="white" transform="translate(18 4)"/>
</clipPath>
</defs>
</svg>
