<svg width="519" height="488" viewBox="0 0 519 488" fill="none" xmlns="http://www.w3.org/2000/svg">
<g clip-path="url(#clip0_733_4703)">
<path d="M426.6 282.5C426.6 282.5 425.4 278.5 425 275.5C424 265.7 422.3 245.8 417.6 234.3L408.4 238.6C408.4 238.6 415.6 263.2 416.5 275.6C416.6 276.8 415.7 280 415.7 280.9C415.7 280.9 414.2 288.8 415.7 289.2C416.7 289.5 417.9 286.4 417.9 286.4C417.9 286.4 419.9 293.6 421.3 294.6C421.3 294.6 421.7 294.8 422 294.7C422 294.7 422.5 294.6 422.5 294.1C422.5 294.1 422.8 295 423.6 294.9C424.1 294.8 424.2 294.5 424.2 294.2C424.2 293.9 424.2 294 424.2 294.1C424.3 294.3 424.5 294.6 425 294.6C425.8 294.5 425.6 293.5 425.6 293.5C425.6 293 425.6 293.7 425.7 293.8C426.5 294.6 427 293.9 427.1 293.6C428.6 290.3 426.6 282.5 426.6 282.5Z" fill="#F8E8DB" stroke="black" stroke-linecap="square" stroke-linejoin="round"/>
<path d="M337.9 274.6C338.8 262.3 346 237.6 346 237.6L336.8 233.3C332.1 244.8 330.4 264.7 329.4 274.5C329.1 277.5 327.9 281.5 327.9 281.5C327.9 281.5 325.8 289.3 327.3 292.6C327.4 292.9 327.9 293.6 328.7 292.8C328.7 292.7 328.8 292 328.8 292.5C328.8 292.5 328.7 293.6 329.4 293.6C329.9 293.7 330.1 293.3 330.2 293.1C330.2 293 330.2 292.8 330.2 293.2C330.2 293.6 330.3 293.8 330.8 293.9C331.6 294 331.9 293.1 331.9 293.1C331.9 293.6 332.4 293.7 332.4 293.7C332.8 293.8 333.1 293.6 333.1 293.6C334.5 292.6 336.5 285.4 336.5 285.4C336.5 285.4 337.7 288.5 338.7 288.2C340.2 287.7 338.7 279.9 338.7 279.9C338.7 279 337.8 275.8 337.9 274.6Z" fill="#F8E8DB" stroke="black" stroke-linecap="square" stroke-linejoin="round"/>
<path d="M373.5 156.4C373.5 156.4 357.7 155.1 355.8 172.4C355.6 174.6 354.7 177.2 355 179.2C355.3 181.3 355.5 182.6 355.5 183.6C355.4 186.8 356.5 187.1 357.2 189.7C357.5 191 357.3 192.8 356.4 194.7C356 195.5 356.5 196.5 357.4 196.6C359.5 196.9 363 197.3 368.7 196.9L368.3 193.8L380.8 191.5V196.5C386.1 196.9 389 196.8 390.5 196.3C391.2 196.1 391.6 195.2 391.2 194.5C390.4 192.9 390.1 191.7 390.4 190.3C391.1 187.6 391.9 187.5 391.8 184.3C391.8 183 391.7 180.9 392 177.9C392.2 175.9 391.3 174.3 391.1 172C389.2 154.7 373.1 156.4 373.1 156.4" fill="black"/>
<path d="M381.2 193.4C381.2 193.4 382 202.4 384 202.4L377 213.4L366 207.4L367 202.4C367 202.4 370.1 200 368.5 194.7" fill="#F8E8DB"/>
<path d="M381.2 193.4C381.2 193.4 382 202.4 384 202.4L377 213.4L366 207.4L367 202.4C367 202.4 370.1 200 368.5 194.7" stroke="black" stroke-linecap="square" stroke-linejoin="round"/>
<path d="M358.5 430V445.3H310.4L336.6 430H358.5Z" fill="#A9C180" stroke="#1D1D1B" stroke-miterlimit="10"/>
<path d="M323.4 435.7C323.4 435.7 327 435.9 329.3 434.3" stroke="black" stroke-miterlimit="10"/>
<path d="M389.2 175.1C389.2 175.1 393.2 174.6 391.6 179.2C391.6 179.2 390.7 181.9 387.9 183.1" fill="#F8E8DB"/>
<path d="M389.2 175.1C389.2 175.1 393.2 174.6 391.6 179.2C391.6 179.2 390.7 181.9 387.9 183.1" stroke="black" stroke-width="0.75" stroke-linecap="square" stroke-linejoin="round"/>
<path d="M359.2 183.2C356.4 181.8 355.7 179.1 355.7 179.1C354.3 174.4 358.2 175.1 358.2 175.1" fill="#F8E8DB"/>
<path d="M359.2 183.2C356.4 181.8 355.7 179.1 355.7 179.1C354.3 174.4 358.2 175.1 358.2 175.1" stroke="black" stroke-width="0.75" stroke-linecap="square" stroke-linejoin="round"/>
<path d="M373.3 156.4C369.1 156.4 359 158.3 358 168.7C358 168.7 357.4 179.9 361.1 186.6C364.1 191.9 368.4 196.2 374.1 196.2C379.4 196.2 383.3 191.9 385.9 186.6C387 184.4 389.9 178.4 388.9 168C388.9 168 387.6 156.4 373.3 156.4Z" fill="#F8E8DB" stroke="black" stroke-linecap="square" stroke-linejoin="round"/>
<path d="M389.5 174.9C389 176.7 386.7 172.5 384.9 171.9C378 169.5 373.4 162.6 373.4 162.6C373.4 162.6 370.2 171.3 357.9 175C357.9 175 353.9 159.4 370.4 156.6C370.4 156.6 381.8 154.4 387.2 163.4C387.2 163.4 391.5 167.7 389.5 174.9Z" fill="black"/>
<path d="M367.2 177.2C367.642 177.2 368 176.842 368 176.4C368 175.958 367.642 175.6 367.2 175.6C366.758 175.6 366.4 175.958 366.4 176.4C366.4 176.842 366.758 177.2 367.2 177.2Z" fill="#1D1D1B"/>
<path d="M368.9 172.3L365.4 172.8" stroke="black" stroke-width="0.75" stroke-miterlimit="10"/>
<path d="M379.5 177.2C379.942 177.2 380.3 176.842 380.3 176.4C380.3 175.958 379.942 175.6 379.5 175.6C379.058 175.6 378.7 175.958 378.7 176.4C378.7 176.842 379.058 177.2 379.5 177.2Z" fill="#1D1D1B"/>
<path d="M377.8 172.3L381.4 172.8" stroke="black" stroke-width="0.75" stroke-miterlimit="10"/>
<path d="M373.2 177.8L372.4 184.3L374.4 184.7" stroke="black" stroke-width="0.75" stroke-miterlimit="10"/>
<path d="M368.8 188.3C368.8 188.3 373.1 191.3 378.2 188.3" stroke="black" stroke-width="0.75" stroke-miterlimit="10"/>
<path d="M396.3 429.9V445.2H444.4L418.2 429.9H396.3Z" fill="#A9C180" stroke="#1D1D1B" stroke-miterlimit="10"/>
<path d="M354.5 255.8L399.4 255.2L431.7 434.1H392.6L377 295.4L361.9 434.1H325.4L354.5 255.8Z" fill="#4669AA" stroke="black" stroke-miterlimit="10"/>
<path d="M426.9 434C426.9 434 434.4 428 433.8 431.1C433.5 432.9 426.9 434 426.9 434Z" fill="#FAF2EA" stroke="black" stroke-miterlimit="10"/>
<path d="M433.6 436C433.6 436 428.1 435.9 425.7 434.2" stroke="black" stroke-miterlimit="10"/>
<path d="M383.3 202C399.7 202.9 406.1 207.2 406.1 207.2C404.9 221 399.4 255.2 399.4 255.2L354.5 255.8L348.2 206.2C355.7 203 359.6 203 367.2 202.3L371.1 208.7C373 211.8 377.4 211.8 379.3 208.7L383.3 202Z" fill="#A9C180" stroke="#1D1D1B" stroke-miterlimit="10"/>
<path d="M392.3 258.2C392.3 258.2 391.3 269.8 402.7 273.4" stroke="black" stroke-miterlimit="10"/>
<path d="M362.2 258.2C362.2 258.2 363.2 269.8 351.8 273.4" stroke="black" stroke-miterlimit="10"/>
<path d="M348.2 206.2C348.2 206.2 341.6 208.9 339 217.5L333.7 231.8L349.1 239.1L351.3 230.6L348.2 206.2Z" fill="#A9C180" stroke="#1D1D1B" stroke-miterlimit="10"/>
<path d="M330.1 293.2C330.1 293.2 330.3 290.5 331 289Z" fill="white"/>
<path d="M330.1 293.2C330.1 293.2 330.3 290.5 331 289" stroke="black" stroke-miterlimit="10"/>
<path d="M328.8 292.6C328.8 292.6 328.8 290 329.5 288.4Z" fill="white"/>
<path d="M328.8 292.6C328.8 292.6 328.8 290 329.5 288.4" stroke="black" stroke-miterlimit="10"/>
<path d="M331.8 293.2C331.8 293.2 332 290.5 332.7 289Z" fill="white"/>
<path d="M331.8 293.2C331.8 293.2 332 290.5 332.7 289" stroke="black" stroke-miterlimit="10"/>
<path d="M328.7 434C328.7 434 321.9 428.7 321.6 431.5C321.4 433.3 328.7 434 328.7 434Z" fill="#FAF2EA" stroke="black" stroke-miterlimit="10"/>
<path d="M406.1 207.2C406.1 207.2 412.7 209.9 415.3 218.5L420.6 232.8L405.2 240.1L403 231.6L406.1 207.2Z" fill="#A9C180" stroke="#1D1D1B" stroke-miterlimit="10"/>
<path d="M424.2 294.2C424.2 294.2 424 291.5 423.3 290Z" fill="white"/>
<path d="M424.2 294.2C424.2 294.2 424 291.5 423.3 290" stroke="black" stroke-miterlimit="10"/>
<path d="M425.6 293.6C425.6 293.6 425.6 291 424.9 289.4Z" fill="white"/>
<path d="M425.6 293.6C425.6 293.6 425.6 291 424.9 289.4" stroke="black" stroke-miterlimit="10"/>
<path d="M422.5 294.2C422.5 294.2 422.3 291.5 421.6 290Z" fill="white"/>
<path d="M422.5 294.2C422.5 294.2 422.3 291.5 421.6 290" stroke="black" stroke-miterlimit="10"/>
</g>
<g clip-path="url(#clip1_733_4703)">
<path d="M213.8 193.6C213.8 193.6 215 198.3 213.3 201.3L221.8 207.2L230.6 200.8C228.4 200 229.5 193.2 229.5 193.2" fill="#F8E8DB"/>
<path d="M213.8 193.6C213.8 193.6 215 198.3 213.3 201.3L221.8 207.2L230.6 200.8C228.4 200 229.5 193.2 229.5 193.2" stroke="#1D1D1B" stroke-miterlimit="10"/>
<path d="M206.6 172.1C206.6 172.1 202.8 171.1 203.7 175.8C203.7 175.8 204.2 178.5 206.7 180.2" fill="#FCF3EC"/>
<path d="M206.6 172.1C206.6 172.1 202.8 171.1 203.7 175.8C203.7 175.8 204.2 178.5 206.7 180.2" stroke="#1D1D1B" stroke-miterlimit="10"/>
<path d="M235.6 172.1C235.6 172.1 239.4 171.1 238.5 175.8C238.5 175.8 238.1 178.4 235.5 180" fill="#FCF3EC"/>
<path d="M235.6 172.1C235.6 172.1 239.4 171.1 238.5 175.8C238.5 175.8 238.1 178.4 235.5 180" stroke="#1D1D1B" stroke-miterlimit="10"/>
<path d="M221 155.7C216.8 155.7 207.9 156.8 206.9 167.1C206.9 167.1 205.2 184.1 210 190.7C211.1 192.2 214.5 195 221.3 195C226.8 195 230 193.5 232.6 190.6C234.7 188.3 236.7 183.7 235.1 166.8C235.1 166.8 235.1 155.7 221 155.7Z" fill="#F8E8DB" stroke="#1D1D1B" stroke-width="0.75" stroke-miterlimit="10"/>
<path d="M206.6 171.5C206.6 171.5 210.7 167.3 210 160C210 160 223.8 166.1 232 163.7C232 163.7 233.9 171.1 235.4 172C235.4 172 236.3 171 236.2 160.8C236.2 160.8 237.5 157.2 235.9 154C235.9 154 231.3 145.8 216.3 152.7L215.2 150.8C215.2 150.8 208.2 152.5 208.1 158.5C208.1 158.6 202.7 163.1 206.6 171.5Z" fill="#1D1D1B"/>
<path d="M215.2 175.4C215.642 175.4 216 175.042 216 174.6C216 174.158 215.642 173.8 215.2 173.8C214.758 173.8 214.4 174.158 214.4 174.6C214.4 175.042 214.758 175.4 215.2 175.4Z" fill="#1D1D1B"/>
<path d="M216.4 170.6L214 170.8" stroke="#1D1D1B" stroke-miterlimit="10"/>
<path d="M227.3 175.4C227.742 175.4 228.1 175.042 228.1 174.6C228.1 174.158 227.742 173.8 227.3 173.8C226.858 173.8 226.5 174.158 226.5 174.6C226.5 175.042 226.858 175.4 227.3 175.4Z" fill="#1D1D1B"/>
<path d="M226.1 170.4L228.5 170.7" stroke="#1D1D1B" stroke-miterlimit="10"/>
<path d="M221.8 176.8L221 183.1L223 183.5" stroke="#1D1D1B" stroke-miterlimit="10"/>
<path d="M217.6 187.6C217.6 187.6 221.8 190.6 226.9 187.6" stroke="#1D1D1B" stroke-miterlimit="10"/>
<path d="M210.7 424V439.1H163.4L189.2 424H210.7Z" fill="#AAC280" stroke="#1D1D1B" stroke-miterlimit="10"/>
<path d="M235.8 424V439.1H283.2L257.4 424H235.8Z" fill="#AAC280" stroke="#1D1D1B" stroke-miterlimit="10"/>
<path d="M195.1 263L251.6 262.2L270.7 428.2H232.2L223.5 291.6L214.4 428.2H178.4L195.1 263Z" fill="#4669AA" stroke="black" stroke-miterlimit="10"/>
<path d="M181.5 428C181.5 428 174.8 422.8 174.5 425.5C174.3 427.3 181.5 428 181.5 428Z" fill="#FBF3EB" stroke="#1D1D1B" stroke-miterlimit="10"/>
<path d="M176.2 429.6C176.2 429.6 179.7 429.8 182 428.2" stroke="black" stroke-miterlimit="10"/>
<path d="M265 428.1C265 428.1 272.4 422.1 271.8 425.3C271.4 427 265 428.1 265 428.1Z" fill="#FBF3EB" stroke="#1D1D1B" stroke-miterlimit="10"/>
<path d="M272.5 430C272.5 430 267 429.9 264.7 428.3" stroke="black" stroke-miterlimit="10"/>
<path d="M229.8 199.6C245.9 200.5 253 204.6 253 204.6C252.7 218.3 251.7 262.2 251.7 262.2L195.1 263L193.6 204.4C201 201.2 206.4 200.6 213.9 199.9L221.8 204.7C221.8 204.6 229.8 199.6 229.8 199.6Z" fill="#FFE078" stroke="black" stroke-miterlimit="10"/>
<path d="M213.9 199.8L221.6 204.4L217.5 207.1L211.5 200.1L213.9 199.8Z" fill="#F8E8DB" stroke="#1D1D1B" stroke-miterlimit="10"/>
<path d="M229.8 199.6L222.1 204.4L226.1 207.1L232.5 199.8L229.8 199.6Z" fill="#F8E8DB" stroke="#1D1D1B" stroke-miterlimit="10"/>
<path d="M209.7 200.3C209.7 200.3 211.2 209.3 222.1 208.9C227.3 208.7 231.7 206.9 235.6 200.1" stroke="#1D1D1B" stroke-miterlimit="10"/>
<path d="M221.8 204.6V208.9" stroke="#1D1D1B" stroke-miterlimit="10"/>
<path d="M252.9 204.6C252.9 204.6 259.2 207.1 261.8 215.7L272.8 246.6L265.7 280.4L249.4 266.3L260.5 244L252.4 229.1L252.9 204.6Z" fill="#FFE078" stroke="black" stroke-miterlimit="10"/>
<path d="M243.9 267.7C243.9 267.7 242.9 279.1 254.1 282.7" stroke="#1D1D1B" stroke-miterlimit="10"/>
<path d="M203.2 267.7C203.2 267.7 204.2 279.1 193 282.7" stroke="#1D1D1B" stroke-miterlimit="10"/>
<path d="M245.5 275.2C245.5 275.2 248.3 268 251.7 268.3L259 274.6C259 274.6 256.9 282.5 251.2 281.5C251.2 281.5 246.9 279.8 245.5 275.7V275.2Z" fill="#F8E8DB" stroke="#1D1D1B" stroke-miterlimit="10"/>
<path d="M193.6 204.4C193.6 204.4 187.3 206.9 184.7 215.5L177 248.7L170.3 279L189.5 276.1L191.4 248.7L194.1 228.9L193.6 204.4Z" fill="#FFE078" stroke="black" stroke-miterlimit="10"/>
<path d="M176.5 290.8C177.3 290.9 177.6 290 177.6 290C177.7 290.5 178.1 290.6 178.1 290.6C178.5 290.7 178.8 290.5 178.8 290.5C180.2 289.5 182.2 282.4 182.2 282.4C182.2 282.4 183.4 285.4 184.3 285.1C185.8 284.6 184.3 276.9 184.3 276.9L173.6 278.5C173.6 278.5 171.6 286.1 173 289.5C173.1 289.8 173.6 290.5 174.4 289.7C174.5 289.6 174.5 288.9 174.5 289.4C174.5 289.4 174.4 290.5 175.1 290.5C175.6 290.5 175.8 290.2 175.9 290C176 289.9 175.9 289.7 175.9 290.1C175.9 290.5 176 290.7 176.5 290.8Z" fill="#F8E8DB" stroke="#1D1D1B" stroke-miterlimit="10"/>
<path d="M175.9 289.9C175.9 289.9 176.1 287.3 176.8 285.7Z" fill="white"/>
<path d="M175.9 289.9C175.9 289.9 176.1 287.3 176.8 285.7" stroke="#1D1D1B" stroke-miterlimit="10"/>
<path d="M174.5 289.6C174.5 289.6 174.5 287 175.2 285.5Z" fill="white"/>
<path d="M174.5 289.6C174.5 289.6 174.5 287 175.2 285.5" stroke="#1D1D1B" stroke-miterlimit="10"/>
<path d="M177.6 289.9C177.6 289.9 177.8 287.3 178.5 285.7Z" fill="white"/>
<path d="M177.6 289.9C177.6 289.9 177.8 287.3 178.5 285.7" stroke="#1D1D1B" stroke-miterlimit="10"/>
</g>
<g clip-path="url(#clip2_733_4703)">
<path d="M91.6999 430.5V445.6H44.3999L70.1999 430.5H91.6999Z" fill="#AAC280" stroke="#1D1D1B" stroke-miterlimit="10"/>
<path d="M116.8 430.5V445.6H164.2L138.4 430.5H116.8Z" fill="#AAC280" stroke="#1D1D1B" stroke-miterlimit="10"/>
<path d="M76.0999 269.4L132.6 268.7L151.7 434.7H113.2L104.5 298.1L95.3999 434.7H59.3999L76.0999 269.4Z" fill="#4669AA" stroke="black" stroke-miterlimit="10"/>
<path d="M62.4999 434.5C62.4999 434.5 55.7999 429.3 55.4999 432C55.2999 433.8 62.4999 434.5 62.4999 434.5Z" fill="#FBF3EB" stroke="#1D1D1B" stroke-miterlimit="10"/>
<path d="M57.2 436.1C57.2 436.1 60.7 436.3 63 434.7" stroke="black" stroke-miterlimit="10"/>
<path d="M146 434.6C146 434.6 153.4 428.6 152.8 431.8C152.4 433.5 146 434.6 146 434.6Z" fill="#FBF3EB" stroke="#1D1D1B" stroke-miterlimit="10"/>
<path d="M153.5 436.5C153.5 436.5 148 436.4 145.7 434.8" stroke="black" stroke-miterlimit="10"/>
<path d="M110.6 199.6C110.6 199.6 109.5 206.4 111.7 207.2L102 220.6L94.5 208.6C94.5 208.6 97 204.9 95.7 198.7L110.6 199.6Z" fill="#F8E8DB" stroke="black" stroke-linecap="square" stroke-linejoin="round"/>
<path d="M124.9 274.2C124.9 274.2 123.9 285.6 135.1 289.2" stroke="#1D1D1B" stroke-miterlimit="10"/>
<path d="M84.2 274.2C84.2 274.2 85.2 285.6 74 289.2" stroke="#1D1D1B" stroke-miterlimit="10"/>
<path d="M126.5 282.2C126.5 282.2 129.3 274.5 132.7 274.8L140 281.1C140 281.1 137.9 289 132.2 288C132.2 288 128.3 287.4 126.9 283.2L126.5 282.2Z" fill="#F8E8DB" stroke="#1D1D1B" stroke-miterlimit="10"/>
<path d="M74.6 210.9C74.6 210.9 68.3 213.4 65.7 222L58 255.2L51.3 285.5L70.5 282.6L72.4 255.2L75.1 235.4L74.6 210.9Z" fill="#A9C180" stroke="#1D1D1B" stroke-miterlimit="10"/>
<path d="M57.5001 297.3C58.3001 297.4 58.6001 296.5 58.6001 296.5C58.7001 297 59.1001 297.1 59.1001 297.1C59.5001 297.2 59.8001 297 59.8001 297C61.2001 296 63.2001 288.9 63.2001 288.9C63.2001 288.9 64.4001 291.9 65.3001 291.6C66.8001 291.1 65.3001 283.4 65.3001 283.4L54.6001 285C54.6001 285 52.6001 292.7 54.0001 296C54.1001 296.3 54.6001 297 55.4001 296.2C55.5001 296.1 55.5001 295.4 55.5001 295.9C55.5001 295.9 55.4001 297 56.1001 297C56.6001 297 56.8001 296.7 56.9001 296.5C57.0001 296.4 56.9001 296.2 56.9001 296.6C56.9001 297 57.0001 297.2 57.5001 297.3Z" fill="#F8E8DB" stroke="#1D1D1B" stroke-miterlimit="10"/>
<path d="M56.8999 296.4C56.8999 296.4 57.0999 293.8 57.7999 292.2Z" fill="white"/>
<path d="M56.8999 296.4C56.8999 296.4 57.0999 293.8 57.7999 292.2" stroke="#1D1D1B" stroke-miterlimit="10"/>
<path d="M55.5 296C55.5 296 55.5 293.4 56.2 291.9Z" fill="white"/>
<path d="M55.5 296C55.5 296 55.5 293.4 56.2 291.9" stroke="#1D1D1B" stroke-miterlimit="10"/>
<path d="M58.6001 296.4C58.6001 296.4 58.8001 293.8 59.5001 292.2Z" fill="white"/>
<path d="M58.6001 296.4C58.6001 296.4 58.8001 293.8 59.5001 292.2" stroke="#1D1D1B" stroke-miterlimit="10"/>
<path d="M110.8 206C126.9 206.9 134 211 134 211C133.7 224.7 132.7 268.6 132.7 268.6L76.2 269.4L74.7 210.8C82.1 207.6 87.5 207 95 206.3L97.5 210.5C100 214.5 105.8 214.5 108.2 210.5L110.8 206Z" fill="#A9C180" stroke="#1D1D1B" stroke-miterlimit="10"/>
<path d="M87.9001 180C87.9001 180 83.8001 179.3 85.2001 184.2C85.2001 184.2 86.0001 187 88.9001 188.5" fill="#F8E8DB"/>
<path d="M87.9001 180C87.9001 180 83.8001 179.3 85.2001 184.2C85.2001 184.2 86.0001 187 88.9001 188.5" stroke="black" stroke-linecap="square" stroke-linejoin="round"/>
<path d="M118.1 180C118.1 180 122.2 179.1 120.9 184.1C120.9 184.1 120.2 187 117.4 188.5" fill="#F8E8DB"/>
<path d="M118.1 180C118.1 180 122.2 179.1 120.9 184.1C120.9 184.1 120.2 187 117.4 188.5" stroke="black" stroke-linecap="square" stroke-linejoin="round"/>
<path d="M102.9 160.9C98.4999 160.9 88.9999 162 87.8999 173C87.8999 173 86.6999 189.1 90.7999 196C92.9999 199.7 96.7999 203 102.8 203C108.4 203 113.1 200.1 115.3 196.5C116.6 194.3 118.7 188.9 117.8 172.7C117.8 172.7 117.8 160.9 102.9 160.9Z" fill="#F8E8DB" stroke="black" stroke-linecap="square" stroke-linejoin="round"/>
<path d="M96.4001 181.4C96.8419 181.4 97.2001 181.042 97.2001 180.6C97.2001 180.158 96.8419 179.8 96.4001 179.8C95.9583 179.8 95.6001 180.158 95.6001 180.6C95.6001 181.042 95.9583 181.4 96.4001 181.4Z" fill="#1D1D1B"/>
<path d="M98.2001 176.3L95.6001 176.6" stroke="#1D1D1B" stroke-miterlimit="10"/>
<path d="M109.3 181.4C109.742 181.4 110.1 181.042 110.1 180.6C110.1 180.158 109.742 179.8 109.3 179.8C108.858 179.8 108.5 180.158 108.5 180.6C108.5 181.042 108.858 181.4 109.3 181.4Z" fill="#1D1D1B"/>
<path d="M107.5 176.3L110.1 176.6" stroke="#1D1D1B" stroke-miterlimit="10"/>
<path d="M102.8 183.1L101.9 189.9L104 190.3" stroke="#1D1D1B" stroke-miterlimit="10"/>
<path d="M97.8999 194.3C97.8999 194.3 102.4 197.4 107.7 194.3" stroke="#1D1D1B" stroke-miterlimit="10"/>
<path d="M87.6999 177.7C87.6999 177.7 92.4999 174.3 91.6999 166.8C91.6999 166.8 105.7 172.2 114.2 169.8C114.2 169.8 116.1 177.4 117.7 178.3C117.7 178.3 119.5 174.9 118.5 166.8C118 162.5 114.8 162 112.2 160.8C109.9 159.8 107.4 158.1 104 159.5C104 159.5 103.3 157.6 101.4 158C93.5999 159.4 88.8999 162.7 87.5999 167.7C86.9999 169.9 86.5999 172.5 87.6999 177.7Z" fill="#1D1D1B"/>
<path d="M133.9 211.1C133.9 211.1 140.2 213.6 142.8 222.2L153.8 253.1L146.7 286.9L130.4 272.8L141.5 250.6L133.4 235.7L133.9 211.1Z" fill="#A9C180" stroke="#1D1D1B" stroke-miterlimit="10"/>
</g>
<g clip-path="url(#clip3_733_4703)">
<path d="M278.2 291.2C277.5 278.8 281.6 253.3 281.6 253.3L271.8 250.1C268.5 262.2 269.4 282.3 269.6 292.1C269.7 295.2 268.9 299.3 268.9 299.3C268.9 299.3 267.8 307.3 269.7 310.5C269.9 310.8 270.5 311.4 271.1 310.6C271.1 310.5 271.1 309.8 271.1 310.3C271.1 310.3 271.1 311.4 271.9 311.4C272.4 311.4 272.6 311 272.7 310.8C272.7 310.7 272.7 310.5 272.7 310.9C272.7 311.3 272.9 311.5 273.4 311.5C274.2 311.5 274.4 310.5 274.4 310.5C274.5 311 275 311 275 311C275.4 311.1 275.7 310.8 275.7 310.8C277 309.6 278.1 302.2 278.1 302.2C278.1 302.2 279.7 305.1 280.6 304.7C282 304 279.5 296.4 279.5 296.4C279.5 295.5 278.2 292.4 278.2 291.2Z" fill="#F8E8DB" stroke="black" stroke-linecap="square" stroke-linejoin="round"/>
<path d="M313.5 211.1C313.5 211.1 314.3 220.1 316.3 220.1L309.3 231.1L298.3 225.1L299.3 220.1C299.3 220.1 302.4 217.7 300.8 212.4" fill="#F8E8DB"/>
<path d="M313.5 211.1C313.5 211.1 314.3 220.1 316.3 220.1L309.3 231.1L298.3 225.1L299.3 220.1C299.3 220.1 302.4 217.7 300.8 212.4" stroke="black" stroke-linecap="square" stroke-linejoin="round"/>
<path d="M290.7 448.7V464.2H242.4L268.7 448.7H290.7Z" fill="#A9C180" stroke="#1D1D1B" stroke-width="0.75" stroke-miterlimit="10"/>
<path d="M255.4 454.5C255.4 454.5 259 454.7 261.4 453.1" stroke="black" stroke-width="0.75" stroke-miterlimit="10"/>
<path d="M328.7 448.6V464.1H377L350.7 448.6H328.7Z" fill="#A9C180" stroke="#1D1D1B" stroke-width="0.75" stroke-miterlimit="10"/>
<path d="M286.8 273.8L331.8 273.2L364.2 452.9H325L309.3 313.6L294.1 452.9H257.5L286.8 273.8Z" fill="#4669AA" stroke="black" stroke-miterlimit="10"/>
<path d="M359.5 452.8C359.5 452.8 367 446.7 366.4 449.9C366 451.7 359.5 452.8 359.5 452.8Z" fill="#FAF2EA" stroke="black" stroke-width="0.75" stroke-miterlimit="10"/>
<path d="M366.1 454.8C366.1 454.8 360.5 454.7 358.2 453" stroke="black" stroke-width="0.75" stroke-miterlimit="10"/>
<path d="M315.7 219.7C332.1 220.7 338.6 225 338.6 225C337.4 238.8 331.9 273.2 331.9 273.2L286.8 273.8L280.5 223.9C288.1 220.7 291.9 220.7 299.6 219.9L303.5 226.3C305.4 229.4 309.9 229.4 311.7 226.3L315.7 219.7Z" fill="#EFA9C7" stroke="#1D1D1B" stroke-miterlimit="10"/>
<path d="M324.7 276.1C324.7 276.1 323.7 287.7 335.1 291.4" stroke="#1D1D1B" stroke-miterlimit="10"/>
<path d="M294.5 276.1C294.5 276.1 295.5 287.7 284.1 291.4" stroke="#1D1D1B" stroke-miterlimit="10"/>
<path d="M280.4 224C280.4 224 273.8 226.7 271.1 235.4L267.8 262.2L265 285.3L281 285.5L282.4 264.8L283.5 248.5C283.5 248.4 280.4 223.9 280.4 224Z" fill="#EFA9C7" stroke="#1D1D1B" stroke-miterlimit="10"/>
<path d="M272.7 311C272.7 311 272.5 308.3 273.1 306.7Z" fill="white"/>
<path d="M272.7 311C272.7 311 272.5 308.3 273.1 306.7" stroke="black" stroke-miterlimit="10"/>
<path d="M271.1 310.6C271.1 310.6 270.7 308 271.3 306.4Z" fill="white"/>
<path d="M271.1 310.6C271.1 310.6 270.7 308 271.3 306.4" stroke="black" stroke-miterlimit="10"/>
<path d="M274.5 310.7C274.5 310.7 274.3 308 274.9 306.4Z" fill="white"/>
<path d="M274.5 310.7C274.5 310.7 274.3 308 274.9 306.4" stroke="black" stroke-miterlimit="10"/>
<path d="M260.8 452.8C260.8 452.8 254 447.5 253.7 450.2C253.5 452 260.8 452.8 260.8 452.8Z" fill="#FAF2EA" stroke="black" stroke-width="0.75" stroke-miterlimit="10"/>
<path d="M292 199C294.54 199 296.6 196.941 296.6 194.4C296.6 191.86 294.54 189.8 292 189.8C289.459 189.8 287.4 191.86 287.4 194.4C287.4 196.941 289.459 199 292 199Z" fill="black"/>
<path d="M292 202.4C293.822 202.4 295.3 200.923 295.3 199.1C295.3 197.278 293.822 195.8 292 195.8C290.177 195.8 288.7 197.278 288.7 199.1C288.7 200.923 290.177 202.4 292 202.4Z" fill="black"/>
<path d="M294.6 206C296.423 206 297.9 204.523 297.9 202.7C297.9 200.877 296.423 199.4 294.6 199.4C292.778 199.4 291.3 200.877 291.3 202.7C291.3 204.523 292.778 206 294.6 206Z" fill="black"/>
<path d="M321.3 201.8C323.123 201.8 324.6 200.322 324.6 198.5C324.6 196.677 323.123 195.2 321.3 195.2C319.477 195.2 318 196.677 318 198.5C318 200.322 319.477 201.8 321.3 201.8Z" fill="black"/>
<path d="M322.5 198.5C324.322 198.5 325.8 197.023 325.8 195.2C325.8 193.377 324.322 191.9 322.5 191.9C320.677 191.9 319.2 193.377 319.2 195.2C319.2 197.023 320.677 198.5 322.5 198.5Z" fill="black"/>
<path d="M321.3 196.4C323.123 196.4 324.6 194.923 324.6 193.1C324.6 191.278 323.123 189.8 321.3 189.8C319.477 189.8 318 191.278 318 193.1C318 194.923 319.477 196.4 321.3 196.4Z" fill="#1D1D1B"/>
<path d="M320.2 191.6C322.022 191.6 323.5 190.123 323.5 188.3C323.5 186.477 322.022 185 320.2 185C318.377 185 316.9 186.477 316.9 188.3C316.9 190.123 318.377 191.6 320.2 191.6Z" fill="#1D1D1B"/>
<path d="M291.4 193.4C293.885 193.4 295.9 191.385 295.9 188.9C295.9 186.415 293.885 184.4 291.4 184.4C288.915 184.4 286.9 186.415 286.9 188.9C286.9 191.385 288.915 193.4 291.4 193.4Z" fill="black"/>
<path d="M320.1 191.1C322.585 191.1 324.6 189.085 324.6 186.6C324.6 184.115 322.585 182.1 320.1 182.1C317.615 182.1 315.6 184.115 315.6 186.6C315.6 189.085 317.615 191.1 320.1 191.1Z" fill="black"/>
<path d="M311.1 183C313.585 183 315.6 180.985 315.6 178.5C315.6 176.015 313.585 174 311.1 174C308.615 174 306.6 176.015 306.6 178.5C306.6 180.985 308.615 183 311.1 183Z" fill="black"/>
<path d="M299.1 184.3C301.585 184.3 303.6 182.285 303.6 179.8C303.6 177.315 301.585 175.3 299.1 175.3C296.615 175.3 294.6 177.315 294.6 179.8C294.6 182.285 296.615 184.3 299.1 184.3Z" fill="black"/>
<path d="M295.8 187C298.34 187 300.4 184.941 300.4 182.4C300.4 179.86 298.34 177.8 295.8 177.8C293.259 177.8 291.2 179.86 291.2 182.4C291.2 184.941 293.259 187 295.8 187Z" fill="black"/>
<path d="M292 188.9C293.822 188.9 295.3 187.423 295.3 185.6C295.3 183.778 293.822 182.3 292 182.3C290.177 182.3 288.7 183.778 288.7 185.6C288.7 187.423 290.177 188.9 292 188.9Z" fill="black"/>
<path d="M294.8 186.2C296.623 186.2 298.1 184.723 298.1 182.9C298.1 181.077 296.623 179.6 294.8 179.6C292.977 179.6 291.5 181.077 291.5 182.9C291.5 184.723 292.977 186.2 294.8 186.2Z" fill="black"/>
<path d="M315.7 183.1C317.522 183.1 319 181.623 319 179.8C319 177.977 317.522 176.5 315.7 176.5C313.877 176.5 312.4 177.977 312.4 179.8C312.4 181.623 313.877 183.1 315.7 183.1Z" fill="black"/>
<path d="M318.9 187.1C320.723 187.1 322.2 185.623 322.2 183.8C322.2 181.977 320.723 180.5 318.9 180.5C317.078 180.5 315.6 181.977 315.6 183.8C315.6 185.623 317.078 187.1 318.9 187.1Z" fill="black"/>
<path d="M292.9 195.4C292.9 195.4 289.1 194.8 290.4 199.3C290.4 199.3 291.1 201.9 293.8 203.3" fill="#F8E8DB"/>
<path d="M292.9 195.4C292.9 195.4 289.1 194.8 290.4 199.3C290.4 199.3 291.1 201.9 293.8 203.3" stroke="black" stroke-linecap="square" stroke-linejoin="round"/>
<path d="M320.8 195.4C320.8 195.4 324.6 194.6 323.4 199.2C323.4 199.2 322.8 201.8 320.2 203.3" fill="#F8E8DB"/>
<path d="M320.8 195.4C320.8 195.4 324.6 194.6 323.4 199.2C323.4 199.2 322.8 201.8 320.2 203.3" stroke="black" stroke-linecap="square" stroke-linejoin="round"/>
<path d="M306.7 177.7C302.6 177.7 293.8 178.8 292.8 188.9C292.8 188.9 292 202.7 295.8 209.1C297.9 212.6 301.2 216.2 306.7 216.2C311.9 216.2 315.9 212.5 318 209C319.2 207 321.3 203.5 320.5 188.6C320.6 188.6 320.6 177.7 306.7 177.7Z" fill="#F8E8DB" stroke="black" stroke-linecap="square" stroke-linejoin="round"/>
<path d="M297.1 185.6C298.923 185.6 300.4 184.123 300.4 182.3C300.4 180.477 298.923 179 297.1 179C295.278 179 293.8 180.477 293.8 182.3C293.8 184.123 295.278 185.6 297.1 185.6Z" fill="black"/>
<path d="M294.8 189.8C296.623 189.8 298.1 188.322 298.1 186.5C298.1 184.677 296.623 183.2 294.8 183.2C292.977 183.2 291.5 184.677 291.5 186.5C291.5 188.322 292.977 189.8 294.8 189.8Z" fill="black"/>
<path d="M293.8 194.3C295.623 194.3 297.1 192.822 297.1 191C297.1 189.177 295.623 187.7 293.8 187.7C291.977 187.7 290.5 189.177 290.5 191C290.5 192.822 291.977 194.3 293.8 194.3Z" fill="black"/>
<path d="M310 186.5C311.491 186.5 312.7 185.291 312.7 183.8C312.7 182.309 311.491 181.1 310 181.1C308.509 181.1 307.3 182.309 307.3 183.8C307.3 185.291 308.509 186.5 310 186.5Z" fill="black"/>
<path d="M314.5 187.7C315.991 187.7 317.2 186.491 317.2 185C317.2 183.509 315.991 182.3 314.5 182.3C313.009 182.3 311.8 183.509 311.8 185C311.8 186.491 313.009 187.7 314.5 187.7Z" fill="black"/>
<path d="M296.1 191C297.757 191 299.1 189.657 299.1 188C299.1 186.343 297.757 185 296.1 185C294.443 185 293.1 186.343 293.1 188C293.1 189.657 294.443 191 296.1 191Z" fill="black"/>
<path d="M311.3 181.7C312.791 181.7 314 180.491 314 179C314 177.509 312.791 176.3 311.3 176.3C309.809 176.3 308.6 177.509 308.6 179C308.6 180.491 309.809 181.7 311.3 181.7Z" fill="black"/>
<path d="M299.1 188.9C300.923 188.9 302.4 187.423 302.4 185.6C302.4 183.778 300.923 182.3 299.1 182.3C297.278 182.3 295.8 183.778 295.8 185.6C295.8 187.423 297.278 188.9 299.1 188.9Z" fill="black"/>
<path d="M302 186.7C303.822 186.7 305.3 185.223 305.3 183.4C305.3 181.577 303.822 180.1 302 180.1C300.177 180.1 298.7 181.577 298.7 183.4C298.7 185.223 300.177 186.7 302 186.7Z" fill="black"/>
<path d="M316.8 187.1C318.623 187.1 320.1 185.623 320.1 183.8C320.1 181.977 318.623 180.5 316.8 180.5C314.977 180.5 313.5 181.977 313.5 183.8C313.5 185.623 314.977 187.1 316.8 187.1Z" fill="black"/>
<path d="M319.2 191C321.022 191 322.5 189.523 322.5 187.7C322.5 185.877 321.022 184.4 319.2 184.4C317.377 184.4 315.9 185.877 315.9 187.7C315.9 189.523 317.377 191 319.2 191Z" fill="black"/>
<path d="M303.3 181.8C305.123 181.8 306.6 180.322 306.6 178.5C306.6 176.677 305.123 175.2 303.3 175.2C301.477 175.2 300 176.677 300 178.5C300 180.322 301.477 181.8 303.3 181.8Z" fill="black"/>
<path d="M301.1 183.4C302.923 183.4 304.4 181.923 304.4 180.1C304.4 178.278 302.923 176.8 301.1 176.8C299.278 176.8 297.8 178.278 297.8 180.1C297.8 181.923 299.278 183.4 301.1 183.4Z" fill="black"/>
<path d="M313.5 184.2C315.322 184.2 316.8 182.723 316.8 180.9C316.8 179.077 315.322 177.6 313.5 177.6C311.677 177.6 310.2 179.077 310.2 180.9C310.2 182.723 311.677 184.2 313.5 184.2Z" fill="black"/>
<path d="M307.7 182.3C309.522 182.3 311 180.822 311 179C311 177.177 309.522 175.7 307.7 175.7C305.877 175.7 304.4 177.177 304.4 179C304.4 180.822 305.877 182.3 307.7 182.3Z" fill="black"/>
<path d="M305.6 185.6C307.423 185.6 308.9 184.123 308.9 182.3C308.9 180.477 307.423 179 305.6 179C303.778 179 302.3 180.477 302.3 182.3C302.3 184.123 303.778 185.6 305.6 185.6Z" fill="black"/>
<path d="M301.6 197C302.042 197 302.4 196.642 302.4 196.2C302.4 195.758 302.042 195.4 301.6 195.4C301.158 195.4 300.8 195.758 300.8 196.2C300.8 196.642 301.158 197 301.6 197Z" fill="#1D1D1B"/>
<path d="M303.3 191.8L300.8 192.1" stroke="#1D1D1B" stroke-miterlimit="10"/>
<path d="M313.5 197C313.942 197 314.3 196.642 314.3 196.2C314.3 195.758 313.942 195.4 313.5 195.4C313.058 195.4 312.7 195.758 312.7 196.2C312.7 196.642 313.058 197 313.5 197Z" fill="#1D1D1B"/>
<path d="M311.9 191.8L314.3 192.1" stroke="#1D1D1B" stroke-miterlimit="10"/>
<path d="M307.5 198.5L306.7 204.7L308.7 205.1" stroke="#1D1D1B" stroke-miterlimit="10"/>
<path d="M312.1 208.9C307.1 211.8 303 208.9 303 208.9" stroke="#1D1D1B" stroke-miterlimit="10"/>
<path d="M322.5 195.4C324.543 195.4 326.2 193.743 326.2 191.7C326.2 189.657 324.543 188 322.5 188C320.457 188 318.8 189.657 318.8 191.7C318.8 193.743 320.457 195.4 322.5 195.4Z" fill="black"/>
<path d="M299.6 193.3H303.2C304.5 193.3 305.6 194.4 305.6 195.7C305.6 198 303.7 199.9 301.4 199.9C299.1 199.9 297.2 198 297.2 195.7C297.3 194.4 298.3 193.3 299.6 193.3Z" stroke="black" stroke-miterlimit="10"/>
<path d="M311.7 193.3H315.3C316.6 193.3 317.7 194.4 317.7 195.7C317.7 198 315.8 199.9 313.5 199.9C311.2 199.9 309.3 198 309.3 195.7C309.3 194.4 310.4 193.3 311.7 193.3Z" stroke="black" stroke-miterlimit="10"/>
<path d="M305.6 196.3C305.6 196.3 307.8 195.8 309.3 196.3" stroke="#1D1D1B" stroke-width="0.75" stroke-miterlimit="10"/>
<path d="M292.9 195.4L297.3 196.2" stroke="black" stroke-miterlimit="10"/>
<path d="M322 195.3L317.6 196.2" stroke="black" stroke-width="0.75" stroke-miterlimit="10"/>
<path d="M325.8 282.9C325.8 282.9 328.3 275.8 331.8 276.2L339.2 282.6C339.2 282.6 337.1 290.5 331.3 289.6C331.3 289.5 327.2 287.1 325.8 282.9Z" fill="#F8E8DB" stroke="black" stroke-linecap="square" stroke-linejoin="round"/>
<path d="M338.6 225C338.6 225 342.7 227.3 345.7 235L351.1 262.5L342.7 289.8L326.2 275.6L338.6 260L335.7 247.9L338.6 225Z" fill="#EFA9C7" stroke="#1D1D1B" stroke-miterlimit="10"/>
</g>
<g clip-path="url(#clip4_733_4703)">
<path d="M157.8 231.4L165.5 238.8L174.8 232.3C172.6 231.4 173.7 224.6 173.7 224.6" fill="#F8E8DB"/>
<path d="M157.8 231.4L165.5 238.8L174.8 232.3C172.6 231.4 173.7 224.6 173.7 224.6" stroke="#1D1D1B" stroke-miterlimit="10"/>
<path d="M157.8 231.4C157.8 231.4 158.5 228.6 157.8 225.3L165 223.4L173.7 224.7" fill="#F8E8DB"/>
<path d="M157.8 231.4C157.8 231.4 158.5 228.6 157.8 225.3L165 223.4L173.7 224.7" stroke="#1D1D1B" stroke-miterlimit="10"/>
<path d="M202.5 253.3L213.3 264.2L199.4 280.3L214.5 289.6L229.2 263C229.2 263 225.3 254.2 216.3 246.5C207.8 239.1 202.4 236.4 202.4 236.4" fill="#F0AAC8"/>
<path d="M202.5 253.3L213.3 264.2L199.4 280.3L214.5 289.6L229.2 263C229.2 263 225.3 254.2 216.3 246.5C207.8 239.1 202.4 236.4 202.4 236.4" stroke="black" stroke-miterlimit="10"/>
<path d="M210.5 287L208.8 291.1L213.2 294.8C213.2 294.8 215.3 296.6 215.1 297.4C215 297.7 214.8 298.5 213 297.9L200.8 292.5L204.5 283.3L210.5 287Z" fill="#F8E8DB" stroke="black" stroke-miterlimit="10"/>
<path d="M138.9 458.8V474.1H90.8L117 458.8H138.9Z" fill="#AAC280" stroke="#1D1D1B" stroke-miterlimit="10"/>
<path d="M186.8 458.8V474.1H234.9L208.7 458.8H186.8Z" fill="#AAC280" stroke="#1D1D1B" stroke-miterlimit="10"/>
<path d="M131.5 295.5L203.4 294.6L222.2 463.1H183.2L167.5 324.5L142.5 463.1H106.1L131.5 295.5Z" fill="#4669AA" stroke="black" stroke-miterlimit="10"/>
<path d="M109.2 462.9C109.2 462.9 102.4 457.6 102.1 460.4C101.9 462.1 109.2 462.9 109.2 462.9Z" fill="#FBF3EB" stroke="black" stroke-miterlimit="10"/>
<path d="M103.8 464.5C103.8 464.5 107.4 464.7 109.7 463.1" stroke="black" stroke-miterlimit="10"/>
<path d="M216.4 462.9C216.4 462.9 223.9 456.9 223.3 460C223 461.8 216.4 462.9 216.4 462.9Z" fill="#FBF3EB" stroke="black" stroke-miterlimit="10"/>
<path d="M224.1 464.9C224.1 464.9 218.6 464.8 216.2 463.2" stroke="black" stroke-miterlimit="10"/>
<path d="M133.8 253.7L121.8 265.3L135.7 281.4L120.6 290.7L105.9 264C105.9 264 109.8 255.2 118.8 247.5C127 240.5 134.8 237.1 134.8 237.1" fill="#F0AAC8"/>
<path d="M133.8 253.7L121.8 265.3L135.7 281.4L120.6 290.7L105.9 264C105.9 264 109.8 255.2 118.8 247.5C127 240.5 134.8 237.1 134.8 237.1" stroke="black" stroke-miterlimit="10"/>
<path d="M124.6 288.1L126.3 292.2L121.9 295.9C121.9 295.9 119.8 297.7 120 298.5C120.1 298.8 120.3 299.6 122.1 299L134.3 293.6L130.6 284.4L124.6 288.1Z" fill="#F8E8DB" stroke="black" stroke-miterlimit="10"/>
<path d="M173.9 231.1C190.3 232 202.5 236.1 202.5 236.1C202.2 250 203.5 294.4 203.5 294.4L131.6 295.3L134.9 237C142.4 233.8 150.2 232.2 157.8 231.5L165.8 236.3L173.9 231.1Z" fill="#F0AAC8" stroke="black" stroke-miterlimit="10"/>
<path d="M157.8 231.4L165.6 236L161.5 238.8L155.3 231.7L157.8 231.4Z" fill="#F0AAC8" stroke="black" stroke-miterlimit="10"/>
<path d="M165.7 236V295.1" stroke="#1D1D1B" stroke-miterlimit="10"/>
<path d="M173.9 231.1L166.1 236L170.2 238.8L176.6 231.3L173.9 231.1Z" fill="#F0AAC8" stroke="black" stroke-miterlimit="10"/>
<path d="M168.3 249.4C168.742 249.4 169.1 249.042 169.1 248.6C169.1 248.158 168.742 247.8 168.3 247.8C167.858 247.8 167.5 248.158 167.5 248.6C167.5 249.042 167.858 249.4 168.3 249.4Z" stroke="#1D1D1B" stroke-miterlimit="10"/>
<path d="M168.3 272.8C168.742 272.8 169.1 272.442 169.1 272C169.1 271.558 168.742 271.2 168.3 271.2C167.858 271.2 167.5 271.558 167.5 272C167.5 272.442 167.858 272.8 168.3 272.8Z" stroke="#1D1D1B" stroke-miterlimit="10"/>
<path d="M168.3 261.1C168.742 261.1 169.1 260.742 169.1 260.3C169.1 259.858 168.742 259.5 168.3 259.5C167.858 259.5 167.5 259.858 167.5 260.3C167.5 260.742 167.858 261.1 168.3 261.1Z" stroke="#1D1D1B" stroke-miterlimit="10"/>
<path d="M168.3 284.4C168.742 284.4 169.1 284.042 169.1 283.6C169.1 283.158 168.742 282.8 168.3 282.8C167.858 282.8 167.5 283.158 167.5 283.6C167.5 284.042 167.858 284.4 168.3 284.4Z" stroke="#1D1D1B" stroke-miterlimit="10"/>
<path d="M165.4 185.9C160.4 185.9 149.5 187 148.3 197.6C148.3 197.6 146.2 215.1 152 221.7C153.4 223.3 156.1 225.7 164.3 226.1C167.6 226.3 175 225.2 178.7 222C181.4 219.7 184.2 214.6 182.4 197.3C182.4 197.3 182.4 185.9 165.4 185.9Z" fill="#F8E8DB" stroke="#1D1D1B" stroke-miterlimit="10"/>
<path d="M164.8 205.1L163.9 211.5L166 212" stroke="#1D1D1B" stroke-miterlimit="10"/>
<path d="M148 202.7C148 202.7 144 201.7 144.9 206.5C144.9 206.5 145.6 209.6 148.7 211.2" fill="#F8E8DB"/>
<path d="M148 202.7C148 202.7 144 201.7 144.9 206.5C144.9 206.5 145.6 209.6 148.7 211.2" stroke="#1D1D1B" stroke-miterlimit="10"/>
<path d="M156.8 204.5C157.242 204.5 157.6 204.142 157.6 203.7C157.6 203.258 157.242 202.9 156.8 202.9C156.358 202.9 156 203.258 156 203.7C156 204.142 156.358 204.5 156.8 204.5Z" fill="#1D1D1B"/>
<path d="M173.8 204.5C174.242 204.5 174.6 204.142 174.6 203.7C174.6 203.258 174.242 202.9 173.8 202.9C173.358 202.9 173 203.258 173 203.7C173 204.142 173.358 204.5 173.8 204.5Z" fill="#1D1D1B"/>
<path d="M173.1 198.7L175.6 199.9" stroke="#1D1D1B" stroke-miterlimit="10"/>
<path d="M158.5 199.6L156 199.9" stroke="#1D1D1B" stroke-miterlimit="10"/>
<path d="M161.7 184.5C161.7 184.5 165.4 186.2 165.5 187.8" stroke="black" stroke-miterlimit="10"/>
<path d="M165.4 184.8C165.4 184.8 167.5 186.4 167 187.7" stroke="black" stroke-miterlimit="10"/>
<path d="M182.7 202.7C182.7 202.7 186.6 201.4 186.1 206.2C186.1 206.2 185.8 209.2 182.8 211.1" fill="#F8E8DB"/>
<path d="M182.7 202.7C182.7 202.7 186.6 201.4 186.1 206.2C186.1 206.2 185.8 209.2 182.8 211.1" stroke="#1D1D1B" stroke-miterlimit="10"/>
<path d="M179.8 194.6C182.7 203.4 181.6 209.5 180.3 213C179.7 214.8 177.9 215.9 176 215.6C173.4 215.2 169.5 214.2 164.4 214.2C162.3 214.2 157.3 215.3 154.1 215.7C152.3 215.9 150.6 214.7 150.2 212.9C148.7 205.4 149.5 199.1 151.1 194.6C151.9 192.2 150 192.2 150 192.2C149 193.7 148.3 195.5 148.1 197.7C148.1 197.7 146 215.2 151.8 221.8C153.2 223.4 155.9 225.8 164.1 226.2C167.4 226.4 174.8 225.3 178.5 222.1C181.2 219.8 184 214.7 182.2 197.4C182.2 197.4 182.2 194.8 180.3 192.1C180.5 192 179.1 192.3 179.8 194.6Z" fill="#1D1D1B"/>
<path d="M163.2 219.7C163.2 219.7 164 221.1 166.5 220.7C167.6 220.5 168.4 220 169.8 218.8" stroke="#F8E8DB" stroke-miterlimit="10"/>
</g>
<g clip-path="url(#clip5_733_4703)">
<path d="M253.3 245.7C251.1 244.8 252.2 238 252.2 238L244.1 234.9L236.3 238.5C236.3 238.5 237.5 243.2 235.8 246.3L243.9 257.3L253.3 245.7Z" fill="#F8E8DB" stroke="#1D1E1C" stroke-miterlimit="10"/>
<path d="M233.2 471.1V486.4H185.4L211.4 471.1H233.2Z" fill="#AAC280" stroke="#1D1D1B" stroke-miterlimit="10"/>
<path d="M258.5 471.1V486.4H306.3L280.3 471.1H258.5Z" fill="#AAC280" stroke="#1D1D1B" stroke-miterlimit="10"/>
<path d="M217.4 308.5L274.5 307.7L293.7 475.4H254.8L246.1 337.4L236.9 475.4H200.6L217.4 308.5Z" fill="#4669AA" stroke="black" stroke-miterlimit="10"/>
<path d="M203.6 475.2C203.6 475.2 196.8 469.9 196.5 472.7C196.4 474.4 203.6 475.2 203.6 475.2Z" fill="#FBF3EB" stroke="black" stroke-miterlimit="10"/>
<path d="M198.3 476.8C198.3 476.8 201.9 477 204.2 475.4" stroke="black" stroke-miterlimit="10"/>
<path d="M288 475.2C288 475.2 295.4 469.2 294.8 472.4C294.5 474.2 288 475.2 288 475.2Z" fill="#FBF3EB" stroke="black" stroke-miterlimit="10"/>
<path d="M295.6 477.2C295.6 477.2 290.1 477.1 287.8 475.5" stroke="black" stroke-miterlimit="10"/>
<path d="M252.4 244.5C268.7 245.4 275.8 249.6 275.8 249.6C275.5 263.4 274.5 307.7 274.5 307.7L217.4 308.5L215.9 249.3C223.4 246.1 228.8 245.5 236.4 244.7L244.1 254.2L252.4 244.5Z" fill="#AAC280" stroke="#1D1D1B" stroke-miterlimit="10"/>
<path d="M275.8 249.6C275.8 249.6 282.2 252.2 284.8 260.8L295.9 292L288.7 326.1L272.2 311.9L283.4 289.5L275.2 274.5C275.2 274.4 275.8 249.6 275.8 249.6Z" fill="#AAC280" stroke="#1D1D1B" stroke-miterlimit="10"/>
<path d="M266.7 313.8C266.7 313.8 265.7 325.3 277 328.9" stroke="#1D1D1B" stroke-miterlimit="10"/>
<path d="M225.6 313.3C225.6 313.3 226.6 324.8 215.3 328.4" stroke="#1D1D1B" stroke-miterlimit="10"/>
<path d="M268.3 321.3C268.3 321.3 271.1 313.5 274.6 313.8L282 320.2C282 320.2 279.9 328.1 274.1 327.2C274.1 327.2 269.8 325.6 268.3 321.3Z" fill="#F8E8DB" stroke="#1D1E1C" stroke-miterlimit="10"/>
<path d="M215.9 249.3C215.9 249.3 209.5 251.9 206.9 260.5L199.1 294.1L192.4 324.7L211.8 321.8L213.7 294.1L216.4 274.1L215.9 249.3Z" fill="#AAC280" stroke="#1D1D1B" stroke-miterlimit="10"/>
<path d="M198.6 336.6C199.4 336.7 199.7 335.8 199.7 335.8C199.8 336.3 200.2 336.4 200.2 336.4C200.6 336.5 200.9 336.3 200.9 336.3C202.3 335.3 204.3 328.2 204.3 328.2C204.3 328.2 205.5 331.3 206.5 331C208 330.5 206.5 322.7 206.5 322.7L195.7 324.3C195.7 324.3 193.6 332 195.1 335.4C195.2 335.7 195.7 336.4 196.5 335.6C196.6 335.5 196.6 334.8 196.6 335.3C196.6 335.3 196.5 336.4 197.2 336.4C197.7 336.4 197.9 336.1 198 335.9C198.1 335.8 198 335.6 198 336C198 336.4 198.1 336.5 198.6 336.6Z" fill="#F8E8DB" stroke="#1D1E1C" stroke-miterlimit="10"/>
<path d="M198 336.1C198 336.1 198.2 333.4 198.9 331.9Z" fill="white"/>
<path d="M198 336.1C198 336.1 198.2 333.4 198.9 331.9" stroke="#1D1D1B" stroke-miterlimit="10"/>
<path d="M196.6 335.5C196.6 335.5 196.6 332.9 197.3 331.4Z" fill="white"/>
<path d="M196.6 335.5C196.6 335.5 196.6 332.9 197.3 331.4" stroke="#1D1D1B" stroke-miterlimit="10"/>
<path d="M199.7 335.8C199.7 335.8 199.9 333.1 200.6 331.6Z" fill="white"/>
<path d="M199.7 335.8C199.7 335.8 199.9 333.1 200.6 331.6" stroke="#1D1D1B" stroke-miterlimit="10"/>
<path d="M229.2 218.4C229.2 218.4 225.1 217.7 226.6 222.5C226.6 222.5 227.4 225.2 230.2 226.6" fill="#F8E8DB"/>
<path d="M229.2 218.4C229.2 218.4 225.1 217.7 226.6 222.5C226.6 222.5 227.4 225.2 230.2 226.6" stroke="#1D1E1C" stroke-miterlimit="10"/>
<path d="M229.2 218.4C229.2 218.4 225.1 217.7 226.6 222.5C226.6 222.5 227.4 225.2 230.2 226.6" stroke="#1D1E1C" stroke-width="0.25" stroke-miterlimit="10"/>
<path d="M258.9 218.4C258.9 218.4 262.9 217.6 261.7 222.4C261.7 222.4 261 225.2 258.3 226.7" fill="#F8E8DB"/>
<path d="M258.9 218.4C258.9 218.4 262.9 217.6 261.7 222.4C261.7 222.4 261 225.2 258.3 226.7" stroke="#1D1E1C" stroke-width="0.75" stroke-miterlimit="10"/>
<path d="M258.9 218.4C258.9 218.4 262.9 217.6 261.7 222.4C261.7 222.4 261 225.2 258.3 226.7" stroke="#1D1E1C" stroke-miterlimit="10"/>
<path d="M243.9 201C239.6 201 230.2 202.1 229.2 212.7C229.2 212.7 228.3 227.1 232.4 233.8C234.6 237.4 238.1 241.3 244 241.3C249.5 241.3 253.8 237.4 256 233.8C257.3 231.7 259.5 228.1 258.7 212.4C258.6 212.4 258.6 201 243.9 201Z" fill="#F8E8DB" stroke="#1D1E1C" stroke-miterlimit="10"/>
<path d="M237.6 219.7C238.1 219.7 238.4 219.3 238.4 218.9C238.4 218.5 238 218.1 237.6 218.1C237.2 218.1 236.8 218.5 236.8 218.9C236.8 219.3 237.1 219.7 237.6 219.7Z" fill="#1D1E1C"/>
<path d="M239.3 214.8L236.7 215.1" stroke="#1D1E1C" stroke-miterlimit="10"/>
<path d="M250.2 219.7C250.6 219.7 251 219.3 251 218.9C251 218.5 250.6 218.1 250.2 218.1C249.8 218.1 249.4 218.5 249.4 218.9C249.4 219.3 249.8 219.7 250.2 219.7Z" fill="#1D1E1C"/>
<path d="M248.5 214.8L251.1 215.1" stroke="#1D1E1C" stroke-miterlimit="10"/>
<path d="M243.9 221.4L243 227.9L245.1 228.3" stroke="#1D1E1C" stroke-miterlimit="10"/>
<path d="M239.1 232.2C239.1 232.2 243.7 237.4 248.8 232.2" stroke="#1D1E1C" stroke-miterlimit="10"/>
<path d="M228.9 217.7C228.9 217.7 228.9 213.7 228.5 210.4C228.4 209.4 226.8 208.1 229.3 206.4C229.3 206.4 230.2 205.9 229.8 204.7C229.8 204.7 229.5 202.1 232.3 201.7C232.3 201.7 233.6 201.7 234.3 200.6C234.3 200.6 234.3 196.5 238.1 195.9C238.1 195.9 239.8 195.8 242 197.6C242 197.6 244.1 199.2 246.7 198.4C246.7 198.4 251.6 195.8 255.8 198.7C255.8 198.7 258.6 200.1 257.3 204.1C257.3 204.1 257 205 258.1 205.6C258.1 205.6 260 207 259.3 209.9C258.9 211.7 259.2 216.7 258.9 218.2L255.6 209.5C255.6 209.5 254.6 207 251.5 207.9C251.5 207.9 244.9 209.5 241.7 207.4C241.7 207.4 238.2 204.5 235.9 205.5C235.9 205.5 233.6 206.1 232.9 209C232.3 211.5 230.1 214.9 228.9 217.7Z" fill="#1D1E1C"/>
<path d="M228.7 226.8C229.2 226.8 229.5 226.4 229.5 226C229.5 225.6 229.1 225.2 228.7 225.2C228.3 225.2 227.9 225.6 227.9 226C227.9 226.4 228.3 226.8 228.7 226.8Z" fill="#1D1E1C"/>
<path d="M259.2 226.8C259.6 226.8 260 226.4 260 226C260 225.6 259.6 225.2 259.2 225.2C258.8 225.2 258.4 225.6 258.4 226C258.4 226.4 258.8 226.8 259.2 226.8Z" fill="#1D1E1C"/>
</g>
<g clip-path="url(#clip6_733_4703)">
<path d="M444.4 301.5L439.4 305.3L442.8 308.7C442.8 308.7 444.5 310.4 444.1 311.5C444 311.8 443.1 312.8 441.3 311.6L432.1 304.4L438.4 297.9L444.4 301.5Z" fill="#F8E8DB" stroke="black" stroke-linecap="square" stroke-linejoin="round"/>
<path d="M375.2 269L363.3 280.2L377.7 295.7L362.8 304.9L347.6 278.9C347.6 278.9 351.5 270.3 360.3 262.6C368.7 255.3 374.1 252.6 374.1 252.6" fill="#FFE078"/>
<path d="M375.2 269L363.3 280.2L377.7 295.7L362.8 304.9L347.6 278.9C347.6 278.9 351.5 270.3 360.3 262.6C368.7 255.3 374.1 252.6 374.1 252.6" stroke="black" stroke-miterlimit="10"/>
<path d="M366.7 302.7L371.4 306.3L367.3 309.2C367.3 309.2 365.7 310.4 366 311.5C366.1 311.8 366.7 313 368.5 311.8L378.7 305.4L372.5 299L366.5 302.6L366.7 302.7Z" fill="#F8E8DB" stroke="black" stroke-linecap="square" stroke-linejoin="round"/>
<path d="M396.5 247.3L404.1 254.6L413.3 248.2C411.1 247.4 412.2 240.6 412.2 240.6L396.5 240.9C396.5 240.8 397.4 244.8 396.5 247.3Z" fill="#F8E8DB" stroke="black" stroke-linecap="square" stroke-linejoin="round"/>
<path d="M435.8 268.2L447.7 279.4L433.3 294.9L448.2 304.1L463.4 278.3C463.4 278.3 459.5 269.7 450.7 262C442.3 254.7 436.9 252 436.9 252" fill="#FFE078"/>
<path d="M435.8 268.2L447.7 279.4L433.3 294.9L448.2 304.1L463.4 278.3C463.4 278.3 459.5 269.7 450.7 262C442.3 254.7 436.9 252 436.9 252" stroke="black" stroke-miterlimit="10"/>
<path d="M377.8 471.9V487H330.4L356.2 471.9H377.8Z" fill="#A9C180" stroke="#1D1D1B" stroke-miterlimit="10"/>
<path d="M425.2 471.9V487H472.6L446.8 471.9H425.2Z" fill="#A9C180" stroke="#1D1D1B" stroke-miterlimit="10"/>
<path d="M378.7 310.3L431.3 309.8L460.1 476.1H421.6L404.1 338.7L381.5 476.1H345.5L378.7 310.3Z" fill="#4669AA" stroke="black" stroke-miterlimit="10"/>
<path d="M348.5 475.9C348.5 475.9 341.8 470.7 341.5 473.4C341.3 475.1 348.5 475.9 348.5 475.9Z" fill="#FAF2EA" stroke="black" stroke-miterlimit="10"/>
<path d="M343.2 477.5C343.2 477.5 346.7 477.7 349 476.1" stroke="black" stroke-miterlimit="10"/>
<path d="M454.4 475.9C454.4 475.9 461.8 469.9 461.2 473.1C460.9 474.9 454.4 475.9 454.4 475.9Z" fill="#FAF2EA" stroke="black" stroke-miterlimit="10"/>
<path d="M462 477.9C462 477.9 456.5 477.8 454.2 476.2" stroke="black" stroke-miterlimit="10"/>
<path d="M412.4 247C428.6 247.9 437 251.8 437 251.8C436.7 265.5 431.4 309.8 431.4 309.8L378.8 310.4L373.9 252.8C381.3 249.6 389 248 396.5 247.3L404.4 252.1L412.4 247Z" fill="#FFE078" stroke="black" stroke-miterlimit="10"/>
<path d="M396.5 247.3L404.2 251.8L400.2 254.6L394.1 247.5L396.5 247.3Z" fill="#FFE078" stroke="black" stroke-miterlimit="10"/>
<path d="M404.3 251.8V310.2" stroke="#1D1D1B" stroke-miterlimit="10"/>
<path d="M412.4 247L404.7 251.8L408.8 254.6L415.1 247.2L412.4 247Z" fill="#FFE078" stroke="black" stroke-miterlimit="10"/>
<path d="M406.9 265C407.342 265 407.7 264.642 407.7 264.2C407.7 263.758 407.342 263.4 406.9 263.4C406.458 263.4 406.1 263.758 406.1 264.2C406.1 264.642 406.458 265 406.9 265Z" stroke="#1D1D1B" stroke-miterlimit="10"/>
<path d="M406.9 288.2C407.342 288.2 407.7 287.842 407.7 287.4C407.7 286.958 407.342 286.6 406.9 286.6C406.458 286.6 406.1 286.958 406.1 287.4C406.1 287.842 406.458 288.2 406.9 288.2Z" stroke="#1D1D1B" stroke-miterlimit="10"/>
<path d="M406.9 276.6C407.342 276.6 407.7 276.242 407.7 275.8C407.7 275.358 407.342 275 406.9 275C406.458 275 406.1 275.358 406.1 275.8C406.1 276.242 406.458 276.6 406.9 276.6Z" stroke="#1D1D1B" stroke-miterlimit="10"/>
<path d="M406.9 299.6C407.342 299.6 407.7 299.242 407.7 298.8C407.7 298.358 407.342 298 406.9 298C406.458 298 406.1 298.358 406.1 298.8C406.1 299.242 406.458 299.6 406.9 299.6Z" stroke="#1D1D1B" stroke-miterlimit="10"/>
<path d="M388.5 221C388.5 221 384.2 220.3 385.7 225.3C385.7 225.3 386.5 228.2 389.5 229.7" fill="#F8E8DB"/>
<path d="M388.5 221C388.5 221 384.2 220.3 385.7 225.3C385.7 225.3 386.5 228.2 389.5 229.7" stroke="#1D1E1C" stroke-miterlimit="10"/>
<path d="M419.7 221C419.7 221 423.9 220.1 422.6 225.2C422.6 225.2 421.9 228.2 419 229.8" fill="#FBF2EB"/>
<path d="M419.7 221C419.7 221 423.9 220.1 422.6 225.2C422.6 225.2 421.9 228.2 419 229.8" fill="#F8E8DB"/>
<path d="M419.7 221C419.7 221 423.9 220.1 422.6 225.2C422.6 225.2 421.9 228.2 419 229.8" stroke="#1D1E1C" stroke-miterlimit="10"/>
<path d="M404 201.3C399.5 201.3 389.6 202.5 388.5 213.8C388.5 213.8 387.2 230.4 391.5 237.5C393.8 241.3 397.7 244.7 403.9 244.7C409.6 244.7 414.5 241.7 416.8 237.9C418.1 235.7 420.3 230.1 419.4 213.4C419.4 213.5 419.4 201.3 404 201.3Z" fill="#F8E8DB" stroke="#1D1E1C" stroke-width="0.27" stroke-miterlimit="10"/>
<path d="M397.3 222.5C397.8 222.5 398.1 222.1 398.1 221.6C398.1 221.1 397.7 220.7 397.3 220.7C396.9 220.7 396.5 221.1 396.5 221.6C396.5 222.1 396.8 222.5 397.3 222.5Z" fill="#1D1E1C"/>
<path d="M399.2 217.3L396.5 217.6" stroke="#1D1E1C" stroke-miterlimit="10"/>
<path d="M410.6 222.5C411.1 222.5 411.4 222.1 411.4 221.6C411.4 221.1 411 220.7 410.6 220.7C410.2 220.7 409.8 221.1 409.8 221.6C409.8 222.1 410.1 222.5 410.6 222.5Z" fill="#1D1E1C"/>
<path d="M408.8 217.3L411.5 217.6" stroke="#1D1E1C" stroke-miterlimit="10"/>
<path d="M403.9 224.3L403 231.2L405.2 231.6" stroke="#1D1E1C" stroke-miterlimit="10"/>
<path d="M398.9 235.8C398.9 235.8 403.5 239 409.1 235.8" stroke="#1D1E1C" stroke-width="0.28" stroke-miterlimit="10"/>
<path d="M417.6 215.2C418.7 219.3 417.9 226.6 416.6 230.2C416 232 414.5 234.3 412.6 234C410 233.6 408.9 233.1 403.7 233.1C401.5 233.1 398.6 233.4 395.3 233.8C393.4 234 391.6 232 391.3 230.2C389.8 222.5 389.8 218.6 390.5 215.3C391.4 211.5 389.3 210.4 389.3 210.4C388.4 212 388.6 214.9 388.5 216.3C388.5 216.3 387.4 233.6 393.2 239.9C394.7 241.5 397.3 244.4 403.2 244.9C406.6 245.2 410.1 244.6 414 241.4C417.2 238.9 420.4 235.4 419.4 213.6C419.4 213.6 419.2 212 418.8 210.4C418.8 210.3 416.7 211.9 417.6 215.2Z" fill="black"/>
<path d="M399 238.8C399 238.8 404.1 242.3 409.2 238.8" stroke="#F8E8DB" stroke-miterlimit="10"/>
<path d="M390.7 213.2C390.7 213.2 386.4 213.8 386.4 208.6C386.4 208.6 386 206.5 388.7 204.9C388.7 204.9 391 203.2 392.8 201.8C392.8 201.8 397.2 197 403.9 197.1C403.9 197.1 406 197.2 409.2 199C409.2 199 411.8 200.3 415.6 201.6C415.6 201.6 420.1 203.4 421 207.3C421 207.3 421.5 210.4 419.1 212.7L417.5 213.3C417.5 213.3 412.6 210.9 404.6 210.9C398 210.7 396.5 211.9 390.7 213.2Z" fill="black"/>
</g>
<path d="M10.0289 73.2737C10.0289 73.2737 -9.18111 76.3837 -5.54111 94.0337C-5.54111 94.0337 -2.17111 107.794 10.0289 108.314H85.2989C104.849 109.564 124.579 70.4037 83.4789 64.9637C83.4789 64.9637 76.7289 46.5337 58.0389 48.0937C58.0389 48.0937 42.4689 48.6137 37.7889 63.6637C37.7889 63.6637 29.2189 58.9937 20.3989 63.1437C20.3989 63.1437 11.0589 66.7737 10.0189 73.2637L10.0289 73.2737Z" fill="#F8E8DB" stroke="#1D1D1C" stroke-width="0.75" stroke-miterlimit="10"/>
<path d="M151.557 20.6852C151.557 20.6852 136.508 23.1075 139.36 36.8548C139.36 36.8548 142 47.5722 151.557 47.9772H210.524C225.84 48.9508 241.296 18.4498 209.098 14.2127C209.098 14.2127 203.81 -0.142052 189.169 1.073C189.169 1.073 176.971 1.47802 173.305 13.2002C173.305 13.2002 166.591 9.5628 159.681 12.7952C159.681 12.7952 152.364 15.6225 151.549 20.6774L151.557 20.6852Z" fill="#F8E8DB" stroke="#1D1D1C" stroke-width="0.75" stroke-miterlimit="10"/>
<path d="M374.492 79.9677C374.492 79.9677 394.276 83.1631 390.527 101.298C390.527 101.298 387.057 115.436 374.492 115.97H296.974C276.84 117.254 256.52 77.0189 298.848 71.4295C298.848 71.4295 305.8 52.4935 325.048 54.0963C325.048 54.0963 341.083 54.6306 345.903 70.0939C345.903 70.0939 354.729 65.2956 363.813 69.5596C363.813 69.5596 373.432 73.2892 374.503 79.9575L374.492 79.9677Z" fill="#F8E8DB" stroke="#1D1D1C" stroke-width="0.75" stroke-miterlimit="10"/>
<path d="M551.388 31.9937C551.388 31.9937 574.892 35.8076 570.439 57.4522C570.439 57.4522 566.315 74.3264 551.388 74.9641H459.294C435.374 76.497 411.234 28.4742 461.52 21.803C461.52 21.803 469.779 -0.798124 492.647 1.11494C492.647 1.11494 511.697 1.75263 517.423 20.2088C517.423 20.2088 527.909 14.4819 538.7 19.5711C538.7 19.5711 550.128 24.0227 551.401 31.9815L551.388 31.9937Z" fill="#F8E8DB" stroke="#1D1D1C" stroke-width="0.75" stroke-miterlimit="10"/>
<defs>
<clipPath id="clip0_733_4703">
<rect width="136.8" height="289.7" fill="white" transform="translate(309 156)"/>
</clipPath>
<clipPath id="clip1_733_4703">
<rect width="122.5" height="289.5" fill="white" transform="translate(162 150)"/>
</clipPath>
<clipPath id="clip2_733_4703">
<rect width="122.5" height="288" fill="white" transform="translate(43 158)"/>
</clipPath>
<clipPath id="clip3_733_4703">
<rect width="137.4" height="290.5" fill="white" transform="translate(241 174)"/>
</clipPath>
<clipPath id="clip4_733_4703">
<rect width="147.7" height="290.6" fill="white" transform="translate(89 184)"/>
</clipPath>
<clipPath id="clip5_733_4703">
<rect width="123.7" height="290.8" fill="white" transform="translate(184 196)"/>
</clipPath>
<clipPath id="clip6_733_4703">
<rect width="145" height="290.4" fill="white" transform="translate(329 197)"/>
</clipPath>
</defs>
</svg>
