<?xml version="1.0" encoding="UTF-8"?><svg id="Calque_1" xmlns="http://www.w3.org/2000/svg" viewBox="0 0 519.5 691.86"><defs><style>.cls-1{font-family:ArchivoRoman-Regular, Archivo;font-size:16px;font-variation-settings:'wght' 400, 'wdth' 100;}.cls-2{stroke-width:.97px;}.cls-2,.cls-3{stroke:#1d1d1b;}.cls-2,.cls-3,.cls-4,.cls-5{fill:#f8e8db;}.cls-2,.cls-3,.cls-4,.cls-5,.cls-6{stroke-miterlimit:10;}.cls-3,.cls-4{stroke-width:1px;}.cls-4,.cls-5,.cls-6{stroke:#000;}.cls-6{fill:#f0aac8;stroke-width:1.06px;}</style></defs><rect class="cls-6" x=".69" y=".53" width="518" height="572.03"/><path class="cls-2" d="M194.12,235.52v336.93h-28.95s0-16.36,0-16.36v-35.62h11.87s0-35.62,0-35.62h-11.87v-35.62h11.87s0-35.62,0-35.62h-11.87v-35.62h11.87s0-35.62,0-35.62h-11.87v-35.62h11.87s0-35.62,0-35.62h-11.87v-35.62s28.95.27,28.95.27c0,0,26.82-15.37,65.14-15.37,35.63,0,65.14,15.31,65.14,15.31v34.97s-123.34,1.91-123.34,1.91l-6.94-.18"/><path class="cls-3" d="M324.39,572.92l-130.28-.48v-303.36s20.9-15.85,64.9-15.85c40.91,0,65.38,16.04,65.38,16.04v303.65Z"/><polygon class="cls-2" points="324.4 235.52 324.4 572.44 353.35 572.44 353.35 556.09 353.35 520.47 341.48 520.47 341.48 484.85 353.35 484.85 353.35 449.23 341.48 449.23 341.48 413.61 353.35 413.61 353.35 377.99 341.48 377.99 341.48 342.37 353.35 342.37 353.35 306.76 341.48 306.76 341.48 271.14 353.35 271.14 353.35 235.52 324.4 235.52"/><rect class="cls-2" x="216.07" y="291.61" width="29.65" height="29.65"/><rect class="cls-2" x="272.72" y="291.61" width="29.65" height="29.65"/><rect class="cls-2" x="216.11" y="345.7" width="29.65" height="29.65"/><rect class="cls-2" x="272.76" y="345.7" width="29.65" height="29.65"/><rect class="cls-2" x="216.11" y="396.1" width="29.65" height="29.65"/><rect class="cls-2" x="272.76" y="396.1" width="29.65" height="29.65"/><text class="cls-1" transform="translate(216.72 250.38) rotate(-14.48)"><tspan x="0" y="0">P</tspan></text><text class="cls-1" transform="translate(226.68 247.84) rotate(-10.42)"><tspan x="0" y="0">a</tspan></text><text class="cls-1" transform="translate(235.17 246.32) rotate(-7.66)"><tspan x="0" y="0">r</tspan></text><text class="cls-1" transform="translate(240.36 245.63) rotate(-6.02)"><tspan x="0" y="0">i</tspan></text><text class="cls-1" transform="translate(243.86 245.25) rotate(-4.44)"><tspan x="0" y="0">-</tspan></text><text class="cls-1" transform="translate(249.03 244.77) rotate(-1.6)"><tspan x="0" y="0">R</tspan></text><text class="cls-1" transform="translate(260.35 244.48) rotate(1.8)"><tspan x="0" y="0">e</tspan></text><text class="cls-1" transform="translate(268.96 244.74) rotate(5.09)"><tspan x="0" y="0">n</tspan></text><text class="cls-1" transform="translate(277.79 245.52) rotate(8.53)"><tspan x="0" y="0">n</tspan></text><text class="cls-1" transform="translate(286.56 246.83) rotate(12.03)"><tspan x="0" y="0">e</tspan></text><text class="cls-1" transform="translate(294.96 248.63) rotate(15.48)"><tspan x="0" y="0">s</tspan></text><polygon class="cls-4" points="518.58 691.36 .58 691.36 .5 594.75 519 594.75 518.58 691.36"/><rect class="cls-5" x=".5" y="637.75" width="518.5" height="13"/><rect class="cls-2" x=".58" y="571.36" width="518" height="23.15"/></svg>