<?xml version="1.0" encoding="UTF-8"?><svg id="Calque_1" xmlns="http://www.w3.org/2000/svg" viewBox="0 0 520.06 692.74"><defs><style>.cls-1{stroke-width:.97px;}.cls-1,.cls-2{stroke:#1d1d1b;}.cls-1,.cls-2,.cls-3,.cls-4{stroke-miterlimit:10;}.cls-1,.cls-2,.cls-3,.cls-5{fill:#f8e8db;}.cls-3,.cls-4{stroke:#000;}.cls-4{fill:none;}.cls-6,.cls-5,.cls-7{stroke-width:0px;}.cls-7{fill:#f0aac8;}</style></defs><rect class="cls-7" x="0" width="520.06" height="573"/><path class="cls-1" d="M194.4,235.96v336.93h-28.95v-51.98h11.87v-35.62h-11.87v-35.62h11.87v-35.62h-11.87v-35.62h11.87v-35.62h-11.87v-35.62h11.87v-35.62h-11.87v-35.62l28.95.27s26.82-15.37,65.14-15.37c35.63,0,65.14,15.31,65.14,15.31v34.97l-123.34,1.91-6.94-.18"/><path class="cls-2" d="M324.67,573.35l-130.28-.48v-303.36s20.9-15.85,64.9-15.85c40.91,0,65.38,16.04,65.38,16.04v303.65h0Z"/><polygon class="cls-1" points="324.68 235.96 324.68 572.88 353.63 572.88 353.63 556.53 353.63 520.9 341.76 520.9 341.76 485.29 353.63 485.29 353.63 449.67 341.76 449.67 341.76 414.04 353.63 414.04 353.63 378.42 341.76 378.42 341.76 342.81 353.63 342.81 353.63 307.2 341.76 307.2 341.76 271.58 353.63 271.58 353.63 235.96 324.68 235.96"/><rect class="cls-1" x="216.35" y="292.04" width="29.65" height="29.65"/><rect class="cls-1" x="273" y="292.04" width="29.65" height="29.65"/><rect class="cls-1" x="216.39" y="346.14" width="29.65" height="29.65"/><rect class="cls-1" x="273.04" y="346.14" width="29.65" height="29.65"/><rect class="cls-1" x="216.39" y="396.54" width="29.65" height="29.65"/><rect class="cls-1" x="273.04" y="396.54" width="29.65" height="29.65"/><polyline class="cls-5" points="0 572.09 520.06 572.09 520.06 692.24 0 692.63"/><line class="cls-4" x1="520.06" y1="692.24" x2="0" y2="692.24"/><line class="cls-3" x1="0" y1="596.32" x2="519.78" y2="596.32"/><line class="cls-4" x1="0" y1="637.82" x2="520.06" y2="637.82"/><line class="cls-3" x1="520.06" y1="650.82" x2="0" y2="650.82"/><line class="cls-3" x1="0" y1="596.32" x2="519.78" y2="596.32"/><line class="cls-4" x1="520.06" y1="596.32" x2="0" y2="596.32"/><line class="cls-4" x1="0" y1="572.15" x2="520.06" y2="572.36"/><path class="cls-6" d="M219.19,249.39l-2.64-10.65,5.26-1.3c.74-.18,1.38-.2,1.93-.04.55.15,1.01.44,1.38.87.36.43.62.96.78,1.6.16.65.17,1.26.02,1.83-.14.57-.43,1.05-.85,1.46-.42.4-.98.69-1.66.86l-3.77.93,1.01,4.08-1.48.37ZM219.33,243.67l3.68-.91c.58-.14,1-.44,1.26-.89.26-.45.31-.99.15-1.62-.11-.42-.27-.76-.48-1.02-.22-.25-.48-.43-.8-.52-.32-.09-.69-.08-1.12.02l-3.68.91,1,4.02Z"/><path class="cls-6" d="M231.05,246.91c-.3.05-.62.07-.93.05s-.62-.09-.91-.21-.54-.32-.75-.59c-.21-.27-.35-.63-.43-1.09-.1-.57-.04-1.06.17-1.47.21-.42.54-.77.99-1.06.45-.29,1.01-.53,1.67-.73.66-.2,1.38-.36,2.17-.5l-.17-.95c-.05-.3-.15-.56-.29-.76-.14-.2-.36-.34-.65-.41-.29-.07-.68-.07-1.17.02-.47.08-.84.21-1.1.38-.26.17-.42.36-.5.57-.08.21-.1.43-.06.66l.04.24-1.34.23c-.02-.05-.03-.1-.04-.15,0-.05-.02-.12-.03-.19-.09-.5-.02-.95.2-1.34.22-.39.57-.72,1.04-.98.47-.26,1.04-.45,1.69-.56.69-.12,1.29-.12,1.79,0s.9.34,1.2.67c.3.33.5.75.59,1.26l.78,4.49c.03.2.11.33.21.39.11.06.23.08.37.06l.61-.11.16.91c-.14.09-.29.17-.46.25-.17.08-.37.14-.6.18-.27.05-.51.03-.71-.05s-.36-.21-.49-.39-.23-.38-.3-.62l-.11.02c-.14.29-.34.57-.6.81-.26.25-.55.45-.89.62s-.72.29-1.14.36ZM231.19,245.68c.34-.06.64-.17.93-.32s.52-.35.72-.59c.2-.23.34-.5.43-.8s.11-.61.05-.93l-.12-.69c-.85.15-1.57.32-2.15.52-.58.2-1.01.45-1.29.75s-.38.67-.3,1.11c.05.28.15.5.31.66.16.16.36.26.61.31.25.05.52.05.83,0Z"/><path class="cls-6" d="M237.44,245.69l-1.05-8.35,1.13-.14.3,1.37h.11c.05-.29.14-.56.25-.81s.29-.48.53-.66c.24-.19.54-.3.91-.35.16-.02.31-.03.44-.02s.24.03.3.05l.16,1.29-.52.07c-.36.04-.66.15-.91.3-.24.16-.44.35-.58.6-.14.24-.23.52-.27.84-.04.32-.04.65,0,1l.59,4.65-1.4.18Z"/><path class="cls-6" d="M241.65,235.13l-.15-1.56,1.4-.14.15,1.56-1.4.14ZM242.62,245.08l-.82-8.38,1.4-.14.82,8.38-1.4.14Z"/><path class="cls-6" d="M245.43,241.19l-.1-1.42,4.04-.28.1,1.42-4.04.28Z"/><path class="cls-6" d="M251.61,244.37l-.23-10.97,5.77-.12c.75-.02,1.37.11,1.87.37.5.26.88.63,1.14,1.11.25.48.39,1.04.4,1.66.02.76-.14,1.41-.47,1.96-.33.55-.79.95-1.38,1.2l2.4,4.59-1.66.04-2.23-4.32-4.17.09.09,4.37-1.52.03ZM253.01,238.67l4.11-.09c.61-.01,1.08-.21,1.42-.59.34-.38.5-.9.49-1.55,0-.41-.09-.75-.25-1.02-.16-.27-.38-.49-.67-.63s-.65-.22-1.08-.21l-4.11.09.08,4Z"/><path class="cls-6" d="M266,244.55c-.83-.03-1.53-.22-2.08-.55s-.97-.84-1.24-1.5c-.27-.66-.38-1.49-.34-2.5.04-1.01.22-1.84.54-2.47.32-.63.77-1.1,1.36-1.39.59-.29,1.31-.42,2.18-.39.79.03,1.44.21,1.96.53.52.32.91.79,1.15,1.41.25.61.35,1.37.32,2.28l-.03.67-6.04-.24c0,.67.07,1.23.23,1.67.16.44.41.76.75.97.34.21.78.33,1.32.35.36.01.68-.02.96-.1.28-.08.51-.2.7-.36.19-.16.34-.36.45-.59s.17-.48.19-.76l1.38.05c-.03.45-.13.86-.3,1.23s-.42.69-.74.94-.71.45-1.16.58c-.45.13-.97.19-1.54.16ZM263.85,239.36l4.56.18c.02-.47-.02-.87-.11-1.19-.09-.32-.24-.59-.42-.8s-.41-.37-.67-.47-.55-.16-.88-.17c-.49-.02-.91.05-1.26.22-.35.17-.62.43-.82.8s-.33.84-.39,1.43Z"/><path class="cls-6" d="M271.26,244.62l.82-8.38,1.13.11v1.27s.12.01.12.01c.26-.32.54-.57.84-.75s.63-.31.99-.38.73-.08,1.12-.04c.53.05.99.19,1.37.41.38.22.67.54.85.97.19.43.25.98.18,1.67l-.56,5.78-1.4-.14.55-5.59c.03-.35.02-.64-.05-.87-.07-.23-.17-.42-.32-.56-.14-.14-.32-.25-.53-.33-.21-.07-.45-.12-.72-.15-.39-.04-.77.02-1.14.18-.37.16-.67.41-.92.75-.24.34-.39.76-.44,1.26l-.48,4.92-1.4-.14Z"/><path class="cls-6" d="M280.05,245.54l1.32-8.31,1.12.18-.07,1.27.11.02c.27-.3.57-.54.88-.7.31-.17.65-.27,1.01-.32.36-.04.73-.04,1.12.02.53.08.97.25,1.34.49.37.24.63.58.79,1.02s.19,1,.08,1.68l-.91,5.74-1.39-.22.88-5.55c.05-.35.05-.64,0-.88-.05-.24-.15-.43-.28-.58-.13-.15-.3-.27-.51-.36-.21-.09-.44-.15-.71-.19-.39-.06-.77-.03-1.15.11-.38.13-.7.36-.96.69-.26.33-.43.74-.51,1.23l-.78,4.88-1.39-.22Z"/><path class="cls-6" d="M292.02,247.91c-.81-.18-1.46-.49-1.95-.92-.49-.43-.81-1-.95-1.7-.15-.7-.11-1.54.11-2.52.22-.99.54-1.77.97-2.33.43-.57.96-.94,1.59-1.12.63-.18,1.37-.18,2.21,0,.77.17,1.38.46,1.84.88.45.41.75.94.88,1.59.13.65.1,1.41-.09,2.3l-.15.66-5.9-1.31c-.12.66-.15,1.22-.07,1.68s.27.82.57,1.09.71.46,1.23.58c.35.08.67.1.96.07s.54-.11.76-.23c.22-.13.4-.29.55-.5.14-.21.25-.45.32-.71l1.34.3c-.11.44-.28.82-.52,1.16s-.54.6-.9.79c-.36.19-.77.31-1.24.36s-.99,0-1.55-.12ZM290.83,242.42l4.45.99c.1-.46.14-.86.1-1.19-.04-.33-.13-.62-.28-.86-.15-.24-.34-.43-.58-.58-.24-.15-.51-.25-.84-.33-.48-.11-.91-.11-1.28,0-.37.1-.69.32-.95.64s-.47.77-.64,1.33Z"/><path class="cls-6" d="M299.96,249.93c-.55-.16-1.02-.36-1.41-.59-.39-.23-.69-.5-.91-.79-.21-.29-.35-.61-.41-.95-.06-.34-.03-.7.08-1.08.01-.05.03-.1.04-.15.01-.05.03-.08.05-.11l1.34.38s-.04.07-.05.1c0,.03-.02.06-.03.09-.09.36-.08.67.04.93.12.26.33.47.62.64.29.17.64.32,1.03.43.34.1.66.14.98.14.31,0,.58-.07.8-.2s.37-.33.45-.61c.1-.34.06-.63-.11-.87-.17-.24-.42-.47-.75-.67-.33-.21-.67-.42-1.03-.65-.3-.19-.6-.38-.9-.59s-.55-.43-.76-.67c-.21-.24-.36-.51-.45-.82-.08-.31-.07-.66.05-1.06.1-.36.27-.66.5-.89.23-.23.51-.41.84-.52.33-.12.71-.17,1.13-.15.42.02.88.09,1.36.23.51.15.95.33,1.3.56.35.22.63.47.82.75.2.28.32.57.37.86.05.3.03.59-.06.89-.02.06-.03.12-.05.18-.02.06-.03.1-.05.13l-1.32-.38.05-.17c.06-.21.06-.42,0-.64s-.19-.43-.42-.62c-.23-.19-.57-.36-1.03-.49-.3-.09-.56-.14-.79-.15s-.43,0-.6.06c-.17.06-.31.14-.42.25-.11.11-.19.24-.23.41-.08.27-.05.5.08.69.13.19.33.38.6.55.27.18.55.37.86.58.33.21.67.42,1.01.63.34.22.65.45.91.7s.45.55.56.88c.11.34.1.74-.04,1.2-.12.43-.31.78-.57,1.05s-.56.46-.92.58-.76.17-1.19.15c-.43-.02-.89-.1-1.37-.24Z"/></svg>