<svg width="390" height="582" viewBox="0 0 390 582" fill="none" xmlns="http://www.w3.org/2000/svg">
<g clip-path="url(#clip0_548_5451)">
<path d="M394 76H-6V460H394V76Z" fill="#F0AAC8" stroke="black" stroke-width="0.75" stroke-miterlimit="10"/>
<path d="M394 460H0V484H394V460Z" fill="#FBF2EB" stroke="#1D1D1B" stroke-miterlimit="10"/>
<path d="M129.36 122.63V459.56H100.41V443.2V407.58H112.28V371.96H100.41V336.34H112.28V300.72H100.41V265.1H112.28V229.48H100.41V193.86H112.28V158.24H100.41V122.62L129.36 122.89C129.36 122.89 156.18 107.52 194.5 107.52C230.13 107.52 259.64 122.83 259.64 122.83V157.8L136.3 159.71L129.36 159.53" fill="#FBF2EB"/>
<path d="M129.36 122.63V459.56H100.41V443.2V407.58H112.28V371.96H100.41V336.34H112.28V300.72H100.41V265.1H112.28V229.48H100.41V193.86H112.28V158.24H100.41V122.62L129.36 122.89C129.36 122.89 156.18 107.52 194.5 107.52C230.13 107.52 259.64 122.83 259.64 122.83V157.8L136.3 159.71L129.36 159.53" stroke="#1D1D1B" stroke-miterlimit="10"/>
<path d="M259.64 460.04L129.36 459.56V156.2C129.36 156.2 150.26 140.35 194.26 140.35C235.17 140.35 259.64 156.39 259.64 156.39V460.04Z" fill="#FBF2EB" stroke="#1D1D1B" stroke-miterlimit="10"/>
<path d="M259.64 122.63V459.56H288.59V443.2V407.58H276.72V371.96H288.59V336.35H276.72V300.73H288.59V265.11H276.72V229.49H288.59V193.87H276.72V158.25H288.59V122.63H259.64Z" fill="#FBF2EB" stroke="#1D1D1B" stroke-miterlimit="10"/>
<path d="M180.96 178.72H151.31V208.37H180.96V178.72Z" fill="#FBF2EB" stroke="#1D1D1B" stroke-miterlimit="10"/>
<path d="M237.61 178.72H207.96V208.37H237.61V178.72Z" fill="#FBF2EB" stroke="#1D1D1B" stroke-miterlimit="10"/>
<path d="M181 232.82H151.35V262.47H181V232.82Z" fill="#FBF2EB" stroke="#1D1D1B" stroke-miterlimit="10"/>
<path d="M237.65 232.82H208V262.47H237.65V232.82Z" fill="#FBF2EB" stroke="#1D1D1B" stroke-miterlimit="10"/>
<path d="M181 283.21H151.35V312.86H181V283.21Z" fill="#FBF2EB" stroke="#1D1D1B" stroke-miterlimit="10"/>
<path d="M237.65 283.21H208V312.86H237.65V283.21Z" fill="#FBF2EB" stroke="#1D1D1B" stroke-miterlimit="10"/>
<path d="M149.899 137.146L147.65 129.228L151.563 128.116C152.109 127.961 152.593 127.935 153.013 128.04C153.432 128.138 153.781 128.342 154.061 128.654C154.348 128.963 154.56 129.356 154.695 129.833C154.833 130.318 154.856 130.777 154.763 131.211C154.667 131.637 154.465 132.007 154.154 132.32C153.852 132.63 153.446 132.858 152.938 133.002L150.133 133.799L150.996 136.835L149.899 137.146ZM149.865 132.852L152.6 132.075C153.031 131.953 153.335 131.721 153.513 131.379C153.698 131.035 153.724 130.629 153.591 130.159C153.501 129.844 153.372 129.594 153.203 129.409C153.034 129.224 152.829 129.103 152.588 129.047C152.346 128.983 152.066 128.996 151.751 129.085L149.015 129.863L149.865 132.852Z" fill="black"/>
<path d="M161.29 134.275C161.063 134.322 160.83 134.342 160.591 134.333C160.353 134.325 160.123 134.279 159.901 134.194C159.679 134.109 159.487 133.969 159.324 133.773C159.16 133.57 159.043 133.3 158.974 132.963C158.887 132.54 158.917 132.171 159.064 131.854C159.211 131.538 159.45 131.269 159.78 131.046C160.116 130.813 160.529 130.618 161.019 130.46C161.508 130.294 162.046 130.15 162.634 130.029L162.488 129.324C162.442 129.097 162.362 128.909 162.25 128.761C162.138 128.612 161.971 128.516 161.749 128.472C161.534 128.418 161.242 128.429 160.874 128.505C160.521 128.577 160.249 128.682 160.057 128.82C159.871 128.948 159.749 129.092 159.692 129.25C159.643 129.408 159.636 129.572 159.671 129.745L159.708 129.921L158.709 130.127C158.693 130.089 158.681 130.051 158.673 130.011C158.665 129.972 158.655 129.925 158.644 129.87C158.566 129.494 158.604 129.16 158.756 128.867C158.914 128.565 159.168 128.313 159.519 128.11C159.867 127.899 160.285 127.744 160.77 127.644C161.288 127.538 161.734 127.523 162.109 127.601C162.493 127.678 162.799 127.835 163.027 128.074C163.264 128.311 163.422 128.622 163.501 129.005L164.19 132.355C164.221 132.504 164.278 132.603 164.361 132.651C164.443 132.691 164.535 132.701 164.637 132.68L165.095 132.586L165.236 133.267C165.136 133.337 165.022 133.401 164.896 133.46C164.77 133.526 164.622 133.577 164.449 133.613C164.245 133.655 164.068 133.646 163.917 133.588C163.768 133.537 163.643 133.448 163.544 133.321C163.443 133.187 163.362 133.032 163.301 132.857L163.219 132.874C163.118 133.099 162.973 133.308 162.785 133.502C162.602 133.687 162.386 133.846 162.135 133.979C161.885 134.112 161.603 134.211 161.29 134.275ZM161.369 133.352C161.62 133.301 161.847 133.213 162.051 133.09C162.262 132.965 162.439 132.814 162.582 132.637C162.724 132.453 162.825 132.248 162.885 132.024C162.945 131.799 162.95 131.565 162.9 131.322L162.793 130.805C162.159 130.936 161.625 131.082 161.193 131.245C160.761 131.407 160.442 131.604 160.236 131.834C160.038 132.062 159.973 132.341 160.041 132.67C160.084 132.882 160.167 133.045 160.288 133.158C160.41 133.272 160.564 133.347 160.751 133.382C160.936 133.409 161.142 133.399 161.369 133.352Z" fill="black"/>
<path d="M168.165 132.795L167.198 126.557L168.04 126.427L168.295 127.444L168.378 127.431C168.411 127.224 168.469 127.024 168.553 126.833C168.635 126.634 168.763 126.465 168.935 126.325C169.107 126.177 169.331 126.081 169.607 126.038C169.726 126.02 169.834 126.015 169.933 126.024C170.038 126.024 170.116 126.032 170.167 126.049L170.316 127.009L169.925 127.07C169.656 127.111 169.43 127.195 169.247 127.321C169.071 127.437 168.933 127.588 168.832 127.774C168.731 127.959 168.667 128.172 168.639 128.411C168.619 128.648 168.63 128.898 168.67 129.159L169.209 132.633L168.165 132.795Z" fill="black"/>
<path d="M172.47 124.583L172.324 123.416L173.372 123.285L173.517 124.452L172.47 124.583ZM173.398 132.025L172.617 125.762L173.664 125.631L174.446 131.894L173.398 132.025Z" fill="black"/>
<path d="M179.11 131.524C178.68 131.561 178.297 131.55 177.963 131.491C177.629 131.432 177.347 131.328 177.117 131.179C176.887 131.031 176.706 130.846 176.575 130.624C176.443 130.403 176.364 130.145 176.338 129.85C176.335 129.81 176.332 129.774 176.329 129.742C176.326 129.703 176.327 129.67 176.333 129.646L177.373 129.555C177.368 129.588 177.366 129.616 177.368 129.64C177.37 129.664 177.372 129.688 177.374 129.712C177.407 129.99 177.497 130.203 177.647 130.35C177.804 130.497 178.009 130.592 178.262 130.634C178.514 130.676 178.792 130.684 179.095 130.658C179.358 130.635 179.598 130.582 179.816 130.499C180.033 130.407 180.199 130.288 180.315 130.142C180.438 129.987 180.49 129.801 180.471 129.586C180.448 129.323 180.343 129.132 180.156 129.011C179.976 128.883 179.743 128.79 179.457 128.735C179.172 128.68 178.873 128.621 178.563 128.56C178.302 128.511 178.04 128.453 177.777 128.388C177.514 128.322 177.274 128.235 177.055 128.125C176.845 128.015 176.667 127.866 176.523 127.678C176.385 127.481 176.303 127.227 176.276 126.916C176.251 126.637 176.286 126.385 176.378 126.161C176.479 125.935 176.631 125.737 176.833 125.567C177.035 125.397 177.284 125.263 177.58 125.164C177.884 125.058 178.224 124.988 178.598 124.955C178.997 124.921 179.347 124.934 179.65 124.996C179.96 125.057 180.222 125.159 180.435 125.301C180.648 125.443 180.812 125.614 180.925 125.813C181.038 126.003 181.105 126.214 181.125 126.446C181.129 126.493 181.133 126.541 181.138 126.589C181.141 126.629 181.14 126.661 181.134 126.686L180.106 126.775L180.094 126.644C180.08 126.484 180.023 126.337 179.923 126.201C179.83 126.057 179.676 125.949 179.462 125.88C179.254 125.802 178.971 125.778 178.612 125.809C178.381 125.829 178.184 125.867 178.02 125.921C177.855 125.968 177.721 126.036 177.616 126.125C177.511 126.206 177.435 126.301 177.388 126.41C177.34 126.51 177.322 126.624 177.333 126.752C177.351 126.959 177.433 127.113 177.578 127.212C177.723 127.312 177.911 127.388 178.14 127.44C178.377 127.492 178.631 127.55 178.902 127.615C179.188 127.67 179.478 127.729 179.773 127.792C180.075 127.846 180.351 127.926 180.601 128.033C180.859 128.139 181.07 128.297 181.232 128.508C181.403 128.71 181.503 128.99 181.535 129.349C181.564 129.684 181.525 129.98 181.419 130.238C181.313 130.497 181.148 130.716 180.923 130.896C180.705 131.076 180.44 131.215 180.128 131.315C179.824 131.421 179.485 131.491 179.11 131.524Z" fill="black"/>
<path d="M184.506 128.24L184.456 127.173L187.489 127.031L187.539 128.098L184.506 128.24Z" fill="black"/>
<path d="M190.42 130.618L190.484 122.386L194.816 122.42C195.376 122.425 195.839 122.532 196.206 122.743C196.58 122.946 196.858 123.232 197.039 123.602C197.22 123.963 197.309 124.38 197.305 124.852C197.301 125.42 197.169 125.907 196.91 126.313C196.651 126.719 196.296 127.008 195.847 127.181L197.548 130.674L196.3 130.664L194.717 127.376L191.586 127.351L191.56 130.627L190.42 130.618ZM191.593 126.379L194.677 126.403C195.133 126.407 195.49 126.27 195.748 125.992C196.015 125.714 196.15 125.331 196.153 124.843C196.156 124.539 196.102 124.283 195.991 124.074C195.881 123.865 195.718 123.704 195.503 123.59C195.288 123.468 195.021 123.406 194.701 123.404L191.617 123.379L191.593 126.379Z" fill="black"/>
<path d="M204.086 131.052C203.464 131.012 202.944 130.862 202.528 130.603C202.121 130.336 201.821 129.951 201.629 129.45C201.445 128.949 201.377 128.323 201.426 127.573C201.475 126.815 201.623 126.203 201.87 125.738C202.125 125.265 202.475 124.927 202.921 124.724C203.368 124.512 203.915 124.427 204.561 124.469C205.152 124.508 205.64 124.655 206.024 124.913C206.408 125.162 206.686 125.521 206.856 125.989C207.034 126.449 207.102 127.019 207.058 127.698L207.025 128.201L202.499 127.907C202.482 128.411 202.527 128.831 202.633 129.166C202.748 129.495 202.933 129.743 203.186 129.912C203.44 130.073 203.767 130.166 204.166 130.192C204.438 130.209 204.675 130.193 204.879 130.142C205.091 130.083 205.269 129.995 205.413 129.876C205.565 129.757 205.683 129.613 205.766 129.442C205.849 129.271 205.902 129.082 205.923 128.875L206.953 128.941C206.923 129.276 206.839 129.583 206.701 129.863C206.563 130.135 206.372 130.363 206.127 130.547C205.883 130.732 205.589 130.869 205.247 130.959C204.904 131.049 204.517 131.08 204.086 131.052ZM202.574 127.118L205.987 127.34C206.009 126.988 205.989 126.69 205.924 126.446C205.86 126.201 205.757 125.998 205.615 125.836C205.481 125.675 205.317 125.556 205.121 125.48C204.934 125.395 204.717 125.345 204.469 125.329C204.102 125.305 203.786 125.353 203.522 125.472C203.258 125.591 203.049 125.786 202.895 126.057C202.741 126.327 202.634 126.681 202.574 127.118Z" fill="black"/>
<path d="M210.255 131.349L211.03 125.085L211.876 125.19L211.855 126.143L211.938 126.153C212.136 125.92 212.348 125.736 212.575 125.603C212.809 125.471 213.057 125.385 213.32 125.345C213.592 125.298 213.875 125.292 214.168 125.329C214.565 125.378 214.902 125.488 215.179 125.66C215.464 125.832 215.671 126.079 215.801 126.402C215.938 126.725 215.975 127.145 215.911 127.661L215.376 131.984L214.328 131.854L214.845 127.674C214.878 127.412 214.868 127.193 214.818 127.017C214.775 126.843 214.7 126.701 214.592 126.59C214.493 126.481 214.363 126.397 214.201 126.336C214.047 126.277 213.871 126.235 213.672 126.211C213.378 126.174 213.092 126.211 212.812 126.322C212.532 126.432 212.296 126.612 212.104 126.863C211.92 127.114 211.805 127.426 211.758 127.799L211.303 131.479L210.255 131.349Z" fill="black"/>
<path d="M219.077 132.489L220.234 126.284L221.072 126.44L220.992 127.389L221.075 127.405C221.287 127.184 221.51 127.014 221.744 126.895C221.985 126.777 222.239 126.706 222.503 126.682C222.778 126.652 223.06 126.664 223.351 126.718C223.744 126.791 224.074 126.922 224.34 127.11C224.614 127.299 224.806 127.559 224.915 127.889C225.032 128.22 225.043 128.641 224.948 129.152L224.15 133.434L223.112 133.241L223.884 129.1C223.932 128.841 223.936 128.622 223.896 128.443C223.864 128.266 223.798 128.12 223.697 128.003C223.605 127.888 223.48 127.796 223.322 127.726C223.172 127.657 222.999 127.605 222.802 127.568C222.511 127.514 222.223 127.533 221.937 127.626C221.651 127.72 221.404 127.885 221.197 128.123C220.998 128.363 220.864 128.667 220.795 129.037L220.115 132.682L219.077 132.489Z" fill="black"/>
<path d="M230.216 134.927C229.611 134.774 229.127 134.533 228.764 134.203C228.412 133.866 228.186 133.434 228.088 132.907C227.998 132.381 228.044 131.753 228.228 131.024C228.413 130.287 228.669 129.712 228.996 129.299C229.332 128.88 229.738 128.611 230.213 128.492C230.691 128.364 231.244 128.38 231.872 128.538C232.446 128.682 232.899 128.916 233.231 129.238C233.564 129.553 233.772 129.956 233.854 130.447C233.947 130.932 233.91 131.504 233.744 132.164L233.621 132.653L229.222 131.546C229.115 132.039 229.083 132.46 229.127 132.809C229.181 133.153 229.318 133.43 229.537 133.642C229.757 133.846 230.062 133.997 230.45 134.095C230.714 134.161 230.95 134.187 231.16 134.174C231.379 134.155 231.57 134.1 231.733 134.009C231.904 133.92 232.046 133.799 232.159 133.646C232.272 133.493 232.357 133.316 232.416 133.117L233.417 133.368C233.327 133.692 233.189 133.979 233.002 134.229C232.817 134.471 232.588 134.661 232.314 134.799C232.041 134.936 231.727 135.018 231.374 135.045C231.021 135.071 230.635 135.032 230.216 134.927ZM229.439 130.784L232.756 131.618C232.841 131.277 232.875 130.98 232.856 130.728C232.837 130.475 232.772 130.257 232.662 130.073C232.559 129.89 232.419 129.743 232.24 129.633C232.072 129.516 231.867 129.427 231.627 129.367C231.27 129.277 230.951 129.267 230.669 129.336C230.388 129.406 230.147 129.56 229.947 129.798C229.747 130.036 229.577 130.365 229.439 130.784Z" fill="black"/>
<path d="M238.283 137.157C237.871 137.026 237.522 136.868 237.237 136.685C236.951 136.501 236.731 136.297 236.576 136.071C236.421 135.845 236.326 135.605 236.289 135.35C236.253 135.095 236.28 134.826 236.37 134.544C236.382 134.506 236.393 134.472 236.403 134.441C236.415 134.403 236.429 134.374 236.443 134.354L237.438 134.671C237.421 134.699 237.408 134.724 237.401 134.747C237.394 134.77 237.387 134.793 237.379 134.816C237.302 135.085 237.303 135.317 237.384 135.51C237.473 135.706 237.626 135.873 237.843 136.009C238.059 136.145 238.313 136.26 238.602 136.352C238.854 136.432 239.096 136.476 239.329 136.483C239.564 136.483 239.763 136.437 239.927 136.346C240.1 136.25 240.219 136.1 240.285 135.894C240.365 135.642 240.342 135.425 240.216 135.242C240.1 135.054 239.92 134.879 239.678 134.718C239.435 134.556 239.183 134.388 238.92 134.211C238.698 134.065 238.478 133.911 238.261 133.749C238.044 133.588 237.856 133.414 237.696 133.229C237.545 133.046 237.438 132.84 237.377 132.611C237.326 132.376 237.348 132.11 237.443 131.813C237.528 131.546 237.656 131.327 237.829 131.155C238.009 130.986 238.225 130.862 238.477 130.783C238.729 130.703 239.01 130.676 239.322 130.7C239.643 130.718 239.983 130.785 240.342 130.899C240.723 131.02 241.041 131.168 241.296 131.342C241.559 131.518 241.761 131.713 241.903 131.926C242.045 132.139 242.13 132.359 242.159 132.587C242.189 132.806 242.169 133.027 242.099 133.248C242.084 133.294 242.07 133.339 242.055 133.385C242.043 133.423 242.029 133.452 242.014 133.473L241.031 133.159L241.071 133.033C241.12 132.881 241.124 132.723 241.084 132.559C241.054 132.39 240.953 132.232 240.782 132.085C240.621 131.932 240.368 131.802 240.025 131.692C239.804 131.622 239.608 131.58 239.436 131.567C239.266 131.547 239.115 131.557 238.984 131.6C238.856 131.634 238.749 131.692 238.664 131.774C238.582 131.849 238.521 131.947 238.482 132.069C238.419 132.267 238.435 132.44 238.531 132.588C238.626 132.736 238.77 132.879 238.961 133.015C239.16 133.154 239.372 133.306 239.597 133.47C239.839 133.631 240.084 133.798 240.332 133.969C240.59 134.135 240.814 134.316 241.003 134.511C241.201 134.708 241.334 134.935 241.403 135.192C241.482 135.444 241.467 135.742 241.358 136.085C241.256 136.405 241.106 136.664 240.909 136.861C240.711 137.058 240.474 137.197 240.197 137.276C239.927 137.358 239.629 137.385 239.302 137.356C238.981 137.338 238.641 137.271 238.283 137.157Z" fill="black"/>
<path d="M1558 484.04H-1167.5V580.54H1558V484.04Z" fill="#FBF2EB" stroke="#1D1D1B" stroke-miterlimit="10"/>
<path d="M-36.36 427.04C-36.36 427.04 -44.49 468.04 -18.49 484.04H8.08993C8.08993 484.04 32.08 473.54 26.05 427.04H-36.35H-36.36Z" fill="#FBF2EB" stroke="#1D1D1B" stroke-miterlimit="10"/>
<path d="M-4.98996 415.04C-4.98996 415.04 -8.98996 407.04 2.01004 397.04C2.01004 397.04 14.01 385.04 9.01005 371.04C9.01005 371.04 26.45 383.12 10.23 405.58C10.23 405.58 0.0100446 420.04 -4.98996 415.04Z" fill="#FBF2EB" stroke="#1D1D1B" stroke-miterlimit="10"/>
<path d="M-0.989955 414.04C-0.989955 414.04 5.01005 416.04 14.01 409.04C14.01 409.04 19.01 405.04 29.01 403.04C29.01 403.04 37.01 401.04 38.01 397.04C38.01 397.04 17.01 396.04 6.01004 404.04C-4.98996 412.04 -0.989955 414.04 -0.989955 414.04Z" fill="#FBF2EB" stroke="#1D1D1B" stroke-miterlimit="10"/>
<path d="M1.01001 419.04C1.01001 419.04 9.46999 426.04 23.24 419.04C23.24 419.04 32.8599 411.15 41.4399 411.6L51.01 411.04C51.01 411.04 39.01 404.04 19.01 409.04C19.01 409.04 -1.98999 415.04 1.01001 419.04Z" fill="#FBF2EB" stroke="#1D1D1B" stroke-miterlimit="10"/>
<path d="M1.01001 425.04C1.01001 425.04 7.01001 433.04 21.01 435.04C21.01 435.04 40.8599 437.28 42.4399 443.66C42.4399 443.66 39.01 421.04 11.01 418.04C11.01 418.04 -1.98999 416.04 1.01001 425.04Z" fill="#FBF2EB" stroke="#1D1D1B" stroke-miterlimit="10"/>
<path d="M-4.98999 416.04C-4.98999 416.04 -15.99 411.04 -15.99 420.04C-15.99 420.04 -15.99 438.04 1.01001 456.04C1.01001 456.04 19.01 437.04 6.01001 416.04C6.01001 416.04 0.0100098 406.04 -4.98999 416.04Z" fill="#FBF2EB" stroke="#1D1D1B" stroke-miterlimit="10"/>
</g>
<rect x="-8" y="-58" width="419" height="151" fill="#F0AAC8"/>
<defs>
<clipPath id="clip0_548_5451">
<rect width="2726.5" height="505.04" fill="white" transform="translate(-1168 76)"/>
</clipPath>
</defs>
</svg>
