<svg width="390" height="691" viewBox="0 0 390 691" fill="none" xmlns="http://www.w3.org/2000/svg">
<g clip-path="url(#clip0_662_361)">
<path d="M397 185H-6V569H397V185Z" fill="#F0AAC8" stroke="black" stroke-width="0.75" stroke-miterlimit="10"/>
<path d="M395 569H0V593H395V569Z" fill="#F8E8DB" stroke="#1D1D1B" stroke-miterlimit="10"/>
<path d="M129.09 232.108V569H100V552.642V517.026H111.927V481.41H100V445.794H111.927V410.178H100V374.562H111.927V338.946H100V303.33H111.927V267.714H100V232.098L129.09 232.368C129.09 232.368 156.04 217 194.545 217C230.347 217 260 232.308 260 232.308V267.274L136.064 269.184L129.09 269.004" fill="#F8E8DB"/>
<path d="M129.09 232.108V569H100V552.642V517.026H111.927V481.41H100V445.794H111.927V410.178H100V374.562H111.927V338.946H100V303.33H111.927V267.714H100V232.098L129.09 232.368C129.09 232.368 156.04 217 194.545 217C230.347 217 260 232.308 260 232.308V267.274L136.064 269.184L129.09 269.004" stroke="#1D1D1B" stroke-miterlimit="10"/>
<path d="M259 569H129V265.816C129 265.816 149.855 250 193.761 250C234.583 250 259 266.005 259 266.005V569Z" fill="#F8E8DB" stroke="#1D1D1B" stroke-miterlimit="10"/>
<path d="M259 232V568.93H287.95V552.57V516.95H276.08V481.33H287.95V445.72H276.08V410.1H287.95V374.48H276.08V338.86H287.95V303.24H276.08V267.62H287.95V232H259Z" fill="#F8E8DB" stroke="#1D1D1B" stroke-miterlimit="10"/>
<path d="M180.96 287.72H151.31V317.37H180.96V287.72Z" fill="#F8E8DB" stroke="#1D1D1B" stroke-miterlimit="10"/>
<path d="M237.61 287.72H207.96V317.37H237.61V287.72Z" fill="#F8E8DB" stroke="#1D1D1B" stroke-miterlimit="10"/>
<path d="M181 341.82H151.35V371.47H181V341.82Z" fill="#F8E8DB" stroke="#1D1D1B" stroke-miterlimit="10"/>
<path d="M237.65 341.82H208V371.47H237.65V341.82Z" fill="#F8E8DB" stroke="#1D1D1B" stroke-miterlimit="10"/>
<path d="M181 392.21H151.35V421.86H181V392.21Z" fill="#F8E8DB" stroke="#1D1D1B" stroke-miterlimit="10"/>
<path d="M237.65 392.21H208V421.86H237.65V392.21Z" fill="#F8E8DB" stroke="#1D1D1B" stroke-miterlimit="10"/>
<path d="M153.29 246.16L150.54 235.53L155.79 234.17C156.52 233.98 157.17 233.96 157.72 234.11C158.28 234.26 158.74 234.54 159.11 234.97C159.48 235.39 159.74 235.92 159.91 236.56C160.08 237.21 160.09 237.82 159.95 238.39C159.81 238.96 159.53 239.45 159.11 239.85C158.69 240.26 158.14 240.55 157.46 240.72L153.7 241.69L154.75 245.76L153.28 246.14L153.29 246.16ZM153.38 240.43L157.05 239.48C157.63 239.33 158.04 239.03 158.3 238.58C158.55 238.13 158.6 237.59 158.43 236.96C158.32 236.54 158.16 236.2 157.94 235.95C157.72 235.7 157.45 235.53 157.13 235.44C156.81 235.35 156.44 235.36 156.01 235.47L152.34 236.42L153.38 240.43Z" fill="black"/>
<path d="M165.12 243.56C164.82 243.62 164.5 243.64 164.19 243.62C163.88 243.6 163.57 243.53 163.27 243.41C162.98 243.29 162.72 243.1 162.51 242.83C162.3 242.56 162.15 242.2 162.07 241.75C161.97 241.18 162.02 240.69 162.22 240.28C162.43 239.86 162.75 239.51 163.2 239.21C163.65 238.92 164.2 238.67 164.86 238.47C165.52 238.27 166.24 238.09 167.03 237.95L166.86 237C166.8 236.7 166.7 236.44 166.56 236.24C166.42 236.04 166.2 235.9 165.91 235.83C165.62 235.76 165.23 235.77 164.74 235.86C164.27 235.95 163.9 236.07 163.65 236.25C163.4 236.43 163.23 236.61 163.15 236.82C163.07 237.03 163.06 237.25 163.1 237.48L163.14 237.71L161.8 237.96C161.78 237.91 161.76 237.86 161.76 237.81C161.76 237.76 161.74 237.69 161.73 237.62C161.64 237.12 161.7 236.67 161.91 236.28C162.13 235.89 162.47 235.56 162.94 235.29C163.41 235.02 163.97 234.83 164.62 234.71C165.31 234.58 165.91 234.58 166.41 234.69C166.91 234.8 167.32 235.02 167.62 235.35C167.92 235.68 168.12 236.09 168.22 236.61L169.04 241.1C169.08 241.3 169.15 241.43 169.26 241.49C169.37 241.55 169.49 241.57 169.63 241.54L170.24 241.43L170.41 242.34C170.27 242.43 170.12 242.52 169.95 242.6C169.78 242.68 169.58 242.74 169.35 242.78C169.08 242.83 168.84 242.82 168.64 242.74C168.44 242.66 168.28 242.53 168.15 242.36C168.02 242.18 167.92 241.98 167.84 241.74L167.73 241.76C167.59 242.06 167.39 242.33 167.14 242.57C166.89 242.82 166.59 243.03 166.25 243.2C165.91 243.37 165.53 243.49 165.11 243.57L165.12 243.56ZM165.26 242.33C165.59 242.27 165.9 242.16 166.18 242C166.46 241.84 166.7 241.64 166.89 241.41C167.09 241.17 167.23 240.91 167.31 240.61C167.4 240.31 167.41 240 167.35 239.67L167.22 238.98C166.37 239.14 165.65 239.32 165.07 239.52C164.49 239.73 164.06 239.98 163.79 240.28C163.51 240.58 163.42 240.95 163.5 241.39C163.55 241.67 163.66 241.89 163.82 242.05C163.98 242.21 164.18 242.31 164.43 242.35C164.68 242.39 164.95 242.39 165.26 242.33Z" fill="black"/>
<path d="M171.5 242.29L170.38 233.95L171.51 233.8L171.82 235.16H171.93C171.98 234.87 172.06 234.6 172.18 234.35C172.3 234.1 172.47 233.87 172.7 233.68C172.93 233.49 173.23 233.38 173.6 233.32C173.76 233.3 173.91 233.29 174.04 233.3C174.18 233.3 174.28 233.33 174.34 233.35L174.51 234.63L173.99 234.7C173.63 234.75 173.33 234.85 173.09 235.01C172.85 235.17 172.66 235.37 172.52 235.61C172.38 235.85 172.29 236.14 172.25 236.45C172.21 236.77 172.22 237.1 172.26 237.45L172.88 242.1L171.48 242.29H171.5Z" fill="black"/>
<path d="M175.65 231.69L175.49 230.13L176.89 229.98L177.06 231.54L175.66 231.69H175.65ZM176.7 241.63L175.82 233.26L177.22 233.11L178.1 241.48L176.7 241.63Z" fill="black"/>
<path d="M179.46 237.71L179.35 236.29L183.39 235.98L183.5 237.4L179.46 237.71Z" fill="black"/>
<path d="M185.65 240.85L185.34 229.88L191.11 229.72C191.86 229.7 192.48 229.82 192.99 230.08C193.49 230.34 193.87 230.71 194.13 231.19C194.39 231.67 194.53 232.22 194.54 232.85C194.56 233.61 194.41 234.26 194.08 234.82C193.75 235.37 193.3 235.78 192.7 236.03L195.13 240.6L193.47 240.65L191.21 236.34L187.04 236.46L187.16 240.83L185.64 240.87L185.65 240.85ZM187.01 235.14L191.12 235.02C191.73 235 192.2 234.8 192.54 234.42C192.88 234.04 193.04 233.52 193.02 232.87C193.01 232.47 192.92 232.13 192.77 231.85C192.61 231.58 192.39 231.37 192.1 231.22C191.81 231.07 191.45 231.01 191.02 231.02L186.91 231.14L187.02 235.14H187.01Z" fill="black"/>
<path d="M200.05 240.93C199.22 240.9 198.52 240.72 197.96 240.39C197.4 240.06 196.98 239.56 196.71 238.9C196.44 238.24 196.32 237.41 196.35 236.41C196.38 235.4 196.55 234.57 196.87 233.94C197.18 233.3 197.63 232.84 198.22 232.54C198.8 232.24 199.53 232.11 200.39 232.14C201.18 232.16 201.83 232.34 202.36 232.66C202.88 232.98 203.27 233.45 203.52 234.06C203.77 234.67 203.89 235.43 203.86 236.34L203.84 237.01L197.8 236.82C197.8 237.49 197.88 238.05 198.04 238.49C198.2 238.93 198.46 239.25 198.8 239.46C199.15 239.67 199.58 239.78 200.12 239.8C200.48 239.81 200.8 239.78 201.08 239.69C201.36 239.6 201.59 239.48 201.78 239.32C201.97 239.16 202.12 238.96 202.22 238.73C202.32 238.5 202.39 238.24 202.4 237.97L203.78 238.01C203.76 238.46 203.66 238.87 203.49 239.24C203.32 239.61 203.07 239.93 202.76 240.19C202.44 240.45 202.06 240.64 201.6 240.78C201.14 240.92 200.63 240.97 200.06 240.96L200.05 240.93ZM197.85 235.75L202.41 235.89C202.42 235.42 202.38 235.02 202.29 234.7C202.19 234.38 202.05 234.11 201.86 233.9C201.67 233.69 201.44 233.54 201.19 233.44C200.93 233.34 200.64 233.29 200.31 233.28C199.82 233.26 199.4 233.34 199.05 233.51C198.7 233.68 198.43 233.95 198.24 234.32C198.05 234.69 197.92 235.16 197.86 235.75H197.85Z" fill="black"/>
<path d="M205.31 240.95L206.06 232.57L207.19 232.67V233.94H207.32C207.57 233.62 207.85 233.37 208.15 233.18C208.45 232.99 208.78 232.86 209.13 232.79C209.48 232.72 209.86 232.7 210.25 232.74C210.78 232.79 211.24 232.92 211.62 233.14C212 233.36 212.29 233.68 212.48 234.1C212.67 234.53 212.74 235.08 212.68 235.77L212.16 241.56L210.76 241.44L211.26 235.85C211.29 235.5 211.27 235.21 211.2 234.98C211.13 234.75 211.02 234.56 210.88 234.42C210.74 234.28 210.56 234.17 210.35 234.1C210.14 234.03 209.9 233.98 209.63 233.96C209.24 233.92 208.86 233.99 208.49 234.15C208.12 234.31 207.82 234.56 207.58 234.9C207.34 235.24 207.2 235.66 207.15 236.16L206.71 241.08L205.31 240.96V240.95Z" fill="black"/>
<path d="M214.13 241.8L215.38 233.48L216.5 233.65L216.44 234.92L216.55 234.94C216.82 234.64 217.11 234.4 217.43 234.23C217.74 234.06 218.08 233.95 218.43 233.9C218.79 233.85 219.16 233.86 219.55 233.91C220.08 233.99 220.53 234.15 220.89 234.39C221.26 234.63 221.53 234.97 221.69 235.4C221.86 235.84 221.89 236.4 221.79 237.08L220.93 242.82L219.54 242.61L220.37 237.06C220.42 236.71 220.42 236.42 220.37 236.18C220.31 235.95 220.22 235.75 220.08 235.6C219.95 235.45 219.77 235.33 219.57 235.25C219.36 235.16 219.13 235.1 218.86 235.06C218.47 235 218.09 235.04 217.71 235.18C217.33 235.32 217.01 235.55 216.76 235.88C216.5 236.21 216.33 236.62 216.26 237.12L215.53 242.01L214.14 241.8H214.13Z" fill="black"/>
<path d="M226.13 244.07C225.32 243.9 224.66 243.6 224.17 243.17C223.68 242.74 223.36 242.18 223.21 241.48C223.06 240.78 223.09 239.94 223.3 238.96C223.51 237.97 223.83 237.19 224.25 236.62C224.67 236.05 225.2 235.67 225.83 235.48C226.46 235.29 227.2 235.29 228.04 235.47C228.81 235.63 229.43 235.92 229.88 236.33C230.33 236.74 230.64 237.27 230.78 237.91C230.92 238.56 230.9 239.32 230.71 240.21L230.57 240.87L224.65 239.61C224.53 240.27 224.51 240.83 224.59 241.29C224.67 241.75 224.86 242.11 225.17 242.38C225.47 242.65 225.88 242.84 226.41 242.95C226.76 243.03 227.08 243.05 227.37 243.02C227.66 242.99 227.91 242.91 228.12 242.78C228.34 242.65 228.52 242.48 228.66 242.27C228.8 242.06 228.91 241.82 228.98 241.55L230.33 241.84C230.23 242.28 230.06 242.66 229.82 243C229.58 243.34 229.29 243.6 228.93 243.8C228.57 244 228.16 244.12 227.69 244.17C227.22 244.22 226.7 244.19 226.14 244.07H226.13ZM224.89 238.59L229.35 239.54C229.45 239.08 229.48 238.68 229.44 238.35C229.4 238.01 229.31 237.73 229.16 237.49C229.01 237.25 228.82 237.06 228.58 236.92C228.34 236.78 228.06 236.67 227.74 236.6C227.26 236.5 226.83 236.5 226.46 236.6C226.09 236.71 225.77 236.92 225.52 237.25C225.26 237.58 225.06 238.02 224.89 238.59Z" fill="black"/>
<path d="M234.05 246.01C233.5 245.86 233.02 245.66 232.63 245.43C232.24 245.2 231.94 244.94 231.72 244.65C231.5 244.36 231.36 244.04 231.3 243.7C231.24 243.36 231.26 243 231.37 242.62C231.38 242.57 231.4 242.52 231.41 242.47C231.42 242.42 231.44 242.39 231.46 242.36L232.8 242.73C232.8 242.73 232.76 242.8 232.76 242.83C232.76 242.86 232.74 242.89 232.73 242.92C232.64 243.28 232.66 243.59 232.78 243.85C232.9 244.11 233.11 244.32 233.41 244.49C233.7 244.66 234.05 244.8 234.44 244.91C234.78 245 235.11 245.05 235.42 245.04C235.73 245.04 236 244.96 236.22 244.83C236.44 244.7 236.59 244.49 236.66 244.21C236.75 243.87 236.71 243.58 236.54 243.34C236.37 243.1 236.12 242.88 235.79 242.68C235.46 242.48 235.11 242.27 234.75 242.04C234.45 241.86 234.15 241.66 233.85 241.46C233.55 241.25 233.3 241.03 233.08 240.8C232.86 240.56 232.71 240.29 232.62 239.98C232.53 239.68 232.54 239.32 232.66 238.92C232.76 238.56 232.92 238.26 233.15 238.03C233.38 237.8 233.65 237.62 233.99 237.5C234.32 237.38 234.7 237.33 235.12 237.34C235.54 237.35 236 237.43 236.48 237.56C236.99 237.7 237.43 237.88 237.78 238.1C238.13 238.32 238.41 238.57 238.61 238.85C238.81 239.13 238.94 239.41 238.99 239.71C239.04 240.01 239.03 240.3 238.94 240.6C238.92 240.66 238.91 240.72 238.89 240.78C238.87 240.84 238.86 240.88 238.84 240.91L237.51 240.54L237.56 240.37C237.62 240.16 237.62 239.95 237.56 239.73C237.5 239.51 237.36 239.31 237.13 239.11C236.9 238.91 236.55 238.76 236.09 238.63C235.79 238.55 235.53 238.5 235.3 238.49C235.07 238.48 234.87 238.49 234.7 238.56C234.53 238.62 234.39 238.7 234.28 238.81C234.17 238.92 234.1 239.05 234.05 239.22C233.98 239.49 234.01 239.72 234.14 239.91C234.27 240.1 234.48 240.29 234.74 240.46C235 240.63 235.29 240.82 235.6 241.03C235.93 241.23 236.27 241.44 236.61 241.65C236.95 241.86 237.26 242.09 237.53 242.35C237.8 242.6 237.99 242.89 238.1 243.23C238.21 243.57 238.2 243.96 238.08 244.43C237.96 244.86 237.77 245.22 237.52 245.49C237.27 245.76 236.96 245.96 236.6 246.08C236.24 246.2 235.84 246.25 235.41 246.24C234.98 246.22 234.52 246.15 234.03 246.02L234.05 246.01Z" fill="black"/>
<path d="M-36.36 536.04C-36.36 536.04 -44.49 577.04 -18.49 593.04H8.08993C8.08993 593.04 32.08 582.54 26.05 536.04H-36.35H-36.36Z" fill="#F8E8DB" stroke="#1D1D1B" stroke-miterlimit="10"/>
<path d="M-4.98996 524.04C-4.98996 524.04 -8.98996 516.04 2.01004 506.04C2.01004 506.04 14.01 494.04 9.01005 480.04C9.01005 480.04 26.45 492.12 10.23 514.58C10.23 514.58 0.0100446 529.04 -4.98996 524.04Z" fill="#F8E8DB" stroke="#1D1D1B" stroke-miterlimit="10"/>
<path d="M-0.989955 523.04C-0.989955 523.04 5.01005 525.04 14.01 518.04C14.01 518.04 19.01 514.04 29.01 512.04C29.01 512.04 37.01 510.04 38.01 506.04C38.01 506.04 17.01 505.04 6.01004 513.04C-4.98996 521.04 -0.989955 523.04 -0.989955 523.04Z" fill="#F8E8DB" stroke="#1D1D1B" stroke-miterlimit="10"/>
<path d="M1.01001 528.04C1.01001 528.04 9.46999 535.04 23.24 528.04C23.24 528.04 32.8599 520.15 41.4399 520.6L51.01 520.04C51.01 520.04 39.01 513.04 19.01 518.04C19.01 518.04 -1.98999 524.04 1.01001 528.04Z" fill="#F8E8DB" stroke="#1D1D1B" stroke-miterlimit="10"/>
<path d="M1.01001 534.04C1.01001 534.04 7.01001 542.04 21.01 544.04C21.01 544.04 40.8599 546.28 42.4399 552.66C42.4399 552.66 39.01 530.04 11.01 527.04C11.01 527.04 -1.98999 525.04 1.01001 534.04Z" fill="#F8E8DB" stroke="#1D1D1B" stroke-miterlimit="10"/>
<path d="M-4.98999 525.04C-4.98999 525.04 -15.99 520.04 -15.99 529.04C-15.99 529.04 -15.99 547.04 1.01001 565.04C1.01001 565.04 19.01 546.04 6.01001 525.04C6.01001 525.04 0.0100098 515.04 -4.98999 525.04Z" fill="#F8E8DB" stroke="#1D1D1B" stroke-miterlimit="10"/>
<path d="M1558 592.04H-1167.5V689.54H1558V592.04Z" fill="#F8E8DB" stroke="#1D1D1B" stroke-width="1.01" stroke-miterlimit="10"/>
<path d="M1558 635.04H-1168.5V648.04H1558V635.04Z" fill="#F8E8DB" stroke="#1D1D1B" stroke-miterlimit="10"/>
</g>
<rect x="-1" width="397" height="202" fill="#F0AAC8"/>
<defs>
<clipPath id="clip0_662_361">
<rect width="2727.5" height="505.04" fill="white" transform="translate(-1169 185)"/>
</clipPath>
</defs>
</svg>
