<?xml version="1.0" encoding="UTF-8"?><svg id="Calque_1" xmlns="http://www.w3.org/2000/svg" viewBox="0 0 137.38 290.54"><defs><style>.cls-1,.cls-2,.cls-3,.cls-4,.cls-5,.cls-6,.cls-7,.cls-8{stroke-width:.75px;}.cls-1,.cls-3,.cls-9,.cls-4,.cls-6,.cls-8{stroke:#000;}.cls-1,.cls-9{fill:#fbf2eb;stroke-linecap:square;stroke-linejoin:round;}.cls-2,.cls-3{fill:none;}.cls-2,.cls-3,.cls-4,.cls-5,.cls-6,.cls-7,.cls-8{stroke-miterlimit:10;}.cls-2,.cls-5,.cls-7{stroke:#1d1d1b;}.cls-9{stroke-width:.57px;}.cls-4{fill:#faf2ea;}.cls-5{fill:#efa9c7;}.cls-6{fill:#fff;}.cls-10{fill:#1d1d1b;stroke-width:0px;}.cls-7{fill:#a9c180;}.cls-8{fill:#4669aa;}</style></defs><path class="cls-1" d="M37.15,117.21c-.66-12.42,3.41-37.87,3.41-37.87l-9.75-3.16c-3.26,12.09-2.38,32.15-2.16,42.02.07,3.06-.66,7.19-.66,7.19,0,0-1.08,8,.79,11.18.17.29.77.92,1.42.05.04-.05-.02-.81.04-.27,0,0,0,1.1.75,1.07.51-.02.7-.38.75-.57.04-.13,0-.29.05.05s.21.61.73.61c.83.01.98-.97.98-.97.11.51.6.52.6.52.39.05.72-.23.72-.23,1.31-1.19,2.38-8.6,2.38-8.6,0,0,1.56,2.93,2.51,2.49,1.44-.67-1.06-8.31-1.06-8.31-.14-.89-1.44-3.97-1.51-5.2Z"/><path class="cls-1" d="M72.47,37.07s.77,9,2.78,9l-7.03,11.05-11.05-6.03,1-5.02s3.1-2.43,1.55-7.74"/><polygon class="cls-7" points="49.67 274.73 49.67 290.17 1.38 290.17 27.68 274.73 49.67 274.73"/><path class="cls-3" d="M14.43,280.45s3.6.19,5.95-1.44"/><polygon class="cls-7" points="87.7 274.64 87.7 290.08 136 290.08 109.7 274.64 87.7 274.64"/><polygon class="cls-8" points="45.75 99.81 90.84 99.18 123.25 278.92 83.99 278.92 68.29 139.6 53.1 278.92 16.46 278.92 45.75 99.81"/><path class="cls-4" d="M118.47,278.79s7.53-6.08,6.91-2.86c-.34,1.78-6.91,2.86-6.91,2.86Z"/><path class="cls-3" d="M125.13,280.8s-5.56-.13-7.91-1.75"/><path class="cls-5" d="M74.68,45.73c16.46.94,22.89,5.26,22.89,5.26-1.24,13.84-6.74,48.19-6.74,48.19l-45.09.63-6.34-49.86c7.58-3.24,11.44-3.22,19.08-3.95l3.88,6.4c1.87,3.09,6.35,3.1,8.24.02l4.09-6.69Z"/><path class="cls-2" d="M83.71,102.13s-1.04,11.64,10.41,15.29"/><path class="cls-2" d="M53.47,102.13s1.04,11.64-10.41,15.29"/><path class="cls-5" d="M39.41,49.95s-6.63,2.66-9.28,11.39l-3.28,26.78-2.83,23.14,15.98.17,1.42-20.71,1.11-16.27-3.12-24.5Z"/><path class="cls-6" d="M31.78,136.72s-.16-2.69.36-4.32"/><path class="cls-6" d="M30.25,136.35s-.35-2.62.17-4.25"/><path class="cls-6" d="M33.5,136.5s-.16-2.69.36-4.32"/><path class="cls-4" d="M19.82,278.81s-6.83-5.34-7.12-2.57c-.19,1.8,7.12,2.57,7.12,2.57Z"/><circle class="cls-10" cx="50.95" cy="20.35" r="4.55"/><circle class="cls-10" cx="51" cy="25.1" r="3.35"/><circle class="cls-10" cx="53.63" cy="28.69" r="3.35"/><circle class="cls-10" cx="80.35" cy="24.52" r="3.35"/><circle class="cls-10" cx="81.51" cy="21.18" r="3.35"/><circle class="cls-10" cx="80.35" cy="19.1" r="3.35"/><circle class="cls-10" cx="79.2" cy="14.32" r="3.35"/><circle class="cls-10" cx="50.42" cy="14.85" r="4.47"/><circle class="cls-10" cx="79.05" cy="12.65" r="4.47"/><circle class="cls-10" cx="70.06" cy="4.47" r="4.47"/><circle class="cls-10" cx="58.1" cy="5.79" r="4.47"/><circle class="cls-10" cx="51" cy="12.65" r="3.35"/><circle class="cls-10" cx="54.83" cy="8.41" r="4.64"/><circle class="cls-10" cx="51" cy="11.58" r="3.35"/><circle class="cls-10" cx="53.77" cy="8.92" r="3.35"/><circle class="cls-10" cx="74.74" cy="5.79" r="3.35"/><circle class="cls-10" cx="77.91" cy="9.78" r="3.35"/><path class="cls-1" d="M51.87,21.37s-3.83-.65-2.47,3.89c0,0,.74,2.62,3.4,3.95"/><path class="cls-1" d="M79.81,21.36s3.8-.8,2.63,3.78c0,0-.63,2.65-3.23,4.09"/><path class="cls-9" d="M65.74,3.68c-4.07,0-12.88,1.09-13.87,11.19,0,0-.85,13.81,3,20.17,2.08,3.45,5.39,7.12,10.89,7.12,5.15,0,9.25-3.74,11.3-7.15,1.21-2,3.31-5.48,2.49-20.44,0,0,0-10.9-13.82-10.9Z"/><circle class="cls-10" cx="56.06" cy="8.31" r="3.27"/><circle class="cls-10" cx="53.77" cy="12.48" r="3.27"/><circle class="cls-10" cx="52.8" cy="17.01" r="3.35"/><circle class="cls-10" cx="69.02" cy="9.78" r="2.67"/><circle class="cls-10" cx="73.53" cy="10.99" r="2.67"/><circle class="cls-10" cx="55.13" cy="13.96" r="2.97"/><circle class="cls-10" cx="70.32" cy="5.04" r="2.67"/><circle class="cls-10" cx="58.1" cy="11.58" r="3.27"/><circle class="cls-10" cx="61.05" cy="9.37" r="3.27"/><circle class="cls-10" cx="75.78" cy="9.78" r="3.27"/><circle class="cls-10" cx="78.24" cy="13.66" r="3.27"/><circle class="cls-10" cx="62.26" cy="4.47" r="3.27"/><circle class="cls-10" cx="60.09" cy="6.1" r="3.27"/><circle class="cls-10" cx="72.51" cy="6.95" r="3.27"/><circle class="cls-10" cx="66.67" cy="5.04" r="3.27"/><circle class="cls-10" cx="64.64" cy="8.31" r="3.27"/><circle class="cls-10" cx="60.61" cy="22.16" r=".76"/><line class="cls-2" x1="62.26" y1="18.22" x2="59.85" y2="18.48"/><circle class="cls-10" cx="72.51" cy="22.16" r=".76"/><line class="cls-2" x1="70.87" y1="18.22" x2="73.28" y2="18.48"/><polyline class="cls-2" points="66.51 24.52 65.68 30.74 67.65 31.13"/><path class="cls-2" d="M71.11,34.86c-4.98,2.91-9.1,0-9.1,0"/><circle class="cls-10" cx="81.51" cy="17.67" r="3.67"/><path class="cls-2" d="M58.63,19.32h3.64c1.31,0,2.38,1.06,2.38,2.38h0c0,2.31-1.88,4.19-4.19,4.19h0c-2.31,0-4.19-1.88-4.19-4.19h0c0-1.31,1.06-2.38,2.38-2.38Z"/><path class="cls-2" d="M70.7,19.32h3.64c1.31,0,2.38,1.06,2.38,2.38h0c0,2.31-1.88,4.19-4.19,4.19h0c-2.31,0-4.19-1.88-4.19-4.19h0c0-1.31,1.06-2.38,2.38-2.38Z"/><path class="cls-2" d="M64.59,22.29s2.15-.53,3.73,0"/><line class="cls-2" x1="51.87" y1="21.37" x2="56.29" y2="22.24"/><line class="cls-2" x1="80.99" y1="21.32" x2="76.57" y2="22.19"/><path class="cls-1" d="M84.81,108.87s2.51-7.05,5.96-6.73l7.4,6.41s-2.09,7.95-7.9,6.98c0,0-4.04-2.43-5.46-6.66Z"/><path class="cls-5" d="M97.57,50.99s4.09,2.34,7.11,10.01l5.37,27.5-8.42,27.32-16.46-14.24,12.39-15.64-2.89-12.1,2.89-22.85Z"/></svg>