<svg width="203" height="203" viewBox="0 0 203 203" fill="none" xmlns="http://www.w3.org/2000/svg">
<circle cx="101.5" cy="101.5" r="101" fill="#F0AAC8" stroke="black"/>
<g clip-path="url(#clip0_548_5562)">
<path d="M46.0995 117.488C55.7026 117.488 63.4874 109.592 63.4874 99.8521C63.4874 90.1119 55.7026 82.2158 46.0995 82.2158C36.4964 82.2158 28.7115 90.1119 28.7115 99.8521C28.7115 109.592 36.4964 117.488 46.0995 117.488Z" fill="#1D1D1B"/>
<path d="M46.2755 131.215C53.3343 131.215 59.0565 125.411 59.0565 118.251C59.0565 111.092 53.3343 105.288 46.2755 105.288C39.2168 105.288 33.4945 111.092 33.4945 118.251C33.4945 125.411 39.2168 131.215 46.2755 131.215Z" fill="#1D1D1B"/>
<path d="M56.3372 145.12C63.3959 145.12 69.1182 139.316 69.1182 132.156C69.1182 124.996 63.3959 119.192 56.3372 119.192C49.2784 119.192 43.5562 124.996 43.5562 132.156C43.5562 139.316 49.2784 145.12 56.3372 145.12Z" fill="#1D1D1B"/>
<path d="M152.395 142.264C159.453 142.264 165.176 136.46 165.176 129.301C165.176 122.141 159.453 116.337 152.395 116.337C145.336 116.337 139.614 122.141 139.614 129.301C139.614 136.46 145.336 142.264 152.395 142.264Z" fill="#1D1D1B"/>
<path d="M158.361 128.959C165.42 128.959 171.142 123.155 171.142 115.996C171.142 108.836 165.42 103.032 158.361 103.032C151.302 103.032 145.58 108.836 145.58 115.996C145.58 123.155 151.302 128.959 158.361 128.959Z" fill="#1D1D1B"/>
<path d="M162.792 116.012C169.851 116.012 175.573 110.208 175.573 103.049C175.573 95.889 169.851 90.085 162.792 90.085C155.733 90.085 150.011 95.889 150.011 103.049C150.011 110.208 155.733 116.012 162.792 116.012Z" fill="#1D1D1B"/>
<path d="M158.361 107.949C165.42 107.949 171.142 102.145 171.142 94.9851C171.142 87.8255 165.42 82.0215 158.361 82.0215C151.302 82.0215 145.58 87.8255 145.58 94.9851C145.58 102.145 151.302 107.949 158.361 107.949Z" fill="#1D1D1B"/>
<path d="M153.994 89.4521C161.053 89.4521 166.775 83.6481 166.775 76.4885C166.775 69.3289 161.053 63.5249 153.994 63.5249C146.936 63.5249 141.213 69.3289 141.213 76.4885C141.213 83.6481 146.936 89.4521 153.994 89.4521Z" fill="#1D1D1B"/>
<path d="M44.068 95.861C53.4944 95.861 61.136 88.1102 61.136 78.5491C61.136 68.9881 53.4944 61.2373 44.068 61.2373C34.6416 61.2373 27 68.9881 27 78.5491C27 88.1102 34.6416 95.861 44.068 95.861Z" fill="#1D1D1B"/>
<path d="M153.434 87.3107C162.861 87.3107 170.502 79.5599 170.502 69.9988C170.502 60.4378 162.861 52.687 153.434 52.687C144.008 52.687 136.366 60.4378 136.366 69.9988C136.366 79.5599 144.008 87.3107 153.434 87.3107Z" fill="#1D1D1B"/>
<path d="M119.058 55.6237C128.485 55.6237 136.126 47.8729 136.126 38.3118C136.126 28.7508 128.485 21 119.058 21C109.632 21 101.99 28.7508 101.99 38.3118C101.99 47.8729 109.632 55.6237 119.058 55.6237Z" fill="#1D1D1B"/>
<path d="M73.4052 60.7506C82.8316 60.7506 90.4732 52.9998 90.4732 43.4388C90.4732 33.8777 82.8316 26.127 73.4052 26.127C63.9788 26.127 56.3372 33.8777 56.3372 43.4388C56.3372 52.9998 63.9788 60.7506 73.4052 60.7506Z" fill="#1D1D1B"/>
<path d="M46.2755 82.9623C53.3343 82.9623 59.0565 77.1583 59.0565 69.9988C59.0565 62.8392 53.3343 57.0352 46.2755 57.0352C39.2168 57.0352 33.4945 62.8392 33.4945 69.9988C33.4945 77.1583 39.2168 82.9623 46.2755 82.9623Z" fill="#1D1D1B"/>
<path d="M60.9121 71.54C70.7007 71.54 78.6359 63.4914 78.6359 53.563C78.6359 43.6345 70.7007 35.5859 60.9121 35.5859C51.1235 35.5859 43.1882 43.6345 43.1882 53.563C43.1882 63.4914 51.1235 71.54 60.9121 71.54Z" fill="#1D1D1B"/>
<path d="M46.2755 78.8412C53.3343 78.8412 59.0565 73.0372 59.0565 65.8777C59.0565 58.7181 53.3343 52.9141 46.2755 52.9141C39.2168 52.9141 33.4945 58.7181 33.4945 65.8777C33.4945 73.0372 39.2168 78.8412 46.2755 78.8412Z" fill="#1D1D1B"/>
<path d="M56.849 68.5063C63.9078 68.5063 69.63 62.7023 69.63 55.5427C69.63 48.3831 63.9078 42.5791 56.849 42.5791C49.7902 42.5791 44.068 48.3831 44.068 55.5427C44.068 62.7023 49.7902 68.5063 56.849 68.5063Z" fill="#1D1D1B"/>
<path d="M136.942 56.4023C144.001 56.4023 149.723 50.5983 149.723 43.4387C149.723 36.2791 144.001 30.4751 136.942 30.4751C129.884 30.4751 124.161 36.2791 124.161 43.4387C124.161 50.5983 129.884 56.4023 136.942 56.4023Z" fill="#1D1D1B"/>
<path d="M149.067 71.8486C156.126 71.8486 161.848 66.0446 161.848 58.885C161.848 51.7254 156.126 45.9214 149.067 45.9214C142.009 45.9214 136.286 51.7254 136.286 58.885C136.286 66.0446 142.009 71.8486 149.067 71.8486Z" fill="#1D1D1B"/>
<path d="M49.6027 103.779C49.6027 103.779 34.9501 101.264 40.1649 118.851C40.1649 118.851 42.9802 129.008 53.1378 134.151" fill="#FCF3EC"/>
<path d="M49.6027 103.779C49.6027 103.779 34.9501 101.264 40.1649 118.851C40.1649 118.851 42.9802 129.008 53.1378 134.151" stroke="#1D1D1B" stroke-width="0.83" stroke-miterlimit="10"/>
<path d="M156.298 103.762C156.298 103.762 170.822 100.647 166.327 118.43C166.327 118.43 163.928 128.7 153.994 134.265" fill="#FCF3EC"/>
<path d="M156.298 103.762C156.298 103.762 170.822 100.647 166.327 118.43C166.327 118.43 163.928 128.7 153.994 134.265" stroke="#1D1D1B" stroke-width="0.83" stroke-miterlimit="10"/>
<path d="M102.598 35.2451C87.0659 35.2451 53.3938 39.4636 49.6187 78.5815C49.6187 78.5815 46.3874 132.075 61.088 156.736C69.0541 170.089 81.6592 184.318 102.694 184.318C122.354 184.318 138.03 169.846 145.868 156.639C150.475 148.883 158.505 135.417 155.386 77.4782C155.386 77.4782 155.386 35.2451 102.598 35.2451Z" fill="#FCF3EC" stroke="#1D1D1B" stroke-width="0.83" stroke-miterlimit="10"/>
<path d="M65.631 65.8778C72.5307 65.8778 78.1241 60.2045 78.1241 53.2062C78.1241 46.2079 72.5307 40.5347 65.631 40.5347C58.7313 40.5347 53.1379 46.2079 53.1379 53.2062C53.1379 60.2045 58.7313 65.8778 65.631 65.8778Z" fill="#1D1D1B"/>
<path d="M56.849 82.0213C63.7488 82.0213 69.3421 76.3481 69.3421 69.3498C69.3421 62.3515 63.7488 56.6782 56.849 56.6782C49.9493 56.6782 44.356 62.3515 44.356 69.3498C44.356 76.3481 49.9493 82.0213 56.849 82.0213Z" fill="#1D1D1B"/>
<path d="M53.1378 99.8525C60.1966 99.8525 65.9188 94.0485 65.9188 86.8889C65.9188 79.7293 60.1966 73.9253 53.1378 73.9253C46.0791 73.9253 40.3568 79.7293 40.3568 86.8889C40.3568 94.0485 46.0791 99.8525 53.1378 99.8525Z" fill="#1D1D1B"/>
<path d="M115.107 69.2202C120.735 69.2202 125.297 64.5929 125.297 58.885C125.297 53.177 120.735 48.5498 115.107 48.5498C109.48 48.5498 104.918 53.177 104.918 58.885C104.918 64.5929 109.48 69.2202 115.107 69.2202Z" fill="#1D1D1B"/>
<path d="M132.351 73.9252C137.979 73.9252 142.541 69.298 142.541 63.5901C142.541 57.8821 137.979 53.2549 132.351 53.2549C126.724 53.2549 122.162 57.8821 122.162 63.5901C122.162 69.298 126.724 73.9252 132.351 73.9252Z" fill="#1D1D1B"/>
<path d="M62.0638 86.5966C68.3274 86.5966 73.4051 81.4463 73.4051 75.0932C73.4051 68.7401 68.3274 63.5898 62.0638 63.5898C55.8001 63.5898 50.7224 68.7401 50.7224 75.0932C50.7224 81.4463 55.8001 86.5966 62.0638 86.5966Z" fill="#1D1D1B"/>
<path d="M120.066 50.8862C125.694 50.8862 130.256 46.259 130.256 40.551C130.256 34.843 125.694 30.2158 120.066 30.2158C114.439 30.2158 109.877 34.843 109.877 40.551C109.877 46.259 114.439 50.8862 120.066 50.8862Z" fill="#1D1D1B"/>
<path d="M73.4052 78.5492C80.3049 78.5492 85.8983 72.8759 85.8983 65.8776C85.8983 58.8793 80.3049 53.2061 73.4052 53.2061C66.5054 53.2061 60.9121 58.8793 60.9121 65.8776C60.9121 72.8759 66.5054 78.5492 73.4052 78.5492Z" fill="#1D1D1B"/>
<path d="M84.6665 69.9827C91.5663 69.9827 97.1596 64.3095 97.1596 57.3112C97.1596 50.3129 91.5663 44.6396 84.6665 44.6396C77.7668 44.6396 72.1735 50.3129 72.1735 57.3112C72.1735 64.3095 77.7668 69.9827 84.6665 69.9827Z" fill="#1D1D1B"/>
<path d="M140.941 71.5565C147.841 71.5565 153.434 65.8832 153.434 58.8849C153.434 51.8866 147.841 46.2134 140.941 46.2134C134.042 46.2134 128.448 51.8866 128.448 58.8849C128.448 65.8832 134.042 71.5565 140.941 71.5565Z" fill="#1D1D1B"/>
<path d="M150.315 86.5965C157.215 86.5965 162.808 80.9233 162.808 73.925C162.808 66.9267 157.215 61.2534 150.315 61.2534C143.415 61.2534 137.822 66.9267 137.822 73.925C137.822 80.9233 143.415 86.5965 150.315 86.5965Z" fill="#1D1D1B"/>
<path d="M89.2735 50.9832C96.1732 50.9832 101.767 45.31 101.767 38.3117C101.767 31.3134 96.1732 25.6401 89.2735 25.6401C82.3737 25.6401 76.7804 31.3134 76.7804 38.3117C76.7804 45.31 82.3737 50.9832 89.2735 50.9832Z" fill="#1D1D1B"/>
<path d="M81.0033 57.3109C87.9031 57.3109 93.4964 51.6376 93.4964 44.6393C93.4964 37.641 87.9031 31.9678 81.0033 31.9678C74.1036 31.9678 68.5103 37.641 68.5103 44.6393C68.5103 51.6376 74.1036 57.3109 81.0033 57.3109Z" fill="#1D1D1B"/>
<path d="M128.464 60.5882C135.364 60.5882 140.957 54.915 140.957 47.9167C140.957 40.9184 135.364 35.2451 128.464 35.2451C121.565 35.2451 115.971 40.9184 115.971 47.9167C115.971 54.915 121.565 60.5882 128.464 60.5882Z" fill="#1D1D1B"/>
<path d="M106.133 53.2225C113.033 53.2225 118.627 47.5492 118.627 40.5509C118.627 33.5526 113.033 27.8794 106.133 27.8794C99.2337 27.8794 93.6404 33.5526 93.6404 40.5509C93.6404 47.5492 99.2337 53.2225 106.133 53.2225Z" fill="#1D1D1B"/>
<path d="M98.3753 65.8778C105.275 65.8778 110.868 60.2045 110.868 53.2062C110.868 46.2079 105.275 40.5347 98.3753 40.5347C91.4755 40.5347 85.8822 46.2079 85.8822 53.2062C85.8822 60.2045 91.4755 65.8778 98.3753 65.8778Z" fill="#1D1D1B"/>
<path d="M82.9869 109.798C84.5948 109.798 85.8982 108.476 85.8982 106.845C85.8982 105.215 84.5948 103.893 82.9869 103.893C81.379 103.893 80.0756 105.215 80.0756 106.845C80.0756 108.476 81.379 109.798 82.9869 109.798Z" fill="#1D1D1B"/>
<path d="M89.2734 91.5938L80.0756 92.5997" stroke="#1D1D1B" stroke-width="0.88" stroke-miterlimit="10"/>
<path d="M128.464 109.798C130.072 109.798 131.376 108.476 131.376 106.845C131.376 105.215 130.072 103.893 128.464 103.893C126.856 103.893 125.553 105.215 125.553 106.845C125.553 108.476 126.856 109.798 128.464 109.798Z" fill="#1D1D1B"/>
<path d="M122.162 91.5938L131.36 92.5997" stroke="#1D1D1B" stroke-width="0.88" stroke-miterlimit="10"/>
<path d="M105.51 115.996L102.374 140.09L109.877 141.599" stroke="#1D1D1B" stroke-width="0.88" stroke-miterlimit="10"/>
<path d="M123.105 156.039C104.07 167.299 88.3456 156.039 88.3456 156.039" stroke="#1D1D1B" stroke-width="0.88" stroke-miterlimit="10"/>
<path d="M162.792 103.681C170.54 103.681 176.821 97.3108 176.821 89.4523C176.821 81.5937 170.54 75.2231 162.792 75.2231C155.044 75.2231 148.763 81.5937 148.763 89.4523C148.763 97.3108 155.044 103.681 162.792 103.681Z" fill="#1D1D1B"/>
<path d="M75.4207 95.8613H89.3055C94.3123 95.8613 98.3753 99.9824 98.3753 105.061C98.3753 114.033 91.193 121.302 82.3631 121.302C73.5172 121.302 66.3508 114.017 66.3508 105.061C66.3508 99.9824 70.4139 95.8613 75.4207 95.8613Z" stroke="#1D1D1B" stroke-width="0.76" stroke-miterlimit="10"/>
<path d="M121.522 95.8613H135.407C140.413 95.8613 144.477 99.9824 144.477 105.061C144.477 114.033 137.294 121.302 128.464 121.302C119.618 121.302 112.452 114.017 112.452 105.061C112.452 99.9824 116.515 95.8613 121.522 95.8613Z" stroke="#1D1D1B" stroke-width="0.76" stroke-miterlimit="10"/>
<path d="M98.1993 107.348C98.1993 107.348 106.421 105.272 112.436 107.348" stroke="#1D1D1B" stroke-width="0.76" stroke-miterlimit="10"/>
<path d="M49.6027 103.779L66.5107 107.154" stroke="#1D1D1B" stroke-width="0.76" stroke-miterlimit="10"/>
<path d="M160.841 103.6L143.933 106.975" stroke="#1D1D1B" stroke-width="0.76" stroke-miterlimit="10"/>
</g>
<defs>
<clipPath id="clip0_548_5562">
<rect width="149.837" height="164" fill="white" transform="translate(27 21)"/>
</clipPath>
</defs>
</svg>
