<?xml version="1.0" encoding="UTF-8"?><svg id="Calque_1" xmlns="http://www.w3.org/2000/svg" viewBox="0 0 107.69 116.24"><defs><style>.cls-1{fill:#fcf3ec;}.cls-1,.cls-2{stroke:#1d1d1b;stroke-miterlimit:10;}.cls-2{fill:none;}.cls-3{fill:#1d1d1b;stroke-width:0px;}</style></defs><circle class="cls-3" cx="13.72" cy="55.88" r="12.5"/><circle class="cls-3" cx="13.86" cy="68.91" r="9.18"/><circle class="cls-3" cx="21.08" cy="78.77" r="9.18"/><circle class="cls-3" cx="94.42" cy="67.32" r="9.18"/><circle class="cls-3" cx="97.61" cy="58.14" r="9.18"/><circle class="cls-3" cx="94.42" cy="52.42" r="9.18"/><circle class="cls-3" cx="91.28" cy="39.32" r="9.18"/><circle class="cls-3" cx="12.27" cy="40.78" r="12.27"/><circle class="cls-3" cx="90.87" cy="34.73" r="12.27"/><circle class="cls-3" cx="66.17" cy="12.27" r="12.27"/><circle class="cls-3" cx="33.35" cy="15.9" r="12.27"/><circle class="cls-3" cx="13.86" cy="34.73" r="9.18"/><circle class="cls-3" cx="24.38" cy="23.07" r="12.74"/><circle class="cls-3" cx="13.86" cy="31.8" r="9.18"/><circle class="cls-3" cx="21.45" cy="24.48" r="9.18"/><circle class="cls-3" cx="79.02" cy="15.9" r="9.18"/><circle class="cls-3" cx="87.73" cy="26.84" r="9.18"/><path class="cls-1" d="M16.24,58.66s-10.53-1.78-6.78,10.68c0,0,2.03,7.2,9.32,10.84"/><path class="cls-1" d="M92.94,58.65s10.45-2.21,7.21,10.39c0,0-1.73,7.28-8.87,11.22"/><path class="cls-1" d="M54.34,10.1c-11.17,0-35.37,2.99-38.08,30.71,0,0-2.33,37.9,8.25,55.38,5.72,9.46,14.79,19.54,29.91,19.54,14.13,0,25.4-10.26,31.03-19.62,3.31-5.5,9.09-15.04,6.84-56.1,0,0,0-29.92-37.94-29.92Z"/><circle class="cls-3" cx="27.76" cy="22.82" r="8.98"/><circle class="cls-3" cx="21.45" cy="34.26" r="8.98"/><circle class="cls-3" cx="18.79" cy="46.69" r="9.18"/><circle class="cls-3" cx="63.33" cy="26.84" r="7.33"/><circle class="cls-3" cx="75.72" cy="30.18" r="7.33"/><circle class="cls-3" cx="25.2" cy="38.33" r="8.15"/><circle class="cls-3" cx="66.9" cy="13.85" r="7.33"/><circle class="cls-3" cx="33.35" cy="31.8" r="8.98"/><circle class="cls-3" cx="41.45" cy="25.73" r="8.98"/><circle class="cls-3" cx="81.9" cy="26.84" r="8.98"/><circle class="cls-3" cx="88.63" cy="37.51" r="8.98"/><circle class="cls-3" cx="44.76" cy="12.27" r="8.98"/><circle class="cls-3" cx="38.82" cy="16.76" r="8.98"/><circle class="cls-3" cx="72.92" cy="19.08" r="8.98"/><circle class="cls-3" cx="56.87" cy="13.85" r="8.98"/><circle class="cls-3" cx="51.3" cy="22.82" r="8.98"/><circle class="cls-3" cx="40.24" cy="60.83" r="2.09"/><line class="cls-2" x1="44.76" y1="50.02" x2="38.14" y2="50.74"/><circle class="cls-3" cx="72.92" cy="60.83" r="2.09"/><line class="cls-2" x1="68.4" y1="50.02" x2="75.01" y2="50.74"/><polyline class="cls-2" points="56.43 67.32 54.17 84.39 59.57 85.46"/><path class="cls-2" d="M69.07,95.69c-13.68,7.98-24.98,0-24.98,0"/><circle class="cls-3" cx="97.61" cy="48.51" r="10.09"/><path class="cls-2" d="M33.95,53.05h11.68c3.13,0,5.67,2.54,5.67,5.67v2.35c0,5.53-4.49,10.01-10.01,10.01h-3c-5.53,0-10.01-4.49-10.01-10.01v-2.35c0-3.13,2.54-5.67,5.67-5.67Z"/><path class="cls-2" d="M67.08,53.05h11.68c3.13,0,5.67,2.54,5.67,5.67v2.35c0,5.53-4.49,10.01-10.01,10.01h-3c-5.53,0-10.01-4.49-10.01-10.01v-2.35c0-3.13,2.54-5.67,5.67-5.67Z"/><path class="cls-2" d="M51.18,61.19s5.91-1.47,10.23,0"/><line class="cls-2" x1="16.24" y1="58.66" x2="28.39" y2="61.06"/><line class="cls-2" x1="96.2" y1="58.53" x2="84.05" y2="60.92"/></svg>