<svg id="Calque_1" data-name="Calque 1" xmlns="http://www.w3.org/2000/svg" viewBox="0 0 671.25 601.62">
  <defs>
    <style>
      .cls-1 {
        opacity: .12;
      }

      .cls-2 {
        fill: #e57e5d;
      }

      .cls-3 {
        fill: #684f5f;
      }

      .cls-4 {
        fill: #6e454c;
      }

      .cls-5 {
        fill: #54363d;
      }

      .cls-6 {
        fill: #5a344b;
      }

      .cls-7 {
        fill: #4b284a;
      }

      .cls-8 {
        fill: #603d44;
      }
    </style>
  </defs>
  <g>
    <path class="cls-4" d="m28.478,0v448.66h642.75V0H28.478Zm616.16,422.08H55.118V23.35h589.52v398.73Z"/>
    <polygon class="cls-1" points="671.228 448.658 626.283 475.74 0 475.74 0 29.418 28.475 29.418 28.475 448.658 671.228 448.658"/>
    <polygon class="cls-8" points="644.637 23.353 633.916 36.099 55.122 36.099 55.122 23.353 644.637 23.353"/>
    <polygon class="cls-5" points="644.637 23.353 644.637 422.078 633.916 422.078 633.916 36.099 644.637 23.353"/>
    <polygon class="cls-6" points="55.122 351.546 258.35 422.078 55.122 422.078 55.122 351.546"/>
    <polygon class="cls-7" points="55.122 36.099 633.916 371.581 633.916 422.078 258.35 422.078 55.122 351.546 55.122 36.099"/>
    <polygon class="cls-3" points="55.122 36.099 633.916 371.581 633.916 36.099 55.122 36.099"/>
    <g>
      <path class="cls-2" d="m237.504,190.8c-30.197,0-54.764-24.567-54.764-54.763s24.566-54.763,54.764-54.763,54.763,24.566,54.763,54.763-24.566,54.763-54.763,54.763Zm0-102.526c-26.337,0-47.764,21.426-47.764,47.763s21.427,47.763,47.764,47.763,47.763-21.426,47.763-47.763-21.426-47.763-47.763-47.763Z"/>
      <path class="cls-2" d="m350.385,190.8c-30.196,0-54.763-24.567-54.763-54.763s24.566-54.763,54.763-54.763,54.764,24.566,54.764,54.763-24.566,54.763-54.764,54.763Zm0-102.526c-26.337,0-47.763,21.426-47.763,47.763s21.426,47.763,47.763,47.763,47.764-21.426,47.764-47.763-21.427-47.763-47.764-47.763Z"/>
      <path class="cls-2" d="m463.268,190.8c-30.196,0-54.763-24.567-54.763-54.763s24.566-54.763,54.763-54.763,54.763,24.566,54.763,54.763-24.566,54.763-54.763,54.763Zm0-102.526c-26.337,0-47.763,21.426-47.763,47.763s21.426,47.763,47.763,47.763,47.763-21.426,47.763-47.763-21.426-47.763-47.763-47.763Z"/>
      <path class="cls-2" d="m407.304,236.257c-30.196,0-54.763-24.567-54.763-54.763s24.566-54.763,54.763-54.763,54.763,24.567,54.763,54.763-24.566,54.763-54.763,54.763Zm0-102.526c-26.337,0-47.763,21.426-47.763,47.763s21.426,47.763,47.763,47.763,47.763-21.426,47.763-47.763-21.426-47.763-47.763-47.763Z"/>
      <path class="cls-2" d="m294.911,236.257c-30.196,0-54.763-24.567-54.763-54.763s24.566-54.763,54.763-54.763,54.764,24.567,54.764,54.763-24.566,54.763-54.764,54.763Zm0-102.526c-26.337,0-47.763,21.426-47.763,47.763s21.426,47.763,47.763,47.763,47.764-21.426,47.764-47.763-21.427-47.763-47.764-47.763Z"/>
    </g>
    <g>
      <path class="cls-2" d="m313.434,291.649c3.83,0,7.66.009,11.49-.005,1.377-.005,2.692.049,3.798,1.081,1.982,1.849,2.932,3.231.449,5.898-3.162,3.397-6.277,5.414-11.105,4.818-3.529-.436-7.245-.587-10.718.032-6.018,1.073-8.504-3.428-11.851-6.634-1.229-1.178-.132-2.47.735-3.148,1.517-1.187,3.153-2.196,5.342-2.099,3.946.173,7.905.049,11.858.057Z"/>
      <path class="cls-2" d="m288.693,315.399c0-3.334-.002-6.668.001-10.001,0-.741.006-1.482.034-2.222.091-2.448,1.959-3.757,3.671-4.786,1.667-1.002,2.312,1.262,3.486,1.951,4.031,2.366,4.905,5.981,4.609,10.414-.32,4.793-.321,9.646.035,14.435.315,4.239-2.654,5.872-5.327,7.679-1.62,1.095-6.289-3.008-6.378-5.621-.134-3.946-.035-7.9-.035-11.851-.032,0-.064,0-.096,0Z"/>
      <path class="cls-2" d="m288.678,355.597c0-2.718.382-5.505-.087-8.139-.765-4.296,1.864-6.714,4.292-9.376.686-.751,1.825-1.033,2.304-.421,2.012,2.57,5.667,3.963,5.298,8.282-.356,4.17-.409,8.432.035,12.586.554,5.183-1.03,9.079-5.308,11.951-1.052.706-1.981,2.62-3.191,1.802-1.455-.984-3.421-1.937-3.317-4.456.168-4.07.045-8.152.045-12.229h-.072Z"/>
      <path class="cls-2" d="m337.156,355.744c0,3.579-.187,7.172.062,10.734.184,2.632-1.433,4.039-2.888,5.679-.347.392-.687.631-1.253.513-2.059-.43-6.617-6.337-6.626-8.731-.02-5.678.378-11.386-.097-17.023-.343-4.075,1.621-6.575,4.075-9.1.487-.501,1.251-1.245,1.887-.516,1.939,2.224,5.123,3.554,4.925,7.339-.193,3.692-.042,7.403-.042,11.105h-.043Z"/>
      <path class="cls-2" d="m337.197,314.997c0,3.582-.112,7.169.043,10.745.089,2.043-.471,3.709-2.06,4.854-1.315.947-2.106,3.637-3.877,2.691-2.048-1.095-4.491-2.958-4.6-5.454-.322-7.396-.437-14.833,0-22.217.209-3.52,3.714-5.738,6.476-7.058,1.591-.761,3.912,1.958,3.98,4.582.102,3.95.027,7.905.037,11.857Z"/>
      <path class="cls-2" d="m312.947,378.757c-3.95,0-7.902-.067-11.85.033-1.583.04-2.824-.34-4.044-1.378-1.864-1.587-2.08-2.664-.194-4.698,3.231-3.484,6.661-5.436,11.584-4.801,3.158.407,6.433.313,9.615.017,4.356-.405,7.943.443,10.527,4.305.795,1.187,2.436,2.011,1.722,3.7-.772,1.829-2.28,2.785-4.397,2.757-4.321-.059-8.642-.018-12.964-.018,0,.028,0,.056,0,.084Z"/>
      <g>
        <path class="cls-2" d="m247.046,302.855c-2.094,0-3.761-.28-5.297.05-5.859,1.257-9.113-2.48-12.467-6.165-.668-.735-1.091-1.559-.344-2.263,1.561-1.472,2.832-3.417,5.421-3.376,4.942.077,9.886.038,14.829.043,3.213.003,6.43.096,9.638-.034,2.501-.101,4.003,1.456,5.03,3.199,1.122,1.902-1.027,2.939-1.889,4.348-3.853,6.295-10.058,3.617-14.921,4.2Z"/>
        <path class="cls-2" d="m270.572,314.562c0,3.331-.039,6.662.015,9.992.031,1.881-.121,3.469-1.705,4.956-1.356,1.273-2.36,4.093-4.191,3.229-2.228-1.052-4.818-2.846-4.853-6.008-.079-7.03-.055-14.062-.005-21.093.01-1.338,5.711-8.247,6.667-7.965,2.391.704,3.938,2.46,4.008,5.05.106,3.944.028,7.893.028,11.84.012,0,.024,0,.037,0Z"/>
        <path class="cls-2" d="m222.147,354.861c0-3.586,0-7.173,0-10.759,0-1.232-.168-2.529.903-3.453,1.697-1.464,2.726-4.444,5.378-3.782,1.504.376,2.557,2.49,3.856,3.78,1.328,1.319.763,2.913,1.009,4.422.942,5.777.38,11.519.558,17.266.062,1.987-5.672,9.552-7.508,9.507-2.838-.069-3.958-2.188-4.132-4.742-.142-2.092-.025-4.201-.024-6.303,0-1.979,0-3.957,0-5.936h-.04Z"/>
        <path class="cls-2" d="m246.338,378.153c-3.959,0-7.919-.072-11.875.03-2.04.053-3.592-.663-4.869-2.173-.489-.578-.919-1.138-.697-1.981.462-1.759,6.501-6.528,8.449-6.531,6.185-.01,12.37.014,18.555.074,1.866.018,8.491,5.016,8.302,6.567-.319,2.609-2.228,3.976-4.876,4.009-4.329.053-8.659.014-12.989.006Z"/>
        <path class="cls-2" d="m246.638,330.889c3.341,0,6.711.271,10.014-.08,3.01-.32,4.576,1.41,6.118,3.311,1.21,1.491-1.265,5.245-3.931,5.315-7.911.208-15.842.277-23.742-.089-2.315-.107-5.214-2.114-4.811-4.665.386-2.439,2.906-4.029,5.961-3.882,3.456.166,6.927.038,10.391.038,0,.017,0,.034,0,.052Z"/>
      </g>
      <g>
        <path class="cls-2" d="m380.467,303.265c-2.094,0-3.761-.28-5.297.05-5.859,1.257-9.113-2.48-12.467-6.165-.668-.735-1.091-1.559-.344-2.263,1.561-1.472,2.832-3.417,5.421-3.376,4.942.077,9.886.038,14.829.043,3.213.003,6.43.096,9.638-.034,2.501-.101,4.003,1.456,5.03,3.199,1.122,1.902-1.027,2.939-1.889,4.348-3.853,6.295-10.058,3.617-14.921,4.2Z"/>
        <path class="cls-2" d="m403.993,314.973c0,3.331-.039,6.662.015,9.992.031,1.881-.121,3.469-1.705,4.956-1.356,1.273-2.36,4.093-4.191,3.229-2.228-1.052-4.818-2.846-4.853-6.008-.079-7.03-.055-14.062-.005-21.093.01-1.338,5.711-8.247,6.667-7.965,2.391.704,3.938,2.46,4.008,5.05.106,3.944.028,7.893.028,11.84.012,0,.024,0,.037,0Z"/>
        <path class="cls-2" d="m355.568,355.272c0-3.586,0-7.173,0-10.759,0-1.232-.168-2.529.903-3.453,1.697-1.464,2.726-4.444,5.378-3.782,1.504.376,2.557,2.49,3.856,3.78,1.328,1.319.763,2.913,1.009,4.422.942,5.777.38,11.519.558,17.266.062,1.987-5.672,9.552-7.508,9.507-2.838-.069-3.958-2.188-4.132-4.742-.142-2.092-.025-4.201-.024-6.303,0-1.979,0-3.957,0-5.936h-.04Z"/>
        <path class="cls-2" d="m379.758,378.564c-3.959,0-7.919-.072-11.875.03-2.04.053-3.592-.663-4.869-2.173-.489-.578-.919-1.138-.697-1.981.462-1.759,6.501-6.528,8.449-6.531,6.185-.01,12.37.014,18.555.074,1.866.018,8.491,5.016,8.302,6.567-.319,2.609-2.228,3.976-4.876,4.009-4.329.053-8.659.014-12.989.006Z"/>
        <path class="cls-2" d="m380.058,331.3c3.341,0,6.711.271,10.014-.08,3.01-.32,4.576,1.41,6.118,3.311,1.21,1.491-1.265,5.245-3.931,5.315-7.911.208-15.842.277-23.742-.089-2.315-.107-5.214-2.114-4.811-4.665.386-2.439,2.906-4.029,5.961-3.882,3.456.166,6.927.038,10.391.038,0,.017,0,.034,0,.052Z"/>
      </g>
      <g>
        <path class="cls-2" d="m421.528,312.43c0-3.586.138-7.18-.046-10.756-.137-2.671,1.344-4.326,3.324-5.27,1.91-.91,2.89,1.3,4.281,2.204,4.094,2.661,4.48,6.523,4.234,10.91-.269,4.808-.213,9.649-.003,14.463.176,4.036-3.133,5.356-5.424,7.321-1.257,1.078-6.273-4.377-6.328-7.001-.083-3.956-.022-7.914-.022-11.871h-.018Z"/>
        <path class="cls-2" d="m470.081,353.699c0,3.705-.151,7.419.05,11.113.147,2.705-1.442,4.278-3.344,5.303-1.879,1.013-2.497-1.408-3.712-2.244-3.312-2.278-4.039-5.551-3.882-9.372.213-5.18.34-10.39.029-15.558-.229-3.8,2.544-5.337,4.569-7.497.778-.829,1.553-.184,2.208.469,2.365,2.361,4.685,4.574,4.129,8.532-.426,3.028-.085,6.165-.085,9.253.013,0,.026,0,.038,0Z"/>
        <path class="cls-2" d="m470.076,313.209c0,3.588-.079,7.178.036,10.762.051,1.602-.237,2.997-1.455,4.004-1.446,1.195-2.591,4.045-4.458,3.149-2.387-1.146-4.775-3.177-4.794-6.489-.042-7.049-.099-14.099-.093-21.148.001-1.444,5.499-7.55,6.687-7.223,2.419.666,3.967,2.414,4.008,5.072.061,3.957.016,7.916.016,11.873.018,0,.035,0,.053,0Z"/>
        <path class="cls-2" d="m446.237,329.39c3.455,0,6.909-.011,10.364.004,2.384.011,6.221,2.98,5.517,4.546-.871,1.938-2.293,3.365-5.112,3.68-7.136.798-14.255.039-21.362.482-3.195.2-4.512-2.29-5.995-4.265-.962-1.281,2.592-4.451,5.115-4.499,3.823-.072,7.649-.019,11.473-.019v.07Z"/>
      </g>
    </g>
  </g>
  <g>
    <path class="cls-4" d="m36.116,530.795c1.836,1.972,4.283,3.739,7.751,3.739,4.896,0,7.955-3.264,7.955-8.227v-30.869h7.955v31.005c0,10.335-6.527,15.162-15.298,15.162-4.692,0-8.84-1.359-12.035-4.759l3.672-6.052Z"/>
    <path class="cls-4" d="m69.434,540.79v-45.352h31.073v7.003h-23.117v11.763h22.642v7.003h-22.642v12.578h23.117v7.004h-31.073Z"/>
    <path class="cls-4" d="m108.67,495.438h8.023v27.197c0,7.207,4.012,11.898,11.627,11.898,7.547,0,11.559-4.691,11.559-11.898v-27.197h8.023v27.401c0,11.287-6.459,18.766-19.582,18.766-13.19,0-19.65-7.547-19.65-18.698v-27.469Z"/>
    <path class="cls-4" d="m187.887,540.79l-12.715-17.746-12.715,17.746h-9.519l16.998-23.254-15.979-22.098h9.52l11.694,16.658,11.627-16.658h9.587l-15.91,22.03,16.931,23.322h-9.52Z"/>
    <path class="cls-4" d="m241.131,494.69c13.599,0,23.186,9.927,23.186,23.458s-9.587,23.457-23.186,23.457-23.186-9.927-23.186-23.457,9.587-23.458,23.186-23.458Zm0,7.071c-9.18,0-15.026,7.003-15.026,16.387,0,9.314,5.847,16.386,15.026,16.386,9.111,0,15.026-7.071,15.026-16.386,0-9.383-5.915-16.387-15.026-16.387Z"/>
    <path class="cls-4" d="m272.004,540.79v-45.352h7.955v38.348h19.99v7.004h-27.945Z"/>
    <path class="cls-4" d="m311.512,540.79v-18.834l-17.61-26.518h9.11l12.511,19.446,12.375-19.446h9.111l-17.542,26.518v18.834h-7.955Z"/>
    <path class="cls-4" d="m381.14,540.79v-34.336l-13.938,34.336h-3.399l-13.87-34.336v34.336h-7.956v-45.352h11.22l12.307,30.529,12.374-30.529h11.22v45.352h-7.956Z"/>
    <path class="cls-4" d="m398.755,540.79v-45.352h19.923c9.519,0,14.822,6.527,14.822,14.211s-5.372,14.21-14.822,14.21h-11.967v16.93h-7.956Zm18.835-38.348h-10.879v14.415h10.879c4.487,0,7.751-2.855,7.751-7.207s-3.264-7.208-7.751-7.208Z"/>
    <path class="cls-4" d="m440.098,540.79v-45.352h7.955v45.352h-7.955Z"/>
    <path class="cls-4" d="m495.989,534.467l3.74,4.215-5.508,4.624-3.943-4.42c-3.264,1.769-7.14,2.72-11.423,2.72-13.599,0-23.186-9.927-23.186-23.457s9.587-23.458,23.186-23.458,23.186,9.927,23.186,23.458c0,6.527-2.244,12.171-6.052,16.318Zm-10.675-1.292l-5.644-6.392,5.508-4.555,5.644,6.323c1.972-2.787,3.06-6.391,3.06-10.402,0-9.383-5.915-16.387-15.026-16.387-9.18,0-15.026,7.003-15.026,16.387,0,9.314,5.847,16.386,15.026,16.386,2.38,0,4.556-.476,6.459-1.359Z"/>
    <path class="cls-4" d="m509.728,495.438h8.023v27.197c0,7.207,4.012,11.898,11.627,11.898,7.547,0,11.559-4.691,11.559-11.898v-27.197h8.023v27.401c0,11.287-6.459,18.766-19.582,18.766-13.19,0-19.65-7.547-19.65-18.698v-27.469Z"/>
    <path class="cls-4" d="m558.62,540.79v-45.352h31.073v7.003h-23.117v11.763h22.642v7.003h-22.642v12.578h23.117v7.004h-31.073Z"/>
    <path class="cls-4" d="m599.351,528.279c3.128,3.331,8.023,6.255,14.347,6.255,6.527,0,9.111-3.195,9.111-6.188,0-4.079-4.828-5.303-10.335-6.73-7.411-1.836-16.114-4.012-16.114-13.599,0-7.479,6.595-13.259,16.522-13.259,7.07,0,12.782,2.244,16.998,6.323l-4.556,5.916c-3.536-3.536-8.363-5.167-13.123-5.167-4.691,0-7.683,2.244-7.683,5.644,0,3.535,4.623,4.691,9.994,6.051,7.479,1.904,16.387,4.215,16.387,14.075,0,7.547-5.304,14.006-17.542,14.006-8.363,0-14.415-2.924-18.427-7.207l4.42-6.119Z"/>
    <path class="cls-4" d="m254.937,600.79v-6.256c17.61-13.326,24.478-19.241,24.478-25.77,0-4.759-4.079-6.935-8.227-6.935-5.304,0-9.384,2.176-12.239,5.439l-4.623-5.235c4.012-4.828,10.402-7.275,16.726-7.275,8.771,0,16.455,4.963,16.455,14.006,0,8.363-7.684,15.843-19.854,25.022h20.126v7.003h-32.841Z"/>
    <path class="cls-4" d="m312.939,554.759c12.714,0,18.153,11.967,18.153,23.39s-5.439,23.458-18.153,23.458-18.154-12.035-18.154-23.458,5.439-23.39,18.154-23.39Zm0,7.071c-7.412,0-10.063,7.683-10.063,16.318s2.651,16.386,10.063,16.386,10.062-7.751,10.062-16.386-2.651-16.318-10.062-16.318Z"/>
    <path class="cls-4" d="m337.284,600.79v-6.256c17.61-13.326,24.478-19.241,24.478-25.77,0-4.759-4.079-6.935-8.227-6.935-5.304,0-9.384,2.176-12.239,5.439l-4.623-5.235c4.011-4.828,10.402-7.275,16.726-7.275,8.771,0,16.455,4.963,16.455,14.006,0,8.363-7.684,15.843-19.854,25.022h20.126v7.003h-32.841Z"/>
    <path class="cls-4" d="m397.869,600.79v-10.267h-21.621v-6.392l18.63-28.693h10.946v28.081h6.052v7.004h-6.052v10.267h-7.955Zm0-38.212l-13.803,20.941h13.803v-20.941Z"/>
  </g>
</svg>