<svg id="Calque_1" data-name="Calque 1" xmlns="http://www.w3.org/2000/svg" viewBox="0 0 958.13 858.75">
  <defs>
    <style>
      .cls-1 {
        opacity: .12;
      }

      .cls-2 {
        fill: #e67e5d;
      }

      .cls-3 {
        fill: #684f5f;
      }

      .cls-4 {
        fill: #6e454c;
      }

      .cls-5 {
        fill: #54363d;
      }

      .cls-6 {
        fill: #5a344b;
      }

      .cls-7 {
        fill: #4b284a;
      }

      .cls-8 {
        fill: #603d44;
      }
    </style><style class="darkreader darkreader--sync" media="screen"/>
  </defs>
  <g>
    <path class="cls-4" d="m40.65,0v640.419h917.464V0H40.65Zm879.51,602.479H78.676V33.33h841.483v569.149Z"/>
    <polygon class="cls-1" points="958.114 640.416 893.96 679.074 0 679.074 0 41.992 40.646 41.992 40.646 640.416 958.114 640.416"/>
    <polygon class="cls-8" points="920.158 33.334 904.855 51.528 78.681 51.528 78.681 33.334 920.158 33.334"/>
    <polygon class="cls-5" points="920.158 33.334 920.158 602.476 904.855 602.476 904.855 51.528 920.158 33.334"/>
    <polygon class="cls-6" points="78.681 501.798 368.77 602.476 78.681 602.476 78.681 501.798"/>
    <polygon class="cls-7" points="78.681 51.528 904.855 530.396 904.855 602.476 368.77 602.476 78.681 501.798 78.681 51.528"/>
    <polygon class="cls-3" points="78.681 51.528 904.855 530.396 904.855 51.528 78.681 51.528"/>
    <g>
      <path class="cls-2" d="m339.014,272.349c-43.104,0-78.17-35.067-78.17-78.169s35.066-78.169,78.17-78.169,78.169,35.066,78.169,78.169-35.066,78.169-78.169,78.169Zm0-146.346c-37.593,0-68.178,30.584-68.178,68.177s30.585,68.177,68.178,68.177,68.177-30.584,68.177-68.177-30.583-68.177-68.177-68.177Z"/>
      <path class="cls-2" d="m500.142,272.349c-43.102,0-78.169-35.067-78.169-78.169s35.066-78.169,78.169-78.169,78.17,35.066,78.17,78.169-35.066,78.169-78.17,78.169Zm0-146.346c-37.593,0-68.177,30.584-68.177,68.177s30.583,68.177,68.177,68.177,68.178-30.584,68.178-68.177-30.585-68.177-68.178-68.177Z"/>
      <path class="cls-2" d="m661.271,272.349c-43.102,0-78.169-35.067-78.169-78.169s35.066-78.169,78.169-78.169,78.169,35.066,78.169,78.169-35.066,78.169-78.169,78.169Zm0-146.346c-37.593,0-68.177,30.584-68.177,68.177s30.583,68.177,68.177,68.177,68.177-30.584,68.177-68.177-30.583-68.177-68.177-68.177Z"/>
      <path class="cls-2" d="m581.388,337.235c-43.102,0-78.169-35.067-78.169-78.169s35.066-78.169,78.169-78.169,78.169,35.067,78.169,78.169-35.066,78.169-78.169,78.169Zm0-146.347c-37.593,0-68.177,30.584-68.177,68.177s30.583,68.177,68.177,68.177,68.177-30.584,68.177-68.177-30.583-68.177-68.177-68.177Z"/>
      <path class="cls-2" d="m420.957,337.235c-43.102,0-78.169-35.067-78.169-78.169s35.066-78.169,78.169-78.169,78.17,35.067,78.17,78.169-35.066,78.169-78.17,78.169Zm0-146.347c-37.593,0-68.177,30.584-68.177,68.177s30.583,68.177,68.177,68.177,68.178-30.584,68.178-68.177-30.585-68.177-68.178-68.177Z"/>
    </g>
    <g>
      <path class="cls-2" d="m447.396,416.3c5.467,0,10.934.013,16.401-.007,1.966-.007,3.842.069,5.422,1.543,2.829,2.64,4.185,4.612.642,8.419-4.513,4.849-8.96,7.728-15.851,6.877-5.037-.622-10.342-.838-15.299.046-8.59,1.531-12.139-4.893-16.916-9.469-1.755-1.681-.188-3.526,1.049-4.493,2.166-1.694,4.5-3.134,7.626-2.997,5.632.248,11.284.07,16.927.082Z"/>
      <path class="cls-2" d="m412.082,450.202c0-4.759-.003-9.517.002-14.276.001-1.057.009-2.115.048-3.171.13-3.495,2.796-5.363,5.239-6.831,2.38-1.43,3.3,1.802,4.976,2.786,5.754,3.378,7.002,8.537,6.578,14.866-.457,6.842-.458,13.768.05,20.605.449,6.051-3.788,8.382-7.603,10.961-2.312,1.564-8.977-4.294-9.104-8.024-.192-5.633-.05-11.277-.05-16.916-.046,0-.091,0-.137,0Z"/>
      <path class="cls-2" d="m412.061,507.58c0-3.88.546-7.857-.124-11.618-1.092-6.132,2.66-9.584,6.127-13.383.979-1.073,2.606-1.475,3.289-.601,2.872,3.669,8.09,5.656,7.563,11.822-.509,5.952-.584,12.036.05,17.965.791,7.398-1.47,12.959-7.577,17.059-1.502,1.008-2.827,3.74-4.555,2.572-2.078-1.405-4.882-2.765-4.734-6.36.24-5.81.064-11.636.064-17.456h-.103Z"/>
      <path class="cls-2" d="m481.258,507.79c0,5.109-.266,10.237.088,15.322.262,3.757-2.045,5.766-4.122,8.107-.496.559-.981.901-1.789.732-2.939-.614-9.446-9.046-9.458-12.463-.029-8.104.54-16.253-.138-24.298-.49-5.817,2.314-9.385,5.816-12.989.696-.716,1.786-1.777,2.694-.736,2.768,3.174,7.313,5.073,7.03,10.475-.276,5.27-.06,10.566-.06,15.851h-.061Z"/>
      <path class="cls-2" d="m481.316,449.627c0,5.113-.16,10.234.062,15.337.126,2.917-.672,5.294-2.94,6.928-1.877,1.352-3.006,5.191-5.534,3.841-2.924-1.563-6.41-4.223-6.566-7.785-.46-10.557-.624-21.173,0-31.712.298-5.024,5.301-8.19,9.244-10.075,2.271-1.086,5.585,2.795,5.681,6.54.146,5.638.038,11.283.052,16.925Z"/>
      <path class="cls-2" d="m446.702,540.639c-5.639,0-11.28-.096-16.915.047-2.26.057-4.03-.485-5.772-1.967-2.661-2.265-2.969-3.802-.276-6.706,4.612-4.973,9.508-7.759,16.535-6.853,4.507.581,9.182.446,13.725.024,6.217-.578,11.337.632,15.027,6.144,1.134,1.695,3.476,2.871,2.459,5.281-1.103,2.611-3.255,3.976-6.277,3.935-6.167-.084-12.336-.025-18.505-.025,0,.04,0,.08,0,.119Z"/>
      <g>
        <path class="cls-2" d="m352.635,432.296c-2.989,0-5.368-.399-7.56.071-8.364,1.794-13.008-3.539-17.796-8.8-.954-1.048-1.557-2.226-.492-3.23,2.228-2.101,4.042-4.877,7.738-4.82,7.054.11,14.111.054,21.166.061,4.586.004,9.178.137,13.757-.048,3.571-.144,5.714,2.078,7.181,4.566,1.601,2.715-1.466,4.196-2.697,6.206-5.5,8.985-14.356,5.163-21.298,5.995Z"/>
        <path class="cls-2" d="m386.215,449.008c0,4.754-.056,9.51.022,14.263.044,2.685-.173,4.952-2.434,7.074-1.936,1.817-3.368,5.843-5.983,4.608-3.18-1.501-6.877-4.062-6.927-8.577-.112-10.035-.079-20.072-.008-30.108.014-1.91,8.152-11.771,9.517-11.369,3.413,1.005,5.621,3.512,5.721,7.208.152,5.63.04,11.267.04,16.9.017,0,.035,0,.052,0Z"/>
        <path class="cls-2" d="m317.094,506.531c0-5.119,0-10.238,0-15.357,0-1.758-.24-3.61,1.29-4.929,2.422-2.09,3.891-6.343,7.676-5.398,2.147.536,3.65,3.555,5.504,5.395,1.896,1.883,1.089,4.158,1.44,6.312,1.345,8.246.542,16.443.796,24.645.088,2.836-8.097,13.634-10.717,13.57-4.051-.099-5.65-3.123-5.898-6.769-.203-2.986-.035-5.997-.034-8.996.001-2.824,0-5.649,0-8.473h-.057Z"/>
        <path class="cls-2" d="m351.623,539.777c-5.65,0-11.304-.103-16.95.043-2.912.075-5.127-.947-6.95-3.101-.698-.825-1.312-1.624-.995-2.828.66-2.51,9.28-9.318,12.061-9.323,8.829-.015,17.658.019,26.486.106,2.663.026,12.121,7.159,11.85,9.373-.456,3.724-3.18,5.676-6.96,5.722-6.179.075-12.36.02-18.54.008Z"/>
        <path class="cls-2" d="m352.052,472.313c4.769,0,9.579.387,14.294-.114,4.296-.457,6.532,2.013,8.734,4.726,1.727,2.128-1.805,7.487-5.612,7.587-11.292.298-22.613.395-33.89-.128-3.305-.153-7.443-3.018-6.867-6.659.551-3.481,4.148-5.751,8.509-5.541,4.933.237,9.887.055,14.832.055,0,.025,0,.049,0,.074Z"/>
      </g>
      <g>
        <path class="cls-2" d="m543.08,432.882c-2.989,0-5.368-.399-7.56.071-8.364,1.794-13.008-3.539-17.796-8.8-.954-1.048-1.557-2.226-.492-3.23,2.228-2.101,4.042-4.877,7.738-4.82,7.054.11,14.111.054,21.166.061,4.586.004,9.178.137,13.757-.048,3.571-.144,5.714,2.078,7.181,4.566,1.601,2.715-1.466,4.196-2.697,6.206-5.5,8.985-14.356,5.163-21.298,5.995Z"/>
        <path class="cls-2" d="m576.661,449.594c0,4.754-.056,9.51.022,14.263.044,2.685-.173,4.952-2.434,7.074-1.936,1.817-3.368,5.843-5.983,4.608-3.18-1.501-6.877-4.062-6.927-8.577-.112-10.035-.079-20.072-.008-30.108.014-1.91,8.152-11.771,9.517-11.369,3.413,1.005,5.621,3.512,5.721,7.208.152,5.63.04,11.267.04,16.9.017,0,.035,0,.052,0Z"/>
        <path class="cls-2" d="m507.54,507.117c0-5.119,0-10.238,0-15.357,0-1.758-.24-3.61,1.29-4.929,2.422-2.09,3.891-6.343,7.676-5.398,2.147.536,3.65,3.555,5.504,5.395,1.896,1.883,1.089,4.158,1.44,6.312,1.345,8.246.542,16.443.796,24.645.088,2.836-8.097,13.634-10.717,13.57-4.051-.099-5.65-3.123-5.898-6.769-.203-2.986-.035-5.997-.034-8.996.001-2.824,0-5.649,0-8.473h-.057Z"/>
        <path class="cls-2" d="m542.069,540.363c-5.65,0-11.304-.103-16.95.043-2.912.075-5.127-.947-6.95-3.101-.698-.825-1.312-1.624-.995-2.828.66-2.51,9.28-9.318,12.061-9.323,8.829-.015,17.658.019,26.486.106,2.663.026,12.121,7.159,11.85,9.373-.456,3.724-3.18,5.676-6.96,5.722-6.179.075-12.36.02-18.54.008Z"/>
        <path class="cls-2" d="m542.497,472.899c4.769,0,9.579.387,14.294-.114,4.296-.457,6.532,2.013,8.734,4.726,1.727,2.128-1.805,7.487-5.612,7.587-11.292.298-22.613.395-33.89-.128-3.305-.153-7.443-3.018-6.867-6.659.551-3.481,4.148-5.751,8.509-5.541,4.933.237,9.887.055,14.832.055,0,.025,0,.049,0,.074Z"/>
      </g>
      <g>
        <path class="cls-2" d="m601.691,445.964c0-5.119.198-10.248-.065-15.354-.196-3.813,1.919-6.176,4.745-7.522,2.727-1.299,4.125,1.856,6.11,3.146,5.844,3.798,6.394,9.311,6.044,15.573-.384,6.862-.305,13.773-.005,20.644.251,5.761-4.472,7.646-7.742,10.45-1.794,1.538-8.954-6.247-9.032-9.993-.118-5.646-.031-11.296-.031-16.945h-.025Z"/>
        <path class="cls-2" d="m670.996,504.871c0,5.289-.215,10.589.072,15.863.21,3.861-2.059,6.106-4.774,7.57-2.682,1.446-3.564-2.01-5.298-3.203-4.727-3.252-5.765-7.924-5.541-13.377.304-7.395.485-14.83.041-22.208-.327-5.423,3.631-7.618,6.522-10.701,1.11-1.183,2.217-.263,3.151.67,3.376,3.37,6.687,6.53,5.894,12.178-.607,4.323-.121,8.8-.121,13.208.018,0,.036,0,.055,0Z"/>
        <path class="cls-2" d="m670.988,447.077c0,5.121-.112,10.245.051,15.361.073,2.287-.339,4.278-2.077,5.715-2.064,1.706-3.699,5.774-6.363,4.495-3.408-1.636-6.815-4.535-6.843-9.262-.059-10.062-.141-20.125-.132-30.187.002-2.061,7.849-10.777,9.545-10.311,3.453.95,5.663,3.445,5.721,7.24.086,5.648.022,11.299.022,16.948.025,0,.051,0,.076,0Z"/>
        <path class="cls-2" d="m636.961,470.173c4.931,0,9.863-.016,14.794.006,3.403.015,8.88,4.254,7.875,6.489-1.243,2.766-3.273,4.803-7.297,5.252-10.186,1.139-20.348.055-30.492.688-4.56.285-6.441-3.269-8.557-6.088-1.373-1.828,3.699-6.353,7.3-6.421,5.457-.103,10.918-.027,16.377-.027v.101Z"/>
      </g>
    </g>
  </g>
  <g>
    <path class="cls-4" d="m51.552,757.659c2.621,2.814,6.114,5.337,11.064,5.337,6.988,0,11.355-4.659,11.355-11.743v-44.063h11.355v44.257c0,14.752-9.317,21.642-21.836,21.642-6.698,0-12.618-1.94-17.179-6.793l5.241-8.638Z"/>
    <path class="cls-4" d="m99.111,771.926v-64.735h44.354v9.997h-32.998v16.79h32.319v9.997h-32.319v17.954h32.998v9.997h-44.354Z"/>
    <path class="cls-4" d="m155.116,707.191h11.453v38.821c0,10.287,5.726,16.984,16.596,16.984,10.772,0,16.499-6.697,16.499-16.984v-38.821h11.453v39.113c0,16.111-9.22,26.786-27.951,26.786-18.828,0-28.049-10.772-28.049-26.689v-39.21Z"/>
    <path class="cls-4" d="m268.19,771.926l-18.149-25.331-18.149,25.331h-13.587l24.263-33.193-22.808-31.542h13.588l16.693,23.778,16.596-23.778h13.684l-22.71,31.445,24.167,33.29h-13.588Z"/>
    <path class="cls-4" d="m344.191,706.123c19.411,0,33.095,14.17,33.095,33.484s-13.684,33.483-33.095,33.483-33.095-14.169-33.095-33.483,13.684-33.484,33.095-33.484Zm0,10.094c-13.103,0-21.449,9.997-21.449,23.39,0,13.295,8.346,23.389,21.449,23.389,13.006,0,21.449-10.094,21.449-23.389,0-13.394-8.443-23.39-21.449-23.39Z"/>
    <path class="cls-4" d="m388.259,771.926v-64.735h11.355v54.738h28.534v9.997h-39.889Z"/>
    <path class="cls-4" d="m444.653,771.926v-26.884l-25.137-37.851h13.004l17.858,27.758,17.664-27.758h13.006l-25.04,37.851v26.884h-11.355Z"/>
    <path class="cls-4" d="m544.04,771.926v-49.012l-19.896,49.012h-4.852l-19.798-49.012v49.012h-11.357v-64.735h16.015l17.567,43.578,17.663-43.578h16.015v64.735h-11.357Z"/>
    <path class="cls-4" d="m569.184,771.926v-64.735h28.438c13.587,0,21.157,9.317,21.157,20.285s-7.668,20.284-21.157,20.284h-17.081v24.166h-11.357Zm26.885-54.738h-15.529v20.575h15.529c6.405,0,11.064-4.076,11.064-10.287s-4.659-10.288-11.064-10.288Z"/>
    <path class="cls-4" d="m628.197,771.926v-64.735h11.355v64.735h-11.355Z"/>
    <path class="cls-4" d="m707.977,762.9l5.339,6.016-7.862,6.6-5.629-6.309c-4.659,2.524-10.191,3.882-16.305,3.882-19.411,0-33.095-14.169-33.095-33.483s13.684-33.484,33.095-33.484,33.095,14.17,33.095,33.484c0,9.317-3.203,17.373-8.638,23.293Zm-15.237-1.844l-8.056-9.123,7.862-6.502,8.056,9.025c2.814-3.978,4.367-9.122,4.367-14.848,0-13.394-8.443-23.39-21.449-23.39-13.103,0-21.449,9.997-21.449,23.39,0,13.295,8.346,23.389,21.449,23.389,3.397,0,6.503-.679,9.22-1.94Z"/>
    <path class="cls-4" d="m727.589,707.191h11.453v38.821c0,10.287,5.726,16.984,16.596,16.984,10.772,0,16.499-6.697,16.499-16.984v-38.821h11.453v39.113c0,16.111-9.22,26.786-27.951,26.786-18.828,0-28.049-10.772-28.049-26.689v-39.21Z"/>
    <path class="cls-4" d="m797.377,771.926v-64.735h44.354v9.997h-32.998v16.79h32.319v9.997h-32.319v17.954h32.998v9.997h-44.354Z"/>
    <path class="cls-4" d="m855.517,754.068c4.465,4.755,11.453,8.928,20.479,8.928,9.317,0,13.006-4.561,13.006-8.832,0-5.823-6.892-7.569-14.752-9.607-10.579-2.621-23.002-5.726-23.002-19.411,0-10.676,9.413-18.926,23.584-18.926,10.092,0,18.245,3.203,24.263,9.026l-6.503,8.444c-5.047-5.047-11.938-7.376-18.732-7.376-6.697,0-10.966,3.203-10.966,8.056,0,5.046,6.599,6.697,14.266,8.638,10.676,2.718,23.39,6.017,23.39,20.09,0,10.772-7.571,19.992-25.04,19.992-11.938,0-20.576-4.173-26.302-10.287l6.309-8.734Z"/>
    <path class="cls-4" d="m363.899,857.57v-8.93c25.137-19.022,34.939-27.465,34.939-36.784,0-6.793-5.823-9.898-11.743-9.898-7.571,0-13.394,3.106-17.47,7.764l-6.599-7.473c5.726-6.892,14.848-10.385,23.874-10.385,12.52,0,23.488,7.084,23.488,19.992,0,11.938-10.968,22.614-28.34,35.717h28.728v9.996h-46.877Z"/>
    <path class="cls-4" d="m446.691,791.865c18.148,0,25.912,17.081,25.912,33.386s-7.764,33.484-25.912,33.484-25.914-17.179-25.914-33.484,7.764-33.386,25.914-33.386Zm0,10.094c-10.58,0-14.365,10.966-14.365,23.293s3.785,23.389,14.365,23.389,14.363-11.064,14.363-23.389-3.785-23.293-14.363-23.293Z"/>
    <path class="cls-4" d="m481.441,857.57v-8.93c25.137-19.022,34.939-27.465,34.939-36.784,0-6.793-5.823-9.898-11.743-9.898-7.571,0-13.394,3.106-17.47,7.764l-6.599-7.473c5.725-6.892,14.848-10.385,23.874-10.385,12.52,0,23.488,7.084,23.488,19.992,0,11.938-10.968,22.614-28.34,35.717h28.728v9.996h-46.877Z"/>
    <path class="cls-4" d="m567.92,857.57v-14.655h-30.862v-9.123l26.592-40.957h15.625v40.083h8.638v9.997h-8.638v14.655h-11.355Zm0-54.544l-19.702,29.892h19.702v-29.892Z"/>
  </g>
</svg>