<svg id="Calque_1" data-name="Calque 1" xmlns="http://www.w3.org/2000/svg" viewBox="0 0 974.58 220.75">
  <defs>
    <style>
      .cls-1 {
        fill: none;
        opacity: .6;
      }

      .cls-2 {
        fill: #6e454c;
      }
    </style><style class="darkreader darkreader--sync" media="screen"/>
  </defs>
  <g class="cls-1">
    <path class="cls-2" d="m8.479,64.436c5.999,6.392,15.392,12.001,27.523,12.001,12.521,0,17.478-6.132,17.478-11.871,0-7.826-9.261-10.175-19.827-12.913-14.218-3.523-30.914-7.696-30.914-26.089C2.74,11.217,15.392.13,34.437.13c13.565,0,24.522,4.303,32.609,12.131l-8.739,11.347c-6.783-6.781-16.044-9.912-25.174-9.912-9,0-14.74,4.305-14.74,10.827,0,6.781,8.869,9,19.174,11.609,14.349,3.651,31.436,8.086,31.436,27.001,0,14.477-10.173,26.868-33.654,26.868-16.043,0-27.653-5.607-35.349-13.825l8.479-11.739Z"/>
    <path class="cls-2" d="m123.652,0c26.088,0,44.481,19.043,44.481,45.001s-18.393,44.999-44.481,44.999-44.479-19.043-44.479-44.999S97.564,0,123.652,0Zm0,13.565c-17.61,0-28.827,13.435-28.827,31.436,0,17.868,11.218,31.436,28.827,31.436,17.48,0,28.827-13.568,28.827-31.436,0-18.001-11.348-31.436-28.827-31.436Z"/>
    <path class="cls-2" d="m243.52,88.436l-45.394-63.392v63.392h-15.261V1.434h15.653l44.479,61.698V1.434h15.262v87.002h-14.74Z"/>
    <path class="cls-2" d="m97.611,218.868v-79.039l-32.084,79.039h-7.826l-31.929-79.039v79.039H7.46v-104.394h25.824l28.329,70.275,28.485-70.275h25.824v104.394h-18.311Z"/>
    <path class="cls-2" d="m186.827,112.752c31.302,0,53.371,22.851,53.371,53.997s-22.069,53.997-53.371,53.997-53.37-22.851-53.37-53.997,22.068-53.997,53.37-53.997Zm0,16.278c-21.129,0-34.589,16.121-34.589,37.718,0,21.442,13.46,37.721,34.589,37.721,20.974,0,34.59-16.278,34.59-37.721,0-21.598-13.616-37.718-34.59-37.718Z"/>
    <path class="cls-2" d="m257.888,114.474h18.468v62.605c0,16.592,9.235,27.391,26.764,27.391,17.373,0,26.607-10.799,26.607-27.391v-62.605h18.468v63.073c0,25.982-14.868,43.198-45.075,43.198-30.364,0-45.232-17.371-45.232-43.04v-63.231Z"/>
    <path class="cls-2" d="m400.474,218.868l-41.006-104.394h20.816l31.616,84.516,31.616-84.516h20.816l-41.006,104.394h-22.851Z"/>
    <path class="cls-2" d="m475.759,218.868v-104.394h71.526v16.121h-53.215v27.077h52.119v16.121h-52.119v28.955h53.215v16.121h-71.526Z"/>
    <path class="cls-2" d="m656.219,218.868v-79.039l-32.084,79.039h-7.826l-31.928-79.039v79.039h-18.313v-104.394h25.825l28.328,70.275,28.485-70.275h25.825v104.394h-18.313Z"/>
    <path class="cls-2" d="m696.76,218.868v-104.394h71.526v16.121h-53.213v27.077h52.118v16.121h-52.118v28.955h53.213v16.121h-71.526Z"/>
    <path class="cls-2" d="m859.848,218.868l-54.467-76.066v76.066h-18.311v-104.394h18.781l53.371,74.03v-74.03h18.311v104.394h-17.686Z"/>
    <path class="cls-2" d="m924.646,218.868v-88.273h-31.616v-16.121h81.543v16.121h-31.614v88.273h-18.313Z"/>
  </g>
</svg>