<svg id="Calque_1" data-name="Calque 1" xmlns="http://www.w3.org/2000/svg" viewBox="0 0 373.62 84.65">
  <defs>
    <style>
      .cls-1 {
        fill: none;
        opacity: .6;
      }

      .cls-2 {
        fill: #6e454c;
      }
    </style>
  </defs>
  <g class="cls-1">
    <path class="cls-2" d="m3.25,24.701c2.3,2.45,5.9,4.601,10.551,4.601,4.8,0,6.7-2.351,6.7-4.551,0-3-3.55-3.9-7.601-4.95-5.45-1.351-11.851-2.95-11.851-10.001C1.05,4.3,5.9.05,13.201.05c5.2,0,9.4,1.649,12.5,4.65l-3.35,4.35c-2.6-2.6-6.15-3.8-9.65-3.8-3.45,0-5.65,1.65-5.65,4.15,0,2.6,3.4,3.45,7.35,4.45,5.5,1.399,12.051,3.1,12.051,10.351,0,5.55-3.9,10.3-12.901,10.3-6.15,0-10.601-2.149-13.551-5.3l3.25-4.5Z"/>
    <path class="cls-2" d="m47.401,0c10,0,17.051,7.3,17.051,17.251s-7.051,17.25-17.051,17.25-17.051-7.3-17.051-17.25S37.4,0,47.401,0Zm0,5.2c-6.75,0-11.051,5.15-11.051,12.051,0,6.85,4.3,12.051,11.051,12.051,6.701,0,11.051-5.201,11.051-12.051,0-6.9-4.35-12.051-11.051-12.051Z"/>
    <path class="cls-2" d="m93.352,33.901l-17.401-24.301v24.301h-5.85V.55h6l17.051,23.651V.55h5.851v33.352h-5.65Z"/>
    <path class="cls-2" d="m37.418,83.901v-30.299l-12.299,30.299h-3l-12.24-30.299v30.299H2.86v-40.019h9.899l10.86,26.939,10.919-26.939h9.899v40.019h-7.02Z"/>
    <path class="cls-2" d="m71.619,43.223c12,0,20.459,8.76,20.459,20.699s-8.46,20.699-20.459,20.699-20.459-8.76-20.459-20.699,8.459-20.699,20.459-20.699Zm0,6.24c-8.1,0-13.259,6.18-13.259,14.459,0,8.22,5.16,14.46,13.259,14.46,8.04,0,13.26-6.24,13.26-14.46,0-8.279-5.22-14.459-13.26-14.459Z"/>
    <path class="cls-2" d="m98.859,43.883h7.08v23.999c0,6.36,3.54,10.5,10.26,10.5,6.66,0,10.2-4.14,10.2-10.5v-23.999h7.08v24.18c0,9.959-5.7,16.559-17.279,16.559-11.64,0-17.339-6.659-17.339-16.499v-24.239Z"/>
    <path class="cls-2" d="m153.519,83.901l-15.719-40.019h7.979l12.12,32.398,12.12-32.398h7.979l-15.719,40.019h-8.76Z"/>
    <path class="cls-2" d="m182.378,83.901v-40.019h27.419v6.18h-20.399v10.38h19.979v6.18h-19.979v11.1h20.399v6.18h-27.419Z"/>
    <path class="cls-2" d="m251.557,83.901v-30.299l-12.299,30.299h-3l-12.239-30.299v30.299h-7.02v-40.019h9.9l10.859,26.939,10.919-26.939h9.9v40.019h-7.02Z"/>
    <path class="cls-2" d="m267.098,83.901v-40.019h27.419v6.18h-20.399v10.38h19.979v6.18h-19.979v11.1h20.399v6.18h-27.419Z"/>
    <path class="cls-2" d="m329.616,83.901l-20.879-29.159v29.159h-7.02v-40.019h7.2l20.459,28.379v-28.379h7.02v40.019h-6.78Z"/>
    <path class="cls-2" d="m354.456,83.901v-33.839h-12.12v-6.18h31.259v6.18h-12.119v33.839h-7.02Z"/>
  </g>
</svg>