<?xml version="1.0" encoding="UTF-8"?><svg id="Calque_1" xmlns="http://www.w3.org/2000/svg" viewBox="0 0 519.53 692.51"><defs><style>.cls-1{font-size:14.74px;}.cls-1,.cls-2{font-family:MyriadPro-Regular, 'Myriad Pro';}.cls-1,.cls-2,.cls-3{fill:#1d1d1b;}.cls-4{fill:#faf2ea;}.cls-4,.cls-5{stroke:#1d1d1b;}.cls-4,.cls-5,.cls-6{stroke-miterlimit:10;}.cls-5{fill:#f8e8db;}.cls-2{font-size:22.92px;}.cls-6{fill:#ffe078;stroke:#000;stroke-width:1.06px;}.cls-3{stroke-width:0px;}</style></defs><rect class="cls-6" x=".53" y=".53" width="518" height="570.78"/><rect class="cls-5" x="182.95" y="253.53" width="153" height="318.03"/><rect class="cls-5" x=".53" y="571.31" width="518" height="24.7"/><rect class="cls-5" x="206.95" y="275.39" width="105" height="96.12"/><line class="cls-4" x1="259.45" y1="275.39" x2="259.45" y2="371.51"/><line class="cls-4" x1="206.91" y1="323.14" x2="312.04" y2="323.14"/><rect class="cls-5" x="207.64" y="386.47" width="105" height="172.04"/><rect class="cls-5" x=".53" y="188.01" width="518" height="67"/><path class="cls-3" d="M188.61,226.09c.11-.13.23-.2.36-.2.17,0,.31.08.43.24s.12.34-.01.54c-.09.13-.18.27-.27.41s-.17.29-.27.46c-.37.61-.8,1.29-1.27,2.03-.47.74-1.01,1.43-1.59,2.07-.59.64-1.22,1.18-1.91,1.62-.69.44-1.42.66-2.21.66-.08,0-.28-.01-.63-.04s-.71-.13-1.1-.29c-.39-.17-.74-.44-1.05-.81s-.46-.89-.46-1.56c0-.45.13-1.11.41-2,.27-.88.62-1.88,1.05-2.98.43-1.1.9-2.24,1.42-3.42s1.03-2.29,1.52-3.33c.49-1.03.95-1.94,1.37-2.71.42-.77.73-1.29.94-1.55-.33.41-.73.96-1.17,1.65-.45.69-.93,1.46-1.45,2.31-.52.85-1.06,1.75-1.62,2.71-.56.96-1.11,1.92-1.66,2.88s-1.08,1.89-1.61,2.79-1,1.73-1.44,2.47c-.44.75-.82,1.38-1.13,1.9s-.55.88-.7,1.06c-.21.26-.47.48-.8.66-.33.18-.7.27-1.13.27-.26,0-.54-.04-.83-.13-.29-.08-.54-.22-.75-.4-.21-.19-.38-.44-.49-.77-.11-.33-.12-.72-.03-1.19.07-.41.25-1.05.53-1.93.28-.88.62-1.86,1.02-2.96.4-1.1.83-2.24,1.3-3.44s.93-2.31,1.38-3.35c.46-1.04.88-1.95,1.26-2.71.38-.76.68-1.27.91-1.51-.39.43-.89,1.11-1.51,2.04-.62.93-1.28,1.98-1.98,3.16-.71,1.17-1.44,2.41-2.19,3.7-.75,1.29-1.46,2.52-2.11,3.67-.65,1.16-1.23,2.17-1.73,3.05-.5.88-.87,1.49-1.09,1.84-.19.28-.45.5-.78.67-.34.17-.73.25-1.17.25-.52,0-.94-.12-1.24-.35-.31-.23-.52-.54-.64-.92-.12-.38-.15-.81-.1-1.3.06-.48.19-.99.39-1.51l6.12-15.62c-.89,0-1.73.19-2.5.56s-1.46.85-2.05,1.44c-.6.59-1.08,1.26-1.47,2.01s-.62,1.52-.73,2.29c-.1.77-.06,1.51.13,2.22.19.71.56,1.32,1.12,1.84-.09.24-.3.43-.61.57-.32.14-.63.21-.95.21-.19,0-.35-.03-.5-.08-.15-.07-.34-.18-.57-.31s-.46-.33-.67-.59c-.21-.26-.4-.61-.56-1.06-.16-.45-.24-1.02-.24-1.7,0-.47.08-1,.25-1.59.17-.6.42-1.22.75-1.86s.76-1.27,1.27-1.89c.51-.61,1.12-1.17,1.82-1.66s1.48-.89,2.35-1.19,1.83-.45,2.89-.45h.59c1.06,0,1.83.12,2.29.35.47.23.77.5.91.8.14.3.18.58.13.84-.06.26-.09.42-.11.48l-6.18,15.76,1.34-2.46c.47-.84,1-1.8,1.59-2.88.6-1.08,1.23-2.18,1.89-3.31.66-1.13,1.33-2.24,2-3.34s1.3-2.09,1.89-2.98c.59-.88,1.12-1.62,1.61-2.21.48-.59.87-.94,1.15-1.05.04-.02.09-.03.17-.03h.2c.58,0,1.08.11,1.5.32.42.21.63.64.63,1.27,0,.28-.13.84-.39,1.68-.26.84-.59,1.82-.99,2.95-.4,1.13-.85,2.32-1.34,3.59-.49,1.27-.97,2.47-1.43,3.62s-.87,2.16-1.23,3.05-.62,1.5-.77,1.83c.21-.33.51-.85.91-1.55s.86-1.51,1.38-2.43c.52-.92,1.09-1.91,1.7-2.98.62-1.06,1.24-2.12,1.89-3.17.64-1.05,1.28-2.07,1.9-3.06.62-.99,1.21-1.86,1.76-2.61.55-.75,1.04-1.36,1.48-1.8.44-.45.79-.67,1.05-.67.61,0,1.1.1,1.47.31.36.21.62.47.78.8.16.33.22.69.2,1.1-.03.41-.13.81-.32,1.2-.07.15-.23.49-.46,1.03-.23.54-.51,1.21-.84,2.01-.33.8-.69,1.68-1.09,2.64-.4.96-.8,1.93-1.19,2.92-.39.99-.76,1.95-1.1,2.88s-.63,1.76-.85,2.49-.38,1.31-.46,1.75c-.08.44-.06.66.07.66.58,0,1.16-.24,1.76-.73.6-.48,1.17-1.06,1.72-1.73.55-.67,1.04-1.35,1.48-2.04.44-.69.78-1.24,1.02-1.65.09-.13.16-.24.21-.33s.09-.16.13-.2Z"/><path class="cls-3" d="M200.66,227.68c-.26.39-.6.79-1.01,1.19-.41.4-.87.77-1.38,1.1-.51.34-1.05.61-1.62.84-.57.22-1.13.36-1.69.42-.65.78-1.37,1.43-2.15,1.93s-1.61.75-2.49.75c-.69,0-1.28-.09-1.76-.27-.48-.18-.88-.43-1.17-.75-.3-.33-.52-.7-.66-1.13-.14-.43-.21-.89-.21-1.4,0-.63.09-1.29.28-1.98.19-.69.44-1.37.75-2.04.32-.67.68-1.31,1.1-1.93.42-.61.86-1.15,1.33-1.62.46-.47.94-.84,1.41-1.12.47-.28.93-.42,1.35-.42.54,0,.96.06,1.24.18.29.12.51.26.66.41.99,0,1.71.26,2.15.77.45.51.67,1.25.67,2.22,0,.8-.15,1.66-.45,2.58-.3.92-.72,1.8-1.26,2.64.86-.17,1.63-.51,2.32-1.03.69-.52,1.26-1.07,1.7-1.65.19-.24.32-.39.39-.45.07-.06.15-.08.22-.08.11,0,.21.04.31.13.09.08.14.19.14.32,0,.04,0,.08-.03.13-.02.05-.07.14-.17.27ZM193.25,231.07c-.8-.22-1.41-.61-1.82-1.16-.41-.55-.67-1.17-.78-1.86-.26.63-.47,1.25-.63,1.84-.16.6-.24,1.12-.24,1.56s.08.78.25,1.05.44.41.81.41c.43,0,.84-.17,1.24-.52.4-.34.79-.79,1.16-1.33ZM194.79,222.85c-.24,0-.48.14-.71.42-.23.28-.44.63-.63,1.06-.19.43-.34.91-.46,1.45-.12.54-.18,1.06-.18,1.56,0,.58.08,1.1.25,1.56.17.47.45.8.84,1.01.24-.47.46-.95.64-1.47.19-.51.35-1.02.49-1.52.14-.5.25-.99.32-1.45.07-.47.11-.88.11-1.26,0-.41-.05-.74-.15-.99-.1-.25-.28-.38-.52-.38Z"/><path class="cls-3" d="M215.35,227.8c-.24.45-.53.95-.85,1.51-.33.56-.68,1.1-1.05,1.63-.37.53-.77,1.02-1.19,1.45-.42.44-.84.78-1.27,1.02-.3.17-.62.29-.95.38-.34.08-.66.13-.98.13-.78,0-1.49-.2-2.12-.6-.63-.4-1.02-.95-1.17-1.66-.47.65-1,1.19-1.61,1.62-.61.43-1.33.64-2.17.64-.41,0-.81-.06-1.2-.18-.39-.12-.74-.3-1.05-.54-.31-.24-.55-.54-.73-.89-.18-.35-.26-.75-.26-1.2,0-.35.07-.77.22-1.26.04-.13.13-.4.28-.81.15-.41.33-.9.54-1.47.21-.57.45-1.18.7-1.84.25-.66.5-1.3.74-1.91.22-.61.36-1.12.42-1.52.06-.4.08-.62.08-.66.54,0,.99.05,1.36.14s.65.21.85.36c.2.15.35.32.43.52.08.2.13.4.13.6,0,.19-.03.38-.08.59s-.13.45-.22.73c-.15.43-.32.88-.52,1.34-.2.47-.4.92-.6,1.37-.37.84-.68,1.6-.94,2.28-.25.68-.38,1.32-.38,1.91,0,.34.06.66.18.96.12.31.39.46.8.46.32,0,.63-.11.95-.32.32-.21.62-.49.92-.84s.58-.75.85-1.2.52-.92.74-1.38c.11-.3.24-.65.39-1.06.15-.41.31-.85.49-1.33.18-.48.36-.97.56-1.48.2-.51.39-1,.57-1.47.22-.61.36-1.12.42-1.52.06-.4.08-.62.08-.66.54,0,.99.05,1.36.14s.65.21.85.36.35.32.43.52c.08.2.13.4.13.6,0,.19-.03.38-.08.59s-.13.45-.22.73c-.15.43-.32.88-.52,1.34-.2.47-.4.92-.6,1.37-.37.84-.68,1.6-.94,2.28-.25.68-.38,1.32-.38,1.91,0,.32.06.63.18.95s.37.48.74.48c.46,0,.95-.23,1.45-.69.5-.46.99-1,1.45-1.62.46-.62.88-1.26,1.26-1.9.37-.64.65-1.14.84-1.5.07-.13.18-.2.31-.2.09,0,.19.05.29.15.1.1.15.23.15.38,0,.07-.03.17-.08.28Z"/><path class="cls-3" d="M222.56,227.77c-.24.5-.56,1.1-.96,1.8-.4.7-.87,1.37-1.4,2.01-.53.64-1.12,1.19-1.77,1.65-.65.46-1.36.68-2.12.68-.52,0-1.03-.08-1.52-.25-.49-.17-.9-.45-1.22-.84-.32-.39-.51-.9-.59-1.52-.07-.62.05-1.39.36-2.31.21-.61.45-1.33.74-2.15.29-.82.6-1.69.94-2.6.33-.91.67-1.84,1.02-2.78.34-.94.68-1.83.99-2.67.32-.84.6-1.59.85-2.26.25-.67.45-1.2.6-1.59.21-.56.33-1.02.38-1.38.05-.36.08-.57.1-.63,1.08,0,1.86.17,2.33.5.47.33.71.72.71,1.15,0,.17-.03.35-.08.56-.06.21-.13.44-.22.7-.09.3-.26.75-.49,1.34-.23.6-.51,1.28-.82,2.04-.45,1.14-.92,2.36-1.42,3.67-.5,1.31-.97,2.57-1.4,3.77-.43,1.2-.78,2.28-1.05,3.23-.27.95-.4,1.63-.38,2.04.02.26.09.48.22.66.13.18.34.27.62.27.33,0,.67-.13,1.02-.38s.69-.56,1.03-.94.67-.79.99-1.24c.32-.46.6-.88.85-1.29.25-.4.46-.75.61-1.06.16-.31.27-.5.32-.57.15-.24.32-.36.5-.36.11,0,.21.02.29.07s.12.13.12.24c0,.04,0,.08-.01.14,0,.06-.06.16-.15.31Z"/><path class="cls-3" d="M223.76,233.89c-.97,0-1.74-.24-2.32-.73s-.87-1.26-.87-2.32c0-.32.04-.68.13-1.09.08-.41.2-.84.33-1.3s.3-.92.48-1.4c.18-.47.36-.94.54-1.38.15-.32.28-.63.41-.94.12-.31.23-.58.32-.82.26-.69.41-1.23.46-1.62.05-.39.07-.61.07-.67,1.08,0,1.82.14,2.21.42s.59.64.59,1.09c0,.37-.1.81-.31,1.31l-1.03,2.57c-.33.65-.62,1.41-.87,2.26-.24.86-.41,1.65-.5,2.38-.11.8.15,1.2.78,1.2.45,0,.88-.14,1.29-.42.41-.28.8-.62,1.17-1.03.37-.41.72-.87,1.03-1.37s.61-.97.87-1.4c.26-.43.48-.8.67-1.12s.33-.5.42-.56c.21-.11.39-.08.54.08.16.17.18.35.07.56-.35.63-.75,1.32-1.17,2.07-.43.75-.91,1.43-1.44,2.05-.53.62-1.12,1.14-1.76,1.55s-1.35.61-2.11.61ZM224.88,217.07c.17,0,.41,0,.73.01.32,0,.63.05.95.11.32.07.59.17.82.31.23.14.35.34.35.6,0,.09,0,.16-.03.2-.02.06-.07.16-.14.32-.08.16-.16.34-.25.53-.09.2-.2.4-.31.6-.11.21-.21.38-.31.53-.04.06-.12.18-.25.38s-.3.29-.5.29c-.45,0-.81-.02-1.08-.07-.27-.05-.48-.11-.62-.18-.14-.07-.23-.16-.28-.25-.05-.09-.07-.19-.07-.28s0-.16.03-.2c0-.06.04-.23.13-.53s.17-.62.27-.96c.09-.34.18-.66.25-.95.07-.29.11-.44.11-.46h.2Z"/><path class="cls-3" d="M236.93,223.33c-.22.28-.58.75-1.06,1.43-.49.67-1.01,1.42-1.58,2.25-.57.83-1.13,1.68-1.68,2.56-.55.88-1.01,1.66-1.38,2.35-.41.73-.76,1.24-1.06,1.55-.3.31-.61.46-.92.46-.45,0-.81-.06-1.09-.18-.28-.12-.49-.28-.63-.49s-.23-.43-.28-.69c-.05-.25-.07-.5-.07-.74,0-.48.07-.95.2-1.38.13-.44.29-.87.47-1.3.13-.37.29-.81.49-1.3.2-.49.39-1.01.57-1.54.19-.53.36-1.06.53-1.58.17-.52.31-.99.42-1.4.07-.33.12-.62.15-.87.03-.24.04-.52.04-.84.32,0,.66.01,1.03.04.37.03.72.1,1.03.22.32.12.58.31.8.56.21.25.32.59.32,1.02,0,.09,0,.17-.01.24,0,.07-.02.14-.04.24v.03c-.04.22-.16.62-.36,1.2-.21.58-.44,1.22-.71,1.91-.27.7-.55,1.4-.84,2.1-.29.7-.54,1.29-.74,1.77.24-.41.55-.92.92-1.54.37-.61.78-1.27,1.23-1.96.45-.69.92-1.38,1.41-2.08.49-.7.97-1.32,1.44-1.87.47-.55.9-1,1.31-1.35.41-.35.75-.53,1.03-.53.78,0,1.33.14,1.63.42s.46.64.46,1.09-.14,1.09-.41,1.91c-.27.83-.58,1.7-.92,2.6-.34.9-.68,1.77-.99,2.61-.32.84-.52,1.5-.61,1.98-.08.39,0,.59.22.59.32,0,.69-.17,1.12-.5s.87-.77,1.33-1.3.91-1.12,1.36-1.76c.45-.64.84-1.27,1.17-1.89.06-.11.16-.17.31-.17.13,0,.24.06.33.17.09.11.09.27,0,.47l-.06.08c-.06.11-.18.34-.38.68-.2.35-.44.74-.74,1.17-.3.44-.64.9-1.02,1.38-.38.48-.79.93-1.23,1.34-.44.41-.89.75-1.37,1.01-.48.26-.95.39-1.41.39-.71,0-1.25-.11-1.62-.32-.37-.21-.63-.48-.77-.78-.14-.31-.2-.63-.18-.98.02-.34.07-.66.14-.94.11-.48.28-1.08.5-1.8.22-.72.47-1.44.73-2.18.26-.74.52-1.43.78-2.1.26-.66.48-1.16.67-1.5Z"/><path class="cls-3" d="M252.57,226.4c-.54.95-1.25,1.86-2.12,2.74-.88.88-1.96,1.61-3.24,2.21-.04.02-.04.08-.01.18.03.1.04.2.04.29,0,.61-.14,1.18-.43,1.7-.29.52-.67.96-1.13,1.33s-.99.65-1.56.85c-.58.2-1.16.31-1.73.31-.67,0-1.23-.21-1.69-.61-.46-.41-.68-.88-.68-1.43,0-.13,0-.23.03-.31.06-.32.18-.57.36-.75.19-.19.43-.34.73-.48s.64-.25,1.03-.35c.39-.1.82-.23,1.29-.38.26-.07.54-.15.84-.22.3-.07.59-.17.87-.28.02-.32-.15-.69-.52-1.13-.36-.44-.76-.93-1.2-1.47-.44-.54-.84-1.12-1.22-1.73s-.56-1.25-.56-1.9c0-.54.16-1.05.47-1.54.32-.48.68-.91,1.1-1.27.42-.36.84-.67,1.26-.91s.74-.4.96-.48c.06-.02.1-.03.14-.04s.08-.01.14-.01c.22,0,.46.06.7.18.24.12.47.27.68.46.21.19.39.39.53.6.14.21.21.41.21.57,0,.15-.03.27-.08.36-.99.26-1.78.67-2.38,1.22-.6.55-.89,1.15-.89,1.8,0,.37.13.75.38,1.13.25.38.48.71.68.99.24.32.5.7.78,1.16.28.46.51.89.7,1.3.89-.43,1.75-1.01,2.56-1.75.81-.74,1.57-1.63,2.28-2.7.11-.13.24-.21.39-.25.09-.02.18,0,.27.06.08.06.13.15.13.28,0,.04,0,.08-.03.13-.02.05-.04.09-.06.13ZM245,232.07c-.35.09-.7.19-1.03.28-.34.09-.65.19-.95.28-.6.17-1.08.34-1.44.5-.36.17-.54.41-.54.73,0,.24.08.45.24.61.16.17.37.25.63.25.22,0,.48-.07.75-.22.28-.15.56-.35.84-.59s.55-.52.82-.84c.27-.32.5-.65.68-1.01Z"/><text class="cls-2" transform="translate(286.12 234.15)"><tspan x="0" y="0">RENNES</tspan></text><text class="cls-1" transform="translate(257.53 234.38)"><tspan x="0" y="0">DE</tspan></text><rect class="cls-5" x=".53" y="594.51" width="518.5" height="97.5"/><rect class="cls-5" x=".53" y="637.51" width="518.5" height="13"/><polygon class="cls-5" points="258.03 594.51 254.03 614.01 518.53 614.01 518.53 594.51 258.03 594.51"/><polygon class="cls-5" points="252.03 622.51 247.03 642.01 518.53 642.01 518.53 622.51 252.03 622.51"/><polygon class="cls-5" points="246.03 649.51 241.03 669.01 518.53 669.01 518.53 649.51 246.03 649.51"/><polygon class="cls-5" points="239.03 676.51 234.03 692.01 518.53 692.01 518.53 676.51 239.03 676.51"/></svg>