<svg width="390" height="690" viewBox="0 0 390 690" fill="none" xmlns="http://www.w3.org/2000/svg">
<rect x="-13" y="-15" width="419" height="216" fill="#FFE178"/>
<g clip-path="url(#clip0_548_5448)">
<path d="M399 196H-3V568H399V196Z" fill="#FFE178" stroke="black" stroke-width="0.75" stroke-miterlimit="10"/>
<path d="M273.5 251.17H120.5V569.2H273.5V251.17Z" fill="#F8E8DB" stroke="#1D1D1B" stroke-width="1.04" stroke-miterlimit="10"/>
<path d="M391.5 567.95H1.5V592.65H391.5V567.95Z" fill="#F8E8DB" stroke="#1D1D1B" stroke-miterlimit="10"/>
<path d="M249.5 273.03H144.5V369.15H249.5V273.03Z" fill="#F8E8DB" stroke="#1D1D1B" stroke-miterlimit="10"/>
<path d="M197 273.03V369.15" stroke="#1D1D1B" stroke-miterlimit="10"/>
<path d="M144.46 320.78H249.59" stroke="#1D1D1B" stroke-miterlimit="10"/>
<path d="M250.19 384.11H145.19V556.15H250.19V384.11Z" fill="#F8E8DB" stroke="#1D1D1B" stroke-miterlimit="10"/>
<path d="M392 196H-3V252H392V196Z" fill="#F8E8DB" stroke="#1D1D1B" stroke-width="1.04" stroke-miterlimit="10"/>
<path d="M127.31 225.86C127.42 225.73 127.54 225.66 127.67 225.66C127.84 225.66 127.98 225.74 128.1 225.9C128.22 226.06 128.22 226.24 128.09 226.44C128 226.57 127.91 226.71 127.82 226.85C127.73 226.99 127.65 227.14 127.55 227.31C127.18 227.92 126.75 228.6 126.28 229.34C125.81 230.08 125.27 230.77 124.69 231.41C124.1 232.05 123.47 232.59 122.78 233.03C122.09 233.47 121.36 233.69 120.57 233.69C120.49 233.69 120.29 233.68 119.94 233.65C119.59 233.62 119.23 233.52 118.84 233.36C118.45 233.19 118.1 232.92 117.79 232.55C117.48 232.18 117.33 231.66 117.33 230.99C117.33 230.54 117.46 229.88 117.74 228.99C118.01 228.11 118.36 227.11 118.79 226.01C119.22 224.91 119.69 223.77 120.21 222.59C120.73 221.41 121.24 220.3 121.73 219.26C122.22 218.23 122.68 217.32 123.1 216.55C123.52 215.78 123.83 215.26 124.04 215C123.71 215.41 123.31 215.96 122.87 216.65C122.42 217.34 121.94 218.11 121.42 218.96C120.9 219.81 120.36 220.71 119.8 221.67C119.24 222.63 118.69 223.59 118.14 224.55C117.59 225.51 117.06 226.44 116.53 227.34C116 228.24 115.53 229.07 115.09 229.81C114.65 230.56 114.27 231.19 113.96 231.71C113.65 232.23 113.41 232.59 113.26 232.77C113.05 233.03 112.79 233.25 112.46 233.43C112.13 233.61 111.76 233.7 111.33 233.7C111.07 233.7 110.79 233.66 110.5 233.57C110.21 233.49 109.96 233.35 109.75 233.17C109.54 232.98 109.37 232.73 109.26 232.4C109.15 232.07 109.14 231.68 109.23 231.21C109.3 230.8 109.48 230.16 109.76 229.28C110.04 228.4 110.38 227.42 110.78 226.32C111.18 225.22 111.61 224.08 112.08 222.88C112.55 221.68 113.01 220.57 113.46 219.53C113.92 218.49 114.34 217.58 114.72 216.82C115.1 216.06 115.4 215.55 115.63 215.31C115.24 215.74 114.74 216.42 114.12 217.35C113.5 218.28 112.84 219.33 112.14 220.51C111.43 221.68 110.7 222.92 109.95 224.21C109.2 225.5 108.49 226.73 107.84 227.88C107.19 229.04 106.61 230.05 106.11 230.93C105.61 231.81 105.24 232.42 105.02 232.77C104.83 233.05 104.57 233.27 104.24 233.44C103.9 233.61 103.51 233.69 103.07 233.69C102.55 233.69 102.13 233.57 101.83 233.34C101.52 233.11 101.31 232.8 101.19 232.42C101.07 232.04 101.04 231.61 101.09 231.12C101.15 230.64 101.28 230.13 101.48 229.61L107.6 213.99C106.71 213.99 105.87 214.18 105.1 214.55C104.33 214.92 103.64 215.4 103.05 215.99C102.45 216.58 101.97 217.25 101.58 218C101.19 218.75 100.96 219.52 100.85 220.29C100.75 221.06 100.79 221.8 100.98 222.51C101.17 223.22 101.54 223.83 102.1 224.35C102.01 224.59 101.8 224.78 101.49 224.92C101.17 225.06 100.86 225.13 100.54 225.13C100.35 225.13 100.19 225.1 100.04 225.05C99.89 224.98 99.7 224.87 99.47 224.74C99.24 224.61 99.01 224.41 98.8 224.15C98.59 223.89 98.4 223.54 98.24 223.09C98.08 222.64 98 222.07 98 221.39C98 220.92 98.08 220.39 98.25 219.8C98.42 219.2 98.67 218.58 99 217.94C99.33 217.3 99.76 216.67 100.27 216.05C100.78 215.44 101.39 214.88 102.09 214.39C102.79 213.9 103.57 213.5 104.44 213.2C105.31 212.9 106.27 212.75 107.33 212.75H107.92C108.98 212.75 109.75 212.87 110.21 213.1C110.68 213.33 110.98 213.6 111.12 213.9C111.26 214.2 111.3 214.48 111.25 214.74C111.19 215 111.16 215.16 111.14 215.22L104.96 230.98L106.3 228.52C106.77 227.68 107.3 226.72 107.89 225.64C108.49 224.56 109.12 223.46 109.78 222.33C110.44 221.2 111.11 220.09 111.78 218.99C112.45 217.89 113.08 216.9 113.67 216.01C114.26 215.13 114.79 214.39 115.28 213.8C115.76 213.21 116.15 212.86 116.43 212.75C116.47 212.73 116.52 212.72 116.6 212.72H116.8C117.38 212.72 117.88 212.83 118.3 213.04C118.72 213.25 118.93 213.68 118.93 214.31C118.93 214.59 118.8 215.15 118.54 215.99C118.28 216.83 117.95 217.81 117.55 218.94C117.15 220.07 116.7 221.26 116.21 222.53C115.72 223.8 115.24 225 114.78 226.15C114.32 227.3 113.91 228.31 113.55 229.2C113.19 230.09 112.93 230.7 112.78 231.03C112.99 230.7 113.29 230.18 113.69 229.48C114.09 228.78 114.55 227.97 115.07 227.05C115.59 226.13 116.16 225.14 116.77 224.07C117.39 223.01 118.01 221.95 118.66 220.9C119.3 219.85 119.94 218.83 120.56 217.84C121.18 216.85 121.77 215.98 122.32 215.23C122.87 214.48 123.36 213.87 123.8 213.43C124.24 212.98 124.59 212.76 124.85 212.76C125.46 212.76 125.95 212.86 126.32 213.07C126.68 213.28 126.94 213.54 127.1 213.87C127.26 214.2 127.32 214.56 127.3 214.97C127.27 215.38 127.17 215.78 126.98 216.17C126.91 216.32 126.75 216.66 126.52 217.2C126.29 217.74 126.01 218.41 125.68 219.21C125.35 220.01 124.99 220.89 124.59 221.85C124.19 222.81 123.79 223.78 123.4 224.77C123.01 225.76 122.64 226.72 122.3 227.65C121.96 228.58 121.67 229.41 121.45 230.14C121.23 230.87 121.07 231.45 120.99 231.89C120.91 232.33 120.93 232.55 121.06 232.55C121.64 232.55 122.22 232.31 122.82 231.82C123.42 231.34 123.99 230.76 124.54 230.09C125.09 229.42 125.58 228.74 126.02 228.05C126.46 227.36 126.8 226.81 127.04 226.4C127.13 226.27 127.2 226.16 127.25 226.07C127.3 225.98 127.34 225.91 127.38 225.87L127.31 225.86Z" fill="#1D1D1B"/>
<path d="M139.35 227.46C139.09 227.85 138.75 228.25 138.34 228.65C137.93 229.05 137.47 229.42 136.96 229.75C136.45 230.09 135.91 230.36 135.34 230.59C134.77 230.81 134.21 230.95 133.65 231.01C133 231.79 132.28 232.44 131.5 232.94C130.72 233.44 129.89 233.69 129.01 233.69C128.32 233.69 127.73 233.6 127.25 233.42C126.77 233.24 126.37 232.99 126.08 232.67C125.78 232.34 125.56 231.97 125.42 231.54C125.28 231.11 125.21 230.65 125.21 230.14C125.21 229.51 125.3 228.85 125.49 228.16C125.68 227.47 125.93 226.79 126.24 226.12C126.56 225.45 126.92 224.81 127.34 224.19C127.76 223.58 128.2 223.04 128.67 222.57C129.13 222.1 129.61 221.73 130.08 221.45C130.55 221.17 131.01 221.03 131.43 221.03C131.97 221.03 132.39 221.09 132.67 221.21C132.96 221.33 133.18 221.47 133.33 221.62C134.32 221.62 135.04 221.88 135.48 222.39C135.93 222.9 136.15 223.64 136.15 224.61C136.15 225.41 136 226.27 135.7 227.19C135.4 228.11 134.98 228.99 134.44 229.83C135.3 229.66 136.07 229.32 136.76 228.8C137.45 228.28 138.02 227.73 138.46 227.15C138.65 226.91 138.78 226.76 138.85 226.7C138.92 226.64 139 226.62 139.07 226.62C139.18 226.62 139.28 226.66 139.38 226.75C139.47 226.83 139.52 226.94 139.52 227.07C139.52 227.11 139.52 227.15 139.49 227.2C139.47 227.25 139.42 227.34 139.32 227.47L139.35 227.46ZM131.95 230.84C131.15 230.62 130.54 230.23 130.13 229.68C129.72 229.13 129.46 228.51 129.35 227.82C129.09 228.45 128.88 229.07 128.72 229.66C128.56 230.26 128.48 230.78 128.48 231.22C128.48 231.66 128.56 232 128.73 232.27C128.9 232.54 129.17 232.68 129.54 232.68C129.97 232.68 130.38 232.51 130.78 232.16C131.18 231.82 131.57 231.37 131.94 230.83L131.95 230.84ZM133.49 222.62C133.25 222.62 133.01 222.76 132.78 223.04C132.55 223.32 132.34 223.67 132.15 224.1C131.96 224.53 131.81 225.01 131.69 225.55C131.57 226.09 131.51 226.61 131.51 227.11C131.51 227.69 131.59 228.21 131.76 228.67C131.93 229.14 132.21 229.47 132.6 229.68C132.84 229.21 133.06 228.73 133.24 228.21C133.43 227.7 133.59 227.19 133.73 226.69C133.87 226.19 133.98 225.7 134.05 225.24C134.12 224.77 134.16 224.36 134.16 223.98C134.16 223.57 134.11 223.24 134.01 222.99C133.91 222.74 133.73 222.61 133.49 222.61V222.62Z" fill="#1D1D1B"/>
<path d="M154.05 227.57C153.81 228.02 153.52 228.52 153.2 229.08C152.87 229.64 152.52 230.18 152.15 230.71C151.78 231.24 151.38 231.73 150.96 232.16C150.54 232.6 150.12 232.94 149.69 233.18C149.39 233.35 149.07 233.47 148.74 233.56C148.4 233.64 148.08 233.69 147.76 233.69C146.98 233.69 146.27 233.49 145.64 233.09C145.01 232.69 144.62 232.14 144.47 231.43C144 232.08 143.47 232.62 142.86 233.05C142.25 233.48 141.53 233.69 140.69 233.69C140.28 233.69 139.88 233.63 139.49 233.51C139.1 233.39 138.75 233.21 138.44 232.97C138.13 232.73 137.89 232.43 137.71 232.08C137.53 231.73 137.45 231.33 137.45 230.88C137.45 230.53 137.52 230.11 137.67 229.62C137.71 229.49 137.8 229.22 137.95 228.81C138.1 228.4 138.28 227.91 138.49 227.34C138.7 226.77 138.94 226.16 139.19 225.5C139.44 224.84 139.69 224.2 139.93 223.59C140.15 222.98 140.29 222.47 140.35 222.07C140.41 221.67 140.43 221.45 140.43 221.41C140.97 221.41 141.42 221.46 141.79 221.55C142.16 221.64 142.44 221.76 142.64 221.91C142.84 222.06 142.99 222.23 143.07 222.43C143.15 222.63 143.2 222.83 143.2 223.03C143.2 223.22 143.17 223.41 143.12 223.62C143.07 223.83 142.99 224.07 142.9 224.35C142.75 224.78 142.58 225.23 142.38 225.69C142.18 226.16 141.98 226.61 141.78 227.06C141.41 227.9 141.1 228.66 140.84 229.34C140.59 230.02 140.46 230.66 140.46 231.25C140.46 231.59 140.52 231.91 140.64 232.21C140.76 232.52 141.03 232.67 141.44 232.67C141.76 232.67 142.07 232.56 142.39 232.35C142.71 232.14 143.01 231.86 143.31 231.51C143.61 231.16 143.89 230.76 144.16 230.31C144.43 229.86 144.68 229.39 144.9 228.93C145.01 228.63 145.14 228.28 145.29 227.87C145.44 227.46 145.6 227.02 145.78 226.54C145.96 226.06 146.14 225.57 146.34 225.06C146.54 224.55 146.73 224.06 146.91 223.59C147.13 222.98 147.27 222.47 147.33 222.07C147.39 221.67 147.41 221.45 147.41 221.41C147.95 221.41 148.4 221.46 148.77 221.55C149.14 221.64 149.42 221.76 149.62 221.91C149.82 222.06 149.97 222.23 150.05 222.43C150.13 222.63 150.18 222.83 150.18 223.03C150.18 223.22 150.15 223.41 150.1 223.62C150.05 223.83 149.97 224.07 149.88 224.35C149.73 224.78 149.56 225.23 149.36 225.69C149.16 226.16 148.96 226.61 148.76 227.06C148.39 227.9 148.08 228.66 147.82 229.34C147.57 230.02 147.44 230.66 147.44 231.25C147.44 231.57 147.5 231.88 147.62 232.2C147.74 232.52 147.99 232.68 148.36 232.68C148.82 232.68 149.31 232.45 149.81 231.99C150.31 231.53 150.8 230.99 151.26 230.37C151.72 229.75 152.14 229.11 152.52 228.47C152.89 227.83 153.17 227.33 153.36 226.97C153.43 226.84 153.54 226.77 153.67 226.77C153.76 226.77 153.86 226.82 153.96 226.92C154.06 227.02 154.11 227.15 154.11 227.3C154.11 227.37 154.08 227.47 154.03 227.58L154.05 227.57Z" fill="#1D1D1B"/>
<path d="M161.26 227.54C161.02 228.04 160.7 228.64 160.3 229.34C159.9 230.04 159.43 230.71 158.9 231.35C158.37 231.99 157.78 232.54 157.13 233C156.48 233.46 155.77 233.68 155.01 233.68C154.49 233.68 153.98 233.6 153.49 233.43C153 233.26 152.59 232.98 152.27 232.59C151.95 232.2 151.76 231.69 151.68 231.07C151.61 230.45 151.73 229.68 152.04 228.76C152.25 228.15 152.49 227.43 152.78 226.61C153.07 225.79 153.38 224.92 153.72 224.01C154.05 223.1 154.39 222.17 154.74 221.23C155.08 220.29 155.42 219.4 155.73 218.56C156.05 217.72 156.33 216.97 156.58 216.3C156.83 215.63 157.03 215.1 157.18 214.71C157.39 214.15 157.51 213.69 157.56 213.33C157.61 212.97 157.64 212.76 157.66 212.7C158.74 212.7 159.52 212.87 159.99 213.2C160.46 213.53 160.7 213.92 160.7 214.35C160.7 214.52 160.67 214.7 160.62 214.91C160.56 215.12 160.49 215.35 160.4 215.61C160.31 215.91 160.14 216.36 159.91 216.95C159.68 217.55 159.4 218.23 159.09 218.99C158.64 220.13 158.17 221.35 157.67 222.66C157.17 223.97 156.7 225.23 156.27 226.43C155.84 227.63 155.49 228.71 155.22 229.66C154.95 230.61 154.82 231.29 154.84 231.7C154.86 231.96 154.93 232.18 155.06 232.36C155.19 232.54 155.4 232.63 155.68 232.63C156.01 232.63 156.35 232.5 156.7 232.25C157.05 232 157.39 231.69 157.73 231.31C158.07 230.93 158.4 230.52 158.72 230.07C159.04 229.61 159.32 229.19 159.57 228.78C159.82 228.38 160.03 228.03 160.18 227.72C160.34 227.41 160.45 227.22 160.5 227.15C160.65 226.91 160.82 226.79 161 226.79C161.11 226.79 161.21 226.81 161.29 226.86C161.37 226.91 161.41 226.99 161.41 227.1C161.41 227.14 161.41 227.18 161.4 227.24C161.4 227.3 161.34 227.4 161.25 227.55L161.26 227.54Z" fill="#1D1D1B"/>
<path d="M162.46 233.66C161.49 233.66 160.72 233.42 160.14 232.93C159.56 232.44 159.27 231.67 159.27 230.61C159.27 230.29 159.31 229.93 159.4 229.52C159.48 229.11 159.6 228.68 159.73 228.22C159.86 227.76 160.03 227.3 160.21 226.82C160.39 226.35 160.57 225.88 160.75 225.44C160.9 225.12 161.03 224.81 161.16 224.5C161.28 224.19 161.39 223.92 161.48 223.68C161.74 222.99 161.89 222.45 161.94 222.06C161.99 221.67 162.01 221.45 162.01 221.39C163.09 221.39 163.83 221.53 164.22 221.81C164.61 222.09 164.81 222.45 164.81 222.9C164.81 223.27 164.71 223.71 164.5 224.21L163.47 226.78C163.14 227.43 162.85 228.19 162.6 229.04C162.36 229.9 162.19 230.69 162.1 231.42C161.99 232.22 162.25 232.62 162.88 232.62C163.33 232.62 163.76 232.48 164.17 232.2C164.58 231.92 164.97 231.58 165.34 231.17C165.71 230.76 166.06 230.3 166.37 229.8C166.68 229.3 166.98 228.83 167.24 228.4C167.5 227.97 167.72 227.6 167.91 227.28C168.1 226.96 168.24 226.78 168.33 226.72C168.54 226.61 168.72 226.64 168.87 226.8C169.03 226.97 169.05 227.15 168.94 227.36C168.59 227.99 168.19 228.68 167.77 229.43C167.34 230.18 166.86 230.86 166.33 231.48C165.8 232.1 165.21 232.62 164.57 233.03C163.93 233.44 163.22 233.64 162.46 233.64V233.66ZM163.58 216.84C163.75 216.84 163.99 216.84 164.31 216.85C164.63 216.85 164.94 216.9 165.26 216.96C165.58 217.03 165.85 217.13 166.08 217.27C166.31 217.41 166.43 217.61 166.43 217.87C166.43 217.96 166.43 218.03 166.4 218.07C166.38 218.13 166.33 218.23 166.26 218.39C166.18 218.55 166.1 218.73 166.01 218.92C165.92 219.12 165.81 219.32 165.7 219.52C165.59 219.73 165.49 219.9 165.39 220.05C165.35 220.11 165.27 220.23 165.14 220.43C165.01 220.63 164.84 220.72 164.64 220.72C164.19 220.72 163.83 220.7 163.56 220.65C163.29 220.6 163.08 220.54 162.94 220.47C162.8 220.4 162.71 220.31 162.66 220.22C162.61 220.13 162.59 220.03 162.59 219.94C162.59 219.85 162.59 219.78 162.62 219.74C162.62 219.68 162.66 219.51 162.75 219.21C162.84 218.91 162.92 218.59 163.02 218.25C163.11 217.91 163.2 217.59 163.27 217.3C163.34 217.01 163.38 216.86 163.38 216.84H163.58Z" fill="#1D1D1B"/>
<path d="M175.62 223.1C175.4 223.38 175.04 223.85 174.56 224.53C174.07 225.2 173.55 225.95 172.98 226.78C172.41 227.61 171.85 228.46 171.3 229.34C170.75 230.22 170.29 231 169.92 231.69C169.51 232.42 169.16 232.93 168.86 233.24C168.56 233.55 168.25 233.7 167.94 233.7C167.49 233.7 167.13 233.64 166.85 233.52C166.57 233.4 166.36 233.24 166.22 233.03C166.08 232.82 165.99 232.6 165.94 232.34C165.89 232.09 165.87 231.84 165.87 231.6C165.87 231.12 165.94 230.65 166.07 230.22C166.2 229.78 166.36 229.35 166.54 228.92C166.67 228.55 166.83 228.11 167.03 227.62C167.23 227.13 167.42 226.61 167.6 226.08C167.79 225.55 167.96 225.02 168.13 224.5C168.3 223.98 168.44 223.51 168.55 223.1C168.62 222.77 168.67 222.48 168.7 222.23C168.73 221.99 168.74 221.71 168.74 221.39C169.06 221.39 169.4 221.4 169.77 221.43C170.14 221.46 170.49 221.53 170.8 221.65C171.12 221.77 171.38 221.96 171.6 222.21C171.81 222.46 171.92 222.8 171.92 223.23C171.92 223.32 171.92 223.4 171.91 223.47C171.91 223.54 171.89 223.61 171.87 223.71V223.74C171.83 223.96 171.71 224.36 171.51 224.94C171.3 225.52 171.07 226.16 170.8 226.85C170.53 227.55 170.25 228.25 169.96 228.95C169.67 229.65 169.42 230.24 169.22 230.72C169.46 230.31 169.77 229.8 170.14 229.18C170.51 228.57 170.92 227.91 171.37 227.22C171.82 226.53 172.29 225.84 172.78 225.14C173.27 224.44 173.75 223.82 174.22 223.27C174.69 222.72 175.12 222.27 175.53 221.92C175.94 221.57 176.28 221.39 176.56 221.39C177.34 221.39 177.89 221.53 178.19 221.81C178.49 222.09 178.65 222.45 178.65 222.9C178.65 223.35 178.51 223.99 178.24 224.81C177.97 225.64 177.66 226.51 177.32 227.41C176.98 228.31 176.64 229.18 176.33 230.02C176.01 230.86 175.81 231.52 175.72 232C175.64 232.39 175.72 232.59 175.94 232.59C176.26 232.59 176.63 232.42 177.06 232.09C177.49 231.76 177.93 231.32 178.39 230.79C178.85 230.26 179.3 229.67 179.75 229.03C180.2 228.39 180.59 227.76 180.92 227.14C180.98 227.03 181.08 226.97 181.23 226.97C181.36 226.97 181.47 227.03 181.56 227.14C181.65 227.25 181.65 227.41 181.56 227.61L181.5 227.69C181.44 227.8 181.32 228.03 181.12 228.37C180.92 228.72 180.68 229.11 180.38 229.54C180.08 229.98 179.74 230.44 179.36 230.92C178.98 231.4 178.57 231.85 178.13 232.26C177.69 232.67 177.24 233.01 176.76 233.27C176.28 233.53 175.81 233.66 175.35 233.66C174.64 233.66 174.1 233.55 173.73 233.34C173.36 233.13 173.1 232.86 172.96 232.56C172.82 232.25 172.76 231.93 172.78 231.58C172.8 231.24 172.85 230.92 172.92 230.64C173.03 230.16 173.2 229.56 173.42 228.84C173.64 228.12 173.89 227.4 174.15 226.66C174.41 225.92 174.67 225.23 174.93 224.56C175.19 223.9 175.41 223.4 175.6 223.06L175.62 223.1Z" fill="#1D1D1B"/>
<path d="M191.27 226.17C190.73 227.12 190.02 228.03 189.15 228.91C188.27 229.79 187.19 230.52 185.91 231.12C185.87 231.14 185.87 231.2 185.9 231.3C185.93 231.4 185.94 231.5 185.94 231.59C185.94 232.2 185.8 232.77 185.51 233.29C185.22 233.81 184.84 234.25 184.38 234.62C183.92 234.99 183.39 235.27 182.82 235.47C182.24 235.67 181.66 235.78 181.09 235.78C180.42 235.78 179.86 235.57 179.4 235.17C178.94 234.76 178.72 234.29 178.72 233.74C178.72 233.61 178.72 233.51 178.75 233.43C178.81 233.11 178.93 232.86 179.11 232.68C179.3 232.49 179.54 232.34 179.84 232.2C180.14 232.06 180.48 231.95 180.87 231.85C181.26 231.75 181.69 231.62 182.16 231.47C182.42 231.4 182.7 231.32 183 231.25C183.3 231.18 183.59 231.08 183.87 230.97C183.89 230.65 183.72 230.28 183.35 229.84C182.99 229.4 182.59 228.91 182.15 228.37C181.71 227.83 181.31 227.25 180.93 226.64C180.55 226.03 180.37 225.39 180.37 224.74C180.37 224.2 180.53 223.69 180.84 223.2C181.16 222.72 181.52 222.29 181.94 221.93C182.36 221.57 182.78 221.26 183.2 221.02C183.62 220.78 183.94 220.62 184.16 220.54C184.22 220.52 184.26 220.51 184.3 220.5C184.34 220.49 184.38 220.49 184.44 220.49C184.66 220.49 184.9 220.55 185.14 220.67C185.38 220.79 185.61 220.94 185.82 221.13C186.03 221.32 186.21 221.52 186.35 221.73C186.49 221.94 186.56 222.14 186.56 222.3C186.56 222.45 186.53 222.57 186.48 222.66C185.49 222.92 184.7 223.33 184.1 223.88C183.5 224.43 183.21 225.03 183.21 225.68C183.21 226.05 183.34 226.43 183.59 226.81C183.84 227.19 184.07 227.52 184.27 227.8C184.51 228.12 184.77 228.5 185.05 228.96C185.33 229.42 185.56 229.85 185.75 230.26C186.64 229.83 187.5 229.25 188.31 228.51C189.12 227.77 189.88 226.88 190.59 225.81C190.7 225.68 190.83 225.6 190.98 225.56C191.07 225.54 191.16 225.56 191.25 225.62C191.33 225.68 191.38 225.77 191.38 225.9C191.38 225.94 191.38 225.98 191.35 226.03C191.33 226.08 191.31 226.12 191.29 226.16L191.27 226.17ZM183.7 231.84C183.35 231.93 183 232.03 182.67 232.12C182.33 232.21 182.02 232.31 181.72 232.4C181.12 232.57 180.64 232.74 180.28 232.9C179.92 233.07 179.74 233.31 179.74 233.63C179.74 233.87 179.82 234.08 179.98 234.24C180.14 234.41 180.35 234.49 180.61 234.49C180.83 234.49 181.09 234.42 181.36 234.27C181.64 234.12 181.92 233.92 182.2 233.68C182.48 233.44 182.75 233.16 183.02 232.84C183.29 232.52 183.52 232.19 183.7 231.83V231.84Z" fill="#1D1D1B"/>
<path d="M226.839 233V216.331H232.471C233.773 216.331 234.842 216.553 235.678 216.998C236.513 217.438 237.132 218.043 237.533 218.813C237.935 219.584 238.136 220.46 238.136 221.442C238.136 222.424 237.935 223.295 237.533 224.055C237.132 224.815 236.516 225.412 235.686 225.846C234.856 226.274 233.795 226.489 232.503 226.489H227.945V224.665H232.438C233.328 224.665 234.044 224.535 234.587 224.275C235.135 224.014 235.531 223.645 235.775 223.168C236.025 222.685 236.15 222.11 236.15 221.442C236.15 220.775 236.025 220.192 235.775 219.692C235.526 219.193 235.127 218.808 234.579 218.537C234.031 218.26 233.306 218.122 232.406 218.122H228.857V233H226.839ZM234.685 225.512L238.787 233H236.443L232.406 225.512H234.685ZM241.499 233V216.331H251.559V218.122H243.518V223.754H251.038V225.544H243.518V231.209H251.69V233H241.499ZM268.416 216.331V233H266.462L257.379 219.912H257.216V233H255.198V216.331H257.151L266.267 229.451H266.43V216.331H268.416ZM285.673 216.331V233H283.719L274.636 219.912H274.473V233H272.455V216.331H274.408L283.524 229.451H283.687V216.331H285.673ZM289.712 233V216.331H299.772V218.122H291.73V223.754H299.251V225.544H291.73V231.209H299.902V233H289.712ZM312.526 220.498C312.428 219.673 312.032 219.033 311.338 218.577C310.643 218.122 309.791 217.894 308.782 217.894C308.044 217.894 307.398 218.013 306.845 218.252C306.297 218.491 305.868 218.819 305.559 219.237C305.255 219.654 305.103 220.129 305.103 220.661C305.103 221.106 305.209 221.488 305.421 221.809C305.638 222.123 305.914 222.386 306.251 222.598C306.587 222.804 306.94 222.975 307.309 223.111C307.678 223.241 308.017 223.347 308.326 223.428L310.019 223.884C310.453 223.998 310.936 224.155 311.468 224.356C312.005 224.557 312.518 224.831 313.006 225.178C313.5 225.52 313.907 225.96 314.227 226.497C314.547 227.034 314.707 227.693 314.707 228.475C314.707 229.375 314.471 230.189 313.999 230.916C313.533 231.643 312.849 232.221 311.948 232.65C311.053 233.079 309.965 233.293 308.684 233.293C307.491 233.293 306.457 233.1 305.583 232.715C304.715 232.33 304.031 231.793 303.532 231.104C303.038 230.414 302.759 229.614 302.694 228.702H304.778C304.832 229.332 305.043 229.853 305.412 230.265C305.787 230.672 306.259 230.976 306.829 231.177C307.404 231.372 308.022 231.47 308.684 231.47C309.455 231.47 310.147 231.345 310.76 231.095C311.373 230.84 311.859 230.488 312.217 230.037C312.575 229.582 312.754 229.05 312.754 228.442C312.754 227.889 312.599 227.438 312.29 227.091C311.981 226.744 311.574 226.462 311.069 226.244C310.564 226.027 310.019 225.837 309.433 225.675L307.382 225.089C306.08 224.714 305.049 224.18 304.289 223.485C303.53 222.791 303.15 221.882 303.15 220.759C303.15 219.825 303.402 219.011 303.907 218.317C304.417 217.617 305.1 217.074 305.958 216.689C306.82 216.298 307.784 216.103 308.847 216.103C309.921 216.103 310.876 216.296 311.712 216.681C312.548 217.061 313.21 217.582 313.698 218.244C314.192 218.906 314.452 219.657 314.479 220.498H312.526Z" fill="#1D1D1B"/>
<path d="M200.836 233.41H197.528V222.69H200.983C202.023 222.69 202.913 222.905 203.652 223.334C204.392 223.759 204.959 224.372 205.354 225.171C205.748 225.967 205.945 226.919 205.945 228.029C205.945 229.146 205.746 230.107 205.348 230.913C204.951 231.716 204.371 232.333 203.611 232.766C202.85 233.195 201.925 233.41 200.836 233.41ZM198.826 232.258H200.753C201.639 232.258 202.373 232.087 202.956 231.745C203.539 231.403 203.973 230.917 204.26 230.285C204.546 229.653 204.689 228.901 204.689 228.029C204.689 227.164 204.547 226.419 204.265 225.794C203.982 225.166 203.56 224.684 202.998 224.349C202.436 224.011 201.737 223.841 200.899 223.841H198.826V232.258ZM208.123 233.41V222.69H214.592V223.841H209.421V227.464H214.257V228.615H209.421V232.258H214.676V233.41H208.123Z" fill="#1D1D1B"/>
<path d="M29.2 540.92L-0.200012 540.9H-29.37V543.55H-27.6C-27.6 543.55 -30.25 577.14 -19.65 584.21C-14.35 587.75 -11.7 592.16 -11.7 592.16H-0.279999V592.18H11.52C11.52 592.18 14.17 587.76 19.47 584.23C30.08 577.16 27.42 543.57 27.42 543.57H29.19L29.2 540.426V540.92Z" fill="#F8E8DB" stroke="#1D1D1B" stroke-miterlimit="10"/>
<path d="M14.88 540.9C14.88 540.9 37.81 482.57 36.04 474.61C36.04 474.61 11.89 506.43 2.31 540.9H14.88Z" fill="#F8E8DB" stroke="#1D1D1B" stroke-miterlimit="10"/>
<path d="M5.10001 540.9C5.10001 540.9 8.63999 482.57 3.32999 469.31C3.32999 469.31 -17 512.62 -9.04 540.9H5.10001Z" fill="#F8E8DB" stroke="#1D1D1B" stroke-miterlimit="10"/>
<path d="M2.31004 540.9C2.31004 540.9 -1.07997 497.59 -9.91997 480.8C-9.91997 480.8 -16.9199 520.57 -10.7699 540.9H2.31004Z" fill="#FBF2EB" stroke="#1D1D1B" stroke-miterlimit="10"/>
<path d="M10.51 540.9C10.51 540.9 29.85 476.38 27.2 466.66C27.2 466.66 3.94 497.59 2.31 540.9H10.51Z" fill="#F8E8DB" stroke="#1D1D1B" stroke-miterlimit="10"/>
<path d="M15.71 467.54C15.71 467.54 18.1 528.52 13.37 540.9H-0.200012C-0.200012 540.9 4.21999 485.22 15.71 467.54Z" fill="#F8E8DB" stroke="#1D1D1B" stroke-miterlimit="10"/>
<path d="M10.95 540.9L17.48 530.29C17.48 530.29 21.9 522.34 25.43 528.52L28.97 536.47C28.97 536.47 24.34 531.02 21.9 532.05C19.81 532.93 18.36 537.35 16.65 540.89L14.5 540.9H10.95Z" fill="#F8E8DB" stroke="#1D1D1B" stroke-miterlimit="10"/>
<path d="M2338 592.15H-387.5V688.65H2338V592.15Z" fill="#F8E8DB" stroke="#1D1D1B" stroke-miterlimit="10"/>
<path d="M2338 634.15H-388.5V647.15H2338V634.15Z" fill="#F8E8DB" stroke="#1D1D1B" stroke-miterlimit="10"/>
<path d="M544.5 611.65H192.58L196.58 592.15H540.5L544.5 611.65Z" fill="#F8E8DB" stroke="#1D1D1B" stroke-miterlimit="10"/>
<path d="M550.5 638.65H185.58L190.58 619.15H545.5L550.5 638.65Z" fill="#F8E8DB" stroke="#1D1D1B" stroke-miterlimit="10"/>
<path d="M557.5 665.65H179.58L184.58 646.15H552.5L557.5 665.65Z" fill="#F8E8DB" stroke="#1D1D1B" stroke-miterlimit="10"/>
<path d="M563.5 688.65H172.58L177.58 673.15H558.5L563.5 688.65Z" fill="#F8E8DB" stroke="#1D1D1B" stroke-miterlimit="10"/>
</g>
<defs>
<clipPath id="clip0_548_5448">
<rect width="2760.86" height="505.15" fill="white" transform="translate(-389 184)"/>
</clipPath>
</defs>
</svg>
