<svg width="390" height="582" viewBox="0 0 390 582" fill="none" xmlns="http://www.w3.org/2000/svg">
<g clip-path="url(#clip0_548_5448)">
<path d="M390 76.52H0.5V459.82H390V76.52Z" fill="#FFE078" stroke="black" stroke-width="0.75" stroke-miterlimit="10"/>
<path d="M272.5 143.04H119.5V461.07H272.5V143.04Z" fill="#FAF2EA" stroke="#1D1D1B" stroke-width="1.04" stroke-miterlimit="10"/>
<path d="M390.5 459.82H0.5V484.52H390.5V459.82Z" fill="#FBF2EB" stroke="#1D1D1B" stroke-miterlimit="10"/>
<path d="M248.5 164.9H143.5V261.02H248.5V164.9Z" fill="#FBF2EB" stroke="#1D1D1B" stroke-miterlimit="10"/>
<path d="M196 164.9V261.02" stroke="#1D1D1B" stroke-miterlimit="10"/>
<path d="M143.46 212.65H248.59" stroke="#1D1D1B" stroke-miterlimit="10"/>
<path d="M249.19 275.98H144.19V448.02H249.19V275.98Z" fill="#FBF2EB" stroke="#1D1D1B" stroke-miterlimit="10"/>
<path d="M391 77H-2V144H391V77Z" fill="#FAF2EA" stroke="#1D1D1B" stroke-width="1.04" stroke-miterlimit="10"/>
<path d="M126.16 114.6C126.27 114.47 126.39 114.4 126.52 114.4C126.69 114.4 126.83 114.48 126.95 114.64C127.07 114.8 127.07 114.98 126.94 115.18C126.85 115.31 126.76 115.45 126.67 115.59C126.58 115.73 126.5 115.88 126.4 116.05C126.03 116.66 125.6 117.34 125.13 118.08C124.66 118.82 124.12 119.51 123.54 120.15C122.95 120.79 122.32 121.33 121.63 121.77C120.94 122.21 120.21 122.43 119.42 122.43C119.34 122.43 119.14 122.42 118.79 122.39C118.44 122.36 118.08 122.26 117.69 122.1C117.3 121.93 116.95 121.66 116.64 121.29C116.33 120.92 116.18 120.4 116.18 119.73C116.18 119.28 116.31 118.62 116.59 117.73C116.86 116.85 117.21 115.85 117.64 114.75C118.07 113.65 118.54 112.51 119.06 111.33C119.58 110.15 120.09 109.04 120.58 108C121.07 106.97 121.53 106.06 121.95 105.29C122.37 104.52 122.68 104 122.89 103.74C122.56 104.15 122.16 104.7 121.72 105.39C121.27 106.08 120.79 106.85 120.27 107.7C119.75 108.55 119.21 109.45 118.65 110.41C118.09 111.37 117.54 112.33 116.99 113.29C116.44 114.25 115.91 115.18 115.38 116.08C114.85 116.98 114.38 117.81 113.94 118.55C113.5 119.3 113.12 119.93 112.81 120.45C112.5 120.97 112.26 121.33 112.11 121.51C111.9 121.77 111.64 121.99 111.31 122.17C110.98 122.35 110.61 122.44 110.18 122.44C109.92 122.44 109.64 122.4 109.35 122.31C109.06 122.23 108.81 122.09 108.6 121.91C108.39 121.72 108.22 121.47 108.11 121.14C108 120.81 107.99 120.42 108.08 119.95C108.15 119.54 108.33 118.9 108.61 118.02C108.89 117.14 109.23 116.16 109.63 115.06C110.03 113.96 110.46 112.82 110.93 111.62C111.4 110.42 111.86 109.31 112.31 108.27C112.77 107.23 113.19 106.32 113.57 105.56C113.95 104.8 114.25 104.29 114.48 104.05C114.09 104.48 113.59 105.16 112.97 106.09C112.35 107.02 111.69 108.07 110.99 109.25C110.28 110.42 109.55 111.66 108.8 112.95C108.05 114.24 107.34 115.47 106.69 116.62C106.04 117.78 105.46 118.79 104.96 119.67C104.46 120.55 104.09 121.16 103.87 121.51C103.68 121.79 103.42 122.01 103.09 122.18C102.75 122.35 102.36 122.43 101.92 122.43C101.4 122.43 100.98 122.31 100.68 122.08C100.37 121.85 100.16 121.54 100.04 121.16C99.92 120.78 99.89 120.35 99.94 119.86C100 119.38 100.13 118.87 100.33 118.35L106.45 102.73C105.56 102.73 104.72 102.92 103.95 103.29C103.18 103.66 102.49 104.14 101.9 104.73C101.3 105.32 100.82 105.99 100.43 106.74C100.04 107.49 99.81 108.26 99.7 109.03C99.6 109.8 99.64 110.54 99.83 111.25C100.02 111.96 100.39 112.57 100.95 113.09C100.86 113.33 100.65 113.52 100.34 113.66C100.02 113.8 99.71 113.87 99.39 113.87C99.2 113.87 99.04 113.84 98.89 113.79C98.74 113.72 98.55 113.61 98.32 113.48C98.09 113.35 97.86 113.15 97.65 112.89C97.44 112.63 97.25 112.28 97.09 111.83C96.93 111.38 96.85 110.81 96.85 110.13C96.85 109.66 96.93 109.13 97.1 108.54C97.27 107.94 97.52 107.32 97.85 106.68C98.18 106.04 98.61 105.41 99.12 104.79C99.63 104.18 100.24 103.62 100.94 103.13C101.64 102.64 102.42 102.24 103.29 101.94C104.16 101.64 105.12 101.49 106.18 101.49H106.77C107.83 101.49 108.6 101.61 109.06 101.84C109.53 102.07 109.83 102.34 109.97 102.64C110.11 102.94 110.15 103.22 110.1 103.48C110.04 103.74 110.01 103.9 109.99 103.96L103.81 119.72L105.15 117.26C105.62 116.42 106.15 115.46 106.74 114.38C107.34 113.3 107.97 112.2 108.63 111.07C109.29 109.94 109.96 108.83 110.63 107.73C111.3 106.63 111.93 105.64 112.52 104.75C113.11 103.87 113.64 103.13 114.13 102.54C114.61 101.95 115 101.6 115.28 101.49C115.32 101.47 115.37 101.46 115.45 101.46H115.65C116.23 101.46 116.73 101.57 117.15 101.78C117.57 101.99 117.78 102.42 117.78 103.05C117.78 103.33 117.65 103.89 117.39 104.73C117.13 105.57 116.8 106.55 116.4 107.68C116 108.81 115.55 110 115.06 111.27C114.57 112.54 114.09 113.74 113.63 114.89C113.17 116.04 112.76 117.05 112.4 117.94C112.04 118.83 111.78 119.44 111.63 119.77C111.84 119.44 112.14 118.92 112.54 118.22C112.94 117.52 113.4 116.71 113.92 115.79C114.44 114.87 115.01 113.88 115.62 112.81C116.24 111.75 116.86 110.69 117.51 109.64C118.15 108.59 118.79 107.57 119.41 106.58C120.03 105.59 120.62 104.72 121.17 103.97C121.72 103.22 122.21 102.61 122.65 102.17C123.09 101.72 123.44 101.5 123.7 101.5C124.31 101.5 124.8 101.6 125.17 101.81C125.53 102.02 125.79 102.28 125.95 102.61C126.11 102.94 126.17 103.3 126.15 103.71C126.12 104.12 126.02 104.52 125.83 104.91C125.76 105.06 125.6 105.4 125.37 105.94C125.14 106.48 124.86 107.15 124.53 107.95C124.2 108.75 123.84 109.63 123.44 110.59C123.04 111.55 122.64 112.52 122.25 113.51C121.86 114.5 121.49 115.46 121.15 116.39C120.81 117.32 120.52 118.15 120.3 118.88C120.08 119.61 119.92 120.19 119.84 120.63C119.76 121.07 119.78 121.29 119.91 121.29C120.49 121.29 121.07 121.05 121.67 120.56C122.27 120.08 122.84 119.5 123.39 118.83C123.94 118.16 124.43 117.48 124.87 116.79C125.31 116.1 125.65 115.55 125.89 115.14C125.98 115.01 126.05 114.9 126.1 114.81C126.15 114.72 126.19 114.65 126.23 114.61L126.16 114.6Z" fill="#1D1D1B"/>
<path d="M138.2 116.19C137.94 116.58 137.6 116.98 137.19 117.38C136.78 117.78 136.32 118.15 135.81 118.48C135.3 118.82 134.76 119.09 134.19 119.32C133.62 119.54 133.06 119.68 132.5 119.74C131.85 120.52 131.13 121.17 130.35 121.67C129.57 122.17 128.74 122.42 127.86 122.42C127.17 122.42 126.58 122.33 126.1 122.15C125.62 121.97 125.22 121.72 124.93 121.4C124.63 121.07 124.41 120.7 124.27 120.27C124.13 119.84 124.06 119.38 124.06 118.87C124.06 118.24 124.15 117.58 124.34 116.89C124.53 116.2 124.78 115.52 125.09 114.85C125.41 114.18 125.77 113.54 126.19 112.92C126.61 112.31 127.05 111.77 127.52 111.3C127.98 110.83 128.46 110.46 128.93 110.18C129.4 109.9 129.86 109.76 130.28 109.76C130.82 109.76 131.24 109.82 131.52 109.94C131.81 110.06 132.03 110.2 132.18 110.35C133.17 110.35 133.89 110.61 134.33 111.12C134.78 111.63 135 112.37 135 113.34C135 114.14 134.85 115 134.55 115.92C134.25 116.84 133.83 117.72 133.29 118.56C134.15 118.39 134.92 118.05 135.61 117.53C136.3 117.01 136.87 116.46 137.31 115.88C137.5 115.64 137.63 115.49 137.7 115.43C137.77 115.37 137.85 115.35 137.92 115.35C138.03 115.35 138.13 115.39 138.23 115.48C138.32 115.56 138.37 115.67 138.37 115.8C138.37 115.84 138.37 115.88 138.34 115.93C138.32 115.98 138.27 116.07 138.17 116.2L138.2 116.19ZM130.8 119.57C130 119.35 129.39 118.96 128.98 118.41C128.57 117.86 128.31 117.24 128.2 116.55C127.94 117.18 127.73 117.8 127.57 118.39C127.41 118.99 127.33 119.51 127.33 119.95C127.33 120.39 127.41 120.73 127.58 121C127.75 121.27 128.02 121.41 128.39 121.41C128.82 121.41 129.23 121.24 129.63 120.89C130.03 120.55 130.42 120.1 130.79 119.56L130.8 119.57ZM132.34 111.36C132.1 111.36 131.86 111.5 131.63 111.78C131.4 112.06 131.19 112.41 131 112.84C130.81 113.27 130.66 113.75 130.54 114.29C130.42 114.83 130.36 115.35 130.36 115.85C130.36 116.43 130.44 116.95 130.61 117.41C130.78 117.88 131.06 118.21 131.45 118.42C131.69 117.95 131.91 117.47 132.09 116.95C132.28 116.44 132.44 115.93 132.58 115.43C132.72 114.93 132.83 114.44 132.9 113.98C132.97 113.51 133.01 113.1 133.01 112.72C133.01 112.31 132.96 111.98 132.86 111.73C132.76 111.48 132.58 111.35 132.34 111.35V111.36Z" fill="#1D1D1B"/>
<path d="M152.9 116.3C152.66 116.75 152.37 117.25 152.05 117.81C151.72 118.37 151.37 118.91 151 119.44C150.63 119.97 150.23 120.46 149.81 120.89C149.39 121.33 148.97 121.67 148.54 121.91C148.24 122.08 147.92 122.2 147.59 122.29C147.25 122.37 146.93 122.42 146.61 122.42C145.83 122.42 145.12 122.22 144.49 121.82C143.86 121.42 143.47 120.87 143.32 120.16C142.85 120.81 142.32 121.35 141.71 121.78C141.1 122.21 140.38 122.42 139.54 122.42C139.13 122.42 138.73 122.36 138.34 122.24C137.95 122.12 137.6 121.94 137.29 121.7C136.98 121.46 136.74 121.16 136.56 120.81C136.38 120.46 136.3 120.06 136.3 119.61C136.3 119.26 136.37 118.84 136.52 118.35C136.56 118.22 136.65 117.95 136.8 117.54C136.95 117.13 137.13 116.64 137.34 116.07C137.55 115.5 137.79 114.89 138.04 114.23C138.29 113.57 138.54 112.93 138.78 112.32C139 111.71 139.14 111.2 139.2 110.8C139.26 110.4 139.28 110.18 139.28 110.14C139.82 110.14 140.27 110.19 140.64 110.28C141.01 110.37 141.29 110.49 141.49 110.64C141.69 110.79 141.84 110.96 141.92 111.16C142 111.36 142.05 111.56 142.05 111.76C142.05 111.95 142.02 112.14 141.97 112.35C141.92 112.56 141.84 112.8 141.75 113.08C141.6 113.51 141.43 113.96 141.23 114.42C141.03 114.89 140.83 115.34 140.63 115.79C140.26 116.63 139.95 117.39 139.69 118.07C139.44 118.75 139.31 119.39 139.31 119.98C139.31 120.32 139.37 120.64 139.49 120.94C139.61 121.25 139.88 121.4 140.29 121.4C140.61 121.4 140.92 121.29 141.24 121.08C141.56 120.87 141.86 120.59 142.16 120.24C142.46 119.89 142.74 119.49 143.01 119.04C143.28 118.59 143.53 118.12 143.75 117.66C143.86 117.36 143.99 117.01 144.14 116.6C144.29 116.19 144.45 115.75 144.63 115.27C144.81 114.79 144.99 114.3 145.19 113.79C145.39 113.28 145.58 112.79 145.76 112.32C145.98 111.71 146.12 111.2 146.18 110.8C146.24 110.4 146.26 110.18 146.26 110.14C146.8 110.14 147.25 110.19 147.62 110.28C147.99 110.37 148.27 110.49 148.47 110.64C148.67 110.79 148.82 110.96 148.9 111.16C148.98 111.36 149.03 111.56 149.03 111.76C149.03 111.95 149 112.14 148.95 112.35C148.9 112.56 148.82 112.8 148.73 113.08C148.58 113.51 148.41 113.96 148.21 114.42C148.01 114.89 147.81 115.34 147.61 115.79C147.24 116.63 146.93 117.39 146.67 118.07C146.42 118.75 146.29 119.39 146.29 119.98C146.29 120.3 146.35 120.61 146.47 120.93C146.59 121.25 146.84 121.41 147.21 121.41C147.67 121.41 148.16 121.18 148.66 120.72C149.16 120.26 149.65 119.72 150.11 119.1C150.57 118.48 150.99 117.84 151.37 117.2C151.74 116.56 152.02 116.06 152.21 115.7C152.28 115.57 152.39 115.5 152.52 115.5C152.61 115.5 152.71 115.55 152.81 115.65C152.91 115.75 152.96 115.88 152.96 116.03C152.96 116.1 152.93 116.2 152.88 116.31L152.9 116.3Z" fill="#1D1D1B"/>
<path d="M160.11 116.28C159.87 116.78 159.55 117.38 159.15 118.08C158.75 118.78 158.28 119.45 157.75 120.09C157.22 120.73 156.63 121.28 155.98 121.74C155.33 122.2 154.62 122.42 153.86 122.42C153.34 122.42 152.83 122.34 152.34 122.17C151.85 122 151.44 121.72 151.12 121.33C150.8 120.94 150.61 120.43 150.53 119.81C150.46 119.19 150.58 118.42 150.89 117.5C151.1 116.89 151.34 116.17 151.63 115.35C151.92 114.53 152.23 113.66 152.57 112.75C152.9 111.84 153.24 110.91 153.59 109.97C153.93 109.03 154.27 108.14 154.58 107.3C154.9 106.46 155.18 105.71 155.43 105.04C155.68 104.37 155.88 103.84 156.03 103.45C156.24 102.89 156.36 102.43 156.41 102.07C156.46 101.71 156.49 101.5 156.51 101.44C157.59 101.44 158.37 101.61 158.84 101.94C159.31 102.27 159.55 102.66 159.55 103.09C159.55 103.26 159.52 103.44 159.47 103.65C159.41 103.86 159.34 104.09 159.25 104.35C159.16 104.65 158.99 105.1 158.76 105.69C158.53 106.29 158.25 106.97 157.94 107.73C157.49 108.87 157.02 110.09 156.52 111.4C156.02 112.71 155.55 113.97 155.12 115.17C154.69 116.37 154.34 117.45 154.07 118.4C153.8 119.35 153.67 120.03 153.69 120.44C153.71 120.7 153.78 120.92 153.91 121.1C154.04 121.28 154.25 121.37 154.53 121.37C154.86 121.37 155.2 121.24 155.55 120.99C155.9 120.74 156.24 120.43 156.58 120.05C156.92 119.67 157.25 119.26 157.57 118.81C157.89 118.35 158.17 117.93 158.42 117.52C158.67 117.12 158.88 116.77 159.03 116.46C159.19 116.15 159.3 115.96 159.35 115.89C159.5 115.65 159.67 115.53 159.85 115.53C159.96 115.53 160.06 115.55 160.14 115.6C160.22 115.65 160.26 115.73 160.26 115.84C160.26 115.88 160.26 115.92 160.25 115.98C160.25 116.04 160.19 116.14 160.1 116.29L160.11 116.28Z" fill="#1D1D1B"/>
<path d="M161.31 122.4C160.34 122.4 159.57 122.16 158.99 121.67C158.41 121.18 158.12 120.41 158.12 119.35C158.12 119.03 158.16 118.67 158.25 118.26C158.33 117.85 158.45 117.42 158.58 116.96C158.71 116.5 158.88 116.04 159.06 115.56C159.24 115.09 159.42 114.62 159.6 114.18C159.75 113.86 159.88 113.55 160.01 113.24C160.13 112.93 160.24 112.66 160.33 112.42C160.59 111.73 160.74 111.19 160.79 110.8C160.84 110.41 160.86 110.19 160.86 110.13C161.94 110.13 162.68 110.27 163.07 110.55C163.46 110.83 163.66 111.19 163.66 111.64C163.66 112.01 163.56 112.45 163.35 112.95L162.32 115.52C161.99 116.17 161.7 116.93 161.45 117.78C161.21 118.64 161.04 119.43 160.95 120.16C160.84 120.96 161.1 121.36 161.73 121.36C162.18 121.36 162.61 121.22 163.02 120.94C163.43 120.66 163.82 120.32 164.19 119.91C164.56 119.5 164.91 119.04 165.22 118.54C165.53 118.04 165.83 117.57 166.09 117.14C166.35 116.71 166.57 116.34 166.76 116.02C166.95 115.7 167.09 115.52 167.18 115.46C167.39 115.35 167.57 115.38 167.72 115.54C167.88 115.71 167.9 115.89 167.79 116.1C167.44 116.73 167.04 117.42 166.62 118.17C166.19 118.92 165.71 119.6 165.18 120.22C164.65 120.84 164.06 121.36 163.42 121.77C162.78 122.18 162.07 122.38 161.31 122.38V122.4ZM162.43 105.57C162.6 105.57 162.84 105.57 163.16 105.58C163.48 105.58 163.79 105.63 164.11 105.69C164.43 105.76 164.7 105.86 164.93 106C165.16 106.14 165.28 106.34 165.28 106.6C165.28 106.69 165.28 106.76 165.25 106.8C165.23 106.86 165.18 106.96 165.11 107.12C165.03 107.28 164.95 107.46 164.86 107.65C164.77 107.85 164.66 108.05 164.55 108.25C164.44 108.46 164.34 108.63 164.24 108.78C164.2 108.84 164.12 108.96 163.99 109.16C163.86 109.36 163.69 109.45 163.49 109.45C163.04 109.45 162.68 109.43 162.41 109.38C162.14 109.33 161.93 109.27 161.79 109.2C161.65 109.13 161.56 109.04 161.51 108.95C161.46 108.86 161.44 108.76 161.44 108.67C161.44 108.58 161.44 108.51 161.47 108.47C161.47 108.41 161.51 108.24 161.6 107.94C161.69 107.64 161.77 107.32 161.87 106.98C161.96 106.64 162.05 106.32 162.12 106.03C162.19 105.74 162.23 105.59 162.23 105.57H162.43Z" fill="#1D1D1B"/>
<path d="M174.47 111.83C174.25 112.11 173.89 112.58 173.41 113.26C172.92 113.93 172.4 114.68 171.83 115.51C171.26 116.34 170.7 117.19 170.15 118.07C169.6 118.95 169.14 119.73 168.77 120.42C168.36 121.15 168.01 121.66 167.71 121.97C167.41 122.28 167.1 122.43 166.79 122.43C166.34 122.43 165.98 122.37 165.7 122.25C165.42 122.13 165.21 121.97 165.07 121.76C164.93 121.55 164.84 121.33 164.79 121.07C164.74 120.82 164.72 120.57 164.72 120.33C164.72 119.85 164.79 119.38 164.92 118.95C165.05 118.51 165.21 118.08 165.39 117.65C165.52 117.28 165.68 116.84 165.88 116.35C166.08 115.86 166.27 115.34 166.45 114.81C166.64 114.28 166.81 113.75 166.98 113.23C167.15 112.71 167.29 112.24 167.4 111.83C167.47 111.5 167.52 111.21 167.55 110.96C167.58 110.72 167.59 110.44 167.59 110.12C167.91 110.12 168.25 110.13 168.62 110.16C168.99 110.19 169.34 110.26 169.65 110.38C169.97 110.5 170.23 110.69 170.45 110.94C170.66 111.19 170.77 111.53 170.77 111.96C170.77 112.05 170.77 112.13 170.76 112.2C170.76 112.27 170.74 112.34 170.72 112.44V112.47C170.68 112.69 170.56 113.09 170.36 113.67C170.15 114.25 169.92 114.89 169.65 115.58C169.38 116.28 169.1 116.98 168.81 117.68C168.52 118.38 168.27 118.97 168.07 119.45C168.31 119.04 168.62 118.53 168.99 117.91C169.36 117.3 169.77 116.64 170.22 115.95C170.67 115.26 171.14 114.57 171.63 113.87C172.12 113.17 172.6 112.55 173.07 112C173.54 111.45 173.97 111 174.38 110.65C174.79 110.3 175.13 110.12 175.41 110.12C176.19 110.12 176.74 110.26 177.04 110.54C177.34 110.82 177.5 111.18 177.5 111.63C177.5 112.08 177.36 112.72 177.09 113.54C176.82 114.37 176.51 115.24 176.17 116.14C175.83 117.04 175.49 117.91 175.18 118.75C174.86 119.59 174.66 120.25 174.57 120.73C174.49 121.12 174.57 121.32 174.79 121.32C175.11 121.32 175.48 121.15 175.91 120.82C176.34 120.49 176.78 120.05 177.24 119.52C177.7 118.99 178.15 118.4 178.6 117.76C179.05 117.12 179.44 116.49 179.77 115.87C179.83 115.76 179.93 115.7 180.08 115.7C180.21 115.7 180.32 115.76 180.41 115.87C180.5 115.98 180.5 116.14 180.41 116.34L180.35 116.42C180.29 116.53 180.17 116.76 179.97 117.1C179.77 117.45 179.53 117.84 179.23 118.27C178.93 118.71 178.59 119.17 178.21 119.65C177.83 120.13 177.42 120.58 176.98 120.99C176.54 121.4 176.09 121.74 175.61 122C175.13 122.26 174.66 122.39 174.2 122.39C173.49 122.39 172.95 122.28 172.58 122.07C172.21 121.86 171.95 121.59 171.81 121.29C171.67 120.98 171.61 120.66 171.63 120.31C171.65 119.97 171.7 119.65 171.77 119.37C171.88 118.89 172.05 118.29 172.27 117.57C172.49 116.85 172.74 116.13 173 115.39C173.26 114.65 173.52 113.96 173.78 113.29C174.04 112.63 174.26 112.13 174.45 111.79L174.47 111.83Z" fill="#1D1D1B"/>
<path d="M190.12 114.91C189.58 115.86 188.87 116.77 188 117.65C187.12 118.53 186.04 119.26 184.76 119.86C184.72 119.88 184.72 119.94 184.75 120.04C184.78 120.14 184.79 120.24 184.79 120.33C184.79 120.94 184.65 121.51 184.36 122.03C184.07 122.55 183.69 122.99 183.23 123.36C182.77 123.73 182.24 124.01 181.67 124.21C181.09 124.41 180.51 124.52 179.94 124.52C179.27 124.52 178.71 124.31 178.25 123.91C177.79 123.5 177.57 123.03 177.57 122.48C177.57 122.35 177.57 122.25 177.6 122.17C177.66 121.85 177.78 121.6 177.96 121.42C178.15 121.23 178.39 121.08 178.69 120.94C178.99 120.8 179.33 120.69 179.72 120.59C180.11 120.49 180.54 120.36 181.01 120.21C181.27 120.14 181.55 120.06 181.85 119.99C182.15 119.92 182.44 119.82 182.72 119.71C182.74 119.39 182.57 119.02 182.2 118.58C181.84 118.14 181.44 117.65 181 117.11C180.56 116.57 180.16 115.99 179.78 115.38C179.4 114.77 179.22 114.13 179.22 113.48C179.22 112.94 179.38 112.43 179.69 111.94C180.01 111.46 180.37 111.03 180.79 110.67C181.21 110.31 181.63 110 182.05 109.76C182.47 109.52 182.79 109.36 183.01 109.28C183.07 109.26 183.11 109.25 183.15 109.24C183.19 109.23 183.23 109.23 183.29 109.23C183.51 109.23 183.75 109.29 183.99 109.41C184.23 109.53 184.46 109.68 184.67 109.87C184.88 110.06 185.06 110.26 185.2 110.47C185.34 110.68 185.41 110.88 185.41 111.04C185.41 111.19 185.38 111.31 185.33 111.4C184.34 111.66 183.55 112.07 182.95 112.62C182.35 113.17 182.06 113.77 182.06 114.42C182.06 114.79 182.19 115.17 182.44 115.55C182.69 115.93 182.92 116.26 183.12 116.54C183.36 116.86 183.62 117.24 183.9 117.7C184.18 118.16 184.41 118.59 184.6 119C185.49 118.57 186.35 117.99 187.16 117.25C187.97 116.51 188.73 115.62 189.44 114.55C189.55 114.42 189.68 114.34 189.83 114.3C189.92 114.28 190.01 114.3 190.1 114.36C190.18 114.42 190.23 114.51 190.23 114.64C190.23 114.68 190.23 114.72 190.2 114.77C190.18 114.82 190.16 114.86 190.14 114.9L190.12 114.91ZM182.55 120.58C182.2 120.67 181.85 120.77 181.52 120.86C181.18 120.95 180.87 121.05 180.57 121.14C179.97 121.31 179.49 121.48 179.13 121.64C178.77 121.81 178.59 122.05 178.59 122.37C178.59 122.61 178.67 122.82 178.83 122.98C178.99 123.15 179.2 123.23 179.46 123.23C179.68 123.23 179.94 123.16 180.21 123.01C180.49 122.86 180.77 122.66 181.05 122.42C181.33 122.18 181.6 121.9 181.87 121.58C182.14 121.26 182.37 120.93 182.55 120.57V120.58Z" fill="#1D1D1B"/>
<path d="M225.689 121.73V105.061H231.321C232.623 105.061 233.692 105.283 234.528 105.728C235.363 106.168 235.982 106.773 236.383 107.543C236.785 108.314 236.986 109.19 236.986 110.172C236.986 111.154 236.785 112.025 236.383 112.785C235.982 113.545 235.366 114.142 234.536 114.576C233.706 115.004 232.645 115.219 231.353 115.219H226.795V113.395H231.288C232.178 113.395 232.894 113.265 233.437 113.005C233.985 112.744 234.381 112.375 234.625 111.898C234.875 111.415 235 110.84 235 110.172C235 109.505 234.875 108.922 234.625 108.422C234.376 107.923 233.977 107.538 233.429 107.267C232.881 106.99 232.156 106.852 231.256 106.852H227.707V121.73H225.689ZM233.535 114.242L237.637 121.73H235.293L231.256 114.242H233.535ZM240.349 121.73V105.061H250.409V106.852H242.368V112.484H249.888V114.274H242.368V119.939H250.54V121.73H240.349ZM267.266 105.061V121.73H265.312L256.229 108.642H256.066V121.73H254.048V105.061H256.001L265.117 118.181H265.28V105.061H267.266ZM284.523 105.061V121.73H282.569L273.486 108.642H273.323V121.73H271.305V105.061H273.258L282.374 118.181H282.537V105.061H284.523ZM288.562 121.73V105.061H298.622V106.852H290.58V112.484H298.101V114.274H290.58V119.939H298.752V121.73H288.562ZM311.376 109.228C311.278 108.403 310.882 107.763 310.188 107.307C309.493 106.852 308.641 106.624 307.632 106.624C306.894 106.624 306.248 106.743 305.695 106.982C305.147 107.22 304.718 107.549 304.409 107.967C304.105 108.384 303.953 108.859 303.953 109.391C303.953 109.836 304.059 110.218 304.27 110.539C304.488 110.853 304.764 111.116 305.101 111.328C305.437 111.534 305.79 111.705 306.159 111.841C306.528 111.971 306.867 112.077 307.176 112.158L308.869 112.614C309.303 112.728 309.786 112.885 310.318 113.086C310.855 113.287 311.368 113.561 311.856 113.908C312.35 114.25 312.757 114.69 313.077 115.227C313.397 115.764 313.557 116.423 313.557 117.205C313.557 118.105 313.321 118.919 312.849 119.646C312.383 120.373 311.699 120.951 310.798 121.38C309.903 121.809 308.815 122.023 307.534 122.023C306.341 122.023 305.307 121.83 304.433 121.445C303.565 121.06 302.881 120.523 302.382 119.834C301.888 119.144 301.609 118.344 301.544 117.432H303.627C303.682 118.062 303.893 118.583 304.262 118.995C304.637 119.402 305.109 119.706 305.679 119.907C306.254 120.102 306.872 120.2 307.534 120.2C308.305 120.2 308.997 120.075 309.61 119.825C310.223 119.57 310.709 119.218 311.067 118.767C311.425 118.312 311.604 117.78 311.604 117.172C311.604 116.619 311.449 116.168 311.14 115.821C310.831 115.474 310.424 115.191 309.919 114.974C309.414 114.757 308.869 114.567 308.283 114.405L306.232 113.819C304.93 113.444 303.899 112.91 303.139 112.215C302.379 111.521 302 110.612 302 109.489C302 108.555 302.252 107.741 302.757 107.047C303.267 106.347 303.95 105.804 304.808 105.419C305.67 105.028 306.634 104.833 307.697 104.833C308.771 104.833 309.726 105.026 310.562 105.411C311.398 105.791 312.06 106.312 312.548 106.974C313.042 107.636 313.302 108.387 313.329 109.228H311.376Z" fill="#1D1D1B"/>
<path d="M199.686 122.14H196.378V111.42H199.833C200.873 111.42 201.763 111.635 202.502 112.064C203.242 112.489 203.809 113.102 204.204 113.901C204.598 114.697 204.795 115.649 204.795 116.759C204.795 117.876 204.596 118.837 204.198 119.643C203.8 120.446 203.221 121.063 202.46 121.496C201.7 121.925 200.775 122.14 199.686 122.14ZM197.676 120.988H199.603C200.489 120.988 201.223 120.817 201.806 120.475C202.389 120.133 202.823 119.647 203.11 119.015C203.396 118.383 203.539 117.631 203.539 116.759C203.539 115.894 203.397 115.149 203.115 114.524C202.832 113.896 202.41 113.414 201.848 113.079C201.286 112.741 200.587 112.571 199.749 112.571H197.676V120.988ZM206.973 122.14V111.42H213.442V112.571H208.271V116.194H213.107V117.345H208.271V120.988H213.526V122.14H206.973Z" fill="#1D1D1B"/>
<path d="M2337 484.02H-388.5V580.52H2337V484.02Z" fill="#FBF2EB" stroke="#1D1D1B" stroke-miterlimit="10"/>
<path d="M543.5 503.52H191.58L195.58 484.02H539.5L543.5 503.52Z" fill="#FBF2EB" stroke="#1D1D1B" stroke-miterlimit="10"/>
<path d="M549.5 530.52H184.58L189.58 511.02H544.5L549.5 530.52Z" fill="#FBF2EB" stroke="#1D1D1B" stroke-miterlimit="10"/>
<path d="M556.5 557.52H178.58L183.58 538.02H551.5L556.5 557.52Z" fill="#FBF2EB" stroke="#1D1D1B" stroke-miterlimit="10"/>
<path d="M562.5 580.52H171.58L176.58 565.02H557.5L562.5 580.52Z" fill="#FBF2EB" stroke="#1D1D1B" stroke-miterlimit="10"/>
<path d="M28.2 432.78L-1.20001 432.76H-30.37V435.41H-28.6C-28.6 435.41 -31.25 469 -20.65 476.07C-15.35 479.61 -12.7 484.02 -12.7 484.02H-1.28V484.04H10.52C10.52 484.04 13.17 479.62 18.47 476.09C29.08 469.02 26.42 435.43 26.42 435.43H28.19V432.78H28.2Z" fill="#FBF2EB" stroke="#1D1D1B" stroke-miterlimit="10"/>
<path d="M13.88 432.76C13.88 432.76 36.81 374.43 35.04 366.47C35.04 366.47 10.89 398.29 1.31 432.76H13.88Z" fill="#FBF2EB" stroke="#1D1D1B" stroke-miterlimit="10"/>
<path d="M4.10001 432.76C4.10001 432.76 7.63999 374.43 2.32999 361.17C2.32999 361.17 -18 404.48 -10.04 432.76H4.10001Z" fill="#FBF2EB" stroke="#1D1D1B" stroke-miterlimit="10"/>
<path d="M1.31004 432.76C1.31004 432.76 -2.07997 389.45 -10.92 372.66C-10.92 372.66 -17.9199 412.43 -11.7699 432.76H1.31004Z" fill="#FBF2EB" stroke="#1D1D1B" stroke-miterlimit="10"/>
<path d="M9.51001 432.76C9.51001 432.76 28.85 368.24 26.2 358.52C26.2 358.52 2.94 389.45 1.31 432.76H9.51001Z" fill="#FBF2EB" stroke="#1D1D1B" stroke-miterlimit="10"/>
<path d="M14.71 359.4C14.71 359.4 17.1 420.38 12.37 432.76H-1.20001C-1.20001 432.76 3.21999 377.08 14.71 359.4Z" fill="#FBF2EB" stroke="#1D1D1B" stroke-miterlimit="10"/>
<path d="M9.95001 432.76L16.48 422.15C16.48 422.15 20.9 414.2 24.43 420.38L27.97 428.33C27.97 428.33 23.34 422.88 20.9 423.91C18.81 424.79 17.36 429.21 15.65 432.75H9.95999L9.95001 432.76Z" fill="#FBF2EB" stroke="#1D1D1B" stroke-miterlimit="10"/>
</g>
<rect x="-13" y="-75" width="419" height="151" fill="#FFE078"/>
<defs>
<clipPath id="clip0_548_5448">
<rect width="2726.5" height="505.02" fill="white" transform="translate(-389 76)"/>
</clipPath>
</defs>
</svg>
