<?xml version="1.0" encoding="UTF-8"?><svg id="Calque_1" xmlns="http://www.w3.org/2000/svg" viewBox="0 0 520.06 692.73"><defs><style>.cls-1{font-size:22.92px;}.cls-1,.cls-2{font-family:MyriadPro-Bold, 'Myriad Pro';font-weight:700;}.cls-1,.cls-2,.cls-3{isolation:isolate;}.cls-1,.cls-2,.cls-4{fill:#1d1d1b;}.cls-5{stroke-width:1px;}.cls-5,.cls-6,.cls-7,.cls-8,.cls-9{stroke-miterlimit:10;}.cls-5,.cls-6,.cls-7,.cls-10{fill:#f8e8db;}.cls-5,.cls-7,.cls-9{stroke:#000;}.cls-6,.cls-8{stroke:#1d1d1b;}.cls-8,.cls-9{fill:none;}.cls-2{font-size:14.74px;}.cls-10,.cls-4,.cls-11{stroke-width:0px;}.cls-11{fill:#ffe078;}</style></defs><rect class="cls-11" x="0" width="520.06" height="578.48"/><polyline class="cls-10" points="0 571.6 520.06 571.6 520.06 692.23 0 692.23"/><line class="cls-9" x1="520.06" y1="692.23" x2="0" y2="692.23"/><line class="cls-6" x1=".27" y1="596.31" x2="519.81" y2="596.31"/><line class="cls-9" x1="0" y1="637.81" x2="519.8" y2="637.81"/><line class="cls-7" x1="519.52" y1="650.81" x2="0" y2="650.81"/><line class="cls-7" x1=".27" y1="596.31" x2="519.81" y2="596.31"/><rect class="cls-7" x="183.22" y="253.64" width="153" height="318.03"/><rect class="cls-6" x="207.22" y="275.5" width="105" height="96.12"/><line class="cls-8" x1="259.72" y1="275.5" x2="259.72" y2="371.62"/><line class="cls-8" x1="207.18" y1="323.25" x2="312.31" y2="323.25"/><rect class="cls-6" x="207.91" y="386.58" width="105" height="172.04"/><rect class="cls-7" x=".51" y="188.12" width="519.05" height="67"/><path class="cls-4" d="M188.88,226.2c.11-.13.23-.2.36-.2.17,0,.31.08.43.24s.12.34,0,.54c-.09.13-.18.27-.27.41s-.17.29-.27.46c-.37.61-.8,1.29-1.27,2.03s-1.01,1.43-1.59,2.07c-.59.64-1.22,1.18-1.91,1.62s-1.42.66-2.21.66c-.08,0-.28,0-.63-.04s-.71-.13-1.1-.29c-.39-.17-.74-.44-1.05-.81s-.46-.89-.46-1.56c0-.45.13-1.11.41-2,.27-.88.62-1.88,1.05-2.98.43-1.1.9-2.24,1.42-3.42s1.03-2.29,1.52-3.33c.49-1.03.95-1.94,1.37-2.71s.73-1.29.94-1.55c-.33.41-.73.96-1.17,1.65-.45.69-.93,1.46-1.45,2.31-.52.85-1.06,1.75-1.62,2.71s-1.11,1.92-1.66,2.88-1.08,1.89-1.61,2.79-1,1.73-1.44,2.47c-.44.75-.82,1.38-1.13,1.9s-.55.88-.7,1.06c-.21.26-.47.48-.8.66-.33.18-.7.27-1.13.27-.26,0-.54-.04-.83-.13-.29-.08-.54-.22-.75-.4-.21-.19-.38-.44-.49-.77s-.12-.72-.03-1.19c.07-.41.25-1.05.53-1.93.28-.88.62-1.86,1.02-2.96.4-1.1.83-2.24,1.3-3.44s.93-2.31,1.38-3.35c.46-1.04.88-1.95,1.26-2.71.38-.76.68-1.27.91-1.51-.39.43-.89,1.11-1.51,2.04s-1.28,1.98-1.98,3.16c-.71,1.17-1.44,2.41-2.19,3.7s-1.46,2.52-2.11,3.67c-.65,1.16-1.23,2.17-1.73,3.05s-.87,1.49-1.09,1.84c-.19.28-.45.5-.78.67-.34.17-.73.25-1.17.25-.52,0-.94-.12-1.24-.35-.31-.23-.52-.54-.64-.92s-.15-.81-.1-1.3c.06-.48.19-.99.39-1.51l6.12-15.62c-.89,0-1.73.19-2.5.56s-1.46.85-2.05,1.44c-.6.59-1.08,1.26-1.47,2.01s-.62,1.52-.73,2.29c-.1.77-.06,1.51.13,2.22s.56,1.32,1.12,1.84c-.09.24-.3.43-.61.57-.32.14-.63.21-.95.21-.19,0-.35-.03-.5-.08-.15-.07-.34-.18-.57-.31s-.46-.33-.67-.59c-.21-.26-.4-.61-.56-1.06s-.24-1.02-.24-1.7c0-.47.08-1,.25-1.59.17-.6.42-1.22.75-1.86s.76-1.27,1.27-1.89c.51-.61,1.12-1.17,1.82-1.66s1.48-.89,2.35-1.19,1.83-.45,2.89-.45h.59c1.06,0,1.83.12,2.29.35.47.23.77.5.91.8s.18.58.13.84c-.06.26-.09.42-.11.48l-6.18,15.76,1.34-2.46c.47-.84,1-1.8,1.59-2.88.6-1.08,1.23-2.18,1.89-3.31s1.33-2.24,2-3.34,1.3-2.09,1.89-2.98c.59-.88,1.12-1.62,1.61-2.21.48-.59.87-.94,1.15-1.05.04-.02.09-.03.17-.03h.2c.58,0,1.08.11,1.5.32s.63.64.63,1.27c0,.28-.13.84-.39,1.68s-.59,1.82-.99,2.95c-.4,1.13-.85,2.32-1.34,3.59-.49,1.27-.97,2.47-1.43,3.62s-.87,2.16-1.23,3.05-.62,1.5-.77,1.83c.21-.33.51-.85.91-1.55s.86-1.51,1.38-2.43,1.09-1.91,1.7-2.98c.62-1.06,1.24-2.12,1.89-3.17.64-1.05,1.28-2.07,1.9-3.06.62-.99,1.21-1.86,1.76-2.61.55-.75,1.04-1.36,1.48-1.8.44-.45.79-.67,1.05-.67.61,0,1.1.1,1.47.31.36.21.62.47.78.8s.22.69.2,1.1c-.03.41-.13.81-.32,1.2-.07.15-.23.49-.46,1.03-.23.54-.51,1.21-.84,2.01-.33.8-.69,1.68-1.09,2.64s-.8,1.93-1.19,2.92-.76,1.95-1.1,2.88-.63,1.76-.85,2.49-.38,1.31-.46,1.75-.06.66.07.66c.58,0,1.16-.24,1.76-.73.6-.48,1.17-1.06,1.72-1.73s1.04-1.35,1.48-2.04c.44-.69.78-1.24,1.02-1.65.09-.13.16-.24.21-.33s.09-.16.13-.2h-.07Z"/><path class="cls-4" d="M200.93,227.79c-.26.39-.6.79-1.01,1.19-.41.4-.87.77-1.38,1.1-.51.34-1.05.61-1.62.84-.57.22-1.13.36-1.69.42-.65.78-1.37,1.43-2.15,1.93s-1.61.75-2.49.75c-.69,0-1.28-.09-1.76-.27-.48-.18-.88-.43-1.17-.75-.3-.33-.52-.7-.66-1.13-.14-.43-.21-.89-.21-1.4,0-.63.09-1.29.28-1.98s.44-1.37.75-2.04c.32-.67.68-1.31,1.1-1.93.42-.61.86-1.15,1.33-1.62.46-.47.94-.84,1.41-1.12s.93-.42,1.35-.42c.54,0,.96.06,1.24.18.29.12.51.26.66.41.99,0,1.71.26,2.15.77.45.51.67,1.25.67,2.22,0,.8-.15,1.66-.45,2.58s-.72,1.8-1.26,2.64c.86-.17,1.63-.51,2.32-1.03s1.26-1.07,1.7-1.65c.19-.24.32-.39.39-.45.07-.06.15-.08.22-.08.11,0,.21.04.31.13.09.08.14.19.14.32,0,.04,0,.08-.03.13-.02.05-.07.14-.17.27h.03ZM193.52,231.18c-.8-.22-1.41-.61-1.82-1.16s-.67-1.17-.78-1.86c-.26.63-.47,1.25-.63,1.84-.16.6-.24,1.12-.24,1.56s.08.78.25,1.05.44.41.81.41c.43,0,.84-.17,1.24-.52.4-.34.79-.79,1.16-1.33h.01ZM195.06,222.96c-.24,0-.48.14-.71.42-.23.28-.44.63-.63,1.06s-.34.91-.46,1.45c-.12.54-.18,1.06-.18,1.56,0,.58.08,1.1.25,1.56.17.47.45.8.84,1.01.24-.47.46-.95.64-1.47.19-.51.35-1.02.49-1.52s.25-.99.32-1.45c.07-.47.11-.88.11-1.26,0-.41-.05-.74-.15-.99-.1-.25-.28-.38-.52-.38h0Z"/><path class="cls-4" d="M215.62,227.91c-.24.45-.53.95-.85,1.51-.33.56-.68,1.1-1.05,1.63-.37.53-.77,1.02-1.19,1.45-.42.44-.84.78-1.27,1.02-.3.17-.62.29-.95.38-.34.08-.66.13-.98.13-.78,0-1.49-.2-2.12-.6-.63-.4-1.02-.95-1.17-1.66-.47.65-1,1.19-1.61,1.62s-1.33.64-2.17.64c-.41,0-.81-.06-1.2-.18s-.74-.3-1.05-.54c-.31-.24-.55-.54-.73-.89s-.26-.75-.26-1.2c0-.35.07-.77.22-1.26.04-.13.13-.4.28-.81s.33-.9.54-1.47c.21-.57.45-1.18.7-1.84s.5-1.3.74-1.91c.22-.61.36-1.12.42-1.52.06-.4.08-.62.08-.66.54,0,.99.05,1.36.14s.65.21.85.36c.2.15.35.32.43.52.08.2.13.4.13.6s-.03.38-.08.59-.13.45-.22.73c-.15.43-.32.88-.52,1.34-.2.47-.4.92-.6,1.37-.37.84-.68,1.6-.94,2.28-.25.68-.38,1.32-.38,1.91,0,.34.06.66.18.96.12.31.39.46.8.46.32,0,.63-.11.95-.32.32-.21.62-.49.92-.84s.58-.75.85-1.2.52-.92.74-1.38c.11-.3.24-.65.39-1.06s.31-.85.49-1.33c.18-.48.36-.97.56-1.48s.39-1,.57-1.47c.22-.61.36-1.12.42-1.52.06-.4.08-.62.08-.66.54,0,.99.05,1.36.14s.65.21.85.36.35.32.43.52c.08.2.13.4.13.6s-.03.38-.08.59-.13.45-.22.73c-.15.43-.32.88-.52,1.34-.2.47-.4.92-.6,1.37-.37.84-.68,1.6-.94,2.28-.25.68-.38,1.32-.38,1.91,0,.32.06.63.18.95s.37.48.74.48c.46,0,.95-.23,1.45-.69s.99-1,1.45-1.62c.46-.62.88-1.26,1.26-1.9.37-.64.65-1.14.84-1.5.07-.13.18-.2.31-.2.09,0,.19.05.29.15s.15.23.15.38c0,.07-.03.17-.08.28h.02Z"/><path class="cls-4" d="M222.83,227.88c-.24.5-.56,1.1-.96,1.8-.4.7-.87,1.37-1.4,2.01s-1.12,1.19-1.77,1.65c-.65.46-1.36.68-2.12.68-.52,0-1.03-.08-1.52-.25s-.9-.45-1.22-.84-.51-.9-.59-1.52c-.07-.62.05-1.39.36-2.31.21-.61.45-1.33.74-2.15.29-.82.6-1.69.94-2.6.33-.91.67-1.84,1.02-2.78.34-.94.68-1.83.99-2.67.32-.84.6-1.59.85-2.26s.45-1.2.6-1.59c.21-.56.33-1.02.38-1.38s.08-.57.1-.63c1.08,0,1.86.17,2.33.5s.71.72.71,1.15c0,.17-.03.35-.08.56-.06.21-.13.44-.22.7-.09.3-.26.75-.49,1.34-.23.6-.51,1.28-.82,2.04-.45,1.14-.92,2.36-1.42,3.67s-.97,2.57-1.4,3.77-.78,2.28-1.05,3.23-.4,1.63-.38,2.04c.02.26.09.48.22.66.13.18.34.27.62.27.33,0,.67-.13,1.02-.38s.69-.56,1.03-.94.67-.79.99-1.24c.32-.46.6-.88.85-1.29.25-.4.46-.75.61-1.06.16-.31.27-.5.32-.57.15-.24.32-.36.5-.36.11,0,.21.02.29.07s.12.13.12.24c0,.04,0,.08,0,.14,0,.06-.06.16-.15.31h0Z"/><path class="cls-4" d="M224.03,234c-.97,0-1.74-.24-2.32-.73s-.87-1.26-.87-2.32c0-.32.04-.68.13-1.09.08-.41.2-.84.33-1.3s.3-.92.48-1.4c.18-.47.36-.94.54-1.38.15-.32.28-.63.41-.94.12-.31.23-.58.32-.82.26-.69.41-1.23.46-1.62s.07-.61.07-.67c1.08,0,1.82.14,2.21.42s.59.64.59,1.09c0,.37-.1.81-.31,1.31l-1.03,2.57c-.33.65-.62,1.41-.87,2.26-.24.86-.41,1.65-.5,2.38-.11.8.15,1.2.78,1.2.45,0,.88-.14,1.29-.42.41-.28.8-.62,1.17-1.03s.72-.87,1.03-1.37.61-.97.87-1.4.48-.8.67-1.12.33-.5.42-.56c.21-.11.39-.08.54.08.16.17.18.35.07.56-.35.63-.75,1.32-1.17,2.07-.43.75-.91,1.43-1.44,2.05-.53.62-1.12,1.14-1.76,1.55s-1.35.61-2.11.61v.02ZM225.15,217.18c.17,0,.41,0,.73,0,.32,0,.63.05.95.11.32.07.59.17.82.31.23.14.35.34.35.6,0,.09,0,.16-.03.2-.02.06-.07.16-.14.32-.08.16-.16.34-.25.53-.09.2-.2.4-.31.6-.11.21-.21.38-.31.53-.04.06-.12.18-.25.38s-.3.29-.5.29c-.45,0-.81-.02-1.08-.07s-.48-.11-.62-.18c-.14-.07-.23-.16-.28-.25s-.07-.19-.07-.28,0-.16.03-.2c0-.06.04-.23.13-.53s.17-.62.27-.96c.09-.34.18-.66.25-.95s.11-.44.11-.46h.2,0Z"/><path class="cls-4" d="M237.2,223.44c-.22.28-.58.75-1.06,1.43-.49.67-1.01,1.42-1.58,2.25s-1.13,1.68-1.68,2.56c-.55.88-1.01,1.66-1.38,2.35-.41.73-.76,1.24-1.06,1.55s-.61.46-.92.46c-.45,0-.81-.06-1.09-.18s-.49-.28-.63-.49-.23-.43-.28-.69c-.05-.25-.07-.5-.07-.74,0-.48.07-.95.2-1.38.13-.44.29-.87.47-1.3.13-.37.29-.81.49-1.3.2-.49.39-1.01.57-1.54.19-.53.36-1.06.53-1.58s.31-.99.42-1.4c.07-.33.12-.62.15-.87.03-.24.04-.52.04-.84.32,0,.66,0,1.03.04s.72.1,1.03.22c.32.12.58.31.8.56.21.25.32.59.32,1.02,0,.09,0,.17,0,.24,0,.07-.02.14-.04.24v.03c-.04.22-.16.62-.36,1.2-.21.58-.44,1.22-.71,1.91-.27.7-.55,1.4-.84,2.1-.29.7-.54,1.29-.74,1.77.24-.41.55-.92.92-1.54.37-.61.78-1.27,1.23-1.96s.92-1.38,1.41-2.08.97-1.32,1.44-1.87c.47-.55.9-1,1.31-1.35s.75-.53,1.03-.53c.78,0,1.33.14,1.63.42s.46.64.46,1.09-.14,1.09-.41,1.91c-.27.83-.58,1.7-.92,2.6-.34.9-.68,1.77-.99,2.61-.32.84-.52,1.5-.61,1.98-.08.39,0,.59.22.59.32,0,.69-.17,1.12-.5s.87-.77,1.33-1.3.91-1.12,1.36-1.76.84-1.27,1.17-1.89c.06-.11.16-.17.31-.17.13,0,.24.06.33.17s.09.27,0,.47l-.06.08c-.06.11-.18.34-.38.68-.2.35-.44.74-.74,1.17-.3.44-.64.9-1.02,1.38-.38.48-.79.93-1.23,1.34s-.89.75-1.37,1.01-.95.39-1.41.39c-.71,0-1.25-.11-1.62-.32s-.63-.48-.77-.78c-.14-.31-.2-.63-.18-.98.02-.34.07-.66.14-.94.11-.48.28-1.08.5-1.8s.47-1.44.73-2.18c.26-.74.52-1.43.78-2.1.26-.66.48-1.16.67-1.5l.02.04Z"/><path class="cls-4" d="M252.84,226.51c-.54.95-1.25,1.86-2.12,2.74-.88.88-1.96,1.61-3.24,2.21-.04.02-.04.08,0,.18.03.1.04.2.04.29,0,.61-.14,1.18-.43,1.7s-.67.96-1.13,1.33-.99.65-1.56.85c-.58.2-1.16.31-1.73.31-.67,0-1.23-.21-1.69-.61-.46-.41-.68-.88-.68-1.43,0-.13,0-.23.03-.31.06-.32.18-.57.36-.75.19-.19.43-.34.73-.48s.64-.25,1.03-.35.82-.23,1.29-.38c.26-.07.54-.15.84-.22s.59-.17.87-.28c.02-.32-.15-.69-.52-1.13-.36-.44-.76-.93-1.2-1.47-.44-.54-.84-1.12-1.22-1.73s-.56-1.25-.56-1.9c0-.54.16-1.05.47-1.54.32-.48.68-.91,1.1-1.27.42-.36.84-.67,1.26-.91s.74-.4.96-.48c.06-.02.1-.03.14-.04s.08,0,.14,0c.22,0,.46.06.7.18.24.12.47.27.68.46.21.19.39.39.53.6s.21.41.21.57c0,.15-.03.27-.08.36-.99.26-1.78.67-2.38,1.22s-.89,1.15-.89,1.8c0,.37.13.75.38,1.13s.48.71.68.99c.24.32.5.7.78,1.16s.51.89.7,1.3c.89-.43,1.75-1.01,2.56-1.75s1.57-1.63,2.28-2.7c.11-.13.24-.21.39-.25.09-.02.18,0,.27.06.08.06.13.15.13.28,0,.04,0,.08-.03.13-.02.05-.04.09-.06.13h-.02ZM245.27,232.18c-.35.09-.7.19-1.03.28-.34.09-.65.19-.95.28-.6.17-1.08.34-1.44.5-.36.17-.54.41-.54.73,0,.24.08.45.24.61.16.17.37.25.63.25.22,0,.48-.07.75-.22.28-.15.56-.35.84-.59s.55-.52.82-.84c.27-.32.5-.65.68-1.01h0Z"/><g class="cls-3"><text class="cls-1" transform="translate(286.39 234.26)"><tspan x="0" y="0">RENNES</tspan></text></g><g class="cls-3"><text class="cls-2" transform="translate(257.8 234.49)"><tspan x="0" y="0">DE</tspan></text></g><polyline class="cls-7" points="520.06 596.31 258.21 596.3 254.55 614.12 520.05 614.12"/><polyline class="cls-5" points="520.06 622.62 252.3 622.62 247.3 642.12 520.06 642.12"/><polyline class="cls-7" points="520.06 649.62 246.57 649.62 241.56 669.1 520.06 669.11"/><polyline class="cls-9" points="520.06 676.73 239.27 676.73 234.26 692.23 519.81 692.23"/><line class="cls-9" x1="0" y1="571.6" x2="520.06" y2="571.85"/><line class="cls-9" x1="519.31" y1="596.32" x2="0" y2="596.31"/></svg>