<svg width="203" height="203" viewBox="0 0 203 203" fill="none" xmlns="http://www.w3.org/2000/svg">
<circle cx="101.5" cy="101.5" r="101" fill="#FFE078" stroke="black"/>
<g clip-path="url(#clip0_548_5560)">
<path d="M46.4526 100.709C46.4526 100.709 32.9455 97.0658 36.2077 113.521C36.2077 113.521 37.9013 123.017 46.9523 128.625" fill="#FBF3EB"/>
<path d="M46.4526 100.709C46.4526 100.709 32.9455 97.0658 36.2077 113.521C36.2077 113.521 37.9013 123.017 46.9523 128.625" stroke="#1D1D1B" stroke-miterlimit="10"/>
<path d="M148.707 100.709C148.707 100.709 162.214 97.0658 158.952 113.521C158.952 113.521 157.425 122.431 148.387 128.052" fill="#FBF3EB"/>
<path d="M148.707 100.709C148.707 100.709 162.214 97.0658 158.952 113.521C158.952 113.521 157.425 122.431 148.387 128.052" stroke="#1D1D1B" stroke-miterlimit="10"/>
<path d="M97.3159 43.7705C82.6704 43.7705 50.9364 47.6318 47.3826 83.3529C47.3826 83.3529 41.233 142.542 58.1966 165.137C62.2224 170.5 73.9943 180.173 98.0377 180.173C117.361 180.173 128.675 174.961 138.101 165.042C145.639 157.114 152.469 141 147.069 82.3295C147.069 82.3295 147.069 43.7568 97.3159 43.7568V43.7705Z" fill="#FBF3EB" stroke="#1D1D1B" stroke-miterlimit="10"/>
<path d="M46.522 98.5121C46.522 98.5121 61.0008 84.0081 58.4604 58.6432C58.4604 58.6432 107.158 79.7238 136.241 71.5099C136.241 71.5099 142.793 97.2296 148.249 100.45C148.249 100.45 151.525 96.8202 151.164 61.454C151.164 61.454 155.87 48.8329 150.109 38.0265C150.109 38.0265 133.867 9.70078 80.9907 33.6603L77.0066 27.152C77.0066 27.152 52.3663 33.1009 51.7971 53.7858C51.7971 53.7858 32.7789 69.4223 46.522 98.4985V98.5121Z" fill="#1D1D1B"/>
<path d="M76.6873 111.979C78.2054 111.979 79.436 110.769 79.436 109.277C79.436 107.785 78.2054 106.576 76.6873 106.576C75.1693 106.576 73.9387 107.785 73.9387 109.277C73.9387 110.769 75.1693 111.979 76.6873 111.979Z" fill="#1D1D1B"/>
<path d="M81.0324 95.3604L72.3562 96.2904" stroke="#1D1D1B" stroke-miterlimit="10"/>
<path d="M119.555 111.979C121.073 111.979 122.303 110.769 122.303 109.277C122.303 107.785 121.073 106.576 119.555 106.576C118.037 106.576 116.806 107.785 116.806 109.277C116.806 110.769 118.037 111.979 119.555 111.979Z" fill="#1D1D1B"/>
<path d="M115.154 94.8965L123.83 95.8265" stroke="#1D1D1B" stroke-miterlimit="10"/>
<path d="M100.217 116.932L97.2603 138.941L104.34 140.319" stroke="#1D1D1B" stroke-miterlimit="10"/>
<path d="M85.197 154.618C85.197 154.618 100.009 164.906 117.958 154.618" stroke="#1D1D1B" stroke-miterlimit="10"/>
</g>
<defs>
<clipPath id="clip0_548_5560">
<rect width="125.159" height="156.87" fill="white" transform="translate(35 24)"/>
</clipPath>
</defs>
</svg>
