<?xml version="1.0" encoding="UTF-8"?><svg id="Calque_1" xmlns="http://www.w3.org/2000/svg" viewBox="0 0 122.53 289.53"><defs><style>.cls-1,.cls-2{fill:none;}.cls-1,.cls-2,.cls-3,.cls-4,.cls-5,.cls-6,.cls-7,.cls-8{stroke-miterlimit:10;stroke-width:.75px;}.cls-1,.cls-3,.cls-5,.cls-6,.cls-8{stroke:#1d1d1b;}.cls-2,.cls-4,.cls-7{stroke:#000;}.cls-3{fill:#fcf3ec;}.cls-4{fill:#ffe078;}.cls-5{fill:#fff;}.cls-6{fill:#fbf3eb;}.cls-9{fill:#1d1d1b;stroke-width:0px;}.cls-7{fill:#316cad;}.cls-8{fill:#aac280;}</style></defs><path class="cls-3" d="M51.83,43.58s1.23,4.67-.54,7.68l8.53,5.87,8.79-6.4c-2.18-.85-1.05-7.62-1.05-7.62"/><path class="cls-3" d="M44.61,22.1s-3.82-1.05-2.9,3.69c0,0,.48,2.74,3.04,4.35"/><path class="cls-3" d="M73.56,22.1s3.82-1.05,2.9,3.69c0,0-.43,2.57-2.99,4.19"/><path class="cls-3" d="M59.01,5.7c-4.15,0-13.13,1.11-14.14,11.4,0,0-1.74,17.05,3.06,23.56,1.14,1.54,4.47,4.33,11.28,4.33,5.47,0,8.67-1.5,11.34-4.36,2.13-2.28,4.07-6.93,2.54-23.83,0,0,0-11.11-14.09-11.11Z"/><path class="cls-9" d="M44.63,21.46s4.1-4.18,3.38-11.49c0,0,13.79,6.07,22.02,3.7,0,0,1.86,7.41,3.4,8.34,0,0,.93-1.05.83-11.23,0,0,1.33-3.63-.3-6.75,0,0-4.6-8.16-19.57-1.26l-1.13-1.87s-6.98,1.72-7.14,7.68c0,0-5.38,4.51-1.49,12.88Z"/><circle class="cls-9" cx="53.17" cy="24.57" r=".78"/><line class="cls-1" x1="54.4" y1="20.56" x2="51.95" y2="20.82"/><circle class="cls-9" cx="65.31" cy="24.57" r=".78"/><line class="cls-1" x1="64.06" y1="20.42" x2="66.52" y2="20.69"/><polyline class="cls-1" points="59.84 26.77 59 33.11 61 33.51"/><path class="cls-1" d="M55.58,37.63s4.2,2.96,9.28,0"/><polygon class="cls-8" points="48.73 274.02 48.73 289.15 1.38 289.15 27.16 274.02 48.73 274.02"/><polygon class="cls-8" points="73.8 274.02 73.8 289.15 121.16 289.15 95.37 274.02 73.8 274.02"/><polygon class="cls-7" points="33.12 112.96 89.63 112.18 108.66 278.22 70.16 278.22 61.51 141.6 52.36 278.22 16.43 278.22 33.12 112.96"/><path class="cls-6" d="M19.46,278.02s-6.7-5.23-6.99-2.52c-.19,1.77,6.99,2.52,6.99,2.52Z"/><path class="cls-2" d="M14.18,279.63s3.53.18,5.83-1.41"/><path class="cls-6" d="M102.98,278.09s7.38-5.96,6.78-2.81c-.33,1.75-6.78,2.81-6.78,2.81Z"/><path class="cls-2" d="M110.5,280.05s-5.46-.12-7.75-1.72"/><path class="cls-4" d="M67.78,49.56c16.14.93,23.16,5.04,23.16,5.04-.32,13.67-1.31,57.58-1.31,57.58l-56.51.79-1.53-58.61c7.43-3.18,12.81-3.81,20.31-4.54l7.92,4.76,7.96-5.02Z"/><polygon class="cls-3" points="51.9 49.82 59.56 54.37 55.54 57.14 49.47 50.09 51.9 49.82"/><polygon class="cls-3" points="67.78 49.56 60.11 54.37 64.12 57.14 70.48 49.76 67.78 49.56"/><path class="cls-1" d="M47.68,50.26s1.47,8.96,12.42,8.63c5.19-.15,9.63-1.95,13.47-8.83"/><line class="cls-5" x1="59.82" y1="54.58" x2="59.82" y2="58.9"/><path class="cls-4" d="M90.94,54.6s6.34,2.54,8.94,11.1l10.99,30.86-7.14,33.79-16.29-14.1,11.08-22.22-8.13-14.87.56-24.56Z"/><path class="cls-1" d="M81.86,117.69s-1.02,11.41,10.2,15"/><path class="cls-1" d="M41.24,117.69s1.02,11.41-10.2,15"/><path class="cls-3" d="M83.54,125.68s2.78-7.73,6.2-7.42l7.33,6.34s-2.07,7.87-7.83,6.91c0,0-4.3-1.66-5.7-5.84Z"/><path class="cls-4" d="M31.56,54.37s-6.34,2.54-8.94,11.1l-7.71,33.23-6.65,30.27,19.25-2.87,1.92-27.41,2.69-19.76-.56-24.56Z"/><path class="cls-3" d="M14.5,140.81c.81.11,1.07-.82,1.07-.82.05.51.52.58.52.58.37.1.73-.14.73-.14,1.42-.99,3.37-8.07,3.37-8.07,0,0,1.16,3.04,2.14,2.73,1.48-.47,0-8.21,0-8.21l-10.74,1.59s-2.04,7.65-.61,10.97c.13.3.64.99,1.38.22.05-.05.08-.79.07-.26,0,0-.14,1.07.6,1.13.5.04.72-.28.8-.46.05-.12.04-.28.04.05s.13.62.63.69Z"/><path class="cls-5" d="M13.87,139.95s.17-2.64.89-4.16"/><path class="cls-5" d="M12.43,139.4s-.02-2.59.69-4.11"/><path class="cls-5" d="M15.58,139.95s.17-2.64.89-4.16"/></svg>