<?xml version="1.0" encoding="UTF-8"?><svg id="Calque_1" xmlns="http://www.w3.org/2000/svg" viewBox="0 0 90.16 114.97"><defs><style>.cls-1{fill:#fcf3ec;}.cls-1,.cls-2{stroke:#1d1d1b;stroke-miterlimit:10;}.cls-2{fill:none;}.cls-3{fill:#1d1d1b;stroke-width:0px;}</style></defs><path class="cls-1" d="M8.25,56.22s-9.73-2.67-7.38,9.39c0,0,1.22,6.96,7.74,11.07"/><path class="cls-1" d="M81.91,56.22s9.73-2.67,7.38,9.39c0,0-1.1,6.53-7.61,10.65"/><path class="cls-1" d="M44.89,14.49c-10.55,0-33.41,2.83-35.97,29.01,0,0-4.43,43.38,7.79,59.94,2.9,3.93,11.38,11.02,28.7,11.02,13.92,0,22.07-3.82,28.86-11.09,5.43-5.81,10.35-17.62,6.46-60.62,0,0,0-28.27-35.84-28.27Z"/><path class="cls-3" d="M8.3,54.61s10.43-10.63,8.6-29.22c0,0,35.08,15.45,56.03,9.43,0,0,4.72,18.85,8.65,21.21,0,0,2.36-2.66,2.1-28.58,0,0,3.39-9.25-.76-17.17,0,0-11.7-20.76-49.79-3.2l-2.87-4.77S12.51,6.67,12.1,21.83c0,0-13.7,11.46-3.8,32.77Z"/><circle class="cls-3" cx="30.03" cy="62.5" r="1.98"/><line class="cls-2" x1="33.16" y1="52.3" x2="26.91" y2="52.98"/><circle class="cls-3" cx="60.91" cy="62.5" r="1.98"/><line class="cls-2" x1="57.74" y1="51.96" x2="63.99" y2="52.64"/><polyline class="cls-2" points="46.98 68.11 44.85 84.24 49.95 85.25"/><path class="cls-2" d="M36.16,95.73s10.67,7.54,23.6,0"/></svg>