<?xml version="1.0" encoding="UTF-8"?><svg id="Calque_1" xmlns="http://www.w3.org/2000/svg" viewBox="0 0 519.5 691.96"><defs><style>.cls-1{fill:#ffe078;stroke:#000;stroke-width:1.02px;}.cls-1,.cls-2,.cls-3,.cls-4{stroke-miterlimit:10;}.cls-2{stroke-width:.97px;}.cls-2,.cls-3,.cls-4{fill:#f8e8db;stroke:#1d1d1b;}.cls-3{stroke-width:1px;}.cls-5{stroke-width:0px;}</style></defs><polygon class="cls-3" points="518.58 691.46 .58 691.46 .5 594.86 519 594.86 518.58 691.46"/><rect class="cls-4" x=".5" y="637.86" width="518.5" height="13"/><rect class="cls-2" x=".58" y="571.46" width="518" height="23.15"/><rect class="cls-1" x=".9" y=".51" width="518" height="571"/><rect class="cls-3" x="170.8" y="236.42" width="180" height="335.05"/><rect class="cls-3" x="183.8" y="253.41" width="153" height="318.03"/><rect class="cls-3" x="201.47" y="310.27" width="52" height="39.12"/><rect class="cls-3" x="267.47" y="310.27" width="52" height="39.12"/><rect class="cls-3" x="201.47" y="361.27" width="52" height="39.12"/><rect class="cls-3" x="267.47" y="361.27" width="52" height="39.12"/><rect class="cls-3" x="201.47" y="412.27" width="52" height="39.12"/><rect class="cls-3" x="267.47" y="412.27" width="52" height="39.12"/><rect class="cls-3" x="183.8" y="253.43" width="153" height="39.47"/><path class="cls-5" d="M202.4,278.29c-.85,0-1.61-.11-2.28-.33s-1.25-.53-1.75-.94l.45-.99c.35.26.7.48,1.06.65.36.17.74.31,1.15.39.41.09.87.13,1.38.13.89,0,1.55-.17,1.98-.5s.64-.77.64-1.32c0-.47-.15-.83-.45-1.08-.3-.25-.83-.45-1.58-.6l-1.58-.31c-.97-.2-1.69-.53-2.17-.98-.48-.45-.71-1.06-.71-1.83,0-.63.16-1.18.49-1.65.33-.47.78-.83,1.37-1.1.59-.26,1.27-.39,2.05-.39s1.43.11,2.05.34c.62.22,1.15.55,1.59.98l-.43.96c-.47-.42-.96-.72-1.48-.91-.52-.18-1.1-.28-1.75-.28-.82,0-1.47.18-1.94.53-.47.35-.71.84-.71,1.45,0,.49.15.87.45,1.15.3.28.79.48,1.48.62l1.59.32c1.02.21,1.77.52,2.25.94.48.42.72,1.01.72,1.77,0,.58-.16,1.09-.47,1.54-.32.45-.76.8-1.34,1.05s-1.27.38-2.07.38Z"/><path class="cls-5" d="M211.03,278.29c-.67,0-1.25-.16-1.75-.47-.5-.31-.89-.76-1.16-1.34-.28-.58-.41-1.28-.41-2.08s.14-1.52.41-2.1c.27-.58.66-1.02,1.16-1.33.5-.31,1.08-.46,1.75-.46s1.27.17,1.76.52.82.81.98,1.4h-.18l.17-1.79h1.17c-.03.29-.06.58-.08.88-.02.29-.04.58-.04.86v5.79h-1.21v-1.77h.17c-.16.59-.49,1.05-.99,1.39s-1.08.51-1.74.51ZM211.27,277.3c.72,0,1.29-.25,1.71-.74s.63-1.22.63-2.17-.21-1.69-.63-2.18-.99-.74-1.71-.74-1.28.25-1.7.74c-.43.5-.64,1.22-.64,2.18s.21,1.67.64,2.17c.42.5.99.74,1.7.74Z"/><path class="cls-5" d="M217.01,268.91v-1.37h1.5v1.37h-1.5ZM217.16,278.15v-7.53h1.22v7.53h-1.22Z"/><path class="cls-5" d="M220.73,278.15v-5.79c0-.28-.01-.57-.04-.86-.03-.29-.05-.59-.08-.88h1.17l.15,1.65h-.18c.22-.58.57-1.02,1.06-1.33.48-.31,1.05-.46,1.69-.46.89,0,1.56.24,2.02.71.46.47.68,1.22.68,2.24v4.71h-1.22v-4.63c0-.71-.14-1.23-.43-1.55s-.73-.49-1.33-.49c-.7,0-1.25.21-1.67.64-.41.43-.61,1-.61,1.73v4.3h-1.22Z"/><path class="cls-5" d="M232.19,278.29c-.74,0-1.31-.21-1.7-.64-.39-.42-.58-1.07-.58-1.93v-4.16h-1.47v-.95h1.47v-2.05l1.21-.34v2.4h2.16v.95h-2.16v4.02c0,.6.1,1.03.31,1.28s.51.38.92.38c.19,0,.36-.02.51-.05.15-.04.29-.08.4-.13v1.02c-.14.06-.31.11-.5.14s-.39.05-.58.05Z"/><path class="cls-5" d="M234.52,274.54v-1h4.28v1h-4.28Z"/><path class="cls-5" d="M241.18,278.15v-10.58h1.25v4.68h6.38v-4.68h1.23v10.58h-1.23v-4.83h-6.38v4.83h-1.25Z"/><path class="cls-5" d="M255.88,278.29c-1.18,0-2.11-.34-2.79-1.03-.68-.68-1.02-1.64-1.02-2.86,0-.79.15-1.48.45-2.06s.72-1.04,1.26-1.37c.54-.32,1.16-.49,1.86-.49s1.27.15,1.74.43c.47.29.83.7,1.08,1.24.25.54.38,1.17.38,1.9v.45h-5.83v-.77h5.04l-.26.2c0-.8-.18-1.42-.54-1.88-.36-.45-.89-.67-1.6-.67-.75,0-1.33.26-1.75.79s-.63,1.23-.63,2.12v.14c0,.94.23,1.65.7,2.14.46.48,1.12.73,1.96.73.45,0,.87-.07,1.27-.2.4-.13.77-.36,1.13-.67l.42.85c-.33.32-.75.57-1.25.74-.51.17-1.04.26-1.6.26ZM255.2,269.89l1.54-3.03h1.3l-1.98,3.03h-.87Z"/><path class="cls-5" d="M260.69,278.15v-11.04h1.22v11.04h-1.22Z"/><path class="cls-5" d="M264.11,268.91v-1.37h1.5v1.37h-1.5ZM264.26,278.15v-7.53h1.22v7.53h-1.22Z"/><path class="cls-5" d="M271.17,278.29c-1.18,0-2.11-.34-2.79-1.03-.68-.68-1.02-1.64-1.02-2.86,0-.79.15-1.48.45-2.06s.72-1.04,1.26-1.37c.54-.32,1.16-.49,1.86-.49s1.27.15,1.74.43c.47.29.83.7,1.08,1.24.25.54.38,1.17.38,1.9v.45h-5.83v-.77h5.04l-.26.2c0-.8-.18-1.42-.54-1.88-.36-.45-.89-.67-1.6-.67-.75,0-1.33.26-1.75.79s-.63,1.23-.63,2.12v.14c0,.94.23,1.65.7,2.14.46.48,1.12.73,1.96.73.45,0,.87-.07,1.27-.2.4-.13.77-.36,1.13-.67l.42.85c-.33.32-.75.57-1.25.74-.51.17-1.04.26-1.6.26Z"/><path class="cls-5" d="M275.96,278.15v-5.71c0-.3,0-.61-.02-.92-.02-.31-.04-.61-.07-.9h1.17l.15,1.83-.21.02c.1-.45.28-.82.53-1.11s.54-.51.88-.65c.34-.15.7-.22,1.07-.22.15,0,.28,0,.4.01.11.01.22.04.32.08v1.08c-.17-.05-.3-.08-.43-.1-.12-.01-.27-.02-.43-.02-.44,0-.82.11-1.15.32s-.57.48-.73.81-.25.68-.25,1.05v4.44h-1.23Z"/><path class="cls-5" d="M287.57,278.15l-3.23-7.53h1.32l2.7,6.63h-.41l2.73-6.63h1.26l-3.23,7.53h-1.15Z"/><path class="cls-5" d="M293.16,268.91v-1.37h1.5v1.37h-1.5ZM293.31,278.15v-7.53h1.22v7.53h-1.22Z"/><path class="cls-5" d="M296.88,278.15v-11.04h1.22v11.04h-1.22Z"/><path class="cls-5" d="M300.45,278.15v-11.04h1.22v11.04h-1.22Z"/><path class="cls-5" d="M306.89,278.29c-.67,0-1.25-.16-1.75-.47-.5-.31-.89-.76-1.16-1.34-.28-.58-.41-1.28-.41-2.08s.14-1.52.41-2.1c.27-.58.66-1.02,1.16-1.33.5-.31,1.08-.46,1.75-.46s1.27.17,1.76.52.82.81.98,1.4h-.18l.17-1.79h1.17c-.03.29-.06.58-.08.88-.02.29-.04.58-.04.86v5.79h-1.21v-1.77h.17c-.16.59-.49,1.05-.99,1.39s-1.08.51-1.74.51ZM307.13,277.3c.72,0,1.29-.25,1.71-.74s.63-1.22.63-2.17-.21-1.69-.63-2.18-.99-.74-1.71-.74-1.28.25-1.7.74c-.43.5-.64,1.22-.64,2.18s.21,1.67.64,2.17c.42.5.99.74,1.7.74Z"/><path class="cls-5" d="M316.34,281.5c-.65,0-1.25-.08-1.8-.24-.55-.16-1.04-.41-1.49-.74l.36-.92c.31.22.62.39.92.53.3.13.61.23.93.29s.66.1,1.02.1c.74,0,1.3-.2,1.68-.58.38-.39.57-.95.57-1.67v-2.21h.15c-.16.59-.49,1.06-.99,1.4s-1.08.52-1.75.52-1.29-.15-1.79-.46c-.5-.31-.9-.74-1.17-1.31-.28-.56-.41-1.23-.41-2s.14-1.42.41-1.98c.27-.56.67-.99,1.17-1.3.5-.31,1.1-.46,1.79-.46s1.27.17,1.76.51c.5.34.82.81.98,1.41l-.15-.15.13-1.64h1.18c-.04.29-.07.58-.09.88-.02.29-.03.58-.03.86v5.75c0,1.12-.29,1.96-.86,2.54-.58.57-1.42.85-2.53.85ZM316.16,277c.73,0,1.3-.24,1.72-.73.42-.48.63-1.17.63-2.05s-.21-1.56-.63-2.04c-.42-.48-1-.72-1.72-.72s-1.3.24-1.73.72c-.43.48-.64,1.16-.64,2.04s.21,1.56.64,2.05c.43.49,1,.73,1.73.73Z"/><path class="cls-5" d="M325.41,278.29c-1.18,0-2.11-.34-2.79-1.03-.68-.68-1.02-1.64-1.02-2.86,0-.79.15-1.48.45-2.06s.72-1.04,1.26-1.37c.54-.32,1.16-.49,1.86-.49s1.27.15,1.74.43c.47.29.83.7,1.08,1.24.25.54.38,1.17.38,1.9v.45h-5.83v-.77h5.04l-.26.2c0-.8-.18-1.42-.54-1.88-.36-.45-.89-.67-1.6-.67-.75,0-1.33.26-1.75.79s-.63,1.23-.63,2.12v.14c0,.94.23,1.65.7,2.14.46.48,1.12.73,1.96.73.45,0,.87-.07,1.27-.2.4-.13.77-.36,1.13-.67l.42.85c-.33.32-.75.57-1.25.74-.51.17-1.04.26-1.6.26Z"/></svg>