<svg width="390" height="689" viewBox="0 0 390 689" fill="none" xmlns="http://www.w3.org/2000/svg">
<g clip-path="url(#clip0_666_451)">
<path d="M395 183H-7V591H395V183Z" fill="#FFE178" stroke="black" stroke-width="0.75" stroke-miterlimit="10"/>
<path d="M290 232H110V567.05H290V232Z" fill="#F8E8DB" stroke="#1D1D1B" stroke-miterlimit="10"/>
<path d="M276 248.99H123V567.02H276V248.99Z" fill="#F8E8DB" stroke="#1D1D1B" stroke-miterlimit="10"/>
<path d="M389 567H-7V592H389V567Z" fill="#F8E8DB" stroke="#1D1D1B" stroke-miterlimit="10"/>
<path d="M192.67 305.84H140.67V344.96H192.67V305.84Z" fill="#F8E8DB" stroke="#1D1D1B" stroke-miterlimit="10"/>
<path d="M258.67 305.84H206.67V344.96H258.67V305.84Z" fill="#F8E8DB" stroke="#1D1D1B" stroke-miterlimit="10"/>
<path d="M192.67 356.84H140.67V395.96H192.67V356.84Z" fill="#F8E8DB" stroke="#1D1D1B" stroke-miterlimit="10"/>
<path d="M258.67 356.84H206.67V395.96H258.67V356.84Z" fill="#F8E8DB" stroke="#1D1D1B" stroke-miterlimit="10"/>
<path d="M192.67 407.84H140.67V446.96H192.67V407.84Z" fill="#F8E8DB" stroke="#1D1D1B" stroke-miterlimit="10"/>
<path d="M258.67 407.84H206.67V446.96H258.67V407.84Z" fill="#F8E8DB" stroke="#1D1D1B" stroke-miterlimit="10"/>
<path d="M276 249H123V288.47H276V249Z" fill="#F8E8DB" stroke="#1D1D1B" stroke-miterlimit="10"/>
<path d="M141.6 273.86C140.75 273.86 139.99 273.75 139.32 273.53C138.65 273.31 138.07 273 137.57 272.59L138.02 271.6C138.37 271.86 138.72 272.08 139.08 272.25C139.44 272.42 139.82 272.56 140.23 272.64C140.64 272.73 141.1 272.77 141.61 272.77C142.5 272.77 143.16 272.6 143.59 272.27C144.02 271.94 144.23 271.5 144.23 270.95C144.23 270.48 144.08 270.12 143.78 269.87C143.48 269.62 142.95 269.42 142.2 269.27L140.62 268.96C139.65 268.76 138.93 268.43 138.45 267.98C137.97 267.53 137.74 266.92 137.74 266.15C137.74 265.52 137.9 264.97 138.23 264.5C138.56 264.03 139.01 263.67 139.6 263.4C140.19 263.14 140.87 263.01 141.65 263.01C142.43 263.01 143.08 263.12 143.7 263.35C144.32 263.57 144.85 263.9 145.29 264.33L144.86 265.29C144.39 264.87 143.9 264.57 143.38 264.38C142.86 264.2 142.28 264.1 141.63 264.1C140.81 264.1 140.16 264.28 139.69 264.63C139.22 264.98 138.98 265.47 138.98 266.08C138.98 266.57 139.13 266.95 139.43 267.23C139.73 267.51 140.22 267.71 140.91 267.85L142.5 268.17C143.52 268.38 144.27 268.69 144.75 269.11C145.23 269.53 145.47 270.12 145.47 270.88C145.47 271.46 145.31 271.97 145 272.42C144.68 272.87 144.24 273.22 143.66 273.47C143.08 273.72 142.39 273.85 141.59 273.85L141.6 273.86Z" fill="black"/>
<path d="M150.23 273.86C149.56 273.86 148.98 273.7 148.48 273.39C147.98 273.08 147.59 272.63 147.32 272.05C147.04 271.47 146.91 270.77 146.91 269.97C146.91 269.17 147.05 268.45 147.32 267.87C147.59 267.29 147.98 266.85 148.48 266.54C148.98 266.23 149.56 266.08 150.23 266.08C150.9 266.08 151.5 266.25 151.99 266.6C152.48 266.95 152.81 267.41 152.97 268H152.79L152.96 266.21H154.13C154.1 266.5 154.07 266.79 154.05 267.09C154.03 267.38 154.01 267.67 154.01 267.95V273.74H152.8V271.97H152.97C152.81 272.56 152.48 273.02 151.98 273.36C151.48 273.7 150.9 273.87 150.24 273.87L150.23 273.86ZM150.47 272.87C151.19 272.87 151.76 272.62 152.18 272.13C152.6 271.64 152.81 270.91 152.81 269.96C152.81 269.01 152.6 268.27 152.18 267.78C151.76 267.29 151.19 267.04 150.47 267.04C149.75 267.04 149.19 267.29 148.77 267.78C148.34 268.28 148.13 269 148.13 269.96C148.13 270.92 148.34 271.63 148.77 272.13C149.19 272.63 149.76 272.87 150.47 272.87Z" fill="black"/>
<path d="M156.21 264.49V263.12H157.71V264.49H156.21ZM156.36 273.73V266.2H157.58V273.73H156.36Z" fill="black"/>
<path d="M159.93 273.73V267.94C159.93 267.66 159.92 267.37 159.89 267.08C159.86 266.79 159.84 266.49 159.81 266.2H160.98L161.13 267.85H160.95C161.17 267.27 161.52 266.83 162.01 266.52C162.49 266.21 163.06 266.06 163.7 266.06C164.59 266.06 165.26 266.3 165.72 266.77C166.18 267.24 166.4 267.99 166.4 269.01V273.72H165.18V269.09C165.18 268.38 165.04 267.86 164.75 267.54C164.46 267.22 164.02 267.05 163.42 267.05C162.72 267.05 162.17 267.26 161.75 267.69C161.34 268.12 161.14 268.69 161.14 269.42V273.72H159.92L159.93 273.73Z" fill="black"/>
<path d="M171.39 273.86C170.65 273.86 170.08 273.65 169.69 273.22C169.3 272.8 169.11 272.15 169.11 271.29V267.13H167.64V266.18H169.11V264.13L170.32 263.79V266.19H172.48V267.14H170.32V271.16C170.32 271.76 170.42 272.19 170.63 272.44C170.84 272.69 171.14 272.82 171.55 272.82C171.74 272.82 171.91 272.8 172.06 272.77C172.21 272.73 172.35 272.69 172.46 272.64V273.66C172.32 273.72 172.15 273.77 171.96 273.8C171.77 273.83 171.57 273.85 171.38 273.85L171.39 273.86Z" fill="black"/>
<path d="M173.72 270.11V269.11H178V270.11H173.72Z" fill="black"/>
<path d="M180.38 273.73V263.15H181.63V267.83H188.01V263.15H189.24V273.73H188.01V268.9H181.63V273.73H180.38Z" fill="black"/>
<path d="M195.08 273.86C193.9 273.86 192.97 273.52 192.29 272.83C191.61 272.15 191.27 271.19 191.27 269.97C191.27 269.18 191.42 268.49 191.72 267.91C192.02 267.33 192.44 266.87 192.98 266.54C193.52 266.22 194.14 266.05 194.84 266.05C195.54 266.05 196.11 266.2 196.58 266.48C197.05 266.77 197.41 267.18 197.66 267.72C197.91 268.26 198.04 268.89 198.04 269.62V270.07H192.21V269.3H197.25L196.99 269.5C196.99 268.7 196.81 268.08 196.45 267.62C196.09 267.17 195.56 266.95 194.85 266.95C194.1 266.95 193.52 267.21 193.1 267.74C192.68 268.27 192.47 268.97 192.47 269.86V270C192.47 270.94 192.7 271.65 193.17 272.14C193.63 272.62 194.29 272.87 195.13 272.87C195.58 272.87 196 272.8 196.4 272.67C196.8 272.54 197.17 272.31 197.53 272L197.95 272.85C197.62 273.17 197.2 273.42 196.7 273.59C196.19 273.76 195.66 273.85 195.1 273.85L195.08 273.86ZM194.4 265.47L195.94 262.44H197.24L195.26 265.47H194.39H194.4Z" fill="black"/>
<path d="M199.89 273.73V262.69H201.11V273.73H199.89Z" fill="black"/>
<path d="M203.31 264.49V263.12H204.81V264.49H203.31ZM203.46 273.73V266.2H204.68V273.73H203.46Z" fill="black"/>
<path d="M210.38 273.86C209.2 273.86 208.27 273.52 207.59 272.83C206.91 272.15 206.57 271.19 206.57 269.97C206.57 269.18 206.72 268.49 207.02 267.91C207.32 267.33 207.74 266.87 208.28 266.54C208.82 266.22 209.44 266.05 210.14 266.05C210.84 266.05 211.41 266.2 211.88 266.48C212.35 266.77 212.71 267.18 212.96 267.72C213.21 268.26 213.34 268.89 213.34 269.62V270.07H207.51V269.3H212.55L212.29 269.5C212.29 268.7 212.11 268.08 211.75 267.62C211.39 267.17 210.86 266.95 210.15 266.95C209.4 266.95 208.82 267.21 208.4 267.74C207.98 268.27 207.77 268.97 207.77 269.86V270C207.77 270.94 208 271.65 208.47 272.14C208.93 272.62 209.59 272.87 210.43 272.87C210.88 272.87 211.3 272.8 211.7 272.67C212.1 272.54 212.47 272.31 212.83 272L213.25 272.85C212.92 273.17 212.5 273.42 212 273.59C211.49 273.76 210.96 273.85 210.4 273.85L210.38 273.86Z" fill="black"/>
<path d="M215.16 273.73V268.02C215.16 267.72 215.16 267.41 215.14 267.1C215.12 266.79 215.1 266.49 215.07 266.2H216.24L216.39 268.03L216.18 268.05C216.28 267.6 216.46 267.23 216.71 266.94C216.96 266.65 217.25 266.43 217.59 266.29C217.93 266.14 218.29 266.07 218.66 266.07C218.81 266.07 218.94 266.07 219.06 266.08C219.17 266.09 219.28 266.12 219.38 266.16V267.24C219.21 267.19 219.08 267.16 218.95 267.14C218.83 267.13 218.68 267.12 218.52 267.12C218.08 267.12 217.7 267.23 217.37 267.44C217.04 267.65 216.8 267.92 216.64 268.25C216.48 268.58 216.39 268.93 216.39 269.3V273.74H215.16V273.73Z" fill="black"/>
<path d="M226.77 273.73L223.54 266.2H224.86L227.56 272.83H227.15L229.88 266.2H231.14L227.91 273.73H226.76H226.77Z" fill="black"/>
<path d="M232.36 264.49V263.12H233.86V264.49H232.36ZM232.51 273.73V266.2H233.73V273.73H232.51Z" fill="black"/>
<path d="M236.08 273.73V262.69H237.3V273.73H236.08Z" fill="black"/>
<path d="M239.65 273.73V262.69H240.87V273.73H239.65Z" fill="black"/>
<path d="M246.09 273.86C245.42 273.86 244.84 273.7 244.34 273.39C243.84 273.08 243.45 272.63 243.18 272.05C242.9 271.47 242.77 270.77 242.77 269.97C242.77 269.17 242.91 268.45 243.18 267.87C243.45 267.29 243.84 266.85 244.34 266.54C244.84 266.23 245.42 266.08 246.09 266.08C246.76 266.08 247.36 266.25 247.85 266.6C248.34 266.95 248.67 267.41 248.83 268H248.65L248.82 266.21H249.99C249.96 266.5 249.93 266.79 249.91 267.09C249.89 267.38 249.87 267.67 249.87 267.95V273.74H248.66V271.97H248.83C248.67 272.56 248.34 273.02 247.84 273.36C247.34 273.7 246.76 273.87 246.1 273.87L246.09 273.86ZM246.33 272.87C247.05 272.87 247.62 272.62 248.04 272.13C248.46 271.64 248.67 270.91 248.67 269.96C248.67 269.01 248.46 268.27 248.04 267.78C247.62 267.29 247.05 267.04 246.33 267.04C245.61 267.04 245.05 267.29 244.63 267.78C244.2 268.28 243.99 269 243.99 269.96C243.99 270.92 244.2 271.63 244.63 272.13C245.05 272.63 245.62 272.87 246.33 272.87Z" fill="black"/>
<path d="M255.54 277.07C254.89 277.07 254.29 276.99 253.74 276.83C253.19 276.67 252.7 276.42 252.25 276.09L252.61 275.17C252.92 275.39 253.23 275.56 253.53 275.7C253.83 275.83 254.14 275.93 254.46 275.99C254.78 276.05 255.12 276.09 255.48 276.09C256.22 276.09 256.78 275.89 257.16 275.51C257.54 275.12 257.73 274.56 257.73 273.84V271.63H257.88C257.72 272.22 257.39 272.69 256.89 273.03C256.39 273.37 255.81 273.55 255.14 273.55C254.47 273.55 253.85 273.4 253.35 273.09C252.85 272.78 252.45 272.35 252.18 271.78C251.9 271.22 251.77 270.55 251.77 269.78C251.77 269.01 251.91 268.36 252.18 267.8C252.45 267.24 252.85 266.81 253.35 266.5C253.85 266.19 254.45 266.04 255.14 266.04C255.83 266.04 256.41 266.21 256.9 266.55C257.4 266.89 257.72 267.36 257.88 267.96L257.73 267.81L257.86 266.17H259.04C259 266.46 258.97 266.75 258.95 267.05C258.93 267.34 258.92 267.63 258.92 267.91V273.66C258.92 274.78 258.63 275.62 258.06 276.2C257.48 276.77 256.64 277.05 255.53 277.05L255.54 277.07ZM255.36 272.57C256.09 272.57 256.66 272.33 257.08 271.84C257.5 271.36 257.71 270.67 257.71 269.79C257.71 268.91 257.5 268.23 257.08 267.75C256.66 267.27 256.08 267.03 255.36 267.03C254.64 267.03 254.06 267.27 253.63 267.75C253.2 268.23 252.99 268.91 252.99 269.79C252.99 270.67 253.2 271.35 253.63 271.84C254.06 272.33 254.63 272.57 255.36 272.57Z" fill="black"/>
<path d="M264.61 273.86C263.43 273.86 262.5 273.52 261.82 272.83C261.14 272.15 260.8 271.19 260.8 269.97C260.8 269.18 260.95 268.49 261.25 267.91C261.55 267.33 261.97 266.87 262.51 266.54C263.05 266.22 263.67 266.05 264.37 266.05C265.07 266.05 265.64 266.2 266.11 266.48C266.58 266.77 266.94 267.18 267.19 267.72C267.44 268.26 267.57 268.89 267.57 269.62V270.07H261.74V269.3H266.78L266.52 269.5C266.52 268.7 266.34 268.08 265.98 267.62C265.62 267.17 265.09 266.95 264.38 266.95C263.63 266.95 263.05 267.21 262.63 267.74C262.21 268.27 262 268.97 262 269.86V270C262 270.94 262.23 271.65 262.7 272.14C263.16 272.62 263.82 272.87 264.66 272.87C265.11 272.87 265.53 272.8 265.93 272.67C266.33 272.54 266.7 272.31 267.06 272L267.48 272.85C267.15 273.17 266.73 273.42 266.23 273.59C265.72 273.76 265.19 273.85 264.63 273.85L264.61 273.86Z" fill="black"/>
<path d="M779 590.04H-1946.5V687.54H779V590.04Z" fill="#F8E8DB" stroke="#1D1D1B" stroke-width="1.01" stroke-miterlimit="10"/>
<path d="M778.06 566.56H389.06V591.26H778.06V566.56Z" fill="#FBF2EB" stroke="#1D1D1B" stroke-miterlimit="10"/>
<path d="M393.74 499.03C393.74 499.03 396.67 493.9 403.99 495.37C405.6 495.69 407.65 498.3 405.45 500.5C405.45 500.5 411.31 499.77 415.7 500.5C418.12 500.9 423.76 503.43 420.09 509.29C420.09 509.29 428.68 507.56 431.81 514.42C433.17 517.4 432.54 523.21 425.95 526.14C425.95 526.14 431.08 530.53 419.36 532C419.36 532 399.59 537.86 387.14 532.73C387.14 532.73 377.24 505.28 384.94 497.58C390.8 491.72 393.73 499.04 393.73 499.04L393.74 499.03Z" fill="#F8E8DB" stroke="#1D1D1B" stroke-miterlimit="10"/>
<path d="M366.64 532.72C366.64 532.72 346.87 533.45 345.4 527.59C345.4 527.59 343.2 521.73 352.72 521C352.72 521 349.35 510.09 355.65 506.35C357.44 505.29 360.78 504.15 364.44 506.98C364.44 506.98 361.51 491.7 370.3 491.7C370.3 491.7 374.69 490.97 376.16 496.83C376.16 496.83 378.36 492.44 383.48 493.17C383.48 493.17 390.07 494.63 388.61 502.69C388.61 502.69 390.81 501.23 394.47 501.96C394.47 501.96 403.26 504.16 398.86 511.48C398.86 511.48 416.44 510.75 406.92 523.2C406.92 523.2 412.78 526.86 405.46 532.72C405.46 532.72 394.47 535.1 383.12 535.01L366.64 532.72Z" fill="#F8E8DB" stroke="#1D1D1B" stroke-miterlimit="10"/>
<path d="M356.39 547.36L368.84 592.04H405.38L416.53 547.36H418.67L423.04 531.25H350.3L354.93 547.36H356.39Z" fill="#F8E8DB" stroke="#1D1D1B" stroke-miterlimit="10"/>
<path d="M416.53 547.36H356.76" stroke="#1D1D1B" stroke-miterlimit="10"/>
<path d="M779 633.04H-1947.5V646.04H779V633.04Z" fill="#F8E8DB" stroke="#1D1D1B" stroke-miterlimit="10"/>
</g>
<rect x="-7" y="-2" width="400" height="205" fill="#FFE178"/>
<defs>
<clipPath id="clip0_666_451">
<rect width="2727.5" height="505.04" fill="white" transform="translate(-1948 183)"/>
</clipPath>
</defs>
</svg>
