<?xml version="1.0" encoding="UTF-8"?><svg id="Calque_1" xmlns="http://www.w3.org/2000/svg" viewBox="0 0 391.13 505.04"><defs><style>.cls-1{stroke-width:1px;}.cls-1,.cls-2{fill:#fbf2ea;}.cls-1,.cls-2,.cls-3{stroke:#1e1e1c;}.cls-1,.cls-2,.cls-3,.cls-4{stroke-miterlimit:10;}.cls-5{fill:#010101;font-family:MulishRoman-Regular, Mulish;font-size:15px;font-variation-settings:'wght' 400;}.cls-3{fill:#faf2e9;}.cls-6{letter-spacing:0em;}.cls-4{fill:#ffe078;stroke:#010101;stroke-width:.75px;}</style></defs><rect class="cls-4" x=".38" y=".38" width="389.5" height="407.66"/><rect class="cls-3" x="106.73" y="49.07" width="180" height="335.05"/><rect class="cls-3" x="119.73" y="66.06" width="153" height="318.03"/><rect class="cls-1" x=".73" y="383.84" width="389" height="24.7"/><rect class="cls-2" x="137.4" y="122.91" width="52" height="39.12"/><rect class="cls-2" x="203.4" y="122.91" width="52" height="39.12"/><rect class="cls-2" x="137.4" y="173.91" width="52" height="39.12"/><rect class="cls-2" x="203.4" y="173.91" width="52" height="39.12"/><rect class="cls-2" x="137.4" y="224.91" width="52" height="39.12"/><rect class="cls-2" x="203.4" y="224.91" width="52" height="39.12"/><rect class="cls-2" x="119.73" y="66.07" width="153" height="39.47"/><text class="cls-5" transform="translate(133.56 90.8)"><tspan x="0" y="0">Sain</tspan><tspan class="cls-6" x="30.7" y="0">t</tspan><tspan x="35.8" y="0">-Hélier village</tspan></text><rect class="cls-1" x=".88" y="408.04" width="389.75" height="96.5"/><rect class="cls-1" x=".73" y="441.04" width="389.89" height="13"/><path class="cls-1" d="M389.69,318.69s.33-.22.94-.44v-6.93c-.28-.02-.57-.03-.87.02-.41.06-.85.2-1.32.43,1.1,1.44,1.86,3.62,1.26,6.92Z"/><path class="cls-1" d="M389.69,318.69c.6-3.3-.16-5.48-1.26-6.92-1.58-2.07-3.87-2.6-3.87-2.6-3.57-.51-5.72,1.46-6.69,2.71-.43.54-.63.95-.63.95-1.46-5.86-5.86-5.13-5.86-5.13-8.79,0-5.86,15.28-5.86,15.28-3.66-2.83-7-1.69-8.79-.63-6.3,3.74-2.93,14.65-2.93,14.65-9.52.73-7.32,6.59-7.32,6.59.43,1.74,2.49,2.89,5.15,3.66h39v-29c-.61.22-.94.44-.94.44Z"/><polygon class="cls-1" points="389.58 347.25 387.73 347.25 351.63 347.25 351.37 347.25 356 363.37 357.47 363.37 369.92 408.04 390.47 408.04 390.63 408.04 390.63 363.37 390.63 350.82 390.63 349.55 390.63 347.25 389.58 347.25"/><line class="cls-1" x1="357.47" y1="363.37" x2="390.63" y2="363.37"/></svg>