<?xml version="1.0" encoding="UTF-8"?><svg id="Calque_1" xmlns="http://www.w3.org/2000/svg" xmlns:xlink="http://www.w3.org/1999/xlink" viewBox="0 0 92.1 116.76"><defs><style>.cls-1{clip-path:url(#clippath);}.cls-2,.cls-3,.cls-4,.cls-5{fill:none;}.cls-2,.cls-6,.cls-7{stroke-width:0px;}.cls-3,.cls-4,.cls-5,.cls-8{stroke-miterlimit:10;}.cls-3,.cls-5,.cls-8{stroke:#1d1d1b;}.cls-4{stroke:#fcf3ec;}.cls-5{stroke-width:.69px;}.cls-6{fill:#1d1d1b;}.cls-7,.cls-8{fill:#fcf3ec;}.cls-8{stroke-width:.65px;}</style><clipPath id="clippath"><rect class="cls-2" x=".04" y="0" width="92.04" height="116.76"/></clipPath></defs><g class="cls-1"><path class="cls-7" d="M8.01,58.55s-10.42-1.76-6.71,10.56c0,0,2,7.12,9.22,10.72"/><path class="cls-3" d="M8.01,58.55s-10.42-1.76-6.71,10.56c0,0,2,7.12,9.22,10.72"/><path class="cls-7" d="M83.86,58.54s10.32-2.18,7.13,10.28c0,0-1.71,7.2-8.77,11.1"/><path class="cls-3" d="M83.86,58.54s10.32-2.18,7.13,10.28c0,0-1.71,7.2-8.77,11.1"/><path class="cls-8" d="M45.68,10.52c-11.04,0-34.98,2.96-37.66,30.37,0,0-3.07,40.49,7.39,57.78,5.66,9.36,15.16,17.6,30.11,17.6,13.97,0,25.89-7.21,31.46-16.46,3.27-5.44,8.45-19.1,6.22-59.71,0,0,0-29.6-37.52-29.6v.02Z"/><path class="cls-6" d="M29.36,62.14c1.14,0,2.07-.93,2.07-2.07s-.93-2.07-2.07-2.07-2.07.93-2.07,2.07.93,2.07,2.07,2.07Z"/><path class="cls-3" d="M33.83,49.38l-6.54.71"/><path class="cls-6" d="M61.69,62.14c1.14,0,2.07-.93,2.07-2.07s-.93-2.07-2.07-2.07-2.07.93-2.07,2.07.93,2.07,2.07,2.07Z"/><path class="cls-3" d="M57.21,49.38l6.55.71"/><path class="cls-3" d="M45.37,66.48l-2.23,16.89,5.33,1.06"/><path class="cls-5" d="M33.17,94.54s11.18,7.89,24.71,0"/><path class="cls-6" d="M78.66,44.22c2.64,9.98.64,27.73-2.39,36.47-1.54,4.44-5.16,9.96-9.79,9.22-6.37-1.01-8.98-2.13-21.6-2.13-5.29,0-12.44.64-20.42,1.69-4.56.6-8.89-4.26-9.78-8.78-3.68-18.66-3.75-28.25-1.89-36.38,2.11-9.19-3.04-11.96-3.04-11.96-1.05,3.54-1.59,10.9-2.01,14.3,0,0-3,41.83,11.29,57.14,3.57,3.82,9.78,11.27,24.72,12.45,8.23.66,16.75-.83,26.31-8.52,7.73-6.21,15.51-14.65,13.16-67.61,0,0-.48-3.76-1.42-7.77,0,0-5.22,3.92-3.12,11.87h-.02Z"/><path class="cls-4" d="M33.45,101.71s12.35,8.51,24.71,0"/><path class="cls-6" d="M13.27,39.36s-10.48,1.51-10.46-11.31c0,0-1.03-5.2,5.64-9.1,0,0,5.56-4.14,9.89-7.52.01-.01,10.77-11.73,27.03-11.43,0,0,5.16.16,12.81,4.54,0,0,6.25,3.13,15.63,6.41,0,0,10.92,4.4,13.09,13.79,0,0,1.21,7.6-4.7,13.04l-3.99,1.55s-11.98-5.76-31.46-5.86c-15.79-.07-19.48,2.71-33.5,5.87h.01Z"/></g></svg>