<?xml version="1.0" encoding="utf-8"?>
<!-- Generator: Adobe Illustrator 28.1.0, SVG Export Plug-In . SVG Version: 6.00 Build 0)  -->
<svg version="1.1" id="Calque_1" xmlns="http://www.w3.org/2000/svg" xmlns:xlink="http://www.w3.org/1999/xlink" x="0px" y="0px"
	 viewBox="0 0 145 290.4" style="enable-background:new 0 0 145 290.4;" xml:space="preserve">
<style type="text/css">
	.st0{fill:#F8E8DB;stroke:#000000;stroke-linecap:square;stroke-linejoin:round;}
	.st1{fill:#FFE078;stroke:#000000;stroke-miterlimit:10;}
	.st2{fill:#A9C180;stroke:#1D1D1B;stroke-miterlimit:10;}
	.st3{fill:#4669AA;stroke:#000000;stroke-miterlimit:10;}
	.st4{fill:#FAF2EA;stroke:#000000;stroke-miterlimit:10;}
	.st5{fill:none;stroke:#000000;stroke-miterlimit:10;}
	.st6{fill:none;stroke:#1D1D1B;stroke-miterlimit:10;}
	.st7{fill:none;}
	.st8{fill:#F8E8DB;}
	.st9{fill:none;stroke:#1D1E1C;stroke-miterlimit:10;}
	.st10{fill:#FBF2EB;}
	.st11{fill:#F8E8DB;stroke:#1D1E1C;stroke-miterlimit:10;}
	.st12{fill:#F8E8DB;stroke:#1D1E1C;stroke-width:0.27;stroke-miterlimit:10;}
	.st13{fill:#1D1E1C;}
	.st14{fill:none;stroke:#1D1E1C;stroke-width:0.28;stroke-miterlimit:10;}
	.st15{fill:none;stroke:#F8E8DB;stroke-miterlimit:10;}
</style>
<path class="st0" d="M115.4,104.5l-5,3.8l3.4,3.4c0,0,1.7,1.7,1.3,2.8c-0.1,0.3-1,1.3-2.8,0.1l-9.2-7.2l6.3-6.5L115.4,104.5
	L115.4,104.5L115.4,104.5z"/>
<path class="st1" d="M46.2,72L34.3,83.2l14.4,15.5l-14.9,9.2l-15.2-26c0,0,3.9-8.6,12.7-16.3c8.4-7.3,13.8-10,13.8-10"/>
<path class="st0" d="M37.7,105.7l4.7,3.6l-4.1,2.9c0,0-1.6,1.2-1.3,2.3c0.1,0.3,0.7,1.5,2.5,0.3l10.2-6.4l-6.2-6.4l-6,3.6
	L37.7,105.7z"/>
<path class="st0" d="M67.5,50.3l7.6,7.3l9.2-6.4c-2.2-0.8-1.1-7.6-1.1-7.6l-15.7,0.3C67.5,43.8,68.4,47.8,67.5,50.3"/>
<path class="st1" d="M106.8,71.2l11.9,11.2l-14.4,15.5l14.9,9.2l15.2-25.8c0,0-3.9-8.6-12.7-16.3c-8.4-7.3-13.8-10-13.8-10"/>
<polygon class="st2" points="48.8,274.9 48.8,290 1.4,290 27.2,274.9 "/>
<polygon class="st2" points="96.2,274.9 96.2,290 143.6,290 117.8,274.9 "/>
<polygon class="st3" points="49.7,113.3 102.3,112.8 131.1,279.1 92.6,279.1 75.1,141.7 52.5,279.1 16.5,279.1 "/>
<path class="st4" d="M19.5,278.9c0,0-6.7-5.2-7-2.5C12.3,278.1,19.5,278.9,19.5,278.9z"/>
<path class="st5" d="M14.2,280.5c0,0,3.5,0.2,5.8-1.4"/>
<path class="st4" d="M125.4,278.9c0,0,7.4-6,6.8-2.8C131.9,277.9,125.4,278.9,125.4,278.9z"/>
<path class="st5" d="M133,280.9c0,0-5.5-0.1-7.8-1.7"/>
<path class="st1" d="M83.4,50c16.2,0.9,24.6,4.8,24.6,4.8c-0.3,13.7-5.6,58-5.6,58l-52.6,0.6l-4.9-57.6c7.4-3.2,15.1-4.8,22.6-5.5
	l7.9,4.8L83.4,50L83.4,50L83.4,50z"/>
<polygon class="st1" points="67.5,50.3 75.2,54.8 71.2,57.6 65.1,50.5 "/>
<line class="st6" x1="75.3" y1="54.8" x2="75.3" y2="113.2"/>
<polygon class="st1" points="83.4,50 75.7,54.8 79.8,57.6 86.1,50.2 "/>
<circle class="st6" cx="77.9" cy="67.2" r="0.8"/>
<circle class="st6" cx="77.9" cy="90.4" r="0.8"/>
<circle class="st6" cx="77.9" cy="78.8" r="0.8"/>
<circle class="st6" cx="77.9" cy="101.8" r="0.8"/>
<rect x="56.3" class="st7" width="37.8" height="48"/>
<path class="st8" d="M59.5,24c0,0-4.3-0.7-2.8,4.3c0,0,0.8,2.9,3.8,4.4"/>
<path class="st9" d="M59.5,24c0,0-4.3-0.7-2.8,4.3c0,0,0.8,2.9,3.8,4.4"/>
<path class="st10" d="M90.7,24c0,0,4.2-0.9,2.9,4.2c0,0-0.7,3-3.6,4.6"/>
<path class="st11" d="M90.7,24c0,0,4.2-0.9,2.9,4.2c0,0-0.7,3-3.6,4.6"/>
<path class="st12" d="M75,4.3c-4.5,0-14.4,1.2-15.5,12.5c0,0-1.3,16.6,3,23.7c2.3,3.8,6.2,7.2,12.4,7.2c5.7,0,10.6-3,12.9-6.8
	c1.3-2.2,3.5-7.8,2.6-24.5C90.4,16.5,90.4,4.3,75,4.3L75,4.3L75,4.3z"/>
<path class="st13" d="M68.3,25.5c0.5,0,0.8-0.4,0.8-0.9s-0.4-0.9-0.8-0.9s-0.8,0.4-0.8,0.9S67.8,25.5,68.3,25.5z"/>
<path class="st9" d="M70.2,20.3l-2.7,0.3"/>
<path class="st13" d="M81.6,25.5c0.5,0,0.8-0.4,0.8-0.9s-0.4-0.9-0.8-0.9s-0.8,0.4-0.8,0.9S81.1,25.5,81.6,25.5z"/>
<path class="st9" d="M79.8,20.3l2.7,0.3"/>
<path class="st9" d="M74.9,27.3L74,34.2l2.2,0.4"/>
<path class="st14" d="M69.9,38.8c0,0,4.6,3.2,10.2,0"/>
<path d="M88.6,18.2c1.1,4.1,0.3,11.4-1,15c-0.6,1.8-2.1,4.1-4,3.8c-2.6-0.4-3.7-0.9-8.9-0.9c-2.2,0-5.1,0.3-8.4,0.7
	c-1.9,0.2-3.7-1.8-4-3.6c-1.5-7.7-1.5-11.6-0.8-14.9c0.9-3.8-1.2-4.9-1.2-4.9c-0.9,1.6-0.7,4.5-0.8,5.9c0,0-1.1,17.3,4.7,23.6
	c1.5,1.6,4.1,4.5,10,5c3.4,0.3,6.9-0.3,10.8-3.5c3.2-2.5,6.4-6,5.4-27.8c0,0-0.2-1.6-0.6-3.2C89.8,13.3,87.7,14.9,88.6,18.2
	L88.6,18.2L88.6,18.2z"/>
<path class="st15" d="M70,41.8c0,0,5.1,3.5,10.2,0"/>
<path d="M61.7,16.2c0,0-4.3,0.6-4.3-4.6c0,0-0.4-2.1,2.3-3.7c0,0,2.3-1.7,4.1-3.1c0,0,4.4-4.8,11.1-4.7c0,0,2.1,0.1,5.3,1.9
	c0,0,2.6,1.3,6.4,2.6c0,0,4.5,1.8,5.4,5.7c0,0,0.5,3.1-1.9,5.4l-1.6,0.6c0,0-4.9-2.4-12.9-2.4C69,13.7,67.5,14.9,61.7,16.2
	L61.7,16.2L61.7,16.2z"/>
</svg>
