<?xml version="1.0" encoding="UTF-8"?><svg id="Calque_1" xmlns="http://www.w3.org/2000/svg" viewBox="0 0 219.61 290.39"><defs><style>.cls-1{stroke-width:.28px;}.cls-1,.cls-2,.cls-3,.cls-4,.cls-5,.cls-6{fill:none;}.cls-1,.cls-7,.cls-3,.cls-4,.cls-5,.cls-6,.cls-8,.cls-9,.cls-10,.cls-11,.cls-12,.cls-13{stroke-miterlimit:10;}.cls-1,.cls-7,.cls-4{stroke:#1d1e1c;}.cls-2,.cls-14,.cls-15{stroke-width:0px;}.cls-7{stroke-width:.27px;}.cls-7,.cls-16,.cls-15{fill:#fbf2eb;}.cls-16{stroke-linecap:square;stroke-linejoin:round;}.cls-16,.cls-3,.cls-4,.cls-5,.cls-6,.cls-8,.cls-9,.cls-10,.cls-11,.cls-12,.cls-13{stroke-width:.75px;}.cls-16,.cls-5,.cls-8,.cls-9,.cls-10,.cls-13{stroke:#000;}.cls-3,.cls-11,.cls-12{stroke:#1d1d1b;}.cls-6{stroke:#fbf2eb;}.cls-8{stroke-linecap:round;}.cls-8,.cls-11{fill:#fff;}.cls-9{fill:#faf2ea;}.cls-10{fill:#ffe078;}.cls-14{fill:#1d1e1c;}.cls-12{fill:#a9c180;}.cls-13{fill:#4669aa;}</style></defs><path class="cls-9" d="M3.95,268.03s7.49-6.05,6.88-2.85c-.34,1.77-6.88,2.85-6.88,2.85Z"/><path class="cls-5" d="M10.59,270.03s-5.54-.13-7.87-1.75"/><path class="cls-8" d="M1.28,128.22s-.18-2.68-.9-4.22"/><path class="cls-8" d="M2.74,127.66s.02-2.63-.71-4.18"/><path class="cls-16" d="M190,104.49l-5.02,3.78,4.08,2.95s2.62,1.58,2.3,2.7c-.09.31-1.04,1.54-2.83.29l-10.82-6.87,6.31-6.53,5.99,3.68Z"/><path class="cls-10" d="M120.8,72.01l-11.9,11.16,14.41,15.46-14.91,9.16-15.25-25.84s3.91-8.64,12.7-16.31c8.4-7.32,13.78-10.01,13.78-10.01"/><path class="cls-16" d="M112,105.47l5.02,3.78-4.08,2.95s-2.62,1.58-2.3,2.7c.09.31,1.04,1.54,2.83.29l10.82-6.87-6.31-6.53-5.99,3.68Z"/><path class="cls-16" d="M142.09,50.26l7.58,7.33,9.17-6.42c-2.18-.85-1.05-7.63-1.05-7.63l-15.69.28s.87,3.98,0,6.43"/><path class="cls-10" d="M181.41,71.18l11.9,11.16-14.41,15.46,14.91,9.16,15.25-25.84s-3.91-8.64-12.7-16.31c-8.4-7.32-13.78-10.01-13.78-10.01"/><polygon class="cls-12" points="123.41 274.85 123.41 290.02 75.97 290.02 101.8 274.85 123.41 274.85"/><polygon class="cls-12" points="170.8 274.85 170.8 290.02 218.23 290.02 192.41 274.85 170.8 274.85"/><polygon class="cls-13" points="124.33 113.34 176.93 112.77 205.72 279.06 167.15 279.06 149.67 141.7 127.04 279.06 91.05 279.06 124.33 113.34"/><path class="cls-9" d="M94.09,278.86s-6.71-5.24-7-2.52c-.19,1.77,7,2.52,7,2.52Z"/><path class="cls-5" d="M88.79,280.47s3.54.18,5.84-1.41"/><path class="cls-9" d="M200.03,278.93s7.39-5.97,6.79-2.81c-.33,1.75-6.79,2.81-6.79,2.81Z"/><path class="cls-5" d="M207.56,280.9s-5.47-.12-7.77-1.72"/><path class="cls-10" d="M157.95,50c16.17.93,24.62,4.8,24.62,4.8-.32,13.69-5.64,57.97-5.64,57.97l-52.6.57-4.92-57.6c7.44-3.19,15.13-4.75,22.64-5.47l7.93,4.76,7.98-5.03Z"/><polygon class="cls-10" points="142.09 50.26 149.77 54.82 145.75 57.59 139.66 50.53 142.09 50.26"/><line class="cls-11" x1="149.93" y1="54.8" x2="149.93" y2="113.21"/><polygon class="cls-10" points="158.01 50 150.32 54.82 154.34 57.59 160.71 50.2 158.01 50"/><circle class="cls-3" cx="152.5" cy="67.24" r=".78"/><circle class="cls-3" cx="152.5" cy="90.39" r=".78"/><circle class="cls-3" cx="152.5" cy="78.82" r=".78"/><circle class="cls-3" cx="152.5" cy="101.8" r=".78"/><rect class="cls-2" x="130.86" y="0" width="37.8" height="47.96"/><path class="cls-15" d="M134.14,24.05s-4.28-.72-2.76,4.34c0,0,.82,2.92,3.79,4.4"/><path class="cls-4" d="M134.14,24.05s-4.28-.72-2.76,4.34c0,0,.82,2.92,3.79,4.4"/><path class="cls-15" d="M165.3,24.05s4.24-.9,2.93,4.22c0,0-.7,2.96-3.6,4.56"/><path class="cls-4" d="M165.3,24.05s4.24-.9,2.93,4.22c0,0-.7,2.96-3.6,4.56"/><path class="cls-7" d="M149.61,4.32c-4.54,0-14.37,1.21-15.47,12.47,0,0-1.26,16.63,3.04,23.73,2.33,3.84,6.23,7.23,12.37,7.23,5.74,0,10.63-2.96,12.92-6.76,1.35-2.23,3.47-7.85,2.55-24.52,0,0,0-12.16-15.41-12.16h0Z"/><path class="cls-14" d="M142.91,25.52c.47,0,.85-.38.85-.85s-.38-.85-.85-.85-.85.38-.85.85.38.85.85.85Z"/><path class="cls-4" d="M144.75,20.28l-2.69.29"/><path class="cls-14" d="M156.19,25.52c.47,0,.85-.38.85-.85s-.38-.85-.85-.85-.85.38-.85.85.38.85.85.85Z"/><path class="cls-4" d="M154.35,20.28l2.69.29"/><path class="cls-4" d="M149.49,27.31l-.92,6.94,2.19.43"/><path class="cls-1" d="M144.47,38.83s4.59,3.24,10.15,0"/><path class="cls-14" d="M163.16,18.16c1.08,4.1.26,11.39-.98,14.98-.63,1.82-2.12,4.09-4.02,3.79-2.62-.42-3.69-.87-8.87-.87-2.17,0-5.11.26-8.39.7-1.87.25-3.65-1.75-4.02-3.61-1.51-7.66-1.54-11.6-.78-14.94.87-3.77-1.25-4.91-1.25-4.91-.43,1.45-.65,4.48-.83,5.88,0,0-1.12,17.32,4.75,23.61,1.47,1.57,4.13,4.5,10.04,4.98,3.38.27,6.88-.34,10.81-3.5,3.18-2.55,6.37-6.02,5.4-27.77,0,0-.2-1.55-.58-3.19,0,0-2.14,1.61-1.28,4.88h0Z"/><path class="cls-6" d="M144.59,41.78s5.07,3.49,10.15,0"/><path class="cls-14" d="M136.3,16.17s-4.31.62-4.3-4.65c0,0-.43-2.13,2.32-3.74,0,0,2.28-1.7,4.06-3.09,0,0,4.42-4.82,11.1-4.69,0,0,2.12.07,5.26,1.86,0,0,2.57,1.28,6.42,2.63,0,0,4.48,1.81,5.38,5.67,0,0,.5,3.12-1.93,5.36l-1.64.64s-4.92-2.37-12.92-2.41c-6.49-.03-8,1.11-13.76,2.41h0Z"/></svg>