<svg width="203" height="203" viewBox="0 0 203 203" fill="none" xmlns="http://www.w3.org/2000/svg">
<circle cx="101.5" cy="101.5" r="101" fill="#FFE078" stroke="black"/>
<g clip-path="url(#clip0_548_5564)">
<path d="M49.6102 94.7379C49.6102 94.7379 35.0691 92.2773 40.2442 109.485C40.2442 109.485 43.0382 119.423 53.1185 124.455" fill="#FCF3EC"/>
<path d="M49.6102 94.7379C49.6102 94.7379 35.0691 92.2773 40.2442 109.485C40.2442 109.485 43.0382 119.423 53.1185 124.455" stroke="#1D1D1B" stroke-width="0.83" stroke-miterlimit="10"/>
<path d="M155.51 94.7223C155.51 94.7223 169.924 91.6744 165.463 109.073C165.463 109.073 163.082 119.121 153.224 124.566" fill="#FCF3EC"/>
<path d="M155.51 94.7223C155.51 94.7223 169.924 91.6744 165.463 109.073C165.463 109.073 163.082 119.121 153.224 124.566" stroke="#1D1D1B" stroke-width="0.83" stroke-miterlimit="10"/>
<path d="M102.203 27.6841C86.7885 27.6841 53.3725 31.8115 49.6261 70.085C49.6261 70.085 45.34 126.614 59.9446 150.744C67.8501 163.808 81.1054 175.318 101.98 175.318C121.49 175.318 138.127 165.253 145.905 152.331C150.477 144.743 157.7 125.662 154.589 68.9738C154.589 68.9738 154.589 27.6523 102.203 27.6523V27.6841Z" fill="#FCF3EC" stroke="#1D1D1B" stroke-width="0.83" stroke-miterlimit="10"/>
<path d="M79.4226 99.7388C81.0183 99.7388 82.3118 98.4453 82.3118 96.8496C82.3118 95.254 81.0183 93.9604 79.4226 93.9604C77.827 93.9604 76.5334 95.254 76.5334 96.8496C76.5334 98.4453 77.827 99.7388 79.4226 99.7388Z" fill="#1D1D1B"/>
<path d="M85.6613 81.9272L76.5334 82.9115" stroke="#1D1D1B" stroke-width="0.88" stroke-miterlimit="10"/>
<path d="M124.554 99.7388C126.15 99.7388 127.443 98.4453 127.443 96.8496C127.443 95.254 126.15 93.9604 124.554 93.9604C122.958 93.9604 121.665 95.254 121.665 96.8496C121.665 98.4453 122.958 99.7388 124.554 99.7388Z" fill="#1D1D1B"/>
<path d="M118.3 81.9272L127.443 82.9115" stroke="#1D1D1B" stroke-width="0.88" stroke-miterlimit="10"/>
<path d="M101.774 105.803L98.6626 129.376L106.108 130.853" stroke="#1D1D1B" stroke-width="0.88" stroke-miterlimit="10"/>
<path d="M84.7407 144.981C84.7407 144.981 100.345 155.998 119.236 144.981" stroke="#1D1D1B" stroke-width="0.88" stroke-miterlimit="10"/>
<path d="M148.255 74.7203C151.938 88.6581 149.144 113.438 144.921 125.63C142.778 131.821 137.714 139.536 131.253 138.504C122.363 137.091 118.712 135.536 101.092 135.536C93.7099 135.536 83.7248 136.425 72.5808 137.901C66.2151 138.742 60.1669 131.948 58.9287 125.646C53.7854 99.5957 53.6901 86.2134 56.2935 74.8631C59.2462 62.0365 52.055 58.1631 52.055 58.1631C50.5946 63.1001 49.8326 73.3868 49.2452 78.1333C49.2452 78.1333 45.0457 136.633 65 158C69.2025 162.5 76.0002 172.5 99.52 175.286C111.013 176.206 122.903 174.127 136.254 163.396C147.048 154.728 157.907 142.949 154.621 69.0054C154.621 69.0054 153.954 63.7509 152.636 58.1631C152.636 58.1631 145.35 63.6398 148.287 74.7361L148.255 74.7203Z" fill="#1D1D1B"/>
<path d="M85.1375 154.982C85.1375 154.982 102.377 166.856 119.633 154.982" stroke="#FCF3EC" stroke-width="0.88" stroke-miterlimit="10"/>
<path d="M56.9602 67.9418C56.9602 67.9418 42.3238 70.0532 42.3556 52.1466C42.3556 52.1466 40.911 44.892 50.2294 39.447C50.2294 39.447 57.992 33.6687 64.0402 28.9539C64.0561 28.938 79.0734 12.5714 101.774 13C101.774 13 108.981 13.2222 119.665 19.3339C119.665 19.3339 128.396 23.6994 141.492 28.2872C141.492 28.2872 156.732 34.4306 159.764 47.543C159.764 47.543 161.447 58.1472 153.208 65.7511L147.636 67.9101C147.636 67.9101 130.904 59.8617 103.711 59.7347C81.661 59.6394 76.5176 63.5128 56.9443 67.926L56.9602 67.9418Z" fill="#1D1D1B"/>
</g>
<defs>
<clipPath id="clip0_548_5564">
<rect width="128.489" height="163" fill="white" transform="translate(38.4822 13)"/>
</clipPath>
</defs>
</svg>
