<?xml version="1.0" encoding="UTF-8"?>
<svg id="Calque_6" data-name="Calque 6" xmlns="http://www.w3.org/2000/svg" viewBox="0 0 206.04 366.3">
  <defs>
    <style>
      .cls-1 {
        fill: #386f9c;
      }

      .cls-1, .cls-2 {
        stroke-width: 0px;
      }

      .cls-2 {
        fill: #fff;
      }
    </style>
  </defs>
  <path class="cls-1" d="M42.7,93.68l1.87,13.92s51.42.51,51.99.51,61.67-.29,61.67-.29l2.16-14.65-30.79,1.12s-31.1-.29-32.42-.29-54.47-.32-54.47-.32Z"/>
  <path class="cls-1" d="M69.38,119.27l-1.09,15.76s31.31-.88,32.24-.75,33.25-.13,33.25-.13v-14.88l-35.14,1.03-29.25-1.03Z"/>
  <path class="cls-1" d="M68.9,159.81s37.31.7,37.77.7,32.97-1.41,32.97-1.41c0,0-2.22,15.29-2.5,15.82-.28.53-29.92-1.05-31.31-1.05s-34.7,1.16-34.7,1.16l-5.45-2.74,3.21-12.48Z"/>
  <path class="cls-1" d="M65.7,199.43h76.03l-2.77,14.69s-39.57-.8-40.85-.8-33.1.8-33.1.8l.69-14.69Z"/>
  <path class="cls-2" d="M196.82,297.61s1.9,46.03,2.08,46.43-1.36,12.65-1.36,12.65c0,0-31.59.78-38.04.74-6.45-.04-152.07.51-152.21-.65-.14-1.16-.21-19.92-.05-22.92.16-3,1.11-36.13,2-36.73s164.77,1.02,164.77,1.02l22.81-.54Z"/>
  <path class="cls-2" d="M189.62,9.22s1.75,35.81,1.92,36.05-1.26,7.61-1.26,7.61c0,0-29.12.47-35.06.45-5.94-.02-140.17.31-140.31-.39s-.2-20.1-.05-21.91c.15-1.81,1.02-21.74,1.84-22.1s151.88.61,151.88.61l21.03-.33Z"/>
  <path class="cls-2" d="M140.37,50.89s.79,30.6.87,30.81-.57,6.5-.57,6.5c0,0-13.19.4-15.89.38-2.69-.02-63.51.26-63.57-.34s-.09-17.18-.02-18.72c.07-1.54.46-18.57.84-18.88s68.82.53,68.82.53l9.53-.28Z"/>
</svg>