<svg width="54" height="55" viewBox="0 0 54 55" fill="none" xmlns="http://www.w3.org/2000/svg">
<g id="Group 89">
<ellipse id="Ellipse 98" cx="26.9342" cy="27.0707" rx="26.9342" ry="27.0707" fill="#82C7A8"/>
<path id="Vector" d="M39.9291 39.1269C35.7015 39.1269 32.2744 35.6654 32.2744 31.3955C32.2744 27.1255 35.7015 23.6641 39.9291 23.6641C44.1567 23.6641 47.5838 27.1255 47.5838 31.3955C47.5838 35.6654 44.1567 39.1269 39.9291 39.1269Z" fill="black"/>
<path id="Vector_2" d="M13.9394 39.1269C9.71177 39.1269 6.28463 35.6654 6.28463 31.3955C6.28463 27.1255 9.71177 23.6641 13.9394 23.6641C18.1669 23.6641 21.5941 27.1255 21.5941 31.3955C21.5941 35.6654 18.1669 39.1269 13.9394 39.1269Z" fill="black"/>
<path id="Vector_3" d="M35.4805 20.3301L22.1768 30.1945V20.4855L35.4805 20.3301Z" fill="white"/>
<path id="Vector_4" d="M24.4452 17.6377L18.7671 21.8471V17.7036L24.4452 17.6377Z" fill="white"/>
<path id="Vector_5" d="M36.2498 21.8138H39.4524C40.8277 21.8138 41.9477 20.6838 41.9477 19.2936V17.4831C41.9477 16.0941 40.8289 14.9629 39.4524 14.9629H35.3267V16.3755H39.4524C40.0573 16.3755 40.5491 16.8722 40.5491 17.4831V19.2936C40.5491 19.9045 40.0573 20.4013 39.4524 20.4013H36.2498V21.8138Z" fill="white"/>
</g>
</svg>
