<svg width="58" height="46" viewBox="0 0 58 46" fill="none" xmlns="http://www.w3.org/2000/svg">
<g id="Union">
<mask id="path-1-inside-1_206_21" fill="white">
<path fill-rule="evenodd" clip-rule="evenodd" d="M34.7007 45.3674L58 22.9401L34.7007 0.512695V11.9435C11.1724 12.755 2.41945 34.4146 0.985046 45.3472C15.1628 31.0976 28.5612 29.7481 34.7007 31.0241V45.3674Z"/>
</mask>
<path d="M58 22.9401L60.774 25.8219L63.7679 22.9401L60.774 20.0582L58 22.9401ZM34.7007 45.3674H30.7007V54.7697L37.4747 48.2493L34.7007 45.3674ZM34.7007 0.512695L37.4747 -2.36915L30.7007 -8.88961V0.512695H34.7007ZM34.7007 11.9435L34.8386 15.9411L38.7007 15.8079V11.9435H34.7007ZM0.985046 45.3472L-2.98096 44.8269L-4.51914 56.5505L3.82061 48.1685L0.985046 45.3472ZM34.7007 31.0241H38.7007V27.7699L35.5146 27.1077L34.7007 31.0241ZM55.226 20.0582L31.9267 42.4856L37.4747 48.2493L60.774 25.8219L55.226 20.0582ZM31.9267 3.39454L55.226 25.8219L60.774 20.0582L37.4747 -2.36915L31.9267 3.39454ZM38.7007 11.9435V0.512695H30.7007V11.9435H38.7007ZM34.5628 7.94587C21.4113 8.39948 12.2975 14.7479 6.39027 22.407C0.574823 29.9471 -2.18948 38.7944 -2.98096 44.8269L4.95106 45.8676C5.59398 40.9674 7.92333 33.5185 12.725 27.2928C17.4349 21.1861 24.4617 16.299 34.8386 15.9411L34.5628 7.94587ZM3.82061 48.1685C17.1753 34.7462 29.2418 33.975 33.8868 34.9404L35.5146 27.1077C27.8806 25.5212 13.1504 27.449 -1.85052 42.5259L3.82061 48.1685ZM38.7007 45.3674V31.0241H30.7007V45.3674H38.7007Z" fill="#545454" mask="url(#path-1-inside-1_206_21)"/>
</g>
</svg>
